<svg viewBox="0 0 301 200" xmlns="http://www.w3.org/2000/svg"><g><g><g><g><g><line x1="30" y1="177" x2="25" y2="177" style="visibility: inherit;" fill="rgb(0, 0, 0)" stroke="rgb(204, 204, 204)" stroke-width="1px"></line><line x1="30" y1="162.25" x2="25" y2="162.25" style="visibility: inherit;" fill="rgb(0, 0, 0)" stroke="rgb(204, 204, 204)" stroke-width="1px"></line><line x1="30" y1="147.5" x2="25" y2="147.5" style="visibility: inherit;" fill="rgb(0, 0, 0)" stroke="rgb(204, 204, 204)" stroke-width="1px"></line><line x1="30" y1="132.75" x2="25" y2="132.75" style="visibility: inherit;" fill="rgb(0, 0, 0)" stroke="rgb(204, 204, 204)" stroke-width="1px"></line><line x1="30" y1="118.00000000000001" x2="25" y2="118.00000000000001" style="visibility: inherit;" fill="rgb(0, 0, 0)" stroke="rgb(204, 204, 204)" stroke-width="1px"></line><line x1="30" y1="103.24999999999999" x2="25" y2="103.24999999999999" style="visibility: inherit;" fill="rgb(0, 0, 0)" stroke="rgb(204, 204, 204)" stroke-width="1px"></line><line x1="30" y1="88.5" x2="25" y2="88.5" style="visibility: inherit;" fill="rgb(0, 0, 0)" stroke="rgb(204, 204, 204)" stroke-width="1px"></line><line x1="30" y1="73.75" x2="25" y2="73.75" style="visibility: inherit;" fill="rgb(0, 0, 0)" stroke="rgb(204, 204, 204)" stroke-width="1px"></line><line x1="30" y1="59.00000000000001" x2="25" y2="59.00000000000001" style="visibility: inherit;" fill="rgb(0, 0, 0)" stroke="rgb(204, 204, 204)" stroke-width="1px"></line><line x1="30" y1="44.25" x2="25" y2="44.25" style="visibility: inherit;" fill="rgb(0, 0, 0)" stroke="rgb(204, 204, 204)" stroke-width="1px"></line><line x1="30" y1="29.499999999999993" x2="25" y2="29.499999999999993" style="visibility: inherit;" fill="rgb(0, 0, 0)" stroke="rgb(204, 204, 204)" stroke-width="1px"></line><line x1="30" y1="14.750000000000007" x2="25" y2="14.750000000000007" style="visibility: inherit;" fill="rgb(0, 0, 0)" stroke="rgb(204, 204, 204)" stroke-width="1px"></line><line x1="30" y1="0" x2="25" y2="0" style="visibility: inherit;" fill="rgb(0, 0, 0)" stroke="rgb(204, 204, 204)" stroke-width="1px"></line></g><g transform="translate(20, 0)"><text x="0" y="177" dx="0em" dy="0.3em" style="text-anchor: end; visibility: hidden; font-family: Roboto, sans-serif; font-size: 12px; font-weight: 200;" fill="rgb(33, 33, 33)" stroke="none" stroke-width="1px">-5</text><text x="0" y="162.25" dx="0em" dy="0.3em" style="text-anchor: end; visibility: inherit; font-family: Roboto, sans-serif; font-size: 12px; font-weight: 200;" fill="rgb(33, 33, 33)" stroke="none" stroke-width="1px">0</text><text x="0" y="147.5" dx="0em" dy="0.3em" style="text-anchor: end; visibility: hidden; font-family: Roboto, sans-serif; font-size: 12px; font-weight: 200;" fill="rgb(33, 33, 33)" stroke="none" stroke-width="1px">5</text><text x="0" y="132.75" dx="0em" dy="0.3em" style="text-anchor: end; visibility: inherit; font-family: Roboto, sans-serif; font-size: 12px; font-weight: 200;" fill="rgb(33, 33, 33)" stroke="none" stroke-width="1px">10</text><text x="0" y="118.00000000000001" dx="0em" dy="0.3em" style="text-anchor: end; visibility: hidden; font-family: Roboto, sans-serif; font-size: 12px; font-weight: 200;" fill="rgb(33, 33, 33)" stroke="none" stroke-width="1px">15</text><text x="0" y="103.24999999999999" dx="0em" dy="0.3em" style="text-anchor: end; visibility: inherit; font-family: Roboto, sans-serif; font-size: 12px; font-weight: 200;" fill="rgb(33, 33, 33)" stroke="none" stroke-width="1px">20</text><text x="0" y="88.5" dx="0em" dy="0.3em" style="text-anchor: end; visibility: hidden; font-family: Roboto, sans-serif; font-size: 12px; font-weight: 200;" fill="rgb(33, 33, 33)" stroke="none" stroke-width="1px">25</text><text x="0" y="73.75" dx="0em" dy="0.3em" style="text-anchor: end; visibility: inherit; font-family: Roboto, sans-serif; font-size: 12px; font-weight: 200;" fill="rgb(33, 33, 33)" stroke="none" stroke-width="1px">30</text><text x="0" y="59.00000000000001" dx="0em" dy="0.3em" style="text-anchor: end; visibility: hidden; font-family: Roboto, sans-serif; font-size: 12px; font-weight: 200;" fill="rgb(33, 33, 33)" stroke="none" stroke-width="1px">35</text><text x="0" y="44.25" dx="0em" dy="0.3em" style="text-anchor: end; visibility: inherit; font-family: Roboto, sans-serif; font-size: 12px; font-weight: 200;" fill="rgb(33, 33, 33)" stroke="none" stroke-width="1px">40</text><text x="0" y="29.499999999999993" dx="0em" dy="0.3em" style="text-anchor: end; visibility: hidden; font-family: Roboto, sans-serif; font-size: 12px; font-weight: 200;" fill="rgb(33, 33, 33)" stroke="none" stroke-width="1px">45</text><text x="0" y="14.750000000000007" dx="0em" dy="0.3em" style="text-anchor: end; visibility: inherit; font-family: Roboto, sans-serif; font-size: 12px; font-weight: 200;" fill="rgb(33, 33, 33)" stroke="none" stroke-width="1px">50</text><text x="0" y="0" dx="0em" dy="0.3em" style="text-anchor: end; visibility: hidden; font-family: Roboto, sans-serif; font-size: 12px; font-weight: 200;" fill="rgb(33, 33, 33)" stroke="none" stroke-width="1px">55</text></g><line x1="30" y1="0" x2="30" y2="177" fill="rgb(0, 0, 0)" stroke="rgb(204, 204, 204)" stroke-width="1px"></line></g></g><g transform="translate(30, 0)" clip-path="url(#clip_0)"><clipPath id="clip_0"><rect width="271" height="177"></rect></clipPath><g><g><g><line x1="0" y1="0" x2="0" y2="177" fill="rgb(0, 0, 0)" stroke="rgb(66, 66, 66)" stroke-width="1px" opacity="0.25"></line><line x1="22.583333333333332" y1="0" x2="22.583333333333332" y2="177" fill="rgb(0, 0, 0)" stroke="rgb(66, 66, 66)" stroke-width="1px" opacity="0.25"></line><line x1="45.166666666666664" y1="0" x2="45.166666666666664" y2="177" fill="rgb(0, 0, 0)" stroke="rgb(66, 66, 66)" stroke-width="1px" opacity="0.25"></line><line x1="67.75" y1="0" x2="67.75" y2="177" fill="rgb(0, 0, 0)" stroke="rgb(66, 66, 66)" stroke-width="1px" opacity="0.25"></line><line x1="90.33333333333333" y1="0" x2="90.33333333333333" y2="177" fill="rgb(0, 0, 0)" stroke="rgb(66, 66, 66)" stroke-width="1px" opacity="0.25"></line><line x1="112.91666666666667" y1="0" x2="112.91666666666667" y2="177" fill="rgb(0, 0, 0)" stroke="rgb(66, 66, 66)" stroke-width="1px" opacity="0.25"></line><line x1="135.5" y1="0" x2="135.5" y2="177" fill="rgb(0, 0, 0)" stroke="rgb(66, 66, 66)" stroke-width="1px" opacity="0.25"></line><line x1="158.08333333333334" y1="0" x2="158.08333333333334" y2="177" fill="rgb(0, 0, 0)" stroke="rgb(66, 66, 66)" stroke-width="1px" opacity="0.25"></line><line x1="180.66666666666666" y1="0" x2="180.66666666666666" y2="177" fill="rgb(0, 0, 0)" stroke="rgb(66, 66, 66)" stroke-width="1px" opacity="0.25"></line><line x1="203.25" y1="0" x2="203.25" y2="177" fill="rgb(0, 0, 0)" stroke="rgb(66, 66, 66)" stroke-width="1px" opacity="0.25"></line><line x1="225.83333333333334" y1="0" x2="225.83333333333334" y2="177" fill="rgb(0, 0, 0)" stroke="rgb(66, 66, 66)" stroke-width="1px" opacity="0.25"></line><line x1="248.41666666666666" y1="0" x2="248.41666666666666" y2="177" fill="rgb(0, 0, 0)" stroke="rgb(66, 66, 66)" stroke-width="1px" opacity="0.25"></line><line x1="271" y1="0" x2="271" y2="177" fill="rgb(0, 0, 0)" stroke="rgb(66, 66, 66)" stroke-width="1px" opacity="0.25"></line></g><g><line x1="0" y1="177" x2="271" y2="177" fill="rgb(0, 0, 0)" stroke="rgb(66, 66, 66)" stroke-width="1px" opacity="0.25"></line><line x1="0" y1="162.25" x2="271" y2="162.25" fill="rgb(0, 0, 0)" stroke="rgb(66, 66, 66)" stroke-width="1px" opacity="0.25"></line><line x1="0" y1="147.5" x2="271" y2="147.5" fill="rgb(0, 0, 0)" stroke="rgb(66, 66, 66)" stroke-width="1px" opacity="0.25"></line><line x1="0" y1="132.75" x2="271" y2="132.75" fill="rgb(0, 0, 0)" stroke="rgb(66, 66, 66)" stroke-width="1px" opacity="0.25"></line><line x1="0" y1="118.00000000000001" x2="271" y2="118.00000000000001" fill="rgb(0, 0, 0)" stroke="rgb(66, 66, 66)" stroke-width="1px" opacity="0.25"></line><line x1="0" y1="103.24999999999999" x2="271" y2="103.24999999999999" fill="rgb(0, 0, 0)" stroke="rgb(66, 66, 66)" stroke-width="1px" opacity="0.25"></line><line x1="0" y1="88.5" x2="271" y2="88.5" fill="rgb(0, 0, 0)" stroke="rgb(66, 66, 66)" stroke-width="1px" opacity="0.25"></line><line x1="0" y1="73.75" x2="271" y2="73.75" fill="rgb(0, 0, 0)" stroke="rgb(66, 66, 66)" stroke-width="1px" opacity="0.25"></line><line x1="0" y1="59.00000000000001" x2="271" y2="59.00000000000001" fill="rgb(0, 0, 0)" stroke="rgb(66, 66, 66)" stroke-width="1px" opacity="0.25"></line><line x1="0" y1="44.25" x2="271" y2="44.25" fill="rgb(0, 0, 0)" stroke="rgb(66, 66, 66)" stroke-width="1px" opacity="0.25"></line><line x1="0" y1="29.499999999999993" x2="271" y2="29.499999999999993" fill="rgb(0, 0, 0)" stroke="rgb(66, 66, 66)" stroke-width="1px" opacity="0.25"></line><line x1="0" y1="14.750000000000007" x2="271" y2="14.750000000000007" fill="rgb(0, 0, 0)" stroke="rgb(66, 66, 66)" stroke-width="1px" opacity="0.25"></line><line x1="0" y1="0" x2="271" y2="0" fill="rgb(0, 0, 0)" stroke="rgb(66, 66, 66)" stroke-width="1px" opacity="0.25"></line></g></g></g><g><g><line x1="0" y1="162.25" x2="271" y2="162.25" fill="rgb(0, 0, 0)" stroke="rgb(153, 153, 153)" stroke-width="1.5px"></line></g></g><g><g><line x1="22.583333333333332" y1="0" x2="22.583333333333332" y2="177" fill="rgb(0, 0, 0)" stroke="rgb(153, 153, 153)" stroke-width="1.5px"></line></g></g><g><g><g><g><g><path stroke="rgb(238, 51, 119)" stroke-width="2px" d="M32.74583333333334,-14.82323684692382L33.875,11.370673179626458L35.00416666666667,40.020549583435056L36.13333333333333,64.14596881866456L37.2625,81.08279428482057L38.391666666666666,93.19340944290161L39.520833333333336,103.08060321807862L40.65,112.2075089454651L41.77916666666667,119.50841121673585L42.90833333333333,124.62510442733763L44.0375,128.16757397651674L45.166666666666664,130.78191165924073L46.295833333333334,132.8034815788269L47.425,134.5487112522125L48.55416666666667,136.0180648803711L49.68333333333333,137.15633912086486L50.8125,138.06778225898742L51.94166666666667,138.8092631340027L53.07083333333333,139.51023473739625L54.2,140.1941757917404L55.329166666666666,140.86261534690857L56.458333333333336,141.4758023262024L57.5875,142.0842868089676L58.71666666666667,142.64717972278595L59.84583333333333,143.1992567539215L60.975,143.7953147172928L62.104166666666664,144.38066511154176L63.233333333333334,144.90687489509583L64.3625,145.42622857093812L65.49166666666667,145.9538281440735L66.62083333333332,146.47728226184844L67.75,147.00504360198974L68.87916666666666,147.51338024139403L70.00833333333334,148.00482137203215L71.1375,148.477925157547L72.26666666666667,148.90695939064025L73.39583333333333,149.3145025253296L74.525,149.70229461193085L75.65416666666667,150.04287745952607L76.78333333333333,150.38159646987916L77.9125,150.75681926012038L79.04166666666667,151.06405841112138L80.17083333333333,151.32959402799605L81.3,151.58031671047212L82.42916666666666,151.84000480175018L83.55833333333334,152.0898004889488L84.6875,152.29708662033082L85.81666666666666,152.4932185649872L86.94583333333334,152.70227639675142L88.075,152.88981570005416L89.20416666666667,153.06615580320357L90.33333333333333,153.2380557537079L91.4625,153.39994443655013L92.59166666666667,153.552535033226L93.72083333333333,153.69812885522842L94.85,153.83648184537887L95.97916666666667,153.96892189979553L97.10833333333333,154.09653145074844L98.2375,154.22007502317427L99.36666666666666,154.3400934815407L100.49583333333334,154.45653055906297L101.625,154.5686590075493L102.75416666666666,154.67699859142303L103.88333333333334,154.7832169175148L105.0125,154.88699818849562L106.14166666666667,154.98792181015014L107.27083333333333,155.0858344554901L108.4,155.18069884777069L109.52916666666667,155.2727435708046L110.65833333333333,155.36218173503875L111.7875,155.44913642406465L112.91666666666667,155.53375182151794L114.04583333333333,155.61679807901382L115.175,155.6987815976143L116.30416666666666,155.77955889701843L117.43333333333334,155.85788226127625L118.5625,155.9336637735367L119.69166666666666,156.00724033117294L120.82083333333334,156.0789628982544L121.95,156.14872316122054L123.07916666666667,156.21642476320267L124.20833333333333,156.28220133781434L125.3375,156.3462441921234L126.46666666666667,156.40860080122948L127.59583333333333,156.46924057006837L128.725,156.5281483769417L129.85416666666669,156.58541284203528L130.98333333333335,156.6412361741066L132.11249999999998,156.69584977030755L133.24166666666665,156.74902856349945L134.37083333333334,156.80046167969704L135.5,156.85060980319977L136.62916666666666,156.89997019171716L137.75833333333333,156.94801745414733L138.8875,156.99462041854858L140.01666666666668,157.03993628025054L141.14583333333334,157.08459100723266L142.275,157.12864543795587L143.40416666666667,157.17163009643554L144.53333333333333,157.2132063269615L145.6625,157.2533030927181L146.79166666666666,157.29211099743844L147.92083333333332,157.32979743480684L149.05,157.36645841002465L150.17916666666667,157.40210658311844L151.30833333333334,157.4367482841015L152.4375,157.47048127651215L153.56666666666666,157.50334213376044L154.69583333333333,157.53517330884932L155.825,157.5660099685192L156.95416666666668,157.59632018208504L158.08333333333334,157.62626501321793L159.2125,157.6554245710373L160.34166666666667,157.6834753215313L161.47083333333333,157.71024354100228L162.6,157.73553229570388L163.72916666666666,157.75898640155793L164.85833333333332,157.7799081504345L165.9875,157.79683003425598L167.11666666666667,157.80667250156404L168.24583333333334,157.80283334851265L169.375,157.77035756707193L170.50416666666666,157.67634456157685L171.63333333333333,157.51787971258165L172.7625,157.61163389086724L173.89166666666668,158.11663109660148L175.02083333333334,158.0699662387371L176.15,158.09497049450874L177.27916666666667,158.08806304335593L178.40833333333333,158.12095801234244L179.5375,158.1285923600197L180.66666666666666,158.15212348103523L181.79583333333332,158.16606885194778L182.925,158.18705776929855L184.05416666666667,158.20409886837007L185.18333333333334,158.22395506501198L186.3125,158.24182715415955L187.44166666666666,158.2608864724636L188.57083333333333,158.27950690984727L189.7,158.29889820218085L190.82916666666668,158.31812526583673L191.95833333333334,158.33750495314598L193.0875,158.35654492974282L194.21666666666667,158.37523007392883L195.34583333333333,158.39344574213027L196.475,158.41153903007506L197.60416666666666,158.42969034314154L198.73333333333332,158.44796720147133L199.8625,158.46629083156586L200.99166666666667,158.48459371328354L202.12083333333334,158.50285404324532L203.25,158.52104403972626L204.37916666666666,158.53916510939598L205.50833333333333,158.5572007238865L206.6375,158.57516424655915L207.76666666666668,158.59306306242942L208.89583333333334,158.6108933031559L210.025,158.62865707874298L211.15416666666667,158.6464071393013L212.28333333333333,158.6641712665558L213.4125,158.6820641040802L214.54166666666666,158.70019115209578L215.67083333333332,158.71829921007156L216.8,158.73572608828545L217.92916666666667,158.75242993831634L219.05833333333334,158.76913484334946L220.1875,158.78600432872773L221.31666666666666,158.8027989089489L222.44583333333333,158.81937123537062L223.575,158.83574100136758L224.70416666666668,158.85194126367568L225.83333333333334,158.8680054306984L226.9625,158.88397992253303L228.09166666666667,158.8999058842659L229.22083333333333,158.91582762598992L230.35,158.93177855610847L231.47916666666666,158.9478022813797L232.60833333333332,158.96391040682792L233.7375,158.9801068007946L234.86666666666667,158.9963475048542L235.99583333333334,159.01232445836067L237.125,159.02762128710748L238.25416666666666,159.04229425787926L239.38333333333333,159.05673829317092L240.5125,159.07118690013885L241.64166666666668,159.08560842871665L242.77083333333334,159.0998826086521L243.9,159.11395352482796L245.02916666666667,159.12780359387398L246.15833333333333,159.14144864082337L247.2875,159.15489851236345" style="fill: none;" fill="none"></path></g></g></g></g></g><g><g opacity="0.066892"><span fill="rgb(0, 0, 0)" stroke="none" stroke-width="1px">Alt + Scroll to Zoom</span></g></g></g><g transform="translate(30, 177)" clip-path="url(#clip_1)"><clipPath id="clip_1"><rect width="271" height="23"></rect></clipPath><g><g><line x1="0" y1="0" x2="0" y2="5" style="visibility: inherit;" fill="rgb(0, 0, 0)" stroke="rgb(204, 204, 204)" stroke-width="1px"></line><line x1="22.583333333333332" y1="0" x2="22.583333333333332" y2="5" style="visibility: inherit;" fill="rgb(0, 0, 0)" stroke="rgb(204, 204, 204)" stroke-width="1px"></line><line x1="45.166666666666664" y1="0" x2="45.166666666666664" y2="5" style="visibility: inherit;" fill="rgb(0, 0, 0)" stroke="rgb(204, 204, 204)" stroke-width="1px"></line><line x1="67.75" y1="0" x2="67.75" y2="5" style="visibility: inherit;" fill="rgb(0, 0, 0)" stroke="rgb(204, 204, 204)" stroke-width="1px"></line><line x1="90.33333333333333" y1="0" x2="90.33333333333333" y2="5" style="visibility: inherit;" fill="rgb(0, 0, 0)" stroke="rgb(204, 204, 204)" stroke-width="1px"></line><line x1="112.91666666666667" y1="0" x2="112.91666666666667" y2="5" style="visibility: inherit;" fill="rgb(0, 0, 0)" stroke="rgb(204, 204, 204)" stroke-width="1px"></line><line x1="135.5" y1="0" x2="135.5" y2="5" style="visibility: inherit;" fill="rgb(0, 0, 0)" stroke="rgb(204, 204, 204)" stroke-width="1px"></line><line x1="158.08333333333334" y1="0" x2="158.08333333333334" y2="5" style="visibility: inherit;" fill="rgb(0, 0, 0)" stroke="rgb(204, 204, 204)" stroke-width="1px"></line><line x1="180.66666666666666" y1="0" x2="180.66666666666666" y2="5" style="visibility: inherit;" fill="rgb(0, 0, 0)" stroke="rgb(204, 204, 204)" stroke-width="1px"></line><line x1="203.25" y1="0" x2="203.25" y2="5" style="visibility: inherit;" fill="rgb(0, 0, 0)" stroke="rgb(204, 204, 204)" stroke-width="1px"></line><line x1="225.83333333333334" y1="0" x2="225.83333333333334" y2="5" style="visibility: inherit;" fill="rgb(0, 0, 0)" stroke="rgb(204, 204, 204)" stroke-width="1px"></line><line x1="248.41666666666666" y1="0" x2="248.41666666666666" y2="5" style="visibility: inherit;" fill="rgb(0, 0, 0)" stroke="rgb(204, 204, 204)" stroke-width="1px"></line><line x1="271" y1="0" x2="271" y2="5" style="visibility: inherit;" fill="rgb(0, 0, 0)" stroke="rgb(204, 204, 204)" stroke-width="1px"></line></g><g transform="translate(0, 8)"><text x="0" y="0" dx="0em" dy="0.95em" style="text-anchor: middle; visibility: hidden; font-family: Roboto, sans-serif; font-size: 12px; font-weight: 200;" fill="rgb(33, 33, 33)" stroke="none" stroke-width="1px">-20</text><text x="22.583333333333332" y="0" dx="0em" dy="0.95em" style="text-anchor: middle; visibility: inherit; font-family: Roboto, sans-serif; font-size: 12px; font-weight: 200;" fill="rgb(33, 33, 33)" stroke="none" stroke-width="1px">0</text><text x="45.166666666666664" y="0" dx="0em" dy="0.95em" style="text-anchor: middle; visibility: hidden; font-family: Roboto, sans-serif; font-size: 12px; font-weight: 200;" fill="rgb(33, 33, 33)" stroke="none" stroke-width="1px">20</text><text x="67.75" y="0" dx="0em" dy="0.95em" style="text-anchor: middle; visibility: inherit; font-family: Roboto, sans-serif; font-size: 12px; font-weight: 200;" fill="rgb(33, 33, 33)" stroke="none" stroke-width="1px">40</text><text x="90.33333333333333" y="0" dx="0em" dy="0.95em" style="text-anchor: middle; visibility: hidden; font-family: Roboto, sans-serif; font-size: 12px; font-weight: 200;" fill="rgb(33, 33, 33)" stroke="none" stroke-width="1px">60</text><text x="112.91666666666667" y="0" dx="0em" dy="0.95em" style="text-anchor: middle; visibility: inherit; font-family: Roboto, sans-serif; font-size: 12px; font-weight: 200;" fill="rgb(33, 33, 33)" stroke="none" stroke-width="1px">80</text><text x="135.5" y="0" dx="0em" dy="0.95em" style="text-anchor: middle; visibility: hidden; font-family: Roboto, sans-serif; font-size: 12px; font-weight: 200;" fill="rgb(33, 33, 33)" stroke="none" stroke-width="1px">100</text><text x="158.08333333333334" y="0" dx="0em" dy="0.95em" style="text-anchor: middle; visibility: inherit; font-family: Roboto, sans-serif; font-size: 12px; font-weight: 200;" fill="rgb(33, 33, 33)" stroke="none" stroke-width="1px">120</text><text x="180.66666666666666" y="0" dx="0em" dy="0.95em" style="text-anchor: middle; visibility: hidden; font-family: Roboto, sans-serif; font-size: 12px; font-weight: 200;" fill="rgb(33, 33, 33)" stroke="none" stroke-width="1px">140</text><text x="203.25" y="0" dx="0em" dy="0.95em" style="text-anchor: middle; visibility: inherit; font-family: Roboto, sans-serif; font-size: 12px; font-weight: 200;" fill="rgb(33, 33, 33)" stroke="none" stroke-width="1px">160</text><text x="225.83333333333334" y="0" dx="0em" dy="0.95em" style="text-anchor: middle; visibility: hidden; font-family: Roboto, sans-serif; font-size: 12px; font-weight: 200;" fill="rgb(33, 33, 33)" stroke="none" stroke-width="1px">180</text><text x="248.41666666666666" y="0" dx="0em" dy="0.95em" style="text-anchor: middle; visibility: inherit; font-family: Roboto, sans-serif; font-size: 12px; font-weight: 200;" fill="rgb(33, 33, 33)" stroke="none" stroke-width="1px">200</text><text x="271" y="0" dx="0em" dy="0.95em" style="text-anchor: middle; visibility: hidden; font-family: Roboto, sans-serif; font-size: 12px; font-weight: 200;" fill="rgb(33, 33, 33)" stroke="none" stroke-width="1px">220</text></g><line x1="0" y1="0" x2="271" y2="0" fill="rgb(0, 0, 0)" stroke="rgb(204, 204, 204)" stroke-width="1px"></line></g></g></g></g></svg>