<svg viewBox="0 0 301 200" xmlns="http://www.w3.org/2000/svg"><g><g><g><g><g><line x1="51.5625" y1="177" x2="46.5625" y2="177" style="visibility: inherit;" fill="rgb(0, 0, 0)" stroke="rgb(204, 204, 204)" stroke-width="1px"></line><line x1="51.5625" y1="157.33333333333331" x2="46.5625" y2="157.33333333333331" style="visibility: inherit;" fill="rgb(0, 0, 0)" stroke="rgb(204, 204, 204)" stroke-width="1px"></line><line x1="51.5625" y1="137.66666666666666" x2="46.5625" y2="137.66666666666666" style="visibility: inherit;" fill="rgb(0, 0, 0)" stroke="rgb(204, 204, 204)" stroke-width="1px"></line><line x1="51.5625" y1="118.00000000000001" x2="46.5625" y2="118.00000000000001" style="visibility: inherit;" fill="rgb(0, 0, 0)" stroke="rgb(204, 204, 204)" stroke-width="1px"></line><line x1="51.5625" y1="98.33333333333334" x2="46.5625" y2="98.33333333333334" style="visibility: inherit;" fill="rgb(0, 0, 0)" stroke="rgb(204, 204, 204)" stroke-width="1px"></line><line x1="51.5625" y1="78.66666666666666" x2="46.5625" y2="78.66666666666666" style="visibility: inherit;" fill="rgb(0, 0, 0)" stroke="rgb(204, 204, 204)" stroke-width="1px"></line><line x1="51.5625" y1="59.00000000000001" x2="46.5625" y2="59.00000000000001" style="visibility: inherit;" fill="rgb(0, 0, 0)" stroke="rgb(204, 204, 204)" stroke-width="1px"></line><line x1="51.5625" y1="39.33333333333333" x2="46.5625" y2="39.33333333333333" style="visibility: inherit;" fill="rgb(0, 0, 0)" stroke="rgb(204, 204, 204)" stroke-width="1px"></line><line x1="51.5625" y1="19.666666666666675" x2="46.5625" y2="19.666666666666675" style="visibility: inherit;" fill="rgb(0, 0, 0)" stroke="rgb(204, 204, 204)" stroke-width="1px"></line><line x1="51.5625" y1="0" x2="46.5625" y2="0" style="visibility: inherit;" fill="rgb(0, 0, 0)" stroke="rgb(204, 204, 204)" stroke-width="1px"></line></g><g transform="translate(41.5625, 0)"><text x="0" y="177" dx="0em" dy="0.3em" style="text-anchor: end; visibility: hidden; font-family: Roboto, sans-serif; font-size: 12px; font-weight: 200;" fill="rgb(33, 33, 33)" stroke="none" stroke-width="1px">-0.5</text><text x="0" y="157.33333333333331" dx="0em" dy="0.3em" style="text-anchor: end; visibility: inherit; font-family: Roboto, sans-serif; font-size: 12px; font-weight: 200;" fill="rgb(33, 33, 33)" stroke="none" stroke-width="1px">0</text><text x="0" y="137.66666666666666" dx="0em" dy="0.3em" style="text-anchor: end; visibility: hidden; font-family: Roboto, sans-serif; font-size: 12px; font-weight: 200;" fill="rgb(33, 33, 33)" stroke="none" stroke-width="1px">0.5</text><text x="0" y="118.00000000000001" dx="0em" dy="0.3em" style="text-anchor: end; visibility: inherit; font-family: Roboto, sans-serif; font-size: 12px; font-weight: 200;" fill="rgb(33, 33, 33)" stroke="none" stroke-width="1px">1</text><text x="0" y="98.33333333333334" dx="0em" dy="0.3em" style="text-anchor: end; visibility: hidden; font-family: Roboto, sans-serif; font-size: 12px; font-weight: 200;" fill="rgb(33, 33, 33)" stroke="none" stroke-width="1px">1.5</text><text x="0" y="78.66666666666666" dx="0em" dy="0.3em" style="text-anchor: end; visibility: inherit; font-family: Roboto, sans-serif; font-size: 12px; font-weight: 200;" fill="rgb(33, 33, 33)" stroke="none" stroke-width="1px">2</text><text x="0" y="59.00000000000001" dx="0em" dy="0.3em" style="text-anchor: end; visibility: hidden; font-family: Roboto, sans-serif; font-size: 12px; font-weight: 200;" fill="rgb(33, 33, 33)" stroke="none" stroke-width="1px">2.5</text><text x="0" y="39.33333333333333" dx="0em" dy="0.3em" style="text-anchor: end; visibility: inherit; font-family: Roboto, sans-serif; font-size: 12px; font-weight: 200;" fill="rgb(33, 33, 33)" stroke="none" stroke-width="1px">3</text><text x="0" y="19.666666666666675" dx="0em" dy="0.3em" style="text-anchor: end; visibility: hidden; font-family: Roboto, sans-serif; font-size: 12px; font-weight: 200;" fill="rgb(33, 33, 33)" stroke="none" stroke-width="1px">3.5</text><text x="0" y="0" dx="0em" dy="0.3em" style="text-anchor: end; visibility: hidden; font-family: Roboto, sans-serif; font-size: 12px; font-weight: 200;" fill="rgb(33, 33, 33)" stroke="none" stroke-width="1px">4</text></g><line x1="51.5625" y1="0" x2="51.5625" y2="177" fill="rgb(0, 0, 0)" stroke="rgb(204, 204, 204)" stroke-width="1px"></line></g></g><g transform="translate(51, 0)" clip-path="url(#clip_0)"><clipPath id="clip_0"><rect width="249" height="177"></rect></clipPath><g><g><g><line x1="0" y1="0" x2="0" y2="177" fill="rgb(0, 0, 0)" stroke="rgb(66, 66, 66)" stroke-width="1px" opacity="0.25"></line><line x1="20.786458333333332" y1="0" x2="20.786458333333332" y2="177" fill="rgb(0, 0, 0)" stroke="rgb(66, 66, 66)" stroke-width="1px" opacity="0.25"></line><line x1="41.572916666666664" y1="0" x2="41.572916666666664" y2="177" fill="rgb(0, 0, 0)" stroke="rgb(66, 66, 66)" stroke-width="1px" opacity="0.25"></line><line x1="62.359375" y1="0" x2="62.359375" y2="177" fill="rgb(0, 0, 0)" stroke="rgb(66, 66, 66)" stroke-width="1px" opacity="0.25"></line><line x1="83.14583333333333" y1="0" x2="83.14583333333333" y2="177" fill="rgb(0, 0, 0)" stroke="rgb(66, 66, 66)" stroke-width="1px" opacity="0.25"></line><line x1="103.93229166666667" y1="0" x2="103.93229166666667" y2="177" fill="rgb(0, 0, 0)" stroke="rgb(66, 66, 66)" stroke-width="1px" opacity="0.25"></line><line x1="124.71875" y1="0" x2="124.71875" y2="177" fill="rgb(0, 0, 0)" stroke="rgb(66, 66, 66)" stroke-width="1px" opacity="0.25"></line><line x1="145.50520833333334" y1="0" x2="145.50520833333334" y2="177" fill="rgb(0, 0, 0)" stroke="rgb(66, 66, 66)" stroke-width="1px" opacity="0.25"></line><line x1="166.29166666666666" y1="0" x2="166.29166666666666" y2="177" fill="rgb(0, 0, 0)" stroke="rgb(66, 66, 66)" stroke-width="1px" opacity="0.25"></line><line x1="187.078125" y1="0" x2="187.078125" y2="177" fill="rgb(0, 0, 0)" stroke="rgb(66, 66, 66)" stroke-width="1px" opacity="0.25"></line><line x1="207.86458333333334" y1="0" x2="207.86458333333334" y2="177" fill="rgb(0, 0, 0)" stroke="rgb(66, 66, 66)" stroke-width="1px" opacity="0.25"></line><line x1="228.65104166666666" y1="0" x2="228.65104166666666" y2="177" fill="rgb(0, 0, 0)" stroke="rgb(66, 66, 66)" stroke-width="1px" opacity="0.25"></line><line x1="249.4375" y1="0" x2="249.4375" y2="177" fill="rgb(0, 0, 0)" stroke="rgb(66, 66, 66)" stroke-width="1px" opacity="0.25"></line></g><g><line x1="0" y1="177" x2="249.4375" y2="177" fill="rgb(0, 0, 0)" stroke="rgb(66, 66, 66)" stroke-width="1px" opacity="0.25"></line><line x1="0" y1="157.33333333333331" x2="249.4375" y2="157.33333333333331" fill="rgb(0, 0, 0)" stroke="rgb(66, 66, 66)" stroke-width="1px" opacity="0.25"></line><line x1="0" y1="137.66666666666666" x2="249.4375" y2="137.66666666666666" fill="rgb(0, 0, 0)" stroke="rgb(66, 66, 66)" stroke-width="1px" opacity="0.25"></line><line x1="0" y1="118.00000000000001" x2="249.4375" y2="118.00000000000001" fill="rgb(0, 0, 0)" stroke="rgb(66, 66, 66)" stroke-width="1px" opacity="0.25"></line><line x1="0" y1="98.33333333333334" x2="249.4375" y2="98.33333333333334" fill="rgb(0, 0, 0)" stroke="rgb(66, 66, 66)" stroke-width="1px" opacity="0.25"></line><line x1="0" y1="78.66666666666666" x2="249.4375" y2="78.66666666666666" fill="rgb(0, 0, 0)" stroke="rgb(66, 66, 66)" stroke-width="1px" opacity="0.25"></line><line x1="0" y1="59.00000000000001" x2="249.4375" y2="59.00000000000001" fill="rgb(0, 0, 0)" stroke="rgb(66, 66, 66)" stroke-width="1px" opacity="0.25"></line><line x1="0" y1="39.33333333333333" x2="249.4375" y2="39.33333333333333" fill="rgb(0, 0, 0)" stroke="rgb(66, 66, 66)" stroke-width="1px" opacity="0.25"></line><line x1="0" y1="19.666666666666675" x2="249.4375" y2="19.666666666666675" fill="rgb(0, 0, 0)" stroke="rgb(66, 66, 66)" stroke-width="1px" opacity="0.25"></line><line x1="0" y1="0" x2="249.4375" y2="0" fill="rgb(0, 0, 0)" stroke="rgb(66, 66, 66)" stroke-width="1px" opacity="0.25"></line></g></g></g><g><g><line x1="0" y1="157.33333333333331" x2="249.4375" y2="157.33333333333331" fill="rgb(0, 0, 0)" stroke="rgb(153, 153, 153)" stroke-width="1.5px"></line></g></g><g><g><line x1="20.786458333333332" y1="0" x2="20.786458333333332" y2="177" fill="rgb(0, 0, 0)" stroke="rgb(153, 153, 153)" stroke-width="1.5px"></line></g></g><g><g><g><g><g><path stroke="rgb(238, 51, 119)" stroke-width="2px" d="M30.140364583333334,-6.309982299804674L31.1796875,25.3027416865031L32.21901041666667,50.84615516662597L33.25833333333333,68.96885188420613L34.29765625,82.95293434460957L35.336979166666666,95.35304117202759L36.376302083333336,109.83981108665468L37.415625,121.19350341955821L38.45494791666667,128.9233522415161L39.49427083333333,134.75300375620523L40.53359375,138.99632932742435L41.572916666666664,141.39429074525833L42.612239583333334,141.9653142094612L43.6515625,141.77401769161224L44.69088541666667,142.28305977582932L45.73020833333333,142.59167019526163L46.76953125,143.23483471075696L47.80885416666667,143.9770756562551L48.84817708333333,144.73641584316888L49.8875,145.55491586526236L50.926822916666666,146.23642150561017L51.966145833333336,146.51295751333237L53.00546875,146.74912093083066L54.04479166666667,147.00079053640366L55.08411458333333,147.37166835864386L56.1234375,147.75767139593762L57.162760416666664,148.14433380961418L58.202083333333334,148.33876251180968L59.24140625,148.28987195094427L60.28072916666667,148.16511442263922L61.32005208333333,148.1061280767123L62.359375,148.03581217924756L63.39869791666666,147.81274661421776L64.43802083333334,147.57528202732405L65.47734375,147.70982470115024L66.51666666666667,147.49045691887537L67.55598958333333,147.0463373263677L68.5953125,146.29617096980414L69.63463541666667,145.0119812488556L70.67395833333333,144.6591592033704L71.71328125,147.15783816576004L72.75260416666667,148.6346431573232L73.79192708333333,147.94622549414635L74.83125,147.43036868174872L75.87057291666666,147.81122916936874L76.90989583333334,148.6200612684091L77.94921875,148.78962181011838L78.98854166666666,148.69631331165633L80.02786458333334,148.97895367940268L81.0671875,149.31059538324672L82.10651041666667,149.30626284082732L83.14583333333333,149.2169668674469L84.18515625,149.3834092915058L85.22447916666667,149.61707469820976L86.26380208333333,149.81739207108814L87.303125,149.98982866605124L88.34244791666667,150.1326958934466L89.38177083333333,150.25664458672208L90.42109375,150.3665277560552L91.46041666666666,150.46510950724283L92.49973958333334,150.55517914891243L93.5390625,150.6292338569959L94.57838541666666,150.67578114072484L95.61770833333334,150.71381279826164L96.65703125,150.76053415735564L97.69635416666667,150.80676728487015L98.73567708333333,150.84242049853006L99.775,150.86884185671806L100.81432291666667,150.89573034644127L101.85364583333333,150.92801048358282L102.89296875,150.96315846840542L103.93229166666667,150.99972953399023L104.97161458333333,151.02734128634134L106.0109375,150.99402255813283L107.05026041666666,150.96088318030039L108.08958333333334,151.02323615550995L109.12890625,151.14086304108304L110.16822916666666,151.23836400111514L111.20755208333334,151.29890764753026L112.246875,151.3446800907453L113.28619791666667,151.392951130867L114.32552083333333,151.44422658284503L115.36484375,151.49253630638123L116.40416666666667,151.53500717878342L117.44348958333333,151.57261273264885L118.4828125,151.60723731915158L119.52213541666667,151.63947173953056L120.56145833333333,151.66890981793404L121.60078125,151.69869546095532L122.64010416666666,151.73167717456818L123.67942708333334,151.76277688145638L124.71875,151.7905222674211L125.75807291666666,151.8177571495374L126.79739583333333,151.84024979670843L127.83671874999999,151.85903176665306L128.87604166666668,151.87899709741274L129.91536458333334,151.9062407712142L130.9546875,151.93648358186087L131.99401041666667,151.9608851969242L133.03333333333333,151.97888412078223L134.07265625,151.9933915734291L135.11197916666666,152.0056137740612L136.15130208333332,152.01517150799432L137.190625,152.02184615532556L138.22994791666667,152.02533821264902L139.26927083333334,152.02525850137073L140.30859375,152.02144349614778L141.34791666666666,152.0137888689836L142.38723958333333,152.0006968776385L143.4265625,151.98154448469478L144.46588541666668,151.95849092801413L145.50520833333334,151.93258476257324L146.54453125,151.9010015130043L147.58385416666667,151.85944673419L148.62317708333333,151.80331534147263L149.6625,151.72687163949013L150.70182291666666,151.62162872155508L151.74114583333332,151.47269640366235L152.78046875,151.25185747941333L153.81979166666667,150.90272090832391L154.85911458333334,150.30698987841606L155.8984375,149.19907754659653L156.93776041666666,147.0239396293958L157.97708333333333,143.67902346452078L159.01640625,143.6930878162384L160.05572916666668,151.1273719072342L161.09505208333334,151.48617288470268L162.134375,151.37860427300134L163.17369791666667,151.1285810569922L164.21302083333333,151.3496919373671L165.25234375,151.30527634421983L166.29166666666666,151.40223163366318L167.33098958333332,151.39047304789224L168.3703125,151.44574344158173L169.40963541666667,151.45103193322817L170.44895833333334,151.4816885391871L171.48828125,151.48544376095137L172.52760416666666,151.49846014380455L173.56692708333333,151.5028231640657L174.60625,151.51529153188068L175.64557291666668,151.52590426802635L176.68489583333334,151.53871023654938L177.72421875,151.5474210381508L178.76354166666667,151.55260754625002L179.80286458333333,151.5529609719912L180.8421875,151.55284668008488L181.88151041666666,151.55448251962662L182.92083333333332,151.55929567416507L183.96015625,151.56638646125793L184.99947916666667,151.57482237617177L186.03880208333334,151.58379751443863L187.078125,151.5927538971106L188.11744791666666,151.60156199336052L189.15677083333333,151.60995629429817L190.19609375,151.61802120010057L191.23541666666668,151.6259612639745L192.27473958333334,151.63377062479657L193.3140625,151.64154188831648L194.35338541666667,151.6498060723146L195.39270833333333,151.658601274093L196.43203125,151.6683289806048L197.47135416666666,151.67853319644928L198.51067708333332,151.68556947509447L199.55,151.68425541122753L200.58932291666667,151.6773715217908L201.62864583333334,151.67371535301208L202.66796875,151.6756125986576L203.70729166666666,151.68091339866322L204.74661458333333,151.68735360105833L205.7859375,151.6941231985887L206.82526041666668,151.70080898205438L207.86458333333334,151.7071647842725L208.90390625,151.7132890721162L209.94322916666667,151.71928265690804L210.98255208333333,151.7250775496165L212.021875,151.73038655519485L213.06119791666666,151.73448172211647L214.10052083333332,151.73653370141983L215.13984375,151.73586611946422L216.17916666666667,151.73228614528975L217.21848958333334,151.72518480817476L218.2578125,151.71374506751698L219.29713541666666,151.7009326517582L220.33645833333333,151.6907864610354L221.37578125,151.68527231613794L222.41510416666668,151.68407195806503L223.45442708333334,151.6854967971643L224.49375,151.68838574488956L225.53307291666667,151.69193055232364L226.57239583333333,151.69561602671942L227.61171875,151.6991696258386" style="fill: none;" fill="none"></path></g></g></g></g></g></g><g transform="translate(51, 177)" clip-path="url(#clip_1)"><clipPath id="clip_1"><rect width="249" height="23"></rect></clipPath><g><g><line x1="0" y1="0" x2="0" y2="5" style="visibility: inherit;" fill="rgb(0, 0, 0)" stroke="rgb(204, 204, 204)" stroke-width="1px"></line><line x1="20.786458333333332" y1="0" x2="20.786458333333332" y2="5" style="visibility: inherit;" fill="rgb(0, 0, 0)" stroke="rgb(204, 204, 204)" stroke-width="1px"></line><line x1="41.572916666666664" y1="0" x2="41.572916666666664" y2="5" style="visibility: inherit;" fill="rgb(0, 0, 0)" stroke="rgb(204, 204, 204)" stroke-width="1px"></line><line x1="62.359375" y1="0" x2="62.359375" y2="5" style="visibility: inherit;" fill="rgb(0, 0, 0)" stroke="rgb(204, 204, 204)" stroke-width="1px"></line><line x1="83.14583333333333" y1="0" x2="83.14583333333333" y2="5" style="visibility: inherit;" fill="rgb(0, 0, 0)" stroke="rgb(204, 204, 204)" stroke-width="1px"></line><line x1="103.93229166666667" y1="0" x2="103.93229166666667" y2="5" style="visibility: inherit;" fill="rgb(0, 0, 0)" stroke="rgb(204, 204, 204)" stroke-width="1px"></line><line x1="124.71875" y1="0" x2="124.71875" y2="5" style="visibility: inherit;" fill="rgb(0, 0, 0)" stroke="rgb(204, 204, 204)" stroke-width="1px"></line><line x1="145.50520833333334" y1="0" x2="145.50520833333334" y2="5" style="visibility: inherit;" fill="rgb(0, 0, 0)" stroke="rgb(204, 204, 204)" stroke-width="1px"></line><line x1="166.29166666666666" y1="0" x2="166.29166666666666" y2="5" style="visibility: inherit;" fill="rgb(0, 0, 0)" stroke="rgb(204, 204, 204)" stroke-width="1px"></line><line x1="187.078125" y1="0" x2="187.078125" y2="5" style="visibility: inherit;" fill="rgb(0, 0, 0)" stroke="rgb(204, 204, 204)" stroke-width="1px"></line><line x1="207.86458333333334" y1="0" x2="207.86458333333334" y2="5" style="visibility: inherit;" fill="rgb(0, 0, 0)" stroke="rgb(204, 204, 204)" stroke-width="1px"></line><line x1="228.65104166666666" y1="0" x2="228.65104166666666" y2="5" style="visibility: inherit;" fill="rgb(0, 0, 0)" stroke="rgb(204, 204, 204)" stroke-width="1px"></line><line x1="249.4375" y1="0" x2="249.4375" y2="5" style="visibility: inherit;" fill="rgb(0, 0, 0)" stroke="rgb(204, 204, 204)" stroke-width="1px"></line></g><g transform="translate(0, 8)"><text x="0" y="0" dx="0em" dy="0.95em" style="text-anchor: middle; visibility: hidden; font-family: Roboto, sans-serif; font-size: 12px; font-weight: 200;" fill="rgb(33, 33, 33)" stroke="none" stroke-width="1px">-20</text><text x="20.786458333333332" y="0" dx="0em" dy="0.95em" style="text-anchor: middle; visibility: inherit; font-family: Roboto, sans-serif; font-size: 12px; font-weight: 200;" fill="rgb(33, 33, 33)" stroke="none" stroke-width="1px">0</text><text x="41.572916666666664" y="0" dx="0em" dy="0.95em" style="text-anchor: middle; visibility: hidden; font-family: Roboto, sans-serif; font-size: 12px; font-weight: 200;" fill="rgb(33, 33, 33)" stroke="none" stroke-width="1px">20</text><text x="62.359375" y="0" dx="0em" dy="0.95em" style="text-anchor: middle; visibility: inherit; font-family: Roboto, sans-serif; font-size: 12px; font-weight: 200;" fill="rgb(33, 33, 33)" stroke="none" stroke-width="1px">40</text><text x="83.14583333333333" y="0" dx="0em" dy="0.95em" style="text-anchor: middle; visibility: hidden; font-family: Roboto, sans-serif; font-size: 12px; font-weight: 200;" fill="rgb(33, 33, 33)" stroke="none" stroke-width="1px">60</text><text x="103.93229166666667" y="0" dx="0em" dy="0.95em" style="text-anchor: middle; visibility: inherit; font-family: Roboto, sans-serif; font-size: 12px; font-weight: 200;" fill="rgb(33, 33, 33)" stroke="none" stroke-width="1px">80</text><text x="124.71875" y="0" dx="0em" dy="0.95em" style="text-anchor: middle; visibility: hidden; font-family: Roboto, sans-serif; font-size: 12px; font-weight: 200;" fill="rgb(33, 33, 33)" stroke="none" stroke-width="1px">100</text><text x="145.50520833333334" y="0" dx="0em" dy="0.95em" style="text-anchor: middle; visibility: inherit; font-family: Roboto, sans-serif; font-size: 12px; font-weight: 200;" fill="rgb(33, 33, 33)" stroke="none" stroke-width="1px">120</text><text x="166.29166666666666" y="0" dx="0em" dy="0.95em" style="text-anchor: middle; visibility: hidden; font-family: Roboto, sans-serif; font-size: 12px; font-weight: 200;" fill="rgb(33, 33, 33)" stroke="none" stroke-width="1px">140</text><text x="187.078125" y="0" dx="0em" dy="0.95em" style="text-anchor: middle; visibility: inherit; font-family: Roboto, sans-serif; font-size: 12px; font-weight: 200;" fill="rgb(33, 33, 33)" stroke="none" stroke-width="1px">160</text><text x="207.86458333333334" y="0" dx="0em" dy="0.95em" style="text-anchor: middle; visibility: hidden; font-family: Roboto, sans-serif; font-size: 12px; font-weight: 200;" fill="rgb(33, 33, 33)" stroke="none" stroke-width="1px">180</text><text x="228.65104166666666" y="0" dx="0em" dy="0.95em" style="text-anchor: middle; visibility: inherit; font-family: Roboto, sans-serif; font-size: 12px; font-weight: 200;" fill="rgb(33, 33, 33)" stroke="none" stroke-width="1px">200</text><text x="249.4375" y="0" dx="0em" dy="0.95em" style="text-anchor: middle; visibility: hidden; font-family: Roboto, sans-serif; font-size: 12px; font-weight: 200;" fill="rgb(33, 33, 33)" stroke="none" stroke-width="1px">220</text></g><line x1="0" y1="0" x2="249.4375" y2="0" fill="rgb(0, 0, 0)" stroke="rgb(204, 204, 204)" stroke-width="1px"></line></g></g></g></g></svg>