<svg viewBox="0 0 301 200" xmlns="http://www.w3.org/2000/svg"><g><g><g><g><g><line x1="30.78125" y1="177" x2="25.78125" y2="177" style="visibility: inherit;" fill="rgb(0, 0, 0)" stroke="rgb(204, 204, 204)" stroke-width="1px"></line><line x1="30.78125" y1="163.3846153846154" x2="25.78125" y2="163.3846153846154" style="visibility: inherit;" fill="rgb(0, 0, 0)" stroke="rgb(204, 204, 204)" stroke-width="1px"></line><line x1="30.78125" y1="149.76923076923077" x2="25.78125" y2="149.76923076923077" style="visibility: inherit;" fill="rgb(0, 0, 0)" stroke="rgb(204, 204, 204)" stroke-width="1px"></line><line x1="30.78125" y1="136.15384615384613" x2="25.78125" y2="136.15384615384613" style="visibility: inherit;" fill="rgb(0, 0, 0)" stroke="rgb(204, 204, 204)" stroke-width="1px"></line><line x1="30.78125" y1="122.53846153846153" x2="25.78125" y2="122.53846153846153" style="visibility: inherit;" fill="rgb(0, 0, 0)" stroke="rgb(204, 204, 204)" stroke-width="1px"></line><line x1="30.78125" y1="108.92307692307693" x2="25.78125" y2="108.92307692307693" style="visibility: inherit;" fill="rgb(0, 0, 0)" stroke="rgb(204, 204, 204)" stroke-width="1px"></line><line x1="30.78125" y1="95.3076923076923" x2="25.78125" y2="95.3076923076923" style="visibility: inherit;" fill="rgb(0, 0, 0)" stroke="rgb(204, 204, 204)" stroke-width="1px"></line><line x1="30.78125" y1="81.6923076923077" x2="25.78125" y2="81.6923076923077" style="visibility: inherit;" fill="rgb(0, 0, 0)" stroke="rgb(204, 204, 204)" stroke-width="1px"></line><line x1="30.78125" y1="68.07692307692307" x2="25.78125" y2="68.07692307692307" style="visibility: inherit;" fill="rgb(0, 0, 0)" stroke="rgb(204, 204, 204)" stroke-width="1px"></line><line x1="30.78125" y1="54.46153846153847" x2="25.78125" y2="54.46153846153847" style="visibility: inherit;" fill="rgb(0, 0, 0)" stroke="rgb(204, 204, 204)" stroke-width="1px"></line><line x1="30.78125" y1="40.84615384615384" x2="25.78125" y2="40.84615384615384" style="visibility: inherit;" fill="rgb(0, 0, 0)" stroke="rgb(204, 204, 204)" stroke-width="1px"></line><line x1="30.78125" y1="27.230769230769234" x2="25.78125" y2="27.230769230769234" style="visibility: inherit;" fill="rgb(0, 0, 0)" stroke="rgb(204, 204, 204)" stroke-width="1px"></line><line x1="30.78125" y1="13.615384615384606" x2="25.78125" y2="13.615384615384606" style="visibility: inherit;" fill="rgb(0, 0, 0)" stroke="rgb(204, 204, 204)" stroke-width="1px"></line><line x1="30.78125" y1="0" x2="25.78125" y2="0" style="visibility: inherit;" fill="rgb(0, 0, 0)" stroke="rgb(204, 204, 204)" stroke-width="1px"></line></g><g transform="translate(20.78125, 0)"><text x="0" y="177" dx="0em" dy="0.3em" style="text-anchor: end; visibility: hidden; font-family: Roboto, sans-serif; font-size: 12px; font-weight: 200;" fill="rgb(33, 33, 33)" stroke="none" stroke-width="1px">-5</text><text x="0" y="163.3846153846154" dx="0em" dy="0.3em" style="text-anchor: end; visibility: inherit; font-family: Roboto, sans-serif; font-size: 12px; font-weight: 200;" fill="rgb(33, 33, 33)" stroke="none" stroke-width="1px">0</text><text x="0" y="149.76923076923077" dx="0em" dy="0.3em" style="text-anchor: end; visibility: hidden; font-family: Roboto, sans-serif; font-size: 12px; font-weight: 200;" fill="rgb(33, 33, 33)" stroke="none" stroke-width="1px">5</text><text x="0" y="136.15384615384613" dx="0em" dy="0.3em" style="text-anchor: end; visibility: inherit; font-family: Roboto, sans-serif; font-size: 12px; font-weight: 200;" fill="rgb(33, 33, 33)" stroke="none" stroke-width="1px">10</text><text x="0" y="122.53846153846153" dx="0em" dy="0.3em" style="text-anchor: end; visibility: hidden; font-family: Roboto, sans-serif; font-size: 12px; font-weight: 200;" fill="rgb(33, 33, 33)" stroke="none" stroke-width="1px">15</text><text x="0" y="108.92307692307693" dx="0em" dy="0.3em" style="text-anchor: end; visibility: inherit; font-family: Roboto, sans-serif; font-size: 12px; font-weight: 200;" fill="rgb(33, 33, 33)" stroke="none" stroke-width="1px">20</text><text x="0" y="95.3076923076923" dx="0em" dy="0.3em" style="text-anchor: end; visibility: hidden; font-family: Roboto, sans-serif; font-size: 12px; font-weight: 200;" fill="rgb(33, 33, 33)" stroke="none" stroke-width="1px">25</text><text x="0" y="81.6923076923077" dx="0em" dy="0.3em" style="text-anchor: end; visibility: inherit; font-family: Roboto, sans-serif; font-size: 12px; font-weight: 200;" fill="rgb(33, 33, 33)" stroke="none" stroke-width="1px">30</text><text x="0" y="68.07692307692307" dx="0em" dy="0.3em" style="text-anchor: end; visibility: hidden; font-family: Roboto, sans-serif; font-size: 12px; font-weight: 200;" fill="rgb(33, 33, 33)" stroke="none" stroke-width="1px">35</text><text x="0" y="54.46153846153847" dx="0em" dy="0.3em" style="text-anchor: end; visibility: inherit; font-family: Roboto, sans-serif; font-size: 12px; font-weight: 200;" fill="rgb(33, 33, 33)" stroke="none" stroke-width="1px">40</text><text x="0" y="40.84615384615384" dx="0em" dy="0.3em" style="text-anchor: end; visibility: hidden; font-family: Roboto, sans-serif; font-size: 12px; font-weight: 200;" fill="rgb(33, 33, 33)" stroke="none" stroke-width="1px">45</text><text x="0" y="27.230769230769234" dx="0em" dy="0.3em" style="text-anchor: end; visibility: inherit; font-family: Roboto, sans-serif; font-size: 12px; font-weight: 200;" fill="rgb(33, 33, 33)" stroke="none" stroke-width="1px">50</text><text x="0" y="13.615384615384606" dx="0em" dy="0.3em" style="text-anchor: end; visibility: hidden; font-family: Roboto, sans-serif; font-size: 12px; font-weight: 200;" fill="rgb(33, 33, 33)" stroke="none" stroke-width="1px">55</text><text x="0" y="0" dx="0em" dy="0.3em" style="text-anchor: end; visibility: hidden; font-family: Roboto, sans-serif; font-size: 12px; font-weight: 200;" fill="rgb(33, 33, 33)" stroke="none" stroke-width="1px">60</text></g><line x1="30.78125" y1="0" x2="30.78125" y2="177" fill="rgb(0, 0, 0)" stroke="rgb(204, 204, 204)" stroke-width="1px"></line></g></g><g transform="translate(30, 0)" clip-path="url(#clip_0)"><clipPath id="clip_0"><rect width="270" height="177"></rect></clipPath><g><g><g><line x1="0" y1="0" x2="0" y2="177" fill="rgb(0, 0, 0)" stroke="rgb(66, 66, 66)" stroke-width="1px" opacity="0.25"></line><line x1="22.518229166666664" y1="0" x2="22.518229166666664" y2="177" fill="rgb(0, 0, 0)" stroke="rgb(66, 66, 66)" stroke-width="1px" opacity="0.25"></line><line x1="45.03645833333333" y1="0" x2="45.03645833333333" y2="177" fill="rgb(0, 0, 0)" stroke="rgb(66, 66, 66)" stroke-width="1px" opacity="0.25"></line><line x1="67.5546875" y1="0" x2="67.5546875" y2="177" fill="rgb(0, 0, 0)" stroke="rgb(66, 66, 66)" stroke-width="1px" opacity="0.25"></line><line x1="90.07291666666666" y1="0" x2="90.07291666666666" y2="177" fill="rgb(0, 0, 0)" stroke="rgb(66, 66, 66)" stroke-width="1px" opacity="0.25"></line><line x1="112.59114583333334" y1="0" x2="112.59114583333334" y2="177" fill="rgb(0, 0, 0)" stroke="rgb(66, 66, 66)" stroke-width="1px" opacity="0.25"></line><line x1="135.109375" y1="0" x2="135.109375" y2="177" fill="rgb(0, 0, 0)" stroke="rgb(66, 66, 66)" stroke-width="1px" opacity="0.25"></line><line x1="157.62760416666669" y1="0" x2="157.62760416666669" y2="177" fill="rgb(0, 0, 0)" stroke="rgb(66, 66, 66)" stroke-width="1px" opacity="0.25"></line><line x1="180.14583333333331" y1="0" x2="180.14583333333331" y2="177" fill="rgb(0, 0, 0)" stroke="rgb(66, 66, 66)" stroke-width="1px" opacity="0.25"></line><line x1="202.6640625" y1="0" x2="202.6640625" y2="177" fill="rgb(0, 0, 0)" stroke="rgb(66, 66, 66)" stroke-width="1px" opacity="0.25"></line><line x1="225.18229166666669" y1="0" x2="225.18229166666669" y2="177" fill="rgb(0, 0, 0)" stroke="rgb(66, 66, 66)" stroke-width="1px" opacity="0.25"></line><line x1="247.70052083333331" y1="0" x2="247.70052083333331" y2="177" fill="rgb(0, 0, 0)" stroke="rgb(66, 66, 66)" stroke-width="1px" opacity="0.25"></line><line x1="270.21875" y1="0" x2="270.21875" y2="177" fill="rgb(0, 0, 0)" stroke="rgb(66, 66, 66)" stroke-width="1px" opacity="0.25"></line></g><g><line x1="0" y1="177" x2="270.21875" y2="177" fill="rgb(0, 0, 0)" stroke="rgb(66, 66, 66)" stroke-width="1px" opacity="0.25"></line><line x1="0" y1="163.3846153846154" x2="270.21875" y2="163.3846153846154" fill="rgb(0, 0, 0)" stroke="rgb(66, 66, 66)" stroke-width="1px" opacity="0.25"></line><line x1="0" y1="149.76923076923077" x2="270.21875" y2="149.76923076923077" fill="rgb(0, 0, 0)" stroke="rgb(66, 66, 66)" stroke-width="1px" opacity="0.25"></line><line x1="0" y1="136.15384615384613" x2="270.21875" y2="136.15384615384613" fill="rgb(0, 0, 0)" stroke="rgb(66, 66, 66)" stroke-width="1px" opacity="0.25"></line><line x1="0" y1="122.53846153846153" x2="270.21875" y2="122.53846153846153" fill="rgb(0, 0, 0)" stroke="rgb(66, 66, 66)" stroke-width="1px" opacity="0.25"></line><line x1="0" y1="108.92307692307693" x2="270.21875" y2="108.92307692307693" fill="rgb(0, 0, 0)" stroke="rgb(66, 66, 66)" stroke-width="1px" opacity="0.25"></line><line x1="0" y1="95.3076923076923" x2="270.21875" y2="95.3076923076923" fill="rgb(0, 0, 0)" stroke="rgb(66, 66, 66)" stroke-width="1px" opacity="0.25"></line><line x1="0" y1="81.6923076923077" x2="270.21875" y2="81.6923076923077" fill="rgb(0, 0, 0)" stroke="rgb(66, 66, 66)" stroke-width="1px" opacity="0.25"></line><line x1="0" y1="68.07692307692307" x2="270.21875" y2="68.07692307692307" fill="rgb(0, 0, 0)" stroke="rgb(66, 66, 66)" stroke-width="1px" opacity="0.25"></line><line x1="0" y1="54.46153846153847" x2="270.21875" y2="54.46153846153847" fill="rgb(0, 0, 0)" stroke="rgb(66, 66, 66)" stroke-width="1px" opacity="0.25"></line><line x1="0" y1="40.84615384615384" x2="270.21875" y2="40.84615384615384" fill="rgb(0, 0, 0)" stroke="rgb(66, 66, 66)" stroke-width="1px" opacity="0.25"></line><line x1="0" y1="27.230769230769234" x2="270.21875" y2="27.230769230769234" fill="rgb(0, 0, 0)" stroke="rgb(66, 66, 66)" stroke-width="1px" opacity="0.25"></line><line x1="0" y1="13.615384615384606" x2="270.21875" y2="13.615384615384606" fill="rgb(0, 0, 0)" stroke="rgb(66, 66, 66)" stroke-width="1px" opacity="0.25"></line><line x1="0" y1="0" x2="270.21875" y2="0" fill="rgb(0, 0, 0)" stroke="rgb(66, 66, 66)" stroke-width="1px" opacity="0.25"></line></g></g></g><g><g><line x1="0" y1="163.3846153846154" x2="270.21875" y2="163.3846153846154" fill="rgb(0, 0, 0)" stroke="rgb(153, 153, 153)" stroke-width="1.5px"></line></g></g><g><g><line x1="22.518229166666664" y1="0" x2="22.518229166666664" y2="177" fill="rgb(0, 0, 0)" stroke="rgb(153, 153, 153)" stroke-width="1.5px"></line></g></g><g><g><g><g><g><path stroke="rgb(238, 51, 119)" stroke-width="2px" d="M32.651432291666666,-11.396735088641837L33.77734375,14.970825488750757L34.903255208333334,43.185248917799726L36.02916666666667,66.70951555692233L37.155078125,83.31162766676682L38.28098958333333,95.3491288992075L39.40690104166667,105.47869271498459L40.5328125,114.68955670870268L41.65872395833333,121.96400017371545L42.78463541666667,127.09069026066706L43.910546875,130.65442930368278L45.03645833333333,133.23367793743427L46.16236979166667,135.13927552149846L47.28828125,136.7370150199303L48.41419270833333,138.1285791690533L49.540104166666666,139.20065878354586L50.666015625,140.0865178475013L51.791927083333334,140.8223497537466L52.91783854166667,141.5219700886653L54.04375,142.20996397458592L55.16966145833333,142.87416739830604L56.29557291666667,143.45932940703173L57.421484375,144.03735765310432L58.54739583333333,144.57437520393958L59.67330729166667,145.1096606034499L60.79921875,145.68659034875725L61.92513020833333,146.2536829288189L63.05104166666667,146.75287361878614L64.176953125,147.22889451246996L65.30286458333333,147.70727082032423L66.42877604166667,148.1863781635578L67.5546875,148.66867193808923L68.68059895833333,149.12246442207925L69.80651041666667,149.55965993587787L70.932421875,150.00568760358368L72.05833333333334,150.38653366382306L73.18424479166666,150.731978394435L74.31015625,151.03800824238704L75.43606770833334,151.26348526294416L76.56197916666666,151.55172355358417L77.687890625,152.0710677073552L78.81380208333334,152.45691415346585L79.93971354166666,152.65436447216914L81.065625,152.85008783340453L82.19153645833333,153.11616653295664L83.31744791666667,153.40274278934186L84.443359375,153.6058232490833L85.56927083333333,153.78040696290822L86.69518229166667,153.9929512794201L87.82109375,154.189024576774L88.94700520833334,154.35150076059193L90.07291666666666,154.50399500039907L91.198828125,154.66495327949525L92.32473958333334,154.8219824057359L93.45065104166666,154.9702455997467L94.5765625,155.10989478184626L95.70247395833334,155.2420375420497L96.82838541666666,155.36841317323538L97.954296875,155.49006044681255L99.08020833333333,155.6076707950005L100.20611979166667,155.72138575040378L101.33203125,155.830017218223L102.45794270833333,155.93324512701767L103.58385416666667,156.03392674739544L104.709765625,156.13295866892886L105.83567708333334,156.22931964947625L106.96158854166666,156.32216828419612L108.0875,156.41156495167658L109.21341145833334,156.49839065991915L110.33932291666666,156.58318362236022L111.465234375,156.66588346041166L112.59114583333334,156.74652198644785L113.71705729166666,156.82509140968324L114.84296875,156.89846113278315L115.96888020833333,156.9707304074214L117.09479166666667,157.04734694040738L118.220703125,157.12544177495516L119.34661458333333,157.2001086638524L120.47252604166667,157.27050555302546L121.5984375,157.3380672454834L122.72434895833334,157.40390457740196L123.85026041666666,157.46817076756403L124.976171875,157.53063209240253L126.10208333333334,157.59113208697394L127.22799479166666,157.64971100367032L128.35390625,157.706484405811L129.47981770833334,157.7615749982687L130.60572916666666,157.81514314137974L131.73164062499998,157.8676166791182L132.85755208333333,157.9189884699308L133.98346354166668,157.96861837093647L135.109375,158.01682969973638L136.23528645833332,158.06427883001476L137.36119791666667,158.1101870078307L138.487109375,158.15450521615836L139.61302083333334,158.19771778216727L140.73893229166669,158.24082354949073L141.86484375,158.28358295147234L142.99075520833333,158.3249503997656L144.11666666666667,158.36457498440376L145.242578125,158.40259142105396L146.36848958333331,158.4392603764167L147.49440104166666,158.4747097492218L148.6203125,158.50901225346786L149.74622395833333,158.54216042298538L150.87213541666668,158.57413153464978L151.998046875,158.60500544401316L153.12395833333332,158.63480909420892L154.24986979166667,158.6632847400812L155.37578125,158.69042361699618L156.50169270833334,158.71680646309485L157.62760416666669,158.74265434191776L158.753515625,158.7673839183954L159.87942708333333,158.79040082051202L161.00533854166667,158.8112236426427L162.13125,158.82927456819095L163.25716145833331,158.8436391537006L164.38307291666666,158.8526401079618L165.508984375,158.8529721901967L166.63489583333333,158.83788630778974L167.76080729166668,158.79309935386365L168.88671875,158.6864198024456L170.01263020833332,158.4490520954132L171.13854166666667,158.0712061368502L172.264453125,158.1587219788478L173.39036458333334,159.13955461428716L174.51627604166669,159.12131930681375L175.6421875,159.13695281652303L176.76809895833333,159.11326752992778L177.89401041666667,159.15893971186418L179.019921875,159.16291203865637L180.14583333333331,159.19134515982407L181.27174479166666,159.20340399742128L182.39765625,159.2266046322309L183.52356770833333,159.24270104444943L184.64947916666668,159.2631521811852L185.775390625,159.27990951171287L186.90130208333332,159.29840386280648L188.02721354166667,159.31589385179373L189.153125,159.33465698498946L190.27903645833334,159.35313964990468L191.40494791666669,159.3719151185109L192.530859375,159.39009361817287L193.65677083333333,159.40770046894366L194.78268229166667,159.42453927810377L195.90859375,159.44123265926655L197.03450520833331,159.4581010084886L198.16041666666666,159.47530565995436L199.286328125,159.4927105995325L200.41223958333333,159.5101898761896L201.53815104166668,159.52766720515032L202.6640625,159.5450773385855L203.78997395833332,159.56241443340593L204.91588541666667,159.57964408030875L206.041796875,159.59678380856147L207.16770833333334,159.61385536744044L208.29361979166669,159.63085518616896L209.41953125,159.6477900816844L210.54544270833333,159.6647467264762L211.67135416666667,159.6817533621421L212.797265625,159.69894340588496L213.92317708333331,159.71638243014996L215.04908854166666,159.73358545853543L216.175,159.7495802659255L217.30091145833333,159.76452234341548L218.42682291666668,159.77968970445488L219.552734375,159.79539268200213L220.67864583333332,159.81126218759096L221.80455729166667,159.82700541753036L222.93046875,159.84258471635673L224.05638020833334,159.85800170715038L225.18229166666669,159.87327002378612L226.308203125,159.888439981754L227.43411458333333,159.903555728839L228.56002604166667,159.91865362204038L229.6859375,159.93374534753653L230.81184895833331,159.9488198683812L231.93776041666666,159.96383141370922L233.063671875,159.97873551111954L234.18958333333333,159.99347892357753L235.31549479166668,160.00773541193743L236.44140625,160.0210634983503L237.56731770833332,160.03372092797204L238.69322916666667,160.04635108984434L239.819140625,160.05930684163022L240.94505208333334,160.07253559552706L242.07096354166669,160.0858104449052L243.196875,160.09899927102603L244.32278645833333,160.1120290352748L245.44869791666667,160.12487993607155L246.574609375,160.13754093647003" style="fill: none;" fill="none"></path></g></g></g></g></g></g><g transform="translate(30, 177)" clip-path="url(#clip_1)"><clipPath id="clip_1"><rect width="270" height="23"></rect></clipPath><g><g><line x1="0" y1="0" x2="0" y2="5" style="visibility: inherit;" fill="rgb(0, 0, 0)" stroke="rgb(204, 204, 204)" stroke-width="1px"></line><line x1="22.518229166666664" y1="0" x2="22.518229166666664" y2="5" style="visibility: inherit;" fill="rgb(0, 0, 0)" stroke="rgb(204, 204, 204)" stroke-width="1px"></line><line x1="45.03645833333333" y1="0" x2="45.03645833333333" y2="5" style="visibility: inherit;" fill="rgb(0, 0, 0)" stroke="rgb(204, 204, 204)" stroke-width="1px"></line><line x1="67.5546875" y1="0" x2="67.5546875" y2="5" style="visibility: inherit;" fill="rgb(0, 0, 0)" stroke="rgb(204, 204, 204)" stroke-width="1px"></line><line x1="90.07291666666666" y1="0" x2="90.07291666666666" y2="5" style="visibility: inherit;" fill="rgb(0, 0, 0)" stroke="rgb(204, 204, 204)" stroke-width="1px"></line><line x1="112.59114583333334" y1="0" x2="112.59114583333334" y2="5" style="visibility: inherit;" fill="rgb(0, 0, 0)" stroke="rgb(204, 204, 204)" stroke-width="1px"></line><line x1="135.109375" y1="0" x2="135.109375" y2="5" style="visibility: inherit;" fill="rgb(0, 0, 0)" stroke="rgb(204, 204, 204)" stroke-width="1px"></line><line x1="157.62760416666669" y1="0" x2="157.62760416666669" y2="5" style="visibility: inherit;" fill="rgb(0, 0, 0)" stroke="rgb(204, 204, 204)" stroke-width="1px"></line><line x1="180.14583333333331" y1="0" x2="180.14583333333331" y2="5" style="visibility: inherit;" fill="rgb(0, 0, 0)" stroke="rgb(204, 204, 204)" stroke-width="1px"></line><line x1="202.6640625" y1="0" x2="202.6640625" y2="5" style="visibility: inherit;" fill="rgb(0, 0, 0)" stroke="rgb(204, 204, 204)" stroke-width="1px"></line><line x1="225.18229166666669" y1="0" x2="225.18229166666669" y2="5" style="visibility: inherit;" fill="rgb(0, 0, 0)" stroke="rgb(204, 204, 204)" stroke-width="1px"></line><line x1="247.70052083333331" y1="0" x2="247.70052083333331" y2="5" style="visibility: inherit;" fill="rgb(0, 0, 0)" stroke="rgb(204, 204, 204)" stroke-width="1px"></line><line x1="270.21875" y1="0" x2="270.21875" y2="5" style="visibility: inherit;" fill="rgb(0, 0, 0)" stroke="rgb(204, 204, 204)" stroke-width="1px"></line></g><g transform="translate(0, 8)"><text x="0" y="0" dx="0em" dy="0.95em" style="text-anchor: middle; visibility: hidden; font-family: Roboto, sans-serif; font-size: 12px; font-weight: 200;" fill="rgb(33, 33, 33)" stroke="none" stroke-width="1px">-20</text><text x="22.518229166666664" y="0" dx="0em" dy="0.95em" style="text-anchor: middle; visibility: inherit; font-family: Roboto, sans-serif; font-size: 12px; font-weight: 200;" fill="rgb(33, 33, 33)" stroke="none" stroke-width="1px">0</text><text x="45.03645833333333" y="0" dx="0em" dy="0.95em" style="text-anchor: middle; visibility: hidden; font-family: Roboto, sans-serif; font-size: 12px; font-weight: 200;" fill="rgb(33, 33, 33)" stroke="none" stroke-width="1px">20</text><text x="67.5546875" y="0" dx="0em" dy="0.95em" style="text-anchor: middle; visibility: inherit; font-family: Roboto, sans-serif; font-size: 12px; font-weight: 200;" fill="rgb(33, 33, 33)" stroke="none" stroke-width="1px">40</text><text x="90.07291666666666" y="0" dx="0em" dy="0.95em" style="text-anchor: middle; visibility: hidden; font-family: Roboto, sans-serif; font-size: 12px; font-weight: 200;" fill="rgb(33, 33, 33)" stroke="none" stroke-width="1px">60</text><text x="112.59114583333334" y="0" dx="0em" dy="0.95em" style="text-anchor: middle; visibility: inherit; font-family: Roboto, sans-serif; font-size: 12px; font-weight: 200;" fill="rgb(33, 33, 33)" stroke="none" stroke-width="1px">80</text><text x="135.109375" y="0" dx="0em" dy="0.95em" style="text-anchor: middle; visibility: hidden; font-family: Roboto, sans-serif; font-size: 12px; font-weight: 200;" fill="rgb(33, 33, 33)" stroke="none" stroke-width="1px">100</text><text x="157.62760416666669" y="0" dx="0em" dy="0.95em" style="text-anchor: middle; visibility: inherit; font-family: Roboto, sans-serif; font-size: 12px; font-weight: 200;" fill="rgb(33, 33, 33)" stroke="none" stroke-width="1px">120</text><text x="180.14583333333331" y="0" dx="0em" dy="0.95em" style="text-anchor: middle; visibility: hidden; font-family: Roboto, sans-serif; font-size: 12px; font-weight: 200;" fill="rgb(33, 33, 33)" stroke="none" stroke-width="1px">140</text><text x="202.6640625" y="0" dx="0em" dy="0.95em" style="text-anchor: middle; visibility: inherit; font-family: Roboto, sans-serif; font-size: 12px; font-weight: 200;" fill="rgb(33, 33, 33)" stroke="none" stroke-width="1px">160</text><text x="225.18229166666669" y="0" dx="0em" dy="0.95em" style="text-anchor: middle; visibility: hidden; font-family: Roboto, sans-serif; font-size: 12px; font-weight: 200;" fill="rgb(33, 33, 33)" stroke="none" stroke-width="1px">180</text><text x="247.70052083333331" y="0" dx="0em" dy="0.95em" style="text-anchor: middle; visibility: inherit; font-family: Roboto, sans-serif; font-size: 12px; font-weight: 200;" fill="rgb(33, 33, 33)" stroke="none" stroke-width="1px">200</text><text x="270.21875" y="0" dx="0em" dy="0.95em" style="text-anchor: middle; visibility: hidden; font-family: Roboto, sans-serif; font-size: 12px; font-weight: 200;" fill="rgb(33, 33, 33)" stroke="none" stroke-width="1px">220</text></g><line x1="0" y1="0" x2="270.21875" y2="0" fill="rgb(0, 0, 0)" stroke="rgb(204, 204, 204)" stroke-width="1px"></line></g></g></g></g></svg>