<svg viewBox="0 0 330 200" xmlns="http://www.w3.org/2000/svg"><g><g><g><g><g><line x1="72.34375" y1="177" x2="67.34375" y2="177" style="visibility: inherit;" fill="rgb(0, 0, 0)" stroke="rgb(204, 204, 204)" stroke-width="1px"></line><line x1="72.34375" y1="159.3" x2="67.34375" y2="159.3" style="visibility: inherit;" fill="rgb(0, 0, 0)" stroke="rgb(204, 204, 204)" stroke-width="1px"></line><line x1="72.34375" y1="141.6" x2="67.34375" y2="141.6" style="visibility: inherit;" fill="rgb(0, 0, 0)" stroke="rgb(204, 204, 204)" stroke-width="1px"></line><line x1="72.34375" y1="123.89999999999999" x2="67.34375" y2="123.89999999999999" style="visibility: inherit;" fill="rgb(0, 0, 0)" stroke="rgb(204, 204, 204)" stroke-width="1px"></line><line x1="72.34375" y1="106.2" x2="67.34375" y2="106.2" style="visibility: inherit;" fill="rgb(0, 0, 0)" stroke="rgb(204, 204, 204)" stroke-width="1px"></line><line x1="72.34375" y1="88.5" x2="67.34375" y2="88.5" style="visibility: inherit;" fill="rgb(0, 0, 0)" stroke="rgb(204, 204, 204)" stroke-width="1px"></line><line x1="72.34375" y1="70.8" x2="67.34375" y2="70.8" style="visibility: inherit;" fill="rgb(0, 0, 0)" stroke="rgb(204, 204, 204)" stroke-width="1px"></line><line x1="72.34375" y1="53.10000000000001" x2="67.34375" y2="53.10000000000001" style="visibility: inherit;" fill="rgb(0, 0, 0)" stroke="rgb(204, 204, 204)" stroke-width="1px"></line><line x1="72.34375" y1="35.39999999999999" x2="67.34375" y2="35.39999999999999" style="visibility: inherit;" fill="rgb(0, 0, 0)" stroke="rgb(204, 204, 204)" stroke-width="1px"></line><line x1="72.34375" y1="17.699999999999996" x2="67.34375" y2="17.699999999999996" style="visibility: inherit;" fill="rgb(0, 0, 0)" stroke="rgb(204, 204, 204)" stroke-width="1px"></line><line x1="72.34375" y1="0" x2="67.34375" y2="0" style="visibility: inherit;" fill="rgb(0, 0, 0)" stroke="rgb(204, 204, 204)" stroke-width="1px"></line></g><g transform="translate(62.34375, 0)"><text x="0" y="177" dx="0em" dy="0.3em" style="text-anchor: end; visibility: hidden; font-family: Roboto, sans-serif; font-size: 12px; font-weight: 200;" fill="rgb(33, 33, 33)" stroke="none" stroke-width="1px">2e+3</text><text x="0" y="159.3" dx="0em" dy="0.3em" style="text-anchor: end; visibility: inherit; font-family: Roboto, sans-serif; font-size: 12px; font-weight: 200;" fill="rgb(33, 33, 33)" stroke="none" stroke-width="1px">2.2e+3</text><text x="0" y="141.6" dx="0em" dy="0.3em" style="text-anchor: end; visibility: hidden; font-family: Roboto, sans-serif; font-size: 12px; font-weight: 200;" fill="rgb(33, 33, 33)" stroke="none" stroke-width="1px">2.4e+3</text><text x="0" y="123.89999999999999" dx="0em" dy="0.3em" style="text-anchor: end; visibility: inherit; font-family: Roboto, sans-serif; font-size: 12px; font-weight: 200;" fill="rgb(33, 33, 33)" stroke="none" stroke-width="1px">2.6e+3</text><text x="0" y="106.2" dx="0em" dy="0.3em" style="text-anchor: end; visibility: hidden; font-family: Roboto, sans-serif; font-size: 12px; font-weight: 200;" fill="rgb(33, 33, 33)" stroke="none" stroke-width="1px">2.8e+3</text><text x="0" y="88.5" dx="0em" dy="0.3em" style="text-anchor: end; visibility: inherit; font-family: Roboto, sans-serif; font-size: 12px; font-weight: 200;" fill="rgb(33, 33, 33)" stroke="none" stroke-width="1px">3e+3</text><text x="0" y="70.8" dx="0em" dy="0.3em" style="text-anchor: end; visibility: hidden; font-family: Roboto, sans-serif; font-size: 12px; font-weight: 200;" fill="rgb(33, 33, 33)" stroke="none" stroke-width="1px">3.2e+3</text><text x="0" y="53.10000000000001" dx="0em" dy="0.3em" style="text-anchor: end; visibility: inherit; font-family: Roboto, sans-serif; font-size: 12px; font-weight: 200;" fill="rgb(33, 33, 33)" stroke="none" stroke-width="1px">3.4e+3</text><text x="0" y="35.39999999999999" dx="0em" dy="0.3em" style="text-anchor: end; visibility: hidden; font-family: Roboto, sans-serif; font-size: 12px; font-weight: 200;" fill="rgb(33, 33, 33)" stroke="none" stroke-width="1px">3.6e+3</text><text x="0" y="17.699999999999996" dx="0em" dy="0.3em" style="text-anchor: end; visibility: inherit; font-family: Roboto, sans-serif; font-size: 12px; font-weight: 200;" fill="rgb(33, 33, 33)" stroke="none" stroke-width="1px">3.8e+3</text><text x="0" y="0" dx="0em" dy="0.3em" style="text-anchor: end; visibility: hidden; font-family: Roboto, sans-serif; font-size: 12px; font-weight: 200;" fill="rgb(33, 33, 33)" stroke="none" stroke-width="1px">4e+3</text></g><line x1="72.34375" y1="0" x2="72.34375" y2="177" fill="rgb(0, 0, 0)" stroke="rgb(204, 204, 204)" stroke-width="1px"></line></g></g><g transform="translate(72, 0)" clip-path="url(#clip_0)"><clipPath id="clip_0"><rect width="228" height="177"></rect></clipPath><g><g><g><line x1="0" y1="0" x2="0" y2="177" fill="rgb(0, 0, 0)" stroke="rgb(66, 66, 66)" stroke-width="1px" opacity="0.25"></line><line x1="19.0546875" y1="0" x2="19.0546875" y2="177" fill="rgb(0, 0, 0)" stroke="rgb(66, 66, 66)" stroke-width="1px" opacity="0.25"></line><line x1="38.109375" y1="0" x2="38.109375" y2="177" fill="rgb(0, 0, 0)" stroke="rgb(66, 66, 66)" stroke-width="1px" opacity="0.25"></line><line x1="57.1640625" y1="0" x2="57.1640625" y2="177" fill="rgb(0, 0, 0)" stroke="rgb(66, 66, 66)" stroke-width="1px" opacity="0.25"></line><line x1="76.21875" y1="0" x2="76.21875" y2="177" fill="rgb(0, 0, 0)" stroke="rgb(66, 66, 66)" stroke-width="1px" opacity="0.25"></line><line x1="95.2734375" y1="0" x2="95.2734375" y2="177" fill="rgb(0, 0, 0)" stroke="rgb(66, 66, 66)" stroke-width="1px" opacity="0.25"></line><line x1="114.328125" y1="0" x2="114.328125" y2="177" fill="rgb(0, 0, 0)" stroke="rgb(66, 66, 66)" stroke-width="1px" opacity="0.25"></line><line x1="133.3828125" y1="0" x2="133.3828125" y2="177" fill="rgb(0, 0, 0)" stroke="rgb(66, 66, 66)" stroke-width="1px" opacity="0.25"></line><line x1="152.4375" y1="0" x2="152.4375" y2="177" fill="rgb(0, 0, 0)" stroke="rgb(66, 66, 66)" stroke-width="1px" opacity="0.25"></line><line x1="171.4921875" y1="0" x2="171.4921875" y2="177" fill="rgb(0, 0, 0)" stroke="rgb(66, 66, 66)" stroke-width="1px" opacity="0.25"></line><line x1="190.546875" y1="0" x2="190.546875" y2="177" fill="rgb(0, 0, 0)" stroke="rgb(66, 66, 66)" stroke-width="1px" opacity="0.25"></line><line x1="209.6015625" y1="0" x2="209.6015625" y2="177" fill="rgb(0, 0, 0)" stroke="rgb(66, 66, 66)" stroke-width="1px" opacity="0.25"></line><line x1="228.65625" y1="0" x2="228.65625" y2="177" fill="rgb(0, 0, 0)" stroke="rgb(66, 66, 66)" stroke-width="1px" opacity="0.25"></line></g><g><line x1="0" y1="177" x2="228.65625" y2="177" fill="rgb(0, 0, 0)" stroke="rgb(66, 66, 66)" stroke-width="1px" opacity="0.25"></line><line x1="0" y1="159.3" x2="228.65625" y2="159.3" fill="rgb(0, 0, 0)" stroke="rgb(66, 66, 66)" stroke-width="1px" opacity="0.25"></line><line x1="0" y1="141.6" x2="228.65625" y2="141.6" fill="rgb(0, 0, 0)" stroke="rgb(66, 66, 66)" stroke-width="1px" opacity="0.25"></line><line x1="0" y1="123.89999999999999" x2="228.65625" y2="123.89999999999999" fill="rgb(0, 0, 0)" stroke="rgb(66, 66, 66)" stroke-width="1px" opacity="0.25"></line><line x1="0" y1="106.2" x2="228.65625" y2="106.2" fill="rgb(0, 0, 0)" stroke="rgb(66, 66, 66)" stroke-width="1px" opacity="0.25"></line><line x1="0" y1="88.5" x2="228.65625" y2="88.5" fill="rgb(0, 0, 0)" stroke="rgb(66, 66, 66)" stroke-width="1px" opacity="0.25"></line><line x1="0" y1="70.8" x2="228.65625" y2="70.8" fill="rgb(0, 0, 0)" stroke="rgb(66, 66, 66)" stroke-width="1px" opacity="0.25"></line><line x1="0" y1="53.10000000000001" x2="228.65625" y2="53.10000000000001" fill="rgb(0, 0, 0)" stroke="rgb(66, 66, 66)" stroke-width="1px" opacity="0.25"></line><line x1="0" y1="35.39999999999999" x2="228.65625" y2="35.39999999999999" fill="rgb(0, 0, 0)" stroke="rgb(66, 66, 66)" stroke-width="1px" opacity="0.25"></line><line x1="0" y1="17.699999999999996" x2="228.65625" y2="17.699999999999996" fill="rgb(0, 0, 0)" stroke="rgb(66, 66, 66)" stroke-width="1px" opacity="0.25"></line><line x1="0" y1="0" x2="228.65625" y2="0" fill="rgb(0, 0, 0)" stroke="rgb(66, 66, 66)" stroke-width="1px" opacity="0.25"></line></g></g></g><g><g><line x1="0" y1="354" x2="228.65625" y2="354" fill="rgb(0, 0, 0)" stroke="rgb(153, 153, 153)" stroke-width="1.5px"></line></g></g><g><g><line x1="19.0546875" y1="0" x2="19.0546875" y2="177" fill="rgb(0, 0, 0)" stroke="rgb(153, 153, 153)" stroke-width="1.5px"></line></g></g><g><g><g><g><g><path stroke="rgb(187, 187, 187)" stroke-width="2px" d="M19.0546875,21.342673828125008L20.007421875,21.350603393554678L20.960156249999997,21.358316894531242L21.912890625000003,21.363307983398443L22.865625,21.370027587890625L23.818359375,21.379231933593758L24.771093750000002,21.39753259277344L25.723828125,21.441674560546872L26.6765625,21.536872558593746L27.629296875,21.66253564453124L28.58203125,21.87030322265626L29.534765625000002,22.36174182128907L30.4875,22.773863159179687L31.440234375000003,23.423914672851566L32.39296875,24.541119140624993L33.345703125,25.870261230468753L34.2984375,27.60316296386718L35.251171875000004,29.848483154296886L36.203906249999996,32.769631347656244L37.156640625,34.11277441406249L38.109375,35.49009887695312L39.062109375,37.26796362304688L40.01484375,39.58125769042969L40.967578125,42.63280078125L41.920312499999994,46.44266528320313L42.873046875,50.657520996093744L43.825781250000006,55.140469482421864L44.778515625,59.53344873046875L45.73125,63.45333325195313L46.683984375,66.21191455078126L47.63671875,68.76724401855469L48.589453125,71.41770666503906L49.542187500000004,73.95555651855469L50.494921874999996,76.33360510253905L51.44765625,77.70427478027344L52.400390625,78.42508740234375L53.353125,79.20551220703126L54.305859375,80.29112805175782L55.25859375,81.42866418457031L56.211328124999994,82.72677941894533L57.1640625,84.05918408203125L58.116796875,85.37987805175781L59.069531250000004,86.64778747558593L60.022265625,87.92202758789062L60.975,89.10076721191408L61.92773437499999,90.04576831054686L62.880468750000006,90.81480651855469L63.833203125000004,91.81006420898439L64.7859375,92.74815124511719L65.738671875,93.89705236816408L66.69140625,95.09787377929688L67.644140625,96.20565783691407L68.596875,97.36691784667968L69.54960937499999,98.29469860839845L70.50234375000001,98.57231982421877L71.455078125,99.10630151367188L72.40781249999999,100.00700939941407L73.36054687500001,100.80286120605469L74.31328125,101.88435021972654L75.266015625,102.84756555175781L76.21875,103.87769604492188L77.171484375,104.86286352539064L78.12421875,105.48562609863282L79.076953125,105.55411853027343L80.0296875,105.15388073730468L80.982421875,105.31093798828124L81.93515625,106.1281153564453L82.887890625,107.22010510253907L83.84062499999999,108.39767797851565L84.79335937500001,109.50079504394532L85.74609375,110.62232080078125L86.69882812499999,111.6794161376953L87.65156250000001,112.7799404296875L88.604296875,113.78051330566406L89.55703125,114.81950244140624L90.509765625,115.75858337402342L91.4625,116.39847985839842L92.415234375,116.68452758789063L93.36796875,116.91707775878906L94.320703125,117.49094494628906L95.2734375,118.49391613769532L96.226171875,119.39404064941407L97.17890625,120.54810571289062L98.13164062499999,121.68002416992188L99.08437500000001,122.80297595214844L100.037109375,123.8969102783203L100.98984374999999,124.91007971191405L101.94257812500001,125.78427648925782L102.8953125,126.09787243652343L103.848046875,125.35904003906249L104.80078125,125.32505310058593L105.753515625,125.328791015625L106.70625,126.19490698242187L107.658984375,127.25090039062499L108.61171875,128.55720446777343L109.564453125,129.75368298339845L110.5171875,131.07826611328127L111.469921875,132.24704516601562L112.42265624999999,133.48038427734375L113.37539062500001,134.56896020507813L114.328125,135.5209833984375L115.28085937499999,136.13501696777342L116.23359375,136.61018591308593L117.18632812499999,137.32481909179688L118.13906250000001,137.74430822753905L119.09179687500001,137.5391550292969L120.04453125,137.34966650390626L120.997265625,137.83473120117188L121.95,138.48873669433593L122.902734375,139.31807849121094L123.85546874999999,140.24581604003907L124.80820312499999,141.29632141113282L125.76093750000001,142.30136682128907L126.713671875,143.25235290527343L127.66640625000001,144.15418432617187L128.619140625,145.054265625L129.571875,148.5176923828125L130.52460937499998,92.09405932617189L131.47734375,71.46913000488281L132.43007812500002,47.09241430664063L133.3828125,60.50900134277343L134.335546875,66.65050378417969L135.28828125,75.36809948730469L136.241015625,87.56569409179687L137.19375,100.04819128417968L138.146484375,108.51921423339846L139.09921874999998,117.65031408691405L140.051953125,126.72547485351562L141.00468750000002,132.82748071289063L141.957421875,135.69841552734374L142.91015625,138.1249921875L143.862890625,139.46778955078125L144.81562499999998,140.20608178710938L145.768359375,141.04393652343748L146.72109375000002,142.09861193847655L147.673828125,143.03702307128907L148.6265625,144.1620274658203L149.579296875,145.09890454101563L150.53203125,146.03876330566408L151.484765625,146.56814282226563L152.4375,146.61515844726563L153.39023437499998,146.34847009277345L154.34296875,146.61384045410156L155.29570312500002,148.0509931640625L156.2484375,148.44848693847658L157.201171875,149.11545629882812L158.15390625,150.14599731445313L159.10664062499998,150.76893273925782L160.059375,151.67009436035156L161.01210937500002,152.21263220214846L161.96484375,152.71923852539064L162.917578125,153.38543005371093L163.8703125,154.0119737548828L164.823046875,154.67598303222655L165.77578125,155.27994799804688L166.728515625,155.86308435058592L167.68124999999998,156.37236987304686L168.633984375,156.79853540039062L169.58671875000002,157.25840698242186L170.539453125,157.7908114013672L171.4921875,158.23199340820312L172.444921875,158.50174987792968L173.39765624999998,158.65658166503906L174.350390625,158.76264770507814L175.30312500000002,159.16683947753904L176.255859375,159.54633508300782L177.20859375,160.00270642089845L178.161328125,160.46419848632812L179.1140625,161.04649218749998L180.066796875,161.52029992675782L181.01953125,162.02044592285156L181.97226562499998,162.51402355957032L182.925,162.97249072265626L183.87773437500002,163.39202307128906L184.83046875,163.7477731933594L185.783203125,164.02826806640627L186.7359375,164.29117529296875L187.68867187499998,164.57625073242187L188.64140625,164.84155627441407L189.59414062500002,165.19810583496096L190.546875,165.48216577148438L191.499609375,165.81600695800782L192.45234375,166.233421875L193.405078125,166.5929747314453L194.3578125,166.92780981445313L195.310546875,167.25994409179688L196.26328124999998,167.64430114746094L197.216015625,168.00368115234374L198.16875000000002,168.32207373046873L199.121484375,168.57376721191406L200.07421875,168.72773474121095L201.026953125,168.86480603027343L201.97968749999998,169.01639685058592L202.932421875,169.3008024902344L203.88515625000002,169.5580920410156L204.837890625,169.87700317382811L205.790625,170.2323211669922L206.743359375,170.56942492675782L207.69609375,170.88740698242188L208.648828125,171.22850793457033" style="fill: none;" fill="none"></path></g></g></g></g></g></g><g transform="translate(72, 177)" clip-path="url(#clip_1)"><clipPath id="clip_1"><rect width="228" height="23"></rect></clipPath><g><g><line x1="0" y1="0" x2="0" y2="5" style="visibility: inherit;" fill="rgb(0, 0, 0)" stroke="rgb(204, 204, 204)" stroke-width="1px"></line><line x1="19.0546875" y1="0" x2="19.0546875" y2="5" style="visibility: inherit;" fill="rgb(0, 0, 0)" stroke="rgb(204, 204, 204)" stroke-width="1px"></line><line x1="38.109375" y1="0" x2="38.109375" y2="5" style="visibility: inherit;" fill="rgb(0, 0, 0)" stroke="rgb(204, 204, 204)" stroke-width="1px"></line><line x1="57.1640625" y1="0" x2="57.1640625" y2="5" style="visibility: inherit;" fill="rgb(0, 0, 0)" stroke="rgb(204, 204, 204)" stroke-width="1px"></line><line x1="76.21875" y1="0" x2="76.21875" y2="5" style="visibility: inherit;" fill="rgb(0, 0, 0)" stroke="rgb(204, 204, 204)" stroke-width="1px"></line><line x1="95.2734375" y1="0" x2="95.2734375" y2="5" style="visibility: inherit;" fill="rgb(0, 0, 0)" stroke="rgb(204, 204, 204)" stroke-width="1px"></line><line x1="114.328125" y1="0" x2="114.328125" y2="5" style="visibility: inherit;" fill="rgb(0, 0, 0)" stroke="rgb(204, 204, 204)" stroke-width="1px"></line><line x1="133.3828125" y1="0" x2="133.3828125" y2="5" style="visibility: inherit;" fill="rgb(0, 0, 0)" stroke="rgb(204, 204, 204)" stroke-width="1px"></line><line x1="152.4375" y1="0" x2="152.4375" y2="5" style="visibility: inherit;" fill="rgb(0, 0, 0)" stroke="rgb(204, 204, 204)" stroke-width="1px"></line><line x1="171.4921875" y1="0" x2="171.4921875" y2="5" style="visibility: inherit;" fill="rgb(0, 0, 0)" stroke="rgb(204, 204, 204)" stroke-width="1px"></line><line x1="190.546875" y1="0" x2="190.546875" y2="5" style="visibility: inherit;" fill="rgb(0, 0, 0)" stroke="rgb(204, 204, 204)" stroke-width="1px"></line><line x1="209.6015625" y1="0" x2="209.6015625" y2="5" style="visibility: inherit;" fill="rgb(0, 0, 0)" stroke="rgb(204, 204, 204)" stroke-width="1px"></line><line x1="228.65625" y1="0" x2="228.65625" y2="5" style="visibility: inherit;" fill="rgb(0, 0, 0)" stroke="rgb(204, 204, 204)" stroke-width="1px"></line></g><g transform="translate(0, 8)"><text x="0" y="0" dx="0em" dy="0.95em" style="text-anchor: middle; visibility: hidden; font-family: Roboto, sans-serif; font-size: 12px; font-weight: 200;" fill="rgb(33, 33, 33)" stroke="none" stroke-width="1px">-20</text><text x="19.0546875" y="0" dx="0em" dy="0.95em" style="text-anchor: middle; visibility: inherit; font-family: Roboto, sans-serif; font-size: 12px; font-weight: 200;" fill="rgb(33, 33, 33)" stroke="none" stroke-width="1px">0</text><text x="38.109375" y="0" dx="0em" dy="0.95em" style="text-anchor: middle; visibility: hidden; font-family: Roboto, sans-serif; font-size: 12px; font-weight: 200;" fill="rgb(33, 33, 33)" stroke="none" stroke-width="1px">20</text><text x="57.1640625" y="0" dx="0em" dy="0.95em" style="text-anchor: middle; visibility: inherit; font-family: Roboto, sans-serif; font-size: 12px; font-weight: 200;" fill="rgb(33, 33, 33)" stroke="none" stroke-width="1px">40</text><text x="76.21875" y="0" dx="0em" dy="0.95em" style="text-anchor: middle; visibility: hidden; font-family: Roboto, sans-serif; font-size: 12px; font-weight: 200;" fill="rgb(33, 33, 33)" stroke="none" stroke-width="1px">60</text><text x="95.2734375" y="0" dx="0em" dy="0.95em" style="text-anchor: middle; visibility: inherit; font-family: Roboto, sans-serif; font-size: 12px; font-weight: 200;" fill="rgb(33, 33, 33)" stroke="none" stroke-width="1px">80</text><text x="114.328125" y="0" dx="0em" dy="0.95em" style="text-anchor: middle; visibility: hidden; font-family: Roboto, sans-serif; font-size: 12px; font-weight: 200;" fill="rgb(33, 33, 33)" stroke="none" stroke-width="1px">100</text><text x="133.3828125" y="0" dx="0em" dy="0.95em" style="text-anchor: middle; visibility: inherit; font-family: Roboto, sans-serif; font-size: 12px; font-weight: 200;" fill="rgb(33, 33, 33)" stroke="none" stroke-width="1px">120</text><text x="152.4375" y="0" dx="0em" dy="0.95em" style="text-anchor: middle; visibility: hidden; font-family: Roboto, sans-serif; font-size: 12px; font-weight: 200;" fill="rgb(33, 33, 33)" stroke="none" stroke-width="1px">140</text><text x="171.4921875" y="0" dx="0em" dy="0.95em" style="text-anchor: middle; visibility: inherit; font-family: Roboto, sans-serif; font-size: 12px; font-weight: 200;" fill="rgb(33, 33, 33)" stroke="none" stroke-width="1px">160</text><text x="190.546875" y="0" dx="0em" dy="0.95em" style="text-anchor: middle; visibility: hidden; font-family: Roboto, sans-serif; font-size: 12px; font-weight: 200;" fill="rgb(33, 33, 33)" stroke="none" stroke-width="1px">180</text><text x="209.6015625" y="0" dx="0em" dy="0.95em" style="text-anchor: middle; visibility: inherit; font-family: Roboto, sans-serif; font-size: 12px; font-weight: 200;" fill="rgb(33, 33, 33)" stroke="none" stroke-width="1px">200</text><text x="228.65625" y="0" dx="0em" dy="0.95em" style="text-anchor: middle; visibility: hidden; font-family: Roboto, sans-serif; font-size: 12px; font-weight: 200;" fill="rgb(33, 33, 33)" stroke="none" stroke-width="1px">220</text></g><line x1="0" y1="0" x2="228.65625" y2="0" fill="rgb(0, 0, 0)" stroke="rgb(204, 204, 204)" stroke-width="1px"></line></g></g></g></g></svg>