<svg viewBox="0 0 330 200" xmlns="http://www.w3.org/2000/svg"><g><g><g><g><g><line x1="30" y1="177" x2="25" y2="177" style="visibility: inherit;" fill="rgb(0, 0, 0)" stroke="rgb(204, 204, 204)" stroke-width="1px"></line><line x1="30" y1="159.3" x2="25" y2="159.3" style="visibility: inherit;" fill="rgb(0, 0, 0)" stroke="rgb(204, 204, 204)" stroke-width="1px"></line><line x1="30" y1="141.6" x2="25" y2="141.6" style="visibility: inherit;" fill="rgb(0, 0, 0)" stroke="rgb(204, 204, 204)" stroke-width="1px"></line><line x1="30" y1="123.89999999999999" x2="25" y2="123.89999999999999" style="visibility: inherit;" fill="rgb(0, 0, 0)" stroke="rgb(204, 204, 204)" stroke-width="1px"></line><line x1="30" y1="106.2" x2="25" y2="106.2" style="visibility: inherit;" fill="rgb(0, 0, 0)" stroke="rgb(204, 204, 204)" stroke-width="1px"></line><line x1="30" y1="88.5" x2="25" y2="88.5" style="visibility: inherit;" fill="rgb(0, 0, 0)" stroke="rgb(204, 204, 204)" stroke-width="1px"></line><line x1="30" y1="70.8" x2="25" y2="70.8" style="visibility: inherit;" fill="rgb(0, 0, 0)" stroke="rgb(204, 204, 204)" stroke-width="1px"></line><line x1="30" y1="53.10000000000001" x2="25" y2="53.10000000000001" style="visibility: inherit;" fill="rgb(0, 0, 0)" stroke="rgb(204, 204, 204)" stroke-width="1px"></line><line x1="30" y1="35.39999999999999" x2="25" y2="35.39999999999999" style="visibility: inherit;" fill="rgb(0, 0, 0)" stroke="rgb(204, 204, 204)" stroke-width="1px"></line><line x1="30" y1="17.699999999999996" x2="25" y2="17.699999999999996" style="visibility: inherit;" fill="rgb(0, 0, 0)" stroke="rgb(204, 204, 204)" stroke-width="1px"></line><line x1="30" y1="0" x2="25" y2="0" style="visibility: inherit;" fill="rgb(0, 0, 0)" stroke="rgb(204, 204, 204)" stroke-width="1px"></line></g><g transform="translate(20, 0)"><text x="0" y="177" dx="0em" dy="0.3em" style="text-anchor: end; visibility: hidden; font-family: Roboto, sans-serif; font-size: 12px; font-weight: 200;" fill="rgb(33, 33, 33)" stroke="none" stroke-width="1px">0</text><text x="0" y="159.3" dx="0em" dy="0.3em" style="text-anchor: end; visibility: inherit; font-family: Roboto, sans-serif; font-size: 12px; font-weight: 200;" fill="rgb(33, 33, 33)" stroke="none" stroke-width="1px">1</text><text x="0" y="141.6" dx="0em" dy="0.3em" style="text-anchor: end; visibility: hidden; font-family: Roboto, sans-serif; font-size: 12px; font-weight: 200;" fill="rgb(33, 33, 33)" stroke="none" stroke-width="1px">2</text><text x="0" y="123.89999999999999" dx="0em" dy="0.3em" style="text-anchor: end; visibility: inherit; font-family: Roboto, sans-serif; font-size: 12px; font-weight: 200;" fill="rgb(33, 33, 33)" stroke="none" stroke-width="1px">3</text><text x="0" y="106.2" dx="0em" dy="0.3em" style="text-anchor: end; visibility: hidden; font-family: Roboto, sans-serif; font-size: 12px; font-weight: 200;" fill="rgb(33, 33, 33)" stroke="none" stroke-width="1px">4</text><text x="0" y="88.5" dx="0em" dy="0.3em" style="text-anchor: end; visibility: inherit; font-family: Roboto, sans-serif; font-size: 12px; font-weight: 200;" fill="rgb(33, 33, 33)" stroke="none" stroke-width="1px">5</text><text x="0" y="70.8" dx="0em" dy="0.3em" style="text-anchor: end; visibility: hidden; font-family: Roboto, sans-serif; font-size: 12px; font-weight: 200;" fill="rgb(33, 33, 33)" stroke="none" stroke-width="1px">6</text><text x="0" y="53.10000000000001" dx="0em" dy="0.3em" style="text-anchor: end; visibility: inherit; font-family: Roboto, sans-serif; font-size: 12px; font-weight: 200;" fill="rgb(33, 33, 33)" stroke="none" stroke-width="1px">7</text><text x="0" y="35.39999999999999" dx="0em" dy="0.3em" style="text-anchor: end; visibility: hidden; font-family: Roboto, sans-serif; font-size: 12px; font-weight: 200;" fill="rgb(33, 33, 33)" stroke="none" stroke-width="1px">8</text><text x="0" y="17.699999999999996" dx="0em" dy="0.3em" style="text-anchor: end; visibility: inherit; font-family: Roboto, sans-serif; font-size: 12px; font-weight: 200;" fill="rgb(33, 33, 33)" stroke="none" stroke-width="1px">9</text><text x="0" y="0" dx="0em" dy="0.3em" style="text-anchor: end; visibility: hidden; font-family: Roboto, sans-serif; font-size: 12px; font-weight: 200;" fill="rgb(33, 33, 33)" stroke="none" stroke-width="1px">10</text></g><line x1="30" y1="0" x2="30" y2="177" fill="rgb(0, 0, 0)" stroke="rgb(204, 204, 204)" stroke-width="1px"></line></g></g><g transform="translate(30, 0)" clip-path="url(#clip_0)"><clipPath id="clip_0"><rect width="300" height="177"></rect></clipPath><g><g><g><line x1="0" y1="0" x2="0" y2="177" fill="rgb(0, 0, 0)" stroke="rgb(66, 66, 66)" stroke-width="1px" opacity="0.25"></line><line x1="27.272727272727273" y1="0" x2="27.272727272727273" y2="177" fill="rgb(0, 0, 0)" stroke="rgb(66, 66, 66)" stroke-width="1px" opacity="0.25"></line><line x1="54.54545454545455" y1="0" x2="54.54545454545455" y2="177" fill="rgb(0, 0, 0)" stroke="rgb(66, 66, 66)" stroke-width="1px" opacity="0.25"></line><line x1="81.81818181818181" y1="0" x2="81.81818181818181" y2="177" fill="rgb(0, 0, 0)" stroke="rgb(66, 66, 66)" stroke-width="1px" opacity="0.25"></line><line x1="109.0909090909091" y1="0" x2="109.0909090909091" y2="177" fill="rgb(0, 0, 0)" stroke="rgb(66, 66, 66)" stroke-width="1px" opacity="0.25"></line><line x1="136.36363636363635" y1="0" x2="136.36363636363635" y2="177" fill="rgb(0, 0, 0)" stroke="rgb(66, 66, 66)" stroke-width="1px" opacity="0.25"></line><line x1="163.63636363636363" y1="0" x2="163.63636363636363" y2="177" fill="rgb(0, 0, 0)" stroke="rgb(66, 66, 66)" stroke-width="1px" opacity="0.25"></line><line x1="190.9090909090909" y1="0" x2="190.9090909090909" y2="177" fill="rgb(0, 0, 0)" stroke="rgb(66, 66, 66)" stroke-width="1px" opacity="0.25"></line><line x1="218.1818181818182" y1="0" x2="218.1818181818182" y2="177" fill="rgb(0, 0, 0)" stroke="rgb(66, 66, 66)" stroke-width="1px" opacity="0.25"></line><line x1="245.45454545454547" y1="0" x2="245.45454545454547" y2="177" fill="rgb(0, 0, 0)" stroke="rgb(66, 66, 66)" stroke-width="1px" opacity="0.25"></line><line x1="272.7272727272727" y1="0" x2="272.7272727272727" y2="177" fill="rgb(0, 0, 0)" stroke="rgb(66, 66, 66)" stroke-width="1px" opacity="0.25"></line><line x1="300" y1="0" x2="300" y2="177" fill="rgb(0, 0, 0)" stroke="rgb(66, 66, 66)" stroke-width="1px" opacity="0.25"></line></g><g><line x1="0" y1="177" x2="300" y2="177" fill="rgb(0, 0, 0)" stroke="rgb(66, 66, 66)" stroke-width="1px" opacity="0.25"></line><line x1="0" y1="159.3" x2="300" y2="159.3" fill="rgb(0, 0, 0)" stroke="rgb(66, 66, 66)" stroke-width="1px" opacity="0.25"></line><line x1="0" y1="141.6" x2="300" y2="141.6" fill="rgb(0, 0, 0)" stroke="rgb(66, 66, 66)" stroke-width="1px" opacity="0.25"></line><line x1="0" y1="123.89999999999999" x2="300" y2="123.89999999999999" fill="rgb(0, 0, 0)" stroke="rgb(66, 66, 66)" stroke-width="1px" opacity="0.25"></line><line x1="0" y1="106.2" x2="300" y2="106.2" fill="rgb(0, 0, 0)" stroke="rgb(66, 66, 66)" stroke-width="1px" opacity="0.25"></line><line x1="0" y1="88.5" x2="300" y2="88.5" fill="rgb(0, 0, 0)" stroke="rgb(66, 66, 66)" stroke-width="1px" opacity="0.25"></line><line x1="0" y1="70.8" x2="300" y2="70.8" fill="rgb(0, 0, 0)" stroke="rgb(66, 66, 66)" stroke-width="1px" opacity="0.25"></line><line x1="0" y1="53.10000000000001" x2="300" y2="53.10000000000001" fill="rgb(0, 0, 0)" stroke="rgb(66, 66, 66)" stroke-width="1px" opacity="0.25"></line><line x1="0" y1="35.39999999999999" x2="300" y2="35.39999999999999" fill="rgb(0, 0, 0)" stroke="rgb(66, 66, 66)" stroke-width="1px" opacity="0.25"></line><line x1="0" y1="17.699999999999996" x2="300" y2="17.699999999999996" fill="rgb(0, 0, 0)" stroke="rgb(66, 66, 66)" stroke-width="1px" opacity="0.25"></line><line x1="0" y1="0" x2="300" y2="0" fill="rgb(0, 0, 0)" stroke="rgb(66, 66, 66)" stroke-width="1px" opacity="0.25"></line></g></g></g><g><g><line x1="0" y1="177" x2="300" y2="177" fill="rgb(0, 0, 0)" stroke="rgb(153, 153, 153)" stroke-width="1.5px"></line></g></g><g><g><line x1="27.272727272727273" y1="0" x2="27.272727272727273" y2="177" fill="rgb(0, 0, 0)" stroke="rgb(153, 153, 153)" stroke-width="1.5px"></line></g></g><g><g><g><g><g><path stroke="rgb(238, 51, 119)" stroke-width="2px" d="M27.272727272727273,13.777282333374032L30,13.812466657161721L32.72727272727273,13.891050327067452L35.45454545454545,14.017450484107519L38.18181818181818,14.180679744254553L40.90909090909091,14.437051084103016L43.63636363636363,14.914949216613858L46.36363636363636,15.758239075897592L49.09090909090909,17.477327597064146L51.81818181818182,21.662261018999132L54.54545454545455,30.011152786327948L57.27272727272727,42.1335838686246L60,56.42873899877201L62.72727272727273,70.97532569754735L65.45454545454545,83.5657165381669L68.18181818181817,92.96749674482366L70.9090909090909,99.48167613456701L73.63636363636364,104.49793371074385L76.36363636363636,108.53721513474609L79.09090909090908,112.27846524126883L81.81818181818181,115.99607144904796L84.54545454545455,119.29172723251915L87.27272727272727,122.91910242342864L90,126.56392563357026L92.72727272727272,129.70265784078813L95.45454545454545,132.18662593065173L98.18181818181819,134.10448634279012L100.9090909090909,136.0345935589502L103.63636363636364,138.2354841573012L106.36363636363636,140.3853427598958L109.0909090909091,142.0889924038286L111.81818181818183,143.56106878485758L114.54545454545455,144.87271719738652L117.27272727272728,146.57389181221805L120,147.73247690145243L122.72727272727273,149.3796450686124L125.45454545454545,150.62339406733534L128.1818181818182,151.53380940253723L130.9090909090909,152.51881461062052L133.63636363636363,152.9825093509079L136.36363636363635,153.68310012881446L139.0909090909091,154.05206923540996L141.8181818181818,154.32424356978981L144.54545454545453,154.78286270174493L147.27272727272728,154.94298323557317L150,155.3456594548807L152.72727272727272,155.40571027768988L155.45454545454547,155.71837163552354L158.18181818181816,155.88291538587262L160.9090909090909,156.06683601874886L163.63636363636363,156.36930176937L166.36363636363637,156.43226817919876L169.0909090909091,156.72421662613243L171.8181818181818,156.79580810907188L174.54545454545453,156.9833860781355L177.27272727272728,157.17362322250392L180,157.18618145608536L182.72727272727275,157.5589902342775L185.45454545454544,157.78070391305798L188.1818181818182,158.10772255115816L190.9090909090909,158.2708353606052L193.63636363636365,158.25159273667254L196.36363636363637,158.4879532702155L199.0909090909091,158.4691855935685L201.8181818181818,158.84091948678685L204.54545454545453,158.99767361170407L207.27272727272728,159.32557914308524L210,159.54752224476226L212.72727272727272,159.815033353514L215.45454545454544,159.94970470258386L218.1818181818182,160.2927548980045L220.9090909090909,160.36425706954762L223.63636363636365,160.77890401608923L226.36363636363635,161.13860878662572L229.0909090909091,161.36220363924687L231.8181818181818,161.69645817845932L234.54545454545456,161.93914009433908L237.27272727272728,161.94543155969333L240,162.15507324064467L242.72727272727272,162.55611423447544L245.45454545454547,162.70576894399412L248.1818181818182,162.83917978117995L250.9090909090909,163.24889126485667L253.63636363636363,163.49903944412517L256.3636363636364,163.89564818668154L259.0909090909091,164.2066554553973L261.8181818181818,164.20036658809587L264.54545454545456,164.14960726717712L267.27272727272725,164.507777353642" style="fill: none;" fill="none"></path></g></g></g></g><g opacity="0.2"><g><g><g><path stroke="rgb(238, 51, 119)" stroke-width="2px" d="M27.272727272727273,13.777282333374032L30,13.833577251434335L32.72727272727273,13.966490650176993L35.45454545454545,14.166097068786613L38.18181818181818,14.393791866302486L40.90909090909091,14.791704940795903L43.63636363636363,15.598351192474361L46.36363636363636,16.98776378631591L49.09090909090909,20.012649250030513L51.81818181818182,27.876399421691886L54.54545454545455,42.45876660346984L57.27272727272727,60.25126075744629L60,77.82479553222656L62.72727272727273,92.76670746803283L65.45454545454545,102.43650326728822L68.18181818181817,107.06353619098662L70.9090909090909,109.25018863677978L73.63636363636364,112.0210464477539L76.36363636363636,114.59552192687988L79.09090909090908,117.88999843597412L81.81818181818181,121.57227687835693L84.54545454545455,124.23510246276855L87.27272727272727,128.3600935935974L90,132.031117272377L92.72727272727272,134.41073384284974L95.45454545454545,135.91256747245788L98.18181818181819,136.98127205371856L100.9090909090909,138.92975142002106L103.63636363636364,141.53681802749634L106.36363636363636,143.61012947559357L109.0909090909091,144.64446630477906L111.81818181818183,145.76918306350709L114.54545454545455,146.8401896595955L117.27272727272728,149.1256536126137L120,149.4703544855118L122.72727272727273,151.85039727687837L125.45454545454545,152.4890175461769L128.1818181818182,152.89943239688873L130.9090909090909,153.99632241725922L133.63636363636363,153.6780514597893L136.36363636363635,154.73398629426956L139.0909090909091,154.60552289485932L141.8181818181818,154.7325050711632L144.54545454545453,155.4707913994789L147.27272727272728,155.18316403627395L150,155.94967378377913L152.72727272727272,155.49578651189805L155.45454545454547,156.18736367225648L158.18181818181816,156.12973101139067L160.9090909090909,156.34271696805953L163.63636363636363,156.823000395298L166.36363636363637,156.5267177939415L169.0909090909091,157.16213929653168L171.8181818181818,156.90319533348082L174.54545454545453,157.26475303173066L177.27272727272728,157.4589789390564L180,157.20501880645753L182.72727272727275,158.11820340156555L185.45454545454544,158.11327443122863L188.1818181818182,158.5982505083084L190.9090909090909,158.5155045747757L193.63636363636365,158.2227288007736L196.36363636363637,158.84249407052994L199.0909090909091,158.44103407859802L201.8181818181818,159.39852032661437L204.54545454545453,159.2328047990799L207.27272727272728,159.81743744015694L210,159.88043689727783L212.72727272727272,160.2163000166416L215.45454545454544,160.15171172618867L218.1818181818182,160.8073301911354L220.9090909090909,160.47151032686233L223.63636363636365,161.40087443590164L226.36363636363635,161.6781659424305L229.0909090909091,161.69759591817856L231.8181818181818,162.19783998727797L234.54545454545456,162.30316296815872L237.27272727272728,161.95486875772477L240,162.46953576207162L242.72727272727272,163.15767572522162L245.45454545454547,162.93025100827217L248.1818181818182,163.0392960369587L250.9090909090909,163.8634584903717L253.63636363636363,163.87426171302795L256.3636363636364,164.49056130051613L259.0909090909091,164.67316635847092L261.8181818181818,164.1909332871437L264.54545454545456,164.07346828579904L267.27272727272725,165.0450324833393" style="fill: none;" fill="none"></path></g></g></g></g></g></g><g transform="translate(30, 177)" clip-path="url(#clip_1)"><clipPath id="clip_1"><rect width="300" height="23"></rect></clipPath><g><g><line x1="0" y1="0" x2="0" y2="5" style="visibility: inherit;" fill="rgb(0, 0, 0)" stroke="rgb(204, 204, 204)" stroke-width="1px"></line><line x1="27.272727272727273" y1="0" x2="27.272727272727273" y2="5" style="visibility: inherit;" fill="rgb(0, 0, 0)" stroke="rgb(204, 204, 204)" stroke-width="1px"></line><line x1="54.54545454545455" y1="0" x2="54.54545454545455" y2="5" style="visibility: inherit;" fill="rgb(0, 0, 0)" stroke="rgb(204, 204, 204)" stroke-width="1px"></line><line x1="81.81818181818181" y1="0" x2="81.81818181818181" y2="5" style="visibility: inherit;" fill="rgb(0, 0, 0)" stroke="rgb(204, 204, 204)" stroke-width="1px"></line><line x1="109.0909090909091" y1="0" x2="109.0909090909091" y2="5" style="visibility: inherit;" fill="rgb(0, 0, 0)" stroke="rgb(204, 204, 204)" stroke-width="1px"></line><line x1="136.36363636363635" y1="0" x2="136.36363636363635" y2="5" style="visibility: inherit;" fill="rgb(0, 0, 0)" stroke="rgb(204, 204, 204)" stroke-width="1px"></line><line x1="163.63636363636363" y1="0" x2="163.63636363636363" y2="5" style="visibility: inherit;" fill="rgb(0, 0, 0)" stroke="rgb(204, 204, 204)" stroke-width="1px"></line><line x1="190.9090909090909" y1="0" x2="190.9090909090909" y2="5" style="visibility: inherit;" fill="rgb(0, 0, 0)" stroke="rgb(204, 204, 204)" stroke-width="1px"></line><line x1="218.1818181818182" y1="0" x2="218.1818181818182" y2="5" style="visibility: inherit;" fill="rgb(0, 0, 0)" stroke="rgb(204, 204, 204)" stroke-width="1px"></line><line x1="245.45454545454547" y1="0" x2="245.45454545454547" y2="5" style="visibility: inherit;" fill="rgb(0, 0, 0)" stroke="rgb(204, 204, 204)" stroke-width="1px"></line><line x1="272.7272727272727" y1="0" x2="272.7272727272727" y2="5" style="visibility: inherit;" fill="rgb(0, 0, 0)" stroke="rgb(204, 204, 204)" stroke-width="1px"></line><line x1="300" y1="0" x2="300" y2="5" style="visibility: inherit;" fill="rgb(0, 0, 0)" stroke="rgb(204, 204, 204)" stroke-width="1px"></line></g><g transform="translate(0, 8)"><text x="0" y="0" dx="0em" dy="0.95em" style="text-anchor: middle; visibility: hidden; font-family: Roboto, sans-serif; font-size: 12px; font-weight: 200;" fill="rgb(33, 33, 33)" stroke="none" stroke-width="1px">-10</text><text x="27.272727272727273" y="0" dx="0em" dy="0.95em" style="text-anchor: middle; visibility: inherit; font-family: Roboto, sans-serif; font-size: 12px; font-weight: 200;" fill="rgb(33, 33, 33)" stroke="none" stroke-width="1px">0</text><text x="54.54545454545455" y="0" dx="0em" dy="0.95em" style="text-anchor: middle; visibility: inherit; font-family: Roboto, sans-serif; font-size: 12px; font-weight: 200;" fill="rgb(33, 33, 33)" stroke="none" stroke-width="1px">10</text><text x="81.81818181818181" y="0" dx="0em" dy="0.95em" style="text-anchor: middle; visibility: inherit; font-family: Roboto, sans-serif; font-size: 12px; font-weight: 200;" fill="rgb(33, 33, 33)" stroke="none" stroke-width="1px">20</text><text x="109.0909090909091" y="0" dx="0em" dy="0.95em" style="text-anchor: middle; visibility: inherit; font-family: Roboto, sans-serif; font-size: 12px; font-weight: 200;" fill="rgb(33, 33, 33)" stroke="none" stroke-width="1px">30</text><text x="136.36363636363635" y="0" dx="0em" dy="0.95em" style="text-anchor: middle; visibility: inherit; font-family: Roboto, sans-serif; font-size: 12px; font-weight: 200;" fill="rgb(33, 33, 33)" stroke="none" stroke-width="1px">40</text><text x="163.63636363636363" y="0" dx="0em" dy="0.95em" style="text-anchor: middle; visibility: inherit; font-family: Roboto, sans-serif; font-size: 12px; font-weight: 200;" fill="rgb(33, 33, 33)" stroke="none" stroke-width="1px">50</text><text x="190.9090909090909" y="0" dx="0em" dy="0.95em" style="text-anchor: middle; visibility: inherit; font-family: Roboto, sans-serif; font-size: 12px; font-weight: 200;" fill="rgb(33, 33, 33)" stroke="none" stroke-width="1px">60</text><text x="218.1818181818182" y="0" dx="0em" dy="0.95em" style="text-anchor: middle; visibility: inherit; font-family: Roboto, sans-serif; font-size: 12px; font-weight: 200;" fill="rgb(33, 33, 33)" stroke="none" stroke-width="1px">70</text><text x="245.45454545454547" y="0" dx="0em" dy="0.95em" style="text-anchor: middle; visibility: inherit; font-family: Roboto, sans-serif; font-size: 12px; font-weight: 200;" fill="rgb(33, 33, 33)" stroke="none" stroke-width="1px">80</text><text x="272.7272727272727" y="0" dx="0em" dy="0.95em" style="text-anchor: middle; visibility: inherit; font-family: Roboto, sans-serif; font-size: 12px; font-weight: 200;" fill="rgb(33, 33, 33)" stroke="none" stroke-width="1px">90</text><text x="300" y="0" dx="0em" dy="0.95em" style="text-anchor: middle; visibility: hidden; font-family: Roboto, sans-serif; font-size: 12px; font-weight: 200;" fill="rgb(33, 33, 33)" stroke="none" stroke-width="1px">100</text></g><line x1="0" y1="0" x2="300" y2="0" fill="rgb(0, 0, 0)" stroke="rgb(204, 204, 204)" stroke-width="1px"></line></g></g></g></g></svg>