<svg viewBox="0 0 330 200" xmlns="http://www.w3.org/2000/svg"><g><g><g><g><g><line x1="30.78125" y1="177" x2="25.78125" y2="177" style="visibility: inherit;" fill="rgb(0, 0, 0)" stroke="rgb(204, 204, 204)" stroke-width="1px"></line><line x1="30.78125" y1="160.9090909090909" x2="25.78125" y2="160.9090909090909" style="visibility: inherit;" fill="rgb(0, 0, 0)" stroke="rgb(204, 204, 204)" stroke-width="1px"></line><line x1="30.78125" y1="144.8181818181818" x2="25.78125" y2="144.8181818181818" style="visibility: inherit;" fill="rgb(0, 0, 0)" stroke="rgb(204, 204, 204)" stroke-width="1px"></line><line x1="30.78125" y1="128.72727272727272" x2="25.78125" y2="128.72727272727272" style="visibility: inherit;" fill="rgb(0, 0, 0)" stroke="rgb(204, 204, 204)" stroke-width="1px"></line><line x1="30.78125" y1="112.63636363636364" x2="25.78125" y2="112.63636363636364" style="visibility: inherit;" fill="rgb(0, 0, 0)" stroke="rgb(204, 204, 204)" stroke-width="1px"></line><line x1="30.78125" y1="96.54545454545453" x2="25.78125" y2="96.54545454545453" style="visibility: inherit;" fill="rgb(0, 0, 0)" stroke="rgb(204, 204, 204)" stroke-width="1px"></line><line x1="30.78125" y1="80.45454545454547" x2="25.78125" y2="80.45454545454547" style="visibility: inherit;" fill="rgb(0, 0, 0)" stroke="rgb(204, 204, 204)" stroke-width="1px"></line><line x1="30.78125" y1="64.36363636363636" x2="25.78125" y2="64.36363636363636" style="visibility: inherit;" fill="rgb(0, 0, 0)" stroke="rgb(204, 204, 204)" stroke-width="1px"></line><line x1="30.78125" y1="48.272727272727266" x2="25.78125" y2="48.272727272727266" style="visibility: inherit;" fill="rgb(0, 0, 0)" stroke="rgb(204, 204, 204)" stroke-width="1px"></line><line x1="30.78125" y1="32.18181818181817" x2="25.78125" y2="32.18181818181817" style="visibility: inherit;" fill="rgb(0, 0, 0)" stroke="rgb(204, 204, 204)" stroke-width="1px"></line><line x1="30.78125" y1="16.090909090909097" x2="25.78125" y2="16.090909090909097" style="visibility: inherit;" fill="rgb(0, 0, 0)" stroke="rgb(204, 204, 204)" stroke-width="1px"></line><line x1="30.78125" y1="0" x2="25.78125" y2="0" style="visibility: inherit;" fill="rgb(0, 0, 0)" stroke="rgb(204, 204, 204)" stroke-width="1px"></line></g><g transform="translate(20.78125, 0)"><text x="0" y="177" dx="0em" dy="0.3em" style="text-anchor: end; visibility: hidden; font-family: Roboto, sans-serif; font-size: 12px; font-weight: 200;" fill="rgb(33, 33, 33)" stroke="none" stroke-width="1px">0</text><text x="0" y="160.9090909090909" dx="0em" dy="0.3em" style="text-anchor: end; visibility: inherit; font-family: Roboto, sans-serif; font-size: 12px; font-weight: 200;" fill="rgb(33, 33, 33)" stroke="none" stroke-width="1px">1</text><text x="0" y="144.8181818181818" dx="0em" dy="0.3em" style="text-anchor: end; visibility: hidden; font-family: Roboto, sans-serif; font-size: 12px; font-weight: 200;" fill="rgb(33, 33, 33)" stroke="none" stroke-width="1px">2</text><text x="0" y="128.72727272727272" dx="0em" dy="0.3em" style="text-anchor: end; visibility: inherit; font-family: Roboto, sans-serif; font-size: 12px; font-weight: 200;" fill="rgb(33, 33, 33)" stroke="none" stroke-width="1px">3</text><text x="0" y="112.63636363636364" dx="0em" dy="0.3em" style="text-anchor: end; visibility: hidden; font-family: Roboto, sans-serif; font-size: 12px; font-weight: 200;" fill="rgb(33, 33, 33)" stroke="none" stroke-width="1px">4</text><text x="0" y="96.54545454545453" dx="0em" dy="0.3em" style="text-anchor: end; visibility: inherit; font-family: Roboto, sans-serif; font-size: 12px; font-weight: 200;" fill="rgb(33, 33, 33)" stroke="none" stroke-width="1px">5</text><text x="0" y="80.45454545454547" dx="0em" dy="0.3em" style="text-anchor: end; visibility: hidden; font-family: Roboto, sans-serif; font-size: 12px; font-weight: 200;" fill="rgb(33, 33, 33)" stroke="none" stroke-width="1px">6</text><text x="0" y="64.36363636363636" dx="0em" dy="0.3em" style="text-anchor: end; visibility: inherit; font-family: Roboto, sans-serif; font-size: 12px; font-weight: 200;" fill="rgb(33, 33, 33)" stroke="none" stroke-width="1px">7</text><text x="0" y="48.272727272727266" dx="0em" dy="0.3em" style="text-anchor: end; visibility: hidden; font-family: Roboto, sans-serif; font-size: 12px; font-weight: 200;" fill="rgb(33, 33, 33)" stroke="none" stroke-width="1px">8</text><text x="0" y="32.18181818181817" dx="0em" dy="0.3em" style="text-anchor: end; visibility: inherit; font-family: Roboto, sans-serif; font-size: 12px; font-weight: 200;" fill="rgb(33, 33, 33)" stroke="none" stroke-width="1px">9</text><text x="0" y="16.090909090909097" dx="0em" dy="0.3em" style="text-anchor: end; visibility: hidden; font-family: Roboto, sans-serif; font-size: 12px; font-weight: 200;" fill="rgb(33, 33, 33)" stroke="none" stroke-width="1px">10</text><text x="0" y="0" dx="0em" dy="0.3em" style="text-anchor: end; visibility: hidden; font-family: Roboto, sans-serif; font-size: 12px; font-weight: 200;" fill="rgb(33, 33, 33)" stroke="none" stroke-width="1px">11</text></g><line x1="30.78125" y1="0" x2="30.78125" y2="177" fill="rgb(0, 0, 0)" stroke="rgb(204, 204, 204)" stroke-width="1px"></line></g></g><g transform="translate(30, 0)" clip-path="url(#clip_0)"><clipPath id="clip_0"><rect width="299" height="177"></rect></clipPath><g><g><g><line x1="0" y1="0" x2="0" y2="177" fill="rgb(0, 0, 0)" stroke="rgb(66, 66, 66)" stroke-width="1px" opacity="0.25"></line><line x1="27.201704545454547" y1="0" x2="27.201704545454547" y2="177" fill="rgb(0, 0, 0)" stroke="rgb(66, 66, 66)" stroke-width="1px" opacity="0.25"></line><line x1="54.40340909090909" y1="0" x2="54.40340909090909" y2="177" fill="rgb(0, 0, 0)" stroke="rgb(66, 66, 66)" stroke-width="1px" opacity="0.25"></line><line x1="81.60511363636363" y1="0" x2="81.60511363636363" y2="177" fill="rgb(0, 0, 0)" stroke="rgb(66, 66, 66)" stroke-width="1px" opacity="0.25"></line><line x1="108.80681818181819" y1="0" x2="108.80681818181819" y2="177" fill="rgb(0, 0, 0)" stroke="rgb(66, 66, 66)" stroke-width="1px" opacity="0.25"></line><line x1="136.00852272727272" y1="0" x2="136.00852272727272" y2="177" fill="rgb(0, 0, 0)" stroke="rgb(66, 66, 66)" stroke-width="1px" opacity="0.25"></line><line x1="163.21022727272725" y1="0" x2="163.21022727272725" y2="177" fill="rgb(0, 0, 0)" stroke="rgb(66, 66, 66)" stroke-width="1px" opacity="0.25"></line><line x1="190.4119318181818" y1="0" x2="190.4119318181818" y2="177" fill="rgb(0, 0, 0)" stroke="rgb(66, 66, 66)" stroke-width="1px" opacity="0.25"></line><line x1="217.61363636363637" y1="0" x2="217.61363636363637" y2="177" fill="rgb(0, 0, 0)" stroke="rgb(66, 66, 66)" stroke-width="1px" opacity="0.25"></line><line x1="244.81534090909093" y1="0" x2="244.81534090909093" y2="177" fill="rgb(0, 0, 0)" stroke="rgb(66, 66, 66)" stroke-width="1px" opacity="0.25"></line><line x1="272.01704545454544" y1="0" x2="272.01704545454544" y2="177" fill="rgb(0, 0, 0)" stroke="rgb(66, 66, 66)" stroke-width="1px" opacity="0.25"></line><line x1="299.21875" y1="0" x2="299.21875" y2="177" fill="rgb(0, 0, 0)" stroke="rgb(66, 66, 66)" stroke-width="1px" opacity="0.25"></line></g><g><line x1="0" y1="177" x2="299.21875" y2="177" fill="rgb(0, 0, 0)" stroke="rgb(66, 66, 66)" stroke-width="1px" opacity="0.25"></line><line x1="0" y1="160.9090909090909" x2="299.21875" y2="160.9090909090909" fill="rgb(0, 0, 0)" stroke="rgb(66, 66, 66)" stroke-width="1px" opacity="0.25"></line><line x1="0" y1="144.8181818181818" x2="299.21875" y2="144.8181818181818" fill="rgb(0, 0, 0)" stroke="rgb(66, 66, 66)" stroke-width="1px" opacity="0.25"></line><line x1="0" y1="128.72727272727272" x2="299.21875" y2="128.72727272727272" fill="rgb(0, 0, 0)" stroke="rgb(66, 66, 66)" stroke-width="1px" opacity="0.25"></line><line x1="0" y1="112.63636363636364" x2="299.21875" y2="112.63636363636364" fill="rgb(0, 0, 0)" stroke="rgb(66, 66, 66)" stroke-width="1px" opacity="0.25"></line><line x1="0" y1="96.54545454545453" x2="299.21875" y2="96.54545454545453" fill="rgb(0, 0, 0)" stroke="rgb(66, 66, 66)" stroke-width="1px" opacity="0.25"></line><line x1="0" y1="80.45454545454547" x2="299.21875" y2="80.45454545454547" fill="rgb(0, 0, 0)" stroke="rgb(66, 66, 66)" stroke-width="1px" opacity="0.25"></line><line x1="0" y1="64.36363636363636" x2="299.21875" y2="64.36363636363636" fill="rgb(0, 0, 0)" stroke="rgb(66, 66, 66)" stroke-width="1px" opacity="0.25"></line><line x1="0" y1="48.272727272727266" x2="299.21875" y2="48.272727272727266" fill="rgb(0, 0, 0)" stroke="rgb(66, 66, 66)" stroke-width="1px" opacity="0.25"></line><line x1="0" y1="32.18181818181817" x2="299.21875" y2="32.18181818181817" fill="rgb(0, 0, 0)" stroke="rgb(66, 66, 66)" stroke-width="1px" opacity="0.25"></line><line x1="0" y1="16.090909090909097" x2="299.21875" y2="16.090909090909097" fill="rgb(0, 0, 0)" stroke="rgb(66, 66, 66)" stroke-width="1px" opacity="0.25"></line><line x1="0" y1="0" x2="299.21875" y2="0" fill="rgb(0, 0, 0)" stroke="rgb(66, 66, 66)" stroke-width="1px" opacity="0.25"></line></g></g></g><g><g><line x1="0" y1="177" x2="299.21875" y2="177" fill="rgb(0, 0, 0)" stroke="rgb(153, 153, 153)" stroke-width="1.5px"></line></g></g><g><g><line x1="27.201704545454547" y1="0" x2="27.201704545454547" y2="177" fill="rgb(0, 0, 0)" stroke="rgb(153, 153, 153)" stroke-width="1.5px"></line></g></g><g><g><g><g><g><path stroke="rgb(238, 51, 119)" stroke-width="2px" d="M27.201704545454547,-5.338878978382439L29.921875,3.575448534705399L32.64204545454545,6.943651730142815L35.36221590909091,8.336535297613079L38.08238636363636,9.298586745885153L40.80255681818181,10.289053083746555L43.52272727272727,11.40278859636825L46.24289772727273,12.900227817860936L48.96306818181818,15.856336031065597L51.68323863636364,21.790983485440286L54.40340909090909,31.390224111711273L57.12357954545455,43.55156887056934L59.84375,57.57082352023078L62.56392045454545,71.78072461408783L65.2840909090909,83.27157639793819L68.00426136363636,92.10131979092772L70.72443181818181,97.52516917403746L73.44460227272727,103.47954451302235L76.16477272727272,107.55965101514502L78.88494318181817,112.14814991025386L81.60511363636363,115.6421241656059L84.32528409090908,117.73502836800573L87.04545454545455,122.80031423544898L89.765625,126.81773956880106L92.48579545454545,130.29900903940904L95.2059659090909,132.81248828631604L97.92613636363636,134.48783292875945L100.64630681818181,135.69327432334646L103.36647727272728,137.7455734177901L106.08664772727273,140.06986740414774L108.80681818181819,141.44972560883147L111.52698863636364,142.31233963185235L114.2471590909091,143.39292396208268L116.96732954545455,144.8150315866154L119.6875,144.68800494256396L122.40767045454547,146.97687759647573L125.1278409090909,148.22328095402673L127.84801136363636,149.29799410852226L130.5681818181818,150.71165927458307L133.28835227272728,150.92439486049432L136.00852272727272,152.1018301670301L138.7286931818182,152.40435517211878L141.44886363636363,152.71947488803718L144.1690340909091,153.51085937351672L146.88920454545453,153.61018446990394L149.609375,154.2889415280776L152.32954545454544,154.1539791021748L155.0497159090909,154.692363138287L157.76988636363635,154.84006830498376L160.4900568181818,155.0391090874757L163.21022727272725,155.5453587500301L165.93039772727272,155.37654965470287L168.65056818181816,155.99095237843153L171.37073863636365,155.8877732377222L174.0909090909091,156.15195427716162L176.81107954545456,156.53471647294245L179.53125,156.16730161824583L182.25142045454547,156.8463683082334L184.9715909090909,156.65644381853878L187.69176136363637,157.18621157653894L190.4119318181818,157.60631997667954L193.13210227272728,156.95338877337372L195.85227272727272,157.7129942478208L198.5724431818182,157.36101331123518L201.29261363636363,158.1307857556218L204.01278409090907,158.14918844132973L206.73295454545456,158.59799612355388L209.453125,158.92242090307244L212.17329545454547,159.04674126691614L214.8934659090909,159.02799763129892L217.61363636363637,159.7109099129732L220.3338068181818,159.26075298406238L223.05397727272728,159.96612231243364L225.77414772727272,160.51399453087063L228.4943181818182,160.32307978306983L231.21448863636363,160.80800467522715L233.9346590909091,161.35880857365214L236.65482954545453,160.76006261122535L239.375,160.93721959143087L242.09517045454544,161.82998608710616L244.81534090909093,161.57179403239203L247.53551136363637,161.30359534744287L250.2556818181818,162.1897431978109L252.97585227272728,162.03752423012122L255.69602272727272,162.86874279516528L258.4161931818182,163.50935063173202L261.1363636363636,162.90202246119114L263.8565340909091,162.08350503558725L266.57670454545456,162.8871884374526" style="fill: none;" fill="none"></path></g></g></g></g><g opacity="0.2"><g><g><g><path stroke="rgb(238, 51, 119)" stroke-width="2px" d="M27.201704545454547,-5.338878978382439L29.921875,8.924045042558157L32.64204545454545,10.177126797762778L35.36221590909091,9.97456637295809L38.08238636363636,10.554641116749158L40.80255681818181,11.659224596890542L43.52272727272727,12.995448199185464L46.24289772727273,15.083508578213785L48.96306818181818,20.21602145108309L51.68323863636364,30.60324330763384L54.40340909090909,45.7020206451416L57.12357954545455,61.72740450772372L59.84375,78.5539301958951L62.56392045454545,93.0677375793457L65.2840909090909,100.49434700879185L68.00426136363636,105.33970746127041L70.72443181818181,105.65864805741742L73.44460227272727,112.40959570624612L76.16477272727272,113.67918920516968L78.88494318181817,119.03047884594311L81.60511363636363,120.88289393078198L84.32528409090908,120.87431580370122L87.04545454545455,130.39814303138039L89.765625,132.8438299785961L92.48579545454545,135.52088850194758L95.2059659090909,136.5826964378357L97.92613636363636,137.00084560567683L100.64630681818181,137.50143456459045L103.36647727272728,140.82402016899803L106.08664772727273,143.55630709908226L108.80681818181819,143.51951245828107L111.52698863636364,143.60626049475238L114.2471590909091,145.0138003284281L116.96732954545455,146.9481929215518L119.6875,144.49746498194608L122.40767045454547,150.41018651832235L125.1278409090909,150.09288597106934L127.84801136363636,150.91006383028898L130.5681818181818,152.83215701580048L133.28835227272728,151.24349823865023L136.00852272727272,153.8679831244729L138.7286931818182,152.85814267938787L141.44886363636363,153.19215446168727L144.1690340909091,154.69793610139325L146.88920454545453,153.75917211445895L149.609375,155.3070771152323L152.32954545454544,153.95153546333313L155.0497159090909,155.49993919242513L157.76988636363635,155.06162605502388L160.4900568181818,155.33767026120967L163.21022727272725,156.30473324385557L165.93039772727272,155.1233360117132L168.65056818181816,156.91255646402186L171.37073863636365,155.7330045266585L174.0909090909091,156.54822583632037L176.81107954545456,157.10885976661336L179.53125,155.61617933620107L182.25142045454547,157.86496834321454L184.9715909090909,156.37155708399686L187.69176136363637,157.98086321353912L190.4119318181818,158.23648257689044L193.13210227272728,155.973991968415L195.85227272727272,158.85240245949137L198.5724431818182,156.8330419063568L201.29261363636363,159.28544442220166L204.01278409090907,158.17679246989164L206.73295454545456,159.27120764689013L209.453125,159.40905807235023L212.17329545454547,159.2332218126817L214.8934659090909,158.9998821778731L217.61363636363637,160.7352783354846L220.3338068181818,158.58551759069616L223.05397727272728,161.0241763049906L225.77414772727272,161.33580285852605L228.4943181818182,160.03670766136864L231.21448863636363,161.5353920134631L233.9346590909091,162.18501442128962L236.65482954545453,159.8619436675852L239.375,161.20295506173915L242.09517045454544,163.16913583061913L244.81534090909093,161.18450595032084L247.53551136363637,160.90129732001913L250.2556818181818,163.518964973363L252.97585227272728,161.80919577858666L255.69602272727272,164.1155706427314L258.4161931818182,164.4702623865821L261.1363636363636,161.99103020537984L263.8565340909091,160.85572889718142L266.57670454545456,164.0927135402506" style="fill: none;" fill="none"></path></g></g></g></g></g></g><g transform="translate(30, 177)" clip-path="url(#clip_1)"><clipPath id="clip_1"><rect width="299" height="23"></rect></clipPath><g><g><line x1="0" y1="0" x2="0" y2="5" style="visibility: inherit;" fill="rgb(0, 0, 0)" stroke="rgb(204, 204, 204)" stroke-width="1px"></line><line x1="27.201704545454547" y1="0" x2="27.201704545454547" y2="5" style="visibility: inherit;" fill="rgb(0, 0, 0)" stroke="rgb(204, 204, 204)" stroke-width="1px"></line><line x1="54.40340909090909" y1="0" x2="54.40340909090909" y2="5" style="visibility: inherit;" fill="rgb(0, 0, 0)" stroke="rgb(204, 204, 204)" stroke-width="1px"></line><line x1="81.60511363636363" y1="0" x2="81.60511363636363" y2="5" style="visibility: inherit;" fill="rgb(0, 0, 0)" stroke="rgb(204, 204, 204)" stroke-width="1px"></line><line x1="108.80681818181819" y1="0" x2="108.80681818181819" y2="5" style="visibility: inherit;" fill="rgb(0, 0, 0)" stroke="rgb(204, 204, 204)" stroke-width="1px"></line><line x1="136.00852272727272" y1="0" x2="136.00852272727272" y2="5" style="visibility: inherit;" fill="rgb(0, 0, 0)" stroke="rgb(204, 204, 204)" stroke-width="1px"></line><line x1="163.21022727272725" y1="0" x2="163.21022727272725" y2="5" style="visibility: inherit;" fill="rgb(0, 0, 0)" stroke="rgb(204, 204, 204)" stroke-width="1px"></line><line x1="190.4119318181818" y1="0" x2="190.4119318181818" y2="5" style="visibility: inherit;" fill="rgb(0, 0, 0)" stroke="rgb(204, 204, 204)" stroke-width="1px"></line><line x1="217.61363636363637" y1="0" x2="217.61363636363637" y2="5" style="visibility: inherit;" fill="rgb(0, 0, 0)" stroke="rgb(204, 204, 204)" stroke-width="1px"></line><line x1="244.81534090909093" y1="0" x2="244.81534090909093" y2="5" style="visibility: inherit;" fill="rgb(0, 0, 0)" stroke="rgb(204, 204, 204)" stroke-width="1px"></line><line x1="272.01704545454544" y1="0" x2="272.01704545454544" y2="5" style="visibility: inherit;" fill="rgb(0, 0, 0)" stroke="rgb(204, 204, 204)" stroke-width="1px"></line><line x1="299.21875" y1="0" x2="299.21875" y2="5" style="visibility: inherit;" fill="rgb(0, 0, 0)" stroke="rgb(204, 204, 204)" stroke-width="1px"></line></g><g transform="translate(0, 8)"><text x="0" y="0" dx="0em" dy="0.95em" style="text-anchor: middle; visibility: hidden; font-family: Roboto, sans-serif; font-size: 12px; font-weight: 200;" fill="rgb(33, 33, 33)" stroke="none" stroke-width="1px">-10</text><text x="27.201704545454547" y="0" dx="0em" dy="0.95em" style="text-anchor: middle; visibility: inherit; font-family: Roboto, sans-serif; font-size: 12px; font-weight: 200;" fill="rgb(33, 33, 33)" stroke="none" stroke-width="1px">0</text><text x="54.40340909090909" y="0" dx="0em" dy="0.95em" style="text-anchor: middle; visibility: inherit; font-family: Roboto, sans-serif; font-size: 12px; font-weight: 200;" fill="rgb(33, 33, 33)" stroke="none" stroke-width="1px">10</text><text x="81.60511363636363" y="0" dx="0em" dy="0.95em" style="text-anchor: middle; visibility: inherit; font-family: Roboto, sans-serif; font-size: 12px; font-weight: 200;" fill="rgb(33, 33, 33)" stroke="none" stroke-width="1px">20</text><text x="108.80681818181819" y="0" dx="0em" dy="0.95em" style="text-anchor: middle; visibility: inherit; font-family: Roboto, sans-serif; font-size: 12px; font-weight: 200;" fill="rgb(33, 33, 33)" stroke="none" stroke-width="1px">30</text><text x="136.00852272727272" y="0" dx="0em" dy="0.95em" style="text-anchor: middle; visibility: inherit; font-family: Roboto, sans-serif; font-size: 12px; font-weight: 200;" fill="rgb(33, 33, 33)" stroke="none" stroke-width="1px">40</text><text x="163.21022727272725" y="0" dx="0em" dy="0.95em" style="text-anchor: middle; visibility: inherit; font-family: Roboto, sans-serif; font-size: 12px; font-weight: 200;" fill="rgb(33, 33, 33)" stroke="none" stroke-width="1px">50</text><text x="190.4119318181818" y="0" dx="0em" dy="0.95em" style="text-anchor: middle; visibility: inherit; font-family: Roboto, sans-serif; font-size: 12px; font-weight: 200;" fill="rgb(33, 33, 33)" stroke="none" stroke-width="1px">60</text><text x="217.61363636363637" y="0" dx="0em" dy="0.95em" style="text-anchor: middle; visibility: inherit; font-family: Roboto, sans-serif; font-size: 12px; font-weight: 200;" fill="rgb(33, 33, 33)" stroke="none" stroke-width="1px">70</text><text x="244.81534090909093" y="0" dx="0em" dy="0.95em" style="text-anchor: middle; visibility: inherit; font-family: Roboto, sans-serif; font-size: 12px; font-weight: 200;" fill="rgb(33, 33, 33)" stroke="none" stroke-width="1px">80</text><text x="272.01704545454544" y="0" dx="0em" dy="0.95em" style="text-anchor: middle; visibility: inherit; font-family: Roboto, sans-serif; font-size: 12px; font-weight: 200;" fill="rgb(33, 33, 33)" stroke="none" stroke-width="1px">90</text><text x="299.21875" y="0" dx="0em" dy="0.95em" style="text-anchor: middle; visibility: hidden; font-family: Roboto, sans-serif; font-size: 12px; font-weight: 200;" fill="rgb(33, 33, 33)" stroke="none" stroke-width="1px">100</text></g><line x1="0" y1="0" x2="299.21875" y2="0" fill="rgb(0, 0, 0)" stroke="rgb(204, 204, 204)" stroke-width="1px"></line></g></g></g></g></svg>