<svg viewBox="0 0 301 200" xmlns="http://www.w3.org/2000/svg"><g><g><g><g><g><line x1="51.5625" y1="177" x2="46.5625" y2="177" style="visibility: inherit;" fill="rgb(0, 0, 0)" stroke="rgb(204, 204, 204)" stroke-width="1px"></line><line x1="51.5625" y1="159.3" x2="46.5625" y2="159.3" style="visibility: inherit;" fill="rgb(0, 0, 0)" stroke="rgb(204, 204, 204)" stroke-width="1px"></line><line x1="51.5625" y1="141.6" x2="46.5625" y2="141.6" style="visibility: inherit;" fill="rgb(0, 0, 0)" stroke="rgb(204, 204, 204)" stroke-width="1px"></line><line x1="51.5625" y1="123.89999999999999" x2="46.5625" y2="123.89999999999999" style="visibility: inherit;" fill="rgb(0, 0, 0)" stroke="rgb(204, 204, 204)" stroke-width="1px"></line><line x1="51.5625" y1="106.2" x2="46.5625" y2="106.2" style="visibility: inherit;" fill="rgb(0, 0, 0)" stroke="rgb(204, 204, 204)" stroke-width="1px"></line><line x1="51.5625" y1="88.5" x2="46.5625" y2="88.5" style="visibility: inherit;" fill="rgb(0, 0, 0)" stroke="rgb(204, 204, 204)" stroke-width="1px"></line><line x1="51.5625" y1="70.8" x2="46.5625" y2="70.8" style="visibility: inherit;" fill="rgb(0, 0, 0)" stroke="rgb(204, 204, 204)" stroke-width="1px"></line><line x1="51.5625" y1="53.10000000000001" x2="46.5625" y2="53.10000000000001" style="visibility: inherit;" fill="rgb(0, 0, 0)" stroke="rgb(204, 204, 204)" stroke-width="1px"></line><line x1="51.5625" y1="35.39999999999999" x2="46.5625" y2="35.39999999999999" style="visibility: inherit;" fill="rgb(0, 0, 0)" stroke="rgb(204, 204, 204)" stroke-width="1px"></line><line x1="51.5625" y1="17.700000000000017" x2="46.5625" y2="17.700000000000017" style="visibility: inherit;" fill="rgb(0, 0, 0)" stroke="rgb(204, 204, 204)" stroke-width="1px"></line><line x1="51.5625" y1="0" x2="46.5625" y2="0" style="visibility: inherit;" fill="rgb(0, 0, 0)" stroke="rgb(204, 204, 204)" stroke-width="1px"></line></g><g transform="translate(41.5625, 0)"><text x="0" y="177" dx="0em" dy="0.3em" style="text-anchor: end; visibility: hidden; font-family: Roboto, sans-serif; font-size: 12px; font-weight: 200;" fill="rgb(33, 33, 33)" stroke="none" stroke-width="1px">0</text><text x="0" y="159.3" dx="0em" dy="0.3em" style="text-anchor: end; visibility: inherit; font-family: Roboto, sans-serif; font-size: 12px; font-weight: 200;" fill="rgb(33, 33, 33)" stroke="none" stroke-width="1px">1e-3</text><text x="0" y="141.6" dx="0em" dy="0.3em" style="text-anchor: end; visibility: hidden; font-family: Roboto, sans-serif; font-size: 12px; font-weight: 200;" fill="rgb(33, 33, 33)" stroke="none" stroke-width="1px">2e-3</text><text x="0" y="123.89999999999999" dx="0em" dy="0.3em" style="text-anchor: end; visibility: inherit; font-family: Roboto, sans-serif; font-size: 12px; font-weight: 200;" fill="rgb(33, 33, 33)" stroke="none" stroke-width="1px">3e-3</text><text x="0" y="106.2" dx="0em" dy="0.3em" style="text-anchor: end; visibility: hidden; font-family: Roboto, sans-serif; font-size: 12px; font-weight: 200;" fill="rgb(33, 33, 33)" stroke="none" stroke-width="1px">4e-3</text><text x="0" y="88.5" dx="0em" dy="0.3em" style="text-anchor: end; visibility: inherit; font-family: Roboto, sans-serif; font-size: 12px; font-weight: 200;" fill="rgb(33, 33, 33)" stroke="none" stroke-width="1px">5e-3</text><text x="0" y="70.8" dx="0em" dy="0.3em" style="text-anchor: end; visibility: hidden; font-family: Roboto, sans-serif; font-size: 12px; font-weight: 200;" fill="rgb(33, 33, 33)" stroke="none" stroke-width="1px">6e-3</text><text x="0" y="53.10000000000001" dx="0em" dy="0.3em" style="text-anchor: end; visibility: inherit; font-family: Roboto, sans-serif; font-size: 12px; font-weight: 200;" fill="rgb(33, 33, 33)" stroke="none" stroke-width="1px">7e-3</text><text x="0" y="35.39999999999999" dx="0em" dy="0.3em" style="text-anchor: end; visibility: hidden; font-family: Roboto, sans-serif; font-size: 12px; font-weight: 200;" fill="rgb(33, 33, 33)" stroke="none" stroke-width="1px">8e-3</text><text x="0" y="17.700000000000017" dx="0em" dy="0.3em" style="text-anchor: end; visibility: inherit; font-family: Roboto, sans-serif; font-size: 12px; font-weight: 200;" fill="rgb(33, 33, 33)" stroke="none" stroke-width="1px">9e-3</text><text x="0" y="0" dx="0em" dy="0.3em" style="text-anchor: end; visibility: hidden; font-family: Roboto, sans-serif; font-size: 12px; font-weight: 200;" fill="rgb(33, 33, 33)" stroke="none" stroke-width="1px">0.01</text></g><line x1="51.5625" y1="0" x2="51.5625" y2="177" fill="rgb(0, 0, 0)" stroke="rgb(204, 204, 204)" stroke-width="1px"></line></g></g><g transform="translate(51, 0)" clip-path="url(#clip_0)"><clipPath id="clip_0"><rect width="278" height="177"></rect></clipPath><g><g><g><line x1="0" y1="0" x2="0" y2="177" fill="rgb(0, 0, 0)" stroke="rgb(66, 66, 66)" stroke-width="1px" opacity="0.25"></line><line x1="23.203125" y1="0" x2="23.203125" y2="177" fill="rgb(0, 0, 0)" stroke="rgb(66, 66, 66)" stroke-width="1px" opacity="0.25"></line><line x1="46.40625" y1="0" x2="46.40625" y2="177" fill="rgb(0, 0, 0)" stroke="rgb(66, 66, 66)" stroke-width="1px" opacity="0.25"></line><line x1="69.609375" y1="0" x2="69.609375" y2="177" fill="rgb(0, 0, 0)" stroke="rgb(66, 66, 66)" stroke-width="1px" opacity="0.25"></line><line x1="92.8125" y1="0" x2="92.8125" y2="177" fill="rgb(0, 0, 0)" stroke="rgb(66, 66, 66)" stroke-width="1px" opacity="0.25"></line><line x1="116.015625" y1="0" x2="116.015625" y2="177" fill="rgb(0, 0, 0)" stroke="rgb(66, 66, 66)" stroke-width="1px" opacity="0.25"></line><line x1="139.21875" y1="0" x2="139.21875" y2="177" fill="rgb(0, 0, 0)" stroke="rgb(66, 66, 66)" stroke-width="1px" opacity="0.25"></line><line x1="162.421875" y1="0" x2="162.421875" y2="177" fill="rgb(0, 0, 0)" stroke="rgb(66, 66, 66)" stroke-width="1px" opacity="0.25"></line><line x1="185.625" y1="0" x2="185.625" y2="177" fill="rgb(0, 0, 0)" stroke="rgb(66, 66, 66)" stroke-width="1px" opacity="0.25"></line><line x1="208.828125" y1="0" x2="208.828125" y2="177" fill="rgb(0, 0, 0)" stroke="rgb(66, 66, 66)" stroke-width="1px" opacity="0.25"></line><line x1="232.03125" y1="0" x2="232.03125" y2="177" fill="rgb(0, 0, 0)" stroke="rgb(66, 66, 66)" stroke-width="1px" opacity="0.25"></line><line x1="255.234375" y1="0" x2="255.234375" y2="177" fill="rgb(0, 0, 0)" stroke="rgb(66, 66, 66)" stroke-width="1px" opacity="0.25"></line><line x1="278.4375" y1="0" x2="278.4375" y2="177" fill="rgb(0, 0, 0)" stroke="rgb(66, 66, 66)" stroke-width="1px" opacity="0.25"></line></g><g><line x1="0" y1="177" x2="278.4375" y2="177" fill="rgb(0, 0, 0)" stroke="rgb(66, 66, 66)" stroke-width="1px" opacity="0.25"></line><line x1="0" y1="159.3" x2="278.4375" y2="159.3" fill="rgb(0, 0, 0)" stroke="rgb(66, 66, 66)" stroke-width="1px" opacity="0.25"></line><line x1="0" y1="141.6" x2="278.4375" y2="141.6" fill="rgb(0, 0, 0)" stroke="rgb(66, 66, 66)" stroke-width="1px" opacity="0.25"></line><line x1="0" y1="123.89999999999999" x2="278.4375" y2="123.89999999999999" fill="rgb(0, 0, 0)" stroke="rgb(66, 66, 66)" stroke-width="1px" opacity="0.25"></line><line x1="0" y1="106.2" x2="278.4375" y2="106.2" fill="rgb(0, 0, 0)" stroke="rgb(66, 66, 66)" stroke-width="1px" opacity="0.25"></line><line x1="0" y1="88.5" x2="278.4375" y2="88.5" fill="rgb(0, 0, 0)" stroke="rgb(66, 66, 66)" stroke-width="1px" opacity="0.25"></line><line x1="0" y1="70.8" x2="278.4375" y2="70.8" fill="rgb(0, 0, 0)" stroke="rgb(66, 66, 66)" stroke-width="1px" opacity="0.25"></line><line x1="0" y1="53.10000000000001" x2="278.4375" y2="53.10000000000001" fill="rgb(0, 0, 0)" stroke="rgb(66, 66, 66)" stroke-width="1px" opacity="0.25"></line><line x1="0" y1="35.39999999999999" x2="278.4375" y2="35.39999999999999" fill="rgb(0, 0, 0)" stroke="rgb(66, 66, 66)" stroke-width="1px" opacity="0.25"></line><line x1="0" y1="17.700000000000017" x2="278.4375" y2="17.700000000000017" fill="rgb(0, 0, 0)" stroke="rgb(66, 66, 66)" stroke-width="1px" opacity="0.25"></line><line x1="0" y1="0" x2="278.4375" y2="0" fill="rgb(0, 0, 0)" stroke="rgb(66, 66, 66)" stroke-width="1px" opacity="0.25"></line></g></g></g><g><g><line x1="0" y1="177" x2="278.4375" y2="177" fill="rgb(0, 0, 0)" stroke="rgb(153, 153, 153)" stroke-width="1.5px"></line></g></g><g><g><line x1="23.203125" y1="0" x2="23.203125" y2="177" fill="rgb(0, 0, 0)" stroke="rgb(153, 153, 153)" stroke-width="1.5px"></line></g></g><g><g><g><g><g><path stroke="rgb(187, 187, 187)" stroke-width="2px" d="M25.523437499999996,-129.6629659384489L26.683593750000004,10.44460828229785L27.84375,61.37979365698993L29.00390625,88.44294119440019L30.1640625,100.11467793770134L31.32421875,108.8728694692254L32.484375,115.44721054192632L33.64453125,122.82910635508597L34.8046875,129.15068785473704L35.96484375000001,135.40718890540302L37.125,139.65472259838134L38.28515625,143.51966550853103L39.4453125,146.46518635377288L40.60546875,148.3200986618176L41.765625,148.5245774597861L42.92578125,146.63333969470114L44.0859375,143.9184419210069L45.24609375,134.8116360353306L46.40625,130.91971638891846L47.56640625,109.79362265020609L48.7265625,106.95984549634159L49.88671875,90.74114812351763L51.04687499999999,86.6000995952636L52.20703125,79.11443854495883L53.36718750000001,-28.27924792841077L54.52734375,-16.76416252925992L55.6875,58.93796630948782L56.84765625,112.75416903477162L58.0078125,115.17172308918089L59.16796875,126.12603360135108L60.328125,121.45990717504174L61.48828125,113.47001688368618L62.6484375,96.26046637818217L63.80859375,23.20683817192912L64.96875,-81.81517035886645L66.12890625,30.08212274685502L67.2890625,101.6776966843754L68.44921875,96.72014238126576L69.609375,130.03976212162524L70.76953125,132.38017326034606L71.92968750000001,123.26891040243208L73.08984375,134.69228891003877L74.25,140.65971935447305L75.41015625,139.68441102001816L76.5703125,120.40366451069713L77.73046875,54.81252027489245L78.890625,100.10870233923197L80.05078125,-84.0522860661149L81.2109375,8.968000810593367L82.37109375,29.171210758388042L83.53125,111.43782711401582L84.69140624999999,122.51406044047326L85.8515625,127.13930553104728L87.01171875,144.7827607258223L88.171875,116.90449416451156L89.33203125000001,122.53981733042747L90.4921875,26.67774599790573L91.65234375,138.17783901281655L92.8125,142.04964355845004L93.97265625,149.86118284100667L95.1328125,155.7864523474127L96.29296875,158.24819286167622L97.453125,163.6319886641577L98.61328125,161.7550634876825L99.7734375,160.1709735444747L100.93359375,115.15766600891948L102.09374999999999,147.18911156337708L103.25390625,98.72192665748298L104.4140625,143.40604259446263L105.57421875,162.33317379187793L106.73437500000001,150.76097197411582L107.89453125,162.50127355847508L109.0546875,154.41567272460088L110.21484375,159.11693773046136L111.375,115.53341576177627L112.53515625,147.3382171690464L113.6953125,164.34030725900084L114.85546875,161.31039447896183L116.015625,164.29643400292844L117.17578125,136.99620356597006L118.3359375,158.3046251772903L119.49609374999999,153.73624305753037L120.65625,162.8533826074563L121.81640625,154.58433914277703L122.9765625,160.63056506495923L124.13671875000001,135.366142725572L125.296875,157.694716447033L126.45703125,165.3852684055455L127.6171875,166.32841874775477L128.77734375,168.90319852496032L129.9375,168.43972441088408L131.09765625,167.72994076414034L132.2578125,148.61122363759205L133.41796875,35.29770751297474L134.578125,161.21111609204672L135.73828125,160.52515344740823L136.8984375,160.32697066362016L138.05859375,123.66240150108933L139.21875,142.77816791832447L140.37890625,165.95819127210416L141.5390625,157.097121570725L142.69921875,164.1202300884761L143.85937500000003,147.3067154623568L145.01953125,158.7332466132939L146.1796875,168.20038417750038L147.33984375,167.46130258357152L148.5,169.00910776562523L149.66015625,162.3616475185845L150.8203125,152.52652435842901L151.98046874999997,62.93716649338603L153.140625,113.73275776673108L154.30078125,-106.5727259516716L155.4609375,11.617424570024014L156.62109375,92.16379388049245L157.78125,93.06587022542953L158.94140625,105.8067857734859L160.1015625,127.74536309111863L161.26171875000003,123.70971999876201L162.421875,137.4932085145265L163.58203125,128.30445656832308L164.7421875,122.79232139512897L165.90234375,55.83479269221425L167.0625,113.00395729299635L168.22265625,100.54935533367097L169.38281249999997,133.86229476705194L170.54296875,142.46581308357418L171.703125,155.86044468032196L172.86328125,151.57633002195507L174.0234375,154.15794516261667L175.18359375,130.22634091135114L176.34375,126.37433002050966L177.50390625,33.45516263321042L178.66406250000003,128.37307704426348L179.82421875,155.38462219806388L180.984375,145.76575079513714L182.14453125,157.92242795974016L183.3046875,161.57547511789016L184.46484375,162.55442959768698L185.625,150.31741566304117L186.78515624999997,140.62297972664237L187.9453125,56.06296164728701L189.10546875,102.04783761687577L190.265625,160.4797728981357L191.42578125,158.23046800028533L192.5859375,160.2560104317963L193.74609375,162.95533455954865L194.90625,164.64145166496746L196.06640625000003,142.07585789076984L197.2265625,150.7193529610522L198.38671875,121.0423364751041L199.546875,144.68036369467154L200.70703125,162.33185400883667L201.8671875,163.19140057708137L203.02734375,165.2733299920801L204.18749999999997,165.12604179256596L205.34765625,166.32355172582902L206.5078125,145.82838949095458L207.66796875,154.9435035190545L208.828125,136.21067199669778L209.98828125,154.14838832616806L211.1484375,164.07003609160893L212.30859375,165.47568642231636L213.46875000000003,167.3794121579267L214.62890625,166.8794791661203L215.7890625,166.55309197772294L216.94921875,142.79156768275425L218.109375,157.63172745751217L219.26953125,159.14715365320444L220.4296875,164.94366755755618L221.58984374999997,162.60551890404895L222.75,168.26856369548477L223.91015625,159.6351395691745L225.0703125,165.0311874090694L226.23046875,153.8264004145749L227.390625,163.54267613310367L228.55078125,163.054248228902L229.7109375,166.3838692107238L230.87109375000003,162.5108170013409L232.03125,165.5095320059918L233.19140625,156.14753509685397L234.3515625,162.9888226375915L235.51171875,161.7838658723049L236.671875,166.69580472330563L237.83203125,163.84502493124455L238.99218749999997,168.1338294041343L240.15234375,161.59192243753932L241.3125,167.31989004579373L242.47265625,164.39371777628548L243.6328125,168.3006722345017L244.79296875,164.75794801767915L245.953125,168.4934295869898L247.11328125,163.67212614091113L248.27343750000003,167.94306975603104L249.43359375,166.0448982361704L250.59375,168.4374655316351L251.75390625,166.70151348039508L252.9140625,168.6184257133864L254.07421875,164.63162592658773" style="fill: none;" fill="none"></path></g></g></g></g></g></g><g transform="translate(51, 177)" clip-path="url(#clip_1)"><clipPath id="clip_1"><rect width="278" height="23"></rect></clipPath><g><g><line x1="0" y1="0" x2="0" y2="5" style="visibility: inherit;" fill="rgb(0, 0, 0)" stroke="rgb(204, 204, 204)" stroke-width="1px"></line><line x1="23.203125" y1="0" x2="23.203125" y2="5" style="visibility: inherit;" fill="rgb(0, 0, 0)" stroke="rgb(204, 204, 204)" stroke-width="1px"></line><line x1="46.40625" y1="0" x2="46.40625" y2="5" style="visibility: inherit;" fill="rgb(0, 0, 0)" stroke="rgb(204, 204, 204)" stroke-width="1px"></line><line x1="69.609375" y1="0" x2="69.609375" y2="5" style="visibility: inherit;" fill="rgb(0, 0, 0)" stroke="rgb(204, 204, 204)" stroke-width="1px"></line><line x1="92.8125" y1="0" x2="92.8125" y2="5" style="visibility: inherit;" fill="rgb(0, 0, 0)" stroke="rgb(204, 204, 204)" stroke-width="1px"></line><line x1="116.015625" y1="0" x2="116.015625" y2="5" style="visibility: inherit;" fill="rgb(0, 0, 0)" stroke="rgb(204, 204, 204)" stroke-width="1px"></line><line x1="139.21875" y1="0" x2="139.21875" y2="5" style="visibility: inherit;" fill="rgb(0, 0, 0)" stroke="rgb(204, 204, 204)" stroke-width="1px"></line><line x1="162.421875" y1="0" x2="162.421875" y2="5" style="visibility: inherit;" fill="rgb(0, 0, 0)" stroke="rgb(204, 204, 204)" stroke-width="1px"></line><line x1="185.625" y1="0" x2="185.625" y2="5" style="visibility: inherit;" fill="rgb(0, 0, 0)" stroke="rgb(204, 204, 204)" stroke-width="1px"></line><line x1="208.828125" y1="0" x2="208.828125" y2="5" style="visibility: inherit;" fill="rgb(0, 0, 0)" stroke="rgb(204, 204, 204)" stroke-width="1px"></line><line x1="232.03125" y1="0" x2="232.03125" y2="5" style="visibility: inherit;" fill="rgb(0, 0, 0)" stroke="rgb(204, 204, 204)" stroke-width="1px"></line><line x1="255.234375" y1="0" x2="255.234375" y2="5" style="visibility: inherit;" fill="rgb(0, 0, 0)" stroke="rgb(204, 204, 204)" stroke-width="1px"></line><line x1="278.4375" y1="0" x2="278.4375" y2="5" style="visibility: inherit;" fill="rgb(0, 0, 0)" stroke="rgb(204, 204, 204)" stroke-width="1px"></line></g><g transform="translate(0, 8)"><text x="0" y="0" dx="0em" dy="0.95em" style="text-anchor: middle; visibility: hidden; font-family: Roboto, sans-serif; font-size: 12px; font-weight: 200;" fill="rgb(33, 33, 33)" stroke="none" stroke-width="1px">-20</text><text x="23.203125" y="0" dx="0em" dy="0.95em" style="text-anchor: middle; visibility: inherit; font-family: Roboto, sans-serif; font-size: 12px; font-weight: 200;" fill="rgb(33, 33, 33)" stroke="none" stroke-width="1px">0</text><text x="46.40625" y="0" dx="0em" dy="0.95em" style="text-anchor: middle; visibility: hidden; font-family: Roboto, sans-serif; font-size: 12px; font-weight: 200;" fill="rgb(33, 33, 33)" stroke="none" stroke-width="1px">20</text><text x="69.609375" y="0" dx="0em" dy="0.95em" style="text-anchor: middle; visibility: inherit; font-family: Roboto, sans-serif; font-size: 12px; font-weight: 200;" fill="rgb(33, 33, 33)" stroke="none" stroke-width="1px">40</text><text x="92.8125" y="0" dx="0em" dy="0.95em" style="text-anchor: middle; visibility: hidden; font-family: Roboto, sans-serif; font-size: 12px; font-weight: 200;" fill="rgb(33, 33, 33)" stroke="none" stroke-width="1px">60</text><text x="116.015625" y="0" dx="0em" dy="0.95em" style="text-anchor: middle; visibility: inherit; font-family: Roboto, sans-serif; font-size: 12px; font-weight: 200;" fill="rgb(33, 33, 33)" stroke="none" stroke-width="1px">80</text><text x="139.21875" y="0" dx="0em" dy="0.95em" style="text-anchor: middle; visibility: hidden; font-family: Roboto, sans-serif; font-size: 12px; font-weight: 200;" fill="rgb(33, 33, 33)" stroke="none" stroke-width="1px">100</text><text x="162.421875" y="0" dx="0em" dy="0.95em" style="text-anchor: middle; visibility: inherit; font-family: Roboto, sans-serif; font-size: 12px; font-weight: 200;" fill="rgb(33, 33, 33)" stroke="none" stroke-width="1px">120</text><text x="185.625" y="0" dx="0em" dy="0.95em" style="text-anchor: middle; visibility: hidden; font-family: Roboto, sans-serif; font-size: 12px; font-weight: 200;" fill="rgb(33, 33, 33)" stroke="none" stroke-width="1px">140</text><text x="208.828125" y="0" dx="0em" dy="0.95em" style="text-anchor: middle; visibility: inherit; font-family: Roboto, sans-serif; font-size: 12px; font-weight: 200;" fill="rgb(33, 33, 33)" stroke="none" stroke-width="1px">160</text><text x="232.03125" y="0" dx="0em" dy="0.95em" style="text-anchor: middle; visibility: hidden; font-family: Roboto, sans-serif; font-size: 12px; font-weight: 200;" fill="rgb(33, 33, 33)" stroke="none" stroke-width="1px">180</text><text x="255.234375" y="0" dx="0em" dy="0.95em" style="text-anchor: middle; visibility: inherit; font-family: Roboto, sans-serif; font-size: 12px; font-weight: 200;" fill="rgb(33, 33, 33)" stroke="none" stroke-width="1px">200</text><text x="278.4375" y="0" dx="0em" dy="0.95em" style="text-anchor: middle; visibility: hidden; font-family: Roboto, sans-serif; font-size: 12px; font-weight: 200;" fill="rgb(33, 33, 33)" stroke="none" stroke-width="1px">220</text></g><line x1="0" y1="0" x2="278.4375" y2="0" fill="rgb(0, 0, 0)" stroke="rgb(204, 204, 204)" stroke-width="1px"></line></g></g></g></g></svg>