<svg viewBox="0 0 330 200" xmlns="http://www.w3.org/2000/svg"><g><g><g><g><g><line x1="50" y1="177" x2="45" y2="177" style="visibility: inherit;" fill="rgb(0, 0, 0)" stroke="rgb(204, 204, 204)" stroke-width="1px"></line><line x1="50" y1="160.9090909090909" x2="45" y2="160.9090909090909" style="visibility: inherit;" fill="rgb(0, 0, 0)" stroke="rgb(204, 204, 204)" stroke-width="1px"></line><line x1="50" y1="144.8181818181818" x2="45" y2="144.8181818181818" style="visibility: inherit;" fill="rgb(0, 0, 0)" stroke="rgb(204, 204, 204)" stroke-width="1px"></line><line x1="50" y1="128.72727272727272" x2="45" y2="128.72727272727272" style="visibility: inherit;" fill="rgb(0, 0, 0)" stroke="rgb(204, 204, 204)" stroke-width="1px"></line><line x1="50" y1="112.63636363636364" x2="45" y2="112.63636363636364" style="visibility: inherit;" fill="rgb(0, 0, 0)" stroke="rgb(204, 204, 204)" stroke-width="1px"></line><line x1="50" y1="96.54545454545453" x2="45" y2="96.54545454545453" style="visibility: inherit;" fill="rgb(0, 0, 0)" stroke="rgb(204, 204, 204)" stroke-width="1px"></line><line x1="50" y1="80.45454545454547" x2="45" y2="80.45454545454547" style="visibility: inherit;" fill="rgb(0, 0, 0)" stroke="rgb(204, 204, 204)" stroke-width="1px"></line><line x1="50" y1="64.36363636363636" x2="45" y2="64.36363636363636" style="visibility: inherit;" fill="rgb(0, 0, 0)" stroke="rgb(204, 204, 204)" stroke-width="1px"></line><line x1="50" y1="48.272727272727266" x2="45" y2="48.272727272727266" style="visibility: inherit;" fill="rgb(0, 0, 0)" stroke="rgb(204, 204, 204)" stroke-width="1px"></line><line x1="50" y1="32.18181818181817" x2="45" y2="32.18181818181817" style="visibility: inherit;" fill="rgb(0, 0, 0)" stroke="rgb(204, 204, 204)" stroke-width="1px"></line><line x1="50" y1="16.090909090909097" x2="45" y2="16.090909090909097" style="visibility: inherit;" fill="rgb(0, 0, 0)" stroke="rgb(204, 204, 204)" stroke-width="1px"></line><line x1="50" y1="0" x2="45" y2="0" style="visibility: inherit;" fill="rgb(0, 0, 0)" stroke="rgb(204, 204, 204)" stroke-width="1px"></line></g><g transform="translate(40, 0)"><text x="0" y="177" dx="0em" dy="0.3em" style="text-anchor: end; visibility: hidden; font-family: Roboto, sans-serif; font-size: 12px; font-weight: 200;" fill="rgb(33, 33, 33)" stroke="none" stroke-width="1px">33</text><text x="0" y="160.9090909090909" dx="0em" dy="0.3em" style="text-anchor: end; visibility: inherit; font-family: Roboto, sans-serif; font-size: 12px; font-weight: 200;" fill="rgb(33, 33, 33)" stroke="none" stroke-width="1px">33.5</text><text x="0" y="144.8181818181818" dx="0em" dy="0.3em" style="text-anchor: end; visibility: hidden; font-family: Roboto, sans-serif; font-size: 12px; font-weight: 200;" fill="rgb(33, 33, 33)" stroke="none" stroke-width="1px">34</text><text x="0" y="128.72727272727272" dx="0em" dy="0.3em" style="text-anchor: end; visibility: inherit; font-family: Roboto, sans-serif; font-size: 12px; font-weight: 200;" fill="rgb(33, 33, 33)" stroke="none" stroke-width="1px">34.5</text><text x="0" y="112.63636363636364" dx="0em" dy="0.3em" style="text-anchor: end; visibility: hidden; font-family: Roboto, sans-serif; font-size: 12px; font-weight: 200;" fill="rgb(33, 33, 33)" stroke="none" stroke-width="1px">35</text><text x="0" y="96.54545454545453" dx="0em" dy="0.3em" style="text-anchor: end; visibility: inherit; font-family: Roboto, sans-serif; font-size: 12px; font-weight: 200;" fill="rgb(33, 33, 33)" stroke="none" stroke-width="1px">35.5</text><text x="0" y="80.45454545454547" dx="0em" dy="0.3em" style="text-anchor: end; visibility: hidden; font-family: Roboto, sans-serif; font-size: 12px; font-weight: 200;" fill="rgb(33, 33, 33)" stroke="none" stroke-width="1px">36</text><text x="0" y="64.36363636363636" dx="0em" dy="0.3em" style="text-anchor: end; visibility: inherit; font-family: Roboto, sans-serif; font-size: 12px; font-weight: 200;" fill="rgb(33, 33, 33)" stroke="none" stroke-width="1px">36.5</text><text x="0" y="48.272727272727266" dx="0em" dy="0.3em" style="text-anchor: end; visibility: hidden; font-family: Roboto, sans-serif; font-size: 12px; font-weight: 200;" fill="rgb(33, 33, 33)" stroke="none" stroke-width="1px">37</text><text x="0" y="32.18181818181817" dx="0em" dy="0.3em" style="text-anchor: end; visibility: inherit; font-family: Roboto, sans-serif; font-size: 12px; font-weight: 200;" fill="rgb(33, 33, 33)" stroke="none" stroke-width="1px">37.5</text><text x="0" y="16.090909090909097" dx="0em" dy="0.3em" style="text-anchor: end; visibility: hidden; font-family: Roboto, sans-serif; font-size: 12px; font-weight: 200;" fill="rgb(33, 33, 33)" stroke="none" stroke-width="1px">38</text><text x="0" y="0" dx="0em" dy="0.3em" style="text-anchor: end; visibility: hidden; font-family: Roboto, sans-serif; font-size: 12px; font-weight: 200;" fill="rgb(33, 33, 33)" stroke="none" stroke-width="1px">38.5</text></g><line x1="50" y1="0" x2="50" y2="177" fill="rgb(0, 0, 0)" stroke="rgb(204, 204, 204)" stroke-width="1px"></line></g></g><g transform="translate(50, 0)" clip-path="url(#clip_0)"><clipPath id="clip_0"><rect width="280" height="177"></rect></clipPath><g><g><g><line x1="0" y1="0" x2="0" y2="177" fill="rgb(0, 0, 0)" stroke="rgb(66, 66, 66)" stroke-width="1px" opacity="0.25"></line><line x1="28" y1="0" x2="28" y2="177" fill="rgb(0, 0, 0)" stroke="rgb(66, 66, 66)" stroke-width="1px" opacity="0.25"></line><line x1="56" y1="0" x2="56" y2="177" fill="rgb(0, 0, 0)" stroke="rgb(66, 66, 66)" stroke-width="1px" opacity="0.25"></line><line x1="84" y1="0" x2="84" y2="177" fill="rgb(0, 0, 0)" stroke="rgb(66, 66, 66)" stroke-width="1px" opacity="0.25"></line><line x1="112" y1="0" x2="112" y2="177" fill="rgb(0, 0, 0)" stroke="rgb(66, 66, 66)" stroke-width="1px" opacity="0.25"></line><line x1="140" y1="0" x2="140" y2="177" fill="rgb(0, 0, 0)" stroke="rgb(66, 66, 66)" stroke-width="1px" opacity="0.25"></line><line x1="168" y1="0" x2="168" y2="177" fill="rgb(0, 0, 0)" stroke="rgb(66, 66, 66)" stroke-width="1px" opacity="0.25"></line><line x1="196" y1="0" x2="196" y2="177" fill="rgb(0, 0, 0)" stroke="rgb(66, 66, 66)" stroke-width="1px" opacity="0.25"></line><line x1="224" y1="0" x2="224" y2="177" fill="rgb(0, 0, 0)" stroke="rgb(66, 66, 66)" stroke-width="1px" opacity="0.25"></line><line x1="252" y1="0" x2="252" y2="177" fill="rgb(0, 0, 0)" stroke="rgb(66, 66, 66)" stroke-width="1px" opacity="0.25"></line><line x1="280" y1="0" x2="280" y2="177" fill="rgb(0, 0, 0)" stroke="rgb(66, 66, 66)" stroke-width="1px" opacity="0.25"></line></g><g><line x1="0" y1="177" x2="280" y2="177" fill="rgb(0, 0, 0)" stroke="rgb(66, 66, 66)" stroke-width="1px" opacity="0.25"></line><line x1="0" y1="160.9090909090909" x2="280" y2="160.9090909090909" fill="rgb(0, 0, 0)" stroke="rgb(66, 66, 66)" stroke-width="1px" opacity="0.25"></line><line x1="0" y1="144.8181818181818" x2="280" y2="144.8181818181818" fill="rgb(0, 0, 0)" stroke="rgb(66, 66, 66)" stroke-width="1px" opacity="0.25"></line><line x1="0" y1="128.72727272727272" x2="280" y2="128.72727272727272" fill="rgb(0, 0, 0)" stroke="rgb(66, 66, 66)" stroke-width="1px" opacity="0.25"></line><line x1="0" y1="112.63636363636364" x2="280" y2="112.63636363636364" fill="rgb(0, 0, 0)" stroke="rgb(66, 66, 66)" stroke-width="1px" opacity="0.25"></line><line x1="0" y1="96.54545454545453" x2="280" y2="96.54545454545453" fill="rgb(0, 0, 0)" stroke="rgb(66, 66, 66)" stroke-width="1px" opacity="0.25"></line><line x1="0" y1="80.45454545454547" x2="280" y2="80.45454545454547" fill="rgb(0, 0, 0)" stroke="rgb(66, 66, 66)" stroke-width="1px" opacity="0.25"></line><line x1="0" y1="64.36363636363636" x2="280" y2="64.36363636363636" fill="rgb(0, 0, 0)" stroke="rgb(66, 66, 66)" stroke-width="1px" opacity="0.25"></line><line x1="0" y1="48.272727272727266" x2="280" y2="48.272727272727266" fill="rgb(0, 0, 0)" stroke="rgb(66, 66, 66)" stroke-width="1px" opacity="0.25"></line><line x1="0" y1="32.18181818181817" x2="280" y2="32.18181818181817" fill="rgb(0, 0, 0)" stroke="rgb(66, 66, 66)" stroke-width="1px" opacity="0.25"></line><line x1="0" y1="16.090909090909097" x2="280" y2="16.090909090909097" fill="rgb(0, 0, 0)" stroke="rgb(66, 66, 66)" stroke-width="1px" opacity="0.25"></line><line x1="0" y1="0" x2="280" y2="0" fill="rgb(0, 0, 0)" stroke="rgb(66, 66, 66)" stroke-width="1px" opacity="0.25"></line></g></g></g><g><g><line x1="0" y1="1239" x2="280" y2="1239" fill="rgb(0, 0, 0)" stroke="rgb(153, 153, 153)" stroke-width="1.5px"></line></g></g><g><g><line x1="28" y1="0" x2="28" y2="177" fill="rgb(0, 0, 0)" stroke="rgb(153, 153, 153)" stroke-width="1.5px"></line></g></g><g><g><g><g><g><path stroke="rgb(187, 187, 187)" stroke-width="2px" d="M36.96,-0.10018090236682142L37.24,1.8133667442292363L37.52,3.2889311603269844L37.800000000000004,5.762883701738559L38.080000000000005,7.560008508087901L38.36,9.774536884649034L38.64,12.125778932014944L38.92,14.797260242751538L39.2,17.45400339787077L39.48,21.11112107901206L39.76,24.5500702536026L40.04,30.305981262267217L40.32,33.349594672538345L40.599999999999994,38.4414296110137L40.879999999999995,41.201013328678854L41.16,43.888078478446474L41.44,44.92882708974527L41.72,43.695171065182855L42,48.70921578721656L42.28,45.60134900800975L42.56,50.16999713785695L42.839999999999996,47.425800606486426L43.12,51.77006249502022L43.4,54.155595513703474L43.68,56.28676773080781L43.96,42.653782828646115L44.24,21.959931606809466L44.52,27.77985356191977L44.800000000000004,36.92223592310748L45.08,42.968107067891665L45.36,41.988742769676854L45.64,45.46328322617045L45.92,48.31832638101477L46.2,48.5957021940208L46.480000000000004,46.53887356472573L46.760000000000005,51.86429676179358L47.040000000000006,56.65479382190224L47.32,58.57227026952615L47.6,54.678535057667524L47.88,50.95741899713608L48.16,56.87661564943577L48.44,61.77971500622756L48.72,55.038695259063275L49,40.10576082331795L49.279999999999994,46.373338918085125L49.559999999999995,53.87253739737093L49.839999999999996,50.1145150365226L50.12,48.462914288692645L50.4,55.87563342761891L50.68,63.1231164845721L50.96,61.92862009049458L51.24,46.40227537017028L51.519999999999996,52.193498678245646L51.8,59.93845194576125L52.08,65.22193014295397L52.36,69.41871605807346L52.64,72.84553505476592L52.92,73.78432770233745L53.2,75.72457222953452L53.480000000000004,64.8601162070389L53.76,39.73829317947892L54.04,46.34599048954097L54.32,50.66893212886306L54.6,39.713442573660345L54.88,47.67195647992068L55.160000000000004,49.848398719273476L55.440000000000005,58.50899983614514L55.720000000000006,59.263075350018234L56,49.28883941721965L56.28,56.83459765113081L56.56,57.61927610221968L56.84,64.18594887333472L57.12,65.82550448247035L57.4,61.88105319995802L57.68,69.4641504968569L57.959999999999994,69.49934212694932L58.239999999999995,55.363766819582196L58.519999999999996,62.13897819810585L58.8,67.37532167783013L59.08,60.28515006014277L59.36,68.29722251566663L59.64,76.87852271838426L59.92,83.37250048294807L60.199999999999996,87.90254525603295L60.48,91.82002446807282L60.76,94.91397013627696L61.04,97.05917642658157L61.32,99.33911636287355L61.6,99.26539026117234L61.88,101.61446126297106L62.160000000000004,103.7725180885709L62.44,102.89610085225462L62.72,101.16903036220515L63,104.73501002529532L63.28,100.71563148126388L63.56,101.0547012653564L63.84,105.51971984035727L64.12,109.8390039234791L64.4,113.19937098201704L64.68,107.59598006657166L64.96000000000001,109.92434662925396L65.24000000000001,109.00829838504538L65.52000000000001,112.459986688165L65.8,112.27685815725265L66.08,114.94733770596385L66.36,117.73670318288221L66.64,110.66521193991407L66.92,95.87110425911884L67.2,99.54680584382355L67.48,95.11551248356675L67.75999999999999,75.13249219362008L68.03999999999999,79.84259623502867L68.32,87.8515538347671L68.6,82.31303912348105L68.88,89.37251474717097L69.16,96.74943353091996L69.44,106.62296250891069L69.72,113.82662340822277L70,119.4886159794152L70.28,120.57048448466608L70.56,122.28897731411303L70.84,121.75984213243099L71.12,123.37864226232428L71.4,121.90515305315085L71.68,124.21213507807313L71.96000000000001,124.09619861609114L72.24000000000001,126.86798250861057L72.52,124.400244239275L72.8,126.48250410970492L73.08,126.19318649236769L73.36,128.1047161057367L73.64,124.39848251766783L73.92,127.46120116054735L74.2,126.73635703777013L74.48,127.62189900604277L74.76,125.98457544987915L75.04,129.1128075368841L75.32000000000001,127.43386605178252L75.60000000000001,127.04896320795166L75.88000000000001,124.34211929107062L76.16000000000001,122.94345655555507L76.44000000000001,121.12818774725349L76.72,120.40108173792952L77,119.0270493002152L77.28,118.38117764475989L77.56,115.0870475958225L77.84,101.25845220140334L78.12,100.57594645400953L78.4,109.87903122911729L78.68,116.46754602351449L78.96,121.42555102941408L79.24,121.73618111480745L79.52,107.52014467074899L79.8,106.73383085429596L80.08,114.14318991438854L80.36,120.27499198485485L80.64,123.09123947580284L80.91999999999999,110.58692835567L81.19999999999999,111.52180589479404L81.47999999999999,118.56358568975293L81.75999999999999,117.55429576754496L82.03999999999999,112.74577714536358L82.32,119.31815082423864L82.6,118.30078429337131L82.88,115.9671030445063L83.16,115.7889351998395L83.44,109.16980277029437L83.72,113.45856556665105L84,120.68742294261848L84.28,115.44002001645882L84.56,102.95273243556787L84.84,106.14931391091466L85.12,112.737348633747L85.39999999999999,112.74989042580928L85.67999999999999,117.00632297174958L85.96,121.03040289171453L86.24,118.72389164846982L86.52,121.19707912970689L86.8,125.32886149149596L87.08,124.85545926217367L87.36,121.79233800181774L87.64,124.36709064510697L87.92,118.92662756710676L88.2,108.08978169385078L88.48,114.10399330608311L88.76,122.04647856976493L89.04,121.51190869281781L89.32000000000001,112.91943381210409L89.60000000000001,119.40388113465242L89.88,119.19472653013462L90.16,126.34741397649691L90.44,125.82074003406926L90.72,115.82647222978105L91,114.37104619076284L91.28,112.70910620788801L91.56,119.87765627400488L91.84,121.76382409998527L92.12,121.66282798493783L92.4,125.3701488506217L92.68,128.7606019391018L92.96000000000001,123.28481714046738L93.24000000000001,115.39476723740526L93.52000000000001,121.71498756190334L93.80000000000001,123.51775541001138L94.08000000000001,130.04527155433414L94.36,130.65604421367283L94.64,125.61009325849493L94.92,131.43635291887531L95.2,136.51674505654537L95.48,136.18357164774108L95.76,129.05565912412058L96.04,131.51226565824354L96.32,131.6725577037175L96.6,128.4059843514563L96.88,129.88495163937174L97.16,133.86480360303014L97.44,135.91609618436772L97.72,135.84066390291474L98,128.46644917848528L98.28,133.54561352564588L98.55999999999999,139.07387579471978L98.83999999999999,139.95617961390573L99.11999999999999,132.94216258013304L99.39999999999999,110.6146855319221L99.67999999999999,115.85149952938055L99.96,123.08083990317519L100.24,127.6541508035885L100.52,118.58343841361622L100.8,120.1623691228324L101.08,120.72861931638406L101.36,127.57652539398539L101.64,127.87777142646577L101.92,112.52427055518694L102.2,121.98352706588923L102.48,128.44349314826923L102.75999999999999,126.07363872454393L103.03999999999999,134.37988075558928L103.32,138.46474874365902L103.6,137.10272120553503L103.88,116.48506356494042L104.16,112.88786431083936L104.44,113.06029094090705L104.72,120.48199726296403L105,129.00047016397514L105.28,133.14775912697183L105.56,127.40417505182225L105.84,131.09384780453098L106.12,136.51105250152182L106.4,134.8538641114422L106.68,103.93919113643203L106.96000000000001,100.01058499435932L107.24000000000001,111.9690662842578L107.52,123.31994435374011L107.8,126.49209312147707L108.08,120.86917000197003L108.36,124.78297550082674L108.64,127.48575181993841L108.92,135.42794123755974L109.2,141.36869461868991L109.48,140.9723905882416L109.76,127.87548313668067L110.04,129.91917970800273L110.32000000000001,125.96225694811483L110.60000000000001,132.0009165135066L110.88000000000001,130.52911602582412L111.16000000000001,133.09756716077155L111.44000000000001,139.45014768504603L111.72,142.96171014866957L112,142.6544219965172L112.28,127.57628440130169L112.56,125.9837236880999L112.84,121.31595442770369L113.12,129.70163708755274L113.4,134.14549868763453L113.68,134.7890595219734L113.96,134.14427394782547L114.24,137.45063158504826L114.52,143.86558436207304L114.8,145.65359577882055L115.08,143.02909788588255L115.36,126.16759356373842L115.64,134.05534184935811L115.91999999999999,137.02161481087535L116.19999999999999,135.2887107411061L116.47999999999999,139.800597105619L116.75999999999999,145.23564085614493L117.03999999999999,146.71865307947184L117.32,142.27481117696203L117.6,126.66855325447277L117.88,133.8893166561637L118.16,136.16876954803078L118.44,138.64072706084966L118.72,143.75781103675837L119,146.33268455795698L119.28,144.52973907506185L119.56,125.46851205743053L119.84,122.57231262330784L120.12,130.45839833836672L120.39999999999999,140.31578607333253L120.67999999999999,145.59557848881477L120.96,144.66888523471295L121.24,126.17053335584903L121.52,132.24520886294138L121.8,136.1112838094196L122.08,140.8789390312127L122.36,145.83427703733568L122.64,148.66654689090274L122.92,148.6695082126667L123.2,142.98731672181165L123.48,146.85289196401743L123.76,150.41392023700413L124.04,152.91396743206388L124.32000000000001,154.11705444272573L124.60000000000001,154.45706183378175L124.88,151.9501939650596L125.16,140.03019522536025L125.44,137.29494624787594L125.72,143.37147181033788L126,147.53471419637683L126.28,148.24452985616063L126.56,139.19987232154438L126.84,139.1604485172164L127.12,146.2911302276061L127.4,149.7997605340246L127.68,150.40898701333023L127.96000000000001,142.44067141609483L128.24,126.0038887116951L128.52,131.38929112385665L128.8,139.18342097669333L129.08,142.18711807119007L129.36,141.8675833982006L129.64000000000001,147.44419422615397L129.92000000000002,152.1643797503586L130.20000000000002,154.23663166768674L130.48000000000002,154.67524094130818L130.76000000000002,153.55588863882596L131.04000000000002,143.78717809185386L131.32,131.68517556294253L131.6,136.88583511848282L131.88,140.0971743443497L132.16,137.40191727750823L132.44,140.2464448888772L132.72,145.50506464284337L133,151.7246197072259L133.28,154.41010973715524L133.56,154.23273382214055L133.84,148.44538453378502L134.12,136.3151250073803L134.4,138.89559744317114L134.68,137.45899959028137L134.96,143.08899200603298L135.24,150.08901337877967L135.51999999999998,153.27975967854627L135.79999999999998,153.2006200338679L136.07999999999998,146.30168333290948L136.35999999999999,144.49724146725288L136.64,148.94803609794752L136.92,151.40441264554048L137.2,148.13135164449773L137.48,120.41837758160274L137.76,116.64971817715768L138.04,125.85201851726761L138.32,138.36278914658217L138.6,147.2864379144407L138.88,150.42822538627084L139.16,146.98583593311213L139.44,150.3322275453077L139.72,154.004348068378L140,156.25544919525245L140.28,156.62777984873884L140.56,154.37945000263824L140.84,143.39446854117818L141.12,143.52170920087883L141.4,150.0698714455984L141.68,152.690842267661L141.96,151.25516920115064L142.24,135.38691055833254L142.52,133.93281994117842L142.8,135.84366857159617L143.08,142.52142774984685L143.36,149.5284819273406L143.64000000000001,152.7344966603993L143.92000000000002,151.04590068844485L144.20000000000002,145.85351642070165L144.48000000000002,146.00694461360717L144.76,151.66948686981553L145.04,152.7718184646628L145.32,149.07932226887226L145.6,150.2409610592992L145.88,153.1476944223338L146.16,156.98181428523614L146.44,158.13247957345L146.72,156.3951981932887L147,148.7029547646949L147.28,146.22507541563522L147.56,151.89980410502753L147.84,154.3516988692667L148.12,151.53513486665935L148.4,135.33219625424633L148.68,143.8599242755415L148.96,147.13387504206514L149.24,144.89490798866242L149.52,150.13962756574702L149.8,155.08411556199783L150.08,157.88802343654174L150.36,158.5070364185478L150.64000000000001,155.66527115643765L150.92000000000002,148.39684696454802L151.20000000000002,149.38245465866493L151.48000000000002,154.76347714534108L151.76000000000002,156.8497480525634L152.04000000000002,154.29386566614392L152.32000000000002,138.4642843766041L152.60000000000002,138.36160729144535L152.88000000000002,135.35273458305247L153.16000000000003,134.39330329200126L153.44,138.66284077314114L153.72,142.84887689374983L154,146.36068056185354L154.28,152.42400111054963L154.56,153.7631658696322L154.84,150.347417011126L155.12,154.02613098171102L155.4,157.7815593818178L155.68,159.18420995437478L155.96,159.0634295814672L156.24,155.99404918176384L156.52,156.09984914240357L156.8,156.99493173553086L157.08,159.31966911322905L157.36,160.8625647957961L157.64,161.5174850555671L157.92,160.3755939053219L158.2,155.87574308413755L158.48,151.41638046518415L158.76,154.15209712232786L159.04,157.84437162123052L159.32,159.99840347921912L159.6,159.1171650900173L159.88,153.65360815823624L160.16,133.71071736298165L160.44,135.7685971103493L160.72,141.9276302677189L161,149.45755583286132L161.28,155.3689304723731L161.56,159.4862636234452L161.83999999999997,161.12746706966365L162.11999999999998,160.76954498345305L162.39999999999998,156.99758514436874L162.67999999999998,149.0209776224877L162.95999999999998,150.56255883023982L163.23999999999998,155.70371072428017L163.51999999999998,158.19579599245154L163.79999999999998,155.3762400244481L164.07999999999998,146.36679626076253L164.35999999999999,148.7261918145185L164.64,153.7504492528623L164.92,155.93261541020462L165.2,153.4449751853984L165.48,150.9562357104933L165.76,153.8904964089843L166.04,157.84803547189975L166.32,159.52383593157728L166.6,158.7328384907645L166.88,155.2806754399843L167.16,155.1109903248037L167.44,157.87635454866418L167.72,160.72918186982344L168,162.0464624244508L168.28,160.83484628235172L168.56,154.5681313356397L168.84,147.5847153603328L169.12,147.3776175462779L169.4,153.44610982331002L169.68,156.33760885385817L169.96,155.8635929778865L170.24,153.4386721996403L170.51999999999998,154.6637537459207L170.79999999999998,157.61336510710504L171.07999999999998,159.46882112170252L171.35999999999999,154.98165499990367L171.64,143.18606886109262L171.92,143.34181848506813L172.2,139.63690427907358L172.48,140.03452293853792L172.76,144.55612996740192L173.04,146.92874356549078L173.32,151.2189468561802L173.6,156.44373772041982L173.88,157.66825873443597L174.16,156.83517820763606L174.44,157.63019433802276L174.72,160.57907957111965L175,161.78079957150706L175.28,160.80798447035457L175.56,158.849388904425L175.84,160.06100718853577L176.12,160.43471277814277L176.4,160.15059540037285L176.68,159.15480786833095L176.96,161.22195021726984L177.24,162.98020104744288L177.52,163.41563583176836L177.8,160.19590194028962L178.08,157.52973709812255L178.36,159.63397218607523L178.64000000000001,162.00477656670552L178.92000000000002,162.7709634187164L179.20000000000002,160.79582556543443L179.48000000000002,154.0237089401129L179.76,151.7776392268162L180.04,152.0378606689911L180.32,156.25129111952316L180.6,160.09709702611727L180.88,160.8801476421619L181.16,156.5586014470693L181.44,139.64172991564925L181.72,147.43399202875744L182,149.16625681171473L182.28,147.86524480968515L182.56,150.4569126661733L182.84,155.93377783763003L183.12,159.83690827084865L183.4,160.42144594351058L183.68,159.10532950236345L183.96,161.317777002732L184.24,161.51817474656113L184.52,162.31842715351195L184.8,161.4628092217947L185.08,162.27224397146466L185.36,160.01516301107483L185.64000000000001,157.44840000834944L185.92000000000002,152.0685822413378L186.20000000000002,152.7849481729276L186.48000000000002,157.75064808078082L186.76000000000002,161.32606217721502L187.04000000000002,162.0557447282041L187.32000000000002,159.32860286497663L187.60000000000002,151.7936108600549L187.88000000000002,153.75690631761316L188.16000000000003,158.4341947271801L188.44,160.51243056588902L188.72,155.9793533146755L189,141.06703897966116L189.28,135.63688504218226L189.56,141.24877864160905L189.84,145.2200113699795L190.12,151.4793401405246L190.4,157.99707590826722L190.68,161.23266326956983L190.96,160.995594943276L191.24,157.51869374686038L191.52,155.3689122264543L191.8,157.2716902424776L192.08,158.99299905315715L192.36,157.1861081588118L192.64,153.2800245477197L192.92,150.50719180826616L193.2,155.6364112541713L193.48,156.77898753286513L193.76,155.84002324592643L194.04,158.309600328948L194.32,161.31754730674373L194.6,160.40667995098508L194.88,158.29241550787793L195.16,159.03188130046536L195.44,161.59417095002334L195.72,163.7641225318393L196,164.05245656242735L196.28,160.44747180677456L196.56,155.26119909303137L196.83999999999997,156.00034239172092L197.11999999999998,158.6721894660163L197.39999999999998,159.99549424379651L197.67999999999998,160.59909486392706L197.95999999999998,161.7716442518966L198.23999999999998,164.0699750765285L198.51999999999998,166.25165301466717L198.79999999999998,166.95312581980883L199.07999999999998,165.03034855873545L199.35999999999999,160.57182907487203L199.64,160.5912866428104L199.92,162.20144529223808L200.2,164.74299408407865L200.48,165.35072975566726L200.76,161.0560885436523L201.04,153.61068420973197L201.32,154.37264332502247L201.6,156.93644721216532L201.88,158.3889912410065L202.16,157.87917832503703L202.44,159.86205150629698L202.72,162.89549267801462L203,165.23750035201476L203.28,165.39316493954698L203.56,164.24861258677498L203.84,160.08638623548123L204.12,160.75498392967648L204.4,163.084763318122L204.68,165.06148726333413L204.96,164.16510225235422L205.24,160.29958403429595L205.51999999999998,141.08462213577644L205.79999999999998,137.06545612059938L206.07999999999998,143.45671696515078L206.35999999999999,146.80233301334133L206.64,147.4545365711439L206.92,152.65810513249454L207.2,159.00358417102726L207.48,160.9148569124175L207.76,158.98663054482267L208.04,157.99026989738354L208.32,160.00658786394504L208.6,159.2170458691128L208.88,157.66280198435828L209.16,157.89837865599125L209.44,160.9288992417126L209.72,160.9029050634935L210,158.90172533790079L210.28,160.35772637594724L210.56,162.83781531331712L210.84,160.51871480056147L211.12,158.15810720952715L211.4,157.73897831719347L211.68,160.7654933690447L211.96,158.95888542128472L212.24,156.5835427007468L212.52,150.21203246970228L212.8,144.65913753934987L213.08,146.03333347575844L213.36,153.1161088168117L213.64000000000001,156.0986542149804L213.92000000000002,157.39211711172962L214.20000000000002,160.9866083241224L214.48000000000002,160.6829673027119L214.76,160.18061445478037L215.04,158.79436276910397L215.32,160.97926436778354L215.6,158.68104505976805L215.88,157.73699229243041L216.16,156.91732327185377L216.44,160.8312233753991L216.72,158.81496327328628L217,158.2288477926293L217.28,158.22769397387296L217.56,160.57856862153972L217.84,156.565286370012L218.12,153.97130516717758L218.4,156.94077926064028L218.68,161.5872328373678L218.96,165.2662726414299L219.24,167.0229075057564L219.52,166.86383383672788L219.8,167.35726348119152L220.08,166.75076112049777L220.36,164.3571796947595L220.64000000000001,163.3365129615646L220.92000000000002,163.54437215460212L221.20000000000002,165.4309459689864L221.48000000000002,167.79637275717315L221.76000000000002,168.66274935787268L222.04000000000002,165.95098768290558L222.32000000000002,162.78191796041796L222.60000000000002,162.38556146517124L222.88000000000002,163.9099987110453L223.16000000000003,162.66102108831052L223.44,160.06182816257441L223.72,157.14287415251624L224,157.3241000685695L224.28,160.7595898240785L224.56,160.10706504057632L224.84,158.98888613016967L225.12,159.58706281269L225.4,163.02081151795852L225.68,162.6967895008852L225.96,161.21144028877683L226.24,162.25705216154734L226.52,164.69960621924722L226.8,162.68546974184653L227.08,160.3739297166455L227.36,158.6686543720684L227.64,161.7838600260287L227.92,160.55756549404407L228.2,158.8616278085004L228.48,152.8330885791876L228.76,149.67809744349987L229.04,151.33184986569162L229.32,155.22270416879354L229.6,161.0756299475651L229.88,162.96857160534657L230.16,162.30451970548413L230.44,159.57907440541055L230.72,160.89406912167325L231,155.7003885610721L231.28,144.6820156961249L231.56,141.7250347239605L231.83999999999997,148.52752460745873L232.11999999999998,154.9376531811123L232.39999999999998,157.80397624149782L232.67999999999998,158.69098892760465L232.95999999999998,160.1068510469925L233.23999999999998,164.47723679341217L233.51999999999998,165.36623848274118L233.79999999999998,163.3879884398755L234.07999999999998,162.52366192711776L234.35999999999999,162.9439642794064L234.64,164.96114674502314L234.92,161.49071448078533L235.2,156.65967332847467L235.48,155.8511775877276L235.76,160.37622196678797L236.04,162.64006673165312L236.32,166.0649318735976L236.6,168.84774263800782L236.88,168.73533930839056L237.16,163.45740481239585L237.44,159.75691581002278L237.72,159.25291074977443L238,162.8029860184015L238.28,166.66645736033075L238.56,168.82951392037108L238.84,166.86403803084477L239.12,162.01833514982778L239.4,160.79489030553938L239.68,164.2170195770559L239.96,165.5693644118052L240.24,159.97765213873788L240.51999999999998,153.8866595316446L240.79999999999998,148.88814306895125L241.07999999999998,142.8208688514028L241.35999999999999,148.79777865725512L241.64,155.7859575663347L241.92,161.27932739180727L242.2,165.87802151720427L242.48,168.62717135314927L242.76,168.7980438119782L243.04,165.07990938377793L243.32,160.57170939092006L243.6,156.50165489591558L243.88,150.06861711634917L244.16,148.67752724779254L244.44,149.248961860927L244.72,145.4576257404909L245,148.16787295184088L245.28,153.61536665995388L245.56,158.22326607196663L245.84,157.23501527395067L246.12,146.9122405209044L246.4,146.5290398691833L246.68,149.24717162436863L246.96,151.86826424504034L247.24,157.7258216618147L247.52,162.98983980994404L247.8,164.50645548841675L248.08,163.20461237330562L248.36,159.3138479681951L248.64000000000001,158.58789096752918L248.92000000000002,161.00785404296406L249.20000000000002,161.7716174994644L249.48000000000002,162.18607341604945L249.76,163.9780364280031L250.04,167.06261364923793L250.32,165.73868568776737L250.6,160.94330629458517L250.88,159.45502935336688L251.16,162.89715091280132L251.44,165.4964467865836L251.72,167.8705381935765" style="fill: none;" fill="none"></path></g></g></g></g><g opacity="0.2"><g><g><g><path stroke="rgb(187, 187, 187)" stroke-width="2px" d="M36.120000000000005,-3.179339322176861L36.4,0.8560326316139879L36.68,1.1072075583718004L36.96,1.2865656072443272L37.24,4.683688077059654L37.52,5.50227772105824L37.800000000000004,9.473812450062146L38.080000000000005,10.25569568980824L38.36,13.096329428932886L38.64,15.652641989968043L38.92,18.80448219992898L39.2,21.43911812522195L39.48,26.59679759632457L39.76,29.708494013006046L40.04,38.93984777277167L40.32,37.91501478715376L40.599999999999994,46.07918201793324L40.879999999999995,45.34038890491832L41.16,47.91867620294745L41.44,46.48995000665839L41.72,41.844687028364696L42,56.23028287020597L42.28,40.939548839222304L42.56,57.02296933260831L42.839999999999996,43.30950580943715L43.12,58.28645532781427L43.4,57.73389504172586L43.68,59.48352605646308L43.96,22.20430547540839L44.24,-9.080845225941033L44.52,36.50973649458452L44.800000000000004,50.63580946488813L45.08,52.03691378506747L45.36,40.519696322354406L45.64,50.67509391091086L45.92,52.60089111328125L46.2,49.011765913529835L46.480000000000004,43.45363062078302L46.760000000000005,59.852431557395235L47.040000000000006,63.84053941206499L47.32,61.44848494096235L47.6,48.83793223987926L47.88,45.37574490633878L48.16,65.75541062788531L48.44,69.13436404141513L48.72,44.92716563831676L49,17.706359169699926L49.279999999999994,55.77470606023614L49.559999999999995,65.12133511629972L49.839999999999996,44.47748149525035L50.12,45.985513166947804L50.4,66.99471213600852L50.68,73.99434107000177L50.96,60.136875499378554L51.24,23.112758289683946L51.519999999999996,60.88033364035867L51.8,71.5558818470348L52.08,73.14714743874289L52.36,75.71389493075284L52.64,77.98576354980469L52.92,75.19251667369495L53.2,78.63493902033026L53.480000000000004,48.56343217329546L53.76,2.0555586381392117L54.04,56.25753645463423L54.32,57.15334458784624L54.6,23.28020824085582L54.88,59.609727339311085L55.160000000000004,53.11306207830255L55.440000000000005,71.49990151145242L55.720000000000006,60.39418862082742L56,34.32748551802202L56.28,68.1532350019975L56.56,58.79629377885298L56.84,74.03595803000711L57.12,68.28483789617364L57.4,55.96437627618964L57.68,80.83879644220526L57.959999999999994,69.55212957208808L58.239999999999995,34.1604038585316L58.519999999999996,72.30179526589133L58.8,75.22983689741656L59.08,49.649892633611515L59.36,80.31533119895242L59.64,89.75047302246094L59.92,93.11346712979405L60.199999999999996,94.69761241566052L60.48,97.69624328613281L60.76,99.55488863858311L61.04,100.27698586203836L61.32,102.7590262673118L61.6,99.15480110862039L61.88,105.13806776566938L62.160000000000004,107.00960332697088L62.44,101.58147499778055L62.72,98.57842462713069L63,110.08397951993076L63.28,94.68656366521662L63.56,101.56330594149502L63.84,112.21724770285867L64.12,116.31793004816228L64.4,118.23992156982422L64.68,99.19089369340375L64.96000000000001,113.4168964732777L65.24000000000001,107.63422601873225L65.52000000000001,117.63751914284445L65.8,112.00216536088422L66.08,118.95305702903055L66.36,121.92075139825994L66.64,100.05797507546164L66.92,73.67994273792614L67.2,105.06035822088069L67.48,88.46857244318183L67.75999999999999,45.15796175870028L68.03999999999999,86.90775229714133L68.32,99.864990234375L68.6,74.00526705655184L68.88,99.96172818270595L69.16,107.81481170654297L69.44,121.43325597589666L69.72,124.63211475719105L70,127.98160483620383L70.28,122.19328724254261L70.56,124.86671655828303L70.84,120.96613935990766L71.12,125.80684245716442L71.4,119.69491923939098L71.68,127.67260811545633L71.96000000000001,123.92229392311789L72.24000000000001,131.0256583473899L72.52,120.69863683527166L72.8,129.60589391534978L73.08,125.75921006636187L73.36,130.97201052579015L73.64,118.83913213556463L73.92,132.05527912486684L74.2,125.64909085360439L74.48,128.95021195845172L74.76,123.52859011563389L75.04,133.8051556673917L75.32000000000001,124.91545382412998L75.60000000000001,126.47160894220525L75.88000000000001,120.2818534157493L76.16000000000001,120.84546245228161L76.44000000000001,118.40528453480114L76.72,119.31042272394353L77,116.96600064364345L77.28,117.41237016157672L77.56,110.14585252241656L77.84,80.5155591097745L78.12,99.55218783291905L78.4,123.83365839177912L78.68,126.35031821511008L78.96,128.8625585382635L79.24,122.20212624289773L79.52,86.19609000466086L79.8,105.55436012961648L80.08,125.2572285045277L80.36,129.47269509055397L80.64,127.31561071222478L80.91999999999999,91.83046167547053L81.19999999999999,112.92412220348011L81.47999999999999,129.12625538219106L81.75999999999999,116.04036088423297L82.03999999999999,105.53299921209162L82.32,129.1767113425515L82.6,116.77473449707031L82.88,112.46658117120916L83.16,115.52168343283914L83.44,99.24110412597656L83.72,119.89170976118609L84,131.5307090065696L84.28,107.56891562721945L84.56,84.22180106423117L84.84,110.94418612393467L85.12,122.61940071799539L85.39999999999999,112.7687031139027L85.67999999999999,123.39097179066052L85.96,127.06652277166194L86.24,115.26412478360264L86.52,124.9068603515625L86.8,131.5265350341797L87.08,124.1453559181907L87.36,117.19765611128375L87.64,128.22921961004084L87.92,110.76593295010655L88.2,91.83451288396662L88.48,123.12531072443181L88.76,133.96020646528765L89.04,120.71005387739703L89.32000000000001,100.03072149103338L89.60000000000001,129.13055211847478L89.88,118.8809946233576L90.16,137.07644514604047L90.44,125.0307291204279L90.72,100.83507052334873L91,112.18790713223545L91.28,110.216196233576L91.56,130.63048137318003L91.84,124.59307583895595L92.12,121.51133381236683L92.4,130.93113014914772L92.68,133.84628157182172L92.96000000000001,115.07113994251598L93.24000000000001,103.5596923828125L93.52000000000001,131.19531804865056L93.80000000000001,126.22190718217328L94.08000000000001,139.83654577081853L94.36,131.5722032026811L94.64,118.04116682572797L94.92,140.17574240944603L95.2,144.13733326305044L95.48,135.6838115345348L95.76,118.36379033868963L96.04,135.19717545942828L96.32,131.91299577192828L96.6,123.50612432306463L96.88,132.1034025712447L97.16,139.8345815485174L97.44,138.99303505637428L97.72,135.7275154807351L98,117.40512709184125L98.28,141.16436004638672L98.55999999999999,147.36626919833097L98.83999999999999,141.27963534268466L99.11999999999999,122.42113702947444L99.39999999999999,77.12346995960583L99.67999999999999,123.70672052556819L99.96,133.9248504638672L100.24,134.5141171542081L100.52,104.97736982865766L100.8,122.53076518665661L101.08,121.57799460671164L101.36,137.84838451038706L101.64,128.3296404751864L101.92,89.49401924826883L102.2,136.17241183194247L102.48,138.1334422718395L102.75999999999999,122.51885708895595L103.03999999999999,146.8392438021573L103.32,144.5920507257635L103.6,135.05967989834872L103.88,85.55857710404828L104.16,107.4920654296875L104.44,113.31893088600852L104.72,131.61455674604937L105,141.77817951549184L105.28,139.36869257146662L105.56,118.78879893909802L105.84,136.62835693359375L106.12,144.63685954700816L106.4,132.3680815263228L106.68,57.567181673916906L106.96000000000001,94.11767578125L107.24000000000001,129.90678821910512L107.52,140.34626145796344L107.8,131.25031627308238L108.08,112.43478532270953L108.36,130.6536837491122L108.64,131.5399162986062L108.92,147.34122536399147L109.2,150.2798246903853L109.48,140.37793454256925L109.76,108.23012195933948L110.04,132.98472456498578L110.32000000000001,120.02687280828303L110.60000000000001,141.05890586159447L110.88000000000001,128.32141529430044L111.16000000000001,136.95024386319247L111.44000000000001,148.97901847145775L111.72,148.22905384410512L112,142.19348976828834L112.28,104.95907800847834L112.56,123.59488261829723L112.84,114.31430053710938L113.12,142.280161077326L113.4,140.81129108775747L113.68,135.75440077348188L113.96,133.17709558660334L114.24,142.41016804088247L114.52,153.4880135276101L114.8,148.33561290394175L115.08,139.0923510464755L115.36,100.87533708052203L115.64,145.88696427778765L115.91999999999999,141.47102425315163L116.19999999999999,132.6893546364524L116.47999999999999,146.56842665238813L116.75999999999999,153.3882064819336L117.03999999999999,148.943171414462L117.32,135.6090483231978L117.6,103.25916637073864L117.88,144.72046175870028L118.16,139.58794888583097L118.44,142.34866333007812L118.72,151.43343700062144L119,150.19499483975497L119.28,141.8253208507191L119.56,96.87667153098367L119.84,118.22801347212359L120.12,142.28752691095525L120.39999999999999,155.10186767578125L120.67999999999999,153.51526711203834L120.96,143.27884535356L121.24,98.42300553755328L121.52,141.35722212357953L121.8,141.91039622913706L122.08,148.0304218639027L122.36,153.26728404651988L122.64,152.91495167125356L122.92,148.6739501953125L123.2,134.46402948552912L123.48,152.651254827326L123.76,155.75546264648438L124.04,156.66403822465375L124.32000000000001,155.92168495871803L124.60000000000001,154.96707292036578L124.88,148.18989216197622L125.16,122.15019711581142L125.44,133.1920727816495L125.72,152.48626015403053L126,153.779577775435L126.28,149.30925334583628L126.56,125.63288601962002L126.84,139.10131281072444L127.12,156.9871527931907L127.4,155.06270599365234L127.68,151.32282673228872L127.96000000000001,130.48819802024147L128.24,101.34871465509588L128.52,139.46739474209872L128.8,150.87461575594816L129.08,146.692663712935L129.36,141.38828138871625L129.64000000000001,155.80911046808416L129.92000000000002,159.24465803666547L130.20000000000002,157.34500954367897L130.48000000000002,155.33315485174006L130.76000000000002,151.87686018510297L131.04000000000002,129.13411227139562L131.32,113.53217176957563L131.6,144.6868244517933L131.88,144.91418318314985L132.16,133.3590316772461L132.44,144.5132363059304L132.72,153.39299427379262L133,161.05395230379972L133.28,158.438344782049L133.56,153.96666994961825L133.84,139.76436060125178L134.12,118.11973571777344L134.4,142.76630609685725L134.68,135.30410281094638L134.96,151.53398062966087L135.24,160.5890454378995L135.51999999999998,158.06587912819603L135.79999999999998,153.08191056685015L136.07999999999998,135.95327828147194L136.35999999999999,141.79057866876775L136.64,155.6242280439897L136.92,155.08897746693003L137.2,143.22176014293325L137.48,78.84891648726031L137.76,110.99672907049006L138.04,139.65546902743253L138.32,157.12894509055397L138.6,160.6719110662287L138.88,155.14090659401634L139.16,141.8222517533736L139.44,155.35181496360084L139.72,159.51252885298297L140,159.63210088556463L140.28,157.1862758289684L140.56,151.00695523348722L140.84,126.91699634898792L141.12,143.7125701904297L141.4,159.89211481267756L141.68,156.62229850075462L141.96,149.10165960138494L142.24,111.58452259410511L142.52,131.75168401544744L142.8,138.709941517223L143.08,152.538066517223L143.36,160.0390631935813L143.64000000000001,157.54351875998756L143.92000000000002,148.51300673051313L144.20000000000002,138.06494001908735L144.48000000000002,146.2370869029652L144.76,160.1633002541282L145.04,154.4253158569336L145.32,143.54057797518644L145.6,151.98341924493963L145.88,157.50779446688566L146.16,162.73299407958984L146.44,159.8584775057706L146.72,153.78927612304688L147,137.16458962180397L147.28,142.50825639204547L147.56,160.41189713911578L147.84,158.029541015625L148.12,147.3102888627486L148.4,111.02778833562678L148.68,156.65151630748403L148.96,152.04480119185015L149.24,141.53645740855825L149.52,158.00670693137428L149.8,162.50084755637428L150.08,162.0938852483576L150.36,159.4355558915572L150.64000000000001,151.40262326327237L150.92000000000002,137.49421067671344L151.20000000000002,150.8608661998402L151.48000000000002,162.83501087535512L151.76000000000002,159.97915441339666L152.04000000000002,150.46004208651456L152.32000000000002,114.71991244229405L152.60000000000002,138.20759166370738L152.88000000000002,130.83942552046344L153.16000000000003,132.95415635542437L153.44,145.06714699485084L153.72,149.12793107466265L154,151.62838606400922L154.28,161.51898193359375L154.56,155.7719130082564L154.84,145.22379372336647L155.12,159.54420193758878L155.4,163.41470198197797L155.68,161.28818581321022L155.96,158.8822590221058L156.24,151.3899785822088L156.52,156.25854908336294L156.8,158.33755562522194L157.08,162.80677517977628L157.36,163.17690831964666L157.64,162.49986544522372L157.92,158.66275717995384L158.2,149.1259668523615L158.48,144.72733653675425L158.76,158.2556721080433L159.04,163.38278336958453L159.32,163.22945126620206L159.6,157.7953075062145L159.88,145.45827276056463L160.16,103.79638117009944L160.44,138.85541673140094L160.72,151.1661800037731L161,160.75244418057528L161.28,164.23599243164062L161.56,165.66226335005328L161.83999999999997,163.58927223899147L162.11999999999998,160.23266185413706L162.39999999999998,151.3396453857422L162.67999999999998,137.0560663396662L162.95999999999998,152.8749306418679L163.23999999999998,163.4154385653409L163.51999999999998,161.9339238947088L163.79999999999998,151.1469060724432L164.07999999999998,132.85263061523438L164.35999999999999,152.2652851451527L164.64,161.2868354103782L164.92,159.20586464621803L165.2,149.7135148481889L165.48,147.22312649813566L165.76,158.29188745672053L166.04,163.7843440662731L166.32,162.03753662109375L166.6,157.54634232954547L166.88,150.1024308638139L167.16,154.85646265203303L167.44,162.0244008844549L167.72,165.0084228515625L168,164.02238325639203L168.28,159.01742206920278L168.56,145.16805891557172L168.84,137.10959139737216L169.12,147.0669708251953L169.4,162.5488482388583L169.68,160.6748573996804L169.96,155.15256916392934L170.24,149.80129103227094L170.51999999999998,156.5013760653409L170.79999999999998,162.0377821488814L171.07999999999998,162.25200514359906L171.35999999999999,148.25090581720525L171.64,125.49268965287641L171.92,143.5754429210316L172.2,134.0795329700817L172.48,140.63095092773438L172.76,151.3385405106978L173.04,150.48766396262428L173.32,157.65425179221413L173.6,164.28092401677912L173.88,159.50504025545987L174.16,155.5855574174361L174.44,158.82271853360263L174.72,165.00240742076528L175,163.58337957208806L175.28,159.34876181862572L175.56,155.9114955555309L175.84,161.87843461470172L176.12,160.99527116255328L176.4,159.72441933371803L176.68,157.66112657026812L176.96,164.32266374067828L177.24,165.6175772927024L177.52,164.0687880082564L177.8,155.36630110307172L178.08,153.53048983487216L178.36,162.79032481800425L178.64000000000001,165.56098313765094L178.92000000000002,163.92024369673297L179.20000000000002,157.83311878551137L179.48000000000002,143.8655340021307L179.76,148.40853465687144L180.04,152.4281928322532L180.32,162.57143679532138L180.6,165.86580588600853L180.88,162.0547235662287L181.16,150.07628215443003L181.44,114.26642261851917L181.72,159.12238519841975L182,151.76465398615056L182.28,145.91372680664062L182.56,154.34441445090553L182.84,164.14907559481534L183.12,165.6916039206765L183.4,161.29825245250356L183.68,157.13115484064275L183.96,164.6364482532848L184.24,161.8187713623047L184.52,163.51880576393822L184.8,160.17938232421875L185.08,163.48639609596947L185.36,156.62954157049006L185.64000000000001,153.59825550426137L185.92000000000002,143.9988555908203L186.20000000000002,153.8594970703125L186.48000000000002,165.19919794256037L186.76000000000002,166.68918332186612L187.04000000000002,163.1502685546875L187.32000000000002,155.23789007013494L187.60000000000002,140.49112285267222L187.88000000000002,156.70184950395063L188.16000000000003,165.45012734153053L188.44,163.6297843239524L188.72,149.17973743785512L189,118.69856747713955L189.28,127.49165413596414L189.56,149.66661904074928L189.84,151.1768604625355L190.12,160.86833329634234L190.4,167.77367955988103L190.68,166.08604431152344L190.96,160.63999245383522L191.24,152.30334195223722L191.52,152.14423994584516L191.8,160.12585726651278L192.08,161.57496226917613L192.36,154.47577181729403L192.64,147.4208991310813L192.92,146.3479426990856L193.2,163.33024042302912L193.48,158.49285195090553L193.76,154.43157681551847L194.04,162.01396595348012L194.32,165.8294677734375L194.6,159.0403789173473L194.88,155.12101884321734L195.16,160.1410799893466L195.44,165.43760542436078L195.72,167.01904990456322L196,164.48495760830966L196.28,155.03999467329547L196.56,147.48179002241656L196.83999999999997,157.10905733975497L197.11999999999998,162.67996007745916L197.39999999999998,161.98045141046697L197.67999999999998,161.50449579412287L197.95999999999998,163.53046833385122L198.23999999999998,167.51747131347656L198.51999999999998,169.524169921875L198.79999999999998,168.0053350275213L199.07999999999998,162.14618266712534L199.35999999999999,153.88404984907672L199.64,160.6204729947177L199.92,164.61668326637962L200.2,168.5553172718395L200.48,166.26233326305044L200.76,154.6141267256303L201.04,142.44257770885122L201.32,155.5155819979581L201.6,160.78215304287997L201.88,160.56780728426847L202.16,157.1144589510831L202.44,162.83636127818716L202.72,167.44565443559125L203,168.7505118630149L203.28,165.62666182084516L203.56,162.5317840576172L203.84,153.84304670854047L204.12,161.75788047096947L204.4,166.57943240079013L204.68,168.02657318115234L204.96,162.82052473588422L205.24,154.5013067072088L205.51999999999998,112.26217928799717L205.79999999999998,131.0367070978338L206.07999999999998,153.04360823197797L206.35999999999999,151.82075708562678L206.64,148.432841907848L206.92,160.4634579745206L207.2,168.52180272882634L207.48,163.78176602450284L207.76,156.0942909934304L208.04,156.49572892622515L208.32,163.03106481378728L208.6,158.03273287686434L208.88,155.33143615722656L209.16,158.25174366344106L209.44,165.47468012029475L209.72,160.86391379616478L210,155.89995574951172L210.28,162.5417279330167L210.56,166.55794871937144L210.84,157.04006403142756L211.12,154.61719582297584L211.4,157.1102849786932L211.68,165.30526594682172L211.96,156.24897349964488L212.24,153.02052861993963L212.52,140.65476712313566L212.8,136.32979514382103L213.08,148.0946273803711L213.36,163.74027182839134L213.64000000000001,160.57247231223366L213.92000000000002,159.3323114568537L214.20000000000002,166.37834514271128L214.48000000000002,160.2275057705966L214.76,159.42708518288353L215.04,156.7149852405895L215.32,164.25661676580256L215.6,155.23371609774503L215.88,156.320913141424L216.16,155.687819740989L216.44,166.70207353071734L216.72,155.7905731201172L217,157.3496745716442L217.28,158.22596324573863L217.56,164.10488059303978L217.84,150.54536299272016L218.12,150.08033336292613L218.4,161.39499040083453L218.68,168.55691320245916L218.96,170.7848323475231L219.24,169.6578598022461L219.52,166.62522333318537L219.8,168.09740794788706L220.08,165.8410075794567L220.36,160.76680755615234L220.64000000000001,161.80551286177203L220.92000000000002,163.85616094415838L221.20000000000002,168.26080669056284L221.48000000000002,171.34451293945312L221.76000000000002,169.96231425892222L222.04000000000002,161.88334517045453L222.32000000000002,158.02831337668678L222.60000000000002,161.79102672230113L222.88000000000002,166.1966545798562L223.16000000000003,160.7875546542081L223.44,156.16303877397016L223.72,152.76444313742897L224,157.59593894264916L224.28,165.91282445734197L224.56,159.12827786532316L224.84,157.31161776455966L225.12,160.48432783647016L225.4,168.17143457586116L225.68,162.21075647527522L225.96,158.98341647061434L226.24,163.82546997070312L226.52,168.36343730579722L226.8,159.66426502574575L227.08,156.9066196788441L227.36,156.1107413552024L227.64,166.4566685069691L227.92,158.71812369606712L228.2,156.31772128018466L228.48,143.7902797352184L228.76,144.94561073996803L229.04,153.81247849897906L229.32,161.05898562344638L229.6,169.85501861572266L229.88,165.8079840920188L230.16,161.3084418556907L230.44,155.49090645530006L230.72,162.86656119606712L231,147.90986772017047L231.28,128.15445639870384L231.56,137.28956326571378L231.83999999999997,158.73125943270597L232.11999999999998,164.5528460415927L232.39999999999998,162.10346083207563L232.67999999999998,160.0215079567649L232.95999999999998,162.23064422607422L233.23999999999998,171.03281541304156L233.51999999999998,166.69974101673472L233.79999999999998,160.42061337557706L234.07999999999998,161.2271721579812L234.35999999999999,163.57441780783913L234.64,167.98692044344816L234.92,156.28506608442828L235.2,149.41311160000888L235.48,154.63843397660688L235.76,167.1637885353782L236.04,166.03583387895063L236.32,171.20222958651456L236.6,173.0219587846236L236.88,168.56673431396484L237.16,155.54050306840375L237.44,154.20618230646306L237.72,158.49690315940163L238,168.12809892134234L238.28,172.46166437322444L238.56,172.07409876043147L238.84,163.9158241965554L239.12,154.74978082830256L239.4,158.95972303910688L239.68,169.35021348433062L239.96,167.59788166392934L240.24,151.59008372913706L240.51999999999998,144.75017062100497L240.79999999999998,141.39036837491122L241.07999999999998,133.7199575250799L241.35999999999999,157.76314336603338L241.64,166.26822592995384L241.92,169.51938213001597L242.2,172.77606270530006L242.48,172.75089610706675L242.76,169.05435250022194L243.04,159.50270774147728L243.32,153.80940940163353L243.6,150.3965731534091L243.88,140.41906044699928L244.16,146.59089244495738L244.44,150.10611378062856L244.72,139.77062155983666L245,152.2332437688654L245.28,161.7866072221236L245.56,165.13511518998578L245.84,155.7526390769265L246.12,131.42807839133522L246.4,145.95423889160156L246.68,153.32436925714666L246.96,155.7999031760476L247.24,166.51215778697622L247.52,170.88586703213778L247.8,166.78137900612572L248.08,161.25184770063922L248.36,153.47770136052912L248.64000000000001,157.49895546653053L248.92000000000002,164.63779865611684L249.20000000000002,162.9172626842152L249.48000000000002,162.80775729092684L249.76,166.66598094593394L250.04,171.6894794810902L250.32,163.7527937455611L250.6,153.75023720481178L250.88,157.2226139415394L251.16,168.06033325195312L251.44,169.39539059725675L251.72,171.43167530406606" style="fill: none;" fill="none"></path></g></g></g></g></g></g><g transform="translate(50, 177)" clip-path="url(#clip_1)"><clipPath id="clip_1"><rect width="280" height="23"></rect></clipPath><g><g><line x1="0" y1="0" x2="0" y2="5" style="visibility: inherit;" fill="rgb(0, 0, 0)" stroke="rgb(204, 204, 204)" stroke-width="1px"></line><line x1="28" y1="0" x2="28" y2="5" style="visibility: inherit;" fill="rgb(0, 0, 0)" stroke="rgb(204, 204, 204)" stroke-width="1px"></line><line x1="56" y1="0" x2="56" y2="5" style="visibility: inherit;" fill="rgb(0, 0, 0)" stroke="rgb(204, 204, 204)" stroke-width="1px"></line><line x1="84" y1="0" x2="84" y2="5" style="visibility: inherit;" fill="rgb(0, 0, 0)" stroke="rgb(204, 204, 204)" stroke-width="1px"></line><line x1="112" y1="0" x2="112" y2="5" style="visibility: inherit;" fill="rgb(0, 0, 0)" stroke="rgb(204, 204, 204)" stroke-width="1px"></line><line x1="140" y1="0" x2="140" y2="5" style="visibility: inherit;" fill="rgb(0, 0, 0)" stroke="rgb(204, 204, 204)" stroke-width="1px"></line><line x1="168" y1="0" x2="168" y2="5" style="visibility: inherit;" fill="rgb(0, 0, 0)" stroke="rgb(204, 204, 204)" stroke-width="1px"></line><line x1="196" y1="0" x2="196" y2="5" style="visibility: inherit;" fill="rgb(0, 0, 0)" stroke="rgb(204, 204, 204)" stroke-width="1px"></line><line x1="224" y1="0" x2="224" y2="5" style="visibility: inherit;" fill="rgb(0, 0, 0)" stroke="rgb(204, 204, 204)" stroke-width="1px"></line><line x1="252" y1="0" x2="252" y2="5" style="visibility: inherit;" fill="rgb(0, 0, 0)" stroke="rgb(204, 204, 204)" stroke-width="1px"></line><line x1="280" y1="0" x2="280" y2="5" style="visibility: inherit;" fill="rgb(0, 0, 0)" stroke="rgb(204, 204, 204)" stroke-width="1px"></line></g><g transform="translate(0, 8)"><text x="0" y="0" dx="0em" dy="0.95em" style="text-anchor: middle; visibility: hidden; font-family: Roboto, sans-serif; font-size: 12px; font-weight: 200;" fill="rgb(33, 33, 33)" stroke="none" stroke-width="1px">-100</text><text x="28" y="0" dx="0em" dy="0.95em" style="text-anchor: middle; visibility: inherit; font-family: Roboto, sans-serif; font-size: 12px; font-weight: 200;" fill="rgb(33, 33, 33)" stroke="none" stroke-width="1px">0</text><text x="56" y="0" dx="0em" dy="0.95em" style="text-anchor: middle; visibility: inherit; font-family: Roboto, sans-serif; font-size: 12px; font-weight: 200;" fill="rgb(33, 33, 33)" stroke="none" stroke-width="1px">100</text><text x="84" y="0" dx="0em" dy="0.95em" style="text-anchor: middle; visibility: inherit; font-family: Roboto, sans-serif; font-size: 12px; font-weight: 200;" fill="rgb(33, 33, 33)" stroke="none" stroke-width="1px">200</text><text x="112" y="0" dx="0em" dy="0.95em" style="text-anchor: middle; visibility: inherit; font-family: Roboto, sans-serif; font-size: 12px; font-weight: 200;" fill="rgb(33, 33, 33)" stroke="none" stroke-width="1px">300</text><text x="140" y="0" dx="0em" dy="0.95em" style="text-anchor: middle; visibility: inherit; font-family: Roboto, sans-serif; font-size: 12px; font-weight: 200;" fill="rgb(33, 33, 33)" stroke="none" stroke-width="1px">400</text><text x="168" y="0" dx="0em" dy="0.95em" style="text-anchor: middle; visibility: inherit; font-family: Roboto, sans-serif; font-size: 12px; font-weight: 200;" fill="rgb(33, 33, 33)" stroke="none" stroke-width="1px">500</text><text x="196" y="0" dx="0em" dy="0.95em" style="text-anchor: middle; visibility: inherit; font-family: Roboto, sans-serif; font-size: 12px; font-weight: 200;" fill="rgb(33, 33, 33)" stroke="none" stroke-width="1px">600</text><text x="224" y="0" dx="0em" dy="0.95em" style="text-anchor: middle; visibility: inherit; font-family: Roboto, sans-serif; font-size: 12px; font-weight: 200;" fill="rgb(33, 33, 33)" stroke="none" stroke-width="1px">700</text><text x="252" y="0" dx="0em" dy="0.95em" style="text-anchor: middle; visibility: inherit; font-family: Roboto, sans-serif; font-size: 12px; font-weight: 200;" fill="rgb(33, 33, 33)" stroke="none" stroke-width="1px">800</text><text x="280" y="0" dx="0em" dy="0.95em" style="text-anchor: middle; visibility: hidden; font-family: Roboto, sans-serif; font-size: 12px; font-weight: 200;" fill="rgb(33, 33, 33)" stroke="none" stroke-width="1px">900</text></g><line x1="0" y1="0" x2="280" y2="0" fill="rgb(0, 0, 0)" stroke="rgb(204, 204, 204)" stroke-width="1px"></line></g></g></g></g></svg>