<svg viewBox="0 0 330 200" xmlns="http://www.w3.org/2000/svg"><g><g><g><g><g><line x1="51.5625" y1="177" x2="46.5625" y2="177" style="visibility: inherit;" fill="rgb(0, 0, 0)" stroke="rgb(204, 204, 204)" stroke-width="1px"></line><line x1="51.5625" y1="151.71428571428538" x2="46.5625" y2="151.71428571428538" style="visibility: inherit;" fill="rgb(0, 0, 0)" stroke="rgb(204, 204, 204)" stroke-width="1px"></line><line x1="51.5625" y1="126.42857142857123" x2="46.5625" y2="126.42857142857123" style="visibility: inherit;" fill="rgb(0, 0, 0)" stroke="rgb(204, 204, 204)" stroke-width="1px"></line><line x1="51.5625" y1="101.14285714285708" x2="46.5625" y2="101.14285714285708" style="visibility: inherit;" fill="rgb(0, 0, 0)" stroke="rgb(204, 204, 204)" stroke-width="1px"></line><line x1="51.5625" y1="75.85714285714292" x2="46.5625" y2="75.85714285714292" style="visibility: inherit;" fill="rgb(0, 0, 0)" stroke="rgb(204, 204, 204)" stroke-width="1px"></line><line x1="51.5625" y1="50.57142857142877" x2="46.5625" y2="50.57142857142877" style="visibility: inherit;" fill="rgb(0, 0, 0)" stroke="rgb(204, 204, 204)" stroke-width="1px"></line><line x1="51.5625" y1="25.285714285714157" x2="46.5625" y2="25.285714285714157" style="visibility: inherit;" fill="rgb(0, 0, 0)" stroke="rgb(204, 204, 204)" stroke-width="1px"></line><line x1="51.5625" y1="0" x2="46.5625" y2="0" style="visibility: inherit;" fill="rgb(0, 0, 0)" stroke="rgb(204, 204, 204)" stroke-width="1px"></line></g><g transform="translate(41.5625, 0)"><text x="0" y="177" dx="0em" dy="0.3em" style="text-anchor: end; visibility: hidden; font-family: Roboto, sans-serif; font-size: 12px; font-weight: 200;" fill="rgb(33, 33, 33)" stroke="none" stroke-width="1px">5.35</text><text x="0" y="151.71428571428538" dx="0em" dy="0.3em" style="text-anchor: end; visibility: inherit; font-family: Roboto, sans-serif; font-size: 12px; font-weight: 200;" fill="rgb(33, 33, 33)" stroke="none" stroke-width="1px">5.4</text><text x="0" y="126.42857142857123" dx="0em" dy="0.3em" style="text-anchor: end; visibility: inherit; font-family: Roboto, sans-serif; font-size: 12px; font-weight: 200;" fill="rgb(33, 33, 33)" stroke="none" stroke-width="1px">5.45</text><text x="0" y="101.14285714285708" dx="0em" dy="0.3em" style="text-anchor: end; visibility: inherit; font-family: Roboto, sans-serif; font-size: 12px; font-weight: 200;" fill="rgb(33, 33, 33)" stroke="none" stroke-width="1px">5.5</text><text x="0" y="75.85714285714292" dx="0em" dy="0.3em" style="text-anchor: end; visibility: inherit; font-family: Roboto, sans-serif; font-size: 12px; font-weight: 200;" fill="rgb(33, 33, 33)" stroke="none" stroke-width="1px">5.55</text><text x="0" y="50.57142857142877" dx="0em" dy="0.3em" style="text-anchor: end; visibility: inherit; font-family: Roboto, sans-serif; font-size: 12px; font-weight: 200;" fill="rgb(33, 33, 33)" stroke="none" stroke-width="1px">5.6</text><text x="0" y="25.285714285714157" dx="0em" dy="0.3em" style="text-anchor: end; visibility: inherit; font-family: Roboto, sans-serif; font-size: 12px; font-weight: 200;" fill="rgb(33, 33, 33)" stroke="none" stroke-width="1px">5.65</text><text x="0" y="0" dx="0em" dy="0.3em" style="text-anchor: end; visibility: hidden; font-family: Roboto, sans-serif; font-size: 12px; font-weight: 200;" fill="rgb(33, 33, 33)" stroke="none" stroke-width="1px">5.7</text></g><line x1="51.5625" y1="0" x2="51.5625" y2="177" fill="rgb(0, 0, 0)" stroke="rgb(204, 204, 204)" stroke-width="1px"></line></g></g><g transform="translate(51, 0)" clip-path="url(#clip_0)"><clipPath id="clip_0"><rect width="278" height="177"></rect></clipPath><g><g><g><line x1="0" y1="0" x2="0" y2="177" fill="rgb(0, 0, 0)" stroke="rgb(66, 66, 66)" stroke-width="1px" opacity="0.25"></line><line x1="27.84375" y1="0" x2="27.84375" y2="177" fill="rgb(0, 0, 0)" stroke="rgb(66, 66, 66)" stroke-width="1px" opacity="0.25"></line><line x1="55.6875" y1="0" x2="55.6875" y2="177" fill="rgb(0, 0, 0)" stroke="rgb(66, 66, 66)" stroke-width="1px" opacity="0.25"></line><line x1="83.53125" y1="0" x2="83.53125" y2="177" fill="rgb(0, 0, 0)" stroke="rgb(66, 66, 66)" stroke-width="1px" opacity="0.25"></line><line x1="111.375" y1="0" x2="111.375" y2="177" fill="rgb(0, 0, 0)" stroke="rgb(66, 66, 66)" stroke-width="1px" opacity="0.25"></line><line x1="139.21875" y1="0" x2="139.21875" y2="177" fill="rgb(0, 0, 0)" stroke="rgb(66, 66, 66)" stroke-width="1px" opacity="0.25"></line><line x1="167.0625" y1="0" x2="167.0625" y2="177" fill="rgb(0, 0, 0)" stroke="rgb(66, 66, 66)" stroke-width="1px" opacity="0.25"></line><line x1="194.90625" y1="0" x2="194.90625" y2="177" fill="rgb(0, 0, 0)" stroke="rgb(66, 66, 66)" stroke-width="1px" opacity="0.25"></line><line x1="222.75" y1="0" x2="222.75" y2="177" fill="rgb(0, 0, 0)" stroke="rgb(66, 66, 66)" stroke-width="1px" opacity="0.25"></line><line x1="250.59375" y1="0" x2="250.59375" y2="177" fill="rgb(0, 0, 0)" stroke="rgb(66, 66, 66)" stroke-width="1px" opacity="0.25"></line><line x1="278.4375" y1="0" x2="278.4375" y2="177" fill="rgb(0, 0, 0)" stroke="rgb(66, 66, 66)" stroke-width="1px" opacity="0.25"></line></g><g><line x1="0" y1="177" x2="278.4375" y2="177" fill="rgb(0, 0, 0)" stroke="rgb(66, 66, 66)" stroke-width="1px" opacity="0.25"></line><line x1="0" y1="151.71428571428538" x2="278.4375" y2="151.71428571428538" fill="rgb(0, 0, 0)" stroke="rgb(66, 66, 66)" stroke-width="1px" opacity="0.25"></line><line x1="0" y1="126.42857142857123" x2="278.4375" y2="126.42857142857123" fill="rgb(0, 0, 0)" stroke="rgb(66, 66, 66)" stroke-width="1px" opacity="0.25"></line><line x1="0" y1="101.14285714285708" x2="278.4375" y2="101.14285714285708" fill="rgb(0, 0, 0)" stroke="rgb(66, 66, 66)" stroke-width="1px" opacity="0.25"></line><line x1="0" y1="75.85714285714292" x2="278.4375" y2="75.85714285714292" fill="rgb(0, 0, 0)" stroke="rgb(66, 66, 66)" stroke-width="1px" opacity="0.25"></line><line x1="0" y1="50.57142857142877" x2="278.4375" y2="50.57142857142877" fill="rgb(0, 0, 0)" stroke="rgb(66, 66, 66)" stroke-width="1px" opacity="0.25"></line><line x1="0" y1="25.285714285714157" x2="278.4375" y2="25.285714285714157" fill="rgb(0, 0, 0)" stroke="rgb(66, 66, 66)" stroke-width="1px" opacity="0.25"></line><line x1="0" y1="0" x2="278.4375" y2="0" fill="rgb(0, 0, 0)" stroke="rgb(66, 66, 66)" stroke-width="1px" opacity="0.25"></line></g></g></g><g><g><line x1="0" y1="2882.571428571425" x2="278.4375" y2="2882.571428571425" fill="rgb(0, 0, 0)" stroke="rgb(153, 153, 153)" stroke-width="1.5px"></line></g></g><g><g><line x1="27.84375" y1="0" x2="27.84375" y2="177" fill="rgb(0, 0, 0)" stroke="rgb(153, 153, 153)" stroke-width="1.5px"></line></g></g><g><g><g><g><g><path stroke="rgb(187, 187, 187)" stroke-width="2px" d="M32.29875,-11.495707297935466L32.5771875,0.29895127294311763L32.855624999999996,4.3453592832984L33.1340625,1.3933269906335413L33.4125,-5.331402476626842L33.6909375,10.258938179634818L33.969375,15.480070736101675L34.2478125,11.878329504701671L34.52625,12.518424955108493L34.8046875,9.313297125332044L35.083125,4.7757449105295295L35.3615625,10.119659909904833L35.64,4.506426206288633L35.9184375,-5.608994848838636L36.196875,2.4120518823920376L36.4753125,3.460816875744482L36.753750000000004,-4.444470487642462L38.424375000000005,-1.5498314750143294L38.7028125,0.9450775761946003L38.98125,1.9969688139292865L39.2596875,16.047924620488832L39.538124999999994,23.901200889237217L39.816562499999996,39.024868943144895L40.095,48.840923215400394L40.373437499999994,53.543455231326305L40.651875,42.54119002070859L40.9303125,32.482606729833094L41.208749999999995,51.620991149101954L41.4871875,41.69926879652374L41.765625,51.289468439128456L42.044062499999995,50.201000617393966L42.3225,58.09162927059659L42.6009375,57.39275712517104L42.879374999999996,69.33318867278055L43.1578125,72.22863133459843L43.43625,74.72212251762666L43.714687500000004,20.972369252930413L43.993125,7.26933561861624L44.2715625,3.730230172788538L44.550000000000004,14.592433452794774L44.8284375,50.814759431680166L45.106875,47.112256646905706L45.385312500000005,65.74483299640957L45.66375,75.27968461404252L45.9421875,77.22332594874035L46.220625000000005,76.55325227003323L46.4990625,88.70300947184822L46.7775,92.65399279074015L47.055937500000006,91.87293548680437L47.334375,76.89653765055101L47.612812500000004,72.83118103933981L47.89125,84.75041455622106L48.169687499999995,87.03606743316098L48.448125,77.83949596788355L48.7265625,53.021113526601056L49.004999999999995,32.71111041158044L49.2834375,38.16995423261355L49.561875,38.4275924823694L49.840312499999996,58.77185525923189L50.11875,74.33879391551399L50.3971875,88.66763454284195L50.675625,79.85786058497544L50.9540625,24.937457832221195L51.2325,4.5597815230631475L51.5109375,4.589335383738974L51.789375,34.291622753855336L52.0678125,60.714386014548026L52.34625,75.67243752129194L52.6246875,79.18517834180678L52.903125,86.63115814382557L53.1815625,74.60251440097866L53.46,57.76091071403867L53.7384375,67.98896394376916L54.016875,75.79884853314913L54.2953125,67.77835675346927L54.573750000000004,52.86543433144803L54.8521875,66.33070251083885L55.130625,77.5992255356959L55.409062500000005,79.7872001599361L55.6875,62.85093043444504L55.9659375,38.03835890240814L56.244375000000005,48.52343833687595L56.5228125,68.35507165167903L56.801249999999996,76.19946713738689L57.0796875,76.4294225832833L57.358124999999994,80.54934797310074L57.6365625,79.16243065711639L57.915,54.632929084315705L58.193437499999995,22.84333908075166L58.471875,45.61934050202277L58.7503125,47.83063161880592L59.028749999999995,16.92811355554682L59.3071875,55.37061205161053L59.585625,81.84481726933105L59.864062499999996,95.65406061916713L60.1425,106.57790793347728L60.4209375,113.2923355150041L60.699374999999996,118.5590220888576L60.9778125,123.52162889924067L61.25625,126.65564679929604L61.534687500000004,129.69508899859255L61.813125,131.4228757170966L62.0915625,131.88813443555944L62.370000000000005,126.17044006162199L62.6484375,130.09710743820062L62.926875,125.4298556494436L63.205312500000005,124.66764827910531L63.48375,124.90317696707912L63.7621875,125.89380110386648L64.040625,127.1073352844252L64.3190625,125.38341362182688L64.5975,120.6730712007886L64.8759375,123.7753270954732L65.154375,122.97310750344738L65.4328125,124.38465468935905L65.71124999999999,122.14436921219249L65.9896875,125.66145520651466L66.268125,114.26111938332545L66.5465625,99.89955994437827L66.825,94.10573785871696L67.1034375,64.10705069950058L67.381875,67.45732134900436L67.6603125,47.65963548954354L67.93875,61.27942670562605L68.2171875,58.945070944727554L68.495625,62.89986574798879L68.7740625,77.2967294463522L69.0525,91.54818286608844L69.3309375,98.29134781256589L69.609375,110.54316250398051L69.8878125,117.55423917719322L70.16625,117.50682688818635L70.4446875,119.92029366447568L70.723125,114.62600530460735L71.0015625,116.40685754241821L71.28,113.24060206120015L71.5584375,114.41706642383632L71.836875,114.00635481401837L72.1153125,112.9941529850211L72.39375,107.62473275780916L72.6721875,106.73271842142672L72.950625,107.80304232953674L73.2290625,102.88205929315988L73.50750000000001,97.1584428600062L73.7859375,90.92334461179036L74.064375,90.31136193936808L74.34281250000001,80.56244157506764L74.62125,71.69638588707473L74.8996875,68.63385435067413L75.17812500000001,60.45484372961505L75.4565625,42.63556067851264L75.735,27.755330634925777L76.01343750000001,14.368934116167479L76.291875,26.781423423104503L76.5703125,47.70053565961029L76.84875000000001,60.634842204394786L77.1271875,74.54217045063648L77.405625,53.09108639775355L77.68406250000001,57.3555045869782L77.9625,84.34458250682592L78.2409375,102.35808290427678L78.519375,113.64210368369352L78.79781249999999,114.36386895198541L79.07624999999999,89.38475824776091L79.3546875,93.53626179156937L79.63312499999999,107.74788884112472L79.91156249999999,118.24413822933978L80.19,120.43048998280508L80.4684375,101.84913108685136L80.74687499999999,98.12048993925488L81.0253125,105.49161431528968L81.30375,105.32822446598742L81.58218749999999,89.96407945498315L81.860625,94.60622357369448L82.1390625,94.04067833192592L82.41749999999999,84.0023722178357L82.6959375,86.43889063329645L82.974375,72.92222992702709L83.25281249999999,88.7995354659822L83.53125,108.31050795735835L83.8096875,109.56188689721752L84.08812499999999,105.76600438302906L84.3665625,109.70302870752397L84.645,109.47324152348207L84.92343749999999,111.78779721337047L85.201875,110.44524444217508L85.4803125,106.54883361162896L85.75874999999999,93.99769757995885L86.0371875,90.90636881391436L86.315625,97.30070016844059L86.59406249999999,103.45767687596657L86.8725,99.92363882734489L87.1509375,104.03937627649182L87.42937500000001,99.1047529326433L87.7078125,92.10772131873756L87.98625,98.27529094641132L88.26468750000001,114.34465454831586L88.543125,109.54410025026469L88.8215625,90.62011391079646L89.10000000000001,99.08153326434159L89.3784375,107.89408139659356L89.656875,115.81778951875948L89.93531250000001,111.72388566455524L90.21375,96.49552982402628L90.4921875,103.9533273505052L90.77062500000001,106.83771361698547L91.0490625,118.62112988789492L91.3275,124.92858787972368L91.60593750000001,119.43174401026965L91.884375,111.68521784519636L92.1628125,112.28467817939028L92.44125000000001,100.79784907856721L92.7196875,89.52784209397329L92.998125,100.92865953669207L93.27656250000001,112.70824836047782L93.555,120.32503686331526L93.8334375,117.90214535668899L94.11187500000001,108.9514562160011L94.39031250000001,113.05112842058853L94.66875,121.55658876499974L94.94718750000001,128.388862883372L95.22562500000001,121.2931949621664L95.5040625,116.31602949996984L95.7825,109.45677490038643L96.0609375,101.71867008636765L96.33937499999999,101.7492620275807L96.6178125,109.88382758485194L96.89625,118.3070593770136L97.17468749999999,121.62428395297307L97.453125,106.46797519617661L97.7315625,109.98029683645629L98.00999999999999,120.61066083764419L98.2884375,128.5801360612151L98.566875,126.0465925968992L98.84531249999999,112.43129418118656L99.12375,113.06645222456673L99.4021875,116.78082352677413L99.68062499999999,122.43541829296177L99.9590625,106.33086614911662L100.2375,107.49759391693924L100.51593749999999,113.27823186111488L100.794375,123.908379589953L101.0728125,127.25770758970016L101.35125,110.60579828167312L101.6296875,112.16252605762715L101.908125,121.1037763157286L102.1865625,115.1073945300201L102.465,117.07968776868854L102.7434375,123.79441016923457L103.021875,126.27626070812569L103.3003125,105.84505351785828L103.57875,102.88076606718799L103.8571875,110.22088517742232L104.135625,119.68906372102487L104.4140625,126.80323053869755L104.6925,130.91604847423716L104.9709375,117.41117453829489L105.249375,119.62397741061622L105.5278125,127.67627940814414L105.80625,131.32895184898774L106.0846875,117.90218198760122L106.363125,107.17695241591443L106.6415625,111.81010211361148L106.92,120.84351453267568L107.1984375,122.56731651815447L107.476875,111.22110454537936L107.7553125,114.97478145368581L108.03375,119.84831241033226L108.31218750000001,124.18852126839501L108.590625,130.06062143674862L108.8690625,133.20721560496924L109.14750000000001,114.55901749513153L109.4259375,116.1507933182983L109.704375,116.92972769996331L109.98281250000001,124.1462087687642L110.26125,126.3366734947265L110.5396875,123.76815835883338L110.81812500000001,123.29039505017685L111.0965625,126.24103848274297L111.375,127.79063367924498L111.65343750000001,112.50485004746066L111.931875,114.23296341243964L112.2103125,117.45680881790162L112.48875000000001,125.04100859570742L112.7671875,130.09368540121628L113.045625,127.73390463498158L113.3240625,117.73728720847899L113.60249999999999,119.89430299786899L113.88093749999999,126.30190925233454L114.159375,133.01771879794765L114.43781249999999,134.17846662335586L114.71624999999999,116.28305141392039L114.9946875,118.86704393952138L115.273125,127.61875192872385L115.55156249999999,128.10729176305176L115.83,127.39870613431681L116.1084375,132.74932412701853L116.38687499999999,136.484422880229L116.6653125,135.9248431158672L116.94375,118.80850737970452L117.22218749999999,121.88415838290071L117.500625,128.50920335144832L117.7790625,130.19549044697376L118.05749999999999,130.05864863830166L118.3359375,132.44257203907733L118.614375,131.00650315386665L118.89281249999999,110.57974330554532L119.17125,109.53251318913743L119.4496875,121.17229547626144L119.72812499999999,129.2694755262008L120.0065625,135.6805538983097L120.285,137.7693622636509L120.56343749999999,122.1960492516757L120.841875,122.45207517740012L121.1203125,127.36451031291334L121.39874999999999,131.04890551112962L121.6771875,132.67944815635695L121.955625,135.52885332461733L122.23406250000001,135.3299913945332L122.5125,129.31857730829492L122.7909375,130.183394920133L123.06937500000001,133.34946086739745L123.3478125,135.93597319053487L123.62625,138.6441147806715L123.90468750000001,139.7431142890222L124.183125,138.55796018282305L124.4615625,123.93308859661448L124.74000000000001,121.00049058298296L125.0184375,127.15274905298448L125.296875,132.45609928704977L125.57531250000001,137.1474739643193L125.85375,130.91749351642636L126.1321875,130.54123664068723L126.41062500000001,136.0215132246465L126.6890625,138.34973567613866L126.9675,139.6476074535694L127.24593750000001,133.39584400443792L127.524375,117.05199015423203L127.8028125,120.77275946991091L128.08125,128.53377025365398L128.3596875,133.0119306353817L128.638125,130.90952676327382L128.9165625,134.31777743317386L129.195,136.9742674033335L129.47343750000002,139.684944527519L129.751875,141.17293451174686L130.0303125,140.48199535234653L130.30875,130.71473475674802L130.5871875,111.50410308723761L130.865625,116.19451878070505L131.1440625,125.30887969493646L131.42249999999999,127.88638023744174L131.70093749999998,129.78224906706043L131.979375,133.3715231637296L132.2578125,137.50921521136559L132.53625,141.10263322663778L132.8146875,141.98033484059354L133.093125,138.6510734367919L133.37156249999998,124.19923356141264L133.65,122.0651403740129L133.9284375,121.40355478802412L134.206875,123.01880011350202L134.4853125,131.03193785269903L134.76375,137.13254183585244L135.04218749999998,140.04613145963063L135.320625,135.0338792847138L135.5990625,133.3895667240093L135.8775,134.84952328984602L136.1559375,137.87813580095155L136.434375,138.64507573367504L136.71281249999998,122.54467102003926L136.99125,115.83997770444837L137.2696875,118.57872515241944L137.548125,128.58260692634298L137.8265625,136.19722051479698L138.105,139.15524746129154L138.38343749999999,135.77461144587403L138.661875,136.23482934136678L138.9403125,136.1038136248045L139.21875,137.13610343890312L139.4971875,138.72545239014167L139.775625,138.39145266054317L140.05406250000001,127.2072620164223L140.3325,128.4294961520271L140.6109375,134.55007581708847L140.889375,139.08783891676705L141.1678125,140.41147944258933L141.44625,124.89617355422561L141.72468750000002,122.56239939271939L142.003125,122.95894232117838L142.2815625,125.0308115814978L142.56,131.91273307752596L142.8384375,137.9121938975061L143.116875,140.8400449805586L143.39531250000002,137.25031790368806L143.67375,136.087773793622L143.9521875,139.30940571817223L144.230625,141.4759081054988L144.5090625,141.2236179398197L144.7875,139.1652821268939L145.06593750000002,138.5107609422216L145.344375,141.01292607391252L145.6228125,143.39150470702168L145.90125,143.82234396888373L146.1796875,138.24884352383893L146.458125,134.43808262099992L146.73656250000002,137.5949069805242L147.01500000000001,141.19147373804938L147.2934375,141.40406205567854L147.571875,125.84610740814212L147.8503125,129.53076123792374L148.12875,134.41023890392196L148.40718750000002,134.35199192720953L148.68562500000002,136.81943664628102L148.9640625,139.8702290566859L149.2425,142.87729119900905L149.5209375,144.5471634026153L149.799375,143.42355266716203L150.07781250000002,135.24384728546042L150.35625000000002,134.236083892691L150.6346875,137.35178565927544L150.913125,141.45515883278637L151.1915625,142.27123459933676L151.47,128.25408117882617L151.74843750000002,126.91989996636384L152.02687500000002,126.91844388606853L152.3053125,120.98399665129075L152.58375,118.34536407266651L152.8621875,127.0649864751287L153.140625,132.4435679959171L153.41906250000002,137.26612139709007L153.69750000000002,139.59161613223438L153.97593750000001,137.9478313998341L154.254375,138.50285247846782L154.5328125,139.9562171895081L154.81125,141.93903880282292L155.08968750000003,143.63976278539033L155.36812500000002,142.05256930627897L155.64656250000002,141.6621172542822L155.925,140.42353214543348L156.2034375,140.6878780501647L156.481875,142.4422759110836L156.7603125,144.63986331450715L157.03875,144.93731830085548L157.3171875,143.18963456746246L157.59562499999998,137.20617009245862L157.87406249999998,134.4780342436726L158.15249999999997,136.5868808184204L158.4309375,140.54093725918835L158.709375,142.67734000007908L158.9878125,141.34470530445626L159.26624999999999,120.97373624245331L159.54468749999998,115.07181171791858L159.82312499999998,124.42661821971629L160.1015625,133.66301874851465L160.38,140.20184218521365L160.6584375,144.19670759733032L160.936875,145.99443381655942L161.21531249999998,146.2646605384358L161.49374999999998,143.25132431204023L161.7721875,132.64612332693522L162.050625,130.22762586558082L162.3290625,134.50397162879312L162.6075,139.21749833372104L162.88593749999998,141.31880826100937L163.16437499999998,136.1160839765552L163.4428125,137.9745421357237L163.72125,140.92838340172565L163.9996875,143.49279587965847L164.278125,141.19311623105946L164.55656249999998,137.3804612826508L164.83499999999998,130.14229153137921L165.1134375,134.21963362505656L165.391875,139.27617464088925L165.6703125,142.42401537500504L165.94875,142.63146828959523L166.22718749999999,141.46456910154728L166.50562499999998,141.53849978350783L166.7840625,141.05938418058176L167.0625,143.4499565494342L167.3409375,144.75610815904795L167.619375,140.97418360706385L167.8978125,134.65054083004455L168.17624999999998,134.89656752258034L168.4546875,138.38469431516663L168.733125,141.85266630310662L169.0115625,143.29740976198391L169.29,141.17330647905118L169.5684375,136.22478423271508L169.84687499999998,136.54274429276785L170.1253125,140.35443260820114L170.40375,140.54050816285599L170.6821875,132.3997453317607L170.960625,132.90484179308558L171.2390625,133.30782947945082L171.51749999999998,130.1577960065877L171.7959375,131.21068952324657L172.074375,133.7571039343717L172.3528125,133.54148606754944L172.63125,138.7489073396438L172.9096875,141.45946163488284L173.18812499999999,143.76051334131574L173.4665625,144.2727388868345L173.745,145.1680781901503L174.0234375,145.65975390523107L174.301875,145.38566099792374L174.5803125,142.84893330704102L174.85875000000001,141.53881347979498L175.1371875,142.03784279281518L175.415625,141.74703788568507L175.6940625,141.72775480974508L175.9725,142.3593625416087L176.2509375,144.2603276297711L176.52937500000002,146.18713050294593L176.8078125,145.14070520780825L177.08625,144.46172763779856L177.3646875,145.4407225175634L177.643125,144.46965811991308L177.9215625,145.00486365420903L178.20000000000002,144.7486897640938L178.4784375,138.94200626045122L178.756875,135.65438331298142L179.0353125,136.11812916817385L179.31375,139.84762049058077L179.5921875,143.49282086438208L179.87062500000002,145.95986030427355L180.1490625,144.52244219225994L180.4275,129.171712254879L180.7059375,131.86796897716022L180.984375,134.31660658160877L181.2628125,133.66237714825408L181.54125000000002,136.37885263695733L181.81968750000001,139.31274477919592L182.098125,142.74883352174444L182.3765625,144.85697920763366L182.655,144.4648258869199L182.9334375,143.47485162607637L183.21187500000002,142.94414308798505L183.49031250000002,142.60748752689813L183.76875,142.41919113325673L184.0471875,144.2483819415683L184.325625,142.85546423225415L184.6040625,139.24974802613417L184.88250000000002,135.7675534796383L185.16093750000002,133.32944699169627L185.439375,138.0803652731775L185.7178125,142.65644168936663L185.99625,145.6790165769917L186.2746875,146.24565740887613L186.55312500000002,137.9517449440697L186.83156250000002,136.47390537359823L187.11,138.67711622569357L187.3884375,142.2505500873276L187.666875,141.4565196711882L187.9453125,129.79915180166648L188.22375000000002,127.94995878468316L188.50218750000002,134.64750757584602L188.78062500000001,133.64977261627337L189.0590625,136.14509744340396L189.3375,141.4531291316741L189.6159375,145.1689458296602L189.89437500000003,146.81988469227142L190.17281250000002,145.84551543188763L190.45125000000002,139.81404405265914L190.7296875,138.5164072360389L191.008125,141.43484227078736L191.2865625,142.10471290990503L191.565,139.4300318126286L191.8434375,135.91392086021244L192.121875,139.66587069588485L192.40031249999998,142.18866448121676L192.67874999999998,144.34667581798504L192.95718749999997,145.7853969790022L193.235625,146.5053905180722L193.5140625,145.6848880148056L193.7925,143.4819154966973L194.07093749999999,138.5419205120947L194.34937499999998,138.82429192953617L194.62781249999998,142.07938525119246L194.90625,144.727512873302L195.1846875,145.58041990311068L195.463125,142.24332313501665L195.7415625,140.89697502114632L196.01999999999998,139.0373952613624L196.29843749999998,140.4182528698826L196.576875,142.06134971474498L196.8553125,142.76728860605118L197.13375,143.20560991464225L197.4121875,145.4545629789891L197.69062499999998,147.3481471589054L197.96906249999998,147.8839471506726L198.2475,146.55137659118486L198.5259375,141.37652907971085L198.804375,139.32117294534993L199.0828125,142.57255061256444L199.36124999999998,145.32455192166825L199.63968749999998,145.28119006762134L199.918125,140.6454764307092L200.1965625,140.3413622439239L200.475,141.09182917409552L200.7534375,141.98156899667956L201.03187499999999,141.64662158250823L201.31031249999998,139.31683952665315L201.58875,140.88146473458133L201.8671875,143.68177016329358L202.145625,146.44314380225202L202.4240625,147.83808629355846L202.7025,145.02568459212284L202.98093749999998,143.23503421195642L203.259375,141.18025152780177L203.5378125,143.7846480218709L203.81625,145.87047055837903L204.0946875,144.8591712205253L204.373125,127.10372251119333L204.65156249999998,114.57783038694757L204.93,124.70376479536576L205.2084375,133.20291269453244L205.486875,137.72163175891382L205.7653125,141.58292412370736L206.04375,145.9557843116968L206.32218749999998,148.03046521592427L206.600625,147.87548476571504L206.8790625,142.88574291195425L207.1575,142.44821036073296L207.4359375,142.8477740470758L207.714375,142.6593381037828L207.99281249999999,140.91431471529708L208.27125,143.72135036482263L208.5496875,145.1761961877827L208.828125,146.56543985012055L209.1065625,147.71912797606018L209.385,147.750897409415L209.66343750000001,145.92694857574094L209.941875,142.9886042083982L210.2203125,137.93601628916423L210.49875,140.85752150794335L210.7771875,142.29558786465694L211.055625,144.00165778994383L211.33406250000002,143.1521945597435L211.6125,138.69162376448025L211.8909375,137.92002448190203L212.169375,140.67382091559887L212.4478125,143.76755734166525L212.72625,145.37272072789233L213.00468750000002,147.51674603624036L213.283125,147.37404919557943L213.5615625,146.93549366529646L213.84,141.0342356087062L214.1184375,142.04723203905172L214.396875,142.56445645016822L214.67531250000002,144.01366297096584L214.95375,144.09117562245808L215.2321875,146.60708770641284L215.510625,146.36680225850856L215.7890625,146.45451444749494L216.0675,144.6066426894931L216.34593750000002,146.02105086899743L216.62437500000001,144.04590699757736L216.9028125,135.1065182411666L217.18125,135.33837557918645L217.4596875,139.19765686955395L217.738125,144.54680914858798L218.01656250000002,148.12688963605544L218.29500000000002,149.05938246501805L218.5734375,145.72026518632097L218.851875,140.75690472598032L219.1303125,139.46756719123164L219.40875,140.5744006139856L219.68718750000002,142.29162196193187L219.96562500000002,145.69133299684358L220.2440625,148.5213381892192L220.5225,150.4283643715738L220.8009375,150.00157930060874L221.079375,144.85955789705073L221.35781250000002,135.9684809932875L221.63625000000002,138.67943846692688L221.9146875,141.3505495416864L222.193125,143.67114820645745L222.4715625,145.72887017213074L222.75,144.69675574062512L223.02843750000002,146.61373651496663L223.30687500000002,146.9294724867211L223.58531250000001,145.72886726888808L223.86375,138.93034099121542L224.1421875,142.39920539690573L224.420625,144.52470150439618L224.69906250000003,146.56374842774954L224.97750000000002,148.66223761691742L225.25593750000002,149.4454105894723L225.534375,148.31354369952595L225.8128125,144.18337267095714L226.09125,133.9801941958358L226.3696875,138.16600838500264L226.648125,140.76131833143393L226.9265625,143.9542279582635L227.20499999999998,143.91285420136725L227.48343749999998,140.5320859949415L227.76187499999997,138.27347784557003L228.0403125,140.98427942584763L228.31875,144.52997217036614L228.5971875,147.24066538316958L228.87562499999999,148.435048861947L229.15406249999998,144.4035661344464L229.43249999999998,145.2708817896942L229.7109375,141.8120198662272L229.989375,129.78172594910274L230.2678125,124.89193345328555L230.54625,126.32989066715116L230.82468749999998,132.86889038522358L231.10312499999998,137.05783728725146L231.3815625,141.24232893310707L231.66,142.70424320685768L231.9384375,146.23049629817297L232.216875,148.3013954874694L232.49531249999998,148.860341796004L232.77374999999998,148.72962768938368L233.0521875,148.9744277889927L233.330625,150.13449580216232L233.6090625,149.0133766848761L233.8875,146.85063214670257L234.16593749999998,145.48237864715207L234.44437499999998,146.71683611511895L234.7228125,148.20872039988873L235.00125,150.4586908406589L235.2796875,151.69813298758464L235.558125,151.98748418010652L235.83656249999999,148.7353158254466L236.11499999999998,135.66421914963453L236.3934375,132.24702413940395L236.671875,136.22905304129455L236.9503125,141.9037040154158L237.22875,146.69159647192419L237.5071875,148.16685792936713L237.78562499999998,141.1445381061832L238.0640625,134.7610488611989L238.3425,140.41743875188251L238.6209375,144.95718594661642L238.899375,145.84168914888517L239.1778125,144.53854402434777L239.45624999999998,141.75198394547533L239.7346875,137.69176403235892L240.013125,137.491127515572L240.2915625,140.2872298933067L240.57,145.16274168354272L240.8484375,148.84485308769263L241.12687499999998,150.7841358211212L241.4053125,149.9645424449956L241.68375,142.81231027970657L241.9621875,131.02768212293682L242.240625,129.7791670391778L242.5190625,128.99456168590888L242.79749999999999,132.54838474278125L243.0759375,139.54405791911978L243.354375,141.42802885896324L243.6328125,141.28363114943204L243.91125,140.26232084925704L244.1896875,141.25921484493355L244.46812500000001,142.80620214653186L244.7465625,139.10492424725223L245.025,132.8945852551385L245.3034375,136.4124249376116L245.581875,139.60383684210095L245.8603125,144.22797789522983L246.13875000000002,147.51850932363348L246.4171875,149.49331046740156L246.695625,149.4499997779298L246.9740625,146.0765576583312L247.2525,136.43351960825186L247.5309375,139.807768559908L247.80937500000002,143.0788362022114L248.0878125,146.92258793261294L248.36625,148.8418521021318L248.6446875,150.4783981352328L248.923125,150.48707114257917L249.2015625,147.68739180751314L249.48000000000002,136.77304735431812L249.7584375,139.90740773213594L250.036875,143.25051022591646L250.3153125,146.6760309280302" style="fill: none;" fill="none"></path></g></g></g></g><g opacity="0.2"><g><g><g><path stroke="rgb(187, 187, 187)" stroke-width="2px" d="M31.4634375,-2.737362997872399L31.741875,29.534853254045796L32.0203125,6.5804165431432065L32.29875,5.421722684587827L32.5771875,17.98794446672719L32.855624999999996,10.414354869297645L33.1340625,-3.034451620919274L33.4125,-15.418127877371544L33.6909375,33.643936157226605L33.969375,23.31166648864752L34.2478125,6.475760323660785L34.52625,13.478563581194273L34.8046875,4.505619049072344L35.083125,-2.0305718013217406L35.3615625,18.13552420479917L35.64,-3.9134191785538777L35.9184375,-20.782120840889938L36.196875,14.443619319370887L36.4753125,5.03396415710457L36.753750000000004,-16.30240058898914L38.1459375,-2.1557252066475048L38.424375000000005,2.959407806396563L38.7028125,4.687441144670835L38.98125,3.574805668422238L39.2596875,37.124358313424274L39.538124999999994,35.681115286690876L39.816562499999996,61.710371017456055L40.095,63.56500462123326L40.373437499999994,60.59725325448173L40.651875,26.037792205810607L40.9303125,17.394731794084876L41.208749999999995,80.32856777736114L41.4871875,26.816685267857196L41.765625,65.67476790291921L42.044062499999995,48.56829888480052L42.3225,69.9275722503662L42.6009375,56.344448907034746L42.879374999999996,87.24383599417546L43.1578125,76.57179532732279L43.43625,78.46235929216654L43.714687500000004,-59.6522606440951L44.2715625,-1.5784279959541456L44.550000000000004,30.885738372802773L44.8284375,105.14824840000692L45.106875,41.55850246974402L45.385312500000005,93.69369752066471L45.66375,89.58196204049243L45.9421875,80.13878795078818L46.220625000000005,75.54814175197055L46.4990625,106.92764527457092L46.7775,98.58046776907779L47.055937500000006,90.70134953090117L47.334375,54.43194089617049L47.612812500000004,66.7331461225237L47.89125,102.62926483154288L48.169687499999995,90.46454674856999L48.448125,64.04463876996721L48.7265625,15.79353986467641L49.004999999999995,2.246105739048642L49.2834375,46.35821996416365L49.561875,38.814049857003376L49.840312499999996,89.28824942452563L50.11875,97.68920189993717L50.3971875,110.16089548383431L50.675625,66.64319964817591L50.9540625,-57.44314629690972L51.2325,-26.00673294067371L51.5109375,4.633666174752459L51.789375,78.84505380902968L52.0678125,100.34853090558728L52.34625,98.1095147814069L52.6246875,84.45428957257948L52.903125,97.80012784685401L53.1815625,56.55954878670829L53.46,32.49850518362866L53.7384375,83.33104378836491L54.016875,87.51367541721885L54.2953125,55.7476190839495L54.573750000000004,30.496050698416624L54.8521875,86.52860477992462L55.130625,94.50201007298055L55.409062500000005,83.069162096296L55.6875,37.44652584620888L55.9659375,0.81950160435276L56.244375000000005,64.2510574885777L56.5228125,98.10252162388387L56.801249999999996,87.96606036594932L57.0796875,76.77435575212748L57.358124999999994,86.72923605782641L57.6365625,77.08205468314033L57.915,17.83867672511515L58.193437499999995,-24.8410459245953L58.471875,79.78334263392856L58.7503125,51.14756829398021L59.028749999999995,-29.425663539341393L59.3071875,113.03435979570652L59.585625,121.5561250959123L59.864062499999996,116.36792564392081L60.1425,122.96367890494201L60.4209375,123.36397688729411L60.699374999999996,126.45905194963717L60.9778125,130.96553911481573L61.25625,131.35667364937908L61.534687500000004,134.25425229753756L61.813125,134.01455579485201L62.0915625,132.58602251325323L62.370000000000005,117.59389850071489L62.6484375,135.98710850306907L62.926875,118.42897796630851L63.205312500000005,123.52433722359783L63.48375,125.25646999904077L63.7621875,127.37973730904704L64.040625,128.92763655526286L64.3190625,122.79753112792959L64.5975,113.60755756923122L64.8759375,128.4287109374999L65.154375,121.76977811540866L65.4328125,126.50197546822673L65.71124999999999,118.78394099644242L65.9896875,130.93708419799793L66.268125,97.16061564854208L66.5465625,78.35722078595839L66.825,85.41500473022457L67.1034375,19.109019960675983L67.381875,72.48272732325961L67.6603125,17.963106700352313L67.93875,81.70911352975024L68.2171875,55.44353730337962L68.495625,68.83205795288085L68.7740625,98.89202499389643L69.0525,112.9253629956926L69.3309375,108.4060952322823L69.609375,128.9208845411027L69.8878125,128.0708541870116L70.16625,117.43570845467694L70.4446875,123.54049382890963L70.723125,106.6845727648053L71.0015625,119.07813589913495L71.28,108.49121883937285L71.5584375,116.18176296779077L71.836875,113.3902873992919L72.1153125,111.47585024152474L72.39375,99.57060241699213L72.6721875,105.39469691685262L72.950625,109.40852819170264L73.2290625,95.5005847385951L73.50750000000001,88.57301821027478L73.7859375,81.57069723946704L74.064375,89.39338793073377L74.34281250000001,65.93906102861676L74.62125,58.3973023550851L74.8996875,64.04005704607282L75.17812500000001,48.18632779802596L75.4565625,15.906636101859027L75.735,5.434985569545285L76.01343750000001,-5.71066066196977L76.291875,45.40015738351007L76.5703125,79.07920401436938L76.84875000000001,80.03630202157153L77.1271875,95.40316281999854L77.405625,20.914460318429196L77.68406250000001,63.752131870814715L77.9625,124.82819938659658L78.2409375,129.3783335004533L78.519375,130.56813485281796L78.79781249999999,115.44651685442234L79.07624999999999,51.91609219142371L79.3546875,99.76351710728231L79.63312499999999,129.06532941545748L79.91156249999999,133.98851231166282L80.19,123.71001761300212L80.4684375,73.97709274291991L80.74687499999999,92.52752821786058L81.0253125,116.54830087934212L81.30375,105.08313969203398L81.58218749999999,66.91786193847655L81.860625,101.56943975176124L82.1390625,93.19236046927311L82.41749999999999,68.9449130467006L82.6959375,90.0936682564871L82.974375,52.64723886762347L83.25281249999999,112.61549377441398L83.53125,137.57696669442302L83.8096875,111.43895530700675L84.08812499999999,100.07218061174659L84.3665625,115.60856519426609L84.645,109.12856074741902L84.92343749999999,115.25963074820373L85.201875,108.43141528538288L85.4803125,100.70421736580978L85.75874999999999,75.17099353245325L86.0371875,86.26937566484719L86.315625,106.8921972002301L86.59406249999999,112.69314193725577L86.8725,94.62258175441191L87.1509375,110.21298245021266L87.42937500000001,91.70281791687007L87.7078125,81.61217389787943L87.98625,107.52664538792195L88.26468750000001,138.44869995117176L88.543125,102.34326880318771L88.8215625,62.23413440159389L89.10000000000001,111.77366229466023L89.3784375,121.1129035949706L89.656875,127.70335170200883L89.93531250000001,105.5830298832484L90.21375,73.65299606323241L90.4921875,115.14002364022384L90.77062500000001,111.16429301670613L91.0490625,136.29625429425909L91.3275,134.3897748674664L91.60593750000001,111.18647820608948L91.884375,100.06542859758643L92.1628125,113.18386868068141L92.44125000000001,83.56760542733325L92.7196875,72.62283161708285L92.998125,118.02988570077069L93.27656250000001,130.37763159615642L93.555,131.75021961757105L93.8334375,114.26780809674935L94.11187500000001,95.52542250496995L94.39031250000001,119.20063672746922L94.66875,134.3147792816161L94.94718750000001,138.6372740609304L95.22562500000001,110.64969308035705L95.5040625,108.85028130667541L95.7825,99.16789300101138L96.0609375,90.11151286533895L96.33937499999999,101.79514993940076L96.6178125,122.08567592075883L96.89625,130.94190706525518L97.17468749999999,126.60012081691187L97.453125,83.7335120609828L97.7315625,115.24877929687491L98.00999999999999,136.5562068394251L98.2884375,140.53434889657146L98.566875,122.24627740042541L98.84531249999999,92.00834655761714L99.12375,114.01918928963791L99.4021875,122.352380480085L99.68062499999999,130.9173104422432L99.9590625,82.17403793334957L100.2375,109.24768556867318L100.51593749999999,121.94918877737854L100.794375,139.85360118320997L101.0728125,132.28169958932048L101.35125,85.62793431963235L101.6296875,114.49761772155753L101.908125,134.51565170288075L102.1865625,106.11282185145781L102.465,120.03812762669145L102.7434375,133.8664937700543L103.021875,129.99903651646196L103.3003125,75.19824273245673L103.57875,98.43433489118298L103.8571875,121.23106384277334L104.135625,133.89133153642916L104.4140625,137.47448076520635L104.6925,137.0852753775459L104.9709375,97.15386363438192L105.249375,122.94318171909867L105.5278125,139.75473240443625L105.80625,136.8079605102538L106.0846875,97.7620271955217L106.363125,91.08910805838444L106.6415625,118.75982666015616L106.92,134.3936331612722L107.1984375,125.15301949637266L107.476875,94.20178658621647L107.7553125,120.60529681614457L108.03375,127.15860884530193L108.31218750000001,130.69883455548955L108.590625,138.86877168927862L108.8690625,137.9271068572997L109.14750000000001,86.58672033037453L109.4259375,118.53845705304818L109.704375,118.09812927246085L109.98281250000001,134.97093037196555L110.26125,129.62237058367037L110.5396875,119.91538565499432L110.81812500000001,122.57375008719299L111.0965625,130.66700363159168L111.375,130.1150264739989L111.65343750000001,89.57617459978371L111.931875,116.82513345990853L112.2103125,122.29257692609505L112.48875000000001,136.41730826241619L112.7671875,137.6727006094795L113.045625,124.19423348563048L113.3240625,102.7423610687255L113.60249999999999,123.12982668195443L113.88093749999999,135.9133186340331L114.159375,143.09143311636777L114.43781249999999,135.9195883614675L114.71624999999999,89.43992859976628L114.9946875,122.74303272792261L115.273125,140.74631391252777L115.55156249999999,128.8401015145437L115.83,126.33582769121432L116.1084375,140.7752511160713L116.38687499999999,142.08707101004453L116.6653125,135.08547346932536L116.94375,93.13400377546033L117.22218749999999,126.49763488769521L117.500625,138.44677080426885L117.7790625,132.72492109026217L118.05749999999999,129.85338592529286L118.3359375,136.01845714024122L118.614375,128.8523998260497L118.89281249999999,79.93960353306358L119.17125,107.96166801452628L119.4496875,138.63196890694744L119.72812499999999,141.41524560110898L120.0065625,145.29717145647308L120.285,140.90257481166282L120.56343749999999,98.83607973371228L120.841875,122.83611406598763L121.1203125,134.7331630161829L121.39874999999999,136.57549830845412L121.6771875,135.12526212419772L121.955625,139.8029610770088L122.23406250000001,135.03169849940696L122.5125,120.30145617893754L122.7909375,131.4806213378905L123.06937500000001,138.0985597882951L123.3478125,139.81574167524053L123.62625,142.706327165876L123.90468750000001,141.39161355154843L124.183125,136.78022902352458L124.4615625,101.99578121730254L124.74000000000001,116.60159356253479L125.0184375,136.38113675798678L125.296875,140.4111246381486L125.57531250000001,144.1845359802245L125.85375,121.57252284458696L126.1321875,129.97685132707858L126.41062500000001,144.24192810058582L126.6890625,141.842069353376L126.9675,141.59441511971596L127.24593750000001,124.01819883074069L127.524375,92.53620937892363L127.8028125,126.35391344342904L128.08125,140.17528642926885L128.3596875,139.72917120797283L128.638125,127.7559209551129L128.9165625,139.43015343802304L129.195,140.9590023585727L129.47343750000002,143.7509602137973L129.751875,143.4049194880893L130.0303125,139.44558661324626L130.30875,116.06384386335091L130.5871875,82.6881555829729L130.865625,123.23014232090532L131.1440625,138.98042106628407L131.42249999999999,131.75263105119967L131.70093749999998,132.62605231148845L131.979375,138.75543430873313L132.2578125,143.71575328281935L132.53625,146.49276024954648L132.8146875,143.2968872615268L133.093125,133.65718133108945L133.37156249999998,102.52147374834327L133.65,118.86400059291284L133.9284375,120.41117640904008L134.206875,125.44166810171934L134.4853125,143.0516444614954L134.76375,146.28344781058163L135.04218749999998,144.41651589529843L135.320625,127.51550102233875L135.5990625,130.9230978829519L135.8775,137.03945813860201L136.1559375,142.4210545676094L136.434375,139.79548563276006L136.71281249999998,98.3940639495849L136.99125,105.7829377310616L137.2696875,122.68684632437561L137.548125,143.58842958722784L137.8265625,147.61914089747825L138.105,143.59228788103363L138.38343749999999,130.70365742274683L138.661875,136.92515618460507L138.9403125,135.90729004996152L139.21875,138.6845381600515L139.4971875,141.10947581699904L139.775625,137.89045306614454L140.05406250000001,110.43097605024056L140.3325,130.26284735543376L140.6109375,143.7309453146797L140.889375,145.89448356628404L141.1678125,142.39694023132313L141.44625,101.6232147216796L141.72468750000002,119.06173815046029L142.003125,123.55375671386709L142.2815625,128.13861547197604L142.56,142.23561532156796L142.8384375,146.91138512747617L143.116875,145.2318216051373L143.39531250000002,131.8657272883823L143.67375,134.34395762852247L143.9521875,144.14185360499778L144.230625,144.72566168648842L144.5090625,140.8451826913015L144.7875,136.07777840750546L145.06593750000002,137.52897916521331L145.344375,144.76617377144936L145.6228125,146.95937265668584L145.90125,144.46860286167677L146.1796875,129.8885928562708L146.458125,128.72194126674097L146.73656250000002,142.33014351981015L147.01500000000001,146.5863238743372L147.2934375,141.7229445321218L147.571875,102.50917543683727L147.8503125,135.05774198259616L148.12875,141.7294554029191L148.40718750000002,134.26462146214064L148.68562500000002,140.52060372488828L148.9640625,144.4464176722934L149.2425,147.3878844124929L149.5209375,147.05197170802512L149.799375,141.73813656398215L150.07781250000002,122.97428921290796L150.35625000000002,132.72443880353643L150.6346875,142.02533830915166L150.913125,147.61021859305234L151.1915625,143.49534824916282L151.47,107.22835104806076L151.74843750000002,124.91862814767009L152.02687500000002,126.91625976562489L152.3053125,112.08232579912452L152.58375,114.38741520472927L152.8621875,140.14442007882244L153.140625,140.5114402770995L153.41906250000002,144.49995149884893L153.69750000000002,143.07985823495034L153.97593750000001,135.48215430123454L154.254375,139.33538409641798L154.5328125,142.1362642560685L154.81125,144.91327122279563L155.08968750000003,146.19084875924233L155.36812500000002,139.6717790876115L155.64656250000002,141.07643917628684L155.925,138.56565448216017L156.2034375,141.08439690726132L156.481875,145.0738727024622L156.7603125,147.93624441964272L157.03875,145.38350078037794L157.3171875,140.56810896737224L157.59562499999998,128.23097337995245L157.87406249999998,130.38583047049374L158.15249999999997,139.75015068054188L158.4309375,146.47202192034027L158.709375,145.88194411141518L158.9878125,139.3457532610211L159.26624999999999,90.4172826494489L159.54468749999998,106.2189249311174L159.82312499999998,138.458827972412L160.1015625,147.51761954171303L160.38,150.01007734026214L160.6584375,150.18900571550628L160.936875,148.69102314540305L161.21531249999998,146.67000062125058L161.49374999999998,138.73131997244687L161.7721875,116.73832184927795L162.050625,126.599879673549L162.3290625,140.91849027361175L162.6075,146.28778839111314L162.88593749999998,144.47077315194252L163.16437499999998,128.31199754987432L163.4428125,140.76222937447673L163.72125,145.3591453007288L163.9996875,147.33941459655748L164.278125,137.74359675816115L164.55656249999998,131.66147886003756L164.83499999999998,119.28503690447117L165.1134375,140.33564676557256L165.391875,146.86098616463784L165.6703125,147.14577647617872L165.94875,142.94264766148146L166.22718749999999,139.71422031947532L166.50562499999998,141.64939580644867L166.7840625,140.34071077619268L167.0625,147.03581510271331L167.3409375,146.71533557346876L167.619375,135.3012967790875L167.8978125,125.1650766645158L168.17624999999998,135.2656075613838L168.4546875,143.61688450404563L168.733125,147.05462428501662L169.0115625,145.46452495029982L169.29,137.9871515546525L169.5684375,128.8020008632114L169.84687499999998,137.01968438284726L170.1253125,146.071965081351L170.40375,140.81962149483803L170.6821875,120.1886010851178L170.960625,133.66248648507244L171.2390625,133.91231100899822L171.51749999999998,125.43274579729342L171.7959375,132.7900297982351L172.074375,137.57672555106015L172.3528125,133.21805926731642L172.63125,146.56003924778517L172.9096875,145.52529307774122L173.18812499999999,147.21209090096596L173.4665625,145.04107720511288L173.745,146.51108714512404L174.0234375,146.39726747785284L174.301875,144.97452163696275L174.5803125,139.04384177071697L174.85875000000001,139.57363373892636L175.1371875,142.7863867623464L175.415625,141.3108305249894L175.6940625,141.69883019583554L175.9725,143.30677413940418L176.2509375,147.11177526201507L176.52937500000002,149.07733481270913L176.8078125,143.5710672651017L177.08625,143.44326128278448L177.3646875,146.90921483721038L177.643125,143.0130615234374L177.9215625,145.80767195565346L178.20000000000002,144.36442892892006L178.4784375,130.23198100498735L178.756875,130.72294889177584L179.0353125,136.8137479509625L179.31375,145.44185747419073L179.5921875,148.96062142508356L179.87062500000002,149.6604194641112L180.1490625,142.36631502423955L180.4275,106.14561734880714L180.7059375,135.91235406058163L180.984375,137.98956298828114L181.2628125,132.68103299822116L181.54125000000002,140.45356587001243L181.81968750000001,143.7135829925536L182.098125,147.90296663556768L182.3765625,148.0191977364675L182.655,143.87659590584877L182.9334375,141.98989023481084L183.21187500000002,142.14808028084877L183.49031250000002,142.10250418526772L183.76875,142.13674654279424L184.0471875,146.99216815403517L184.325625,140.76608766828252L184.6040625,133.8411737169537L184.88250000000002,130.54426165989457L185.16093750000002,129.67228725978296L185.439375,145.20674269539956L185.7178125,149.52055631365081L185.99625,150.2128789084297L186.2746875,147.09561865670327L186.55312500000002,125.51087624686095L186.83156250000002,134.2571460178919L187.11,141.98193250383636L187.3884375,147.61070087977805L187.666875,140.2654740469795L187.9453125,112.31309999738411L188.22375000000002,125.17616925920748L188.50218750000002,144.69383076259055L188.78062500000001,132.15317017691464L189.0590625,139.88808468409934L189.3375,149.4151766640798L189.6159375,150.7426708766391L189.89437500000003,149.2962929861885L190.17281250000002,144.38396154131195L190.45125000000002,130.76683698381686L190.7296875,136.56995201110828L191.008125,145.81249482291074L191.2865625,143.10951886858246L191.565,135.41801016671306L191.8434375,130.6397544315882L192.121875,145.293795449393L192.40031249999998,145.97285515921445L192.67874999999998,147.58369282313743L192.95718749999997,147.94347872052862L193.235625,147.58538082667746L193.5140625,144.454134259905L193.7925,140.1774567195346L194.07093749999999,131.131928035191L194.34937499999998,139.24784905569882L194.62781249999998,146.96202523367734L194.90625,148.69970430646612L195.1846875,146.85978044782354L195.463125,137.23767798287517L195.7415625,138.87745285034168L196.01999999999998,136.24802562168654L196.29843749999998,142.4895392826624L196.576875,144.5259949820381L196.8553125,143.82619694301047L197.13375,143.86309187752846L197.4121875,148.82799257550909L197.69062499999998,150.18852342878057L197.96906249999998,148.68764713832297L198.2475,144.55252075195298L198.5259375,133.6142578124999L198.804375,136.23813874380917L199.0828125,147.44961711338576L199.36124999999998,149.45255388532354L199.63968749999998,145.2161472865512L199.918125,133.69190597534168L200.1965625,139.885190963745L200.475,142.21752956935325L200.7534375,143.3161787305558L201.03187499999999,141.14420046125127L201.31031249999998,135.82216644287098L201.58875,143.22840254647377L201.8671875,147.88222830636147L202.145625,150.58520426068975L202.4240625,149.93050003051744L202.7025,140.80708203996917L202.98093749999998,140.54905864170607L203.259375,138.09807750156935L203.5378125,147.6912427629742L203.81625,148.99920436314162L204.0946875,143.342222213745L204.373125,100.47054944719581L204.65156249999998,95.7889922005789L204.93,139.89266640799374L205.2084375,145.95163454328252L205.486875,144.49971035548606L205.7653125,147.3748626708983L206.04375,152.5150745936801L206.32218749999998,151.14248657226548L206.600625,147.64301409040166L206.8790625,135.40113013131267L207.1575,141.79191153390053L207.4359375,143.44711957659027L207.714375,142.37668418884266L207.99281249999999,138.29677963256825L208.27125,147.9319038391112L208.5496875,147.35846492222365L208.828125,148.6493053436278L209.1065625,149.44966016496917L209.385,147.7985515594481L209.66343750000001,143.19102532523007L209.941875,138.5810876573834L210.2203125,130.35713441031308L210.49875,145.23977933611175L210.7771875,144.45268739972784L211.055625,146.56076267787375L211.33406250000002,141.87799971444252L211.6125,132.0007675715854L211.8909375,136.7626255580356L212.169375,144.80451556614454L212.4478125,148.40816198076507L212.72625,147.7804658072334L213.00468750000002,150.73278399876173L213.283125,147.16000393458762L213.5615625,146.2776603698729L213.84,132.18234852382105L214.1184375,143.5667266845702L214.396875,143.3402930668421L214.67531250000002,146.18747275216225L214.95375,144.20744459969643L215.2321875,150.38095583234502L215.510625,146.00637408665236L215.7890625,146.58608273097434L216.0675,141.83483505249012L216.34593750000002,148.14266313825323L216.62437500000001,141.083191190447L216.9028125,121.69743510654985L217.18125,135.6861615862164L217.4596875,144.9865788051059L217.738125,152.57053756713853L218.01656250000002,153.4970103672571L218.29500000000002,150.45812170846108L218.5734375,140.71158926827556L218.851875,133.31186403547002L219.1303125,137.53356088910772L219.40875,142.2346507481165L219.68718750000002,144.8674539838517L219.96562500000002,150.79089954921164L220.2440625,152.76634597778306L220.5225,153.2889036451066L220.8009375,149.36140169416143L221.079375,137.14652579171306L221.35781250000002,122.6318656376429L221.63625000000002,142.74587467738547L221.9146875,145.3572161538259L222.193125,147.15204620361314L222.4715625,148.8154531206402L222.75,143.14858409336622L223.02843750000002,149.48920767647866L223.30687500000002,147.40307644435325L223.58531250000001,143.92795944213856L223.86375,128.73255157470692L224.1421875,147.60250200544073L224.420625,147.71294566563185L224.69906250000003,149.62231881277887L224.97750000000002,151.8099714006695L225.25593750000002,150.62017004830483L225.534375,146.61574336460646L225.8128125,137.98811612810394L226.09125,118.67542648315421L226.3696875,144.44472966875335L226.648125,144.65428325108107L226.9265625,148.74359239850713L227.20499999999998,143.85079356602247L227.48343749999998,135.46093368530262L227.76187499999997,134.88556562151217L228.0403125,145.0504817962645L228.31875,149.8485112871441L228.5971875,151.306705202375L228.87562499999999,150.22662408011286L229.15406249999998,138.35634204319533L229.43249999999998,146.57185527256544L229.7109375,136.62372698102666L229.989375,111.73628507341651L230.2678125,117.55724470955975L230.54625,128.4868264879498L230.82468749999998,142.67738996233246L231.10312499999998,143.34125764029355L231.3815625,147.51906640189023L231.66,144.89711461748382L231.9384375,151.51987593514565L232.216875,151.4077442714145L232.49531249999998,149.69876125880637L232.77374999999998,148.53355652945368L233.0521875,149.34162793840667L233.330625,151.87459782191672L233.6090625,147.3316980089459L233.8875,143.60651533944252L234.16593749999998,143.42999839782703L234.44437499999998,148.56852231706878L234.7228125,150.44654682704368L235.00125,153.8336465018135L235.2796875,153.5572962079728L235.558125,152.42151096888938L235.83656249999999,143.85706329345692L236.11499999999998,116.05757413591648L236.3934375,127.12123162405821L236.671875,142.20209639413002L236.9503125,150.41568047659723L237.22875,153.87343515668582L237.5071875,150.3797501155307L237.78562499999998,130.61105837140752L238.0640625,125.185814993722L238.3425,148.90202358790793L238.6209375,151.7668067387171L238.899375,147.16844395228782L239.1778125,142.58382633754172L239.45624999999998,137.57214382716575L239.7346875,131.60143416268474L240.013125,137.1901727403912L240.2915625,144.4813834599085L240.57,152.47600936889634L240.8484375,154.36802019391726L241.12687499999998,153.6930599212645L241.4053125,148.73515238080694L241.68375,132.08396203177304L241.9621875,113.35073988778244L242.240625,127.90639441353923L242.5190625,127.81765365600575L242.79749999999999,137.87911932809L243.0759375,150.03756768362848L243.354375,144.25398526872894L243.6328125,141.0670345851352L243.91125,138.7303553989954L244.1896875,142.75455583844854L244.46812500000001,145.12668309892913L244.7465625,133.55300739833274L245.025,123.57907676696767L245.3034375,141.68918446132102L245.581875,144.39095469883497L245.8603125,151.16418947492315L246.13875000000002,152.4543064662387L246.4171875,152.455512183053L246.695625,149.38503374372198L246.9740625,141.01639447893402L247.2525,121.96896253313326L247.5309375,144.86914198739174L247.80937500000002,147.98543766566672L248.0878125,152.68821552821555L248.36625,151.7207483564103L248.6446875,152.93321718488406L248.923125,150.50008065359918L249.2015625,143.48787280491408L249.48000000000002,120.40153067452557L249.7584375,144.60894829886288L250.036875,148.26516396658747L250.3153125,151.81431198120103" style="fill: none;" fill="none"></path></g></g></g></g></g><g><g opacity="0.389174"><span fill="rgb(0, 0, 0)" stroke="none" stroke-width="1px">Alt + Scroll to Zoom</span></g></g></g><g transform="translate(51, 177)" clip-path="url(#clip_1)"><clipPath id="clip_1"><rect width="278" height="23"></rect></clipPath><g><g><line x1="0" y1="0" x2="0" y2="5" style="visibility: inherit;" fill="rgb(0, 0, 0)" stroke="rgb(204, 204, 204)" stroke-width="1px"></line><line x1="27.84375" y1="0" x2="27.84375" y2="5" style="visibility: inherit;" fill="rgb(0, 0, 0)" stroke="rgb(204, 204, 204)" stroke-width="1px"></line><line x1="55.6875" y1="0" x2="55.6875" y2="5" style="visibility: inherit;" fill="rgb(0, 0, 0)" stroke="rgb(204, 204, 204)" stroke-width="1px"></line><line x1="83.53125" y1="0" x2="83.53125" y2="5" style="visibility: inherit;" fill="rgb(0, 0, 0)" stroke="rgb(204, 204, 204)" stroke-width="1px"></line><line x1="111.375" y1="0" x2="111.375" y2="5" style="visibility: inherit;" fill="rgb(0, 0, 0)" stroke="rgb(204, 204, 204)" stroke-width="1px"></line><line x1="139.21875" y1="0" x2="139.21875" y2="5" style="visibility: inherit;" fill="rgb(0, 0, 0)" stroke="rgb(204, 204, 204)" stroke-width="1px"></line><line x1="167.0625" y1="0" x2="167.0625" y2="5" style="visibility: inherit;" fill="rgb(0, 0, 0)" stroke="rgb(204, 204, 204)" stroke-width="1px"></line><line x1="194.90625" y1="0" x2="194.90625" y2="5" style="visibility: inherit;" fill="rgb(0, 0, 0)" stroke="rgb(204, 204, 204)" stroke-width="1px"></line><line x1="222.75" y1="0" x2="222.75" y2="5" style="visibility: inherit;" fill="rgb(0, 0, 0)" stroke="rgb(204, 204, 204)" stroke-width="1px"></line><line x1="250.59375" y1="0" x2="250.59375" y2="5" style="visibility: inherit;" fill="rgb(0, 0, 0)" stroke="rgb(204, 204, 204)" stroke-width="1px"></line><line x1="278.4375" y1="0" x2="278.4375" y2="5" style="visibility: inherit;" fill="rgb(0, 0, 0)" stroke="rgb(204, 204, 204)" stroke-width="1px"></line></g><g transform="translate(0, 8)"><text x="0" y="0" dx="0em" dy="0.95em" style="text-anchor: middle; visibility: hidden; font-family: Roboto, sans-serif; font-size: 12px; font-weight: 200;" fill="rgb(33, 33, 33)" stroke="none" stroke-width="1px">-100</text><text x="27.84375" y="0" dx="0em" dy="0.95em" style="text-anchor: middle; visibility: inherit; font-family: Roboto, sans-serif; font-size: 12px; font-weight: 200;" fill="rgb(33, 33, 33)" stroke="none" stroke-width="1px">0</text><text x="55.6875" y="0" dx="0em" dy="0.95em" style="text-anchor: middle; visibility: inherit; font-family: Roboto, sans-serif; font-size: 12px; font-weight: 200;" fill="rgb(33, 33, 33)" stroke="none" stroke-width="1px">100</text><text x="83.53125" y="0" dx="0em" dy="0.95em" style="text-anchor: middle; visibility: inherit; font-family: Roboto, sans-serif; font-size: 12px; font-weight: 200;" fill="rgb(33, 33, 33)" stroke="none" stroke-width="1px">200</text><text x="111.375" y="0" dx="0em" dy="0.95em" style="text-anchor: middle; visibility: inherit; font-family: Roboto, sans-serif; font-size: 12px; font-weight: 200;" fill="rgb(33, 33, 33)" stroke="none" stroke-width="1px">300</text><text x="139.21875" y="0" dx="0em" dy="0.95em" style="text-anchor: middle; visibility: inherit; font-family: Roboto, sans-serif; font-size: 12px; font-weight: 200;" fill="rgb(33, 33, 33)" stroke="none" stroke-width="1px">400</text><text x="167.0625" y="0" dx="0em" dy="0.95em" style="text-anchor: middle; visibility: inherit; font-family: Roboto, sans-serif; font-size: 12px; font-weight: 200;" fill="rgb(33, 33, 33)" stroke="none" stroke-width="1px">500</text><text x="194.90625" y="0" dx="0em" dy="0.95em" style="text-anchor: middle; visibility: inherit; font-family: Roboto, sans-serif; font-size: 12px; font-weight: 200;" fill="rgb(33, 33, 33)" stroke="none" stroke-width="1px">600</text><text x="222.75" y="0" dx="0em" dy="0.95em" style="text-anchor: middle; visibility: inherit; font-family: Roboto, sans-serif; font-size: 12px; font-weight: 200;" fill="rgb(33, 33, 33)" stroke="none" stroke-width="1px">700</text><text x="250.59375" y="0" dx="0em" dy="0.95em" style="text-anchor: middle; visibility: inherit; font-family: Roboto, sans-serif; font-size: 12px; font-weight: 200;" fill="rgb(33, 33, 33)" stroke="none" stroke-width="1px">800</text><text x="278.4375" y="0" dx="0em" dy="0.95em" style="text-anchor: middle; visibility: hidden; font-family: Roboto, sans-serif; font-size: 12px; font-weight: 200;" fill="rgb(33, 33, 33)" stroke="none" stroke-width="1px">900</text></g><line x1="0" y1="0" x2="278.4375" y2="0" fill="rgb(0, 0, 0)" stroke="rgb(204, 204, 204)" stroke-width="1px"></line></g></g></g></g></svg>