<svg viewBox="0 0 330 200" xmlns="http://www.w3.org/2000/svg"><g><g><g><g><g><line x1="51.5625" y1="177" x2="46.5625" y2="177" style="visibility: inherit;" fill="rgb(0, 0, 0)" stroke="rgb(204, 204, 204)" stroke-width="1px"></line><line x1="51.5625" y1="160.9090909090909" x2="46.5625" y2="160.9090909090909" style="visibility: inherit;" fill="rgb(0, 0, 0)" stroke="rgb(204, 204, 204)" stroke-width="1px"></line><line x1="51.5625" y1="144.8181818181818" x2="46.5625" y2="144.8181818181818" style="visibility: inherit;" fill="rgb(0, 0, 0)" stroke="rgb(204, 204, 204)" stroke-width="1px"></line><line x1="51.5625" y1="128.72727272727272" x2="46.5625" y2="128.72727272727272" style="visibility: inherit;" fill="rgb(0, 0, 0)" stroke="rgb(204, 204, 204)" stroke-width="1px"></line><line x1="51.5625" y1="112.63636363636364" x2="46.5625" y2="112.63636363636364" style="visibility: inherit;" fill="rgb(0, 0, 0)" stroke="rgb(204, 204, 204)" stroke-width="1px"></line><line x1="51.5625" y1="96.54545454545453" x2="46.5625" y2="96.54545454545453" style="visibility: inherit;" fill="rgb(0, 0, 0)" stroke="rgb(204, 204, 204)" stroke-width="1px"></line><line x1="51.5625" y1="80.45454545454547" x2="46.5625" y2="80.45454545454547" style="visibility: inherit;" fill="rgb(0, 0, 0)" stroke="rgb(204, 204, 204)" stroke-width="1px"></line><line x1="51.5625" y1="64.36363636363636" x2="46.5625" y2="64.36363636363636" style="visibility: inherit;" fill="rgb(0, 0, 0)" stroke="rgb(204, 204, 204)" stroke-width="1px"></line><line x1="51.5625" y1="48.272727272727266" x2="46.5625" y2="48.272727272727266" style="visibility: inherit;" fill="rgb(0, 0, 0)" stroke="rgb(204, 204, 204)" stroke-width="1px"></line><line x1="51.5625" y1="32.18181818181817" x2="46.5625" y2="32.18181818181817" style="visibility: inherit;" fill="rgb(0, 0, 0)" stroke="rgb(204, 204, 204)" stroke-width="1px"></line><line x1="51.5625" y1="16.090909090909097" x2="46.5625" y2="16.090909090909097" style="visibility: inherit;" fill="rgb(0, 0, 0)" stroke="rgb(204, 204, 204)" stroke-width="1px"></line><line x1="51.5625" y1="0" x2="46.5625" y2="0" style="visibility: inherit;" fill="rgb(0, 0, 0)" stroke="rgb(204, 204, 204)" stroke-width="1px"></line></g><g transform="translate(41.5625, 0)"><text x="0" y="177" dx="0em" dy="0.3em" style="text-anchor: end; visibility: hidden; font-family: Roboto, sans-serif; font-size: 12px; font-weight: 200;" fill="rgb(33, 33, 33)" stroke="none" stroke-width="1px">38.5</text><text x="0" y="160.9090909090909" dx="0em" dy="0.3em" style="text-anchor: end; visibility: inherit; font-family: Roboto, sans-serif; font-size: 12px; font-weight: 200;" fill="rgb(33, 33, 33)" stroke="none" stroke-width="1px">39</text><text x="0" y="144.8181818181818" dx="0em" dy="0.3em" style="text-anchor: end; visibility: hidden; font-family: Roboto, sans-serif; font-size: 12px; font-weight: 200;" fill="rgb(33, 33, 33)" stroke="none" stroke-width="1px">39.5</text><text x="0" y="128.72727272727272" dx="0em" dy="0.3em" style="text-anchor: end; visibility: inherit; font-family: Roboto, sans-serif; font-size: 12px; font-weight: 200;" fill="rgb(33, 33, 33)" stroke="none" stroke-width="1px">40</text><text x="0" y="112.63636363636364" dx="0em" dy="0.3em" style="text-anchor: end; visibility: hidden; font-family: Roboto, sans-serif; font-size: 12px; font-weight: 200;" fill="rgb(33, 33, 33)" stroke="none" stroke-width="1px">40.5</text><text x="0" y="96.54545454545453" dx="0em" dy="0.3em" style="text-anchor: end; visibility: inherit; font-family: Roboto, sans-serif; font-size: 12px; font-weight: 200;" fill="rgb(33, 33, 33)" stroke="none" stroke-width="1px">41</text><text x="0" y="80.45454545454547" dx="0em" dy="0.3em" style="text-anchor: end; visibility: hidden; font-family: Roboto, sans-serif; font-size: 12px; font-weight: 200;" fill="rgb(33, 33, 33)" stroke="none" stroke-width="1px">41.5</text><text x="0" y="64.36363636363636" dx="0em" dy="0.3em" style="text-anchor: end; visibility: inherit; font-family: Roboto, sans-serif; font-size: 12px; font-weight: 200;" fill="rgb(33, 33, 33)" stroke="none" stroke-width="1px">42</text><text x="0" y="48.272727272727266" dx="0em" dy="0.3em" style="text-anchor: end; visibility: hidden; font-family: Roboto, sans-serif; font-size: 12px; font-weight: 200;" fill="rgb(33, 33, 33)" stroke="none" stroke-width="1px">42.5</text><text x="0" y="32.18181818181817" dx="0em" dy="0.3em" style="text-anchor: end; visibility: inherit; font-family: Roboto, sans-serif; font-size: 12px; font-weight: 200;" fill="rgb(33, 33, 33)" stroke="none" stroke-width="1px">43</text><text x="0" y="16.090909090909097" dx="0em" dy="0.3em" style="text-anchor: end; visibility: hidden; font-family: Roboto, sans-serif; font-size: 12px; font-weight: 200;" fill="rgb(33, 33, 33)" stroke="none" stroke-width="1px">43.5</text><text x="0" y="0" dx="0em" dy="0.3em" style="text-anchor: end; visibility: hidden; font-family: Roboto, sans-serif; font-size: 12px; font-weight: 200;" fill="rgb(33, 33, 33)" stroke="none" stroke-width="1px">44</text></g><line x1="51.5625" y1="0" x2="51.5625" y2="177" fill="rgb(0, 0, 0)" stroke="rgb(204, 204, 204)" stroke-width="1px"></line></g></g><g transform="translate(51, 0)" clip-path="url(#clip_0)"><clipPath id="clip_0"><rect width="278" height="177"></rect></clipPath><g><g><g><line x1="0" y1="0" x2="0" y2="177" fill="rgb(0, 0, 0)" stroke="rgb(66, 66, 66)" stroke-width="1px" opacity="0.25"></line><line x1="27.84375" y1="0" x2="27.84375" y2="177" fill="rgb(0, 0, 0)" stroke="rgb(66, 66, 66)" stroke-width="1px" opacity="0.25"></line><line x1="55.6875" y1="0" x2="55.6875" y2="177" fill="rgb(0, 0, 0)" stroke="rgb(66, 66, 66)" stroke-width="1px" opacity="0.25"></line><line x1="83.53125" y1="0" x2="83.53125" y2="177" fill="rgb(0, 0, 0)" stroke="rgb(66, 66, 66)" stroke-width="1px" opacity="0.25"></line><line x1="111.375" y1="0" x2="111.375" y2="177" fill="rgb(0, 0, 0)" stroke="rgb(66, 66, 66)" stroke-width="1px" opacity="0.25"></line><line x1="139.21875" y1="0" x2="139.21875" y2="177" fill="rgb(0, 0, 0)" stroke="rgb(66, 66, 66)" stroke-width="1px" opacity="0.25"></line><line x1="167.0625" y1="0" x2="167.0625" y2="177" fill="rgb(0, 0, 0)" stroke="rgb(66, 66, 66)" stroke-width="1px" opacity="0.25"></line><line x1="194.90625" y1="0" x2="194.90625" y2="177" fill="rgb(0, 0, 0)" stroke="rgb(66, 66, 66)" stroke-width="1px" opacity="0.25"></line><line x1="222.75" y1="0" x2="222.75" y2="177" fill="rgb(0, 0, 0)" stroke="rgb(66, 66, 66)" stroke-width="1px" opacity="0.25"></line><line x1="250.59375" y1="0" x2="250.59375" y2="177" fill="rgb(0, 0, 0)" stroke="rgb(66, 66, 66)" stroke-width="1px" opacity="0.25"></line><line x1="278.4375" y1="0" x2="278.4375" y2="177" fill="rgb(0, 0, 0)" stroke="rgb(66, 66, 66)" stroke-width="1px" opacity="0.25"></line></g><g><line x1="0" y1="177" x2="278.4375" y2="177" fill="rgb(0, 0, 0)" stroke="rgb(66, 66, 66)" stroke-width="1px" opacity="0.25"></line><line x1="0" y1="160.9090909090909" x2="278.4375" y2="160.9090909090909" fill="rgb(0, 0, 0)" stroke="rgb(66, 66, 66)" stroke-width="1px" opacity="0.25"></line><line x1="0" y1="144.8181818181818" x2="278.4375" y2="144.8181818181818" fill="rgb(0, 0, 0)" stroke="rgb(66, 66, 66)" stroke-width="1px" opacity="0.25"></line><line x1="0" y1="128.72727272727272" x2="278.4375" y2="128.72727272727272" fill="rgb(0, 0, 0)" stroke="rgb(66, 66, 66)" stroke-width="1px" opacity="0.25"></line><line x1="0" y1="112.63636363636364" x2="278.4375" y2="112.63636363636364" fill="rgb(0, 0, 0)" stroke="rgb(66, 66, 66)" stroke-width="1px" opacity="0.25"></line><line x1="0" y1="96.54545454545453" x2="278.4375" y2="96.54545454545453" fill="rgb(0, 0, 0)" stroke="rgb(66, 66, 66)" stroke-width="1px" opacity="0.25"></line><line x1="0" y1="80.45454545454547" x2="278.4375" y2="80.45454545454547" fill="rgb(0, 0, 0)" stroke="rgb(66, 66, 66)" stroke-width="1px" opacity="0.25"></line><line x1="0" y1="64.36363636363636" x2="278.4375" y2="64.36363636363636" fill="rgb(0, 0, 0)" stroke="rgb(66, 66, 66)" stroke-width="1px" opacity="0.25"></line><line x1="0" y1="48.272727272727266" x2="278.4375" y2="48.272727272727266" fill="rgb(0, 0, 0)" stroke="rgb(66, 66, 66)" stroke-width="1px" opacity="0.25"></line><line x1="0" y1="32.18181818181817" x2="278.4375" y2="32.18181818181817" fill="rgb(0, 0, 0)" stroke="rgb(66, 66, 66)" stroke-width="1px" opacity="0.25"></line><line x1="0" y1="16.090909090909097" x2="278.4375" y2="16.090909090909097" fill="rgb(0, 0, 0)" stroke="rgb(66, 66, 66)" stroke-width="1px" opacity="0.25"></line><line x1="0" y1="0" x2="278.4375" y2="0" fill="rgb(0, 0, 0)" stroke="rgb(66, 66, 66)" stroke-width="1px" opacity="0.25"></line></g></g></g><g><g><line x1="0" y1="1416" x2="278.4375" y2="1416" fill="rgb(0, 0, 0)" stroke="rgb(153, 153, 153)" stroke-width="1.5px"></line></g></g><g><g><line x1="27.84375" y1="0" x2="27.84375" y2="177" fill="rgb(0, 0, 0)" stroke="rgb(153, 153, 153)" stroke-width="1.5px"></line></g></g><g><g><g><g><g><path stroke="rgb(187, 187, 187)" stroke-width="2px" d="M37.589062500000004,-1.1708476067180413L37.8675,0.7318647831490522L38.1459375,3.0482444666475486L38.424375000000005,5.590825236789587L38.7028125,8.421059254965868L38.98125,11.1447201276961L39.2596875,15.696032296315053L39.538124999999994,19.634718100517198L39.816562499999996,26.353052374702294L40.095,30.021310184968183L40.373437499999994,35.41235831035834L40.651875,37.47189119367842L40.9303125,39.51883473400866L41.208749999999995,41.77753008848276L41.4871875,39.912503049523195L41.765625,45.5368584082212L42.044062499999995,42.35970992684819L42.3225,47.430485768351595L42.6009375,44.641764527858314L42.879374999999996,49.74583530585157L43.1578125,52.315650819520286L43.43625,54.60546687443644L43.714687500000004,37.55205409482995L43.993125,15.98614911616474L44.2715625,21.58090955137535L44.550000000000004,31.414494217153845L44.8284375,39.76545428730566L45.106875,38.55047685150272L45.385312500000005,43.21072711764879L45.66375,46.67245400407644L45.9421875,47.07351745748838L46.220625000000005,44.974030185519545L46.4990625,51.07265830129748L46.7775,56.11459856520694L47.055937500000006,57.982344732607956L47.334375,53.135537765523544L47.612812500000004,49.15577389777283L47.89125,55.83339076355713L48.169687499999995,60.88198081378085L48.448125,53.55575487232396L48.7265625,37.04346851510242L49.004999999999995,42.01861623201973L49.2834375,49.86520416303979L49.561875,46.12356363773854L49.840312499999996,45.766589798409996L50.11875,54.16989067991612L50.3971875,62.32923931739569L50.675625,60.57413910490811L50.9540625,41.552913527753006L51.2325,46.04738338165546L51.5109375,53.794179041333564L51.789375,60.967804366384044L52.0678125,66.84605820798744L52.34625,71.224697302722L52.6246875,72.38701287293296L52.903125,74.80113250625283L53.1815625,63.17122293858838L53.46,36.977683270432856L53.7384375,44.23623293145374L54.016875,49.056097724515006L54.2953125,37.590288162407774L54.573750000000004,44.59972010536351L54.8521875,47.633082296261485L55.130625,57.01083775888251L55.409062500000005,57.90415724073428L55.6875,46.852121253176456L55.9659375,52.81883223343988L56.244375000000005,54.27072216943188L56.5228125,62.09947526055467L56.801249999999996,64.23822935688332L57.0796875,60.30838672190694L57.358124999999994,68.15363388417403L57.6365625,68.10058764584542L57.915,52.40408705128576L58.193437499999995,57.156331902735225L58.471875,63.841988062095595L58.7503125,56.8925302617957L59.028749999999995,62.93813739757796L59.3071875,73.96575830413627L59.585625,82.14442773860743L59.864062499999996,87.55319356388529L60.1425,92.16579730843051L60.4209375,95.68712986321887L60.699374999999996,98.16753359974946L60.9778125,100.76330258616363L61.25625,100.88904234271395L61.534687500000004,103.43145119575617L61.813125,105.69937253741105L62.0915625,104.85263410927195L62.370000000000005,102.76177161657525L62.6484375,106.57759935799542L62.926875,102.26121998189606L63.205312500000005,102.55177704418021L63.48375,107.03178477675685L63.7621875,111.41407846770528L64.040625,114.85168305363446L64.3190625,109.13857719279848L64.5975,111.16717591218125L64.8759375,110.44854496048346L65.154375,113.84917125452162L65.4328125,113.75591055633518L65.71124999999999,116.28379036345292L65.9896875,119.29701011340208L66.268125,111.49999312192976L66.5465625,95.79193812280278L66.825,99.09899765706248L67.1034375,92.75866284317233L67.381875,72.98887024674157L67.6603125,76.43918784850666L67.93875,85.31481941631286L68.2171875,79.62773692011788L68.495625,86.93886444210975L68.7740625,95.23198626780494L69.0525,106.01238179086764L69.3309375,113.64515740149146L69.609375,120.0868564037854L69.8878125,121.61484411126987L70.16625,123.33028952340246L70.4446875,122.95474498090927L70.723125,124.23666423819044L71.0015625,122.8765006070122L71.28,124.98198667901563L71.5584375,124.94093650314811L71.836875,127.68664553115019L72.1153125,125.1545005244786L72.39375,126.89503685144139L72.6721875,126.54893478620231L72.950625,128.52853329048912L73.2290625,124.5091881783063L73.50750000000001,127.20760363851795L73.7859375,126.0859735378693L74.064375,126.9325178496392L74.34281250000001,124.67486854225874L74.62125,127.23895155415502L74.8996875,125.36510527420097L75.17812500000001,124.45975918724794L75.4565625,120.61891692481316L75.735,118.27335932125845L76.01343750000001,115.60617257517713L76.291875,115.66896754990042L76.5703125,115.62620963150265L76.84875000000001,115.80345904417149L77.1271875,113.39427829626497L77.405625,98.20063780073473L77.68406250000001,97.78949389759279L77.9625,108.81007773060108L78.2409375,116.54488286439057L78.519375,122.22096020292055L78.79781249999999,122.5774952224271L79.07624999999999,106.7719066238681L79.3546875,106.24977755253464L79.63312499999999,114.5635117729981L79.91156249999999,121.3632072169417L80.19,124.31865453257986L80.4684375,110.63187292862101L80.74687499999999,111.32946721864279L81.0253125,118.84033946648388L81.30375,117.82057247649898L81.58218749999999,112.03436147462445L81.860625,118.90215375000895L82.1390625,117.84882204625892L82.41749999999999,114.87640304664731L82.6959375,114.85318946204379L82.974375,107.37393982246783L83.25281249999999,112.6730785485765L83.53125,121.14353829125521L83.8096875,115.97581469172758L84.08812499999999,103.24695565630061L84.3665625,106.69404131370224L84.645,113.2674820835872L84.92343749999999,113.42722675459125L85.201875,117.59824556536127L85.4803125,121.37436038076488L85.75874999999999,118.26915802089519L86.0371875,120.54568421017555L86.315625,125.08430999565434L86.59406249999999,125.00277244314906L86.8725,121.7147982315144L87.1509375,124.55141200886588L87.42937500000001,118.79699599793335L87.7078125,107.51490719348665L87.98625,113.92160800128384L88.26468750000001,122.88665065836965L88.543125,122.04655560276323L88.8215625,112.24976286272319L89.10000000000001,119.27265018700533L89.3784375,119.6242795875227L89.656875,127.281231126981L89.93531250000001,126.49402221223276L90.21375,115.53068734189942L90.4921875,114.54983607790253L90.77062500000001,113.07153261708962L91.0490625,120.98996269436607L91.3275,123.27749313064668L91.60593750000001,122.82672204138517L91.884375,126.04103527783185L92.1628125,129.46965068552024L92.44125000000001,123.26284565367739L92.7196875,114.65560778283152L92.998125,121.70136193976292L93.27656250000001,124.25372565551241L93.555,131.26596247738058L93.8334375,131.722572980924L94.11187500000001,126.10701513532278L94.39031250000001,132.1941340634379L94.66875,137.81583291054153L94.94718750000001,137.91743997626097L95.22562500000001,130.33792320317502L95.5040625,132.47784991355977L95.7825,132.20162416599797L96.0609375,128.44258954531975L96.33937499999999,129.92356153969186L96.6178125,134.42105947575058L96.89625,137.00843236069892L97.17468749999999,137.14406254585836L97.453125,128.80535981311525L97.7315625,134.10801974307148L98.00999999999999,140.31275024472436L98.2884375,141.70214155752365L98.566875,134.52695454566475L98.84531249999999,111.33309500190151L99.12375,116.61027570231279L99.4021875,124.0759721064019L99.68062499999999,129.00917440597527L99.9590625,118.91364673342898L100.2375,120.56678656189698L100.51593749999999,121.50092232332436L100.794375,129.0252593155144L101.0728125,129.53967368900686L101.35125,113.1264559135107L101.6296875,122.68474695009499L101.908125,129.71365301291925L102.1865625,126.96223055952703L102.465,135.39397568701222L102.7434375,139.90618327486717L103.021875,138.70210285376987L103.3003125,116.78432101623909L103.57875,112.99847457884877L103.8571875,113.63799327225598L104.135625,121.66218550081798L104.4140625,130.6333880716201L104.6925,135.04239551387053L104.9709375,128.43945569655028L105.249375,132.26990899143857L105.5278125,138.19953694759755L105.80625,136.7747692211155L106.0846875,105.00570126544632L106.363125,100.39455290592969L106.6415625,112.64787898254937L106.92,124.5736153622747L107.1984375,127.8554634955964L107.476875,121.51055953601193L107.7553125,125.66318608559867L108.03375,128.67606661407223L108.31218750000001,136.89447636093269L108.590625,143.20897308129682L108.8690625,143.01285333119984L109.14750000000001,128.72921024534622L109.4259375,130.87424989099324L109.704375,126.96693690858388L109.98281250000001,133.46483954660636L110.26125,132.13241519147584L110.5396875,134.53739284047154L110.81812500000001,140.85955673144892L111.0965625,144.5588670289262L111.375,144.35018338763268L111.65343750000001,128.29935341858805L111.931875,126.81674417562022L112.2103125,122.35411094739986L112.48875000000001,131.22237701321984L112.7671875,135.98780548039278L113.045625,136.48120590453553L113.3240625,135.2002702845537L113.60249999999999,138.64388542623644L113.88093749999999,145.46661523567795L114.159375,147.68196554588124L114.43781249999999,145.13134563168367L114.71624999999999,127.13106789925186L114.9946875,135.1833104838692L115.273125,138.70653308764037L115.55156249999999,137.00471930215824L115.83,141.4714717180138L116.1084375,147.24699019744537L116.38687499999999,148.96767903723503L116.6653125,144.4882390363326L116.94375,127.79272369523716L117.22218749999999,135.2092623687758L117.500625,137.91029114152482L117.7790625,140.48949799368614L118.05749999999999,145.597862503598L118.3359375,148.32454391817444L118.614375,146.43020691953032L118.89281249999999,126.06907358131686L119.17125,123.10618857794496L119.4496875,131.73304131615618L119.72812499999999,142.10569947896917L120.0065625,147.79350363846467L120.285,146.99970586516324L120.56343749999999,127.51029548731532L120.841875,133.6013072417854L121.1203125,137.7799688044107L121.39874999999999,142.78212090888934L121.6771875,147.84118055980454L121.955625,150.85476437725356L122.23406250000001,150.84507603357864L122.5125,144.7803738117309L122.7909375,148.70096021566079L123.06937500000001,152.463378142447L123.3478125,155.12806128710176L123.62625,156.50353909825543L123.90468750000001,156.9134909793722L124.183125,154.33117841663628L124.4615625,141.48053965829135L124.74000000000001,138.55863574010974L125.0184375,145.02664761949188L125.296875,149.52736330535973L125.57531250000001,150.5357134155668L125.85375,141.0946103114139L126.1321875,141.03122297395774L126.41062500000001,148.51071126795074L126.6890625,152.16748910540824L126.9675,152.85931859197362L127.24593750000001,144.49311495889512L127.524375,127.01624583968356L127.8028125,132.6384659319885L128.08125,140.92642950148712L128.3596875,144.21508344219203L128.638125,143.76177378690613L128.9165625,149.55530645964367L129.195,154.4445366922811L129.47343750000002,156.6892711764127L129.751875,157.2225800953186L130.0303125,156.05928297595895L130.30875,145.66899707605842L130.5871875,132.34452319014858L130.865625,137.8437023285067L131.1440625,141.63505107572624L131.42249999999999,139.1038011976375L131.70093749999998,142.06897793981838L131.979375,147.55594642298183L132.2578125,154.03881021884607L132.53625,156.95299749050506L132.8146875,156.8314720117036L133.093125,150.83225251410653L133.37156249999998,137.78235626920605L133.65,140.22701985172256L133.9284375,138.74827023844838L134.206875,144.48103889200368L134.4853125,151.99101064210927L134.76375,155.56997897715115L135.04218749999998,155.67628747950792L135.320625,148.45840587726457L135.5990625,146.54931748543197L135.8775,151.09298881778616L136.1559375,153.7420958918791L136.434375,150.51784054293995L136.71281249999998,121.78029550119028L136.99125,117.58501690032345L137.2696875,126.9616086176444L137.548125,140.10896368354844L137.8265625,149.51714462303752L138.105,152.84716809928418L138.38343749999999,149.18969512448524L138.661875,152.56525473005337L138.9403125,156.22909563144464L139.21875,158.5458918825956L139.4971875,159.0194144020184L139.775625,156.7498424999645L140.05406250000001,145.05309819351564L140.3325,145.25808627761506L140.6109375,152.1957519796372L140.889375,155.10547220607071L141.1678125,153.75406951194142L141.44625,136.89847802863144L141.72468750000002,135.2958528416816L142.003125,137.23194757370575L142.2815625,144.04152921760783L142.56,151.48649118335223L142.8384375,155.07428246081034L143.116875,153.5720305804457L143.39531250000002,148.15124946509988L143.67375,148.2307401908675L143.9521875,154.09827798792256L144.230625,155.33848589120882L144.5090625,151.6299150987346L144.7875,152.66061840405615L145.06593750000002,155.52571785528895L145.344375,159.51905231739912L145.6228125,160.82107938404744L145.90125,159.11117069062027L146.1796875,151.064211070267L146.458125,148.34379314384694L146.73656250000002,154.21943839518588L147.01500000000001,156.90020995650067L147.2934375,154.09722602716744L147.571875,136.90421768528125L147.8503125,145.66646194106923L148.12875,149.25092946622183L148.40718750000002,147.0082339603617L148.68562500000002,152.409916683479L148.9640625,157.5485614824773L149.2425,160.54384941390052L149.5209375,161.26909695746681L149.799375,158.3558357268592L150.07781250000002,150.56686419579236L150.35625000000002,151.48837207970928L150.6346875,157.0676725731096L150.913125,159.4150708734113L151.1915625,156.91117187418868L151.47,140.18954702987543L151.74843750000002,140.00194177438823L152.02687500000002,136.99293641584043L152.3053125,135.65590200841754L152.58375,139.75750965542335L152.8621875,144.4983961741134L153.140625,148.35248924255387L153.41906250000002,154.72268461886338L153.69750000000002,156.20988168973074L153.97593750000001,152.68952542719074L154.254375,156.4035878592975L154.5328125,160.2514283947333L154.81125,161.78028735688608L155.08968750000003,161.76769079126228L155.36812500000002,158.59734210259828L155.64656250000002,158.67830993574225L155.925,159.49455781647026L156.2034375,161.83612622486075L156.481875,163.4906708188121L156.7603125,164.28545307278594L157.03875,163.16246336089466L157.3171875,158.5513859311319L157.59562499999998,153.7112082010796L157.87406249999998,156.27338491043804L158.15249999999997,160.09984471135525L158.4309375,162.5055206185391L158.709375,161.76029146380802L158.9878125,156.21197044380347L159.26624999999999,134.9727078344639L159.54468749999998,136.65498811509585L159.82312499999998,143.40926456428116L160.1015625,151.52703401378176L160.38,157.8545102586776L160.6584375,162.22607118983024L160.936875,163.98160718033986L161.21531249999998,163.64087110197178L161.49374999999998,159.6771534983635L161.7721875,151.0256879619443L162.050625,152.41338197105873L162.3290625,157.8266629938924L162.6075,160.61873561149875L162.88593749999998,157.93291461796468L163.16437499999998,148.59235458354505L163.4428125,151.0700567487066L163.72125,156.28226759192637L163.9996875,158.62763719977582L164.278125,155.9936188965701L164.55656249999998,153.2622718572957L164.83499999999998,155.7358576545052L165.1134375,159.95288072595963L165.391875,161.95054479743646L165.6703125,161.35983493510247L165.94875,157.9208925271126L166.22718749999999,157.67688798874616L166.50562499999998,160.44696253845368L166.7840625,163.26927338155943L167.0625,164.73868943953582L167.3409375,163.6102521824537L167.619375,157.1028869828564L167.8978125,149.7170311510066L168.17624999999998,149.5255861222446L168.4546875,155.81599892343544L168.733125,158.9281563719946L169.0115625,158.54612167298365L169.29,155.9860564599337L169.5684375,156.89625978593887L169.84687499999998,159.8661829955868L170.1253125,161.96418028962833L170.40375,157.4887753967883L170.6821875,145.1751111631438L170.960625,145.36301624955541L171.2390625,141.68372993794344L171.51749999999998,141.88085730314253L171.7959375,146.46945815186075L172.074375,149.00424624676276L172.3528125,153.28072656996815L172.63125,158.8368976895838L172.9096875,160.23387717243276L173.18812499999999,159.54723908977L173.4665625,160.37482782886198L173.745,163.38072416757635L174.0234375,164.6138027089975L174.301875,163.62356283100934L174.5803125,161.50346370402107L174.85875000000001,162.63163477425928L175.1371875,163.0371309999427L175.415625,162.73452225230935L175.6940625,161.73746100985514L175.9725,163.84479316752524L176.2509375,165.72404314794045L176.52937500000002,166.2820668799753L176.8078125,162.99568999037865L177.08625,160.286396593659L177.3646875,162.4529481302011L177.643125,164.76194915377755L177.9215625,165.5621588388573L178.20000000000002,163.57070372838533L178.4784375,156.42914764541186L178.756875,153.9738379635788L179.0353125,154.26359077530645L179.31375,158.7143401008372L179.5921875,162.79215497491984L179.87062500000002,163.73218718328278L180.1490625,159.31916183056634L180.4275,141.42544596197635L180.7059375,149.38925111988826L180.984375,151.2772793096283L181.2628125,149.93468506846528L181.54125000000002,152.69924987275527L181.81968750000001,158.36284160511636L182.098125,162.48461614027153L182.3765625,163.20333571310468L182.655,161.8622005689316L182.9334375,164.01166071777942L183.21187500000002,164.1782927064133L183.49031250000002,164.95710712686642L183.76875,164.08941209217107L184.0471875,165.01524837391045L184.325625,162.66949559306084L184.6040625,159.87333875764764L184.88250000000002,154.27196329320705L185.16093750000002,154.83319889433687L185.439375,160.1012676586901L185.7178125,163.9678539901005L185.99625,164.88986877722786L186.2746875,162.19877167471745L186.55312500000002,154.1359644430408L186.83156250000002,156.00526446793748L187.11,160.82277427025105L187.3884375,163.12838385591837L187.666875,158.54478599536924L187.9453125,142.89061976616674L188.22375000000002,137.34274144421698L188.50218750000002,143.38089954959128L188.78062500000001,147.2886066464806L189.0590625,153.70673332382574L189.3375,160.5622801842813L189.6159375,164.0343879303487L189.89437500000003,163.90235356120988L190.17281250000002,160.36340088406263L190.45125000000002,157.82980145018172L190.7296875,159.6499982351659L191.008125,161.55697392778282L191.2865625,159.79268627650274L191.565,155.71642985894155L191.8434375,152.71990807516607L192.121875,158.08787080390636L192.40031249999998,159.39102731410878L192.67874999999998,158.58941430661156L192.95718749999997,161.150437579883L193.235625,164.20421684924372L193.5140625,163.24119965411282L193.7925,160.98672918078435L194.07093749999999,161.41181539598827L194.34937499999998,163.99206437963852L194.62781249999998,166.36916468646555L194.90625,166.82598295383596L195.1846875,163.2752420383704L195.463125,157.87667531890312L195.7415625,158.53013283249973L196.01999999999998,161.08363756082804L196.29843749999998,162.49479340963248L196.576875,163.2029601411276L196.8553125,164.4205220896481L197.13375,166.74679345620365L197.4121875,169.0715352134594L197.69062499999998,169.89341662257132L197.96906249999998,168.0047295056805L198.2475,163.46143089854323L198.5259375,163.15164158688873L198.804375,164.63093745568437L199.0828125,167.37941918505845L199.36124999999998,168.16228618788162L199.63968749999998,163.86488797027508L199.918125,156.12447283232476L200.1965625,156.86710341042124L200.475,159.47867879429964L200.7534375,160.98787588897326L201.03187499999999,160.45671284916872L201.31031249999998,162.2913428284644L201.58875,165.4243052087974L201.8671875,167.9445173182826L202.145625,168.2758523476457L202.4240625,167.22015368708526L202.7025,162.87887205289402L202.98093749999998,163.4335546437571L203.259375,165.63257180658442L203.5378125,167.77504035401475L203.81625,167.0113956723698L204.0946875,163.08149505168177L204.373125,142.73663090663038L204.65156249999998,137.92039346097044L204.93,144.9560627034466L205.2084375,148.8425643465886L205.486875,149.78237188210085L205.7653125,155.23157189967955L206.04375,161.85534522831966L206.32218749999998,163.8986313868142L206.600625,161.9605355881254L206.8790625,160.64667851951242L207.1575,162.63518534546108L207.4359375,161.87108923462034L207.714375,160.30485929583244L207.99281249999999,160.42938608087314L208.27125,163.6385098889359L208.5496875,163.70509329353555L208.828125,161.79221352450574L209.1065625,163.32162244842158L209.385,165.80372176006867L209.66343750000001,163.36856340050142L209.941875,160.82095881888742L210.2203125,160.08034384601996L210.49875,163.29281662588252L210.7771875,161.57765003634282L211.055625,159.31094271623053L211.33406250000002,152.88538543176247L211.6125,147.04864181481042L211.8909375,148.37377016079682L212.169375,155.63172780581752L212.4478125,158.81116087338754L212.72625,160.20679706558082L213.00468750000002,163.93767465270093L213.283125,163.62492196358426L213.5615625,163.09466087523853L213.84,161.332899042011L214.1184375,163.58221734157735L214.396875,161.31695180942094L214.67531250000002,160.46515111051062L214.95375,159.65045102896622L215.2321875,163.72437206890686L215.510625,161.69280222971432L215.7890625,161.11228167962557L216.0675,160.9935869365751L216.34593750000002,163.43446309722563L216.62437500000001,159.29550451849173L216.9028125,156.13270487728818L217.18125,159.11685409425283L217.4596875,164.0088997434835L217.738125,168.0283778432493L218.01656250000002,170.0128463526116L218.29500000000002,169.91313161749753L218.5734375,170.19404624011838L218.851875,169.27166594764L219.1303125,166.79604982826086L219.40875,165.8458325225779L219.68718750000002,166.16299045814898L219.96562500000002,168.26589757966568L220.2440625,170.81140844304088L220.5225,171.79914309494387L220.8009375,169.0602664411283L221.079375,165.5639422355043L221.35781250000002,164.60171372997456L221.63625000000002,166.29865141802745L221.9146875,165.2196629854933L222.193125,162.76818084793643L222.4715625,159.9801823013755L222.75,160.09570936750845L223.02843750000002,163.65318978066125L223.30687500000002,163.02077628405735L223.58531250000001,161.82617593112323L223.86375,161.99169527147566L224.1421875,165.6462492407441L224.420625,165.4575093988499L224.69906250000003,164.10189488824452L224.97750000000002,165.28098417859667L225.25593750000002,167.77337566340807L225.534375,165.68724761040278L225.8128125,163.11291258657184L226.09125,160.75831540084215L226.3696875,164.13987998757574L226.648125,163.0787533210256L226.9265625,161.58597103114514L227.20499999999998,155.5548424508959L227.48343749999998,152.18473763495516L227.76187499999997,153.69473928729408L228.0403125,157.75808031110157L228.31875,163.8366236438697L228.5971875,165.90205963554058L228.87562499999999,165.31400522379613L229.15406249999998,162.33206102667816L229.43249999999998,163.70219876311265L229.7109375,158.28841575999837L229.989375,146.50451973742668L230.2678125,143.2363763377506L230.54625,150.1303517481404L230.82468749999998,156.95654301355054L231.10312499999998,160.08939600077957L231.3815625,161.24268928059914L231.66,162.75163440909105L231.9384375,167.34644933996805L232.216875,168.3672113120775L232.49531249999998,166.4245099149099L232.77374999999998,165.55190193838132L233.0521875,165.98781064101175L233.330625,168.07883251386846L233.6090625,164.53706030599503L233.8875,159.5683432503584L234.16593749999998,158.67282246743804L234.44437499999998,163.2763708153349L234.7228125,165.63519588009223L235.00125,169.20322945543472L235.2796875,172.0649191851571L235.558125,171.97092006134298L235.83656249999999,166.48609762451886L236.11499999999998,161.95371745699097L236.3934375,161.23224717563284L236.671875,165.03575056035135L236.9503125,169.2603211303336L237.22875,171.72808349185433L237.5071875,169.85645181297483L237.78562499999998,164.56387081035246L238.0640625,162.93421426533075L238.3425,166.71632024066164L238.6209375,168.3575728506292L238.899375,162.82213759354508L239.1778125,156.64823639135432L239.45624999999998,151.47239853314366L239.7346875,145.14670067217662L240.013125,151.11081509213773L240.2915625,158.27698488269746L240.57,164.0805935618982L240.8484375,168.9136526570252L241.12687499999998,171.78623452967332L241.4053125,171.9048667165611L241.68375,167.7316071637258L241.9621875,162.47346802692857L242.240625,158.32390237155488L242.5190625,151.840948145678L242.79749999999999,150.6760921029608L243.0759375,151.69273023514302L243.354375,148.02119955355045L243.6328125,150.72225675272685L243.91125,156.10476962336907L244.1896875,160.776065620346L244.46812500000001,159.8862526090685L244.7465625,149.32795628845255L245.025,148.5496160693251L245.3034375,151.49156884702836L245.581875,154.31580007286536L245.8603125,160.46755205410625L246.13875000000002,165.94098766445936L246.4171875,167.58325382026646L246.695625,166.27872315508606L246.9740625,162.1733263113755L247.2525,160.83372157251426L247.5309375,163.46832986733654L247.80937500000002,164.44028414199266L248.0878125,165.09942300428298L248.36625,167.01354479378088L248.6446875,170.20225557166998L248.923125,168.87878742503318L249.2015625,163.90523432469308L249.48000000000002,161.72240695223763L249.7584375,165.36402389435395L250.036875,168.17602292370407L250.3153125,170.76809044989" style="fill: none;" fill="none"></path></g></g></g></g><g opacity="0.2"><g><g><g><path stroke="rgb(187, 187, 187)" stroke-width="2px" d="M37.310625,-1.7984910444779758L37.589062500000004,2.4987362948330913L37.8675,3.585933338512072L38.1459375,6.5228139703923915L38.424375000000005,9.404696377840903L38.7028125,12.666410272771671L38.98125,15.230211431329892L39.2596875,22.523000543767765L39.538124999999994,25.54274680397727L39.816562499999996,36.43055378306996L40.095,35.52369689941406L40.373437499999994,43.49893049760298L40.651875,40.56119051846591L40.9303125,42.58925004438921L41.208749999999995,45.16557312011719L41.4871875,37.11496249112216L41.765625,53.97339144620028L42.044062499999995,37.593987204811796L42.3225,55.03664953058417L42.6009375,40.45868266712535L42.879374999999996,57.4019414728338L43.1578125,56.1703740900213L43.43625,58.0401909568093L43.714687500000004,11.971934925426135L43.993125,-16.362708351828832L44.2715625,29.973050204190347L44.550000000000004,46.16487121582031L44.8284375,52.29189439253374L45.106875,36.72801069779829L45.385312500000005,50.20110251686789L45.66375,51.865044333718046L45.9421875,47.67511263760653L46.220625000000005,41.8247992775657L46.4990625,60.22060047496449L46.7775,63.677508961070664L47.055937500000006,60.78396398370917L47.334375,45.86532731489702L47.612812500000004,43.18612809614702L47.89125,65.84981606223367L48.169687499999995,68.45486588911578L48.448125,42.566415960138485L48.7265625,12.275038979270239L49.004999999999995,49.481337807395235L49.2834375,61.63508605957031L49.561875,40.51110284978692L49.840312499999996,45.23112903941762L50.11875,66.77484200217508L50.3971875,74.56826227361505L50.675625,57.941488786177196L50.9540625,13.02107516202059L51.2325,52.789088162508875L51.5109375,65.4143725308505L51.789375,71.72824235395953L52.0678125,75.66343897039239L52.34625,77.79265594482422L52.6246875,74.1304862282493L52.903125,78.42231195623224L53.1815625,45.72635858709161L53.46,-2.312626231800408L53.7384375,55.12405742298473L54.016875,56.28589491410688L54.2953125,20.391573819247153L54.573750000000004,55.11386801979758L54.8521875,52.18312558260831L55.130625,71.07747095281427L55.409062500000005,59.24413646351207L55.6875,30.274067271839492L55.9659375,61.768898703835234L56.244375000000005,56.448557073419735L56.5228125,73.84260489723899L56.801249999999996,67.44636050137606L57.0796875,54.41362276944247L57.358124999999994,79.92150462757458L57.6365625,68.02101828835227L57.915,28.85933615944602L58.193437499999995,64.28469917990945L58.471875,73.87047230113636L58.7503125,46.46834356134589L59.028749999999995,72.00654810125177L59.3071875,90.50718966397373L59.585625,94.41243189031428L59.864062499999996,95.66634230180219L60.1425,99.08470292524859L60.4209375,100.96912869540127L60.699374999999996,101.88813920454547L60.9778125,104.6569560657848L61.25625,101.07765197753906L61.534687500000004,107.24506447531961L61.813125,109.10125454989345L62.0915625,103.5825264670632L62.370000000000005,99.62547787753017L62.6484375,112.30134097012608L62.926875,95.7866509177468L63.205312500000005,102.98761263760655L63.48375,113.75179637562145L63.7621875,117.9875190041282L64.040625,120.00808993252842L64.3190625,100.56891840154475L64.5975,114.21007399125531L64.8759375,109.3705985329368L65.154375,118.95011069557883L65.4328125,113.61601950905539L65.71124999999999,120.07561007412998L65.9896875,123.81683973832563L66.268125,99.80446763472125L66.5465625,72.22985562411222L66.825,104.05958695845172L67.1034375,83.24816062233664L67.381875,43.334181352095165L67.6603125,81.61466425115411L67.93875,98.62826676802203L68.2171875,71.09711317582563L68.495625,97.90555572509766L68.7740625,107.67166900634766L69.0525,122.18297507546164L69.3309375,125.09432081742719L69.609375,129.74940490722656L69.8878125,123.90682567249645L70.16625,125.90345764160156L70.4446875,122.39142816716975L70.723125,126.1595431241122L71.0015625,120.83625516024502L71.28,128.14021578702062L71.5584375,124.87936123934658L71.836875,131.80520907315343L72.1153125,121.35628301447088L72.39375,129.50584134188563L72.6721875,126.02978168834339L72.950625,131.49793104691938L73.2290625,118.48017051003195L73.50750000000001,131.25522682883522L73.7859375,124.40352838689631L74.064375,128.20233431729406L74.34281250000001,121.28839458118786L74.62125,131.08507607199928L74.8996875,122.55433585427024L75.17812500000001,123.10174005681819L75.4565625,114.85765353116123L75.735,114.75502291592686L76.01343750000001,111.60539245605469L76.291875,115.76316001198508L76.5703125,115.56207275390625L76.84875000000001,116.0693331631747L77.1271875,109.78050717440517L77.405625,75.41017705743964L77.68406250000001,97.17277804287998L77.9625,125.34095348011364L78.2409375,128.14709056507456L78.519375,130.73507621071556L78.79781249999999,123.1122977516868L79.07624999999999,83.06352372602984L79.3546875,105.46658394553445L79.63312499999999,127.03411310369319L79.91156249999999,131.56275038285688L80.19,128.75182550603694L80.4684375,90.10170052268289L80.74687499999999,112.37585865367542L81.0253125,130.10664783824575L81.30375,116.29092199152166L81.58218749999999,103.35504497181286L81.860625,129.20384216308594L82.1390625,116.26882449063389L82.41749999999999,110.41777454723011L82.6959375,114.8183690851385L82.974375,96.15506536310369L83.25281249999999,120.62178663773969L83.53125,133.84922790527344L83.8096875,108.22422929243609L84.08812499999999,84.15366710316052L84.3665625,111.86466979980469L84.645,123.12764323841442L84.92343749999999,113.6668437610973L85.201875,123.85477378151633L85.4803125,127.03853260387073L85.75874999999999,113.6113544810902L86.0371875,123.96047349409625L86.315625,131.8922486738725L86.59406249999999,124.88046611439098L86.8725,116.7828369140625L87.1509375,128.80633267489344L87.42937500000001,110.16537198153408L87.7078125,90.5917739868164L87.98625,123.53165921297939L88.26468750000001,136.3342146439986L88.543125,120.78641301935369L88.8215625,97.55457375266336L89.10000000000001,129.8069811734286L89.3784375,120.151723688299L89.656875,138.7666584361683L89.93531250000001,125.31320884011008L90.21375,99.08568503639914L90.4921875,113.07855918190695L90.77062500000001,110.85407742587002L91.0490625,132.86760781028053L91.3275,126.70878878506748L91.60593750000001,122.15056540749289L91.884375,130.86250513250178L92.1628125,134.61257379705256L92.44125000000001,113.95263810591265L92.7196875,101.7447509765625L92.998125,132.2699931751598L93.27656250000001,128.08227122913706L93.555,141.78431771018288L93.8334375,132.40748873623937L94.11187500000001,117.68367836692117L94.39031250000001,141.32481245561078L94.66875,146.24838118119672L94.94718750000001,138.0698505748402L95.22562500000001,118.9686480435458L95.5040625,135.68773997913706L95.7825,131.78728554465553L96.0609375,122.80403761430219L96.33937499999999,132.14501953125L96.6178125,141.16730637983844L96.89625,140.88949168812144L97.17468749999999,137.3475078235973L97.453125,116.29730571400036L97.7315625,142.06200963800603L98.00999999999999,149.61984599720347L98.2884375,143.7862285267223L98.566875,123.76417402787641L98.84531249999999,76.54230568625711L99.12375,124.52604675292969L99.4021875,135.2745167125355L99.68062499999999,136.4089778553356L99.9590625,103.77035522460938L100.2375,123.04649630459873L100.51593749999999,122.9021259654652L100.794375,140.31176480379972L101.0728125,130.31129524924538L101.35125,88.50662925026633L101.6296875,137.0221835049716L101.908125,140.25701210715553L102.1865625,122.83509687943891L102.465,148.0415933782404L102.7434375,146.6744946566495L103.021875,136.8959822221236L103.3003125,83.90764825994317L103.57875,107.3197049227628L103.8571875,114.59727131236683L104.135625,133.69847384366122L104.4140625,144.09019192782316L104.6925,141.6559066772461L104.9709375,118.53504597056995L105.249375,138.0155889337713L105.5278125,147.09397888183594L105.80625,134.63761763139203L106.0846875,57.35209933194247L106.363125,93.47783036665484L106.6415625,131.0278680974787L106.92,142.46221993186256L107.1984375,132.77823569557884L107.476875,111.99320359663531L107.7553125,131.8921259099787L108.03375,133.19538740678266L108.31218750000001,149.22209098122337L108.590625,152.68071816184303L108.8690625,142.7186737060547L109.14750000000001,107.30374561656605L109.4259375,134.09180935946378L109.704375,121.10596743496983L109.98281250000001,143.2116935036399L110.26125,130.13377865878016L110.5396875,138.14485931396484L110.81812500000001,150.34280256791547L111.0965625,150.10783247514203L111.375,144.03715792569247L111.65343750000001,104.22310846502131L111.931875,124.59283031116833L112.2103125,115.66016110506924L112.48875000000001,144.52477611194956L112.7671875,143.13594818115234L113.045625,137.22130654074928L113.3240625,133.27886685458097L113.60249999999999,143.80930813876066L113.88093749999999,155.7007099498402L114.159375,151.0049910111861L114.43781249999999,141.30541576038706L114.71624999999999,100.13065130060369L114.9946875,147.26167436079547L115.273125,143.99136699329722L115.55156249999999,134.45199862393466L115.83,148.17160034179688L116.1084375,155.9102679165927L116.38687499999999,151.54871229691938L116.6653125,137.7690790349787L116.94375,102.74945068359375L117.22218749999999,146.3340703790838L117.500625,141.9618343006481L117.7790625,144.35830827192828L118.05749999999999,153.2604092684659L118.3359375,152.41456604003906L118.614375,143.58870142156428L118.89281249999999,95.5273735739968L119.17125,118.66186107288708L119.4496875,144.673320423473L119.72812499999999,157.6646867231889L120.0065625,156.32520987770775L120.285,145.80900920521128L120.56343749999999,98.27617992054333L120.841875,142.73782487349078L121.1203125,144.04796114834872L121.39874999999999,150.28534906560725L121.6771875,155.4297700361772L121.955625,155.37514010342684L122.23406250000001,150.8305435180664L122.5125,135.68332047895953L122.7909375,154.5818398215554L123.06937500000001,158.10700503262606L123.3478125,159.1250860040838L123.62625,158.56675581498578L123.90468750000001,157.5284188010476L124.183125,150.45770957253197L124.4615625,122.20458152077414L124.74000000000001,134.17577986283735L125.0184375,154.72866543856534L125.296875,156.27843683416194L125.57531250000001,152.04823858087713L125.85375,126.93295565518467L126.1321875,140.93614196777344L126.41062500000001,159.72994370894L126.6890625,157.65265586159447L126.9675,153.89706282182172L127.24593750000001,131.94380950927734L127.524375,100.80094216086648L127.8028125,141.07179607044566L128.08125,153.3583748557351L128.3596875,149.14806435324928L128.638125,143.08180930397728L128.9165625,158.24560546875L129.195,161.77838204123756L129.47343750000002,160.0563729026101L129.751875,158.0225434736772L130.0303125,154.31433729691938L130.30875,130.08356822620738L130.5871875,112.35781236128375L130.865625,146.09247103604403L131.1440625,147.3220741965554L131.42249999999999,135.30692638050425L131.70093749999998,146.5167430530895L131.979375,155.78639914772728L132.2578125,163.76310591264203L132.53625,161.3242783979936L132.8146875,156.6491837935014L133.093125,141.83342326771128L133.37156249999998,118.20751190185547L133.65,143.89401522549716L133.9284375,136.53014581853694L134.206875,153.08019187233666L134.4853125,163.2559682672674L134.76375,160.93843147971413L135.04218749999998,155.8357502330433L135.320625,137.63158347389916L135.5990625,143.68568489768288L135.8775,157.90849581631747L136.1559375,157.71575650301847L136.434375,145.68145751953125L136.71281249999998,78.67397793856534L136.99125,111.29209899902344L137.2696875,141.02649619362572L137.548125,159.82999628240412L137.8265625,163.62941603227094L138.105,157.84220331365412L138.38343749999999,143.70348566228694L138.661875,157.62859413840553L138.9403125,161.7248569835316L139.21875,162.02108625932172L139.4971875,159.72969818115234L139.775625,153.34548464688388L140.05406250000001,127.50798173384234L140.3325,145.56556840376422L140.6109375,162.60225053267047L140.889375,159.47005254572088L141.1678125,151.7269654707475L141.44625,111.61509080366656L141.72468750000002,132.8919150612571L142.003125,140.13608967174184L142.2815625,154.2559016834606L142.56,162.6539341319691L142.8384375,160.4559693769975L143.116875,151.31865275989878L143.39531250000002,140.02007779208097L143.67375,148.3499762795188L143.9521875,162.89958468350497L144.230625,157.19879774613813L144.5090625,146.0670589100231L144.7875,154.20667336203834L145.06593750000002,159.82336703213778L145.344375,165.50905401056463L145.6228125,162.77411998401988L145.90125,156.5463076504794L146.1796875,138.99377163973722L146.458125,144.26316625421697L146.73656250000002,163.0329062721946L147.01500000000001,160.921367298473L147.2934375,149.89275013316762L147.571875,111.11470517245205L147.8503125,158.8098283247514L148.12875,154.62763075395063L148.40718750000002,143.64419070157138L148.68562500000002,160.5124407681552L148.9640625,165.25652868097478L149.2425,165.03678131103516L149.5209375,162.35696827281606L149.799375,153.98594388094816L150.07781250000002,138.88340689919212L150.35625000000002,152.87063390558416L150.6346875,165.43662331321022L150.913125,162.93616832386363L151.1915625,153.15532337535512L151.47,115.10710976340555L151.74843750000002,139.72053389115766L152.02687500000002,132.47942837801844L152.3053125,133.65035039728338L152.58375,145.9099211259322L152.8621875,151.60972595214844L153.140625,154.13362884521484L153.41906250000002,164.2779776833274L153.69750000000002,158.4406772960316L153.97593750000001,147.4089910333807L154.254375,161.97468150745738L154.5328125,166.02318919788706L154.81125,164.0735758001154L155.08968750000003,161.74879594282672L155.36812500000002,153.84181906960228L155.64656250000002,158.7997616854581L155.925,160.71892963756216L156.2034375,165.34847883744672L156.481875,165.972487709739L156.7603125,165.47762645374644L157.03875,161.47797879305753L157.3171875,151.63476978648794L157.59562499999998,146.4509416060014L157.87406249999998,160.11664997447622L158.15249999999997,165.8395344127308L158.4309375,166.11403447931463L158.709375,160.64244773171166L158.9878125,147.88948891379616L159.26624999999999,103.11381392045453L159.54468749999998,139.17840853604403L159.82312499999998,153.5406792380593L160.1015625,163.70368818803266L160.38,167.34572462602094L160.6584375,168.78341258655894L160.936875,166.6149111661044L161.21531249999998,163.12976698441938L161.49374999999998,153.731577092951L161.7721875,138.04848965731534L162.050625,154.49492298473012L162.3290625,165.94658452814275L162.6075,164.80684453790838L162.88593749999998,153.90418312766334L163.16437499999998,134.58151453191584L163.4428125,154.78660999644887L163.72125,164.10058385675603L163.9996875,162.14569161155006L164.278125,152.04259144176137L164.55656249999998,149.16525129838422L164.83499999999998,159.4462363503196L165.1134375,166.27841533314097L165.391875,164.947040904652L165.6703125,160.47377014160156L165.94875,152.76247891512784L166.22718749999999,157.31088118119672L166.50562499999998,164.6020743630149L166.7840625,167.50273964621803L167.0625,166.94281352650034L167.3409375,161.91759629683062L167.619375,147.3418391834606L167.8978125,138.63824740323153L168.17624999999998,149.23841857910156L168.4546875,165.25161812522194L168.733125,163.5963925448331L169.0115625,157.97306962446734L169.29,152.14595864035866L169.5684375,158.26156477494672L169.84687499999998,164.3210678100586L170.1253125,165.1111762306907L170.40375,150.7756680575284L170.6821875,126.70461481267756L170.960625,145.6448738791726L171.2390625,136.16480047052556L171.51749999999998,142.17654835094106L171.7959375,153.35235942493784L172.074375,152.80642838911578L172.3528125,159.69544705477628L172.63125,167.17115436900747L172.9096875,162.3293463967063L173.18812499999999,158.51728196577594L173.4665625,161.6162109375L173.745,167.8895686756481L174.0234375,166.46342052112925L174.301875,162.138203014027L174.5803125,158.32331501353872L174.85875000000001,164.32389137961647L175.1371875,163.6453753384677L175.415625,162.28060913085938L175.6940625,160.24186914617366L175.9725,167.00579140403053L176.2509375,168.54291811856356L176.52937500000002,167.11910247802734L176.8078125,158.06612465598366L177.08625,156.22245649857953L177.3646875,165.70277543501422L177.643125,168.2254506891424L177.9215625,166.76247336647728L178.20000000000002,160.58352106267756L178.4784375,145.71681352095172L178.756875,150.2908734408292L179.0353125,154.69821999289772L179.31375,165.39046408913353L179.5921875,168.90887728604403L179.87062500000002,165.1422354958274L180.1490625,152.69962380149147L180.4275,114.58487215909092L180.7059375,161.33495885675603L180.984375,154.10932159423828L181.2628125,147.92079370672053L181.54125000000002,156.84609707919034L181.81968750000001,166.85822920365766L182.098125,168.66727794300425L182.3765625,164.2814150723544L182.655,159.85049785267222L182.9334375,167.23585094105113L183.21187500000002,164.42824068936434L183.49031250000002,166.12532875754616L183.76875,162.78786954012784L184.0471875,166.40400279651988L184.325625,159.15086642178622L184.6040625,155.6791035045277L184.88250000000002,145.86990009654653L185.16093750000002,155.6750522960316L185.439375,168.00337080522016L185.7178125,169.7677334872159L185.99625,166.27289095791903L186.2746875,158.16212602095172L186.55312500000002,142.04175359552556L186.83156250000002,158.8092145052823L187.11,168.0490389737216L187.3884375,166.58679823441938L187.666875,151.66938920454547L187.9453125,119.40937042236328L188.22375000000002,129.02092396129262L188.50218750000002,152.4381367076527L188.78062500000001,153.15016729181463L189.0590625,163.33392333984375L189.3375,170.8456004749645L189.6159375,169.24254954944956L189.89437500000003,163.70430200750178L190.17281250000002,155.05497186834162L190.45125000000002,154.02940229936078L190.7296875,162.38029341264203L191.008125,164.4174374667081L191.2865625,157.14625479958275L191.565,149.60204523259944L191.8434375,148.22512539950284L192.121875,166.13981489701703L192.40031249999998,161.34576207941228L192.67874999999998,157.38699479536578L192.95718749999997,164.99197248979047L193.235625,168.7848857532848L193.5140625,161.7966738614169L193.7925,157.6050234707919L194.07093749999999,162.04944471879438L194.34937499999998,167.86243785511363L194.62781249999998,169.9348151467063L194.90625,167.5112103548917L195.1846875,157.94913066517222L195.463125,149.77882523970172L195.7415625,159.5103191028942L196.01999999999998,164.9138946533203L196.29843749999998,164.61152718283913L196.576875,164.26521023837003L196.8553125,166.24686501242897L197.13375,170.23620050603694L197.4121875,172.55864784934303L197.69062499999998,171.12623873623934L197.96906249999998,165.17169883034447L198.2475,156.64648298783735L198.5259375,162.68695761940697L198.804375,166.84988125887784L199.0828125,171.5021417791193L199.36124999999998,169.33658669211647L199.63968749999998,157.4187906438654L199.918125,144.5138501253995L200.1965625,157.9810492775657L200.475,163.3960418701172L200.7534375,163.25167153098366L201.03187499999999,159.659968289462L201.31031249999998,165.04328779740766L201.58875,170.12374877929688L201.8671875,171.72483548251066L202.145625,168.77285489169034L202.4240625,165.6366056962447L202.7025,156.36694960160688L202.98093749999998,164.2655785300515L203.259375,168.93109755082563L203.5378125,170.9887431751598L203.81625,165.86592864990234L204.0946875,157.18664412064985L204.373125,112.21933468905361L204.65156249999998,130.69603729248047L204.93,155.50956656716087L205.2084375,154.6723168113015L205.486875,151.1920831853693L205.7653125,163.4053719260476L206.04375,171.7910052212802L206.32218749999998,166.9635606245561L206.600625,159.05339189009234L206.8790625,158.6758929165927L207.1575,165.61794558438388L207.4359375,160.72494506835938L207.714375,157.95551438765094L207.99281249999999,160.61617625843394L208.27125,168.45219560102984L208.5496875,163.804968400435L208.828125,158.9228938709606L209.1065625,165.6157358342951L209.385,169.52687072753906L209.66343750000001,159.71582586115056L209.941875,156.99955194646662L210.2203125,158.96942138671875L210.49875,168.1115257956765L210.7771875,159.00490015203303L211.055625,155.91088173606178L211.33406250000002,143.24704950506037L211.6125,138.2935263893821L211.8909375,150.36146267977628L212.169375,166.51866427334872L212.4478125,163.58031047474253L212.72625,162.30025135387075L213.00468750000002,169.5339910333807L213.283125,163.15579292990944L213.5615625,162.29926924272016L213.84,158.69025629216975L214.1184375,166.95619479092684L214.396875,157.9190535111861L214.67531250000002,159.18745006214488L214.95375,158.4284009066495L215.2321875,169.83525362881747L215.510625,158.64544747092506L215.7890625,160.2415008544922L216.0675,160.81554482199928L216.34593750000002,167.09577733820134L216.62437500000001,153.08706665039062L216.9028125,151.38850541548297L217.18125,163.59307791969994L217.4596875,171.34696821732953L217.738125,174.05759499289772L218.01656250000002,172.98954911665484L218.29500000000002,169.763559514826L218.5734375,170.61541817405006L218.851875,167.88809550892222L219.1303125,163.08262564919212L219.40875,164.42050656405362L219.68718750000002,166.6387273615057L219.96562500000002,171.4202582619407L220.2440625,174.6296747381037L220.5225,173.28074507279828L220.8009375,164.95195146040484L221.079375,160.31945592706853L221.35781250000002,163.1583709716797L221.63625000000002,168.84405795010653L221.9146875,163.60118033669212L222.193125,159.09095764160156L222.4715625,155.7981844815341L222.75,160.2689999667081L223.02843750000002,168.98941040039062L223.30687500000002,162.07215603915128L223.58531250000001,160.0342754017223L223.86375,162.23997428200462L224.1421875,171.12808019464666L224.420625,165.17439963600853L224.69906250000003,162.06847312233666L224.97750000000002,167.04961811412466L225.25593750000002,171.511962890625L225.534375,162.55805553089488L225.8128125,159.25141005082563L226.09125,157.22641962224787L226.3696875,169.21222686767578L226.648125,161.48706332120028L226.9265625,159.34679759632456L227.20499999999998,146.50814958052203L227.48343749999998,147.12958041104403L227.76187499999997,155.95974176580256L228.0403125,163.85309184681284L228.31875,172.95443864302203L228.5971875,169.00021362304688L228.87562499999999,164.43192360617897L229.15406249999998,157.8591447310014L229.43249999999998,165.75740536776456L229.7109375,150.16774125532672L229.989375,128.8286757035689L230.2678125,138.33416123823687L230.54625,160.47131486372515L230.82468749999998,167.19582991166547L231.10312499999998,164.78867548162287L231.3815625,162.97262920032847L231.66,165.01505210182884L231.9384375,174.23867173628375L232.216875,169.89835427024147L232.49531249999998,163.51045781915838L232.77374999999998,164.24298997358844L233.0521875,166.64167369495738L233.330625,171.2153653231534L233.6090625,159.224401994185L233.8875,152.1152676669034L234.16593749999998,157.32954129305753L234.44437499999998,170.1816933371804L234.7228125,169.17343347722834L235.00125,174.55527981844816L235.2796875,176.35745377974078L235.558125,171.82992137562144L235.83656249999999,158.25886396928266L236.11499999999998,155.15514720569956L236.3934375,160.15004175359553L236.671875,170.74100563742897L236.9503125,175.5971769853072L237.22875,175.4297270341353L237.5071875,167.04900429465553L237.78562499999998,156.6249993064187L238.0640625,160.48972944779828L238.3425,172.38947920365766L238.6209375,170.81945176558062L238.899375,154.51898470791903L239.1778125,147.3873845880682L239.45624999999998,143.7086417458274L239.7346875,135.65815388072622L240.013125,160.0569867220792L240.2915625,169.02623956853694L240.57,172.78600658069956L240.8484375,176.1632412997159L241.12687499999998,176.09510733864525L241.4053125,172.08281499689275L241.68375,161.47171783447266L241.9621875,154.58625932173297L242.240625,152.0995538884943L242.5190625,142.11651680686256L242.79749999999999,148.92880803888494L243.0759375,153.2176874334162L243.354375,142.51390353116122L243.6328125,154.77384255149147L243.91125,164.17853892933238L244.1896875,167.78300961581144L244.46812500000001,158.551533092152L244.7465625,133.4905118075284L245.025,147.38210574063388L245.3034375,155.9044980135831L245.581875,158.5521469116211L245.8603125,169.6951800259677L246.13875000000002,174.15114107998934L246.4171875,170.04665305397728L246.695625,164.32192715731534L246.9740625,156.01523104580966L247.2525,158.8243144642223L247.5309375,167.4202423095703L247.80937500000002,165.89821555397728L248.0878125,166.0881312977184L248.36625,169.88472747802734L248.6446875,174.9853217385032L248.923125,166.89358520507812L249.2015625,156.44490467418325L249.48000000000002,158.4481658935547L249.7584375,170.8264493075284L250.036875,172.39402146772906L250.3153125,174.65619173916903" style="fill: none;" fill="none"></path></g></g></g></g></g></g><g transform="translate(51, 177)" clip-path="url(#clip_1)"><clipPath id="clip_1"><rect width="278" height="23"></rect></clipPath><g><g><line x1="0" y1="0" x2="0" y2="5" style="visibility: inherit;" fill="rgb(0, 0, 0)" stroke="rgb(204, 204, 204)" stroke-width="1px"></line><line x1="27.84375" y1="0" x2="27.84375" y2="5" style="visibility: inherit;" fill="rgb(0, 0, 0)" stroke="rgb(204, 204, 204)" stroke-width="1px"></line><line x1="55.6875" y1="0" x2="55.6875" y2="5" style="visibility: inherit;" fill="rgb(0, 0, 0)" stroke="rgb(204, 204, 204)" stroke-width="1px"></line><line x1="83.53125" y1="0" x2="83.53125" y2="5" style="visibility: inherit;" fill="rgb(0, 0, 0)" stroke="rgb(204, 204, 204)" stroke-width="1px"></line><line x1="111.375" y1="0" x2="111.375" y2="5" style="visibility: inherit;" fill="rgb(0, 0, 0)" stroke="rgb(204, 204, 204)" stroke-width="1px"></line><line x1="139.21875" y1="0" x2="139.21875" y2="5" style="visibility: inherit;" fill="rgb(0, 0, 0)" stroke="rgb(204, 204, 204)" stroke-width="1px"></line><line x1="167.0625" y1="0" x2="167.0625" y2="5" style="visibility: inherit;" fill="rgb(0, 0, 0)" stroke="rgb(204, 204, 204)" stroke-width="1px"></line><line x1="194.90625" y1="0" x2="194.90625" y2="5" style="visibility: inherit;" fill="rgb(0, 0, 0)" stroke="rgb(204, 204, 204)" stroke-width="1px"></line><line x1="222.75" y1="0" x2="222.75" y2="5" style="visibility: inherit;" fill="rgb(0, 0, 0)" stroke="rgb(204, 204, 204)" stroke-width="1px"></line><line x1="250.59375" y1="0" x2="250.59375" y2="5" style="visibility: inherit;" fill="rgb(0, 0, 0)" stroke="rgb(204, 204, 204)" stroke-width="1px"></line><line x1="278.4375" y1="0" x2="278.4375" y2="5" style="visibility: inherit;" fill="rgb(0, 0, 0)" stroke="rgb(204, 204, 204)" stroke-width="1px"></line></g><g transform="translate(0, 8)"><text x="0" y="0" dx="0em" dy="0.95em" style="text-anchor: middle; visibility: hidden; font-family: Roboto, sans-serif; font-size: 12px; font-weight: 200;" fill="rgb(33, 33, 33)" stroke="none" stroke-width="1px">-100</text><text x="27.84375" y="0" dx="0em" dy="0.95em" style="text-anchor: middle; visibility: inherit; font-family: Roboto, sans-serif; font-size: 12px; font-weight: 200;" fill="rgb(33, 33, 33)" stroke="none" stroke-width="1px">0</text><text x="55.6875" y="0" dx="0em" dy="0.95em" style="text-anchor: middle; visibility: inherit; font-family: Roboto, sans-serif; font-size: 12px; font-weight: 200;" fill="rgb(33, 33, 33)" stroke="none" stroke-width="1px">100</text><text x="83.53125" y="0" dx="0em" dy="0.95em" style="text-anchor: middle; visibility: inherit; font-family: Roboto, sans-serif; font-size: 12px; font-weight: 200;" fill="rgb(33, 33, 33)" stroke="none" stroke-width="1px">200</text><text x="111.375" y="0" dx="0em" dy="0.95em" style="text-anchor: middle; visibility: inherit; font-family: Roboto, sans-serif; font-size: 12px; font-weight: 200;" fill="rgb(33, 33, 33)" stroke="none" stroke-width="1px">300</text><text x="139.21875" y="0" dx="0em" dy="0.95em" style="text-anchor: middle; visibility: inherit; font-family: Roboto, sans-serif; font-size: 12px; font-weight: 200;" fill="rgb(33, 33, 33)" stroke="none" stroke-width="1px">400</text><text x="167.0625" y="0" dx="0em" dy="0.95em" style="text-anchor: middle; visibility: inherit; font-family: Roboto, sans-serif; font-size: 12px; font-weight: 200;" fill="rgb(33, 33, 33)" stroke="none" stroke-width="1px">500</text><text x="194.90625" y="0" dx="0em" dy="0.95em" style="text-anchor: middle; visibility: inherit; font-family: Roboto, sans-serif; font-size: 12px; font-weight: 200;" fill="rgb(33, 33, 33)" stroke="none" stroke-width="1px">600</text><text x="222.75" y="0" dx="0em" dy="0.95em" style="text-anchor: middle; visibility: inherit; font-family: Roboto, sans-serif; font-size: 12px; font-weight: 200;" fill="rgb(33, 33, 33)" stroke="none" stroke-width="1px">700</text><text x="250.59375" y="0" dx="0em" dy="0.95em" style="text-anchor: middle; visibility: inherit; font-family: Roboto, sans-serif; font-size: 12px; font-weight: 200;" fill="rgb(33, 33, 33)" stroke="none" stroke-width="1px">800</text><text x="278.4375" y="0" dx="0em" dy="0.95em" style="text-anchor: middle; visibility: hidden; font-family: Roboto, sans-serif; font-size: 12px; font-weight: 200;" fill="rgb(33, 33, 33)" stroke="none" stroke-width="1px">900</text></g><line x1="0" y1="0" x2="278.4375" y2="0" fill="rgb(0, 0, 0)" stroke="rgb(204, 204, 204)" stroke-width="1px"></line></g></g></g></g></svg>