<svg viewBox="0 0 301 200" xmlns="http://www.w3.org/2000/svg"><g><g><g><g><g><line x1="30" y1="177" x2="25" y2="177" style="visibility: inherit;" fill="rgb(0, 0, 0)" stroke="rgb(204, 204, 204)" stroke-width="1px"></line><line x1="30" y1="162.25" x2="25" y2="162.25" style="visibility: inherit;" fill="rgb(0, 0, 0)" stroke="rgb(204, 204, 204)" stroke-width="1px"></line><line x1="30" y1="147.5" x2="25" y2="147.5" style="visibility: inherit;" fill="rgb(0, 0, 0)" stroke="rgb(204, 204, 204)" stroke-width="1px"></line><line x1="30" y1="132.75" x2="25" y2="132.75" style="visibility: inherit;" fill="rgb(0, 0, 0)" stroke="rgb(204, 204, 204)" stroke-width="1px"></line><line x1="30" y1="118.00000000000001" x2="25" y2="118.00000000000001" style="visibility: inherit;" fill="rgb(0, 0, 0)" stroke="rgb(204, 204, 204)" stroke-width="1px"></line><line x1="30" y1="103.24999999999999" x2="25" y2="103.24999999999999" style="visibility: inherit;" fill="rgb(0, 0, 0)" stroke="rgb(204, 204, 204)" stroke-width="1px"></line><line x1="30" y1="88.5" x2="25" y2="88.5" style="visibility: inherit;" fill="rgb(0, 0, 0)" stroke="rgb(204, 204, 204)" stroke-width="1px"></line><line x1="30" y1="73.75" x2="25" y2="73.75" style="visibility: inherit;" fill="rgb(0, 0, 0)" stroke="rgb(204, 204, 204)" stroke-width="1px"></line><line x1="30" y1="59.00000000000001" x2="25" y2="59.00000000000001" style="visibility: inherit;" fill="rgb(0, 0, 0)" stroke="rgb(204, 204, 204)" stroke-width="1px"></line><line x1="30" y1="44.25" x2="25" y2="44.25" style="visibility: inherit;" fill="rgb(0, 0, 0)" stroke="rgb(204, 204, 204)" stroke-width="1px"></line><line x1="30" y1="29.499999999999993" x2="25" y2="29.499999999999993" style="visibility: inherit;" fill="rgb(0, 0, 0)" stroke="rgb(204, 204, 204)" stroke-width="1px"></line><line x1="30" y1="14.750000000000007" x2="25" y2="14.750000000000007" style="visibility: inherit;" fill="rgb(0, 0, 0)" stroke="rgb(204, 204, 204)" stroke-width="1px"></line><line x1="30" y1="0" x2="25" y2="0" style="visibility: inherit;" fill="rgb(0, 0, 0)" stroke="rgb(204, 204, 204)" stroke-width="1px"></line></g><g transform="translate(20, 0)"><text x="0" y="177" dx="0em" dy="0.3em" style="text-anchor: end; visibility: hidden; font-family: Roboto, sans-serif; font-size: 12px; font-weight: 200;" fill="rgb(33, 33, 33)" stroke="none" stroke-width="1px">0</text><text x="0" y="162.25" dx="0em" dy="0.3em" style="text-anchor: end; visibility: inherit; font-family: Roboto, sans-serif; font-size: 12px; font-weight: 200;" fill="rgb(33, 33, 33)" stroke="none" stroke-width="1px">5</text><text x="0" y="147.5" dx="0em" dy="0.3em" style="text-anchor: end; visibility: hidden; font-family: Roboto, sans-serif; font-size: 12px; font-weight: 200;" fill="rgb(33, 33, 33)" stroke="none" stroke-width="1px">10</text><text x="0" y="132.75" dx="0em" dy="0.3em" style="text-anchor: end; visibility: inherit; font-family: Roboto, sans-serif; font-size: 12px; font-weight: 200;" fill="rgb(33, 33, 33)" stroke="none" stroke-width="1px">15</text><text x="0" y="118.00000000000001" dx="0em" dy="0.3em" style="text-anchor: end; visibility: hidden; font-family: Roboto, sans-serif; font-size: 12px; font-weight: 200;" fill="rgb(33, 33, 33)" stroke="none" stroke-width="1px">20</text><text x="0" y="103.24999999999999" dx="0em" dy="0.3em" style="text-anchor: end; visibility: inherit; font-family: Roboto, sans-serif; font-size: 12px; font-weight: 200;" fill="rgb(33, 33, 33)" stroke="none" stroke-width="1px">25</text><text x="0" y="88.5" dx="0em" dy="0.3em" style="text-anchor: end; visibility: hidden; font-family: Roboto, sans-serif; font-size: 12px; font-weight: 200;" fill="rgb(33, 33, 33)" stroke="none" stroke-width="1px">30</text><text x="0" y="73.75" dx="0em" dy="0.3em" style="text-anchor: end; visibility: inherit; font-family: Roboto, sans-serif; font-size: 12px; font-weight: 200;" fill="rgb(33, 33, 33)" stroke="none" stroke-width="1px">35</text><text x="0" y="59.00000000000001" dx="0em" dy="0.3em" style="text-anchor: end; visibility: hidden; font-family: Roboto, sans-serif; font-size: 12px; font-weight: 200;" fill="rgb(33, 33, 33)" stroke="none" stroke-width="1px">40</text><text x="0" y="44.25" dx="0em" dy="0.3em" style="text-anchor: end; visibility: inherit; font-family: Roboto, sans-serif; font-size: 12px; font-weight: 200;" fill="rgb(33, 33, 33)" stroke="none" stroke-width="1px">45</text><text x="0" y="29.499999999999993" dx="0em" dy="0.3em" style="text-anchor: end; visibility: hidden; font-family: Roboto, sans-serif; font-size: 12px; font-weight: 200;" fill="rgb(33, 33, 33)" stroke="none" stroke-width="1px">50</text><text x="0" y="14.750000000000007" dx="0em" dy="0.3em" style="text-anchor: end; visibility: inherit; font-family: Roboto, sans-serif; font-size: 12px; font-weight: 200;" fill="rgb(33, 33, 33)" stroke="none" stroke-width="1px">55</text><text x="0" y="0" dx="0em" dy="0.3em" style="text-anchor: end; visibility: hidden; font-family: Roboto, sans-serif; font-size: 12px; font-weight: 200;" fill="rgb(33, 33, 33)" stroke="none" stroke-width="1px">60</text></g><line x1="30" y1="0" x2="30" y2="177" fill="rgb(0, 0, 0)" stroke="rgb(204, 204, 204)" stroke-width="1px"></line></g></g><g transform="translate(30, 0)" clip-path="url(#clip_0)"><clipPath id="clip_0"><rect width="271" height="177"></rect></clipPath><g><g><g><line x1="0" y1="0" x2="0" y2="177" fill="rgb(0, 0, 0)" stroke="rgb(66, 66, 66)" stroke-width="1px" opacity="0.25"></line><line x1="22.583333333333332" y1="0" x2="22.583333333333332" y2="177" fill="rgb(0, 0, 0)" stroke="rgb(66, 66, 66)" stroke-width="1px" opacity="0.25"></line><line x1="45.166666666666664" y1="0" x2="45.166666666666664" y2="177" fill="rgb(0, 0, 0)" stroke="rgb(66, 66, 66)" stroke-width="1px" opacity="0.25"></line><line x1="67.75" y1="0" x2="67.75" y2="177" fill="rgb(0, 0, 0)" stroke="rgb(66, 66, 66)" stroke-width="1px" opacity="0.25"></line><line x1="90.33333333333333" y1="0" x2="90.33333333333333" y2="177" fill="rgb(0, 0, 0)" stroke="rgb(66, 66, 66)" stroke-width="1px" opacity="0.25"></line><line x1="112.91666666666667" y1="0" x2="112.91666666666667" y2="177" fill="rgb(0, 0, 0)" stroke="rgb(66, 66, 66)" stroke-width="1px" opacity="0.25"></line><line x1="135.5" y1="0" x2="135.5" y2="177" fill="rgb(0, 0, 0)" stroke="rgb(66, 66, 66)" stroke-width="1px" opacity="0.25"></line><line x1="158.08333333333334" y1="0" x2="158.08333333333334" y2="177" fill="rgb(0, 0, 0)" stroke="rgb(66, 66, 66)" stroke-width="1px" opacity="0.25"></line><line x1="180.66666666666666" y1="0" x2="180.66666666666666" y2="177" fill="rgb(0, 0, 0)" stroke="rgb(66, 66, 66)" stroke-width="1px" opacity="0.25"></line><line x1="203.25" y1="0" x2="203.25" y2="177" fill="rgb(0, 0, 0)" stroke="rgb(66, 66, 66)" stroke-width="1px" opacity="0.25"></line><line x1="225.83333333333334" y1="0" x2="225.83333333333334" y2="177" fill="rgb(0, 0, 0)" stroke="rgb(66, 66, 66)" stroke-width="1px" opacity="0.25"></line><line x1="248.41666666666666" y1="0" x2="248.41666666666666" y2="177" fill="rgb(0, 0, 0)" stroke="rgb(66, 66, 66)" stroke-width="1px" opacity="0.25"></line><line x1="271" y1="0" x2="271" y2="177" fill="rgb(0, 0, 0)" stroke="rgb(66, 66, 66)" stroke-width="1px" opacity="0.25"></line></g><g><line x1="0" y1="177" x2="271" y2="177" fill="rgb(0, 0, 0)" stroke="rgb(66, 66, 66)" stroke-width="1px" opacity="0.25"></line><line x1="0" y1="162.25" x2="271" y2="162.25" fill="rgb(0, 0, 0)" stroke="rgb(66, 66, 66)" stroke-width="1px" opacity="0.25"></line><line x1="0" y1="147.5" x2="271" y2="147.5" fill="rgb(0, 0, 0)" stroke="rgb(66, 66, 66)" stroke-width="1px" opacity="0.25"></line><line x1="0" y1="132.75" x2="271" y2="132.75" fill="rgb(0, 0, 0)" stroke="rgb(66, 66, 66)" stroke-width="1px" opacity="0.25"></line><line x1="0" y1="118.00000000000001" x2="271" y2="118.00000000000001" fill="rgb(0, 0, 0)" stroke="rgb(66, 66, 66)" stroke-width="1px" opacity="0.25"></line><line x1="0" y1="103.24999999999999" x2="271" y2="103.24999999999999" fill="rgb(0, 0, 0)" stroke="rgb(66, 66, 66)" stroke-width="1px" opacity="0.25"></line><line x1="0" y1="88.5" x2="271" y2="88.5" fill="rgb(0, 0, 0)" stroke="rgb(66, 66, 66)" stroke-width="1px" opacity="0.25"></line><line x1="0" y1="73.75" x2="271" y2="73.75" fill="rgb(0, 0, 0)" stroke="rgb(66, 66, 66)" stroke-width="1px" opacity="0.25"></line><line x1="0" y1="59.00000000000001" x2="271" y2="59.00000000000001" fill="rgb(0, 0, 0)" stroke="rgb(66, 66, 66)" stroke-width="1px" opacity="0.25"></line><line x1="0" y1="44.25" x2="271" y2="44.25" fill="rgb(0, 0, 0)" stroke="rgb(66, 66, 66)" stroke-width="1px" opacity="0.25"></line><line x1="0" y1="29.499999999999993" x2="271" y2="29.499999999999993" fill="rgb(0, 0, 0)" stroke="rgb(66, 66, 66)" stroke-width="1px" opacity="0.25"></line><line x1="0" y1="14.750000000000007" x2="271" y2="14.750000000000007" fill="rgb(0, 0, 0)" stroke="rgb(66, 66, 66)" stroke-width="1px" opacity="0.25"></line><line x1="0" y1="0" x2="271" y2="0" fill="rgb(0, 0, 0)" stroke="rgb(66, 66, 66)" stroke-width="1px" opacity="0.25"></line></g></g></g><g><g><line x1="0" y1="177" x2="271" y2="177" fill="rgb(0, 0, 0)" stroke="rgb(153, 153, 153)" stroke-width="1.5px"></line></g></g><g><g><line x1="22.583333333333332" y1="0" x2="22.583333333333332" y2="177" fill="rgb(0, 0, 0)" stroke="rgb(153, 153, 153)" stroke-width="1.5px"></line></g></g><g><g><g><g><g><path stroke="rgb(187, 187, 187)" stroke-width="2px" d="M32.74583333333334,-17.63329010009764L33.875,10.968647003173828L35.00416666666667,37.61462688446045L36.13333333333333,57.70554885864259L37.2625,75.75070056915283L38.391666666666666,86.55890846252441L39.520833333333336,91.00182943344117L40.65,100.9307731628418L41.77916666666667,109.2671643257141L42.90833333333333,115.39059410095214L44.0375,119.8529496192932L45.166666666666664,122.99481372833253L46.295833333333334,125.39752359390258L47.425,126.23054771423341L48.55416666666667,127.72958488464354L49.68333333333333,129.27659511566162L50.8125,129.77065687179567L51.94166666666667,129.68426485061644L53.07083333333333,130.91905913352966L54.2,131.83442125320434L55.329166666666666,132.5126835823059L56.458333333333336,132.9654342651367L57.5875,133.67367272377015L58.71666666666667,133.36569929122925L59.84583333333333,132.8556915283203L60.975,133.78365178108214L62.104166666666664,134.49326033592223L63.233333333333334,135.0849956035614L64.3625,135.61909680366517L65.49166666666667,136.0434693336487L66.62083333333332,135.59602460861205L67.75,135.95098361968994L68.87916666666666,136.54108715057373L70.00833333333334,137.05181794166566L71.1375,137.55365858078002L72.26666666666667,138.0481029510498L73.39583333333333,138.33911476135253L74.525,138.6161695957184L75.65416666666667,138.95395879745485L76.78333333333333,138.6957308292389L77.9125,139.20007534027098L79.04166666666667,139.35400438308716L80.17083333333333,139.9222032546997L81.3,140.53995628356932L82.42916666666666,140.50990419387819L83.55833333333334,139.0611217021942L84.6875,139.9609176158905L85.81666666666666,140.7502477645874L86.94583333333334,141.4625008583069L88.075,142.07392106056213L89.20416666666667,142.69363498687744L90.33333333333333,143.1742208480835L91.4625,143.51154584884642L92.59166666666667,143.9335889339447L93.72083333333333,144.24955224990845L94.85,144.47579817771913L95.97916666666667,143.72083859443666L97.10833333333333,144.21409854888915L98.2375,144.99694395065308L99.36666666666666,145.61748218536377L100.49583333333334,146.15957045555115L101.625,146.71779041290284L102.75416666666666,146.85323300361634L103.88333333333334,147.24567694664L105.0125,147.77100896835327L106.14166666666667,147.79277577400208L107.27083333333333,148.05393242835999L108.4,148.58162484169006L109.52916666666667,149.0883156776428L110.65833333333333,149.3498915195465L111.7875,149.85563144683837L112.91666666666667,147.58084411621093L114.04583333333333,146.28388628959655L115.175,148.19833550453185L116.30416666666666,149.25618200302125L117.43333333333334,150.00499725341797L118.5625,150.6877806186676L119.69166666666666,151.27696137428285L120.82083333333334,151.80418114662172L121.95,152.24176230430604L123.07916666666667,152.66805071830748L124.20833333333333,153.06096448898316L125.3375,153.17536330223083L126.46666666666667,153.53422441482545L127.59583333333333,153.65234808921815L128.725,153.48247303962708L129.85416666666669,153.89517583847046L130.98333333333335,154.2798591852188L132.11249999999998,154.66763579845428L133.24166666666665,154.99685978889465L134.37083333333334,155.0867094039917L135.5,155.337607216835L136.62916666666666,155.30581929683686L137.75833333333333,155.6487484693527L138.8875,156.0167895078659L140.01666666666668,155.50062334537506L141.14583333333334,155.50476739406585L142.275,156.0964084148407L143.40416666666667,156.45911676883696L144.53333333333333,156.79459340572356L145.6625,157.12535066604613L146.79166666666666,156.80166473388672L147.92083333333332,157.1075478553772L149.05,157.44013237953186L150.17916666666667,157.5197639465332L151.30833333333334,155.05707509517669L152.4375,156.30956528186798L153.56666666666666,156.9931898355484L154.69583333333333,157.42254338264465L155.825,157.79161550998688L156.95416666666668,158.16060464382173L158.08333333333334,158.46646244525908L159.2125,158.72962079048156L160.34166666666667,158.98127961158752L161.47083333333333,158.5401015996933L162.6,158.4485471010208L163.72916666666666,158.82734072208405L164.85833333333332,159.14264571666718L165.9875,159.38815739154816L167.11666666666667,159.3690660715103L168.24583333333334,159.55364785194396L169.375,159.6523243188858L170.50416666666666,159.8161450624466L171.63333333333333,159.57912123203278L172.7625,159.7998797416687L173.89166666666668,160.03485264778138L175.02083333333334,160.27246024608613L176.15,159.8170973777771L177.27916666666667,159.7967963218689L178.40833333333333,160.15443925857545L179.5375,160.40721497535705L180.66666666666666,160.6130979537964L181.79583333333332,160.80655722618104L182.925,160.2590996980667L184.05416666666667,160.3856296300888L185.18333333333334,160.6845412969589L186.3125,160.9158160686493L187.44166666666666,161.0993330001831L188.57083333333333,161.28430020809174L189.7,160.36293442249297L190.82916666666668,160.50904660224916L191.95833333333334,160.87350907325745L193.0875,161.18082840442656L194.21666666666667,161.41264474391937L195.34583333333333,161.56653439998627L196.475,161.7526325702667L197.60416666666666,161.63981907367707L198.73333333333332,160.18586988449096L199.8625,160.9147371530533L200.99166666666667,161.3656254053116L202.12083333333334,161.66066591739656L203.25,161.8920490026474L204.37916666666666,162.0700053691864L205.50833333333333,162.2260528564453L206.6375,162.38949801921845L207.76666666666668,162.0584073781967L208.89583333333334,162.17484304904937L210.025,162.37024071216584L211.15416666666667,162.55283908843995L212.28333333333333,162.66246085166932L213.4125,162.24207060337068L214.54166666666666,162.5161250114441L215.67083333333332,162.73271837234498L216.8,162.86901762485505L217.92916666666667,162.59844753742217L219.05833333333334,162.73878674507142L220.1875,162.84273400306702L221.31666666666666,163.00333065986632L222.44583333333333,163.05625660419463L223.575,162.52280669212342L224.70416666666668,162.8917156457901L225.83333333333334,163.08886601924897L226.9625,163.21447739601135L228.09166666666667,163.25183432102205L229.22083333333333,162.74356520175934L230.35,163.14355733394623L231.47916666666666,163.3643622636795L232.60833333333332,163.42570571899415L233.7375,163.0903444290161L234.86666666666667,163.1746630191803L235.99583333333334,163.3792040348053L237.125,163.52118904590606L238.25416666666666,163.5691367864609L239.38333333333333,163.29344220161437L240.5125,163.55451867580413L241.64166666666668,163.62611112594604L242.77083333333334,163.72469475269318L243.9,163.50405580997466L245.02916666666667,161.5859956741333L246.15833333333333,162.77640812397004L247.2875,163.36869058609008" style="fill: none;" fill="none"></path></g></g></g></g></g></g><g transform="translate(30, 177)" clip-path="url(#clip_1)"><clipPath id="clip_1"><rect width="271" height="23"></rect></clipPath><g><g><line x1="0" y1="0" x2="0" y2="5" style="visibility: inherit;" fill="rgb(0, 0, 0)" stroke="rgb(204, 204, 204)" stroke-width="1px"></line><line x1="22.583333333333332" y1="0" x2="22.583333333333332" y2="5" style="visibility: inherit;" fill="rgb(0, 0, 0)" stroke="rgb(204, 204, 204)" stroke-width="1px"></line><line x1="45.166666666666664" y1="0" x2="45.166666666666664" y2="5" style="visibility: inherit;" fill="rgb(0, 0, 0)" stroke="rgb(204, 204, 204)" stroke-width="1px"></line><line x1="67.75" y1="0" x2="67.75" y2="5" style="visibility: inherit;" fill="rgb(0, 0, 0)" stroke="rgb(204, 204, 204)" stroke-width="1px"></line><line x1="90.33333333333333" y1="0" x2="90.33333333333333" y2="5" style="visibility: inherit;" fill="rgb(0, 0, 0)" stroke="rgb(204, 204, 204)" stroke-width="1px"></line><line x1="112.91666666666667" y1="0" x2="112.91666666666667" y2="5" style="visibility: inherit;" fill="rgb(0, 0, 0)" stroke="rgb(204, 204, 204)" stroke-width="1px"></line><line x1="135.5" y1="0" x2="135.5" y2="5" style="visibility: inherit;" fill="rgb(0, 0, 0)" stroke="rgb(204, 204, 204)" stroke-width="1px"></line><line x1="158.08333333333334" y1="0" x2="158.08333333333334" y2="5" style="visibility: inherit;" fill="rgb(0, 0, 0)" stroke="rgb(204, 204, 204)" stroke-width="1px"></line><line x1="180.66666666666666" y1="0" x2="180.66666666666666" y2="5" style="visibility: inherit;" fill="rgb(0, 0, 0)" stroke="rgb(204, 204, 204)" stroke-width="1px"></line><line x1="203.25" y1="0" x2="203.25" y2="5" style="visibility: inherit;" fill="rgb(0, 0, 0)" stroke="rgb(204, 204, 204)" stroke-width="1px"></line><line x1="225.83333333333334" y1="0" x2="225.83333333333334" y2="5" style="visibility: inherit;" fill="rgb(0, 0, 0)" stroke="rgb(204, 204, 204)" stroke-width="1px"></line><line x1="248.41666666666666" y1="0" x2="248.41666666666666" y2="5" style="visibility: inherit;" fill="rgb(0, 0, 0)" stroke="rgb(204, 204, 204)" stroke-width="1px"></line><line x1="271" y1="0" x2="271" y2="5" style="visibility: inherit;" fill="rgb(0, 0, 0)" stroke="rgb(204, 204, 204)" stroke-width="1px"></line></g><g transform="translate(0, 8)"><text x="0" y="0" dx="0em" dy="0.95em" style="text-anchor: middle; visibility: hidden; font-family: Roboto, sans-serif; font-size: 12px; font-weight: 200;" fill="rgb(33, 33, 33)" stroke="none" stroke-width="1px">-20</text><text x="22.583333333333332" y="0" dx="0em" dy="0.95em" style="text-anchor: middle; visibility: inherit; font-family: Roboto, sans-serif; font-size: 12px; font-weight: 200;" fill="rgb(33, 33, 33)" stroke="none" stroke-width="1px">0</text><text x="45.166666666666664" y="0" dx="0em" dy="0.95em" style="text-anchor: middle; visibility: hidden; font-family: Roboto, sans-serif; font-size: 12px; font-weight: 200;" fill="rgb(33, 33, 33)" stroke="none" stroke-width="1px">20</text><text x="67.75" y="0" dx="0em" dy="0.95em" style="text-anchor: middle; visibility: inherit; font-family: Roboto, sans-serif; font-size: 12px; font-weight: 200;" fill="rgb(33, 33, 33)" stroke="none" stroke-width="1px">40</text><text x="90.33333333333333" y="0" dx="0em" dy="0.95em" style="text-anchor: middle; visibility: hidden; font-family: Roboto, sans-serif; font-size: 12px; font-weight: 200;" fill="rgb(33, 33, 33)" stroke="none" stroke-width="1px">60</text><text x="112.91666666666667" y="0" dx="0em" dy="0.95em" style="text-anchor: middle; visibility: inherit; font-family: Roboto, sans-serif; font-size: 12px; font-weight: 200;" fill="rgb(33, 33, 33)" stroke="none" stroke-width="1px">80</text><text x="135.5" y="0" dx="0em" dy="0.95em" style="text-anchor: middle; visibility: hidden; font-family: Roboto, sans-serif; font-size: 12px; font-weight: 200;" fill="rgb(33, 33, 33)" stroke="none" stroke-width="1px">100</text><text x="158.08333333333334" y="0" dx="0em" dy="0.95em" style="text-anchor: middle; visibility: inherit; font-family: Roboto, sans-serif; font-size: 12px; font-weight: 200;" fill="rgb(33, 33, 33)" stroke="none" stroke-width="1px">120</text><text x="180.66666666666666" y="0" dx="0em" dy="0.95em" style="text-anchor: middle; visibility: hidden; font-family: Roboto, sans-serif; font-size: 12px; font-weight: 200;" fill="rgb(33, 33, 33)" stroke="none" stroke-width="1px">140</text><text x="203.25" y="0" dx="0em" dy="0.95em" style="text-anchor: middle; visibility: inherit; font-family: Roboto, sans-serif; font-size: 12px; font-weight: 200;" fill="rgb(33, 33, 33)" stroke="none" stroke-width="1px">160</text><text x="225.83333333333334" y="0" dx="0em" dy="0.95em" style="text-anchor: middle; visibility: hidden; font-family: Roboto, sans-serif; font-size: 12px; font-weight: 200;" fill="rgb(33, 33, 33)" stroke="none" stroke-width="1px">180</text><text x="248.41666666666666" y="0" dx="0em" dy="0.95em" style="text-anchor: middle; visibility: inherit; font-family: Roboto, sans-serif; font-size: 12px; font-weight: 200;" fill="rgb(33, 33, 33)" stroke="none" stroke-width="1px">200</text><text x="271" y="0" dx="0em" dy="0.95em" style="text-anchor: middle; visibility: hidden; font-family: Roboto, sans-serif; font-size: 12px; font-weight: 200;" fill="rgb(33, 33, 33)" stroke="none" stroke-width="1px">220</text></g><line x1="0" y1="0" x2="271" y2="0" fill="rgb(0, 0, 0)" stroke="rgb(204, 204, 204)" stroke-width="1px"></line></g></g></g></g></svg>