<svg viewBox="0 0 301 200" xmlns="http://www.w3.org/2000/svg"><g><g><g><g><g><line x1="40" y1="177" x2="35" y2="177" style="visibility: inherit;" fill="rgb(0, 0, 0)" stroke="rgb(204, 204, 204)" stroke-width="1px"></line><line x1="40" y1="164.35714285714286" x2="35" y2="164.35714285714286" style="visibility: inherit;" fill="rgb(0, 0, 0)" stroke="rgb(204, 204, 204)" stroke-width="1px"></line><line x1="40" y1="151.71428571428572" x2="35" y2="151.71428571428572" style="visibility: inherit;" fill="rgb(0, 0, 0)" stroke="rgb(204, 204, 204)" stroke-width="1px"></line><line x1="40" y1="139.07142857142856" x2="35" y2="139.07142857142856" style="visibility: inherit;" fill="rgb(0, 0, 0)" stroke="rgb(204, 204, 204)" stroke-width="1px"></line><line x1="40" y1="126.42857142857143" x2="35" y2="126.42857142857143" style="visibility: inherit;" fill="rgb(0, 0, 0)" stroke="rgb(204, 204, 204)" stroke-width="1px"></line><line x1="40" y1="113.78571428571428" x2="35" y2="113.78571428571428" style="visibility: inherit;" fill="rgb(0, 0, 0)" stroke="rgb(204, 204, 204)" stroke-width="1px"></line><line x1="40" y1="101.14285714285714" x2="35" y2="101.14285714285714" style="visibility: inherit;" fill="rgb(0, 0, 0)" stroke="rgb(204, 204, 204)" stroke-width="1px"></line><line x1="40" y1="88.5" x2="35" y2="88.5" style="visibility: inherit;" fill="rgb(0, 0, 0)" stroke="rgb(204, 204, 204)" stroke-width="1px"></line><line x1="40" y1="75.85714285714286" x2="35" y2="75.85714285714286" style="visibility: inherit;" fill="rgb(0, 0, 0)" stroke="rgb(204, 204, 204)" stroke-width="1px"></line><line x1="40" y1="63.21428571428571" x2="35" y2="63.21428571428571" style="visibility: inherit;" fill="rgb(0, 0, 0)" stroke="rgb(204, 204, 204)" stroke-width="1px"></line><line x1="40" y1="50.57142857142857" x2="35" y2="50.57142857142857" style="visibility: inherit;" fill="rgb(0, 0, 0)" stroke="rgb(204, 204, 204)" stroke-width="1px"></line><line x1="40" y1="37.92857142857143" x2="35" y2="37.92857142857143" style="visibility: inherit;" fill="rgb(0, 0, 0)" stroke="rgb(204, 204, 204)" stroke-width="1px"></line><line x1="40" y1="25.285714285714295" x2="35" y2="25.285714285714295" style="visibility: inherit;" fill="rgb(0, 0, 0)" stroke="rgb(204, 204, 204)" stroke-width="1px"></line><line x1="40" y1="12.642857142857137" x2="35" y2="12.642857142857137" style="visibility: inherit;" fill="rgb(0, 0, 0)" stroke="rgb(204, 204, 204)" stroke-width="1px"></line><line x1="40" y1="0" x2="35" y2="0" style="visibility: inherit;" fill="rgb(0, 0, 0)" stroke="rgb(204, 204, 204)" stroke-width="1px"></line></g><g transform="translate(30, 0)"><text x="0" y="177" dx="0em" dy="0.3em" style="text-anchor: end; visibility: hidden; font-family: Roboto, sans-serif; font-size: 12px; font-weight: 200;" fill="rgb(33, 33, 33)" stroke="none" stroke-width="1px">0</text><text x="0" y="164.35714285714286" dx="0em" dy="0.3em" style="text-anchor: end; visibility: inherit; font-family: Roboto, sans-serif; font-size: 12px; font-weight: 200;" fill="rgb(33, 33, 33)" stroke="none" stroke-width="1px">50</text><text x="0" y="151.71428571428572" dx="0em" dy="0.3em" style="text-anchor: end; visibility: hidden; font-family: Roboto, sans-serif; font-size: 12px; font-weight: 200;" fill="rgb(33, 33, 33)" stroke="none" stroke-width="1px">100</text><text x="0" y="139.07142857142856" dx="0em" dy="0.3em" style="text-anchor: end; visibility: inherit; font-family: Roboto, sans-serif; font-size: 12px; font-weight: 200;" fill="rgb(33, 33, 33)" stroke="none" stroke-width="1px">150</text><text x="0" y="126.42857142857143" dx="0em" dy="0.3em" style="text-anchor: end; visibility: hidden; font-family: Roboto, sans-serif; font-size: 12px; font-weight: 200;" fill="rgb(33, 33, 33)" stroke="none" stroke-width="1px">200</text><text x="0" y="113.78571428571428" dx="0em" dy="0.3em" style="text-anchor: end; visibility: inherit; font-family: Roboto, sans-serif; font-size: 12px; font-weight: 200;" fill="rgb(33, 33, 33)" stroke="none" stroke-width="1px">250</text><text x="0" y="101.14285714285714" dx="0em" dy="0.3em" style="text-anchor: end; visibility: hidden; font-family: Roboto, sans-serif; font-size: 12px; font-weight: 200;" fill="rgb(33, 33, 33)" stroke="none" stroke-width="1px">300</text><text x="0" y="88.5" dx="0em" dy="0.3em" style="text-anchor: end; visibility: inherit; font-family: Roboto, sans-serif; font-size: 12px; font-weight: 200;" fill="rgb(33, 33, 33)" stroke="none" stroke-width="1px">350</text><text x="0" y="75.85714285714286" dx="0em" dy="0.3em" style="text-anchor: end; visibility: hidden; font-family: Roboto, sans-serif; font-size: 12px; font-weight: 200;" fill="rgb(33, 33, 33)" stroke="none" stroke-width="1px">400</text><text x="0" y="63.21428571428571" dx="0em" dy="0.3em" style="text-anchor: end; visibility: inherit; font-family: Roboto, sans-serif; font-size: 12px; font-weight: 200;" fill="rgb(33, 33, 33)" stroke="none" stroke-width="1px">450</text><text x="0" y="50.57142857142857" dx="0em" dy="0.3em" style="text-anchor: end; visibility: hidden; font-family: Roboto, sans-serif; font-size: 12px; font-weight: 200;" fill="rgb(33, 33, 33)" stroke="none" stroke-width="1px">500</text><text x="0" y="37.92857142857143" dx="0em" dy="0.3em" style="text-anchor: end; visibility: inherit; font-family: Roboto, sans-serif; font-size: 12px; font-weight: 200;" fill="rgb(33, 33, 33)" stroke="none" stroke-width="1px">550</text><text x="0" y="25.285714285714295" dx="0em" dy="0.3em" style="text-anchor: end; visibility: hidden; font-family: Roboto, sans-serif; font-size: 12px; font-weight: 200;" fill="rgb(33, 33, 33)" stroke="none" stroke-width="1px">600</text><text x="0" y="12.642857142857137" dx="0em" dy="0.3em" style="text-anchor: end; visibility: inherit; font-family: Roboto, sans-serif; font-size: 12px; font-weight: 200;" fill="rgb(33, 33, 33)" stroke="none" stroke-width="1px">650</text><text x="0" y="0" dx="0em" dy="0.3em" style="text-anchor: end; visibility: hidden; font-family: Roboto, sans-serif; font-size: 12px; font-weight: 200;" fill="rgb(33, 33, 33)" stroke="none" stroke-width="1px">700</text></g><line x1="40" y1="0" x2="40" y2="177" fill="rgb(0, 0, 0)" stroke="rgb(204, 204, 204)" stroke-width="1px"></line></g></g><g transform="translate(40, 0)" clip-path="url(#clip_0)"><clipPath id="clip_0"><rect width="261" height="177"></rect></clipPath><g><g><g><line x1="0" y1="0" x2="0" y2="177" fill="rgb(0, 0, 0)" stroke="rgb(66, 66, 66)" stroke-width="1px" opacity="0.25"></line><line x1="21.75" y1="0" x2="21.75" y2="177" fill="rgb(0, 0, 0)" stroke="rgb(66, 66, 66)" stroke-width="1px" opacity="0.25"></line><line x1="43.5" y1="0" x2="43.5" y2="177" fill="rgb(0, 0, 0)" stroke="rgb(66, 66, 66)" stroke-width="1px" opacity="0.25"></line><line x1="65.25" y1="0" x2="65.25" y2="177" fill="rgb(0, 0, 0)" stroke="rgb(66, 66, 66)" stroke-width="1px" opacity="0.25"></line><line x1="87" y1="0" x2="87" y2="177" fill="rgb(0, 0, 0)" stroke="rgb(66, 66, 66)" stroke-width="1px" opacity="0.25"></line><line x1="108.75" y1="0" x2="108.75" y2="177" fill="rgb(0, 0, 0)" stroke="rgb(66, 66, 66)" stroke-width="1px" opacity="0.25"></line><line x1="130.5" y1="0" x2="130.5" y2="177" fill="rgb(0, 0, 0)" stroke="rgb(66, 66, 66)" stroke-width="1px" opacity="0.25"></line><line x1="152.25" y1="0" x2="152.25" y2="177" fill="rgb(0, 0, 0)" stroke="rgb(66, 66, 66)" stroke-width="1px" opacity="0.25"></line><line x1="174" y1="0" x2="174" y2="177" fill="rgb(0, 0, 0)" stroke="rgb(66, 66, 66)" stroke-width="1px" opacity="0.25"></line><line x1="195.75" y1="0" x2="195.75" y2="177" fill="rgb(0, 0, 0)" stroke="rgb(66, 66, 66)" stroke-width="1px" opacity="0.25"></line><line x1="217.5" y1="0" x2="217.5" y2="177" fill="rgb(0, 0, 0)" stroke="rgb(66, 66, 66)" stroke-width="1px" opacity="0.25"></line><line x1="239.25" y1="0" x2="239.25" y2="177" fill="rgb(0, 0, 0)" stroke="rgb(66, 66, 66)" stroke-width="1px" opacity="0.25"></line><line x1="261" y1="0" x2="261" y2="177" fill="rgb(0, 0, 0)" stroke="rgb(66, 66, 66)" stroke-width="1px" opacity="0.25"></line></g><g><line x1="0" y1="177" x2="261" y2="177" fill="rgb(0, 0, 0)" stroke="rgb(66, 66, 66)" stroke-width="1px" opacity="0.25"></line><line x1="0" y1="164.35714285714286" x2="261" y2="164.35714285714286" fill="rgb(0, 0, 0)" stroke="rgb(66, 66, 66)" stroke-width="1px" opacity="0.25"></line><line x1="0" y1="151.71428571428572" x2="261" y2="151.71428571428572" fill="rgb(0, 0, 0)" stroke="rgb(66, 66, 66)" stroke-width="1px" opacity="0.25"></line><line x1="0" y1="139.07142857142856" x2="261" y2="139.07142857142856" fill="rgb(0, 0, 0)" stroke="rgb(66, 66, 66)" stroke-width="1px" opacity="0.25"></line><line x1="0" y1="126.42857142857143" x2="261" y2="126.42857142857143" fill="rgb(0, 0, 0)" stroke="rgb(66, 66, 66)" stroke-width="1px" opacity="0.25"></line><line x1="0" y1="113.78571428571428" x2="261" y2="113.78571428571428" fill="rgb(0, 0, 0)" stroke="rgb(66, 66, 66)" stroke-width="1px" opacity="0.25"></line><line x1="0" y1="101.14285714285714" x2="261" y2="101.14285714285714" fill="rgb(0, 0, 0)" stroke="rgb(66, 66, 66)" stroke-width="1px" opacity="0.25"></line><line x1="0" y1="88.5" x2="261" y2="88.5" fill="rgb(0, 0, 0)" stroke="rgb(66, 66, 66)" stroke-width="1px" opacity="0.25"></line><line x1="0" y1="75.85714285714286" x2="261" y2="75.85714285714286" fill="rgb(0, 0, 0)" stroke="rgb(66, 66, 66)" stroke-width="1px" opacity="0.25"></line><line x1="0" y1="63.21428571428571" x2="261" y2="63.21428571428571" fill="rgb(0, 0, 0)" stroke="rgb(66, 66, 66)" stroke-width="1px" opacity="0.25"></line><line x1="0" y1="50.57142857142857" x2="261" y2="50.57142857142857" fill="rgb(0, 0, 0)" stroke="rgb(66, 66, 66)" stroke-width="1px" opacity="0.25"></line><line x1="0" y1="37.92857142857143" x2="261" y2="37.92857142857143" fill="rgb(0, 0, 0)" stroke="rgb(66, 66, 66)" stroke-width="1px" opacity="0.25"></line><line x1="0" y1="25.285714285714295" x2="261" y2="25.285714285714295" fill="rgb(0, 0, 0)" stroke="rgb(66, 66, 66)" stroke-width="1px" opacity="0.25"></line><line x1="0" y1="12.642857142857137" x2="261" y2="12.642857142857137" fill="rgb(0, 0, 0)" stroke="rgb(66, 66, 66)" stroke-width="1px" opacity="0.25"></line><line x1="0" y1="0" x2="261" y2="0" fill="rgb(0, 0, 0)" stroke="rgb(66, 66, 66)" stroke-width="1px" opacity="0.25"></line></g></g></g><g><g><line x1="0" y1="177" x2="261" y2="177" fill="rgb(0, 0, 0)" stroke="rgb(153, 153, 153)" stroke-width="1.5px"></line></g></g><g><g><line x1="21.75" y1="0" x2="21.75" y2="177" fill="rgb(0, 0, 0)" stroke="rgb(153, 153, 153)" stroke-width="1.5px"></line></g></g><g><g><g><g><g><path stroke="rgb(255, 112, 67)" stroke-width="2px" d="M23.924999999999997,-1.0257474084081128L25.012500000000003,13.819142948759694L26.1,32.68213316421913L27.1875,54.99023499556585L28.275000000000002,73.58212734360644L29.3625,96.40025289837402L30.45,113.02600300504383L31.5375,122.9538080007109L32.625,129.96956312316564L33.712500000000006,134.4438532317502L34.8,136.9481531980561L35.8875,138.35037227813697L36.975,139.46425260729023L38.0625,140.27050713217378L39.15,140.93056691916004L40.237500000000004,141.4887272738541L41.324999999999996,141.95438361858112L42.4125,142.36400150554704L43.5,142.7611731397095L44.5875,143.16630999406829L45.675,143.5705694188408L46.7625,144.0034798022781L47.849999999999994,144.4151740214822L48.9375,144.8021488788013L50.025000000000006,145.17125895642158L51.1125,145.58657790760188L52.2,145.9777034499532L53.2875,146.49907389770541L54.375,147.01045857969075L55.4625,147.48269750072342L56.550000000000004,148.0208641708382L57.637499999999996,148.63803160350722L58.725,149.12813516315651L59.8125,149.75014069554837L60.9,150.59385059686684L61.9875,151.61155665619316L63.075,152.12565195140422L64.1625,153.10496764920242L65.25,153.41547601213378L66.33749999999999,154.0717860348422L67.42500000000001,154.68179932145114L68.5125,155.833270258179L69.6,156.11683891623707L70.6875,156.1170407887071L71.775,156.0270931299243L72.8625,156.9090895092174L73.95,157.36220486956418L75.0375,157.5561774488048L76.125,157.92399597210974L77.2125,157.98310096984525L78.3,158.30048641024194L79.38749999999999,156.75296466282882L80.47500000000001,97.36895461378721L81.5625,55.09879534080103L82.64999999999999,29.896723284274024L83.73750000000001,14.97646320465837L84.825,6.214141385405893L85.9125,1.1532002679062454L87,-1.650619773687129L90.2625,-1.5143817910383L91.35,11.24668788966276L92.4375,46.33273671538256L93.525,82.85511638574465L94.6125,107.71390394661145L95.69999999999999,123.03961483326403L96.78750000000001,132.44479287805552L97.875,138.274861819537L98.96249999999999,141.83750028264018L100.05000000000001,144.11528758413488L101.1375,145.69151316153005L102.225,146.82304927613816L103.3125,147.68031594612376L104.4,148.3658391212457L105.4875,148.9404090121238L106.575,149.43823029671344L107.6625,149.89371178119492L108.75,150.27368558224933L109.8375,150.63030846500249L110.925,150.92735511858714L112.01249999999999,151.23452883304543L113.10000000000001,151.4833622539637L114.1875,151.74283434282185L115.27499999999999,151.94717762595678L116.36250000000001,152.15936160312708L117.45,152.34307098496498L118.5375,152.53028115037492L119.625,152.7347085810592L120.7125,152.890306380325L121.8,153.01325045678735L122.8875,153.1181371288436L123.975,153.1986675817844L125.0625,153.23868743523136L126.15,153.273708602845L127.2375,153.3509698254905L128.325,153.42283836938051L129.4125,153.51173506508533L130.5,153.63732657895076L131.5875,153.7440733373328L132.67499999999998,153.83982807919935L133.7625,153.9463723113868L134.85000000000002,154.06265898427907L135.9375,154.14855093953508L137.025,154.26236746296073L138.1125,154.41340311763415L139.2,154.56011175583438L140.2875,154.7144610092763L141.375,154.87296481793325L142.46249999999998,155.04553392616035L143.55,155.21383685262703L144.63750000000002,155.40284943998023L145.725,155.60646158659557L146.8125,155.81541270547993L147.9,156.0518050094138L148.98749999999998,156.29365894210196L150.075,156.5247456625896L151.16250000000002,156.75482150992818L152.25,157.00128353095693L153.3375,157.26199886090114L154.425,157.53776817291626L155.5125,157.80639127658736L156.6,158.05749116418068L157.6875,158.30861952412224L158.77499999999998,158.5678172266455L159.8625,158.86432253377606L160.95000000000002,159.14042083872965L162.0375,159.37699371853495L163.125,159.5715360225551L164.2125,159.78529980915948L165.29999999999998,160.03387125686845L166.3875,160.26740581424943L167.47500000000002,160.49741630610683L168.5625,160.71929650694815L169.65,160.8807113226608L170.7375,161.08987321562842L171.825,161.31477118889856L172.9125,161.5009975007624L174,161.64677231332365L175.08749999999998,161.75123761502755L176.175,161.83294049948876L177.26250000000002,161.9319140167517L178.35,162.07053822197554L179.4375,162.1727098263215L180.525,162.22509897274952L181.61249999999998,162.2733530782821L182.7,162.31903664686112L183.78750000000002,162.3583546401814L184.875,162.39144648467038L185.9625,162.38510184727545L187.05,162.36005901573134L188.1375,162.32844844088063L189.225,162.31969962962674L190.3125,162.30453105532905L191.39999999999998,162.30417164702627L192.4875,162.30819703859592L193.57500000000002,162.3411869369724L194.6625,162.33107099658636L195.75,162.2661149948024L196.8375,162.31972115360227L197.92499999999998,162.2957080910697L199.0125,162.24796073677422L200.10000000000002,162.19908174645556L201.1875,162.20267215752736L202.275,162.1783824300842L203.3625,162.16129067108068L204.45,162.12015113125122L205.5375,162.06769502270998L206.625,162.00716609025127L207.71249999999998,161.94211794595114L208.8,161.90281743548712L209.88750000000002,161.8411260604831L210.975,161.78882737622777L212.0625,161.68641852002727L213.15,161.55124082584868L214.23749999999998,161.3913436057038L215.325,161.2362823226543L216.41250000000002,161.00678348835402L217.5,160.7256937851162L218.5875,160.44898844514196L219.675,160.1119587147554L220.7625,159.7500723322991L221.85,159.5716083233471L222.9375,159.45515889398035L224.02499999999998,159.18789352364408L225.1125,158.92644160211893L226.20000000000002,158.6795271316815L227.2875,158.4155887373306L228.375,158.15265359204264L229.4625,157.94465597620075L230.54999999999998,157.76188808558092L231.6375,157.69617717595096L232.72500000000002,157.54585014799522L233.8125,157.42873693031498L234.9,157.36858776104197L235.9875,157.3400373655747L237.075,157.31346125339894L238.1625,157.30764515065124" style="fill: none;" fill="none"></path></g></g></g></g><g opacity="0.2"><g><g><g><path stroke="rgb(255, 112, 67)" stroke-width="2px" d="M22.8375,-3.738393467494405L23.924999999999997,2.104529506138392L25.012500000000003,31.276734008789052L26.1,57.30965318952289L27.1875,85.85037074497767L28.275000000000002,100.16883087158203L29.3625,129.66929901123046L30.45,137.5457550266811L31.5375,137.69544139317102L32.625,140.42956342424665L33.712500000000006,141.13093950544084L34.8,140.69642617361887L35.8875,140.45095380510602L36.975,141.1337637765067L38.0625,141.47932028634207L39.15,141.9203772844587L40.237500000000004,142.32582608904158L41.324999999999996,142.6527971976144L42.4125,142.97839089529856L43.5,143.3569088091169L44.5875,143.7740019444057L45.675,144.17695057460242L46.7625,144.65284024919782L47.849999999999994,145.032712424142L48.9375,145.3826095145089L50.025000000000006,145.72492312840055L51.1125,146.2095556967599L52.2,146.56439140319824L53.2875,147.28112928118026L54.375,147.77753543308805L55.4625,148.19105578831264L56.550000000000004,148.82811411176408L57.637499999999996,149.56378270830427L58.725,149.8632904815674L59.8125,150.6831489780971L60.9,151.85941543579102L61.9875,153.13811573573523L63.075,152.89679489135742L64.1625,154.57394119262696L65.25,153.8812385559082L66.33749999999999,155.05625106811524L67.42500000000001,155.59681925092426L68.5125,157.56047666277203L69.6,156.54219190325057L70.6875,156.11734359741212L71.775,155.89217164175852L72.8625,158.23208407810756L73.95,158.04187791006905L75.0375,157.84713631766184L76.125,158.47572375706264L77.2125,158.0717584664481L78.3,158.77656457083566L79.38749999999999,154.43168204171317L80.47500000000001,8.292939540318079L81.5625,-8.30644356863841L89.175,-3.5189028494698773L90.2625,1.0318929617745547L91.35,30.388292410714293L92.4375,98.96180995396205L93.525,137.63868589128768L94.6125,145.00208528791154L95.69999999999999,146.0281811632429L96.78750000000001,146.55255994524273L97.875,147.01996523175922L98.96249999999999,147.1814579772949L100.05000000000001,147.53196853637695L101.1375,148.05585152762276L102.225,148.52035344805034L103.3125,148.96621595110213L104.4,149.3941238839286L105.4875,149.802263848441L106.575,150.18496222359795L107.6625,150.57693400791712L108.75,150.8436462838309L109.8375,151.16524278913226L110.925,151.37292509896415L112.01249999999999,151.69528940473285L113.10000000000001,151.8566123853411L114.1875,152.1320424761091L115.27499999999999,152.25369255065917L116.36250000000001,152.47763756888256L117.45,152.6186350577218L118.5375,152.8110963984898L119.625,153.04134972708565L120.7125,153.12370307922365L121.8,153.1976665714809L122.8875,153.275467136928L123.975,153.3194632611956L125.0625,153.29871721540178L126.15,153.32624035426548L127.2375,153.46686165945871L128.325,153.53064118521553L129.4125,153.6450801086426L130.5,153.8257138497489L131.5875,153.9041934749058L132.67499999999998,153.98346019199917L133.7625,154.10618865966796L134.85000000000002,154.23708899361748L135.9375,154.27738887241907L137.025,154.43309224809917L138.1125,154.63995659964425L139.2,154.78017471313476L140.2875,154.94598488943916L141.375,155.11072053091866L142.46249999999998,155.304387588501L143.55,155.466291242327L144.63750000000002,155.68636832101004L145.725,155.91187980651856L146.8125,156.1288393838065L147.9,156.40639346531458L148.98749999999998,156.65643984113422L150.075,156.871375743321L151.16250000000002,157.0999352809361L152.25,157.3709765625L153.3375,157.65307185581753L154.425,157.95142214093892L155.5125,158.20932593209403L156.6,158.4341409955706L157.6875,158.6853120640346L158.77499999999998,158.9566137804304L159.8625,159.30908049447197L160.95000000000002,159.55456829616L162.0375,159.7318530382429L163.125,159.86334947858538L164.2125,160.105945489066L165.29999999999998,160.40672842843193L166.3875,160.61770765032088L167.47500000000002,160.84243204389298L168.5625,161.0521168082101L169.65,161.12283354622977L170.7375,161.40361605507988L171.825,161.6521181488037L172.9125,161.78033696855817L174,161.86543453216552L175.08749999999998,161.90793556758334L176.175,161.9554948261806L177.26250000000002,162.08037429264616L178.35,162.27847452981132L179.4375,162.3259672328404L180.525,162.30368269239153L181.61249999999998,162.345734236581L182.7,162.3875619997297L183.78750000000002,162.41733163016184L184.875,162.4410842514038L185.9625,162.37558489118302L187.05,162.3224947684152L188.1375,162.28103257860457L189.225,162.3065764127459L190.3125,162.28177819388253L191.39999999999998,162.30363253457205L192.4875,162.3142351259504L193.57500000000002,162.39067178453718L194.6625,162.31589708600725L195.75,162.16868099212647L196.8375,162.40013039180212L197.92499999999998,162.25968849727087L199.0125,162.17633970533097L200.10000000000002,162.1257632609776L201.1875,162.20805777413506L202.275,162.1419478389195L203.3625,162.13565303257533L204.45,162.05844182150705L205.5375,161.98901085989814L206.625,161.9163726915632L207.71249999999998,161.8445457295009L208.8,161.84386666979108L209.88750000000002,161.74858899797712L210.975,161.7103793498448L212.0625,161.5328052357265L213.15,161.3484742845808L214.23749999999998,161.15149777548655L215.325,161.00369039808L216.41250000000002,160.6625352369036L217.5,160.3040592302595L218.5875,160.03393043518068L219.675,159.6064141191755L220.7625,159.20724275861468L221.85,159.30391230991907L222.9375,159.28048474993022L224.02499999999998,158.78699546813965L225.1125,158.5342637198312L226.20000000000002,158.3091554260254L227.2875,158.01968114580427L228.375,157.75825087411064L229.4625,157.63265955243793L230.54999999999998,157.48773624965122L231.6375,157.597610811506L232.72500000000002,157.32035960606166L233.8125,157.25306710379465L234.9,157.2783640071324L235.9875,157.29721177237374L237.075,157.27359708513532L238.1625,157.29892099652972" style="fill: none;" fill="none"></path></g></g></g></g></g></g><g transform="translate(40, 177)" clip-path="url(#clip_1)"><clipPath id="clip_1"><rect width="261" height="23"></rect></clipPath><g><g><line x1="0" y1="0" x2="0" y2="5" style="visibility: inherit;" fill="rgb(0, 0, 0)" stroke="rgb(204, 204, 204)" stroke-width="1px"></line><line x1="21.75" y1="0" x2="21.75" y2="5" style="visibility: inherit;" fill="rgb(0, 0, 0)" stroke="rgb(204, 204, 204)" stroke-width="1px"></line><line x1="43.5" y1="0" x2="43.5" y2="5" style="visibility: inherit;" fill="rgb(0, 0, 0)" stroke="rgb(204, 204, 204)" stroke-width="1px"></line><line x1="65.25" y1="0" x2="65.25" y2="5" style="visibility: inherit;" fill="rgb(0, 0, 0)" stroke="rgb(204, 204, 204)" stroke-width="1px"></line><line x1="87" y1="0" x2="87" y2="5" style="visibility: inherit;" fill="rgb(0, 0, 0)" stroke="rgb(204, 204, 204)" stroke-width="1px"></line><line x1="108.75" y1="0" x2="108.75" y2="5" style="visibility: inherit;" fill="rgb(0, 0, 0)" stroke="rgb(204, 204, 204)" stroke-width="1px"></line><line x1="130.5" y1="0" x2="130.5" y2="5" style="visibility: inherit;" fill="rgb(0, 0, 0)" stroke="rgb(204, 204, 204)" stroke-width="1px"></line><line x1="152.25" y1="0" x2="152.25" y2="5" style="visibility: inherit;" fill="rgb(0, 0, 0)" stroke="rgb(204, 204, 204)" stroke-width="1px"></line><line x1="174" y1="0" x2="174" y2="5" style="visibility: inherit;" fill="rgb(0, 0, 0)" stroke="rgb(204, 204, 204)" stroke-width="1px"></line><line x1="195.75" y1="0" x2="195.75" y2="5" style="visibility: inherit;" fill="rgb(0, 0, 0)" stroke="rgb(204, 204, 204)" stroke-width="1px"></line><line x1="217.5" y1="0" x2="217.5" y2="5" style="visibility: inherit;" fill="rgb(0, 0, 0)" stroke="rgb(204, 204, 204)" stroke-width="1px"></line><line x1="239.25" y1="0" x2="239.25" y2="5" style="visibility: inherit;" fill="rgb(0, 0, 0)" stroke="rgb(204, 204, 204)" stroke-width="1px"></line><line x1="261" y1="0" x2="261" y2="5" style="visibility: inherit;" fill="rgb(0, 0, 0)" stroke="rgb(204, 204, 204)" stroke-width="1px"></line></g><g transform="translate(0, 8)"><text x="0" y="0" dx="0em" dy="0.95em" style="text-anchor: middle; visibility: hidden; font-family: Roboto, sans-serif; font-size: 12px; font-weight: 200;" fill="rgb(33, 33, 33)" stroke="none" stroke-width="1px">-20</text><text x="21.75" y="0" dx="0em" dy="0.95em" style="text-anchor: middle; visibility: inherit; font-family: Roboto, sans-serif; font-size: 12px; font-weight: 200;" fill="rgb(33, 33, 33)" stroke="none" stroke-width="1px">0</text><text x="43.5" y="0" dx="0em" dy="0.95em" style="text-anchor: middle; visibility: hidden; font-family: Roboto, sans-serif; font-size: 12px; font-weight: 200;" fill="rgb(33, 33, 33)" stroke="none" stroke-width="1px">20</text><text x="65.25" y="0" dx="0em" dy="0.95em" style="text-anchor: middle; visibility: inherit; font-family: Roboto, sans-serif; font-size: 12px; font-weight: 200;" fill="rgb(33, 33, 33)" stroke="none" stroke-width="1px">40</text><text x="87" y="0" dx="0em" dy="0.95em" style="text-anchor: middle; visibility: hidden; font-family: Roboto, sans-serif; font-size: 12px; font-weight: 200;" fill="rgb(33, 33, 33)" stroke="none" stroke-width="1px">60</text><text x="108.75" y="0" dx="0em" dy="0.95em" style="text-anchor: middle; visibility: inherit; font-family: Roboto, sans-serif; font-size: 12px; font-weight: 200;" fill="rgb(33, 33, 33)" stroke="none" stroke-width="1px">80</text><text x="130.5" y="0" dx="0em" dy="0.95em" style="text-anchor: middle; visibility: hidden; font-family: Roboto, sans-serif; font-size: 12px; font-weight: 200;" fill="rgb(33, 33, 33)" stroke="none" stroke-width="1px">100</text><text x="152.25" y="0" dx="0em" dy="0.95em" style="text-anchor: middle; visibility: inherit; font-family: Roboto, sans-serif; font-size: 12px; font-weight: 200;" fill="rgb(33, 33, 33)" stroke="none" stroke-width="1px">120</text><text x="174" y="0" dx="0em" dy="0.95em" style="text-anchor: middle; visibility: hidden; font-family: Roboto, sans-serif; font-size: 12px; font-weight: 200;" fill="rgb(33, 33, 33)" stroke="none" stroke-width="1px">140</text><text x="195.75" y="0" dx="0em" dy="0.95em" style="text-anchor: middle; visibility: inherit; font-family: Roboto, sans-serif; font-size: 12px; font-weight: 200;" fill="rgb(33, 33, 33)" stroke="none" stroke-width="1px">160</text><text x="217.5" y="0" dx="0em" dy="0.95em" style="text-anchor: middle; visibility: hidden; font-family: Roboto, sans-serif; font-size: 12px; font-weight: 200;" fill="rgb(33, 33, 33)" stroke="none" stroke-width="1px">180</text><text x="239.25" y="0" dx="0em" dy="0.95em" style="text-anchor: middle; visibility: inherit; font-family: Roboto, sans-serif; font-size: 12px; font-weight: 200;" fill="rgb(33, 33, 33)" stroke="none" stroke-width="1px">200</text><text x="261" y="0" dx="0em" dy="0.95em" style="text-anchor: middle; visibility: hidden; font-family: Roboto, sans-serif; font-size: 12px; font-weight: 200;" fill="rgb(33, 33, 33)" stroke="none" stroke-width="1px">220</text></g><line x1="0" y1="0" x2="261" y2="0" fill="rgb(0, 0, 0)" stroke="rgb(204, 204, 204)" stroke-width="1px"></line></g></g></g></g></svg>