<svg viewBox="0 0 330 200" xmlns="http://www.w3.org/2000/svg"><g><g><g><g><g><line x1="72.34375" y1="177" x2="67.34375" y2="177" style="visibility: inherit;" fill="rgb(0, 0, 0)" stroke="rgb(204, 204, 204)" stroke-width="1px"></line><line x1="72.34375" y1="162.25" x2="67.34375" y2="162.25" style="visibility: inherit;" fill="rgb(0, 0, 0)" stroke="rgb(204, 204, 204)" stroke-width="1px"></line><line x1="72.34375" y1="147.5" x2="67.34375" y2="147.5" style="visibility: inherit;" fill="rgb(0, 0, 0)" stroke="rgb(204, 204, 204)" stroke-width="1px"></line><line x1="72.34375" y1="132.75" x2="67.34375" y2="132.75" style="visibility: inherit;" fill="rgb(0, 0, 0)" stroke="rgb(204, 204, 204)" stroke-width="1px"></line><line x1="72.34375" y1="118.00000000000001" x2="67.34375" y2="118.00000000000001" style="visibility: inherit;" fill="rgb(0, 0, 0)" stroke="rgb(204, 204, 204)" stroke-width="1px"></line><line x1="72.34375" y1="103.24999999999999" x2="67.34375" y2="103.24999999999999" style="visibility: inherit;" fill="rgb(0, 0, 0)" stroke="rgb(204, 204, 204)" stroke-width="1px"></line><line x1="72.34375" y1="88.5" x2="67.34375" y2="88.5" style="visibility: inherit;" fill="rgb(0, 0, 0)" stroke="rgb(204, 204, 204)" stroke-width="1px"></line><line x1="72.34375" y1="73.75" x2="67.34375" y2="73.75" style="visibility: inherit;" fill="rgb(0, 0, 0)" stroke="rgb(204, 204, 204)" stroke-width="1px"></line><line x1="72.34375" y1="59.00000000000001" x2="67.34375" y2="59.00000000000001" style="visibility: inherit;" fill="rgb(0, 0, 0)" stroke="rgb(204, 204, 204)" stroke-width="1px"></line><line x1="72.34375" y1="44.25" x2="67.34375" y2="44.25" style="visibility: inherit;" fill="rgb(0, 0, 0)" stroke="rgb(204, 204, 204)" stroke-width="1px"></line><line x1="72.34375" y1="29.499999999999993" x2="67.34375" y2="29.499999999999993" style="visibility: inherit;" fill="rgb(0, 0, 0)" stroke="rgb(204, 204, 204)" stroke-width="1px"></line><line x1="72.34375" y1="14.750000000000007" x2="67.34375" y2="14.750000000000007" style="visibility: inherit;" fill="rgb(0, 0, 0)" stroke="rgb(204, 204, 204)" stroke-width="1px"></line><line x1="72.34375" y1="0" x2="67.34375" y2="0" style="visibility: inherit;" fill="rgb(0, 0, 0)" stroke="rgb(204, 204, 204)" stroke-width="1px"></line></g><g transform="translate(62.34375, 0)"><text x="0" y="177" dx="0em" dy="0.3em" style="text-anchor: end; visibility: hidden; font-family: Roboto, sans-serif; font-size: 12px; font-weight: 200;" fill="rgb(33, 33, 33)" stroke="none" stroke-width="1px">4e+4</text><text x="0" y="162.25" dx="0em" dy="0.3em" style="text-anchor: end; visibility: inherit; font-family: Roboto, sans-serif; font-size: 12px; font-weight: 200;" fill="rgb(33, 33, 33)" stroke="none" stroke-width="1px">6e+4</text><text x="0" y="147.5" dx="0em" dy="0.3em" style="text-anchor: end; visibility: hidden; font-family: Roboto, sans-serif; font-size: 12px; font-weight: 200;" fill="rgb(33, 33, 33)" stroke="none" stroke-width="1px">8e+4</text><text x="0" y="132.75" dx="0em" dy="0.3em" style="text-anchor: end; visibility: inherit; font-family: Roboto, sans-serif; font-size: 12px; font-weight: 200;" fill="rgb(33, 33, 33)" stroke="none" stroke-width="1px">1e+5</text><text x="0" y="118.00000000000001" dx="0em" dy="0.3em" style="text-anchor: end; visibility: hidden; font-family: Roboto, sans-serif; font-size: 12px; font-weight: 200;" fill="rgb(33, 33, 33)" stroke="none" stroke-width="1px">1.2e+5</text><text x="0" y="103.24999999999999" dx="0em" dy="0.3em" style="text-anchor: end; visibility: inherit; font-family: Roboto, sans-serif; font-size: 12px; font-weight: 200;" fill="rgb(33, 33, 33)" stroke="none" stroke-width="1px">1.4e+5</text><text x="0" y="88.5" dx="0em" dy="0.3em" style="text-anchor: end; visibility: hidden; font-family: Roboto, sans-serif; font-size: 12px; font-weight: 200;" fill="rgb(33, 33, 33)" stroke="none" stroke-width="1px">1.6e+5</text><text x="0" y="73.75" dx="0em" dy="0.3em" style="text-anchor: end; visibility: inherit; font-family: Roboto, sans-serif; font-size: 12px; font-weight: 200;" fill="rgb(33, 33, 33)" stroke="none" stroke-width="1px">1.8e+5</text><text x="0" y="59.00000000000001" dx="0em" dy="0.3em" style="text-anchor: end; visibility: hidden; font-family: Roboto, sans-serif; font-size: 12px; font-weight: 200;" fill="rgb(33, 33, 33)" stroke="none" stroke-width="1px">2e+5</text><text x="0" y="44.25" dx="0em" dy="0.3em" style="text-anchor: end; visibility: inherit; font-family: Roboto, sans-serif; font-size: 12px; font-weight: 200;" fill="rgb(33, 33, 33)" stroke="none" stroke-width="1px">2.2e+5</text><text x="0" y="29.499999999999993" dx="0em" dy="0.3em" style="text-anchor: end; visibility: hidden; font-family: Roboto, sans-serif; font-size: 12px; font-weight: 200;" fill="rgb(33, 33, 33)" stroke="none" stroke-width="1px">2.4e+5</text><text x="0" y="14.750000000000007" dx="0em" dy="0.3em" style="text-anchor: end; visibility: inherit; font-family: Roboto, sans-serif; font-size: 12px; font-weight: 200;" fill="rgb(33, 33, 33)" stroke="none" stroke-width="1px">2.6e+5</text><text x="0" y="0" dx="0em" dy="0.3em" style="text-anchor: end; visibility: hidden; font-family: Roboto, sans-serif; font-size: 12px; font-weight: 200;" fill="rgb(33, 33, 33)" stroke="none" stroke-width="1px">2.8e+5</text></g><line x1="72.34375" y1="0" x2="72.34375" y2="177" fill="rgb(0, 0, 0)" stroke="rgb(204, 204, 204)" stroke-width="1px"></line></g></g><g transform="translate(72, 0)" clip-path="url(#clip_0)"><clipPath id="clip_0"><rect width="257" height="177"></rect></clipPath><g><g><g><line x1="0" y1="0" x2="0" y2="177" fill="rgb(0, 0, 0)" stroke="rgb(66, 66, 66)" stroke-width="1px" opacity="0.25"></line><line x1="21.471354166666664" y1="0" x2="21.471354166666664" y2="177" fill="rgb(0, 0, 0)" stroke="rgb(66, 66, 66)" stroke-width="1px" opacity="0.25"></line><line x1="42.94270833333333" y1="0" x2="42.94270833333333" y2="177" fill="rgb(0, 0, 0)" stroke="rgb(66, 66, 66)" stroke-width="1px" opacity="0.25"></line><line x1="64.4140625" y1="0" x2="64.4140625" y2="177" fill="rgb(0, 0, 0)" stroke="rgb(66, 66, 66)" stroke-width="1px" opacity="0.25"></line><line x1="85.88541666666666" y1="0" x2="85.88541666666666" y2="177" fill="rgb(0, 0, 0)" stroke="rgb(66, 66, 66)" stroke-width="1px" opacity="0.25"></line><line x1="107.35677083333334" y1="0" x2="107.35677083333334" y2="177" fill="rgb(0, 0, 0)" stroke="rgb(66, 66, 66)" stroke-width="1px" opacity="0.25"></line><line x1="128.828125" y1="0" x2="128.828125" y2="177" fill="rgb(0, 0, 0)" stroke="rgb(66, 66, 66)" stroke-width="1px" opacity="0.25"></line><line x1="150.29947916666669" y1="0" x2="150.29947916666669" y2="177" fill="rgb(0, 0, 0)" stroke="rgb(66, 66, 66)" stroke-width="1px" opacity="0.25"></line><line x1="171.77083333333331" y1="0" x2="171.77083333333331" y2="177" fill="rgb(0, 0, 0)" stroke="rgb(66, 66, 66)" stroke-width="1px" opacity="0.25"></line><line x1="193.2421875" y1="0" x2="193.2421875" y2="177" fill="rgb(0, 0, 0)" stroke="rgb(66, 66, 66)" stroke-width="1px" opacity="0.25"></line><line x1="214.71354166666669" y1="0" x2="214.71354166666669" y2="177" fill="rgb(0, 0, 0)" stroke="rgb(66, 66, 66)" stroke-width="1px" opacity="0.25"></line><line x1="236.18489583333331" y1="0" x2="236.18489583333331" y2="177" fill="rgb(0, 0, 0)" stroke="rgb(66, 66, 66)" stroke-width="1px" opacity="0.25"></line><line x1="257.65625" y1="0" x2="257.65625" y2="177" fill="rgb(0, 0, 0)" stroke="rgb(66, 66, 66)" stroke-width="1px" opacity="0.25"></line></g><g><line x1="0" y1="177" x2="257.65625" y2="177" fill="rgb(0, 0, 0)" stroke="rgb(66, 66, 66)" stroke-width="1px" opacity="0.25"></line><line x1="0" y1="162.25" x2="257.65625" y2="162.25" fill="rgb(0, 0, 0)" stroke="rgb(66, 66, 66)" stroke-width="1px" opacity="0.25"></line><line x1="0" y1="147.5" x2="257.65625" y2="147.5" fill="rgb(0, 0, 0)" stroke="rgb(66, 66, 66)" stroke-width="1px" opacity="0.25"></line><line x1="0" y1="132.75" x2="257.65625" y2="132.75" fill="rgb(0, 0, 0)" stroke="rgb(66, 66, 66)" stroke-width="1px" opacity="0.25"></line><line x1="0" y1="118.00000000000001" x2="257.65625" y2="118.00000000000001" fill="rgb(0, 0, 0)" stroke="rgb(66, 66, 66)" stroke-width="1px" opacity="0.25"></line><line x1="0" y1="103.24999999999999" x2="257.65625" y2="103.24999999999999" fill="rgb(0, 0, 0)" stroke="rgb(66, 66, 66)" stroke-width="1px" opacity="0.25"></line><line x1="0" y1="88.5" x2="257.65625" y2="88.5" fill="rgb(0, 0, 0)" stroke="rgb(66, 66, 66)" stroke-width="1px" opacity="0.25"></line><line x1="0" y1="73.75" x2="257.65625" y2="73.75" fill="rgb(0, 0, 0)" stroke="rgb(66, 66, 66)" stroke-width="1px" opacity="0.25"></line><line x1="0" y1="59.00000000000001" x2="257.65625" y2="59.00000000000001" fill="rgb(0, 0, 0)" stroke="rgb(66, 66, 66)" stroke-width="1px" opacity="0.25"></line><line x1="0" y1="44.25" x2="257.65625" y2="44.25" fill="rgb(0, 0, 0)" stroke="rgb(66, 66, 66)" stroke-width="1px" opacity="0.25"></line><line x1="0" y1="29.499999999999993" x2="257.65625" y2="29.499999999999993" fill="rgb(0, 0, 0)" stroke="rgb(66, 66, 66)" stroke-width="1px" opacity="0.25"></line><line x1="0" y1="14.750000000000007" x2="257.65625" y2="14.750000000000007" fill="rgb(0, 0, 0)" stroke="rgb(66, 66, 66)" stroke-width="1px" opacity="0.25"></line><line x1="0" y1="0" x2="257.65625" y2="0" fill="rgb(0, 0, 0)" stroke="rgb(66, 66, 66)" stroke-width="1px" opacity="0.25"></line></g></g></g><g><g><line x1="0" y1="206.5" x2="257.65625" y2="206.5" fill="rgb(0, 0, 0)" stroke="rgb(153, 153, 153)" stroke-width="1.5px"></line></g></g><g><g><line x1="21.471354166666664" y1="0" x2="21.471354166666664" y2="177" fill="rgb(0, 0, 0)" stroke="rgb(153, 153, 153)" stroke-width="1.5px"></line></g></g><g><g><g><g><g><path stroke="rgb(51, 187, 238)" stroke-width="2px" d="M27.05390625,-0.41470866819769325L27.483333333333334,0.5739982679869857L27.912760416666668,1.5543599065853944L28.3421875,2.5259555588884504L28.77161458333333,3.4895807323139554L29.201041666666665,4.452359763516371L29.630468750000002,5.41797491252961L30.059895833333332,6.3867668248581335L30.489322916666666,7.355368468814703L30.91875,8.318816658680362L31.348177083333336,9.274224366044301L31.777604166666666,10.221315124732861L32.20703125,11.165564435556524L32.63645833333334,12.105352904448347L33.06588541666667,13.038178409261805L33.495312500000004,13.966890825247244L33.92473958333333,14.893499621872387L34.354166666666664,15.819417864691266L34.78359375,16.744041417402418L35.21302083333333,17.66311286307892L35.64244791666667,18.573967118944402L36.071875000000006,19.475424583738334L36.501302083333336,20.367316790692335L36.930729166666666,21.254714376782193L37.360156249999996,22.143425348119255L37.78958333333333,23.03427950773132L38.21901041666667,23.921542862074826L38.6484375,24.80144313982562L39.07786458333334,25.67219635306439L39.50729166666667,26.533211483962234L39.93671875,27.384608687399837L40.366145833333334,28.232092712527994L40.795572916666664,29.077293361944534L41.225,29.917141485948154L41.65442708333333,30.749449891587577L42.08385416666667,31.573192044338626L42.51328125,32.38926389848476L42.94270833333333,33.204047714094806L43.372135416666666,34.01598909720922L43.8015625,34.821984395826924L44.23098958333333,35.62171555937199L44.66041666666667,36.42700839812369L45.08984375,37.235854882624515L45.51927083333333,38.041472851449875L45.94869791666667,38.83960863274502L46.378125,39.628350726522065L46.807552083333334,40.407068482788276L47.236979166666664,41.17578913654799L47.66640625,41.93480098192882L48.09583333333334,42.684516682907294L48.52526041666666,43.426893915994384L48.9546875,44.168371193346616L49.384114583333336,44.907109825382946L49.813541666666666,45.64004761397978L50.24296875,46.36545786526287L50.67239583333333,47.08261800040773L51.10182291666667,47.791375643994606L51.53125,48.491879058271735L51.96067708333333,49.18817665371306L52.39010416666667,49.88429692972782L52.81953125,50.57691370471173L53.248958333333334,51.263372129077034L53.67838541666667,51.94234202744623L54.1078125,52.61334334146775L54.53723958333333,53.277355614255654L54.96666666666667,53.94055774355339L55.39609375,54.60175269300703L55.825520833333336,55.257825365804216L56.254947916666666,55.90692514135752L56.684375,56.54827813168953L57.11380208333333,57.1816689102637L57.54322916666666,57.8071940805332L57.97265625,58.42504988581992L58.40208333333333,59.035469306491954L58.83151041666667,59.63868892764515L59.260937500000004,60.23493827846208L59.690364583333334,60.82441038895224L60.119791666666664,61.40727638962136L60.549218749999994,61.98369888064782L60.97864583333333,62.553812297138705L61.40807291666667,63.11773878453323L61.8375,63.67560233321991L62.266927083333336,64.22749577493195L62.69635416666667,64.77352551183417L63.125781249999996,65.31376460397551L63.55520833333333,65.8483490748853L63.98463541666666,66.3814490543062L64.4140625,66.92106560445872L64.84348958333332,67.46461514392522L65.27291666666667,68.00651893010514L65.70234375,68.54328221743808L66.13177083333333,69.07326448671284L66.56119791666667,69.59588244202772L66.99062500000001,70.11104884021663L67.42005208333333,70.61896485100499L67.84947916666665,71.123761332478L68.27890625,71.6282210182368L68.70833333333333,72.12943182969207L69.13776041666667,72.62520401969024L69.5671875,73.11448647431415L69.99661458333334,73.5969020408385L70.42604166666666,74.0724410682531L70.85546875,74.54126831282684L71.28489583333334,75.0035840345711L71.71432291666666,75.45959596761766L72.14375000000001,75.9095163305706L72.57317708333333,76.35352776709237L73.00260416666667,76.7918043946304L73.43203125,77.22449216802825L73.86145833333333,77.65172936331693L74.29088541666667,78.07362199299017L74.72031249999999,78.49028436766909L75.14973958333334,78.90181272997647L75.57916666666667,79.30829709111087L76.00859375,79.70982372341653L76.43802083333334,80.10645821842492L76.86744791666666,80.49827680605493L77.296875,80.88534827113297L77.72630208333334,81.26773693142978L78.15572916666667,81.64549981510787L78.58515625,82.01869879531473L79.01458333333333,82.38738482406384L79.44401041666667,82.7516161288133L79.8734375,83.11143686478796L80.30286458333333,83.4669011813728L80.73229166666667,83.81806461507367L81.16171875,84.1650204096692L81.59114583333333,84.51124005830151L82.02057291666667,84.8582302849809L82.45,85.20357176473856L82.87942708333333,85.54542571509313L83.30885416666666,85.88285941343088L83.73828125,86.21549760118353L84.16770833333334,86.54325340446012L84.59713541666666,86.86617149580107L85.0265625,87.18436164748064L85.45598958333333,87.4979496447384L85.88541666666666,87.80706627121803L86.31484375000001,88.11181304398082L86.74427083333333,88.41230157638849L87.17369791666667,88.70862649270809L87.603125,89.00086761437485L88.03255208333333,89.28910509987492L88.46197916666667,89.57340548179992L88.89140624999999,89.85383633595494L89.32083333333334,90.13045203594798L89.75026041666666,90.40330825281879L90.1796875,90.67247526419126L90.60911458333334,90.93904617413975L91.03854166666666,91.20676512635885L91.46796875,91.4751959508153L91.89739583333333,91.74561647673919L92.32682291666667,92.0153225422935L92.75625,92.2819172753761L93.18567708333335,92.54416997460066L93.61510416666667,92.80161417226039L94.04453124999999,93.05415897210624L94.47395833333333,93.30190655513873L94.90338541666667,93.54502424558324L95.3328125,93.78370923484995L95.76223958333333,94.01813054090997L96.19166666666668,94.24844488704598L96.62109375,94.4748062291026L97.05052083333332,94.69733920621157L97.47994791666667,94.91616008622694L97.909375,95.13136167673618L98.33880208333333,95.3430365372917L98.76822916666667,95.55125864112502L99.19765625000001,95.75611385655002L99.62708333333333,95.95766292330501L100.05651041666665,96.155969941483L100.4859375,96.3510871992648L100.91536458333333,96.54307372580888L101.34479166666667,96.73197876673532L101.77421875,96.9178503069162L102.20364583333334,97.10074018414971L102.63307291666666,97.28069332923981L103.0625,97.4577459194189L103.49192708333334,97.63194731727633L103.92135416666666,97.80333635911578L104.35078125000001,97.97195478421948L104.78020833333333,98.13786912053169L105.20963541666667,98.30311053481903L105.6390625,98.46861655526642L106.06848958333333,98.63293079253484L106.49791666666667,98.7949581630209L106.92734374999999,98.95414763218753L107.35677083333334,99.11028842306253L107.78619791666667,99.26335086633749L108.215625,99.4133816916775L108.64505208333334,99.56044581188152L109.07447916666666,99.7046467058789L109.50390625,99.84605567977732L109.93333333333334,99.98476622036638L110.36276041666667,100.12083902909482L110.7921875,100.2543520112069L111.22161458333333,100.38536112859913L111.65104166666667,100.51392761465948L112.08046875,100.64009742817068L112.50989583333333,100.76391658190241L112.93932291666667,100.88543573039144L113.36875,101.00469448510985L113.79817708333333,101.1217350504409L114.22760416666667,101.23659196776454L114.65703125,101.34930439940871L115.08645833333333,101.45990506152022L115.51588541666666,101.56843202128714L115.9453125,101.67492194714727L116.37473958333334,101.77939684016336L116.80416666666666,101.88189294784803L117.23359375,101.98244123745881L117.66302083333333,102.08107872685028L118.09244791666666,102.17782301736018L118.52187500000001,102.2727123260411L118.95130208333333,102.36576958312466L119.38072916666667,102.45702237487478L119.81015625,102.54650569054986L120.23958333333333,102.63426357057992L120.66901041666667,102.72151626734795L121.09843749999999,102.80880694790876L121.52786458333334,102.89524463749527L121.95729166666666,102.98019334499715L122.38671875,103.06332217887329L122.81614583333334,103.14452479169898L123.24557291666666,103.22378346876938L123.675,103.30113367501164L124.10442708333333,103.37663817375699L124.53385416666667,103.45034845112919L124.96328125,103.52232305505251L125.39270833333335,103.5926155517815L125.82213541666667,103.66127651856891L126.25156249999999,103.72835012989131L126.68098958333333,103.7938859373098L127.11041666666667,103.8579182811359L127.53984375,103.92048620305654L127.96927083333333,103.98162234683392L128.39869791666666,104.04136012685036L128.828125,104.09972881048522L129.25755208333334,104.15675056754112L129.68697916666665,104.21246635614968L130.11640625,104.26689614181481L130.54583333333335,104.32007034133888L130.97526041666666,104.37200720480332L131.4046875,104.42273611975698L131.83411458333333,104.47227932810418L132.26354166666667,104.52066400311251L132.69296875,104.5679064487425L133.12239583333334,104.6140302754955L133.55182291666665,104.6590634777973L133.98125000000002,104.70302285230338L134.41067708333333,104.74592769575703L134.84010416666666,104.78779880495422L135.26953125,104.82865787672252L135.6989583333333,104.86852714790851L136.12838541666667,104.9074245699951L136.5578125,104.94536552324705L136.98723958333332,104.98237767332324L137.41666666666666,105.01847301024394L137.84609375,105.05367255614635L138.27552083333333,105.08798431493781L138.70494791666667,105.12144074521268L139.134375,105.15405671275259L139.56380208333331,105.18626059015155L139.99322916666668,105.21846151034092L140.42265625000002,105.25018589057956L140.85208333333333,105.28117262809774L141.28151041666666,105.31128810810864L141.7109375,105.3405028648652L142.14036458333334,105.36880843766912L142.56979166666667,105.39624123447646L142.99921875,105.42282770943586L143.42864583333332,105.44860217253654L143.85807291666666,105.47359442852192L144.28750000000002,105.49783157898817L144.71692708333333,105.52133910364289L145.14635416666667,105.54414611843575L145.57578124999998,105.56627470231145L146.00520833333334,105.58774732138684L146.43463541666668,105.60858667408212L146.8640625,105.62879716069926L147.29348958333333,105.64841368704455L147.72291666666666,105.66744797785172L148.15234375,105.68591167733605L148.58177083333334,105.70382099077663L149.01119791666667,105.72119946946597L149.44062499999998,105.73805663480458L149.87005208333332,105.75440280900776L150.29947916666669,105.77025340415466L150.72890625,105.78562227686778L151.15833333333333,105.80052695987068L151.58776041666667,105.8149733634224L152.0171875,105.82897425242842L152.44661458333334,105.84254189520705L152.87604166666668,105.85569287149923L153.30546875,105.86843251977456L153.73489583333333,105.88077326186473L154.1643229166667,105.89273176961885L154.59375,105.90430882739629L155.02317708333334,105.91552334331278L155.45260416666667,105.92637744348768L155.88203124999998,105.9368816223426L156.31145833333335,105.94705139528057L156.74088541666666,105.95689146216836L157.1703125,105.966413861676L157.59973958333333,105.9756258170056L158.02916666666667,105.98453627145336L158.45859375,105.993155200372L158.88802083333334,106.00148397959819L159.31744791666665,106.00954187213392L159.746875,106.01732660765535L160.17630208333335,106.0248506520932L160.60572916666666,106.03212148500594L161.03515625,106.03914820350356L161.46458333333334,106.04593626585215L161.89401041666665,106.05249355638628L162.3234375,106.05882480570676L162.75286458333335,106.06493285217404L163.18229166666666,106.07083322692942L163.61171875,106.07653063928264L164.04114583333333,106.08202791481958L164.47057291666667,106.08733135826672L164.9,106.09244475246005L165.32942708333334,106.09737958585104L165.75885416666665,106.10213814213563L166.18828125000002,106.10672179153137L166.61770833333333,106.11114518429382L167.04713541666666,106.11540789182628L167.4765625,106.11951426634576L167.9059895833333,106.12347152855745L168.33541666666667,106.12728401088445L168.76484375,106.13095431278067L169.19427083333332,106.1344932126684L169.62369791666666,106.13789795885104L170.053125,106.14117150968562L170.48255208333333,106.14432024956136L170.91197916666667,106.14735722786182L171.34140625,106.1502764460921L171.77083333333331,106.15308352390527L172.20026041666668,106.15578183309316L172.62968750000002,106.1583780061059L173.05911458333333,106.16088063178854L173.48854166666666,106.16328103532311L173.91796875,106.16558783994387L174.34739583333334,106.16780161021632L174.77682291666667,106.16993190362977L175.20625,106.17197984530286L175.63567708333332,106.17394611030673L176.06510416666666,106.17583110368403L176.49453125000002,106.17764428721043L176.92395833333333,106.17938211920126L177.35338541666667,106.18104708402076L177.78281249999998,106.18264989103746L178.21223958333334,106.18418774712248L178.64166666666668,106.18565897639849L179.07109375,106.18706718271409L179.50052083333333,106.18842374712844L179.92994791666666,106.18972167015205L180.359375,106.19096597084125L180.78880208333334,106.19215505125474L181.21822916666667,106.19329717137784L181.64765624999998,106.19439267782671L182.07708333333332,106.19544177857102L182.50651041666669,106.19644459839262L182.9359375,106.19740582153557L183.36536458333333,106.19832364917133L183.79479166666667,106.19920622075279L184.22421875,106.20004920120167L184.65364583333334,106.200854598846L185.08307291666668,106.20162361868259L185.5125,106.20236159308455L185.94192708333333,106.20306711210075L186.3713541666667,106.20373932976044L186.80078125,106.20438234785627L187.23020833333334,106.20499862746375L187.65963541666667,106.20558964522827L188.08906249999998,106.20614706838694L188.51848958333335,106.20668433478217L188.94791666666666,106.20720028836931L189.37734375,106.20768501677159L189.80677083333333,106.20815101006293L190.23619791666667,106.20860115291279L190.665625,106.20902795737267L191.09505208333334,106.2094361494236L191.52447916666665,106.20981934590415L191.95390625,106.2101875450425L192.38333333333335,106.21053752702551L192.81276041666666,106.2108765787153L193.2421875,106.21119985347919L193.67161458333334,106.2115044433375L194.10104166666665,106.21179782225249L194.53046875,106.21207525585152L194.95989583333335,106.21233851288592L195.38932291666666,106.21258865460658L195.81875,106.21283092713895L196.24817708333333,106.21306386878337L196.67760416666667,106.21328199314502L197.10703125,106.21348661776199L197.53645833333334,106.21368314253219L197.96588541666665,106.21387480739432L198.39531250000002,106.21405433756158L198.82473958333333,106.21422197753697L199.25416666666666,106.21438248339717L199.68359375,106.21453870878831L200.1130208333333,106.214683147148L200.54244791666667,106.21482051328879L200.971875,106.21495363609829L201.40130208333332,106.21507499415895L201.83072916666666,106.21519390274537L202.26015625,106.21531134164721L202.68958333333333,106.21541867998835L203.11901041666667,106.21551995799301L203.5484375,106.21561759979579L203.97786458333331,106.21571305987749L204.40729166666668,106.21580260155149L204.83671875000002,106.21588398280589L205.26614583333333,106.21596046780854L205.69557291666666,106.21603401506012L206.125,106.21610579966108L206.55442708333334,106.21617191729663L206.98385416666667,106.21623463475298L207.41328125,106.21629531210178L207.84270833333332,106.21635015601106L208.27213541666666,106.21640149985664L208.70156250000002,106.21645535303898L209.13098958333333,106.2165061024484L209.56041666666667,106.21655038021905L209.98984374999998,106.21659538438143L210.41927083333334,106.21663621500386L210.84869791666668,106.21667915087731L211.278125,106.2167187405264L211.70755208333333,106.21675171306586L212.13697916666666,106.2167853247145L212.56640625,106.21681931982867L212.99583333333334,106.2168489356472L213.42526041666667,106.21688053326334L213.85468749999998,106.217222148083L214.28411458333332,106.2998381325998L214.71354166666669,106.91826912955987L215.14296875,118.44192487617342L215.57239583333333,128.59032316789154L216.00182291666667,135.19856905698492L216.43125,139.59544729356597L216.86067708333334,142.67824986051457L217.29010416666668,144.95777866630874L217.71953125,146.73977274666024L218.14895833333333,148.20367458549615L218.5783854166667,149.46921471223519L219.0078125,150.60355984296612L219.43723958333334,151.64299293702967L219.86666666666667,152.6135935356553L220.29609374999998,153.53339471514317L220.72552083333335,154.41185425096091L221.15494791666666,155.26507551932656L221.584375,156.09969910065843L222.01380208333333,156.90941891352006L222.44322916666667,157.69496619186202L222.87265625,158.4639910432422L223.30208333333334,159.2156168134453L223.73151041666665,159.9447680568172L224.1609375,160.65279224034032L224.59036458333335,161.34258243404796L225.01979166666666,162.01136305417876L225.44921875,162.66030927781975L225.87864583333334,163.2937468752856L226.30807291666665,163.91301871110886L226.7375,164.5185375547903L227.16692708333335,165.1085333141242L227.59635416666666,165.68219168769326L228.02578125,166.2399436649597L228.45520833333333,166.78209508569458L228.88463541666667,167.30944595766675L229.3140625,167.82300175428756L229.74348958333334,168.32351210726003L230.17291666666665,168.81259872919978L230.60234375000002,169.28509611251985L231.03177083333333,169.7458780190744L231.46119791666666,170.19465020988216L231.890625,170.62592729389803L232.3200520833333,171.07018747008883L232.74947916666667,171.49683638830328L233.17890625,171.9265922626695L233.60833333333332,172.33819609978917L234.03776041666666,172.75021435909227L234.4671875,173.12774502170535L234.89661458333333,173.52177386849198L235.32604166666667,173.88236082500143L235.75546875,174.27068762781337" style="fill: none;" fill="none"></path></g></g></g></g><g opacity="0.2"><g><g><g><path stroke="rgb(51, 187, 238)" stroke-width="2px" d="M26.195052083333334,-0.9145691406249998L26.624479166666667,0.0871171875000033L27.05390625,1.0771648437499934L27.483333333333334,2.055896484375001L27.912760416666668,3.024210937499997L28.3421875,3.982937890625008L28.77161458333333,4.9347738281250075L29.201041666666665,5.8963816406249965L29.630468750000002,6.866309375000006L30.059895833333332,7.839901562500001L30.489322916666666,8.808239062499997L30.91875,9.763969921875008L31.348177083333336,10.707324609375L31.777604166666666,11.641944531249997L32.20703125,12.581934374999996L32.63645833333334,13.515033203125002L33.06588541666667,14.437415234375006L33.495312500000004,15.359958593749996L33.92473958333333,16.283412304687506L34.354166666666664,17.208294921875L34.78359375,18.130976562499995L35.21302083333333,19.041719921875007L35.64244791666667,19.940248437500006L36.071875000000006,20.827610742187495L36.501302083333336,21.705155078124996L36.930729166666666,22.585810742187498L37.360156249999996,23.476491796875003L37.78958333333333,24.3705607421875L38.21901041666667,25.252437890625004L38.6484375,26.121293554687508L39.07786458333334,26.978326171874997L39.50729166666667,27.824734179687503L39.93671875,28.6617044921875L40.366145833333334,29.503318750000005L40.795572916666664,30.345094335937496L41.225,31.17691367187501L41.65442708333333,31.99791250000001L42.08385416666667,32.80880527343749L42.51328125,33.613371679687496L42.94270833333333,34.42622343749999L43.372135416666666,35.233901171875L43.8015625,36.03097734374999L44.23098958333333,36.8213123046875L44.66041666666667,37.634947656250006L45.08984375,38.44912460937499L45.51927083333333,39.249899804687495L45.94869791666667,40.0368123046875L46.378125,40.8114638671875L46.807552083333334,41.575145117187496L47.236979166666664,42.3288701171875L47.66640625,43.073318750000006L48.09583333333334,43.809090234375006L48.52526041666666,44.540459765624995L48.9546875,45.280587109375L49.384114583333336,46.01521777343749L49.813541666666666,46.73945429687501L50.24296875,47.45357324218751L50.67239583333333,48.15835820312501L51.10182291666667,48.85451210937501L51.53125,49.54263417968751L51.96067708333333,50.23262304687499L52.39010416666667,50.928477343750004L52.81953125,51.61583886718749L53.248958333333334,52.293059765625L53.67838541666667,52.96079687500001L54.1078125,53.61984531249999L54.53723958333333,54.273374023437505L54.96666666666667,54.9353609375L55.39609375,55.5935451171875L55.825520833333336,56.241934375L56.254947916666666,56.88057480468751L56.684375,57.51030761718751L57.11380208333333,58.13175507812499L57.54322916666666,58.7454818359375L57.97265625,59.351833593749994L58.40208333333333,59.9510984375L58.83151041666667,60.543518359375L59.260937500000004,61.129312304687495L59.690364583333334,61.70861855468749L60.119791666666664,62.281575390625L60.549218749999994,62.848332617187495L60.97864583333333,63.40898242187501L61.40807291666667,63.96362851562501L61.8375,64.51239765625002L62.266927083333336,65.05533593749999L62.69635416666667,65.59257011718749L63.125781249999996,66.1241232421875L63.55520833333333,66.65022578125L63.98463541666666,67.18109902343751L64.4140625,67.7304904296875L64.84348958333332,68.279939453125L65.27291666666667,68.819374609375L65.70234375,69.3484271484375L66.13177083333333,69.868237890625L66.56119791666667,70.37980937500001L66.99062500000001,70.88379843749999L67.42005208333333,71.38083886718749L67.84947916666665,71.8809560546875L68.27890625,72.38491054687499L68.70833333333333,72.881248046875L69.13776041666667,73.36886230468751L69.5671875,73.84841015625L69.99661458333334,74.32052539062501L70.42604166666666,74.785749609375L70.85546875,75.2445091796875L71.28489583333334,75.69705761718751L71.71432291666666,76.1436138671875L72.14375000000001,76.584396875L72.57317708333333,77.019544921875L73.00260416666667,77.4492193359375L73.43203125,77.87352382812499L73.86145833333333,78.29258515624998L74.29088541666667,78.7064609375L74.72031249999999,79.1152779296875L75.14973958333334,79.5191052734375L75.57916666666667,79.91802363281249L76.00859375,80.312113671875L76.43802083333334,80.70140996093751L76.86744791666666,81.08600468750001L77.296875,81.46595546875001L77.72630208333334,81.84131992187501L78.15572916666667,82.212144140625L78.58515625,82.57849726562499L79.01458333333333,82.94041386718749L79.44401041666667,83.2979630859375L79.8734375,83.65116796875L80.30286458333333,84.00009765625L80.73229166666667,84.34480976562499L81.16171875,84.68545410156248L81.59114583333333,85.03056953125L82.02057291666667,85.378715625L82.45,85.721583984375L82.87942708333333,86.058206640625L83.30885416666666,86.38900996093751L83.73828125,86.7144548828125L84.16770833333334,87.034887109375L84.59713541666666,87.35054863281249L85.0265625,87.661646875L85.45598958333333,87.968331640625L85.88541666666666,88.2707412109375L86.31484375000001,88.56893320312498L86.74427083333333,88.86303437499998L87.17369791666667,89.1531138671875L87.603125,89.439229296875L88.03255208333333,89.721461328125L88.46197916666667,89.9998560546875L88.89140624999999,90.2744826171875L89.32083333333334,90.54537558593749L89.75026041666666,90.81259257812499L90.1796875,91.07622578125L90.60911458333334,91.33890253906249L91.03854166666666,91.6083435546875L91.46796875,91.87784218750001L91.89739583333333,92.151247265625L92.32682291666667,92.419881640625L92.75625,92.681809375L93.18567708333335,92.9375490234375L93.61510416666667,93.18778046875L94.04453124999999,93.43297617187501L94.47395833333333,93.67352792968751L94.90338541666667,93.90970078125001L95.3328125,94.14173671875001L95.76223958333333,94.3697625L96.19166666666668,94.59391640625002L96.62109375,94.81434824218749L97.05052083333332,95.031138671875L97.47994791666667,95.24439140624999L97.909375,95.4541640625L98.33880208333333,95.66054882812499L98.76822916666667,95.86359179687501L99.19765625000001,96.06339667968749L99.62708333333333,96.25998652343749L100.05651041666665,96.45343046875L100.4859375,96.6437630859375L100.91536458333333,96.83105351562502L101.34479166666667,97.015336328125L101.77421875,97.1966576171875L102.20364583333334,97.375075L102.63307291666666,97.550623046875L103.0625,97.7233248046875L103.49192708333334,97.8932494140625L103.92135416666666,98.060419921875L104.35078125000001,98.22488242187498L104.78020833333333,98.386740625L105.20963541666667,98.55097265625001L105.6390625,98.7168755859375L106.06848958333333,98.8794021484375L106.49791666666667,99.03799921875L106.92734374999999,99.1929318359375L107.35677083333334,99.34449960937502L107.78619791666667,99.49294453125L108.215625,99.6384279296875L108.64505208333334,99.7810419921875L109.07447916666666,99.92094804687501L109.50390625,100.05816914062501L109.93333333333334,100.19283203124999L110.36276041666667,100.3249482421875L110.7921875,100.454621484375L111.22161458333333,100.58187480468752L111.65104166666667,100.70677734375L112.08046875,100.82935214843751L112.50989583333333,100.94964531249998L112.93932291666667,101.06771445312499L113.36875,101.1835826171875L113.79817708333333,101.2972958984375L114.22760416666667,101.40887734375L114.65703125,101.518373046875L115.08645833333333,101.6258060546875L115.51588541666666,101.7312224609375L115.9453125,101.8346568359375L116.37473958333334,101.9361091796875L116.80416666666666,102.035637109375L117.23359375,102.133263671875L117.66302083333333,102.2290349609375L118.09244791666666,102.322939453125L118.52187500000001,102.4150462890625L118.95130208333333,102.50535546874998L119.38072916666667,102.5939015625L119.81015625,102.68073066406251L120.23958333333333,102.765900390625L120.66901041666667,102.8523953125L121.09843749999999,102.93974296875001L121.52786458333334,103.024901171875L121.95729166666666,103.10761640625L122.38671875,103.1880154296875L122.81614583333334,103.26632871093749L123.24557291666666,103.342671484375L123.675,103.41715898437502L124.10442708333333,103.48989492187499L124.53385416666667,103.5609138671875L124.96328125,103.6302849609375L125.39270833333335,103.698054296875L125.82213541666667,103.76426796875L126.25156249999999,103.82896054687501L126.68098958333333,103.89218964843751L127.11041666666667,103.953966796875L127.53984375,104.0143380859375L127.96927083333333,104.0733265625L128.39869791666666,104.13096679687501L128.828125,104.1872818359375L129.25755208333334,104.24228320312501L129.68697916666665,104.2960400390625L130.11640625,104.34854082031251L130.54583333333335,104.399831640625L130.97526041666666,104.44991250000001L131.4046875,104.4988294921875L131.83411458333333,104.54659414062502L132.26354166666667,104.59324101562498L132.69296875,104.6387701171875L133.12239583333334,104.68321601562499L133.55182291666665,104.72661328125L133.98125000000002,104.7689619140625L134.41067708333333,104.8102849609375L134.84010416666666,104.85060546874999L135.26953125,104.88994648437502L135.6989583333333,104.9283310546875L136.12838541666667,104.965770703125L136.5578125,105.002276953125L136.98723958333332,105.0378958984375L137.41666666666666,105.07261601562499L137.84609375,105.106471875L138.27552083333333,105.139451953125L138.70494791666667,105.17162539062501L139.134375,105.2029806640625L139.56380208333331,105.23456640625L139.99322916666668,105.26676289062499L140.42265625000002,105.29777246093751L140.85208333333333,105.32765273437501L141.28151041666666,105.356461328125L141.7109375,105.384325L142.14036458333334,105.41126679687498L142.56979166666667,105.4373904296875L142.99921875,105.46270742187501L143.42864583333332,105.48726386718748L143.85807291666666,105.5110828125L144.28750000000002,105.5341873046875L144.71692708333333,105.556600390625L145.14635416666667,105.57835664062499L145.57578124999998,105.59946757812499L146.00520833333334,105.61995625L146.43463541666668,105.63984570312499L146.8640625,105.659112890625L147.29348958333333,105.6778384765625L147.72291666666666,105.6959994140625L148.15234375,105.71360722656252L148.58177083333334,105.73068496093751L149.01119791666667,105.7472671875L149.44062499999998,105.76334238281251L149.87005208333332,105.7789220703125L150.29947916666669,105.794029296875L150.72890625,105.80867558593751L151.15833333333333,105.82288398437501L151.58776041666667,105.83664296875L152.0171875,105.8499755859375L152.44661458333334,105.86289335937501L152.87604166666668,105.8754193359375L153.30546875,105.8875419921875L153.73489583333333,105.899284375L154.1643229166667,105.91066953125L154.59375,105.92167441406251L155.02317708333334,105.93234511718751L155.45260416666667,105.94265859375L155.88203124999998,105.952637890625L156.31145833333335,105.9623060546875L156.74088541666666,105.9716515625L157.1703125,105.98069746093749L157.59973958333333,105.98944375L158.02916666666667,105.99790195312501L158.45859375,106.00608359375L158.88802083333334,106.0139771484375L159.31744791666665,106.0216287109375L159.746875,106.0290037109375L160.17630208333335,106.03613671875L160.60572916666666,106.04302773437502L161.03515625,106.04968828125L161.46458333333334,106.05611835937502L161.89401041666665,106.06232949218752L162.3234375,106.0683216796875L162.75286458333335,106.074094921875L163.18229166666666,106.0796837890625L163.61171875,106.0850767578125L164.04114583333333,106.090273828125L164.47057291666667,106.09528652343751L164.9,106.10011484375L165.32942708333334,106.10478183593752L165.75885416666665,106.1092759765625L166.18828125000002,106.113597265625L166.61770833333333,106.1177802734375L167.04713541666666,106.121801953125L167.4765625,106.125673828125L167.9059895833333,106.12940742187502L168.33541666666667,106.13300273437501L168.76484375,106.136459765625L169.19427083333332,106.1398015625L169.62369791666666,106.14300507812499L170.053125,106.14608183593751L170.48255208333333,106.149043359375L170.91197916666667,106.1519126953125L171.34140625,106.15465527343751L171.77083333333331,106.157294140625L172.20026041666668,106.159829296875L172.62968750000002,106.162272265625L173.05911458333333,106.16463457031251L173.48854166666666,106.166881640625L173.91796875,106.16904804687499L174.34739583333334,106.171122265625L174.77682291666667,106.17312734374998L175.20625,106.1750517578125L175.63567708333332,106.17689550781249L176.06510416666666,106.17865859375001L176.49453125000002,106.18036406249999L176.92395833333333,106.1819888671875L177.35338541666667,106.18354453125L177.78281249999998,106.1850541015625L178.21223958333334,106.18649453125L178.64166666666668,106.1878658203125L179.07109375,106.1891794921875L179.50052083333333,106.19045859375001L179.92994791666666,106.19166855468751L180.359375,106.192832421875L180.78880208333334,106.19393867187499L181.21822916666667,106.1950103515625L181.64765624999998,106.1960359375L182.07708333333332,106.19701542968751L182.50651041666669,106.197948828125L182.9359375,106.19884765625L183.36536458333333,106.19970039062498L183.79479166666667,106.20053007812501L184.22421875,106.201313671875L184.65364583333334,106.20206269531249L185.08307291666668,106.2027771484375L185.5125,106.2034685546875L185.94192708333333,106.204125390625L186.3713541666667,106.20474765624999L186.80078125,106.205346875L187.23020833333334,106.205923046875L187.65963541666667,106.20647617187501L188.08906249999998,106.20698320312499L188.51848958333335,106.20749023437502L188.94791666666666,106.20797421875001L189.37734375,106.208412109375L189.80677083333333,106.20885L190.23619791666667,106.2092763671875L190.665625,106.2096681640625L191.09505208333334,106.21004843749999L191.52447916666665,106.21039414062498L191.95390625,106.21073984375L192.38333333333335,106.2110625L192.81276041666666,106.21138515625L193.2421875,106.211684765625L193.67161458333334,106.211961328125L194.10104166666665,106.212237890625L194.53046875,106.21249140625L194.95989583333335,106.21273339843749L195.38932291666666,106.2129638671875L195.81875,106.21319433593749L196.24817708333333,106.21341328124998L196.67760416666667,106.21360917968751L197.10703125,106.21379355468751L197.53645833333334,106.2139779296875L197.96588541666665,106.2141623046875L198.39531250000002,106.21432363281251L198.82473958333333,106.21447343749999L199.25416666666666,106.2146232421875L199.68359375,106.214773046875L200.1130208333333,106.2148998046875L200.54244791666667,106.2150265625L200.971875,106.2151533203125L201.40130208333332,106.21525703125L201.83072916666666,106.21537226562499L202.26015625,106.2154875L202.68958333333333,106.2155796875L203.11901041666667,106.21567187499998L203.5484375,106.21576406249999L203.97786458333331,106.21585624999999L204.40729166666668,106.21593691406251L204.83671875000002,106.21600605468751L205.26614583333333,106.21607519531248L205.69557291666666,106.21614433593751L206.125,106.21621347656249L206.55442708333334,106.21627109375001L206.98385416666667,106.2163287109375L207.41328125,106.21638632812498L207.84270833333332,106.216432421875L208.27213541666666,106.216478515625L208.70156250000002,106.21653613281251L209.13098958333333,106.21658222656251L209.56041666666667,106.216616796875L209.98984374999998,106.216662890625L210.41927083333334,106.2166974609375L210.84869791666668,106.2167435546875L211.278125,106.216778125L211.70755208333333,106.216801171875L212.13697916666666,106.2168357421875L212.56640625,106.21687031249999L212.99583333333334,106.216893359375L213.42526041666667,106.2169279296875L213.85468749999998,106.2177345703125L214.28411458333332,106.42376210937499L214.71354166666669,107.84591562499999L215.14296875,135.72740849609374L215.57239583333333,143.81292060546875L216.00182291666667,145.110937890625L216.43125,146.1907646484375L216.86067708333334,147.3024537109375L217.29010416666668,148.377071875L217.71953125,149.4127638671875L218.14895833333333,150.39952734374998L218.5783854166667,151.36752490234375L219.0078125,152.3050775390625L219.43723958333334,153.202142578125L219.86666666666667,154.06949443359375L220.29609374999998,154.91309648437502L220.72552083333335,155.7295435546875L221.15494791666666,156.544907421875L221.584375,157.35163447265623L222.01380208333333,158.12399863281252L222.44322916666667,158.873287109375L222.87265625,159.61752832031252L223.30208333333334,160.34305546875L223.73151041666665,161.038494921875L224.1609375,161.714828515625L224.59036458333335,162.37726772460937L225.01979166666666,163.014533984375L225.44921875,163.63372861328125L225.87864583333334,164.24390327148436L226.30807291666665,164.84192646484374L226.7375,165.4268158203125L227.16692708333335,165.99352695312498L227.59635416666666,166.54267924804688L228.02578125,167.07657163085938L228.45520833333333,167.59532221679686L228.88463541666667,168.100472265625L229.3140625,168.59333544921876L229.74348958333334,169.07427763671876L230.17291666666665,169.54622866210937L230.60234375000002,169.9938421875L231.03177083333333,170.43705087890623L231.46119791666666,170.86780849609374L231.890625,171.27284291992189L232.3200520833333,171.736577734375L232.74947916666667,172.136809765625L233.17890625,172.57122607421874L233.60833333333332,172.95560185546876L234.03776041666666,173.36824174804687L234.4671875,173.694041015625L234.89661458333333,174.11281713867186L235.32604166666667,174.42324125976563L235.75546875,174.85317783203126" style="fill: none;" fill="none"></path></g></g></g></g></g></g><g transform="translate(72, 177)" clip-path="url(#clip_1)"><clipPath id="clip_1"><rect width="257" height="23"></rect></clipPath><g><g><line x1="0" y1="0" x2="0" y2="5" style="visibility: inherit;" fill="rgb(0, 0, 0)" stroke="rgb(204, 204, 204)" stroke-width="1px"></line><line x1="21.471354166666664" y1="0" x2="21.471354166666664" y2="5" style="visibility: inherit;" fill="rgb(0, 0, 0)" stroke="rgb(204, 204, 204)" stroke-width="1px"></line><line x1="42.94270833333333" y1="0" x2="42.94270833333333" y2="5" style="visibility: inherit;" fill="rgb(0, 0, 0)" stroke="rgb(204, 204, 204)" stroke-width="1px"></line><line x1="64.4140625" y1="0" x2="64.4140625" y2="5" style="visibility: inherit;" fill="rgb(0, 0, 0)" stroke="rgb(204, 204, 204)" stroke-width="1px"></line><line x1="85.88541666666666" y1="0" x2="85.88541666666666" y2="5" style="visibility: inherit;" fill="rgb(0, 0, 0)" stroke="rgb(204, 204, 204)" stroke-width="1px"></line><line x1="107.35677083333334" y1="0" x2="107.35677083333334" y2="5" style="visibility: inherit;" fill="rgb(0, 0, 0)" stroke="rgb(204, 204, 204)" stroke-width="1px"></line><line x1="128.828125" y1="0" x2="128.828125" y2="5" style="visibility: inherit;" fill="rgb(0, 0, 0)" stroke="rgb(204, 204, 204)" stroke-width="1px"></line><line x1="150.29947916666669" y1="0" x2="150.29947916666669" y2="5" style="visibility: inherit;" fill="rgb(0, 0, 0)" stroke="rgb(204, 204, 204)" stroke-width="1px"></line><line x1="171.77083333333331" y1="0" x2="171.77083333333331" y2="5" style="visibility: inherit;" fill="rgb(0, 0, 0)" stroke="rgb(204, 204, 204)" stroke-width="1px"></line><line x1="193.2421875" y1="0" x2="193.2421875" y2="5" style="visibility: inherit;" fill="rgb(0, 0, 0)" stroke="rgb(204, 204, 204)" stroke-width="1px"></line><line x1="214.71354166666669" y1="0" x2="214.71354166666669" y2="5" style="visibility: inherit;" fill="rgb(0, 0, 0)" stroke="rgb(204, 204, 204)" stroke-width="1px"></line><line x1="236.18489583333331" y1="0" x2="236.18489583333331" y2="5" style="visibility: inherit;" fill="rgb(0, 0, 0)" stroke="rgb(204, 204, 204)" stroke-width="1px"></line><line x1="257.65625" y1="0" x2="257.65625" y2="5" style="visibility: inherit;" fill="rgb(0, 0, 0)" stroke="rgb(204, 204, 204)" stroke-width="1px"></line></g><g transform="translate(0, 8)"><text x="0" y="0" dx="0em" dy="0.95em" style="text-anchor: middle; visibility: hidden; font-family: Roboto, sans-serif; font-size: 12px; font-weight: 200;" fill="rgb(33, 33, 33)" stroke="none" stroke-width="1px">-50</text><text x="21.471354166666664" y="0" dx="0em" dy="0.95em" style="text-anchor: middle; visibility: inherit; font-family: Roboto, sans-serif; font-size: 12px; font-weight: 200;" fill="rgb(33, 33, 33)" stroke="none" stroke-width="1px">0</text><text x="42.94270833333333" y="0" dx="0em" dy="0.95em" style="text-anchor: middle; visibility: hidden; font-family: Roboto, sans-serif; font-size: 12px; font-weight: 200;" fill="rgb(33, 33, 33)" stroke="none" stroke-width="1px">50</text><text x="64.4140625" y="0" dx="0em" dy="0.95em" style="text-anchor: middle; visibility: inherit; font-family: Roboto, sans-serif; font-size: 12px; font-weight: 200;" fill="rgb(33, 33, 33)" stroke="none" stroke-width="1px">100</text><text x="85.88541666666666" y="0" dx="0em" dy="0.95em" style="text-anchor: middle; visibility: hidden; font-family: Roboto, sans-serif; font-size: 12px; font-weight: 200;" fill="rgb(33, 33, 33)" stroke="none" stroke-width="1px">150</text><text x="107.35677083333334" y="0" dx="0em" dy="0.95em" style="text-anchor: middle; visibility: inherit; font-family: Roboto, sans-serif; font-size: 12px; font-weight: 200;" fill="rgb(33, 33, 33)" stroke="none" stroke-width="1px">200</text><text x="128.828125" y="0" dx="0em" dy="0.95em" style="text-anchor: middle; visibility: hidden; font-family: Roboto, sans-serif; font-size: 12px; font-weight: 200;" fill="rgb(33, 33, 33)" stroke="none" stroke-width="1px">250</text><text x="150.29947916666669" y="0" dx="0em" dy="0.95em" style="text-anchor: middle; visibility: inherit; font-family: Roboto, sans-serif; font-size: 12px; font-weight: 200;" fill="rgb(33, 33, 33)" stroke="none" stroke-width="1px">300</text><text x="171.77083333333331" y="0" dx="0em" dy="0.95em" style="text-anchor: middle; visibility: hidden; font-family: Roboto, sans-serif; font-size: 12px; font-weight: 200;" fill="rgb(33, 33, 33)" stroke="none" stroke-width="1px">350</text><text x="193.2421875" y="0" dx="0em" dy="0.95em" style="text-anchor: middle; visibility: inherit; font-family: Roboto, sans-serif; font-size: 12px; font-weight: 200;" fill="rgb(33, 33, 33)" stroke="none" stroke-width="1px">400</text><text x="214.71354166666669" y="0" dx="0em" dy="0.95em" style="text-anchor: middle; visibility: hidden; font-family: Roboto, sans-serif; font-size: 12px; font-weight: 200;" fill="rgb(33, 33, 33)" stroke="none" stroke-width="1px">450</text><text x="236.18489583333331" y="0" dx="0em" dy="0.95em" style="text-anchor: middle; visibility: inherit; font-family: Roboto, sans-serif; font-size: 12px; font-weight: 200;" fill="rgb(33, 33, 33)" stroke="none" stroke-width="1px">500</text><text x="257.65625" y="0" dx="0em" dy="0.95em" style="text-anchor: middle; visibility: hidden; font-family: Roboto, sans-serif; font-size: 12px; font-weight: 200;" fill="rgb(33, 33, 33)" stroke="none" stroke-width="1px">550</text></g><line x1="0" y1="0" x2="257.65625" y2="0" fill="rgb(0, 0, 0)" stroke="rgb(204, 204, 204)" stroke-width="1px"></line></g></g></g></g></svg>