<svg viewBox="0 0 330 200" xmlns="http://www.w3.org/2000/svg"><g><g><g><g><g><line x1="30" y1="177" x2="25" y2="177" style="visibility: inherit;" fill="rgb(0, 0, 0)" stroke="rgb(204, 204, 204)" stroke-width="1px"></line><line x1="30" y1="159.3" x2="25" y2="159.3" style="visibility: inherit;" fill="rgb(0, 0, 0)" stroke="rgb(204, 204, 204)" stroke-width="1px"></line><line x1="30" y1="141.6" x2="25" y2="141.6" style="visibility: inherit;" fill="rgb(0, 0, 0)" stroke="rgb(204, 204, 204)" stroke-width="1px"></line><line x1="30" y1="123.89999999999999" x2="25" y2="123.89999999999999" style="visibility: inherit;" fill="rgb(0, 0, 0)" stroke="rgb(204, 204, 204)" stroke-width="1px"></line><line x1="30" y1="106.2" x2="25" y2="106.2" style="visibility: inherit;" fill="rgb(0, 0, 0)" stroke="rgb(204, 204, 204)" stroke-width="1px"></line><line x1="30" y1="88.5" x2="25" y2="88.5" style="visibility: inherit;" fill="rgb(0, 0, 0)" stroke="rgb(204, 204, 204)" stroke-width="1px"></line><line x1="30" y1="70.8" x2="25" y2="70.8" style="visibility: inherit;" fill="rgb(0, 0, 0)" stroke="rgb(204, 204, 204)" stroke-width="1px"></line><line x1="30" y1="53.10000000000001" x2="25" y2="53.10000000000001" style="visibility: inherit;" fill="rgb(0, 0, 0)" stroke="rgb(204, 204, 204)" stroke-width="1px"></line><line x1="30" y1="35.39999999999999" x2="25" y2="35.39999999999999" style="visibility: inherit;" fill="rgb(0, 0, 0)" stroke="rgb(204, 204, 204)" stroke-width="1px"></line><line x1="30" y1="17.699999999999996" x2="25" y2="17.699999999999996" style="visibility: inherit;" fill="rgb(0, 0, 0)" stroke="rgb(204, 204, 204)" stroke-width="1px"></line><line x1="30" y1="0" x2="25" y2="0" style="visibility: inherit;" fill="rgb(0, 0, 0)" stroke="rgb(204, 204, 204)" stroke-width="1px"></line></g><g transform="translate(20, 0)"><text x="0" y="177" dx="0em" dy="0.3em" style="text-anchor: end; visibility: hidden; font-family: Roboto, sans-serif; font-size: 12px; font-weight: 200;" fill="rgb(33, 33, 33)" stroke="none" stroke-width="1px">-5</text><text x="0" y="159.3" dx="0em" dy="0.3em" style="text-anchor: end; visibility: inherit; font-family: Roboto, sans-serif; font-size: 12px; font-weight: 200;" fill="rgb(33, 33, 33)" stroke="none" stroke-width="1px">0</text><text x="0" y="141.6" dx="0em" dy="0.3em" style="text-anchor: end; visibility: hidden; font-family: Roboto, sans-serif; font-size: 12px; font-weight: 200;" fill="rgb(33, 33, 33)" stroke="none" stroke-width="1px">5</text><text x="0" y="123.89999999999999" dx="0em" dy="0.3em" style="text-anchor: end; visibility: inherit; font-family: Roboto, sans-serif; font-size: 12px; font-weight: 200;" fill="rgb(33, 33, 33)" stroke="none" stroke-width="1px">10</text><text x="0" y="106.2" dx="0em" dy="0.3em" style="text-anchor: end; visibility: hidden; font-family: Roboto, sans-serif; font-size: 12px; font-weight: 200;" fill="rgb(33, 33, 33)" stroke="none" stroke-width="1px">15</text><text x="0" y="88.5" dx="0em" dy="0.3em" style="text-anchor: end; visibility: inherit; font-family: Roboto, sans-serif; font-size: 12px; font-weight: 200;" fill="rgb(33, 33, 33)" stroke="none" stroke-width="1px">20</text><text x="0" y="70.8" dx="0em" dy="0.3em" style="text-anchor: end; visibility: hidden; font-family: Roboto, sans-serif; font-size: 12px; font-weight: 200;" fill="rgb(33, 33, 33)" stroke="none" stroke-width="1px">25</text><text x="0" y="53.10000000000001" dx="0em" dy="0.3em" style="text-anchor: end; visibility: inherit; font-family: Roboto, sans-serif; font-size: 12px; font-weight: 200;" fill="rgb(33, 33, 33)" stroke="none" stroke-width="1px">30</text><text x="0" y="35.39999999999999" dx="0em" dy="0.3em" style="text-anchor: end; visibility: hidden; font-family: Roboto, sans-serif; font-size: 12px; font-weight: 200;" fill="rgb(33, 33, 33)" stroke="none" stroke-width="1px">35</text><text x="0" y="17.699999999999996" dx="0em" dy="0.3em" style="text-anchor: end; visibility: inherit; font-family: Roboto, sans-serif; font-size: 12px; font-weight: 200;" fill="rgb(33, 33, 33)" stroke="none" stroke-width="1px">40</text><text x="0" y="0" dx="0em" dy="0.3em" style="text-anchor: end; visibility: hidden; font-family: Roboto, sans-serif; font-size: 12px; font-weight: 200;" fill="rgb(33, 33, 33)" stroke="none" stroke-width="1px">45</text></g><line x1="30" y1="0" x2="30" y2="177" fill="rgb(0, 0, 0)" stroke="rgb(204, 204, 204)" stroke-width="1px"></line></g></g><g transform="translate(30, 0)" clip-path="url(#clip_0)"><clipPath id="clip_0"><rect width="300" height="177"></rect></clipPath><g><g><g><line x1="0" y1="0" x2="0" y2="177" fill="rgb(0, 0, 0)" stroke="rgb(66, 66, 66)" stroke-width="1px" opacity="0.25"></line><line x1="25" y1="0" x2="25" y2="177" fill="rgb(0, 0, 0)" stroke="rgb(66, 66, 66)" stroke-width="1px" opacity="0.25"></line><line x1="50" y1="0" x2="50" y2="177" fill="rgb(0, 0, 0)" stroke="rgb(66, 66, 66)" stroke-width="1px" opacity="0.25"></line><line x1="75" y1="0" x2="75" y2="177" fill="rgb(0, 0, 0)" stroke="rgb(66, 66, 66)" stroke-width="1px" opacity="0.25"></line><line x1="100" y1="0" x2="100" y2="177" fill="rgb(0, 0, 0)" stroke="rgb(66, 66, 66)" stroke-width="1px" opacity="0.25"></line><line x1="125" y1="0" x2="125" y2="177" fill="rgb(0, 0, 0)" stroke="rgb(66, 66, 66)" stroke-width="1px" opacity="0.25"></line><line x1="150" y1="0" x2="150" y2="177" fill="rgb(0, 0, 0)" stroke="rgb(66, 66, 66)" stroke-width="1px" opacity="0.25"></line><line x1="175" y1="0" x2="175" y2="177" fill="rgb(0, 0, 0)" stroke="rgb(66, 66, 66)" stroke-width="1px" opacity="0.25"></line><line x1="200" y1="0" x2="200" y2="177" fill="rgb(0, 0, 0)" stroke="rgb(66, 66, 66)" stroke-width="1px" opacity="0.25"></line><line x1="225" y1="0" x2="225" y2="177" fill="rgb(0, 0, 0)" stroke="rgb(66, 66, 66)" stroke-width="1px" opacity="0.25"></line><line x1="250" y1="0" x2="250" y2="177" fill="rgb(0, 0, 0)" stroke="rgb(66, 66, 66)" stroke-width="1px" opacity="0.25"></line><line x1="275" y1="0" x2="275" y2="177" fill="rgb(0, 0, 0)" stroke="rgb(66, 66, 66)" stroke-width="1px" opacity="0.25"></line><line x1="300" y1="0" x2="300" y2="177" fill="rgb(0, 0, 0)" stroke="rgb(66, 66, 66)" stroke-width="1px" opacity="0.25"></line></g><g><line x1="0" y1="177" x2="300" y2="177" fill="rgb(0, 0, 0)" stroke="rgb(66, 66, 66)" stroke-width="1px" opacity="0.25"></line><line x1="0" y1="159.3" x2="300" y2="159.3" fill="rgb(0, 0, 0)" stroke="rgb(66, 66, 66)" stroke-width="1px" opacity="0.25"></line><line x1="0" y1="141.6" x2="300" y2="141.6" fill="rgb(0, 0, 0)" stroke="rgb(66, 66, 66)" stroke-width="1px" opacity="0.25"></line><line x1="0" y1="123.89999999999999" x2="300" y2="123.89999999999999" fill="rgb(0, 0, 0)" stroke="rgb(66, 66, 66)" stroke-width="1px" opacity="0.25"></line><line x1="0" y1="106.2" x2="300" y2="106.2" fill="rgb(0, 0, 0)" stroke="rgb(66, 66, 66)" stroke-width="1px" opacity="0.25"></line><line x1="0" y1="88.5" x2="300" y2="88.5" fill="rgb(0, 0, 0)" stroke="rgb(66, 66, 66)" stroke-width="1px" opacity="0.25"></line><line x1="0" y1="70.8" x2="300" y2="70.8" fill="rgb(0, 0, 0)" stroke="rgb(66, 66, 66)" stroke-width="1px" opacity="0.25"></line><line x1="0" y1="53.10000000000001" x2="300" y2="53.10000000000001" fill="rgb(0, 0, 0)" stroke="rgb(66, 66, 66)" stroke-width="1px" opacity="0.25"></line><line x1="0" y1="35.39999999999999" x2="300" y2="35.39999999999999" fill="rgb(0, 0, 0)" stroke="rgb(66, 66, 66)" stroke-width="1px" opacity="0.25"></line><line x1="0" y1="17.699999999999996" x2="300" y2="17.699999999999996" fill="rgb(0, 0, 0)" stroke="rgb(66, 66, 66)" stroke-width="1px" opacity="0.25"></line><line x1="0" y1="0" x2="300" y2="0" fill="rgb(0, 0, 0)" stroke="rgb(66, 66, 66)" stroke-width="1px" opacity="0.25"></line></g></g></g><g><g><line x1="0" y1="159.3" x2="300" y2="159.3" fill="rgb(0, 0, 0)" stroke="rgb(153, 153, 153)" stroke-width="1.5px"></line></g></g><g><g><line x1="25" y1="0" x2="25" y2="177" fill="rgb(0, 0, 0)" stroke="rgb(153, 153, 153)" stroke-width="1.5px"></line></g></g><g><g><g><g><g><path stroke="rgb(0, 119, 187)" stroke-width="2px" d="M25,53.4835954284668L25.500000000000004,-87.3740071105957L33,-0.13158325195312814L33.5,2.402258605957029L34,-9.381032409667965L34.5,2.472965698242186L35,9.45030807495117L35.5,10.41495483398437L36,20.30462997436523L36.5,27.22412109375L37,27.580208816528323L37.5,27.138154449462885L38,31.6253269958496L38.5,17.113722610473637L39,-2.2607633972168157L40,-1.2990875244140625L40.5,11.399722595214845L41,4.666506042480468L41.5,28.87948539733887L42.00000000000001,43.9597444152832L42.5,32.763500518798836L43,40.39751678466797L43.5,40.44452430725098L44,47.45380371093749L44.5,57.52011829376221L45,48.21690284729005L45.5,65.68601097106932L46,58.040435256958006L46.5,64.28817523956297L47,65.84529773712157L47.5,61.89374897003174L48,68.89971313476563L48.49999999999999,75.32183738708495L49,79.76347434997558L49.5,76.18450172424318L50,80.57404014587402L50.5,78.56817878723143L51.00000000000001,80.99987617492675L51.5,88.06557540893554L52,83.43153305053711L52.5,76.51730850219727L53,86.21538173675538L53.5,86.27658199310302L54,84.43746162414551L54.5,85.81427158355712L54.99999999999999,93.98321617126464L55.5,95.23673435211181L56,94.85330772399902L56.5,97.2846742630005L57,99.97584480285644L57.50000000000001,100.0354178237915L58,98.28904312133791L58.5,99.22293445587158L59,99.68446838378907L59.5,102.28900382995606L60,100.77045558929443L60.5,103.96217319488525L61,111.56915439605714L61.49999999999999,111.39657291412352L62,110.6468292617798L62.5,104.20989784240722L63,102.76710720062256L63.5,106.82861251831055L64,107.28691223144531L64.5,109.53221689224242L65,110.2457427406311L65.5,112.27045572280883L66,111.88924713134766L66.5,114.12323541641236L67,115.63847179412842L67.5,115.9408641242981L68,112.72455230712892L68.5,114.10419136047364L69,113.79912185668945L69.5,116.55256622314455L70,111.25741052627563L70.5,109.84878170013428L71,113.44038059234619L71.5,117.93631725311279L72,121.06713169097902L72.5,122.92808807373046L73,119.82306970596315L73.5,117.94653980255126L74,119.07736375808716L74.5,120.09330219268799L75,121.390364112854L75.5,118.07292400360106L76,120.23282243728637L76.5,123.87904850006105L77,124.09595695495607L77.50000000000001,125.82804777145385L78,129.80825546264649L78.5,129.5251165008545L78.99999999999999,127.00012653350832L79.5,124.93343290328978L80,128.22821325302124L80.5,127.26721258163452L81,128.73228487014768L81.5,130.95819437026978L82,129.55479835510255L82.5,132.48007135391236L83,133.5156952857971L83.5,133.4973753833771L84.00000000000001,132.6060605621338L84.5,133.33728006362915L85,133.08541305541993L85.49999999999999,131.75683610916138L86,132.08436281204223L86.5,130.1870839691162L87,133.1862358188629L87.5,133.16182222366334L88,135.18443870544434L88.5,134.57177782058716L89,136.2901299762726L89.5,136.68072217941284L90,137.51781326293946L90.50000000000001,138.40846132278443L91,137.93092849731445L91.5,137.85653818130493L92,137.90604057312012L92.5,133.6568765258789L93,134.04142567634582L93.5,134.5809065437317L94,133.2339725589752L94.5,133.77168439865113L95,134.35831964492797L95.5,129.77341506958007L96,133.77701004981995L96.5,135.0801369667053L96.99999999999999,133.93276382446288L97.5,136.84490246772765L98,136.03599935531616L98.5,134.31699563026427L99,134.29482370376587L99.5,130.278897857666L100,131.95023067474366L100.5,135.58811631202698L101,133.86883744239807L101.5,137.02853868484496L102.00000000000001,134.95406335830688L102.5,132.46175989150998L103,126.51282016754149L103.49999999999999,124.8228923034668L104,130.19222562789918L104.5,133.42919860839842L105,135.13883560180665L105.5,134.04258702278136L106,134.60131113052367L106.5,134.1756371498108L107,136.52056102752687L107.5,136.2148770904541L108,138.79818758010865L108.50000000000001,139.61222222328186L109,140.565525598526L109.5,140.6865554523468L109.99999999999999,142.05993707656862L110.5,140.9952761077881L111,141.71894010543824L111.5,143.76162526130676L112,142.94066811561584L112.5,142.98196681022645L113,143.50400047302247L113.5,144.5509087085724L114,145.6976910495758L114.5,144.88654964447022L115.00000000000001,145.20601444244386L115.5,144.24719804763794L116,143.68365468978882L116.49999999999999,143.8845203590393L117,142.51793632507324L117.5,142.77824672698975L118,143.072379655838L118.5,144.19360224723815L119,144.78167736053467L119.5,144.94153129577637L120,144.48187949180604L120.5,143.5749050617218L121,145.01148553848267L121.50000000000001,144.36083275794982L122,143.57274779319764L122.5,143.58983545303346L122.99999999999999,144.20422147750855L123.5,142.7179191684723L124,143.51456231117248L124.5,144.13190571784972L125,141.95140182495118L125.5,140.67591259002685L126,143.3802985095978L126.5,141.87316117286682L127,138.45886342048644L127.5,138.6679057788849L128,141.06302581787108L128.5,144.33153745651245L129,144.90705719947815L129.5,145.45638081550598L130,144.4666452598572L130.5,144.662614030838L131,143.8282592010498L131.5,134.13125447273254L132,139.07951362609865L132.5,137.3236472797394L133,137.80341164588927L133.5,133.79856923103333L134,133.02890882492065L134.5,131.70000946998596L135,134.89556728363036L135.5,133.49035497665406L136,129.99834829330445L136.5,135.02860390663147L137,136.74835035324097L137.5,138.01631784439087L138,142.09713223457337L138.5,138.6991119003296L139,139.94473022460937L139.5,136.53989879608153L140,138.47376342773438L140.5,137.17747798919677L141,140.89342028617858L141.5,140.63603857040405L142,143.57031538009645L142.5,141.49331142425538L143,140.4123916053772L143.5,139.4531920337677L144,134.74296501159668L144.5,137.45770683288575L145,136.4528045654297L145.5,140.8702119255066L146,142.8439995288849L146.5,143.9356415462494L147,142.1658525466919L147.5,145.22185888767243L148,143.12629786491394L148.5,143.24050312042237L149,145.7241876411438L149.5,143.9365817642212L150,144.87100988388062L150.5,145.1454421234131L151,143.749767036438L151.5,145.18151982307435L152,140.71006596565246L152.5,141.39031282424926L153,138.5211389350891L153.5,139.3671494293213L154,140.35472096443178L154.5,138.3477134513855L155.00000000000003,133.92950935363768L155.5,136.10832524299622L156,134.330116481781L156.49999999999997,135.91525983810425L157,134.7718315601349L157.5,137.22643177986146L157.99999999999997,138.3192520236969L158.5,137.32856274604796L159,139.70850425720215L159.5,141.6337347507477L160,142.29800634384156L160.5,143.35822786331178L161,141.8083823490143L161.5,143.80785123825072L162,142.54854995727538L162.5,144.00111751556398L163,144.68884729385377L163.5,145.1810024499893L164,145.32112024784087L164.5,145.43477015018462L165,146.64401115417482L165.5,146.151034784317L166,148.0069035243988L166.50000000000003,148.1458971118927L167,147.2774057865143L167.5,146.88903921604157L168.00000000000003,146.76894114017486L168.5,143.81226536750793L169,145.0346820831299L169.49999999999997,140.62797328948974L170,143.6582232284546L170.5,145.00946668624877L170.99999999999997,145.59857485771178L171.5,142.42894309043885L172,144.46893925666808L172.5,146.07034315109254L173,147.75901851654052L173.5,147.6563895893097L174,148.67386410713195L174.5,148.6484191417694L175,149.25221716403962L175.5,149.61200583457946L176,149.7625267982483L176.5,150.27226757526398L177,149.08410551548005L177.5,149.23461888313292L178,148.5000689506531L178.5,148.49797329425812L179,146.3287368249893L179.50000000000003,146.15088455200194L180,146.78209068775178L180.5,145.11050045013428L181.00000000000003,145.34941878318787L181.5,144.9526974391937L182,145.8901926612854L182.49999999999997,147.70969674110412L183,147.09832802295685L183.5,149.00084558486938L184,149.96173316001892L184.5,148.49558983325957L185,150.13665337085723L185.5,148.4387792301178L186,145.96538055896758L186.5,146.3474128961563L187,142.37508058547974L187.5,143.5081006336212L188,144.76699341773988L188.5,141.52557929992676L189,142.9485916042328L189.5,141.80099733352662L190,144.15877367019652L190.5,145.4671258020401L191,145.12861779212952L191.5,145.40352858066558L192,145.16539516925812L192.50000000000003,146.97414244651796L193,146.3218489265442L193.5,146.4000372505188L193.99999999999997,147.4209426355362L194.5,146.09866869449615L195,145.41361608982086L195.49999999999997,146.6291271829605L196,145.93969927310943L196.5,145.2580766916275L197,145.23344196796418L197.5,144.182255487442L198,144.8838167667389L198.5,145.77002368927L199,145.54100887298583L199.5,149.2143847846985L200,147.8843392753601L200.5,147.7764429330826L201,145.19408363342285L201.5,144.0550863647461L202,143.09708189964294L202.5,139.37539363861083L203,140.92984909057617L203.5,140.72848714828493L204.00000000000003,143.80726718902588L204.5,146.49659864902497L205,146.99381781578063L205.50000000000003,146.4461273431778L206,146.63603196144103L206.5,142.9748873233795L206.99999999999997,144.2131240081787L207.5,144.41044486999513L208,145.9503919315338L208.49999999999997,145.62584117889404L209,146.80858221530914L209.5,145.99215313911438L210,146.54786584854125L210.5,142.8988022518158L211,138.85581433296204L211.5,136.98624913215636L212,138.4518632698059L212.5,141.08126300811767L213,142.46003949165345L213.5,144.93922885894776L214,143.69997937202453L214.5,141.47548948287962L215,141.22073261260985L215.5,142.0593125152588L216,143.4361596107483L216.5,146.11256687164305L217.00000000000003,147.94826059341432L217.5,147.54808221817015L218,148.43972366809845L218.50000000000003,150.09112875938416L219,148.52594604492188L219.5,148.84107773780823L219.99999999999997,148.158010225296L220.5,148.04123329639435L221,147.36966361999512L221.5,145.76297289848327L222,147.21535308837892L222.5,143.18991703033447L223,143.26344984054566L223.5,143.9262241744995L224,141.83819924354552L224.5,145.04704333305358L225,146.71644169807433L225.5,147.267054104805L226,148.05598729133607L226.5,146.10771301746368L227,146.28820701599122L227.5,145.30772762775422L228,139.09277795791627L228.5,141.03194798469545L229,144.4093780517578L229.5,146.67942715644836L230.00000000000003,148.59414138793946L230.5,148.61800806999207L231,148.74593004226685L231.49999999999997,149.32758905410768L232,150.91402710914613L232.5,151.41642000675202L232.99999999999997,152.47458975791932L233.5,152.17611528396606L234,152.18038340091707L234.5,152.37201906681062L235,152.33550839424134L235.5,151.10862268924714L236,151.9242094516754L236.5,152.77237721443177L237,152.05769339561462L237.5,152.18210094451905L238,152.18465658187867L238.5,152.6428301167488L239,152.52471038103104L239.5,152.29682779312134L240,151.61232885360718L240.5,151.6079248523712L241,151.45071855068207L241.50000000000003,149.7455488586426L242,149.91796829223634L242.5,150.93374636650086L243.00000000000003,150.94600380420684L243.5,150.93506047725677L244,150.83521928787232L244.49999999999997,151.09837228775024L245,149.2394955253601L245.5,150.18336127281188L245.99999999999997,151.18273448467255L246.5,150.7163357305527L247,150.97019205093383L247.5,151.6156896686554L248,150.00722063541411L248.5,150.05656773090362L249,149.71998995304108L249.5,148.1331383371353L250,149.36096257209778L250.5,149.26550765991212L251,148.92328351020814L251.5,148.45019351005553L252,149.00118487358094L252.5,148.13619446754456L253,151.47528491020202L253.5,152.21833225250245L254,151.6915865278244L254.50000000000003,152.57151871919632L255,152.76542095184325L255.5,153.2586463022232L256,153.9494929790497L256.5,154.3613860988617L257,154.38235110282898L257.5,153.24467638492584L258,152.936280670166L258.5,154.1028573846817L259,153.88165127277375L259.5,152.67495282411576L260,150.06510227680207L260.5,149.30259816169738L261,150.24123278617859L261.5,149.8612766933441L262,150.756420750618L262.5,152.42253004074095L263,152.8026616859436L263.5,152.09735725879668L264,150.78272575378418L264.5,149.13517437458037L265,150.3757219362259L265.5,152.23755861282348L266,151.7953371334076L266.5,150.82955434799194L267,149.30826141357423L267.5,147.95753195285798L268,149.41470185279846L268.5,150.0340835237503L269,148.23846975803374L269.5,150.50362956047059L270,151.993902053833L270.5,152.43539811372756L271,151.83633873939513L271.5,152.57361732959748L272,153.71816812992097L272.5,153.9626395726204L273,153.26528268814087L273.5,153.1485310792923L274,154.12875262498855L274.5,153.72870296001435" style="fill: none;" fill="none"></path></g></g></g></g></g></g><g transform="translate(30, 177)" clip-path="url(#clip_1)"><clipPath id="clip_1"><rect width="300" height="23"></rect></clipPath><g><g><line x1="0" y1="0" x2="0" y2="5" style="visibility: inherit;" fill="rgb(0, 0, 0)" stroke="rgb(204, 204, 204)" stroke-width="1px"></line><line x1="25" y1="0" x2="25" y2="5" style="visibility: inherit;" fill="rgb(0, 0, 0)" stroke="rgb(204, 204, 204)" stroke-width="1px"></line><line x1="50" y1="0" x2="50" y2="5" style="visibility: inherit;" fill="rgb(0, 0, 0)" stroke="rgb(204, 204, 204)" stroke-width="1px"></line><line x1="75" y1="0" x2="75" y2="5" style="visibility: inherit;" fill="rgb(0, 0, 0)" stroke="rgb(204, 204, 204)" stroke-width="1px"></line><line x1="100" y1="0" x2="100" y2="5" style="visibility: inherit;" fill="rgb(0, 0, 0)" stroke="rgb(204, 204, 204)" stroke-width="1px"></line><line x1="125" y1="0" x2="125" y2="5" style="visibility: inherit;" fill="rgb(0, 0, 0)" stroke="rgb(204, 204, 204)" stroke-width="1px"></line><line x1="150" y1="0" x2="150" y2="5" style="visibility: inherit;" fill="rgb(0, 0, 0)" stroke="rgb(204, 204, 204)" stroke-width="1px"></line><line x1="175" y1="0" x2="175" y2="5" style="visibility: inherit;" fill="rgb(0, 0, 0)" stroke="rgb(204, 204, 204)" stroke-width="1px"></line><line x1="200" y1="0" x2="200" y2="5" style="visibility: inherit;" fill="rgb(0, 0, 0)" stroke="rgb(204, 204, 204)" stroke-width="1px"></line><line x1="225" y1="0" x2="225" y2="5" style="visibility: inherit;" fill="rgb(0, 0, 0)" stroke="rgb(204, 204, 204)" stroke-width="1px"></line><line x1="250" y1="0" x2="250" y2="5" style="visibility: inherit;" fill="rgb(0, 0, 0)" stroke="rgb(204, 204, 204)" stroke-width="1px"></line><line x1="275" y1="0" x2="275" y2="5" style="visibility: inherit;" fill="rgb(0, 0, 0)" stroke="rgb(204, 204, 204)" stroke-width="1px"></line><line x1="300" y1="0" x2="300" y2="5" style="visibility: inherit;" fill="rgb(0, 0, 0)" stroke="rgb(204, 204, 204)" stroke-width="1px"></line></g><g transform="translate(0, 8)"><text x="0" y="0" dx="0em" dy="0.95em" style="text-anchor: middle; visibility: hidden; font-family: Roboto, sans-serif; font-size: 12px; font-weight: 200;" fill="rgb(33, 33, 33)" stroke="none" stroke-width="1px">-50</text><text x="25" y="0" dx="0em" dy="0.95em" style="text-anchor: middle; visibility: inherit; font-family: Roboto, sans-serif; font-size: 12px; font-weight: 200;" fill="rgb(33, 33, 33)" stroke="none" stroke-width="1px">0</text><text x="50" y="0" dx="0em" dy="0.95em" style="text-anchor: middle; visibility: inherit; font-family: Roboto, sans-serif; font-size: 12px; font-weight: 200;" fill="rgb(33, 33, 33)" stroke="none" stroke-width="1px">50</text><text x="75" y="0" dx="0em" dy="0.95em" style="text-anchor: middle; visibility: inherit; font-family: Roboto, sans-serif; font-size: 12px; font-weight: 200;" fill="rgb(33, 33, 33)" stroke="none" stroke-width="1px">100</text><text x="100" y="0" dx="0em" dy="0.95em" style="text-anchor: middle; visibility: inherit; font-family: Roboto, sans-serif; font-size: 12px; font-weight: 200;" fill="rgb(33, 33, 33)" stroke="none" stroke-width="1px">150</text><text x="125" y="0" dx="0em" dy="0.95em" style="text-anchor: middle; visibility: inherit; font-family: Roboto, sans-serif; font-size: 12px; font-weight: 200;" fill="rgb(33, 33, 33)" stroke="none" stroke-width="1px">200</text><text x="150" y="0" dx="0em" dy="0.95em" style="text-anchor: middle; visibility: inherit; font-family: Roboto, sans-serif; font-size: 12px; font-weight: 200;" fill="rgb(33, 33, 33)" stroke="none" stroke-width="1px">250</text><text x="175" y="0" dx="0em" dy="0.95em" style="text-anchor: middle; visibility: inherit; font-family: Roboto, sans-serif; font-size: 12px; font-weight: 200;" fill="rgb(33, 33, 33)" stroke="none" stroke-width="1px">300</text><text x="200" y="0" dx="0em" dy="0.95em" style="text-anchor: middle; visibility: inherit; font-family: Roboto, sans-serif; font-size: 12px; font-weight: 200;" fill="rgb(33, 33, 33)" stroke="none" stroke-width="1px">350</text><text x="225" y="0" dx="0em" dy="0.95em" style="text-anchor: middle; visibility: inherit; font-family: Roboto, sans-serif; font-size: 12px; font-weight: 200;" fill="rgb(33, 33, 33)" stroke="none" stroke-width="1px">400</text><text x="250" y="0" dx="0em" dy="0.95em" style="text-anchor: middle; visibility: inherit; font-family: Roboto, sans-serif; font-size: 12px; font-weight: 200;" fill="rgb(33, 33, 33)" stroke="none" stroke-width="1px">450</text><text x="275" y="0" dx="0em" dy="0.95em" style="text-anchor: middle; visibility: inherit; font-family: Roboto, sans-serif; font-size: 12px; font-weight: 200;" fill="rgb(33, 33, 33)" stroke="none" stroke-width="1px">500</text><text x="300" y="0" dx="0em" dy="0.95em" style="text-anchor: middle; visibility: hidden; font-family: Roboto, sans-serif; font-size: 12px; font-weight: 200;" fill="rgb(33, 33, 33)" stroke="none" stroke-width="1px">550</text></g><line x1="0" y1="0" x2="300" y2="0" fill="rgb(0, 0, 0)" stroke="rgb(204, 204, 204)" stroke-width="1px"></line></g></g></g></g></svg>