<svg viewBox="0 0 330 200" xmlns="http://www.w3.org/2000/svg"><g><g><g><g><g><line x1="30.78125" y1="177" x2="25.78125" y2="177" style="visibility: inherit;" fill="rgb(0, 0, 0)" stroke="rgb(204, 204, 204)" stroke-width="1px"></line><line x1="30.78125" y1="164.35714285714286" x2="25.78125" y2="164.35714285714286" style="visibility: inherit;" fill="rgb(0, 0, 0)" stroke="rgb(204, 204, 204)" stroke-width="1px"></line><line x1="30.78125" y1="151.71428571428572" x2="25.78125" y2="151.71428571428572" style="visibility: inherit;" fill="rgb(0, 0, 0)" stroke="rgb(204, 204, 204)" stroke-width="1px"></line><line x1="30.78125" y1="139.07142857142856" x2="25.78125" y2="139.07142857142856" style="visibility: inherit;" fill="rgb(0, 0, 0)" stroke="rgb(204, 204, 204)" stroke-width="1px"></line><line x1="30.78125" y1="126.42857142857143" x2="25.78125" y2="126.42857142857143" style="visibility: inherit;" fill="rgb(0, 0, 0)" stroke="rgb(204, 204, 204)" stroke-width="1px"></line><line x1="30.78125" y1="113.78571428571428" x2="25.78125" y2="113.78571428571428" style="visibility: inherit;" fill="rgb(0, 0, 0)" stroke="rgb(204, 204, 204)" stroke-width="1px"></line><line x1="30.78125" y1="101.14285714285714" x2="25.78125" y2="101.14285714285714" style="visibility: inherit;" fill="rgb(0, 0, 0)" stroke="rgb(204, 204, 204)" stroke-width="1px"></line><line x1="30.78125" y1="88.5" x2="25.78125" y2="88.5" style="visibility: inherit;" fill="rgb(0, 0, 0)" stroke="rgb(204, 204, 204)" stroke-width="1px"></line><line x1="30.78125" y1="75.85714285714286" x2="25.78125" y2="75.85714285714286" style="visibility: inherit;" fill="rgb(0, 0, 0)" stroke="rgb(204, 204, 204)" stroke-width="1px"></line><line x1="30.78125" y1="63.21428571428571" x2="25.78125" y2="63.21428571428571" style="visibility: inherit;" fill="rgb(0, 0, 0)" stroke="rgb(204, 204, 204)" stroke-width="1px"></line><line x1="30.78125" y1="50.57142857142857" x2="25.78125" y2="50.57142857142857" style="visibility: inherit;" fill="rgb(0, 0, 0)" stroke="rgb(204, 204, 204)" stroke-width="1px"></line><line x1="30.78125" y1="37.92857142857143" x2="25.78125" y2="37.92857142857143" style="visibility: inherit;" fill="rgb(0, 0, 0)" stroke="rgb(204, 204, 204)" stroke-width="1px"></line><line x1="30.78125" y1="25.285714285714295" x2="25.78125" y2="25.285714285714295" style="visibility: inherit;" fill="rgb(0, 0, 0)" stroke="rgb(204, 204, 204)" stroke-width="1px"></line><line x1="30.78125" y1="12.642857142857137" x2="25.78125" y2="12.642857142857137" style="visibility: inherit;" fill="rgb(0, 0, 0)" stroke="rgb(204, 204, 204)" stroke-width="1px"></line><line x1="30.78125" y1="0" x2="25.78125" y2="0" style="visibility: inherit;" fill="rgb(0, 0, 0)" stroke="rgb(204, 204, 204)" stroke-width="1px"></line></g><g transform="translate(20.78125, 0)"><text x="0" y="177" dx="0em" dy="0.3em" style="text-anchor: end; visibility: hidden; font-family: Roboto, sans-serif; font-size: 12px; font-weight: 200;" fill="rgb(33, 33, 33)" stroke="none" stroke-width="1px">-5</text><text x="0" y="164.35714285714286" dx="0em" dy="0.3em" style="text-anchor: end; visibility: inherit; font-family: Roboto, sans-serif; font-size: 12px; font-weight: 200;" fill="rgb(33, 33, 33)" stroke="none" stroke-width="1px">0</text><text x="0" y="151.71428571428572" dx="0em" dy="0.3em" style="text-anchor: end; visibility: hidden; font-family: Roboto, sans-serif; font-size: 12px; font-weight: 200;" fill="rgb(33, 33, 33)" stroke="none" stroke-width="1px">5</text><text x="0" y="139.07142857142856" dx="0em" dy="0.3em" style="text-anchor: end; visibility: inherit; font-family: Roboto, sans-serif; font-size: 12px; font-weight: 200;" fill="rgb(33, 33, 33)" stroke="none" stroke-width="1px">10</text><text x="0" y="126.42857142857143" dx="0em" dy="0.3em" style="text-anchor: end; visibility: hidden; font-family: Roboto, sans-serif; font-size: 12px; font-weight: 200;" fill="rgb(33, 33, 33)" stroke="none" stroke-width="1px">15</text><text x="0" y="113.78571428571428" dx="0em" dy="0.3em" style="text-anchor: end; visibility: inherit; font-family: Roboto, sans-serif; font-size: 12px; font-weight: 200;" fill="rgb(33, 33, 33)" stroke="none" stroke-width="1px">20</text><text x="0" y="101.14285714285714" dx="0em" dy="0.3em" style="text-anchor: end; visibility: hidden; font-family: Roboto, sans-serif; font-size: 12px; font-weight: 200;" fill="rgb(33, 33, 33)" stroke="none" stroke-width="1px">25</text><text x="0" y="88.5" dx="0em" dy="0.3em" style="text-anchor: end; visibility: inherit; font-family: Roboto, sans-serif; font-size: 12px; font-weight: 200;" fill="rgb(33, 33, 33)" stroke="none" stroke-width="1px">30</text><text x="0" y="75.85714285714286" dx="0em" dy="0.3em" style="text-anchor: end; visibility: hidden; font-family: Roboto, sans-serif; font-size: 12px; font-weight: 200;" fill="rgb(33, 33, 33)" stroke="none" stroke-width="1px">35</text><text x="0" y="63.21428571428571" dx="0em" dy="0.3em" style="text-anchor: end; visibility: inherit; font-family: Roboto, sans-serif; font-size: 12px; font-weight: 200;" fill="rgb(33, 33, 33)" stroke="none" stroke-width="1px">40</text><text x="0" y="50.57142857142857" dx="0em" dy="0.3em" style="text-anchor: end; visibility: hidden; font-family: Roboto, sans-serif; font-size: 12px; font-weight: 200;" fill="rgb(33, 33, 33)" stroke="none" stroke-width="1px">45</text><text x="0" y="37.92857142857143" dx="0em" dy="0.3em" style="text-anchor: end; visibility: inherit; font-family: Roboto, sans-serif; font-size: 12px; font-weight: 200;" fill="rgb(33, 33, 33)" stroke="none" stroke-width="1px">50</text><text x="0" y="25.285714285714295" dx="0em" dy="0.3em" style="text-anchor: end; visibility: hidden; font-family: Roboto, sans-serif; font-size: 12px; font-weight: 200;" fill="rgb(33, 33, 33)" stroke="none" stroke-width="1px">55</text><text x="0" y="12.642857142857137" dx="0em" dy="0.3em" style="text-anchor: end; visibility: inherit; font-family: Roboto, sans-serif; font-size: 12px; font-weight: 200;" fill="rgb(33, 33, 33)" stroke="none" stroke-width="1px">60</text><text x="0" y="0" dx="0em" dy="0.3em" style="text-anchor: end; visibility: hidden; font-family: Roboto, sans-serif; font-size: 12px; font-weight: 200;" fill="rgb(33, 33, 33)" stroke="none" stroke-width="1px">65</text></g><line x1="30.78125" y1="0" x2="30.78125" y2="177" fill="rgb(0, 0, 0)" stroke="rgb(204, 204, 204)" stroke-width="1px"></line></g></g><g transform="translate(30, 0)" clip-path="url(#clip_0)"><clipPath id="clip_0"><rect width="299" height="177"></rect></clipPath><g><g><g><line x1="0" y1="0" x2="0" y2="177" fill="rgb(0, 0, 0)" stroke="rgb(66, 66, 66)" stroke-width="1px" opacity="0.25"></line><line x1="24.934895833333332" y1="0" x2="24.934895833333332" y2="177" fill="rgb(0, 0, 0)" stroke="rgb(66, 66, 66)" stroke-width="1px" opacity="0.25"></line><line x1="49.869791666666664" y1="0" x2="49.869791666666664" y2="177" fill="rgb(0, 0, 0)" stroke="rgb(66, 66, 66)" stroke-width="1px" opacity="0.25"></line><line x1="74.8046875" y1="0" x2="74.8046875" y2="177" fill="rgb(0, 0, 0)" stroke="rgb(66, 66, 66)" stroke-width="1px" opacity="0.25"></line><line x1="99.73958333333333" y1="0" x2="99.73958333333333" y2="177" fill="rgb(0, 0, 0)" stroke="rgb(66, 66, 66)" stroke-width="1px" opacity="0.25"></line><line x1="124.67447916666667" y1="0" x2="124.67447916666667" y2="177" fill="rgb(0, 0, 0)" stroke="rgb(66, 66, 66)" stroke-width="1px" opacity="0.25"></line><line x1="149.609375" y1="0" x2="149.609375" y2="177" fill="rgb(0, 0, 0)" stroke="rgb(66, 66, 66)" stroke-width="1px" opacity="0.25"></line><line x1="174.54427083333334" y1="0" x2="174.54427083333334" y2="177" fill="rgb(0, 0, 0)" stroke="rgb(66, 66, 66)" stroke-width="1px" opacity="0.25"></line><line x1="199.47916666666666" y1="0" x2="199.47916666666666" y2="177" fill="rgb(0, 0, 0)" stroke="rgb(66, 66, 66)" stroke-width="1px" opacity="0.25"></line><line x1="224.4140625" y1="0" x2="224.4140625" y2="177" fill="rgb(0, 0, 0)" stroke="rgb(66, 66, 66)" stroke-width="1px" opacity="0.25"></line><line x1="249.34895833333334" y1="0" x2="249.34895833333334" y2="177" fill="rgb(0, 0, 0)" stroke="rgb(66, 66, 66)" stroke-width="1px" opacity="0.25"></line><line x1="274.28385416666663" y1="0" x2="274.28385416666663" y2="177" fill="rgb(0, 0, 0)" stroke="rgb(66, 66, 66)" stroke-width="1px" opacity="0.25"></line><line x1="299.21875" y1="0" x2="299.21875" y2="177" fill="rgb(0, 0, 0)" stroke="rgb(66, 66, 66)" stroke-width="1px" opacity="0.25"></line></g><g><line x1="0" y1="177" x2="299.21875" y2="177" fill="rgb(0, 0, 0)" stroke="rgb(66, 66, 66)" stroke-width="1px" opacity="0.25"></line><line x1="0" y1="164.35714285714286" x2="299.21875" y2="164.35714285714286" fill="rgb(0, 0, 0)" stroke="rgb(66, 66, 66)" stroke-width="1px" opacity="0.25"></line><line x1="0" y1="151.71428571428572" x2="299.21875" y2="151.71428571428572" fill="rgb(0, 0, 0)" stroke="rgb(66, 66, 66)" stroke-width="1px" opacity="0.25"></line><line x1="0" y1="139.07142857142856" x2="299.21875" y2="139.07142857142856" fill="rgb(0, 0, 0)" stroke="rgb(66, 66, 66)" stroke-width="1px" opacity="0.25"></line><line x1="0" y1="126.42857142857143" x2="299.21875" y2="126.42857142857143" fill="rgb(0, 0, 0)" stroke="rgb(66, 66, 66)" stroke-width="1px" opacity="0.25"></line><line x1="0" y1="113.78571428571428" x2="299.21875" y2="113.78571428571428" fill="rgb(0, 0, 0)" stroke="rgb(66, 66, 66)" stroke-width="1px" opacity="0.25"></line><line x1="0" y1="101.14285714285714" x2="299.21875" y2="101.14285714285714" fill="rgb(0, 0, 0)" stroke="rgb(66, 66, 66)" stroke-width="1px" opacity="0.25"></line><line x1="0" y1="88.5" x2="299.21875" y2="88.5" fill="rgb(0, 0, 0)" stroke="rgb(66, 66, 66)" stroke-width="1px" opacity="0.25"></line><line x1="0" y1="75.85714285714286" x2="299.21875" y2="75.85714285714286" fill="rgb(0, 0, 0)" stroke="rgb(66, 66, 66)" stroke-width="1px" opacity="0.25"></line><line x1="0" y1="63.21428571428571" x2="299.21875" y2="63.21428571428571" fill="rgb(0, 0, 0)" stroke="rgb(66, 66, 66)" stroke-width="1px" opacity="0.25"></line><line x1="0" y1="50.57142857142857" x2="299.21875" y2="50.57142857142857" fill="rgb(0, 0, 0)" stroke="rgb(66, 66, 66)" stroke-width="1px" opacity="0.25"></line><line x1="0" y1="37.92857142857143" x2="299.21875" y2="37.92857142857143" fill="rgb(0, 0, 0)" stroke="rgb(66, 66, 66)" stroke-width="1px" opacity="0.25"></line><line x1="0" y1="25.285714285714295" x2="299.21875" y2="25.285714285714295" fill="rgb(0, 0, 0)" stroke="rgb(66, 66, 66)" stroke-width="1px" opacity="0.25"></line><line x1="0" y1="12.642857142857137" x2="299.21875" y2="12.642857142857137" fill="rgb(0, 0, 0)" stroke="rgb(66, 66, 66)" stroke-width="1px" opacity="0.25"></line><line x1="0" y1="0" x2="299.21875" y2="0" fill="rgb(0, 0, 0)" stroke="rgb(66, 66, 66)" stroke-width="1px" opacity="0.25"></line></g></g></g><g><g><line x1="0" y1="164.35714285714286" x2="299.21875" y2="164.35714285714286" fill="rgb(0, 0, 0)" stroke="rgb(153, 153, 153)" stroke-width="1.5px"></line></g></g><g><g><line x1="24.934895833333332" y1="0" x2="24.934895833333332" y2="177" fill="rgb(0, 0, 0)" stroke="rgb(153, 153, 153)" stroke-width="1.5px"></line></g></g><g><g><g><g><g><path stroke="rgb(0, 119, 187)" stroke-width="2px" d="M36.903645833333336,-4.313032313755583L37.40234375,14.669946834019255L37.90104166666667,26.036287471226284L38.39973958333333,42.18616970607213L38.8984375,45.640046800885884L39.397135416666664,54.916870553152904L39.895833333333336,62.949269158499575L40.39453125,62.17502534048898L40.893229166666664,69.2014510018485L41.391927083333336,80.45694285801478L41.89062500000001,80.46893250601632L42.389322916666664,85.86152507237027L42.888020833333336,90.2702623639788L43.38671875,94.65685787200927L43.885416666666664,100.54534729548863L44.384114583333336,103.5840960911342L44.8828125,107.72224159240723L45.38151041666667,106.65549569811138L45.88020833333333,110.44925954001292L46.37890625,111.78039019448417L46.87760416666667,114.69258213043213L47.37630208333333,114.18312337057932L47.875,113.75682048797607L48.373697916666664,114.1621728352138L48.872395833333336,115.7561304637364L49.37109375,118.89116298130581L49.869791666666664,121.08581837245396L50.368489583333336,124.32408918653215L50.86718750000001,125.90850477218628L51.365885416666664,123.81642935616628L51.864583333333336,126.55480756759643L52.36328125,124.11718335832867L52.861979166666664,123.64380929129463L53.360677083333336,124.86717297690257L53.859375,125.36651818411691L54.35807291666667,128.14474051339286L54.85677083333333,130.9212700162615L55.35546875,133.39769178118024L55.85416666666667,133.55046574728829L56.35286458333333,133.87290094920567L56.8515625,131.3818031992231L57.35026041666667,129.35044768197199L57.84895833333333,129.29253710338045L58.34765625,129.87371913364956L58.846354166666664,131.88211539132257L59.345052083333336,133.92322998046876L59.84375,135.30360210963659L60.342447916666664,135.53762209756033L60.841145833333336,137.1664924621582L61.33984374999999,138.47627228328162L61.838541666666664,138.58885247366769L62.337239583333336,137.7880925314767L62.8359375,137.25928925105504L63.334635416666664,137.86294101987565L63.833333333333336,139.34844683238438L64.33203125,140.3220101084028L64.83072916666667,141.07609192984444L65.32942708333333,141.80428701128278L65.828125,142.9655779838562L66.32682291666667,144.4210445676531L66.82552083333333,143.8872664996556L67.32421875,143.66802136557442L67.82291666666666,141.23575295039586L68.32161458333333,140.73981509889876L68.8203125,141.38281664167133L69.31901041666667,142.16535337993076L69.81770833333333,142.81055897303992L70.31640625,144.11452241625105L70.81510416666667,144.1681502887181L71.31380208333334,145.70380427496775L71.8125,147.03131054469517L72.31119791666667,147.4306740965162L72.80989583333334,146.73589304515292L73.30859375,144.9165531839643L73.80729166666667,143.25216963631766L74.30598958333333,142.8643435886928L74.8046875,143.7767770222255L75.30338541666666,145.84773069109235L75.80208333333334,147.14901744297572L76.30078125,147.8929519517081L76.79947916666666,148.74102301597594L77.29817708333334,149.2375986916678L77.796875,149.3099561691284L78.29557291666666,149.26988537652153L78.79427083333333,147.89335948399133L79.29296875,146.91778145517623L79.79166666666667,146.32179683957781L80.29036458333333,147.18702404839652L80.7890625,147.85763650621686L81.28776041666667,148.96384430612838L81.78645833333333,150.40902733121598L82.28515625,151.52256830079216L82.78385416666667,152.3864185810089L83.28255208333333,152.55311737060546L83.78125000000001,152.34746307645526L84.27994791666667,151.87385510035924L84.77864583333333,151.6479905809675L85.27734374999999,150.9688332080841L85.77604166666667,149.4110639640263L86.27473958333333,149.2656629562378L86.7734375,149.83505789893013L87.27213541666667,150.75581318991524L87.77083333333333,152.03345101220268L88.26953125,152.89788606507437L88.76822916666667,153.00611723491124L89.26692708333333,154.10940478869847L89.765625,154.76721012251718L90.26432291666667,155.10869987010955L90.76302083333334,154.99604432242256L91.26171875,154.69201378481728L91.76041666666666,154.40095133440835L92.25911458333334,153.98181221825735L92.7578125,153.07100891385758L93.25651041666666,152.58356654303415L93.75520833333334,151.57871370996747L94.25390625,151.87346083096094L94.75260416666666,151.6351713997977L95.25130208333334,152.55020435878208L95.75,153.19147328649248L96.24869791666666,154.54112736838204L96.74739583333333,155.0312331676483L97.24609375,155.71813968249728L97.74479166666667,155.87389659200394L98.24348958333333,154.8101963383811L98.7421875,155.11729904242924L99.24088541666667,154.7610356467111L99.73958333333333,153.9634105682373L100.23828125,152.78245556013925L100.73697916666667,152.13296243803842L101.23567708333333,150.67911513192314L101.73437500000001,150.03711553982328L102.23307291666667,149.1673934187208L102.73177083333333,149.7147502694811L103.23046874999999,151.18891872678483L103.72916666666667,152.4566021510533L104.22786458333333,153.18994564328875L104.7265625,153.2103029659816L105.22526041666667,152.9232844897679L105.72395833333333,153.21662212780544L106.22265625,153.56685030800955L106.72135416666667,153.82153145926338L107.22005208333333,152.89691546303885L107.71875,153.53125995908465L108.21744791666667,154.27065494401114L108.71614583333334,154.74266172817775L109.21484375,154.93593331064497L109.71354166666666,155.59405876227788L110.21223958333334,156.11818808146887L110.7109375,156.4982625756945L111.20963541666666,156.52116878373283L111.70833333333334,156.3698030948639L112.20703125,156.1535517556327L112.70572916666666,156.2044402394976L113.20442708333334,156.15039880616325L113.703125,155.97967895099094L114.20182291666666,156.25586406162807L114.70052083333334,156.20748829160416L115.19921875,156.053036570549L115.69791666666666,155.7400065626417L116.19661458333333,156.21650584765842L116.6953125,155.92158992631096L117.19401041666667,156.1975344964436L117.69270833333333,156.28264303207396L118.19140625,157.0041090079716L118.69010416666667,157.63669315746853L119.18880208333333,158.10446184703284L119.6875,158.37019520146507L120.18619791666667,158.0566648210798L120.68489583333333,157.93635658877236L121.18359375000001,157.93738988808224L121.68229166666667,157.3724012374878L122.18098958333333,157.07259251730784L122.67968749999999,156.59915575299945L123.17838541666667,156.4076668228422L123.67708333333333,155.82850376537868L124.17578125,155.14436497347697L124.67447916666667,154.17091925484795L125.17317708333333,153.82543918745858L125.671875,155.05278897285461L126.17057291666667,155.38377150126865L126.66927083333333,155.59988659449988L127.16796875,156.5018097945622L127.66666666666667,157.2836098398481L128.16536458333334,158.09623282977515L128.6640625,158.80804643971578L129.16276041666666,158.96749284267426L129.66145833333334,159.13372140271323L130.16015625,158.64232850074768L130.65885416666666,157.72677587781632L131.15755208333334,157.17564754486085L131.65625,156.6776599747794L132.15494791666666,154.0565582207271L132.65364583333334,155.6545423405511L133.15234375,154.34518994603837L133.65104166666666,154.81272231510707L134.14973958333331,156.5973423549107L134.6484375,157.10357582228525L135.14713541666666,156.92512973376682L135.64583333333331,157.66061879907338L136.14453125,158.84958519254414L136.64322916666666,159.26039521694184L137.14192708333331,159.2598882130214L137.640625,159.59328820364817L138.13932291666666,158.78397611209323L138.63802083333334,157.09518765040806L139.13671875,155.35481802054812L139.63541666666666,154.73314138821195L140.13411458333334,155.58715723923274L140.6328125,156.08489643165044L141.13151041666666,155.26347532612937L141.63020833333334,154.95920846802846L142.12890625,153.44496680668422L142.62760416666669,152.76910465785437L143.12630208333334,151.68197491509574L143.625,153.37071635382517L144.12369791666669,154.50032591138566L144.62239583333334,155.60551126343864L145.12109375,156.54294824940817L145.61979166666669,157.4059949193682L146.11848958333334,157.51763826778955L146.6171875,157.6669843809945L147.11588541666666,158.13156394958497L147.61458333333334,158.2657035623278L148.11328125,158.03771396705082L148.61197916666666,157.81682664666857L149.11067708333334,157.52430347033908L149.609375,157.55764395168848L150.10807291666669,157.51895008768352L150.60677083333331,157.85867526871817L151.10546875,157.9767836706979L151.60416666666669,157.78841513565607L152.10286458333331,156.88899198940823L152.6015625,156.21637442452567L153.10026041666669,157.29310425690244L153.59895833333331,157.49357638018472L154.09765625,157.7262513910021L154.59635416666669,154.96639393738337L155.09505208333331,155.4855629376003L155.59375,150.55630202293395L156.09244791666666,153.16851040976388L156.59114583333331,152.60711901528495L157.08984375,153.5906933580126L157.58854166666666,155.21073244980403L158.08723958333334,156.4436357668468L158.5859375,157.02960147857667L159.08463541666666,157.91690596512387L159.58333333333334,158.43430557591574L160.08203125,158.53933978761947L160.58072916666666,157.86245398521424L161.07942708333334,158.00231050423213L161.578125,158.28616759095874L162.07682291666666,158.50932587896077L162.57552083333334,158.81977384431022L163.07421875,158.4032945394516L163.57291666666666,158.5872833081654L164.07161458333334,158.84827216693333L164.5703125,158.69030578136443L165.06901041666666,158.95834326062882L165.56770833333334,159.2607738120215L166.06640625000003,159.22628970827375L166.56510416666666,159.20019196782792L167.06380208333334,158.91097185271127L167.56250000000003,158.86281190599712L168.06119791666666,159.08284437315805L168.55989583333334,158.8402071271624L169.05859374999997,158.57183867863245L169.55729166666666,158.11510470935275L170.05598958333334,158.09207310676575L170.55468749999997,157.8208495208195L171.05338541666666,157.98419521195547L171.55208333333334,158.32051605156488L172.05078125,158.57017599514552L172.54947916666666,158.89919320515224L173.04817708333334,159.05143786157882L173.546875,159.5896770817893L174.04557291666666,159.8471693617957L174.54427083333334,159.91312297582627L175.04296875,160.11276707308633L175.54166666666666,159.89965903759003L176.04036458333334,159.7520431280136L176.5390625,159.30399393694742L177.03776041666666,158.7291955743517L177.53645833333334,158.4148838894708L178.03515625,157.8955732175282L178.53385416666666,157.52661543233054L179.03255208333334,156.7573729276657L179.53125,157.1651921715055L180.02994791666669,157.3157524415425L180.52864583333334,158.46128650392805L181.02734375,159.18138459409985L181.52604166666669,160.0782371520996L182.02473958333331,160.68559830869947L182.5234375,161.08272043296267L183.02213541666669,161.2419944184167L183.52083333333331,161.4722191112382L184.01953125,161.36051999841416L184.51822916666669,160.98273003612246L185.01692708333331,160.59121901648385L185.515625,159.79325151443481L186.01432291666669,157.10042046138219L186.51302083333331,156.77037477493286L187.01171875,155.81577380725315L187.51041666666669,155.34405277797154L188.00911458333331,155.7702139888491L188.5078125,155.8830739055361L189.00651041666669,157.71475608689445L189.50520833333331,158.56284282548086L190.00390625,159.6072841644287L190.50260416666669,160.22664069618497L191.00130208333331,160.1477723479271L191.5,160.13748999493464L191.99869791666669,159.97237431151527L192.49739583333331,159.77550848722458L192.99609375,159.4792542202132L193.49479166666666,158.76210199764796L193.99348958333331,158.4092574119568L194.4921875,158.5310890674591L194.99088541666666,159.07636002813067L195.48958333333334,159.31571229866574L195.98828125,159.64264904430934L196.48697916666666,159.85700439385005L196.98567708333334,160.02859929800033L197.484375,160.39682672023773L197.98307291666666,160.3924701639584L198.48177083333334,160.15204751832144L198.98046875,159.65342272690364L199.47916666666666,159.38359144244876L199.97786458333334,158.291616828101L200.4765625,155.88781237261637L200.97526041666666,154.92456098965238L201.47395833333334,154.0893079008375L201.97265625,155.2998668738774L202.47135416666666,157.1383281980242L202.97005208333334,158.26743738310677L203.46875000000003,159.09595232350486L203.96744791666666,159.95984691381454L204.46614583333334,159.79508902685984L204.96484375000003,159.0348526239395L205.46354166666666,158.12441826888494L205.96223958333334,157.63979787826537L206.46093749999997,158.10285342080252L206.95963541666666,157.08066418852124L207.45833333333334,157.46158449309212L207.95703124999997,158.1737284694399L208.45572916666666,159.9218460355486L208.95442708333334,160.29862530572075L209.453125,160.62832736287797L209.95182291666666,160.39212804181236L210.45052083333334,159.97401890925L210.94921875,158.44822919368744L211.44791666666666,157.77039147785732L211.94661458333334,157.092048566682L212.4453125,157.43724830491203L212.94401041666666,157.47202841213772L213.44270833333334,156.30987294060844L213.94140625,155.9384838274547L214.44010416666666,157.18168456895012L214.93880208333334,158.82231248106277L215.4375,159.84796392917633L215.93619791666666,160.69925516162598L216.43489583333334,161.12521320922033L216.93359375,161.46070481709071L217.43229166666669,161.59433833020074L217.93098958333334,161.79365507534573L218.4296875,161.46749722276414L218.92838541666669,161.046203490666L219.42708333333331,160.86531341416494L219.92578125,160.24116807665143L220.42447916666669,158.8547553062439L220.92317708333331,158.15114961351665L221.421875,156.31169960158212L221.92057291666669,154.7138824735369L222.41927083333331,155.84035294737134L222.91796875,157.5906124694007L223.41666666666669,159.03148746831076L223.91536458333331,159.8497384428978L224.4140625,160.0509264605386L224.91276041666669,160.72185180187225L225.41145833333331,160.98226854801177L225.91015625,161.2237311244011L226.40885416666669,161.06883268526622L226.90755208333331,160.9986032979829L227.40625,160.12977581875666L227.90494791666669,160.38797284024102L228.40364583333331,160.72135504654477L228.90234375,161.05356529610498L229.40104166666669,161.4695993900299L229.89973958333331,161.6155300089291L230.3984375,161.87870543513978L230.89713541666666,161.9511308848858L231.39583333333331,162.10523475664002L231.89453125,162.12083507435662L232.39322916666666,162.27789461016656L232.89192708333334,162.3699842461518L233.390625,162.36237963948932L233.88932291666666,162.5515639926706L234.38802083333334,162.55790244596346L234.88671875,162.57342062422208L235.38541666666666,162.65340230124337L235.88411458333334,162.55819076299667L236.3828125,162.68865444660187L236.88151041666666,162.7837237102645L237.38020833333334,162.80179167815618L237.87890625,162.8660075528281L238.37760416666666,162.81805468797683L238.87630208333334,162.7966132751533L239.375,162.75862942763737L239.87369791666666,162.79238482628548L240.37239583333334,162.6292026604925L240.87109375000003,162.5748631136758L241.36979166666666,162.51033375263214L241.86848958333334,162.48069723333631L242.36718750000003,162.66963034527643L242.86588541666666,162.6808055315699L243.36458333333334,162.94734852484294L243.86328124999997,162.95748890468053L244.36197916666666,162.75250287907465L244.86067708333334,162.33374401586397L245.35937499999997,162.49374082854814L245.85807291666666,162.60389436313085L246.35677083333334,162.74026636055538L246.85546875,162.841906780856L247.35416666666666,162.6147911795548L247.85286458333334,162.7058839891638L248.3515625,162.55488468749184L248.85026041666666,162.15795668363572L249.34895833333334,161.8699528353555L249.84765625,161.65530630520414L250.34635416666666,161.0722930925233L250.84505208333334,161.69091353416442L251.34375,161.96729954736574L251.84244791666666,162.32474876557077L252.34114583333334,162.5330991932324L252.83984375,162.56646966678755L253.33854166666666,162.79078770365035L253.83723958333334,162.76785406555447L254.3359375,162.70620877913066L254.83463541666669,162.9280709215573L255.33333333333334,162.86527327128817L255.83203125,162.85805193185806L256.3307291666667,162.8336792707443L256.8294270833333,162.39949341160911L257.328125,162.55609929646764L257.8268229166667,162.4135945711817L258.3255208333333,162.57012494802476L258.82421875,161.47687950815472L259.3229166666667,160.55461285114288L259.8216145833333,159.60560339518958L260.3203125,161.3449704715184L260.8190104166667,161.55334034136365L261.3177083333333,161.48155648367745L261.81640625,161.4689163514546L262.3151041666667,161.76733246871402L262.8138020833333,161.52072720868247L263.3125,160.5049487727029L263.8111979166667,159.9499036686761L264.3098958333333,161.82554628508433L264.80859375,161.99152526174274L265.3072916666667,161.529902110781L265.8059895833333,161.30601587125233L266.3046875,160.699592762334L266.8033854166667,161.01960206202097L267.3020833333333,160.65289776154927L267.80078125,160.65416014705386L268.29947916666663,161.17461474282402L268.7981770833333,161.6658789345196L269.296875,161.79174341133663L269.79557291666663,162.04042582001003L270.2942708333333,162.19639177066938L270.79296875,162.48073958413943L271.29166666666663,162.53243228111947L271.7903645833333,162.48370881250926L272.2890625,162.36166555370605L272.78776041666663,162.4033586382866L273.2864583333333,162.6608506168638L273.78515625,162.66338096431323" style="fill: none;" fill="none"></path></g></g></g></g></g></g><g transform="translate(30, 177)" clip-path="url(#clip_1)"><clipPath id="clip_1"><rect width="299" height="23"></rect></clipPath><g><g><line x1="0" y1="0" x2="0" y2="5" style="visibility: inherit;" fill="rgb(0, 0, 0)" stroke="rgb(204, 204, 204)" stroke-width="1px"></line><line x1="24.934895833333332" y1="0" x2="24.934895833333332" y2="5" style="visibility: inherit;" fill="rgb(0, 0, 0)" stroke="rgb(204, 204, 204)" stroke-width="1px"></line><line x1="49.869791666666664" y1="0" x2="49.869791666666664" y2="5" style="visibility: inherit;" fill="rgb(0, 0, 0)" stroke="rgb(204, 204, 204)" stroke-width="1px"></line><line x1="74.8046875" y1="0" x2="74.8046875" y2="5" style="visibility: inherit;" fill="rgb(0, 0, 0)" stroke="rgb(204, 204, 204)" stroke-width="1px"></line><line x1="99.73958333333333" y1="0" x2="99.73958333333333" y2="5" style="visibility: inherit;" fill="rgb(0, 0, 0)" stroke="rgb(204, 204, 204)" stroke-width="1px"></line><line x1="124.67447916666667" y1="0" x2="124.67447916666667" y2="5" style="visibility: inherit;" fill="rgb(0, 0, 0)" stroke="rgb(204, 204, 204)" stroke-width="1px"></line><line x1="149.609375" y1="0" x2="149.609375" y2="5" style="visibility: inherit;" fill="rgb(0, 0, 0)" stroke="rgb(204, 204, 204)" stroke-width="1px"></line><line x1="174.54427083333334" y1="0" x2="174.54427083333334" y2="5" style="visibility: inherit;" fill="rgb(0, 0, 0)" stroke="rgb(204, 204, 204)" stroke-width="1px"></line><line x1="199.47916666666666" y1="0" x2="199.47916666666666" y2="5" style="visibility: inherit;" fill="rgb(0, 0, 0)" stroke="rgb(204, 204, 204)" stroke-width="1px"></line><line x1="224.4140625" y1="0" x2="224.4140625" y2="5" style="visibility: inherit;" fill="rgb(0, 0, 0)" stroke="rgb(204, 204, 204)" stroke-width="1px"></line><line x1="249.34895833333334" y1="0" x2="249.34895833333334" y2="5" style="visibility: inherit;" fill="rgb(0, 0, 0)" stroke="rgb(204, 204, 204)" stroke-width="1px"></line><line x1="274.28385416666663" y1="0" x2="274.28385416666663" y2="5" style="visibility: inherit;" fill="rgb(0, 0, 0)" stroke="rgb(204, 204, 204)" stroke-width="1px"></line><line x1="299.21875" y1="0" x2="299.21875" y2="5" style="visibility: inherit;" fill="rgb(0, 0, 0)" stroke="rgb(204, 204, 204)" stroke-width="1px"></line></g><g transform="translate(0, 8)"><text x="0" y="0" dx="0em" dy="0.95em" style="text-anchor: middle; visibility: hidden; font-family: Roboto, sans-serif; font-size: 12px; font-weight: 200;" fill="rgb(33, 33, 33)" stroke="none" stroke-width="1px">-50</text><text x="24.934895833333332" y="0" dx="0em" dy="0.95em" style="text-anchor: middle; visibility: inherit; font-family: Roboto, sans-serif; font-size: 12px; font-weight: 200;" fill="rgb(33, 33, 33)" stroke="none" stroke-width="1px">0</text><text x="49.869791666666664" y="0" dx="0em" dy="0.95em" style="text-anchor: middle; visibility: inherit; font-family: Roboto, sans-serif; font-size: 12px; font-weight: 200;" fill="rgb(33, 33, 33)" stroke="none" stroke-width="1px">50</text><text x="74.8046875" y="0" dx="0em" dy="0.95em" style="text-anchor: middle; visibility: inherit; font-family: Roboto, sans-serif; font-size: 12px; font-weight: 200;" fill="rgb(33, 33, 33)" stroke="none" stroke-width="1px">100</text><text x="99.73958333333333" y="0" dx="0em" dy="0.95em" style="text-anchor: middle; visibility: inherit; font-family: Roboto, sans-serif; font-size: 12px; font-weight: 200;" fill="rgb(33, 33, 33)" stroke="none" stroke-width="1px">150</text><text x="124.67447916666667" y="0" dx="0em" dy="0.95em" style="text-anchor: middle; visibility: inherit; font-family: Roboto, sans-serif; font-size: 12px; font-weight: 200;" fill="rgb(33, 33, 33)" stroke="none" stroke-width="1px">200</text><text x="149.609375" y="0" dx="0em" dy="0.95em" style="text-anchor: middle; visibility: inherit; font-family: Roboto, sans-serif; font-size: 12px; font-weight: 200;" fill="rgb(33, 33, 33)" stroke="none" stroke-width="1px">250</text><text x="174.54427083333334" y="0" dx="0em" dy="0.95em" style="text-anchor: middle; visibility: inherit; font-family: Roboto, sans-serif; font-size: 12px; font-weight: 200;" fill="rgb(33, 33, 33)" stroke="none" stroke-width="1px">300</text><text x="199.47916666666666" y="0" dx="0em" dy="0.95em" style="text-anchor: middle; visibility: inherit; font-family: Roboto, sans-serif; font-size: 12px; font-weight: 200;" fill="rgb(33, 33, 33)" stroke="none" stroke-width="1px">350</text><text x="224.4140625" y="0" dx="0em" dy="0.95em" style="text-anchor: middle; visibility: inherit; font-family: Roboto, sans-serif; font-size: 12px; font-weight: 200;" fill="rgb(33, 33, 33)" stroke="none" stroke-width="1px">400</text><text x="249.34895833333334" y="0" dx="0em" dy="0.95em" style="text-anchor: middle; visibility: inherit; font-family: Roboto, sans-serif; font-size: 12px; font-weight: 200;" fill="rgb(33, 33, 33)" stroke="none" stroke-width="1px">450</text><text x="274.28385416666663" y="0" dx="0em" dy="0.95em" style="text-anchor: middle; visibility: inherit; font-family: Roboto, sans-serif; font-size: 12px; font-weight: 200;" fill="rgb(33, 33, 33)" stroke="none" stroke-width="1px">500</text><text x="299.21875" y="0" dx="0em" dy="0.95em" style="text-anchor: middle; visibility: hidden; font-family: Roboto, sans-serif; font-size: 12px; font-weight: 200;" fill="rgb(33, 33, 33)" stroke="none" stroke-width="1px">550</text></g><line x1="0" y1="0" x2="299.21875" y2="0" fill="rgb(0, 0, 0)" stroke="rgb(204, 204, 204)" stroke-width="1px"></line></g></g></g></g></svg>