<svg viewBox="0 0 330 200" xmlns="http://www.w3.org/2000/svg"><g><g><g><g><g><line x1="41.171875" y1="177" x2="36.171875" y2="177" style="visibility: inherit;" fill="rgb(0, 0, 0)" stroke="rgb(204, 204, 204)" stroke-width="1px"></line><line x1="41.171875" y1="163.3846153846154" x2="36.171875" y2="163.3846153846154" style="visibility: inherit;" fill="rgb(0, 0, 0)" stroke="rgb(204, 204, 204)" stroke-width="1px"></line><line x1="41.171875" y1="149.76923076923077" x2="36.171875" y2="149.76923076923077" style="visibility: inherit;" fill="rgb(0, 0, 0)" stroke="rgb(204, 204, 204)" stroke-width="1px"></line><line x1="41.171875" y1="136.15384615384613" x2="36.171875" y2="136.15384615384613" style="visibility: inherit;" fill="rgb(0, 0, 0)" stroke="rgb(204, 204, 204)" stroke-width="1px"></line><line x1="41.171875" y1="122.53846153846153" x2="36.171875" y2="122.53846153846153" style="visibility: inherit;" fill="rgb(0, 0, 0)" stroke="rgb(204, 204, 204)" stroke-width="1px"></line><line x1="41.171875" y1="108.92307692307693" x2="36.171875" y2="108.92307692307693" style="visibility: inherit;" fill="rgb(0, 0, 0)" stroke="rgb(204, 204, 204)" stroke-width="1px"></line><line x1="41.171875" y1="95.3076923076923" x2="36.171875" y2="95.3076923076923" style="visibility: inherit;" fill="rgb(0, 0, 0)" stroke="rgb(204, 204, 204)" stroke-width="1px"></line><line x1="41.171875" y1="81.6923076923077" x2="36.171875" y2="81.6923076923077" style="visibility: inherit;" fill="rgb(0, 0, 0)" stroke="rgb(204, 204, 204)" stroke-width="1px"></line><line x1="41.171875" y1="68.07692307692307" x2="36.171875" y2="68.07692307692307" style="visibility: inherit;" fill="rgb(0, 0, 0)" stroke="rgb(204, 204, 204)" stroke-width="1px"></line><line x1="41.171875" y1="54.46153846153847" x2="36.171875" y2="54.46153846153847" style="visibility: inherit;" fill="rgb(0, 0, 0)" stroke="rgb(204, 204, 204)" stroke-width="1px"></line><line x1="41.171875" y1="40.84615384615384" x2="36.171875" y2="40.84615384615384" style="visibility: inherit;" fill="rgb(0, 0, 0)" stroke="rgb(204, 204, 204)" stroke-width="1px"></line><line x1="41.171875" y1="27.230769230769234" x2="36.171875" y2="27.230769230769234" style="visibility: inherit;" fill="rgb(0, 0, 0)" stroke="rgb(204, 204, 204)" stroke-width="1px"></line><line x1="41.171875" y1="13.615384615384606" x2="36.171875" y2="13.615384615384606" style="visibility: inherit;" fill="rgb(0, 0, 0)" stroke="rgb(204, 204, 204)" stroke-width="1px"></line><line x1="41.171875" y1="0" x2="36.171875" y2="0" style="visibility: inherit;" fill="rgb(0, 0, 0)" stroke="rgb(204, 204, 204)" stroke-width="1px"></line></g><g transform="translate(31.171875, 0)"><text x="0" y="177" dx="0em" dy="0.3em" style="text-anchor: end; visibility: hidden; font-family: Roboto, sans-serif; font-size: 12px; font-weight: 200;" fill="rgb(33, 33, 33)" stroke="none" stroke-width="1px">-20</text><text x="0" y="163.3846153846154" dx="0em" dy="0.3em" style="text-anchor: end; visibility: inherit; font-family: Roboto, sans-serif; font-size: 12px; font-weight: 200;" fill="rgb(33, 33, 33)" stroke="none" stroke-width="1px">0</text><text x="0" y="149.76923076923077" dx="0em" dy="0.3em" style="text-anchor: end; visibility: hidden; font-family: Roboto, sans-serif; font-size: 12px; font-weight: 200;" fill="rgb(33, 33, 33)" stroke="none" stroke-width="1px">20</text><text x="0" y="136.15384615384613" dx="0em" dy="0.3em" style="text-anchor: end; visibility: inherit; font-family: Roboto, sans-serif; font-size: 12px; font-weight: 200;" fill="rgb(33, 33, 33)" stroke="none" stroke-width="1px">40</text><text x="0" y="122.53846153846153" dx="0em" dy="0.3em" style="text-anchor: end; visibility: hidden; font-family: Roboto, sans-serif; font-size: 12px; font-weight: 200;" fill="rgb(33, 33, 33)" stroke="none" stroke-width="1px">60</text><text x="0" y="108.92307692307693" dx="0em" dy="0.3em" style="text-anchor: end; visibility: inherit; font-family: Roboto, sans-serif; font-size: 12px; font-weight: 200;" fill="rgb(33, 33, 33)" stroke="none" stroke-width="1px">80</text><text x="0" y="95.3076923076923" dx="0em" dy="0.3em" style="text-anchor: end; visibility: hidden; font-family: Roboto, sans-serif; font-size: 12px; font-weight: 200;" fill="rgb(33, 33, 33)" stroke="none" stroke-width="1px">100</text><text x="0" y="81.6923076923077" dx="0em" dy="0.3em" style="text-anchor: end; visibility: inherit; font-family: Roboto, sans-serif; font-size: 12px; font-weight: 200;" fill="rgb(33, 33, 33)" stroke="none" stroke-width="1px">120</text><text x="0" y="68.07692307692307" dx="0em" dy="0.3em" style="text-anchor: end; visibility: hidden; font-family: Roboto, sans-serif; font-size: 12px; font-weight: 200;" fill="rgb(33, 33, 33)" stroke="none" stroke-width="1px">140</text><text x="0" y="54.46153846153847" dx="0em" dy="0.3em" style="text-anchor: end; visibility: inherit; font-family: Roboto, sans-serif; font-size: 12px; font-weight: 200;" fill="rgb(33, 33, 33)" stroke="none" stroke-width="1px">160</text><text x="0" y="40.84615384615384" dx="0em" dy="0.3em" style="text-anchor: end; visibility: hidden; font-family: Roboto, sans-serif; font-size: 12px; font-weight: 200;" fill="rgb(33, 33, 33)" stroke="none" stroke-width="1px">180</text><text x="0" y="27.230769230769234" dx="0em" dy="0.3em" style="text-anchor: end; visibility: inherit; font-family: Roboto, sans-serif; font-size: 12px; font-weight: 200;" fill="rgb(33, 33, 33)" stroke="none" stroke-width="1px">200</text><text x="0" y="13.615384615384606" dx="0em" dy="0.3em" style="text-anchor: end; visibility: hidden; font-family: Roboto, sans-serif; font-size: 12px; font-weight: 200;" fill="rgb(33, 33, 33)" stroke="none" stroke-width="1px">220</text><text x="0" y="0" dx="0em" dy="0.3em" style="text-anchor: end; visibility: hidden; font-family: Roboto, sans-serif; font-size: 12px; font-weight: 200;" fill="rgb(33, 33, 33)" stroke="none" stroke-width="1px">240</text></g><line x1="41.171875" y1="0" x2="41.171875" y2="177" fill="rgb(0, 0, 0)" stroke="rgb(204, 204, 204)" stroke-width="1px"></line></g></g><g transform="translate(41, 0)" clip-path="url(#clip_0)"><clipPath id="clip_0"><rect width="288" height="177"></rect></clipPath><g><g><g><line x1="0" y1="0" x2="0" y2="177" fill="rgb(0, 0, 0)" stroke="rgb(66, 66, 66)" stroke-width="1px" opacity="0.25"></line><line x1="24.069010416666664" y1="0" x2="24.069010416666664" y2="177" fill="rgb(0, 0, 0)" stroke="rgb(66, 66, 66)" stroke-width="1px" opacity="0.25"></line><line x1="48.13802083333333" y1="0" x2="48.13802083333333" y2="177" fill="rgb(0, 0, 0)" stroke="rgb(66, 66, 66)" stroke-width="1px" opacity="0.25"></line><line x1="72.20703125" y1="0" x2="72.20703125" y2="177" fill="rgb(0, 0, 0)" stroke="rgb(66, 66, 66)" stroke-width="1px" opacity="0.25"></line><line x1="96.27604166666666" y1="0" x2="96.27604166666666" y2="177" fill="rgb(0, 0, 0)" stroke="rgb(66, 66, 66)" stroke-width="1px" opacity="0.25"></line><line x1="120.34505208333334" y1="0" x2="120.34505208333334" y2="177" fill="rgb(0, 0, 0)" stroke="rgb(66, 66, 66)" stroke-width="1px" opacity="0.25"></line><line x1="144.4140625" y1="0" x2="144.4140625" y2="177" fill="rgb(0, 0, 0)" stroke="rgb(66, 66, 66)" stroke-width="1px" opacity="0.25"></line><line x1="168.48307291666669" y1="0" x2="168.48307291666669" y2="177" fill="rgb(0, 0, 0)" stroke="rgb(66, 66, 66)" stroke-width="1px" opacity="0.25"></line><line x1="192.55208333333331" y1="0" x2="192.55208333333331" y2="177" fill="rgb(0, 0, 0)" stroke="rgb(66, 66, 66)" stroke-width="1px" opacity="0.25"></line><line x1="216.62109375" y1="0" x2="216.62109375" y2="177" fill="rgb(0, 0, 0)" stroke="rgb(66, 66, 66)" stroke-width="1px" opacity="0.25"></line><line x1="240.69010416666669" y1="0" x2="240.69010416666669" y2="177" fill="rgb(0, 0, 0)" stroke="rgb(66, 66, 66)" stroke-width="1px" opacity="0.25"></line><line x1="264.7591145833333" y1="0" x2="264.7591145833333" y2="177" fill="rgb(0, 0, 0)" stroke="rgb(66, 66, 66)" stroke-width="1px" opacity="0.25"></line><line x1="288.828125" y1="0" x2="288.828125" y2="177" fill="rgb(0, 0, 0)" stroke="rgb(66, 66, 66)" stroke-width="1px" opacity="0.25"></line></g><g><line x1="0" y1="177" x2="288.828125" y2="177" fill="rgb(0, 0, 0)" stroke="rgb(66, 66, 66)" stroke-width="1px" opacity="0.25"></line><line x1="0" y1="163.3846153846154" x2="288.828125" y2="163.3846153846154" fill="rgb(0, 0, 0)" stroke="rgb(66, 66, 66)" stroke-width="1px" opacity="0.25"></line><line x1="0" y1="149.76923076923077" x2="288.828125" y2="149.76923076923077" fill="rgb(0, 0, 0)" stroke="rgb(66, 66, 66)" stroke-width="1px" opacity="0.25"></line><line x1="0" y1="136.15384615384613" x2="288.828125" y2="136.15384615384613" fill="rgb(0, 0, 0)" stroke="rgb(66, 66, 66)" stroke-width="1px" opacity="0.25"></line><line x1="0" y1="122.53846153846153" x2="288.828125" y2="122.53846153846153" fill="rgb(0, 0, 0)" stroke="rgb(66, 66, 66)" stroke-width="1px" opacity="0.25"></line><line x1="0" y1="108.92307692307693" x2="288.828125" y2="108.92307692307693" fill="rgb(0, 0, 0)" stroke="rgb(66, 66, 66)" stroke-width="1px" opacity="0.25"></line><line x1="0" y1="95.3076923076923" x2="288.828125" y2="95.3076923076923" fill="rgb(0, 0, 0)" stroke="rgb(66, 66, 66)" stroke-width="1px" opacity="0.25"></line><line x1="0" y1="81.6923076923077" x2="288.828125" y2="81.6923076923077" fill="rgb(0, 0, 0)" stroke="rgb(66, 66, 66)" stroke-width="1px" opacity="0.25"></line><line x1="0" y1="68.07692307692307" x2="288.828125" y2="68.07692307692307" fill="rgb(0, 0, 0)" stroke="rgb(66, 66, 66)" stroke-width="1px" opacity="0.25"></line><line x1="0" y1="54.46153846153847" x2="288.828125" y2="54.46153846153847" fill="rgb(0, 0, 0)" stroke="rgb(66, 66, 66)" stroke-width="1px" opacity="0.25"></line><line x1="0" y1="40.84615384615384" x2="288.828125" y2="40.84615384615384" fill="rgb(0, 0, 0)" stroke="rgb(66, 66, 66)" stroke-width="1px" opacity="0.25"></line><line x1="0" y1="27.230769230769234" x2="288.828125" y2="27.230769230769234" fill="rgb(0, 0, 0)" stroke="rgb(66, 66, 66)" stroke-width="1px" opacity="0.25"></line><line x1="0" y1="13.615384615384606" x2="288.828125" y2="13.615384615384606" fill="rgb(0, 0, 0)" stroke="rgb(66, 66, 66)" stroke-width="1px" opacity="0.25"></line><line x1="0" y1="0" x2="288.828125" y2="0" fill="rgb(0, 0, 0)" stroke="rgb(66, 66, 66)" stroke-width="1px" opacity="0.25"></line></g></g></g><g><g><line x1="0" y1="163.3846153846154" x2="288.828125" y2="163.3846153846154" fill="rgb(0, 0, 0)" stroke="rgb(153, 153, 153)" stroke-width="1.5px"></line></g></g><g><g><line x1="24.069010416666664" y1="0" x2="24.069010416666664" y2="177" fill="rgb(0, 0, 0)" stroke="rgb(153, 153, 153)" stroke-width="1.5px"></line></g></g><g><g><g><g><g><path stroke="rgb(0, 119, 187)" stroke-width="2px" d="M35.14075520833334,-57.70690964918872L35.622135416666666,6.8411926856407845L36.103515625,32.66591209998498L36.584895833333334,47.41106450007512L37.06627604166666,65.22926629873422L37.54765625,64.12014928964469L38.02903645833333,60.80786044781025L38.510416666666664,40.372328655536364L38.991796875000006,58.4514178936298L39.47317708333333,85.73976102975699L39.95455729166667,55.21331810584436L40.4359375,16.931527299147394L40.917317708333336,19.939009446364178L41.39869791666667,55.53364404531625L41.880078125,105.25538802513711L42.36145833333333,117.3853035560021L42.84283854166667,104.76616304837742L43.32421875,92.604440336961L43.805598958333334,71.62376650296726L44.28697916666666,101.98437476524941L44.768359375,113.05589649493878L45.24973958333334,112.97920919565054L45.731119791666664,88.6678342965933L46.2125,56.92475632887621L46.69388020833333,36.858289630596445L47.17526041666667,58.10355412409856L47.656640625,86.41050092256985L48.13802083333333,116.76903683589055L48.61940104166667,130.16970480405365L49.100781250000004,130.44432220458984L49.58216145833333,117.43218330970178L50.063541666666666,101.19098713214579L50.544921875,77.61391454843374L51.026302083333334,49.118534616323615L51.50768229166667,43.52670346773587L51.989062499999996,72.4370829655574L52.47044270833334,105.9745969919058L52.951822916666664,130.3129851414607L53.433203125,135.12089965526874L53.91458333333333,126.47308352543759L54.39596354166667,107.86124478853667L54.87734375,65.4551263662485L55.358723958333336,40.928756948617796L55.84010416666666,47.397061861478356L56.321484375000004,60.9085797236516L56.80286458333333,83.48980293273927L57.284244791666666,117.45539465684159L57.765625,137.46633902329665L58.247005208333334,146.71556744208704L58.72838541666667,143.13565342976497L59.209765624999996,135.48377626859227L59.69114583333333,118.80744913541353L60.17252604166667,98.45799513596755L60.65390625,89.70622655428373L61.13528645833333,85.33931984534631L61.61666666666667,108.60445976257324L62.098046875,125.84179876767672L62.579427083333336,130.98883059575007L63.06080729166666,139.08859352698693L63.5421875,134.88994181706354L64.02356770833333,132.50754036536583L64.50494791666667,118.70536387516901L64.986328125,93.0416540292593L65.46770833333333,74.37075594388521L65.94908854166667,63.47439704308143L66.43046875,73.55483216505783L66.91184895833334,96.04970750075118L67.39322916666667,121.6206394782433L67.87460937499999,124.72580509185791L68.35598958333333,141.85960585520817L68.83736979166667,148.33889577572162L69.31875,145.037949019212L69.80013020833333,129.21938478029693L70.28151041666668,112.04569649329551L70.762890625,80.3008422264686L71.24427083333333,58.18098414494441L71.72565104166667,62.90586706308219L72.20703125,101.06914443969727L72.68841145833333,130.42357274568997L73.16979166666667,142.38405686891994L73.651171875,150.09468694100013L74.13255208333332,152.2508154135484L74.61393229166667,144.74388971328736L75.0953125,133.1783685537485L75.57669270833333,119.66337080735427L76.05807291666666,97.38037886986366L76.53945312500001,77.07669313870944L77.02083333333333,71.74170860877403L77.50221354166666,96.55445172236516L77.98359375000001,116.78297195434571L78.46497395833333,135.1581032532912L78.94635416666667,145.99015181614803L79.427734375,151.15669306975144L79.90911458333333,151.21528107569767L80.39049479166667,146.05965341421273L80.871875,135.42537653996393L81.35325520833334,125.56749299856332L81.83463541666667,118.15426967327413L82.31601562499999,102.52659266545223L82.79739583333334,93.30178316556491L83.27877604166666,93.82372944171613L83.76015625,99.06894334646373L84.24153645833334,115.69568472642166L84.72291666666666,138.81212711334229L85.204296875,144.6368196487427L85.68567708333335,146.79529314774734L86.16705729166667,151.40470883296086L86.6484375,154.4936111816993L87.12981770833333,152.27079618160542L87.61119791666667,142.73906219188984L88.092578125,137.3255595280574L88.57395833333332,131.17541471628041L89.05533854166667,123.29501433739294L89.53671875,112.50354537963868L90.01809895833333,97.38366658137394L90.49947916666667,94.02907377389761L90.980859375,102.96314673790565L91.46223958333333,115.12278671264649L91.94361979166668,126.3663341815655L92.425,139.26976564847507L92.90638020833333,150.87631308482244L93.38776041666667,156.03391700891348L93.869140625,155.14819168677695L94.35052083333333,151.10291457543008L94.83190104166665,148.15049899908212L95.31328125,144.80425921220046L95.79466145833334,135.86889038085937L96.27604166666666,120.56824458195612L96.757421875,108.09037698599008L97.23880208333334,95.73026451697716L97.72018229166666,89.63544467045712L98.20156250000001,86.0010951408973L98.68294270833333,73.08238854041467L99.16432291666666,102.83232906048114L99.645703125,142.24598207473755L100.12708333333333,156.75972866645225L100.60846354166667,156.56123633017907L101.08984375,143.59716917918277L101.57122395833333,129.23409378345195L102.05260416666667,133.54232808626614L102.53398437499999,135.57991456251878L103.01536458333334,130.47029148982122L103.49674479166667,125.55359943096454L103.97812499999999,126.44882301917444L104.45950520833334,128.72068880521334L104.94088541666667,135.45592680711013L105.422265625,140.66108568631685L105.90364583333333,147.29577840658334L106.38502604166668,148.67090659508338L106.86640625,147.04000042401827L107.34778645833333,140.5408478956956L107.82916666666667,135.73725207402154L108.310546875,134.56167966402492L108.79192708333333,134.21923308739295L109.27330729166667,130.96766562828648L109.7546875,130.82462940216064L110.23606770833332,132.67308157407322L110.71744791666667,132.14220965458796L111.198828125,130.45318811856785L111.68020833333333,130.17097210517295L112.16158854166666,132.04413924584023L112.64296875000001,133.44271769890418L113.12434895833333,133.4816093004667L113.60572916666666,138.2468588755681L114.08710937500001,144.58113111349252L114.56848958333333,153.88535014299248L115.04986979166667,154.91178614176238L115.53125,153.7593127617469L116.01263020833333,148.3117799465473L116.49401041666667,146.50373857938328L116.975390625,143.64167534021232L117.45677083333334,139.47482951237603L117.93815104166667,133.1663603562575L118.41953124999999,127.93840304154618L118.90091145833334,126.9889036472027L119.38229166666666,123.18935050964355L119.863671875,110.6757439833421L120.34505208333334,99.78895736107461L120.82643229166666,102.67344377957858L121.3078125,117.23306121826171L121.78919270833335,127.94282561082107L122.27057291666667,137.821118413485L122.751953125,151.39967468701877L123.23333333333333,156.90477166909437L123.71471354166667,159.37586342371426L124.19609375,161.22017560463686L124.67747395833332,159.93859381308923L125.15885416666667,152.43371708943292L125.640234375,143.37612251868615L126.12161458333333,133.33444655491755L126.60299479166667,126.09924787374644L127.084375,112.9849276322585L127.56575520833333,114.18493713965783L128.04713541666666,110.90905204186073L128.528515625,112.80503839346079L129.00989583333333,131.02301136897162L129.49127604166665,151.55221047768225L129.97265625,151.27058656399066L130.45403645833332,154.22733251865094L130.93541666666667,154.75594770724956L131.41679687500002,158.8103793162566L131.89817708333334,161.58078753398016L132.37955729166666,159.65065157230083L132.8609375,157.3150545633756L133.34231770833333,143.01512478314913L133.82369791666667,116.36779060363769L134.305078125,114.13279081491324L134.78645833333334,122.8251546566303L135.26783854166666,130.20174051431508L135.74921874999998,123.65847006577714L136.23059895833333,120.0299999823937L136.71197916666665,102.8569479428805L137.193359375,90.11724243164063L137.67473958333335,79.29179006723257L138.15611979166667,83.06457666250375L138.6375,121.72327528733473L139.11888020833334,145.03440940563496L139.60026041666666,156.16587863335243L140.081640625,159.88429658229535L140.56302083333335,155.89940130527202L141.04440104166667,150.38704525874212L141.52578125,148.6928947888888L142.00716145833331,148.37116391108586L142.48854166666666,147.8207475075355L142.969921875,143.6313668324397L143.45130208333333,139.77511235750637L143.93268229166668,131.2297372671274L144.4140625,132.26884627709023L144.89544270833335,136.2122277039748L145.37682291666667,138.16617490328275L145.858203125,141.97602226550762L146.33958333333334,138.80238343752347L146.82096354166666,128.56970597780668L147.30234375,140.28545036315919L147.78372395833335,152.57400836210985L148.26510416666665,152.13278371370754L148.746484375,146.5922912450937L149.22786458333334,132.31529494065504L149.70924479166666,107.45319460355319L150.190625,94.8807468707745L150.67200520833333,88.45124526390663L151.15338541666665,89.11364901616022L151.634765625,101.51997123131385L152.11614583333332,135.63006125230055L152.59752604166667,151.06294524853047L153.07890625000002,157.91424647844755L153.5602864583333,160.95999144590817L154.04166666666666,157.65322334949786L154.523046875,149.10395221710206L155.00442708333333,142.5686608314514L155.48580729166667,142.41600298514732L155.96718750000002,145.34357894017145L156.44856770833331,144.4254712178157L156.92994791666666,146.19068403977613L157.411328125,145.57772320967453L157.89270833333333,146.7969227203956L158.37408854166668,145.58915878442616L158.85546875,145.91872978944045L159.33684895833332,146.7923819908729L159.81822916666667,148.77560436542217L160.29960937500002,145.40720888284537L160.78098958333334,145.72012318831224L161.26236979166666,143.09760323304397L161.74375,143.42857657946075L162.22513020833333,145.39040675530066L162.70651041666667,149.52173569019024L163.187890625,145.1128366470337L163.66927083333334,139.41351343301625L164.15065104166666,132.90179047217737L164.63203124999998,132.45087019113393L165.11341145833333,129.98254676231969L165.59479166666668,136.61177814190205L166.076171875,142.32828523195707L166.55755208333332,145.53810706505408L167.03893229166667,148.66231076167182L167.5203125,151.645148057204L168.00169270833334,151.42163561307467L168.48307291666669,151.78137773367075L168.96445312499998,150.27626418333787L169.44583333333333,147.198563685784L169.92721354166667,143.81838464003343L170.40859375,138.39031580411472L170.88997395833334,133.17665717785175L171.3713541666667,128.6557500105638L171.85273437499998,124.61409821143518L172.33411458333333,120.10816493401161L172.81549479166668,117.8499252319336L173.296875,126.97041091918946L173.77825520833335,137.2317714544443L174.25963541666667,145.085088465764L174.741015625,151.40275724117572L175.22239583333334,156.6363797554603L175.70377604166666,159.8357216835022L176.18515625,160.92216848043296L176.66653645833335,162.28125747029597L177.14791666666665,162.26142448370274L177.629296875,159.44134205488058L178.11067708333334,153.55611414175766L178.59205729166666,149.41038199204664L179.0734375,139.07737998962403L179.55481770833333,120.42614065317008L180.03619791666665,108.94196698115421L180.517578125,103.5985268519475L180.99895833333335,107.16128944983848L181.48033854166667,106.46035766601562L181.96171875,125.94924668532151L182.44309895833334,147.2901612501878L182.92447916666666,154.72139297632071L183.405859375,159.64659679302804L183.88723958333335,160.39695429435142L184.36861979166665,157.76119389900794L184.85,155.23702352230364L185.33138020833334,151.03162109668438L185.81276041666666,148.18550429710976L186.294140625,139.60948804708627L186.77552083333333,132.04812812805176L187.25690104166665,132.34878493088942L187.73828125,139.01036624908448L188.21966145833332,147.87567644119264L188.70104166666667,152.8022277391874L189.18242187500002,157.97204534273882L189.6638020833333,158.99040002456078L190.14518229166666,159.05677686838004L190.6265625,156.95477228164674L191.10794270833333,156.25474487818204L191.58932291666667,152.48973803153405L192.07070312500002,146.4292041338407L192.55208333333331,138.759227679326L193.03346354166666,123.86743451631986L193.51484375,105.34583904559794L193.99622395833333,98.80275297898513L194.47760416666668,96.20477529672476L194.958984375,121.96761509821964L195.44036458333332,149.4978361569918L195.92174479166667,152.99856657248276L196.40312500000002,159.41438171680159L196.88450520833334,158.4069506901961L197.36588541666666,151.2544154900771L197.847265625,144.26205689356877L198.32864583333333,135.82545934823844L198.81002604166667,130.77203380878154L199.29140625,128.1245275057279L199.77278645833334,124.8136436022245L200.25416666666666,132.6513504761916L200.73554687499998,150.58365352337177L201.21692708333333,159.25121734692502L201.69830729166668,160.65305884067828L202.1796875,160.28332276527698L202.66106770833332,157.47280498651358L203.14244791666667,158.51477711017316L203.623828125,135.71256047762355L204.10520833333334,147.40107736587524L204.58658854166669,143.13450428889348L205.06796874999998,131.607834478525L205.54934895833333,123.16727661719688L206.03072916666667,118.88719042264499L206.512109375,122.71700816521277L206.99348958333334,148.75250468620888L207.4748697916667,153.8052770981422L207.95624999999998,155.89518843797538L208.43763020833333,159.4941580625681L208.91901041666668,160.7129209646812L209.400390625,160.81624155136257L209.88177083333335,161.68467327723135L210.36315104166667,161.52979375857572L210.84453125,157.62706773464495L211.32591145833334,155.78886953500603L211.80729166666666,149.10177599099967L212.288671875,142.4159133911133L212.77005208333335,130.6162025158222L213.25143229166665,123.57320770850548L213.7328125,102.14248616145207L214.21419270833334,98.24975263155424L214.69557291666666,115.25908390925481L215.176953125,140.20808266859788L215.65833333333333,150.78775003139788L216.13971354166665,153.42504131610576L216.62109375,154.66563042860764L217.10247395833335,158.6489428776961L217.58385416666667,159.10020790100097L218.065234375,160.11693528248713L218.54661458333334,160.91096078615922L219.02799479166666,160.62019243790553L219.509375,160.56403126166416L219.99075520833335,161.10424287227482L220.47213541666665,161.2034585265013L220.953515625,158.97044360270866L221.43489583333334,161.41608513318576L221.91627604166666,161.27139888359952L222.39765625,161.55068945701305L222.87903645833333,162.396569780203L223.36041666666665,161.28694799313178L223.841796875,162.42700464633793L224.32317708333332,162.00429950677432L224.80455729166667,162.33554269029545L225.28593750000002,162.5689243555069L225.7673177083333,162.74048362145058L226.24869791666666,162.12403641480665L226.730078125,162.31759328842162L227.21145833333333,162.5421954686825L227.69283854166667,162.3819860788492L228.17421875000002,162.06648920912008L228.65559895833331,162.93071520924568L229.13697916666666,162.83116154854113L229.618359375,162.35899352293748L230.09973958333333,162.88298540780178L230.58111979166668,162.33224256222064L231.0625,162.25616140228053L231.54388020833332,161.85884813712195L232.02526041666667,162.9569483261842L232.50664062500002,161.9944078060297L232.98802083333334,162.3389960371531L233.46940104166666,162.02293961048127L233.95078125,162.5558995416531L234.43216145833333,162.58196385823763L234.91354166666667,162.9743957904669L235.394921875,162.2839804310065L235.87630208333334,161.66079825254587L236.35768229166666,158.76688433427077L236.83906249999998,161.85316248673658L237.32044270833333,162.29166620327877L237.80182291666668,162.22966136978224L238.283203125,161.70015291892565L238.76458333333332,162.36263149518234L239.24596354166667,162.57244676443247L239.72734375,159.7552623455341L240.20872395833334,159.0679504779669L240.69010416666669,152.25512501643254L241.17148437499998,143.00721583733193L241.65286458333333,150.4484626183143L242.13424479166667,156.90242534417374L242.615625,159.3167073396536L243.09700520833334,160.25364084610572L243.5783854166667,160.7977657033847L244.05976562499998,161.34779272996462L244.54114583333333,160.43457534863398L245.02252604166668,160.86202036967643L245.50390625,162.0433697283268L245.98528645833335,160.33234790655283L246.46666666666667,160.0608078663166L246.948046875,159.67711946780867L247.42942708333334,156.86175874196567L247.91080729166666,158.36658598092885L248.3921875,157.70188784232505L248.87356770833335,158.0563185948592L249.35494791666665,152.63892313517056L249.836328125,140.9123982502864L250.31770833333334,129.14351031963642L250.79908854166666,153.3168532738319L251.28046875,157.08599962454576L251.76184895833333,148.76501019551202L252.24322916666665,150.58854353978083L252.724609375,152.1078142459576L253.20598958333335,150.35821156134972L253.68736979166667,141.9682990000798L254.16875,135.28684858175424L254.65013020833334,154.22086486816406L255.13151041666666,157.85365818830638L255.612890625,152.59352363072907L256.0942708333333,150.6662799981924L256.5756510416667,139.1357849121094L257.05703125,145.39527210088875L257.53841145833337,151.2367070344778L258.01979166666666,155.55119149501508L258.501171875,142.27815412374645L258.9825520833333,159.83800730521864L259.46393229166665,156.6632306979253L259.9453125,159.31715790675239L260.4266927083333,152.33542464329648L260.90807291666664,161.15757518181434L261.389453125,161.91379395081447L261.87083333333334,161.162880219863L262.3522135416667,157.81593845073994L262.83359375000003,154.49720987540024L263.3149739583333,159.37181546137882L263.7963541666667,161.5543754724356L264.277734375,161.02845670718412" style="fill: none;" fill="none"></path></g></g></g></g></g></g><g transform="translate(41, 177)" clip-path="url(#clip_1)"><clipPath id="clip_1"><rect width="288" height="23"></rect></clipPath><g><g><line x1="0" y1="0" x2="0" y2="5" style="visibility: inherit;" fill="rgb(0, 0, 0)" stroke="rgb(204, 204, 204)" stroke-width="1px"></line><line x1="24.069010416666664" y1="0" x2="24.069010416666664" y2="5" style="visibility: inherit;" fill="rgb(0, 0, 0)" stroke="rgb(204, 204, 204)" stroke-width="1px"></line><line x1="48.13802083333333" y1="0" x2="48.13802083333333" y2="5" style="visibility: inherit;" fill="rgb(0, 0, 0)" stroke="rgb(204, 204, 204)" stroke-width="1px"></line><line x1="72.20703125" y1="0" x2="72.20703125" y2="5" style="visibility: inherit;" fill="rgb(0, 0, 0)" stroke="rgb(204, 204, 204)" stroke-width="1px"></line><line x1="96.27604166666666" y1="0" x2="96.27604166666666" y2="5" style="visibility: inherit;" fill="rgb(0, 0, 0)" stroke="rgb(204, 204, 204)" stroke-width="1px"></line><line x1="120.34505208333334" y1="0" x2="120.34505208333334" y2="5" style="visibility: inherit;" fill="rgb(0, 0, 0)" stroke="rgb(204, 204, 204)" stroke-width="1px"></line><line x1="144.4140625" y1="0" x2="144.4140625" y2="5" style="visibility: inherit;" fill="rgb(0, 0, 0)" stroke="rgb(204, 204, 204)" stroke-width="1px"></line><line x1="168.48307291666669" y1="0" x2="168.48307291666669" y2="5" style="visibility: inherit;" fill="rgb(0, 0, 0)" stroke="rgb(204, 204, 204)" stroke-width="1px"></line><line x1="192.55208333333331" y1="0" x2="192.55208333333331" y2="5" style="visibility: inherit;" fill="rgb(0, 0, 0)" stroke="rgb(204, 204, 204)" stroke-width="1px"></line><line x1="216.62109375" y1="0" x2="216.62109375" y2="5" style="visibility: inherit;" fill="rgb(0, 0, 0)" stroke="rgb(204, 204, 204)" stroke-width="1px"></line><line x1="240.69010416666669" y1="0" x2="240.69010416666669" y2="5" style="visibility: inherit;" fill="rgb(0, 0, 0)" stroke="rgb(204, 204, 204)" stroke-width="1px"></line><line x1="264.7591145833333" y1="0" x2="264.7591145833333" y2="5" style="visibility: inherit;" fill="rgb(0, 0, 0)" stroke="rgb(204, 204, 204)" stroke-width="1px"></line><line x1="288.828125" y1="0" x2="288.828125" y2="5" style="visibility: inherit;" fill="rgb(0, 0, 0)" stroke="rgb(204, 204, 204)" stroke-width="1px"></line></g><g transform="translate(0, 8)"><text x="0" y="0" dx="0em" dy="0.95em" style="text-anchor: middle; visibility: hidden; font-family: Roboto, sans-serif; font-size: 12px; font-weight: 200;" fill="rgb(33, 33, 33)" stroke="none" stroke-width="1px">-50</text><text x="24.069010416666664" y="0" dx="0em" dy="0.95em" style="text-anchor: middle; visibility: inherit; font-family: Roboto, sans-serif; font-size: 12px; font-weight: 200;" fill="rgb(33, 33, 33)" stroke="none" stroke-width="1px">0</text><text x="48.13802083333333" y="0" dx="0em" dy="0.95em" style="text-anchor: middle; visibility: hidden; font-family: Roboto, sans-serif; font-size: 12px; font-weight: 200;" fill="rgb(33, 33, 33)" stroke="none" stroke-width="1px">50</text><text x="72.20703125" y="0" dx="0em" dy="0.95em" style="text-anchor: middle; visibility: inherit; font-family: Roboto, sans-serif; font-size: 12px; font-weight: 200;" fill="rgb(33, 33, 33)" stroke="none" stroke-width="1px">100</text><text x="96.27604166666666" y="0" dx="0em" dy="0.95em" style="text-anchor: middle; visibility: hidden; font-family: Roboto, sans-serif; font-size: 12px; font-weight: 200;" fill="rgb(33, 33, 33)" stroke="none" stroke-width="1px">150</text><text x="120.34505208333334" y="0" dx="0em" dy="0.95em" style="text-anchor: middle; visibility: inherit; font-family: Roboto, sans-serif; font-size: 12px; font-weight: 200;" fill="rgb(33, 33, 33)" stroke="none" stroke-width="1px">200</text><text x="144.4140625" y="0" dx="0em" dy="0.95em" style="text-anchor: middle; visibility: hidden; font-family: Roboto, sans-serif; font-size: 12px; font-weight: 200;" fill="rgb(33, 33, 33)" stroke="none" stroke-width="1px">250</text><text x="168.48307291666669" y="0" dx="0em" dy="0.95em" style="text-anchor: middle; visibility: inherit; font-family: Roboto, sans-serif; font-size: 12px; font-weight: 200;" fill="rgb(33, 33, 33)" stroke="none" stroke-width="1px">300</text><text x="192.55208333333331" y="0" dx="0em" dy="0.95em" style="text-anchor: middle; visibility: hidden; font-family: Roboto, sans-serif; font-size: 12px; font-weight: 200;" fill="rgb(33, 33, 33)" stroke="none" stroke-width="1px">350</text><text x="216.62109375" y="0" dx="0em" dy="0.95em" style="text-anchor: middle; visibility: inherit; font-family: Roboto, sans-serif; font-size: 12px; font-weight: 200;" fill="rgb(33, 33, 33)" stroke="none" stroke-width="1px">400</text><text x="240.69010416666669" y="0" dx="0em" dy="0.95em" style="text-anchor: middle; visibility: hidden; font-family: Roboto, sans-serif; font-size: 12px; font-weight: 200;" fill="rgb(33, 33, 33)" stroke="none" stroke-width="1px">450</text><text x="264.7591145833333" y="0" dx="0em" dy="0.95em" style="text-anchor: middle; visibility: inherit; font-family: Roboto, sans-serif; font-size: 12px; font-weight: 200;" fill="rgb(33, 33, 33)" stroke="none" stroke-width="1px">500</text><text x="288.828125" y="0" dx="0em" dy="0.95em" style="text-anchor: middle; visibility: hidden; font-family: Roboto, sans-serif; font-size: 12px; font-weight: 200;" fill="rgb(33, 33, 33)" stroke="none" stroke-width="1px">550</text></g><line x1="0" y1="0" x2="288.828125" y2="0" fill="rgb(0, 0, 0)" stroke="rgb(204, 204, 204)" stroke-width="1px"></line></g></g></g></g></svg>