<svg viewBox="0 0 330 200" xmlns="http://www.w3.org/2000/svg"><g><g><g><g><g><line x1="41.171875" y1="177" x2="36.171875" y2="177" style="visibility: inherit;" fill="rgb(0, 0, 0)" stroke="rgb(204, 204, 204)" stroke-width="1px"></line><line x1="41.171875" y1="157.33333333333331" x2="36.171875" y2="157.33333333333331" style="visibility: inherit;" fill="rgb(0, 0, 0)" stroke="rgb(204, 204, 204)" stroke-width="1px"></line><line x1="41.171875" y1="137.66666666666666" x2="36.171875" y2="137.66666666666666" style="visibility: inherit;" fill="rgb(0, 0, 0)" stroke="rgb(204, 204, 204)" stroke-width="1px"></line><line x1="41.171875" y1="118.00000000000001" x2="36.171875" y2="118.00000000000001" style="visibility: inherit;" fill="rgb(0, 0, 0)" stroke="rgb(204, 204, 204)" stroke-width="1px"></line><line x1="41.171875" y1="98.33333333333334" x2="36.171875" y2="98.33333333333334" style="visibility: inherit;" fill="rgb(0, 0, 0)" stroke="rgb(204, 204, 204)" stroke-width="1px"></line><line x1="41.171875" y1="78.66666666666666" x2="36.171875" y2="78.66666666666666" style="visibility: inherit;" fill="rgb(0, 0, 0)" stroke="rgb(204, 204, 204)" stroke-width="1px"></line><line x1="41.171875" y1="59.00000000000001" x2="36.171875" y2="59.00000000000001" style="visibility: inherit;" fill="rgb(0, 0, 0)" stroke="rgb(204, 204, 204)" stroke-width="1px"></line><line x1="41.171875" y1="39.33333333333333" x2="36.171875" y2="39.33333333333333" style="visibility: inherit;" fill="rgb(0, 0, 0)" stroke="rgb(204, 204, 204)" stroke-width="1px"></line><line x1="41.171875" y1="19.666666666666675" x2="36.171875" y2="19.666666666666675" style="visibility: inherit;" fill="rgb(0, 0, 0)" stroke="rgb(204, 204, 204)" stroke-width="1px"></line><line x1="41.171875" y1="0" x2="36.171875" y2="0" style="visibility: inherit;" fill="rgb(0, 0, 0)" stroke="rgb(204, 204, 204)" stroke-width="1px"></line></g><g transform="translate(31.171875, 0)"><text x="0" y="177" dx="0em" dy="0.3em" style="text-anchor: end; visibility: hidden; font-family: Roboto, sans-serif; font-size: 12px; font-weight: 200;" fill="rgb(33, 33, 33)" stroke="none" stroke-width="1px">-20</text><text x="0" y="157.33333333333331" dx="0em" dy="0.3em" style="text-anchor: end; visibility: inherit; font-family: Roboto, sans-serif; font-size: 12px; font-weight: 200;" fill="rgb(33, 33, 33)" stroke="none" stroke-width="1px">0</text><text x="0" y="137.66666666666666" dx="0em" dy="0.3em" style="text-anchor: end; visibility: hidden; font-family: Roboto, sans-serif; font-size: 12px; font-weight: 200;" fill="rgb(33, 33, 33)" stroke="none" stroke-width="1px">20</text><text x="0" y="118.00000000000001" dx="0em" dy="0.3em" style="text-anchor: end; visibility: inherit; font-family: Roboto, sans-serif; font-size: 12px; font-weight: 200;" fill="rgb(33, 33, 33)" stroke="none" stroke-width="1px">40</text><text x="0" y="98.33333333333334" dx="0em" dy="0.3em" style="text-anchor: end; visibility: hidden; font-family: Roboto, sans-serif; font-size: 12px; font-weight: 200;" fill="rgb(33, 33, 33)" stroke="none" stroke-width="1px">60</text><text x="0" y="78.66666666666666" dx="0em" dy="0.3em" style="text-anchor: end; visibility: inherit; font-family: Roboto, sans-serif; font-size: 12px; font-weight: 200;" fill="rgb(33, 33, 33)" stroke="none" stroke-width="1px">80</text><text x="0" y="59.00000000000001" dx="0em" dy="0.3em" style="text-anchor: end; visibility: hidden; font-family: Roboto, sans-serif; font-size: 12px; font-weight: 200;" fill="rgb(33, 33, 33)" stroke="none" stroke-width="1px">100</text><text x="0" y="39.33333333333333" dx="0em" dy="0.3em" style="text-anchor: end; visibility: inherit; font-family: Roboto, sans-serif; font-size: 12px; font-weight: 200;" fill="rgb(33, 33, 33)" stroke="none" stroke-width="1px">120</text><text x="0" y="19.666666666666675" dx="0em" dy="0.3em" style="text-anchor: end; visibility: hidden; font-family: Roboto, sans-serif; font-size: 12px; font-weight: 200;" fill="rgb(33, 33, 33)" stroke="none" stroke-width="1px">140</text><text x="0" y="0" dx="0em" dy="0.3em" style="text-anchor: end; visibility: hidden; font-family: Roboto, sans-serif; font-size: 12px; font-weight: 200;" fill="rgb(33, 33, 33)" stroke="none" stroke-width="1px">160</text></g><line x1="41.171875" y1="0" x2="41.171875" y2="177" fill="rgb(0, 0, 0)" stroke="rgb(204, 204, 204)" stroke-width="1px"></line></g></g><g transform="translate(41, 0)" clip-path="url(#clip_0)"><clipPath id="clip_0"><rect width="288" height="177"></rect></clipPath><g><g><g><line x1="0" y1="0" x2="0" y2="177" fill="rgb(0, 0, 0)" stroke="rgb(66, 66, 66)" stroke-width="1px" opacity="0.25"></line><line x1="28.8828125" y1="0" x2="28.8828125" y2="177" fill="rgb(0, 0, 0)" stroke="rgb(66, 66, 66)" stroke-width="1px" opacity="0.25"></line><line x1="57.765625" y1="0" x2="57.765625" y2="177" fill="rgb(0, 0, 0)" stroke="rgb(66, 66, 66)" stroke-width="1px" opacity="0.25"></line><line x1="86.6484375" y1="0" x2="86.6484375" y2="177" fill="rgb(0, 0, 0)" stroke="rgb(66, 66, 66)" stroke-width="1px" opacity="0.25"></line><line x1="115.53125" y1="0" x2="115.53125" y2="177" fill="rgb(0, 0, 0)" stroke="rgb(66, 66, 66)" stroke-width="1px" opacity="0.25"></line><line x1="144.4140625" y1="0" x2="144.4140625" y2="177" fill="rgb(0, 0, 0)" stroke="rgb(66, 66, 66)" stroke-width="1px" opacity="0.25"></line><line x1="173.296875" y1="0" x2="173.296875" y2="177" fill="rgb(0, 0, 0)" stroke="rgb(66, 66, 66)" stroke-width="1px" opacity="0.25"></line><line x1="202.1796875" y1="0" x2="202.1796875" y2="177" fill="rgb(0, 0, 0)" stroke="rgb(66, 66, 66)" stroke-width="1px" opacity="0.25"></line><line x1="231.0625" y1="0" x2="231.0625" y2="177" fill="rgb(0, 0, 0)" stroke="rgb(66, 66, 66)" stroke-width="1px" opacity="0.25"></line><line x1="259.9453125" y1="0" x2="259.9453125" y2="177" fill="rgb(0, 0, 0)" stroke="rgb(66, 66, 66)" stroke-width="1px" opacity="0.25"></line><line x1="288.828125" y1="0" x2="288.828125" y2="177" fill="rgb(0, 0, 0)" stroke="rgb(66, 66, 66)" stroke-width="1px" opacity="0.25"></line></g><g><line x1="0" y1="177" x2="288.828125" y2="177" fill="rgb(0, 0, 0)" stroke="rgb(66, 66, 66)" stroke-width="1px" opacity="0.25"></line><line x1="0" y1="157.33333333333331" x2="288.828125" y2="157.33333333333331" fill="rgb(0, 0, 0)" stroke="rgb(66, 66, 66)" stroke-width="1px" opacity="0.25"></line><line x1="0" y1="137.66666666666666" x2="288.828125" y2="137.66666666666666" fill="rgb(0, 0, 0)" stroke="rgb(66, 66, 66)" stroke-width="1px" opacity="0.25"></line><line x1="0" y1="118.00000000000001" x2="288.828125" y2="118.00000000000001" fill="rgb(0, 0, 0)" stroke="rgb(66, 66, 66)" stroke-width="1px" opacity="0.25"></line><line x1="0" y1="98.33333333333334" x2="288.828125" y2="98.33333333333334" fill="rgb(0, 0, 0)" stroke="rgb(66, 66, 66)" stroke-width="1px" opacity="0.25"></line><line x1="0" y1="78.66666666666666" x2="288.828125" y2="78.66666666666666" fill="rgb(0, 0, 0)" stroke="rgb(66, 66, 66)" stroke-width="1px" opacity="0.25"></line><line x1="0" y1="59.00000000000001" x2="288.828125" y2="59.00000000000001" fill="rgb(0, 0, 0)" stroke="rgb(66, 66, 66)" stroke-width="1px" opacity="0.25"></line><line x1="0" y1="39.33333333333333" x2="288.828125" y2="39.33333333333333" fill="rgb(0, 0, 0)" stroke="rgb(66, 66, 66)" stroke-width="1px" opacity="0.25"></line><line x1="0" y1="19.666666666666675" x2="288.828125" y2="19.666666666666675" fill="rgb(0, 0, 0)" stroke="rgb(66, 66, 66)" stroke-width="1px" opacity="0.25"></line><line x1="0" y1="0" x2="288.828125" y2="0" fill="rgb(0, 0, 0)" stroke="rgb(66, 66, 66)" stroke-width="1px" opacity="0.25"></line></g></g></g><g><g><line x1="0" y1="157.33333333333331" x2="288.828125" y2="157.33333333333331" fill="rgb(0, 0, 0)" stroke="rgb(153, 153, 153)" stroke-width="1.5px"></line></g></g><g><g><line x1="28.8828125" y1="0" x2="28.8828125" y2="177" fill="rgb(0, 0, 0)" stroke="rgb(153, 153, 153)" stroke-width="1.5px"></line></g></g><g><g><g><g><g><path stroke="rgb(238, 51, 119)" stroke-width="2px" d="M36.91956740017361,-4.097500775178889L37.424294548611115,14.336891323240545L37.93001654947917,24.527198092335084L38.43265771701389,29.50565055405908L38.93285989149306,32.51024518450926L39.429066610243055,40.316785750394445L39.93257426215277,40.64628402349416L40.43134834201389,38.54162361076508L40.9319998046875,40.40542430986193L41.43393494791666,44.95259604210554L41.93988159288194,46.067467172898695L42.44027631944444,-7.749979889612517L42.946399470486114,8.252054705450737L43.44607212673612,22.333279088117383L43.94970814670138,20.695143423732052L44.451450737847225,33.92326050789913L44.95553604600694,38.835203589261866L45.45811302951389,43.08450575919137L45.96073815104167,46.09901568181554L46.4620475,42.538063750615365L46.96481703559028,42.920990209933045L47.46810004340278,40.925036135149995L47.97151141927084,44.38135398452605L48.475676957465275,34.48161490840661L48.97820580295139,37.30721225378812L49.48055814236112,37.63397940117686L49.98664920138889,41.15442237072648L50.48852016059028,40.801464762706786L50.996344188368056,42.64999679808316L51.50075041666667,42.57783763776468L52.009922309027786,33.3914207016184L52.51160071614583,32.81677533355581L53.01870267361111,31.800567824631546L53.520092252604165,13.746921708630367L54.01962049479167,24.048367309489276L54.5213630859375,35.93970413206607L55.02645929253472,41.123021087647125L55.526308454861116,35.419658192946876L56.025018350694445,27.688679071036717L56.524257764756946,26.027255701084947L57.02409088107638,18.441726243728702L57.52607416232639,26.109033447247352L58.02858696180556,31.308714542632703L58.529366792534724,36.89872807453823L59.03263375434029,44.678747495357925L59.53360613715278,52.6524042385886L60.034835256076384,53.697182797873225L60.533673519965284,60.866877692233096L61.03636282552083,30.05916327712362L61.53597129774305,25.70297721432101L62.03684740451389,42.45535658005749L62.53738654513889,65.04930469713933L63.04180881944444,76.26273365649973L63.54207517795139,90.46730831523774L64.04375358506944,94.26205422437215L64.55059880642361,87.35759243859462L65.0517156032986,88.47251073455976L65.5511315234375,96.1312157913218L66.05388501302083,102.63284301544249L66.556108984375,60.38896860630326L67.05538049045138,72.50676769942648L67.55712308159723,68.10154317377373L68.05832010850695,88.42414525444327L68.56222891059028,98.72723556575191L69.06868902777778,63.121552317641246L69.5740419704861,57.415469028931106L70.07549573350694,50.21841242932155L70.58092890625,60.36721506013198L71.08602511284722,65.81972768720223L71.59213221788195,80.95582353045285L72.09129140190971,95.4486217071796L72.59454231770835,105.7567221067459L73.09813019965279,112.20746616097951L73.60152552951389,111.51955431206622L74.10724753038194,110.64793581905127L74.61887446180556,112.55370172784025L75.12482110677082,104.1658320291358L75.63052706163194,104.12091009598083L76.13251034288193,109.09408149866923L76.64190687934028,107.96522148220936L77.14767701822916,97.164739680504L77.65808445312501,104.56965562674316L78.16053306857637,89.17450638874121L78.6676189800347,100.13617073693125L79.17167219618057,93.75405407586643L79.68532092447917,101.4167271842894L80.19508651909722,99.51498476129791L80.7070985546875,101.52861986475402L81.21904640625,103.86780231029121L81.72876386284723,108.79752266425089L82.23984523003472,111.24796051830967L82.75312490017362,114.2275234626785L83.26833009114583,103.64186818323861L83.77758221354168,92.62768408132987L84.29219370225694,90.74078810179272L84.80203952690971,101.12220006444477L85.31660287760417,104.09765073731594L85.81991797743056,101.1479346704983L86.32422792968751,101.69338869129636L86.82985365451388,104.32787085617593L87.33440429687501,110.36057271308708L87.84237273871528,112.58570634452704L88.35061396267362,109.8000427845808L88.85790847222223,108.16233269792946L89.36330955295139,105.51315200421504L89.86731463107638,103.91211865003879L90.37188131944444,101.4943164526779L90.87821306857639,98.69344386534044L91.38423994357639,103.42104989057471L91.890379140625,100.94679126043532L92.39783411024305,99.07755583027651L92.90854641927083,105.17429282128603L93.4117812890625,104.90268828228984L93.91641216145834,105.53961867107476L94.42255135850695,100.27677647201332L94.92743896701388,103.05746160464355L95.4331128298611,101.43154697011036L95.93852995659722,105.83406599436276L96.44279177083332,104.5164813904409L96.946893125,104.78259533654318L97.45139562934028,102.93280877358117L97.95347518663193,108.40847183437982L98.45741608072916,107.53479699833296L98.95877356770833,106.80435257440668L99.46645318142362,102.75024729700404L99.96976828125,110.04725047984628L100.47597166232639,111.05237718406664L100.98339453993056,109.6796458132069L101.4894053689236,109.93792273165789L101.99613826822917,114.33978275276425L102.50023962239582,115.86839790076338L103.00979661892362,114.34427123862697L103.51550257378472,112.80140028793531L104.026648125,112.40343465009678L104.53161596354167,114.37351968288034L105.03700099826389,115.51245083967613L105.54435969184027,115.61797966416538L106.04879801215277,115.36056878401355L106.55524208333334,115.05145011643678L107.0638202734375,115.18930736641155L107.57101850694445,115.29794044808587L108.07898694878473,115.90185900558654L108.58446825954863,116.30967670299384L109.09336736979166,115.13241714647079L109.59993980902777,114.38939497477212L110.10741082465277,115.44329554402668L110.61480161024305,116.53103073217773L111.12015455295138,116.12222220924478L111.62825136284721,115.93499991591959L112.13366848958333,116.80280542033627L112.64312921006945,115.39640236332643L113.1517394921875,115.32620481114365L113.6590019097222,116.99583590345053L114.16376115017361,117.52762485851726L114.66994848524305,117.37302343195606L115.17721090277779,117.47437247999069L115.68655930121528,117.98947542687789L116.19555468749999,116.11839884865601L116.70190248263889,117.42991702525808L117.20749611545138,118.22702797394389L117.7136032204861,119.0850248186274L118.21853896701388,119.09383448651334L118.72865757378473,119.55994825457078L119.23559907118054,119.25805653310542L119.74298985677082,120.06478768573238L120.24975484809026,119.1591808389785L120.75995368489583,119.68868477291834L121.26935022135419,118.73834987131937L121.77633985677083,112.89087519277045L122.28464526475693,111.11030583160465L122.79417016927083,103.69314583009884L123.29929846788195,109.92294875701114L123.80445885850696,106.14250925969986L124.31132012586805,104.57434540465617L124.82110176649307,110.87317874039299L125.33210290364583,114.80902644080969L125.84040831163195,112.51455465843112L126.34770282118056,109.42812356247404L126.8569709895833,115.69522733267485L127.36664030815975,118.83825196967327L127.87451247395832,120.44192258683327L128.38416574652777,121.8198404671797L128.89069004774305,121.07031398388042L129.39942869791668,121.4564119214155L129.9080710720486,120.99374906426694L130.4155420876736,121.50893384102598L130.92360680555555,121.27721137374807L131.43184802951387,121.02460751475991L131.9378107204861,121.08692049945653L132.44585939236114,122.13172980923609L132.95345877604166,121.9993454010039L133.4606891015625,122.52259053731457L133.9660741362847,122.89436186836858L134.47084942274304,122.97766997746645L134.97888204861113,123.3383465238334L135.48195645833331,123.83482449856925L135.9850469140625,124.31990262353933L136.4848960763889,124.70247680158128L136.98675098958333,124.92663620200184L137.49284204861112,125.17400901408845L137.99139148437501,125.75449708834402L138.4907432204861,126.43119589806663L138.98930870225695,126.90613074176153L139.48814696614582,127.20914953473792L139.98517203125,127.37684534981004L140.48721949652779,128.08614116069168L140.98763026909722,129.10824859513733L141.48850637586804,129.71632000669177L141.98849995225692,130.04486777661842L142.48894281684028,129.10106059160987L142.9847644314236,128.05467881508963L143.48219064670138,130.33191734561305L143.9820398090278,131.2831916467884L144.48285173177084,131.90144164263438L144.9828453081597,131.23579991956095L145.48322398871528,130.69097274958813L145.9863625824653,128.8074033340994L146.48855446180553,131.7341636292845L146.98952684461807,133.28448893583078L147.4913817578125,133.03075894886013L147.99375014322916,132.63512360000863L148.4951076302083,133.05317165858102L148.99606396701387,134.4928231255604L149.4944048046875,136.17450123566746L149.99597088975693,137.28879375897858L150.49742465277777,138.05010593678364L150.99876609375,138.33390363978828L151.49863130208334,137.91038913008066L152.00050226128474,138.7169243197232L152.50620821614584,140.38713981115356L153.01107977864586,141.33745977602524L153.51336793402777,141.91794820143056L154.01565608940973,142.03619638311827L154.51564966579863,141.00712515052933L155.01589997829862,138.9058957898822L155.51448150607638,137.40764332160592L156.01614386718748,139.39223026481415L156.52489856336805,141.6255609372088L157.0317116927083,143.0233472040591L157.53510702256946,143.04158434935195L158.03887141059027,141.5687610217002L158.5404214496528,141.26291414984468L159.04254914496528,142.44457101238808L159.5453668185764,143.86099841085897L160.05039884114584,143.47488027744188L160.55231793836805,142.46849567134794L161.05680439670138,142.00510230088005L161.55946161024306,142.38564723664783L162.06237555989583,139.45570907156227L162.56504881944443,140.98215767916375L163.06887739149306,143.79262738770046L163.5744870703125,145.30710083651027L164.0800486111111,146.1604626528868L164.58402159722223,146.0222532768517L165.0874008810764,144.09578171210305L165.59058761284723,143.1235385539342L166.09529871527778,144.4741270614987L166.5956934418403,145.18876398841493L167.0994096918403,144.56206866526577L167.604939140625,144.30789044156057L168.1060238454861,145.02940698298443L168.60811944878472,144.41233369250673L169.1187675737847,143.4554420932506L169.62482654079864,144.77748502320298L170.13321217881943,146.76735412096727L170.64068319444445,147.8507501718347L171.15279150607637,148.37188791336288L171.66533305989583,147.7643528026442L172.17129575086807,146.15498239132364L172.6780928342014,146.45281616488657L173.1829323046875,147.15304462853805L173.68555742621527,146.90744698967777L174.18884043402778,146.61195259169483L174.69257273003473,147.2613057967568L175.19922539930556,147.90964589972563L175.70688896701387,147.80175273453753L176.21126310329862,147.16958956898586L176.7172899782986,147.46902138818106L177.22246641493055,148.6613391234207L177.72772308159722,149.67694850884246L178.2328834722222,149.86161338720143L178.73318192274303,148.4723283940559L179.2380213932292,147.26229134643108L179.7441284982639,147.11455174750506L180.24693012586806,147.92699841300498L180.74857644097222,148.43263833308131L181.2479121310764,148.58171963086076L181.75132350694446,148.9788318120858L182.25483115885416,149.41263520022756L182.75785743055556,149.69589489996747L183.25882981336804,149.96687773168273L183.76105378472224,150.2567982266358L184.26799528211805,150.10552419443994L184.77241755642362,147.79231387070854L185.2712879123264,146.9035115676644L185.76975711805557,148.00861279870207L186.26917303819442,149.2926994175025L186.76821990017362,150.003367930073L187.27400608506943,150.42514690881083L187.77595727430557,149.6948768364893L188.2753892404514,146.82564796850124L188.77385844618055,145.40478083915534L189.26964796875,144.59254795448197L189.76710627604166,143.6145761156254L190.26679497829863,144.88603733604188L190.7624561328125,146.44467044646564L191.2590479557292,145.83259925986343L191.75673090711805,146.01232521143564L192.25605055121525,147.65875012640362L192.7533804904514,149.14791661916695L193.2521545703125,149.6889583747696L193.74871430121527,149.97025162703463L194.2450975260417,149.84169925884407L194.74281256944442,148.6204334118128L195.23985368055554,148.88932132511297L195.7387240364583,149.94213319334762L196.23515539930554,150.4282084400259L196.73226069444442,150.95886382350142L197.2326875130208,150.5707585514912L197.73252062934026,149.32872603543572L198.23038008680555,149.61231936340317L198.72373061631944,150.26113670979808L199.22333908854165,150.8299766781819L199.7189039670139,151.04705166357112L200.21764595486113,151.29716084840308L200.71563378038195,151.1560932003006L201.22018442274305,149.04686622952687L201.72293791232636,149.32047924559475L202.22644556423614,149.96155531939561L202.72785118923613,150.0712030554018L203.22999493055556,149.64019931381156L203.73079080729167,149.1142349383744L204.2336245269097,148.27213349867935L204.73511038194445,148.22852997459415L205.23674065104169,148.97807375715638L205.7341187282986,150.2562759152639L206.2298922048611,151.08172985821494L206.7325173263889,151.21573476856665L207.23045701388887,150.066585808192L207.72696860677084,149.93270148427942L208.22187559895832,150.23637612814701L208.7191574001736,151.01355714890357L209.21786729600697,151.6832934448699L209.7177485503472,152.2016980562357L210.21547963975695,152.55282940668351L210.71473509982638,152.46445869645964L211.21325244357638,152.2212196527411L211.70995658854167,152.12807116300797L212.20911577256942,151.00581040257774L212.7059964236111,146.4714744465027L213.20058249565972,135.6828206318502L213.6981210329861,127.8979190535079L214.1930601171875,135.26804901918155L214.68851267361111,137.94032827472915L215.18725466145833,137.9076535383238L215.68501784288193,142.11840500827873L216.18130479166666,142.63490843770649L216.677415234375,141.3578380934263L217.17716812065973,135.7817310797293L217.67339088541667,140.42812069180323L218.1703678125,143.4017181232932L218.67002442274307,144.29457620275198L219.16815666232637,146.90632121578162L219.66696283420137,146.8281488212862L220.1652394878472,145.47117908515045L220.66045135416667,141.16924057792133L221.15834290364583,140.93121694400216L221.65775882378472,142.7737788864432L222.1574635720486,145.6080314239934L222.6529803125,144.2923136155451L223.15238018663194,145.5344927200066L223.65238980902777,145.2100200618339L224.15026531249998,143.6008600214143L224.6506921310764,142.98979184979316L225.1532209765625,144.96901710562378L225.65031022569445,144.92674565155787L226.1481215451389,145.57869607511847L226.64561194444445,145.28552418651395L227.14342326388888,146.59229959389893L227.63924487847223,146.71037692074773L228.1371845659722,147.60427996383984L228.6336319748264,146.7163099102192L229.13190862847222,147.50305449954746L229.62635028645835,147.2430422512218L230.12384068576387,147.81101286853502L230.62139526909723,147.47222752041705L231.11551600694443,148.33504983266445L231.61215596788196,147.93788843917997L232.11261487847221,148.48784724375497L232.61164569444443,147.87709102651016L233.10682546875,148.36751703274567L233.60481329427083,148.07729165783914L234.09808359375,148.70596528985934L234.5923326996528,148.42985883318684L235.09322485243055,149.15340221422892L235.5916619661458,148.63859154521217L236.0914629904514,149.04630803508832L236.5911837847222,148.46727360075676L237.0925252256944,148.86901141794104L237.5923743880208,148.7038900724545L238.09276911458335,149.39127874562112L238.59229735677079,149.12704347087325L239.09213047309024,149.79180333840876L239.59223637152775,149.17632198946492L240.09359385850695,149.4079027975608L240.59718174045136,148.7980694169805L241.10155587673614,149.1193402501944L241.60288127170136,149.18582920708278L242.10839467447914,150.0254652735274L242.61365134114584,149.8015579650808L243.11521742621528,150.45279335995568L243.61545169270832,149.66278531086476L244.11871865451386,149.61872848708649L244.6245850694444,148.80311297599008L245.13208817708335,148.9963471684269L245.63256313368058,149.51354825695825L246.13398480468751,150.68714711785597L246.634090703125,150.6458630648471L247.1386734375,151.42238416237933L247.63829795572912,150.60878432331464L248.13891732638888,150.0567563677111L248.6413017578125,148.1540968249805L249.14358991319446,148.62022544168835L249.64550901041665,149.4837948522373L250.15100636718748,150.9046250876628L250.65339079861113,151.07324434937095L251.15798957899304,151.84557792994016L251.6653001345486,152.0102871647634L252.1714714236111,152.02701440281618L252.6768885503472,149.59534893608262L253.17981854600694,149.1513233028422L253.68412849826387,148.59053548510292L254.18858286458334,148.13657774807265L254.68973175347224,148.36817869433514L255.1950044661458,149.73677369329582L255.69886513020833,150.93311536216686L256.19787990017363,152.04346089782686L256.695691219618,151.92056013676944L257.19501086371525,151.6485537238921L257.69665717881946,148.83139850147597L258.200790625,148.40648946353613L258.7017469618056,148.94878267361017L259.20432394531247,149.87125121541794L259.70914736979165,150.9495947221198L260.2112590190972,151.21720271225445L260.7175586762153,151.94733591148656L261.22218954861114,151.19803344132146L261.7275264453125,150.0790760309794L262.234853046875,147.01107640929808L262.73930741319447,148.1109504167306L263.24305575520833,148.91532084767425L263.74802359375,150.51561376308047L264.2527828342014,150.91927049987302L264.75913062934023,151.74412022610178L265.26303943142364,151.8023893096825L265.7693230425347,151.504594621983L266.2750610894097,149.33884205456187L266.7839441536458,148.8391639655964L267.2914312152778,148.98885557489413L267.7921147699652,149.6663654778609L268.2984786111111,150.51333718781922L268.8085330338542,150.85922505032175L269.31186417968746,151.8418706129262L269.8160939019097,151.4468634909552L270.32218496093753,151.10747205015986L270.8299448046875,149.06690446931304L271.3370307161458,149.12029257375903L271.84435731770833,149.44090745941148L272.3510260329861,149.60181481815584L272.85702081597225,149.55306564158522L273.3643955555556,150.6153780666172L273.86875364583335,151.3210942169336L274.37587164930557,151.99174102824773L274.88146528211803,151.16558775990313L275.38715519097224,150.16493929280307L275.8924439496528,148.37007651996691L276.39638484375,149.29697510484107L276.9027647309028,150.07118536998777L277.40675376302084,151.3462756369707L277.9110316232639,151.7244800854244L278.4139295269097,152.4343255628259L278.9169557986111,152.84013341600365L279.42210014322916,153.08932508032322L279.9286083984375,151.9758979618597" style="fill: none;" fill="none"></path></g></g></g></g><g opacity="0.2"><g><g><g><path stroke="rgb(238, 51, 119)" stroke-width="2px" d="M35.40198420138889,-12.10531107584635L35.906454613715276,19.26931813557942L36.41049178385417,30.805554453531908L36.91956740017361,38.56581687927246L37.424294548611115,41.98379898071288L37.93001654947917,39.81110585530599L38.43265771701389,36.97287419637045L38.93285989149306,37.01697235107422L39.429066610243055,52.0263397216797L39.93257426215277,41.140524927775076L40.43134834201389,35.38465792338053L40.9319998046875,43.20111211140951L41.43393494791666,51.77333424886067L41.93988159288194,47.739771016438795L42.44027631944444,-88.47606786092123L42.946399470486114,32.255091857910166L43.44607212673612,43.455107879638675L43.94970814670138,18.237940470377612L44.451450737847225,53.76543350219727L44.95553604600694,46.203117624918626L45.45811302951389,49.45845870971679L45.96073815104167,50.620780436197926L46.4620475,37.19663594563802L46.96481703559028,43.495379892985035L47.46810004340278,37.93110504150391L47.97151141927084,49.56583073933919L48.475676957465275,19.6320063273112L48.97820580295139,41.54560826619466L49.48055814236112,38.124130121866855L49.98664920138889,46.435086822509774L50.48852016059028,40.272028350830084L50.996344188368056,45.422794850667316L51.50075041666667,42.469598897298184L52.009922309027786,19.611795298258457L52.51160071614583,31.954807281494148L53.01870267361111,30.276256561279304L53.520092252604165,-13.333547465006495L54.01962049479167,39.50053571065266L54.5213630859375,53.77670936584472L55.02645929253472,48.897996520996095L55.526308454861116,26.864613850911464L56.025018350694445,16.092210388183602L56.524257764756946,23.53512064615885L57.02409088107638,7.063432057698566L57.52607416232639,37.609994252522775L58.02858696180556,39.10823618570963L58.529366792534724,45.28374837239584L59.03263375434029,56.34877662658691L59.53360613715278,64.61288935343426L60.034835256076384,55.26435063680013L60.533673519965284,71.6214200337728L61.03636282552083,-16.152408345540362L61.53597129774305,19.16869812011719L62.03684740451389,67.58392562866212L62.53738654513889,98.94022687276204L63.04180881944444,93.08287709554035L63.54207517795139,111.77417030334473L64.04375358506944,99.95417308807372L64.55059880642361,77.00089975992839L65.0517156032986,90.14488817850749L65.5511315234375,107.61927337646485L66.05388501302083,112.38528385162353L66.556108984375,-2.9768430074056007L67.05538049045138,90.68346633911132L67.55712308159723,61.49370638529461L68.05832010850695,118.9080483754476L68.56222891059028,114.18187103271484L69.06868902777778,9.713027445475266L69.5740419704861,48.856344095865886L70.07549573350694,39.422827529907224L70.58092890625,75.59041900634766L71.08602511284722,73.99849662780763L71.59213221788195,103.65996729532878L72.09129140190971,117.1878189722697L72.59454231770835,121.21887270609537L73.09813019965279,121.88358224232991L73.60152552951389,110.4876865386963L74.10724753038194,109.3405080795288L74.61887446180556,115.41235059102378L75.12482110677082,91.58402748107909L75.63052706163194,104.05352719624837L76.13251034288193,116.55383860270183L76.64190687934028,106.27193145751954L77.14767701822916,80.96401697794596L77.65808445312501,115.6770295461019L78.16053306857637,66.08178253173828L78.6676189800347,116.5786672592163L79.17167219618057,84.1808790842692L79.68532092447917,112.91073684692383L80.19508651909722,96.66237112681071L80.7070985546875,104.54907251993815L81.21904640625,107.376575978597L81.72876386284723,116.19210319519043L82.23984523003472,114.92361729939778L82.75312490017362,118.69686787923179L83.26833009114583,87.76338526407878L83.77758221354168,76.1064079284668L84.29219370225694,87.91044413248697L84.80203952690971,116.69431800842285L85.31660287760417,108.56082674662272L85.81991797743056,96.72336057027181L86.32422792968751,102.51156972249349L86.82985365451388,108.27959410349528L87.33440429687501,119.40962549845378L87.84237273871528,115.92340679168701L88.35061396267362,105.62154744466146L88.85790847222223,105.70576756795246L89.36330955295139,101.5393809636434L89.86731463107638,101.51056861877443L90.37188131944444,97.86761315663657L90.87821306857639,94.49213498433431L91.38423994357639,110.51245892842611L91.890379140625,97.23540331522622L92.39783411024305,96.27370268503824L92.90854641927083,114.31939830780028L93.4117812890625,104.49528147379557L93.91641216145834,106.49501425425213L94.42255135850695,92.38251317342122L94.92743896701388,107.22848930358887L95.4331128298611,98.99267501831054L95.93852995659722,112.43784453074137L96.44279177083332,102.54010448455811L96.946893125,105.18176625569662L97.45139562934028,100.15812892913819L97.95347518663193,116.62196642557778L98.45741608072916,106.22428474426269L98.95877356770833,105.70868593851723L99.46645318142362,96.66908938090005L99.96976828125,120.99275525410971L100.47597166232639,112.56006724039713L100.98339453993056,107.62054875691733L101.4894053689236,110.32533810933431L101.99613826822917,120.94257278442383L102.50023962239582,118.16132062276205L103.00979661892362,112.05808124542237L103.51550257378472,110.4870938618978L104.026648125,111.80648619333904L104.53161596354167,117.32864723205566L105.03700099826389,117.22084757486978L105.54435969184027,115.77627290089924L106.04879801215277,114.9744524637858L106.55524208333334,114.58777211507163L107.0638202734375,115.39609324137369L107.57101850694445,115.46089007059733L108.07898694878473,116.80773684183757L108.58446825954863,116.92140324910481L109.09336736979166,113.3665278116862L109.59993980902777,113.27486171722411L110.10741082465277,117.02414639790852L110.61480161024305,118.16263351440429L111.12015455295138,115.50900942484537L111.62825136284721,115.6541664759318L112.13366848958333,118.10451367696126L112.64312921006945,113.28679777781167L113.1517394921875,115.22090848286946L113.6590019097222,119.5002825419108L114.16376115017361,118.32530829111734L114.66994848524305,117.14112129211426L115.17721090277779,117.62639605204265L115.68655930121528,118.76212984720866L116.19555468749999,113.31178398132325L116.70190248263889,119.39719429016114L117.20749611545138,119.42269439697266L117.7136032204861,120.37202008565266L118.21853896701388,119.10704898834229L118.72865757378473,120.25911890665691L119.23559907118054,118.80521895090737L119.74298985677082,121.27488441467285L120.24975484809026,117.80077056884765L120.75995368489583,120.48294067382812L121.26935022135419,117.3128475189209L121.77633985677083,104.1196631749471L122.28464526475693,108.43945178985595L122.79417016927083,92.56740582784016L123.29929846788195,119.26765314737956L123.80445885850696,100.4718500137329L124.31132012586805,102.22209962209065L124.82110176649307,120.32142874399821L125.33210290364583,120.71279799143473L125.84040831163195,109.07284698486329L126.34770282118056,104.79847691853841L126.8569709895833,125.09588298797608L127.36664030815975,123.55278892517089L127.87451247395832,122.84742851257325L128.38416574652777,123.88671728769938L128.89069004774305,119.94602425893149L129.39942869791668,122.03555882771809L129.9080710720486,120.2997547785441L130.4155420876736,122.28171100616454L130.92360680555555,120.92962767283122L131.43184802951387,120.64570172627768L131.9378107204861,121.18038997650147L132.44585939236114,123.69894377390544L132.95345877604166,121.80076878865562L133.4606891015625,123.3074582417806L133.9660741362847,123.45201886494955L134.47084942274304,123.10263214111328L134.97888204861113,123.87936134338379L135.48195645833331,124.579541460673L135.9850469140625,125.04751981099447L136.4848960763889,125.2763380686442L136.98675098958333,125.26287530263266L137.49284204861112,125.54506823221841L137.99139148437501,126.62522919972737L138.4907432204861,127.44624411265055L138.98930870225695,127.61853300730388L139.48814696614582,127.66367772420247L139.98517203125,127.6283890724182L140.48721949652779,129.15008487701417L140.98763026909722,130.64140974680583L141.48850637586804,130.62842712402343L141.98849995225692,130.53768943150837L142.48894281684028,127.68534981409708L142.9847644314236,126.48510615030924L143.48219064670138,133.7477751413981L143.9820398090278,132.71010309855143L144.48285173177084,132.8288166364034L144.9828453081597,130.23733733495078L145.48322398871528,129.8737319946289L145.9863625824653,125.98204921086631L146.48855446180553,136.12430407206216L146.98952684461807,135.60997689565022L147.4913817578125,132.65016396840412L147.99375014322916,132.04167057673135L148.4951076302083,133.6802437464396L148.99606396701387,136.65230032602946L149.4944048046875,138.69701840082806L149.99597088975693,138.96023254394532L150.49742465277777,139.19207420349122L150.99876609375,138.75960019429525L151.49863130208334,137.2751173655192L152.00050226128474,139.92672710418702L152.50620821614584,142.89246304829913L153.01107977864586,142.76293972333272L153.51336793402777,142.78868083953859L154.01565608940973,142.21356865564982L154.51564966579863,139.46351830164593L155.01589997829862,135.75405174891154L155.51448150607638,135.16026461919148L156.01614386718748,142.36911067962646L156.52489856336805,144.97555694580078L157.0317116927083,145.1200266043345L157.53510702256946,143.06894006729127L158.03887141059027,139.35952603022258L158.5404214496528,140.80414384206136L159.04254914496528,144.2170563062032L159.5453668185764,145.98563950856527L160.05039884114584,142.89570307731628L160.55231793836805,140.95891876220702L161.05680439670138,141.31001224517823L161.55946161024306,142.9564646402995L162.06237555989583,135.0608018239339L162.56504881944443,143.271830590566L163.06887739149306,148.00833195050558L163.5744870703125,147.57881100972494L164.0800486111111,147.4405053774516L164.58402159722223,145.81493921279906L165.0874008810764,141.20607436498005L165.59058761284723,141.66517381668092L166.09529871527778,146.50000982284547L166.5956934418403,146.26071937878928L167.0994096918403,143.62202568054198L167.604939140625,143.9266231060028L168.1060238454861,146.11168179512023L168.60811944878472,143.48672375679016L169.1187675737847,142.02010469436647L169.62482654079864,146.76054941813152L170.13321217881943,149.75215776761374L170.64068319444445,149.47584424813587L171.15279150607637,149.1535945256551L171.66533305989583,146.85305013656617L172.17129575086807,143.74092677434285L172.6780928342014,146.89956682523092L173.1829323046875,148.2033873240153L173.68555742621527,146.53905053138732L174.18884043402778,146.16871099472047L174.69257273003473,148.23533560434979L175.19922539930556,148.8821560541789L175.70688896701387,147.63991298675538L176.21126310329862,146.22134482065837L176.7172899782986,147.91816911697387L177.22246641493055,150.4498157262802L177.72772308159722,151.2003625869751L178.2328834722222,150.1386107047399L178.73318192274303,146.38840090433757L179.2380213932292,145.44723577499389L179.7441284982639,146.892942349116L180.24693012586806,149.1456684112549L180.74857644097222,149.1910982131958L181.2479121310764,148.8053415775299L181.75132350694446,149.57450008392334L182.25483115885416,150.06334028244018L182.75785743055556,150.12078444957734L183.25882981336804,150.3733519792557L183.76105378472224,150.69167896906535L184.26799528211805,149.87861314614614L184.77241755642362,144.3224983851115L185.2712879123264,145.57030811309815L185.76975711805557,149.6662646452586L186.26917303819442,151.2188293457031L186.76821990017362,151.06937069892882L187.27400608506943,151.05781537691752L187.77595727430557,148.599471728007L188.2753892404514,142.52180466651916L188.77385844618055,143.27348014513652L189.26964796875,143.3741986274719L189.76710627604166,142.1476183573405L190.26679497829863,146.79322916666666L190.7624561328125,148.78262011210123L191.2590479557292,144.91449247996013L191.75673090711805,146.28191413879395L192.25605055121525,150.1283874988556L192.7533804904514,151.38166635831197L193.2521545703125,150.50052100817362L193.74871430121527,150.39219150543212L194.2450975260417,149.64887070655823L194.74281256944442,146.78853464126587L195.23985368055554,149.29265319506328L195.7387240364583,151.52135099569958L196.23515539930554,151.15732131004333L196.73226069444442,151.7548468987147L197.2326875130208,149.98860064347585L197.73252062934026,147.46567726135254L198.23038008680555,150.0377093553543L198.72373061631944,151.23436272939045L199.22333908854165,151.68323663075765L199.7189039670139,151.37266414165498L200.21764595486113,151.67232462565104L200.71563378038195,150.94449172814686L201.22018442274305,145.88302577336628L201.72293791232636,149.73089876969655L202.22644556423614,150.92316943009695L202.72785118923613,150.2356746594111L203.22999493055556,148.9936937014262L203.73079080729167,148.32528837521872L204.2336245269097,147.00898133913677L204.73511038194445,148.16312468846638L205.23674065104169,150.10238943099975L205.7341187282986,152.17357915242513L206.2298922048611,152.3199107726415L206.7325173263889,151.41674213409425L207.23045701388887,148.34286236763L207.72696860677084,149.73187499841055L208.22187559895832,150.69188809394836L208.7191574001736,152.17932868003845L209.21786729600697,152.68789788881938L209.7177485503472,152.9793049732844L210.21547963975695,153.07952643235524L210.71473509982638,152.33190263112385L211.21325244357638,151.8563610871633L211.70995658854167,151.9883484284083L212.20911577256942,149.32241926193237L212.7059964236111,139.66997051239014L213.20058249565972,119.49983990987141L213.6981210329861,116.22056668599448L214.1930601171875,146.32324396769206L214.68851267361111,141.94874715805054L215.18725466145833,137.85864143371583L215.68501784288193,148.43453221321107L216.18130479166666,143.40966358184815L216.677415234375,139.44223257700602L217.17716812065973,127.41757055918374L217.67339088541667,147.39770510991414L218.1703678125,147.86211427052814L218.67002442274307,145.6338633219401L219.16815666232637,150.82393873532612L219.66696283420137,146.71089022954305L220.1652394878472,143.43572448094685L220.66045135416667,134.71633281707764L221.15834290364583,140.57418149312338L221.65775882378472,145.53762180010477L222.1574635720486,149.8594102303187L222.6529803125,142.31873690287273L223.15238018663194,147.3977613766988L223.65238980902777,144.72331107457478L224.15026531249998,141.1871199607849L224.6506921310764,142.07318959236144L225.1532209765625,147.93785498936973L225.65031022569445,144.86333847045898L226.1481215451389,146.55662171045938L226.64561194444445,144.8457663536072L227.14342326388888,148.5524627049764L227.63924487847223,146.8874929110209L228.1371845659722,148.94513452847798L228.6336319748264,145.3843548297882L229.13190862847222,148.68317138353984L229.62635028645835,146.85302387873332L230.12384068576387,148.66296879450482L230.62139526909723,146.96404949824014L231.11551600694443,149.62928330103557L231.61215596788196,147.34214634895324L232.11261487847221,149.31278545061747L232.61164569444443,146.9609567006429L233.10682546875,149.103156042099L233.60481329427083,147.64195359547932L234.09808359375,149.6489757378896L234.5923326996528,148.0156991481781L235.09322485243055,150.23871728579203L235.5916619661458,147.866375541687L236.0914629904514,149.65788276990256L236.5911837847222,147.59872194925944L237.0925252256944,149.47161814371745L237.5923743880208,148.45620805422465L238.09276911458335,150.4223617553711L238.59229735677079,148.73069055875143L239.09213047309024,150.78894313971202L239.59223637152775,148.2530999660492L240.09359385850695,149.75527400970458L240.59718174045136,147.88331934611003L241.10155587673614,149.60124650001526L241.60288127170136,149.28556264241536L242.10839467447914,151.28491937319438L242.61365134114584,149.46569700241088L243.11521742621528,151.42964645226795L243.61545169270832,148.4777732372284L244.11871865451386,149.55264325141906L244.6245850694444,147.5796897093455L245.13208817708335,149.2861984570821L245.63256313368058,150.28934988975524L246.13398480468751,152.44754540920258L246.634090703125,150.58393698533376L247.1386734375,152.58716580867767L247.63829795572912,149.3883845647176L248.13891732638888,149.22871443430583L248.6413017578125,145.3001075108846L249.14358991319446,149.31941836675009L249.64550901041665,150.7791489680608L250.15100636718748,153.03587044080098L250.65339079861113,151.3261732419332L251.15798957899304,153.00407830079396L251.6653001345486,152.25735101699829L252.1714714236111,152.0521052598953L252.6768885503472,145.94785073598226L253.17981854600694,148.48528485298158L253.68412849826387,147.74935375849407L254.18858286458334,147.45564114252727L254.68973175347224,148.71558011372883L255.1950044661458,151.78966619173684L255.69886513020833,152.72762786547344L256.19787990017363,153.70897920131682L256.695691219618,151.7362089951833L257.19501086371525,151.24054410457612L257.69665717881946,144.60566566785178L258.200790625,147.76912590662639L258.7017469618056,149.76222248872122L259.20432394531247,151.2549540281296L259.70914736979165,152.56710998217267L260.2112590190972,151.61861469745637L260.7175586762153,153.0425357103348L261.22218954861114,150.07407973607383L261.7275264453125,148.40063991546631L262.234853046875,142.40907697677613L262.73930741319447,149.76076142787934L263.24305575520833,150.12187649408975L263.74802359375,152.9160531361898L264.2527828342014,151.52475560506184L264.75913062934023,152.98139481544496L265.26303943142364,151.8897929350535L265.7693230425347,151.05790259043374L266.2750610894097,146.09021320343018L266.7839441536458,148.08964683214822L267.2914312152778,149.21339298884072L267.7921147699652,150.682630332311L268.2984786111111,151.78379475275676L268.8085330338542,151.3780568440755L269.31186417968746,153.3158389568329L269.8160939019097,150.85435280799865L270.32218496093753,150.59838488896688L270.8299448046875,146.0060530980428L271.3370307161458,149.20037473042805L271.84435731770833,149.92182978789012L272.3510260329861,149.84317585627238L272.85702081597225,149.47994187672933L273.3643955555556,152.20884670416513L273.86875364583335,152.37966844240825L274.37587164930557,152.9977112452189L274.88146528211803,149.92635785738628L275.38715519097224,148.66396659215292L275.8924439496528,145.67778236071268L276.39638484375,150.6873229821523L276.9027647309028,151.23250076770782L277.40675376302084,153.25891103744507L277.9110316232639,152.29178675810496L278.4139295269097,153.4990937789281L278.9169557986111,153.44884519577028L279.42210014322916,153.4631125768026L279.9286083984375,150.30575728416443" style="fill: none;" fill="none"></path></g></g></g></g></g></g><g transform="translate(41, 177)" clip-path="url(#clip_1)"><clipPath id="clip_1"><rect width="288" height="23"></rect></clipPath><g><g><line x1="0" y1="0" x2="0" y2="5" style="visibility: inherit;" fill="rgb(0, 0, 0)" stroke="rgb(204, 204, 204)" stroke-width="1px"></line><line x1="28.8828125" y1="0" x2="28.8828125" y2="5" style="visibility: inherit;" fill="rgb(0, 0, 0)" stroke="rgb(204, 204, 204)" stroke-width="1px"></line><line x1="57.765625" y1="0" x2="57.765625" y2="5" style="visibility: inherit;" fill="rgb(0, 0, 0)" stroke="rgb(204, 204, 204)" stroke-width="1px"></line><line x1="86.6484375" y1="0" x2="86.6484375" y2="5" style="visibility: inherit;" fill="rgb(0, 0, 0)" stroke="rgb(204, 204, 204)" stroke-width="1px"></line><line x1="115.53125" y1="0" x2="115.53125" y2="5" style="visibility: inherit;" fill="rgb(0, 0, 0)" stroke="rgb(204, 204, 204)" stroke-width="1px"></line><line x1="144.4140625" y1="0" x2="144.4140625" y2="5" style="visibility: inherit;" fill="rgb(0, 0, 0)" stroke="rgb(204, 204, 204)" stroke-width="1px"></line><line x1="173.296875" y1="0" x2="173.296875" y2="5" style="visibility: inherit;" fill="rgb(0, 0, 0)" stroke="rgb(204, 204, 204)" stroke-width="1px"></line><line x1="202.1796875" y1="0" x2="202.1796875" y2="5" style="visibility: inherit;" fill="rgb(0, 0, 0)" stroke="rgb(204, 204, 204)" stroke-width="1px"></line><line x1="231.0625" y1="0" x2="231.0625" y2="5" style="visibility: inherit;" fill="rgb(0, 0, 0)" stroke="rgb(204, 204, 204)" stroke-width="1px"></line><line x1="259.9453125" y1="0" x2="259.9453125" y2="5" style="visibility: inherit;" fill="rgb(0, 0, 0)" stroke="rgb(204, 204, 204)" stroke-width="1px"></line><line x1="288.828125" y1="0" x2="288.828125" y2="5" style="visibility: inherit;" fill="rgb(0, 0, 0)" stroke="rgb(204, 204, 204)" stroke-width="1px"></line></g><g transform="translate(0, 8)"><text x="0" y="0" dx="0em" dy="0.95em" style="text-anchor: middle; visibility: hidden; font-family: Roboto, sans-serif; font-size: 12px; font-weight: 200;" fill="rgb(33, 33, 33)" stroke="none" stroke-width="1px">-0.5</text><text x="28.8828125" y="0" dx="0em" dy="0.95em" style="text-anchor: middle; visibility: inherit; font-family: Roboto, sans-serif; font-size: 12px; font-weight: 200;" fill="rgb(33, 33, 33)" stroke="none" stroke-width="1px">0</text><text x="57.765625" y="0" dx="0em" dy="0.95em" style="text-anchor: middle; visibility: inherit; font-family: Roboto, sans-serif; font-size: 12px; font-weight: 200;" fill="rgb(33, 33, 33)" stroke="none" stroke-width="1px">0.5</text><text x="86.6484375" y="0" dx="0em" dy="0.95em" style="text-anchor: middle; visibility: inherit; font-family: Roboto, sans-serif; font-size: 12px; font-weight: 200;" fill="rgb(33, 33, 33)" stroke="none" stroke-width="1px">1</text><text x="115.53125" y="0" dx="0em" dy="0.95em" style="text-anchor: middle; visibility: inherit; font-family: Roboto, sans-serif; font-size: 12px; font-weight: 200;" fill="rgb(33, 33, 33)" stroke="none" stroke-width="1px">1.5</text><text x="144.4140625" y="0" dx="0em" dy="0.95em" style="text-anchor: middle; visibility: inherit; font-family: Roboto, sans-serif; font-size: 12px; font-weight: 200;" fill="rgb(33, 33, 33)" stroke="none" stroke-width="1px">2</text><text x="173.296875" y="0" dx="0em" dy="0.95em" style="text-anchor: middle; visibility: inherit; font-family: Roboto, sans-serif; font-size: 12px; font-weight: 200;" fill="rgb(33, 33, 33)" stroke="none" stroke-width="1px">2.5</text><text x="202.1796875" y="0" dx="0em" dy="0.95em" style="text-anchor: middle; visibility: inherit; font-family: Roboto, sans-serif; font-size: 12px; font-weight: 200;" fill="rgb(33, 33, 33)" stroke="none" stroke-width="1px">3</text><text x="231.0625" y="0" dx="0em" dy="0.95em" style="text-anchor: middle; visibility: inherit; font-family: Roboto, sans-serif; font-size: 12px; font-weight: 200;" fill="rgb(33, 33, 33)" stroke="none" stroke-width="1px">3.5</text><text x="259.9453125" y="0" dx="0em" dy="0.95em" style="text-anchor: middle; visibility: inherit; font-family: Roboto, sans-serif; font-size: 12px; font-weight: 200;" fill="rgb(33, 33, 33)" stroke="none" stroke-width="1px">4</text><text x="288.828125" y="0" dx="0em" dy="0.95em" style="text-anchor: middle; visibility: hidden; font-family: Roboto, sans-serif; font-size: 12px; font-weight: 200;" fill="rgb(33, 33, 33)" stroke="none" stroke-width="1px">4.5</text></g><line x1="0" y1="0" x2="288.828125" y2="0" fill="rgb(0, 0, 0)" stroke="rgb(204, 204, 204)" stroke-width="1px"></line></g></g></g></g></svg>