<svg viewBox="0 0 330 200" xmlns="http://www.w3.org/2000/svg"><g><g><g><g><g><line x1="30.78125" y1="177" x2="25.78125" y2="177" style="visibility: inherit;" fill="rgb(0, 0, 0)" stroke="rgb(204, 204, 204)" stroke-width="1px"></line><line x1="30.78125" y1="163.3846153846154" x2="25.78125" y2="163.3846153846154" style="visibility: inherit;" fill="rgb(0, 0, 0)" stroke="rgb(204, 204, 204)" stroke-width="1px"></line><line x1="30.78125" y1="149.76923076923077" x2="25.78125" y2="149.76923076923077" style="visibility: inherit;" fill="rgb(0, 0, 0)" stroke="rgb(204, 204, 204)" stroke-width="1px"></line><line x1="30.78125" y1="136.15384615384613" x2="25.78125" y2="136.15384615384613" style="visibility: inherit;" fill="rgb(0, 0, 0)" stroke="rgb(204, 204, 204)" stroke-width="1px"></line><line x1="30.78125" y1="122.53846153846153" x2="25.78125" y2="122.53846153846153" style="visibility: inherit;" fill="rgb(0, 0, 0)" stroke="rgb(204, 204, 204)" stroke-width="1px"></line><line x1="30.78125" y1="108.92307692307693" x2="25.78125" y2="108.92307692307693" style="visibility: inherit;" fill="rgb(0, 0, 0)" stroke="rgb(204, 204, 204)" stroke-width="1px"></line><line x1="30.78125" y1="95.3076923076923" x2="25.78125" y2="95.3076923076923" style="visibility: inherit;" fill="rgb(0, 0, 0)" stroke="rgb(204, 204, 204)" stroke-width="1px"></line><line x1="30.78125" y1="81.6923076923077" x2="25.78125" y2="81.6923076923077" style="visibility: inherit;" fill="rgb(0, 0, 0)" stroke="rgb(204, 204, 204)" stroke-width="1px"></line><line x1="30.78125" y1="68.07692307692307" x2="25.78125" y2="68.07692307692307" style="visibility: inherit;" fill="rgb(0, 0, 0)" stroke="rgb(204, 204, 204)" stroke-width="1px"></line><line x1="30.78125" y1="54.46153846153847" x2="25.78125" y2="54.46153846153847" style="visibility: inherit;" fill="rgb(0, 0, 0)" stroke="rgb(204, 204, 204)" stroke-width="1px"></line><line x1="30.78125" y1="40.84615384615384" x2="25.78125" y2="40.84615384615384" style="visibility: inherit;" fill="rgb(0, 0, 0)" stroke="rgb(204, 204, 204)" stroke-width="1px"></line><line x1="30.78125" y1="27.230769230769234" x2="25.78125" y2="27.230769230769234" style="visibility: inherit;" fill="rgb(0, 0, 0)" stroke="rgb(204, 204, 204)" stroke-width="1px"></line><line x1="30.78125" y1="13.615384615384606" x2="25.78125" y2="13.615384615384606" style="visibility: inherit;" fill="rgb(0, 0, 0)" stroke="rgb(204, 204, 204)" stroke-width="1px"></line><line x1="30.78125" y1="0" x2="25.78125" y2="0" style="visibility: inherit;" fill="rgb(0, 0, 0)" stroke="rgb(204, 204, 204)" stroke-width="1px"></line></g><g transform="translate(20.78125, 0)"><text x="0" y="177" dx="0em" dy="0.3em" style="text-anchor: end; visibility: hidden; font-family: Roboto, sans-serif; font-size: 12px; font-weight: 200;" fill="rgb(33, 33, 33)" stroke="none" stroke-width="1px">-5</text><text x="0" y="163.3846153846154" dx="0em" dy="0.3em" style="text-anchor: end; visibility: inherit; font-family: Roboto, sans-serif; font-size: 12px; font-weight: 200;" fill="rgb(33, 33, 33)" stroke="none" stroke-width="1px">0</text><text x="0" y="149.76923076923077" dx="0em" dy="0.3em" style="text-anchor: end; visibility: hidden; font-family: Roboto, sans-serif; font-size: 12px; font-weight: 200;" fill="rgb(33, 33, 33)" stroke="none" stroke-width="1px">5</text><text x="0" y="136.15384615384613" dx="0em" dy="0.3em" style="text-anchor: end; visibility: inherit; font-family: Roboto, sans-serif; font-size: 12px; font-weight: 200;" fill="rgb(33, 33, 33)" stroke="none" stroke-width="1px">10</text><text x="0" y="122.53846153846153" dx="0em" dy="0.3em" style="text-anchor: end; visibility: hidden; font-family: Roboto, sans-serif; font-size: 12px; font-weight: 200;" fill="rgb(33, 33, 33)" stroke="none" stroke-width="1px">15</text><text x="0" y="108.92307692307693" dx="0em" dy="0.3em" style="text-anchor: end; visibility: inherit; font-family: Roboto, sans-serif; font-size: 12px; font-weight: 200;" fill="rgb(33, 33, 33)" stroke="none" stroke-width="1px">20</text><text x="0" y="95.3076923076923" dx="0em" dy="0.3em" style="text-anchor: end; visibility: hidden; font-family: Roboto, sans-serif; font-size: 12px; font-weight: 200;" fill="rgb(33, 33, 33)" stroke="none" stroke-width="1px">25</text><text x="0" y="81.6923076923077" dx="0em" dy="0.3em" style="text-anchor: end; visibility: inherit; font-family: Roboto, sans-serif; font-size: 12px; font-weight: 200;" fill="rgb(33, 33, 33)" stroke="none" stroke-width="1px">30</text><text x="0" y="68.07692307692307" dx="0em" dy="0.3em" style="text-anchor: end; visibility: hidden; font-family: Roboto, sans-serif; font-size: 12px; font-weight: 200;" fill="rgb(33, 33, 33)" stroke="none" stroke-width="1px">35</text><text x="0" y="54.46153846153847" dx="0em" dy="0.3em" style="text-anchor: end; visibility: inherit; font-family: Roboto, sans-serif; font-size: 12px; font-weight: 200;" fill="rgb(33, 33, 33)" stroke="none" stroke-width="1px">40</text><text x="0" y="40.84615384615384" dx="0em" dy="0.3em" style="text-anchor: end; visibility: hidden; font-family: Roboto, sans-serif; font-size: 12px; font-weight: 200;" fill="rgb(33, 33, 33)" stroke="none" stroke-width="1px">45</text><text x="0" y="27.230769230769234" dx="0em" dy="0.3em" style="text-anchor: end; visibility: inherit; font-family: Roboto, sans-serif; font-size: 12px; font-weight: 200;" fill="rgb(33, 33, 33)" stroke="none" stroke-width="1px">50</text><text x="0" y="13.615384615384606" dx="0em" dy="0.3em" style="text-anchor: end; visibility: hidden; font-family: Roboto, sans-serif; font-size: 12px; font-weight: 200;" fill="rgb(33, 33, 33)" stroke="none" stroke-width="1px">55</text><text x="0" y="0" dx="0em" dy="0.3em" style="text-anchor: end; visibility: hidden; font-family: Roboto, sans-serif; font-size: 12px; font-weight: 200;" fill="rgb(33, 33, 33)" stroke="none" stroke-width="1px">60</text></g><line x1="30.78125" y1="0" x2="30.78125" y2="177" fill="rgb(0, 0, 0)" stroke="rgb(204, 204, 204)" stroke-width="1px"></line></g></g><g transform="translate(30, 0)" clip-path="url(#clip_0)"><clipPath id="clip_0"><rect width="299" height="177"></rect></clipPath><g><g><g><line x1="0" y1="0" x2="0" y2="177" fill="rgb(0, 0, 0)" stroke="rgb(66, 66, 66)" stroke-width="1px" opacity="0.25"></line><line x1="29.921875" y1="0" x2="29.921875" y2="177" fill="rgb(0, 0, 0)" stroke="rgb(66, 66, 66)" stroke-width="1px" opacity="0.25"></line><line x1="59.84375" y1="0" x2="59.84375" y2="177" fill="rgb(0, 0, 0)" stroke="rgb(66, 66, 66)" stroke-width="1px" opacity="0.25"></line><line x1="89.765625" y1="0" x2="89.765625" y2="177" fill="rgb(0, 0, 0)" stroke="rgb(66, 66, 66)" stroke-width="1px" opacity="0.25"></line><line x1="119.6875" y1="0" x2="119.6875" y2="177" fill="rgb(0, 0, 0)" stroke="rgb(66, 66, 66)" stroke-width="1px" opacity="0.25"></line><line x1="149.609375" y1="0" x2="149.609375" y2="177" fill="rgb(0, 0, 0)" stroke="rgb(66, 66, 66)" stroke-width="1px" opacity="0.25"></line><line x1="179.53125" y1="0" x2="179.53125" y2="177" fill="rgb(0, 0, 0)" stroke="rgb(66, 66, 66)" stroke-width="1px" opacity="0.25"></line><line x1="209.453125" y1="0" x2="209.453125" y2="177" fill="rgb(0, 0, 0)" stroke="rgb(66, 66, 66)" stroke-width="1px" opacity="0.25"></line><line x1="239.375" y1="0" x2="239.375" y2="177" fill="rgb(0, 0, 0)" stroke="rgb(66, 66, 66)" stroke-width="1px" opacity="0.25"></line><line x1="269.296875" y1="0" x2="269.296875" y2="177" fill="rgb(0, 0, 0)" stroke="rgb(66, 66, 66)" stroke-width="1px" opacity="0.25"></line><line x1="299.21875" y1="0" x2="299.21875" y2="177" fill="rgb(0, 0, 0)" stroke="rgb(66, 66, 66)" stroke-width="1px" opacity="0.25"></line></g><g><line x1="0" y1="177" x2="299.21875" y2="177" fill="rgb(0, 0, 0)" stroke="rgb(66, 66, 66)" stroke-width="1px" opacity="0.25"></line><line x1="0" y1="163.3846153846154" x2="299.21875" y2="163.3846153846154" fill="rgb(0, 0, 0)" stroke="rgb(66, 66, 66)" stroke-width="1px" opacity="0.25"></line><line x1="0" y1="149.76923076923077" x2="299.21875" y2="149.76923076923077" fill="rgb(0, 0, 0)" stroke="rgb(66, 66, 66)" stroke-width="1px" opacity="0.25"></line><line x1="0" y1="136.15384615384613" x2="299.21875" y2="136.15384615384613" fill="rgb(0, 0, 0)" stroke="rgb(66, 66, 66)" stroke-width="1px" opacity="0.25"></line><line x1="0" y1="122.53846153846153" x2="299.21875" y2="122.53846153846153" fill="rgb(0, 0, 0)" stroke="rgb(66, 66, 66)" stroke-width="1px" opacity="0.25"></line><line x1="0" y1="108.92307692307693" x2="299.21875" y2="108.92307692307693" fill="rgb(0, 0, 0)" stroke="rgb(66, 66, 66)" stroke-width="1px" opacity="0.25"></line><line x1="0" y1="95.3076923076923" x2="299.21875" y2="95.3076923076923" fill="rgb(0, 0, 0)" stroke="rgb(66, 66, 66)" stroke-width="1px" opacity="0.25"></line><line x1="0" y1="81.6923076923077" x2="299.21875" y2="81.6923076923077" fill="rgb(0, 0, 0)" stroke="rgb(66, 66, 66)" stroke-width="1px" opacity="0.25"></line><line x1="0" y1="68.07692307692307" x2="299.21875" y2="68.07692307692307" fill="rgb(0, 0, 0)" stroke="rgb(66, 66, 66)" stroke-width="1px" opacity="0.25"></line><line x1="0" y1="54.46153846153847" x2="299.21875" y2="54.46153846153847" fill="rgb(0, 0, 0)" stroke="rgb(66, 66, 66)" stroke-width="1px" opacity="0.25"></line><line x1="0" y1="40.84615384615384" x2="299.21875" y2="40.84615384615384" fill="rgb(0, 0, 0)" stroke="rgb(66, 66, 66)" stroke-width="1px" opacity="0.25"></line><line x1="0" y1="27.230769230769234" x2="299.21875" y2="27.230769230769234" fill="rgb(0, 0, 0)" stroke="rgb(66, 66, 66)" stroke-width="1px" opacity="0.25"></line><line x1="0" y1="13.615384615384606" x2="299.21875" y2="13.615384615384606" fill="rgb(0, 0, 0)" stroke="rgb(66, 66, 66)" stroke-width="1px" opacity="0.25"></line><line x1="0" y1="0" x2="299.21875" y2="0" fill="rgb(0, 0, 0)" stroke="rgb(66, 66, 66)" stroke-width="1px" opacity="0.25"></line></g></g></g><g><g><line x1="0" y1="163.3846153846154" x2="299.21875" y2="163.3846153846154" fill="rgb(0, 0, 0)" stroke="rgb(153, 153, 153)" stroke-width="1.5px"></line></g></g><g><g><line x1="29.921875" y1="0" x2="29.921875" y2="177" fill="rgb(0, 0, 0)" stroke="rgb(153, 153, 153)" stroke-width="1.5px"></line></g></g><g><g><g><g><g><path stroke="rgb(238, 51, 119)" stroke-width="2px" d="M30.955243576388888,-1.663101645429225L31.471745008680557,17.045070017085358L31.98781423611111,25.569652425213853L32.50788967013889,26.93153920166161L33.02582070312499,28.210836110820384L33.54587951388889,29.868571637022526L34.064658333333334,31.33718301302694L34.58353689236112,25.736636243744847L35.10309700520833,30.597316110266117L35.62757760416667,-44.40514526912103L37.19821006944444,-43.397611505300006L37.72036341145834,12.447475953934553L38.247769704861106,60.91395139613209L38.77062122395833,73.37977371391652L39.294553255208335,26.17213029420317L39.81527699652778,49.49879292497589L40.333474001736114,63.0566879246477L40.8475484375,94.08394385176457L41.36913658854167,16.164508742059994L41.88588736979167,-29.78850459126457L42.40451657986112,30.2453238435548L42.924542144097224,70.90113463623976L43.44869027777778,79.6088610103115L43.967070138888886,34.434951434636254L44.49141775173611,68.30919312214692L45.00906618923611,94.75313491022504L45.53080394965277,101.04536638347207L46.050613411458336,103.73112692766043L46.57281662326389,50.018575043414L47.093490494791666,69.71545905051732L47.61419761284722,86.64140479185482L48.13354162326389,102.72648603113355L48.654381727430554,114.96531682541287L49.175787022569445,103.12558409425324L49.697308680555544,88.53075663647581L50.219611631944446,39.16624143843356L50.74021901041666,69.4831842888557L51.260643532986116,90.72404917794246L51.78492465277778,92.89340355336542L52.304867100694445,97.96177374488273L52.83096015625,108.68265726327466L53.35349583333334,112.59619786913886L53.880918750000006,98.28882973685462L54.40069496527778,101.38223341253229L54.92607322048611,113.2705034364453L55.44550034722223,88.1363771677713L55.96299917534723,78.58560155978113L56.48279201388889,99.1336886055123L57.00605911458334,96.2809070743413L57.52389040798611,105.4125698535574L58.04054144965278,94.96604670338765L58.5577078125,96.06259620863156L59.07553910590278,94.3442552889368L59.59559791666666,91.79005243624486L60.116188671874994,85.07998238948073L60.63498411458334,95.27693561476617L61.15633953993057,92.40979718616731L61.67533446180556,78.26184412262262L62.194611979166666,-3.2920643403546L62.71139600694444,1.828476370997633L63.23215299479167,-97.89837795068907L64.26863012152778,-53.035338190778624L64.78719283854169,20.2963759089159L65.30974513888889,51.37035918511067L65.82800863715278,68.46358089098678L66.34773498263888,92.88684140803335L66.87283064236112,103.87509495125593L67.39192530381943,96.28052067361564L67.90935763888889,101.51099306823188L68.43018111979165,64.43143808853529L68.95047265625,46.31918704370109L69.46770551215278,74.04952799676605L69.98749835069445,20.074690646842665L70.50674262152778,3.7534905825166693L71.02876297743056,51.472563604223794L71.55345967881945,-31.4474748802091L72.07697612847223,23.606136313517396L72.59648637152777,49.42635205272133L73.12010256076388,-61.86842629841525L74.68480052083333,-11.655584428977834L75.20615594618056,41.41508605619878L75.72786046006945,79.06255018061306L76.24936549479166,73.20907481427227L76.77328090277778,79.8731869751206L77.30331367187499,43.32635978873823L77.82746180555556,-58.742601719906126L78.35134396701389,-23.01575204850769L78.87138615451387,10.883640999711494L79.39912491319444,51.13507877425599L79.92307356770833,51.8359261801936L80.45184296875001,28.87246860625317L80.97236723090276,-17.31821570749211L81.4976125,24.408153780507742L82.01988220486112,37.679706439728925L82.55202612847224,69.05304909530145L83.08013059895833,61.674883139948285L83.61056232638889,-10.4513834986933L84.14092756076388,-58.64718038467268L84.66898216145833,3.6670194340852214L85.19844973958332,35.41442055092588L85.73014483506945,51.36449696321778L86.26391783854166,54.366378724617874L86.79150698784723,22.4338176193861L87.32463168402776,55.024006931870545L87.85280264756943,88.59779185091357L88.38574448784723,95.94548663398564L88.90729939236111,75.91498672948994L89.429751953125,58.65603516607436L89.95356762152777,28.028383672886807L90.47628615451389,70.3995436784166L91.00251219618056,92.32672195102155L91.52897096354167,94.35001918886714L92.05458194444445,75.57417138786957L92.57818151041666,92.77236842157014L93.10031822916667,87.62616593303147L93.62303676215278,61.87677565657369L94.14756723090277,84.78387342194527L94.67178185763889,78.89058448548388L95.19614609375,77.38680118238858L95.7218568142361,76.4881669004638L96.25095868055557,88.62657850613239L96.7722974826389,85.12182856871098L97.29506588541668,105.1475187392209L97.8194134982639,92.27040065721941L98.34243124999999,105.7290811559565L98.86634665798611,99.5412661843717L99.38994622395833,110.44231255298328L99.91234891493056,104.34337138799114L100.43458537326389,114.60168832727337L100.95723741319445,102.51626389780633L101.47737934027778,114.72021505771549L101.99943294270834,111.74246709896974L102.51884344618055,120.4557311549554L103.04477026909723,106.41696988193806L103.5662088107639,114.3209029480274L104.09062291666666,112.66292572689937L104.616300390625,111.42356482099915L105.14051501736112,114.82281380761977L105.66547769097221,123.44150709936302L106.18771414930556,131.6719505806064L106.71556927083333,132.47976653507507L107.23948467881944,129.21071123118816L107.76901875,127.08515112742232L108.29215286458333,128.5802184136454L108.81573580729166,129.87953963395574L109.34134678819444,134.3293340521207L109.86393233506945,136.30140146605308L110.38857916666667,135.7042469289201L110.91542026909721,134.3004733728531L111.4408982638889,135.24643863867394L111.96707443576389,136.93635525098153L112.49074049479168,138.163188953436L113.01803042534723,137.81143789410936L113.54282686631946,136.23109021331922L114.06855421006945,136.28438293470728L114.5941984375,138.34161067207924L115.11771488715277,140.87274746427332L115.64409053819443,143.14866740826557L116.16770672743056,143.57823803205181L116.69547873263889,140.58800709629313L117.22231983506946,138.03352318149132L117.74783107638889,139.1264002835004L118.27083220486111,142.43565772193318L118.79506345486111,145.05412833325192L119.32074092881943,146.53874960056527L119.84839657118056,146.80669060553524L120.375703125,141.94568934407158L120.90026684027777,141.22373002912548L121.42406588541665,143.76587934085833L121.94836362847222,146.32365369258403L122.47148111979166,148.08172063797943L122.99995130208333,149.04015710519508L123.52498046874999,149.18465914348815L124.05077430555555,148.79713628762534L124.57577022569443,148.90036803637855L125.10430690104167,148.56594775347244L125.63204565972222,148.97405510286566L126.15724105902775,137.31802451116351L126.68384943576388,137.74076033845893L127.21170455729167,131.41507095621162L127.73502152777777,137.17848273462502L128.25835512152779,130.87681846861832L128.78341753472222,131.47154890353053L129.31153862847222,138.0742308698752L129.84093971354167,143.38101682275334L130.36754809027778,138.45507486697682L130.8930759548611,135.1756363496764L131.42068172743055,139.86927201166787L131.94868645833336,145.07820050441097L132.47482938368054,148.09669710764393L133.00281749131943,148.80491484403535L133.5275640625,148.41881224283762L134.05460464409722,146.19268776215011L134.58152886284722,146.14928521893557L135.1072562065972,146.7093927942642L135.63361523437501,146.5136531226363L136.16014049479165,148.21795000416884L136.6843052517361,147.6483107434681L137.21061440972224,149.16209494311363L137.7364913628472,148.0267312595036L138.2619693576389,147.9752734100554L138.78553567708332,148.45209095525988L139.3084703125,148.57797592301884L139.83462986111113,148.48521918336075L140.35595203993057,148.35886895438057L140.87712460937502,148.90784190450276L141.39497252604164,149.58275220843655L141.91486510416667,149.53307333152225L142.43917947048612,148.88326646020298L142.95564765625002,149.11746113790625L143.47298025173612,150.216110568054L143.9894816840278,150.8882033252027L144.50624908854167,150.39234778928292L145.0211713107639,149.24974925913165L145.54123012152778,149.40840901428496L146.05967647569443,150.90344049353897L146.5785716579861,152.4882743386367L147.09656918402777,152.79348368664526L147.61501553819446,149.6465585012891L148.1286743923611,145.12382823290986L148.64399557291668,145.89285092886288L149.16181024305558,149.55089346324846L149.68065555555552,152.6925035491452L150.19861983506945,152.03765376839843L150.71699969618055,146.39179166758953L151.2382553819444,140.01234266788396L151.7584970486111,143.75483729417425L152.2774753472222,147.23661539741613L152.7974177951389,150.6469906623764L153.3177592013889,150.11599746632047L153.83723619791664,145.01192397793304L154.35623111979166,145.538048161526L154.87249982638892,149.51690096446978L155.39209318576388,152.75708007054072L155.91160342881946,153.4874901359242L156.43096406249998,151.0524762786558L156.9487953559028,147.73479443606368L157.46875442708333,147.5302572017524L157.99265321180556,149.9850861424344L158.51568758680557,151.71229604264306L159.03602899305554,152.29226347370457L159.5564036458333,152.78944552647408L160.0743845486111,152.41319270592257L160.59261480034723,147.50291384531775L161.10913285590277,141.56714787031976L161.6288592013889,142.41196391128346L162.15591640625001,146.36079507298516L162.68096219618056,149.90309755800055L163.20246723090276,152.1066515317204L163.72435460069443,149.7285357669608L164.24391471354167,145.2028938131287L164.76413975694445,143.73089931982207L165.28502973090278,145.25380052892376L165.80824696180554,147.1063091012992L166.3282060329861,150.01354487222454L166.85085807291668,152.65392847486012L167.37159843749998,150.5402760296417L167.89258815104165,141.21995501363085L168.4133617621528,141.03293983439735L168.93529900173613,146.32761511834846L169.4590814236111,150.6974115967847L169.9828472222222,153.40121530735152L170.50496731770832,153.34739519768843L171.0264391059028,148.54949414188152L171.54774466145832,143.7026930413376L172.07061280381944,143.1958664950155L172.58900928819443,145.88595280470068L173.11083016493058,149.33621665921623L173.63444635416667,152.66867934104508L174.15365737847222,153.24411717106614L174.67383255208335,149.11369977017839L175.20283467881944,145.4783296549631L175.72703268229168,146.56689925054434L176.2537906684028,150.30914877367772L176.7795013888889,152.98884984523784L177.31003285590276,154.7779033777895L177.84102977430555,154.1044502387192L178.36517790798612,149.46408105009658L178.89020707465278,147.93000690454713L179.41319157986115,148.5051293986064L179.93391532118054,150.52531658035647L180.45530399305557,153.16417960216805L180.97714149305554,154.56787955548793L181.50195455729167,153.9934511263662L182.0279478732639,152.7849914979633L182.5505001736111,151.40467793323467L183.07469817708335,151.737434225409L183.59799852430555,153.45804515227326L184.12148172743056,155.063309722167L184.64483194444443,155.6683260514774L185.1631453125,153.55220763943606L185.6861464409722,150.85207772521156L186.2104275607639,149.49704178236252L186.7313341579861,150.67514348654115L187.25104388020833,151.95168752531185L187.76834322916665,153.6504083404998L188.2898482638889,154.08974123684618L188.81146966145832,152.58954737413143L189.33259236111113,152.11896822808652L189.85160390624998,153.12586590577092L190.37189544270834,154.39344911358725L190.8970575954861,155.00621874312512L191.41962651909722,151.9084476876898L191.93646041666665,149.86656499510713L192.45286210937502,151.6128054178101L192.96999522569445,153.8785629052036L193.4872280815972,155.64406820735323L194.01122660590278,156.9295176376805L194.5312189236111,155.9883858720558L195.0486180121528,149.179752632477L195.565036328125,146.537124932476L196.07866193576388,144.33945849220044L196.59401636284724,149.29741724584704L197.11166480034723,152.94296147644735L197.625157421875,154.19945378453127L198.13961419270834,151.96285612856317L198.65521796874998,151.40461316749435L199.17248407118055,152.91648817226738L199.68772213541666,155.05542363045348L200.20443967013887,156.30699356607775L200.71886319444442,156.92159158613055L201.23310386284723,156.18598395042005L201.74867439236112,152.77833749279654L202.2636298611111,152.29168391563738L202.78044713541664,154.14000806349844L203.2946213107639,155.71421347122848L203.80972638888886,156.56184427389687L204.32817274305555,156.7454153329773L204.84595416666667,154.50985942693106L205.3617241753472,153.7437045197075L205.87285629340278,154.5187612343981L206.39040499131943,155.78089754287558L206.90378125,157.22321764953045L207.42048216145832,158.16728976591386L207.9364184027778,157.5924033357141L208.45910368923612,152.66139205178246L208.97994379340275,151.8105890692418L209.50158181423612,152.51678854884958L210.02074296875,154.23993751682195L210.541233984375,155.7765516177533L211.06004605034724,155.662018514433L211.58096927083332,154.6693491393722L212.1004795138889,152.9570394234802L212.62017261284723,153.49503847929284L213.13544392361112,155.16783146887641L213.64895316840278,157.03229843524102L214.16974340277778,157.80941265689L214.68561315104168,156.54743097097443L215.19998680555554,156.08499698250108L215.71269813368056,156.60161864120778L216.2278530815972,157.55614877648867L216.7445041232639,158.53909586567158L217.26236866319445,159.2625194604031L217.77797243923612,159.71954215156487L218.29522191840277,159.66789694072506L218.81169010416667,159.47356989197644L219.326146875,159.59003085795058L219.84336310763888,158.04769239982238L220.3581357204861,148.55666702164297L220.87041484374998,138.44546999823595L221.38583576388888,123.79985657920749L221.898680078125,130.48020512630117L222.41197322048612,136.73568089485372L222.92865750868057,140.91782780676743L223.4442779079861,147.41980889836898L223.95845208333333,147.68066729738132L224.47241015625,149.41029256510717L224.99010846354167,143.19951096363425L225.50423276909723,144.8299955092202L226.01907187499998,149.78752916881805L226.53672031250002,150.47104317655095L227.0527729166667,153.18493465755034L227.56950707465276,152.7608842130154L228.08570928819444,153.1970512530595L228.59875308159724,146.073669248352L229.11455633680558,146.66895270163664L229.63192217881942,147.63847540304891L230.1496204861111,151.75088267084078L230.66294687500002,149.4092272795299L231.1803127170139,150.38802641135806L231.69832686631946,150.58245448934602L232.21408025173614,149.40227275182576L232.73229388020835,148.1000139906622L233.2531506076389,151.2186995013403L233.76810607638888,150.99717284106296L234.28382621527777,151.89770584914322L234.79914739583333,151.22802550287065L235.31493402777778,152.80289696793523L235.82857625868056,152.8170988427813L236.34424652777776,153.96894475805667L236.85876979166667,152.66346613849254L237.37493875868057,153.69394240622597L237.88720125868056,153.29697895709523L238.40258893229165,154.21751092132698L238.91800985243054,153.63266496426235L239.42993988715276,154.67172053271204L239.94444652777779,154.13074150442054L240.46289288194444,154.84115475648488L240.97987638888887,153.95520978351738L241.49285368923609,154.65376629029052L242.00878993055554,154.28522450553749L242.51980568576388,155.1288320786934L243.03183546006943,154.769813784147L243.55074726562498,155.553040244506L244.06711571180554,154.93317350782982L244.58474752604167,155.42200568451076L245.10242921006946,154.68767102862168L245.62195607638884,155.24237581287989L246.13978736979163,155.08959668165775L246.65816723090273,155.9176888315138L247.17566605902778,155.67989537581727L247.6934973524305,156.27542220438627L248.2113951388889,155.5974348306227L248.7309884982639,155.83075983741827L249.25270963541666,155.11597659718365L249.77522868923614,155.59091386910023L250.29458932291666,155.76219828307842L250.8182886284722,156.68841146759934L251.34172196180558,156.60552076455525L251.86133194444446,157.05458697403185L252.37956219618056,156.2159954664438L252.9009009982639,156.042561409681L253.42498263888885,155.11050797148468L253.95075985243054,155.57957520355217L254.469239453125,156.29889223094287L254.98864995659724,157.50689097225737L255.50679709201387,157.74881512006473L256.0295322482639,158.2478525392113L256.5471308159722,157.48959638363888L257.06572677951385,156.54492663435204L257.58603493923613,154.4216668412304L258.1065592013889,154.96030344975824L258.62655151909723,156.30238097198506L259.1502342013889,157.67912302784742L259.67069197048613,158.25089454964677L260.19344375000003,158.86149979119412L260.7189882378472,159.1126041067123L261.2433857204861,158.87228014928667L261.7669852864583,155.5139433019039L262.287975,154.1121502899427L262.81046080729163,154.21861527361725L263.3330629774306,154.96920111196653L263.8520578993055,155.67909900052106L264.3756907118056,156.5748672900456L264.8976445746528,158.07483333584048L265.41462808159724,159.08099695585L265.93036484375,159.01963134171584L266.44763094618054,158.63584635143383L266.9671910590278,155.00994186002646L267.4895771267361,152.4904204007214L268.00857204861114,155.26101630096682L268.52924592013886,157.0181203111986L269.0522304253472,158.2389159527409L269.57240559895837,158.79880886926486L270.096836328125,159.3613376697692L270.6197044704861,158.5548388573312L271.14322092013884,156.8016982852779L271.6687986545139,153.40356459201166L272.1913842013889,154.5725252720715L272.7132715711806,156.25025617200143L273.23617296006944,157.79017995712118L273.7593070746528,158.47338843653773L274.2838707899305,158.97694669101435L274.80590776909725,158.93135473230222L275.3304049913194,158.42205740666554L275.85425390625,155.397785184168L276.38142747395835,154.29972248068137L276.90728780381943,155.67575416852824L277.42596688368053,156.74311242789824L277.9505472222222,156.7593966444549L278.47896753472224,157.75266451818587L279.00038945312497,158.73228481502576L279.52277552083336,158.6521541148819L280.0470732638889,157.94757099552874L280.5730998263889,155.38541141750767L281.0984282118055,155.18583640228354L281.62398932291666,155.80329629550457L282.14888550347223,156.81427920176938L282.6730668836806,157.2469079751632L283.198727734375,157.60958356126085L283.72123016493055,158.51894393042014L284.2465751736111,159.04644553669542L284.77037421875,158.34374242824188L285.2942397569445,156.91874139429254L285.81768971354165,154.78549645752844L286.3397599392361,155.43341600131288L286.86437352430556,157.0907270587439L287.3864769965278,158.3680371099271L287.9089295572917,159.21170227993565L288.42990264756946,159.69044730282633L288.95102534722224,160.06987606003582L289.4743256944444,159.99039276008014L289.9990888888889,158.47636812463844" style="fill: none;" fill="none"></path></g></g></g></g><g opacity="0.2"><g><g><g><path stroke="rgb(238, 51, 119)" stroke-width="2px" d="M29.921875,-95.98985349214995L30.440022135416665,8.7296998830942L30.955243576388888,26.05884810227614L31.471745008680557,39.04587989220252L31.98781423611111,36.69934721726637L32.50788967013889,28.815518892728356L33.02582070312499,30.04025115966796L33.54587951388889,32.28556594848634L34.064658333333334,33.503099529559805L34.58353689236112,17.42047700148363L35.10309700520833,37.84424990140474L35.62757760416667,-156.50067725548377L36.15362078993055,-21.463032531738264L36.67555802951389,33.761525080754204L37.19821006944444,-97.04665797306941L37.72036341145834,96.17572086040789L38.247769704861106,133.59315517132097L38.77062122395833,92.07534211965708L39.294553255208335,-44.63214322603664L39.81527699652778,84.48665472177359L40.333474001736114,83.39278687697191L40.8475484375,140.6238067773672L41.36913658854167,-100.7131055391752L41.88588736979167,-98.7174802339994L42.40451657986112,120.29563980102539L42.924542144097224,131.8846774468055L43.44869027777778,92.67042829073392L43.967070138888886,-33.32584357628457L44.49141775173611,119.12052445044885L45.00906618923611,134.41903297717755L45.53080394965277,110.4837115067702L46.050613411458336,107.75976720956655L46.57281662326389,-30.55024637075571L47.093490494791666,99.26078365032491L47.61419761284722,112.03032267643854L48.13354162326389,126.85410747528077L48.654381727430554,133.32356282747708L49.175787022569445,85.36598510742188L49.697308680555544,66.63851553109976L50.219611631944446,-34.88053119365986L50.74021901041666,114.95859850369966L51.260643532986116,122.58534648601825L51.78492465277778,96.1474351149339L52.304867100694445,105.56432902996357L52.83096015625,124.76398253807656L53.35349583333334,118.46650877732499L53.880918750000006,76.82777753976676L54.40069496527778,106.02233892587515L54.92607322048611,131.10290847191445L55.44550034722223,50.43518776526818L55.96299917534723,64.25943814791165L56.48279201388889,129.9558191739596L57.00605911458334,92.00173477759729L57.52389040798611,119.11006402235765L58.04054144965278,79.29626197814942L58.5577078125,97.70742046649639L59.07553910590278,91.76674390939566L59.59559791666666,87.9587481572078L60.116188671874994,75.01487731933594L60.63498411458334,110.57236545269305L61.15633953993057,88.10908954326923L61.67533446180556,57.03991452730619L62.194611979166666,-125.62292703481822L62.71139600694444,9.509287438025845L63.23215299479167,-247.48865943321815L64.26863012152778,-42.92564955491287L64.78719283854169,130.29394705845758L65.30974513888889,97.98133409940279L65.82800863715278,94.10341344980094L66.34773498263888,129.52173218360315L66.87283064236112,120.3574752660898L67.39192530381943,84.8886592571552L67.90935763888889,109.35670166015625L68.43018111979165,8.812105618990394L68.95047265625,19.150810476449827L69.46770551215278,115.64503942636344L69.98749835069445,-60.88756537804238L70.50674262152778,-20.728309513972363L71.02876297743056,123.05117313678448L71.55345967881945,-155.82753260685845L72.07697612847223,106.18655310410719L72.59648637152777,88.15667566152719L73.12010256076388,-228.8105938251202L74.16768402777777,-16.1487818791316L74.68480052083333,127.00215577345628L75.20615594618056,121.02109178396373L75.72786046006945,135.53374636723444L76.24936549479166,64.42886176476112L76.77328090277778,89.8693552163931L77.30331367187499,-11.493880990835347L77.82746180555556,-211.8460439828726L78.35134396701389,30.574522458590003L78.87138615451387,61.73273057204026L79.39912491319444,111.51223543607271L79.92307356770833,52.88719728910006L80.45184296875001,-5.572717754657438L80.97236723090276,-86.60424217810997L81.4976125,86.99770801250752L82.01988220486112,57.58703542856069L82.55202612847224,116.11306307866023L83.08013059895833,50.60763420691857L83.61056232638889,-118.64078345665565L84.14092756076388,-130.94087571364182L84.66898216145833,97.13831916222206L85.19844973958332,83.03552222618688L85.73014483506945,75.28961158165563L86.26391783854166,58.869201366717995L86.79150698784723,-25.46502403846155L87.32463168402776,103.90929090059721L87.85280264756943,138.95846922947808L88.38574448784723,106.96702880859375L88.90729939236111,45.86923687274639L89.429751953125,32.76760782095102L89.95356762152777,-17.91309356689453L90.47628615451389,133.95628368671123L91.00251219618056,125.217489359929L91.52897096354167,97.38496504563551L92.05458194444445,47.41039968637319L92.57818151041666,118.569663972121L93.10031822916667,79.90686220022349L93.62303676215278,23.252690241887016L94.14756723090277,119.14452007000263L94.67178185763889,70.05065108079177L95.19614609375,75.13112622774565L95.7218568142361,75.14021547757663L96.25095868055557,106.83419591463527L96.7722974826389,79.86470366257888L97.29506588541668,135.18605399498574L97.8194134982639,72.95472353421724L98.34243124999999,125.91710190406214L98.86634665798611,90.25954372699445L99.38994622395833,126.79388210590069L99.91234891493056,95.19495964050293L100.43458537326389,129.98916373619667L100.95723741319445,84.38812725360577L101.47737934027778,133.02614179757927L101.99943294270834,107.27584516085112L102.51884344618055,133.52562723893385L103.04477026909723,85.3588279724121L103.5662088107639,126.17680254716142L104.09062291666666,110.17595989520734L104.616300390625,109.56452346214883L105.14051501736112,119.92168728755071L105.66547769097221,136.3695470369779L106.18771414930556,144.01761580247145L106.71556927083333,133.6914904667781L107.23948467881944,124.30712827535777L107.76901875,123.89681097177359L108.29215286458333,130.82281934298004L108.81573580729166,131.82852146442121L109.34134678819444,141.00402567936825L109.86393233506945,139.25950258695164L110.38857916666667,134.8085151232206L110.91542026909721,132.1948130387526L111.4408982638889,136.66538653740517L111.96707443576389,139.47123016944298L112.49074049479168,140.00343950711763L113.01803042534723,137.28381130511946L113.54282686631946,133.86056869213397L114.06855421006945,136.36432201678937L114.5941984375,141.4274522781372L115.11771488715277,144.66945265256442L115.64409053819443,146.56254732425396L116.16770672743056,144.22259396773117L116.69547873263889,136.10266069265512L117.22231983506946,134.2017973092886L117.74783107638889,140.76571593651406L118.27083220486111,147.39954387958232L118.79506345486111,148.98183425023004L119.32074092881943,148.76568150153525L119.84839657118056,147.20860211299018L120.375703125,134.6541874518761L120.90026684027777,140.14079105670635L121.42406588541665,147.57910330845758L121.94836362847222,150.16031522017258L122.47148111979166,150.71882105607253L122.99995130208333,150.47781180601854L123.52498046874999,149.40141220092772L124.05077430555555,148.21585200383115L124.57577022569443,149.05521565950832L125.10430690104167,148.0643173291133L125.63204565972222,149.5862161269555L126.15724105902775,119.83397862361026L126.68384943576388,138.37486407940204L127.21170455729167,121.92653688284068L127.73502152777777,145.82360040224518L128.25835512152779,121.42432206960825L128.78341753472222,132.3636445558988L129.31153862847222,147.97825381939228L129.84093971354167,151.3411957520705L130.36754809027778,131.06616193331203L130.8930759548611,130.25647857372576L131.42068172743055,146.90972550465509L131.94868645833336,152.89159324352556L132.47482938368054,152.62444201249343L133.00281749131943,149.86724144862248L133.5275640625,147.83965834104097L134.05460464409722,142.8535010411189L134.58152886284722,146.08418140411376L135.1072562065972,147.5495541572571L135.63361523437501,146.22004361519447L136.16014049479165,150.77439532646767L136.6843052517361,146.793851852417L137.21061440972224,151.43277124258188L137.7364913628472,146.3236857340886L138.2619693576389,147.89808663588303L138.78553567708332,149.1673172730666L139.3084703125,148.7668033746573L139.83462986111113,148.34608407387367L140.35595203993057,148.16934361091026L140.87712460937502,149.7313013296861L141.39497252604164,150.59511766433715L141.91486510416667,149.45855501615085L142.43917947048612,147.90855615322405L142.95564765625002,149.4687531544612L143.47298025173612,151.86408471327562L143.9894816840278,151.89634246092575L144.50624908854167,149.6485644854032L145.0211713107639,147.53585146390475L145.54123012152778,149.6463986470149L146.05967647569443,153.14598771241995L146.5785716579861,154.86552510628334L147.09656918402777,153.25129770865806L147.61501553819446,144.92617072325487L148.1286743923611,138.33973283034103L148.64399557291668,147.04638497279242L149.16181024305558,155.03795726482684L149.68065555555552,157.40491867799025L150.19861983506945,151.0553790972783L150.71699969618055,137.9229985163762L151.2382553819444,130.44316916832557L151.7584970486111,149.3685792336097L152.2774753472222,152.45928255227898L152.7974177951389,155.7625535598168L153.3177592013889,149.3195076722365L153.83723619791664,137.35581374535195L154.35623111979166,146.32723443691546L154.87249982638892,155.48518016888545L155.39209318576388,157.61734872964712L155.91160342881946,154.5831052339994L156.43096406249998,147.39995549275326L156.9487953559028,142.75827167217548L157.46875442708333,147.22345135028547L157.99265321180556,153.66732955345742L158.51568758680557,154.30311089295608L159.03602899305554,153.16221462029677L159.5564036458333,153.53521860562836L160.0743845486111,151.8488134750953L160.59261480034723,140.1374955544105L161.10913285590277,132.66349890782283L161.6288592013889,143.679187972729L162.15591640625001,152.28404181553768L162.68096219618056,155.21655128552365L163.20246723090276,155.41198249230018L163.72435460069443,146.1613621198214L164.24391471354167,138.41443088238054L164.76413975694445,141.52290757986214L165.28502973090278,147.53815234257624L165.80824696180554,149.88507195986233L166.3282060329861,154.37439852861257L166.85085807291668,156.6145038788135L167.37159843749998,147.36979736181405L167.89258815104165,127.23947348961464L168.4133617621528,140.75241706554706L168.93529900173613,154.26962804427512L169.4590814236111,157.25210631443903L169.9828472222222,157.4569208732018L170.50496731770832,153.26666503319373L171.0264391059028,141.3526425581712L171.54774466145832,136.4324913905217L172.07061280381944,142.4356266755324L172.58900928819443,149.9210822692284L173.11083016493058,154.51161244098955L173.63444635416667,157.6673733637883L174.15365737847222,154.1072739160978L174.67383255208335,142.91807366884672L175.20283467881944,140.02527448214016L175.72703268229168,148.1997536439162L176.2537906684028,155.92252305837778L176.7795013888889,157.00840145257803L177.31003285590276,157.46148367661695L177.84102977430555,153.0942705301138L178.36517790798612,142.5035272671626L178.89020707465278,145.62889568622296L179.41319157986115,149.3678131396954L179.93391532118054,153.55559735298158L180.45530399305557,157.12247413488535L180.97714149305554,156.67342948546775L181.50195455729167,153.13180848268362L182.0279478732639,150.97230205535888L182.5505001736111,149.33420758614173L183.07469817708335,152.23656866367048L183.59799852430555,156.03896154256967L184.12148172743056,157.4712065770076L184.64483194444443,156.57585054544302L185.1631453125,150.37803002137403L185.6861464409722,146.80188285387482L186.2104275607639,147.46448786808892L186.7313341579861,152.44229604280912L187.25104388020833,153.86650358346793L187.76834322916665,156.19848956328173L188.2898482638889,154.74874058136572L188.81146966145832,150.33925658005936L189.33259236111113,151.41309950901913L189.85160390624998,154.63621242229755L190.37189544270834,156.29482392531176L190.8970575954861,155.92537318743192L191.41962651909722,147.2617911045368L191.93646041666665,146.8037409562331L192.45286210937502,154.23216605186462L192.96999522569445,157.27719913629386L193.4872280815972,158.29232616057763L194.01122660590278,158.85769178317142L194.5312189236111,154.57668822361873L195.0486180121528,138.96680277310887L195.565036328125,142.57318338247444L196.07866193576388,141.0429588317871L196.59401636284724,156.73435537631696L197.11166480034723,158.41127782234778L197.625157421875,156.08419224665715L198.13961419270834,148.60795964461107L198.65521796874998,150.56724872589112L199.17248407118055,155.1843006794269L199.68772213541666,158.2638268177326L200.20443967013887,158.1843484695141L200.71886319444442,157.84348861620978L201.23310386284723,155.08257249685434L201.74867439236112,147.66686780636127L202.2636298611111,151.5617035498986L202.78044713541664,156.91249428529005L203.2946213107639,158.07552158282354L203.80972638888886,157.8332904778994L204.32817274305555,157.020771921598L204.84595416666667,151.1565255678617L205.3617241753472,152.59447215887218L205.87285629340278,155.68134630643405L206.39040499131943,157.67410200559175L206.90378125,159.3866978095128L207.42048216145832,159.58339794048896L207.9364184027778,156.73007369041443L208.45910368923612,145.264875125885L208.97994379340275,150.53438459543082L209.50158181423612,153.57608776826126L210.02074296875,156.8246609687805L210.541233984375,158.08147276915037L211.06004605034724,155.49021885945248L211.58096927083332,153.18034507678104L212.1004795138889,150.38857484964223L212.62017261284723,154.30203706301174L213.13544392361112,157.67702095325177L213.64895316840278,159.82899888478792L214.16974340277778,158.97508398936347L214.68561315104168,154.65445844210112L215.19998680555554,155.39134599979107L215.71269813368056,157.37655112926777L216.2278530815972,158.98794397941003L216.7445041232639,160.01351649944598L217.26236866319445,160.34765485250034L217.77797243923612,160.40507618830756L218.29522191840277,159.59042912446535L218.81169010416667,159.18207931885354L219.326146875,159.76472230691175L219.84336310763888,155.73418471263005L220.3581357204861,134.32012895437387L220.87041484374998,123.27867446312537L221.38583576388888,101.83143645066482L221.898680078125,140.50072794694168L222.41197322048612,146.11889454768254L222.92865750868057,147.191048174638L223.4442779079861,157.1727805357713L223.95845208333333,148.07195489589984L224.47241015625,152.00473046669595L224.99010846354167,133.88333856142486L225.50423276909723,147.27572232759914L226.01907187499998,157.22382965821487L226.53672031250002,151.49631418815025L227.0527729166667,157.25577187904946L227.56950707465276,152.124808546213L228.08570928819444,153.85130181312562L228.59875308159724,135.38859624129074L229.11455633680558,147.56187788156365L229.63192217881942,149.0927594551673L230.1496204861111,157.91949357252855L230.66294687500002,145.89674419256357L231.1803127170139,151.85622510910034L231.69832686631946,150.87409660632795L232.21408025173614,147.6320001455454L232.73229388020835,146.14662584891687L233.2531506076389,155.89672776735745L233.76810607638888,150.66488285064696L234.28382621527777,153.24850536126357L234.79914739583333,150.22350498346182L235.31493402777778,155.16520416553203L235.82857625868056,152.83840165505043L236.34424652777776,155.6967136309697L236.85876979166667,150.70524820914636L237.37493875868057,155.23965680782612L237.88720125868056,152.70153378339916L238.40258893229165,155.5983088676746L238.91800985243054,152.7553960286654L239.42993988715276,156.23030388538655L239.94444652777779,153.3192729619833L240.46289288194444,155.90677463458135L240.97987638888887,152.62629232406616L241.49285368923609,155.70160105045025L242.00878993055554,153.73241182840786L242.51980568576388,156.39424343842725L243.03183546006943,154.23128634232742L243.55074726562498,156.7278799350445L244.06711571180554,154.00337340281558L244.58474752604167,156.15525394953215L245.10242921006946,153.58616904478808L245.62195607638884,156.0744329892672L246.13978736979163,154.86042798482453L246.65816723090273,157.1598270562979L247.17566605902778,155.32320519227247L247.6934973524305,157.1687124472398L248.2113951388889,154.58045376997728L248.7309884982639,156.18074734761163L249.25270963541666,154.04380173683165L249.77522868923614,156.30331977697517L250.29458932291666,156.0191249040457L250.8182886284722,158.07773124438066L251.34172196180558,156.48118470998912L251.86133194444446,157.72818628824675L252.37956219618056,154.95810820506168L252.9009009982639,155.78241032453684L253.42498263888885,153.7124278141902L253.95075985243054,156.28317605165336L254.469239453125,157.377867772029L254.98864995659724,159.3188890842291L255.50679709201387,158.11170134177576L256.0295322482639,158.99640866793118L256.5471308159722,156.35221215028028L257.06572677951385,155.12792201042174L257.58603493923613,151.23677715154793L258.1065592013889,155.76825836255L258.62655151909723,158.3154972553253L259.1502342013889,159.74423611164093L259.67069197048613,159.10855183234582L260.19344375000003,159.77740765351516L260.7189882378472,159.4892605799895L261.2433857204861,158.51179421314828L261.7669852864583,150.4764380308298L262.287975,152.0094607720008L262.81046080729163,154.3783127491291L263.3330629774306,156.0950798694904L263.8520578993055,156.74394583335288L264.3756907118056,157.91851972433238L264.8976445746528,160.3247824045328L265.41462808159724,160.59024238586426L265.93036484375,158.92758292051462L266.44763094618054,158.06016886601083L266.9671910590278,149.5710851229154L267.4895771267361,148.71113821176382L268.00857204861114,159.41691015133492L268.52924592013886,159.6537763265463L269.0522304253472,160.07010941505433L269.57240559895837,159.63864824405084L270.096836328125,160.20513087052566L270.6197044704861,157.3450906386742L271.14322092013884,154.17198742719796L271.6687986545139,148.3063640521123L272.1913842013889,156.3259662921612L272.7132715711806,158.76685252189637L273.23617296006944,160.10006563480084L273.7593070746528,159.49820115566254L274.2838707899305,159.73228407272927L274.80590776909725,158.86296679423404L275.3304049913194,157.65811141821052L275.85425390625,150.8613768504216L276.38142747395835,152.65262842545144L276.90728780381943,157.7398017002986L277.42596688368053,158.34414981695323L277.9505472222222,156.78382296928993L278.47896753472224,159.24256632878232L279.00038945312497,160.2017152602856L279.52277552083336,158.53195806466616L280.0470732638889,156.89069631649897L280.5730998263889,151.54217205047607L281.0984282118055,154.88647387944735L281.62398932291666,156.72948613533606L282.14888550347223,158.3307535611666L282.6730668836806,157.8958511352539L283.198727734375,158.1535969404074L283.72123016493055,159.882984484159L284.2465751736111,159.8376979461083L284.77037421875,157.2896877655616L285.2942397569445,154.78123984336852L285.81768971354165,151.58562905238225L286.3397599392361,156.4052953169896L286.86437352430556,159.5766936448904L287.3864769965278,160.28400218670185L287.9089295572917,160.4772000349485L288.42990264756946,160.40856483716232L288.95102534722224,160.63901919585007L289.4743256944444,159.87116781014663L289.9990888888889,156.2053311714759" style="fill: none;" fill="none"></path></g></g></g></g></g></g><g transform="translate(30, 177)" clip-path="url(#clip_1)"><clipPath id="clip_1"><rect width="299" height="23"></rect></clipPath><g><g><line x1="0" y1="0" x2="0" y2="5" style="visibility: inherit;" fill="rgb(0, 0, 0)" stroke="rgb(204, 204, 204)" stroke-width="1px"></line><line x1="29.921875" y1="0" x2="29.921875" y2="5" style="visibility: inherit;" fill="rgb(0, 0, 0)" stroke="rgb(204, 204, 204)" stroke-width="1px"></line><line x1="59.84375" y1="0" x2="59.84375" y2="5" style="visibility: inherit;" fill="rgb(0, 0, 0)" stroke="rgb(204, 204, 204)" stroke-width="1px"></line><line x1="89.765625" y1="0" x2="89.765625" y2="5" style="visibility: inherit;" fill="rgb(0, 0, 0)" stroke="rgb(204, 204, 204)" stroke-width="1px"></line><line x1="119.6875" y1="0" x2="119.6875" y2="5" style="visibility: inherit;" fill="rgb(0, 0, 0)" stroke="rgb(204, 204, 204)" stroke-width="1px"></line><line x1="149.609375" y1="0" x2="149.609375" y2="5" style="visibility: inherit;" fill="rgb(0, 0, 0)" stroke="rgb(204, 204, 204)" stroke-width="1px"></line><line x1="179.53125" y1="0" x2="179.53125" y2="5" style="visibility: inherit;" fill="rgb(0, 0, 0)" stroke="rgb(204, 204, 204)" stroke-width="1px"></line><line x1="209.453125" y1="0" x2="209.453125" y2="5" style="visibility: inherit;" fill="rgb(0, 0, 0)" stroke="rgb(204, 204, 204)" stroke-width="1px"></line><line x1="239.375" y1="0" x2="239.375" y2="5" style="visibility: inherit;" fill="rgb(0, 0, 0)" stroke="rgb(204, 204, 204)" stroke-width="1px"></line><line x1="269.296875" y1="0" x2="269.296875" y2="5" style="visibility: inherit;" fill="rgb(0, 0, 0)" stroke="rgb(204, 204, 204)" stroke-width="1px"></line><line x1="299.21875" y1="0" x2="299.21875" y2="5" style="visibility: inherit;" fill="rgb(0, 0, 0)" stroke="rgb(204, 204, 204)" stroke-width="1px"></line></g><g transform="translate(0, 8)"><text x="0" y="0" dx="0em" dy="0.95em" style="text-anchor: middle; visibility: hidden; font-family: Roboto, sans-serif; font-size: 12px; font-weight: 200;" fill="rgb(33, 33, 33)" stroke="none" stroke-width="1px">-0.5</text><text x="29.921875" y="0" dx="0em" dy="0.95em" style="text-anchor: middle; visibility: inherit; font-family: Roboto, sans-serif; font-size: 12px; font-weight: 200;" fill="rgb(33, 33, 33)" stroke="none" stroke-width="1px">0</text><text x="59.84375" y="0" dx="0em" dy="0.95em" style="text-anchor: middle; visibility: inherit; font-family: Roboto, sans-serif; font-size: 12px; font-weight: 200;" fill="rgb(33, 33, 33)" stroke="none" stroke-width="1px">0.5</text><text x="89.765625" y="0" dx="0em" dy="0.95em" style="text-anchor: middle; visibility: inherit; font-family: Roboto, sans-serif; font-size: 12px; font-weight: 200;" fill="rgb(33, 33, 33)" stroke="none" stroke-width="1px">1</text><text x="119.6875" y="0" dx="0em" dy="0.95em" style="text-anchor: middle; visibility: inherit; font-family: Roboto, sans-serif; font-size: 12px; font-weight: 200;" fill="rgb(33, 33, 33)" stroke="none" stroke-width="1px">1.5</text><text x="149.609375" y="0" dx="0em" dy="0.95em" style="text-anchor: middle; visibility: inherit; font-family: Roboto, sans-serif; font-size: 12px; font-weight: 200;" fill="rgb(33, 33, 33)" stroke="none" stroke-width="1px">2</text><text x="179.53125" y="0" dx="0em" dy="0.95em" style="text-anchor: middle; visibility: inherit; font-family: Roboto, sans-serif; font-size: 12px; font-weight: 200;" fill="rgb(33, 33, 33)" stroke="none" stroke-width="1px">2.5</text><text x="209.453125" y="0" dx="0em" dy="0.95em" style="text-anchor: middle; visibility: inherit; font-family: Roboto, sans-serif; font-size: 12px; font-weight: 200;" fill="rgb(33, 33, 33)" stroke="none" stroke-width="1px">3</text><text x="239.375" y="0" dx="0em" dy="0.95em" style="text-anchor: middle; visibility: inherit; font-family: Roboto, sans-serif; font-size: 12px; font-weight: 200;" fill="rgb(33, 33, 33)" stroke="none" stroke-width="1px">3.5</text><text x="269.296875" y="0" dx="0em" dy="0.95em" style="text-anchor: middle; visibility: inherit; font-family: Roboto, sans-serif; font-size: 12px; font-weight: 200;" fill="rgb(33, 33, 33)" stroke="none" stroke-width="1px">4</text><text x="299.21875" y="0" dx="0em" dy="0.95em" style="text-anchor: middle; visibility: hidden; font-family: Roboto, sans-serif; font-size: 12px; font-weight: 200;" fill="rgb(33, 33, 33)" stroke="none" stroke-width="1px">4.5</text></g><line x1="0" y1="0" x2="299.21875" y2="0" fill="rgb(0, 0, 0)" stroke="rgb(204, 204, 204)" stroke-width="1px"></line></g></g></g></g></svg>