<svg viewBox="0 0 301 200" xmlns="http://www.w3.org/2000/svg"><g><g><g><g><g><line x1="50" y1="177" x2="45" y2="177" style="visibility: inherit;" fill="rgb(0, 0, 0)" stroke="rgb(204, 204, 204)" stroke-width="1px"></line><line x1="50" y1="153.4" x2="45" y2="153.4" style="visibility: inherit;" fill="rgb(0, 0, 0)" stroke="rgb(204, 204, 204)" stroke-width="1px"></line><line x1="50" y1="129.8" x2="45" y2="129.8" style="visibility: inherit;" fill="rgb(0, 0, 0)" stroke="rgb(204, 204, 204)" stroke-width="1px"></line><line x1="50" y1="106.2" x2="45" y2="106.2" style="visibility: inherit;" fill="rgb(0, 0, 0)" stroke="rgb(204, 204, 204)" stroke-width="1px"></line><line x1="50" y1="82.6" x2="45" y2="82.6" style="visibility: inherit;" fill="rgb(0, 0, 0)" stroke="rgb(204, 204, 204)" stroke-width="1px"></line><line x1="50" y1="58.999999999999986" x2="45" y2="58.999999999999986" style="visibility: inherit;" fill="rgb(0, 0, 0)" stroke="rgb(204, 204, 204)" stroke-width="1px"></line><line x1="50" y1="35.39999999999999" x2="45" y2="35.39999999999999" style="visibility: inherit;" fill="rgb(0, 0, 0)" stroke="rgb(204, 204, 204)" stroke-width="1px"></line><line x1="50" y1="11.799999999999978" x2="45" y2="11.799999999999978" style="visibility: inherit;" fill="rgb(0, 0, 0)" stroke="rgb(204, 204, 204)" stroke-width="1px"></line></g><g transform="translate(40, 0)"><text x="0" y="177" dx="0em" dy="0.3em" style="text-anchor: end; visibility: hidden; font-family: Roboto, sans-serif; font-size: 12px; font-weight: 200;" fill="rgb(33, 33, 33)" stroke="none" stroke-width="1px">0</text><text x="0" y="153.4" dx="0em" dy="0.3em" style="text-anchor: end; visibility: inherit; font-family: Roboto, sans-serif; font-size: 12px; font-weight: 200;" fill="rgb(33, 33, 33)" stroke="none" stroke-width="1px">0.02</text><text x="0" y="129.8" dx="0em" dy="0.3em" style="text-anchor: end; visibility: inherit; font-family: Roboto, sans-serif; font-size: 12px; font-weight: 200;" fill="rgb(33, 33, 33)" stroke="none" stroke-width="1px">0.04</text><text x="0" y="106.2" dx="0em" dy="0.3em" style="text-anchor: end; visibility: inherit; font-family: Roboto, sans-serif; font-size: 12px; font-weight: 200;" fill="rgb(33, 33, 33)" stroke="none" stroke-width="1px">0.06</text><text x="0" y="82.6" dx="0em" dy="0.3em" style="text-anchor: end; visibility: inherit; font-family: Roboto, sans-serif; font-size: 12px; font-weight: 200;" fill="rgb(33, 33, 33)" stroke="none" stroke-width="1px">0.08</text><text x="0" y="58.999999999999986" dx="0em" dy="0.3em" style="text-anchor: end; visibility: inherit; font-family: Roboto, sans-serif; font-size: 12px; font-weight: 200;" fill="rgb(33, 33, 33)" stroke="none" stroke-width="1px">0.1</text><text x="0" y="35.39999999999999" dx="0em" dy="0.3em" style="text-anchor: end; visibility: inherit; font-family: Roboto, sans-serif; font-size: 12px; font-weight: 200;" fill="rgb(33, 33, 33)" stroke="none" stroke-width="1px">0.12</text><text x="0" y="11.799999999999978" dx="0em" dy="0.3em" style="text-anchor: end; visibility: inherit; font-family: Roboto, sans-serif; font-size: 12px; font-weight: 200;" fill="rgb(33, 33, 33)" stroke="none" stroke-width="1px">0.14</text></g><line x1="50" y1="0" x2="50" y2="177" fill="rgb(0, 0, 0)" stroke="rgb(204, 204, 204)" stroke-width="1px"></line></g></g><g transform="translate(50, 0)" clip-path="url(#clip_0)"><clipPath id="clip_0"><rect width="280" height="177"></rect></clipPath><g><g><g><line x1="0" y1="0" x2="0" y2="177" fill="rgb(0, 0, 0)" stroke="rgb(66, 66, 66)" stroke-width="1px" opacity="0.25"></line><line x1="23.333333333333332" y1="0" x2="23.333333333333332" y2="177" fill="rgb(0, 0, 0)" stroke="rgb(66, 66, 66)" stroke-width="1px" opacity="0.25"></line><line x1="46.666666666666664" y1="0" x2="46.666666666666664" y2="177" fill="rgb(0, 0, 0)" stroke="rgb(66, 66, 66)" stroke-width="1px" opacity="0.25"></line><line x1="70" y1="0" x2="70" y2="177" fill="rgb(0, 0, 0)" stroke="rgb(66, 66, 66)" stroke-width="1px" opacity="0.25"></line><line x1="93.33333333333333" y1="0" x2="93.33333333333333" y2="177" fill="rgb(0, 0, 0)" stroke="rgb(66, 66, 66)" stroke-width="1px" opacity="0.25"></line><line x1="116.66666666666667" y1="0" x2="116.66666666666667" y2="177" fill="rgb(0, 0, 0)" stroke="rgb(66, 66, 66)" stroke-width="1px" opacity="0.25"></line><line x1="140" y1="0" x2="140" y2="177" fill="rgb(0, 0, 0)" stroke="rgb(66, 66, 66)" stroke-width="1px" opacity="0.25"></line><line x1="163.33333333333334" y1="0" x2="163.33333333333334" y2="177" fill="rgb(0, 0, 0)" stroke="rgb(66, 66, 66)" stroke-width="1px" opacity="0.25"></line><line x1="186.66666666666666" y1="0" x2="186.66666666666666" y2="177" fill="rgb(0, 0, 0)" stroke="rgb(66, 66, 66)" stroke-width="1px" opacity="0.25"></line><line x1="210" y1="0" x2="210" y2="177" fill="rgb(0, 0, 0)" stroke="rgb(66, 66, 66)" stroke-width="1px" opacity="0.25"></line><line x1="233.33333333333334" y1="0" x2="233.33333333333334" y2="177" fill="rgb(0, 0, 0)" stroke="rgb(66, 66, 66)" stroke-width="1px" opacity="0.25"></line><line x1="256.66666666666663" y1="0" x2="256.66666666666663" y2="177" fill="rgb(0, 0, 0)" stroke="rgb(66, 66, 66)" stroke-width="1px" opacity="0.25"></line><line x1="280" y1="0" x2="280" y2="177" fill="rgb(0, 0, 0)" stroke="rgb(66, 66, 66)" stroke-width="1px" opacity="0.25"></line></g><g><line x1="0" y1="177" x2="280" y2="177" fill="rgb(0, 0, 0)" stroke="rgb(66, 66, 66)" stroke-width="1px" opacity="0.25"></line><line x1="0" y1="153.4" x2="280" y2="153.4" fill="rgb(0, 0, 0)" stroke="rgb(66, 66, 66)" stroke-width="1px" opacity="0.25"></line><line x1="0" y1="129.8" x2="280" y2="129.8" fill="rgb(0, 0, 0)" stroke="rgb(66, 66, 66)" stroke-width="1px" opacity="0.25"></line><line x1="0" y1="106.2" x2="280" y2="106.2" fill="rgb(0, 0, 0)" stroke="rgb(66, 66, 66)" stroke-width="1px" opacity="0.25"></line><line x1="0" y1="82.6" x2="280" y2="82.6" fill="rgb(0, 0, 0)" stroke="rgb(66, 66, 66)" stroke-width="1px" opacity="0.25"></line><line x1="0" y1="58.999999999999986" x2="280" y2="58.999999999999986" fill="rgb(0, 0, 0)" stroke="rgb(66, 66, 66)" stroke-width="1px" opacity="0.25"></line><line x1="0" y1="35.39999999999999" x2="280" y2="35.39999999999999" fill="rgb(0, 0, 0)" stroke="rgb(66, 66, 66)" stroke-width="1px" opacity="0.25"></line><line x1="0" y1="11.799999999999978" x2="280" y2="11.799999999999978" fill="rgb(0, 0, 0)" stroke="rgb(66, 66, 66)" stroke-width="1px" opacity="0.25"></line></g></g></g><g><g><line x1="0" y1="177" x2="280" y2="177" fill="rgb(0, 0, 0)" stroke="rgb(153, 153, 153)" stroke-width="1.5px"></line></g></g><g><g><line x1="23.333333333333332" y1="0" x2="23.333333333333332" y2="177" fill="rgb(0, 0, 0)" stroke="rgb(153, 153, 153)" stroke-width="1.5px"></line></g></g><g><g><g><g><g><path style="fill: none;" stroke="rgb(204, 51, 17)" stroke-width="2px" d="M23.333333333333332,2.904589891433716L24.5,3.000463217496872L25.666666666666664,3.6516175805305986L26.833333333333336,5.341019887696316L28,8.58052516202808L29.166666666666668,11.985294018168826L30.333333333333336,14.08058794287171L31.5,15.903575344492292L32.666666666666664,17.488410780983322L33.833333333333336,18.673296278484376L35,19.654240203655622L36.16666666666667,20.70737287393712L37.333333333333336,21.751997789028515L38.5,22.697069118190882L39.666666666666664,23.687124815472895L40.833333333333336,24.735532678492387L42,25.770956277383224L43.16666666666667,26.76241350964868L44.33333333333333,27.670753998088614L45.5,28.48738531757798L46.666666666666664,29.240246768760162L47.833333333333336,29.971219347499847L49,30.678384838196184L50.166666666666664,31.348293270619735L51.33333333333333,31.96121975749459L52.5,32.49651268818668L53.66666666666667,32.948866971575555L54.833333333333336,33.32485112882372L56,33.639863495884875L57.166666666666664,33.9136508383789L58.333333333333336,34.16391644688726L59.5,34.40268895030303L60.66666666666667,34.63704836891796L61.83333333333333,34.87101764471152L63,35.10657799047354L64.16666666666666,35.34448206552153L65.33333333333333,35.58508651481924L66.5,35.82880225884129L67.66666666666667,36.0760165166832L68.83333333333333,36.32683501944553L70,36.58118757212065L71.16666666666666,36.8389793075604L72.33333333333334,37.10033617250615L73.5,37.3656643023503L74.66666666666667,37.63560124581355L75.83333333333333,37.910962083030824L77,38.19275984651253L78.16666666666667,38.48226349048314L79.33333333333333,38.78104673917993L80.5,39.091056079246535L81.66666666666667,39.414602321732374L82.83333333333333,39.754485656231644L84,40.11404958332243L85.16666666666666,40.497188657311966L86.33333333333334,40.90836368190576L87.5,41.35256159417243L88.66666666666666,41.83529601164119L89.83333333333334,42.362597010537804L91,42.94123005986504L92.16666666666667,43.578834415199154L93.33333333333333,44.28402373833764L94.5,45.06617568518707L95.66666666666667,45.93474299064867L96.83333333333333,46.89818953485247L98,47.96317263252113L99.16666666666667,49.134608041087226L100.33333333333333,50.41586721589533L101.5,51.80812551170807L102.66666666666666,53.3097143864049L103.83333333333334,54.918117028201415L105,56.6366025100498L106.16666666666666,58.47715128006628L107.33333333333334,60.45662246073536L108.5,62.58990716889652L109.66666666666667,64.88085496398898L110.83333333333333,67.31257102473434L112,69.8917879437438L113.16666666666667,72.62119839042613L114.33333333333333,75.50519965559356L115.5,78.48468083423442L116.66666666666667,81.65882883240025L117.83333333333333,84.3420253143861L119,86.54626463330712L120.16666666666666,77.41610653684691L121.33333333333334,70.92385211876724L122.5,67.80870877082164L123.66666666666666,63.33481878265748L124.83333333333334,68.50710384979851L126,74.0811564382017L127.16666666666667,72.70309213734271L128.33333333333331,76.7654995437658L129.5,74.09726429678179L130.66666666666666,79.86291478095755L131.83333333333334,83.84046589147033L133,84.27166952378143L134.16666666666669,88.31426615528217L135.33333333333334,89.89092715389701L136.5,83.93691036586269L137.66666666666666,77.0213565318841L138.83333333333334,78.3197004728948L140,88.01321529945342L141.16666666666666,93.35794217348462L142.33333333333331,95.91475626802661L143.5,97.4616313515676L144.66666666666669,94.9831226073845L145.83333333333334,99.96583952922485L147,100.92036689769543L148.16666666666666,105.84267809063981L149.33333333333334,106.70616872352832L150.5,111.20921042706057L151.66666666666666,107.74662587133338L152.83333333333331,111.44794294886168L154,105.700239942386L155.16666666666669,109.85196133608474L156.33333333333334,110.99873321148665L157.5,117.62602624233313L158.66666666666666,117.47865864596216L159.83333333333331,119.20175777054696L161,116.62056776390594L162.16666666666669,118.08019081059767L163.33333333333334,119.89079858245654L164.5,123.96508952010991L165.66666666666666,127.526213365968L166.83333333333334,131.30360249768253L168,131.7295986836586L169.16666666666666,133.35125721844634L170.33333333333331,132.49708345742582L171.5,133.8856580210421L172.66666666666669,132.88125968889557L173.83333333333334,133.85023286888696L175,132.48628413051185L176.16666666666666,134.4531154535402L177.33333333333331,133.89249576343232L178.5,134.48748341925818L179.66666666666669,127.22750773863721L180.83333333333334,127.04443060658411L182,126.91535163701795L183.16666666666666,132.57594435978666L184.33333333333334,137.4893641624971L185.5,141.88994133199L186.66666666666666,145.60842340722527L187.83333333333331,148.1693590941122L189,150.83781040084904L190.16666666666669,153.0109218470606L191.33333333333334,154.32923960759356L192.5,155.7026530270226L193.66666666666666,156.2728649088411L194.83333333333331,157.1659150724809L196,156.67149506838328L197.16666666666669,154.34018514055734L198.33333333333334,150.3400802284403L199.5,134.99081989943522L200.66666666666666,134.27078738105024L201.83333333333334,126.22439665968251L203,121.35603783354182L204.16666666666666,120.46569958820953L205.33333333333331,108.89823778566723L206.5,119.55214513598088L207.66666666666669,109.58241099869133L208.83333333333334,124.02278375777554L210,132.67325721772286L211.16666666666666,140.82384145612582L212.33333333333331,146.67965881142058L213.5,151.3769417113843L214.66666666666669,154.68679961751596L215.83333333333334,157.21389401072676L217,159.02289837517986L218.16666666666666,160.37830551218184L219.33333333333334,161.29474263787978L220.5,161.93794227779338L221.66666666666666,162.26911843651789L222.83333333333331,162.05637854387913L224,160.67368815124365L225.16666666666669,158.02521801161964L226.33333333333334,150.99160007636667L227.5,149.61985792220187L228.66666666666666,150.74457353949876L229.83333333333331,153.70415350556573L231,156.39220146095872L232.16666666666669,159.015329805053L233.33333333333334,161.11323740007683L234.5,162.5014891932738L235.66666666666666,163.5470069503982L236.83333333333334,164.292848861587L238,164.79364348880765L239.16666666666666,165.14713632424068L240.33333333333331,165.2669408715331L241.5,165.16110803762456L242.66666666666669,164.14755994277823L243.83333333333334,161.8584841918804L245,159.51919652413474L246.16666666666666,156.5030134790608L247.33333333333331,158.27169752111845L248.5,159.48921531582363L249.66666666666669,161.32631737377935L250.83333333333334,162.76677890948469L252,164.21251062948713L253.16666666666666,165.11206480800635L254.33333333333334,165.95899066143946L255.5,166.4940201569421" fill="none"></path></g></g></g></g><g opacity="0.2"><g><g><g><path style="fill: none;" stroke="rgb(204, 51, 17)" stroke-width="2px" d="M23.333333333333332,2.904589891433716L24.5,3.0579872131347656L25.666666666666664,4.276725769042969L26.833333333333336,7.3277570009231505L28,12.810023248195641L29.166666666666668,16.695315062999725L30.333333333333336,17.076891779899583L31.5,18.56150847673416L32.666666666666664,19.82573521137237L33.833333333333336,20.43271315097809L35,21.116759002208696L36.16666666666667,22.281340777873993L37.333333333333336,23.31552428007125L38.5,24.112824618816376L39.666666666666664,25.17104458808899L40.833333333333336,26.307405054569237L42,27.32365351915358L43.16666666666667,28.249347627162926L44.33333333333333,29.033126354217515L45.5,29.712257653474794L46.666666666666664,30.36949765682219L47.833333333333336,31.067654162645333L49,31.739119112491608L50.166666666666664,32.35314798355102L51.33333333333333,32.88060513138771L52.5,33.29944980144499L53.66666666666667,33.62739723920821L54.833333333333336,33.88882678747176L56,34.11238175630568L57.166666666666664,34.324331700801835L58.333333333333336,34.539314776659L59.5,34.76084765791892L60.66666666666667,34.98858746886252L61.83333333333333,35.22197154164314L63,35.45991849899291L64.16666666666666,35.70133817195892L65.33333333333333,35.945993185043335L66.5,36.194375872611985L67.66666666666667,36.44683790206908L68.83333333333333,36.703062772750854L70,36.962716400623314L71.16666666666666,37.22566691040991L72.33333333333334,37.492371469736085L73.5,37.76365649700165L74.66666666666667,38.040506660938256L75.83333333333333,38.32400333881377L77,38.61545649170875L78.16666666666667,38.91651895642279L79.33333333333333,39.22922161221503L80.5,39.5560700893402L81.66666666666667,39.89992168545722L82.83333333333333,40.264310657978044L84,40.65339547395705L85.16666666666666,41.07189726829528L86.33333333333334,41.52512621879577L87.5,42.018858462572084L88.66666666666666,42.55939763784408L89.83333333333334,43.153548508882515L91,43.80917963385581L92.16666666666667,44.535240948200226L93.33333333333333,45.34180772304534L94.5,46.23940360546111L95.66666666666667,47.23759394884109L96.83333333333333,48.34335935115813L98,49.56064727902411L99.16666666666667,50.891761153936386L100.33333333333333,52.33775597810744L101.5,53.89651295542717L102.66666666666666,55.56209769845009L103.83333333333334,57.33072099089622L105,59.21433073282242L106.16666666666666,61.23797443509101L107.33333333333334,63.42582923173903L108.5,65.78983423113823L109.66666666666667,68.31727665662766L110.83333333333333,70.96014511585236L112,73.760613322258L113.16666666666667,76.7153140604496L114.33333333333333,79.83120155334473L115.5,82.95390260219574L116.66666666666667,86.42005082964896L117.83333333333333,88.36682003736495L119,89.85262361168861L120.16666666666666,63.720869392156594L121.33333333333334,61.18547049164772L122.5,63.13599374890326L123.66666666666666,56.623983800411224L124.83333333333334,76.26553145051003L126,82.4422353208065L127.16666666666667,70.63599568605423L128.33333333333331,82.85911065340042L129.5,70.09491142630577L130.66666666666666,88.51139050722122L131.83333333333334,89.80679255723952L133,84.91847497224808L134.16666666666669,94.37816110253334L135.33333333333334,92.25591865181923L136.5,75.00588518381119L137.66666666666666,66.64802578091621L138.83333333333334,80.26721638441086L140,102.55348753929137L141.16666666666666,101.3750324845314L142.33333333333331,99.74997740983962L143.5,99.7819439768791L144.66666666666669,91.26535949110983L145.83333333333334,107.43991491198538L147,102.3521579504013L148.16666666666666,113.22614488005638L149.33333333333334,108.0014046728611L150.5,117.96377298235892L151.66666666666666,102.5527490377426L152.83333333333331,116.99991856515408L154,97.07868543267249L155.16666666666669,116.07954342663288L156.33333333333334,112.71889102458954L157.5,127.56696578860283L158.66666666666666,117.2576072514057L159.83333333333331,121.78640645742416L161,112.7487827539444L162.16666666666669,120.26962538063525L163.33333333333334,122.60671024024487L164.5,130.07652592658997L165.66666666666666,132.86789913475513L166.83333333333334,136.96968619525433L168,132.36859296262264L169.16666666666666,135.78374502062798L170.33333333333331,131.21582281589508L171.5,135.96851986646652L172.66666666666669,131.37466219067574L173.83333333333334,135.30369263887405L175,130.44036102294922L176.16666666666666,137.4033624380827L177.33333333333331,133.05156622827053L178.5,135.37996490299702L179.66666666666669,116.33754421770573L180.83333333333334,126.76981490850449L182,126.72173318266869L183.16666666666666,141.0668334439397L184.33333333333334,144.85949386656284L185.5,148.49080708622932L186.66666666666666,151.18614652007818L187.83333333333331,152.01076262444258L189,154.84048736095428L190.16666666666669,156.27058901637793L191.33333333333334,156.30671624839306L192.5,157.76277315616608L193.66666666666666,157.1281827315688L194.83333333333331,158.5054903179407L196,155.9298650622368L197.16666666666669,150.8432202488184L198.33333333333334,144.33992286026478L199.5,111.96692940592764L200.66666666666666,133.1907386034727L201.83333333333334,114.154810577631L203,114.05349959433077L204.16666666666666,119.13019222021103L205.33333333333331,91.54704508185385L206.5,135.53300616145134L207.66666666666669,94.62780979275702L208.83333333333334,145.68334289640188L210,145.6489674076438L211.16666666666666,153.04971781373024L212.33333333333331,155.46338484436274L213.5,158.42286606132984L214.66666666666669,159.65158647671342L215.83333333333334,161.00453560054302L217,161.7364049218595L218.16666666666666,162.41141621768475L219.33333333333334,162.66939832642674L220.5,162.90274173766375L221.66666666666666,162.76588267460465L222.83333333333331,161.737268704921L224,158.59965256229043L225.16666666666669,154.05251280218363L226.33333333333334,140.4411731734872L227.5,147.56224469095469L228.66666666666666,152.4316469654441L229.83333333333331,158.14352345466614L231,160.4242733940482L232.16666666666669,162.9500223211944L233.33333333333334,164.26009879261255L234.5,164.58386688306928L235.66666666666666,165.11528358608484L236.83333333333334,165.4116117283702L238,165.54483542963862L239.16666666666666,165.6773755773902L240.33333333333331,165.44664769247174L241.5,165.00235878676176L242.66666666666669,162.62723780050874L243.83333333333334,158.42487056553364L245,156.01026502251625L246.16666666666666,151.9787389114499L247.33333333333331,160.9247235842049L248.5,161.3154920078814L249.66666666666669,164.0819704607129L250.83333333333334,164.92747121304274L252,166.38110820949078L253.16666666666666,166.46139607578516L254.33333333333334,167.22937944158912L255.5,167.29656440019608" fill="none"></path></g></g></g></g></g></g><g transform="translate(50, 177)" clip-path="url(#clip_1)"><clipPath id="clip_1"><rect width="280" height="23"></rect></clipPath><g><g><line x1="0" y1="0" x2="0" y2="5" style="visibility: inherit;" fill="rgb(0, 0, 0)" stroke="rgb(204, 204, 204)" stroke-width="1px"></line><line x1="23.333333333333332" y1="0" x2="23.333333333333332" y2="5" style="visibility: inherit;" fill="rgb(0, 0, 0)" stroke="rgb(204, 204, 204)" stroke-width="1px"></line><line x1="46.666666666666664" y1="0" x2="46.666666666666664" y2="5" style="visibility: inherit;" fill="rgb(0, 0, 0)" stroke="rgb(204, 204, 204)" stroke-width="1px"></line><line x1="70" y1="0" x2="70" y2="5" style="visibility: inherit;" fill="rgb(0, 0, 0)" stroke="rgb(204, 204, 204)" stroke-width="1px"></line><line x1="93.33333333333333" y1="0" x2="93.33333333333333" y2="5" style="visibility: inherit;" fill="rgb(0, 0, 0)" stroke="rgb(204, 204, 204)" stroke-width="1px"></line><line x1="116.66666666666667" y1="0" x2="116.66666666666667" y2="5" style="visibility: inherit;" fill="rgb(0, 0, 0)" stroke="rgb(204, 204, 204)" stroke-width="1px"></line><line x1="140" y1="0" x2="140" y2="5" style="visibility: inherit;" fill="rgb(0, 0, 0)" stroke="rgb(204, 204, 204)" stroke-width="1px"></line><line x1="163.33333333333334" y1="0" x2="163.33333333333334" y2="5" style="visibility: inherit;" fill="rgb(0, 0, 0)" stroke="rgb(204, 204, 204)" stroke-width="1px"></line><line x1="186.66666666666666" y1="0" x2="186.66666666666666" y2="5" style="visibility: inherit;" fill="rgb(0, 0, 0)" stroke="rgb(204, 204, 204)" stroke-width="1px"></line><line x1="210" y1="0" x2="210" y2="5" style="visibility: inherit;" fill="rgb(0, 0, 0)" stroke="rgb(204, 204, 204)" stroke-width="1px"></line><line x1="233.33333333333334" y1="0" x2="233.33333333333334" y2="5" style="visibility: inherit;" fill="rgb(0, 0, 0)" stroke="rgb(204, 204, 204)" stroke-width="1px"></line><line x1="256.66666666666663" y1="0" x2="256.66666666666663" y2="5" style="visibility: inherit;" fill="rgb(0, 0, 0)" stroke="rgb(204, 204, 204)" stroke-width="1px"></line><line x1="280" y1="0" x2="280" y2="5" style="visibility: inherit;" fill="rgb(0, 0, 0)" stroke="rgb(204, 204, 204)" stroke-width="1px"></line></g><g transform="translate(0, 8)"><text x="0" y="0" dx="0em" dy="0.95em" style="text-anchor: middle; visibility: hidden; font-family: Roboto, sans-serif; font-size: 12px; font-weight: 200;" fill="rgb(33, 33, 33)" stroke="none" stroke-width="1px">-20</text><text x="23.333333333333332" y="0" dx="0em" dy="0.95em" style="text-anchor: middle; visibility: inherit; font-family: Roboto, sans-serif; font-size: 12px; font-weight: 200;" fill="rgb(33, 33, 33)" stroke="none" stroke-width="1px">0</text><text x="46.666666666666664" y="0" dx="0em" dy="0.95em" style="text-anchor: middle; visibility: hidden; font-family: Roboto, sans-serif; font-size: 12px; font-weight: 200;" fill="rgb(33, 33, 33)" stroke="none" stroke-width="1px">20</text><text x="70" y="0" dx="0em" dy="0.95em" style="text-anchor: middle; visibility: inherit; font-family: Roboto, sans-serif; font-size: 12px; font-weight: 200;" fill="rgb(33, 33, 33)" stroke="none" stroke-width="1px">40</text><text x="93.33333333333333" y="0" dx="0em" dy="0.95em" style="text-anchor: middle; visibility: hidden; font-family: Roboto, sans-serif; font-size: 12px; font-weight: 200;" fill="rgb(33, 33, 33)" stroke="none" stroke-width="1px">60</text><text x="116.66666666666667" y="0" dx="0em" dy="0.95em" style="text-anchor: middle; visibility: inherit; font-family: Roboto, sans-serif; font-size: 12px; font-weight: 200;" fill="rgb(33, 33, 33)" stroke="none" stroke-width="1px">80</text><text x="140" y="0" dx="0em" dy="0.95em" style="text-anchor: middle; visibility: hidden; font-family: Roboto, sans-serif; font-size: 12px; font-weight: 200;" fill="rgb(33, 33, 33)" stroke="none" stroke-width="1px">100</text><text x="163.33333333333334" y="0" dx="0em" dy="0.95em" style="text-anchor: middle; visibility: inherit; font-family: Roboto, sans-serif; font-size: 12px; font-weight: 200;" fill="rgb(33, 33, 33)" stroke="none" stroke-width="1px">120</text><text x="186.66666666666666" y="0" dx="0em" dy="0.95em" style="text-anchor: middle; visibility: hidden; font-family: Roboto, sans-serif; font-size: 12px; font-weight: 200;" fill="rgb(33, 33, 33)" stroke="none" stroke-width="1px">140</text><text x="210" y="0" dx="0em" dy="0.95em" style="text-anchor: middle; visibility: inherit; font-family: Roboto, sans-serif; font-size: 12px; font-weight: 200;" fill="rgb(33, 33, 33)" stroke="none" stroke-width="1px">160</text><text x="233.33333333333334" y="0" dx="0em" dy="0.95em" style="text-anchor: middle; visibility: hidden; font-family: Roboto, sans-serif; font-size: 12px; font-weight: 200;" fill="rgb(33, 33, 33)" stroke="none" stroke-width="1px">180</text><text x="256.66666666666663" y="0" dx="0em" dy="0.95em" style="text-anchor: middle; visibility: inherit; font-family: Roboto, sans-serif; font-size: 12px; font-weight: 200;" fill="rgb(33, 33, 33)" stroke="none" stroke-width="1px">200</text><text x="280" y="0" dx="0em" dy="0.95em" style="text-anchor: middle; visibility: hidden; font-family: Roboto, sans-serif; font-size: 12px; font-weight: 200;" fill="rgb(33, 33, 33)" stroke="none" stroke-width="1px">220</text></g><line x1="0" y1="0" x2="280" y2="0" fill="rgb(0, 0, 0)" stroke="rgb(204, 204, 204)" stroke-width="1px"></line></g></g></g></g></svg>