<svg viewBox="0 0 301 200" xmlns="http://www.w3.org/2000/svg"><g><g><g><g><g><line x1="61.953125" y1="177" x2="56.953125" y2="177" style="visibility: inherit;" fill="rgb(0, 0, 0)" stroke="rgb(204, 204, 204)" stroke-width="1px"></line><line x1="61.953125" y1="163.3846153846154" x2="56.953125" y2="163.3846153846154" style="visibility: inherit;" fill="rgb(0, 0, 0)" stroke="rgb(204, 204, 204)" stroke-width="1px"></line><line x1="61.953125" y1="149.76923076923077" x2="56.953125" y2="149.76923076923077" style="visibility: inherit;" fill="rgb(0, 0, 0)" stroke="rgb(204, 204, 204)" stroke-width="1px"></line><line x1="61.953125" y1="136.15384615384616" x2="56.953125" y2="136.15384615384616" style="visibility: inherit;" fill="rgb(0, 0, 0)" stroke="rgb(204, 204, 204)" stroke-width="1px"></line><line x1="61.953125" y1="122.53846153846153" x2="56.953125" y2="122.53846153846153" style="visibility: inherit;" fill="rgb(0, 0, 0)" stroke="rgb(204, 204, 204)" stroke-width="1px"></line><line x1="61.953125" y1="108.92307692307693" x2="56.953125" y2="108.92307692307693" style="visibility: inherit;" fill="rgb(0, 0, 0)" stroke="rgb(204, 204, 204)" stroke-width="1px"></line><line x1="61.953125" y1="95.3076923076923" x2="56.953125" y2="95.3076923076923" style="visibility: inherit;" fill="rgb(0, 0, 0)" stroke="rgb(204, 204, 204)" stroke-width="1px"></line><line x1="61.953125" y1="81.6923076923077" x2="56.953125" y2="81.6923076923077" style="visibility: inherit;" fill="rgb(0, 0, 0)" stroke="rgb(204, 204, 204)" stroke-width="1px"></line><line x1="61.953125" y1="68.07692307692307" x2="56.953125" y2="68.07692307692307" style="visibility: inherit;" fill="rgb(0, 0, 0)" stroke="rgb(204, 204, 204)" stroke-width="1px"></line><line x1="61.953125" y1="54.46153846153847" x2="56.953125" y2="54.46153846153847" style="visibility: inherit;" fill="rgb(0, 0, 0)" stroke="rgb(204, 204, 204)" stroke-width="1px"></line><line x1="61.953125" y1="40.84615384615386" x2="56.953125" y2="40.84615384615386" style="visibility: inherit;" fill="rgb(0, 0, 0)" stroke="rgb(204, 204, 204)" stroke-width="1px"></line><line x1="61.953125" y1="27.230769230769234" x2="56.953125" y2="27.230769230769234" style="visibility: inherit;" fill="rgb(0, 0, 0)" stroke="rgb(204, 204, 204)" stroke-width="1px"></line><line x1="61.953125" y1="13.615384615384626" x2="56.953125" y2="13.615384615384626" style="visibility: inherit;" fill="rgb(0, 0, 0)" stroke="rgb(204, 204, 204)" stroke-width="1px"></line><line x1="61.953125" y1="0" x2="56.953125" y2="0" style="visibility: inherit;" fill="rgb(0, 0, 0)" stroke="rgb(204, 204, 204)" stroke-width="1px"></line></g><g transform="translate(51.953125, 0)"><text x="0" y="177" dx="0em" dy="0.3em" style="text-anchor: end; visibility: hidden; font-family: Roboto, sans-serif; font-size: 12px; font-weight: 200;" fill="rgb(33, 33, 33)" stroke="none" stroke-width="1px">-5e-3</text><text x="0" y="163.3846153846154" dx="0em" dy="0.3em" style="text-anchor: end; visibility: inherit; font-family: Roboto, sans-serif; font-size: 12px; font-weight: 200;" fill="rgb(33, 33, 33)" stroke="none" stroke-width="1px">0</text><text x="0" y="149.76923076923077" dx="0em" dy="0.3em" style="text-anchor: end; visibility: hidden; font-family: Roboto, sans-serif; font-size: 12px; font-weight: 200;" fill="rgb(33, 33, 33)" stroke="none" stroke-width="1px">5e-3</text><text x="0" y="136.15384615384616" dx="0em" dy="0.3em" style="text-anchor: end; visibility: inherit; font-family: Roboto, sans-serif; font-size: 12px; font-weight: 200;" fill="rgb(33, 33, 33)" stroke="none" stroke-width="1px">0.01</text><text x="0" y="122.53846153846153" dx="0em" dy="0.3em" style="text-anchor: end; visibility: hidden; font-family: Roboto, sans-serif; font-size: 12px; font-weight: 200;" fill="rgb(33, 33, 33)" stroke="none" stroke-width="1px">0.015</text><text x="0" y="108.92307692307693" dx="0em" dy="0.3em" style="text-anchor: end; visibility: inherit; font-family: Roboto, sans-serif; font-size: 12px; font-weight: 200;" fill="rgb(33, 33, 33)" stroke="none" stroke-width="1px">0.02</text><text x="0" y="95.3076923076923" dx="0em" dy="0.3em" style="text-anchor: end; visibility: hidden; font-family: Roboto, sans-serif; font-size: 12px; font-weight: 200;" fill="rgb(33, 33, 33)" stroke="none" stroke-width="1px">0.025</text><text x="0" y="81.6923076923077" dx="0em" dy="0.3em" style="text-anchor: end; visibility: inherit; font-family: Roboto, sans-serif; font-size: 12px; font-weight: 200;" fill="rgb(33, 33, 33)" stroke="none" stroke-width="1px">0.03</text><text x="0" y="68.07692307692307" dx="0em" dy="0.3em" style="text-anchor: end; visibility: hidden; font-family: Roboto, sans-serif; font-size: 12px; font-weight: 200;" fill="rgb(33, 33, 33)" stroke="none" stroke-width="1px">0.035</text><text x="0" y="54.46153846153847" dx="0em" dy="0.3em" style="text-anchor: end; visibility: inherit; font-family: Roboto, sans-serif; font-size: 12px; font-weight: 200;" fill="rgb(33, 33, 33)" stroke="none" stroke-width="1px">0.04</text><text x="0" y="40.84615384615386" dx="0em" dy="0.3em" style="text-anchor: end; visibility: hidden; font-family: Roboto, sans-serif; font-size: 12px; font-weight: 200;" fill="rgb(33, 33, 33)" stroke="none" stroke-width="1px">0.045</text><text x="0" y="27.230769230769234" dx="0em" dy="0.3em" style="text-anchor: end; visibility: inherit; font-family: Roboto, sans-serif; font-size: 12px; font-weight: 200;" fill="rgb(33, 33, 33)" stroke="none" stroke-width="1px">0.05</text><text x="0" y="13.615384615384626" dx="0em" dy="0.3em" style="text-anchor: end; visibility: hidden; font-family: Roboto, sans-serif; font-size: 12px; font-weight: 200;" fill="rgb(33, 33, 33)" stroke="none" stroke-width="1px">0.055</text><text x="0" y="0" dx="0em" dy="0.3em" style="text-anchor: end; visibility: hidden; font-family: Roboto, sans-serif; font-size: 12px; font-weight: 200;" fill="rgb(33, 33, 33)" stroke="none" stroke-width="1px">0.06</text></g><line x1="61.953125" y1="0" x2="61.953125" y2="177" fill="rgb(0, 0, 0)" stroke="rgb(204, 204, 204)" stroke-width="1px"></line></g></g><g transform="translate(61, 0)" clip-path="url(#clip_0)"><clipPath id="clip_0"><rect width="268" height="177"></rect></clipPath><g><g><g><line x1="0" y1="0" x2="0" y2="177" fill="rgb(0, 0, 0)" stroke="rgb(66, 66, 66)" stroke-width="1px" opacity="0.25"></line><line x1="22.337239583333332" y1="0" x2="22.337239583333332" y2="177" fill="rgb(0, 0, 0)" stroke="rgb(66, 66, 66)" stroke-width="1px" opacity="0.25"></line><line x1="44.674479166666664" y1="0" x2="44.674479166666664" y2="177" fill="rgb(0, 0, 0)" stroke="rgb(66, 66, 66)" stroke-width="1px" opacity="0.25"></line><line x1="67.01171875" y1="0" x2="67.01171875" y2="177" fill="rgb(0, 0, 0)" stroke="rgb(66, 66, 66)" stroke-width="1px" opacity="0.25"></line><line x1="89.34895833333333" y1="0" x2="89.34895833333333" y2="177" fill="rgb(0, 0, 0)" stroke="rgb(66, 66, 66)" stroke-width="1px" opacity="0.25"></line><line x1="111.68619791666667" y1="0" x2="111.68619791666667" y2="177" fill="rgb(0, 0, 0)" stroke="rgb(66, 66, 66)" stroke-width="1px" opacity="0.25"></line><line x1="134.0234375" y1="0" x2="134.0234375" y2="177" fill="rgb(0, 0, 0)" stroke="rgb(66, 66, 66)" stroke-width="1px" opacity="0.25"></line><line x1="156.36067708333334" y1="0" x2="156.36067708333334" y2="177" fill="rgb(0, 0, 0)" stroke="rgb(66, 66, 66)" stroke-width="1px" opacity="0.25"></line><line x1="178.69791666666666" y1="0" x2="178.69791666666666" y2="177" fill="rgb(0, 0, 0)" stroke="rgb(66, 66, 66)" stroke-width="1px" opacity="0.25"></line><line x1="201.03515625" y1="0" x2="201.03515625" y2="177" fill="rgb(0, 0, 0)" stroke="rgb(66, 66, 66)" stroke-width="1px" opacity="0.25"></line><line x1="223.37239583333334" y1="0" x2="223.37239583333334" y2="177" fill="rgb(0, 0, 0)" stroke="rgb(66, 66, 66)" stroke-width="1px" opacity="0.25"></line><line x1="245.70963541666666" y1="0" x2="245.70963541666666" y2="177" fill="rgb(0, 0, 0)" stroke="rgb(66, 66, 66)" stroke-width="1px" opacity="0.25"></line><line x1="268.046875" y1="0" x2="268.046875" y2="177" fill="rgb(0, 0, 0)" stroke="rgb(66, 66, 66)" stroke-width="1px" opacity="0.25"></line></g><g><line x1="0" y1="177" x2="268.046875" y2="177" fill="rgb(0, 0, 0)" stroke="rgb(66, 66, 66)" stroke-width="1px" opacity="0.25"></line><line x1="0" y1="163.3846153846154" x2="268.046875" y2="163.3846153846154" fill="rgb(0, 0, 0)" stroke="rgb(66, 66, 66)" stroke-width="1px" opacity="0.25"></line><line x1="0" y1="149.76923076923077" x2="268.046875" y2="149.76923076923077" fill="rgb(0, 0, 0)" stroke="rgb(66, 66, 66)" stroke-width="1px" opacity="0.25"></line><line x1="0" y1="136.15384615384616" x2="268.046875" y2="136.15384615384616" fill="rgb(0, 0, 0)" stroke="rgb(66, 66, 66)" stroke-width="1px" opacity="0.25"></line><line x1="0" y1="122.53846153846153" x2="268.046875" y2="122.53846153846153" fill="rgb(0, 0, 0)" stroke="rgb(66, 66, 66)" stroke-width="1px" opacity="0.25"></line><line x1="0" y1="108.92307692307693" x2="268.046875" y2="108.92307692307693" fill="rgb(0, 0, 0)" stroke="rgb(66, 66, 66)" stroke-width="1px" opacity="0.25"></line><line x1="0" y1="95.3076923076923" x2="268.046875" y2="95.3076923076923" fill="rgb(0, 0, 0)" stroke="rgb(66, 66, 66)" stroke-width="1px" opacity="0.25"></line><line x1="0" y1="81.6923076923077" x2="268.046875" y2="81.6923076923077" fill="rgb(0, 0, 0)" stroke="rgb(66, 66, 66)" stroke-width="1px" opacity="0.25"></line><line x1="0" y1="68.07692307692307" x2="268.046875" y2="68.07692307692307" fill="rgb(0, 0, 0)" stroke="rgb(66, 66, 66)" stroke-width="1px" opacity="0.25"></line><line x1="0" y1="54.46153846153847" x2="268.046875" y2="54.46153846153847" fill="rgb(0, 0, 0)" stroke="rgb(66, 66, 66)" stroke-width="1px" opacity="0.25"></line><line x1="0" y1="40.84615384615386" x2="268.046875" y2="40.84615384615386" fill="rgb(0, 0, 0)" stroke="rgb(66, 66, 66)" stroke-width="1px" opacity="0.25"></line><line x1="0" y1="27.230769230769234" x2="268.046875" y2="27.230769230769234" fill="rgb(0, 0, 0)" stroke="rgb(66, 66, 66)" stroke-width="1px" opacity="0.25"></line><line x1="0" y1="13.615384615384626" x2="268.046875" y2="13.615384615384626" fill="rgb(0, 0, 0)" stroke="rgb(66, 66, 66)" stroke-width="1px" opacity="0.25"></line><line x1="0" y1="0" x2="268.046875" y2="0" fill="rgb(0, 0, 0)" stroke="rgb(66, 66, 66)" stroke-width="1px" opacity="0.25"></line></g></g></g><g><g><line x1="0" y1="163.3846153846154" x2="268.046875" y2="163.3846153846154" fill="rgb(0, 0, 0)" stroke="rgb(153, 153, 153)" stroke-width="1.5px"></line></g></g><g><g><line x1="22.337239583333332" y1="0" x2="22.337239583333332" y2="177" fill="rgb(0, 0, 0)" stroke="rgb(153, 153, 153)" stroke-width="1.5px"></line></g></g><g><g><g><g><g><path stroke="rgb(204, 51, 17)" stroke-width="2px" d="M32.388997395833336,-30.797045034295422L33.505859375,16.781265251766737L34.62272135416667,49.58083966775853L35.739583333333336,72.8524000208527L36.8564453125,91.08142821589837L37.973307291666664,105.57479985293502L39.090169270833336,117.23531425027225L40.20703125,126.39891723454014L41.32389322916667,132.83741726729693L42.44075520833333,137.3377875586273L43.5576171875,140.62108764698317L44.674479166666664,143.39667062180382L45.791341145833336,145.8885987246671L46.908203125,148.16082188534958L48.025065104166664,150.1626833543386L49.14192708333333,151.80004617468026L50.2587890625,153.04821513026715L51.37565104166667,153.95497406627996L52.492513020833336,154.61924996036194L53.609375,155.14626180243894L54.726236979166664,155.5966054970158L55.843098958333336,155.9839011875748L56.9599609375,156.31414550201663L58.07682291666667,156.60405596780282L59.19368489583333,156.86478606352685L60.310546875,157.10007234539432L61.427408854166664,157.3161974549857L62.544270833333336,157.51794945937945L63.6611328125,157.7063399817755L64.77799479166667,157.88332315257756L65.89485677083333,158.05060617880437L67.01171875,158.20918967241772L68.12858072916666,158.3603101719687L69.24544270833334,158.50469336976613L70.3623046875,158.6429973475176L71.47916666666667,158.77579473225887L72.59602864583333,158.9036707870132L73.712890625,159.02717448250752L74.82975260416667,159.14687739519445L75.94661458333333,159.26329758609583L77.0634765625,159.37696767053478L78.18033854166667,159.48835874746985L79.29720052083333,159.59789143810383L80.4140625,159.70591106186768L81.53092447916666,159.81268364708183L82.64778645833334,159.9183666550849L83.7646484375,160.02296909735662L84.88151041666666,160.12626496503506L85.99837239583334,160.22759457538191L87.115234375,160.32552943389607L88.23209635416667,160.4174602779427L89.34895833333333,160.49915703533853L90.4658203125,160.56439105707705L91.58268229166667,160.60476589879067L92.69954427083333,160.60981651901568L93.81640625,160.56732126322353L94.93326822916667,160.4642119590012L96.05013020833333,160.2903278392617L97.1669921875,160.0480739609809L98.28385416666666,159.7639198621516L99.40071614583334,159.48367902245207L100.517578125,159.24577173651022L101.63444010416666,159.05784879724104L102.75130208333334,158.90164327127954L103.8681640625,158.7520549256833L104.98502604166667,158.58924986247837L106.10188802083333,158.4213713900837L107.21875,158.2416713044882L108.33561197916667,157.98288195815647L109.45247395833333,157.61254843179105L110.5693359375,157.22659853145402L111.68619791666667,156.82279719760052L112.80305989583333,155.75817336620065L113.919921875,153.0715096728184L115.03678385416666,146.58405052776664L116.15364583333334,146.89010597319415L117.2705078125,147.00010262207945L118.38736979166666,148.25734773706833L119.50423177083334,149.4474173135981L120.62109375,150.76759232106815L121.73795572916667,151.79374829836723L122.85481770833333,152.04531776173962L123.9716796875,153.1752994641353L125.08854166666667,153.19220685397642L126.20540364583333,152.65812687491257L127.322265625,146.73492530098028L128.43912760416669,145.65108712335552L129.55598958333334,145.79687214833572L130.6728515625,149.4861851328827L131.78971354166666,152.2157422977563L132.90657552083334,152.97272803445225L134.0234375,153.5812315560989L135.14029947916666,155.09056142570404L136.25716145833331,156.01567663479253L137.3740234375,157.36422319534043L138.49088541666669,156.55040458203237L139.60774739583334,157.42313677075572L140.724609375,155.6352581209471L141.84147135416666,155.45661740948324L142.95833333333334,153.12588318361426L144.0751953125,152.0202260505725L145.19205729166666,147.7160906523026L146.30891927083331,144.97656016090392L147.42578125,139.35860186792584L148.54264322916669,133.61515836335295L149.65950520833334,128.43275338843327L150.7763671875,129.06297978949235L151.89322916666666,134.21730237258944L153.01009114583331,139.57846768725156L154.126953125,145.2019315039846L155.24381510416669,149.3172043881028L156.36067708333334,153.0844084772099L157.4775390625,155.34535670422213L158.59440104166666,156.8332646664714L159.71126302083334,156.99582427968224L160.828125,156.88776953471867L161.94498697916666,156.5744552627853L163.06184895833331,156.45365258812203L164.1787109375,156.1280597217362L165.29557291666669,156.3065884170154L166.41243489583334,156.36645167931388L167.529296875,156.27875431735382L168.64615885416666,155.31770392772916L169.76302083333331,155.01650281725054L170.8798828125,155.03444540773924L171.99674479166669,154.98920277125617L173.11360677083334,155.29450106684783L174.23046875,156.4761124547972L175.34733072916666,156.47150305369266L176.46419270833334,157.72785326215006L177.5810546875,158.90404011677245L178.69791666666666,160.02537282383133L179.81477864583331,160.83664136165734L180.931640625,161.30708425031105L182.04850260416669,161.69394264290648L183.16536458333334,161.87733848148937L184.2822265625,162.01262556688874L185.39908854166666,162.00946323005607L186.51595052083331,162.09285844553193L187.6328125,161.85323026180973L188.74967447916669,161.3126661318239L189.86653645833334,159.24068098390356L190.9833984375,154.63204932160804L192.10026041666666,152.57968358354807L193.21712239583334,150.62093141344488L194.333984375,151.37201625942035L195.45084635416666,152.71644652819631L196.56770833333331,154.21369645746532L197.6845703125,155.28385555418674L198.80143229166669,153.91827901211633L199.91829427083334,153.24088464899444L201.03515625,155.63562587022508L202.15201822916666,157.6597265526911L203.26888020833331,159.26882220565534L204.3857421875,160.44059333209307L205.50260416666669,161.32582775418444L206.61946614583334,161.8152621538081L207.736328125,162.10584334737058L208.85319010416666,162.27853775790524L209.97005208333334,162.3881710869162L211.0869140625,162.4165276705028L212.20377604166666,162.3298454278251L213.32063802083331,161.94275882030806L214.4375,160.842645804972L215.55436197916669,158.51927051052803L216.67122395833334,153.73704917413437L217.7880859375,151.55382843859917L218.90494791666666,151.84411777389647L220.02180989583331,153.95955428278162L221.138671875,156.54040597059716L222.25553385416669,158.42008262160894L223.37239583333334,159.81407803374307L224.4892578125,160.8454544624651L225.60611979166666,161.5157109484408L226.72298177083334,161.97771992138212L227.83984375,162.27646464306207L228.95670572916666,162.4245331649655L230.07356770833331,162.4379190172505L231.1904296875,162.27595768608907L232.30729166666669,161.60791811236848L233.42415364583334,159.9400372181069L234.541015625,157.99397217377336L235.65787760416666,155.67862895538076L236.77473958333331,155.60947247901817L237.8916015625,156.57189891734737L239.00846354166669,157.79491114140117L240.12532552083334,159.12348041125438L241.2421875,160.18763193788055L242.35904947916666,161.08212414944975L243.47591145833334,161.62461393656008L244.5927734375,162.04381375203877" style="fill: none;" fill="none"></path></g></g></g></g><g opacity="0.2"><g><g><g><path stroke="rgb(204, 51, 17)" stroke-width="2px" d="M27.921549479166668,-93.32016633565611L29.038411458333336,13.739206167367804L30.1552734375,50.97287175288569L31.272135416666668,59.65797458245204L32.388997395833336,77.8316557246905L33.505859375,87.71719890832902L34.62272135416667,98.60170745620361L35.739583333333336,107.68375486823228L36.8564453125,118.38925794454721L37.973307291666664,127.2978208941909L39.090169270833336,134.717861948105L40.20703125,140.14044398126694L41.32389322916667,142.49353258197124L42.44075520833333,144.0876574095052L43.5576171875,145.54573767288375L44.674479166666664,147.559892864468L45.791341145833336,149.62640888100634L46.908203125,151.56911176529067L48.025065104166664,153.16545184386464L49.14192708333333,154.25607876751857L50.2587890625,154.92046324077708L51.37565104166667,155.31511015015153L52.492513020833336,155.61566278166495L53.609375,155.93677908010207L54.726236979166664,156.27212078998295L55.843098958333336,156.5648445949818L56.9599609375,156.80951190797182L58.07682291666667,157.03892163187265L59.19368489583333,157.25588118843734L60.310546875,157.4530017580837L61.427408854166664,157.6403851137998L62.544270833333336,157.82057746284855L63.6611328125,157.98892576362078L64.77799479166667,158.1487979077949L65.89485677083333,158.3015307175855L67.01171875,158.44706491251978L68.12858072916666,158.58699092111337L69.24544270833334,158.72126816635807L70.3623046875,158.85045331408483L71.47916666666667,158.9749908093363L72.59602864583333,159.0954848691248L73.712890625,159.21243002573746L74.82975260416667,159.32643176421809L75.94661458333333,159.437927872444L77.0634765625,159.54747279719092L78.18033854166667,159.6554453628711L79.29720052083333,159.762190474054L80.4140625,159.867940497513L81.53092447916666,159.97284252490275L82.64778645833334,160.07689116708934L83.7646484375,160.1798727607641L84.88151041666666,160.28120876655268L85.99837239583334,160.3795889909021L87.115234375,160.47243172166725L88.23209635416667,160.55535654401262L89.34895833333333,160.62170217143228L90.4658203125,160.66224208968478L91.58268229166667,160.66532816136112L92.69954427083333,160.61739244935316L93.81640625,160.50357837953533L94.93326822916667,160.30954800266773L96.05013020833333,160.02950165965237L97.1669921875,159.68469314355977L98.28385416666666,159.33768871390762L99.40071614583334,159.06331776290273L100.517578125,158.8889108075975L101.63444010416666,158.77596438833726L102.75130208333334,158.66733498233728L103.8681640625,158.52767240728897L104.98502604166667,158.345042267671L106.10188802083333,158.16955368149166L107.21875,157.97212117609496L108.33561197916667,157.59469793865887L109.45247395833333,157.0570481422429L110.5693359375,156.64767368094851L111.68619791666667,156.21709519682022L112.80305989583333,154.16123761910086L113.919921875,149.041514132745L115.03678385416666,136.852861810189L116.15364583333334,147.3491891413354L117.2705078125,147.16509759540742L118.38736979166666,150.1432154095517L119.50423177083334,151.23252167839271L120.62109375,152.74785483227325L121.73795572916667,153.33298226431583L122.85481770833333,152.42267195679818L123.9716796875,154.8702720177288L125.08854166666667,153.21756793873814L126.20540364583333,151.85700690631683L127.322265625,137.85012294008183L128.43912760416669,144.0253298569184L129.55598958333334,146.01554968580604L130.6728515625,155.0201546097031L131.78971354166666,156.31007804506672L132.90657552083334,154.1082066394962L134.0234375,154.49398683856887L135.14029947916666,157.35455623011177L136.25716145833331,157.40334944842527L137.3740234375,159.38704303616228L138.49088541666669,155.32967666207026L139.60774739583334,158.73223505384075L140.724609375,152.95344014623416L141.84147135416666,155.1886563422875L142.95833333333334,149.6297818448108L144.0751953125,150.36174035100984L145.19205729166666,141.25988755489772L146.30891927083331,140.86726442380595L147.42578125,130.93166442845876L148.54264322916669,124.99999310649359L149.65950520833334,120.6591459260537L150.7763671875,130.008319391081L151.89322916666666,141.94878624723506L153.01009114583331,147.6202156592447L154.126953125,153.6371272290842L155.24381510416669,155.49011371428003L156.36067708333334,158.73521461087066L157.4775390625,158.73677904474047L158.59440104166666,159.06512660984524L159.71126302083334,157.23966369949855L160.828125,156.72568741727335L161.94498697916666,156.10448385488527L163.06184895833331,156.27244857612712L164.1787109375,155.6396704221574L165.29557291666669,156.57438145993422L166.41243489583334,156.4562465727616L167.529296875,156.14720827441377L168.64615885416666,153.87612834329215L169.76302083333331,154.56470115153263L170.8798828125,155.0613592934723L171.99674479166669,154.92133881653157L173.11360677083334,155.75244851023533L174.23046875,158.24852953672124L175.34733072916666,156.46458895203585L176.46419270833334,159.61237857483613L177.5810546875,160.66832039870607L178.69791666666666,161.70737188441964L179.81477864583331,162.05354416839634L180.931640625,162.0127485832916L182.04850260416669,162.2742302317996L183.16536458333334,162.1524322393637L184.2822265625,162.21555619498787L185.39908854166666,162.00471972480702L186.51595052083331,162.21795126874574L187.6328125,161.49378798622638L188.74967447916669,160.50181993684518L189.86653645833334,156.13270326202306L190.9833984375,147.71910182816478L192.10026041666666,149.50113497645808L193.21712239583334,147.6828031582901L194.333984375,152.4986435283835L195.45084635416666,154.73309193136026L196.56770833333331,156.45957135136885L197.6845703125,156.88909419926887L198.80143229166669,151.86991419901068L199.91829427083334,152.22479310431157L201.03515625,159.2277377020711L202.15201822916666,160.69587757639013L203.26888020833331,161.68246568510165L204.3857421875,162.1982500217497L205.50260416666669,162.65367938732155L206.61946614583334,162.54941375324358L207.736328125,162.54171513771425L208.85319010416666,162.53757937370727L209.97005208333334,162.55262108043266L211.0869140625,162.4590625458827L212.20377604166666,162.19982206380854L213.32063802083331,161.36212890903252L214.4375,159.19247628196788L215.55436197916669,155.03420756886212L216.67122395833334,146.56371716954385L217.7880859375,148.2789973352964L218.90494791666666,152.27955177684242L220.02180989583331,157.13270904610937L221.138671875,160.41168350232047L222.25553385416669,161.23959759812658L223.37239583333334,161.9050711519443L224.4892578125,162.3925191055482L225.60611979166666,162.5210956774043L226.72298177083334,162.6707333807941L227.83984375,162.72458172558197L228.95670572916666,162.64663594782067L230.07356770833331,162.45799779567795L231.1904296875,162.03301568934694L232.30729166666669,160.6058587517876L233.42415364583334,157.43821587671454L234.541015625,155.07487460727302L235.65787760416666,152.20561412779185L236.77473958333331,155.50573776447428L237.8916015625,158.01553857484114L239.00846354166669,159.6294294774819L240.12532552083334,161.11633431603414L241.2421875,161.7838592278198L242.35904947916666,162.42386246680354L243.47591145833334,162.4383486172256L244.5927734375,162.6726134752568" style="fill: none;" fill="none"></path></g></g></g></g></g></g><g transform="translate(61, 177)" clip-path="url(#clip_1)"><clipPath id="clip_1"><rect width="268" height="23"></rect></clipPath><g><g><line x1="0" y1="0" x2="0" y2="5" style="visibility: inherit;" fill="rgb(0, 0, 0)" stroke="rgb(204, 204, 204)" stroke-width="1px"></line><line x1="22.337239583333332" y1="0" x2="22.337239583333332" y2="5" style="visibility: inherit;" fill="rgb(0, 0, 0)" stroke="rgb(204, 204, 204)" stroke-width="1px"></line><line x1="44.674479166666664" y1="0" x2="44.674479166666664" y2="5" style="visibility: inherit;" fill="rgb(0, 0, 0)" stroke="rgb(204, 204, 204)" stroke-width="1px"></line><line x1="67.01171875" y1="0" x2="67.01171875" y2="5" style="visibility: inherit;" fill="rgb(0, 0, 0)" stroke="rgb(204, 204, 204)" stroke-width="1px"></line><line x1="89.34895833333333" y1="0" x2="89.34895833333333" y2="5" style="visibility: inherit;" fill="rgb(0, 0, 0)" stroke="rgb(204, 204, 204)" stroke-width="1px"></line><line x1="111.68619791666667" y1="0" x2="111.68619791666667" y2="5" style="visibility: inherit;" fill="rgb(0, 0, 0)" stroke="rgb(204, 204, 204)" stroke-width="1px"></line><line x1="134.0234375" y1="0" x2="134.0234375" y2="5" style="visibility: inherit;" fill="rgb(0, 0, 0)" stroke="rgb(204, 204, 204)" stroke-width="1px"></line><line x1="156.36067708333334" y1="0" x2="156.36067708333334" y2="5" style="visibility: inherit;" fill="rgb(0, 0, 0)" stroke="rgb(204, 204, 204)" stroke-width="1px"></line><line x1="178.69791666666666" y1="0" x2="178.69791666666666" y2="5" style="visibility: inherit;" fill="rgb(0, 0, 0)" stroke="rgb(204, 204, 204)" stroke-width="1px"></line><line x1="201.03515625" y1="0" x2="201.03515625" y2="5" style="visibility: inherit;" fill="rgb(0, 0, 0)" stroke="rgb(204, 204, 204)" stroke-width="1px"></line><line x1="223.37239583333334" y1="0" x2="223.37239583333334" y2="5" style="visibility: inherit;" fill="rgb(0, 0, 0)" stroke="rgb(204, 204, 204)" stroke-width="1px"></line><line x1="245.70963541666666" y1="0" x2="245.70963541666666" y2="5" style="visibility: inherit;" fill="rgb(0, 0, 0)" stroke="rgb(204, 204, 204)" stroke-width="1px"></line><line x1="268.046875" y1="0" x2="268.046875" y2="5" style="visibility: inherit;" fill="rgb(0, 0, 0)" stroke="rgb(204, 204, 204)" stroke-width="1px"></line></g><g transform="translate(0, 8)"><text x="0" y="0" dx="0em" dy="0.95em" style="text-anchor: middle; visibility: hidden; font-family: Roboto, sans-serif; font-size: 12px; font-weight: 200;" fill="rgb(33, 33, 33)" stroke="none" stroke-width="1px">-20</text><text x="22.337239583333332" y="0" dx="0em" dy="0.95em" style="text-anchor: middle; visibility: inherit; font-family: Roboto, sans-serif; font-size: 12px; font-weight: 200;" fill="rgb(33, 33, 33)" stroke="none" stroke-width="1px">0</text><text x="44.674479166666664" y="0" dx="0em" dy="0.95em" style="text-anchor: middle; visibility: hidden; font-family: Roboto, sans-serif; font-size: 12px; font-weight: 200;" fill="rgb(33, 33, 33)" stroke="none" stroke-width="1px">20</text><text x="67.01171875" y="0" dx="0em" dy="0.95em" style="text-anchor: middle; visibility: inherit; font-family: Roboto, sans-serif; font-size: 12px; font-weight: 200;" fill="rgb(33, 33, 33)" stroke="none" stroke-width="1px">40</text><text x="89.34895833333333" y="0" dx="0em" dy="0.95em" style="text-anchor: middle; visibility: hidden; font-family: Roboto, sans-serif; font-size: 12px; font-weight: 200;" fill="rgb(33, 33, 33)" stroke="none" stroke-width="1px">60</text><text x="111.68619791666667" y="0" dx="0em" dy="0.95em" style="text-anchor: middle; visibility: inherit; font-family: Roboto, sans-serif; font-size: 12px; font-weight: 200;" fill="rgb(33, 33, 33)" stroke="none" stroke-width="1px">80</text><text x="134.0234375" y="0" dx="0em" dy="0.95em" style="text-anchor: middle; visibility: hidden; font-family: Roboto, sans-serif; font-size: 12px; font-weight: 200;" fill="rgb(33, 33, 33)" stroke="none" stroke-width="1px">100</text><text x="156.36067708333334" y="0" dx="0em" dy="0.95em" style="text-anchor: middle; visibility: inherit; font-family: Roboto, sans-serif; font-size: 12px; font-weight: 200;" fill="rgb(33, 33, 33)" stroke="none" stroke-width="1px">120</text><text x="178.69791666666666" y="0" dx="0em" dy="0.95em" style="text-anchor: middle; visibility: hidden; font-family: Roboto, sans-serif; font-size: 12px; font-weight: 200;" fill="rgb(33, 33, 33)" stroke="none" stroke-width="1px">140</text><text x="201.03515625" y="0" dx="0em" dy="0.95em" style="text-anchor: middle; visibility: inherit; font-family: Roboto, sans-serif; font-size: 12px; font-weight: 200;" fill="rgb(33, 33, 33)" stroke="none" stroke-width="1px">160</text><text x="223.37239583333334" y="0" dx="0em" dy="0.95em" style="text-anchor: middle; visibility: hidden; font-family: Roboto, sans-serif; font-size: 12px; font-weight: 200;" fill="rgb(33, 33, 33)" stroke="none" stroke-width="1px">180</text><text x="245.70963541666666" y="0" dx="0em" dy="0.95em" style="text-anchor: middle; visibility: inherit; font-family: Roboto, sans-serif; font-size: 12px; font-weight: 200;" fill="rgb(33, 33, 33)" stroke="none" stroke-width="1px">200</text><text x="268.046875" y="0" dx="0em" dy="0.95em" style="text-anchor: middle; visibility: hidden; font-family: Roboto, sans-serif; font-size: 12px; font-weight: 200;" fill="rgb(33, 33, 33)" stroke="none" stroke-width="1px">220</text></g><line x1="0" y1="0" x2="268.046875" y2="0" fill="rgb(0, 0, 0)" stroke="rgb(204, 204, 204)" stroke-width="1px"></line></g></g></g></g></svg>