<svg viewBox="0 0 301 200" xmlns="http://www.w3.org/2000/svg"><g><g><g><g><g><line x1="51.5625" y1="177" x2="46.5625" y2="177" style="visibility: inherit;" fill="rgb(0, 0, 0)" stroke="rgb(204, 204, 204)" stroke-width="1px"></line><line x1="51.5625" y1="162.25" x2="46.5625" y2="162.25" style="visibility: inherit;" fill="rgb(0, 0, 0)" stroke="rgb(204, 204, 204)" stroke-width="1px"></line><line x1="51.5625" y1="147.5" x2="46.5625" y2="147.5" style="visibility: inherit;" fill="rgb(0, 0, 0)" stroke="rgb(204, 204, 204)" stroke-width="1px"></line><line x1="51.5625" y1="132.75" x2="46.5625" y2="132.75" style="visibility: inherit;" fill="rgb(0, 0, 0)" stroke="rgb(204, 204, 204)" stroke-width="1px"></line><line x1="51.5625" y1="118" x2="46.5625" y2="118" style="visibility: inherit;" fill="rgb(0, 0, 0)" stroke="rgb(204, 204, 204)" stroke-width="1px"></line><line x1="51.5625" y1="103.24999999999999" x2="46.5625" y2="103.24999999999999" style="visibility: inherit;" fill="rgb(0, 0, 0)" stroke="rgb(204, 204, 204)" stroke-width="1px"></line><line x1="51.5625" y1="88.5" x2="46.5625" y2="88.5" style="visibility: inherit;" fill="rgb(0, 0, 0)" stroke="rgb(204, 204, 204)" stroke-width="1px"></line><line x1="51.5625" y1="73.75" x2="46.5625" y2="73.75" style="visibility: inherit;" fill="rgb(0, 0, 0)" stroke="rgb(204, 204, 204)" stroke-width="1px"></line><line x1="51.5625" y1="58.999999999999986" x2="46.5625" y2="58.999999999999986" style="visibility: inherit;" fill="rgb(0, 0, 0)" stroke="rgb(204, 204, 204)" stroke-width="1px"></line><line x1="51.5625" y1="44.25" x2="46.5625" y2="44.25" style="visibility: inherit;" fill="rgb(0, 0, 0)" stroke="rgb(204, 204, 204)" stroke-width="1px"></line><line x1="51.5625" y1="29.499999999999993" x2="46.5625" y2="29.499999999999993" style="visibility: inherit;" fill="rgb(0, 0, 0)" stroke="rgb(204, 204, 204)" stroke-width="1px"></line><line x1="51.5625" y1="14.749999999999988" x2="46.5625" y2="14.749999999999988" style="visibility: inherit;" fill="rgb(0, 0, 0)" stroke="rgb(204, 204, 204)" stroke-width="1px"></line><line x1="51.5625" y1="0" x2="46.5625" y2="0" style="visibility: inherit;" fill="rgb(0, 0, 0)" stroke="rgb(204, 204, 204)" stroke-width="1px"></line></g><g transform="translate(41.5625, 0)"><text x="0" y="177" dx="0em" dy="0.3em" style="text-anchor: end; visibility: hidden; font-family: Roboto, sans-serif; font-size: 12px; font-weight: 200;" fill="rgb(33, 33, 33)" stroke="none" stroke-width="1px">0</text><text x="0" y="162.25" dx="0em" dy="0.3em" style="text-anchor: end; visibility: inherit; font-family: Roboto, sans-serif; font-size: 12px; font-weight: 200;" fill="rgb(33, 33, 33)" stroke="none" stroke-width="1px">0.02</text><text x="0" y="147.5" dx="0em" dy="0.3em" style="text-anchor: end; visibility: hidden; font-family: Roboto, sans-serif; font-size: 12px; font-weight: 200;" fill="rgb(33, 33, 33)" stroke="none" stroke-width="1px">0.04</text><text x="0" y="132.75" dx="0em" dy="0.3em" style="text-anchor: end; visibility: inherit; font-family: Roboto, sans-serif; font-size: 12px; font-weight: 200;" fill="rgb(33, 33, 33)" stroke="none" stroke-width="1px">0.06</text><text x="0" y="118" dx="0em" dy="0.3em" style="text-anchor: end; visibility: hidden; font-family: Roboto, sans-serif; font-size: 12px; font-weight: 200;" fill="rgb(33, 33, 33)" stroke="none" stroke-width="1px">0.08</text><text x="0" y="103.24999999999999" dx="0em" dy="0.3em" style="text-anchor: end; visibility: inherit; font-family: Roboto, sans-serif; font-size: 12px; font-weight: 200;" fill="rgb(33, 33, 33)" stroke="none" stroke-width="1px">0.1</text><text x="0" y="88.5" dx="0em" dy="0.3em" style="text-anchor: end; visibility: hidden; font-family: Roboto, sans-serif; font-size: 12px; font-weight: 200;" fill="rgb(33, 33, 33)" stroke="none" stroke-width="1px">0.12</text><text x="0" y="73.75" dx="0em" dy="0.3em" style="text-anchor: end; visibility: inherit; font-family: Roboto, sans-serif; font-size: 12px; font-weight: 200;" fill="rgb(33, 33, 33)" stroke="none" stroke-width="1px">0.14</text><text x="0" y="58.999999999999986" dx="0em" dy="0.3em" style="text-anchor: end; visibility: hidden; font-family: Roboto, sans-serif; font-size: 12px; font-weight: 200;" fill="rgb(33, 33, 33)" stroke="none" stroke-width="1px">0.16</text><text x="0" y="44.25" dx="0em" dy="0.3em" style="text-anchor: end; visibility: inherit; font-family: Roboto, sans-serif; font-size: 12px; font-weight: 200;" fill="rgb(33, 33, 33)" stroke="none" stroke-width="1px">0.18</text><text x="0" y="29.499999999999993" dx="0em" dy="0.3em" style="text-anchor: end; visibility: hidden; font-family: Roboto, sans-serif; font-size: 12px; font-weight: 200;" fill="rgb(33, 33, 33)" stroke="none" stroke-width="1px">0.2</text><text x="0" y="14.749999999999988" dx="0em" dy="0.3em" style="text-anchor: end; visibility: inherit; font-family: Roboto, sans-serif; font-size: 12px; font-weight: 200;" fill="rgb(33, 33, 33)" stroke="none" stroke-width="1px">0.22</text><text x="0" y="0" dx="0em" dy="0.3em" style="text-anchor: end; visibility: hidden; font-family: Roboto, sans-serif; font-size: 12px; font-weight: 200;" fill="rgb(33, 33, 33)" stroke="none" stroke-width="1px">0.24</text></g><line x1="51.5625" y1="0" x2="51.5625" y2="177" fill="rgb(0, 0, 0)" stroke="rgb(204, 204, 204)" stroke-width="1px"></line></g></g><g transform="translate(51, 0)" clip-path="url(#clip_0)"><clipPath id="clip_0"><rect width="278" height="177"></rect></clipPath><g><g><g><line x1="0" y1="0" x2="0" y2="177" fill="rgb(0, 0, 0)" stroke="rgb(66, 66, 66)" stroke-width="1px" opacity="0.25"></line><line x1="23.203125" y1="0" x2="23.203125" y2="177" fill="rgb(0, 0, 0)" stroke="rgb(66, 66, 66)" stroke-width="1px" opacity="0.25"></line><line x1="46.40625" y1="0" x2="46.40625" y2="177" fill="rgb(0, 0, 0)" stroke="rgb(66, 66, 66)" stroke-width="1px" opacity="0.25"></line><line x1="69.609375" y1="0" x2="69.609375" y2="177" fill="rgb(0, 0, 0)" stroke="rgb(66, 66, 66)" stroke-width="1px" opacity="0.25"></line><line x1="92.8125" y1="0" x2="92.8125" y2="177" fill="rgb(0, 0, 0)" stroke="rgb(66, 66, 66)" stroke-width="1px" opacity="0.25"></line><line x1="116.015625" y1="0" x2="116.015625" y2="177" fill="rgb(0, 0, 0)" stroke="rgb(66, 66, 66)" stroke-width="1px" opacity="0.25"></line><line x1="139.21875" y1="0" x2="139.21875" y2="177" fill="rgb(0, 0, 0)" stroke="rgb(66, 66, 66)" stroke-width="1px" opacity="0.25"></line><line x1="162.421875" y1="0" x2="162.421875" y2="177" fill="rgb(0, 0, 0)" stroke="rgb(66, 66, 66)" stroke-width="1px" opacity="0.25"></line><line x1="185.625" y1="0" x2="185.625" y2="177" fill="rgb(0, 0, 0)" stroke="rgb(66, 66, 66)" stroke-width="1px" opacity="0.25"></line><line x1="208.828125" y1="0" x2="208.828125" y2="177" fill="rgb(0, 0, 0)" stroke="rgb(66, 66, 66)" stroke-width="1px" opacity="0.25"></line><line x1="232.03125" y1="0" x2="232.03125" y2="177" fill="rgb(0, 0, 0)" stroke="rgb(66, 66, 66)" stroke-width="1px" opacity="0.25"></line><line x1="255.234375" y1="0" x2="255.234375" y2="177" fill="rgb(0, 0, 0)" stroke="rgb(66, 66, 66)" stroke-width="1px" opacity="0.25"></line><line x1="278.4375" y1="0" x2="278.4375" y2="177" fill="rgb(0, 0, 0)" stroke="rgb(66, 66, 66)" stroke-width="1px" opacity="0.25"></line></g><g><line x1="0" y1="177" x2="278.4375" y2="177" fill="rgb(0, 0, 0)" stroke="rgb(66, 66, 66)" stroke-width="1px" opacity="0.25"></line><line x1="0" y1="162.25" x2="278.4375" y2="162.25" fill="rgb(0, 0, 0)" stroke="rgb(66, 66, 66)" stroke-width="1px" opacity="0.25"></line><line x1="0" y1="147.5" x2="278.4375" y2="147.5" fill="rgb(0, 0, 0)" stroke="rgb(66, 66, 66)" stroke-width="1px" opacity="0.25"></line><line x1="0" y1="132.75" x2="278.4375" y2="132.75" fill="rgb(0, 0, 0)" stroke="rgb(66, 66, 66)" stroke-width="1px" opacity="0.25"></line><line x1="0" y1="118" x2="278.4375" y2="118" fill="rgb(0, 0, 0)" stroke="rgb(66, 66, 66)" stroke-width="1px" opacity="0.25"></line><line x1="0" y1="103.24999999999999" x2="278.4375" y2="103.24999999999999" fill="rgb(0, 0, 0)" stroke="rgb(66, 66, 66)" stroke-width="1px" opacity="0.25"></line><line x1="0" y1="88.5" x2="278.4375" y2="88.5" fill="rgb(0, 0, 0)" stroke="rgb(66, 66, 66)" stroke-width="1px" opacity="0.25"></line><line x1="0" y1="73.75" x2="278.4375" y2="73.75" fill="rgb(0, 0, 0)" stroke="rgb(66, 66, 66)" stroke-width="1px" opacity="0.25"></line><line x1="0" y1="58.999999999999986" x2="278.4375" y2="58.999999999999986" fill="rgb(0, 0, 0)" stroke="rgb(66, 66, 66)" stroke-width="1px" opacity="0.25"></line><line x1="0" y1="44.25" x2="278.4375" y2="44.25" fill="rgb(0, 0, 0)" stroke="rgb(66, 66, 66)" stroke-width="1px" opacity="0.25"></line><line x1="0" y1="29.499999999999993" x2="278.4375" y2="29.499999999999993" fill="rgb(0, 0, 0)" stroke="rgb(66, 66, 66)" stroke-width="1px" opacity="0.25"></line><line x1="0" y1="14.749999999999988" x2="278.4375" y2="14.749999999999988" fill="rgb(0, 0, 0)" stroke="rgb(66, 66, 66)" stroke-width="1px" opacity="0.25"></line><line x1="0" y1="0" x2="278.4375" y2="0" fill="rgb(0, 0, 0)" stroke="rgb(66, 66, 66)" stroke-width="1px" opacity="0.25"></line></g></g></g><g><g><line x1="0" y1="177" x2="278.4375" y2="177" fill="rgb(0, 0, 0)" stroke="rgb(153, 153, 153)" stroke-width="1.5px"></line></g></g><g><g><line x1="23.203125" y1="0" x2="23.203125" y2="177" fill="rgb(0, 0, 0)" stroke="rgb(153, 153, 153)" stroke-width="1.5px"></line></g></g><g><g><g><g><g><path stroke="rgb(204, 51, 17)" stroke-width="2px" d="M33.64453125,-3.639459472011249L34.8046875,14.05825310702578L35.96484375000001,26.86805452847744L37.125,36.46927151158127L38.28515625,44.23649718453503L39.4453125,50.852485796260375L40.60546875,56.54363854176702L41.765625,61.29846367256241L42.92578125,64.97593913242501L44.0859375,67.80625720099064L45.24609375,70.03811356436054L46.40625,71.94375454515331L47.56640625,73.63628342538968L48.7265625,75.14499513360045L49.88671875,76.45786931959249L51.04687499999999,77.54809501090338L52.20703125,78.41387543437018L53.36718750000001,79.08978654396527L54.52734375,79.62982365245156L55.6875,80.08525946681556L56.84765625,80.48947302661634L58.0078125,80.85775738571947L59.16796875,81.19872568945655L60.328125,81.52133942833647L61.48828125,81.83184147288588L62.6484375,82.13336212503796L63.80859375,82.42883896278857L64.96875,82.72039938718223L66.12890625,83.00888465005075L67.2890625,83.29504566946554L68.44921875,83.57934618367366L69.609375,83.86205124802383L70.76953125,84.14350012522766L71.92968750000001,84.42397989389548L73.08984375,84.70390017667641L74.25,84.98381665405101L75.41015625,85.26448473518731L76.5703125,85.546843406185L77.73046875,85.83207807042315L78.890625,86.12161429434282L80.05078125,86.41715581542051L81.2109375,86.72067437813308L82.37109375,87.03444979188312L83.53125,87.36106759069898L84.69140624999999,87.70338466023564L85.8515625,88.06448223891972L87.01171875,88.44758936436857L88.171875,88.85601276410756L89.33203125000001,89.29305302949636L90.4921875,89.76198728890357L91.65234375,90.26595990515435L92.8125,90.80782238338404L93.97265625,91.38981972154386L95.1328125,92.01314726183658L96.29296875,92.6774738011351L97.453125,93.38100492671673L98.61328125,94.12135842570987L99.7734375,94.89712255376178L100.93359375,95.70998446749208L102.09374999999999,96.56729966167543L103.25390625,97.48279402562339L104.4140625,98.47452999894833L105.57421875,99.55856291052707L106.73437500000001,100.74419846741561L107.89453125,102.03289899145487L109.0546875,103.41448852965189L110.21484375,104.87749198853346L111.375,106.4331263916455L112.53515625,108.06412724654452L113.6953125,109.75578617155892L114.85546875,111.49680108040778L116.015625,113.37050329572084L117.17578125,114.73131766275242L118.3359375,115.42353581402106L119.49609374999999,106.97220171399951L120.65625,102.99972229694151L121.81640625,101.04661400762095L122.9765625,98.4471639984661L124.13671875000001,102.14464254938447L125.296875,105.58749931015304L126.45703125,104.99635074262459L127.6171875,107.88665059491774L128.77734375,106.50825308284034L129.9375,110.12310577643434L131.09765625,112.55890218146156L132.2578125,110.81294471459098L133.41796875,113.07845522425478L134.578125,114.0920922530407L135.73828125,111.21194921718325L136.8984375,107.9456965448635L138.05859375,108.7773467226134L139.21875,115.35677174766698L140.37890625,119.46151879006528L141.5390625,121.38351573541108L142.69921875,122.9260426878592L143.85937500000003,120.94238586244944L145.01953125,124.33119369308926L146.1796875,124.35998517728315L147.33984375,127.43307287741581L148.5,127.17074875234889L149.66015625,129.79028164788681L150.8203125,126.32214921679852L151.98046874999997,127.95098942349408L153.140625,122.58462898331913L154.30078125,123.58557545630951L155.4609375,122.9942062362362L156.62109375,127.57427294414218L157.78125,128.73437089390143L158.94140625,131.38335524896732L160.1015625,131.29327465236156L161.26171875000003,133.2363762536047L162.421875,135.6600251386105L163.58203125,138.87059094470973L164.7421875,141.83471302665612L165.90234375,144.56838527904355L167.0625,144.83582524634244L168.22265625,145.85555556000375L169.38281249999997,145.19666116658513L170.54296875,146.04860419317282L171.703125,145.45270014053105L172.86328125,146.03380196911405L174.0234375,144.94057725591844L175.18359375,145.78929427622788L176.34375,145.4356986216249L177.50390625,146.01006515959153L178.66406250000003,141.2657830038026L179.82421875,141.0354169886324L180.984375,141.57893431446033L182.14453125,145.1492259666984L183.3046875,148.79658305477585L184.46484375,152.12822133276754L185.625,154.9177641632342L186.78515624999997,156.89306718928717L187.9453125,158.75856608270468L189.10546875,160.29199554767524L190.265625,161.29142126289796L191.42578125,162.23396175226742L192.5859375,162.647037676699L193.74609375,163.2155467580122L194.90625,162.88550980190112L196.06640625000003,161.08700311548813L197.2265625,157.85110587994637L198.38671875,146.63725419712296L199.546875,145.62541882692116L200.70703125,139.65054876952374L201.8671875,136.05611852764488L203.02734375,135.92646250849606L204.18749999999997,128.37147039309525L205.34765625,136.0732720427834L206.5078125,129.80788191009302L207.66796875,138.30896261542284L208.828125,144.56199545016435L209.98828125,150.74025650009838L211.1484375,155.25346670112208L212.30859375,158.7840593699288L213.46875000000003,161.26669459715018L214.62890625,163.1366724413978L215.7890625,164.50389441224763L216.94921875,165.48093690908152L218.109375,166.15062984134227L219.26953125,166.60724060233218L220.4296875,166.80453120150884L221.58984374999997,166.55540927728993L222.75,165.2594094461559L223.91015625,162.76727599867337L225.0703125,156.6634275672922L226.23046875,154.9825972889715L227.390625,155.90709450653813L228.55078125,158.48566951900196L229.7109375,161.07348244592234L230.87109375000003,163.35847690972497L232.03125,165.15899218800104L233.19140625,166.44377039965948L234.3515625,167.38494710309482L235.51171875,168.049821738873L236.671875,168.48385309266243L237.83203125,168.76638464141453L238.99218749999997,168.86507857968547L240.15234375,168.72044516227479L241.3125,167.87341430781385L242.47265625,165.80259410402536L243.6328125,163.66675358220255L244.79296875,160.9878153176118L245.953125,162.03810568502598L247.11328125,163.0018946832481L248.27343750000003,164.55441124903788L249.43359375,165.91219483248221L250.59375,167.22761711214082L251.75390625,168.15825313972144L252.9140625,168.90551834119384L254.07421875,169.4298285549538" style="fill: none;" fill="none"></path></g></g></g></g><g opacity="0.2"><g><g><g><path stroke="rgb(204, 51, 17)" stroke-width="2px" d="M29.00390625,-30.561113312840476L30.1640625,6.692597314715372L31.32421875,23.353554911911473L32.484375,29.36997976899147L33.64453125,36.17008444666861L34.8046875,40.4443050250411L35.96484375000001,46.01304628700017L37.125,50.83974734693765L38.28515625,55.87211889028548L39.4453125,60.76869186758995L40.60546875,65.07635381817816L41.765625,68.42868928611277L42.92578125,70.491218611598L44.0859375,72.05130313336848L45.24609375,73.38569410890341L46.40625,74.8021115064621L47.56640625,76.17502105236053L48.7265625,77.40803290903568L49.88671875,78.42716504633427L51.04687499999999,79.18342579901218L52.20703125,79.71254237741232L53.36718750000001,80.1036514788866L54.52734375,80.43987848609686L55.6875,80.76841276884079L56.84765625,81.09579314291477L58.0078125,81.41018380224705L59.16796875,81.7101780772209L60.328125,82.00525999814272L61.48828125,82.2975945174694L62.6484375,82.58564309030771L63.80859375,82.87205421179533L64.96875,83.15774001926182L66.12890625,83.44161254167557L67.2890625,83.72428719699383L68.44921875,84.00579695403574L69.609375,84.28610884398222L70.76953125,84.5656734406948L71.92968750000001,84.84469954669476L73.08984375,85.1237806007266L74.25,85.40369137004016L75.41015625,85.685486856848L76.5703125,85.97038141265512L77.73046875,86.25993006676435L78.890625,86.55591863021253L80.05078125,86.8604680970311L81.2109375,87.17595222219825L82.37109375,87.50511291250587L83.53125,87.85099428892136L84.69140624999999,88.21686026453972L85.8515625,88.60612860694528L87.01171875,89.02225005254148L88.171875,89.46864786371587L89.33203125000001,89.9486134275794L90.4921875,90.46538867801428L91.65234375,91.02191882953048L92.8125,91.62061610072851L93.97265625,92.26281572878361L95.1328125,92.94813857227564L96.29296875,93.67396361008286L97.453125,94.43630161508918L98.61328125,95.23188867419958L99.7734375,96.0607687458396L100.93359375,96.92927733808754L102.09374999999999,97.85327245295048L103.25390625,98.85603557154536L104.4140625,99.96213395893574L105.57421875,101.1846122778952L106.73437500000001,102.52265180274843L107.89453125,103.96594977751374L109.0546875,105.48687283694744L110.21484375,107.0719971768558L111.375,108.76657799631357L112.53515625,110.510628528893L113.6953125,112.29327455908059L114.85546875,114.10832344368099L116.015625,116.18105661869048L117.17578125,116.77253921329975L118.3359375,116.46186304092407L119.49609374999999,94.29520056396721L120.65625,97.04100317135453L121.81640625,98.11695157364011L122.9765625,94.5479889847338L124.13671875000001,107.69086037576197L125.296875,110.75178445130585L126.45703125,104.10962789133191L127.6171875,112.22210037335753L128.77734375,104.4406568147242L129.9375,115.54538481682538L131.09765625,116.21259678900242L132.2578125,108.19400851428509L133.41796875,116.47672098875044L134.578125,115.61254779621959L135.73828125,106.89173466339707L136.8984375,103.04631753638387L138.05859375,110.02482198923825L139.21875,125.22590928524733L140.37890625,125.61863935366273L141.5390625,124.26651115342973L142.69921875,125.23983311653136L143.85937500000003,117.96690062433481L145.01953125,129.414405439049L146.1796875,124.40317240357399L147.33984375,132.0427044276148L148.5,126.77726256474853L149.66015625,133.71958099119365L150.8203125,121.1199505701661L151.98046874999997,130.39424973353744L153.140625,114.53508832305668L154.30078125,125.08699516579509L155.4609375,122.10715240612625L156.62109375,134.44437300600111L157.78125,130.47451781854033L158.94140625,135.35683178156614L160.1015625,131.15815375745296L161.26171875000003,136.15102865546942L162.421875,139.29549846611917L163.58203125,143.68643965385854L164.7421875,146.2808961495757L165.90234375,148.66889365762472L167.0625,145.23698519729078L168.22265625,147.38515103049576L169.38281249999997,144.20831957645714L170.54296875,147.3265187330544L171.703125,144.55884406156838L172.86328125,146.90545471198857L174.0234375,143.30074018612504L175.18359375,147.062369806692L176.34375,144.90530513972044L177.50390625,146.87161496654153L178.66406250000003,134.1493597701192L179.82421875,140.68986796587706L180.984375,142.39421030320227L182.14453125,150.50466344505548L183.3046875,154.2676186868921L184.46484375,157.12567874975502L185.625,159.10207840893418L186.78515624999997,159.8560217283666L187.9453125,161.55681442283094L189.10546875,162.59213974513113L190.265625,162.79055983573198L191.42578125,163.64777248632163L192.5859375,163.2666515633464L193.74609375,164.068310379982L194.90625,162.3904543677345L196.06640625000003,158.38924308586866L197.2265625,152.99726002663374L198.38671875,129.8164766728878L199.546875,144.10766577161849L200.70703125,130.68824368342757L201.8671875,130.66447316482663L203.02734375,135.7319784797728L204.18749999999997,117.03898221999407L205.34765625,147.62597451731563L206.5078125,120.40979671105742L207.66796875,151.06058367341757L208.828125,153.9415447022766L209.98828125,160.00764807499945L211.1484375,162.02328200265765L212.30859375,164.0799483731389L213.46875000000003,164.99064743798226L214.62890625,165.94163920776919L215.7890625,166.55472736852244L216.94921875,166.94650065433234L218.109375,167.15516923973337L219.26953125,167.29215674381703L220.4296875,167.10046710027382L221.58984374999997,166.18172639096156L222.75,163.3154096994549L223.91015625,159.02907582744956L225.0703125,147.50765492022038L226.23046875,152.46135187149048L227.390625,157.29384033288807L228.55078125,162.35353203769773L229.7109375,164.95520183630288L230.87109375000003,166.78596860542893L232.03125,167.85976510541514L233.19140625,168.37093771714717L234.3515625,168.79671215824783L235.51171875,169.04713369254023L236.671875,169.1349001233466L237.83203125,169.19018196454272L238.99218749999997,169.0131194870919L240.15234375,168.5034950361587L241.3125,166.60286802612245L242.47265625,162.69636379834265L243.6328125,160.46299279946834L244.79296875,156.96940792072564L245.953125,163.61354123614728L247.11328125,164.44757818058133L248.27343750000003,166.8831860977225L249.43359375,167.94887020764872L250.59375,169.20075053162873L251.75390625,169.55420718109235L252.9140625,170.02641614340246L254.07421875,170.2162938755937" style="fill: none;" fill="none"></path></g></g></g></g></g></g><g transform="translate(51, 177)" clip-path="url(#clip_1)"><clipPath id="clip_1"><rect width="278" height="23"></rect></clipPath><g><g><line x1="0" y1="0" x2="0" y2="5" style="visibility: inherit;" fill="rgb(0, 0, 0)" stroke="rgb(204, 204, 204)" stroke-width="1px"></line><line x1="23.203125" y1="0" x2="23.203125" y2="5" style="visibility: inherit;" fill="rgb(0, 0, 0)" stroke="rgb(204, 204, 204)" stroke-width="1px"></line><line x1="46.40625" y1="0" x2="46.40625" y2="5" style="visibility: inherit;" fill="rgb(0, 0, 0)" stroke="rgb(204, 204, 204)" stroke-width="1px"></line><line x1="69.609375" y1="0" x2="69.609375" y2="5" style="visibility: inherit;" fill="rgb(0, 0, 0)" stroke="rgb(204, 204, 204)" stroke-width="1px"></line><line x1="92.8125" y1="0" x2="92.8125" y2="5" style="visibility: inherit;" fill="rgb(0, 0, 0)" stroke="rgb(204, 204, 204)" stroke-width="1px"></line><line x1="116.015625" y1="0" x2="116.015625" y2="5" style="visibility: inherit;" fill="rgb(0, 0, 0)" stroke="rgb(204, 204, 204)" stroke-width="1px"></line><line x1="139.21875" y1="0" x2="139.21875" y2="5" style="visibility: inherit;" fill="rgb(0, 0, 0)" stroke="rgb(204, 204, 204)" stroke-width="1px"></line><line x1="162.421875" y1="0" x2="162.421875" y2="5" style="visibility: inherit;" fill="rgb(0, 0, 0)" stroke="rgb(204, 204, 204)" stroke-width="1px"></line><line x1="185.625" y1="0" x2="185.625" y2="5" style="visibility: inherit;" fill="rgb(0, 0, 0)" stroke="rgb(204, 204, 204)" stroke-width="1px"></line><line x1="208.828125" y1="0" x2="208.828125" y2="5" style="visibility: inherit;" fill="rgb(0, 0, 0)" stroke="rgb(204, 204, 204)" stroke-width="1px"></line><line x1="232.03125" y1="0" x2="232.03125" y2="5" style="visibility: inherit;" fill="rgb(0, 0, 0)" stroke="rgb(204, 204, 204)" stroke-width="1px"></line><line x1="255.234375" y1="0" x2="255.234375" y2="5" style="visibility: inherit;" fill="rgb(0, 0, 0)" stroke="rgb(204, 204, 204)" stroke-width="1px"></line><line x1="278.4375" y1="0" x2="278.4375" y2="5" style="visibility: inherit;" fill="rgb(0, 0, 0)" stroke="rgb(204, 204, 204)" stroke-width="1px"></line></g><g transform="translate(0, 8)"><text x="0" y="0" dx="0em" dy="0.95em" style="text-anchor: middle; visibility: hidden; font-family: Roboto, sans-serif; font-size: 12px; font-weight: 200;" fill="rgb(33, 33, 33)" stroke="none" stroke-width="1px">-20</text><text x="23.203125" y="0" dx="0em" dy="0.95em" style="text-anchor: middle; visibility: inherit; font-family: Roboto, sans-serif; font-size: 12px; font-weight: 200;" fill="rgb(33, 33, 33)" stroke="none" stroke-width="1px">0</text><text x="46.40625" y="0" dx="0em" dy="0.95em" style="text-anchor: middle; visibility: hidden; font-family: Roboto, sans-serif; font-size: 12px; font-weight: 200;" fill="rgb(33, 33, 33)" stroke="none" stroke-width="1px">20</text><text x="69.609375" y="0" dx="0em" dy="0.95em" style="text-anchor: middle; visibility: inherit; font-family: Roboto, sans-serif; font-size: 12px; font-weight: 200;" fill="rgb(33, 33, 33)" stroke="none" stroke-width="1px">40</text><text x="92.8125" y="0" dx="0em" dy="0.95em" style="text-anchor: middle; visibility: hidden; font-family: Roboto, sans-serif; font-size: 12px; font-weight: 200;" fill="rgb(33, 33, 33)" stroke="none" stroke-width="1px">60</text><text x="116.015625" y="0" dx="0em" dy="0.95em" style="text-anchor: middle; visibility: inherit; font-family: Roboto, sans-serif; font-size: 12px; font-weight: 200;" fill="rgb(33, 33, 33)" stroke="none" stroke-width="1px">80</text><text x="139.21875" y="0" dx="0em" dy="0.95em" style="text-anchor: middle; visibility: hidden; font-family: Roboto, sans-serif; font-size: 12px; font-weight: 200;" fill="rgb(33, 33, 33)" stroke="none" stroke-width="1px">100</text><text x="162.421875" y="0" dx="0em" dy="0.95em" style="text-anchor: middle; visibility: inherit; font-family: Roboto, sans-serif; font-size: 12px; font-weight: 200;" fill="rgb(33, 33, 33)" stroke="none" stroke-width="1px">120</text><text x="185.625" y="0" dx="0em" dy="0.95em" style="text-anchor: middle; visibility: hidden; font-family: Roboto, sans-serif; font-size: 12px; font-weight: 200;" fill="rgb(33, 33, 33)" stroke="none" stroke-width="1px">140</text><text x="208.828125" y="0" dx="0em" dy="0.95em" style="text-anchor: middle; visibility: inherit; font-family: Roboto, sans-serif; font-size: 12px; font-weight: 200;" fill="rgb(33, 33, 33)" stroke="none" stroke-width="1px">160</text><text x="232.03125" y="0" dx="0em" dy="0.95em" style="text-anchor: middle; visibility: hidden; font-family: Roboto, sans-serif; font-size: 12px; font-weight: 200;" fill="rgb(33, 33, 33)" stroke="none" stroke-width="1px">180</text><text x="255.234375" y="0" dx="0em" dy="0.95em" style="text-anchor: middle; visibility: inherit; font-family: Roboto, sans-serif; font-size: 12px; font-weight: 200;" fill="rgb(33, 33, 33)" stroke="none" stroke-width="1px">200</text><text x="278.4375" y="0" dx="0em" dy="0.95em" style="text-anchor: middle; visibility: hidden; font-family: Roboto, sans-serif; font-size: 12px; font-weight: 200;" fill="rgb(33, 33, 33)" stroke="none" stroke-width="1px">220</text></g><line x1="0" y1="0" x2="278.4375" y2="0" fill="rgb(0, 0, 0)" stroke="rgb(204, 204, 204)" stroke-width="1px"></line></g></g></g></g></svg>