<svg viewBox="0 0 330 200" xmlns="http://www.w3.org/2000/svg"><g><g><g><g><g><line x1="61.953125" y1="177" x2="56.953125" y2="177" style="visibility: inherit;" fill="rgb(0, 0, 0)" stroke="rgb(204, 204, 204)" stroke-width="1px"></line><line x1="61.953125" y1="160.9090909090909" x2="56.953125" y2="160.9090909090909" style="visibility: inherit;" fill="rgb(0, 0, 0)" stroke="rgb(204, 204, 204)" stroke-width="1px"></line><line x1="61.953125" y1="144.8181818181818" x2="56.953125" y2="144.8181818181818" style="visibility: inherit;" fill="rgb(0, 0, 0)" stroke="rgb(204, 204, 204)" stroke-width="1px"></line><line x1="61.953125" y1="128.72727272727272" x2="56.953125" y2="128.72727272727272" style="visibility: inherit;" fill="rgb(0, 0, 0)" stroke="rgb(204, 204, 204)" stroke-width="1px"></line><line x1="61.953125" y1="112.63636363636364" x2="56.953125" y2="112.63636363636364" style="visibility: inherit;" fill="rgb(0, 0, 0)" stroke="rgb(204, 204, 204)" stroke-width="1px"></line><line x1="61.953125" y1="96.54545454545453" x2="56.953125" y2="96.54545454545453" style="visibility: inherit;" fill="rgb(0, 0, 0)" stroke="rgb(204, 204, 204)" stroke-width="1px"></line><line x1="61.953125" y1="80.45454545454547" x2="56.953125" y2="80.45454545454547" style="visibility: inherit;" fill="rgb(0, 0, 0)" stroke="rgb(204, 204, 204)" stroke-width="1px"></line><line x1="61.953125" y1="64.36363636363639" x2="56.953125" y2="64.36363636363639" style="visibility: inherit;" fill="rgb(0, 0, 0)" stroke="rgb(204, 204, 204)" stroke-width="1px"></line><line x1="61.953125" y1="48.27272727272729" x2="56.953125" y2="48.27272727272729" style="visibility: inherit;" fill="rgb(0, 0, 0)" stroke="rgb(204, 204, 204)" stroke-width="1px"></line><line x1="61.953125" y1="32.181818181818194" x2="56.953125" y2="32.181818181818194" style="visibility: inherit;" fill="rgb(0, 0, 0)" stroke="rgb(204, 204, 204)" stroke-width="1px"></line><line x1="61.953125" y1="16.090909090909097" x2="56.953125" y2="16.090909090909097" style="visibility: inherit;" fill="rgb(0, 0, 0)" stroke="rgb(204, 204, 204)" stroke-width="1px"></line><line x1="61.953125" y1="0" x2="56.953125" y2="0" style="visibility: inherit;" fill="rgb(0, 0, 0)" stroke="rgb(204, 204, 204)" stroke-width="1px"></line></g><g transform="translate(51.953125, 0)"><text x="0" y="177" dx="0em" dy="0.3em" style="text-anchor: end; visibility: hidden; font-family: Roboto, sans-serif; font-size: 12px; font-weight: 200;" fill="rgb(33, 33, 33)" stroke="none" stroke-width="1px">-0.05</text><text x="0" y="160.9090909090909" dx="0em" dy="0.3em" style="text-anchor: end; visibility: inherit; font-family: Roboto, sans-serif; font-size: 12px; font-weight: 200;" fill="rgb(33, 33, 33)" stroke="none" stroke-width="1px">0</text><text x="0" y="144.8181818181818" dx="0em" dy="0.3em" style="text-anchor: end; visibility: hidden; font-family: Roboto, sans-serif; font-size: 12px; font-weight: 200;" fill="rgb(33, 33, 33)" stroke="none" stroke-width="1px">0.05</text><text x="0" y="128.72727272727272" dx="0em" dy="0.3em" style="text-anchor: end; visibility: inherit; font-family: Roboto, sans-serif; font-size: 12px; font-weight: 200;" fill="rgb(33, 33, 33)" stroke="none" stroke-width="1px">0.1</text><text x="0" y="112.63636363636364" dx="0em" dy="0.3em" style="text-anchor: end; visibility: hidden; font-family: Roboto, sans-serif; font-size: 12px; font-weight: 200;" fill="rgb(33, 33, 33)" stroke="none" stroke-width="1px">0.15</text><text x="0" y="96.54545454545453" dx="0em" dy="0.3em" style="text-anchor: end; visibility: inherit; font-family: Roboto, sans-serif; font-size: 12px; font-weight: 200;" fill="rgb(33, 33, 33)" stroke="none" stroke-width="1px">0.2</text><text x="0" y="80.45454545454547" dx="0em" dy="0.3em" style="text-anchor: end; visibility: hidden; font-family: Roboto, sans-serif; font-size: 12px; font-weight: 200;" fill="rgb(33, 33, 33)" stroke="none" stroke-width="1px">0.25</text><text x="0" y="64.36363636363639" dx="0em" dy="0.3em" style="text-anchor: end; visibility: inherit; font-family: Roboto, sans-serif; font-size: 12px; font-weight: 200;" fill="rgb(33, 33, 33)" stroke="none" stroke-width="1px">0.3</text><text x="0" y="48.27272727272729" dx="0em" dy="0.3em" style="text-anchor: end; visibility: hidden; font-family: Roboto, sans-serif; font-size: 12px; font-weight: 200;" fill="rgb(33, 33, 33)" stroke="none" stroke-width="1px">0.35</text><text x="0" y="32.181818181818194" dx="0em" dy="0.3em" style="text-anchor: end; visibility: inherit; font-family: Roboto, sans-serif; font-size: 12px; font-weight: 200;" fill="rgb(33, 33, 33)" stroke="none" stroke-width="1px">0.4</text><text x="0" y="16.090909090909097" dx="0em" dy="0.3em" style="text-anchor: end; visibility: hidden; font-family: Roboto, sans-serif; font-size: 12px; font-weight: 200;" fill="rgb(33, 33, 33)" stroke="none" stroke-width="1px">0.45</text><text x="0" y="0" dx="0em" dy="0.3em" style="text-anchor: end; visibility: hidden; font-family: Roboto, sans-serif; font-size: 12px; font-weight: 200;" fill="rgb(33, 33, 33)" stroke="none" stroke-width="1px">0.5</text></g><line x1="61.953125" y1="0" x2="61.953125" y2="177" fill="rgb(0, 0, 0)" stroke="rgb(204, 204, 204)" stroke-width="1px"></line></g></g><g transform="translate(61, 0)" clip-path="url(#clip_0)"><clipPath id="clip_0"><rect width="268" height="177"></rect></clipPath><g><g><g><line x1="0" y1="0" x2="0" y2="177" fill="rgb(0, 0, 0)" stroke="rgb(66, 66, 66)" stroke-width="1px" opacity="0.25"></line><line x1="33.505859375" y1="0" x2="33.505859375" y2="177" fill="rgb(0, 0, 0)" stroke="rgb(66, 66, 66)" stroke-width="1px" opacity="0.25"></line><line x1="67.01171875" y1="0" x2="67.01171875" y2="177" fill="rgb(0, 0, 0)" stroke="rgb(66, 66, 66)" stroke-width="1px" opacity="0.25"></line><line x1="100.517578125" y1="0" x2="100.517578125" y2="177" fill="rgb(0, 0, 0)" stroke="rgb(66, 66, 66)" stroke-width="1px" opacity="0.25"></line><line x1="134.0234375" y1="0" x2="134.0234375" y2="177" fill="rgb(0, 0, 0)" stroke="rgb(66, 66, 66)" stroke-width="1px" opacity="0.25"></line><line x1="167.529296875" y1="0" x2="167.529296875" y2="177" fill="rgb(0, 0, 0)" stroke="rgb(66, 66, 66)" stroke-width="1px" opacity="0.25"></line><line x1="201.03515625" y1="0" x2="201.03515625" y2="177" fill="rgb(0, 0, 0)" stroke="rgb(66, 66, 66)" stroke-width="1px" opacity="0.25"></line><line x1="234.541015625" y1="0" x2="234.541015625" y2="177" fill="rgb(0, 0, 0)" stroke="rgb(66, 66, 66)" stroke-width="1px" opacity="0.25"></line><line x1="268.046875" y1="0" x2="268.046875" y2="177" fill="rgb(0, 0, 0)" stroke="rgb(66, 66, 66)" stroke-width="1px" opacity="0.25"></line></g><g><line x1="0" y1="177" x2="268.046875" y2="177" fill="rgb(0, 0, 0)" stroke="rgb(66, 66, 66)" stroke-width="1px" opacity="0.25"></line><line x1="0" y1="160.9090909090909" x2="268.046875" y2="160.9090909090909" fill="rgb(0, 0, 0)" stroke="rgb(66, 66, 66)" stroke-width="1px" opacity="0.25"></line><line x1="0" y1="144.8181818181818" x2="268.046875" y2="144.8181818181818" fill="rgb(0, 0, 0)" stroke="rgb(66, 66, 66)" stroke-width="1px" opacity="0.25"></line><line x1="0" y1="128.72727272727272" x2="268.046875" y2="128.72727272727272" fill="rgb(0, 0, 0)" stroke="rgb(66, 66, 66)" stroke-width="1px" opacity="0.25"></line><line x1="0" y1="112.63636363636364" x2="268.046875" y2="112.63636363636364" fill="rgb(0, 0, 0)" stroke="rgb(66, 66, 66)" stroke-width="1px" opacity="0.25"></line><line x1="0" y1="96.54545454545453" x2="268.046875" y2="96.54545454545453" fill="rgb(0, 0, 0)" stroke="rgb(66, 66, 66)" stroke-width="1px" opacity="0.25"></line><line x1="0" y1="80.45454545454547" x2="268.046875" y2="80.45454545454547" fill="rgb(0, 0, 0)" stroke="rgb(66, 66, 66)" stroke-width="1px" opacity="0.25"></line><line x1="0" y1="64.36363636363639" x2="268.046875" y2="64.36363636363639" fill="rgb(0, 0, 0)" stroke="rgb(66, 66, 66)" stroke-width="1px" opacity="0.25"></line><line x1="0" y1="48.27272727272729" x2="268.046875" y2="48.27272727272729" fill="rgb(0, 0, 0)" stroke="rgb(66, 66, 66)" stroke-width="1px" opacity="0.25"></line><line x1="0" y1="32.181818181818194" x2="268.046875" y2="32.181818181818194" fill="rgb(0, 0, 0)" stroke="rgb(66, 66, 66)" stroke-width="1px" opacity="0.25"></line><line x1="0" y1="16.090909090909097" x2="268.046875" y2="16.090909090909097" fill="rgb(0, 0, 0)" stroke="rgb(66, 66, 66)" stroke-width="1px" opacity="0.25"></line><line x1="0" y1="0" x2="268.046875" y2="0" fill="rgb(0, 0, 0)" stroke="rgb(66, 66, 66)" stroke-width="1px" opacity="0.25"></line></g></g></g><g><g><line x1="0" y1="160.9090909090909" x2="268.046875" y2="160.9090909090909" fill="rgb(0, 0, 0)" stroke="rgb(153, 153, 153)" stroke-width="1.5px"></line></g></g><g><g><line x1="33.505859375" y1="0" x2="33.505859375" y2="177" fill="rgb(0, 0, 0)" stroke="rgb(153, 153, 153)" stroke-width="1.5px"></line></g></g><g><g><g><g><g><path stroke="rgb(51, 187, 238)" stroke-width="2px" d="M38.866796875,-56.02130803194912L39.536914062499996,65.3381572528319L40.20703125,8.704813664609745L40.8771484375,52.19417241486637L41.547265625,38.04177809845319L42.2173828125,119.3568792668256L42.8875,135.0710724836046L43.5576171875,129.51770628040487L44.227734375000004,141.02960988879204L44.8978515625,127.2999669475989L45.567968750000006,138.39407289570028L46.238085937499996,137.67938322641632L46.908203125,129.83666701750323L47.5783203125,131.13473694432867L48.2484375,127.00092657045886L48.9185546875,117.97468729994513L49.588671875,119.9397344209931L50.2587890625,132.08772763609886L50.92890625,135.91456353664398L51.5990234375,127.17470221898772L52.269140625,114.8662095991048L52.9392578125,121.96964259852065L53.609375,140.36511674523354L54.279492187500004,145.31877173618838L54.949609374999994,135.92308267951012L55.6197265625,108.97963773120536L56.289843749999996,101.62790276787497L56.9599609375,138.62554757432505L57.630078125,156.3474489646879L58.3001953125,156.4420170252296L58.9703125,152.43863279846582L59.6404296875,130.15656047246674L60.310546875,40.005789399147055L60.980664062500004,78.2617809013887L61.65078125,150.72865164415404L62.320898437500006,155.37572119385004L62.991015624999996,155.76123338870028L63.6611328125,157.5923953340812L64.33125,157.6540341380645L65.0013671875,156.40598450364038L65.671484375,150.23544290526345L66.3416015625,115.9485219825398L67.01171875,14.305523092096493L67.6818359375,68.82965830239384L68.351953125,128.67711168798536L69.0220703125,150.0891296836463L69.6921875,156.8482270447368L70.3623046875,158.31493487920272L71.032421875,158.82049658505076L71.70253906250001,158.99974116124213L72.37265625,159.03326445597816L73.0427734375,159.01134243912318L73.712890625,158.853876165707L74.38300781250001,158.0859457498247L75.05312500000001,153.5817840424451L75.72324218749999,119.41265052015132L76.39335937499999,-54.74910963665353L77.73359375,-31.912531744350066L78.4037109375,82.87875351580708L79.07382812499999,141.67494994672862L79.7439453125,156.7396805045957L80.4140625,158.83882395161146L81.0841796875,158.51091922345486L81.754296875,159.0351259953935L82.4244140625,158.81519789638168L83.09453125,159.12245949814942L83.7646484375,158.89163820157674L84.434765625,159.18454323133284L85.1048828125,159.1095169887624L85.775,159.48231101205403L86.4451171875,159.49809738180855L87.115234375,159.70580326520246L87.7853515625,159.67724492477083L88.45546875000001,159.67231923333284L89.1255859375,159.6707067583603L89.795703125,159.5996951438825L90.4658203125,159.3991846303371L91.13593750000001,158.8657353496687L91.80605468750001,157.34510431404817L92.47617187499999,152.78847273100507L93.14628906249999,140.60309886932373L93.81640625,123.37187001650985L94.4865234375,129.54446257515386L95.156640625,151.56724652783439L95.82675781249999,158.95138639364052L96.496875,156.5061692520976L97.1669921875,137.83048591830513L97.837109375,16.024888970635157L98.5072265625,38.05650976571171L99.17734375,150.8339792286808L99.8474609375,156.34465890343893L100.517578125,158.11414188282058L101.1876953125,159.77721859785643L101.8578125,159.57845872860742L102.5279296875,159.6406416679648L103.198046875,159.56789821640334L103.8681640625,159.07507521269673L104.53828125,157.40650694139978L105.20839843750001,152.07056590440598L105.878515625,138.0364031683315L106.5486328125,122.107574546879L107.21875,133.3063439076597L107.88886718750001,154.14546033536845L108.55898437500001,159.37014914117754L109.22910156249999,157.0882966945117L109.89921874999999,140.3638363561847L110.5693359375,22.116644382476828L111.239453125,34.129522984678104L111.9095703125,152.40549014373258L112.57968749999999,155.14694096689874L113.2498046875,157.97418534925038L113.919921875,159.91014130879194L114.5900390625,159.82709974685514L115.26015625,159.69765652013436L115.9302734375,159.54088251699102L116.600390625,158.9723182969134L117.2705078125,157.22684456035495L117.940625,152.10142411968926L118.6107421875,139.80555556037208L119.280859375,126.49683692238547L119.9509765625,134.5224473557689L120.62109375,152.36309823664752L121.2912109375,159.0589049060575L121.96132812500001,160.12470073532313L122.6314453125,160.18556095067072L123.3015625,160.0108434429223L123.9716796875,158.82417965172365L124.64179687500001,146.5475483983755L125.31191406250001,-13.946688066829353L125.98203124999999,-32.544036886908785L126.65214843749999,137.49681269580668L127.322265625,156.34316811338067L127.9923828125,159.7966546158899L128.6625,159.96322672729465L129.3326171875,160.23496442643756L130.002734375,160.2683431828733L130.6728515625,160.2199197801846L131.34296875,160.09410162498668L132.0130859375,159.81004872317L132.683203125,159.07458427700806L133.3533203125,157.0205955241214L134.0234375,151.34962714531204L134.69355468749998,139.09305262294683L135.363671875,128.43670066107404L136.03378906249998,137.29572927409953L136.70390625,152.62633327733386L137.3740234375,158.49645805037156L138.044140625,159.53595652583647L138.7142578125,158.52091327140278L139.384375,151.04505220258778L140.0544921875,118.36622259833597L140.724609375,92.60750916871159L141.39472656249998,136.1258589002219L142.06484375,152.74040119553155L142.7349609375,126.39783215793697L143.40507812500002,65.2176184545864L144.0751953125,96.26890393820676L144.7453125,156.73972426321018L145.4154296875,156.8745568428527L146.085546875,160.05360759794712L146.7556640625,160.13374955224043L147.42578125,160.2800979905508L148.0958984375,160.39418044500053L148.76601562500002,160.2273984570903L149.4361328125,159.13368508135054L150.10625000000002,154.50280996547505L150.7763671875,139.075906439261L151.44648437499998,117.42768303914505L152.1166015625,130.28116582469508L152.78671874999998,155.25474181229418L153.4568359375,159.46503100493416L154.126953125,155.44556893408298L154.7970703125,132.22071546045217L155.4671875,15.182306658137927L156.1373046875,52.8969285704873L156.807421875,146.10888567160475L157.4775390625,158.03233545273542L158.14765624999998,159.82261164156213L158.8177734375,160.15803318555382L159.487890625,160.37975759816948L160.15800781250002,160.42725839842618L160.828125,160.38761672775516L161.4982421875,160.22505010308868L162.168359375,159.80803537732837L162.8384765625,158.71892744590613L163.50859375,155.76578908007252L164.1787109375,148.44642290337518L164.848828125,136.68503165245056L165.51894531250002,133.6620211194862L166.1890625,145.6801531531594L166.85917968750002,155.7584322379394L167.529296875,158.69115780954334L168.19941406249998,158.41345305385238L168.86953125,153.7519624930891L169.53964843749998,134.58332577889615L170.209765625,107.61520336974753L170.8798828125,130.31226920810613L171.55,157.30735951187935L172.2201171875,151.5060432119803L172.890234375,113.87644968249582L173.5603515625,24.603361324830495L174.23046875,93.57344521717593L174.90058593749998,149.32950291443956L175.570703125,158.3673016523773L176.2408203125,159.91240147120234L176.91093750000002,160.2988406143744L177.5810546875,160.42356862559575L178.251171875,160.47057920199057L178.9212890625,160.42863117509776L179.59140625,160.24245097090235L180.2615234375,159.69694971360943L180.931640625,158.14070516011932L181.6017578125,153.78671042959797L182.27187500000002,143.93427914516494L182.9419921875,133.64380075172946L183.61210937500002,138.95049544897947L184.2822265625,152.39377482370898L184.95234374999998,158.32330056720158L185.6224609375,159.4358729317107L186.29257812499998,158.324684957889L186.9626953125,150.9976999868046L187.6328125,123.71882427822462L188.3029296875,108.04553397677161L188.973046875,142.7442318539728L189.6431640625,157.1192139539529L190.31328125,142.19135794449937L190.9833984375,74.5291159369729L191.65351562499998,64.11488218740985L192.3236328125,150.54723442278126L192.99375,156.48785327476534L193.66386718750002,159.9302845829251L194.333984375,159.9251828829504L195.0041015625,160.33486875260925L195.67421875,160.51098499997434L196.3443359375,160.3589951471341L197.014453125,159.67119417237964L197.6845703125,157.45081463659352L198.3546875,150.87963984432545L199.02480468750002,137.72414649074727L199.694921875,132.1582209657539L200.36503906250002,145.67731543698093L201.03515625,157.16157528995112L201.70527343749998,159.9626920329915L202.375390625,160.39362900403583L203.04550781249998,160.23385570003566L203.715625,158.20810631425545L204.3857421875,143.58539590781385L205.055859375,92.53615265542811L205.7259765625,110.12102544307709L206.39609375,151.7141334069046L207.0662109375,123.73726523735307L207.736328125,76.50356216864154L208.40644531249998,113.8410159945488L209.0765625,158.05628879842433L209.7466796875,158.1497422131625L210.41679687500002,160.27712232983586L211.0869140625,160.18257622353056L211.75703125,160.31490523346955L212.4271484375,160.49812109124932L213.097265625,160.5656718414023L213.7673828125,160.277900618755L214.4375,158.4392136902633L215.1076171875,149.90082737397063L215.77773437500002,126.35673502629454L216.4478515625,122.12112652984533L217.11796875000002,149.83159045604143L217.7880859375,159.3982627022673L218.45820312499998,155.24496505883607L219.1283203125,130.23697082291952L219.79843749999998,22.80135040933437L220.4685546875,68.16696345806123L221.138671875,140.86666719479993L221.8087890625,155.40492017838088L222.47890625,159.8814409776506L223.1490234375,160.32994740706107L223.819140625,160.44114906108007L224.4892578125,160.52685416642237L225.15937499999998,160.50532953623176L225.8294921875,160.48149765066972L226.499609375,160.38979765260592L227.16972656250002,160.13896514449945L227.83984375,159.4709755827419L228.5099609375,157.67738355493003L229.180078125,153.11397568068722L229.8501953125,144.47196941484106L230.5203125,138.41896375471896L231.1904296875,144.64751339094207L231.860546875,154.12817508320916L232.53066406250002,157.87904692813754L233.20078125,157.88017236373642L233.87089843750002,153.74071173369884" style="fill: none;" fill="none"></path></g></g></g></g></g></g><g transform="translate(61, 177)" clip-path="url(#clip_1)"><clipPath id="clip_1"><rect width="268" height="23"></rect></clipPath><g><g><line x1="0" y1="0" x2="0" y2="5" style="visibility: inherit;" fill="rgb(0, 0, 0)" stroke="rgb(204, 204, 204)" stroke-width="1px"></line><line x1="33.505859375" y1="0" x2="33.505859375" y2="5" style="visibility: inherit;" fill="rgb(0, 0, 0)" stroke="rgb(204, 204, 204)" stroke-width="1px"></line><line x1="67.01171875" y1="0" x2="67.01171875" y2="5" style="visibility: inherit;" fill="rgb(0, 0, 0)" stroke="rgb(204, 204, 204)" stroke-width="1px"></line><line x1="100.517578125" y1="0" x2="100.517578125" y2="5" style="visibility: inherit;" fill="rgb(0, 0, 0)" stroke="rgb(204, 204, 204)" stroke-width="1px"></line><line x1="134.0234375" y1="0" x2="134.0234375" y2="5" style="visibility: inherit;" fill="rgb(0, 0, 0)" stroke="rgb(204, 204, 204)" stroke-width="1px"></line><line x1="167.529296875" y1="0" x2="167.529296875" y2="5" style="visibility: inherit;" fill="rgb(0, 0, 0)" stroke="rgb(204, 204, 204)" stroke-width="1px"></line><line x1="201.03515625" y1="0" x2="201.03515625" y2="5" style="visibility: inherit;" fill="rgb(0, 0, 0)" stroke="rgb(204, 204, 204)" stroke-width="1px"></line><line x1="234.541015625" y1="0" x2="234.541015625" y2="5" style="visibility: inherit;" fill="rgb(0, 0, 0)" stroke="rgb(204, 204, 204)" stroke-width="1px"></line><line x1="268.046875" y1="0" x2="268.046875" y2="5" style="visibility: inherit;" fill="rgb(0, 0, 0)" stroke="rgb(204, 204, 204)" stroke-width="1px"></line></g><g transform="translate(0, 8)"><text x="0" y="0" dx="0em" dy="0.95em" style="text-anchor: middle; visibility: hidden; font-family: Roboto, sans-serif; font-size: 12px; font-weight: 200;" fill="rgb(33, 33, 33)" stroke="none" stroke-width="1px">-50</text><text x="33.505859375" y="0" dx="0em" dy="0.95em" style="text-anchor: middle; visibility: inherit; font-family: Roboto, sans-serif; font-size: 12px; font-weight: 200;" fill="rgb(33, 33, 33)" stroke="none" stroke-width="1px">0</text><text x="67.01171875" y="0" dx="0em" dy="0.95em" style="text-anchor: middle; visibility: inherit; font-family: Roboto, sans-serif; font-size: 12px; font-weight: 200;" fill="rgb(33, 33, 33)" stroke="none" stroke-width="1px">50</text><text x="100.517578125" y="0" dx="0em" dy="0.95em" style="text-anchor: middle; visibility: inherit; font-family: Roboto, sans-serif; font-size: 12px; font-weight: 200;" fill="rgb(33, 33, 33)" stroke="none" stroke-width="1px">100</text><text x="134.0234375" y="0" dx="0em" dy="0.95em" style="text-anchor: middle; visibility: inherit; font-family: Roboto, sans-serif; font-size: 12px; font-weight: 200;" fill="rgb(33, 33, 33)" stroke="none" stroke-width="1px">150</text><text x="167.529296875" y="0" dx="0em" dy="0.95em" style="text-anchor: middle; visibility: inherit; font-family: Roboto, sans-serif; font-size: 12px; font-weight: 200;" fill="rgb(33, 33, 33)" stroke="none" stroke-width="1px">200</text><text x="201.03515625" y="0" dx="0em" dy="0.95em" style="text-anchor: middle; visibility: inherit; font-family: Roboto, sans-serif; font-size: 12px; font-weight: 200;" fill="rgb(33, 33, 33)" stroke="none" stroke-width="1px">250</text><text x="234.541015625" y="0" dx="0em" dy="0.95em" style="text-anchor: middle; visibility: inherit; font-family: Roboto, sans-serif; font-size: 12px; font-weight: 200;" fill="rgb(33, 33, 33)" stroke="none" stroke-width="1px">300</text><text x="268.046875" y="0" dx="0em" dy="0.95em" style="text-anchor: middle; visibility: hidden; font-family: Roboto, sans-serif; font-size: 12px; font-weight: 200;" fill="rgb(33, 33, 33)" stroke="none" stroke-width="1px">350</text></g><line x1="0" y1="0" x2="268.046875" y2="0" fill="rgb(0, 0, 0)" stroke="rgb(204, 204, 204)" stroke-width="1px"></line></g></g></g></g></svg>