<svg viewBox="0 0 330 200" xmlns="http://www.w3.org/2000/svg"><g><g><g><g><g><line x1="61.953125" y1="177" x2="56.953125" y2="177" style="visibility: inherit;" fill="rgb(0, 0, 0)" stroke="rgb(204, 204, 204)" stroke-width="1px"></line><line x1="61.953125" y1="160.9090909090909" x2="56.953125" y2="160.9090909090909" style="visibility: inherit;" fill="rgb(0, 0, 0)" stroke="rgb(204, 204, 204)" stroke-width="1px"></line><line x1="61.953125" y1="144.8181818181818" x2="56.953125" y2="144.8181818181818" style="visibility: inherit;" fill="rgb(0, 0, 0)" stroke="rgb(204, 204, 204)" stroke-width="1px"></line><line x1="61.953125" y1="128.72727272727272" x2="56.953125" y2="128.72727272727272" style="visibility: inherit;" fill="rgb(0, 0, 0)" stroke="rgb(204, 204, 204)" stroke-width="1px"></line><line x1="61.953125" y1="112.63636363636364" x2="56.953125" y2="112.63636363636364" style="visibility: inherit;" fill="rgb(0, 0, 0)" stroke="rgb(204, 204, 204)" stroke-width="1px"></line><line x1="61.953125" y1="96.54545454545453" x2="56.953125" y2="96.54545454545453" style="visibility: inherit;" fill="rgb(0, 0, 0)" stroke="rgb(204, 204, 204)" stroke-width="1px"></line><line x1="61.953125" y1="80.45454545454544" x2="56.953125" y2="80.45454545454544" style="visibility: inherit;" fill="rgb(0, 0, 0)" stroke="rgb(204, 204, 204)" stroke-width="1px"></line><line x1="61.953125" y1="64.36363636363639" x2="56.953125" y2="64.36363636363639" style="visibility: inherit;" fill="rgb(0, 0, 0)" stroke="rgb(204, 204, 204)" stroke-width="1px"></line><line x1="61.953125" y1="48.272727272727266" x2="56.953125" y2="48.272727272727266" style="visibility: inherit;" fill="rgb(0, 0, 0)" stroke="rgb(204, 204, 204)" stroke-width="1px"></line><line x1="61.953125" y1="32.181818181818194" x2="56.953125" y2="32.181818181818194" style="visibility: inherit;" fill="rgb(0, 0, 0)" stroke="rgb(204, 204, 204)" stroke-width="1px"></line><line x1="61.953125" y1="16.090909090909097" x2="56.953125" y2="16.090909090909097" style="visibility: inherit;" fill="rgb(0, 0, 0)" stroke="rgb(204, 204, 204)" stroke-width="1px"></line><line x1="61.953125" y1="0" x2="56.953125" y2="0" style="visibility: inherit;" fill="rgb(0, 0, 0)" stroke="rgb(204, 204, 204)" stroke-width="1px"></line></g><g transform="translate(51.953125, 0)"><text x="0" y="177" dx="0em" dy="0.3em" style="text-anchor: end; visibility: hidden; font-family: Roboto, sans-serif; font-size: 12px; font-weight: 200;" fill="rgb(33, 33, 33)" stroke="none" stroke-width="1px">-0.01</text><text x="0" y="160.9090909090909" dx="0em" dy="0.3em" style="text-anchor: end; visibility: inherit; font-family: Roboto, sans-serif; font-size: 12px; font-weight: 200;" fill="rgb(33, 33, 33)" stroke="none" stroke-width="1px">0</text><text x="0" y="144.8181818181818" dx="0em" dy="0.3em" style="text-anchor: end; visibility: hidden; font-family: Roboto, sans-serif; font-size: 12px; font-weight: 200;" fill="rgb(33, 33, 33)" stroke="none" stroke-width="1px">0.01</text><text x="0" y="128.72727272727272" dx="0em" dy="0.3em" style="text-anchor: end; visibility: inherit; font-family: Roboto, sans-serif; font-size: 12px; font-weight: 200;" fill="rgb(33, 33, 33)" stroke="none" stroke-width="1px">0.02</text><text x="0" y="112.63636363636364" dx="0em" dy="0.3em" style="text-anchor: end; visibility: hidden; font-family: Roboto, sans-serif; font-size: 12px; font-weight: 200;" fill="rgb(33, 33, 33)" stroke="none" stroke-width="1px">0.03</text><text x="0" y="96.54545454545453" dx="0em" dy="0.3em" style="text-anchor: end; visibility: inherit; font-family: Roboto, sans-serif; font-size: 12px; font-weight: 200;" fill="rgb(33, 33, 33)" stroke="none" stroke-width="1px">0.04</text><text x="0" y="80.45454545454544" dx="0em" dy="0.3em" style="text-anchor: end; visibility: hidden; font-family: Roboto, sans-serif; font-size: 12px; font-weight: 200;" fill="rgb(33, 33, 33)" stroke="none" stroke-width="1px">0.05</text><text x="0" y="64.36363636363639" dx="0em" dy="0.3em" style="text-anchor: end; visibility: inherit; font-family: Roboto, sans-serif; font-size: 12px; font-weight: 200;" fill="rgb(33, 33, 33)" stroke="none" stroke-width="1px">0.06</text><text x="0" y="48.272727272727266" dx="0em" dy="0.3em" style="text-anchor: end; visibility: hidden; font-family: Roboto, sans-serif; font-size: 12px; font-weight: 200;" fill="rgb(33, 33, 33)" stroke="none" stroke-width="1px">0.07</text><text x="0" y="32.181818181818194" dx="0em" dy="0.3em" style="text-anchor: end; visibility: inherit; font-family: Roboto, sans-serif; font-size: 12px; font-weight: 200;" fill="rgb(33, 33, 33)" stroke="none" stroke-width="1px">0.08</text><text x="0" y="16.090909090909097" dx="0em" dy="0.3em" style="text-anchor: end; visibility: hidden; font-family: Roboto, sans-serif; font-size: 12px; font-weight: 200;" fill="rgb(33, 33, 33)" stroke="none" stroke-width="1px">0.09</text><text x="0" y="0" dx="0em" dy="0.3em" style="text-anchor: end; visibility: hidden; font-family: Roboto, sans-serif; font-size: 12px; font-weight: 200;" fill="rgb(33, 33, 33)" stroke="none" stroke-width="1px">0.1</text></g><line x1="61.953125" y1="0" x2="61.953125" y2="177" fill="rgb(0, 0, 0)" stroke="rgb(204, 204, 204)" stroke-width="1px"></line></g></g><g transform="translate(61, 0)" clip-path="url(#clip_0)"><clipPath id="clip_0"><rect width="268" height="177"></rect></clipPath><g><g><g><line x1="0" y1="0" x2="0" y2="177" fill="rgb(0, 0, 0)" stroke="rgb(66, 66, 66)" stroke-width="1px" opacity="0.25"></line><line x1="33.505859375" y1="0" x2="33.505859375" y2="177" fill="rgb(0, 0, 0)" stroke="rgb(66, 66, 66)" stroke-width="1px" opacity="0.25"></line><line x1="67.01171875" y1="0" x2="67.01171875" y2="177" fill="rgb(0, 0, 0)" stroke="rgb(66, 66, 66)" stroke-width="1px" opacity="0.25"></line><line x1="100.517578125" y1="0" x2="100.517578125" y2="177" fill="rgb(0, 0, 0)" stroke="rgb(66, 66, 66)" stroke-width="1px" opacity="0.25"></line><line x1="134.0234375" y1="0" x2="134.0234375" y2="177" fill="rgb(0, 0, 0)" stroke="rgb(66, 66, 66)" stroke-width="1px" opacity="0.25"></line><line x1="167.529296875" y1="0" x2="167.529296875" y2="177" fill="rgb(0, 0, 0)" stroke="rgb(66, 66, 66)" stroke-width="1px" opacity="0.25"></line><line x1="201.03515625" y1="0" x2="201.03515625" y2="177" fill="rgb(0, 0, 0)" stroke="rgb(66, 66, 66)" stroke-width="1px" opacity="0.25"></line><line x1="234.541015625" y1="0" x2="234.541015625" y2="177" fill="rgb(0, 0, 0)" stroke="rgb(66, 66, 66)" stroke-width="1px" opacity="0.25"></line><line x1="268.046875" y1="0" x2="268.046875" y2="177" fill="rgb(0, 0, 0)" stroke="rgb(66, 66, 66)" stroke-width="1px" opacity="0.25"></line></g><g><line x1="0" y1="177" x2="268.046875" y2="177" fill="rgb(0, 0, 0)" stroke="rgb(66, 66, 66)" stroke-width="1px" opacity="0.25"></line><line x1="0" y1="160.9090909090909" x2="268.046875" y2="160.9090909090909" fill="rgb(0, 0, 0)" stroke="rgb(66, 66, 66)" stroke-width="1px" opacity="0.25"></line><line x1="0" y1="144.8181818181818" x2="268.046875" y2="144.8181818181818" fill="rgb(0, 0, 0)" stroke="rgb(66, 66, 66)" stroke-width="1px" opacity="0.25"></line><line x1="0" y1="128.72727272727272" x2="268.046875" y2="128.72727272727272" fill="rgb(0, 0, 0)" stroke="rgb(66, 66, 66)" stroke-width="1px" opacity="0.25"></line><line x1="0" y1="112.63636363636364" x2="268.046875" y2="112.63636363636364" fill="rgb(0, 0, 0)" stroke="rgb(66, 66, 66)" stroke-width="1px" opacity="0.25"></line><line x1="0" y1="96.54545454545453" x2="268.046875" y2="96.54545454545453" fill="rgb(0, 0, 0)" stroke="rgb(66, 66, 66)" stroke-width="1px" opacity="0.25"></line><line x1="0" y1="80.45454545454544" x2="268.046875" y2="80.45454545454544" fill="rgb(0, 0, 0)" stroke="rgb(66, 66, 66)" stroke-width="1px" opacity="0.25"></line><line x1="0" y1="64.36363636363639" x2="268.046875" y2="64.36363636363639" fill="rgb(0, 0, 0)" stroke="rgb(66, 66, 66)" stroke-width="1px" opacity="0.25"></line><line x1="0" y1="48.272727272727266" x2="268.046875" y2="48.272727272727266" fill="rgb(0, 0, 0)" stroke="rgb(66, 66, 66)" stroke-width="1px" opacity="0.25"></line><line x1="0" y1="32.181818181818194" x2="268.046875" y2="32.181818181818194" fill="rgb(0, 0, 0)" stroke="rgb(66, 66, 66)" stroke-width="1px" opacity="0.25"></line><line x1="0" y1="16.090909090909097" x2="268.046875" y2="16.090909090909097" fill="rgb(0, 0, 0)" stroke="rgb(66, 66, 66)" stroke-width="1px" opacity="0.25"></line><line x1="0" y1="0" x2="268.046875" y2="0" fill="rgb(0, 0, 0)" stroke="rgb(66, 66, 66)" stroke-width="1px" opacity="0.25"></line></g></g></g><g><g><line x1="0" y1="160.9090909090909" x2="268.046875" y2="160.9090909090909" fill="rgb(0, 0, 0)" stroke="rgb(153, 153, 153)" stroke-width="1.5px"></line></g></g><g><g><line x1="33.505859375" y1="0" x2="33.505859375" y2="177" fill="rgb(0, 0, 0)" stroke="rgb(153, 153, 153)" stroke-width="1.5px"></line></g></g><g><g><g><g><g><path stroke="rgb(51, 187, 238)" stroke-width="2px" d="M37.526562500000004,-309.91624149409205L38.196679687499994,29.07902358607813L38.866796875,50.62960173596036L39.536914062499996,104.1806988147172L40.20703125,52.85973254929891L40.8771484375,46.85325728221375L41.547265625,57.159813669594854L42.2173828125,137.6502288996496L42.8875,153.30002756873992L43.5576171875,147.79022980989382L44.227734375000004,155.4489123469896L44.8978515625,141.71656708656386L45.567968750000006,149.0845519312742L46.238085937499996,149.4210871469907L46.908203125,139.3504398942671L47.5783203125,139.68212569640443L48.2484375,134.37359733337706L48.9185546875,123.40058825571428L49.588671875,124.31355480104685L50.2587890625,137.20993181859905L50.92890625,141.10004567287186L51.5990234375,131.0635818405585L52.269140625,116.84130981225859L52.9392578125,123.66778554902837L53.609375,143.75473994761705L54.279492187500004,148.99481754919344L54.949609374999994,138.5683265921067L55.6197265625,109.12135809659958L56.289843749999996,99.81441031125458L56.9599609375,140.05229959772393L57.630078125,159.45224168816242L58.3001953125,159.3677184400572L58.9703125,154.97925728178498L59.6404296875,130.99348713389853L60.310546875,35.01987292007967L60.980664062500004,69.31043000383812L61.65078125,151.8386404521086L62.320898437500006,157.63727803545243L62.991015624999996,157.91311016221616L63.6611328125,159.7938979355703L64.33125,159.71622208641335L65.0013671875,158.2873103805733L65.671484375,151.57561071725056L66.3416015625,114.97925188731064L67.01171875,6.912036416205498L67.6818359375,56.80487735704943L68.351953125,128.15671206536618L69.0220703125,150.57298172180623L69.6921875,158.14897846049544L70.3623046875,159.8471060505306L71.032421875,160.3590707880953L71.70253906250001,160.4702236164171L72.37265625,160.44637634228408L73.0427734375,160.38273607809307L73.712890625,160.1676254447507L74.38300781250001,159.29099718807265L75.05312500000001,154.38379132950848L75.72324218749999,118.10101841999725L76.39335937499999,-63.90003578229387L77.73359375,-43.631525093858905L78.4037109375,69.36149570752274L79.07382812499999,141.18517865680835L79.7439453125,157.16507238251242L80.4140625,159.94745236493392L81.0841796875,159.55650511038996L81.754296875,160.12952894395724L82.4244140625,159.85153061591765L83.09453125,160.18954750843642L83.7646484375,159.83752083467235L84.434765625,160.21872847251043L85.1048828125,160.00292165384798L85.775,160.475023014799L86.4451171875,160.39708706788423L87.115234375,160.6284069101358L87.7853515625,160.5755955449422L88.45546875000001,160.54522695408775L89.1255859375,160.52703366853L89.795703125,160.4379515445643L90.4658203125,160.21076533192007L91.13593750000001,159.63132887570694L91.80605468750001,157.9945738664405L92.47617187499999,153.06447509676218L93.14628906249999,139.7093219750307L93.81640625,120.55905968289484L94.4865234375,127.38840970126064L95.156640625,151.49346515790305L95.82675781249999,159.5680505660659L96.496875,157.00746981300074L97.1669921875,137.28270149535754L97.837109375,12.022359235720213L98.5072265625,24.57304919307883L99.17734375,149.56077003936198L99.8474609375,157.08531181751326L100.517578125,158.68657233384013L101.1876953125,160.5459303747524L101.8578125,160.26676877190104L102.5279296875,160.30817503305363L103.198046875,160.2270280449143L103.8681640625,159.69239377871747L104.53828125,157.89951127361167L105.20839843750001,152.12580411186948L105.878515625,136.7200046760792L106.5486328125,119.04505957595326L107.21875,131.4779909056696L107.88886718750001,154.18304718692195L108.55898437500001,159.88335676575926L109.22910156249999,157.489739947275L109.89921874999999,139.83205589719793L110.5693359375,18.485626483505435L111.239453125,21.159445670518014L111.9095703125,150.5668315384537L112.57968749999999,155.71776032913476L113.2498046875,158.3686558840881L113.919921875,160.5823231041061L114.5900390625,160.4189383703686L115.26015625,160.24945653588722L115.9302734375,160.07670699502341L116.600390625,159.46367222127844L117.2705078125,157.59499365167522L117.940625,152.06724924120036L118.6107421875,138.63425374031067L119.280859375,123.97309180010448L119.9509765625,132.8200766037811L120.62109375,152.1483120745556L121.2912109375,159.42736296766353L121.96132812500001,160.63792419805065L122.6314453125,160.7077614763032L123.3015625,160.48777056794444L123.9716796875,159.16766308353874L124.64179687500001,146.1254303241995L125.31191406250001,-17.119067731228718L125.98203124999999,-56.358688148585244L126.65214843749999,134.7661001167514L127.322265625,157.0448189893399L127.9923828125,160.23104864860545L128.6625,160.45577137863305L129.3326171875,160.7730384269433L130.002734375,160.78676078471207L130.6728515625,160.70533381917895L131.34296875,160.5573200949055L132.0130859375,160.24916482740082L132.683203125,159.47027853573672L133.3533203125,157.2926639604636L134.0234375,151.22023007493806L134.69355468749998,137.93398852883413L135.363671875,126.34042085571721L136.03378906249998,135.96784354610875L136.70390625,152.39202882501888L137.3740234375,158.74013917203146L138.044140625,159.91969936283897L138.7142578125,158.85693252509967L139.384375,150.7815499646081L140.0544921875,114.63668187910861L140.724609375,86.696440868757L141.39472656249998,134.89556567235425L142.06484375,152.82373603010043L142.7349609375,125.50565634938803L143.40507812500002,62.356047237461276L144.0751953125,91.36567085981369L144.7453125,155.73413908862594L145.4154296875,157.17543882825836L146.085546875,160.3791821424172L146.7556640625,160.57298042448977L147.42578125,160.70964578012618L148.0958984375,160.79874084107524L148.76601562500002,160.6123236758338L149.4361328125,159.46601534897292L150.10625000000002,154.54906701702964L150.7763671875,137.85944902592084L151.44648437499998,114.23914685506712L152.1166015625,128.5413412952965L152.78671874999998,155.1624058157375L153.4568359375,159.74606682895683L154.126953125,155.57865588968113L154.7970703125,131.43426825715736L155.4671875,11.908754679289746L156.1373046875,40.003703372045L156.807421875,145.07961592213675L157.4775390625,158.47304603021422L158.14765624999998,160.24343518381514L158.8177734375,160.56405997054588L159.487890625,160.78391933144303L160.15800781250002,160.8189672760107L160.828125,160.75732860900726L161.4982421875,160.57810487482294L162.168359375,160.1394416937943L162.8384765625,158.99817132094705L163.50859375,155.87919814639133L164.1787109375,148.05465172806925L164.848828125,135.34476583315566L165.51894531250002,132.09524812346154L166.1890625,144.93550621650436L166.85917968750002,155.6929951262745L167.529296875,158.8969825220887L168.19941406249998,158.64379135722464L168.86953125,153.64486268467525L169.53964843749998,132.69616779278624L170.209765625,103.02717977626756L170.8798828125,128.5218087685379L171.55,157.40768130572343L172.2201171875,151.4471267333085L172.890234375,112.76424477046186L173.5603515625,20.400227714668624L174.23046875,84.97420370578766L174.90058593749998,149.01650578714907L175.570703125,158.72124785134062L176.2408203125,160.36010836928406L176.91093750000002,160.67720200347884L177.5810546875,160.7829155386108L178.251171875,160.8170730557851L178.9212890625,160.75755838388102L179.59140625,160.55622247674776L180.2615234375,159.9857490201777L180.931640625,158.35493767083707L181.6017578125,153.74291045421904L182.27187500000002,143.16595879806712L182.9419921875,132.03662956302816L183.61210937500002,137.75687104091048L184.2822265625,152.05840310759166L184.95234374999998,158.436024856161L185.6224609375,159.68727462025444L186.29257812499998,158.52106811245903L186.9626953125,150.63973458907142L187.6328125,120.65270311791788L188.3029296875,103.91610306094994L188.973046875,141.7657161029902L189.6431640625,157.18833225906235L190.31328125,141.82761506092817L190.9833984375,72.8035483238372L191.65351562499998,58.599807769060135L192.3236328125,148.33746125582945L192.99375,156.67110281319103L193.66386718750002,160.12076485775071L194.333984375,160.27220450595698L195.0041015625,160.6727388261722L195.67421875,160.81357148269572L196.3443359375,160.6430354187085L197.014453125,159.9294043716509L197.6845703125,157.6027244651182L198.3546875,150.61298338950357L199.02480468750002,136.41716209494254L199.694921875,130.44565625488758L200.36503906250002,144.8996526256881L201.03515625,157.1261219705709L201.70527343749998,160.19814244212202L202.375390625,160.68847272680034L203.04550781249998,160.5092550923159L203.715625,158.36424368200824L204.3857421875,142.55967420271853L205.055859375,85.6013785438104L205.7259765625,107.61597184295005L206.39609375,151.61426965485919L207.0662109375,122.87933324209668L207.736328125,74.49540022421967L208.40644531249998,110.43462005528536L209.0765625,157.31799263041466L209.7466796875,158.4124620785852L210.41679687500002,160.48354152076752L211.0869140625,160.48488837195856L211.75703125,160.59853095492474L212.4271484375,160.7549353958695L213.097265625,160.81481390725955L213.7673828125,160.52373519437177L214.4375,158.61355295574123L215.1076171875,149.53326205553657L215.77773437500002,123.9441241967407L216.4478515625,119.78832062333822L217.11796875000002,149.27756638435477L217.7880859375,159.4935392552394L218.45820312499998,155.30480339064854L219.1283203125,129.59676011380822L219.79843749999998,20.277619673447187L220.4685546875,56.663363196633085L221.138671875,140.39568483490837L221.8087890625,155.51695474465802L222.47890625,160.2551716619531L223.1490234375,160.629648485893L223.819140625,160.77643439093L224.4892578125,160.81758676524757L225.15937499999998,160.76888957735554L225.8294921875,160.73438661931007L226.499609375,160.6344329218634L227.16972656250002,160.37222417616496L227.83984375,159.67925739019518L228.5099609375,157.80681007245386L229.180078125,152.98753111792558L229.8501953125,143.7453513270752L230.5203125,137.2343497249213L231.1904296875,143.8478723659434L231.860546875,153.88070363382047L232.53066406250002,157.9195546297441L233.20078125,157.96591515843332L233.87089843750002,153.55272682383657" style="fill: none;" fill="none"></path></g></g></g></g></g><g><g opacity="0.39516"><span fill="rgb(0, 0, 0)" stroke="none" stroke-width="1px">Alt + Scroll to Zoom</span></g></g></g><g transform="translate(61, 177)" clip-path="url(#clip_1)"><clipPath id="clip_1"><rect width="268" height="23"></rect></clipPath><g><g><line x1="0" y1="0" x2="0" y2="5" style="visibility: inherit;" fill="rgb(0, 0, 0)" stroke="rgb(204, 204, 204)" stroke-width="1px"></line><line x1="33.505859375" y1="0" x2="33.505859375" y2="5" style="visibility: inherit;" fill="rgb(0, 0, 0)" stroke="rgb(204, 204, 204)" stroke-width="1px"></line><line x1="67.01171875" y1="0" x2="67.01171875" y2="5" style="visibility: inherit;" fill="rgb(0, 0, 0)" stroke="rgb(204, 204, 204)" stroke-width="1px"></line><line x1="100.517578125" y1="0" x2="100.517578125" y2="5" style="visibility: inherit;" fill="rgb(0, 0, 0)" stroke="rgb(204, 204, 204)" stroke-width="1px"></line><line x1="134.0234375" y1="0" x2="134.0234375" y2="5" style="visibility: inherit;" fill="rgb(0, 0, 0)" stroke="rgb(204, 204, 204)" stroke-width="1px"></line><line x1="167.529296875" y1="0" x2="167.529296875" y2="5" style="visibility: inherit;" fill="rgb(0, 0, 0)" stroke="rgb(204, 204, 204)" stroke-width="1px"></line><line x1="201.03515625" y1="0" x2="201.03515625" y2="5" style="visibility: inherit;" fill="rgb(0, 0, 0)" stroke="rgb(204, 204, 204)" stroke-width="1px"></line><line x1="234.541015625" y1="0" x2="234.541015625" y2="5" style="visibility: inherit;" fill="rgb(0, 0, 0)" stroke="rgb(204, 204, 204)" stroke-width="1px"></line><line x1="268.046875" y1="0" x2="268.046875" y2="5" style="visibility: inherit;" fill="rgb(0, 0, 0)" stroke="rgb(204, 204, 204)" stroke-width="1px"></line></g><g transform="translate(0, 8)"><text x="0" y="0" dx="0em" dy="0.95em" style="text-anchor: middle; visibility: hidden; font-family: Roboto, sans-serif; font-size: 12px; font-weight: 200;" fill="rgb(33, 33, 33)" stroke="none" stroke-width="1px">-50</text><text x="33.505859375" y="0" dx="0em" dy="0.95em" style="text-anchor: middle; visibility: inherit; font-family: Roboto, sans-serif; font-size: 12px; font-weight: 200;" fill="rgb(33, 33, 33)" stroke="none" stroke-width="1px">0</text><text x="67.01171875" y="0" dx="0em" dy="0.95em" style="text-anchor: middle; visibility: inherit; font-family: Roboto, sans-serif; font-size: 12px; font-weight: 200;" fill="rgb(33, 33, 33)" stroke="none" stroke-width="1px">50</text><text x="100.517578125" y="0" dx="0em" dy="0.95em" style="text-anchor: middle; visibility: inherit; font-family: Roboto, sans-serif; font-size: 12px; font-weight: 200;" fill="rgb(33, 33, 33)" stroke="none" stroke-width="1px">100</text><text x="134.0234375" y="0" dx="0em" dy="0.95em" style="text-anchor: middle; visibility: inherit; font-family: Roboto, sans-serif; font-size: 12px; font-weight: 200;" fill="rgb(33, 33, 33)" stroke="none" stroke-width="1px">150</text><text x="167.529296875" y="0" dx="0em" dy="0.95em" style="text-anchor: middle; visibility: inherit; font-family: Roboto, sans-serif; font-size: 12px; font-weight: 200;" fill="rgb(33, 33, 33)" stroke="none" stroke-width="1px">200</text><text x="201.03515625" y="0" dx="0em" dy="0.95em" style="text-anchor: middle; visibility: inherit; font-family: Roboto, sans-serif; font-size: 12px; font-weight: 200;" fill="rgb(33, 33, 33)" stroke="none" stroke-width="1px">250</text><text x="234.541015625" y="0" dx="0em" dy="0.95em" style="text-anchor: middle; visibility: inherit; font-family: Roboto, sans-serif; font-size: 12px; font-weight: 200;" fill="rgb(33, 33, 33)" stroke="none" stroke-width="1px">300</text><text x="268.046875" y="0" dx="0em" dy="0.95em" style="text-anchor: middle; visibility: hidden; font-family: Roboto, sans-serif; font-size: 12px; font-weight: 200;" fill="rgb(33, 33, 33)" stroke="none" stroke-width="1px">350</text></g><line x1="0" y1="0" x2="268.046875" y2="0" fill="rgb(0, 0, 0)" stroke="rgb(204, 204, 204)" stroke-width="1px"></line></g></g></g></g></svg>