<svg viewBox="0 0 330 200" xmlns="http://www.w3.org/2000/svg"><g><g><g><g><g><line x1="61.953125" y1="177" x2="56.953125" y2="177" style="visibility: inherit;" fill="rgb(0, 0, 0)" stroke="rgb(204, 204, 204)" stroke-width="1px"></line><line x1="61.953125" y1="163.3846153846154" x2="56.953125" y2="163.3846153846154" style="visibility: inherit;" fill="rgb(0, 0, 0)" stroke="rgb(204, 204, 204)" stroke-width="1px"></line><line x1="61.953125" y1="149.76923076923077" x2="56.953125" y2="149.76923076923077" style="visibility: inherit;" fill="rgb(0, 0, 0)" stroke="rgb(204, 204, 204)" stroke-width="1px"></line><line x1="61.953125" y1="136.15384615384613" x2="56.953125" y2="136.15384615384613" style="visibility: inherit;" fill="rgb(0, 0, 0)" stroke="rgb(204, 204, 204)" stroke-width="1px"></line><line x1="61.953125" y1="122.53846153846153" x2="56.953125" y2="122.53846153846153" style="visibility: inherit;" fill="rgb(0, 0, 0)" stroke="rgb(204, 204, 204)" stroke-width="1px"></line><line x1="61.953125" y1="108.92307692307693" x2="56.953125" y2="108.92307692307693" style="visibility: inherit;" fill="rgb(0, 0, 0)" stroke="rgb(204, 204, 204)" stroke-width="1px"></line><line x1="61.953125" y1="95.30769230769232" x2="56.953125" y2="95.30769230769232" style="visibility: inherit;" fill="rgb(0, 0, 0)" stroke="rgb(204, 204, 204)" stroke-width="1px"></line><line x1="61.953125" y1="81.6923076923077" x2="56.953125" y2="81.6923076923077" style="visibility: inherit;" fill="rgb(0, 0, 0)" stroke="rgb(204, 204, 204)" stroke-width="1px"></line><line x1="61.953125" y1="68.0769230769231" x2="56.953125" y2="68.0769230769231" style="visibility: inherit;" fill="rgb(0, 0, 0)" stroke="rgb(204, 204, 204)" stroke-width="1px"></line><line x1="61.953125" y1="54.46153846153847" x2="56.953125" y2="54.46153846153847" style="visibility: inherit;" fill="rgb(0, 0, 0)" stroke="rgb(204, 204, 204)" stroke-width="1px"></line><line x1="61.953125" y1="40.84615384615386" x2="56.953125" y2="40.84615384615386" style="visibility: inherit;" fill="rgb(0, 0, 0)" stroke="rgb(204, 204, 204)" stroke-width="1px"></line><line x1="61.953125" y1="27.230769230769234" x2="56.953125" y2="27.230769230769234" style="visibility: inherit;" fill="rgb(0, 0, 0)" stroke="rgb(204, 204, 204)" stroke-width="1px"></line><line x1="61.953125" y1="13.615384615384606" x2="56.953125" y2="13.615384615384606" style="visibility: inherit;" fill="rgb(0, 0, 0)" stroke="rgb(204, 204, 204)" stroke-width="1px"></line><line x1="61.953125" y1="0" x2="56.953125" y2="0" style="visibility: inherit;" fill="rgb(0, 0, 0)" stroke="rgb(204, 204, 204)" stroke-width="1px"></line></g><g transform="translate(51.953125, 0)"><text x="0" y="177" dx="0em" dy="0.3em" style="text-anchor: end; visibility: hidden; font-family: Roboto, sans-serif; font-size: 12px; font-weight: 200;" fill="rgb(33, 33, 33)" stroke="none" stroke-width="1px">-0.05</text><text x="0" y="163.3846153846154" dx="0em" dy="0.3em" style="text-anchor: end; visibility: inherit; font-family: Roboto, sans-serif; font-size: 12px; font-weight: 200;" fill="rgb(33, 33, 33)" stroke="none" stroke-width="1px">0</text><text x="0" y="149.76923076923077" dx="0em" dy="0.3em" style="text-anchor: end; visibility: hidden; font-family: Roboto, sans-serif; font-size: 12px; font-weight: 200;" fill="rgb(33, 33, 33)" stroke="none" stroke-width="1px">0.05</text><text x="0" y="136.15384615384613" dx="0em" dy="0.3em" style="text-anchor: end; visibility: inherit; font-family: Roboto, sans-serif; font-size: 12px; font-weight: 200;" fill="rgb(33, 33, 33)" stroke="none" stroke-width="1px">0.1</text><text x="0" y="122.53846153846153" dx="0em" dy="0.3em" style="text-anchor: end; visibility: hidden; font-family: Roboto, sans-serif; font-size: 12px; font-weight: 200;" fill="rgb(33, 33, 33)" stroke="none" stroke-width="1px">0.15</text><text x="0" y="108.92307692307693" dx="0em" dy="0.3em" style="text-anchor: end; visibility: inherit; font-family: Roboto, sans-serif; font-size: 12px; font-weight: 200;" fill="rgb(33, 33, 33)" stroke="none" stroke-width="1px">0.2</text><text x="0" y="95.30769230769232" dx="0em" dy="0.3em" style="text-anchor: end; visibility: hidden; font-family: Roboto, sans-serif; font-size: 12px; font-weight: 200;" fill="rgb(33, 33, 33)" stroke="none" stroke-width="1px">0.25</text><text x="0" y="81.6923076923077" dx="0em" dy="0.3em" style="text-anchor: end; visibility: inherit; font-family: Roboto, sans-serif; font-size: 12px; font-weight: 200;" fill="rgb(33, 33, 33)" stroke="none" stroke-width="1px">0.3</text><text x="0" y="68.0769230769231" dx="0em" dy="0.3em" style="text-anchor: end; visibility: hidden; font-family: Roboto, sans-serif; font-size: 12px; font-weight: 200;" fill="rgb(33, 33, 33)" stroke="none" stroke-width="1px">0.35</text><text x="0" y="54.46153846153847" dx="0em" dy="0.3em" style="text-anchor: end; visibility: inherit; font-family: Roboto, sans-serif; font-size: 12px; font-weight: 200;" fill="rgb(33, 33, 33)" stroke="none" stroke-width="1px">0.4</text><text x="0" y="40.84615384615386" dx="0em" dy="0.3em" style="text-anchor: end; visibility: hidden; font-family: Roboto, sans-serif; font-size: 12px; font-weight: 200;" fill="rgb(33, 33, 33)" stroke="none" stroke-width="1px">0.45</text><text x="0" y="27.230769230769234" dx="0em" dy="0.3em" style="text-anchor: end; visibility: inherit; font-family: Roboto, sans-serif; font-size: 12px; font-weight: 200;" fill="rgb(33, 33, 33)" stroke="none" stroke-width="1px">0.5</text><text x="0" y="13.615384615384606" dx="0em" dy="0.3em" style="text-anchor: end; visibility: hidden; font-family: Roboto, sans-serif; font-size: 12px; font-weight: 200;" fill="rgb(33, 33, 33)" stroke="none" stroke-width="1px">0.55</text><text x="0" y="0" dx="0em" dy="0.3em" style="text-anchor: end; visibility: hidden; font-family: Roboto, sans-serif; font-size: 12px; font-weight: 200;" fill="rgb(33, 33, 33)" stroke="none" stroke-width="1px">0.6</text></g><line x1="61.953125" y1="0" x2="61.953125" y2="177" fill="rgb(0, 0, 0)" stroke="rgb(204, 204, 204)" stroke-width="1px"></line></g></g><g transform="translate(61, 0)" clip-path="url(#clip_0)"><clipPath id="clip_0"><rect width="268" height="177"></rect></clipPath><g><g><g><line x1="0" y1="0" x2="0" y2="177" fill="rgb(0, 0, 0)" stroke="rgb(66, 66, 66)" stroke-width="1px" opacity="0.25"></line><line x1="33.505859375" y1="0" x2="33.505859375" y2="177" fill="rgb(0, 0, 0)" stroke="rgb(66, 66, 66)" stroke-width="1px" opacity="0.25"></line><line x1="67.01171875" y1="0" x2="67.01171875" y2="177" fill="rgb(0, 0, 0)" stroke="rgb(66, 66, 66)" stroke-width="1px" opacity="0.25"></line><line x1="100.517578125" y1="0" x2="100.517578125" y2="177" fill="rgb(0, 0, 0)" stroke="rgb(66, 66, 66)" stroke-width="1px" opacity="0.25"></line><line x1="134.0234375" y1="0" x2="134.0234375" y2="177" fill="rgb(0, 0, 0)" stroke="rgb(66, 66, 66)" stroke-width="1px" opacity="0.25"></line><line x1="167.529296875" y1="0" x2="167.529296875" y2="177" fill="rgb(0, 0, 0)" stroke="rgb(66, 66, 66)" stroke-width="1px" opacity="0.25"></line><line x1="201.03515625" y1="0" x2="201.03515625" y2="177" fill="rgb(0, 0, 0)" stroke="rgb(66, 66, 66)" stroke-width="1px" opacity="0.25"></line><line x1="234.541015625" y1="0" x2="234.541015625" y2="177" fill="rgb(0, 0, 0)" stroke="rgb(66, 66, 66)" stroke-width="1px" opacity="0.25"></line><line x1="268.046875" y1="0" x2="268.046875" y2="177" fill="rgb(0, 0, 0)" stroke="rgb(66, 66, 66)" stroke-width="1px" opacity="0.25"></line></g><g><line x1="0" y1="177" x2="268.046875" y2="177" fill="rgb(0, 0, 0)" stroke="rgb(66, 66, 66)" stroke-width="1px" opacity="0.25"></line><line x1="0" y1="163.3846153846154" x2="268.046875" y2="163.3846153846154" fill="rgb(0, 0, 0)" stroke="rgb(66, 66, 66)" stroke-width="1px" opacity="0.25"></line><line x1="0" y1="149.76923076923077" x2="268.046875" y2="149.76923076923077" fill="rgb(0, 0, 0)" stroke="rgb(66, 66, 66)" stroke-width="1px" opacity="0.25"></line><line x1="0" y1="136.15384615384613" x2="268.046875" y2="136.15384615384613" fill="rgb(0, 0, 0)" stroke="rgb(66, 66, 66)" stroke-width="1px" opacity="0.25"></line><line x1="0" y1="122.53846153846153" x2="268.046875" y2="122.53846153846153" fill="rgb(0, 0, 0)" stroke="rgb(66, 66, 66)" stroke-width="1px" opacity="0.25"></line><line x1="0" y1="108.92307692307693" x2="268.046875" y2="108.92307692307693" fill="rgb(0, 0, 0)" stroke="rgb(66, 66, 66)" stroke-width="1px" opacity="0.25"></line><line x1="0" y1="95.30769230769232" x2="268.046875" y2="95.30769230769232" fill="rgb(0, 0, 0)" stroke="rgb(66, 66, 66)" stroke-width="1px" opacity="0.25"></line><line x1="0" y1="81.6923076923077" x2="268.046875" y2="81.6923076923077" fill="rgb(0, 0, 0)" stroke="rgb(66, 66, 66)" stroke-width="1px" opacity="0.25"></line><line x1="0" y1="68.0769230769231" x2="268.046875" y2="68.0769230769231" fill="rgb(0, 0, 0)" stroke="rgb(66, 66, 66)" stroke-width="1px" opacity="0.25"></line><line x1="0" y1="54.46153846153847" x2="268.046875" y2="54.46153846153847" fill="rgb(0, 0, 0)" stroke="rgb(66, 66, 66)" stroke-width="1px" opacity="0.25"></line><line x1="0" y1="40.84615384615386" x2="268.046875" y2="40.84615384615386" fill="rgb(0, 0, 0)" stroke="rgb(66, 66, 66)" stroke-width="1px" opacity="0.25"></line><line x1="0" y1="27.230769230769234" x2="268.046875" y2="27.230769230769234" fill="rgb(0, 0, 0)" stroke="rgb(66, 66, 66)" stroke-width="1px" opacity="0.25"></line><line x1="0" y1="13.615384615384606" x2="268.046875" y2="13.615384615384606" fill="rgb(0, 0, 0)" stroke="rgb(66, 66, 66)" stroke-width="1px" opacity="0.25"></line><line x1="0" y1="0" x2="268.046875" y2="0" fill="rgb(0, 0, 0)" stroke="rgb(66, 66, 66)" stroke-width="1px" opacity="0.25"></line></g></g></g><g><g><line x1="0" y1="163.3846153846154" x2="268.046875" y2="163.3846153846154" fill="rgb(0, 0, 0)" stroke="rgb(153, 153, 153)" stroke-width="1.5px"></line></g></g><g><g><line x1="33.505859375" y1="0" x2="33.505859375" y2="177" fill="rgb(0, 0, 0)" stroke="rgb(153, 153, 153)" stroke-width="1.5px"></line></g></g><g><g><g><g><g><path stroke="rgb(51, 187, 238)" stroke-width="2px" d="M38.866796875,-38.83455678132865L39.536914062499996,72.91670677295097L40.20703125,16.311106791863068L40.8771484375,52.093308448791504L41.547265625,41.86240014663111L42.2173828125,124.28893581720499L42.8875,140.23398970869872L43.5576171875,134.60255832167772L44.227734375000004,145.63948628535638L44.8978515625,131.6981575191021L45.567968750000006,142.3323708497561L46.238085937499996,141.78458326825728L46.908203125,133.4441780654284L47.5783203125,134.59867915969627L48.2484375,130.20247276700462L48.9185546875,120.70790528792602L49.588671875,122.52514659899933L50.2587890625,134.98668056955705L50.92890625,138.88309995256938L51.5990234375,129.78935418908412L52.269140625,116.96762217466647L52.9392578125,124.1334771834887L53.609375,143.09820912893002L54.279492187500004,148.17654546178306L54.949609374999994,138.46186191531328L55.6197265625,110.68023098890598L56.289843749999996,102.88451125530096L56.9599609375,140.9996981414465L57.630078125,159.27822088937347L58.3001953125,159.3439361149302L58.9703125,155.21379417926073L59.6404296875,132.30060638831213L60.310546875,39.77750477424034L60.980664062500004,77.95095821527335L61.65078125,153.2353987441613L62.320898437500006,158.14884178168498L62.991015624999996,158.5217236910875L63.6611328125,160.38945548064433L64.33125,160.42846646990913L65.0013671875,159.13060858100653L65.671484375,152.77355529482548L66.3416015625,117.56831203057216L67.01171875,13.27440465413606L67.6818359375,67.8536050778169L68.351953125,130.56869446772797L69.0220703125,152.4800759966557L69.6921875,159.48140366404104L70.3623046875,161.00983989467989L71.032421875,161.5242627776013L71.70253906250001,161.6947420053184L72.37265625,161.71907197941954L73.0427734375,161.6897528085571L73.712890625,161.52010883319264L74.38300781250001,160.72196909985863L75.05312500000001,156.08030503013958L75.72324218749999,121.02779818956668L76.39335937499999,-57.14003001726592L77.73359375,-34.38669991493225L78.4037109375,81.86628242639395L79.07382812499999,143.771679935547L79.7439453125,159.22304985299706L80.4140625,161.47011225298047L81.0841796875,161.12649397466046L81.754296875,161.66702689431034L82.4244140625,161.4338880165552L83.09453125,161.75108153272706L83.7646484375,161.4961975630946L84.434765625,161.80855214423858L85.1048828125,161.7085470643181L85.775,162.10388238799686L86.4451171875,162.10405090938394L87.115234375,162.31894851991763L87.7853515625,162.28584643066503L88.45546875000001,162.27653920621825L89.1255859375,162.27209615062637L89.795703125,162.19693370994466L90.4658203125,161.9888241256659L91.13593750000001,161.43938569395016L91.80605468750001,159.87570871212162L92.47617187499999,155.18577271184097L93.14628906249999,142.61496942318405L93.81640625,124.79388422232407L94.4865234375,131.17258584957855L95.156640625,153.88656538381028L95.82675781249999,161.50115074776113L96.496875,158.99879264831543L97.1669921875,139.85825472840895L97.837109375,15.594062365018395L98.5072265625,36.3601984152427L99.17734375,152.93903442071033L99.8474609375,158.87530261048903L100.517578125,160.6435398296095L101.1876953125,162.3654194019305L101.8578125,162.14999524131417L102.5279296875,162.20961858991248L103.198046875,162.13433391099366L103.8681640625,161.62685337376135L104.53828125,159.91157751931595L105.20839843750001,154.41946018888402L105.878515625,139.937264249875L106.5486328125,123.46788440300868L107.21875,135.04779563041834L107.88886718750001,156.52328980771395L108.55898437500001,161.90884823738955L109.22910156249999,159.57297582723774L109.89921874999999,142.4332878979353L110.5693359375,21.842434699718755L111.239453125,32.45965235049908L111.9095703125,154.43903250877673L112.57968749999999,157.63041775215132L113.2498046875,160.47131376169048L113.919921875,162.48405110384695L114.5900390625,162.38613554964272L115.26015625,162.24792506087286L115.9302734375,162.08603560537674L116.600390625,161.50119829894257L117.2705078125,159.7080214361732L117.940625,154.4356625882479L118.6107421875,141.7581899532905L119.280859375,128.0158488062712L119.9509765625,136.30392995705972L120.62109375,154.67079722078947L121.2912109375,161.5683196446357L121.96132812500001,162.67501087902258L122.6314453125,162.73832660856155L123.3015625,162.55325937579173L123.9716796875,161.3257565031258L124.64179687500001,148.73069044603753L125.31191406250001,-14.698086316768945L125.98203124999999,-37.07491047565756L126.65214843749999,139.15002971429092L127.322265625,158.86718822327944L127.9923828125,162.32857744395733L128.6625,162.50755311677662L129.3326171875,162.79117644986567L130.002734375,162.82174215909953L130.6728515625,162.76698855869472L131.34296875,162.63547872880903L132.0130859375,162.34297676592206L132.683203125,161.58884920151186L133.3533203125,159.48233947129202L134.0234375,153.65618536220146L134.69355468749998,141.03679770001997L135.363671875,130.05789688688057L136.03378906249998,139.18325213973338L136.70390625,154.93477957007977L137.3740234375,160.9761034092651L138.044140625,162.05529687324395L138.7142578125,161.0165609688713L139.384375,153.3242309448811L140.0544921875,119.55608633389839L140.724609375,93.03190645804771L141.39472656249998,138.0118994139708L142.06484375,155.104355959365L142.7349609375,128.19142957834097L143.40507812500002,65.73670256137848L144.0751953125,96.92018203551955L144.7453125,158.9809286204668L145.4154296875,159.33893018015303L146.085546875,162.5710681174667L146.7556640625,162.6716770973916L147.42578125,162.81863839838368L148.0958984375,162.9302472663112L148.76601562500002,162.75757653144402L149.4361328125,161.6381361912936L150.10625000000002,156.88760388184053L150.7763671875,141.00967399890607L151.44648437499998,118.69466891197058L152.1166015625,131.9910585949054L152.78671874999998,157.62764989298122L153.4568359375,161.96589887686648L154.126953125,157.8595616966486L154.7970703125,134.12178975572954L155.4671875,14.861907060329717L156.1373046875,51.52878488027133L156.807421875,148.18253259933914L157.4775390625,160.53818391034235L158.14765624999998,162.35263732734782L158.8177734375,162.69071519561112L159.487890625,162.91553512097408L160.15800781250002,162.961659228071L160.828125,162.91768510009234L161.4982421875,162.7497986163944L162.168359375,162.32270474624463L162.8384765625,161.20801394490096L163.50859375,158.18137845568933L164.1787109375,150.66391504842503L164.848828125,138.56106255604672L165.51894531250002,135.4532147210378L166.1890625,147.79536910469716L166.85917968750002,158.1436418380875L167.529296875,161.16739230201793L168.19941406249998,160.88956304868827L168.86953125,156.09925246410646L169.53964843749998,136.33447835766353L170.209765625,108.49439219328073L170.8798828125,132.0140718450913L171.55,159.7444502060803L172.2201171875,153.82693442702293L172.890234375,115.44017779827118L173.5603515625,24.27057909965515L174.23046875,93.55777636858134L174.90058593749998,151.57391025011356L175.570703125,160.86362039211852L176.2408203125,162.44835810922086L176.91093750000002,162.82900709200365L177.5810546875,162.95243607411305L178.251171875,162.99799479766247L178.9212890625,162.95242856102638L179.59140625,162.7608192684129L180.2615234375,162.20269957600306L180.931640625,160.60989388164418L181.6017578125,156.1452480245095L182.27187500000002,146.01862973433273L182.9419921875,135.42787843713393L183.61210937500002,140.88619816303253L184.2822265625,154.68153998370354L184.95234374999998,160.77812032458874L185.6224609375,161.9312773054609L186.29257812499998,160.79368338246758L186.9626953125,153.26016187782471L187.6328125,125.10330825585586L188.3029296875,109.00894517623462L188.973046875,144.7747030006005L189.6431640625,159.54812951070758L190.31328125,144.317363599172L190.9833984375,75.3837077159148L191.65351562499998,64.16794673296123L192.3236328125,152.48938436233078L192.99375,158.92636978970123L193.66386718750002,162.42298562301752L194.333984375,162.44429704811998L195.0041015625,162.85873707337305L195.67421875,163.0315917362101L196.3443359375,162.87412495269942L197.014453125,162.17137120922024L197.6845703125,159.89884242530053L198.3546875,153.1557379617141L199.02480468750002,139.62179627097572L199.694921875,133.90160673627486L200.36503906250002,147.78690169751644L201.03515625,159.57344601331997L201.70527343749998,162.463501955884L202.375390625,162.9111199303745L203.04550781249998,162.74559800842633L203.715625,160.66850052258144L204.3857421875,145.62081883274593L205.055859375,92.78621267355406L205.7259765625,111.39126596084007L206.39609375,154.03129748541576L207.0662109375,125.49572444420593L207.736328125,77.34069624313942L208.40644531249998,115.01594517781184L209.0765625,160.3629812652675L209.7466796875,160.62727555030813L210.41679687500002,162.7778566665231L211.0869140625,162.69808417050024L211.75703125,162.82928662954902L212.4271484375,163.01078381471766L213.097265625,163.0780754887427L213.7673828125,162.78531732009006L214.4375,160.906243749536L215.1076171875,152.14479122138943L215.77773437500002,127.89239731660255L216.4478515625,123.60513207545647L217.11796875000002,152.04293380104576L217.7880859375,161.8666672961643L218.45820312499998,157.6434759405943L219.1283203125,132.1322706410518L219.79843749999998,22.72504955071668L220.4685546875,67.2689309670375L221.138671875,142.95414046140817L221.8087890625,157.81472460982891L222.47890625,162.4044021774943L223.1490234375,162.84728063062693L223.819140625,162.96621501166373L224.4892578125,163.04569899881832L225.15937499999998,163.0192447549377L225.8294921875,162.9932403769344L226.499609375,162.89873287930655L227.16972656250002,162.64211617632267L227.83984375,161.9596230085366L228.5099609375,160.1250922146898L229.180078125,155.4481771227259L229.8501953125,146.57164769218517L230.5203125,140.34801515936852L231.1904296875,146.73753563142742L231.860546875,156.4574982466606L232.53066406250002,160.31481103083263L233.20078125,160.32360837981105L233.87089843750002,156.07413986096014" style="fill: none;" fill="none"></path></g></g></g></g></g><g><g opacity="0.591434"><span fill="rgb(0, 0, 0)" stroke="none" stroke-width="1px">Alt + Scroll to Zoom</span></g></g></g><g transform="translate(61, 177)" clip-path="url(#clip_1)"><clipPath id="clip_1"><rect width="268" height="23"></rect></clipPath><g><g><line x1="0" y1="0" x2="0" y2="5" style="visibility: inherit;" fill="rgb(0, 0, 0)" stroke="rgb(204, 204, 204)" stroke-width="1px"></line><line x1="33.505859375" y1="0" x2="33.505859375" y2="5" style="visibility: inherit;" fill="rgb(0, 0, 0)" stroke="rgb(204, 204, 204)" stroke-width="1px"></line><line x1="67.01171875" y1="0" x2="67.01171875" y2="5" style="visibility: inherit;" fill="rgb(0, 0, 0)" stroke="rgb(204, 204, 204)" stroke-width="1px"></line><line x1="100.517578125" y1="0" x2="100.517578125" y2="5" style="visibility: inherit;" fill="rgb(0, 0, 0)" stroke="rgb(204, 204, 204)" stroke-width="1px"></line><line x1="134.0234375" y1="0" x2="134.0234375" y2="5" style="visibility: inherit;" fill="rgb(0, 0, 0)" stroke="rgb(204, 204, 204)" stroke-width="1px"></line><line x1="167.529296875" y1="0" x2="167.529296875" y2="5" style="visibility: inherit;" fill="rgb(0, 0, 0)" stroke="rgb(204, 204, 204)" stroke-width="1px"></line><line x1="201.03515625" y1="0" x2="201.03515625" y2="5" style="visibility: inherit;" fill="rgb(0, 0, 0)" stroke="rgb(204, 204, 204)" stroke-width="1px"></line><line x1="234.541015625" y1="0" x2="234.541015625" y2="5" style="visibility: inherit;" fill="rgb(0, 0, 0)" stroke="rgb(204, 204, 204)" stroke-width="1px"></line><line x1="268.046875" y1="0" x2="268.046875" y2="5" style="visibility: inherit;" fill="rgb(0, 0, 0)" stroke="rgb(204, 204, 204)" stroke-width="1px"></line></g><g transform="translate(0, 8)"><text x="0" y="0" dx="0em" dy="0.95em" style="text-anchor: middle; visibility: hidden; font-family: Roboto, sans-serif; font-size: 12px; font-weight: 200;" fill="rgb(33, 33, 33)" stroke="none" stroke-width="1px">-50</text><text x="33.505859375" y="0" dx="0em" dy="0.95em" style="text-anchor: middle; visibility: inherit; font-family: Roboto, sans-serif; font-size: 12px; font-weight: 200;" fill="rgb(33, 33, 33)" stroke="none" stroke-width="1px">0</text><text x="67.01171875" y="0" dx="0em" dy="0.95em" style="text-anchor: middle; visibility: inherit; font-family: Roboto, sans-serif; font-size: 12px; font-weight: 200;" fill="rgb(33, 33, 33)" stroke="none" stroke-width="1px">50</text><text x="100.517578125" y="0" dx="0em" dy="0.95em" style="text-anchor: middle; visibility: inherit; font-family: Roboto, sans-serif; font-size: 12px; font-weight: 200;" fill="rgb(33, 33, 33)" stroke="none" stroke-width="1px">100</text><text x="134.0234375" y="0" dx="0em" dy="0.95em" style="text-anchor: middle; visibility: inherit; font-family: Roboto, sans-serif; font-size: 12px; font-weight: 200;" fill="rgb(33, 33, 33)" stroke="none" stroke-width="1px">150</text><text x="167.529296875" y="0" dx="0em" dy="0.95em" style="text-anchor: middle; visibility: inherit; font-family: Roboto, sans-serif; font-size: 12px; font-weight: 200;" fill="rgb(33, 33, 33)" stroke="none" stroke-width="1px">200</text><text x="201.03515625" y="0" dx="0em" dy="0.95em" style="text-anchor: middle; visibility: inherit; font-family: Roboto, sans-serif; font-size: 12px; font-weight: 200;" fill="rgb(33, 33, 33)" stroke="none" stroke-width="1px">250</text><text x="234.541015625" y="0" dx="0em" dy="0.95em" style="text-anchor: middle; visibility: inherit; font-family: Roboto, sans-serif; font-size: 12px; font-weight: 200;" fill="rgb(33, 33, 33)" stroke="none" stroke-width="1px">300</text><text x="268.046875" y="0" dx="0em" dy="0.95em" style="text-anchor: middle; visibility: hidden; font-family: Roboto, sans-serif; font-size: 12px; font-weight: 200;" fill="rgb(33, 33, 33)" stroke="none" stroke-width="1px">350</text></g><line x1="0" y1="0" x2="268.046875" y2="0" fill="rgb(0, 0, 0)" stroke="rgb(204, 204, 204)" stroke-width="1px"></line></g></g></g></g></svg>