<svg viewBox="0 0 330 200" xmlns="http://www.w3.org/2000/svg"><g><g><g><g><g><line x1="70" y1="177" x2="65" y2="177" style="visibility: inherit;" fill="rgb(0, 0, 0)" stroke="rgb(204, 204, 204)" stroke-width="1px"></line><line x1="70" y1="159.3" x2="65" y2="159.3" style="visibility: inherit;" fill="rgb(0, 0, 0)" stroke="rgb(204, 204, 204)" stroke-width="1px"></line><line x1="70" y1="141.6" x2="65" y2="141.6" style="visibility: inherit;" fill="rgb(0, 0, 0)" stroke="rgb(204, 204, 204)" stroke-width="1px"></line><line x1="70" y1="123.89999999999999" x2="65" y2="123.89999999999999" style="visibility: inherit;" fill="rgb(0, 0, 0)" stroke="rgb(204, 204, 204)" stroke-width="1px"></line><line x1="70" y1="106.2" x2="65" y2="106.2" style="visibility: inherit;" fill="rgb(0, 0, 0)" stroke="rgb(204, 204, 204)" stroke-width="1px"></line><line x1="70" y1="88.49999999999999" x2="65" y2="88.49999999999999" style="visibility: inherit;" fill="rgb(0, 0, 0)" stroke="rgb(204, 204, 204)" stroke-width="1px"></line><line x1="70" y1="70.79999999999997" x2="65" y2="70.79999999999997" style="visibility: inherit;" fill="rgb(0, 0, 0)" stroke="rgb(204, 204, 204)" stroke-width="1px"></line><line x1="70" y1="53.099999999999966" x2="65" y2="53.099999999999966" style="visibility: inherit;" fill="rgb(0, 0, 0)" stroke="rgb(204, 204, 204)" stroke-width="1px"></line><line x1="70" y1="35.39999999999997" x2="65" y2="35.39999999999997" style="visibility: inherit;" fill="rgb(0, 0, 0)" stroke="rgb(204, 204, 204)" stroke-width="1px"></line><line x1="70" y1="17.699999999999957" x2="65" y2="17.699999999999957" style="visibility: inherit;" fill="rgb(0, 0, 0)" stroke="rgb(204, 204, 204)" stroke-width="1px"></line></g><g transform="translate(60, 0)"><text x="0" y="177" dx="0em" dy="0.3em" style="text-anchor: end; visibility: hidden; font-family: Roboto, sans-serif; font-size: 12px; font-weight: 200;" fill="rgb(33, 33, 33)" stroke="none" stroke-width="1px">2e-4</text><text x="0" y="159.3" dx="0em" dy="0.3em" style="text-anchor: end; visibility: inherit; font-family: Roboto, sans-serif; font-size: 12px; font-weight: 200;" fill="rgb(33, 33, 33)" stroke="none" stroke-width="1px">3e-4</text><text x="0" y="141.6" dx="0em" dy="0.3em" style="text-anchor: end; visibility: hidden; font-family: Roboto, sans-serif; font-size: 12px; font-weight: 200;" fill="rgb(33, 33, 33)" stroke="none" stroke-width="1px">4e-4</text><text x="0" y="123.89999999999999" dx="0em" dy="0.3em" style="text-anchor: end; visibility: inherit; font-family: Roboto, sans-serif; font-size: 12px; font-weight: 200;" fill="rgb(33, 33, 33)" stroke="none" stroke-width="1px">5e-4</text><text x="0" y="106.2" dx="0em" dy="0.3em" style="text-anchor: end; visibility: hidden; font-family: Roboto, sans-serif; font-size: 12px; font-weight: 200;" fill="rgb(33, 33, 33)" stroke="none" stroke-width="1px">6e-4</text><text x="0" y="88.49999999999999" dx="0em" dy="0.3em" style="text-anchor: end; visibility: inherit; font-family: Roboto, sans-serif; font-size: 12px; font-weight: 200;" fill="rgb(33, 33, 33)" stroke="none" stroke-width="1px">7e-4</text><text x="0" y="70.79999999999997" dx="0em" dy="0.3em" style="text-anchor: end; visibility: hidden; font-family: Roboto, sans-serif; font-size: 12px; font-weight: 200;" fill="rgb(33, 33, 33)" stroke="none" stroke-width="1px">8e-4</text><text x="0" y="53.099999999999966" dx="0em" dy="0.3em" style="text-anchor: end; visibility: inherit; font-family: Roboto, sans-serif; font-size: 12px; font-weight: 200;" fill="rgb(33, 33, 33)" stroke="none" stroke-width="1px">9e-4</text><text x="0" y="35.39999999999997" dx="0em" dy="0.3em" style="text-anchor: end; visibility: hidden; font-family: Roboto, sans-serif; font-size: 12px; font-weight: 200;" fill="rgb(33, 33, 33)" stroke="none" stroke-width="1px">1e-3</text><text x="0" y="17.699999999999957" dx="0em" dy="0.3em" style="text-anchor: end; visibility: inherit; font-family: Roboto, sans-serif; font-size: 12px; font-weight: 200;" fill="rgb(33, 33, 33)" stroke="none" stroke-width="1px">1.1e-3</text></g><line x1="70" y1="0" x2="70" y2="177" fill="rgb(0, 0, 0)" stroke="rgb(204, 204, 204)" stroke-width="1px"></line></g></g><g transform="translate(70, 0)" clip-path="url(#clip_0)"><clipPath id="clip_0"><rect width="260" height="177"></rect></clipPath><g><g><g><line x1="0" y1="0" x2="0" y2="177" fill="rgb(0, 0, 0)" stroke="rgb(66, 66, 66)" stroke-width="1px" opacity="0.25"></line><line x1="21.666666666666664" y1="0" x2="21.666666666666664" y2="177" fill="rgb(0, 0, 0)" stroke="rgb(66, 66, 66)" stroke-width="1px" opacity="0.25"></line><line x1="43.33333333333333" y1="0" x2="43.33333333333333" y2="177" fill="rgb(0, 0, 0)" stroke="rgb(66, 66, 66)" stroke-width="1px" opacity="0.25"></line><line x1="65" y1="0" x2="65" y2="177" fill="rgb(0, 0, 0)" stroke="rgb(66, 66, 66)" stroke-width="1px" opacity="0.25"></line><line x1="86.66666666666666" y1="0" x2="86.66666666666666" y2="177" fill="rgb(0, 0, 0)" stroke="rgb(66, 66, 66)" stroke-width="1px" opacity="0.25"></line><line x1="108.33333333333334" y1="0" x2="108.33333333333334" y2="177" fill="rgb(0, 0, 0)" stroke="rgb(66, 66, 66)" stroke-width="1px" opacity="0.25"></line><line x1="130" y1="0" x2="130" y2="177" fill="rgb(0, 0, 0)" stroke="rgb(66, 66, 66)" stroke-width="1px" opacity="0.25"></line><line x1="151.66666666666669" y1="0" x2="151.66666666666669" y2="177" fill="rgb(0, 0, 0)" stroke="rgb(66, 66, 66)" stroke-width="1px" opacity="0.25"></line><line x1="173.33333333333331" y1="0" x2="173.33333333333331" y2="177" fill="rgb(0, 0, 0)" stroke="rgb(66, 66, 66)" stroke-width="1px" opacity="0.25"></line><line x1="195" y1="0" x2="195" y2="177" fill="rgb(0, 0, 0)" stroke="rgb(66, 66, 66)" stroke-width="1px" opacity="0.25"></line><line x1="216.66666666666669" y1="0" x2="216.66666666666669" y2="177" fill="rgb(0, 0, 0)" stroke="rgb(66, 66, 66)" stroke-width="1px" opacity="0.25"></line><line x1="238.33333333333331" y1="0" x2="238.33333333333331" y2="177" fill="rgb(0, 0, 0)" stroke="rgb(66, 66, 66)" stroke-width="1px" opacity="0.25"></line><line x1="260" y1="0" x2="260" y2="177" fill="rgb(0, 0, 0)" stroke="rgb(66, 66, 66)" stroke-width="1px" opacity="0.25"></line></g><g><line x1="0" y1="177" x2="260" y2="177" fill="rgb(0, 0, 0)" stroke="rgb(66, 66, 66)" stroke-width="1px" opacity="0.25"></line><line x1="0" y1="159.3" x2="260" y2="159.3" fill="rgb(0, 0, 0)" stroke="rgb(66, 66, 66)" stroke-width="1px" opacity="0.25"></line><line x1="0" y1="141.6" x2="260" y2="141.6" fill="rgb(0, 0, 0)" stroke="rgb(66, 66, 66)" stroke-width="1px" opacity="0.25"></line><line x1="0" y1="123.89999999999999" x2="260" y2="123.89999999999999" fill="rgb(0, 0, 0)" stroke="rgb(66, 66, 66)" stroke-width="1px" opacity="0.25"></line><line x1="0" y1="106.2" x2="260" y2="106.2" fill="rgb(0, 0, 0)" stroke="rgb(66, 66, 66)" stroke-width="1px" opacity="0.25"></line><line x1="0" y1="88.49999999999999" x2="260" y2="88.49999999999999" fill="rgb(0, 0, 0)" stroke="rgb(66, 66, 66)" stroke-width="1px" opacity="0.25"></line><line x1="0" y1="70.79999999999997" x2="260" y2="70.79999999999997" fill="rgb(0, 0, 0)" stroke="rgb(66, 66, 66)" stroke-width="1px" opacity="0.25"></line><line x1="0" y1="53.099999999999966" x2="260" y2="53.099999999999966" fill="rgb(0, 0, 0)" stroke="rgb(66, 66, 66)" stroke-width="1px" opacity="0.25"></line><line x1="0" y1="35.39999999999997" x2="260" y2="35.39999999999997" fill="rgb(0, 0, 0)" stroke="rgb(66, 66, 66)" stroke-width="1px" opacity="0.25"></line><line x1="0" y1="17.699999999999957" x2="260" y2="17.699999999999957" fill="rgb(0, 0, 0)" stroke="rgb(66, 66, 66)" stroke-width="1px" opacity="0.25"></line></g></g></g><g><g><line x1="0" y1="212.4" x2="260" y2="212.4" fill="rgb(0, 0, 0)" stroke="rgb(153, 153, 153)" stroke-width="1.5px"></line></g></g><g><g><line x1="21.666666666666664" y1="0" x2="21.666666666666664" y2="177" fill="rgb(0, 0, 0)" stroke="rgb(153, 153, 153)" stroke-width="1.5px"></line></g></g><g><g><g><g><g><path stroke="rgb(187, 187, 187)" stroke-width="2px" d="M28.166666666666668,-10.450899095647046L29.25,18.395498900301728L30.333333333333332,13.047297059185775L31.416666666666668,29.1995251715183L32.5,40.50471870470789L33.583333333333336,48.95198954511431L34.666666666666664,55.41612409763035L35.75,57.12332167206329L36.833333333333336,61.567219712398916L37.91666666666667,71.20582913523538L39,78.57406143341211L40.083333333333336,84.12713357722384L41.166666666666664,70.97647948432711L42.25,85.30769547689704L43.33333333333333,44.67207016898316L44.416666666666664,21.252329500950847L45.5,57.370484788063884L46.583333333333336,79.41226275181396L47.666666666666664,95.49630722505971L48.75,105.18971700696274L49.833333333333336,117.22129604788496L50.916666666666664,123.61702030068263L52,128.33013450619765L53.083333333333336,127.44000214627012L54.16666666666667,133.8006197580602L55.25,140.13381143342704L56.333333333333336,115.58310633301734L57.416666666666664,123.69126196028664L58.5,127.58748609814792L59.58333333333333,117.6323451032862L60.666666666666664,119.278869747743L61.75,101.62968209953978L62.833333333333336,20.66756567694244L63.916666666666664,58.77660492444408L65,77.67439387282354L66.08333333333333,90.26014785524457L67.16666666666667,108.47042359421029L68.25,116.82187880398705L69.33333333333333,123.65582047970965L70.41666666666666,126.92828486217185L71.5,131.08163488106803L72.58333333333333,140.0617282012012L73.66666666666667,117.84171771034597L74.75,130.920211300347L75.83333333333334,130.3619925271254L76.91666666666667,133.81821171389893L78,136.79480155007914L79.08333333333333,125.06780288424342L80.16666666666667,103.9179963223636L81.25,126.49537335857748L82.33333333333333,134.88198672314175L83.41666666666667,149.87206396074035L84.5,151.3187718043104L85.58333333333333,150.06344280447811L86.66666666666666,145.74038063767367L87.75,143.05206191386097L88.83333333333333,139.18471124963835L89.91666666666667,141.46432479503565L91,140.23983709523455L92.08333333333334,123.98825950697064L93.16666666666667,103.55246484288945L94.25,101.29647036558016L95.33333333333333,126.22048552623018L96.41666666666667,134.57347069527023L97.5,137.94367217235268L98.58333333333333,145.80765763423406L99.66666666666667,142.00922725615092L100.75,145.40111088319682L101.83333333333333,147.5622221292928L102.91666666666666,139.90059824902565L104,103.40386819336562L105.08333333333333,107.09213120173662L106.16666666666667,103.13210209608077L107.25,136.09719163980336L108.33333333333334,130.79284863090143L109.41666666666667,143.28094794075005L110.5,147.60334557979368L111.58333333333333,147.57443604650908L112.66666666666667,136.5460363555234L113.75,149.61872949390673L114.83333333333333,154.74359334222973L115.91666666666667,123.23452018210664L117,138.57363418685273L118.08333333333333,134.7087716381997L119.16666666666666,133.66885266043246L120.25,137.23050510054455L121.33333333333333,149.86689197723754L122.41666666666667,153.9695627394598L123.5,150.17095721452498L124.58333333333334,145.93731266688556L125.66666666666667,155.97275849324652L126.75,158.31241650050507L127.83333333333333,143.31808937606402L128.91666666666666,138.4760516335722L130,148.0065284810029L131.08333333333334,143.1856371451635L132.16666666666666,121.27587354518472L133.25,130.00968463495374L134.33333333333334,85.30706700878216L135.41666666666669,112.12063852474093L136.5,132.12190930391662L137.58333333333334,142.25350560047664L138.66666666666666,150.4929750041105L139.75,160.6000558928121L140.83333333333331,159.20779811460525L141.91666666666666,157.43964943578467L143,158.5314376385417L144.08333333333334,150.43888038382866L145.16666666666666,147.14008215707727L146.25,158.41031328784302L147.33333333333334,141.79153517363594L148.41666666666666,137.69749812092633L149.5,146.64381900695153L150.58333333333334,118.29403960620984L151.66666666666669,128.7741420779843L152.75,150.77653775699437L153.83333333333334,156.59621431734413L154.91666666666666,160.06711493139156L156,156.8299426395446L157.08333333333331,151.8463862408884L158.16666666666666,143.15343588134274L159.25,119.44393020132556L160.33333333333334,118.13867404600605L161.41666666666666,142.72515546656214L162.5,146.03435947685503L163.58333333333334,150.13856534971856L164.66666666666666,150.13726205108688L165.75,151.2032830611337L166.83333333333334,153.41296149892733L167.91666666666669,148.3841914556455L169,154.0218749829568L170.08333333333334,149.45544111435302L171.16666666666666,148.22172729657032L172.25,145.74715469973162L173.33333333333331,154.3401889317669L174.41666666666666,152.1584515681956L175.5,153.58693898781203L176.58333333333334,150.02572441482917L177.66666666666666,155.63006307240576L178.75,153.57507536429912L179.83333333333334,142.14443547427655L180.91666666666666,119.37890950832515L182,141.25288133402356L183.08333333333334,148.8583654969465L184.16666666666669,153.1897265336942L185.25,147.50053437785246L186.33333333333334,129.85015676133335L187.41666666666666,137.7746245522052L188.5,112.76372625036164L189.58333333333331,143.7561728631612L190.66666666666666,141.54476871374064L191.75,143.76540413252079L192.83333333333334,148.27625978398137L193.91666666666666,145.84784353394062L195,134.54126943144948L196.08333333333334,145.65770617229865L197.16666666666666,140.26548580625095L198.25,145.15859431014397L199.33333333333334,148.60863184332848L200.41666666666669,152.84968407251873L201.5,142.44527079756372L202.58333333333334,136.67621682872996L203.66666666666666,152.3520042934455L204.75,142.92575012552552L205.83333333333331,137.3119226296898L206.91666666666666,133.09281011936255L208,136.81601492464543L209.08333333333334,150.58946031387896L210.16666666666666,150.71652420340106L211.25,149.0143543738872L212.33333333333334,158.64316072440707L213.41666666666666,160.72342109293677L214.5,158.96627575750463L215.58333333333334,157.1507910663262L216.66666666666669,134.88929652851076L217.75,138.3630046435632L218.83333333333334,147.3143790313974L219.91666666666666,153.38038933589124L221,151.11219124412165L222.08333333333331,127.4703334598802L223.16666666666666,121.4544203063473L224.25,106.91178145827725L225.33333333333334,148.20338839092292L226.41666666666666,147.56990798525513L227.5,153.6371340149548L228.58333333333334,148.58539912858978L229.66666666666666,136.93365694382229L230.75,138.3527070389595L231.83333333333334,142.08321649823338L232.91666666666669,147.64725077440963L234,154.09166585197673L235.08333333333334,157.05750476229005L236.16666666666666,154.67198403677904L237.25,153.06105026286096" style="fill: none;" fill="none"></path></g></g></g></g></g></g><g transform="translate(70, 177)" clip-path="url(#clip_1)"><clipPath id="clip_1"><rect width="260" height="23"></rect></clipPath><g><g><line x1="0" y1="0" x2="0" y2="5" style="visibility: inherit;" fill="rgb(0, 0, 0)" stroke="rgb(204, 204, 204)" stroke-width="1px"></line><line x1="21.666666666666664" y1="0" x2="21.666666666666664" y2="5" style="visibility: inherit;" fill="rgb(0, 0, 0)" stroke="rgb(204, 204, 204)" stroke-width="1px"></line><line x1="43.33333333333333" y1="0" x2="43.33333333333333" y2="5" style="visibility: inherit;" fill="rgb(0, 0, 0)" stroke="rgb(204, 204, 204)" stroke-width="1px"></line><line x1="65" y1="0" x2="65" y2="5" style="visibility: inherit;" fill="rgb(0, 0, 0)" stroke="rgb(204, 204, 204)" stroke-width="1px"></line><line x1="86.66666666666666" y1="0" x2="86.66666666666666" y2="5" style="visibility: inherit;" fill="rgb(0, 0, 0)" stroke="rgb(204, 204, 204)" stroke-width="1px"></line><line x1="108.33333333333334" y1="0" x2="108.33333333333334" y2="5" style="visibility: inherit;" fill="rgb(0, 0, 0)" stroke="rgb(204, 204, 204)" stroke-width="1px"></line><line x1="130" y1="0" x2="130" y2="5" style="visibility: inherit;" fill="rgb(0, 0, 0)" stroke="rgb(204, 204, 204)" stroke-width="1px"></line><line x1="151.66666666666669" y1="0" x2="151.66666666666669" y2="5" style="visibility: inherit;" fill="rgb(0, 0, 0)" stroke="rgb(204, 204, 204)" stroke-width="1px"></line><line x1="173.33333333333331" y1="0" x2="173.33333333333331" y2="5" style="visibility: inherit;" fill="rgb(0, 0, 0)" stroke="rgb(204, 204, 204)" stroke-width="1px"></line><line x1="195" y1="0" x2="195" y2="5" style="visibility: inherit;" fill="rgb(0, 0, 0)" stroke="rgb(204, 204, 204)" stroke-width="1px"></line><line x1="216.66666666666669" y1="0" x2="216.66666666666669" y2="5" style="visibility: inherit;" fill="rgb(0, 0, 0)" stroke="rgb(204, 204, 204)" stroke-width="1px"></line><line x1="238.33333333333331" y1="0" x2="238.33333333333331" y2="5" style="visibility: inherit;" fill="rgb(0, 0, 0)" stroke="rgb(204, 204, 204)" stroke-width="1px"></line><line x1="260" y1="0" x2="260" y2="5" style="visibility: inherit;" fill="rgb(0, 0, 0)" stroke="rgb(204, 204, 204)" stroke-width="1px"></line></g><g transform="translate(0, 8)"><text x="0" y="0" dx="0em" dy="0.95em" style="text-anchor: middle; visibility: hidden; font-family: Roboto, sans-serif; font-size: 12px; font-weight: 200;" fill="rgb(33, 33, 33)" stroke="none" stroke-width="1px">-20</text><text x="21.666666666666664" y="0" dx="0em" dy="0.95em" style="text-anchor: middle; visibility: inherit; font-family: Roboto, sans-serif; font-size: 12px; font-weight: 200;" fill="rgb(33, 33, 33)" stroke="none" stroke-width="1px">0</text><text x="43.33333333333333" y="0" dx="0em" dy="0.95em" style="text-anchor: middle; visibility: hidden; font-family: Roboto, sans-serif; font-size: 12px; font-weight: 200;" fill="rgb(33, 33, 33)" stroke="none" stroke-width="1px">20</text><text x="65" y="0" dx="0em" dy="0.95em" style="text-anchor: middle; visibility: inherit; font-family: Roboto, sans-serif; font-size: 12px; font-weight: 200;" fill="rgb(33, 33, 33)" stroke="none" stroke-width="1px">40</text><text x="86.66666666666666" y="0" dx="0em" dy="0.95em" style="text-anchor: middle; visibility: hidden; font-family: Roboto, sans-serif; font-size: 12px; font-weight: 200;" fill="rgb(33, 33, 33)" stroke="none" stroke-width="1px">60</text><text x="108.33333333333334" y="0" dx="0em" dy="0.95em" style="text-anchor: middle; visibility: inherit; font-family: Roboto, sans-serif; font-size: 12px; font-weight: 200;" fill="rgb(33, 33, 33)" stroke="none" stroke-width="1px">80</text><text x="130" y="0" dx="0em" dy="0.95em" style="text-anchor: middle; visibility: hidden; font-family: Roboto, sans-serif; font-size: 12px; font-weight: 200;" fill="rgb(33, 33, 33)" stroke="none" stroke-width="1px">100</text><text x="151.66666666666669" y="0" dx="0em" dy="0.95em" style="text-anchor: middle; visibility: inherit; font-family: Roboto, sans-serif; font-size: 12px; font-weight: 200;" fill="rgb(33, 33, 33)" stroke="none" stroke-width="1px">120</text><text x="173.33333333333331" y="0" dx="0em" dy="0.95em" style="text-anchor: middle; visibility: hidden; font-family: Roboto, sans-serif; font-size: 12px; font-weight: 200;" fill="rgb(33, 33, 33)" stroke="none" stroke-width="1px">140</text><text x="195" y="0" dx="0em" dy="0.95em" style="text-anchor: middle; visibility: inherit; font-family: Roboto, sans-serif; font-size: 12px; font-weight: 200;" fill="rgb(33, 33, 33)" stroke="none" stroke-width="1px">160</text><text x="216.66666666666669" y="0" dx="0em" dy="0.95em" style="text-anchor: middle; visibility: hidden; font-family: Roboto, sans-serif; font-size: 12px; font-weight: 200;" fill="rgb(33, 33, 33)" stroke="none" stroke-width="1px">180</text><text x="238.33333333333331" y="0" dx="0em" dy="0.95em" style="text-anchor: middle; visibility: inherit; font-family: Roboto, sans-serif; font-size: 12px; font-weight: 200;" fill="rgb(33, 33, 33)" stroke="none" stroke-width="1px">200</text><text x="260" y="0" dx="0em" dy="0.95em" style="text-anchor: middle; visibility: hidden; font-family: Roboto, sans-serif; font-size: 12px; font-weight: 200;" fill="rgb(33, 33, 33)" stroke="none" stroke-width="1px">220</text></g><line x1="0" y1="0" x2="260" y2="0" fill="rgb(0, 0, 0)" stroke="rgb(204, 204, 204)" stroke-width="1px"></line></g></g></g></g></svg>