<svg viewBox="0 0 330 200" xmlns="http://www.w3.org/2000/svg"><g><g><g><g><g><line x1="72.34375" y1="177" x2="67.34375" y2="177" style="visibility: inherit;" fill="rgb(0, 0, 0)" stroke="rgb(204, 204, 204)" stroke-width="1px"></line><line x1="72.34375" y1="154.875" x2="67.34375" y2="154.875" style="visibility: inherit;" fill="rgb(0, 0, 0)" stroke="rgb(204, 204, 204)" stroke-width="1px"></line><line x1="72.34375" y1="132.75" x2="67.34375" y2="132.75" style="visibility: inherit;" fill="rgb(0, 0, 0)" stroke="rgb(204, 204, 204)" stroke-width="1px"></line><line x1="72.34375" y1="110.625" x2="67.34375" y2="110.625" style="visibility: inherit;" fill="rgb(0, 0, 0)" stroke="rgb(204, 204, 204)" stroke-width="1px"></line><line x1="72.34375" y1="88.5" x2="67.34375" y2="88.5" style="visibility: inherit;" fill="rgb(0, 0, 0)" stroke="rgb(204, 204, 204)" stroke-width="1px"></line><line x1="72.34375" y1="66.375" x2="67.34375" y2="66.375" style="visibility: inherit;" fill="rgb(0, 0, 0)" stroke="rgb(204, 204, 204)" stroke-width="1px"></line><line x1="72.34375" y1="44.25000000000002" x2="67.34375" y2="44.25000000000002" style="visibility: inherit;" fill="rgb(0, 0, 0)" stroke="rgb(204, 204, 204)" stroke-width="1px"></line><line x1="72.34375" y1="22.125" x2="67.34375" y2="22.125" style="visibility: inherit;" fill="rgb(0, 0, 0)" stroke="rgb(204, 204, 204)" stroke-width="1px"></line><line x1="72.34375" y1="0" x2="67.34375" y2="0" style="visibility: inherit;" fill="rgb(0, 0, 0)" stroke="rgb(204, 204, 204)" stroke-width="1px"></line></g><g transform="translate(62.34375, 0)"><text x="0" y="177" dx="0em" dy="0.3em" style="text-anchor: end; visibility: hidden; font-family: Roboto, sans-serif; font-size: 12px; font-weight: 200;" fill="rgb(33, 33, 33)" stroke="none" stroke-width="1px">0</text><text x="0" y="154.875" dx="0em" dy="0.3em" style="text-anchor: end; visibility: inherit; font-family: Roboto, sans-serif; font-size: 12px; font-weight: 200;" fill="rgb(33, 33, 33)" stroke="none" stroke-width="1px">5e-5</text><text x="0" y="132.75" dx="0em" dy="0.3em" style="text-anchor: end; visibility: hidden; font-family: Roboto, sans-serif; font-size: 12px; font-weight: 200;" fill="rgb(33, 33, 33)" stroke="none" stroke-width="1px">1e-4</text><text x="0" y="110.625" dx="0em" dy="0.3em" style="text-anchor: end; visibility: inherit; font-family: Roboto, sans-serif; font-size: 12px; font-weight: 200;" fill="rgb(33, 33, 33)" stroke="none" stroke-width="1px">1.5e-4</text><text x="0" y="88.5" dx="0em" dy="0.3em" style="text-anchor: end; visibility: hidden; font-family: Roboto, sans-serif; font-size: 12px; font-weight: 200;" fill="rgb(33, 33, 33)" stroke="none" stroke-width="1px">2e-4</text><text x="0" y="66.375" dx="0em" dy="0.3em" style="text-anchor: end; visibility: inherit; font-family: Roboto, sans-serif; font-size: 12px; font-weight: 200;" fill="rgb(33, 33, 33)" stroke="none" stroke-width="1px">2.5e-4</text><text x="0" y="44.25000000000002" dx="0em" dy="0.3em" style="text-anchor: end; visibility: hidden; font-family: Roboto, sans-serif; font-size: 12px; font-weight: 200;" fill="rgb(33, 33, 33)" stroke="none" stroke-width="1px">3e-4</text><text x="0" y="22.125" dx="0em" dy="0.3em" style="text-anchor: end; visibility: inherit; font-family: Roboto, sans-serif; font-size: 12px; font-weight: 200;" fill="rgb(33, 33, 33)" stroke="none" stroke-width="1px">3.5e-4</text><text x="0" y="0" dx="0em" dy="0.3em" style="text-anchor: end; visibility: hidden; font-family: Roboto, sans-serif; font-size: 12px; font-weight: 200;" fill="rgb(33, 33, 33)" stroke="none" stroke-width="1px">4e-4</text></g><line x1="72.34375" y1="0" x2="72.34375" y2="177" fill="rgb(0, 0, 0)" stroke="rgb(204, 204, 204)" stroke-width="1px"></line></g></g><g transform="translate(72, 0)" clip-path="url(#clip_0)"><clipPath id="clip_0"><rect width="257" height="177"></rect></clipPath><g><g><g><line x1="0" y1="0" x2="0" y2="177" fill="rgb(0, 0, 0)" stroke="rgb(66, 66, 66)" stroke-width="1px" opacity="0.25"></line><line x1="21.471354166666664" y1="0" x2="21.471354166666664" y2="177" fill="rgb(0, 0, 0)" stroke="rgb(66, 66, 66)" stroke-width="1px" opacity="0.25"></line><line x1="42.94270833333333" y1="0" x2="42.94270833333333" y2="177" fill="rgb(0, 0, 0)" stroke="rgb(66, 66, 66)" stroke-width="1px" opacity="0.25"></line><line x1="64.4140625" y1="0" x2="64.4140625" y2="177" fill="rgb(0, 0, 0)" stroke="rgb(66, 66, 66)" stroke-width="1px" opacity="0.25"></line><line x1="85.88541666666666" y1="0" x2="85.88541666666666" y2="177" fill="rgb(0, 0, 0)" stroke="rgb(66, 66, 66)" stroke-width="1px" opacity="0.25"></line><line x1="107.35677083333334" y1="0" x2="107.35677083333334" y2="177" fill="rgb(0, 0, 0)" stroke="rgb(66, 66, 66)" stroke-width="1px" opacity="0.25"></line><line x1="128.828125" y1="0" x2="128.828125" y2="177" fill="rgb(0, 0, 0)" stroke="rgb(66, 66, 66)" stroke-width="1px" opacity="0.25"></line><line x1="150.29947916666669" y1="0" x2="150.29947916666669" y2="177" fill="rgb(0, 0, 0)" stroke="rgb(66, 66, 66)" stroke-width="1px" opacity="0.25"></line><line x1="171.77083333333331" y1="0" x2="171.77083333333331" y2="177" fill="rgb(0, 0, 0)" stroke="rgb(66, 66, 66)" stroke-width="1px" opacity="0.25"></line><line x1="193.2421875" y1="0" x2="193.2421875" y2="177" fill="rgb(0, 0, 0)" stroke="rgb(66, 66, 66)" stroke-width="1px" opacity="0.25"></line><line x1="214.71354166666669" y1="0" x2="214.71354166666669" y2="177" fill="rgb(0, 0, 0)" stroke="rgb(66, 66, 66)" stroke-width="1px" opacity="0.25"></line><line x1="236.18489583333331" y1="0" x2="236.18489583333331" y2="177" fill="rgb(0, 0, 0)" stroke="rgb(66, 66, 66)" stroke-width="1px" opacity="0.25"></line><line x1="257.65625" y1="0" x2="257.65625" y2="177" fill="rgb(0, 0, 0)" stroke="rgb(66, 66, 66)" stroke-width="1px" opacity="0.25"></line></g><g><line x1="0" y1="177" x2="257.65625" y2="177" fill="rgb(0, 0, 0)" stroke="rgb(66, 66, 66)" stroke-width="1px" opacity="0.25"></line><line x1="0" y1="154.875" x2="257.65625" y2="154.875" fill="rgb(0, 0, 0)" stroke="rgb(66, 66, 66)" stroke-width="1px" opacity="0.25"></line><line x1="0" y1="132.75" x2="257.65625" y2="132.75" fill="rgb(0, 0, 0)" stroke="rgb(66, 66, 66)" stroke-width="1px" opacity="0.25"></line><line x1="0" y1="110.625" x2="257.65625" y2="110.625" fill="rgb(0, 0, 0)" stroke="rgb(66, 66, 66)" stroke-width="1px" opacity="0.25"></line><line x1="0" y1="88.5" x2="257.65625" y2="88.5" fill="rgb(0, 0, 0)" stroke="rgb(66, 66, 66)" stroke-width="1px" opacity="0.25"></line><line x1="0" y1="66.375" x2="257.65625" y2="66.375" fill="rgb(0, 0, 0)" stroke="rgb(66, 66, 66)" stroke-width="1px" opacity="0.25"></line><line x1="0" y1="44.25000000000002" x2="257.65625" y2="44.25000000000002" fill="rgb(0, 0, 0)" stroke="rgb(66, 66, 66)" stroke-width="1px" opacity="0.25"></line><line x1="0" y1="22.125" x2="257.65625" y2="22.125" fill="rgb(0, 0, 0)" stroke="rgb(66, 66, 66)" stroke-width="1px" opacity="0.25"></line><line x1="0" y1="0" x2="257.65625" y2="0" fill="rgb(0, 0, 0)" stroke="rgb(66, 66, 66)" stroke-width="1px" opacity="0.25"></line></g></g></g><g><g><line x1="0" y1="177" x2="257.65625" y2="177" fill="rgb(0, 0, 0)" stroke="rgb(153, 153, 153)" stroke-width="1.5px"></line></g></g><g><g><line x1="21.471354166666664" y1="0" x2="21.471354166666664" y2="177" fill="rgb(0, 0, 0)" stroke="rgb(153, 153, 153)" stroke-width="1.5px"></line></g></g><g><g><g><g><g><path stroke="rgb(187, 187, 187)" stroke-width="2px" d="M23.618489583333332,-28.756301074870862L24.692057291666668,71.07563360146014L25.765625,118.3450128849945L26.839192708333336,128.93512882906361L27.912760416666668,134.35597540260642L28.986328125,126.99275668305927L30.059895833333332,131.07839183826582L31.133463541666668,140.34661589571624L32.20703125,131.80118490377208L33.280598958333336,133.2824733038724L34.354166666666664,103.87214558827691L35.427734375,128.20236140792258L36.501302083333336,121.64224251714768L37.57486979166667,118.59209873032523L38.6484375,135.6854881090403L39.722005208333336,138.87703400210012L40.795572916666664,147.41938704569475L41.869140625,62.40409365668893L42.94270833333333,-37.44728103233501L44.016276041666664,-16.87236825423315L45.08984375,118.83128364966251L46.163411458333336,137.00905741311726L47.236979166666664,143.4746903727064L48.310546875,158.93106036524114L49.384114583333336,157.81561639082793L50.457682291666664,160.15875447588041L51.53125,157.80301000300096L52.604817708333336,162.99443995772162L53.67838541666667,164.67683654477878L54.751953125,131.54743124355446L55.825520833333336,120.53494093957124L56.899088541666664,152.8069846939179L57.97265625,133.76930106128566L59.04622395833333,96.8922409050283L60.119791666666664,128.28357610155945L61.193359375,17.887095633661374L62.266927083333336,-15.449712194502354L63.340494791666664,51.64583995460998L64.4140625,107.50514203787316L65.48763020833333,127.33486291504232L66.56119791666667,152.927934219726L67.634765625,162.8431810116599L68.70833333333333,164.88381488793675L69.78190104166666,165.1147889936983L70.85546875,166.12592319811665L71.92903645833333,140.94807469187072L73.00260416666667,93.51730917510577L74.076171875,141.77006719942437L75.14973958333334,135.93081282702042L76.22330729166667,129.40449985431042L77.296875,127.51896672521252L78.37044270833333,54.67633123439737L79.44401041666667,79.88047833018936L80.517578125,115.55984954279847L81.59114583333333,160.89270027473685L82.66471354166667,148.4823899921612L83.73828125,145.76437486207578L84.81184895833333,128.37572459498188L85.88541666666666,133.22353188082343L86.958984375,132.47948938110494L88.03255208333333,137.67404879795504L89.10611979166667,131.27366769945365L90.1796875,92.34245371440193L91.25325520833334,46.4786085980013L92.32682291666667,51.506302003283054L93.400390625,4.72647104866337L94.47395833333333,112.79866586514981L95.54752604166667,101.92212364595616L96.62109375,142.84254868139396L97.69466145833333,125.83773724723142L98.76822916666667,152.887576392779L99.841796875,160.52632461319445L100.91536458333333,129.692587448837L101.98893229166666,82.94172333658207L103.0625,71.29061348346295L104.13606770833333,-5.048835340538062L105.20963541666667,63.55202672816813L106.283203125,89.68818688695319L107.35677083333334,132.16748007503338L108.43033854166667,130.8129026950628L109.50390625,121.04937686340418L110.57747395833333,132.8062155301741L111.65104166666667,102.86156113247853L112.724609375,127.42274864317733L113.79817708333333,107.02030078059761L114.87174479166667,106.92064093414228L115.9453125,96.0364682362997L117.01888020833333,81.5220872721984L118.09244791666666,110.37088581029093L119.166015625,117.86816914204974L120.23958333333333,131.6173225644452L121.31315104166667,151.5761611211492L122.38671875,148.28804459862295L123.46028645833334,158.48820122878533L124.53385416666667,158.15459477048717L125.607421875,154.36310812797456L126.68098958333333,144.47247365419753L127.75455729166667,127.55642690203968L128.828125,146.7364076928352L129.90169270833334,127.83865158449044L130.97526041666666,66.28606908302754L132.048828125,48.802176276105456L133.12239583333334,-164.4143504051026L134.19596354166669,27.006296765059233L135.26953125,121.11825722636422L136.34309895833334,142.85768085424206L137.41666666666666,152.98597415162658L138.490234375,162.04978831078915L139.56380208333331,167.4404470044028L140.63736979166666,165.8985639108796L141.7109375,165.0936272938925L142.78450520833334,165.42902868545934L143.85807291666666,165.33961686159455L144.931640625,158.1842296821851L146.00520833333334,137.32074797767564L147.07877604166666,112.57789068290731L148.15234375,69.2340610442916L149.22591145833334,4.013803660520352L150.29947916666669,152.481744395438L151.373046875,148.57163439624128L152.44661458333334,147.72578778897878L153.52018229166666,154.68122825618775L154.59375,147.3010598932451L155.66731770833331,115.84014889772516L156.74088541666666,67.11206678696908L157.814453125,106.0969162757392L158.88802083333334,110.64021916931961L159.96158854166666,107.17092063382734L161.03515625,123.40251345117576L162.10872395833334,128.33069511211943L163.18229166666666,145.16068487532903L164.255859375,150.0482253835362L165.32942708333334,130.18273462544312L166.40299479166669,136.94362847341108L167.4765625,141.1980581873213L168.55013020833334,146.03479966931627L169.62369791666666,149.5101961485052L170.697265625,148.91391126762028L171.77083333333331,159.07151429596706L172.84440104166666,158.13553950133792L173.91796875,143.2738703409559L174.99153645833334,132.435586762178L176.06510416666666,146.26715901281568L177.138671875,107.00840753666125L178.21223958333334,51.21971796720754L179.28580729166666,90.38686828385107L180.359375,99.44961675169179L181.43294270833334,131.56228009061306L182.50651041666669,116.27086848998442L183.580078125,39.71112742542755L184.65364583333334,35.16032283764798L185.72721354166666,158.36311450252833L186.80078125,154.54927570895234L187.87434895833331,150.15977686412225L188.94791666666666,147.18541467696195L190.021484375,145.6367655704089L191.09505208333334,150.00047693897795L192.16861979166666,158.04936499657924L193.2421875,156.18408161240222L194.31575520833334,151.97473128532874L195.38932291666666,147.7593779930903L196.462890625,138.54837286667316L197.53645833333334,135.6416692000057L198.61002604166669,132.098081354663L199.68359375,131.9604365347477L200.75716145833334,135.16551767347846L201.83072916666666,147.78693142611883L202.904296875,140.84296726319008L203.97786458333331,141.91594778490253L205.05143229166666,124.07465881219832L206.125,122.03444911970291L207.19856770833334,144.93039896147093L208.27213541666666,145.66737441450823L209.345703125,146.20712936116615L210.41927083333334,155.29650240419141L211.49283854166666,159.55737777981267L212.56640625,164.93964133710688L213.63997395833334,163.00398288544966L214.71354166666669,32.879511596867815L215.787109375,118.20158564328449L216.86067708333334,136.95885079537402L217.93424479166666,138.49464399422868L219.0078125,126.82482498016907L220.08138020833331,84.27865402732277L221.15494791666666,35.53272883105092L222.228515625,143.1003526125569L223.30208333333334,159.05885478455457L224.37565104166666,161.91388047114015L225.44921875,167.4759029732304L226.52278645833334,157.1037056113273L227.59635416666666,118.48728106665658L228.669921875,132.69445316505153L229.74348958333334,146.40192228066735L230.81705729166669,140.31363097851863L231.890625,152.74721422097355L232.96419270833334,143.13653138410882L234.03776041666666,127.7331739005167L235.111328125,140.38470389673603" style="fill: none;" fill="none"></path></g></g></g></g></g></g><g transform="translate(72, 177)" clip-path="url(#clip_1)"><clipPath id="clip_1"><rect width="257" height="23"></rect></clipPath><g><g><line x1="0" y1="0" x2="0" y2="5" style="visibility: inherit;" fill="rgb(0, 0, 0)" stroke="rgb(204, 204, 204)" stroke-width="1px"></line><line x1="21.471354166666664" y1="0" x2="21.471354166666664" y2="5" style="visibility: inherit;" fill="rgb(0, 0, 0)" stroke="rgb(204, 204, 204)" stroke-width="1px"></line><line x1="42.94270833333333" y1="0" x2="42.94270833333333" y2="5" style="visibility: inherit;" fill="rgb(0, 0, 0)" stroke="rgb(204, 204, 204)" stroke-width="1px"></line><line x1="64.4140625" y1="0" x2="64.4140625" y2="5" style="visibility: inherit;" fill="rgb(0, 0, 0)" stroke="rgb(204, 204, 204)" stroke-width="1px"></line><line x1="85.88541666666666" y1="0" x2="85.88541666666666" y2="5" style="visibility: inherit;" fill="rgb(0, 0, 0)" stroke="rgb(204, 204, 204)" stroke-width="1px"></line><line x1="107.35677083333334" y1="0" x2="107.35677083333334" y2="5" style="visibility: inherit;" fill="rgb(0, 0, 0)" stroke="rgb(204, 204, 204)" stroke-width="1px"></line><line x1="128.828125" y1="0" x2="128.828125" y2="5" style="visibility: inherit;" fill="rgb(0, 0, 0)" stroke="rgb(204, 204, 204)" stroke-width="1px"></line><line x1="150.29947916666669" y1="0" x2="150.29947916666669" y2="5" style="visibility: inherit;" fill="rgb(0, 0, 0)" stroke="rgb(204, 204, 204)" stroke-width="1px"></line><line x1="171.77083333333331" y1="0" x2="171.77083333333331" y2="5" style="visibility: inherit;" fill="rgb(0, 0, 0)" stroke="rgb(204, 204, 204)" stroke-width="1px"></line><line x1="193.2421875" y1="0" x2="193.2421875" y2="5" style="visibility: inherit;" fill="rgb(0, 0, 0)" stroke="rgb(204, 204, 204)" stroke-width="1px"></line><line x1="214.71354166666669" y1="0" x2="214.71354166666669" y2="5" style="visibility: inherit;" fill="rgb(0, 0, 0)" stroke="rgb(204, 204, 204)" stroke-width="1px"></line><line x1="236.18489583333331" y1="0" x2="236.18489583333331" y2="5" style="visibility: inherit;" fill="rgb(0, 0, 0)" stroke="rgb(204, 204, 204)" stroke-width="1px"></line><line x1="257.65625" y1="0" x2="257.65625" y2="5" style="visibility: inherit;" fill="rgb(0, 0, 0)" stroke="rgb(204, 204, 204)" stroke-width="1px"></line></g><g transform="translate(0, 8)"><text x="0" y="0" dx="0em" dy="0.95em" style="text-anchor: middle; visibility: hidden; font-family: Roboto, sans-serif; font-size: 12px; font-weight: 200;" fill="rgb(33, 33, 33)" stroke="none" stroke-width="1px">-20</text><text x="21.471354166666664" y="0" dx="0em" dy="0.95em" style="text-anchor: middle; visibility: inherit; font-family: Roboto, sans-serif; font-size: 12px; font-weight: 200;" fill="rgb(33, 33, 33)" stroke="none" stroke-width="1px">0</text><text x="42.94270833333333" y="0" dx="0em" dy="0.95em" style="text-anchor: middle; visibility: hidden; font-family: Roboto, sans-serif; font-size: 12px; font-weight: 200;" fill="rgb(33, 33, 33)" stroke="none" stroke-width="1px">20</text><text x="64.4140625" y="0" dx="0em" dy="0.95em" style="text-anchor: middle; visibility: inherit; font-family: Roboto, sans-serif; font-size: 12px; font-weight: 200;" fill="rgb(33, 33, 33)" stroke="none" stroke-width="1px">40</text><text x="85.88541666666666" y="0" dx="0em" dy="0.95em" style="text-anchor: middle; visibility: hidden; font-family: Roboto, sans-serif; font-size: 12px; font-weight: 200;" fill="rgb(33, 33, 33)" stroke="none" stroke-width="1px">60</text><text x="107.35677083333334" y="0" dx="0em" dy="0.95em" style="text-anchor: middle; visibility: inherit; font-family: Roboto, sans-serif; font-size: 12px; font-weight: 200;" fill="rgb(33, 33, 33)" stroke="none" stroke-width="1px">80</text><text x="128.828125" y="0" dx="0em" dy="0.95em" style="text-anchor: middle; visibility: hidden; font-family: Roboto, sans-serif; font-size: 12px; font-weight: 200;" fill="rgb(33, 33, 33)" stroke="none" stroke-width="1px">100</text><text x="150.29947916666669" y="0" dx="0em" dy="0.95em" style="text-anchor: middle; visibility: inherit; font-family: Roboto, sans-serif; font-size: 12px; font-weight: 200;" fill="rgb(33, 33, 33)" stroke="none" stroke-width="1px">120</text><text x="171.77083333333331" y="0" dx="0em" dy="0.95em" style="text-anchor: middle; visibility: hidden; font-family: Roboto, sans-serif; font-size: 12px; font-weight: 200;" fill="rgb(33, 33, 33)" stroke="none" stroke-width="1px">140</text><text x="193.2421875" y="0" dx="0em" dy="0.95em" style="text-anchor: middle; visibility: inherit; font-family: Roboto, sans-serif; font-size: 12px; font-weight: 200;" fill="rgb(33, 33, 33)" stroke="none" stroke-width="1px">160</text><text x="214.71354166666669" y="0" dx="0em" dy="0.95em" style="text-anchor: middle; visibility: hidden; font-family: Roboto, sans-serif; font-size: 12px; font-weight: 200;" fill="rgb(33, 33, 33)" stroke="none" stroke-width="1px">180</text><text x="236.18489583333331" y="0" dx="0em" dy="0.95em" style="text-anchor: middle; visibility: inherit; font-family: Roboto, sans-serif; font-size: 12px; font-weight: 200;" fill="rgb(33, 33, 33)" stroke="none" stroke-width="1px">200</text><text x="257.65625" y="0" dx="0em" dy="0.95em" style="text-anchor: middle; visibility: hidden; font-family: Roboto, sans-serif; font-size: 12px; font-weight: 200;" fill="rgb(33, 33, 33)" stroke="none" stroke-width="1px">220</text></g><line x1="0" y1="0" x2="257.65625" y2="0" fill="rgb(0, 0, 0)" stroke="rgb(204, 204, 204)" stroke-width="1px"></line></g></g></g></g></svg>