<svg viewBox="0 0 330 200" xmlns="http://www.w3.org/2000/svg"><g><g><g><g><g><line x1="70" y1="177" x2="65" y2="177" style="visibility: inherit;" fill="rgb(0, 0, 0)" stroke="rgb(204, 204, 204)" stroke-width="1px"></line><line x1="70" y1="160.9090909090909" x2="65" y2="160.9090909090909" style="visibility: inherit;" fill="rgb(0, 0, 0)" stroke="rgb(204, 204, 204)" stroke-width="1px"></line><line x1="70" y1="144.8181818181818" x2="65" y2="144.8181818181818" style="visibility: inherit;" fill="rgb(0, 0, 0)" stroke="rgb(204, 204, 204)" stroke-width="1px"></line><line x1="70" y1="128.72727272727272" x2="65" y2="128.72727272727272" style="visibility: inherit;" fill="rgb(0, 0, 0)" stroke="rgb(204, 204, 204)" stroke-width="1px"></line><line x1="70" y1="112.63636363636364" x2="65" y2="112.63636363636364" style="visibility: inherit;" fill="rgb(0, 0, 0)" stroke="rgb(204, 204, 204)" stroke-width="1px"></line><line x1="70" y1="96.54545454545453" x2="65" y2="96.54545454545453" style="visibility: inherit;" fill="rgb(0, 0, 0)" stroke="rgb(204, 204, 204)" stroke-width="1px"></line><line x1="70" y1="80.45454545454544" x2="65" y2="80.45454545454544" style="visibility: inherit;" fill="rgb(0, 0, 0)" stroke="rgb(204, 204, 204)" stroke-width="1px"></line><line x1="70" y1="64.36363636363635" x2="65" y2="64.36363636363635" style="visibility: inherit;" fill="rgb(0, 0, 0)" stroke="rgb(204, 204, 204)" stroke-width="1px"></line><line x1="70" y1="48.272727272727266" x2="65" y2="48.272727272727266" style="visibility: inherit;" fill="rgb(0, 0, 0)" stroke="rgb(204, 204, 204)" stroke-width="1px"></line><line x1="70" y1="32.181818181818194" x2="65" y2="32.181818181818194" style="visibility: inherit;" fill="rgb(0, 0, 0)" stroke="rgb(204, 204, 204)" stroke-width="1px"></line><line x1="70" y1="16.090909090909076" x2="65" y2="16.090909090909076" style="visibility: inherit;" fill="rgb(0, 0, 0)" stroke="rgb(204, 204, 204)" stroke-width="1px"></line><line x1="70" y1="0" x2="65" y2="0" style="visibility: inherit;" fill="rgb(0, 0, 0)" stroke="rgb(204, 204, 204)" stroke-width="1px"></line></g><g transform="translate(60, 0)"><text x="0" y="177" dx="0em" dy="0.3em" style="text-anchor: end; visibility: hidden; font-family: Roboto, sans-serif; font-size: 12px; font-weight: 200;" fill="rgb(33, 33, 33)" stroke="none" stroke-width="1px">0</text><text x="0" y="160.9090909090909" dx="0em" dy="0.3em" style="text-anchor: end; visibility: inherit; font-family: Roboto, sans-serif; font-size: 12px; font-weight: 200;" fill="rgb(33, 33, 33)" stroke="none" stroke-width="1px">5e-4</text><text x="0" y="144.8181818181818" dx="0em" dy="0.3em" style="text-anchor: end; visibility: hidden; font-family: Roboto, sans-serif; font-size: 12px; font-weight: 200;" fill="rgb(33, 33, 33)" stroke="none" stroke-width="1px">1e-3</text><text x="0" y="128.72727272727272" dx="0em" dy="0.3em" style="text-anchor: end; visibility: inherit; font-family: Roboto, sans-serif; font-size: 12px; font-weight: 200;" fill="rgb(33, 33, 33)" stroke="none" stroke-width="1px">1.5e-3</text><text x="0" y="112.63636363636364" dx="0em" dy="0.3em" style="text-anchor: end; visibility: hidden; font-family: Roboto, sans-serif; font-size: 12px; font-weight: 200;" fill="rgb(33, 33, 33)" stroke="none" stroke-width="1px">2e-3</text><text x="0" y="96.54545454545453" dx="0em" dy="0.3em" style="text-anchor: end; visibility: inherit; font-family: Roboto, sans-serif; font-size: 12px; font-weight: 200;" fill="rgb(33, 33, 33)" stroke="none" stroke-width="1px">2.5e-3</text><text x="0" y="80.45454545454544" dx="0em" dy="0.3em" style="text-anchor: end; visibility: hidden; font-family: Roboto, sans-serif; font-size: 12px; font-weight: 200;" fill="rgb(33, 33, 33)" stroke="none" stroke-width="1px">3e-3</text><text x="0" y="64.36363636363635" dx="0em" dy="0.3em" style="text-anchor: end; visibility: inherit; font-family: Roboto, sans-serif; font-size: 12px; font-weight: 200;" fill="rgb(33, 33, 33)" stroke="none" stroke-width="1px">3.5e-3</text><text x="0" y="48.272727272727266" dx="0em" dy="0.3em" style="text-anchor: end; visibility: hidden; font-family: Roboto, sans-serif; font-size: 12px; font-weight: 200;" fill="rgb(33, 33, 33)" stroke="none" stroke-width="1px">4e-3</text><text x="0" y="32.181818181818194" dx="0em" dy="0.3em" style="text-anchor: end; visibility: inherit; font-family: Roboto, sans-serif; font-size: 12px; font-weight: 200;" fill="rgb(33, 33, 33)" stroke="none" stroke-width="1px">4.5e-3</text><text x="0" y="16.090909090909076" dx="0em" dy="0.3em" style="text-anchor: end; visibility: hidden; font-family: Roboto, sans-serif; font-size: 12px; font-weight: 200;" fill="rgb(33, 33, 33)" stroke="none" stroke-width="1px">5e-3</text><text x="0" y="0" dx="0em" dy="0.3em" style="text-anchor: end; visibility: hidden; font-family: Roboto, sans-serif; font-size: 12px; font-weight: 200;" fill="rgb(33, 33, 33)" stroke="none" stroke-width="1px">5.5e-3</text></g><line x1="70" y1="0" x2="70" y2="177" fill="rgb(0, 0, 0)" stroke="rgb(204, 204, 204)" stroke-width="1px"></line></g></g><g transform="translate(70, 0)" clip-path="url(#clip_0)"><clipPath id="clip_0"><rect width="260" height="177"></rect></clipPath><g><g><g><line x1="0" y1="0" x2="0" y2="177" fill="rgb(0, 0, 0)" stroke="rgb(66, 66, 66)" stroke-width="1px" opacity="0.25"></line><line x1="21.666666666666664" y1="0" x2="21.666666666666664" y2="177" fill="rgb(0, 0, 0)" stroke="rgb(66, 66, 66)" stroke-width="1px" opacity="0.25"></line><line x1="43.33333333333333" y1="0" x2="43.33333333333333" y2="177" fill="rgb(0, 0, 0)" stroke="rgb(66, 66, 66)" stroke-width="1px" opacity="0.25"></line><line x1="65" y1="0" x2="65" y2="177" fill="rgb(0, 0, 0)" stroke="rgb(66, 66, 66)" stroke-width="1px" opacity="0.25"></line><line x1="86.66666666666666" y1="0" x2="86.66666666666666" y2="177" fill="rgb(0, 0, 0)" stroke="rgb(66, 66, 66)" stroke-width="1px" opacity="0.25"></line><line x1="108.33333333333334" y1="0" x2="108.33333333333334" y2="177" fill="rgb(0, 0, 0)" stroke="rgb(66, 66, 66)" stroke-width="1px" opacity="0.25"></line><line x1="130" y1="0" x2="130" y2="177" fill="rgb(0, 0, 0)" stroke="rgb(66, 66, 66)" stroke-width="1px" opacity="0.25"></line><line x1="151.66666666666669" y1="0" x2="151.66666666666669" y2="177" fill="rgb(0, 0, 0)" stroke="rgb(66, 66, 66)" stroke-width="1px" opacity="0.25"></line><line x1="173.33333333333331" y1="0" x2="173.33333333333331" y2="177" fill="rgb(0, 0, 0)" stroke="rgb(66, 66, 66)" stroke-width="1px" opacity="0.25"></line><line x1="195" y1="0" x2="195" y2="177" fill="rgb(0, 0, 0)" stroke="rgb(66, 66, 66)" stroke-width="1px" opacity="0.25"></line><line x1="216.66666666666669" y1="0" x2="216.66666666666669" y2="177" fill="rgb(0, 0, 0)" stroke="rgb(66, 66, 66)" stroke-width="1px" opacity="0.25"></line><line x1="238.33333333333331" y1="0" x2="238.33333333333331" y2="177" fill="rgb(0, 0, 0)" stroke="rgb(66, 66, 66)" stroke-width="1px" opacity="0.25"></line><line x1="260" y1="0" x2="260" y2="177" fill="rgb(0, 0, 0)" stroke="rgb(66, 66, 66)" stroke-width="1px" opacity="0.25"></line></g><g><line x1="0" y1="177" x2="260" y2="177" fill="rgb(0, 0, 0)" stroke="rgb(66, 66, 66)" stroke-width="1px" opacity="0.25"></line><line x1="0" y1="160.9090909090909" x2="260" y2="160.9090909090909" fill="rgb(0, 0, 0)" stroke="rgb(66, 66, 66)" stroke-width="1px" opacity="0.25"></line><line x1="0" y1="144.8181818181818" x2="260" y2="144.8181818181818" fill="rgb(0, 0, 0)" stroke="rgb(66, 66, 66)" stroke-width="1px" opacity="0.25"></line><line x1="0" y1="128.72727272727272" x2="260" y2="128.72727272727272" fill="rgb(0, 0, 0)" stroke="rgb(66, 66, 66)" stroke-width="1px" opacity="0.25"></line><line x1="0" y1="112.63636363636364" x2="260" y2="112.63636363636364" fill="rgb(0, 0, 0)" stroke="rgb(66, 66, 66)" stroke-width="1px" opacity="0.25"></line><line x1="0" y1="96.54545454545453" x2="260" y2="96.54545454545453" fill="rgb(0, 0, 0)" stroke="rgb(66, 66, 66)" stroke-width="1px" opacity="0.25"></line><line x1="0" y1="80.45454545454544" x2="260" y2="80.45454545454544" fill="rgb(0, 0, 0)" stroke="rgb(66, 66, 66)" stroke-width="1px" opacity="0.25"></line><line x1="0" y1="64.36363636363635" x2="260" y2="64.36363636363635" fill="rgb(0, 0, 0)" stroke="rgb(66, 66, 66)" stroke-width="1px" opacity="0.25"></line><line x1="0" y1="48.272727272727266" x2="260" y2="48.272727272727266" fill="rgb(0, 0, 0)" stroke="rgb(66, 66, 66)" stroke-width="1px" opacity="0.25"></line><line x1="0" y1="32.181818181818194" x2="260" y2="32.181818181818194" fill="rgb(0, 0, 0)" stroke="rgb(66, 66, 66)" stroke-width="1px" opacity="0.25"></line><line x1="0" y1="16.090909090909076" x2="260" y2="16.090909090909076" fill="rgb(0, 0, 0)" stroke="rgb(66, 66, 66)" stroke-width="1px" opacity="0.25"></line><line x1="0" y1="0" x2="260" y2="0" fill="rgb(0, 0, 0)" stroke="rgb(66, 66, 66)" stroke-width="1px" opacity="0.25"></line></g></g></g><g><g><line x1="0" y1="177" x2="260" y2="177" fill="rgb(0, 0, 0)" stroke="rgb(153, 153, 153)" stroke-width="1.5px"></line></g></g><g><g><line x1="21.666666666666664" y1="0" x2="21.666666666666664" y2="177" fill="rgb(0, 0, 0)" stroke="rgb(153, 153, 153)" stroke-width="1.5px"></line></g></g><g><g><g><g><g><path stroke="rgb(0, 119, 187)" stroke-width="2px" d="M24.916666666666668,-76.94783951021493L26,3.484268403264675L27.083333333333336,53.535143961561765L28.166666666666668,85.84578474589799L29.25,106.98279531598347L30.333333333333332,120.52629152170617L31.416666666666668,130.3627403228965L32.5,136.2888968928516L33.583333333333336,140.20204664037607L34.666666666666664,142.49488636218183L35.75,144.4388313778572L36.833333333333336,146.24849611168668L37.91666666666667,147.63244283713223L39,147.75003287217447L40.083333333333336,149.2039521771387L41.166666666666664,149.18206062190424L42.25,148.94869127427728L43.33333333333333,149.4087515196915L44.416666666666664,149.1883024706224L45.5,150.59137570831433L46.583333333333336,150.81096735784067L47.666666666666664,148.34428280789453L48.75,148.34675052075514L49.833333333333336,149.77390400036222L50.916666666666664,151.93678322705262L52,153.44876835322518L53.083333333333336,153.63681530650848L54.16666666666667,153.20296790760048L55.25,152.12211198741562L56.333333333333336,152.33304694247755L57.416666666666664,153.45562668481182L58.5,155.6607440263352L59.58333333333333,156.81017887414998L60.666666666666664,158.00865880357924L61.75,159.05858735921953L62.833333333333336,159.78781285547316L63.916666666666664,161.41925849142743L65,161.20379817772175L66.08333333333333,159.73953657563192L67.16666666666667,157.03215126188215L68.25,155.1115679153563L69.33333333333333,154.5967749266069L70.41666666666666,156.3987884716494L71.5,158.08552216184265L72.58333333333333,159.97924038796836L73.66666666666667,161.39088347258564L74.75,161.7923129663453L75.83333333333334,160.318431658102L76.91666666666667,157.9665947955349L78,156.94099408305453L79.08333333333333,153.59092180888922L80.16666666666667,153.2834729347765L81.25,154.9765006834033L82.33333333333333,155.9790413885438L83.41666666666667,157.57239152447283L84.5,157.2354941467073L85.58333333333333,156.1794498170418L86.66666666666666,157.1309205846626L87.75,157.97788618459904L88.83333333333333,159.1646440166645L89.91666666666667,160.35504855786556L91,161.98632048558662L92.08333333333334,163.54331289641553L93.16666666666667,164.34641158005388L94.25,164.04992567424608L95.33333333333333,163.63736807044378L96.41666666666667,161.19908357464254L97.5,158.18926908273335L98.58333333333333,157.78323195258307L99.66666666666667,155.91707921210326L100.75,156.38507823057736L101.83333333333333,158.44329261921234L102.91666666666666,161.025366540306L104,162.78348072553007L105.08333333333333,164.19826159302625L106.16666666666667,163.18648797457072L107.25,162.96507993721485L108.33333333333334,161.85427503827955L109.41666666666667,161.5777705197544L110.5,162.01567037641053L111.58333333333333,161.6135015149371L112.66666666666667,161.26838138657683L113.75,162.60112812299232L114.83333333333333,162.82089210071183L115.91666666666667,163.34466395307572L117,164.1325548724052L118.08333333333333,165.16776632627173L119.16666666666666,164.2832293324991L120.25,164.47932311184536L121.33333333333333,164.02848079729722L122.41666666666667,164.3835602503589L123.5,164.94996510323358L124.58333333333334,163.33068464141877L125.66666666666667,157.69640670654977L126.75,155.04078156894084L127.83333333333333,153.56620213323805L128.91666666666666,155.00955138194217L130,158.59777647144847L131.08333333333334,161.23295805674914L132.16666666666666,163.2871691879628L133.25,164.864253744829L134.33333333333334,165.40060689702054L135.41666666666669,165.02830338556583L136.5,164.04496189905862L137.58333333333334,164.72809254113395L138.66666666666666,165.4709784784475L139.75,164.1359269986933L140.83333333333331,163.9331977562091L141.91666666666666,162.01073287582963L143,161.24396545817757L144.08333333333334,162.05518716942635L145.16666666666666,161.46834604839574L146.25,162.83600587731112L147.33333333333334,163.9536418436281L148.41666666666666,161.93017561798845L149.5,161.9041917194202L150.58333333333334,162.84222297536115L151.66666666666669,163.65504540841192L152.75,164.37647880445869L153.83333333333334,164.2831913306377L154.91666666666666,165.2238403984379L156,166.06330630556118L157.08333333333331,165.41646060495097L158.16666666666666,164.46656001066754L159.25,164.00768673539105L160.33333333333334,162.08865358799392L161.41666666666666,162.025799293903L162.5,162.25523755469916L163.58333333333334,163.60386959020875L164.66666666666666,164.79832805168581L165.75,166.0172373814191L166.83333333333334,167.1173099989931L167.91666666666669,167.67640042280686L169,167.33192523269807L170.08333333333334,164.72160115377525L171.16666666666666,165.3779086099399L172.25,165.19853915436178L173.33333333333331,163.14319345133913L174.41666666666666,160.01296317329545L175.5,159.84992891584253L176.58333333333334,160.6126990671035L177.66666666666666,162.38374674961764L178.75,164.6774010942118L179.83333333333334,165.63877177632656L180.91666666666666,166.43835962614003L182,166.48909583616333L183.08333333333334,165.80681126100237L184.16666666666669,165.5631152010677L185.25,165.4260490349383L186.33333333333334,165.5876077584805L187.41666666666666,166.30494461152338L188.5,166.70950441418165L189.58333333333331,167.14389216254793L190.66666666666666,167.2332660326637L191.75,166.72733606335208L192.83333333333334,166.20120221193054L193.91666666666666,166.11468666434672L195,162.26199099840454L196.08333333333334,162.44045343567447L197.16666666666666,163.52536022321863L198.25,164.01329109343754L199.33333333333334,165.0287744604398L200.41666666666669,165.82229049554653L201.5,166.30334394089908L202.58333333333334,167.2008760048959L203.66666666666666,167.3511847753844L204.75,165.37590573799739L205.83333333333331,166.5136295240777L206.91666666666666,165.4634155433868L208,165.05925693995L209.08333333333334,165.6193367280736L210.16666666666666,166.04969115881036L211.25,166.57345042173537L212.33333333333334,166.88190571519553L213.41666666666666,166.57999683837986L214.5,165.93521063405944L215.58333333333334,166.93445858864442L216.66666666666669,167.5362211426716L217.75,168.15203885602656L218.83333333333334,167.7184457650312L219.91666666666666,167.17246036391128L221,165.59126836389228L222.08333333333331,164.6117685290076L223.16666666666666,164.61883399294655L224.25,165.7529731480101L225.33333333333334,166.51432615723672L226.41666666666666,167.22036762430037L227.5,167.82358527641753L228.58333333333334,168.3703789675585L229.66666666666666,168.71756023828985L230.75,168.8783982095903L231.83333333333334,168.25920824676425L232.91666666666669,167.36007852123075L234,167.26088502900834L235.08333333333334,167.64146445535388L236.16666666666666,167.0219278880421L237.25,162.86930542789048" style="fill: none;" fill="none"></path></g></g></g></g><g opacity="0.2"><g><g><g><path stroke="rgb(0, 119, 187)" stroke-width="2px" d="M22.75,-1.0694925480268183L23.833333333333332,58.42446496269919L24.916666666666668,87.02213569696654L26,108.49642849510366L27.083333333333336,122.77352317388763L28.166666666666668,132.05051803775132L29.25,137.8007596424696L30.333333333333332,140.50031773644415L31.416666666666668,144.9687204135751L32.5,145.12438194385985L33.583333333333336,146.05047607354143L34.666666666666664,145.9266594253819L35.75,147.35094051071528L36.833333333333336,148.96086601946843L37.91666666666667,149.70738685884598L39,147.9263681645759L40.083333333333336,151.384461984631L41.166666666666664,149.14922662401065L42.25,148.5986585837196L43.33333333333333,150.09881665701553L44.416666666666664,148.85763615098867L45.5,152.6959578636187L46.583333333333336,151.14035223085773L47.666666666666664,144.64427351511338L48.75,148.35045207952234L49.833333333333336,151.9146305680783L50.916666666666664,155.18109874655917L52,155.71674464973196L53.083333333333336,153.91888563250276L54.16666666666667,152.552196953107L55.25,150.5008283221925L56.333333333333336,152.649449349889L57.416666666666664,155.13949621790513L58.5,158.9684199438515L59.58333333333333,158.5343311162327L60.666666666666664,159.80637867918068L61.75,160.63348018293354L62.833333333333336,160.88165109579197L63.916666666666664,163.86642693990672L65,160.8806077075953L66.08333333333333,157.54314417425883L67.16666666666667,152.9710732932118L68.25,152.23069289639932L69.33333333333333,153.8245854436166L70.41666666666666,159.10180878893217L71.5,160.61562269697473L72.58333333333333,162.81981772705066L73.66666666666667,163.50834809946403L74.75,162.39445720697668L75.83333333333334,158.10760969575495L76.91666666666667,154.4388395017013L78,155.40259301433846L79.08333333333333,148.56581339765L80.16666666666667,152.8222996236079L81.25,157.51604230634192L82.33333333333333,157.48285244625401L83.41666666666667,159.96241672836584L84.5,156.73014808005908L85.58333333333333,154.5953833225437L86.66666666666666,158.55812673609364L87.75,159.24833458450368L88.83333333333333,160.94478076476264L89.91666666666667,162.14065536966717L91,164.43322837716815L92.08333333333334,165.87880151265892L93.16666666666667,165.55105960551143L94.25,163.6051968155344L95.33333333333333,163.0185316647403L96.41666666666667,157.54165683094072L97.5,153.67454734486952L98.58333333333333,157.1741762573577L99.66666666666667,153.11785010138357L100.75,157.08707675828853L101.83333333333333,161.5306142021648L102.91666666666666,164.8984774219465L104,165.42065200336617L105.08333333333333,166.32043289427054L106.16666666666667,161.66882754688743L107.25,162.63296788118103L108.33333333333334,160.18806768987668L109.41666666666667,161.16301374196667L110.5,162.67252016139471L111.58333333333333,161.010248222727L112.66666666666667,160.75070119403642L113.75,164.6002482276156L114.83333333333333,163.15053806729108L115.91666666666667,164.13032173162156L117,165.31439125139943L118.08333333333333,166.7205835070715L119.16666666666666,162.95642384184018L120.25,164.77346378086474L121.33333333333333,163.35221732547507L122.41666666666667,164.91617942995137L123.5,165.79957238254562L124.58333333333334,160.90176394869658L125.66666666666667,149.24498980424622L126.75,151.05734386252746L127.83333333333333,151.35433297968385L128.91666666666666,157.17457525499842L130,163.98011410570788L131.08333333333334,165.18573043470016L132.16666666666666,166.36848588478327L133.25,167.22988058012825L134.33333333333334,166.20513662530786L135.41666666666669,164.46984811838377L136.5,162.56994966929778L137.58333333333334,165.75278850424695L138.66666666666666,166.5853073844178L139.75,162.13334977906197L140.83333333333331,163.62910389248282L141.91666666666666,159.12703555526042L143,160.0938143316995L144.08333333333334,163.27201973629946L145.16666666666666,160.58808436684987L146.25,164.88749562068418L147.33333333333334,165.63009579310364L148.41666666666666,158.89497627952898L149.5,161.86521587156776L150.58333333333334,164.24926985927266L151.66666666666669,164.87427905798805L152.75,165.45862889852881L153.83333333333334,164.14326011990622L154.91666666666666,166.63481400013816L156,167.32250516624615L157.08333333333331,164.44619205403566L158.16666666666666,163.04170911924237L159.25,163.31937682247636L160.33333333333334,159.2101038668982L161.41666666666666,161.9315178527666L162.5,162.59939494589344L163.58333333333334,165.6268176434731L164.66666666666666,166.59001574390143L165.75,167.8456013760191L166.83333333333334,168.7674189253541L167.91666666666669,168.5150360585275L169,166.81521244753492L170.08333333333334,160.806115035391L171.16666666666666,166.3623697941869L172.25,164.92948497099462L173.33333333333331,160.06017489680514L174.41666666666666,155.3176177562299L175.5,159.60537752966312L176.58333333333334,161.75685429399493L177.66666666666666,165.04031827338886L178.75,168.11788261110303L179.83333333333334,167.0808277994987L180.91666666666666,167.63774140086025L182,166.5652001511983L183.08333333333334,164.78338439826092L184.16666666666669,165.19757111116567L185.25,165.22044978574425L186.33333333333334,165.82994584379378L187.41666666666666,167.38094989108768L188.5,167.3163441181691L189.58333333333331,167.7954737850973L190.66666666666666,167.36732683783737L191.75,165.96844110938466L192.83333333333334,165.41200143479827L193.91666666666666,165.98491334297103L195,156.48294749949127L196.08333333333334,162.70814709157938L197.16666666666666,165.15272040453485L198.25,164.74518739876592L199.33333333333334,166.5519995109432L200.41666666666669,167.0125645482066L201.5,167.0249241089279L202.58333333333334,168.54717410089108L203.66666666666666,167.57664793111724L204.75,162.41298718191683L205.83333333333331,168.2202152031982L206.91666666666666,163.88809457235038L208,164.45301903479478L209.08333333333334,166.459456410259L210.16666666666666,166.6952228049155L211.25,167.35908931612292L212.33333333333334,167.3445886553858L213.41666666666666,166.12713352315635L214.5,164.96803132757884L215.58333333333334,168.43333052052185L216.66666666666669,168.43886497371238L217.75,169.075765426059L218.83333333333334,167.06805612853813L219.91666666666666,166.3534822622314L221,163.21948036386377L222.08333333333331,163.1425187766806L223.16666666666666,164.62943218885496L224.25,167.4541818806055L225.33333333333334,167.65635567107662L226.41666666666666,168.27942982489583L227.5,168.72841175459325L228.58333333333334,169.19056950427L229.66666666666666,169.2383321443869L230.75,169.11965516654098L231.83333333333334,167.33042330252513L232.91666666666669,166.0113839329305L234,167.11209479067475L235.08333333333334,168.2123335948722L236.16666666666666,166.09262303707445L237.25,156.64037173766303" style="fill: none;" fill="none"></path></g></g></g></g></g></g><g transform="translate(70, 177)" clip-path="url(#clip_1)"><clipPath id="clip_1"><rect width="260" height="23"></rect></clipPath><g><g><line x1="0" y1="0" x2="0" y2="5" style="visibility: inherit;" fill="rgb(0, 0, 0)" stroke="rgb(204, 204, 204)" stroke-width="1px"></line><line x1="21.666666666666664" y1="0" x2="21.666666666666664" y2="5" style="visibility: inherit;" fill="rgb(0, 0, 0)" stroke="rgb(204, 204, 204)" stroke-width="1px"></line><line x1="43.33333333333333" y1="0" x2="43.33333333333333" y2="5" style="visibility: inherit;" fill="rgb(0, 0, 0)" stroke="rgb(204, 204, 204)" stroke-width="1px"></line><line x1="65" y1="0" x2="65" y2="5" style="visibility: inherit;" fill="rgb(0, 0, 0)" stroke="rgb(204, 204, 204)" stroke-width="1px"></line><line x1="86.66666666666666" y1="0" x2="86.66666666666666" y2="5" style="visibility: inherit;" fill="rgb(0, 0, 0)" stroke="rgb(204, 204, 204)" stroke-width="1px"></line><line x1="108.33333333333334" y1="0" x2="108.33333333333334" y2="5" style="visibility: inherit;" fill="rgb(0, 0, 0)" stroke="rgb(204, 204, 204)" stroke-width="1px"></line><line x1="130" y1="0" x2="130" y2="5" style="visibility: inherit;" fill="rgb(0, 0, 0)" stroke="rgb(204, 204, 204)" stroke-width="1px"></line><line x1="151.66666666666669" y1="0" x2="151.66666666666669" y2="5" style="visibility: inherit;" fill="rgb(0, 0, 0)" stroke="rgb(204, 204, 204)" stroke-width="1px"></line><line x1="173.33333333333331" y1="0" x2="173.33333333333331" y2="5" style="visibility: inherit;" fill="rgb(0, 0, 0)" stroke="rgb(204, 204, 204)" stroke-width="1px"></line><line x1="195" y1="0" x2="195" y2="5" style="visibility: inherit;" fill="rgb(0, 0, 0)" stroke="rgb(204, 204, 204)" stroke-width="1px"></line><line x1="216.66666666666669" y1="0" x2="216.66666666666669" y2="5" style="visibility: inherit;" fill="rgb(0, 0, 0)" stroke="rgb(204, 204, 204)" stroke-width="1px"></line><line x1="238.33333333333331" y1="0" x2="238.33333333333331" y2="5" style="visibility: inherit;" fill="rgb(0, 0, 0)" stroke="rgb(204, 204, 204)" stroke-width="1px"></line><line x1="260" y1="0" x2="260" y2="5" style="visibility: inherit;" fill="rgb(0, 0, 0)" stroke="rgb(204, 204, 204)" stroke-width="1px"></line></g><g transform="translate(0, 8)"><text x="0" y="0" dx="0em" dy="0.95em" style="text-anchor: middle; visibility: hidden; font-family: Roboto, sans-serif; font-size: 12px; font-weight: 200;" fill="rgb(33, 33, 33)" stroke="none" stroke-width="1px">-20</text><text x="21.666666666666664" y="0" dx="0em" dy="0.95em" style="text-anchor: middle; visibility: inherit; font-family: Roboto, sans-serif; font-size: 12px; font-weight: 200;" fill="rgb(33, 33, 33)" stroke="none" stroke-width="1px">0</text><text x="43.33333333333333" y="0" dx="0em" dy="0.95em" style="text-anchor: middle; visibility: hidden; font-family: Roboto, sans-serif; font-size: 12px; font-weight: 200;" fill="rgb(33, 33, 33)" stroke="none" stroke-width="1px">20</text><text x="65" y="0" dx="0em" dy="0.95em" style="text-anchor: middle; visibility: inherit; font-family: Roboto, sans-serif; font-size: 12px; font-weight: 200;" fill="rgb(33, 33, 33)" stroke="none" stroke-width="1px">40</text><text x="86.66666666666666" y="0" dx="0em" dy="0.95em" style="text-anchor: middle; visibility: hidden; font-family: Roboto, sans-serif; font-size: 12px; font-weight: 200;" fill="rgb(33, 33, 33)" stroke="none" stroke-width="1px">60</text><text x="108.33333333333334" y="0" dx="0em" dy="0.95em" style="text-anchor: middle; visibility: inherit; font-family: Roboto, sans-serif; font-size: 12px; font-weight: 200;" fill="rgb(33, 33, 33)" stroke="none" stroke-width="1px">80</text><text x="130" y="0" dx="0em" dy="0.95em" style="text-anchor: middle; visibility: hidden; font-family: Roboto, sans-serif; font-size: 12px; font-weight: 200;" fill="rgb(33, 33, 33)" stroke="none" stroke-width="1px">100</text><text x="151.66666666666669" y="0" dx="0em" dy="0.95em" style="text-anchor: middle; visibility: inherit; font-family: Roboto, sans-serif; font-size: 12px; font-weight: 200;" fill="rgb(33, 33, 33)" stroke="none" stroke-width="1px">120</text><text x="173.33333333333331" y="0" dx="0em" dy="0.95em" style="text-anchor: middle; visibility: hidden; font-family: Roboto, sans-serif; font-size: 12px; font-weight: 200;" fill="rgb(33, 33, 33)" stroke="none" stroke-width="1px">140</text><text x="195" y="0" dx="0em" dy="0.95em" style="text-anchor: middle; visibility: inherit; font-family: Roboto, sans-serif; font-size: 12px; font-weight: 200;" fill="rgb(33, 33, 33)" stroke="none" stroke-width="1px">160</text><text x="216.66666666666669" y="0" dx="0em" dy="0.95em" style="text-anchor: middle; visibility: hidden; font-family: Roboto, sans-serif; font-size: 12px; font-weight: 200;" fill="rgb(33, 33, 33)" stroke="none" stroke-width="1px">180</text><text x="238.33333333333331" y="0" dx="0em" dy="0.95em" style="text-anchor: middle; visibility: inherit; font-family: Roboto, sans-serif; font-size: 12px; font-weight: 200;" fill="rgb(33, 33, 33)" stroke="none" stroke-width="1px">200</text><text x="260" y="0" dx="0em" dy="0.95em" style="text-anchor: middle; visibility: hidden; font-family: Roboto, sans-serif; font-size: 12px; font-weight: 200;" fill="rgb(33, 33, 33)" stroke="none" stroke-width="1px">220</text></g><line x1="0" y1="0" x2="260" y2="0" fill="rgb(0, 0, 0)" stroke="rgb(204, 204, 204)" stroke-width="1px"></line></g></g></g></g></svg>