<svg viewBox="0 0 330 200" xmlns="http://www.w3.org/2000/svg"><g><g><g><g><g><line x1="51.5625" y1="177" x2="46.5625" y2="177" style="visibility: inherit;" fill="rgb(0, 0, 0)" stroke="rgb(204, 204, 204)" stroke-width="1px"></line><line x1="51.5625" y1="159.3" x2="46.5625" y2="159.3" style="visibility: inherit;" fill="rgb(0, 0, 0)" stroke="rgb(204, 204, 204)" stroke-width="1px"></line><line x1="51.5625" y1="141.6" x2="46.5625" y2="141.6" style="visibility: inherit;" fill="rgb(0, 0, 0)" stroke="rgb(204, 204, 204)" stroke-width="1px"></line><line x1="51.5625" y1="123.89999999999999" x2="46.5625" y2="123.89999999999999" style="visibility: inherit;" fill="rgb(0, 0, 0)" stroke="rgb(204, 204, 204)" stroke-width="1px"></line><line x1="51.5625" y1="106.2" x2="46.5625" y2="106.2" style="visibility: inherit;" fill="rgb(0, 0, 0)" stroke="rgb(204, 204, 204)" stroke-width="1px"></line><line x1="51.5625" y1="88.5" x2="46.5625" y2="88.5" style="visibility: inherit;" fill="rgb(0, 0, 0)" stroke="rgb(204, 204, 204)" stroke-width="1px"></line><line x1="51.5625" y1="70.8" x2="46.5625" y2="70.8" style="visibility: inherit;" fill="rgb(0, 0, 0)" stroke="rgb(204, 204, 204)" stroke-width="1px"></line><line x1="51.5625" y1="53.10000000000001" x2="46.5625" y2="53.10000000000001" style="visibility: inherit;" fill="rgb(0, 0, 0)" stroke="rgb(204, 204, 204)" stroke-width="1px"></line><line x1="51.5625" y1="35.39999999999999" x2="46.5625" y2="35.39999999999999" style="visibility: inherit;" fill="rgb(0, 0, 0)" stroke="rgb(204, 204, 204)" stroke-width="1px"></line><line x1="51.5625" y1="17.700000000000017" x2="46.5625" y2="17.700000000000017" style="visibility: inherit;" fill="rgb(0, 0, 0)" stroke="rgb(204, 204, 204)" stroke-width="1px"></line><line x1="51.5625" y1="0" x2="46.5625" y2="0" style="visibility: inherit;" fill="rgb(0, 0, 0)" stroke="rgb(204, 204, 204)" stroke-width="1px"></line></g><g transform="translate(41.5625, 0)"><text x="0" y="177" dx="0em" dy="0.3em" style="text-anchor: end; visibility: hidden; font-family: Roboto, sans-serif; font-size: 12px; font-weight: 200;" fill="rgb(33, 33, 33)" stroke="none" stroke-width="1px">0</text><text x="0" y="159.3" dx="0em" dy="0.3em" style="text-anchor: end; visibility: inherit; font-family: Roboto, sans-serif; font-size: 12px; font-weight: 200;" fill="rgb(33, 33, 33)" stroke="none" stroke-width="1px">1e-3</text><text x="0" y="141.6" dx="0em" dy="0.3em" style="text-anchor: end; visibility: hidden; font-family: Roboto, sans-serif; font-size: 12px; font-weight: 200;" fill="rgb(33, 33, 33)" stroke="none" stroke-width="1px">2e-3</text><text x="0" y="123.89999999999999" dx="0em" dy="0.3em" style="text-anchor: end; visibility: inherit; font-family: Roboto, sans-serif; font-size: 12px; font-weight: 200;" fill="rgb(33, 33, 33)" stroke="none" stroke-width="1px">3e-3</text><text x="0" y="106.2" dx="0em" dy="0.3em" style="text-anchor: end; visibility: hidden; font-family: Roboto, sans-serif; font-size: 12px; font-weight: 200;" fill="rgb(33, 33, 33)" stroke="none" stroke-width="1px">4e-3</text><text x="0" y="88.5" dx="0em" dy="0.3em" style="text-anchor: end; visibility: inherit; font-family: Roboto, sans-serif; font-size: 12px; font-weight: 200;" fill="rgb(33, 33, 33)" stroke="none" stroke-width="1px">5e-3</text><text x="0" y="70.8" dx="0em" dy="0.3em" style="text-anchor: end; visibility: hidden; font-family: Roboto, sans-serif; font-size: 12px; font-weight: 200;" fill="rgb(33, 33, 33)" stroke="none" stroke-width="1px">6e-3</text><text x="0" y="53.10000000000001" dx="0em" dy="0.3em" style="text-anchor: end; visibility: inherit; font-family: Roboto, sans-serif; font-size: 12px; font-weight: 200;" fill="rgb(33, 33, 33)" stroke="none" stroke-width="1px">7e-3</text><text x="0" y="35.39999999999999" dx="0em" dy="0.3em" style="text-anchor: end; visibility: hidden; font-family: Roboto, sans-serif; font-size: 12px; font-weight: 200;" fill="rgb(33, 33, 33)" stroke="none" stroke-width="1px">8e-3</text><text x="0" y="17.700000000000017" dx="0em" dy="0.3em" style="text-anchor: end; visibility: inherit; font-family: Roboto, sans-serif; font-size: 12px; font-weight: 200;" fill="rgb(33, 33, 33)" stroke="none" stroke-width="1px">9e-3</text><text x="0" y="0" dx="0em" dy="0.3em" style="text-anchor: end; visibility: hidden; font-family: Roboto, sans-serif; font-size: 12px; font-weight: 200;" fill="rgb(33, 33, 33)" stroke="none" stroke-width="1px">0.01</text></g><line x1="51.5625" y1="0" x2="51.5625" y2="177" fill="rgb(0, 0, 0)" stroke="rgb(204, 204, 204)" stroke-width="1px"></line></g></g><g transform="translate(51, 0)" clip-path="url(#clip_0)"><clipPath id="clip_0"><rect width="278" height="177"></rect></clipPath><g><g><g><line x1="0" y1="0" x2="0" y2="177" fill="rgb(0, 0, 0)" stroke="rgb(66, 66, 66)" stroke-width="1px" opacity="0.25"></line><line x1="23.203125" y1="0" x2="23.203125" y2="177" fill="rgb(0, 0, 0)" stroke="rgb(66, 66, 66)" stroke-width="1px" opacity="0.25"></line><line x1="46.40625" y1="0" x2="46.40625" y2="177" fill="rgb(0, 0, 0)" stroke="rgb(66, 66, 66)" stroke-width="1px" opacity="0.25"></line><line x1="69.609375" y1="0" x2="69.609375" y2="177" fill="rgb(0, 0, 0)" stroke="rgb(66, 66, 66)" stroke-width="1px" opacity="0.25"></line><line x1="92.8125" y1="0" x2="92.8125" y2="177" fill="rgb(0, 0, 0)" stroke="rgb(66, 66, 66)" stroke-width="1px" opacity="0.25"></line><line x1="116.015625" y1="0" x2="116.015625" y2="177" fill="rgb(0, 0, 0)" stroke="rgb(66, 66, 66)" stroke-width="1px" opacity="0.25"></line><line x1="139.21875" y1="0" x2="139.21875" y2="177" fill="rgb(0, 0, 0)" stroke="rgb(66, 66, 66)" stroke-width="1px" opacity="0.25"></line><line x1="162.421875" y1="0" x2="162.421875" y2="177" fill="rgb(0, 0, 0)" stroke="rgb(66, 66, 66)" stroke-width="1px" opacity="0.25"></line><line x1="185.625" y1="0" x2="185.625" y2="177" fill="rgb(0, 0, 0)" stroke="rgb(66, 66, 66)" stroke-width="1px" opacity="0.25"></line><line x1="208.828125" y1="0" x2="208.828125" y2="177" fill="rgb(0, 0, 0)" stroke="rgb(66, 66, 66)" stroke-width="1px" opacity="0.25"></line><line x1="232.03125" y1="0" x2="232.03125" y2="177" fill="rgb(0, 0, 0)" stroke="rgb(66, 66, 66)" stroke-width="1px" opacity="0.25"></line><line x1="255.234375" y1="0" x2="255.234375" y2="177" fill="rgb(0, 0, 0)" stroke="rgb(66, 66, 66)" stroke-width="1px" opacity="0.25"></line><line x1="278.4375" y1="0" x2="278.4375" y2="177" fill="rgb(0, 0, 0)" stroke="rgb(66, 66, 66)" stroke-width="1px" opacity="0.25"></line></g><g><line x1="0" y1="177" x2="278.4375" y2="177" fill="rgb(0, 0, 0)" stroke="rgb(66, 66, 66)" stroke-width="1px" opacity="0.25"></line><line x1="0" y1="159.3" x2="278.4375" y2="159.3" fill="rgb(0, 0, 0)" stroke="rgb(66, 66, 66)" stroke-width="1px" opacity="0.25"></line><line x1="0" y1="141.6" x2="278.4375" y2="141.6" fill="rgb(0, 0, 0)" stroke="rgb(66, 66, 66)" stroke-width="1px" opacity="0.25"></line><line x1="0" y1="123.89999999999999" x2="278.4375" y2="123.89999999999999" fill="rgb(0, 0, 0)" stroke="rgb(66, 66, 66)" stroke-width="1px" opacity="0.25"></line><line x1="0" y1="106.2" x2="278.4375" y2="106.2" fill="rgb(0, 0, 0)" stroke="rgb(66, 66, 66)" stroke-width="1px" opacity="0.25"></line><line x1="0" y1="88.5" x2="278.4375" y2="88.5" fill="rgb(0, 0, 0)" stroke="rgb(66, 66, 66)" stroke-width="1px" opacity="0.25"></line><line x1="0" y1="70.8" x2="278.4375" y2="70.8" fill="rgb(0, 0, 0)" stroke="rgb(66, 66, 66)" stroke-width="1px" opacity="0.25"></line><line x1="0" y1="53.10000000000001" x2="278.4375" y2="53.10000000000001" fill="rgb(0, 0, 0)" stroke="rgb(66, 66, 66)" stroke-width="1px" opacity="0.25"></line><line x1="0" y1="35.39999999999999" x2="278.4375" y2="35.39999999999999" fill="rgb(0, 0, 0)" stroke="rgb(66, 66, 66)" stroke-width="1px" opacity="0.25"></line><line x1="0" y1="17.700000000000017" x2="278.4375" y2="17.700000000000017" fill="rgb(0, 0, 0)" stroke="rgb(66, 66, 66)" stroke-width="1px" opacity="0.25"></line><line x1="0" y1="0" x2="278.4375" y2="0" fill="rgb(0, 0, 0)" stroke="rgb(66, 66, 66)" stroke-width="1px" opacity="0.25"></line></g></g></g><g><g><line x1="0" y1="177" x2="278.4375" y2="177" fill="rgb(0, 0, 0)" stroke="rgb(153, 153, 153)" stroke-width="1.5px"></line></g></g><g><g><line x1="23.203125" y1="0" x2="23.203125" y2="177" fill="rgb(0, 0, 0)" stroke="rgb(153, 153, 153)" stroke-width="1.5px"></line></g></g><g><g><g><g><g><path stroke="rgb(0, 119, 187)" stroke-width="2px" d="M27.84375,-53.58991019775938L29.00390625,29.765870360704078L30.1640625,79.31160322876555L31.32421875,109.4261844834747L32.484375,127.96255144378995L33.64453125,139.65889302935253L34.8046875,146.74589504530434L35.96484375000001,150.8141876009864L37.125,153.12577826779076L38.28515625,155.14470087741032L39.4453125,156.7158437842187L40.60546875,157.22696906340443L41.765625,157.77646856983833L42.92578125,159.02023447790924L44.0859375,158.90872529795433L45.24609375,158.51583631787975L46.40625,158.58245931192002L47.56640625,157.71806248227884L48.7265625,158.5605197264207L49.88671875,157.96969802815408L51.04687499999999,155.6351474682375L52.20703125,156.99293295271926L53.36718750000001,158.93540169267123L54.52734375,160.68192078062734L55.6875,161.5301339784309L56.84765625,161.6164470865089L58.0078125,160.72217476710034L59.16796875,159.92673284488635L60.328125,160.65037804426723L61.48828125,161.91503612010789L62.6484375,163.64779787479182L63.80859375,164.6127467393728L64.96875,165.41246084223002L66.12890625,166.1127097599494L67.2890625,166.68289567195106L68.44921875,167.6839603648319L69.609375,167.4957167414435L70.76953125,166.2965077322603L71.92968750000001,162.9721414768414L73.08984375,161.3195427266978L74.25,161.29791253639743L75.41015625,162.58865423064748L76.5703125,164.18416131283766L77.73046875,165.79496071973142L78.890625,166.88723969309913L80.05078125,167.42389563186163L81.2109375,166.07873348785327L82.37109375,163.9763910280614L83.53125,161.44432481512428L84.69140624999999,159.44480274809686L85.8515625,160.01558680295705L87.01171875,161.80467379702552L88.171875,162.9774515670037L89.33203125000001,163.7162259002736L90.4921875,162.66387238319348L91.65234375,160.94373301899054L92.8125,162.3420757182017L93.97265625,163.05115410626382L95.1328125,164.1228757132021L96.29296875,165.3443952382089L97.453125,166.8049936990261L98.61328125,168.08533867352688L99.7734375,168.21250055700753L100.93359375,167.26738287118206L102.09374999999999,166.9311339683697L103.25390625,164.27693101666063L104.4140625,160.29835112837222L105.57421875,158.7177078789682L106.73437500000001,157.6548541892669L107.89453125,159.74446240019287L109.0546875,162.4379060120224L110.21484375,165.32525417236957L111.375,167.2288891034501L112.53515625,168.39015365094815L113.6953125,167.55490307378173L114.85546875,166.80698977052361L116.015625,165.06968104326242L117.17578125,164.49615651089184L118.3359375,165.1940394532836L119.49609374999999,165.0478258366678L120.65625,165.18728703573234L121.81640625,165.6256208817617L122.9765625,165.70258679727945L124.13671875000001,166.3334333246923L125.296875,167.53761770515004L126.45703125,168.7330031971964L127.6171875,168.65864098758743L128.77734375,168.86812012048807L129.9375,168.53588059300034L131.09765625,168.84140117943718L132.2578125,168.73251789312323L133.41796875,165.54070864581027L134.578125,158.48285573791983L135.73828125,156.1356385609673L136.8984375,155.9926754358361L138.05859375,158.85343137296735L139.21875,163.02785896797783L140.37890625,165.7676355434626L141.5390625,167.61034591553067L142.69921875,169.00263128193814L143.85937500000003,169.56679419570662L145.01953125,169.3212388040669L146.1796875,168.379342191807L147.33984375,168.73415420257544L148.5,169.47576256766206L149.66015625,168.28501527254974L150.8203125,168.22712856537592L151.98046874999997,165.95142430620413L153.140625,164.771848632642L154.30078125,163.63433365337454L155.4609375,162.86538165835606L156.62109375,165.37853747972252L157.78125,167.14670537580528L158.94140625,166.66199799411433L160.1015625,167.14372737082726L161.26171875000003,167.77032655439012L162.421875,168.43184672785168L163.58203125,168.37658199886897L164.7421875,168.3825260354771L165.90234375,168.70443463580347L167.0625,169.3758289894013L168.22265625,168.45706206332437L169.38281249999997,165.82774138360568L170.54296875,165.43271167065933L171.703125,164.79404172516607L172.86328125,165.76538677046742L174.0234375,166.74507573935418L175.18359375,167.77973881073797L176.34375,168.5587742100295L177.50390625,169.4364998218033L178.66406250000003,170.28107246891898L179.82421875,170.57519993649046L180.984375,168.99515913760584L182.14453125,165.03610641784024L183.3046875,166.94059684082862L184.46484375,166.69496155121547L185.625,163.5742054132439L186.78515624999997,162.46136692311643L187.9453125,163.76271418895217L189.10546875,164.43511736212457L190.265625,166.43539680921197L191.42578125,168.40243074977977L192.5859375,169.1004918187683L193.74609375,169.5552121350251L194.90625,169.6527002783411L196.06640625000003,169.5385665728103L197.2265625,169.57926650912583L198.38671875,169.20413652752015L199.546875,169.34008585917084L200.70703125,169.71086247288213L201.8671875,169.85784797812568L203.02734375,170.02813617414648L204.18749999999997,170.0809974229141L205.34765625,169.60637575091926L206.5078125,169.10714428819983L207.66796875,168.02388362341162L208.828125,164.71201899751966L209.98828125,164.63012047537757L211.1484375,166.3106156603368L212.30859375,166.51601837949437L213.46875000000003,167.01443322162095L214.62890625,167.77448244623437L215.7890625,168.77277837897222L216.94921875,170.0054154061817L218.109375,170.45903494564513L219.26953125,169.17177802099852L220.4296875,169.9663541572206L221.58984374999997,169.47956982119234L222.75,169.44225196379745L223.91015625,169.90818818655356L225.0703125,170.2892180548787L226.23046875,170.36669640011854L227.390625,170.37170492379042L228.55078125,169.45069603474465L229.7109375,169.20561848883497L230.87109375000003,169.62528432654204L232.03125,170.2338565236702L233.19140625,170.40930673514302L234.3515625,169.30562757274208L235.51171875,168.44980450324013L236.671875,167.75305224401083L237.83203125,167.45579204804346L238.99218749999997,168.09291163577564L240.15234375,169.1333774269662L241.3125,169.87514705823423L242.47265625,170.51943281730266L243.6328125,170.9433148793109L244.79296875,171.4311498991871L245.953125,171.70308879725852L247.11328125,171.6051357916197L248.27343750000003,170.56941298236777L249.43359375,169.8287226297223L250.59375,169.89886514178184L251.75390625,170.02778104010048L252.9140625,168.39679578645348L254.07421875,165.51834964407723" style="fill: none;" fill="none"></path></g></g></g></g><g opacity="0.2"><g><g><g><path stroke="rgb(0, 119, 187)" stroke-width="2px" d="M23.203125,-2904.9452583789825L24.36328125,34.738424465060234L25.523437499999996,99.97269771806896L26.683593750000004,121.99813138972968L27.84375,136.23145883716643L29.00390625,145.07692295406014L30.1640625,150.16279396181926L31.32421875,153.3335330528207L32.484375,155.30009220633656L33.64453125,157.02659714547917L34.8046875,157.31211948255077L35.96484375000001,156.89448696607724L37.125,156.58561652339995L38.28515625,158.16912951227278L39.4453125,159.07071132492274L40.60546875,157.99329649703577L41.765625,158.6004852997139L42.92578125,160.88556754798628L44.0859375,158.74147851532325L45.24609375,157.92653875937685L46.40625,158.6823901492171L47.56640625,156.42149568116292L48.7265625,159.8241889597848L49.88671875,157.08347247960046L51.04687499999999,152.13333822134882L52.20703125,159.02960538910702L53.36718750000001,161.8490998323541L54.52734375,163.30169673124328L55.6875,162.80245299381204L56.84765625,161.74591670092195L58.0078125,159.38076658453792L59.16796875,158.7335701198317L60.328125,161.73584575694986L61.48828125,163.81202314328402L62.6484375,166.24694043234922L63.80859375,166.06017001136206L64.96875,166.61203198414296L66.12890625,167.1630831300281L67.2890625,167.53817453677766L68.44921875,169.18555740080774L69.609375,167.21335130673833L70.76953125,164.49769421992823L71.92968750000001,157.98559209611267L73.08984375,158.84064460219815L74.25,161.2654672509525L75.41015625,164.5247667718213L76.5703125,166.5774219359737L77.73046875,168.21115982998163L78.890625,168.5256581531139L80.05078125,168.22887953999452L81.2109375,164.060990271857L82.37109375,160.82287733838893L83.53125,157.6462254957296L84.69140624999999,156.445519647561L85.8515625,160.87176288524643L87.01171875,164.48830428812653L88.171875,164.73661822197028L89.33203125000001,164.82438740017824L90.4921875,161.08534210757352L91.65234375,158.36352397268638L92.8125,164.43958976701833L93.97265625,164.114771688357L95.1328125,165.73045812360942L96.29296875,167.17667452571914L97.453125,168.99589139025193L98.61328125,170.005856135278L99.7734375,168.40324338222854L100.93359375,165.84970634244382L102.09374999999999,166.42676061415114L103.25390625,160.29562658909708L104.4140625,154.33048129593953L105.57421875,156.34674300486222L106.73437500000001,156.06057365471497L107.89453125,162.87887471658178L109.0546875,166.47807142976671L110.21484375,169.6562764128903L111.375,170.08434150007088L112.53515625,170.13205047219526L113.6953125,166.3020272080321L114.85546875,165.68511981563643L116.015625,162.46371795237064L117.17578125,163.635869712336L118.3359375,166.24086386687122L119.49609374999999,164.82850541174412L120.65625,165.39647883432917L121.81640625,166.2831216508057L122.9765625,165.81803567055613L124.13671875000001,167.27970311581157L125.296875,169.34389427583665L126.45703125,170.52608143526595L127.6171875,168.547097673174L128.77734375,169.18233881983906L129.9375,168.03752130176872L131.09765625,169.29968205909245L132.2578125,168.5691929636523L133.41796875,160.75299477484077L134.578125,147.89607637608424L135.73828125,152.61481279553846L136.8984375,155.77823074813932L138.05859375,163.14456527866423L139.21875,169.28950036049355L140.37890625,169.87730040668976L141.5390625,170.3744114736328L142.69921875,171.09105933154933L143.85937500000003,170.41303856635932L145.01953125,168.95290571660735L146.1796875,166.9664972734172L147.33984375,169.26637221872807L148.5,170.58817511529196L149.66015625,166.4988943298813L150.8203125,168.1402985046152L151.98046874999997,162.53786791744642L153.140625,163.00248512229882L154.30078125,161.92806118447334L155.4609375,161.71195366582833L156.62109375,169.14827121177223L157.78125,169.79895721992943L158.94140625,165.9349369215779L160.1015625,167.86632143589668L161.26171875000003,168.71022532973439L162.421875,169.424126988044L163.58203125,168.2936849053949L164.7421875,168.39144209038932L165.90234375,169.18729753629304L167.0625,170.38292051979806L168.22265625,167.07891167420894L169.38281249999997,161.8837603640277L170.54296875,164.84016710123979L171.703125,163.83603680692613L172.86328125,167.22240433841944L174.0234375,168.2146091926843L175.18359375,169.33173341781367L176.34375,169.72732730896678L177.50390625,170.75308823946398L178.66406250000003,171.5479314395925L179.82421875,171.01639113784768L180.984375,166.62509793927893L182.14453125,159.09752733819187L183.3046875,169.79733247531112L184.46484375,166.32650861679576L185.625,158.89307120628655L186.78515624999997,160.79210918792523L187.9453125,165.71473508770578L189.10546875,165.44372212188318L190.265625,169.43581597984303L191.42578125,171.35298166063149L192.5859375,170.14758342225105L193.74609375,170.23729260941036L194.90625,169.79893249331508L196.06640625000003,169.36736601451412L197.2265625,169.64031641359907L198.38671875,168.64144155511167L199.546875,169.54400985664688L200.70703125,170.2670273934491L201.8671875,170.07832623599097L203.02734375,170.2835684681777L204.18749999999997,170.16028929606546L205.34765625,168.89444324292708L206.5078125,168.35829709412064L207.66796875,166.3989926262293L208.828125,159.74422205868177L209.98828125,164.5072726921644L211.1484375,168.83135843777563L212.30859375,166.8241224582307L213.46875000000003,167.76205548481084L214.62890625,168.91455628315452L215.7890625,170.27022227807902L216.94921875,171.8543709469959L218.109375,171.13946425484028L219.26953125,167.24089263402857L220.4296875,171.15821836155374L221.58984374999997,168.74939331714995L222.75,169.3862751777051L223.91015625,170.60709252068773L225.0703125,170.86076285736635L226.23046875,170.4829139179783L227.390625,170.37921770929825L228.55078125,168.06918270117603L229.7109375,168.83800216997042L230.87109375000003,170.25478308310267L232.03125,171.1467148193624L233.19140625,170.67248205235228L234.3515625,167.65010882914066L235.51171875,167.1660698989872L236.671875,166.70792385516688L237.83203125,167.00990175409243L238.99218749999997,169.04859101737384L240.15234375,170.6940761137521L241.3125,170.9878015051363L242.47265625,171.48586145590525L243.6328125,171.57913797232322L244.79296875,172.1629024290014L245.953125,172.11099714436568L247.11328125,171.45820628316142L248.27343750000003,169.01582876848988L249.43359375,168.71768710075412L250.59375,170.00407890987117L251.75390625,170.22115488757845L252.9140625,165.95031790598296L254.07421875,161.20068043051288" style="fill: none;" fill="none"></path></g></g></g></g></g></g><g transform="translate(51, 177)" clip-path="url(#clip_1)"><clipPath id="clip_1"><rect width="278" height="23"></rect></clipPath><g><g><line x1="0" y1="0" x2="0" y2="5" style="visibility: inherit;" fill="rgb(0, 0, 0)" stroke="rgb(204, 204, 204)" stroke-width="1px"></line><line x1="23.203125" y1="0" x2="23.203125" y2="5" style="visibility: inherit;" fill="rgb(0, 0, 0)" stroke="rgb(204, 204, 204)" stroke-width="1px"></line><line x1="46.40625" y1="0" x2="46.40625" y2="5" style="visibility: inherit;" fill="rgb(0, 0, 0)" stroke="rgb(204, 204, 204)" stroke-width="1px"></line><line x1="69.609375" y1="0" x2="69.609375" y2="5" style="visibility: inherit;" fill="rgb(0, 0, 0)" stroke="rgb(204, 204, 204)" stroke-width="1px"></line><line x1="92.8125" y1="0" x2="92.8125" y2="5" style="visibility: inherit;" fill="rgb(0, 0, 0)" stroke="rgb(204, 204, 204)" stroke-width="1px"></line><line x1="116.015625" y1="0" x2="116.015625" y2="5" style="visibility: inherit;" fill="rgb(0, 0, 0)" stroke="rgb(204, 204, 204)" stroke-width="1px"></line><line x1="139.21875" y1="0" x2="139.21875" y2="5" style="visibility: inherit;" fill="rgb(0, 0, 0)" stroke="rgb(204, 204, 204)" stroke-width="1px"></line><line x1="162.421875" y1="0" x2="162.421875" y2="5" style="visibility: inherit;" fill="rgb(0, 0, 0)" stroke="rgb(204, 204, 204)" stroke-width="1px"></line><line x1="185.625" y1="0" x2="185.625" y2="5" style="visibility: inherit;" fill="rgb(0, 0, 0)" stroke="rgb(204, 204, 204)" stroke-width="1px"></line><line x1="208.828125" y1="0" x2="208.828125" y2="5" style="visibility: inherit;" fill="rgb(0, 0, 0)" stroke="rgb(204, 204, 204)" stroke-width="1px"></line><line x1="232.03125" y1="0" x2="232.03125" y2="5" style="visibility: inherit;" fill="rgb(0, 0, 0)" stroke="rgb(204, 204, 204)" stroke-width="1px"></line><line x1="255.234375" y1="0" x2="255.234375" y2="5" style="visibility: inherit;" fill="rgb(0, 0, 0)" stroke="rgb(204, 204, 204)" stroke-width="1px"></line><line x1="278.4375" y1="0" x2="278.4375" y2="5" style="visibility: inherit;" fill="rgb(0, 0, 0)" stroke="rgb(204, 204, 204)" stroke-width="1px"></line></g><g transform="translate(0, 8)"><text x="0" y="0" dx="0em" dy="0.95em" style="text-anchor: middle; visibility: hidden; font-family: Roboto, sans-serif; font-size: 12px; font-weight: 200;" fill="rgb(33, 33, 33)" stroke="none" stroke-width="1px">-20</text><text x="23.203125" y="0" dx="0em" dy="0.95em" style="text-anchor: middle; visibility: inherit; font-family: Roboto, sans-serif; font-size: 12px; font-weight: 200;" fill="rgb(33, 33, 33)" stroke="none" stroke-width="1px">0</text><text x="46.40625" y="0" dx="0em" dy="0.95em" style="text-anchor: middle; visibility: hidden; font-family: Roboto, sans-serif; font-size: 12px; font-weight: 200;" fill="rgb(33, 33, 33)" stroke="none" stroke-width="1px">20</text><text x="69.609375" y="0" dx="0em" dy="0.95em" style="text-anchor: middle; visibility: inherit; font-family: Roboto, sans-serif; font-size: 12px; font-weight: 200;" fill="rgb(33, 33, 33)" stroke="none" stroke-width="1px">40</text><text x="92.8125" y="0" dx="0em" dy="0.95em" style="text-anchor: middle; visibility: hidden; font-family: Roboto, sans-serif; font-size: 12px; font-weight: 200;" fill="rgb(33, 33, 33)" stroke="none" stroke-width="1px">60</text><text x="116.015625" y="0" dx="0em" dy="0.95em" style="text-anchor: middle; visibility: inherit; font-family: Roboto, sans-serif; font-size: 12px; font-weight: 200;" fill="rgb(33, 33, 33)" stroke="none" stroke-width="1px">80</text><text x="139.21875" y="0" dx="0em" dy="0.95em" style="text-anchor: middle; visibility: hidden; font-family: Roboto, sans-serif; font-size: 12px; font-weight: 200;" fill="rgb(33, 33, 33)" stroke="none" stroke-width="1px">100</text><text x="162.421875" y="0" dx="0em" dy="0.95em" style="text-anchor: middle; visibility: inherit; font-family: Roboto, sans-serif; font-size: 12px; font-weight: 200;" fill="rgb(33, 33, 33)" stroke="none" stroke-width="1px">120</text><text x="185.625" y="0" dx="0em" dy="0.95em" style="text-anchor: middle; visibility: hidden; font-family: Roboto, sans-serif; font-size: 12px; font-weight: 200;" fill="rgb(33, 33, 33)" stroke="none" stroke-width="1px">140</text><text x="208.828125" y="0" dx="0em" dy="0.95em" style="text-anchor: middle; visibility: inherit; font-family: Roboto, sans-serif; font-size: 12px; font-weight: 200;" fill="rgb(33, 33, 33)" stroke="none" stroke-width="1px">160</text><text x="232.03125" y="0" dx="0em" dy="0.95em" style="text-anchor: middle; visibility: hidden; font-family: Roboto, sans-serif; font-size: 12px; font-weight: 200;" fill="rgb(33, 33, 33)" stroke="none" stroke-width="1px">180</text><text x="255.234375" y="0" dx="0em" dy="0.95em" style="text-anchor: middle; visibility: inherit; font-family: Roboto, sans-serif; font-size: 12px; font-weight: 200;" fill="rgb(33, 33, 33)" stroke="none" stroke-width="1px">200</text><text x="278.4375" y="0" dx="0em" dy="0.95em" style="text-anchor: middle; visibility: hidden; font-family: Roboto, sans-serif; font-size: 12px; font-weight: 200;" fill="rgb(33, 33, 33)" stroke="none" stroke-width="1px">220</text></g><line x1="0" y1="0" x2="278.4375" y2="0" fill="rgb(0, 0, 0)" stroke="rgb(204, 204, 204)" stroke-width="1px"></line></g></g></g></g></svg>