<svg viewBox="0 0 301 200" xmlns="http://www.w3.org/2000/svg"><g><g><g><g><g><line x1="30.78125" y1="177" x2="25.78125" y2="177" style="visibility: inherit;" fill="rgb(0, 0, 0)" stroke="rgb(204, 204, 204)" stroke-width="1px"></line><line x1="30.78125" y1="157.33333333333331" x2="25.78125" y2="157.33333333333331" style="visibility: inherit;" fill="rgb(0, 0, 0)" stroke="rgb(204, 204, 204)" stroke-width="1px"></line><line x1="30.78125" y1="137.66666666666666" x2="25.78125" y2="137.66666666666666" style="visibility: inherit;" fill="rgb(0, 0, 0)" stroke="rgb(204, 204, 204)" stroke-width="1px"></line><line x1="30.78125" y1="118.00000000000001" x2="25.78125" y2="118.00000000000001" style="visibility: inherit;" fill="rgb(0, 0, 0)" stroke="rgb(204, 204, 204)" stroke-width="1px"></line><line x1="30.78125" y1="98.33333333333334" x2="25.78125" y2="98.33333333333334" style="visibility: inherit;" fill="rgb(0, 0, 0)" stroke="rgb(204, 204, 204)" stroke-width="1px"></line><line x1="30.78125" y1="78.66666666666666" x2="25.78125" y2="78.66666666666666" style="visibility: inherit;" fill="rgb(0, 0, 0)" stroke="rgb(204, 204, 204)" stroke-width="1px"></line><line x1="30.78125" y1="59.00000000000001" x2="25.78125" y2="59.00000000000001" style="visibility: inherit;" fill="rgb(0, 0, 0)" stroke="rgb(204, 204, 204)" stroke-width="1px"></line><line x1="30.78125" y1="39.33333333333333" x2="25.78125" y2="39.33333333333333" style="visibility: inherit;" fill="rgb(0, 0, 0)" stroke="rgb(204, 204, 204)" stroke-width="1px"></line><line x1="30.78125" y1="19.666666666666675" x2="25.78125" y2="19.666666666666675" style="visibility: inherit;" fill="rgb(0, 0, 0)" stroke="rgb(204, 204, 204)" stroke-width="1px"></line><line x1="30.78125" y1="0" x2="25.78125" y2="0" style="visibility: inherit;" fill="rgb(0, 0, 0)" stroke="rgb(204, 204, 204)" stroke-width="1px"></line></g><g transform="translate(20.78125, 0)"><text x="0" y="177" dx="0em" dy="0.3em" style="text-anchor: end; visibility: hidden; font-family: Roboto, sans-serif; font-size: 12px; font-weight: 200;" fill="rgb(33, 33, 33)" stroke="none" stroke-width="1px">-2</text><text x="0" y="157.33333333333331" dx="0em" dy="0.3em" style="text-anchor: end; visibility: inherit; font-family: Roboto, sans-serif; font-size: 12px; font-weight: 200;" fill="rgb(33, 33, 33)" stroke="none" stroke-width="1px">0</text><text x="0" y="137.66666666666666" dx="0em" dy="0.3em" style="text-anchor: end; visibility: hidden; font-family: Roboto, sans-serif; font-size: 12px; font-weight: 200;" fill="rgb(33, 33, 33)" stroke="none" stroke-width="1px">2</text><text x="0" y="118.00000000000001" dx="0em" dy="0.3em" style="text-anchor: end; visibility: inherit; font-family: Roboto, sans-serif; font-size: 12px; font-weight: 200;" fill="rgb(33, 33, 33)" stroke="none" stroke-width="1px">4</text><text x="0" y="98.33333333333334" dx="0em" dy="0.3em" style="text-anchor: end; visibility: hidden; font-family: Roboto, sans-serif; font-size: 12px; font-weight: 200;" fill="rgb(33, 33, 33)" stroke="none" stroke-width="1px">6</text><text x="0" y="78.66666666666666" dx="0em" dy="0.3em" style="text-anchor: end; visibility: inherit; font-family: Roboto, sans-serif; font-size: 12px; font-weight: 200;" fill="rgb(33, 33, 33)" stroke="none" stroke-width="1px">8</text><text x="0" y="59.00000000000001" dx="0em" dy="0.3em" style="text-anchor: end; visibility: hidden; font-family: Roboto, sans-serif; font-size: 12px; font-weight: 200;" fill="rgb(33, 33, 33)" stroke="none" stroke-width="1px">10</text><text x="0" y="39.33333333333333" dx="0em" dy="0.3em" style="text-anchor: end; visibility: inherit; font-family: Roboto, sans-serif; font-size: 12px; font-weight: 200;" fill="rgb(33, 33, 33)" stroke="none" stroke-width="1px">12</text><text x="0" y="19.666666666666675" dx="0em" dy="0.3em" style="text-anchor: end; visibility: hidden; font-family: Roboto, sans-serif; font-size: 12px; font-weight: 200;" fill="rgb(33, 33, 33)" stroke="none" stroke-width="1px">14</text><text x="0" y="0" dx="0em" dy="0.3em" style="text-anchor: end; visibility: hidden; font-family: Roboto, sans-serif; font-size: 12px; font-weight: 200;" fill="rgb(33, 33, 33)" stroke="none" stroke-width="1px">16</text></g><line x1="30.78125" y1="0" x2="30.78125" y2="177" fill="rgb(0, 0, 0)" stroke="rgb(204, 204, 204)" stroke-width="1px"></line></g></g><g transform="translate(30, 0)" clip-path="url(#clip_0)"><clipPath id="clip_0"><rect width="299" height="177"></rect></clipPath><g><g><g><line x1="0" y1="0" x2="0" y2="177" fill="rgb(0, 0, 0)" stroke="rgb(66, 66, 66)" stroke-width="1px" opacity="0.25"></line><line x1="24.934895833333332" y1="0" x2="24.934895833333332" y2="177" fill="rgb(0, 0, 0)" stroke="rgb(66, 66, 66)" stroke-width="1px" opacity="0.25"></line><line x1="49.869791666666664" y1="0" x2="49.869791666666664" y2="177" fill="rgb(0, 0, 0)" stroke="rgb(66, 66, 66)" stroke-width="1px" opacity="0.25"></line><line x1="74.8046875" y1="0" x2="74.8046875" y2="177" fill="rgb(0, 0, 0)" stroke="rgb(66, 66, 66)" stroke-width="1px" opacity="0.25"></line><line x1="99.73958333333333" y1="0" x2="99.73958333333333" y2="177" fill="rgb(0, 0, 0)" stroke="rgb(66, 66, 66)" stroke-width="1px" opacity="0.25"></line><line x1="124.67447916666667" y1="0" x2="124.67447916666667" y2="177" fill="rgb(0, 0, 0)" stroke="rgb(66, 66, 66)" stroke-width="1px" opacity="0.25"></line><line x1="149.609375" y1="0" x2="149.609375" y2="177" fill="rgb(0, 0, 0)" stroke="rgb(66, 66, 66)" stroke-width="1px" opacity="0.25"></line><line x1="174.54427083333334" y1="0" x2="174.54427083333334" y2="177" fill="rgb(0, 0, 0)" stroke="rgb(66, 66, 66)" stroke-width="1px" opacity="0.25"></line><line x1="199.47916666666666" y1="0" x2="199.47916666666666" y2="177" fill="rgb(0, 0, 0)" stroke="rgb(66, 66, 66)" stroke-width="1px" opacity="0.25"></line><line x1="224.4140625" y1="0" x2="224.4140625" y2="177" fill="rgb(0, 0, 0)" stroke="rgb(66, 66, 66)" stroke-width="1px" opacity="0.25"></line><line x1="249.34895833333334" y1="0" x2="249.34895833333334" y2="177" fill="rgb(0, 0, 0)" stroke="rgb(66, 66, 66)" stroke-width="1px" opacity="0.25"></line><line x1="274.28385416666663" y1="0" x2="274.28385416666663" y2="177" fill="rgb(0, 0, 0)" stroke="rgb(66, 66, 66)" stroke-width="1px" opacity="0.25"></line><line x1="299.21875" y1="0" x2="299.21875" y2="177" fill="rgb(0, 0, 0)" stroke="rgb(66, 66, 66)" stroke-width="1px" opacity="0.25"></line></g><g><line x1="0" y1="177" x2="299.21875" y2="177" fill="rgb(0, 0, 0)" stroke="rgb(66, 66, 66)" stroke-width="1px" opacity="0.25"></line><line x1="0" y1="157.33333333333331" x2="299.21875" y2="157.33333333333331" fill="rgb(0, 0, 0)" stroke="rgb(66, 66, 66)" stroke-width="1px" opacity="0.25"></line><line x1="0" y1="137.66666666666666" x2="299.21875" y2="137.66666666666666" fill="rgb(0, 0, 0)" stroke="rgb(66, 66, 66)" stroke-width="1px" opacity="0.25"></line><line x1="0" y1="118.00000000000001" x2="299.21875" y2="118.00000000000001" fill="rgb(0, 0, 0)" stroke="rgb(66, 66, 66)" stroke-width="1px" opacity="0.25"></line><line x1="0" y1="98.33333333333334" x2="299.21875" y2="98.33333333333334" fill="rgb(0, 0, 0)" stroke="rgb(66, 66, 66)" stroke-width="1px" opacity="0.25"></line><line x1="0" y1="78.66666666666666" x2="299.21875" y2="78.66666666666666" fill="rgb(0, 0, 0)" stroke="rgb(66, 66, 66)" stroke-width="1px" opacity="0.25"></line><line x1="0" y1="59.00000000000001" x2="299.21875" y2="59.00000000000001" fill="rgb(0, 0, 0)" stroke="rgb(66, 66, 66)" stroke-width="1px" opacity="0.25"></line><line x1="0" y1="39.33333333333333" x2="299.21875" y2="39.33333333333333" fill="rgb(0, 0, 0)" stroke="rgb(66, 66, 66)" stroke-width="1px" opacity="0.25"></line><line x1="0" y1="19.666666666666675" x2="299.21875" y2="19.666666666666675" fill="rgb(0, 0, 0)" stroke="rgb(66, 66, 66)" stroke-width="1px" opacity="0.25"></line><line x1="0" y1="0" x2="299.21875" y2="0" fill="rgb(0, 0, 0)" stroke="rgb(66, 66, 66)" stroke-width="1px" opacity="0.25"></line></g></g></g><g><g><line x1="0" y1="157.33333333333331" x2="299.21875" y2="157.33333333333331" fill="rgb(0, 0, 0)" stroke="rgb(153, 153, 153)" stroke-width="1.5px"></line></g></g><g><g><line x1="24.934895833333332" y1="0" x2="24.934895833333332" y2="177" fill="rgb(0, 0, 0)" stroke="rgb(153, 153, 153)" stroke-width="1.5px"></line></g></g><g><g><g><g><g><path stroke="rgb(51, 187, 238)" stroke-width="2px" d="M36.903645833333336,-1.919260025024414L37.40234375,13.762986818949384L37.90104166666667,29.051366170247395L38.39973958333333,41.56672143936158L38.8984375,51.82478459676107L39.397135416666664,61.98296483357747L39.895833333333336,72.1586815516154L40.39453125,78.76022426287332L40.893229166666664,84.70618391036987L41.391927083333336,89.84174712498984L41.89062500000001,93.09898908933003L42.389322916666664,95.34711440404256L42.888020833333336,100.818173011144L43.38671875,102.97022279103597L43.885416666666664,108.30136934916179L44.384114583333336,107.79053258895875L44.8828125,113.03241658210756L45.38151041666667,112.52614212036134L45.88020833333333,113.01524114608766L46.37890625,120.12288482983908L46.87760416666667,116.84008836746217L47.37630208333333,117.0677719116211L47.875,124.84459646542867L48.373697916666664,124.8220287958781L48.872395833333336,126.30962880452475L49.37109375,130.62483167648315L49.869791666666664,124.76217265923819L50.368489583333336,121.89581839243571L50.86718750000001,132.11143294970194L51.365885416666664,134.49540503819782L51.864583333333336,132.10749896367392L52.36328125,133.89337857564288L52.861979166666664,134.75167679786682L53.360677083333336,133.68753123283386L53.859375,139.9152280489604L54.35807291666667,137.66188398996988L54.85677083333333,138.50395862261453L55.35546875,138.65517560640973L55.85416666666667,136.32709050178528L56.35286458333333,141.785116314888L56.8515625,139.97946244478226L57.35026041666667,134.09625081221262L57.84895833333333,130.47956021626788L58.34765625,134.93968288103738L58.846354166666664,133.9663050174713L59.345052083333336,139.75646311044693L59.84375,139.0107922355334L60.342447916666664,140.50544434785843L60.841145833333336,143.26975293954212L61.33984374999999,141.58592955271405L61.838541666666664,143.2750596006711L62.337239583333336,145.78408813476562L62.8359375,145.1060851017634L63.334635416666664,141.5515997807185L63.833333333333336,135.48469233512878L64.33203125,136.27160441875458L64.83072916666667,141.41759105523425L65.32942708333333,142.2843890786171L65.828125,139.45498685042062L66.32682291666667,139.79067214330036L66.82552083333333,136.53347237904867L67.32421875,142.371648311615L67.82291666666666,146.33795726299286L68.32161458333333,147.4895203113556L68.8203125,142.3359376589457L69.31901041666667,132.07779947916666L69.81770833333333,140.5742621421814L70.31640625,145.17180587848026L70.81510416666667,141.86530351638794L71.31380208333334,141.79518338044485L71.8125,148.04021271069846L72.31119791666667,147.68561533093452L72.80989583333334,144.18901505072913L73.30859375,148.04726950327557L73.80729166666667,147.83365734418234L74.30598958333333,149.4484390417735L74.8046875,152.3701768219471L75.30338541666666,150.20621782541275L75.80208333333334,149.881032148997L76.30078125,153.53756431738537L76.79947916666666,155.52230598529178L77.29817708333334,155.42602853477L77.796875,156.4706654238204L78.29557291666666,155.84947726378837L78.79427083333333,156.38505961373448L79.29296875,156.04190160830817L79.79166666666667,156.3076212791105L80.29036458333333,156.3572350293398L80.7890625,156.5083254861335L81.28776041666667,156.5965628673633L81.78645833333333,156.70012943074107L82.28515625,156.78303172439337L82.78385416666667,156.87779502694806L83.28255208333333,156.85150404212376L83.78125000000001,156.9038079380989L84.27994791666667,156.9800705680003L84.77864583333333,157.01422289448482L85.27734374999999,156.99324186767143L85.77604166666667,157.11992059896392L86.27473958333333,157.0712711866945L86.7734375,157.16801706918827L87.27213541666667,157.2535664293294L87.77083333333333,157.21951264298212L88.26953125,157.13552942996225L88.76822916666667,157.16805807873607L89.26692708333333,157.23763955912244L89.765625,157.28983099937128L90.26432291666667,157.28551122779027L90.76302083333334,157.25809406473613L91.26171875,157.24415489379317L91.76041666666666,157.26956456713378L92.25911458333334,157.2834986416468L92.7578125,157.28313617237532L93.25651041666666,157.2803508474802L93.75520833333334,157.28044083861943L94.25390625,157.28168231613625L94.75260416666666,157.2828777563603L95.25130208333334,157.27893396210857L95.75,157.26962757421038L96.24869791666666,157.25191395885L96.74739583333333,157.19423652999103L97.24609375,157.22410340451947L97.74479166666667,157.2387089394033L98.24348958333333,157.2708103718081L98.7421875,157.29766774262924L99.24088541666667,157.30579107421607L99.73958333333333,157.3047289676809L100.23828125,157.3050163893883L100.73697916666667,157.30731765875436L101.23567708333333,157.30826453010863L101.73437500000001,157.30551451390298L102.23307291666667,157.30350951974592L102.73177083333333,157.30343881307635L103.23046874999999,157.30394622838745L103.72916666666667,157.3029871150696L104.22786458333333,157.3057484230958L104.7265625,157.3106194722544L105.22526041666667,157.3166293067819L105.72395833333333,157.3198380486186L106.22265625,157.3235994783657L106.72135416666667,157.32231161898622L107.22005208333333,157.3216069402406L107.71875,157.308229851032L108.21744791666667,157.28270367641622L108.71614583333334,157.20631412571916L109.21484375,157.2043866861301L109.71354166666666,157.22807320750627L110.21223958333334,157.2097925101407L110.7109375,157.20717973122373L111.20963541666666,157.21923543016115L111.70833333333334,157.1977804399406L112.20703125,157.22504787876582L112.70572916666666,157.27677742127952L113.20442708333334,157.2693739569901L113.703125,157.30756767001003L114.20182291666666,157.31153325115642L114.70052083333334,157.3120419050877L115.19921875,157.30925342525975L115.69791666666666,157.31003827547343L116.19661458333333,157.3142911043251L116.6953125,157.31568687934973L117.19401041666667,157.31432951070988L117.69270833333333,157.3131271195598L118.19140625,157.31159036276708L118.69010416666667,157.31515334769693L119.18880208333333,157.31469425345617L119.6875,157.31943542034907L120.18619791666667,157.31874008849263L120.68489583333333,157.32155142212287L121.18359375000001,157.3169457433396L121.68229166666667,157.3189840989653L122.18098958333333,157.30938446715786L122.67968749999999,157.31003001495264L123.17838541666667,157.2950679383163L123.67708333333333,157.27500259527005L124.17578125,157.25374021163833L124.67447916666667,157.25375506592295L125.17317708333333,157.22881047272432L125.671875,157.20708554113907L126.17057291666667,157.25867933453992L126.66927083333333,157.21798688266426L127.16796875,157.18035330530256L127.66666666666667,157.28748843655922L128.16536458333334,157.3210993875594L128.6640625,157.32185669736162L129.16276041666666,157.31905020144768L129.66145833333334,157.32057045322532L130.16015625,157.32456148561323L130.65885416666666,157.32544517932305L131.15755208333334,157.32487752093584L131.65625,157.3235837414783L132.15494791666666,157.32268191491798L132.65364583333334,157.32221424878418L133.15234375,157.32235770321373L133.65104166666666,157.32298407986914L134.14973958333331,157.32362304076864L134.6484375,157.32416784707067L135.14713541666666,157.32455572293838L135.64583333333331,157.32485498594664L136.14453125,157.32510761124044L136.64322916666666,157.32532890928755L137.14192708333331,157.32552144719133L137.640625,157.32565147140608L138.13932291666666,157.32572970366647L138.63802083333334,157.3257346970689L139.13671875,157.32570425700396L139.63541666666666,157.32559250644408L140.13411458333334,157.32549215760082L140.6328125,157.3252627037776L141.13151041666666,157.3251390546793L141.63020833333334,157.3247534809052L142.12890625,157.32461986503523L142.62760416666669,157.32402858757996L143.12630208333334,157.32367624420053L143.625,157.32272961667817L144.12369791666669,157.32131732061194L144.62239583333334,157.31888736982364L145.12109375,157.3149554626628L145.61979166666669,157.311532523095L146.11848958333334,157.3122162849565L146.6171875,157.3162624508259L147.11588541666666,157.31829533110917L147.61458333333334,157.31701820491193L148.11328125,157.3138047478472L148.61197916666666,157.3113768141096L149.11067708333334,157.31204590713605L149.609375,157.31293830896416L150.10807291666669,157.31034309510142L150.60677083333331,157.30556138457422L151.10546875,157.30419787205756L151.60416666666669,157.31170488133404L152.10286458333331,157.3217954955568L152.6015625,157.3270422713443L153.10026041666669,157.32866927341092L153.59895833333331,157.32741018848415L154.09765625,157.32169061922468L154.59635416666669,157.30983778384203L155.09505208333331,157.30810148327146L155.59375,157.3249333956434L156.09244791666666,157.3284840241346L156.59114583333331,157.3283513286442L157.08984375,157.3268878639404L157.58854166666666,157.32380141123818L158.08723958333334,157.31783498680065L158.5859375,157.31318924975736L159.08463541666666,157.31779217656003L159.58333333333334,157.32587333896663L160.08203125,157.32752960429448L160.58072916666666,157.32696313015185L161.07942708333334,157.32369814099124L161.578125,157.31554567206575L162.07682291666666,157.308367679012L162.57552083333334,157.3165115771893L163.07421875,157.32744212416583L163.57291666666666,157.32854856002572L164.07161458333334,157.32764642037606L164.5703125,157.3271864252165L165.06901041666666,157.32361508818576L165.56770833333334,157.31630392399774L166.06640625000003,157.30406726058573L166.56510416666666,157.3104534536445L167.06380208333334,157.31988629642487L167.56250000000003,157.31642116821604L168.06119791666666,157.29996151158895L168.55989583333334,157.27040213082606L169.05859374999997,157.07430647934476L169.55729166666666,157.18921721959487L170.05598958333334,157.23364456246298L170.55468749999997,157.25589240699387L171.05338541666666,157.26936055424932L171.55208333333334,157.2881298128826L172.05078125,157.2277287108203L172.54947916666666,157.3030827521191L173.04817708333334,157.3130785454996L173.546875,157.31711503708115L174.04557291666666,157.31757470140775L174.54427083333334,157.3217225119782L175.04296875,157.3221898690293L175.54166666666666,157.3268585972449L176.04036458333334,157.3271111137874L176.5390625,157.32239137262027L177.03776041666666,157.31844134749068L177.53645833333334,157.31008344275565L178.03515625,157.316076602845L178.53385416666666,157.32798788518994L179.03255208333334,157.3288052460363L179.53125,157.32987621208304L180.02994791666669,157.32826181601072L180.52864583333334,157.3288503701042L181.02734375,157.32767782374867L181.52604166666669,157.3189710728475L182.02473958333331,157.3035590966077L182.5234375,157.29778211695762L183.02213541666669,157.32262975206444L183.52083333333331,157.32686252030544L184.01953125,157.3275653932069L184.51822916666669,157.32919197400528L185.01692708333331,157.32992611119212L185.515625,157.32896748239L186.01432291666669,157.32904890621526L186.51302083333331,157.32845288634417L187.01171875,157.32517313447897L187.51041666666669,157.3179500697297L188.00911458333331,157.30581192012565L188.5078125,157.30544769709618L189.00651041666669,157.3232579191099L189.50520833333331,157.32860933827274L190.00390625,157.3282852336027L190.50260416666669,157.32853770635847L191.00130208333331,157.3298392498012L191.5,157.32998759031275L191.99869791666669,157.32935967997764L192.49739583333331,157.32831796374134L192.99609375,157.32291835629925L193.49479166666666,157.30735758994706L193.99348958333331,157.29080781511342L194.4921875,157.29849988249285L194.99088541666666,157.32400147072622L195.48958333333334,157.3258598309088L195.98828125,157.32528266479494L196.48697916666666,157.32540722454237L196.98567708333334,157.3278856217512L197.484375,157.32732755694693L197.98307291666666,157.32962433889043L198.48177083333334,157.32906588200908L198.98046875,157.3279310683526L199.47916666666666,157.32770131517705L199.97786458333334,157.32490512087438L200.4765625,157.3225067611978L200.97526041666666,157.3177720976334L201.47395833333334,157.3053326336279L201.97265625,157.29872423759662L202.47135416666666,157.2958392186556L202.97005208333334,157.3009233288079L203.46875000000003,157.30948382235752L203.96744791666666,157.31576539665306L204.46614583333334,157.32074652389082L204.96484375000003,157.31756918828856L205.46354166666666,157.3061047748197L205.96223958333334,157.30137336005765L206.46093749999997,157.31381218185805L206.95963541666666,157.32264770289962L207.45833333333334,157.32660005244543L207.95703124999997,157.32813733296157L208.45572916666666,157.32867279008497L208.95442708333334,157.32796754983912L209.453125,157.3271062526037L209.95182291666666,157.32463643873538L210.45052083333334,157.32216625282308L210.94921875,157.31805058341706L211.44791666666666,157.31175853121871L211.94661458333334,157.30582619516645L212.4453125,157.29799951426685L212.94401041666666,157.28732493411127L213.44270833333334,157.28408958941387L213.94140625,157.29796279066554L214.44010416666666,157.28740236046724L214.93880208333334,157.22618197867027L215.4375,157.1983462947731L215.93619791666666,157.16543639823794L216.43489583333334,157.15912715531886L216.93359375,157.2576558908137L217.43229166666669,157.26738637678017L217.93098958333334,157.26457210800922L218.4296875,157.3052964778229L218.92838541666669,157.321427628786L219.42708333333331,157.32122923662732L219.92578125,157.3084730807847L220.42447916666669,157.287736050707L220.92317708333331,157.2761344926742L221.421875,157.28451457580863L221.92057291666669,157.28962023703693L222.41927083333331,157.22255555509278L222.91796875,157.1613816730678L223.41666666666669,157.06880306762952L223.91536458333331,157.1575011331588L224.4140625,157.23422815635178L224.91276041666669,157.26983256700137L225.41145833333331,157.24414920667186L225.91015625,157.2621683285106L226.40885416666669,157.2367657755191L226.90755208333331,157.26579449566393L227.40625,157.1836398753027L227.90494791666669,157.2380864514659L228.40364583333331,157.26202723570168L228.90234375,157.2552696901063L229.40104166666669,157.27142768089348L229.89973958333331,157.312898416693L230.3984375,157.30878974171355L230.89713541666666,157.31386291949698L231.39583333333331,157.31394170123772L231.89453125,157.32172257150523L232.39322916666666,157.32523696348653L232.89192708333334,157.32236277789343L233.390625,157.3264703247211L233.88932291666666,157.32420097272066L234.38802083333334,157.3251812112673L234.88671875,157.32608618245771L235.38541666666666,157.32520815984267L235.88411458333334,157.32604241177128L236.3828125,157.32523168790308L236.88151041666666,157.3242976057033L237.38020833333334,157.3229971346057L237.87890625,157.32112207422807L238.37760416666666,157.31841013586381L238.87630208333334,157.316169634442L239.375,157.31474754274433L239.87369791666666,157.31331822194625L240.37239583333334,157.3129260830271L240.87109375000003,157.31439835715963L241.36979166666666,157.31569169073677L241.86848958333334,157.31704836336817L242.36718750000003,157.31922092727228L242.86588541666666,157.32008504803525L243.36458333333334,157.31950651394436L243.86328124999997,157.31952348258346L244.36197916666666,157.31863931036787L244.86067708333334,157.31614016283615L245.35937499999997,157.3146233819425L245.85807291666666,157.31283231878965L246.35677083333334,157.3116751567383L246.85546875,157.30760307027958L247.35416666666666,157.30246242318145L247.85286458333334,157.30791473551653L248.3515625,157.28981768363155L248.85026041666666,157.28456592932343L249.34895833333334,157.29602662807642L249.84765625,157.2839978490956L250.34635416666666,157.2989610498771L250.84505208333334,157.29435500362888L251.34375,157.29882508555116L251.84244791666666,157.30447777733207L252.34114583333334,157.31184888638867L252.83984375,157.3129169753908L253.33854166666666,157.31728615097623L253.83723958333334,157.3225311798742L254.3359375,157.32286094819818L254.83463541666669,157.32438258168986L255.33333333333334,157.32389713872303L255.83203125,157.32338401339558L256.3307291666667,157.32171725299364L256.8294270833333,157.32218582348042L257.328125,157.32160212084028L257.8268229166667,157.32012316708764L258.3255208333333,157.3200786660503L258.82421875,157.32056983162573L259.3229166666667,157.31708330688224L259.8216145833333,157.3196779197509L260.3203125,157.32110885350266L260.8190104166667,157.31671961272755L261.3177083333333,157.3066482360397L261.81640625,157.30231436342L262.3151041666667,157.28580002090894L262.8138020833333,157.29981159046292L263.3125,157.30649052374065L263.8111979166667,157.29955017062215L264.3098958333333,157.29319405245283L264.80859375,157.29686203505844L265.3072916666667,157.27787188991593L265.8059895833333,157.22247191503024L266.3046875,157.2663347813456L266.8033854166667,157.2814087619384L267.3020833333333,157.28897524788044L267.80078125,157.27790434130776L268.29947916666663,157.2817678839589L268.7981770833333,157.2930551163542L269.296875,157.31237971642986L269.79557291666663,157.31476619874593L270.2942708333333,157.3235723328932L270.79296875,157.32018158142455L271.29166666666663,157.3260122636178L271.7903645833333,157.3220154742788L272.2890625,157.32422900995397L272.78776041666663,157.32244523313906L273.2864583333333,157.32060040104747L273.78515625,157.31927953163782" style="fill: none;" fill="none"></path></g></g></g></g></g></g><g transform="translate(30, 177)" clip-path="url(#clip_1)"><clipPath id="clip_1"><rect width="299" height="23"></rect></clipPath><g><g><line x1="0" y1="0" x2="0" y2="5" style="visibility: inherit;" fill="rgb(0, 0, 0)" stroke="rgb(204, 204, 204)" stroke-width="1px"></line><line x1="24.934895833333332" y1="0" x2="24.934895833333332" y2="5" style="visibility: inherit;" fill="rgb(0, 0, 0)" stroke="rgb(204, 204, 204)" stroke-width="1px"></line><line x1="49.869791666666664" y1="0" x2="49.869791666666664" y2="5" style="visibility: inherit;" fill="rgb(0, 0, 0)" stroke="rgb(204, 204, 204)" stroke-width="1px"></line><line x1="74.8046875" y1="0" x2="74.8046875" y2="5" style="visibility: inherit;" fill="rgb(0, 0, 0)" stroke="rgb(204, 204, 204)" stroke-width="1px"></line><line x1="99.73958333333333" y1="0" x2="99.73958333333333" y2="5" style="visibility: inherit;" fill="rgb(0, 0, 0)" stroke="rgb(204, 204, 204)" stroke-width="1px"></line><line x1="124.67447916666667" y1="0" x2="124.67447916666667" y2="5" style="visibility: inherit;" fill="rgb(0, 0, 0)" stroke="rgb(204, 204, 204)" stroke-width="1px"></line><line x1="149.609375" y1="0" x2="149.609375" y2="5" style="visibility: inherit;" fill="rgb(0, 0, 0)" stroke="rgb(204, 204, 204)" stroke-width="1px"></line><line x1="174.54427083333334" y1="0" x2="174.54427083333334" y2="5" style="visibility: inherit;" fill="rgb(0, 0, 0)" stroke="rgb(204, 204, 204)" stroke-width="1px"></line><line x1="199.47916666666666" y1="0" x2="199.47916666666666" y2="5" style="visibility: inherit;" fill="rgb(0, 0, 0)" stroke="rgb(204, 204, 204)" stroke-width="1px"></line><line x1="224.4140625" y1="0" x2="224.4140625" y2="5" style="visibility: inherit;" fill="rgb(0, 0, 0)" stroke="rgb(204, 204, 204)" stroke-width="1px"></line><line x1="249.34895833333334" y1="0" x2="249.34895833333334" y2="5" style="visibility: inherit;" fill="rgb(0, 0, 0)" stroke="rgb(204, 204, 204)" stroke-width="1px"></line><line x1="274.28385416666663" y1="0" x2="274.28385416666663" y2="5" style="visibility: inherit;" fill="rgb(0, 0, 0)" stroke="rgb(204, 204, 204)" stroke-width="1px"></line><line x1="299.21875" y1="0" x2="299.21875" y2="5" style="visibility: inherit;" fill="rgb(0, 0, 0)" stroke="rgb(204, 204, 204)" stroke-width="1px"></line></g><g transform="translate(0, 8)"><text x="0" y="0" dx="0em" dy="0.95em" style="text-anchor: middle; visibility: hidden; font-family: Roboto, sans-serif; font-size: 12px; font-weight: 200;" fill="rgb(33, 33, 33)" stroke="none" stroke-width="1px">-50</text><text x="24.934895833333332" y="0" dx="0em" dy="0.95em" style="text-anchor: middle; visibility: inherit; font-family: Roboto, sans-serif; font-size: 12px; font-weight: 200;" fill="rgb(33, 33, 33)" stroke="none" stroke-width="1px">0</text><text x="49.869791666666664" y="0" dx="0em" dy="0.95em" style="text-anchor: middle; visibility: inherit; font-family: Roboto, sans-serif; font-size: 12px; font-weight: 200;" fill="rgb(33, 33, 33)" stroke="none" stroke-width="1px">50</text><text x="74.8046875" y="0" dx="0em" dy="0.95em" style="text-anchor: middle; visibility: inherit; font-family: Roboto, sans-serif; font-size: 12px; font-weight: 200;" fill="rgb(33, 33, 33)" stroke="none" stroke-width="1px">100</text><text x="99.73958333333333" y="0" dx="0em" dy="0.95em" style="text-anchor: middle; visibility: inherit; font-family: Roboto, sans-serif; font-size: 12px; font-weight: 200;" fill="rgb(33, 33, 33)" stroke="none" stroke-width="1px">150</text><text x="124.67447916666667" y="0" dx="0em" dy="0.95em" style="text-anchor: middle; visibility: inherit; font-family: Roboto, sans-serif; font-size: 12px; font-weight: 200;" fill="rgb(33, 33, 33)" stroke="none" stroke-width="1px">200</text><text x="149.609375" y="0" dx="0em" dy="0.95em" style="text-anchor: middle; visibility: inherit; font-family: Roboto, sans-serif; font-size: 12px; font-weight: 200;" fill="rgb(33, 33, 33)" stroke="none" stroke-width="1px">250</text><text x="174.54427083333334" y="0" dx="0em" dy="0.95em" style="text-anchor: middle; visibility: inherit; font-family: Roboto, sans-serif; font-size: 12px; font-weight: 200;" fill="rgb(33, 33, 33)" stroke="none" stroke-width="1px">300</text><text x="199.47916666666666" y="0" dx="0em" dy="0.95em" style="text-anchor: middle; visibility: inherit; font-family: Roboto, sans-serif; font-size: 12px; font-weight: 200;" fill="rgb(33, 33, 33)" stroke="none" stroke-width="1px">350</text><text x="224.4140625" y="0" dx="0em" dy="0.95em" style="text-anchor: middle; visibility: inherit; font-family: Roboto, sans-serif; font-size: 12px; font-weight: 200;" fill="rgb(33, 33, 33)" stroke="none" stroke-width="1px">400</text><text x="249.34895833333334" y="0" dx="0em" dy="0.95em" style="text-anchor: middle; visibility: inherit; font-family: Roboto, sans-serif; font-size: 12px; font-weight: 200;" fill="rgb(33, 33, 33)" stroke="none" stroke-width="1px">450</text><text x="274.28385416666663" y="0" dx="0em" dy="0.95em" style="text-anchor: middle; visibility: inherit; font-family: Roboto, sans-serif; font-size: 12px; font-weight: 200;" fill="rgb(33, 33, 33)" stroke="none" stroke-width="1px">500</text><text x="299.21875" y="0" dx="0em" dy="0.95em" style="text-anchor: middle; visibility: hidden; font-family: Roboto, sans-serif; font-size: 12px; font-weight: 200;" fill="rgb(33, 33, 33)" stroke="none" stroke-width="1px">550</text></g><line x1="0" y1="0" x2="299.21875" y2="0" fill="rgb(0, 0, 0)" stroke="rgb(204, 204, 204)" stroke-width="1px"></line></g></g></g></g></svg>