<svg viewBox="0 0 318 200" xmlns="http://www.w3.org/2000/svg"><g><g><g><g><g><line x1="72.34375" y1="177" x2="67.34375" y2="177" style="visibility: inherit;" fill="rgb(0, 0, 0)" stroke="rgb(204, 204, 204)" stroke-width="1px"></line><line x1="72.34375" y1="160.9090909090909" x2="67.34375" y2="160.9090909090909" style="visibility: inherit;" fill="rgb(0, 0, 0)" stroke="rgb(204, 204, 204)" stroke-width="1px"></line><line x1="72.34375" y1="144.8181818181818" x2="67.34375" y2="144.8181818181818" style="visibility: inherit;" fill="rgb(0, 0, 0)" stroke="rgb(204, 204, 204)" stroke-width="1px"></line><line x1="72.34375" y1="128.72727272727272" x2="67.34375" y2="128.72727272727272" style="visibility: inherit;" fill="rgb(0, 0, 0)" stroke="rgb(204, 204, 204)" stroke-width="1px"></line><line x1="72.34375" y1="112.63636363636364" x2="67.34375" y2="112.63636363636364" style="visibility: inherit;" fill="rgb(0, 0, 0)" stroke="rgb(204, 204, 204)" stroke-width="1px"></line><line x1="72.34375" y1="96.54545454545453" x2="67.34375" y2="96.54545454545453" style="visibility: inherit;" fill="rgb(0, 0, 0)" stroke="rgb(204, 204, 204)" stroke-width="1px"></line><line x1="72.34375" y1="80.45454545454547" x2="67.34375" y2="80.45454545454547" style="visibility: inherit;" fill="rgb(0, 0, 0)" stroke="rgb(204, 204, 204)" stroke-width="1px"></line><line x1="72.34375" y1="64.36363636363636" x2="67.34375" y2="64.36363636363636" style="visibility: inherit;" fill="rgb(0, 0, 0)" stroke="rgb(204, 204, 204)" stroke-width="1px"></line><line x1="72.34375" y1="48.272727272727266" x2="67.34375" y2="48.272727272727266" style="visibility: inherit;" fill="rgb(0, 0, 0)" stroke="rgb(204, 204, 204)" stroke-width="1px"></line><line x1="72.34375" y1="32.181818181818194" x2="67.34375" y2="32.181818181818194" style="visibility: inherit;" fill="rgb(0, 0, 0)" stroke="rgb(204, 204, 204)" stroke-width="1px"></line><line x1="72.34375" y1="16.090909090909097" x2="67.34375" y2="16.090909090909097" style="visibility: inherit;" fill="rgb(0, 0, 0)" stroke="rgb(204, 204, 204)" stroke-width="1px"></line><line x1="72.34375" y1="0" x2="67.34375" y2="0" style="visibility: inherit;" fill="rgb(0, 0, 0)" stroke="rgb(204, 204, 204)" stroke-width="1px"></line></g><g transform="translate(62.34375, 0)"><text x="0" y="177" dx="0em" dy="0.3em" style="text-anchor: end; visibility: hidden; font-family: Roboto, sans-serif; font-size: 12px; font-weight: 200;" fill="rgb(33, 33, 33)" stroke="none" stroke-width="1px">0</text><text x="0" y="160.9090909090909" dx="0em" dy="0.3em" style="text-anchor: end; visibility: inherit; font-family: Roboto, sans-serif; font-size: 12px; font-weight: 200;" fill="rgb(33, 33, 33)" stroke="none" stroke-width="1px">5e-5</text><text x="0" y="144.8181818181818" dx="0em" dy="0.3em" style="text-anchor: end; visibility: hidden; font-family: Roboto, sans-serif; font-size: 12px; font-weight: 200;" fill="rgb(33, 33, 33)" stroke="none" stroke-width="1px">1e-4</text><text x="0" y="128.72727272727272" dx="0em" dy="0.3em" style="text-anchor: end; visibility: inherit; font-family: Roboto, sans-serif; font-size: 12px; font-weight: 200;" fill="rgb(33, 33, 33)" stroke="none" stroke-width="1px">1.5e-4</text><text x="0" y="112.63636363636364" dx="0em" dy="0.3em" style="text-anchor: end; visibility: hidden; font-family: Roboto, sans-serif; font-size: 12px; font-weight: 200;" fill="rgb(33, 33, 33)" stroke="none" stroke-width="1px">2e-4</text><text x="0" y="96.54545454545453" dx="0em" dy="0.3em" style="text-anchor: end; visibility: inherit; font-family: Roboto, sans-serif; font-size: 12px; font-weight: 200;" fill="rgb(33, 33, 33)" stroke="none" stroke-width="1px">2.5e-4</text><text x="0" y="80.45454545454547" dx="0em" dy="0.3em" style="text-anchor: end; visibility: hidden; font-family: Roboto, sans-serif; font-size: 12px; font-weight: 200;" fill="rgb(33, 33, 33)" stroke="none" stroke-width="1px">3e-4</text><text x="0" y="64.36363636363636" dx="0em" dy="0.3em" style="text-anchor: end; visibility: inherit; font-family: Roboto, sans-serif; font-size: 12px; font-weight: 200;" fill="rgb(33, 33, 33)" stroke="none" stroke-width="1px">3.5e-4</text><text x="0" y="48.272727272727266" dx="0em" dy="0.3em" style="text-anchor: end; visibility: hidden; font-family: Roboto, sans-serif; font-size: 12px; font-weight: 200;" fill="rgb(33, 33, 33)" stroke="none" stroke-width="1px">4e-4</text><text x="0" y="32.181818181818194" dx="0em" dy="0.3em" style="text-anchor: end; visibility: inherit; font-family: Roboto, sans-serif; font-size: 12px; font-weight: 200;" fill="rgb(33, 33, 33)" stroke="none" stroke-width="1px">4.5e-4</text><text x="0" y="16.090909090909097" dx="0em" dy="0.3em" style="text-anchor: end; visibility: hidden; font-family: Roboto, sans-serif; font-size: 12px; font-weight: 200;" fill="rgb(33, 33, 33)" stroke="none" stroke-width="1px">5e-4</text><text x="0" y="0" dx="0em" dy="0.3em" style="text-anchor: end; visibility: hidden; font-family: Roboto, sans-serif; font-size: 12px; font-weight: 200;" fill="rgb(33, 33, 33)" stroke="none" stroke-width="1px">5.5e-4</text></g><line x1="72.34375" y1="0" x2="72.34375" y2="177" fill="rgb(0, 0, 0)" stroke="rgb(204, 204, 204)" stroke-width="1px"></line></g></g><g transform="translate(72, 0)" clip-path="url(#clip_0)"><clipPath id="clip_0"><rect width="245" height="177"></rect></clipPath><g><g><g><line x1="0" y1="0" x2="0" y2="177" fill="rgb(0, 0, 0)" stroke="rgb(66, 66, 66)" stroke-width="1px" opacity="0.25"></line><line x1="20.471354166666664" y1="0" x2="20.471354166666664" y2="177" fill="rgb(0, 0, 0)" stroke="rgb(66, 66, 66)" stroke-width="1px" opacity="0.25"></line><line x1="40.94270833333333" y1="0" x2="40.94270833333333" y2="177" fill="rgb(0, 0, 0)" stroke="rgb(66, 66, 66)" stroke-width="1px" opacity="0.25"></line><line x1="61.4140625" y1="0" x2="61.4140625" y2="177" fill="rgb(0, 0, 0)" stroke="rgb(66, 66, 66)" stroke-width="1px" opacity="0.25"></line><line x1="81.88541666666666" y1="0" x2="81.88541666666666" y2="177" fill="rgb(0, 0, 0)" stroke="rgb(66, 66, 66)" stroke-width="1px" opacity="0.25"></line><line x1="102.35677083333334" y1="0" x2="102.35677083333334" y2="177" fill="rgb(0, 0, 0)" stroke="rgb(66, 66, 66)" stroke-width="1px" opacity="0.25"></line><line x1="122.828125" y1="0" x2="122.828125" y2="177" fill="rgb(0, 0, 0)" stroke="rgb(66, 66, 66)" stroke-width="1px" opacity="0.25"></line><line x1="143.29947916666669" y1="0" x2="143.29947916666669" y2="177" fill="rgb(0, 0, 0)" stroke="rgb(66, 66, 66)" stroke-width="1px" opacity="0.25"></line><line x1="163.77083333333331" y1="0" x2="163.77083333333331" y2="177" fill="rgb(0, 0, 0)" stroke="rgb(66, 66, 66)" stroke-width="1px" opacity="0.25"></line><line x1="184.2421875" y1="0" x2="184.2421875" y2="177" fill="rgb(0, 0, 0)" stroke="rgb(66, 66, 66)" stroke-width="1px" opacity="0.25"></line><line x1="204.71354166666669" y1="0" x2="204.71354166666669" y2="177" fill="rgb(0, 0, 0)" stroke="rgb(66, 66, 66)" stroke-width="1px" opacity="0.25"></line><line x1="225.18489583333331" y1="0" x2="225.18489583333331" y2="177" fill="rgb(0, 0, 0)" stroke="rgb(66, 66, 66)" stroke-width="1px" opacity="0.25"></line><line x1="245.65625" y1="0" x2="245.65625" y2="177" fill="rgb(0, 0, 0)" stroke="rgb(66, 66, 66)" stroke-width="1px" opacity="0.25"></line></g><g><line x1="0" y1="177" x2="245.65625" y2="177" fill="rgb(0, 0, 0)" stroke="rgb(66, 66, 66)" stroke-width="1px" opacity="0.25"></line><line x1="0" y1="160.9090909090909" x2="245.65625" y2="160.9090909090909" fill="rgb(0, 0, 0)" stroke="rgb(66, 66, 66)" stroke-width="1px" opacity="0.25"></line><line x1="0" y1="144.8181818181818" x2="245.65625" y2="144.8181818181818" fill="rgb(0, 0, 0)" stroke="rgb(66, 66, 66)" stroke-width="1px" opacity="0.25"></line><line x1="0" y1="128.72727272727272" x2="245.65625" y2="128.72727272727272" fill="rgb(0, 0, 0)" stroke="rgb(66, 66, 66)" stroke-width="1px" opacity="0.25"></line><line x1="0" y1="112.63636363636364" x2="245.65625" y2="112.63636363636364" fill="rgb(0, 0, 0)" stroke="rgb(66, 66, 66)" stroke-width="1px" opacity="0.25"></line><line x1="0" y1="96.54545454545453" x2="245.65625" y2="96.54545454545453" fill="rgb(0, 0, 0)" stroke="rgb(66, 66, 66)" stroke-width="1px" opacity="0.25"></line><line x1="0" y1="80.45454545454547" x2="245.65625" y2="80.45454545454547" fill="rgb(0, 0, 0)" stroke="rgb(66, 66, 66)" stroke-width="1px" opacity="0.25"></line><line x1="0" y1="64.36363636363636" x2="245.65625" y2="64.36363636363636" fill="rgb(0, 0, 0)" stroke="rgb(66, 66, 66)" stroke-width="1px" opacity="0.25"></line><line x1="0" y1="48.272727272727266" x2="245.65625" y2="48.272727272727266" fill="rgb(0, 0, 0)" stroke="rgb(66, 66, 66)" stroke-width="1px" opacity="0.25"></line><line x1="0" y1="32.181818181818194" x2="245.65625" y2="32.181818181818194" fill="rgb(0, 0, 0)" stroke="rgb(66, 66, 66)" stroke-width="1px" opacity="0.25"></line><line x1="0" y1="16.090909090909097" x2="245.65625" y2="16.090909090909097" fill="rgb(0, 0, 0)" stroke="rgb(66, 66, 66)" stroke-width="1px" opacity="0.25"></line><line x1="0" y1="0" x2="245.65625" y2="0" fill="rgb(0, 0, 0)" stroke="rgb(66, 66, 66)" stroke-width="1px" opacity="0.25"></line></g></g></g><g><g><line x1="0" y1="177" x2="245.65625" y2="177" fill="rgb(0, 0, 0)" stroke="rgb(153, 153, 153)" stroke-width="1.5px"></line></g></g><g><g><line x1="20.471354166666664" y1="0" x2="20.471354166666664" y2="177" fill="rgb(0, 0, 0)" stroke="rgb(153, 153, 153)" stroke-width="1.5px"></line></g></g><g><g><g><g><g><path stroke="rgb(187, 187, 187)" stroke-width="2px" d="M22.51848958333333,-237.52217063951224L23.54205729166667,23.308853064494386L24.565625,91.47125910781324L25.589192708333336,114.05142538105562L26.612760416666667,127.39508662144229L27.636328125000002,141.2941343137698L28.659895833333334,148.52243317528203L29.68346354166667,152.1679088380611L30.70703125,154.91089351680554L31.730598958333335,149.45886471567L32.75416666666666,39.6889144493775L33.777734375,91.42021363499491L34.80130208333333,137.37253308300436L35.82486979166667,143.59402087309653L36.848437499999996,131.44447246634147L37.872005208333334,125.05182780096814L38.895572916666666,112.60397714397617L39.919140625000004,27.982267473062343L40.94270833333333,113.70474700841375L41.96627604166667,139.7886394128754L42.98984375,138.30084651998584L44.01341145833334,138.96303274535404L45.03697916666666,148.00743586832488L46.060546875,154.50466521458955L47.08411458333334,153.30368231594647L48.10768229166666,63.9673308217898L49.13125,131.9439781747589L50.15481770833333,110.23504572882402L51.17838541666667,122.74006263230166L52.201953124999996,137.5086699540896L53.225520833333334,95.94524962514302L54.249088541666666,79.62376409108667L55.272656250000004,24.49463471499357L56.29622395833333,52.50552415830846L57.31979166666667,112.020503974308L58.343359375,109.21820117799903L59.36692708333334,122.47146978385916L60.39049479166666,123.74793910235167L61.4140625,135.85408949106932L62.43763020833333,142.8515433971347L63.46119791666667,150.05975890908897L64.48476562500001,135.97598982661623L65.50833333333333,75.97790909956463L66.53190104166666,109.59274382250047L67.55546875,105.16693742166868L68.57903645833333,55.05821927560664L69.60260416666667,-178.46268971467558L70.626171875,18.750885719772093L71.64973958333334,73.94841602944176L72.67330729166667,153.28248439551416L73.69687499999999,151.84489402268082L74.72044270833332,166.91989594122225L75.74401041666667,166.8824899124024L76.767578125,161.69095107628328L77.79114583333333,159.66191577634098L78.81471354166668,148.4687206935857L79.83828125000001,147.28534145845862L80.86184895833333,121.29328407436103L81.88541666666666,86.50766289395027L82.908984375,73.51914701839402L83.93255208333333,-25.95159235088662L84.95611979166667,121.67794683507897L85.9796875,97.89456852144478L87.00325520833334,106.20380210059442L88.02682291666667,115.17939452128485L89.05039062499999,47.40023695127192L90.07395833333332,-1.8919409525326671L91.09752604166667,34.78664773203096L92.12109375,142.72721723086119L93.14466145833333,155.49154981932688L94.16822916666668,159.9100986310302L95.19179687500001,163.06714521883987L96.21536458333333,164.11389703120486L97.23893229166666,162.89404721067032L98.2625,154.40733695205893L99.28606770833333,153.2111893241209L100.30963541666667,142.22354358934206L101.333203125,145.97489177751015L102.35677083333334,139.84216691327111L103.38033854166667,113.43882351038471L104.40390624999999,87.35242332145572L105.42747395833332,-21.657628445124054L106.45104166666667,112.81785299201412L107.474609375,116.58177288401535L108.49817708333333,-31.256331547586722L109.52174479166668,-148.2006106247956L110.54531250000001,107.7714507184838L111.56888020833333,132.258460434958L112.59244791666666,136.81482148636132L113.616015625,139.87815397160804L114.63958333333333,142.52145948622967L115.66315104166667,147.45979989872484L116.68671875,150.26866133583033L117.71028645833334,156.37805748237722L118.73385416666667,160.10345209161326L119.75742187499999,160.33012443088757L120.78098958333332,164.09622663392855L121.80455729166667,164.60198072969533L122.828125,142.68581654256295L123.85169270833333,94.92921992865476L124.87526041666666,82.69371375551617L125.898828125,77.12117783242668L126.92239583333334,119.74373552550308L127.94596354166667,159.4666902581653L128.96953125000002,155.5266494357281L129.99309895833335,154.37108998328702L131.01666666666665,156.95567447188395L132.04023437499998,141.68531590918164L133.06380208333331,125.86788100385192L134.08736979166665,74.85909536294639L135.1109375,32.24336558724332L136.13450520833334,66.16114348367873L137.15807291666667,120.14185743198983L138.181640625,152.62419448513538L139.20520833333333,146.58705578105184L140.22877604166666,139.31557432276367L141.25234375,137.5734883384271L142.27591145833335,140.3725246927828L143.29947916666669,145.11215772388758L144.32304687500002,124.7724404740994L145.34661458333335,57.57401179420678L146.37018229166665,122.54986439073797L147.39374999999998,61.05382382387127L148.41731770833331,80.44350755384023L149.44088541666665,133.1750544870103L150.464453125,148.45559170431542L151.48802083333334,131.85991705209017L152.51158854166667,142.4944007025651L153.53515625,143.67289081167175L154.55872395833333,153.29875806689432L155.58229166666666,153.4028931729792L156.605859375,64.40943144710566L157.62942708333335,74.41813740693033L158.65299479166669,57.75625818138096L159.67656250000002,71.11265737461774L160.70013020833335,108.2347047750584L161.72369791666665,80.39080427392302L162.74726562499998,106.76544747679411L163.77083333333331,152.44064854578622L164.79440104166665,157.7517052051315L165.81796875,164.4647936799606L166.84153645833334,160.07994775876233L167.86510416666667,159.99183929206762L168.888671875,160.87394135616805L169.91223958333333,159.8596315174681L170.93580729166666,154.6172532636503L171.959375,148.52314500205895L172.98294270833335,124.49794227325104L174.00651041666669,82.13180144427514L175.03007812500002,26.17834856208753L176.05364583333335,76.48172323321077L177.07721354166665,123.69090866492215L178.10078124999998,140.3280940576118L179.12434895833331,158.1660960999275L180.14791666666665,152.38836908378553L181.171484375,158.3708376181735L182.19505208333334,157.24737593368627L183.21861979166667,166.26149714944503L184.2421875,165.88206069585232L185.26575520833333,163.01709841089112L186.28932291666666,153.99612586240454L187.312890625,133.55178412562236L188.33645833333335,125.24552429649472L189.36002604166669,124.7498633892868L190.38359375000002,141.3984005458399L191.40716145833335,158.11079839873128L192.43072916666665,154.2810392129362L193.45429687499998,143.430431840391L194.47786458333331,104.64834351625971L195.50143229166665,140.6533403562763L196.525,121.7588843494569L197.54856770833334,83.81888710241765L198.57213541666667,122.94064324205235L199.595703125,129.62898168717086L200.61927083333333,156.46887627635576L201.64283854166666,157.987417042012L202.66640625,157.44927599866324L203.68997395833335,141.59723671168007L204.71354166666669,147.25784949073568L205.73710937500002,152.85021119448356L206.76067708333335,131.41904807442123L207.78424479166665,131.62119282985276L208.80781249999998,104.347765293565L209.83138020833331,3.4545337720350857L210.85494791666665,47.68467731164261L211.878515625,129.6609904767776L212.90208333333334,111.93552028667182L213.92565104166667,108.13989132160152L214.94921875,105.3953588879244L215.97278645833333,114.83132059351458L216.99635416666666,133.50187195596203L218.019921875,154.3435675756032L219.04348958333335,156.68295349644242L220.06705729166669,141.49338024831377L221.09062500000002,152.72321333626115L222.11419270833335,157.4322132298363L223.13776041666665,150.79043738791634L224.16132812499998,151.44562944689426" style="fill: none;" fill="none"></path></g></g></g></g></g><g><g opacity="0.929165"><span fill="rgb(0, 0, 0)" stroke="none" stroke-width="1px">Alt + Scroll to Zoom</span></g></g></g><g transform="translate(72, 177)" clip-path="url(#clip_1)"><clipPath id="clip_1"><rect width="245" height="23"></rect></clipPath><g><g><line x1="0" y1="0" x2="0" y2="5" style="visibility: inherit;" fill="rgb(0, 0, 0)" stroke="rgb(204, 204, 204)" stroke-width="1px"></line><line x1="20.471354166666664" y1="0" x2="20.471354166666664" y2="5" style="visibility: inherit;" fill="rgb(0, 0, 0)" stroke="rgb(204, 204, 204)" stroke-width="1px"></line><line x1="40.94270833333333" y1="0" x2="40.94270833333333" y2="5" style="visibility: inherit;" fill="rgb(0, 0, 0)" stroke="rgb(204, 204, 204)" stroke-width="1px"></line><line x1="61.4140625" y1="0" x2="61.4140625" y2="5" style="visibility: inherit;" fill="rgb(0, 0, 0)" stroke="rgb(204, 204, 204)" stroke-width="1px"></line><line x1="81.88541666666666" y1="0" x2="81.88541666666666" y2="5" style="visibility: inherit;" fill="rgb(0, 0, 0)" stroke="rgb(204, 204, 204)" stroke-width="1px"></line><line x1="102.35677083333334" y1="0" x2="102.35677083333334" y2="5" style="visibility: inherit;" fill="rgb(0, 0, 0)" stroke="rgb(204, 204, 204)" stroke-width="1px"></line><line x1="122.828125" y1="0" x2="122.828125" y2="5" style="visibility: inherit;" fill="rgb(0, 0, 0)" stroke="rgb(204, 204, 204)" stroke-width="1px"></line><line x1="143.29947916666669" y1="0" x2="143.29947916666669" y2="5" style="visibility: inherit;" fill="rgb(0, 0, 0)" stroke="rgb(204, 204, 204)" stroke-width="1px"></line><line x1="163.77083333333331" y1="0" x2="163.77083333333331" y2="5" style="visibility: inherit;" fill="rgb(0, 0, 0)" stroke="rgb(204, 204, 204)" stroke-width="1px"></line><line x1="184.2421875" y1="0" x2="184.2421875" y2="5" style="visibility: inherit;" fill="rgb(0, 0, 0)" stroke="rgb(204, 204, 204)" stroke-width="1px"></line><line x1="204.71354166666669" y1="0" x2="204.71354166666669" y2="5" style="visibility: inherit;" fill="rgb(0, 0, 0)" stroke="rgb(204, 204, 204)" stroke-width="1px"></line><line x1="225.18489583333331" y1="0" x2="225.18489583333331" y2="5" style="visibility: inherit;" fill="rgb(0, 0, 0)" stroke="rgb(204, 204, 204)" stroke-width="1px"></line><line x1="245.65625" y1="0" x2="245.65625" y2="5" style="visibility: inherit;" fill="rgb(0, 0, 0)" stroke="rgb(204, 204, 204)" stroke-width="1px"></line></g><g transform="translate(0, 8)"><text x="0" y="0" dx="0em" dy="0.95em" style="text-anchor: middle; visibility: hidden; font-family: Roboto, sans-serif; font-size: 12px; font-weight: 200;" fill="rgb(33, 33, 33)" stroke="none" stroke-width="1px">-20</text><text x="20.471354166666664" y="0" dx="0em" dy="0.95em" style="text-anchor: middle; visibility: inherit; font-family: Roboto, sans-serif; font-size: 12px; font-weight: 200;" fill="rgb(33, 33, 33)" stroke="none" stroke-width="1px">0</text><text x="40.94270833333333" y="0" dx="0em" dy="0.95em" style="text-anchor: middle; visibility: hidden; font-family: Roboto, sans-serif; font-size: 12px; font-weight: 200;" fill="rgb(33, 33, 33)" stroke="none" stroke-width="1px">20</text><text x="61.4140625" y="0" dx="0em" dy="0.95em" style="text-anchor: middle; visibility: inherit; font-family: Roboto, sans-serif; font-size: 12px; font-weight: 200;" fill="rgb(33, 33, 33)" stroke="none" stroke-width="1px">40</text><text x="81.88541666666666" y="0" dx="0em" dy="0.95em" style="text-anchor: middle; visibility: hidden; font-family: Roboto, sans-serif; font-size: 12px; font-weight: 200;" fill="rgb(33, 33, 33)" stroke="none" stroke-width="1px">60</text><text x="102.35677083333334" y="0" dx="0em" dy="0.95em" style="text-anchor: middle; visibility: inherit; font-family: Roboto, sans-serif; font-size: 12px; font-weight: 200;" fill="rgb(33, 33, 33)" stroke="none" stroke-width="1px">80</text><text x="122.828125" y="0" dx="0em" dy="0.95em" style="text-anchor: middle; visibility: hidden; font-family: Roboto, sans-serif; font-size: 12px; font-weight: 200;" fill="rgb(33, 33, 33)" stroke="none" stroke-width="1px">100</text><text x="143.29947916666669" y="0" dx="0em" dy="0.95em" style="text-anchor: middle; visibility: inherit; font-family: Roboto, sans-serif; font-size: 12px; font-weight: 200;" fill="rgb(33, 33, 33)" stroke="none" stroke-width="1px">120</text><text x="163.77083333333331" y="0" dx="0em" dy="0.95em" style="text-anchor: middle; visibility: hidden; font-family: Roboto, sans-serif; font-size: 12px; font-weight: 200;" fill="rgb(33, 33, 33)" stroke="none" stroke-width="1px">140</text><text x="184.2421875" y="0" dx="0em" dy="0.95em" style="text-anchor: middle; visibility: inherit; font-family: Roboto, sans-serif; font-size: 12px; font-weight: 200;" fill="rgb(33, 33, 33)" stroke="none" stroke-width="1px">160</text><text x="204.71354166666669" y="0" dx="0em" dy="0.95em" style="text-anchor: middle; visibility: hidden; font-family: Roboto, sans-serif; font-size: 12px; font-weight: 200;" fill="rgb(33, 33, 33)" stroke="none" stroke-width="1px">180</text><text x="225.18489583333331" y="0" dx="0em" dy="0.95em" style="text-anchor: middle; visibility: inherit; font-family: Roboto, sans-serif; font-size: 12px; font-weight: 200;" fill="rgb(33, 33, 33)" stroke="none" stroke-width="1px">200</text><text x="245.65625" y="0" dx="0em" dy="0.95em" style="text-anchor: middle; visibility: hidden; font-family: Roboto, sans-serif; font-size: 12px; font-weight: 200;" fill="rgb(33, 33, 33)" stroke="none" stroke-width="1px">220</text></g><line x1="0" y1="0" x2="245.65625" y2="0" fill="rgb(0, 0, 0)" stroke="rgb(204, 204, 204)" stroke-width="1px"></line></g></g></g></g></svg>