<svg viewBox="0 0 330 200" xmlns="http://www.w3.org/2000/svg"><g><g><g><g><g><line x1="72.34375" y1="177" x2="67.34375" y2="177" style="visibility: inherit;" fill="rgb(0, 0, 0)" stroke="rgb(204, 204, 204)" stroke-width="1px"></line><line x1="72.34375" y1="151.7142857142857" x2="67.34375" y2="151.7142857142857" style="visibility: inherit;" fill="rgb(0, 0, 0)" stroke="rgb(204, 204, 204)" stroke-width="1px"></line><line x1="72.34375" y1="126.42857142857142" x2="67.34375" y2="126.42857142857142" style="visibility: inherit;" fill="rgb(0, 0, 0)" stroke="rgb(204, 204, 204)" stroke-width="1px"></line><line x1="72.34375" y1="101.14285714285714" x2="67.34375" y2="101.14285714285714" style="visibility: inherit;" fill="rgb(0, 0, 0)" stroke="rgb(204, 204, 204)" stroke-width="1px"></line><line x1="72.34375" y1="75.85714285714285" x2="67.34375" y2="75.85714285714285" style="visibility: inherit;" fill="rgb(0, 0, 0)" stroke="rgb(204, 204, 204)" stroke-width="1px"></line><line x1="72.34375" y1="50.57142857142857" x2="67.34375" y2="50.57142857142857" style="visibility: inherit;" fill="rgb(0, 0, 0)" stroke="rgb(204, 204, 204)" stroke-width="1px"></line><line x1="72.34375" y1="25.285714285714295" x2="67.34375" y2="25.285714285714295" style="visibility: inherit;" fill="rgb(0, 0, 0)" stroke="rgb(204, 204, 204)" stroke-width="1px"></line><line x1="72.34375" y1="0" x2="67.34375" y2="0" style="visibility: inherit;" fill="rgb(0, 0, 0)" stroke="rgb(204, 204, 204)" stroke-width="1px"></line></g><g transform="translate(62.34375, 0)"><text x="0" y="177" dx="0em" dy="0.3em" style="text-anchor: end; visibility: hidden; font-family: Roboto, sans-serif; font-size: 12px; font-weight: 200;" fill="rgb(33, 33, 33)" stroke="none" stroke-width="1px">0</text><text x="0" y="151.7142857142857" dx="0em" dy="0.3em" style="text-anchor: end; visibility: inherit; font-family: Roboto, sans-serif; font-size: 12px; font-weight: 200;" fill="rgb(33, 33, 33)" stroke="none" stroke-width="1px">5e-5</text><text x="0" y="126.42857142857142" dx="0em" dy="0.3em" style="text-anchor: end; visibility: inherit; font-family: Roboto, sans-serif; font-size: 12px; font-weight: 200;" fill="rgb(33, 33, 33)" stroke="none" stroke-width="1px">1e-4</text><text x="0" y="101.14285714285714" dx="0em" dy="0.3em" style="text-anchor: end; visibility: inherit; font-family: Roboto, sans-serif; font-size: 12px; font-weight: 200;" fill="rgb(33, 33, 33)" stroke="none" stroke-width="1px">1.5e-4</text><text x="0" y="75.85714285714285" dx="0em" dy="0.3em" style="text-anchor: end; visibility: inherit; font-family: Roboto, sans-serif; font-size: 12px; font-weight: 200;" fill="rgb(33, 33, 33)" stroke="none" stroke-width="1px">2e-4</text><text x="0" y="50.57142857142857" dx="0em" dy="0.3em" style="text-anchor: end; visibility: inherit; font-family: Roboto, sans-serif; font-size: 12px; font-weight: 200;" fill="rgb(33, 33, 33)" stroke="none" stroke-width="1px">2.5e-4</text><text x="0" y="25.285714285714295" dx="0em" dy="0.3em" style="text-anchor: end; visibility: inherit; font-family: Roboto, sans-serif; font-size: 12px; font-weight: 200;" fill="rgb(33, 33, 33)" stroke="none" stroke-width="1px">3e-4</text><text x="0" y="0" dx="0em" dy="0.3em" style="text-anchor: end; visibility: hidden; font-family: Roboto, sans-serif; font-size: 12px; font-weight: 200;" fill="rgb(33, 33, 33)" stroke="none" stroke-width="1px">3.5e-4</text></g><line x1="72.34375" y1="0" x2="72.34375" y2="177" fill="rgb(0, 0, 0)" stroke="rgb(204, 204, 204)" stroke-width="1px"></line></g></g><g transform="translate(72, 0)" clip-path="url(#clip_0)"><clipPath id="clip_0"><rect width="257" height="177"></rect></clipPath><g><g><g><line x1="0" y1="0" x2="0" y2="177" fill="rgb(0, 0, 0)" stroke="rgb(66, 66, 66)" stroke-width="1px" opacity="0.25"></line><line x1="21.471354166666664" y1="0" x2="21.471354166666664" y2="177" fill="rgb(0, 0, 0)" stroke="rgb(66, 66, 66)" stroke-width="1px" opacity="0.25"></line><line x1="42.94270833333333" y1="0" x2="42.94270833333333" y2="177" fill="rgb(0, 0, 0)" stroke="rgb(66, 66, 66)" stroke-width="1px" opacity="0.25"></line><line x1="64.4140625" y1="0" x2="64.4140625" y2="177" fill="rgb(0, 0, 0)" stroke="rgb(66, 66, 66)" stroke-width="1px" opacity="0.25"></line><line x1="85.88541666666666" y1="0" x2="85.88541666666666" y2="177" fill="rgb(0, 0, 0)" stroke="rgb(66, 66, 66)" stroke-width="1px" opacity="0.25"></line><line x1="107.35677083333334" y1="0" x2="107.35677083333334" y2="177" fill="rgb(0, 0, 0)" stroke="rgb(66, 66, 66)" stroke-width="1px" opacity="0.25"></line><line x1="128.828125" y1="0" x2="128.828125" y2="177" fill="rgb(0, 0, 0)" stroke="rgb(66, 66, 66)" stroke-width="1px" opacity="0.25"></line><line x1="150.29947916666669" y1="0" x2="150.29947916666669" y2="177" fill="rgb(0, 0, 0)" stroke="rgb(66, 66, 66)" stroke-width="1px" opacity="0.25"></line><line x1="171.77083333333331" y1="0" x2="171.77083333333331" y2="177" fill="rgb(0, 0, 0)" stroke="rgb(66, 66, 66)" stroke-width="1px" opacity="0.25"></line><line x1="193.2421875" y1="0" x2="193.2421875" y2="177" fill="rgb(0, 0, 0)" stroke="rgb(66, 66, 66)" stroke-width="1px" opacity="0.25"></line><line x1="214.71354166666669" y1="0" x2="214.71354166666669" y2="177" fill="rgb(0, 0, 0)" stroke="rgb(66, 66, 66)" stroke-width="1px" opacity="0.25"></line><line x1="236.18489583333331" y1="0" x2="236.18489583333331" y2="177" fill="rgb(0, 0, 0)" stroke="rgb(66, 66, 66)" stroke-width="1px" opacity="0.25"></line><line x1="257.65625" y1="0" x2="257.65625" y2="177" fill="rgb(0, 0, 0)" stroke="rgb(66, 66, 66)" stroke-width="1px" opacity="0.25"></line></g><g><line x1="0" y1="177" x2="257.65625" y2="177" fill="rgb(0, 0, 0)" stroke="rgb(66, 66, 66)" stroke-width="1px" opacity="0.25"></line><line x1="0" y1="151.7142857142857" x2="257.65625" y2="151.7142857142857" fill="rgb(0, 0, 0)" stroke="rgb(66, 66, 66)" stroke-width="1px" opacity="0.25"></line><line x1="0" y1="126.42857142857142" x2="257.65625" y2="126.42857142857142" fill="rgb(0, 0, 0)" stroke="rgb(66, 66, 66)" stroke-width="1px" opacity="0.25"></line><line x1="0" y1="101.14285714285714" x2="257.65625" y2="101.14285714285714" fill="rgb(0, 0, 0)" stroke="rgb(66, 66, 66)" stroke-width="1px" opacity="0.25"></line><line x1="0" y1="75.85714285714285" x2="257.65625" y2="75.85714285714285" fill="rgb(0, 0, 0)" stroke="rgb(66, 66, 66)" stroke-width="1px" opacity="0.25"></line><line x1="0" y1="50.57142857142857" x2="257.65625" y2="50.57142857142857" fill="rgb(0, 0, 0)" stroke="rgb(66, 66, 66)" stroke-width="1px" opacity="0.25"></line><line x1="0" y1="25.285714285714295" x2="257.65625" y2="25.285714285714295" fill="rgb(0, 0, 0)" stroke="rgb(66, 66, 66)" stroke-width="1px" opacity="0.25"></line><line x1="0" y1="0" x2="257.65625" y2="0" fill="rgb(0, 0, 0)" stroke="rgb(66, 66, 66)" stroke-width="1px" opacity="0.25"></line></g></g></g><g><g><line x1="0" y1="177" x2="257.65625" y2="177" fill="rgb(0, 0, 0)" stroke="rgb(153, 153, 153)" stroke-width="1.5px"></line></g></g><g><g><line x1="21.471354166666664" y1="0" x2="21.471354166666664" y2="177" fill="rgb(0, 0, 0)" stroke="rgb(153, 153, 153)" stroke-width="1.5px"></line></g></g><g><g><g><g><g><path stroke="rgb(255, 112, 67)" stroke-width="2px" d="M23.618489583333332,-1.9955197766955466L24.692057291666668,90.89389266259968L25.765625,122.19802560846853L26.839192708333336,134.28833918942007L27.912760416666668,140.59518966138629L28.986328125,144.63244233859172L30.059895833333332,147.85982848407832L31.133463541666668,150.03693880634717L32.20703125,148.87390667802123L33.280598958333336,147.5567085246522L34.354166666666664,148.4874723784825L35.427734375,151.71870733923944L36.501302083333336,152.91540556251337L37.57486979166667,151.99023463335885L38.6484375,150.7689201824001L39.722005208333336,150.44584967192662L40.795572916666664,149.13863231341486L41.869140625,146.89313192898408L42.94270833333333,144.5711335813893L44.016276041666664,142.50835625384934L45.08984375,140.97384905971455L46.163411458333336,140.0155639689682L47.236979166666664,139.47955572990966L48.310546875,139.2344347673269L49.384114583333336,139.1889223427778L50.457682291666664,139.21895855602008L51.53125,139.1830240149783L52.604817708333336,139.11703118335987L53.67838541666667,139.138987092268L54.751953125,139.17536685955045L55.825520833333336,139.09393093262668L56.899088541666664,138.830816942633L57.97265625,138.38365525569367L59.04622395833333,137.83288095958L60.119791666666664,137.42353406664915L61.193359375,137.52866633233083L62.266927083333336,138.2259163820584L63.340494791666664,138.8820289989734L64.4140625,138.8165034709299L65.48763020833333,138.1470083099058L66.56119791666667,137.36356466772435L67.634765625,136.99784258726453L68.70833333333333,137.5666135903448L69.78190104166666,138.5717799003635L70.85546875,137.8705117758031L71.92903645833333,134.26605947960968L73.00260416666667,128.77312305064072L74.076171875,121.40451470187067L75.14973958333334,112.59069461688134L76.22330729166667,104.69191012484953L77.296875,100.71541427149037L78.37044270833333,100.73660115325558L79.44401041666667,101.6743947982655L80.517578125,101.25060564918178L81.59114583333333,99.24690358852968L82.66471354166667,96.53997220012492L83.73828125,94.03899290379402L84.81184895833333,92.17724074323529L85.88541666666666,90.94522982383413L86.958984375,90.15225613236959L88.03255208333333,89.63650752703792L89.10611979166667,89.34237856198368L90.1796875,89.32199382336279L91.25325520833334,89.69665354463672L92.32682291666667,90.64823080532784L93.400390625,92.45172088081017L94.47395833333333,95.5352327185683L95.54752604166667,100.53869992907026L96.62109375,108.2530503708071L97.69466145833333,119.06781652922342L98.76822916666667,131.4505480818251L99.841796875,140.19467738170977L100.91536458333333,140.76919953036122L101.98893229166666,136.75221752554978L103.0625,130.07287459062147L104.13606770833333,117.09914751846476L105.20963541666667,93.34396162615823L106.283203125,68.57620983730469L107.35677083333334,56.16056465889726L108.43033854166667,64.365215898691L109.50390625,85.31547279542845L110.57747395833333,112.68728295420962L111.65104166666667,101.29373004207653L112.724609375,50.039344092831016L113.79817708333333,-1.5443032193663033L114.87174479166667,88.69075868258784L115.9453125,93.99063618268286L117.01888020833333,57.12237844356734L118.09244791666666,119.11320016932274L119.166015625,113.90807122870216L120.23958333333333,124.24791713191995L121.31315104166667,123.25562558732261L122.38671875,123.1651489920249L123.46028645833334,79.77571769963417L124.53385416666667,-105.67542066584741L125.607421875,-26.920064793367455L126.68098958333333,99.63660533353686L127.75455729166667,149.5006086061642L128.828125,148.7200294981012L129.90169270833334,141.25949296930673L130.97526041666666,134.0795280825613L132.048828125,130.57332360332032L133.12239583333334,131.2274750170431L134.19596354166669,137.0737628601824L135.26953125,144.84299755485597L136.34309895833334,145.44645940914882L137.41666666666666,142.2146026034773L138.490234375,139.1398517878593L139.56380208333331,104.22391479349295L140.63736979166666,-59.82923097762144L141.7109375,100.22097765281796L142.78450520833334,105.12960063539711L143.85807291666666,111.07905218191445L144.931640625,121.02997640593509L146.00520833333334,127.91535974227423L147.07877604166666,130.40508695725086L148.15234375,131.5286724086119L149.22591145833334,135.808466679849L150.29947916666669,140.04802132986617L151.373046875,141.11021707379925L152.44661458333334,142.55299294414L153.52018229166666,138.82695708869556L154.59375,40.993318285793066L155.66731770833331,-98.13286132099373L156.74088541666666,84.0196068662751L157.814453125,110.81791411333585L158.88802083333334,151.77093127339947L159.96158854166666,162.17601477942662L161.03515625,157.2125250218004L162.10872395833334,149.96924234043607L163.18229166666666,138.41283413245608L164.255859375,126.89625159567888L165.32942708333334,119.1897754031566L166.40299479166669,116.70681489112654L167.4765625,120.73015884775668L168.55013020833334,134.28594747821L169.62369791666666,152.45137679220977L170.697265625,162.11909941173926L171.77083333333331,161.32260346557348L172.84440104166666,147.10111329603075L173.91796875,118.35829516121053L174.99153645833334,153.97028450992158L176.06510416666666,142.2467766385858L177.138671875,87.50803909144763L178.21223958333334,100.31379812510153L179.28580729166666,107.42096300216923L180.359375,107.85424540497894L181.43294270833334,150.37570262191417L182.50651041666669,163.29444609313006L183.580078125,128.24731821955982L184.65364583333334,78.64915548770556L185.72721354166666,146.96439940370954L186.80078125,166.61961551166107L187.87434895833331,169.18585632791346L188.94791666666666,167.148681348988L190.021484375,158.89771186194514L191.09505208333334,133.45100845389868L192.16861979166666,72.77881438890472L193.2421875,123.02898703305982L194.31575520833334,95.10706489819235L195.38932291666666,96.89494629836241L196.462890625,147.67615794159272L197.53645833333334,158.0919682723969L198.61002604166669,142.47250266303308L199.68359375,103.88305547095037L200.75716145833334,26.710813723504543L201.83072916666666,156.44464957981836L202.904296875,155.4202520718931L203.97786458333331,167.76872696085567L205.05143229166666,169.33137033765422L206.125,171.91134601547466L207.19856770833334,160.91968843601978L208.27213541666666,168.03371844414923L209.345703125,130.09559584711678L210.41927083333334,101.29696805109936L211.49283854166666,108.04327154079718L212.56640625,127.66659969909648L213.63997395833334,109.19403051105994L214.71354166666669,29.594805332565937L215.787109375,138.8128680698906L216.86067708333334,134.76558492382588L217.93424479166666,154.6271808722023L219.0078125,163.72588043908556L220.08138020833331,158.50877178496947L221.15494791666666,167.97118255511825L222.228515625,152.11304716421625L223.30208333333334,160.90892205601892L224.37565104166666,159.80839086094474L225.44921875,160.85509567534817L226.52278645833334,129.89636998287668L227.59635416666666,21.570327217557605L228.669921875,129.2776048563953L229.74348958333334,136.1182668726625L230.81705729166669,152.96747495533367L231.890625,152.767047716155L232.96419270833334,140.4385914500204L234.03776041666666,153.37586332400264L235.111328125,131.28916276848344" style="fill: none;" fill="none"></path></g></g></g></g></g></g><g transform="translate(72, 177)" clip-path="url(#clip_1)"><clipPath id="clip_1"><rect width="257" height="23"></rect></clipPath><g><g><line x1="0" y1="0" x2="0" y2="5" style="visibility: inherit;" fill="rgb(0, 0, 0)" stroke="rgb(204, 204, 204)" stroke-width="1px"></line><line x1="21.471354166666664" y1="0" x2="21.471354166666664" y2="5" style="visibility: inherit;" fill="rgb(0, 0, 0)" stroke="rgb(204, 204, 204)" stroke-width="1px"></line><line x1="42.94270833333333" y1="0" x2="42.94270833333333" y2="5" style="visibility: inherit;" fill="rgb(0, 0, 0)" stroke="rgb(204, 204, 204)" stroke-width="1px"></line><line x1="64.4140625" y1="0" x2="64.4140625" y2="5" style="visibility: inherit;" fill="rgb(0, 0, 0)" stroke="rgb(204, 204, 204)" stroke-width="1px"></line><line x1="85.88541666666666" y1="0" x2="85.88541666666666" y2="5" style="visibility: inherit;" fill="rgb(0, 0, 0)" stroke="rgb(204, 204, 204)" stroke-width="1px"></line><line x1="107.35677083333334" y1="0" x2="107.35677083333334" y2="5" style="visibility: inherit;" fill="rgb(0, 0, 0)" stroke="rgb(204, 204, 204)" stroke-width="1px"></line><line x1="128.828125" y1="0" x2="128.828125" y2="5" style="visibility: inherit;" fill="rgb(0, 0, 0)" stroke="rgb(204, 204, 204)" stroke-width="1px"></line><line x1="150.29947916666669" y1="0" x2="150.29947916666669" y2="5" style="visibility: inherit;" fill="rgb(0, 0, 0)" stroke="rgb(204, 204, 204)" stroke-width="1px"></line><line x1="171.77083333333331" y1="0" x2="171.77083333333331" y2="5" style="visibility: inherit;" fill="rgb(0, 0, 0)" stroke="rgb(204, 204, 204)" stroke-width="1px"></line><line x1="193.2421875" y1="0" x2="193.2421875" y2="5" style="visibility: inherit;" fill="rgb(0, 0, 0)" stroke="rgb(204, 204, 204)" stroke-width="1px"></line><line x1="214.71354166666669" y1="0" x2="214.71354166666669" y2="5" style="visibility: inherit;" fill="rgb(0, 0, 0)" stroke="rgb(204, 204, 204)" stroke-width="1px"></line><line x1="236.18489583333331" y1="0" x2="236.18489583333331" y2="5" style="visibility: inherit;" fill="rgb(0, 0, 0)" stroke="rgb(204, 204, 204)" stroke-width="1px"></line><line x1="257.65625" y1="0" x2="257.65625" y2="5" style="visibility: inherit;" fill="rgb(0, 0, 0)" stroke="rgb(204, 204, 204)" stroke-width="1px"></line></g><g transform="translate(0, 8)"><text x="0" y="0" dx="0em" dy="0.95em" style="text-anchor: middle; visibility: hidden; font-family: Roboto, sans-serif; font-size: 12px; font-weight: 200;" fill="rgb(33, 33, 33)" stroke="none" stroke-width="1px">-20</text><text x="21.471354166666664" y="0" dx="0em" dy="0.95em" style="text-anchor: middle; visibility: inherit; font-family: Roboto, sans-serif; font-size: 12px; font-weight: 200;" fill="rgb(33, 33, 33)" stroke="none" stroke-width="1px">0</text><text x="42.94270833333333" y="0" dx="0em" dy="0.95em" style="text-anchor: middle; visibility: hidden; font-family: Roboto, sans-serif; font-size: 12px; font-weight: 200;" fill="rgb(33, 33, 33)" stroke="none" stroke-width="1px">20</text><text x="64.4140625" y="0" dx="0em" dy="0.95em" style="text-anchor: middle; visibility: inherit; font-family: Roboto, sans-serif; font-size: 12px; font-weight: 200;" fill="rgb(33, 33, 33)" stroke="none" stroke-width="1px">40</text><text x="85.88541666666666" y="0" dx="0em" dy="0.95em" style="text-anchor: middle; visibility: hidden; font-family: Roboto, sans-serif; font-size: 12px; font-weight: 200;" fill="rgb(33, 33, 33)" stroke="none" stroke-width="1px">60</text><text x="107.35677083333334" y="0" dx="0em" dy="0.95em" style="text-anchor: middle; visibility: inherit; font-family: Roboto, sans-serif; font-size: 12px; font-weight: 200;" fill="rgb(33, 33, 33)" stroke="none" stroke-width="1px">80</text><text x="128.828125" y="0" dx="0em" dy="0.95em" style="text-anchor: middle; visibility: hidden; font-family: Roboto, sans-serif; font-size: 12px; font-weight: 200;" fill="rgb(33, 33, 33)" stroke="none" stroke-width="1px">100</text><text x="150.29947916666669" y="0" dx="0em" dy="0.95em" style="text-anchor: middle; visibility: inherit; font-family: Roboto, sans-serif; font-size: 12px; font-weight: 200;" fill="rgb(33, 33, 33)" stroke="none" stroke-width="1px">120</text><text x="171.77083333333331" y="0" dx="0em" dy="0.95em" style="text-anchor: middle; visibility: hidden; font-family: Roboto, sans-serif; font-size: 12px; font-weight: 200;" fill="rgb(33, 33, 33)" stroke="none" stroke-width="1px">140</text><text x="193.2421875" y="0" dx="0em" dy="0.95em" style="text-anchor: middle; visibility: inherit; font-family: Roboto, sans-serif; font-size: 12px; font-weight: 200;" fill="rgb(33, 33, 33)" stroke="none" stroke-width="1px">160</text><text x="214.71354166666669" y="0" dx="0em" dy="0.95em" style="text-anchor: middle; visibility: hidden; font-family: Roboto, sans-serif; font-size: 12px; font-weight: 200;" fill="rgb(33, 33, 33)" stroke="none" stroke-width="1px">180</text><text x="236.18489583333331" y="0" dx="0em" dy="0.95em" style="text-anchor: middle; visibility: inherit; font-family: Roboto, sans-serif; font-size: 12px; font-weight: 200;" fill="rgb(33, 33, 33)" stroke="none" stroke-width="1px">200</text><text x="257.65625" y="0" dx="0em" dy="0.95em" style="text-anchor: middle; visibility: hidden; font-family: Roboto, sans-serif; font-size: 12px; font-weight: 200;" fill="rgb(33, 33, 33)" stroke="none" stroke-width="1px">220</text></g><line x1="0" y1="0" x2="257.65625" y2="0" fill="rgb(0, 0, 0)" stroke="rgb(204, 204, 204)" stroke-width="1px"></line></g></g></g></g></svg>