<svg viewBox="0 0 330 200" xmlns="http://www.w3.org/2000/svg"><g><g><g><g><g><line x1="60" y1="177" x2="55" y2="177" style="visibility: inherit;" fill="rgb(0, 0, 0)" stroke="rgb(204, 204, 204)" stroke-width="1px"></line><line x1="60" y1="157.33333333333331" x2="55" y2="157.33333333333331" style="visibility: inherit;" fill="rgb(0, 0, 0)" stroke="rgb(204, 204, 204)" stroke-width="1px"></line><line x1="60" y1="137.66666666666666" x2="55" y2="137.66666666666666" style="visibility: inherit;" fill="rgb(0, 0, 0)" stroke="rgb(204, 204, 204)" stroke-width="1px"></line><line x1="60" y1="118.00000000000001" x2="55" y2="118.00000000000001" style="visibility: inherit;" fill="rgb(0, 0, 0)" stroke="rgb(204, 204, 204)" stroke-width="1px"></line><line x1="60" y1="98.33333333333334" x2="55" y2="98.33333333333334" style="visibility: inherit;" fill="rgb(0, 0, 0)" stroke="rgb(204, 204, 204)" stroke-width="1px"></line><line x1="60" y1="78.66666666666669" x2="55" y2="78.66666666666669" style="visibility: inherit;" fill="rgb(0, 0, 0)" stroke="rgb(204, 204, 204)" stroke-width="1px"></line><line x1="60" y1="59.00000000000001" x2="55" y2="59.00000000000001" style="visibility: inherit;" fill="rgb(0, 0, 0)" stroke="rgb(204, 204, 204)" stroke-width="1px"></line><line x1="60" y1="39.33333333333335" x2="55" y2="39.33333333333335" style="visibility: inherit;" fill="rgb(0, 0, 0)" stroke="rgb(204, 204, 204)" stroke-width="1px"></line><line x1="60" y1="19.666666666666675" x2="55" y2="19.666666666666675" style="visibility: inherit;" fill="rgb(0, 0, 0)" stroke="rgb(204, 204, 204)" stroke-width="1px"></line><line x1="60" y1="0" x2="55" y2="0" style="visibility: inherit;" fill="rgb(0, 0, 0)" stroke="rgb(204, 204, 204)" stroke-width="1px"></line></g><g transform="translate(50, 0)"><text x="0" y="177" dx="0em" dy="0.3em" style="text-anchor: end; visibility: hidden; font-family: Roboto, sans-serif; font-size: 12px; font-weight: 200;" fill="rgb(33, 33, 33)" stroke="none" stroke-width="1px">-2e-3</text><text x="0" y="157.33333333333331" dx="0em" dy="0.3em" style="text-anchor: end; visibility: inherit; font-family: Roboto, sans-serif; font-size: 12px; font-weight: 200;" fill="rgb(33, 33, 33)" stroke="none" stroke-width="1px">0</text><text x="0" y="137.66666666666666" dx="0em" dy="0.3em" style="text-anchor: end; visibility: hidden; font-family: Roboto, sans-serif; font-size: 12px; font-weight: 200;" fill="rgb(33, 33, 33)" stroke="none" stroke-width="1px">2e-3</text><text x="0" y="118.00000000000001" dx="0em" dy="0.3em" style="text-anchor: end; visibility: inherit; font-family: Roboto, sans-serif; font-size: 12px; font-weight: 200;" fill="rgb(33, 33, 33)" stroke="none" stroke-width="1px">4e-3</text><text x="0" y="98.33333333333334" dx="0em" dy="0.3em" style="text-anchor: end; visibility: hidden; font-family: Roboto, sans-serif; font-size: 12px; font-weight: 200;" fill="rgb(33, 33, 33)" stroke="none" stroke-width="1px">6e-3</text><text x="0" y="78.66666666666669" dx="0em" dy="0.3em" style="text-anchor: end; visibility: inherit; font-family: Roboto, sans-serif; font-size: 12px; font-weight: 200;" fill="rgb(33, 33, 33)" stroke="none" stroke-width="1px">8e-3</text><text x="0" y="59.00000000000001" dx="0em" dy="0.3em" style="text-anchor: end; visibility: hidden; font-family: Roboto, sans-serif; font-size: 12px; font-weight: 200;" fill="rgb(33, 33, 33)" stroke="none" stroke-width="1px">0.01</text><text x="0" y="39.33333333333335" dx="0em" dy="0.3em" style="text-anchor: end; visibility: inherit; font-family: Roboto, sans-serif; font-size: 12px; font-weight: 200;" fill="rgb(33, 33, 33)" stroke="none" stroke-width="1px">0.012</text><text x="0" y="19.666666666666675" dx="0em" dy="0.3em" style="text-anchor: end; visibility: hidden; font-family: Roboto, sans-serif; font-size: 12px; font-weight: 200;" fill="rgb(33, 33, 33)" stroke="none" stroke-width="1px">0.014</text><text x="0" y="0" dx="0em" dy="0.3em" style="text-anchor: end; visibility: hidden; font-family: Roboto, sans-serif; font-size: 12px; font-weight: 200;" fill="rgb(33, 33, 33)" stroke="none" stroke-width="1px">0.016</text></g><line x1="60" y1="0" x2="60" y2="177" fill="rgb(0, 0, 0)" stroke="rgb(204, 204, 204)" stroke-width="1px"></line></g></g><g transform="translate(60, 0)" clip-path="url(#clip_0)"><clipPath id="clip_0"><rect width="270" height="177"></rect></clipPath><g><g><g><line x1="0" y1="0" x2="0" y2="177" fill="rgb(0, 0, 0)" stroke="rgb(66, 66, 66)" stroke-width="1px" opacity="0.25"></line><line x1="27" y1="0" x2="27" y2="177" fill="rgb(0, 0, 0)" stroke="rgb(66, 66, 66)" stroke-width="1px" opacity="0.25"></line><line x1="54" y1="0" x2="54" y2="177" fill="rgb(0, 0, 0)" stroke="rgb(66, 66, 66)" stroke-width="1px" opacity="0.25"></line><line x1="81" y1="0" x2="81" y2="177" fill="rgb(0, 0, 0)" stroke="rgb(66, 66, 66)" stroke-width="1px" opacity="0.25"></line><line x1="108" y1="0" x2="108" y2="177" fill="rgb(0, 0, 0)" stroke="rgb(66, 66, 66)" stroke-width="1px" opacity="0.25"></line><line x1="135" y1="0" x2="135" y2="177" fill="rgb(0, 0, 0)" stroke="rgb(66, 66, 66)" stroke-width="1px" opacity="0.25"></line><line x1="162" y1="0" x2="162" y2="177" fill="rgb(0, 0, 0)" stroke="rgb(66, 66, 66)" stroke-width="1px" opacity="0.25"></line><line x1="189" y1="0" x2="189" y2="177" fill="rgb(0, 0, 0)" stroke="rgb(66, 66, 66)" stroke-width="1px" opacity="0.25"></line><line x1="216" y1="0" x2="216" y2="177" fill="rgb(0, 0, 0)" stroke="rgb(66, 66, 66)" stroke-width="1px" opacity="0.25"></line><line x1="243" y1="0" x2="243" y2="177" fill="rgb(0, 0, 0)" stroke="rgb(66, 66, 66)" stroke-width="1px" opacity="0.25"></line><line x1="270" y1="0" x2="270" y2="177" fill="rgb(0, 0, 0)" stroke="rgb(66, 66, 66)" stroke-width="1px" opacity="0.25"></line></g><g><line x1="0" y1="177" x2="270" y2="177" fill="rgb(0, 0, 0)" stroke="rgb(66, 66, 66)" stroke-width="1px" opacity="0.25"></line><line x1="0" y1="157.33333333333331" x2="270" y2="157.33333333333331" fill="rgb(0, 0, 0)" stroke="rgb(66, 66, 66)" stroke-width="1px" opacity="0.25"></line><line x1="0" y1="137.66666666666666" x2="270" y2="137.66666666666666" fill="rgb(0, 0, 0)" stroke="rgb(66, 66, 66)" stroke-width="1px" opacity="0.25"></line><line x1="0" y1="118.00000000000001" x2="270" y2="118.00000000000001" fill="rgb(0, 0, 0)" stroke="rgb(66, 66, 66)" stroke-width="1px" opacity="0.25"></line><line x1="0" y1="98.33333333333334" x2="270" y2="98.33333333333334" fill="rgb(0, 0, 0)" stroke="rgb(66, 66, 66)" stroke-width="1px" opacity="0.25"></line><line x1="0" y1="78.66666666666669" x2="270" y2="78.66666666666669" fill="rgb(0, 0, 0)" stroke="rgb(66, 66, 66)" stroke-width="1px" opacity="0.25"></line><line x1="0" y1="59.00000000000001" x2="270" y2="59.00000000000001" fill="rgb(0, 0, 0)" stroke="rgb(66, 66, 66)" stroke-width="1px" opacity="0.25"></line><line x1="0" y1="39.33333333333335" x2="270" y2="39.33333333333335" fill="rgb(0, 0, 0)" stroke="rgb(66, 66, 66)" stroke-width="1px" opacity="0.25"></line><line x1="0" y1="19.666666666666675" x2="270" y2="19.666666666666675" fill="rgb(0, 0, 0)" stroke="rgb(66, 66, 66)" stroke-width="1px" opacity="0.25"></line><line x1="0" y1="0" x2="270" y2="0" fill="rgb(0, 0, 0)" stroke="rgb(66, 66, 66)" stroke-width="1px" opacity="0.25"></line></g></g></g><g><g><line x1="0" y1="157.33333333333331" x2="270" y2="157.33333333333331" fill="rgb(0, 0, 0)" stroke="rgb(153, 153, 153)" stroke-width="1.5px"></line></g></g><g><g><line x1="27" y1="0" x2="27" y2="177" fill="rgb(0, 0, 0)" stroke="rgb(153, 153, 153)" stroke-width="1.5px"></line></g></g><g><g><g><g><g><path stroke="rgb(51, 187, 238)" stroke-width="2px" d="M37.260000000000005,-1.037840548702885L37.800000000000004,6.66958943045746L38.339999999999996,14.53598902561344L38.879999999999995,22.36423019933472L39.419999999999995,29.95819246666641L39.96,37.27905241683357L40.5,44.46650612952058L41.04,51.458275920237135L41.58,58.082385720769885L42.12,64.39141223648909L42.660000000000004,70.32878987612736L43.2,75.89815062446274L43.74,81.05787074053853L44.28,85.9058286927069L44.82,90.45432040403242L45.36,94.79074055145217L45.900000000000006,98.98841899357642L46.44,103.10816956385894L46.98,107.18311956840851L47.519999999999996,111.12954087332807L48.059999999999995,114.9555221011776L48.6,118.68588453918109L49.14,122.27678792347605L49.68,125.70023111702561L50.22,128.51472834095378L50.76,130.9444146222863L51.3,132.33018952109578L51.84,134.3239967374147L52.38,135.31769866313627L52.92,136.99931653494073L53.46,138.3842297868807L54,139.1212752147181L54.540000000000006,138.65192744336372L55.08,139.18318241669436L55.62,135.26784978061724L56.16,133.90792815473972L56.699999999999996,131.87017730004888L57.239999999999995,132.07749345366045L57.78,134.08663086149454L58.32,134.75699457110983L58.86,133.88477195575047L59.4,135.14854619691303L59.94,136.76699012802263L60.480000000000004,137.59616967871023L61.02,137.88806370534542L61.56,138.59068153787726L62.1,139.71836787406053L62.64,140.15142801916667L63.18000000000001,140.39955788593383L63.72,141.42147440557216L64.25999999999999,141.45165454658837L64.8,141.0559435081386L65.34,141.89023749419968L65.88,141.62083077799133L66.42,141.40012127717347L66.96,142.48960289401072L67.5,142.21034892015513L68.04,141.6699036227436L68.58,142.61937120321522L69.12,141.82486749516553L69.66,140.95767296051957L70.2,142.1634671556958L70.74000000000001,142.06875374076816L71.28,141.41521753936837L71.82000000000001,142.66798667483675L72.36,143.30801619240532L72.9,143.35475876202767L73.44000000000001,144.361803772299L73.98,144.8448905157289L74.52000000000001,144.81546152761524L75.06,145.38512716334134L75.60000000000001,145.37273015743386L76.13999999999999,144.97942260515725L76.67999999999999,145.45986882974427L77.22,145.31002262703163L77.75999999999999,144.75384742799352L78.3,145.38501784336836L78.83999999999999,145.0490119574404L79.38,144.10855154651023L79.92,144.81457718057752L80.46,144.12012053957574L81,142.92697408456203L81.53999999999999,143.90455158596393L82.08,143.950992817825L82.62,143.360384489062L83.16,144.4888232699062L83.7,145.20032247000586L84.24,145.3272680103152L84.78,146.03351663202014L85.32000000000001,146.33115182962246L85.86,146.35071013855674L86.4,146.76100929961993L86.94,146.8781264010254L87.48,146.77067091588282L88.02000000000001,147.02377435417932L88.56,147.043005605153L89.10000000000001,146.75930400132344L89.64,146.82661101763222L90.18,146.7651417238823L90.72,146.41361077464987L91.26,146.13436707484146L91.80000000000001,145.91057559160095L92.34,145.91243445069466L92.88,144.7078837133524L93.41999999999999,143.59752741679512L93.96,144.45966841960924L94.5,143.86728942243744L95.03999999999999,142.95841445720785L95.58,144.3385614696811L96.11999999999999,145.37712353436424L96.66,146.0962691798157L97.2,146.87050819518495L97.74,147.16934253509737L98.28,147.51121330203154L98.82,147.742006108996L99.36,147.75938777836865L99.9,148.01657557005805L100.44,148.25451457062437L100.98,148.2643985191156L101.52,148.46811799224483L102.06,148.54776769879967L102.6,148.34375839549037L103.14,148.40218220749264L103.68,148.22789502485227L104.22,147.7481222137802L104.76,147.84576476095822L105.3,147.3431289495252L105.84,146.54586676167781L106.38000000000001,146.93269643268883L106.92,145.63410645269246L107.46000000000001,143.93468877909814L108,144.76698969986728L108.54,144.93269970230276L109.08000000000001,144.51534679012704L109.62,145.78781242058997L110.16,146.9418012799439L110.69999999999999,147.83453992782486L111.24,148.41365639674362L111.78,148.76308357278126L112.32,149.05862777336955L112.86,149.04867262708854L113.39999999999999,148.59384143001714L113.94,148.40277589988585L114.47999999999999,148.04700309650724L115.02,147.6926348025722L115.56,148.30851979333397L116.1,148.77166346024168L116.64,148.90283589675565L117.17999999999999,149.3601411433267L117.72,149.44635704552118L118.26,149.1679276739507L118.8,149.44818618116597L119.34,149.07290479208098L119.88,148.30440501122715L120.42,148.59035431574458L120.96000000000001,147.93124839987263L121.5,146.44912249764346L122.04,146.46832932596232L122.58,144.20136276348327L123.12,144.20700132837732L123.66000000000001,146.19219078388193L124.2,147.29471975860324L124.74000000000001,147.08025149774696L125.28,146.50933046447275L125.82000000000001,147.61093758757383L126.36000000000001,148.73297011027643L126.89999999999999,149.30800115409065L127.44,149.62442459562712L127.97999999999999,149.9537843871447L128.51999999999998,150.1206408116966L129.06,150.1773301526159L129.6,150.34186914374925L130.14,150.2879501111065L130.68,150.17780212320292L131.22,150.18359428524417L131.76,149.14930502545252L132.3,147.49667097617288L132.84,145.8114142285631L133.38,144.62858558602457L133.92,144.83019967800027L134.46,145.31160066424943L135,145.40860806072237L135.54,145.36901782302746L136.08,146.80866714004887L136.62,147.50084830287747L137.16,147.7768749582588L137.7,148.2669100845423L138.24,149.10120379183962L138.78,149.68605129429514L139.32,149.97880417250383L139.86,150.33136246183935L140.4,150.37592227189643L140.94,149.9194740130985L141.48000000000002,149.60707046094691L142.02,149.4279428826833L142.56,149.11953443321596L143.1,149.48238168443672L143.64000000000001,150.00791600734004L144.18,149.9973911086992L144.72,149.97540819611802L145.26000000000002,150.0633626645927L145.8,149.26298472834623L146.34,148.6948708790719L146.88000000000002,148.56136087329764L147.42000000000002,147.59722529017375L147.96,147.56755664073495L148.5,148.48114954738037L149.04000000000002,148.71823372211236L149.58,148.3993347008125L150.12,149.07313373432385L150.66000000000003,149.63326340206584L151.20000000000002,149.77008429937433L151.74,150.052437687429L152.27999999999997,150.24495582557702L152.82,149.67885972563118L153.35999999999999,148.09501973200307L153.89999999999998,147.8143348897008L154.44,148.97912396126287L154.98,149.6037731448062L155.51999999999998,149.72936508805043L156.06,149.73374159168742L156.6,149.82181259927825L157.14,149.64160342927505L157.67999999999998,149.9046853094927L158.22,149.89769194456724L158.76,149.63084295941812L159.29999999999998,149.86178131116733L159.84,149.50688375066824L160.38,148.70904882823342L160.92,149.09254728820744L161.45999999999998,148.6229889528773L162,147.63519761309954L162.54,148.47700391437917L163.07999999999998,148.72542360653017L163.62,148.34277491222045L164.16,149.15467710291477L164.7,149.75981771319067L165.24,149.85296872788544L165.78,150.34965885922634L166.32,150.8405918148378L166.85999999999999,150.98581199549952L167.4,151.1142570106324L167.94,151.0704321678735L168.48,149.91835786350111L169.02,147.57606229229296L169.56,148.15111916798963L170.1,149.36802218675658L170.64000000000001,149.66243159983458L171.18,149.28725660039947L171.72,149.5957507937911L172.26,150.10484242723462L172.8,150.37784464175897L173.34,150.7192215251723L173.88,150.87068533193857L174.42000000000002,150.7762664891166L174.96,150.82405765506172L175.5,150.49477820875398L176.04000000000002,149.69454716661863L176.58,149.4438030664717L177.12,148.5446976849692L177.66,147.35498082023653L178.20000000000002,148.42586323548431L178.74,148.81552252866896L179.28,148.55394671522174L179.82000000000002,149.39813422080184L180.36,149.89613000815518L180.9,149.88311594448234L181.44,150.20818703359538L181.98000000000002,149.9553196602608L182.52,149.40424151939672L183.06,148.93268979402023L183.60000000000002,148.93556568088118L184.14000000000001,149.7451902944564L184.68,150.57695496138L185.22000000000003,151.17509880006202L185.76,151.36915703407362L186.29999999999998,151.6890434732026L186.83999999999997,151.935604212097L187.38,151.9440946848226L187.92,151.9483354423624L188.45999999999998,151.57405499420528L189,150.3204302866005L189.54,148.4978256737561L190.07999999999998,148.80421054684595L190.61999999999998,149.8715032540295L191.16,150.37585777276706L191.7,150.36815399229275L192.23999999999998,150.19000148920813L192.78,150.6814848967682L193.32,150.97464407829938L193.85999999999999,150.9698521423126L194.4,151.3369223898074L194.94,151.45460266305778L195.48,151.12530546142673L196.01999999999998,151.21628879053426L196.56,151.0162976876914L197.1,150.24890645886327L197.64,150.30385243674164L198.18,150.43647537677762L198.72,150.23963398211515L199.26,150.62953354511026L199.8,150.9940934548442L200.34,151.00346068577704L200.88,151.18501958558502L201.42,151.42178946113933L201.96,151.31929349403393L202.5,151.13720444450638L203.04,151.24297067687826L203.58,150.84048644542867L204.12,150.21950396377946L204.66,150.53514384021946L205.2,150.59628226492532L205.74,150.4714407720192L206.28,151.00017915719516L206.82,151.30835942623898L207.36,151.2997619116677L207.9,151.4427574918418L208.44,151.62294319544728L208.98000000000002,151.4966953088437L209.52,151.1000926552968L210.06,151.22330516371295L210.6,150.85028537726922L211.14000000000001,150.11826442419155L211.68,150.4869390283967L212.22,150.7663044510873L212.76000000000002,150.81218656897224L213.3,151.01041533505972L213.84,151.4320805342732L214.38000000000002,151.63491942707878L214.92000000000002,151.52912921058146L215.46,151.91369354851003L216,151.96477841621189L216.54000000000002,151.6872166678876L217.08,151.5579907062555L217.62,151.16490002956792L218.16000000000003,150.2230014193327L218.70000000000002,149.53816391839584L219.24,150.18984462715957L219.77999999999997,150.77221529727095L220.32,151.14524703704515L220.85999999999999,151.6939783725507L221.39999999999998,152.09851429357084L221.94,152.34563706906323L222.48,152.49948601352062L223.01999999999998,152.65375226251663L223.56,152.5226190319402L224.1,151.7320181973597L224.64,149.74753970975107L225.17999999999998,147.94301533159768L225.72,148.74674333820658L226.26,150.0775512989444L226.79999999999998,150.84115346208458L227.34,151.02354066165682L227.88,151.25773340363492L228.42,151.44796236488486L228.95999999999998,151.5794969753855L229.5,151.66327858195802L230.04,151.77317875277288L230.57999999999998,151.901791664649L231.12,151.92348319191572L231.66,151.78455123145685L232.2,151.6143810332798L232.74,151.4516748983875L233.28,151.2008343542458L233.82,150.90948540078773L234.35999999999999,150.8285068906402L234.9,151.00926096430504L235.44,151.32206788655023L235.98,151.63957706802253L236.52,151.94459931229326L237.06,152.2470923462745L237.6,152.5204216676309L238.14000000000001,152.73094341563123L238.68,152.86254280852563L239.22,152.81236953238894L239.76,152.0793577503552L240.3,149.81286517707844L240.84,147.30416471952702L241.38,147.75494098412943L241.92000000000002,149.3509252139245L242.46,150.22985008877902L243,150.55898777290864L243.54000000000002,150.64555892574225L244.08,151.34151865165268L244.62,151.9084403760328L245.16,152.35945186634922L245.70000000000002,152.4919246741897L246.24,152.43607204316902L246.78,151.76853664574833L247.32000000000002,150.37389424041842L247.86,149.83627358586278L248.4,150.42673394667767L248.94,151.20810060963132L249.48000000000002,151.78244097626762L250.02,152.2128246833272L250.56,152.50302561859982L251.10000000000002,152.71854288224796L251.64000000000001,152.8470583255753L252.18,152.71968902255338L252.72000000000003,152.10775079032427L253.26,150.89251946870624L253.79999999999998,149.57414957673333L254.33999999999997,149.28472647452318L254.88,150.1021949912335L255.42,151.03663902777038L255.95999999999998,151.68259074790836L256.5,152.03623411769306L257.03999999999996,152.09462517727198L257.58,152.1168056367563L258.12,152.1650017916025L258.65999999999997,152.18931415258638" style="fill: none;" fill="none"></path></g></g></g></g><g opacity="0.2"><g><g><g><path stroke="rgb(51, 187, 238)" stroke-width="2px" d="M36.18,-4.760100528597845L36.720000000000006,2.5329685856898667L37.260000000000005,10.17781500021617L37.800000000000004,18.23031170542041L38.339999999999996,26.335329571117974L38.879999999999995,34.10643740495047L39.419999999999995,41.34904590994122L39.96,48.260290308545045L40.5,55.24765604734422L41.04,61.945912716289364L41.58,68.01854025200011L42.12,73.85494619856279L42.660000000000004,79.23485305408637L43.2,84.25218990010522L43.74,88.79744988804063L44.28,93.17776504221064L44.82,97.27705764522157L45.36,101.29537058621646L45.900000000000006,105.28493654852115L46.44,109.28779535554351L46.98,113.29554453740518L47.519999999999996,117.04917280872664L48.059999999999995,120.69449393016598L48.6,124.28142818870644L49.14,127.66314299559842L49.68,130.83539590487877L50.22,132.73647417562702L50.76,134.58894404365373L51.3,134.4088518690939L51.84,137.3147075617065L52.38,136.8082515516629L52.92,139.52174334259084L53.46,140.46159966476262L54,140.2268433564653L54.540000000000006,137.94790578633547L55.08,139.98006487668803L55.62,129.3948508265118L56.16,131.8680457159256L56.699999999999996,128.81355101801455L57.239999999999995,132.3884676840777L57.78,137.10033697324494L58.32,135.76254013553262L58.86,132.57643803271154L59.4,137.04420755865672L59.94,139.194656024687L60.480000000000004,138.8399390047416L61.02,138.32590474529812L61.56,139.64460828667507L62.1,141.4098973783354L62.64,140.80101823682585L63.18000000000001,140.77175268608457L63.72,142.95434918502968L64.25999999999999,141.49692475811267L64.8,140.4623769504639L65.34,143.1416784732913L65.88,141.21672070367882L66.42,141.06905702594668L66.96,144.1238253192666L67.5,141.79146795937172L68.04,140.85923567662635L68.58,144.04357257392257L69.12,140.63311193309104L69.66,139.6568811585506L70.2,143.97215844846022L70.74000000000001,141.92668361837664L71.28,140.43491323726874L71.82000000000001,144.54714037803933L72.36,144.26806046875814L72.9,143.42487261646116L73.44000000000001,145.872371287706L73.98,145.56952063087374L74.52000000000001,144.7713180454448L75.06,146.23962561693043L75.60000000000001,145.35413464857265L76.13999999999999,144.38946127674234L76.67999999999999,146.18053816662479L77.22,145.08525332296267L77.75999999999999,143.91958462943634L78.3,146.3317734664306L78.83999999999999,144.54500312854847L79.38,142.69786093011498L79.92,145.87361563167846L80.46,143.07843557807308L81,141.13725440204144L81.53999999999999,145.37091783806682L82.08,144.02065466561666L82.62,142.47447199591747L83.16,146.18148144117248L83.7,146.26757127015543L84.24,145.51768632077923L84.78,147.0928895645775L85.32000000000001,146.777604626026L85.86,146.38004760195813L86.4,147.3764580412147L86.94,147.05380205313364L87.48,146.60948768816888L88.02000000000001,147.4034295116241L88.56,147.07185248161355L89.10000000000001,146.3337515955791L89.64,146.9275715420954L90.18,146.6729377832574L90.72,145.8863143508012L91.26,145.71550152512887L91.80000000000001,145.5748883667402L92.34,145.91522273933515L92.88,142.90105760733908L93.41999999999999,141.9319929719592L93.96,145.75287992383042L94.5,142.97872092667967L95.03999999999999,141.59510200936347L95.58,146.40878198839104L96.11999999999999,146.9349666313889L96.66,147.17498764799288L97.2,148.03186671823886L97.74,147.617594044966L98.28,148.02401945243278L98.82,148.0881953194427L99.36,147.78546028242755L99.9,148.40235725759217L100.44,148.61142307147384L100.98,148.27922444185242L101.52,148.7736972019387L102.06,148.66724225863192L102.6,148.0377444405264L103.14,148.48981792549603L103.68,147.96646425089176L104.22,147.02846299717203L104.76,147.9922285817253L105.3,146.58917523237565L105.84,145.3499734799067L106.38000000000001,147.51294093920538L106.92,143.68622148269787L107.46000000000001,141.38556226870665L108,146.01544108102098L108.54,145.18126470595598L109.08000000000001,143.88931742186347L109.62,147.69651086628437L110.16,148.67278456897475L110.69999999999999,149.1736478996463L111.24,149.28233110012175L111.78,149.28722433683774L112.32,149.501944074252L112.86,149.03373990766704L113.39999999999999,147.91159463441L113.94,148.11617760468894L114.47999999999999,147.51334389143932L115.02,147.16108236166957L115.56,149.2323472794766L116.1,149.46637896060324L116.64,149.09959455152662L117.17999999999999,150.04609901318327L117.72,149.57568089881292L118.26,148.75028361659497L118.8,149.86857394198887L119.34,148.50998270845352L119.88,147.15165533994633L120.42,149.01927827252075L120.96000000000001,146.9425895260647L121.5,144.22593364429972L122.04,146.49713956844062L122.58,140.80091291976473L123.12,144.21545917571834L123.66000000000001,149.16997496713884L124.2,148.94851322068524L124.74000000000001,146.75854910646257L125.28,145.65294891456142L125.82000000000001,149.2633482722255L126.36000000000001,150.41601889433028L126.89999999999999,150.17054771981202L127.44,150.09905975793177L127.97999999999999,150.44782407442108L128.51999999999998,150.37092544852445L129.06,150.2623641639948L129.6,150.58867763044933L130.14,150.2070715621424L130.68,150.0125801413475L131.22,150.19228252830607L131.76,147.59787113576508L132.3,145.0177199022534L132.84,143.28352910714844L133.38,142.8543426222168L133.92,145.1326208159638L134.46,146.03370214362317L135,145.55411915543178L135.54,145.3096324664851L136.08,148.968141115581L136.62,148.53912004712038L137.16,148.19091494133073L137.7,149.00196277396753L138.24,150.3526443527856L138.78,150.5633225479784L139.32,150.4179334898169L139.86,150.86019989584264L140.4,150.44276198698208L140.94,149.2348016249016L141.48000000000002,149.13846513271955L142.02,149.1592515152879L142.56,148.65692175901495L143.1,150.02665256126784L143.64000000000001,150.79621749169505L144.18,149.98160376073793L144.72,149.94243382724622L145.26000000000002,150.19529436730468L145.8,148.06241782397652L146.34,147.84270010516047L146.88000000000002,148.36109586463618L147.42000000000002,146.15102191548795L147.96,147.52305366657674L148.5,149.85153890734847L149.04000000000002,149.07385998421037L149.58,147.92098616886264L150.12,150.08383228459084L150.66000000000003,150.47345790367885L151.20000000000002,149.9753156453371L151.74,150.47596776951104L152.27999999999997,150.533733032799L152.82,148.8297155757124L153.35999999999999,145.71925974156088L153.89999999999998,147.3933076262474L154.44,150.726307568606L154.98,150.5407469201212L155.51999999999998,149.91775300291678L156.06,149.7403063471429L156.6,149.9539191106645L157.14,149.3712896742703L157.67999999999998,150.2993081298191L158.22,149.88720189717907L158.76,149.23056948169446L159.29999999999998,150.2081888387911L159.84,148.9745374099196L160.38,147.5122964445812L160.92,149.6677949781685L161.45999999999998,147.9186514498821L162,146.15351060343286L162.54,149.73971336629864L163.07999999999998,149.0980531447567L163.62,147.76880187075585L164.16,150.37253038895628L164.7,150.6675286286045L165.24,149.99269524992755L165.78,151.09469405623773L166.32,151.57699124825498L166.85999999999999,151.20364226649207L167.4,151.30692453333177L167.94,151.00469490373507L168.48,148.1902464069426L169.02,144.0626189354807L169.56,149.01370448153466L170.1,151.19337671490698L170.64000000000001,150.1040457194516L171.18,148.72449410124682L171.72,150.05849208387858L172.26,150.8684798773999L172.8,150.78734796354547L173.34,151.23128685029224L173.88,151.09788104208806L174.42000000000002,150.63463822488362L174.96,150.89574440397945L175.5,150.00085903929235L176.04000000000002,148.49420060341558L176.58,149.06768691625135L177.12,147.19603961271542L177.66,145.5704055231375L178.20000000000002,150.032186858356L178.74,149.40001146844588L179.28,148.16158299505088L179.82000000000002,150.66441547917202L180.36,150.64312368918522L180.9,149.86359484897307L181.44,150.69579366726492L181.98000000000002,149.57601860025898L182.52,148.5776243081006L183.06,148.2253622059555L183.60000000000002,148.9398795111726L184.14000000000001,150.9596272148192L184.68,151.82460196176544L185.22000000000003,152.07231455808505L185.76,151.66024438509095L186.29999999999998,152.16887313189605L186.83999999999997,152.3054453204386L187.38,151.95683039391105L187.92,151.95469657867216L188.45999999999998,151.01263432196964L189,148.43999322519326L189.54,145.76391875448948L190.07999999999998,149.26378785648075L190.61999999999998,151.47244231480485L191.16,151.1323895508734L191.7,150.35659832158126L192.23999999999998,149.9227727345812L192.78,151.41871000810838L193.32,151.41438285059607L193.85999999999999,150.96266423833245L194.4,151.88752776104957L194.94,151.6311230729334L195.48,150.6313596589801L196.01999999999998,151.3527637841956L196.56,150.71631103342708L197.1,149.09781961562112L197.64,150.38627140355916L198.18,150.6354097868316L198.72,149.94437189012143L199.26,151.21438288960297L199.8,151.54093331944506L200.34,151.0175115321763L200.88,151.457357935297L201.42,151.77694427447085L201.96,151.16554954337576L202.5,150.86407087021507L203.04,151.4016200254361L203.58,150.2367600982543L204.12,149.28803024130565L204.66,151.00860365487947L205.2,150.6879899019841L205.74,150.28417853266L206.28,151.7932867349591L206.82,151.77062982980473L207.36,151.28686563981077L207.9,151.65725086210296L208.44,151.89322175085545L208.98000000000002,151.30732347893837L209.52,150.50518867497644L210.06,151.4081239263372L210.6,150.29075569760363L211.14000000000001,149.02023299457505L211.68,151.0399509347044L212.22,151.18535258512324L212.76000000000002,150.88100974579962L213.3,151.30775848419094L213.84,152.06457833309346L214.38000000000002,151.9391777662871L214.92000000000002,151.37044388583553L215.46,152.49054005540287L216,152.0414057177647L216.54000000000002,151.2708740454012L217.08,151.36415176380737L217.62,150.57526401453651L218.16000000000003,148.81015350397988L218.70000000000002,148.51090766699053L219.24,151.1673656903052L219.77999999999997,151.64577130243802L220.32,151.70479464670643L220.85999999999999,152.51707537580901L221.39999999999998,152.70531817510104L221.94,152.71632123230182L222.48,152.7302594302067L223.01999999999998,152.88515163601065L223.56,152.32591918607554L224.1,150.546116945489L224.64,146.77082197833806L225.17999999999998,145.23622876436758L225.72,149.95233534811996L226.26,152.07376324005114L226.79999999999998,151.98655670679486L227.34,151.2971214610152L227.88,151.60902251660204L228.42,151.73330580675974L228.95999999999998,151.77679889113642L229.5,151.78895099181682L230.04,151.93802900899513L230.57999999999998,152.09471103246324L231.12,151.9560204828158L231.66,151.57615329076845L232.2,151.35912573601428L232.74,151.20761569604898L233.28,150.8245735380333L233.82,150.47246197060062L234.35999999999999,150.70703912541893L234.9,151.28039207480225L235.44,151.79127826991802L235.98,152.11584084023102L236.52,152.40213267869936L237.06,152.70083189724633L237.6,152.93041564966552L238.14000000000001,153.04672603763174L238.68,153.05994189786725L239.22,152.73710961818387L239.76,150.97984007730457L240.3,146.41312631716332L240.84,143.54111403319985L241.38,148.43110538103306L241.92000000000002,151.74490155861713L242.46,151.54823740106076L243,151.05269429910308L243.54000000000002,150.77541565499268L244.08,152.38545824051835L244.62,152.75882296260292L245.16,153.03596910182387L245.70000000000002,152.6906338859505L246.24,152.35229309663796L246.78,150.76723354961723L247.32000000000002,148.2819306324236L247.86,149.02984260402928L248.4,151.3124244879L248.94,152.38015060406178L249.48000000000002,152.6439515262221L250.02,152.85840024391655L250.56,152.93832702150877L251.10000000000002,153.04181877772015L251.64000000000001,153.03983149056634L252.18,152.52863506802046L252.72000000000003,151.18984344198057L253.26,149.06967248627916L253.79999999999998,147.596594738774L254.33999999999997,148.85059182120798L254.88,151.3283977662989L255.42,152.43830508257574L255.95999999999998,152.65151832811534L256.5,152.56669917237014L257.03999999999996,152.18221176664034L257.58,152.1500763259828L258.12,152.23729602387175L258.65999999999997,152.22578269406222" style="fill: none;" fill="none"></path></g></g></g></g></g></g><g transform="translate(60, 177)" clip-path="url(#clip_1)"><clipPath id="clip_1"><rect width="270" height="23"></rect></clipPath><g><g><line x1="0" y1="0" x2="0" y2="5" style="visibility: inherit;" fill="rgb(0, 0, 0)" stroke="rgb(204, 204, 204)" stroke-width="1px"></line><line x1="27" y1="0" x2="27" y2="5" style="visibility: inherit;" fill="rgb(0, 0, 0)" stroke="rgb(204, 204, 204)" stroke-width="1px"></line><line x1="54" y1="0" x2="54" y2="5" style="visibility: inherit;" fill="rgb(0, 0, 0)" stroke="rgb(204, 204, 204)" stroke-width="1px"></line><line x1="81" y1="0" x2="81" y2="5" style="visibility: inherit;" fill="rgb(0, 0, 0)" stroke="rgb(204, 204, 204)" stroke-width="1px"></line><line x1="108" y1="0" x2="108" y2="5" style="visibility: inherit;" fill="rgb(0, 0, 0)" stroke="rgb(204, 204, 204)" stroke-width="1px"></line><line x1="135" y1="0" x2="135" y2="5" style="visibility: inherit;" fill="rgb(0, 0, 0)" stroke="rgb(204, 204, 204)" stroke-width="1px"></line><line x1="162" y1="0" x2="162" y2="5" style="visibility: inherit;" fill="rgb(0, 0, 0)" stroke="rgb(204, 204, 204)" stroke-width="1px"></line><line x1="189" y1="0" x2="189" y2="5" style="visibility: inherit;" fill="rgb(0, 0, 0)" stroke="rgb(204, 204, 204)" stroke-width="1px"></line><line x1="216" y1="0" x2="216" y2="5" style="visibility: inherit;" fill="rgb(0, 0, 0)" stroke="rgb(204, 204, 204)" stroke-width="1px"></line><line x1="243" y1="0" x2="243" y2="5" style="visibility: inherit;" fill="rgb(0, 0, 0)" stroke="rgb(204, 204, 204)" stroke-width="1px"></line><line x1="270" y1="0" x2="270" y2="5" style="visibility: inherit;" fill="rgb(0, 0, 0)" stroke="rgb(204, 204, 204)" stroke-width="1px"></line></g><g transform="translate(0, 8)"><text x="0" y="0" dx="0em" dy="0.95em" style="text-anchor: middle; visibility: hidden; font-family: Roboto, sans-serif; font-size: 12px; font-weight: 200;" fill="rgb(33, 33, 33)" stroke="none" stroke-width="1px">-50</text><text x="27" y="0" dx="0em" dy="0.95em" style="text-anchor: middle; visibility: inherit; font-family: Roboto, sans-serif; font-size: 12px; font-weight: 200;" fill="rgb(33, 33, 33)" stroke="none" stroke-width="1px">0</text><text x="54" y="0" dx="0em" dy="0.95em" style="text-anchor: middle; visibility: inherit; font-family: Roboto, sans-serif; font-size: 12px; font-weight: 200;" fill="rgb(33, 33, 33)" stroke="none" stroke-width="1px">50</text><text x="81" y="0" dx="0em" dy="0.95em" style="text-anchor: middle; visibility: inherit; font-family: Roboto, sans-serif; font-size: 12px; font-weight: 200;" fill="rgb(33, 33, 33)" stroke="none" stroke-width="1px">100</text><text x="108" y="0" dx="0em" dy="0.95em" style="text-anchor: middle; visibility: inherit; font-family: Roboto, sans-serif; font-size: 12px; font-weight: 200;" fill="rgb(33, 33, 33)" stroke="none" stroke-width="1px">150</text><text x="135" y="0" dx="0em" dy="0.95em" style="text-anchor: middle; visibility: inherit; font-family: Roboto, sans-serif; font-size: 12px; font-weight: 200;" fill="rgb(33, 33, 33)" stroke="none" stroke-width="1px">200</text><text x="162" y="0" dx="0em" dy="0.95em" style="text-anchor: middle; visibility: inherit; font-family: Roboto, sans-serif; font-size: 12px; font-weight: 200;" fill="rgb(33, 33, 33)" stroke="none" stroke-width="1px">250</text><text x="189" y="0" dx="0em" dy="0.95em" style="text-anchor: middle; visibility: inherit; font-family: Roboto, sans-serif; font-size: 12px; font-weight: 200;" fill="rgb(33, 33, 33)" stroke="none" stroke-width="1px">300</text><text x="216" y="0" dx="0em" dy="0.95em" style="text-anchor: middle; visibility: inherit; font-family: Roboto, sans-serif; font-size: 12px; font-weight: 200;" fill="rgb(33, 33, 33)" stroke="none" stroke-width="1px">350</text><text x="243" y="0" dx="0em" dy="0.95em" style="text-anchor: middle; visibility: inherit; font-family: Roboto, sans-serif; font-size: 12px; font-weight: 200;" fill="rgb(33, 33, 33)" stroke="none" stroke-width="1px">400</text><text x="270" y="0" dx="0em" dy="0.95em" style="text-anchor: middle; visibility: hidden; font-family: Roboto, sans-serif; font-size: 12px; font-weight: 200;" fill="rgb(33, 33, 33)" stroke="none" stroke-width="1px">450</text></g><line x1="0" y1="0" x2="270" y2="0" fill="rgb(0, 0, 0)" stroke="rgb(204, 204, 204)" stroke-width="1px"></line></g></g></g></g></svg>