<svg viewBox="0 0 330 200" xmlns="http://www.w3.org/2000/svg"><g><g><g><g><g><line x1="72.34375" y1="177" x2="67.34375" y2="177" style="visibility: inherit;" fill="rgb(0, 0, 0)" stroke="rgb(204, 204, 204)" stroke-width="1px"></line><line x1="72.34375" y1="164.35714285714286" x2="67.34375" y2="164.35714285714286" style="visibility: inherit;" fill="rgb(0, 0, 0)" stroke="rgb(204, 204, 204)" stroke-width="1px"></line><line x1="72.34375" y1="151.71428571428572" x2="67.34375" y2="151.71428571428572" style="visibility: inherit;" fill="rgb(0, 0, 0)" stroke="rgb(204, 204, 204)" stroke-width="1px"></line><line x1="72.34375" y1="139.07142857142856" x2="67.34375" y2="139.07142857142856" style="visibility: inherit;" fill="rgb(0, 0, 0)" stroke="rgb(204, 204, 204)" stroke-width="1px"></line><line x1="72.34375" y1="126.42857142857142" x2="67.34375" y2="126.42857142857142" style="visibility: inherit;" fill="rgb(0, 0, 0)" stroke="rgb(204, 204, 204)" stroke-width="1px"></line><line x1="72.34375" y1="113.78571428571429" x2="67.34375" y2="113.78571428571429" style="visibility: inherit;" fill="rgb(0, 0, 0)" stroke="rgb(204, 204, 204)" stroke-width="1px"></line><line x1="72.34375" y1="101.14285714285714" x2="67.34375" y2="101.14285714285714" style="visibility: inherit;" fill="rgb(0, 0, 0)" stroke="rgb(204, 204, 204)" stroke-width="1px"></line><line x1="72.34375" y1="88.5" x2="67.34375" y2="88.5" style="visibility: inherit;" fill="rgb(0, 0, 0)" stroke="rgb(204, 204, 204)" stroke-width="1px"></line><line x1="72.34375" y1="75.85714285714286" x2="67.34375" y2="75.85714285714286" style="visibility: inherit;" fill="rgb(0, 0, 0)" stroke="rgb(204, 204, 204)" stroke-width="1px"></line><line x1="72.34375" y1="63.21428571428572" x2="67.34375" y2="63.21428571428572" style="visibility: inherit;" fill="rgb(0, 0, 0)" stroke="rgb(204, 204, 204)" stroke-width="1px"></line><line x1="72.34375" y1="50.57142857142857" x2="67.34375" y2="50.57142857142857" style="visibility: inherit;" fill="rgb(0, 0, 0)" stroke="rgb(204, 204, 204)" stroke-width="1px"></line><line x1="72.34375" y1="37.92857142857145" x2="67.34375" y2="37.92857142857145" style="visibility: inherit;" fill="rgb(0, 0, 0)" stroke="rgb(204, 204, 204)" stroke-width="1px"></line><line x1="72.34375" y1="25.285714285714295" x2="67.34375" y2="25.285714285714295" style="visibility: inherit;" fill="rgb(0, 0, 0)" stroke="rgb(204, 204, 204)" stroke-width="1px"></line><line x1="72.34375" y1="12.642857142857157" x2="67.34375" y2="12.642857142857157" style="visibility: inherit;" fill="rgb(0, 0, 0)" stroke="rgb(204, 204, 204)" stroke-width="1px"></line><line x1="72.34375" y1="0" x2="67.34375" y2="0" style="visibility: inherit;" fill="rgb(0, 0, 0)" stroke="rgb(204, 204, 204)" stroke-width="1px"></line></g><g transform="translate(62.34375, 0)"><text x="0" y="177" dx="0em" dy="0.3em" style="text-anchor: end; visibility: hidden; font-family: Roboto, sans-serif; font-size: 12px; font-weight: 200;" fill="rgb(33, 33, 33)" stroke="none" stroke-width="1px">1e-4</text><text x="0" y="164.35714285714286" dx="0em" dy="0.3em" style="text-anchor: end; visibility: inherit; font-family: Roboto, sans-serif; font-size: 12px; font-weight: 200;" fill="rgb(33, 33, 33)" stroke="none" stroke-width="1px">2e-4</text><text x="0" y="151.71428571428572" dx="0em" dy="0.3em" style="text-anchor: end; visibility: hidden; font-family: Roboto, sans-serif; font-size: 12px; font-weight: 200;" fill="rgb(33, 33, 33)" stroke="none" stroke-width="1px">3e-4</text><text x="0" y="139.07142857142856" dx="0em" dy="0.3em" style="text-anchor: end; visibility: inherit; font-family: Roboto, sans-serif; font-size: 12px; font-weight: 200;" fill="rgb(33, 33, 33)" stroke="none" stroke-width="1px">4e-4</text><text x="0" y="126.42857142857142" dx="0em" dy="0.3em" style="text-anchor: end; visibility: hidden; font-family: Roboto, sans-serif; font-size: 12px; font-weight: 200;" fill="rgb(33, 33, 33)" stroke="none" stroke-width="1px">5e-4</text><text x="0" y="113.78571428571429" dx="0em" dy="0.3em" style="text-anchor: end; visibility: inherit; font-family: Roboto, sans-serif; font-size: 12px; font-weight: 200;" fill="rgb(33, 33, 33)" stroke="none" stroke-width="1px">6e-4</text><text x="0" y="101.14285714285714" dx="0em" dy="0.3em" style="text-anchor: end; visibility: hidden; font-family: Roboto, sans-serif; font-size: 12px; font-weight: 200;" fill="rgb(33, 33, 33)" stroke="none" stroke-width="1px">7e-4</text><text x="0" y="88.5" dx="0em" dy="0.3em" style="text-anchor: end; visibility: inherit; font-family: Roboto, sans-serif; font-size: 12px; font-weight: 200;" fill="rgb(33, 33, 33)" stroke="none" stroke-width="1px">8e-4</text><text x="0" y="75.85714285714286" dx="0em" dy="0.3em" style="text-anchor: end; visibility: hidden; font-family: Roboto, sans-serif; font-size: 12px; font-weight: 200;" fill="rgb(33, 33, 33)" stroke="none" stroke-width="1px">9e-4</text><text x="0" y="63.21428571428572" dx="0em" dy="0.3em" style="text-anchor: end; visibility: inherit; font-family: Roboto, sans-serif; font-size: 12px; font-weight: 200;" fill="rgb(33, 33, 33)" stroke="none" stroke-width="1px">1e-3</text><text x="0" y="50.57142857142857" dx="0em" dy="0.3em" style="text-anchor: end; visibility: hidden; font-family: Roboto, sans-serif; font-size: 12px; font-weight: 200;" fill="rgb(33, 33, 33)" stroke="none" stroke-width="1px">1.1e-3</text><text x="0" y="37.92857142857145" dx="0em" dy="0.3em" style="text-anchor: end; visibility: inherit; font-family: Roboto, sans-serif; font-size: 12px; font-weight: 200;" fill="rgb(33, 33, 33)" stroke="none" stroke-width="1px">1.2e-3</text><text x="0" y="25.285714285714295" dx="0em" dy="0.3em" style="text-anchor: end; visibility: hidden; font-family: Roboto, sans-serif; font-size: 12px; font-weight: 200;" fill="rgb(33, 33, 33)" stroke="none" stroke-width="1px">1.3e-3</text><text x="0" y="12.642857142857157" dx="0em" dy="0.3em" style="text-anchor: end; visibility: inherit; font-family: Roboto, sans-serif; font-size: 12px; font-weight: 200;" fill="rgb(33, 33, 33)" stroke="none" stroke-width="1px">1.4e-3</text><text x="0" y="0" dx="0em" dy="0.3em" style="text-anchor: end; visibility: hidden; font-family: Roboto, sans-serif; font-size: 12px; font-weight: 200;" fill="rgb(33, 33, 33)" stroke="none" stroke-width="1px">1.5e-3</text></g><line x1="72.34375" y1="0" x2="72.34375" y2="177" fill="rgb(0, 0, 0)" stroke="rgb(204, 204, 204)" stroke-width="1px"></line></g></g><g transform="translate(72, 0)" clip-path="url(#clip_0)"><clipPath id="clip_0"><rect width="257" height="177"></rect></clipPath><g><g><g><line x1="0" y1="0" x2="0" y2="177" fill="rgb(0, 0, 0)" stroke="rgb(66, 66, 66)" stroke-width="1px" opacity="0.25"></line><line x1="25.765625" y1="0" x2="25.765625" y2="177" fill="rgb(0, 0, 0)" stroke="rgb(66, 66, 66)" stroke-width="1px" opacity="0.25"></line><line x1="51.53125" y1="0" x2="51.53125" y2="177" fill="rgb(0, 0, 0)" stroke="rgb(66, 66, 66)" stroke-width="1px" opacity="0.25"></line><line x1="77.296875" y1="0" x2="77.296875" y2="177" fill="rgb(0, 0, 0)" stroke="rgb(66, 66, 66)" stroke-width="1px" opacity="0.25"></line><line x1="103.0625" y1="0" x2="103.0625" y2="177" fill="rgb(0, 0, 0)" stroke="rgb(66, 66, 66)" stroke-width="1px" opacity="0.25"></line><line x1="128.828125" y1="0" x2="128.828125" y2="177" fill="rgb(0, 0, 0)" stroke="rgb(66, 66, 66)" stroke-width="1px" opacity="0.25"></line><line x1="154.59375" y1="0" x2="154.59375" y2="177" fill="rgb(0, 0, 0)" stroke="rgb(66, 66, 66)" stroke-width="1px" opacity="0.25"></line><line x1="180.359375" y1="0" x2="180.359375" y2="177" fill="rgb(0, 0, 0)" stroke="rgb(66, 66, 66)" stroke-width="1px" opacity="0.25"></line><line x1="206.125" y1="0" x2="206.125" y2="177" fill="rgb(0, 0, 0)" stroke="rgb(66, 66, 66)" stroke-width="1px" opacity="0.25"></line><line x1="231.890625" y1="0" x2="231.890625" y2="177" fill="rgb(0, 0, 0)" stroke="rgb(66, 66, 66)" stroke-width="1px" opacity="0.25"></line><line x1="257.65625" y1="0" x2="257.65625" y2="177" fill="rgb(0, 0, 0)" stroke="rgb(66, 66, 66)" stroke-width="1px" opacity="0.25"></line></g><g><line x1="0" y1="177" x2="257.65625" y2="177" fill="rgb(0, 0, 0)" stroke="rgb(66, 66, 66)" stroke-width="1px" opacity="0.25"></line><line x1="0" y1="164.35714285714286" x2="257.65625" y2="164.35714285714286" fill="rgb(0, 0, 0)" stroke="rgb(66, 66, 66)" stroke-width="1px" opacity="0.25"></line><line x1="0" y1="151.71428571428572" x2="257.65625" y2="151.71428571428572" fill="rgb(0, 0, 0)" stroke="rgb(66, 66, 66)" stroke-width="1px" opacity="0.25"></line><line x1="0" y1="139.07142857142856" x2="257.65625" y2="139.07142857142856" fill="rgb(0, 0, 0)" stroke="rgb(66, 66, 66)" stroke-width="1px" opacity="0.25"></line><line x1="0" y1="126.42857142857142" x2="257.65625" y2="126.42857142857142" fill="rgb(0, 0, 0)" stroke="rgb(66, 66, 66)" stroke-width="1px" opacity="0.25"></line><line x1="0" y1="113.78571428571429" x2="257.65625" y2="113.78571428571429" fill="rgb(0, 0, 0)" stroke="rgb(66, 66, 66)" stroke-width="1px" opacity="0.25"></line><line x1="0" y1="101.14285714285714" x2="257.65625" y2="101.14285714285714" fill="rgb(0, 0, 0)" stroke="rgb(66, 66, 66)" stroke-width="1px" opacity="0.25"></line><line x1="0" y1="88.5" x2="257.65625" y2="88.5" fill="rgb(0, 0, 0)" stroke="rgb(66, 66, 66)" stroke-width="1px" opacity="0.25"></line><line x1="0" y1="75.85714285714286" x2="257.65625" y2="75.85714285714286" fill="rgb(0, 0, 0)" stroke="rgb(66, 66, 66)" stroke-width="1px" opacity="0.25"></line><line x1="0" y1="63.21428571428572" x2="257.65625" y2="63.21428571428572" fill="rgb(0, 0, 0)" stroke="rgb(66, 66, 66)" stroke-width="1px" opacity="0.25"></line><line x1="0" y1="50.57142857142857" x2="257.65625" y2="50.57142857142857" fill="rgb(0, 0, 0)" stroke="rgb(66, 66, 66)" stroke-width="1px" opacity="0.25"></line><line x1="0" y1="37.92857142857145" x2="257.65625" y2="37.92857142857145" fill="rgb(0, 0, 0)" stroke="rgb(66, 66, 66)" stroke-width="1px" opacity="0.25"></line><line x1="0" y1="25.285714285714295" x2="257.65625" y2="25.285714285714295" fill="rgb(0, 0, 0)" stroke="rgb(66, 66, 66)" stroke-width="1px" opacity="0.25"></line><line x1="0" y1="12.642857142857157" x2="257.65625" y2="12.642857142857157" fill="rgb(0, 0, 0)" stroke="rgb(66, 66, 66)" stroke-width="1px" opacity="0.25"></line><line x1="0" y1="0" x2="257.65625" y2="0" fill="rgb(0, 0, 0)" stroke="rgb(66, 66, 66)" stroke-width="1px" opacity="0.25"></line></g></g></g><g><g><line x1="0" y1="189.64285714285714" x2="257.65625" y2="189.64285714285714" fill="rgb(0, 0, 0)" stroke="rgb(153, 153, 153)" stroke-width="1.5px"></line></g></g><g><g><line x1="25.765625" y1="0" x2="25.765625" y2="177" fill="rgb(0, 0, 0)" stroke="rgb(153, 153, 153)" stroke-width="1.5px"></line></g></g><g><g><g><g><g><path stroke="rgb(51, 187, 238)" stroke-width="2px" d="M36.071875000000006,-0.33994476620859193L36.5871875,10.836919041691447L37.1025,19.921079414432647L37.6178125,27.674259582750178L38.133125,34.35735889376115L38.6484375,39.63013207732463L39.16375,43.16099260464229L39.6790625,45.48095799144063L40.194375,46.633770989889534L40.7096875,47.05989462021836L41.225,47.3037470599786L41.7403125,47.57907256744854L42.255625,48.546305069289396L42.7709375,50.20142807563714L43.28625,52.82180746615484L43.8015625,56.63806365692946L44.316874999999996,61.6440300627339L44.832187499999996,67.60476579212393L45.3475,72.88653116405848L45.8628125,77.75542148586638L46.378125,84.28046838317222L46.8934375,90.78354587840617L47.40875,96.34079210684554L47.9240625,100.51715759661002L48.439375,104.74293663563414L48.9546875,103.61151190971835L49.47,108.1051998696804L49.9853125,110.25718280720591L50.500625,115.23115156828408L51.0159375,121.69609521634105L51.53125,116.23042346232995L52.0465625,114.44157899070612L52.56187499999999,111.70623760005616L53.077187499999994,69.48119058109907L53.592499999999994,55.46787857989994L54.1078125,48.944024069382266L54.623125,52.79588172375519L55.1384375,58.348305164752375L55.65375,71.15977538571681L56.1690625,68.92478559431976L56.684375,77.59386406559337L57.1996875,89.82838743533864L57.715,95.59320956409472L58.230312500000004,88.35970545937093L58.745625000000004,92.81160110844571L59.260937500000004,103.27542520882302L59.776250000000005,106.32734392956012L60.291562500000005,107.42080900278009L60.806875,115.32273096293783L61.3221875,120.51754980864081L61.8375,119.72670879976977L62.3528125,123.85746399896792L62.868125,125.24145976601936L63.3834375,122.81745799049078L63.89875,125.4560180757943L64.4140625,123.3828590985943L64.92937500000001,118.33194819481385L65.4446875,120.90441125460052L65.96000000000001,115.74161033594125L66.4753125,106.63534777800493L66.99062500000001,111.38587498748986L67.5059375,113.03468979788599L68.02125000000001,107.47333630509627L68.5365625,114.66132518802343L69.05187500000001,123.74876887703988L69.5671875,123.85628597657944L70.08250000000001,129.36714213090067L70.5978125,136.27884329491727L71.11312500000001,136.211144872515L71.6284375,138.21844583657682L72.14375000000001,141.6185129742733L72.65906249999999,139.72878334555352L73.174375,139.81861272719993L73.68968749999999,140.80671422664926L74.205,136.8047785064086L74.72031249999999,136.54243389232698L75.235625,134.97044106572542L75.75093749999999,127.37100562921397L76.26625,127.47225818781865L76.78156249999999,124.5331798129511L77.296875,113.60415674422575L77.8121875,116.4651309167185L78.3275,121.54461003557215L78.8428125,116.91164443631902L79.358125,122.91503519862212L79.8734375,132.3940736942804L80.38875,133.09867483233842L80.9040625,136.88270965419755L81.419375,143.16958784748056L81.9346875,143.44876110022415L82.45,144.04472134941372L82.9653125,147.62892933549404L83.480625,146.9356668155659L83.9959375,145.31141238483312L84.51125,147.67633323376054L85.0265625,145.91359305632025L85.541875,141.8625803396486L86.05718750000001,143.48438074090006L86.5725,141.10047131729272L87.08781250000001,132.82417391757562L87.603125,132.04386654614785L88.11843750000001,131.7536416273628L88.63374999999999,115.77535128731135L89.1490625,105.16773309013266L89.66437499999999,111.60364472259442L90.1796875,109.49893341690347L90.695,103.74111133895097L91.2103125,115.40367254961598L91.725625,128.69481555516674L92.2409375,133.7990093034164L92.75625,141.27425628403492L93.2715625,147.76196587078874L93.786875,150.15742750367298L94.3021875,152.35324636437724L94.8175,154.3193947819398L95.3328125,155.33363776145657L95.848125,155.78847526085363L96.3634375,156.4500683635906L96.87875,156.8710679140494L97.3940625,156.1890340017566L97.909375,155.93957849138886L98.4246875,155.71269191637467L98.94,152.75796878545418L99.4553125,151.05323318029622L99.970625,150.10480126454576L100.4859375,142.48967258099913L101.00125,136.27059722582626L101.5165625,135.80109875314972L102.031875,121.74160357364141L102.5471875,105.52532990874934L103.0625,110.90667089375182L103.57781250000001,116.3892916650836L104.093125,114.2630408837921L104.60843750000001,125.4535986600534L105.12374999999999,136.63228969588087L105.6390625,140.87105670896977L106.15437499999999,146.71396291320954L106.6696875,151.53279877290814L107.18499999999999,153.68080354296188L107.7003125,155.27053813264084L108.215625,156.14941014663634L108.7309375,156.43004122216365L109.24625,155.7170706070269L109.7615625,154.91650803372644L110.276875,155.51851621664596L110.7921875,155.33798013954652L111.3075,154.63691150521493L111.8228125,155.2438495443617L112.338125,153.20600723276803L112.8534375,150.40788240767378L113.36875,150.38354034211636L113.8840625,145.2880132446319L114.399375,138.53803617278837L114.9146875,139.03372595271637L115.43,133.58892232343825L115.9453125,123.94899961810084L116.46062500000001,127.44644856509389L116.9759375,129.16330973901725L117.49125000000001,124.23775056041875L118.0065625,133.3212177979473L118.52187500000001,140.96183479355525L119.0371875,142.0935130262479L119.55250000000001,145.7072026061771L120.0678125,150.80024955972968L120.58312500000001,153.32817334629345L121.09843749999999,155.03417452739242L121.61375,157.09445031750707L122.12906249999999,157.34301420868363L122.644375,156.7732321182768L123.15968749999999,157.13185313051653L123.675,157.29027227062411L124.19031249999999,155.21321137293768L124.705625,153.8624474876025L125.22093749999999,153.26577134302133L125.73625,148.33620175110113L126.25156249999999,141.56042641687728L126.766875,138.51566702602662L127.28218749999999,136.67977145905346L127.7975,130.02566386645637L128.3128125,133.16931787591892L128.828125,130.38823818882193L129.3434375,125.0954399468445L129.85875000000001,131.34874319217974L130.3740625,138.24932978943127L130.889375,139.0622521621577L131.4046875,143.95867703160556L131.92000000000002,149.7387488304745L132.4353125,151.6566907585716L132.950625,153.78331677196988L133.4659375,156.1500348530337L133.98125000000002,156.43147281440133L134.4965625,156.13531039723264L135.011875,156.1307360429808L135.5271875,155.6079833714107L136.04250000000002,155.04780595151666L136.5578125,155.53043155282126L137.073125,156.16579095350582L137.5884375,154.34823656697415L138.10375000000002,152.88068782630597L138.6190625,152.38884035407006L139.134375,148.42789501848506L139.6496875,144.13404527365634L140.16500000000002,143.64047287219128L140.6803125,140.58364562130646L141.195625,135.77105342473877L141.7109375,138.4256316674019L142.22625000000002,139.024894156442L142.74156250000001,136.3457008713815L143.256875,140.42717541653414L143.7721875,144.9969354480575L144.28750000000002,145.43310238209577L144.80281250000002,148.78325381585887L145.31812499999998,152.07139125288865L145.83343749999997,151.3586896370958L146.34875,151.19656627380124L146.8640625,153.6234866050267L147.37937499999998,154.87929288276442L147.89468749999997,155.91623490290885L148.41,157.8270703050068L148.9253125,158.08022104691605L149.44062499999998,155.939327344964L149.95593749999998,156.4879649110806L150.47125,156.8844906793137L150.9865625,154.0036912571283L151.50187499999998,153.55404119004356L152.0171875,153.87616214280786L152.5325,148.6272202250176L153.0478125,146.2866155316165L153.56312499999999,146.8822295940294L154.0784375,140.83767740686767L154.59375,137.04593715476796L155.1090625,139.4854782953951L155.624375,138.89913262991257L156.1396875,137.74693061120715L156.655,141.96713187246075L157.1703125,145.826856934079L157.685625,146.9272052004211L158.2009375,150.4642541848142L158.71625,154.08182557863165L159.2315625,155.1922545636085L159.746875,156.68197886012035L160.2621875,158.0577954965403L160.7775,156.3796142191056L161.2928125,154.77711784756647L161.808125,157.13265192174856L162.3234375,159.32293336719337L162.83875,159.44086910702777L163.3540625,160.05241264556216L163.869375,159.49844605894967L164.3846875,157.79378905217953L164.9,159.3352227634199L165.4153125,159.90908722755785L165.930625,157.16996765939663L166.4459375,157.9223120408812L166.96125,157.8569751125769L167.4765625,152.6188698232312L167.991875,152.2361120334723L168.50718750000001,151.78704692458646L169.0225,142.80214744971158L169.5378125,140.4710100173864L170.053125,141.7337649196255L170.56843750000002,137.77205797759558L171.08375,137.3983149318568L171.5990625,140.46965728676545L172.11437500000002,141.90741132011306L172.62968750000002,143.28899148158476L173.145,146.65815176957693L173.6603125,148.98491565846496L174.17562500000003,149.0835361564461L174.69093750000002,150.78612461102966L175.20625,154.1007061533764L175.7215625,155.84623939014713L176.23687500000003,158.13615854111532L176.75218750000002,160.3854910527914L177.26749999999998,161.29646102663284L177.78281249999998,161.6061149470938L178.298125,162.85792978123945L178.8134375,163.3611638092532L179.32874999999999,162.97808060403958L179.84406249999998,162.86855068073237L180.359375,160.67040067374936L180.8746875,158.6912526651842L181.39,160.66134221055557L181.90531249999998,162.42375606951578L182.420625,162.84855923836977L182.9359375,163.02556481495003L183.45125,162.92440827081055L183.96656249999998,161.80229130709242L184.481875,162.68291001473133L184.9971875,163.53022218441737L185.5125,162.86166900528337L186.02781249999998,163.02751468543127L186.543125,163.8637787969705L187.0584375,162.98213985583146L187.57375,161.92976692043365L188.08906249999998,162.87097349410655L188.604375,161.7043928867025L189.1196875,159.87356913513082L189.635,161.96164886958644L190.15031249999998,161.77876792501053L190.665625,159.80663738816827L191.1809375,162.58426979326632L191.69625,162.50566540058776L192.21156249999999,160.17789941909794L192.726875,163.16081702903486L193.2421875,162.94106876228298L193.7575,160.57256654154472L194.27281250000001,163.1109806487808L194.788125,162.67476725448623L195.3034375,160.68927922732482L195.81875,162.63599541246236L196.33406250000002,163.328026758524L196.849375,162.9057588174776L197.3646875,163.2041960013613L197.88,164.83644438104062L198.39531250000002,164.3004309430608L198.910625,162.90510865515233L199.4259375,164.91429741666866L199.94125,164.01949672644156L200.45656250000002,162.4730315917927L200.971875,163.1934610040673L201.4871875,162.85109490428204L202.0025,161.81294321761305L202.51781250000002,161.30587431653544L203.033125,163.34107315344954L203.5484375,162.51771650223725L204.06375,161.5129168909168L204.57906250000002,164.01862145447524L205.094375,163.29221430002764L205.6096875,163.2124729932877L206.125,163.99232954747796L206.64031250000002,164.62372319644263L207.15562500000001,164.2181921751573L207.6709375,162.65977606737067L208.18625,163.18872153489485L208.70156250000002,161.54117957467287L209.21687500000002,161.09220972930046L209.73218749999998,163.26328431430466L210.24749999999997,164.12488427177638L210.7628125,164.93864015329066L211.278125,165.66257511256936L211.79343749999998,166.72981672622402L212.30874999999997,166.7369469526711L212.8240625,167.22532068385073L213.339375,167.08945443744156L213.85468749999998,165.65144881606878L214.36999999999998,161.61800172632758L214.8853125,159.3793767798986L215.400625,161.21392867369613L215.91593749999998,163.14775464096527L216.43125,164.56779447420328L216.9465625,165.4056881443172L217.461875,165.34313861847164L217.97718749999999,165.70291849735284L218.4925,166.17098979609062L219.0078125,166.48390284697084L219.523125,167.03395371479516L220.0384375,167.08207949040778L220.55375,167.01999854641335L221.0690625,167.15998387570272L221.584375,167.06889077403477L222.0996875,166.5576101447255L222.615,165.89447385320034L223.1303125,165.3966656480189L223.645625,165.21572503573557L224.1609375,165.39241896051956L224.67625,165.83843509371923L225.1915625,166.48010546324377L225.706875,167.17962727592274L226.2221875,167.79716505295673L226.7375,168.23601191729193L227.2528125,168.5452004160129L227.768125,168.688547278657L228.2834375,168.34966973955886L228.79875,166.5182443148053L229.3140625,161.34358494168652L229.829375,155.3147464807862L230.3446875,154.61503524420826L230.86,157.73903717452527L231.3753125,156.77077549336343L231.890625,158.73396044127136L232.4059375,159.5984328725188L232.92125000000001,162.14157918113355L233.4365625,163.70448771218918L233.951875,164.93379567372622L234.4671875,165.34517385484523L234.98250000000002,165.98081352786485L235.4978125,165.49520569759508L236.013125,163.70372587658758L236.52843750000002,162.68709638950378L237.04375000000002,163.6192241739248L237.5590625,165.19900354278602L238.074375,165.63879222468827L238.58968750000003,166.38004657588553L239.10500000000002,167.154909791013L239.6203125,168.17485926215704L240.135625,168.50908430544467L240.65093750000003,168.07064829272235L241.16625000000002,166.73633849820374L241.68156249999998,164.40449668278112L242.19687499999998,162.12163148817467L242.7121875,161.120890858672L243.2275,162.48909562212822L243.74281249999999,164.03953234619732L244.25812499999998,164.33317310621885L244.7734375,165.39747720518713L245.28875,166.30931303827006L245.8040625,166.94889722718938L246.31937499999998,166.81600794681688L246.8346875,166.67220963416588" style="fill: none;" fill="none"></path></g></g></g></g><g opacity="0.2"><g><g><g><path stroke="rgb(51, 187, 238)" stroke-width="2px" d="M34.525937500000005,-10.884097995502596L35.041250000000005,2.982160506903055L35.556562500000005,13.60087257809937L36.071875000000006,21.255938018273028L36.5871875,27.60184697407698L37.1025,33.54714062264457L37.6178125,39.30393799141582L38.133125,44.3819603596681L38.6484375,47.539269366700736L39.16375,48.457274361114415L39.6790625,48.96090250994479L40.194375,48.36298942565918L40.7096875,47.69907983019948L41.225,47.66952563875488L41.7403125,47.99206077387291L42.255625,49.99715370658254L42.7709375,52.684112466605654L43.28625,56.75237643931594L43.8015625,62.36244784468519L44.316874999999996,69.15297959399011L44.832187499999996,76.54586933087558L45.3475,80.80917919254198L45.8628125,85.05875695230706L46.378125,94.06803871604748L46.8934375,100.53816211343344L47.40875,104.67666144549315L47.9240625,106.78170582944793L48.439375,111.08160519307214L48.9546875,101.91437482102108L49.47,114.84573180920312L49.9853125,113.48515721337338L50.500625,122.69210470973381L51.0159375,131.39351068829586L51.53125,108.03191583137959L52.0465625,111.75831228328337L52.56187499999999,107.60322551409315L53.077187499999994,6.1436200527740406L53.592499999999994,34.44791057812318L54.1078125,39.158242303611985L54.623125,58.57366820531234L55.1384375,66.67694032624631L55.65375,90.37698071716088L56.1690625,65.57230090722442L56.684375,90.59748177250316L57.1996875,108.18017248995602L57.715,104.24044275722866L58.230312500000004,77.50944930228538L58.745625000000004,99.48944458205786L59.260937500000004,118.97116135938892L59.776250000000005,110.90522201066571L60.291562500000005,109.06100661261007L60.806875,127.17561390317445L61.3221875,128.30977807719526L61.8375,118.5404472864632L62.3528125,130.0535967977651L62.868125,127.31745341659656L63.3834375,119.18145532719791L63.89875,129.41385820374956L64.4140625,120.27312063279429L64.92937500000001,110.75558183914316L65.4446875,124.76310584428055L65.96000000000001,107.99740895795237L66.4753125,92.97595394110041L66.99062500000001,118.51166580171724L67.5059375,115.50791201348017L68.02125000000001,99.1313060659117L68.5365625,125.44330851241415L69.05187500000001,137.3799344105646L69.5671875,124.01756162588885L70.08250000000001,137.6334263623825L70.5978125,146.64639504094208L71.11312500000001,136.10959723891156L71.6284375,141.22939728266957L72.14375000000001,146.71861368081798L72.65906249999999,136.89418890247387L73.174375,139.95335679966956L73.68968749999999,142.2888664758232L74.205,130.80187492604767L74.72031249999999,136.14891697120453L75.235625,132.6124518258231L75.75093749999999,115.9718524744468L76.26625,127.62413702572563L76.78156249999999,120.12456225064983L77.296875,97.21062214113772L77.8121875,120.75659217545763L78.3275,129.16382871385264L78.8428125,109.96219603743937L79.358125,131.92012134207678L79.8734375,146.61263143776785L80.38875,134.15557653942543L80.9040625,142.55876188698622L81.419375,152.59990513740505L81.9346875,143.8675209793395L82.45,144.9386617231981L82.9653125,153.00524131461444L83.480625,145.89577303567367L83.9959375,142.87503073873395L84.51125,151.22371450715164L85.0265625,143.26948279015986L85.541875,135.78606126464103L86.05718750000001,145.91708134277724L86.5725,137.5246071818817L87.08781250000001,120.409727818L87.603125,130.87340548900622L88.11843750000001,131.31830424918527L88.63374999999999,91.8079157772341L89.1490625,89.25630579436464L89.66437499999999,121.25751217128709L90.1796875,106.34186645836704L90.695,95.1043782220222L91.2103125,132.89751436561346L91.725625,148.6315300634929L92.2409375,141.45529992579083L92.75625,152.4871267549627L93.2715625,157.49353025091943L93.786875,153.7506199529993L94.3021875,155.6469746554337L94.8175,157.2686174082836L95.3328125,156.85500223073177L95.848125,156.47073150994922L96.3634375,157.44245801769594L96.87875,157.5025672397377L97.3940625,155.16598313331735L97.909375,155.56539522583728L98.4246875,155.37236205385332L98.94,148.3258840890734L99.4553125,148.49612977255936L99.970625,148.68215339092004L100.4859375,131.0669795556792L101.00125,126.94198419306693L101.5165625,135.0968510441349L102.031875,100.65236080437899L102.5471875,81.20091941141125L103.0625,118.97868237125554L103.57781250000001,124.6132228220813L104.093125,111.07366471185483L104.60843750000001,142.23943532444537L105.12374999999999,153.40032624962205L105.6390625,147.2292072286031L106.15437499999999,155.47832221956924L106.6696875,158.76105256245603L107.18499999999999,156.9028106980425L107.7003125,157.65514001715928L108.215625,157.46771816762964L108.7309375,156.85098783545462L109.24625,154.64761468432178L109.7615625,153.71566417377574L110.276875,156.42152849102524L110.7921875,155.06717602389733L111.3075,153.58530855371748L111.8228125,156.15425660308185L112.338125,150.14924376537758L112.8534375,146.2106951700324L113.36875,150.34702724378022L113.8840625,137.64472259840528L114.399375,128.41307056502308L114.9146875,139.77726062260834L115.43,125.4217168795211L115.9453125,109.48911556009469L116.46062500000001,132.69262198558343L116.9759375,131.73860149990236L117.49125000000001,116.84941179252097L118.0065625,146.94641865424012L118.52187500000001,152.42276028696713L119.0371875,143.79103037528694L119.55250000000001,151.12773697607088L120.0678125,158.43981999005857L120.58312500000001,157.1200590261391L121.09843749999999,157.59317629904086L121.61375,160.1848640026791L122.12906249999999,157.7158600454485L122.644375,155.91855898266658L123.15968749999999,157.6697846488761L123.675,157.5279009807855L124.19031249999999,152.097620026408L124.705625,151.83630165959974L125.22093749999999,152.37075712614958L125.73625,140.94184736322077L126.25156249999999,131.3967634155415L126.766875,133.94852793975068L127.28218749999999,133.9259281085937L127.7975,120.04450247756073L128.3128125,137.88479889011276L128.828125,126.21661865817649L129.3434375,117.15624258387834L129.85875000000001,140.72869806018258L130.3740625,148.60020968530858L130.889375,140.28163572124737L131.4046875,151.3033143357773L131.92000000000002,158.40885652877787L132.4353125,154.5336036507173L132.950625,156.97325579206725L133.4659375,159.70011197462944L133.98125000000002,156.85362975645276L134.4965625,155.69106677147957L135.011875,156.123874511603L135.5271875,154.8238543640556L136.04250000000002,154.2075398216756L136.5578125,156.25436995477813L137.073125,157.11883005453274L137.5884375,151.6219049871766L138.10375000000002,150.67936471530368L138.6190625,151.65106914571618L139.134375,142.4864770151076L139.6496875,137.69327065641326L140.16500000000002,142.90011426999365L140.6803125,135.99840474497924L141.195625,128.55216512988721L141.7109375,142.40749903139658L142.22625000000002,139.92378789000213L142.74156250000001,132.32691094379072L143.256875,146.54938723426312L143.7721875,151.8515754953426L144.28750000000002,146.08735278315308L144.80281250000002,153.8084809665036L145.31812499999998,157.0035974084333L145.83343749999997,150.28963721340654L146.34875,150.9533812288594L146.8640625,157.2638671018649L147.37937499999998,156.76300229937104L147.89468749999997,157.4716479331255L148.41,160.6933234081537L148.9253125,158.45994715977992L149.44062499999998,152.72798679203595L149.95593749999998,157.31092126025553L150.47125,157.47927933166335L150.9865625,149.68249212385024L151.50187499999998,152.87956608941647L152.0171875,154.35934357195427L152.5325,140.75380734833223L153.0478125,142.77570849151482L153.56312499999999,147.77565068764878L154.0784375,131.77084912612503L154.59375,131.3583267766184L155.1090625,143.14479000633582L155.624375,138.0196141316888L156.1396875,136.01862758314903L156.655,148.29743376434115L157.1703125,151.6164445265063L157.685625,148.5777275999343L158.2009375,155.76982766140384L158.71625,159.50818266935778L159.2315625,156.85789804107378L159.746875,158.91656530488814L160.2621875,160.12152045117026L160.7775,153.86234230295355L161.2928125,152.37337329025777L161.808125,160.66595303302165L162.3234375,162.6083555353606L162.83875,159.6177727167794L163.3540625,160.96972795336376L163.869375,158.66749617903093L164.3846875,155.23680354202432L164.9,161.64737333028046L165.4153125,160.76988392376472L165.930625,153.0612883071548L166.4459375,159.05082861310802L166.96125,157.7589697201204L167.4765625,144.76171188921268L167.991875,151.66197534883395L168.50718750000001,151.11344926125767L169.0225,129.32479823739934L169.5378125,136.97430386889857L170.053125,143.62789727298411L170.56843750000002,131.82949756455076L171.08375,136.8377003632486L171.5990625,145.07667081912848L172.11437500000002,144.06404237013442L172.62968750000002,145.36136172379236L173.145,151.7118922015652L173.6603125,152.475061491797L174.17562500000003,149.23146690341775L174.69093750000002,153.34000729290503L175.20625,159.07257846689652L175.7215625,158.46453924530317L176.23687500000003,161.5710372675676L176.75218750000002,163.75948982030553L177.26749999999998,162.66291598739502L177.78281249999998,162.07059582778518L178.298125,164.73565203245798L178.8134375,164.11601485127383L179.32874999999999,162.40345579621916L179.84406249999998,162.70425579577153L180.359375,157.37317566327485L180.8746875,155.7225306523365L181.39,163.61647652861265L181.90531249999998,165.06737685795608L182.420625,163.48576399165074L182.9359375,163.29107317982042L183.45125,162.77267345460132L183.96656249999998,160.11911586151524L184.481875,164.0038380761897L184.9971875,164.80119043894646L185.5125,161.85883923658238L186.02781249999998,163.27628320565316L186.543125,165.11817496427932L187.0584375,161.65968144412284L187.57375,160.35120751733692L188.08906249999998,164.28278335461593L188.604375,159.95452197559644L189.1196875,157.12733350777333L189.635,165.09376847126987L190.15031249999998,161.50444650814669L190.665625,156.84844158290485L191.1809375,166.75071840091343L191.69625,162.3877588115699L192.21156249999999,156.6862504468632L192.726875,167.63519344394027L193.2421875,162.6114463621551L193.7575,157.01981321043732L194.27281250000001,166.91860180963496L194.788125,162.02044716304434L195.3034375,157.71104718658273L195.81875,165.5560696901687L196.33406250000002,164.3660737776164L196.849375,162.27235690590794L197.3646875,163.6518517771869L197.88,167.28481695055962L198.39531250000002,163.4964107860911L198.910625,160.81212522328963L199.4259375,167.92808055894318L199.94125,162.67729569110088L200.45656250000002,160.1533338898194L200.971875,164.27410512247923L201.4871875,162.33754575460418L202.0025,160.25571568760952L202.51781250000002,160.54527096491904L203.033125,166.3938714088207L203.5484375,161.28268152541878L204.06375,160.00571747393613L204.57906250000002,167.77717829981285L205.094375,162.20260356835624L205.6096875,163.0928610331778L206.125,165.16211437876336L206.64031250000002,165.57081366988962L207.15562500000001,163.60989564322935L207.6709375,160.3221519056907L208.18625,163.98213973618113L208.70156250000002,159.0698666343399L209.21687500000002,160.41875496124183L209.73218749999998,166.51989619181094L210.24749999999997,165.417284207984L210.7628125,166.15927397556206L211.278125,166.7484775514874L211.79343749999998,168.330679146706L212.30874999999997,166.74764229234177L212.8240625,167.9578812806202L213.339375,166.8856550678278L213.85468749999998,163.4944403840096L214.36999999999998,155.56783109171582L214.8853125,156.0214393602551L215.400625,163.9657565143924L215.91593749999998,166.048493591869L216.43125,166.69785422406028L216.9465625,166.66252864948808L217.461875,165.24931432970334L217.97718749999999,166.24258831567465L218.4925,166.87309674419728L219.0078125,166.9532724232912L219.523125,167.85903001653162L220.0384375,167.1542681538267L220.55375,166.92687713042167L221.0690625,167.3699618696368L221.584375,166.93225112153286L222.0996875,165.7906892007616L222.615,164.8997694159126L223.1303125,164.64995334024673L223.645625,164.94431411731057L224.1609375,165.65745984769558L224.67625,166.50745929351876L225.1915625,167.44261101753054L225.706875,168.2289099949412L226.2221875,168.72347171850768L226.7375,168.89428221379475L227.2528125,169.0089831640944L227.768125,168.90356757262325L228.2834375,167.84135343091165L228.79875,163.77110617767488L229.3140625,153.5815958820084L229.829375,146.27148878943572L230.3446875,153.56546838934133L230.86,162.4250400700008L231.3753125,155.31838297162074L231.890625,161.67873786313328L232.4059375,160.8951415193899L232.92125000000001,165.95629864405575L233.4365625,166.04885050877263L233.951875,166.77775761603178L234.4671875,165.96224112652374L234.98250000000002,166.93427303739426L235.4978125,164.76679395219045L236.013125,161.01650614507628L236.52843750000002,161.16215215887806L237.04375000000002,165.01741585055632L237.5590625,167.56867259607782L238.074375,166.2984752475417L238.58968750000003,167.4919281026814L239.10500000000002,168.31720461370423L239.6203125,169.7047834688731L240.135625,169.01042187037612L240.65093750000003,167.4129942736389L241.16625000000002,164.73487380642575L241.68156249999998,160.90673395964714L242.19687499999998,158.69733369626502L242.7121875,159.61977991441796L243.2275,164.54140276731258L243.74281249999999,166.36518743230098L244.25812499999998,164.77363424625116L244.7734375,166.9939333536396L245.28875,167.67706678789443L245.8040625,167.9082735105684L246.31937499999998,166.61667402625815L246.8346875,166.45651216518934" style="fill: none;" fill="none"></path></g></g></g></g></g></g><g transform="translate(72, 177)" clip-path="url(#clip_1)"><clipPath id="clip_1"><rect width="257" height="23"></rect></clipPath><g><g><line x1="0" y1="0" x2="0" y2="5" style="visibility: inherit;" fill="rgb(0, 0, 0)" stroke="rgb(204, 204, 204)" stroke-width="1px"></line><line x1="25.765625" y1="0" x2="25.765625" y2="5" style="visibility: inherit;" fill="rgb(0, 0, 0)" stroke="rgb(204, 204, 204)" stroke-width="1px"></line><line x1="51.53125" y1="0" x2="51.53125" y2="5" style="visibility: inherit;" fill="rgb(0, 0, 0)" stroke="rgb(204, 204, 204)" stroke-width="1px"></line><line x1="77.296875" y1="0" x2="77.296875" y2="5" style="visibility: inherit;" fill="rgb(0, 0, 0)" stroke="rgb(204, 204, 204)" stroke-width="1px"></line><line x1="103.0625" y1="0" x2="103.0625" y2="5" style="visibility: inherit;" fill="rgb(0, 0, 0)" stroke="rgb(204, 204, 204)" stroke-width="1px"></line><line x1="128.828125" y1="0" x2="128.828125" y2="5" style="visibility: inherit;" fill="rgb(0, 0, 0)" stroke="rgb(204, 204, 204)" stroke-width="1px"></line><line x1="154.59375" y1="0" x2="154.59375" y2="5" style="visibility: inherit;" fill="rgb(0, 0, 0)" stroke="rgb(204, 204, 204)" stroke-width="1px"></line><line x1="180.359375" y1="0" x2="180.359375" y2="5" style="visibility: inherit;" fill="rgb(0, 0, 0)" stroke="rgb(204, 204, 204)" stroke-width="1px"></line><line x1="206.125" y1="0" x2="206.125" y2="5" style="visibility: inherit;" fill="rgb(0, 0, 0)" stroke="rgb(204, 204, 204)" stroke-width="1px"></line><line x1="231.890625" y1="0" x2="231.890625" y2="5" style="visibility: inherit;" fill="rgb(0, 0, 0)" stroke="rgb(204, 204, 204)" stroke-width="1px"></line><line x1="257.65625" y1="0" x2="257.65625" y2="5" style="visibility: inherit;" fill="rgb(0, 0, 0)" stroke="rgb(204, 204, 204)" stroke-width="1px"></line></g><g transform="translate(0, 8)"><text x="0" y="0" dx="0em" dy="0.95em" style="text-anchor: middle; visibility: hidden; font-family: Roboto, sans-serif; font-size: 12px; font-weight: 200;" fill="rgb(33, 33, 33)" stroke="none" stroke-width="1px">-50</text><text x="25.765625" y="0" dx="0em" dy="0.95em" style="text-anchor: middle; visibility: inherit; font-family: Roboto, sans-serif; font-size: 12px; font-weight: 200;" fill="rgb(33, 33, 33)" stroke="none" stroke-width="1px">0</text><text x="51.53125" y="0" dx="0em" dy="0.95em" style="text-anchor: middle; visibility: inherit; font-family: Roboto, sans-serif; font-size: 12px; font-weight: 200;" fill="rgb(33, 33, 33)" stroke="none" stroke-width="1px">50</text><text x="77.296875" y="0" dx="0em" dy="0.95em" style="text-anchor: middle; visibility: inherit; font-family: Roboto, sans-serif; font-size: 12px; font-weight: 200;" fill="rgb(33, 33, 33)" stroke="none" stroke-width="1px">100</text><text x="103.0625" y="0" dx="0em" dy="0.95em" style="text-anchor: middle; visibility: inherit; font-family: Roboto, sans-serif; font-size: 12px; font-weight: 200;" fill="rgb(33, 33, 33)" stroke="none" stroke-width="1px">150</text><text x="128.828125" y="0" dx="0em" dy="0.95em" style="text-anchor: middle; visibility: inherit; font-family: Roboto, sans-serif; font-size: 12px; font-weight: 200;" fill="rgb(33, 33, 33)" stroke="none" stroke-width="1px">200</text><text x="154.59375" y="0" dx="0em" dy="0.95em" style="text-anchor: middle; visibility: inherit; font-family: Roboto, sans-serif; font-size: 12px; font-weight: 200;" fill="rgb(33, 33, 33)" stroke="none" stroke-width="1px">250</text><text x="180.359375" y="0" dx="0em" dy="0.95em" style="text-anchor: middle; visibility: inherit; font-family: Roboto, sans-serif; font-size: 12px; font-weight: 200;" fill="rgb(33, 33, 33)" stroke="none" stroke-width="1px">300</text><text x="206.125" y="0" dx="0em" dy="0.95em" style="text-anchor: middle; visibility: inherit; font-family: Roboto, sans-serif; font-size: 12px; font-weight: 200;" fill="rgb(33, 33, 33)" stroke="none" stroke-width="1px">350</text><text x="231.890625" y="0" dx="0em" dy="0.95em" style="text-anchor: middle; visibility: inherit; font-family: Roboto, sans-serif; font-size: 12px; font-weight: 200;" fill="rgb(33, 33, 33)" stroke="none" stroke-width="1px">400</text><text x="257.65625" y="0" dx="0em" dy="0.95em" style="text-anchor: middle; visibility: hidden; font-family: Roboto, sans-serif; font-size: 12px; font-weight: 200;" fill="rgb(33, 33, 33)" stroke="none" stroke-width="1px">450</text></g><line x1="0" y1="0" x2="257.65625" y2="0" fill="rgb(0, 0, 0)" stroke="rgb(204, 204, 204)" stroke-width="1px"></line></g></g></g></g></svg>