<svg viewBox="0 0 330 200" xmlns="http://www.w3.org/2000/svg"><g><g><g><g><g><line x1="72.34375" y1="177" x2="67.34375" y2="177" style="visibility: inherit;" fill="rgb(0, 0, 0)" stroke="rgb(204, 204, 204)" stroke-width="1px"></line><line x1="72.34375" y1="154.875" x2="67.34375" y2="154.875" style="visibility: inherit;" fill="rgb(0, 0, 0)" stroke="rgb(204, 204, 204)" stroke-width="1px"></line><line x1="72.34375" y1="132.75" x2="67.34375" y2="132.75" style="visibility: inherit;" fill="rgb(0, 0, 0)" stroke="rgb(204, 204, 204)" stroke-width="1px"></line><line x1="72.34375" y1="110.625" x2="67.34375" y2="110.625" style="visibility: inherit;" fill="rgb(0, 0, 0)" stroke="rgb(204, 204, 204)" stroke-width="1px"></line><line x1="72.34375" y1="88.5" x2="67.34375" y2="88.5" style="visibility: inherit;" fill="rgb(0, 0, 0)" stroke="rgb(204, 204, 204)" stroke-width="1px"></line><line x1="72.34375" y1="66.375" x2="67.34375" y2="66.375" style="visibility: inherit;" fill="rgb(0, 0, 0)" stroke="rgb(204, 204, 204)" stroke-width="1px"></line><line x1="72.34375" y1="44.25" x2="67.34375" y2="44.25" style="visibility: inherit;" fill="rgb(0, 0, 0)" stroke="rgb(204, 204, 204)" stroke-width="1px"></line><line x1="72.34375" y1="22.125" x2="67.34375" y2="22.125" style="visibility: inherit;" fill="rgb(0, 0, 0)" stroke="rgb(204, 204, 204)" stroke-width="1px"></line><line x1="72.34375" y1="0" x2="67.34375" y2="0" style="visibility: inherit;" fill="rgb(0, 0, 0)" stroke="rgb(204, 204, 204)" stroke-width="1px"></line></g><g transform="translate(62.34375, 0)"><text x="0" y="177" dx="0em" dy="0.3em" style="text-anchor: end; visibility: hidden; font-family: Roboto, sans-serif; font-size: 12px; font-weight: 200;" fill="rgb(33, 33, 33)" stroke="none" stroke-width="1px">-5e-4</text><text x="0" y="154.875" dx="0em" dy="0.3em" style="text-anchor: end; visibility: inherit; font-family: Roboto, sans-serif; font-size: 12px; font-weight: 200;" fill="rgb(33, 33, 33)" stroke="none" stroke-width="1px">0</text><text x="0" y="132.75" dx="0em" dy="0.3em" style="text-anchor: end; visibility: hidden; font-family: Roboto, sans-serif; font-size: 12px; font-weight: 200;" fill="rgb(33, 33, 33)" stroke="none" stroke-width="1px">5e-4</text><text x="0" y="110.625" dx="0em" dy="0.3em" style="text-anchor: end; visibility: inherit; font-family: Roboto, sans-serif; font-size: 12px; font-weight: 200;" fill="rgb(33, 33, 33)" stroke="none" stroke-width="1px">1e-3</text><text x="0" y="88.5" dx="0em" dy="0.3em" style="text-anchor: end; visibility: hidden; font-family: Roboto, sans-serif; font-size: 12px; font-weight: 200;" fill="rgb(33, 33, 33)" stroke="none" stroke-width="1px">1.5e-3</text><text x="0" y="66.375" dx="0em" dy="0.3em" style="text-anchor: end; visibility: inherit; font-family: Roboto, sans-serif; font-size: 12px; font-weight: 200;" fill="rgb(33, 33, 33)" stroke="none" stroke-width="1px">2e-3</text><text x="0" y="44.25" dx="0em" dy="0.3em" style="text-anchor: end; visibility: hidden; font-family: Roboto, sans-serif; font-size: 12px; font-weight: 200;" fill="rgb(33, 33, 33)" stroke="none" stroke-width="1px">2.5e-3</text><text x="0" y="22.125" dx="0em" dy="0.3em" style="text-anchor: end; visibility: inherit; font-family: Roboto, sans-serif; font-size: 12px; font-weight: 200;" fill="rgb(33, 33, 33)" stroke="none" stroke-width="1px">3e-3</text><text x="0" y="0" dx="0em" dy="0.3em" style="text-anchor: end; visibility: hidden; font-family: Roboto, sans-serif; font-size: 12px; font-weight: 200;" fill="rgb(33, 33, 33)" stroke="none" stroke-width="1px">3.5e-3</text></g><line x1="72.34375" y1="0" x2="72.34375" y2="177" fill="rgb(0, 0, 0)" stroke="rgb(204, 204, 204)" stroke-width="1px"></line></g></g><g transform="translate(72, 0)" clip-path="url(#clip_0)"><clipPath id="clip_0"><rect width="257" height="177"></rect></clipPath><g><g><g><line x1="0" y1="0" x2="0" y2="177" fill="rgb(0, 0, 0)" stroke="rgb(66, 66, 66)" stroke-width="1px" opacity="0.25"></line><line x1="25.765625" y1="0" x2="25.765625" y2="177" fill="rgb(0, 0, 0)" stroke="rgb(66, 66, 66)" stroke-width="1px" opacity="0.25"></line><line x1="51.53125" y1="0" x2="51.53125" y2="177" fill="rgb(0, 0, 0)" stroke="rgb(66, 66, 66)" stroke-width="1px" opacity="0.25"></line><line x1="77.296875" y1="0" x2="77.296875" y2="177" fill="rgb(0, 0, 0)" stroke="rgb(66, 66, 66)" stroke-width="1px" opacity="0.25"></line><line x1="103.0625" y1="0" x2="103.0625" y2="177" fill="rgb(0, 0, 0)" stroke="rgb(66, 66, 66)" stroke-width="1px" opacity="0.25"></line><line x1="128.828125" y1="0" x2="128.828125" y2="177" fill="rgb(0, 0, 0)" stroke="rgb(66, 66, 66)" stroke-width="1px" opacity="0.25"></line><line x1="154.59375" y1="0" x2="154.59375" y2="177" fill="rgb(0, 0, 0)" stroke="rgb(66, 66, 66)" stroke-width="1px" opacity="0.25"></line><line x1="180.359375" y1="0" x2="180.359375" y2="177" fill="rgb(0, 0, 0)" stroke="rgb(66, 66, 66)" stroke-width="1px" opacity="0.25"></line><line x1="206.125" y1="0" x2="206.125" y2="177" fill="rgb(0, 0, 0)" stroke="rgb(66, 66, 66)" stroke-width="1px" opacity="0.25"></line><line x1="231.890625" y1="0" x2="231.890625" y2="177" fill="rgb(0, 0, 0)" stroke="rgb(66, 66, 66)" stroke-width="1px" opacity="0.25"></line><line x1="257.65625" y1="0" x2="257.65625" y2="177" fill="rgb(0, 0, 0)" stroke="rgb(66, 66, 66)" stroke-width="1px" opacity="0.25"></line></g><g><line x1="0" y1="177" x2="257.65625" y2="177" fill="rgb(0, 0, 0)" stroke="rgb(66, 66, 66)" stroke-width="1px" opacity="0.25"></line><line x1="0" y1="154.875" x2="257.65625" y2="154.875" fill="rgb(0, 0, 0)" stroke="rgb(66, 66, 66)" stroke-width="1px" opacity="0.25"></line><line x1="0" y1="132.75" x2="257.65625" y2="132.75" fill="rgb(0, 0, 0)" stroke="rgb(66, 66, 66)" stroke-width="1px" opacity="0.25"></line><line x1="0" y1="110.625" x2="257.65625" y2="110.625" fill="rgb(0, 0, 0)" stroke="rgb(66, 66, 66)" stroke-width="1px" opacity="0.25"></line><line x1="0" y1="88.5" x2="257.65625" y2="88.5" fill="rgb(0, 0, 0)" stroke="rgb(66, 66, 66)" stroke-width="1px" opacity="0.25"></line><line x1="0" y1="66.375" x2="257.65625" y2="66.375" fill="rgb(0, 0, 0)" stroke="rgb(66, 66, 66)" stroke-width="1px" opacity="0.25"></line><line x1="0" y1="44.25" x2="257.65625" y2="44.25" fill="rgb(0, 0, 0)" stroke="rgb(66, 66, 66)" stroke-width="1px" opacity="0.25"></line><line x1="0" y1="22.125" x2="257.65625" y2="22.125" fill="rgb(0, 0, 0)" stroke="rgb(66, 66, 66)" stroke-width="1px" opacity="0.25"></line><line x1="0" y1="0" x2="257.65625" y2="0" fill="rgb(0, 0, 0)" stroke="rgb(66, 66, 66)" stroke-width="1px" opacity="0.25"></line></g></g></g><g><g><line x1="0" y1="154.875" x2="257.65625" y2="154.875" fill="rgb(0, 0, 0)" stroke="rgb(153, 153, 153)" stroke-width="1.5px"></line></g></g><g><g><line x1="25.765625" y1="0" x2="25.765625" y2="177" fill="rgb(0, 0, 0)" stroke="rgb(153, 153, 153)" stroke-width="1.5px"></line></g></g><g><g><g><g><g><path stroke="rgb(51, 187, 238)" stroke-width="2px" d="M32.464687500000004,-10.447149057155658L32.980000000000004,31.312541873531654L33.495312500000004,58.9714979517892L34.010625000000005,76.47772645071481L34.525937500000005,85.40585066480675L35.041250000000005,86.19674844081494L35.556562500000005,80.29144523142871L36.071875000000006,73.27029609952558L36.5871875,71.85751598575561L37.1025,79.45922908965808L37.6178125,93.62071615728242L38.133125,105.86070745960586L38.6484375,112.1795725459646L39.16375,117.1712105740413L39.6790625,121.18149849896668L40.194375,123.21250498324787L40.7096875,124.93881492831567L41.225,125.38649144422033L41.7403125,125.57165734897363L42.255625,125.36677546244952L42.7709375,125.0867931806632L43.28625,125.10991891319537L43.8015625,125.8203873879056L44.316874999999996,127.63292077836593L44.832187499999996,130.62455599231996L45.3475,132.53597525598275L45.8628125,129.2393475722102L46.378125,125.89358429147082L46.8934375,127.94631985628386L47.40875,129.64440919926452L47.9240625,123.25104391889005L48.439375,105.57653703191428L48.9546875,83.35087225945885L49.47,91.82179835788699L49.9853125,104.96788016582988L50.500625,117.9792381598532L51.0159375,127.34899237162061L51.53125,113.11122671135278L52.0465625,105.76526127022908L52.56187499999999,71.29629235995445L53.077187499999994,27.61814175039505L53.592499999999994,23.19614043080511L54.1078125,21.156184401697356L54.623125,18.134116114875862L55.1384375,-1.062445766212468L55.65375,13.093194853377355L56.1690625,18.758629310049113L56.684375,-13.025205715125207L57.1996875,-1.8240851012245423L57.715,27.330646785971055L58.230312500000004,29.11892285611573L58.745625000000004,43.91164004436196L59.260937500000004,76.16018190857848L59.776250000000005,87.57657951676599L60.291562500000005,89.69962284649537L60.806875,103.6210317259513L61.3221875,108.33794277316042L61.8375,107.25915887467241L62.3528125,116.68081316750302L62.868125,117.06241094792891L63.3834375,109.54379190331329L63.89875,115.75437718069554L64.4140625,111.95457540526093L64.92937500000001,96.11160650129825L65.4446875,101.43010220505721L65.96000000000001,94.24318819483624L66.4753125,72.32730171823802L66.99062500000001,83.25073613781811L67.5059375,86.75179141226981L68.02125000000001,80.82226493355526L68.5365625,95.03388125313458L69.05187500000001,106.39839900743596L69.5671875,111.22834909763603L70.08250000000001,119.04893886988299L70.5978125,124.86028433288226L71.11312500000001,126.96456169467285L71.6284375,129.49109082109214L72.14375000000001,130.19195624095713L72.65906249999999,128.36286460317308L73.174375,128.4858782151953L73.68968749999999,125.95371758715753L74.205,118.40400795803335L74.72031249999999,117.44120647763977L75.235625,112.49452240340126L75.75093749999999,95.40563497185909L76.26625,95.43307447390377L76.78156249999999,90.7870589244388L77.296875,68.47519538726046L77.8121875,78.1309966935069L78.3275,87.86864239925L78.8428125,86.89387352355259L79.358125,100.57761319122537L79.8734375,113.1739132995323L80.38875,119.55024027645084L80.9040625,124.75931435869519L81.419375,129.3277112970565L81.9346875,133.0007934313343L82.45,133.3443137298989L82.9653125,133.42228074527526L83.480625,135.29687443862497L83.9959375,132.43241229586945L84.51125,129.5833197147326L85.0265625,130.69861198457264L85.541875,123.96086201793511L86.05718750000001,117.50714253815822L86.5725,119.24194779966025L87.08781250000001,106.99302268999813L87.603125,93.5394310041882L88.11843750000001,99.40539445189341L88.63374999999999,80.93354206469778L89.1490625,52.958345128593564L89.66437499999999,69.60487887583537L90.1796875,73.51690950697581L90.695,67.8862670921887L91.2103125,90.43668338383615L91.725625,109.65959167691638L92.2409375,122.16137124149637L92.75625,131.01686864445105L93.2715625,136.46359936678712L93.786875,141.85603839495528L94.3021875,143.95732510894814L94.8175,144.1340434710712L95.3328125,146.64388234815465L95.848125,146.64329711952655L96.3634375,145.05112845701782L96.87875,146.60529220003446L97.3940625,145.1344521341387L97.909375,141.57350353212138L98.4246875,142.38184014162076L98.94,138.0733705262506L99.4553125,129.43758937819908L99.970625,128.8588532278466L100.4859375,118.90803869706558L101.00125,96.55503054345945L101.5165625,94.8354113046694L102.031875,78.15335779938805L102.5471875,38.51383632975047L103.0625,52.95949682478444L103.57781250000001,70.47127132821805L104.093125,80.53613968299317L104.60843750000001,102.42749303298211L105.12374999999999,118.45744850229372L105.6390625,129.1933045494192L106.15437499999999,135.26402482317155L106.6696875,138.8876078377856L107.18499999999999,143.44775062464237L107.7003125,144.4292770818601L108.215625,143.92346099848086L108.7309375,146.0487816789104L109.24625,144.76247456242294L109.7615625,141.89012988875226L110.276875,143.59278919539176L110.7921875,142.72918958067382L111.3075,138.57502753318911L111.8228125,138.7820852141846L112.338125,136.00354923321046L112.8534375,127.75722161055052L113.36875,125.63801990456024L113.8840625,119.57473034546013L114.399375,102.93141876912257L114.9146875,100.59938839258562L115.43,95.26776687089686L115.9453125,78.36171892268412L116.46062500000001,86.66925050922752L116.9759375,94.55485658039761L117.49125000000001,98.46874598918177L118.0065625,114.2911109655863L118.52187500000001,126.76103556257908L119.0371875,131.95812262739568L119.55250000000001,134.61933121735538L120.0678125,140.04673154237912L120.58312500000001,143.538281659171L121.09843749999999,142.16604818236212L121.61375,142.7278543971673L122.12906249999999,144.6695583711029L122.644375,142.9165780563117L123.15968749999999,141.6305510436776L123.675,142.075362174756L124.19031249999999,138.90782823773554L124.705625,134.3099788764668L125.22093749999999,132.51526207726573L125.73625,128.2835478179239L126.25156249999999,116.31829703294231L126.766875,109.44511574854624L127.28218749999999,106.23355311000822L127.7975,104.10363062853426L128.3128125,106.67716258993632L128.828125,103.1755399935671L129.3434375,93.6422736614259L129.85875000000001,102.90570049000527L130.3740625,116.83558240605664L130.889375,125.00157121174871L131.4046875,128.4318946462696L131.92000000000002,135.40916041351792L132.4353125,140.36509711036373L132.950625,140.33680513164165L133.4659375,142.81966567162087L133.98125000000002,144.34787283438706L134.4965625,142.88175215879818L135.011875,143.21533178271014L135.5271875,142.1642155095976L136.04250000000002,140.02360731301144L136.5578125,139.97803341099024L137.073125,139.39913154343586L137.5884375,136.56045575722015L138.10375000000002,132.27863530737096L138.6190625,129.71036725794002L139.134375,126.42476554778425L139.6496875,118.21596975124453L140.16500000000002,113.90332917336195L140.6803125,111.96661113301928L141.195625,106.24944135159262L141.7109375,106.49498148849614L142.22625000000002,108.39165996199702L142.74156250000001,108.44437679153818L143.256875,114.28644187749705L143.7721875,122.63031258043667L144.28750000000002,128.6424333127075L144.80281250000002,131.75407313061038L145.31812499999998,137.24220504400049L145.83343749999997,139.9533346968575L146.34875,139.05173471562728L146.8640625,141.88101226361752L147.37937499999998,143.49323514053071L147.89468749999997,141.36098910826036L148.41,141.82654354425944L148.9253125,143.9823434248307L149.44062499999998,141.62372971508958L149.95593749999998,140.12921120808736L150.47125,140.58397184685037L150.9865625,137.24072057325492L151.50187499999998,133.20342898652018L152.0171875,132.6255358323682L152.5325,127.46617862626411L153.0478125,118.99523942608832L153.56312499999999,118.33504633769475L154.0784375,113.75423227013697L154.59375,103.84680789809106L155.1090625,106.78422939194772L155.624375,110.04002967788522L156.1396875,110.1470231352448L156.655,116.71030689212006L157.1703125,124.32696889430923L157.685625,129.6859856629326L158.2009375,133.43684077036852L158.71625,138.31769585990705L159.2315625,141.7693037887279L159.746875,142.32408999157258L160.2621875,144.62170809688024L160.7775,144.90790787888818L161.2928125,143.85811059041023L161.808125,145.87995606702705L162.3234375,147.41856759520684L162.83875,145.96725885615388L163.3540625,144.9534806321767L163.869375,145.61888675464806L164.3846875,143.92090863242854L164.9,142.78461110005873L165.4153125,142.67043767969554L165.930625,140.0745619819218L166.4459375,137.01995597000408L166.96125,136.2385695506857L167.4765625,131.9214785568439L167.991875,125.18259981581147L168.50718750000001,124.08277716708825L169.0225,117.60779586501879L169.5378125,105.93255123452747L170.053125,106.59985653303654L170.56843750000002,106.89839078760946L171.08375,102.16318946189391L171.5990625,107.42580441141774L172.11437500000002,113.95470507054567L172.62968750000002,119.11282903495976L173.145,124.68936739738912L173.6603125,131.00135341010264L174.17562500000003,134.7987689576292L174.69093750000002,135.94300127370434L175.20625,139.70445845720542L175.7215625,143.11316465921763L176.23687500000003,143.85581635060757L176.75218750000002,145.6619362611894L177.26749999999998,147.209703449016L177.78281249999998,146.86213678043083L178.298125,148.01579291851434L178.8134375,148.69943737445084L179.32874999999999,147.97591547657967L179.84406249999998,148.69376868073408L180.359375,147.33480972472933L180.8746875,145.9184933972445L181.39,147.64010587697948L181.90531249999998,148.8314434662374L182.420625,148.2075110589102L182.9359375,148.04666799002945L183.45125,148.54256340571862L183.96656249999998,147.06026710561494L184.481875,147.22778518462658L184.9971875,147.65057267836312L185.5125,146.36302062036572L186.02781249999998,146.5107377315049L186.543125,146.86408752551955L187.0584375,145.54047677423637L187.57375,145.3986164400018L188.08906249999998,145.7666035993661L188.604375,144.49057441604418L189.1196875,144.32241887680684L189.635,144.47285458864621L190.15031249999998,143.59039882442434L190.665625,143.7869404895463L191.1809375,143.95510456004408L191.69625,143.49738370948236L192.21156249999999,143.85317864064683L192.726875,144.55415857362894L193.2421875,144.7349086769206L193.7575,145.04065806135822L194.27281250000001,146.28090078110375L194.788125,146.88429453940057L195.3034375,147.0979891380654L195.81875,148.25631819675033L196.33406250000002,148.80809753619772L196.849375,149.0276627905477L197.3646875,149.6431263816848L197.88,149.53931228444415L198.39531250000002,149.23903376888745L198.910625,149.24524248498648L199.4259375,149.22834674854857L199.94125,149.11701409202033L200.45656250000002,148.94300917073596L200.971875,149.02120556819332L201.4871875,148.7494395889179L202.0025,148.63169564326247L202.51781250000002,148.77416538931496L203.033125,148.1578433322794L203.5484375,148.17529721145263L204.06375,148.60742038783187L204.57906250000002,148.59275972380928L205.094375,148.5607550797025L205.6096875,149.18860052704295L206.125,149.60796056128916L206.64031250000002,149.03655946520084L207.15562500000001,149.45223294467155L207.6709375,149.19557570372075L208.18625,148.72727595512376L208.70156250000002,149.13545672606077L209.21687500000002,149.77570898037465L209.73218749999998,150.1566863114139L210.24749999999997,150.4507010058214L210.7628125,151.36648420784127L211.278125,151.87975198312367L211.79343749999998,151.4717710442991L212.30874999999997,151.8144975272132L212.8240625,152.3728614040085L213.339375,152.0959400690555L213.85468749999998,150.6217925114398L214.36999999999998,146.18433135110394L214.8853125,143.11551086815803L215.400625,145.55886846493064L215.91593749999998,148.51657057423685L216.43125,149.71665408065402L216.9465625,150.2829226730327L217.461875,151.23601564939213L217.97718749999999,151.17591918582096L218.4925,151.3019237880546L219.0078125,151.9813349534431L219.523125,152.2698878463971L220.0384375,152.43558492027643L220.55375,152.53788342882316L221.0690625,152.49265875874866L221.584375,152.55296743903847L222.0996875,152.18085674577833L222.615,151.36133558449856L223.1303125,151.0118376238461L223.645625,151.06114330725833L224.1609375,151.22777771212307L224.67625,151.48753143425466L225.1915625,151.89880135162676L225.706875,152.26487256471358L226.2221875,152.60326060812375L226.7375,152.82604291589556L227.2528125,152.7284838133127L227.768125,151.90830810090551L228.2834375,149.6122662126782L228.79875,143.31549467822518L229.3140625,127.27077112743245L229.829375,109.29999661739312L230.3446875,116.18027798644464L230.86,125.8566709898601L231.3753125,132.82346975887862L231.890625,138.34480738368052L232.4059375,142.2749838082344L232.92125000000001,146.31990130292317L233.4365625,148.22601335698312L233.951875,149.38280217943736L234.4671875,147.5276661057753L234.98250000000002,146.9646854357928L235.4978125,147.20505730636523L236.013125,144.22252045459737L236.52843750000002,139.77358503190615L237.04375000000002,140.95804692391008L237.5590625,144.59502768875947L238.074375,147.35917041012127L238.58968750000003,148.9901045416766L239.10500000000002,148.8715468158301L239.6203125,150.11454287207545L240.135625,151.2357475632586L240.65093750000003,150.92473297249165L241.16625000000002,146.00777195634566L241.68156249999998,137.34310734919237L242.19687499999998,131.54871038270159L242.7121875,132.79007764172445L243.2275,137.92173808700275L243.74281249999999,143.020862301059L244.25812499999998,145.84970667480042L244.7734375,147.98332806050925L245.28875,149.6003598015117L245.8040625,150.8363524097735L246.31937499999998,150.22624203724433L246.8346875,149.95388749280056" style="fill: none;" fill="none"></path></g></g></g></g><g opacity="0.2"><g><g><g><path stroke="rgb(51, 187, 238)" stroke-width="2px" d="M29.888125000000002,-52.32856784295291L30.4034375,6.382521641906351L30.91875,33.964689056854695L31.4340625,55.72274972638115L31.949375,69.24145432258956L32.464687500000004,84.20990092400461L32.980000000000004,93.90299132047221L33.495312500000004,100.44042483041994L34.010625000000005,102.72966114990413L34.525937500000005,98.79577013617381L35.041250000000005,87.38297461951151L35.556562500000005,71.4340301854536L36.071875000000006,62.73895745817572L36.5871875,69.7383923032321L37.1025,90.86164866294712L37.6178125,114.86277900240384L38.133125,124.22060741647147L38.6484375,121.65784322842956L39.16375,124.6586548439227L39.6790625,127.19692422961816L40.194375,126.25901283882558L40.7096875,127.52827889181208L41.225,126.05800606962293L41.7403125,125.84940616926178L42.255625,125.05945265712216L42.7709375,124.66681977803819L43.28625,125.14460751099978L43.8015625,126.88609008165076L44.316874999999996,130.35172083601356L44.832187499999996,135.1120087854797L45.3475,135.4031041408307L45.8628125,124.29440605756827L46.378125,120.8749393770704L46.8934375,131.02542320103385L47.40875,132.1915432125097L47.9240625,113.66099600109737L48.439375,79.06477670604363L48.9546875,50.01237510424107L49.47,104.5281875047367L49.9853125,124.68700287700631L50.500625,137.49627515044995L51.0159375,141.40362368908245L51.53125,91.75457822112367L52.0465625,94.74631310859695L52.56187499999999,19.59283899469301L53.077187499999994,-37.899084163829684L53.592499999999994,16.56313845142722L54.1078125,18.09625035803765L54.623125,13.601013684645295L55.1384375,-29.85728858783841L55.65375,34.32665578275919L56.1690625,27.256780995056033L56.684375,-60.70095825288445L57.1996875,14.977595819626004L57.715,71.06274461676367L58.230312500000004,31.80133696133271L58.745625000000004,66.10071582673118L59.260937500000004,124.5329947049031L59.776250000000005,104.70117592904717L60.291562500000005,92.88418784108944L60.806875,124.50314504513517L61.3221875,115.4133093439741L61.8375,105.64098302694038L62.3528125,130.81329460674897L62.868125,117.63480761856772L63.3834375,98.26586333638988L63.89875,125.07025509676896L64.4140625,106.254872742109L64.92937500000001,72.34715314535424L65.4446875,109.40784576069564L65.96000000000001,83.46281717950478L66.4753125,39.45347200334072L66.99062500000001,99.63588776718825L67.5059375,92.00337432394736L68.02125000000001,71.92797521548346L68.5365625,116.35130573250353L69.05187500000001,123.44517563888803L69.5671875,118.47327423293609L70.08250000000001,130.77982352825347L70.5978125,133.5773025273811L71.11312500000001,130.12097773735877L71.6284375,133.28088451072108L72.14375000000001,131.24325437075458L72.65906249999999,125.619227146497L73.174375,128.67039863322861L73.68968749999999,122.15547664510086L74.205,107.07944351434708L74.72031249999999,115.99700425704941L75.235625,105.07449629204348L75.75093749999999,69.77230382454582L76.26625,95.47423372697085L76.78156249999999,83.81803560024127L77.296875,35.00740008149296L77.8121875,92.61469865287654L78.3275,102.47511095786467L78.8428125,85.43172021000646L79.358125,121.10322269273456L79.8734375,132.0683634619927L80.38875,129.11473074182868L80.9040625,132.5729254820617L81.419375,136.18030670459848L81.9346875,138.510416632751L82.45,133.85959417774575L82.9653125,133.5392312683398L83.480625,138.10876497864956L83.9959375,128.13571908173617L84.51125,125.30968084302731L85.0265625,132.3715503893327L85.541875,113.85423706797883L86.05718750000001,107.82656331849284L86.5725,121.84415569191333L87.08781250000001,88.61963502550498L87.603125,73.3590434754733L88.11843750000001,108.20433962345123L88.63374999999999,53.2257634839043L89.1490625,10.995549724437296L89.66437499999999,94.57467949669808L90.1796875,79.38495545368642L90.695,59.440303470008075L91.2103125,124.26230782130733L91.725625,138.49395411653677L92.2409375,140.91404058836633L92.75625,144.30011474888306L93.2715625,144.63369545029127L93.786875,149.94469693720748L94.3021875,147.10925517993746L94.8175,144.3991210142558L95.3328125,150.4086406637798L95.848125,146.6424192765844L96.3634375,142.66287546325475L96.87875,148.93653781455941L97.3940625,142.92819203529507L97.909375,136.23208062909544L98.4246875,143.59434505586978L98.94,131.6106661031954L99.4553125,116.48391765612178L99.970625,127.9907490023179L100.4859375,103.98181690089405L101.00125,63.02551831305027L101.5165625,92.25598244648427L102.031875,53.13027754146606L102.5471875,-20.94544587470591L103.0625,74.62798756733537L103.57781250000001,96.73893308336847L104.093125,95.63344221515581L104.60843750000001,135.26452305796556L105.12374999999999,142.50238170626108L105.6390625,145.2970886201074L106.15437499999999,144.37010523380013L106.6696875,144.32298235970666L107.18499999999999,150.28796480492747L107.7003125,145.90156676768675L108.215625,143.16473687341204L108.7309375,149.23676269955467L109.24625,142.83301388769178L109.7615625,137.58161287824623L110.276875,146.14677815535106L110.7921875,141.43379015859682L111.3075,132.34378446196206L111.8228125,139.09267173567787L112.338125,131.83574526174925L112.8534375,115.38773017656058L113.36875,122.45921734557487L113.8840625,110.47979600680992L114.399375,77.96645140461624L114.9146875,97.10134282778017L115.43,87.27033458836377L115.9453125,53.00264700036496L116.46062500000001,99.13054788904265L116.9759375,106.38326568715274L117.49125000000001,104.33958010235801L118.0065625,138.02465843019309L118.52187500000001,145.46592245806823L119.0371875,139.7537532246206L119.55250000000001,138.61114410229493L120.0678125,148.18783202991472L120.58312500000001,148.77560683435877L121.09843749999999,140.10769796714885L121.61375,143.57056371937506L122.12906249999999,147.5821143320063L122.644375,140.2871075841249L123.15968749999999,139.70151052472647L123.675,142.74257887137355L124.19031249999999,134.15652733220486L124.705625,127.41320483456366L125.22093749999999,129.82318687846418L125.73625,121.93597642891109L126.25156249999999,98.37042085547L126.766875,99.13534382195212L127.28218749999999,101.41620915220119L127.7975,100.90874690632336L128.3128125,110.5374605320394L128.828125,97.92310609901324L129.3434375,79.34237416321412L129.85875000000001,116.80084073287435L130.3740625,137.7304052801337L130.889375,137.2505544202868L131.4046875,133.57737979805097L131.92000000000002,145.87505906439037L132.4353125,147.79900215563248L132.950625,140.2943671635585L133.4659375,146.5439564815897L133.98125000000002,146.64018357853638L134.4965625,140.68257114541484L135.011875,143.71570121857803L135.5271875,140.58754109992879L136.04250000000002,136.81269501813222L136.5578125,139.9096725579584L137.073125,138.5307787421043L137.5884375,132.30244207789656L138.10375000000002,125.85590463259723L138.6190625,125.85796518379357L139.134375,121.49636298255064L139.6496875,105.90277605643496L140.16500000000002,107.43436830653809L140.6803125,109.06153407250531L141.195625,97.67368667945266L141.7109375,106.86329169385135L142.22625000000002,111.23667767224833L142.74156250000001,108.52345203584991L143.256875,123.0495395064354L143.7721875,135.14611863484606L144.28750000000002,137.66061441111378L144.80281250000002,136.42153285746463L145.31812499999998,145.47440291408566L145.83343749999997,144.020029176143L146.34875,137.69933474378195L146.8640625,146.1249285856029L147.37937499999998,145.91156945590046L147.89468749999997,138.16262005985482L148.41,142.5248751982581L148.9253125,147.21604324568762L149.44062499999998,138.08580915047787L149.95593749999998,137.88743344758404L150.47125,141.26611280499492L150.9865625,132.22584366286173L151.50187499999998,127.14749160641804L152.0171875,131.75869610114023L152.5325,119.72714281710796L153.0478125,106.28883062582463L153.56312499999999,117.34475670510437L154.0784375,106.8830111688003L154.59375,88.98567134002224L155.1090625,111.19036163273267L155.624375,114.92373010679148L156.1396875,110.3075133212842L156.655,126.55523252743296L157.1703125,135.751961897593L157.685625,137.7245108158677L158.2009375,139.0631234315224L158.71625,145.63897849421483L159.2315625,146.94671568195918L159.746875,143.1562692958396L160.2621875,148.06813525484176L160.7775,145.33720755190006L161.2928125,142.28341465769336L161.808125,148.91272428195225L162.3234375,149.72648488747654L162.83875,143.79029574757442L163.3540625,143.43281329621095L163.869375,146.6169959383551L164.3846875,141.37394144909922L164.9,141.080164801504L165.4153125,142.49917754915077L165.930625,136.1807484352612L166.4459375,132.43804695212748L166.96125,135.06648992170813L167.4765625,125.44584206608124L167.991875,115.07428170426283L168.50718750000001,122.4330431940034L169.0225,107.8953239119146L169.5378125,88.41968428879045L170.053125,107.60081448080018L170.56843750000002,107.34619216946885L171.08375,95.06038747332059L171.5990625,115.31972683570348L172.11437500000002,123.74805605923757L172.62968750000002,126.8500149815809L173.145,133.05417494103312L173.6603125,140.46933242917294L174.17562500000003,140.494892278919L174.69093750000002,137.65934974781703L175.20625,145.34664423245704L175.7215625,148.22622396223596L176.23687500000003,144.9697938876925L176.75218750000002,148.37111612706212L177.26749999999998,149.53135423075582L177.78281249999998,146.34078677755315L178.298125,149.7462771256396L178.8134375,149.7249040583556L179.32874999999999,146.89063262977288L179.84406249999998,149.7705484869657L180.359375,145.29637129072216L180.8746875,143.7940189060173L181.39,150.22252459658193L181.90531249999998,150.6184498501243L182.420625,147.27161244791932L182.9359375,147.80540338670835L183.45125,149.28640652925242L183.96656249999998,144.8368226554594L184.481875,147.47906230314402L184.9971875,148.2847539189679L185.5125,144.43169253336964L186.02781249999998,146.7323133982136L186.543125,147.39411221654154L187.0584375,143.55506064731162L187.57375,145.18582593864994L188.08906249999998,146.31858433841262L188.604375,142.57653064106125L189.1196875,144.07018556795083L189.635,144.6985081564053L190.15031249999998,142.26671517809154L190.665625,144.08175298722927L191.1809375,144.20735066579073L191.69625,142.81080243363976L192.21156249999999,144.38687103739358L192.726875,145.60562847310212L193.2421875,145.00603383185808L193.7575,145.49928213801468L194.27281250000001,148.141264860722L194.788125,147.78938517684583L195.3034375,147.41853103606263L195.81875,149.9938117847778L196.33406250000002,149.63576654536882L196.849375,149.35701067207265L197.3646875,150.56632176839048L197.88,149.38359113858314L198.39531250000002,148.7886159955524L198.910625,149.25455555913504L199.4259375,149.2030031438917L199.94125,148.95001510722796L200.45656250000002,148.68200178880943L200.971875,149.13850016437937L201.4871875,148.34179062000476L202.0025,148.45507972477935L202.51781250000002,148.98787000839366L203.033125,147.23336024672608L203.5484375,148.20147803021246L204.06375,149.25560515240068L204.57906250000002,148.57076872777543L205.094375,148.51274811354233L205.6096875,150.13036869805364L206.125,150.23700061265845L206.64031250000002,148.17945782106835L207.15562500000001,150.07574316387763L207.6709375,148.81058984229458L208.18625,148.02482633222826L208.70156250000002,149.74772788246628L209.21687500000002,150.73608736184542L209.73218749999998,150.72815230797278L210.24749999999997,150.8917230474326L210.7628125,152.74015901087114L211.278125,152.64965364604723L211.79343749999998,150.85979963606223L212.30874999999997,152.3285872515844L212.8240625,153.21040721920144L213.339375,151.68055806662596L213.85468749999998,148.41057117501623L214.36999999999998,139.5281396106002L214.8853125,138.5122801437392L215.400625,149.22390486008953L215.91593749999998,152.95312373819615L216.43125,151.51677934027975L216.9465625,151.13232556160074L217.461875,152.66565511393128L217.97718749999999,151.08577449046425L218.4925,151.49093069140508L219.0078125,153.0004517015259L219.523125,152.70271718582808L220.0384375,152.68413053109543L220.55375,152.69133119164326L221.0690625,152.42482175363693L221.584375,152.64343045947317L222.0996875,151.6226907058881L222.615,150.1320538425789L223.1303125,150.48759068286745L223.645625,151.13510183237668L224.1609375,151.47772931942018L224.67625,151.87716201745206L225.1915625,152.51570622768486L225.706875,152.81397938434384L226.2221875,153.11084267323895L226.7375,153.1602163775533L227.2528125,152.58214515943837L227.768125,150.67804453229473L228.2834375,146.16820338033722L228.79875,133.87033737654565L229.3140625,103.20368580124341L229.829375,82.34383485233411L230.3446875,126.50070004002191L230.86,140.3712604949833L231.3753125,143.27366791240638L231.890625,146.6268138208834L232.4059375,148.17024844506523L232.92125000000001,152.3872775449563L233.4365625,151.08518143807305L233.951875,151.11798541311873L234.4671875,144.7449619952822L234.98250000000002,146.12021443081903L235.4978125,147.5656151122239L236.013125,139.74871517694555L236.52843750000002,133.10018189786933L237.04375000000002,142.734739761916L237.5590625,150.0504988360335L238.074375,151.505384492164L238.58968750000003,151.4365057390096L239.10500000000002,148.69371022706036L239.6203125,151.97903695644345L240.135625,152.91755460003333L240.65093750000003,150.45821108634118L241.16625000000002,138.63233043212676L241.68156249999998,124.34611043846235L242.19687499999998,122.85711493296549L242.7121875,134.65212853025878L243.2275,145.6192287549202L243.74281249999999,150.66954862214334L244.25812499999998,150.0929732354125L244.7734375,151.18376013907255L245.28875,152.02590741301537L245.8040625,152.6903413221662L246.31937499999998,149.31107647845056L246.8346875,149.54535567613493" style="fill: none;" fill="none"></path></g></g></g></g></g></g><g transform="translate(72, 177)" clip-path="url(#clip_1)"><clipPath id="clip_1"><rect width="257" height="23"></rect></clipPath><g><g><line x1="0" y1="0" x2="0" y2="5" style="visibility: inherit;" fill="rgb(0, 0, 0)" stroke="rgb(204, 204, 204)" stroke-width="1px"></line><line x1="25.765625" y1="0" x2="25.765625" y2="5" style="visibility: inherit;" fill="rgb(0, 0, 0)" stroke="rgb(204, 204, 204)" stroke-width="1px"></line><line x1="51.53125" y1="0" x2="51.53125" y2="5" style="visibility: inherit;" fill="rgb(0, 0, 0)" stroke="rgb(204, 204, 204)" stroke-width="1px"></line><line x1="77.296875" y1="0" x2="77.296875" y2="5" style="visibility: inherit;" fill="rgb(0, 0, 0)" stroke="rgb(204, 204, 204)" stroke-width="1px"></line><line x1="103.0625" y1="0" x2="103.0625" y2="5" style="visibility: inherit;" fill="rgb(0, 0, 0)" stroke="rgb(204, 204, 204)" stroke-width="1px"></line><line x1="128.828125" y1="0" x2="128.828125" y2="5" style="visibility: inherit;" fill="rgb(0, 0, 0)" stroke="rgb(204, 204, 204)" stroke-width="1px"></line><line x1="154.59375" y1="0" x2="154.59375" y2="5" style="visibility: inherit;" fill="rgb(0, 0, 0)" stroke="rgb(204, 204, 204)" stroke-width="1px"></line><line x1="180.359375" y1="0" x2="180.359375" y2="5" style="visibility: inherit;" fill="rgb(0, 0, 0)" stroke="rgb(204, 204, 204)" stroke-width="1px"></line><line x1="206.125" y1="0" x2="206.125" y2="5" style="visibility: inherit;" fill="rgb(0, 0, 0)" stroke="rgb(204, 204, 204)" stroke-width="1px"></line><line x1="231.890625" y1="0" x2="231.890625" y2="5" style="visibility: inherit;" fill="rgb(0, 0, 0)" stroke="rgb(204, 204, 204)" stroke-width="1px"></line><line x1="257.65625" y1="0" x2="257.65625" y2="5" style="visibility: inherit;" fill="rgb(0, 0, 0)" stroke="rgb(204, 204, 204)" stroke-width="1px"></line></g><g transform="translate(0, 8)"><text x="0" y="0" dx="0em" dy="0.95em" style="text-anchor: middle; visibility: hidden; font-family: Roboto, sans-serif; font-size: 12px; font-weight: 200;" fill="rgb(33, 33, 33)" stroke="none" stroke-width="1px">-50</text><text x="25.765625" y="0" dx="0em" dy="0.95em" style="text-anchor: middle; visibility: inherit; font-family: Roboto, sans-serif; font-size: 12px; font-weight: 200;" fill="rgb(33, 33, 33)" stroke="none" stroke-width="1px">0</text><text x="51.53125" y="0" dx="0em" dy="0.95em" style="text-anchor: middle; visibility: inherit; font-family: Roboto, sans-serif; font-size: 12px; font-weight: 200;" fill="rgb(33, 33, 33)" stroke="none" stroke-width="1px">50</text><text x="77.296875" y="0" dx="0em" dy="0.95em" style="text-anchor: middle; visibility: inherit; font-family: Roboto, sans-serif; font-size: 12px; font-weight: 200;" fill="rgb(33, 33, 33)" stroke="none" stroke-width="1px">100</text><text x="103.0625" y="0" dx="0em" dy="0.95em" style="text-anchor: middle; visibility: inherit; font-family: Roboto, sans-serif; font-size: 12px; font-weight: 200;" fill="rgb(33, 33, 33)" stroke="none" stroke-width="1px">150</text><text x="128.828125" y="0" dx="0em" dy="0.95em" style="text-anchor: middle; visibility: inherit; font-family: Roboto, sans-serif; font-size: 12px; font-weight: 200;" fill="rgb(33, 33, 33)" stroke="none" stroke-width="1px">200</text><text x="154.59375" y="0" dx="0em" dy="0.95em" style="text-anchor: middle; visibility: inherit; font-family: Roboto, sans-serif; font-size: 12px; font-weight: 200;" fill="rgb(33, 33, 33)" stroke="none" stroke-width="1px">250</text><text x="180.359375" y="0" dx="0em" dy="0.95em" style="text-anchor: middle; visibility: inherit; font-family: Roboto, sans-serif; font-size: 12px; font-weight: 200;" fill="rgb(33, 33, 33)" stroke="none" stroke-width="1px">300</text><text x="206.125" y="0" dx="0em" dy="0.95em" style="text-anchor: middle; visibility: inherit; font-family: Roboto, sans-serif; font-size: 12px; font-weight: 200;" fill="rgb(33, 33, 33)" stroke="none" stroke-width="1px">350</text><text x="231.890625" y="0" dx="0em" dy="0.95em" style="text-anchor: middle; visibility: inherit; font-family: Roboto, sans-serif; font-size: 12px; font-weight: 200;" fill="rgb(33, 33, 33)" stroke="none" stroke-width="1px">400</text><text x="257.65625" y="0" dx="0em" dy="0.95em" style="text-anchor: middle; visibility: hidden; font-family: Roboto, sans-serif; font-size: 12px; font-weight: 200;" fill="rgb(33, 33, 33)" stroke="none" stroke-width="1px">450</text></g><line x1="0" y1="0" x2="257.65625" y2="0" fill="rgb(0, 0, 0)" stroke="rgb(204, 204, 204)" stroke-width="1px"></line></g></g></g></g></svg>