<svg viewBox="0 0 330 200" xmlns="http://www.w3.org/2000/svg"><g><g><g><g><g><line x1="30" y1="177" x2="25" y2="177" style="visibility: inherit;" fill="rgb(0, 0, 0)" stroke="rgb(204, 204, 204)" stroke-width="1px"></line><line x1="30" y1="157.33333333333331" x2="25" y2="157.33333333333331" style="visibility: inherit;" fill="rgb(0, 0, 0)" stroke="rgb(204, 204, 204)" stroke-width="1px"></line><line x1="30" y1="137.66666666666666" x2="25" y2="137.66666666666666" style="visibility: inherit;" fill="rgb(0, 0, 0)" stroke="rgb(204, 204, 204)" stroke-width="1px"></line><line x1="30" y1="118.00000000000001" x2="25" y2="118.00000000000001" style="visibility: inherit;" fill="rgb(0, 0, 0)" stroke="rgb(204, 204, 204)" stroke-width="1px"></line><line x1="30" y1="98.33333333333334" x2="25" y2="98.33333333333334" style="visibility: inherit;" fill="rgb(0, 0, 0)" stroke="rgb(204, 204, 204)" stroke-width="1px"></line><line x1="30" y1="78.66666666666666" x2="25" y2="78.66666666666666" style="visibility: inherit;" fill="rgb(0, 0, 0)" stroke="rgb(204, 204, 204)" stroke-width="1px"></line><line x1="30" y1="59.00000000000001" x2="25" y2="59.00000000000001" style="visibility: inherit;" fill="rgb(0, 0, 0)" stroke="rgb(204, 204, 204)" stroke-width="1px"></line><line x1="30" y1="39.33333333333333" x2="25" y2="39.33333333333333" style="visibility: inherit;" fill="rgb(0, 0, 0)" stroke="rgb(204, 204, 204)" stroke-width="1px"></line><line x1="30" y1="19.666666666666675" x2="25" y2="19.666666666666675" style="visibility: inherit;" fill="rgb(0, 0, 0)" stroke="rgb(204, 204, 204)" stroke-width="1px"></line><line x1="30" y1="0" x2="25" y2="0" style="visibility: inherit;" fill="rgb(0, 0, 0)" stroke="rgb(204, 204, 204)" stroke-width="1px"></line></g><g transform="translate(20, 0)"><text x="0" y="177" dx="0em" dy="0.3em" style="text-anchor: end; visibility: hidden; font-family: Roboto, sans-serif; font-size: 12px; font-weight: 200;" fill="rgb(33, 33, 33)" stroke="none" stroke-width="1px">0</text><text x="0" y="157.33333333333331" dx="0em" dy="0.3em" style="text-anchor: end; visibility: inherit; font-family: Roboto, sans-serif; font-size: 12px; font-weight: 200;" fill="rgb(33, 33, 33)" stroke="none" stroke-width="1px">5</text><text x="0" y="137.66666666666666" dx="0em" dy="0.3em" style="text-anchor: end; visibility: hidden; font-family: Roboto, sans-serif; font-size: 12px; font-weight: 200;" fill="rgb(33, 33, 33)" stroke="none" stroke-width="1px">10</text><text x="0" y="118.00000000000001" dx="0em" dy="0.3em" style="text-anchor: end; visibility: inherit; font-family: Roboto, sans-serif; font-size: 12px; font-weight: 200;" fill="rgb(33, 33, 33)" stroke="none" stroke-width="1px">15</text><text x="0" y="98.33333333333334" dx="0em" dy="0.3em" style="text-anchor: end; visibility: hidden; font-family: Roboto, sans-serif; font-size: 12px; font-weight: 200;" fill="rgb(33, 33, 33)" stroke="none" stroke-width="1px">20</text><text x="0" y="78.66666666666666" dx="0em" dy="0.3em" style="text-anchor: end; visibility: inherit; font-family: Roboto, sans-serif; font-size: 12px; font-weight: 200;" fill="rgb(33, 33, 33)" stroke="none" stroke-width="1px">25</text><text x="0" y="59.00000000000001" dx="0em" dy="0.3em" style="text-anchor: end; visibility: hidden; font-family: Roboto, sans-serif; font-size: 12px; font-weight: 200;" fill="rgb(33, 33, 33)" stroke="none" stroke-width="1px">30</text><text x="0" y="39.33333333333333" dx="0em" dy="0.3em" style="text-anchor: end; visibility: inherit; font-family: Roboto, sans-serif; font-size: 12px; font-weight: 200;" fill="rgb(33, 33, 33)" stroke="none" stroke-width="1px">35</text><text x="0" y="19.666666666666675" dx="0em" dy="0.3em" style="text-anchor: end; visibility: hidden; font-family: Roboto, sans-serif; font-size: 12px; font-weight: 200;" fill="rgb(33, 33, 33)" stroke="none" stroke-width="1px">40</text><text x="0" y="0" dx="0em" dy="0.3em" style="text-anchor: end; visibility: hidden; font-family: Roboto, sans-serif; font-size: 12px; font-weight: 200;" fill="rgb(33, 33, 33)" stroke="none" stroke-width="1px">45</text></g><line x1="30" y1="0" x2="30" y2="177" fill="rgb(0, 0, 0)" stroke="rgb(204, 204, 204)" stroke-width="1px"></line></g></g><g transform="translate(30, 0)" clip-path="url(#clip_0)"><clipPath id="clip_0"><rect width="300" height="177"></rect></clipPath><g><g><g><line x1="0" y1="0" x2="0" y2="177" fill="rgb(0, 0, 0)" stroke="rgb(66, 66, 66)" stroke-width="1px" opacity="0.25"></line><line x1="33.33333333333333" y1="0" x2="33.33333333333333" y2="177" fill="rgb(0, 0, 0)" stroke="rgb(66, 66, 66)" stroke-width="1px" opacity="0.25"></line><line x1="66.66666666666666" y1="0" x2="66.66666666666666" y2="177" fill="rgb(0, 0, 0)" stroke="rgb(66, 66, 66)" stroke-width="1px" opacity="0.25"></line><line x1="100" y1="0" x2="100" y2="177" fill="rgb(0, 0, 0)" stroke="rgb(66, 66, 66)" stroke-width="1px" opacity="0.25"></line><line x1="133.33333333333331" y1="0" x2="133.33333333333331" y2="177" fill="rgb(0, 0, 0)" stroke="rgb(66, 66, 66)" stroke-width="1px" opacity="0.25"></line><line x1="166.66666666666669" y1="0" x2="166.66666666666669" y2="177" fill="rgb(0, 0, 0)" stroke="rgb(66, 66, 66)" stroke-width="1px" opacity="0.25"></line><line x1="200" y1="0" x2="200" y2="177" fill="rgb(0, 0, 0)" stroke="rgb(66, 66, 66)" stroke-width="1px" opacity="0.25"></line><line x1="233.33333333333334" y1="0" x2="233.33333333333334" y2="177" fill="rgb(0, 0, 0)" stroke="rgb(66, 66, 66)" stroke-width="1px" opacity="0.25"></line><line x1="266.66666666666663" y1="0" x2="266.66666666666663" y2="177" fill="rgb(0, 0, 0)" stroke="rgb(66, 66, 66)" stroke-width="1px" opacity="0.25"></line><line x1="300" y1="0" x2="300" y2="177" fill="rgb(0, 0, 0)" stroke="rgb(66, 66, 66)" stroke-width="1px" opacity="0.25"></line></g><g><line x1="0" y1="177" x2="300" y2="177" fill="rgb(0, 0, 0)" stroke="rgb(66, 66, 66)" stroke-width="1px" opacity="0.25"></line><line x1="0" y1="157.33333333333331" x2="300" y2="157.33333333333331" fill="rgb(0, 0, 0)" stroke="rgb(66, 66, 66)" stroke-width="1px" opacity="0.25"></line><line x1="0" y1="137.66666666666666" x2="300" y2="137.66666666666666" fill="rgb(0, 0, 0)" stroke="rgb(66, 66, 66)" stroke-width="1px" opacity="0.25"></line><line x1="0" y1="118.00000000000001" x2="300" y2="118.00000000000001" fill="rgb(0, 0, 0)" stroke="rgb(66, 66, 66)" stroke-width="1px" opacity="0.25"></line><line x1="0" y1="98.33333333333334" x2="300" y2="98.33333333333334" fill="rgb(0, 0, 0)" stroke="rgb(66, 66, 66)" stroke-width="1px" opacity="0.25"></line><line x1="0" y1="78.66666666666666" x2="300" y2="78.66666666666666" fill="rgb(0, 0, 0)" stroke="rgb(66, 66, 66)" stroke-width="1px" opacity="0.25"></line><line x1="0" y1="59.00000000000001" x2="300" y2="59.00000000000001" fill="rgb(0, 0, 0)" stroke="rgb(66, 66, 66)" stroke-width="1px" opacity="0.25"></line><line x1="0" y1="39.33333333333333" x2="300" y2="39.33333333333333" fill="rgb(0, 0, 0)" stroke="rgb(66, 66, 66)" stroke-width="1px" opacity="0.25"></line><line x1="0" y1="19.666666666666675" x2="300" y2="19.666666666666675" fill="rgb(0, 0, 0)" stroke="rgb(66, 66, 66)" stroke-width="1px" opacity="0.25"></line><line x1="0" y1="0" x2="300" y2="0" fill="rgb(0, 0, 0)" stroke="rgb(66, 66, 66)" stroke-width="1px" opacity="0.25"></line></g></g></g><g><g><line x1="0" y1="177" x2="300" y2="177" fill="rgb(0, 0, 0)" stroke="rgb(153, 153, 153)" stroke-width="1.5px"></line></g></g><g><g><line x1="33.33333333333333" y1="0" x2="33.33333333333333" y2="177" fill="rgb(0, 0, 0)" stroke="rgb(153, 153, 153)" stroke-width="1.5px"></line></g></g><g><g><g><g><g><path stroke="rgb(51, 187, 238)" stroke-width="2px" d="M33.33333333333333,16.973888397216797L33.666666666666664,16.973897775014233L34,16.973900645768552L34.333333333333336,16.9739019122778L34.666666666666664,16.973902558276606L35,16.97390291215352L35.33333333333333,16.97390311360865L35.666666666666664,16.97390323081081L36,16.973903299859426L36.333333333333336,16.97390334084051L36.666666666666664,16.973903365270022L37,16.97390337987085L37.333333333333336,16.973903388611024L37.666666666666664,16.973903393847806L38,16.97390339698724L38.33333333333333,16.973903398869957L38.666666666666664,16.97390339999926L39,16.973903400676704L39.333333333333336,16.973903401083128L39.666666666666664,16.973903401326954L40,16.973903401473255L40.333333333333336,16.973903401561017L40.66666666666667,16.9739034016137L41,16.97390340164528L41.333333333333336,16.973903401664263L41.66666666666667,16.973903401675642L42.00000000000001,16.97390340168246L42.33333333333333,16.973903401686528L42.666666666666664,16.973903401688986L43,16.973903401690478L43.33333333333333,16.973903401691363L43.666666666666664,16.97390340169193L44,16.97390340169221L44.333333333333336,16.973903401692404L44.666666666666664,16.973903401692542L45,16.9739034016926L45.333333333333336,16.973909403483052L45.66666666666667,16.973919006347703L46,16.973924768066436L46.33333333333333,16.97395823404956L46.666666666666664,16.974080344075674L47,16.974879826725743L47.33333333333333,16.977154051635075L47.666666666666664,16.987365225579154L48,17.074414069438596L48.333333333333336,17.379744877229093L48.666666666666664,18.079619489026424L49,19.200919479899365L49.333333333333336,20.790010814751376L49.66666666666667,22.514989765231938L50,24.079599124446265L50.333333333333336,25.483527500387996L50.66666666666667,26.351224084869717L51.00000000000001,29.08284158796896L51.33333333333333,32.1473933479656L51.666666666666664,34.397072992015865L52,36.9582401331007L52.333333333333336,39.49088951443107L52.666666666666664,41.87495302018229L53,43.470140269140714L53.333333333333336,45.245140598658956L53.666666666666664,47.33438233282824L54,48.57908673612275L54.333333333333336,50.142741043138486L54.66666666666667,51.827736402413045L54.99999999999999,53.905773921525956L55.33333333333333,54.93198262277237L55.666666666666664,57.177893136082034L56,58.24346332915898L56.33333333333333,60.5682642259296L56.666666666666664,62.13542915730255L57,63.601475949378276L57.333333333333336,64.42874440548307L57.666666666666664,58.87515374778206L58,59.44664182956115L58.333333333333336,57.73131069995025L58.66666666666667,58.62197972848251L59,62.01848792660775L59.333333333333336,65.15511660036567L59.66666666666667,68.85205021534635L60,70.05804445008998L60.33333333333333,71.64016109184759L60.666666666666664,73.53130104150179L61,74.25232961578648L61.333333333333336,75.64694072804939L61.666666666666664,77.04137274981791L62,77.70605366087707L62.333333333333336,78.81754180345985L62.66666666666667,79.95099886747632L63,80.81504298503656L63.333333333333336,81.75719285441711L63.66666666666667,82.85280997534558L64,83.96402963348208L64.33333333333333,85.0817179509877L64.66666666666667,86.26430766675148L65,87.53893305993044L65.33333333333333,88.92759440423625L65.66666666666667,90.43498432605412L66,91.97628325920668L66.33333333333334,93.39768076281568L66.66666666666666,94.55240331852926L67,95.42350202936623L67.33333333333333,96.21661993506767L67.66666666666667,97.10222090309789L68,98.1037947509245L68.33333333333333,99.13110924801563L68.66666666666667,100.06218681956133L69,100.82981570298354L69.33333333333333,101.44669465860653L69.66666666666667,102.00255943839308L70,102.6036621278796L70.33333333333334,103.28542552786706L70.66666666666666,103.97895042576972L71,104.58233622836222L71.33333333333333,105.05809263464104L71.66666666666667,105.4695630697983L72,105.92322801521883L72.33333333333333,106.45923867884159L72.66666666666667,107.01037454682319L73,107.47665151642397L73.33333333333333,107.83098094077886L73.66666666666667,108.14850489544062L74,108.52647918848508L74.33333333333334,108.97760168545432L74.66666666666667,109.42261519014627L75,109.782873109856L75.33333333333333,110.06603184931203L75.66666666666667,110.35594489490624L76,110.71696252613644L76.33333333333333,111.12540532940257L76.66666666666666,111.50219830628413L77,111.80248322937595L77.33333333333333,112.03874691597844L77.66666666666667,112.31038987321986L78,112.65888798683883L78.33333333333334,113.00842274775107L78.66666666666667,113.32665297319491L78.99999999999999,113.61955552496514L79.33333333333333,113.910099302121L79.66666666666666,114.23570969723939L80,114.59587909593152L80.33333333333333,114.95357947477083L80.66666666666667,115.27620792147545L81,115.54349747830845L81.33333333333334,115.7889826015684L81.66666666666666,116.07790392454781L82,116.3738207798182L82.33333333333333,116.6696421739049L82.66666666666667,116.9766941585096L83,117.30932111648434L83.33333333333334,117.65905458395311L83.66666666666667,117.98484025159257L84.00000000000001,118.26769021764663L84.33333333333333,118.53519336947957L84.66666666666666,118.83450466813144L85,119.15870908749996L85.33333333333333,119.4908978056087L85.66666666666667,119.8033372826084L86,120.11374014218875L86.33333333333334,120.41774598757561L86.66666666666666,120.74538531939268L87,121.0533981583918L87.33333333333333,121.35761298154225L87.66666666666667,121.66343365399698L88,121.95622466179923L88.33333333333334,122.25883713269151L88.66666666666667,122.5546381916836L89,122.82965992408405L89.33333333333333,123.11980279038794L89.66666666666666,123.38052135318782L90,123.65063540305852L90.33333333333333,123.91254961748616L90.66666666666667,124.16017663633643L91,124.43134541763357L91.33333333333334,124.67443316610749L91.66666666666667,124.93875515519835L92,125.18471040919975L92.33333333333333,125.42961459594302L92.66666666666666,125.67063217105864L93,125.89605382249195L93.33333333333333,126.1219773608373L93.66666666666667,126.33797948189137L94,126.5470804696931L94.33333333333334,126.75687371923448L94.66666666666666,126.95418297787856L95,127.15390779698106L95.33333333333333,127.3433484521958L95.66666666666667,127.524496976184L96,127.69734823046954L96.33333333333334,127.85731376412808L96.66666666666667,128.00880664430042L96.99999999999999,128.1498113201577L97.33333333333333,128.27978766082833L97.66666666666666,128.39836057257125L98,128.50121327856064L98.33333333333333,128.58392516663997L98.66666666666667,128.63863431547878L99,128.651473842868L99.33333333333334,128.5948398670408L99.66666666666666,128.40025007094061L100,127.84066009302008L100.33333333333333,125.67298563507639L100.66666666666667,120.83576296918059L101,121.05027914177853L101.33333333333334,121.30636784314004L101.66666666666667,124.45185354279809L102.00000000000001,122.78050340172054L102.33333333333333,121.30465770814656L102.66666666666666,118.76248960169458L103,120.49213970624787L103.33333333333333,121.53057796233921L103.66666666666667,121.83078060512162L104,121.96583324649583L104.33333333333334,123.6732704964001L104.66666666666667,126.25498738328929L105,129.59303418819297L105.33333333333333,130.9817815877449L105.66666666666666,130.02955741191613L106,130.69429913424278L106.33333333333333,132.5130597356726L106.66666666666667,132.64935922804094L107,131.72973720023603L107.33333333333333,132.6825318037842L107.66666666666666,133.3182326646273L108,132.87685873736686L108.33333333333333,133.12853045441557L108.66666666666667,133.89993105239378L109,133.89373299463617L109.33333333333334,133.75789524823838L109.66666666666667,134.33142950123798L109.99999999999999,134.60696009230367L110.33333333333333,134.45408302763153L110.66666666666666,134.74288680286637L111,135.11910460470972L111.33333333333333,135.10131864356313L111.66666666666667,135.19164069378763L112,135.52859027157857L112.33333333333334,135.6414413740474L112.66666666666666,135.6616493652406L113,135.9030590568071L113.33333333333333,136.08446777864808L113.66666666666667,136.11591542365858L114,136.27022641382243L114.33333333333334,136.46211713084554L114.66666666666667,136.52934977171208L115.00000000000001,136.63011388117502L115.33333333333333,136.79974341313698L115.66666666666666,136.8951772398988L116,136.97271308425502L116.33333333333333,137.11039728516403L116.66666666666667,137.21764965649882L117,137.28930825906855L117.33333333333334,137.398564686683L117.66666666666667,137.5044085619691L118,137.57651845362838L118.33333333333333,137.66526145466403L118.66666666666667,137.76259340640843L119,137.83559343296452L119.33333333333334,137.9112974660287L119.66666666666667,137.99815324564912L120,138.07104491166356L120.33333333333333,138.1404600717947L120.66666666666666,138.2196878777936L121,138.29378548465144L121.33333333333333,138.35849108856104L121.66666666666667,138.43364628887883L122,138.5033437486691L122.33333333333334,138.56693671998596L122.66666666666667,138.63665141696066L122.99999999999999,138.7042489220758L123.33333333333333,138.76769675314782L123.66666666666666,138.8342049354336L124,138.90161154870322L124.33333333333333,138.9663672689843L124.66666666666667,139.03231728420144L125,139.10002068566573L125.33333333333334,139.16652544749155L125.66666666666666,139.23299072829312L126,139.30110081820146L126.33333333333333,139.36889540506476L126.66666666666667,139.43628762654308L127,139.50472431237606L127.33333333333334,139.57347408327524L127.66666666666667,139.64184903736748L128,139.7108093430748L128.33333333333331,139.78031291704278L128.66666666666666,139.84967731321396L129,139.91932731281443L129.33333333333334,139.9895087818944L129.66666666666666,140.05972104672452L130,140.13005381944097L130.33333333333334,140.20074998372186L130.66666666666666,140.2715711551908L131,140.34239831038337L131.33333333333334,140.41339260459753L131.66666666666666,140.4844811804343L132,140.55551679257047L132.33333333333334,140.62654313320016L132.66666666666669,140.69756541137355L133,140.76848022074176L133.33333333333331,140.83926753002808L133.66666666666666,140.90989881554287L134,140.98034796038692L134.33333333333334,141.0505752872592L134.66666666666666,141.12053898440791L135,141.19022746881043L135.33333333333334,141.2596187861772L135.66666666666669,141.32865625095437L136,141.39734336299938L136.33333333333331,141.4656837226743L136.66666666666666,141.53359696557888L137,141.60109189008136L137.33333333333334,141.66821428728775L137.66666666666666,141.7349256121676L138,141.80120873949292L138.33333333333334,141.86708190263133L138.66666666666666,141.9325575420508L139,141.9976446224798L139.33333333333334,142.06235452454584L139.66666666666666,142.12671208199637L140,142.19073819687037L140.33333333333334,142.25443040591517L140.66666666666669,142.3178412472926L141,142.380975235843L141.33333333333331,142.44382457733752L141.66666666666666,142.5064311091141L142,142.56880642954724L142.33333333333334,142.63092748870977L142.66666666666666,142.6928269705208L143,142.7545199839889L143.33333333333334,142.81594057213977L143.66666666666666,142.87711368003517L144,142.9380482729218L144.33333333333334,142.99867620801578L144.66666666666666,143.0589926103889L145,143.1190035577698L145.33333333333334,143.17866918381551L145.66666666666669,143.23802558662396L146,143.29726847697438L146.33333333333331,143.35663231624648L146.66666666666666,143.41583765594257L147,143.4754220373318L147.33333333333334,143.5325885546338L147.66666666666666,143.59199095321483L148,143.64819602660012L148.33333333333334,143.70546709512675L148.66666666666669,143.76125912873945L149,143.81714953547123L149.33333333333334,143.87146647909523L149.66666666666666,143.9258341416075L150,143.97958254164584L150.33333333333331,144.03260227767305L150.66666666666666,144.08522982872134L151,144.13757705535454L151.33333333333334,144.1895190166193L151.66666666666666,144.241144296731L152,144.29255556098946L152.33333333333334,144.34374538798528L152.66666666666666,144.39471682711084L153,144.4454747088967L153.33333333333331,144.4960684455366L153.66666666666669,144.54649917584248L154,144.59672707101655L154.33333333333334,144.64676424452236L154.66666666666666,144.6966554756278L155.00000000000003,144.74635410996166L155.33333333333334,144.7958756678813L155.66666666666666,144.8452204589156L156,144.89439016922958L156.33333333333331,144.94340081499803L156.66666666666669,144.99221549205058L157,145.04084956907474L157.33333333333334,145.089319769521L157.66666666666666,145.13760461806027L157.99999999999997,145.1856972312854L158.33333333333334,145.23359197870448L158.66666666666666,145.28132599410745L159,145.32887504389285L159.33333333333331,145.37620358163358L159.66666666666669,145.42334579603417L160,145.4703124474081L160.33333333333334,145.51708823545334L160.66666666666666,145.5636827355835L161,145.610148957146L161.33333333333334,145.6565172053016L161.66666666666666,145.7027516470335L162,145.7489238102823L162.33333333333334,145.79517489112948L162.66666666666669,145.8414013010514L163,145.88738108926526L163.33333333333331,145.93305835835247L163.66666666666669,145.97839506851898L164,146.02341490976372L164.33333333333334,146.06808783288216L164.66666666666666,146.11244682356963L165,146.15652442704786L165.33333333333334,146.20034542201648L165.66666666666666,146.2439096712193L166,146.28728386222053L166.33333333333331,146.33049900487302L166.66666666666669,146.37356470240297L167,146.41651597547417L167.33333333333334,146.45933107372852L167.66666666666666,146.5019871940418L168.00000000000003,146.54449991326754L168.33333333333334,146.58684556767082L168.66666666666666,146.62906697601915L169,146.67104653682813L169.33333333333331,146.71276395420136L169.66666666666669,146.75436534782193L170,146.79582435548272L170.33333333333334,146.83722343917665L170.66666666666666,146.87866684243667L170.99999999999997,146.92009707557511L171.33333333333334,146.96143538157554L171.66666666666666,147.00268627166994L172,147.0437541732803L172.33333333333331,147.08455473480313L172.66666666666669,147.12510036407522L173,147.16543151564568L173.33333333333331,147.20556345955828L173.66666666666666,147.2455346165675L174,147.2853837938256L174.33333333333334,147.325163534352L174.66666666666666,147.36488810881107L175,147.4045000599074L175.33333333333334,147.44400242445357L175.66666666666669,147.48344803975513L176,147.52281159118706L176.33333333333331,147.5620261245324L176.66666666666669,147.60115049680195L177,147.64020876884533L177.33333333333334,147.67916211128278L177.66666666666666,147.7179977296196L178,147.75674920946773L178.33333333333334,147.79541644615182L178.66666666666666,147.83397311903386L179,147.87242969356387L179.33333333333331,147.91077744453594L179.66666666666669,147.94900663548378L180,147.9871406832556L180.33333333333334,148.02518088415582L180.66666666666666,148.0630980070153L181.00000000000003,148.10089101805602L181.33333333333334,148.13858855573923L181.66666666666666,148.1761905479943L182,148.2136736946413L182.33333333333331,148.25103826982433L182.66666666666669,148.28830319362476L183,148.3254550607061L183.33333333333334,148.3624903292093L183.66666666666666,148.39941587670447L184,148.4362395808526L184.33333333333334,148.47294516198406L184.66666666666666,148.50954010744434L185,148.54602740919316L185.33333333333331,148.5824156144205L185.66666666666669,148.61868284338377L186,148.6548474776367L186.33333333333331,148.69090179051673L186.66666666666666,148.7268508989357L187,148.7626866196837L187.33333333333334,148.79841304552033L187.66666666666666,148.83405738948667L188,148.86960071888896L188.33333333333334,148.90501516918738L188.66666666666669,148.94033128575722L189,148.9755561424667L189.33333333333331,149.01067597826565L189.66666666666669,149.04569378988094L190,149.0806046233345L190.33333333333334,149.11540850713465L190.66666666666666,149.1501249642051L191,149.18474395181002L191.33333333333334,149.2192714478886L191.66666666666666,149.25369303383323L192,149.28802106474575L192.33333333333331,149.32225470122538L192.66666666666669,149.35639944142207L193,149.39045033176407L193.33333333333334,149.42439764809407L193.66666666666666,149.4582520608413L193.99999999999997,149.4920229731584L194.33333333333334,149.5257092749229L194.66666666666666,149.55930579871838L195,149.5927966902906L195.33333333333331,149.62619419357705L195.66666666666669,149.65951090650674L196,149.69275288738956L196.33333333333334,149.72590201472133L196.66666666666666,149.75895416761372L197,149.79191962733825L197.33333333333334,149.8248098142244L197.66666666666666,149.85761507554636L198,149.89033787213037L198.33333333333331,149.9229714280105L198.66666666666669,149.95551617894984L199,149.9879858904347L199.33333333333331,150.02038206974257L199.66666666666666,150.05267861318345L200,150.08488836704745L200.33333333333334,150.1170370444798L200.66666666666666,150.14912056754886L201,150.18110347964878L201.33333333333334,150.21299151487258L201.66666666666669,150.2448136212852L202,150.27657516414482L202.33333333333331,150.30825160432593L202.66666666666669,150.339828968577L203,150.37132738145138L203.33333333333334,150.40274841454791L203.66666666666666,150.43410651485422L204.00000000000003,150.46539984742978L204.33333333333334,150.4966048045964L204.66666666666666,150.52771322353746L205,150.55874346350072L205.33333333333331,150.58971179160142L205.66666666666669,150.62062271654207L206,150.65144218257825L206.33333333333334,150.6821760140961L206.66666666666666,150.71282920617494L206.99999999999997,150.74341150787652L207.33333333333334,150.77392501751888L207.66666666666666,150.80437474521185L208,150.8347336880695L208.33333333333331,150.86500965152172L208.66666666666669,150.8952140708406L209,150.92534705517528L209.33333333333334,150.955401918001L209.66666666666666,150.98537614785056L210,151.015277990753L210.33333333333334,151.04510189119253L210.66666666666666,151.0748490172025L211,151.10451556826013L211.33333333333331,151.13412027031805L211.66666666666669,151.16365260245777L212,151.19310700235195L212.33333333333331,151.22246812902347L212.66666666666666,151.25174478325718L213,151.28094824731434L213.33333333333334,151.31008754122308L213.66666666666666,151.33914331961503L214,151.3681332339972L214.33333333333334,151.39704461833614L214.66666666666666,151.4258811263687L215,151.4546314463087L215.33333333333331,151.48329179197955L215.66666666666669,151.51188689973202L216,151.5404248593623L216.33333333333334,151.5688812660202L216.66666666666666,151.59724147679555L217.00000000000003,151.62552221355128L217.33333333333334,151.65373876097178L217.66666666666666,151.68188303472027L218,151.7099471832996L218.33333333333331,151.73792049402113L218.66666666666669,151.7658190459854L219,151.79364648486256L219.33333333333334,151.82139899626424L219.66666666666666,151.849068289767L219.99999999999997,151.87664714044547L220.33333333333334,151.904136464911L220.66666666666666,151.93151955798308L221,151.95880215125305L221.33333333333331,151.98596892808095L221.66666666666669,152.01301970116822L222,152.0399138460509L222.33333333333334,152.0671799029878L222.66666666666666,152.0943217535399L223,152.12143784480787L223.33333333333334,152.14821063270665L223.66666666666666,152.17482545290687L224,152.2012517145135L224.33333333333334,152.22761435573446L224.66666666666669,152.2538420458544L225,152.28000527023727L225.33333333333331,152.30604203899375L225.66666666666666,152.33205244914492L226,152.35801553473354L226.33333333333334,152.38401924617378L226.66666666666666,152.40999556768313L227,152.43588268352573L227.33333333333334,152.4613419142943L227.66666666666666,152.48593748296787L228,152.50934790543013L228.33333333333331,152.53182667436974L228.66666666666669,152.55410055682725L229,152.57688319583136L229.33333333333334,152.60078733225305L229.66666666666666,152.62590902960085L230.00000000000003,152.65204484809905L230.33333333333334,152.67876213123085L230.66666666666666,152.70548319019684L231,152.7317728853095L231.33333333333331,152.75737463409914L231.66666666666669,152.78220050677783L232,152.8065263434954L232.33333333333334,152.83068194735296L232.66666666666666,152.85521255382844L232.99999999999997,152.88049481897917L233.33333333333334,152.90679824941972L233.66666666666666,152.93406023220393L234,152.96202563466335L234.33333333333331,152.99014600925668L234.66666666666669,153.0178574674111L235,153.04460035996325L235.33333333333334,153.0700479001007L235.66666666666666,153.0941142986338L236,153.11705492358132L236.33333333333334,153.13936359735763L236.66666666666666,153.16176574142239L237,153.18501845465974L237.33333333333334,153.20977780660118L237.66666666666669,153.23637742106195L238,153.26475189310756L238.33333333333331,153.2943548284915L238.66666666666669,153.32425296006284L239,153.35323888439544L239.33333333333334,153.38007875747647L239.66666666666666,153.4037719452411L240,153.42385235730984L240.33333333333334,153.4405669965596L240.66666666666666,153.4548540503731L241,153.46822171316248L241.33333333333331,153.48299057387732L241.66666666666669,153.50194840214704L242,153.52755334406328L242.33333333333334,153.56133430339435L242.66666666666666,153.60326934220913L243.00000000000003,153.6516137812288L243.33333333333334,153.70304913523304L243.66666666666666,153.75293227197236L244,153.79580201404198L244.33333333333331,153.82585640170316L244.66666666666669,153.837572900165L245,153.82657042009166L245.33333333333334,153.79094802496354L245.66666666666666,153.73315497373056L245.99999999999997,153.662249335455L246.33333333333334,153.59533493249043L246.66666666666666,153.55620209373092L247,153.56912024814122L247.33333333333331,153.64893313724738L247.66666666666669,153.79265220768613L248,153.98384371006904L248.33333333333331,154.2019619572426L248.66666666666666,154.43011667579006L249,154.6554901511446L249.33333333333334,154.86133880402497L249.66666666666666,155.02122934849572L250,155.08637223993645L250.33333333333334,154.97854014846627L250.66666666666669,154.5405707952158L251,153.40218873720028L251.33333333333331,150.97868455986577L251.66666666666669,149.54801754439114L252,150.46749693563126L252.33333333333334,151.57079036718932L252.66666666666666,151.89790703586536L253,151.87109874168115L253.33333333333334,152.64193925904678L253.66666666666666,153.97244199781088L254,154.4227718393115L254.33333333333331,153.32195826451627L254.66666666666669,153.12984908946743L255,153.72603281336063L255.33333333333334,154.43753058431764L255.66666666666666,154.97852628261776L256,155.3316809703763L256.3333333333333,155.31153481462732L256.66666666666663,154.72619886830927L257,154.0405490328996L257.3333333333333,154.03200605293884L257.6666666666667,154.36498737403218L258,154.7841963708508L258.33333333333337,155.16007211328196L258.6666666666667,155.49126357945192L259,155.7065531534695L259.3333333333333,155.62233774281003L259.66666666666663,155.18992882976806L260,154.78001634683136L260.3333333333333,154.55600164973293L260.6666666666667,154.60580653335782L261,154.78822196475346L261.3333333333333,155.01363706679152L261.6666666666667,155.2301503695508L262,155.44167819882196L262.3333333333333,155.5966307596252L262.6666666666667,155.58018140529907L263,155.35643199127105L263.3333333333333,155.04915072664335L263.6666666666667,154.74938479430307L264,154.59891900320943L264.3333333333333,154.59182809412536L264.6666666666667,154.6961721942031L265,154.84028296740075L265.33333333333337,155.00097057186298L265.6666666666667,155.22579519050956L266,155.51689480839752L266.3333333333333,155.74281211951524L266.66666666666663,155.79080763812354L267,155.65912757807268L267.3333333333333,155.39093560751255L267.6666666666667,155.0535362790583L268,154.7372464698886L268.33333333333337,154.51710427536577L268.6666666666667,154.42163138032365L269,154.4390759351278L269.3333333333333,154.530321514751L269.66666666666663,154.70841540742643L270,155.05399745612578L270.3333333333333,155.52756509965204L270.6666666666667,155.982519640439L271,156.33448642924225L271.33333333333337,156.57576398075497L271.6666666666667,156.7349205542855L272,156.82102094625944L272.3333333333333,156.81581721863458L272.66666666666663,156.68086715714918L273,156.38210415150795L273.3333333333333,155.88896171474104L273.6666666666667,155.15380446567323L274,154.1038367362073L274.3333333333333,152.10843828745192L274.6666666666667,148.64638311203822L275,149.36536388160687L275.3333333333333,150.51399104930104L275.6666666666667,150.44724410416967L276,150.10099434559913L276.3333333333333,151.90180665476345L276.6666666666667,153.4822814390454L277,152.6230588709549L277.3333333333333,153.8039148717266L277.6666666666667,154.61791068807094L278,155.2423290035815L278.33333333333337,155.8149025341883L278.6666666666667,155.72607767468776L279,154.15672751199853L279.3333333333333,154.34425224104515L279.66666666666663,154.8675971311668L280,155.3365777946913L280.3333333333333,155.9360235709391L280.6666666666667,156.43106291880858L281,156.35647742464533L281.33333333333337,156.30716026612754L281.6666666666667,156.40262177460573L282,156.49595368508406L282.3333333333333,156.62135078313295L282.66666666666663,156.80306080303L283,156.8134331360742L283.3333333333333,156.24722602696923L283.6666666666667,155.13574879367178L284,154.84068537035995L284.33333333333337,155.02026619759846L284.6666666666667,155.28665251641064L285,155.5685547219232L285.3333333333333,155.93788576284143L285.6666666666667,156.3914685894594L286,156.63864483572317L286.3333333333333,156.54618876300617L286.6666666666667,156.56125641220228L287,156.63312599392782L287.3333333333333,156.6551019350611L287.6666666666667,156.5897255643163L288,156.53745785140717L288.3333333333333,156.56920529912148L288.6666666666667,156.36565036402286L289,155.31076415792788L289.3333333333333,151.92506927102218L289.66666666666663,152.2348337251906L290,153.2142093578357L290.3333333333333,153.8992025327312" style="fill: none;" fill="none"></path></g></g></g></g><g opacity="0.2"><g><g><g><path stroke="rgb(51, 187, 238)" stroke-width="2px" d="M33.33333333333333,16.973888397216797L33.666666666666664,16.973903401692716L34,16.973903401692716L34.333333333333336,16.973903401692716L34.666666666666664,16.973903401692716L35,16.973903401692716L35.33333333333333,16.973903401692716L35.666666666666664,16.973903401692716L36,16.973903401692716L36.333333333333336,16.973903401692716L36.666666666666664,16.973903401692716L37,16.973903401692716L37.333333333333336,16.973903401692716L37.666666666666664,16.973903401692716L38,16.973903401692716L38.33333333333333,16.973903401692716L38.666666666666664,16.973903401692716L39,16.973903401692716L39.333333333333336,16.973903401692716L39.666666666666664,16.973903401692716L40,16.973903401692716L40.333333333333336,16.973903401692716L40.66666666666667,16.973903401692716L41,16.973903401692716L41.333333333333336,16.973903401692716L41.66666666666667,16.973903401692716L42.00000000000001,16.973903401692716L42.33333333333333,16.973903401692716L42.666666666666664,16.973903401692716L43,16.973903401692716L43.33333333333333,16.973903401692716L43.666666666666664,16.973903401692716L44,16.973903401692716L44.333333333333336,16.973903401692716L44.666666666666664,16.973903401692716L45,16.973903401692716L45.333333333333336,16.973918406168618L45.66666666666667,16.97393341064454L46,16.97393341064454L46.33333333333333,16.974008433024085L46.666666666666664,16.97426350911459L47,16.976079050699877L47.33333333333333,16.980565388997388L47.666666666666664,17.002681986490888L48,17.204987335205075L48.333333333333336,17.837741088867183L48.666666666666664,19.129431406656895L49,20.88286946614583L49.333333333333336,23.17364781697591L49.66666666666667,25.10245819091797L50,26.426513163248693L50.333333333333336,27.589420064290373L50.66666666666667,27.652768961588535L51.00000000000001,33.18026784261068L51.33333333333333,36.744220987955735L51.666666666666664,37.77159245808919L52,40.79999084472656L52.333333333333336,43.28986358642578L52.666666666666664,45.451048278808585L53,45.86292114257812L53.333333333333336,47.90764109293621L53.666666666666664,50.46824493408204L54,50.446143341064456L54.333333333333336,52.48822250366211L54.66666666666667,54.35522944132488L54.99999999999999,57.02283020019532L55.33333333333333,56.47129567464192L55.666666666666664,60.546758906046556L56,59.84181861877442L56.33333333333333,64.0554655710856L56.666666666666664,64.48617655436198L57,65.80054613749185L57.333333333333336,65.66964708964029L57.666666666666664,50.54476776123046L58,60.30387395222982L58.333333333333336,55.15831400553386L58.66666666666667,59.95798327128093L59,67.11325022379557L59.333333333333336,69.86005961100261L59.66666666666667,74.39745063781739L60,71.86703580220541L60.33333333333333,74.01333605448404L60.666666666666664,76.36801096598307L61,75.33387247721353L61.333333333333336,77.73885739644369L61.666666666666664,79.13302078247071L62,78.70307502746581L62.333333333333336,80.48477401733399L62.66666666666667,81.65118446350098L63,82.11110916137694L63.333333333333336,83.17041765848795L63.66666666666667,84.49623565673828L64,85.63085912068685L64.33333333333333,86.7582504272461L64.66666666666667,88.03819224039714L65,89.4508711496989L65.33333333333333,91.01058642069499L65.66666666666667,92.69606920878093L66,94.28823165893554L66.33333333333334,95.52977701822917L66.66666666666666,96.28448715209962L67,96.73015009562174L67.33333333333333,97.4062967936198L67.66666666666667,98.43062235514323L68,99.60615552266438L68.33333333333333,100.67208099365233L68.66666666666667,101.45880317687988L69,101.98125902811687L69.33333333333333,102.37201309204102L69.66666666666667,102.8363566080729L70,103.50531616210938L70.33333333333334,104.30807062784831L70.66666666666666,105.0192377726237L71,105.48741493225097L71.33333333333333,105.77172724405925L71.66666666666667,106.08676872253419L72,106.6037254333496L72.33333333333333,107.26325467427571L72.66666666666667,107.83707834879556L73,108.17606697082519L73.33333333333333,108.3624750773112L73.66666666666667,108.62479082743327L74,109.09344062805177L74.33333333333334,109.65428543090819L74.66666666666667,110.09013544718425L75,110.32325998942058L75.33333333333333,110.4907699584961L75.66666666666667,110.79081446329754L76,111.25848897298177L76.33333333333333,111.73806953430176L76.66666666666666,112.06738777160645L77,112.25291061401367L77.33333333333333,112.39314244588216L77.66666666666667,112.71785430908203L78,113.18163515726724L78.33333333333334,113.53272488911946L78.66666666666667,113.80399831136067L78.99999999999999,114.05890935262046L79.33333333333333,114.34591496785482L79.66666666666666,114.724125289917L80,115.13613319396974L80.33333333333333,115.4901300430298L80.66666666666667,115.7601505915324L81,115.94443181355796L81.33333333333334,116.15721028645832L81.66666666666666,116.51128590901693L82,116.8176960627238L82.33333333333333,117.113374265035L82.66666666666667,117.43727213541665L83,117.80826155344644L83.33333333333334,118.18365478515626L83.66666666666667,118.47351875305176L84.00000000000001,118.69196516672768L84.33333333333333,118.93644809722899L84.66666666666666,119.28347161610922L85,119.64501571655273L85.33333333333333,119.9891808827718L85.66666666666667,120.2719964981079L86,120.57934443155925L86.33333333333334,120.87375475565592L86.66666666666666,121.23684431711833L87,121.51541741689046L87.33333333333333,121.81393521626792L87.66666666666667,122.12216466267905L88,122.3954111735026L88.33333333333334,122.71275583902994L88.66666666666667,122.9983397801717L89,123.24219252268473L89.33333333333333,123.55501708984374L89.66666666666666,123.7715991973877L90,124.05580647786459L90.33333333333333,124.30542093912759L90.66666666666667,124.53161716461182L91,124.83809858957926L91.33333333333334,125.03906478881835L91.66666666666667,125.33523813883463L92,125.55364329020182L92.33333333333333,125.79697087605796L92.66666666666666,126.0321585337321L93,126.23418629964193L93.33333333333333,126.46086266835532L93.66666666666667,126.66198266347249L94,126.86073195139568L94.33333333333334,127.07156359354656L94.66666666666666,127.25014686584473L95,127.45349502563478L95.33333333333333,127.6275094350179L95.66666666666667,127.79621976216636L96,127.9566251118978L96.33333333333334,128.0972620646159L96.66666666666667,128.2360459645589L96.99999999999999,128.3613183339437L97.33333333333333,128.47475217183433L97.66666666666666,128.57621994018555L98,128.65549233754476L98.33333333333333,128.70799299875895L98.66666666666667,128.72069803873697L99,128.6707331339518L99.33333333333334,128.50988890329995L99.66666666666666,128.10836537679037L100,127.00127512613932L100.33333333333333,122.42147394816081L100.66666666666667,113.57992897033691L101,121.37205340067545L101.33333333333334,121.69050089518228L101.66666666666667,129.17008209228516L102.00000000000001,120.27347819010417L102.33333333333333,119.09088916778563L102.66666666666666,114.9492374420166L103,123.0866148630778L103.33333333333333,123.08823534647624L103.66666666666667,122.28108456929525L104,122.16841220855713L104.33333333333334,126.2344263712565L104.66666666666667,130.12756271362304L105,134.6001043955485L105.33333333333333,133.06490268707276L105.66666666666666,128.601221148173L106,131.69141171773276L106.33333333333333,135.24120063781737L106.66666666666667,132.85380846659342L107,130.35030415852864L107.33333333333333,134.11172370910646L107.66666666666666,134.27178395589192L108,132.21479784647624L108.33333333333333,133.50603802998862L108.66666666666667,135.05703194936117L109,133.8844359079997L109.33333333333334,133.55413862864177L109.66666666666667,135.1917308807373L109.99999999999999,135.02025597890218L110.33333333333333,134.2247674306234L110.66666666666666,135.17609246571857L111,135.68343130747476L111.33333333333333,135.07463970184327L111.66666666666667,135.32712376912434L112,136.03401463826498L112.33333333333334,135.81071802775065L112.66666666666666,135.69196135203043L113,136.26517359415692L113.33333333333333,136.3565808614095L113.66666666666667,136.16308689117432L114,136.5016928990682L114.33333333333334,136.7499532063802L114.66666666666667,136.63019873301187L115.00000000000001,136.78126004536946L115.33333333333333,137.05418771107992L115.66666666666666,137.03832798004152L116,137.0890168507894L116.33333333333333,137.3169235865275L116.66666666666667,137.37852821350097L117,137.39679616292318L117.33333333333334,137.56244932810466L117.66666666666667,137.66317437489826L118,137.68468329111735L118.33333333333333,137.79837595621746L118.66666666666667,137.90859133402506L119,137.94509347279865L119.33333333333334,138.024853515625L119.66666666666667,138.12843691507976L120,138.18038241068524L120.33333333333333,138.24458281199136L120.66666666666666,138.338529586792L121,138.40493189493816L121.33333333333333,138.45554949442547L121.66666666666667,138.54637908935547L122,138.6078899383545L122.33333333333334,138.66232617696124L122.66666666666667,138.74122346242268L122.99999999999999,138.80564517974852L123.33333333333333,138.86286849975585L123.66666666666666,138.9339672088623L124,139.00272146860758L124.33333333333333,139.06350084940593L124.66666666666667,139.13124230702718L125,139.20157578786214L125.33333333333334,139.2662825902303L125.66666666666666,139.33268864949545L126,139.40326595306396L126.33333333333333,139.4705872853597L126.66666666666667,139.53737595876058L127,139.6073793411255L127.33333333333334,139.676598739624L127.66666666666667,139.74441146850586L128,139.81424980163575L128.33333333333331,139.8845682779948L128.66666666666666,139.9537239074707L129,140.02380231221517L129.33333333333334,140.09478098551432L129.66666666666666,140.16503944396973L130,140.2355529785156L130.33333333333334,140.30679423014323L130.66666666666666,140.3778029123942L131,140.4486390431722L131.33333333333334,140.5198840459188L131.66666666666666,140.59111404418945L132,140.66207021077474L132.33333333333334,140.7330826441447L132.66666666666669,140.80409882863364L133,140.8748524347941L133.33333333333331,140.9454484939575L133.66666666666666,141.0158457438151L134,141.08602167765298L134.33333333333334,141.15591627756754L134.66666666666666,141.225484530131L135,141.29476019541423L135.33333333333334,141.36370576222737L135.66666666666669,141.4322124481201L136,141.50037403106688L136.33333333333331,141.5681942621867L136.66666666666666,141.6354668299357L137,141.70233427683513L137.33333333333334,141.76889788309734L137.66666666666666,141.8349925994873L138,141.90063343048095L138.33333333333334,141.96589164733888L138.66666666666666,142.03077100118003L139,142.09527524312338L139.33333333333334,142.15941937764487L139.66666666666666,142.2232484181722L140,142.28677736918132L140.33333333333334,142.34996871948243L140.66666666666669,142.41295750935873L141,142.47567621866864L141.33333333333331,142.53809858957925L141.66666666666666,142.60034090677897L142,142.66236941019696L142.33333333333334,142.72410907745362L142.66666666666666,142.7856761932373L143,142.8470595041911L143.33333333333334,142.90807145436605L143.66666666666666,142.96887334187826L144,143.0294501622518L144.33333333333334,143.08961811065674L144.66666666666666,143.14946721394858L145,143.20901997884116L145.33333333333334,143.2681676228841L145.66666666666669,143.3270601908366L146,143.3861328125L146.33333333333331,143.44567807515463L146.66666666666666,143.50464566548666L147,143.5647986094157L147.33333333333334,143.61833833058677L147.66666666666666,143.68109455108643L148,143.73250363667808L148.33333333333334,143.79137369791667L148.66666666666669,143.84494717915854L149,143.90098514556885L149.33333333333334,143.95294189453125L149.66666666666666,144.00738563537598L150,144.0602051417033L150.33333333333331,144.11213188171388L150.66666666666666,144.1641711552938L151,144.21609789530436L151.33333333333334,144.26743195851645L151.66666666666666,144.3185822168986L152,144.3696724573771L152.33333333333334,144.42053012847902L152.66666666666666,144.47117398579917L153,144.52161153157553L153.33333333333331,144.57195905049642L153.66666666666669,144.62214527130126L154,144.67206891377768L154.33333333333334,144.72182000478108L154.66666666666666,144.77149232228598L155.00000000000003,144.8209020614624L155.33333333333334,144.87015800476075L155.66666666666666,144.91923764546712L156,144.96814473470053L156.33333333333331,145.01691678365071L156.66666666666669,145.06543750762938L157,145.113800684611L157.33333333333334,145.16202507019042L157.66666666666666,145.21003189086915L157.99999999999997,145.25783615112306L158.33333333333334,145.30543409983318L158.66666666666666,145.35292701721193L159,145.40019861857095L159.33333333333331,145.44719638824463L159.66666666666669,145.4940591176351L160,145.540762424469L160.33333333333334,145.58725191752114L160.66666666666666,145.6335744857788L161,145.67984828948974L161.33333333333334,145.726069577535L161.66666666666666,145.77210330963135L162,145.81818205515543L162.33333333333334,145.8645515124003L162.66666666666669,145.91074091593424L163,145.9563507715861L163.33333333333331,146.00157426198322L163.66666666666669,146.0464001337687L164,146.09094467163087L164.33333333333334,146.1350972175598L164.66666666666666,146.17898530960082L165,146.2226408322652L165.33333333333334,146.2660769144694L165.66666666666666,146.3092560450236L166,146.35234514872235L166.33333333333331,146.39532171885173L166.66666666666669,146.43816324869792L167,146.48094288508096L167.33333333333334,146.52355372111003L167.66666666666666,146.56597137451172L168.00000000000003,146.60826899210613L168.33333333333334,146.6503640492757L168.66666666666666,146.69239908854166L169,146.7340158780416L169.33333333333331,146.77534008026123L169.66666666666669,146.81676743825278L170,146.85801286697387L170.33333333333334,146.8993220647176L170.66666666666666,146.94083194732667L170.99999999999997,146.98224242528278L171.33333333333334,147.02344284057617L171.66666666666666,147.06456260681153L172,147.1053560256958L172.33333333333331,147.1457555770874L172.66666666666669,147.1859188079834L173,147.2259282430013L173.33333333333331,147.26576137542725L173.66666666666666,147.3054913520813L174,147.34515755971273L174.33333333333334,147.3848331451416L174.66666666666666,147.42447497049966L175,147.46391798655193L175.33333333333334,147.50325597127278L175.66666666666669,147.5426164627075L176,147.58185691833495L176.33333333333331,147.6208479245504L176.66666666666669,147.6598370552063L177,147.6987961769104L177.33333333333334,147.73759212493897L177.66666666666666,147.77625115712485L178,147.81487642923992L178.33333333333334,147.85341730117798L178.66666666666666,147.89180812835693L179,147.9301145553589L179.33333333333331,147.96829907099405L179.66666666666669,148.00635042190552L180,148.04434175491332L180.33333333333334,148.08224118550618L180.66666666666666,148.11997369130452L181.00000000000003,148.15758053461713L181.33333333333334,148.19513486226398L181.66666666666666,148.23259353637695L182,148.26989841461182L182.33333333333331,148.30708513259887L182.66666666666669,148.34420057932536L183,148.3811828613281L183.33333333333334,148.4180432319641L183.66666666666666,148.45480419794717L184,148.4914751370748L184.33333333333334,148.52800353368124L184.66666666666666,148.56443252563477L185,148.60075836181642L185.33333333333331,148.63699792226157L185.66666666666669,148.67308368682862L186,148.70909442901612L186.33333333333331,148.74498325983683L186.66666666666666,148.78077456156413L187,148.81644020080566L187.33333333333334,148.8520026842753L187.66666666666666,148.88752390543618L188,148.92291571299234L188.33333333333334,148.95813684463502L188.66666666666669,148.99330546061196L189,149.02839342753092L189.33333333333331,149.06335573196412L189.66666666666669,149.0982205073039L190,149.1329708735148L190.33333333333334,149.1676143328349L190.66666666666666,149.20219964981078L191,149.23667243321736L191.33333333333334,149.27106269200644L191.66666666666666,149.30532541275025L192,149.3395131111145L192.33333333333331,149.37360515594483L192.66666666666669,149.40761655171713L193,149.441526667277L193.33333333333334,149.4753186225891L193.66666666666666,149.50903367996216L193.99999999999997,149.5426793416341L194.33333333333334,149.57623872756957L194.66666666666666,149.60970058441163L195,149.64303302764893L195.33333333333331,149.67629044850668L195.66666666666669,149.7094859759013L196,149.7426158587138L196.33333333333334,149.775625705719L196.66666666666666,149.80853239695233L197,149.84136781692504L197.33333333333334,149.87414509455363L197.66666666666666,149.9068229675293L198,149.93942206700643L198.33333333333331,149.97192176183066L198.66666666666669,150.0043333053589L199,150.03669045766196L199.33333333333331,150.06897633870443L199.66666666666666,150.10112342834472L200,150.13320299784343L200.33333333333334,150.16526006062827L200.66666666666666,150.1972458521525L201,150.22907784779866L201.33333333333334,150.26082356770834L201.66666666666669,150.29254678090413L202,150.32421747843426L202.33333333333331,150.35576626459758L202.66666666666669,150.38719501495362L203,150.41857500076293L203.33333333333334,150.44987996419272L203.66666666666666,150.4811436653137L204.00000000000003,150.51233984629312L204.33333333333334,150.54341224034627L204.66666666666666,150.57437585194904L205,150.60528882344562L205.33333333333331,150.63616428375244L205.66666666666669,150.66698910395306L206,150.6976713816325L206.33333333333334,150.72827676137288L206.66666666666666,150.75880899429322L206.99999999999997,150.7892849604289L207.33333333333334,150.81969528198243L207.66666666666666,150.85004933675128L208,150.88027210235595L208.33333333333331,150.91042359670004L208.66666666666669,150.94052069981893L209,150.97054653167726L209.33333333333334,151.0004842122396L209.66666666666666,151.0303374926249L210,151.0601307551066L210.33333333333334,151.0898377418518L210.66666666666666,151.11946970621744L211,151.1490153948466L211.33333333333331,151.17852732340495L211.66666666666669,151.20795110066732L212,151.2372886021932L212.33333333333331,151.26650981903077L212.66666666666666,151.29565976460773L213,151.32475344340006L213.33333333333334,151.35379648208618L213.66666666666666,151.38272698720297L214,151.41161810557048L214.33333333333334,151.44041169484456L214.66666666666666,151.46913588841755L215,151.49775692621867L215.33333333333331,151.52628231048584L215.66666666666669,151.55477956136068L216,151.5832317988078L216.33333333333334,151.6115658760071L216.66666666666666,151.63978179295856L217.00000000000003,151.6679433186849L217.33333333333334,151.69606358210245L217.66666666666666,151.72409944534303L218,151.7520434061686L218.33333333333331,151.77988046010336L218.66666666666669,151.80766687393188L219,151.8353876431783L219.33333333333334,151.8630277633667L219.66666666666666,151.89057223002115L219.99999999999997,151.91801541646322L220.33333333333334,151.94537045160928L220.66666666666666,151.97259419759115L221,151.99972604115803L221.33333333333331,152.02671909332275L221.66666666666669,152.05359586079913L222,152.08025506337484L222.33333333333334,152.10807898839315L222.66666666666666,152.13503452936808L223,152.16211198170978L223.33333333333334,152.18836981455485L223.66666666666666,152.21474768320718L224,152.2408911069234L224.33333333333334,152.26715831756593L224.66666666666669,152.29318358103433L225,152.31925010681152L225.33333333333331,152.3450971921285L225.66666666666666,152.37106806437174L226,152.39696016311646L226.33333333333334,152.42302481333414L226.66666666666666,152.44896004994712L227,152.47471335728963L227.33333333333334,152.4995307604472L227.66666666666666,152.5228308359782L228,152.54446353912354L228.33333333333331,152.56554482777912L228.66666666666669,152.5875113805135L229,152.61105715433757L229.33333333333334,152.63664353688557L229.66666666666666,152.66359157562255L230.00000000000003,152.69124857584634L230.33333333333334,152.71883805592853L230.66666666666666,152.74556477864584L231,152.7712074279785L231.33333333333331,152.79577725728353L231.66666666666669,152.8194393157959L232,152.84301509857178L232.33333333333334,152.86691535313923L232.66666666666666,152.89200846354169L232.99999999999997,152.91841821670533L233.33333333333334,152.94625339508056L233.66666666666666,152.9749532063802L234,153.00397373835244L234.33333333333331,153.03232657114665L234.66666666666669,153.05942465464273L235,153.08471469879152L235.33333333333334,153.1082192103068L235.66666666666666,153.1302138964335L236,153.1514658610026L236.33333333333334,153.17282660802204L236.66666666666666,153.19536895751952L237,153.21989752451577L237.33333333333334,153.24691683451334L237.66666666666669,153.27627684275308L238,153.30731360117593L238.33333333333331,153.3387592315674L238.66666666666669,153.36910015741984L239,153.39671777089436L239.33333333333334,153.42033856709799L239.66666666666666,153.43931172688804L240,153.453972975413L240.33333333333334,153.46563895543417L240.66666666666666,153.47628463109334L241,153.4882732073466L241.33333333333331,153.50514386494956L241.66666666666669,153.5303851445516L242,153.56596075693767L242.33333333333334,153.61200574239095L242.66666666666666,153.66617190043132L243.00000000000003,153.7241304397583L243.33333333333334,153.7802021662394L243.66666666666666,153.8277569770813L244,153.8601066271464L244.33333333333331,153.87093798319498L244.66666666666669,153.85514764785768L245,153.8100666999817L245.33333333333334,153.73751443227133L245.66666666666666,153.6464653968811L245.99999999999997,153.5558908780416L246.33333333333334,153.49496332804364L246.66666666666666,153.49750283559163L247,153.58849747975665L247.33333333333331,153.76865247090657L247.66666666666669,154.0082308133443L248,154.27063096364338L248.33333333333331,154.52913932800294L248.66666666666666,154.77234875361125L249,154.99355036417643L249.33333333333334,155.17011178334553L249.66666666666666,155.2610651652018L250,155.1840865770976L250.33333333333334,154.816792011261L250.66666666666669,153.88361676534018L251,151.694615650177L251.33333333333331,147.34342829386392L251.66666666666669,147.4020170211792L252,151.84671602249145L252.33333333333334,153.22573051452636L252.66666666666666,152.3885820388794L253,151.83088630040487L253.33333333333334,153.79820003509522L253.66666666666666,155.96819610595702L254,155.0982666015625L254.33333333333331,151.67073790232342L254.66666666666669,152.84168532689412L255,154.62030839920044L255.33333333333334,155.50477724075319L255.66666666666666,155.79001983006796L256,155.86141300201416L256.3333333333333,155.28131558100384L256.66666666666663,153.8481949488322L257,153.01207427978517L257.3333333333333,154.01919158299762L257.6666666666667,154.86445935567218L258,155.4130098660787L258.33333333333337,155.7238857269287L258.6666666666667,155.98805077870688L259,156.02948751449586L259.3333333333333,155.49601462682088L259.66666666666663,154.54131546020508L260,154.16514762242636L260.3333333333333,154.21997960408527L260.6666666666667,154.68051385879517L261,155.06184511184694L261.3333333333333,155.35175971984864L261.6666666666667,155.55492032368977L262,155.75896994272867L262.3333333333333,155.82905960083008L262.6666666666667,155.5555073738098L263,155.02080787022908L263.3333333333333,154.58822882970173L263.6666666666667,154.29973589579265L264,154.37322031656902L264.3333333333333,154.58119173049926L264.6666666666667,154.85268834431966L265,155.05644912719725L265.33333333333337,155.24200197855632L265.6666666666667,155.5630321184794L266,155.9535442352295L266.3333333333333,156.0816880861918L266.66666666666663,155.86280091603598L267,155.46160748799642L267.3333333333333,154.98864765167235L267.6666666666667,154.54743728637695L268,154.26281175613403L268.33333333333337,154.18689098358155L268.6666666666667,154.2784220377604L269,154.465242767334L269.3333333333333,154.6671898841858L269.66666666666663,154.97555624643962L270,155.5723705291748L270.3333333333333,156.2379165649414L270.6666666666667,156.66495145161946L271,156.8624366124471L271.33333333333337,156.93768030802408L271.6666666666667,156.9736554145813L272,156.95017153422037L272.3333333333333,156.80801162719726L272.66666666666663,156.47844206492107L273,155.93395964304608L273.3333333333333,155.14924805959066L273.6666666666667,154.05106859207154L274,152.52888514200845L274.3333333333333,149.11534061431885L274.6666666666667,143.45330034891765L275,150.4438350359599L275.3333333333333,152.23693180084229L275.6666666666667,150.34712368647257L276,149.58161970774333L276.3333333333333,154.60302511850992L276.6666666666667,155.85299361546834L277,151.33422501881918L277.3333333333333,155.57519887288413L277.6666666666667,155.83890441258748L278,156.17895647684733L278.33333333333337,156.67376283009847L278.6666666666667,155.592840385437L279,151.8027022679647L279.3333333333333,154.62553933461507L279.66666666666663,155.6526144663493L280,156.04004878997802L280.3333333333333,156.83519223531087L280.6666666666667,157.1736219406128L281,156.24459918340048L281.33333333333337,156.23318452835082L281.6666666666667,156.545814037323L282,156.6359515508016L282.3333333333333,156.8094464302063L282.66666666666663,157.07562583287557L283,156.82899163564048L283.3333333333333,155.39791536331177L283.6666666666667,153.4685329437256L284,154.39809023539226L284.33333333333337,155.2896374384562L284.6666666666667,155.6862319946289L285,155.99140803019205L285.3333333333333,156.49188232421875L285.6666666666667,157.0718428293864L286,157.00940920511883L286.3333333333333,156.40750465393066L286.6666666666667,156.5838578859965L287,156.74093036651612L287.3333333333333,156.68806584676108L287.6666666666667,156.49166100819906L288,156.45905628204346L288.3333333333333,156.61682647069296L288.6666666666667,156.06031796137492L289,153.7284348487854L289.3333333333333,146.84652694066364L289.66666666666663,152.69948040644329L290,154.6832728068034L290.3333333333333,154.92669229507447" style="fill: none;" fill="none"></path></g></g></g></g></g></g><g transform="translate(30, 177)" clip-path="url(#clip_1)"><clipPath id="clip_1"><rect width="300" height="23"></rect></clipPath><g><g><line x1="0" y1="0" x2="0" y2="5" style="visibility: inherit;" fill="rgb(0, 0, 0)" stroke="rgb(204, 204, 204)" stroke-width="1px"></line><line x1="33.33333333333333" y1="0" x2="33.33333333333333" y2="5" style="visibility: inherit;" fill="rgb(0, 0, 0)" stroke="rgb(204, 204, 204)" stroke-width="1px"></line><line x1="66.66666666666666" y1="0" x2="66.66666666666666" y2="5" style="visibility: inherit;" fill="rgb(0, 0, 0)" stroke="rgb(204, 204, 204)" stroke-width="1px"></line><line x1="100" y1="0" x2="100" y2="5" style="visibility: inherit;" fill="rgb(0, 0, 0)" stroke="rgb(204, 204, 204)" stroke-width="1px"></line><line x1="133.33333333333331" y1="0" x2="133.33333333333331" y2="5" style="visibility: inherit;" fill="rgb(0, 0, 0)" stroke="rgb(204, 204, 204)" stroke-width="1px"></line><line x1="166.66666666666669" y1="0" x2="166.66666666666669" y2="5" style="visibility: inherit;" fill="rgb(0, 0, 0)" stroke="rgb(204, 204, 204)" stroke-width="1px"></line><line x1="200" y1="0" x2="200" y2="5" style="visibility: inherit;" fill="rgb(0, 0, 0)" stroke="rgb(204, 204, 204)" stroke-width="1px"></line><line x1="233.33333333333334" y1="0" x2="233.33333333333334" y2="5" style="visibility: inherit;" fill="rgb(0, 0, 0)" stroke="rgb(204, 204, 204)" stroke-width="1px"></line><line x1="266.66666666666663" y1="0" x2="266.66666666666663" y2="5" style="visibility: inherit;" fill="rgb(0, 0, 0)" stroke="rgb(204, 204, 204)" stroke-width="1px"></line><line x1="300" y1="0" x2="300" y2="5" style="visibility: inherit;" fill="rgb(0, 0, 0)" stroke="rgb(204, 204, 204)" stroke-width="1px"></line></g><g transform="translate(0, 8)"><text x="0" y="0" dx="0em" dy="0.95em" style="text-anchor: middle; visibility: hidden; font-family: Roboto, sans-serif; font-size: 12px; font-weight: 200;" fill="rgb(33, 33, 33)" stroke="none" stroke-width="1px">-100</text><text x="33.33333333333333" y="0" dx="0em" dy="0.95em" style="text-anchor: middle; visibility: inherit; font-family: Roboto, sans-serif; font-size: 12px; font-weight: 200;" fill="rgb(33, 33, 33)" stroke="none" stroke-width="1px">0</text><text x="66.66666666666666" y="0" dx="0em" dy="0.95em" style="text-anchor: middle; visibility: inherit; font-family: Roboto, sans-serif; font-size: 12px; font-weight: 200;" fill="rgb(33, 33, 33)" stroke="none" stroke-width="1px">100</text><text x="100" y="0" dx="0em" dy="0.95em" style="text-anchor: middle; visibility: inherit; font-family: Roboto, sans-serif; font-size: 12px; font-weight: 200;" fill="rgb(33, 33, 33)" stroke="none" stroke-width="1px">200</text><text x="133.33333333333331" y="0" dx="0em" dy="0.95em" style="text-anchor: middle; visibility: inherit; font-family: Roboto, sans-serif; font-size: 12px; font-weight: 200;" fill="rgb(33, 33, 33)" stroke="none" stroke-width="1px">300</text><text x="166.66666666666669" y="0" dx="0em" dy="0.95em" style="text-anchor: middle; visibility: inherit; font-family: Roboto, sans-serif; font-size: 12px; font-weight: 200;" fill="rgb(33, 33, 33)" stroke="none" stroke-width="1px">400</text><text x="200" y="0" dx="0em" dy="0.95em" style="text-anchor: middle; visibility: inherit; font-family: Roboto, sans-serif; font-size: 12px; font-weight: 200;" fill="rgb(33, 33, 33)" stroke="none" stroke-width="1px">500</text><text x="233.33333333333334" y="0" dx="0em" dy="0.95em" style="text-anchor: middle; visibility: inherit; font-family: Roboto, sans-serif; font-size: 12px; font-weight: 200;" fill="rgb(33, 33, 33)" stroke="none" stroke-width="1px">600</text><text x="266.66666666666663" y="0" dx="0em" dy="0.95em" style="text-anchor: middle; visibility: inherit; font-family: Roboto, sans-serif; font-size: 12px; font-weight: 200;" fill="rgb(33, 33, 33)" stroke="none" stroke-width="1px">700</text><text x="300" y="0" dx="0em" dy="0.95em" style="text-anchor: middle; visibility: hidden; font-family: Roboto, sans-serif; font-size: 12px; font-weight: 200;" fill="rgb(33, 33, 33)" stroke="none" stroke-width="1px">800</text></g><line x1="0" y1="0" x2="300" y2="0" fill="rgb(0, 0, 0)" stroke="rgb(204, 204, 204)" stroke-width="1px"></line></g></g></g></g></svg>