<svg viewBox="0 0 330 200" xmlns="http://www.w3.org/2000/svg"><g><g><g><g><g><line x1="30.78125" y1="177" x2="25.78125" y2="177" style="visibility: inherit;" fill="rgb(0, 0, 0)" stroke="rgb(204, 204, 204)" stroke-width="1px"></line><line x1="30.78125" y1="159.3" x2="25.78125" y2="159.3" style="visibility: inherit;" fill="rgb(0, 0, 0)" stroke="rgb(204, 204, 204)" stroke-width="1px"></line><line x1="30.78125" y1="141.6" x2="25.78125" y2="141.6" style="visibility: inherit;" fill="rgb(0, 0, 0)" stroke="rgb(204, 204, 204)" stroke-width="1px"></line><line x1="30.78125" y1="123.89999999999999" x2="25.78125" y2="123.89999999999999" style="visibility: inherit;" fill="rgb(0, 0, 0)" stroke="rgb(204, 204, 204)" stroke-width="1px"></line><line x1="30.78125" y1="106.2" x2="25.78125" y2="106.2" style="visibility: inherit;" fill="rgb(0, 0, 0)" stroke="rgb(204, 204, 204)" stroke-width="1px"></line><line x1="30.78125" y1="88.5" x2="25.78125" y2="88.5" style="visibility: inherit;" fill="rgb(0, 0, 0)" stroke="rgb(204, 204, 204)" stroke-width="1px"></line><line x1="30.78125" y1="70.8" x2="25.78125" y2="70.8" style="visibility: inherit;" fill="rgb(0, 0, 0)" stroke="rgb(204, 204, 204)" stroke-width="1px"></line><line x1="30.78125" y1="53.10000000000001" x2="25.78125" y2="53.10000000000001" style="visibility: inherit;" fill="rgb(0, 0, 0)" stroke="rgb(204, 204, 204)" stroke-width="1px"></line><line x1="30.78125" y1="35.39999999999999" x2="25.78125" y2="35.39999999999999" style="visibility: inherit;" fill="rgb(0, 0, 0)" stroke="rgb(204, 204, 204)" stroke-width="1px"></line><line x1="30.78125" y1="17.699999999999996" x2="25.78125" y2="17.699999999999996" style="visibility: inherit;" fill="rgb(0, 0, 0)" stroke="rgb(204, 204, 204)" stroke-width="1px"></line><line x1="30.78125" y1="0" x2="25.78125" y2="0" style="visibility: inherit;" fill="rgb(0, 0, 0)" stroke="rgb(204, 204, 204)" stroke-width="1px"></line></g><g transform="translate(20.78125, 0)"><text x="0" y="177" dx="0em" dy="0.3em" style="text-anchor: end; visibility: hidden; font-family: Roboto, sans-serif; font-size: 12px; font-weight: 200;" fill="rgb(33, 33, 33)" stroke="none" stroke-width="1px">0</text><text x="0" y="159.3" dx="0em" dy="0.3em" style="text-anchor: end; visibility: inherit; font-family: Roboto, sans-serif; font-size: 12px; font-weight: 200;" fill="rgb(33, 33, 33)" stroke="none" stroke-width="1px">1</text><text x="0" y="141.6" dx="0em" dy="0.3em" style="text-anchor: end; visibility: hidden; font-family: Roboto, sans-serif; font-size: 12px; font-weight: 200;" fill="rgb(33, 33, 33)" stroke="none" stroke-width="1px">2</text><text x="0" y="123.89999999999999" dx="0em" dy="0.3em" style="text-anchor: end; visibility: inherit; font-family: Roboto, sans-serif; font-size: 12px; font-weight: 200;" fill="rgb(33, 33, 33)" stroke="none" stroke-width="1px">3</text><text x="0" y="106.2" dx="0em" dy="0.3em" style="text-anchor: end; visibility: hidden; font-family: Roboto, sans-serif; font-size: 12px; font-weight: 200;" fill="rgb(33, 33, 33)" stroke="none" stroke-width="1px">4</text><text x="0" y="88.5" dx="0em" dy="0.3em" style="text-anchor: end; visibility: inherit; font-family: Roboto, sans-serif; font-size: 12px; font-weight: 200;" fill="rgb(33, 33, 33)" stroke="none" stroke-width="1px">5</text><text x="0" y="70.8" dx="0em" dy="0.3em" style="text-anchor: end; visibility: hidden; font-family: Roboto, sans-serif; font-size: 12px; font-weight: 200;" fill="rgb(33, 33, 33)" stroke="none" stroke-width="1px">6</text><text x="0" y="53.10000000000001" dx="0em" dy="0.3em" style="text-anchor: end; visibility: inherit; font-family: Roboto, sans-serif; font-size: 12px; font-weight: 200;" fill="rgb(33, 33, 33)" stroke="none" stroke-width="1px">7</text><text x="0" y="35.39999999999999" dx="0em" dy="0.3em" style="text-anchor: end; visibility: hidden; font-family: Roboto, sans-serif; font-size: 12px; font-weight: 200;" fill="rgb(33, 33, 33)" stroke="none" stroke-width="1px">8</text><text x="0" y="17.699999999999996" dx="0em" dy="0.3em" style="text-anchor: end; visibility: inherit; font-family: Roboto, sans-serif; font-size: 12px; font-weight: 200;" fill="rgb(33, 33, 33)" stroke="none" stroke-width="1px">9</text><text x="0" y="0" dx="0em" dy="0.3em" style="text-anchor: end; visibility: hidden; font-family: Roboto, sans-serif; font-size: 12px; font-weight: 200;" fill="rgb(33, 33, 33)" stroke="none" stroke-width="1px">10</text></g><line x1="30.78125" y1="0" x2="30.78125" y2="177" fill="rgb(0, 0, 0)" stroke="rgb(204, 204, 204)" stroke-width="1px"></line></g></g><g transform="translate(30, 0)" clip-path="url(#clip_0)"><clipPath id="clip_0"><rect width="299" height="177"></rect></clipPath><g><g><g><line x1="0" y1="0" x2="0" y2="177" fill="rgb(0, 0, 0)" stroke="rgb(66, 66, 66)" stroke-width="1px" opacity="0.25"></line><line x1="33.24652777777778" y1="0" x2="33.24652777777778" y2="177" fill="rgb(0, 0, 0)" stroke="rgb(66, 66, 66)" stroke-width="1px" opacity="0.25"></line><line x1="66.49305555555556" y1="0" x2="66.49305555555556" y2="177" fill="rgb(0, 0, 0)" stroke="rgb(66, 66, 66)" stroke-width="1px" opacity="0.25"></line><line x1="99.73958333333333" y1="0" x2="99.73958333333333" y2="177" fill="rgb(0, 0, 0)" stroke="rgb(66, 66, 66)" stroke-width="1px" opacity="0.25"></line><line x1="132.98611111111111" y1="0" x2="132.98611111111111" y2="177" fill="rgb(0, 0, 0)" stroke="rgb(66, 66, 66)" stroke-width="1px" opacity="0.25"></line><line x1="166.23263888888889" y1="0" x2="166.23263888888889" y2="177" fill="rgb(0, 0, 0)" stroke="rgb(66, 66, 66)" stroke-width="1px" opacity="0.25"></line><line x1="199.47916666666666" y1="0" x2="199.47916666666666" y2="177" fill="rgb(0, 0, 0)" stroke="rgb(66, 66, 66)" stroke-width="1px" opacity="0.25"></line><line x1="232.72569444444446" y1="0" x2="232.72569444444446" y2="177" fill="rgb(0, 0, 0)" stroke="rgb(66, 66, 66)" stroke-width="1px" opacity="0.25"></line><line x1="265.97222222222223" y1="0" x2="265.97222222222223" y2="177" fill="rgb(0, 0, 0)" stroke="rgb(66, 66, 66)" stroke-width="1px" opacity="0.25"></line><line x1="299.21875" y1="0" x2="299.21875" y2="177" fill="rgb(0, 0, 0)" stroke="rgb(66, 66, 66)" stroke-width="1px" opacity="0.25"></line></g><g><line x1="0" y1="177" x2="299.21875" y2="177" fill="rgb(0, 0, 0)" stroke="rgb(66, 66, 66)" stroke-width="1px" opacity="0.25"></line><line x1="0" y1="159.3" x2="299.21875" y2="159.3" fill="rgb(0, 0, 0)" stroke="rgb(66, 66, 66)" stroke-width="1px" opacity="0.25"></line><line x1="0" y1="141.6" x2="299.21875" y2="141.6" fill="rgb(0, 0, 0)" stroke="rgb(66, 66, 66)" stroke-width="1px" opacity="0.25"></line><line x1="0" y1="123.89999999999999" x2="299.21875" y2="123.89999999999999" fill="rgb(0, 0, 0)" stroke="rgb(66, 66, 66)" stroke-width="1px" opacity="0.25"></line><line x1="0" y1="106.2" x2="299.21875" y2="106.2" fill="rgb(0, 0, 0)" stroke="rgb(66, 66, 66)" stroke-width="1px" opacity="0.25"></line><line x1="0" y1="88.5" x2="299.21875" y2="88.5" fill="rgb(0, 0, 0)" stroke="rgb(66, 66, 66)" stroke-width="1px" opacity="0.25"></line><line x1="0" y1="70.8" x2="299.21875" y2="70.8" fill="rgb(0, 0, 0)" stroke="rgb(66, 66, 66)" stroke-width="1px" opacity="0.25"></line><line x1="0" y1="53.10000000000001" x2="299.21875" y2="53.10000000000001" fill="rgb(0, 0, 0)" stroke="rgb(66, 66, 66)" stroke-width="1px" opacity="0.25"></line><line x1="0" y1="35.39999999999999" x2="299.21875" y2="35.39999999999999" fill="rgb(0, 0, 0)" stroke="rgb(66, 66, 66)" stroke-width="1px" opacity="0.25"></line><line x1="0" y1="17.699999999999996" x2="299.21875" y2="17.699999999999996" fill="rgb(0, 0, 0)" stroke="rgb(66, 66, 66)" stroke-width="1px" opacity="0.25"></line><line x1="0" y1="0" x2="299.21875" y2="0" fill="rgb(0, 0, 0)" stroke="rgb(66, 66, 66)" stroke-width="1px" opacity="0.25"></line></g></g></g><g><g><line x1="0" y1="177" x2="299.21875" y2="177" fill="rgb(0, 0, 0)" stroke="rgb(153, 153, 153)" stroke-width="1.5px"></line></g></g><g><g><line x1="33.24652777777778" y1="0" x2="33.24652777777778" y2="177" fill="rgb(0, 0, 0)" stroke="rgb(153, 153, 153)" stroke-width="1.5px"></line></g></g><g><g><g><g><g><path stroke="rgb(51, 187, 238)" stroke-width="2px" d="M33.24652777777778,13.525060844421382L33.57899305555556,13.524870944023128L33.91145833333333,13.52496783198144L34.243923611111114,13.52513469457626L34.576388888888886,13.525234447561328L34.908854166666664,13.525260762241286L35.24131944444444,13.525275742667631L35.57378472222222,13.52531192738839L35.90625,13.525346886795026L36.23871527777778,13.525367635588808L36.57118055555556,13.525380004278283L36.903645833333336,13.525387396710403L37.23611111111111,13.525391821857543L37.56857638888889,13.525394473244011L37.90104166666667,13.525396062745509L38.23350694444444,13.525397015967993L38.56597222222222,13.525397587729309L38.8984375,13.525397930724179L39.23090277777778,13.52539813649882L39.56336805555555,13.525398259955564L39.895833333333336,13.525398334026706L40.228298611111114,13.525398378468346L40.56076388888889,13.52539840513301L40.893229166666664,13.525398421131634L41.22569444444444,13.525398430730748L41.55815972222222,13.525398436490244L41.89062500000001,13.525398439945883L42.22309027777778,13.5254119460559L42.55555555555556,13.525406545683328L42.888020833333336,13.525416809492349L43.22048611111111,13.525422967776285L43.552951388888886,13.52542666274615L43.885416666666664,13.525442383756852L44.21788194444445,13.52548557643454L44.55034722222222,13.525585764197412L44.8828125,13.525659380882466L45.21527777777778,13.525757567006643L45.54774305555556,13.525877246808426L45.88020833333333,13.526077342958576L46.21267361111111,13.526602521498498L46.54513888888889,13.52898374495665L46.87760416666667,13.543214297884143L47.21006944444444,13.579287343389336L47.54253472222222,13.733419192559333L47.875,14.889630868988315L48.20746527777778,18.002800356914303L48.53993055555555,23.13072303050258L48.872395833333336,29.998155288334896L49.204861111111114,37.896646774181555L49.53732638888889,45.68410388259558L49.869791666666664,53.30781939288775L50.20225694444444,60.64775134721032L50.53472222222222,66.41445940971565L50.86718750000001,73.95918610955191L51.19965277777778,84.21022106209989L51.53211805555556,92.61396215081291L51.864583333333336,100.24120360923033L52.197048611111114,106.27268180794928L52.529513888888886,111.75453045813734L52.861979166666664,115.14348674564673L53.19444444444445,117.88390443294719L53.52690972222222,120.935484108743L53.859375,122.30247401321944L54.19184027777778,122.94207352116715L54.52430555555556,124.02937115737804L54.85677083333333,124.11379731600884L55.18923611111111,122.74922577920796L55.52170138888889,120.88867914428259L55.85416666666667,119.16306628555026L56.18663194444444,115.97336548429706L56.51909722222222,113.90102121509301L56.8515625,110.05417809770816L57.18402777777778,106.68637061289735L57.51649305555555,97.378986712526L57.84895833333333,94.72215206398411L58.181423611111114,95.2917240844598L58.51388888888889,92.96389645018759L58.846354166666664,96.1355248742019L59.17881944444444,96.81512473897425L59.51128472222222,97.56029293344191L59.84375,96.29970143679245L60.17621527777777,95.23595096614041L60.50868055555556,96.05013320175455L60.841145833333336,95.05485029535085L61.173611111111114,95.27576471517436L61.506076388888886,95.72476339071962L61.838541666666664,95.76783508139832L62.17100694444444,96.43986610697497L62.50347222222223,97.3149998720097L62.8359375,98.3533682474856L63.16840277777778,99.85372911270645L63.50086805555556,101.87270373807064L63.833333333333336,104.34424392405577L64.16579861111111,106.93466378225939L64.49826388888889,109.30332001313003L64.83072916666667,111.41351122060081L65.16319444444444,113.45142167567408L65.49565972222221,115.54425106143471L65.828125,117.58640979823778L66.16059027777779,119.30007991252727L66.49305555555556,120.48904237424367L66.82552083333333,121.2401230983438L67.15798611111111,121.77757880285394L67.49045138888889,122.24409969565279L67.82291666666666,122.73374667118195L68.15538194444444,123.31023831337812L68.48784722222223,123.92706461888625L68.8203125,124.48858337963863L69.15277777777777,124.94522641518859L69.48524305555556,125.31526638996093L69.81770833333333,125.66135188300304L70.15017361111111,126.02978720402058L70.48263888888889,126.42418948015771L70.81510416666667,126.81287945271254L71.14756944444444,127.16677724934054L71.48003472222223,127.4805531240489L71.8125,127.77611321788942L72.14496527777777,128.07431876767825L72.47743055555556,128.3779855591604L72.80989583333334,128.67975705281194L73.14236111111111,128.96985653767163L73.47482638888889,129.24835469561324L73.80729166666667,129.52476869963112L74.13975694444444,129.80466537322107L74.47222222222221,130.08864686873855L74.8046875,130.37912877790512L75.13715277777779,130.6799169086956L75.46961805555556,130.99585375926156L75.80208333333334,131.3314788159207L76.1345486111111,131.686472300081L76.46701388888889,132.05959409438879L76.79947916666666,132.49691353060788L77.13194444444444,132.87567615638963L77.46440972222223,133.29168122369524L77.796875,133.7804473576455L78.12934027777779,134.21644630536488L78.46180555555556,134.666727333695L78.79427083333333,135.14920797194858L79.1267361111111,135.6383348455776L79.45920138888889,136.14033679907018L79.79166666666667,136.65748426404295L80.12413194444444,137.19798604182418L80.45659722222223,137.8000784750701L80.7890625,138.32906240677363L81.12152777777779,138.83813569578842L81.45399305555554,139.39232218285392L81.78645833333333,139.9442373992204L82.11892361111111,140.45926919467445L82.45138888888889,140.9685850840044L82.78385416666667,141.49242334730815L83.11631944444444,142.02548987607594L83.44878472222223,142.57685551488657L83.78125000000001,143.0538298406855L84.11371527777777,143.53250676385497L84.44618055555556,144.02509906048735L84.77864583333333,144.44304229113555L85.11111111111111,144.88423359687982L85.44357638888889,145.28540152249252L85.77604166666667,145.66005379877993L86.10850694444446,146.03272187067574L86.44097222222221,146.39315565677586L86.7734375,146.72558180005612L87.10590277777777,147.05999505705392L87.43836805555556,147.35612830750202L87.77083333333333,147.65337123651537L88.10329861111111,147.9154200254633L88.4357638888889,148.17324671380246L88.76822916666667,148.4057976700814L89.10069444444444,148.6237216602535L89.43315972222221,148.83309059922522L89.765625,149.0391959713973L90.09809027777777,149.2352669505523L90.43055555555556,149.44363297630827L90.76302083333334,149.63434378152775L91.09548611111111,149.84003302005343L91.4279513888889,150.0235943493093L91.76041666666666,150.21340828995972L92.09288194444444,150.388723103172L92.42534722222221,150.55449443815135L92.7578125,150.7194070443987L93.09027777777779,150.86761814746137L93.42274305555556,151.01652463908718L93.75520833333334,151.15614149949386L94.08767361111111,151.28938024748228L94.42013888888889,151.42116968100584L94.75260416666666,151.54419135728668L95.08506944444444,151.66640026854986L95.41753472222223,151.78494891814896L95.75,151.90061861331768L96.08246527777779,152.0156007460088L96.41493055555556,152.12662975378814L96.74739583333333,152.23707954637993L97.0798611111111,152.34534273000233L97.41232638888889,152.45160017878814L97.74479166666667,152.55638579410913L98.07725694444444,152.6581411688483L98.40972222222223,152.75703014904L98.7421875,152.85132631047807L99.07465277777779,152.9380551265731L99.40711805555554,153.00908498806086L99.73958333333333,153.03206551577048L100.07204861111111,152.78312620941043L100.40451388888889,152.34159959687733L100.73697916666667,152.3499435504314L101.06944444444444,151.58590901375035L101.40190972222223,151.0663243274702L101.73437500000001,151.0687852466591L102.06684027777777,151.34467124965715L102.39930555555556,150.47431812302426L102.73177083333333,150.5272976733217L103.06423611111111,150.43046206575448L103.39670138888889,150.33795918906816L103.72916666666667,150.458382036001L104.06163194444446,150.84967516524227L104.39409722222223,150.48524101413864L104.7265625,150.7410968866204L105.05902777777777,151.16455762423604L105.39149305555556,151.40198022387938L105.72395833333333,151.25133138097834L106.05642361111111,151.4335175108761L106.3888888888889,151.7503633160502L106.72135416666667,151.80638086194458L107.05381944444444,151.87162626382508L107.38628472222221,152.06178230164525L107.71875,152.22833485435294L108.05121527777777,152.28740910429266L108.38368055555556,152.43247598015373L108.71614583333334,152.61450006486837L109.04861111111111,152.69981069756665L109.3810763888889,152.80433630104733L109.71354166666666,152.95551148865147L110.04600694444444,153.0691244972558L110.37847222222221,153.15577003316946L110.7109375,153.2786703834347L111.04340277777779,153.39940883215738L111.37586805555556,153.4879065030603L111.70833333333334,153.59164858781028L112.04079861111111,153.70621182038028L112.37326388888889,153.80126995512032L112.70572916666666,153.89556667010893L113.03819444444444,154.00170701504294L113.37065972222221,154.09996406650868L113.703125,154.19169932613568L114.03559027777779,154.29110290294764L114.36805555555556,154.38893444112466L114.70052083333334,154.48036544067577L115.0329861111111,154.5749140676434L115.36545138888889,154.67019049266426L115.69791666666666,154.76073746168285L116.03038194444444,154.8514514034013L116.36284722222223,154.94307745844247L116.6953125,155.03147556155992L117.02777777777779,155.11861800295156L117.36024305555556,155.20612534965304L117.69270833333333,155.29140825441615L118.0251736111111,155.37494715315782L118.35763888888889,155.45827099003006L118.69010416666667,155.5399727506495L119.02256944444444,155.61988764781097L119.35503472222223,155.69916930781804L119.6875,155.77707847945098L120.01996527777777,155.85326445217254L120.35243055555554,155.92929595539164L120.68489583333333,156.00507526057478L121.01736111111111,156.08071421895932L121.34982638888889,156.1529891783864L121.68229166666667,156.22707244246425L122.01475694444444,156.29617822461856L122.34722222222223,156.36713027175387L122.67968749999999,156.43510510931085L123.01215277777777,156.50295208459897L123.34461805555556,156.56889592269542L123.67708333333333,156.6345334402292L124.00954861111111,156.6985439223986L124.34201388888889,156.7617874957884L124.67447916666667,156.823856898413L125.00694444444446,156.88494412199609L125.33940972222221,156.9447896247861L125.671875,157.0036411145781L126.00434027777777,157.06128260728445L126.33680555555556,157.11774149678186L126.66927083333333,157.17301733936094L127.00173611111111,157.22711408880485L127.3342013888889,157.27996406523664L127.66666666666667,157.3316321609514L127.99913194444444,157.38213030326943L128.33159722222223,157.43146227257597L128.6640625,157.47967591319767L128.99652777777777,157.52683200379784L129.32899305555557,157.5729568835531L129.66145833333334,157.6181043360492L129.99392361111111,157.66234123551013L130.32638888888889,157.70571108247736L130.65885416666666,157.74826445332707L130.99131944444443,157.79005954594336L131.32378472222223,157.83114225107983L131.65625,157.87155023120974L131.98871527777777,157.91133055986842L132.32118055555557,157.95052076519656L132.65364583333334,157.98914927209097L132.98611111111111,158.02725001552508L133.31857638888889,158.06484757649187L133.65104166666666,158.10196767561007L133.98350694444446,158.13862827725632L134.31597222222223,158.17485282008303L134.6484375,158.21065621128352L134.98090277777777,158.2460566791932L135.31336805555557,158.2810668488169L135.64583333333331,158.31570020316983L135.97829861111111,158.34996989607183L136.31076388888889,158.38388803982357L136.64322916666666,158.41746696581615L136.97569444444446,158.45071913689478L137.30815972222223,158.48365203076662L137.640625,158.51628195008078L137.9730902777778,158.5486195204284L138.30555555555554,158.58067449317133L138.63802083333334,158.61246200314616L138.97048611111111,158.64399788326892L139.30295138888889,158.6752975413017L139.63541666666666,158.7063803499229L139.96788194444446,158.73726215274854L140.30034722222223,158.76796342797115L140.6328125,158.79850490252397L140.96527777777777,158.82890323257578L141.29774305555554,158.8591844478615L141.63020833333334,158.88936501022386L141.96267361111111,158.91946070478087L142.29513888888889,158.94948944262103L142.62760416666669,158.97945859439037L142.96006944444446,159.00937427048004L143.29253472222223,159.03924098112654L143.625,159.06904792844335L143.95746527777777,159.09878525769165L144.28993055555554,159.12843524000317L144.62239583333334,159.15796867001814L144.95486111111111,159.18734861247992L145.28732638888889,159.21654109020983L145.61979166666669,159.24552909290765L145.95225694444443,159.2744058046101L146.28472222222223,159.3030448313569L146.6171875,159.33118128037543L146.94965277777777,159.35787635836655L147.28211805555557,159.38388090010676L147.61458333333334,159.408632182337L147.94704861111111,159.43265218690465L148.27951388888889,159.45639378521102L148.61197916666666,159.47936825450216L148.94444444444443,159.5020250826833L149.27690972222223,159.52415161548598L149.609375,159.54579328071205L149.94184027777777,159.56687689883188L150.27430555555557,159.5874345222871L150.60677083333331,159.6074241924143L150.93923611111111,159.62685196208096L151.27170138888889,159.645734545035L151.60416666666669,159.66408407952954L151.93663194444443,159.6819226185475L152.2690972222222,159.69927605390515L152.6015625,159.71617553472498L152.93402777777777,159.73265114450442L153.26649305555557,159.74872473134988L153.59895833333331,159.76441911014552L153.93142361111111,159.77976400585553L154.26388888888889,159.7947772534584L154.59635416666669,159.80947588395446L154.92881944444446,159.82388193196874L155.2612847222222,159.8380065082718L155.59375,159.8518664073473L155.92621527777777,159.86547550389324L156.25868055555557,159.87884676473828L156.59114583333331,159.8919913459867L156.92361111111111,159.90492142731247L157.25607638888889,159.91764431652007L157.58854166666666,159.93016777429926L157.92100694444446,159.94250489708153L158.2534722222222,159.95466058871966L158.5859375,159.9666365255226L158.91840277777777,159.97844552930053L159.25086805555557,159.99009233913335L159.58333333333334,160.00158022046992L159.91579861111111,160.0129191505963L160.24826388888889,160.0241184918913L160.58072916666666,160.03519567780688L160.91319444444446,160.0461704524338L161.2456597222222,160.05692426395296L161.578125,160.06713489074636L161.91059027777777,160.0765237556644L162.24305555555557,160.08508111874744L162.57552083333334,160.0930108704596L162.9079861111111,160.10060414543327L163.24045138888889,160.10812551063643L163.57291666666666,160.11575649429767L163.90538194444446,160.12357900529747L164.23784722222223,160.1316016768792L164.5703125,160.13978580089682L164.90277777777777,160.1480790344016L165.23524305555554,160.15642971558194L165.56770833333334,160.1647929213215L165.9001736111111,160.17313789974267L166.23263888888889,160.18144324571261L166.56510416666666,160.18970033616048L166.89756944444446,160.19789935523403L167.23003472222223,160.20603905543166L167.56250000000003,160.2141051842241L167.89496527777777,160.22207906207257L168.22743055555554,160.22991361117846L168.55989583333334,160.23755231080347L168.89236111111111,160.24487136231596L169.22482638888889,160.25173571840963L169.55729166666666,160.2580651947024L169.88975694444446,160.26393152881636L170.22222222222223,160.26944148545846L170.55468749999997,160.27471651557318L170.88715277777777,160.27988899185198L171.21961805555554,160.28506028195582L171.55208333333334,160.29029627049187L171.88454861111111,160.2956356442226L172.2170138888889,160.3010843131693L172.54947916666666,160.30662219129513L172.88194444444443,160.31223300696917L173.21440972222223,160.31789940119688L173.546875,160.32360927057803L173.87934027777777,160.32936379309024L174.21180555555554,160.3351548135014L174.54427083333334,160.34097912667582L174.87673611111111,160.3468398735427L175.2092013888889,160.3527254346313L175.54166666666666,160.35862419624937L175.87413194444443,160.36453552019483L176.20659722222223,160.3704586015456L176.5390625,160.376376077313L176.8715277777778,160.38228807972598L177.20399305555554,160.38819975213246L177.53645833333334,160.3941070065262L177.86892361111111,160.40000781210435L178.20138888888889,160.40590348239047L178.53385416666666,160.41179480549874L178.86631944444443,160.41768141029584L179.19878472222223,160.42356434010452L179.53125,160.4294425329148L179.8637152777778,160.43531535152073L180.19618055555554,160.44118452360317L180.52864583333334,160.4470548837786L180.86111111111111,160.45292426880627L181.19357638888889,160.4587930687453L181.52604166666669,160.46466573764002L181.85850694444443,160.4705407279081L182.19097222222223,160.476417955002L182.5234375,160.48230243220377L182.8559027777778,160.48819294747383L183.18836805555554,160.49409003959101L183.52083333333331,160.49999487582446L183.85329861111111,160.5059090005374L184.18576388888889,160.5118329183469L184.51822916666669,160.51776608802138L184.85069444444443,160.52370776282106L185.18315972222223,160.52966382471533L185.515625,160.53562978486903L185.84809027777777,160.54161096799785L186.18055555555557,160.5476017069126L186.51302083333331,160.55360830732016L186.84548611111111,160.5596303326358L187.17795138888889,160.56566372290075L187.51041666666669,160.5717098401476L187.84288194444443,160.57777456560666L188.17534722222223,160.58385425400098L188.5078125,160.58994967217063L188.84027777777777,160.5960595922161L189.17274305555557,160.60218834140832L189.50520833333331,160.60833471810182L189.83767361111111,160.61449926731206L190.17013888888889,160.6206806280447L190.50260416666669,160.62688304771382L190.83506944444446,160.63310443275807L191.1675347222222,160.6393469030478L191.5,160.64560793249717L191.83246527777777,160.65189106946534L192.16493055555557,160.65819506696073L192.49739583333331,160.66452297479634L192.82986111111111,160.67087662286L193.16232638888889,160.67725373307724L193.49479166666666,160.68365547060884L193.82725694444446,160.69008126854848L194.1597222222222,160.69653247475594L194.4921875,160.70301411795597L194.82465277777777,160.70952499537458L195.15711805555557,160.71606607335085L195.48958333333334,160.7226345556812L195.82204861111111,160.72923467265585L196.15451388888889,160.7358676964463L196.48697916666666,160.74253354635363L196.81944444444446,160.74923386196213L197.1519097222222,160.75596962702224L197.484375,160.7627397437808L197.81684027777777,160.76954819559555L198.14930555555557,160.77639737248123L198.48177083333334,160.78328448843777L198.8142361111111,160.79021166987312L199.14670138888889,160.7971806146329L199.47916666666666,160.8041940294281L199.81163194444446,160.81125311628432L200.14409722222223,160.81835142240197L200.4765625,160.8254952041225L200.80902777777777,160.83268863725164L201.14149305555557,160.839930007264L201.47395833333334,160.84721997344792L201.8064236111111,160.85455935337723L202.13888888888889,160.861949481598L202.47135416666666,160.8693928468415L202.80381944444446,160.87689052034548L203.13628472222223,160.88444187885005L203.46875000000003,160.8920440163939L203.80121527777777,160.89970320741708L204.13368055555554,160.9074198405765L204.46614583333334,160.91519499306813L204.79861111111111,160.92302931120955L205.13107638888889,160.93091938478327L205.46354166666666,160.93886907567128L205.79600694444446,160.94688112300364L206.12847222222223,160.9549550602539L206.46093749999997,160.96309187350892L206.79340277777777,160.97129088841808L207.12586805555554,160.97954959036667L207.45833333333334,160.9878753326044L207.79079861111111,160.99626872907314L208.1232638888889,161.00472550612827L208.45572916666666,161.01324900759542L208.78819444444446,161.02183617575935L209.12065972222223,161.03049235000591L209.453125,161.03921735795964L209.78559027777777,161.0480094081916L210.11805555555554,161.05686742584453L210.45052083333334,161.06579540801374L210.78298611111111,161.07479575295645L211.1154513888889,161.08386441361546L211.44791666666666,161.09300022775912L211.78038194444443,161.10220756205905L212.11284722222223,161.11148608251207L212.4453125,161.1208389647233L212.7777777777778,161.1302609400408L213.11024305555554,161.13975475528576L213.44270833333334,161.14931657253945L213.77517361111111,161.1589537950709L214.10763888888889,161.16866158082215L214.44010416666666,161.1784412445672L214.77256944444443,161.1882935751705L215.10503472222223,161.19822326595954L215.4375,161.2082230049096L215.7699652777778,161.21829178081288L216.10243055555554,161.22843109694918L216.43489583333334,161.23864480929257L216.76736111111111,161.248933121423L217.09982638888889,161.2592948894859L217.43229166666669,161.26972394115688L217.76475694444443,161.28022627906182L218.09722222222223,161.2908025507699L218.4296875,161.30145061281743L218.7621527777778,161.31216960112704L219.09461805555554,161.32295941925318L219.42708333333331,161.33382802734536L219.75954861111111,161.34477387148002L220.09201388888889,161.355803193318L220.42447916666669,161.36691425184438L220.75694444444443,161.37811739647404L221.08940972222223,161.38940111281883L221.421875,161.400885936513L221.7543402777778,161.41238465839294L222.08680555555557,161.42412381967108L222.41927083333331,161.4360064005864L222.75173611111111,161.44815775966717L223.08420138888889,161.46047840366407L223.41666666666669,161.47302342086817L223.74913194444443,161.48569377797716L224.08159722222223,161.4985098131768L224.4140625,161.51140354921057L224.74652777777777,161.52440171986598L225.07899305555557,161.53747394531834L225.41145833333331,161.55067415982407L225.74392361111111,161.56402037590695L226.07638888888889,161.577638185322L226.40885416666669,161.59166497725232L226.74131944444443,161.60627264939535L227.0737847222222,161.62141453005546L227.40625,161.6369558499913L227.73871527777777,161.6526060132182L228.07118055555557,161.66825143027282L228.40364583333331,161.68358593897804L228.73611111111111,161.6987355906772L229.06857638888889,161.7134628915195L229.40104166666669,161.72803215404775L229.73350694444446,161.74231289518133L230.0659722222222,161.75648973162328L230.3984375,161.7705122290573L230.73090277777777,161.78443874707946L231.06336805555557,161.79825534934477L231.39583333333331,161.81198827811883L231.72829861111111,161.8256705807972L232.06076388888889,161.83935078187753L232.39322916666666,161.85310061814766L232.72569444444446,161.8669677736901L233.0581597222222,161.88102052703755L233.390625,161.89528001126803L233.72309027777777,161.9097665022442L234.05555555555557,161.92445334140237L234.38802083333334,161.93933212962017L234.72048611111111,161.95436280135075L235.05295138888889,161.9695204732642L235.38541666666666,161.98477249132546L235.71788194444446,162.00012036315772L236.0503472222222,162.01557343335253L236.3828125,162.03116558272424L236.71527777777777,162.04691671776047L237.04774305555557,162.06284258036177L237.38020833333334,162.07892687361456L237.7126736111111,162.09513154531132L238.04513888888889,162.11138270202048L238.37760416666666,162.1276132196353L238.71006944444446,162.14377607167756L239.04253472222223,162.1599122504055L239.375,162.17623371956705L239.70746527777777,162.19313351796842L240.03993055555554,162.21067360452875L240.37239583333334,162.2285265458349L240.7048611111111,162.24655116395496L241.03732638888889,162.26474082229342L241.36979166666666,162.2831717190612L241.70225694444446,162.30179842099358L242.03472222222223,162.32049365392214L242.36718750000003,162.33907555312445L242.69965277777777,162.35723159534055L243.03211805555554,162.37456326617192L243.36458333333334,162.39066350062723L243.69704861111111,162.4052053475382L244.02951388888889,162.41800529623043L244.36197916666666,162.42914060869225L244.69444444444446,162.43899904083256L245.02690972222223,162.44833948130037L245.35937499999997,162.45829668470995L245.69184027777777,162.47039001958834L246.02430555555554,162.48661438332357L246.35677083333334,162.51002140823815L246.68923611111111,162.54659456243405L247.0217013888889,162.60253442424707L247.35416666666666,162.67145019947395L247.68663194444443,162.74391336786093L248.01909722222223,162.80831576077546L248.3515625,162.85768614702468L248.68402777777777,162.88820977266457L249.01649305555554,162.8975834372987L249.34895833333334,162.88974116583762L249.68142361111111,162.87208839380799L250.0138888888889,162.85159490182434L250.34635416666666,162.83168126865883L250.67881944444443,162.9159843166152L251.01128472222223,163.09874779459713L251.34375,163.22184660957384L251.6762152777778,163.3921297247775L252.00868055555554,163.68574029538436L252.34114583333334,163.95163077791577L252.67361111111111,163.92406422305132L253.00607638888889,163.52864218955057L253.33854166666666,163.22826270106324L253.67100694444443,163.18112016107375L254.00347222222223,163.25552306643567L254.3359375,163.31779263062143L254.6684027777778,163.38503667380132L255.00086805555554,163.46772076049874L255.33333333333334,163.4205284295048L255.66579861111111,163.2700336466769L255.99826388888889,163.21669097247957L256.3307291666667,163.2923474997475L256.66319444444446,163.38931330026355L256.99565972222223,163.47252798307636L257.328125,163.56740959303795L257.66059027777777,163.63592712531818L257.99305555555554,163.6193572977205L258.3255208333333,163.5185615646255L258.65798611111114,163.4170926468022L258.99045138888886,163.40411514857095L259.3229166666667,163.4294641591232L259.65538194444446,163.4601323018742L259.98784722222223,163.50464955629542L260.3203125,163.5805571941235L260.65277777777777,163.67404782937157L260.98524305555554,163.73481629232282L261.3177083333333,163.72184081041644L261.65017361111114,163.65500198342698L261.98263888888886,163.60320082270084L262.3151041666667,163.5910818920313L262.64756944444446,163.58624758874052L262.98003472222223,163.57920844408673L263.3125,163.58908822687152L263.64496527777777,163.63511841864397L263.97743055555554,163.7238658939064L264.3098958333333,163.8378200503743L264.64236111111114,163.92571514919737L264.97482638888886,163.9388457374295L265.3072916666667,163.88532760360957L265.63975694444446,163.82356651913597L265.97222222222223,163.78970357114954L266.3046875,163.76246329984L266.63715277777777,163.72554110789852L266.96961805555554,163.69561622443533L267.3020833333333,163.69672434033595L267.63454861111114,163.7369712048867L267.9670138888889,163.8160663708507L268.29947916666663,163.9321298423087L268.63194444444446,164.05481596843455L268.96440972222223,164.12358855996163L269.296875,164.12020821925182L269.62934027777777,164.08819516394246L269.96180555555554,164.0710542910916L270.2942708333333,164.06637056312695L270.62673611111114,164.04842399860462L270.9592013888889,164.01523177686357L271.29166666666663,163.9842178205432L271.62413194444446,163.97035611270556L271.95659722222223,163.97562625049764L272.2890625,163.9948205687953L272.62152777777777,164.01468771328643L272.95399305555554,164.0248613383181L273.2864583333333,164.04612927113814L273.6189236111111,164.0880599980047L273.9513888888889,164.32619932678287L274.28385416666663,164.61261724106637L274.61631944444446,164.7790845243464L274.94878472222223,165.06299146225035L275.28125,165.36096641665685L275.61371527777777,165.05037806299916L275.9461805555556,164.41021120707745L276.2786458333333,164.31617677784297L276.6111111111111,164.5784136305829L276.9435763888889,164.62606716219068L277.2760416666667,164.6925980047195L277.60850694444446,164.57001240943723L277.94097222222223,164.23146390852244L278.2734375,164.2520670171792L278.60590277777777,164.53060678459494L278.93836805555554,164.71147732387357L279.2708333333333,164.8343054774426L279.6032986111111,164.75949983614817L279.9357638888889,164.50951642524083L280.2682291666667,164.3402552862816L280.60069444444446,164.3928863322647L280.93315972222223,164.4912170598454L281.265625,164.6000487369029L281.59809027777777,164.65992081175614L281.93055555555554,164.64603149420245L282.2630208333333,164.49117835239304L282.5954861111111,164.34589446947416L282.9279513888889,164.35510323384668L283.2604166666667,164.45446418726004L283.59288194444446,164.5749552309725L283.92534722222223,164.7281659948953L284.2578125,164.82832147050667L284.59027777777777,164.8244427977131L284.92274305555554,164.69241784203803L285.25520833333337,164.5392375075147L285.5876736111111,164.48289132138046L285.9201388888889,164.52772516262502L286.2526041666667,164.58863705070002L286.58506944444446,164.68047811550608L286.91753472222223,164.77150009371465L287.25,164.8770935195543L287.58246527777777,164.90018056260692L287.91493055555554,164.75137803332296L288.24739583333337,164.60096377954653L288.5798611111111,164.70277162805658L288.91232638888886,164.94792552718798L289.2447916666667,165.1040908856945L289.57725694444446,165.23921117566567" style="fill: none;" fill="none"></path></g></g></g></g><g opacity="0.2"><g><g><g><path stroke="rgb(51, 187, 238)" stroke-width="2px" d="M33.24652777777778,13.525060844421382L33.57899305555556,13.524757003784188L33.91145833333333,13.525060844421382L34.243923611111114,13.525330924987784L34.576388888888886,13.525364685058598L34.908854166666664,13.525297164916992L35.24131944444444,13.525297164916992L35.57378472222222,13.525364685058598L35.90625,13.52539844512939L36.23871527777778,13.52539844512939L36.57118055555556,13.52539844512939L36.903645833333336,13.52539844512939L37.23611111111111,13.52539844512939L37.56857638888889,13.52539844512939L37.90104166666667,13.52539844512939L38.23350694444444,13.52539844512939L38.56597222222222,13.52539844512939L38.8984375,13.52539844512939L39.23090277777778,13.52539844512939L39.56336805555555,13.52539844512939L39.895833333333336,13.52539844512939L40.228298611111114,13.52539844512939L40.56076388888889,13.52539844512939L40.893229166666664,13.52539844512939L41.22569444444444,13.52539844512939L41.55815972222222,13.52539844512939L41.89062500000001,13.52539844512939L42.22309027777778,13.525432205200204L42.55555555555556,13.52539844512939L42.888020833333336,13.525432205200204L43.22048611111111,13.525432205200204L43.552951388888886,13.525432205200204L43.885416666666664,13.525465965270996L44.21788194444445,13.525550365447998L44.55034722222222,13.525736045837398L44.8828125,13.525769805908212L45.21527777777778,13.525904846191402L45.54774305555556,13.52605676651001L45.88020833333333,13.526377487182621L46.21267361111111,13.527390289306645L46.54513888888889,13.53255558013916L46.87760416666667,13.564560127258297L47.21006944444444,13.633396911621098L47.54253472222222,13.964616966247554L47.875,16.623948383331303L48.20746527777778,22.67255458831788L48.53993055555555,30.822607040405273L48.872395833333336,40.29930367469787L49.204861111111114,49.74438400268554L49.53732638888889,57.36528954505921L49.869791666666664,64.74339265823365L50.20225694444444,71.65764927864075L50.53472222222222,75.06452150344849L50.86718750000001,85.2762761592865L51.19965277777778,99.58677349090577L51.53211805555556,105.21957378387451L51.864583333333336,111.68206579685211L52.197048611111114,115.31989910602569L52.529513888888886,119.97730343341827L52.861979166666664,120.22692117691041L53.19444444444445,121.9945309638977L53.52690972222222,125.51285362243652L53.859375,124.35295886993408L54.19184027777778,123.90147278308869L54.52430555555556,125.66031761169434L54.85677083333333,124.24043655395508L55.18923611111111,120.70236847400666L55.52170138888889,118.09785919189453L55.85416666666667,116.57464699745178L56.18663194444444,111.1888142824173L56.51909722222222,110.79250481128692L56.8515625,104.28391342163086L57.18402777777778,101.63465938568116L57.51649305555555,83.41791086196899L57.84895833333333,90.73690009117126L58.181423611111114,96.14608211517334L58.51388888888889,89.47215499877929L58.846354166666664,100.89296751022339L59.17881944444444,97.8345245361328L59.51128472222222,98.67804522514344L59.84375,94.40881419181824L60.17621527777777,93.64032526016236L60.50868055555556,97.27140655517577L60.841145833333336,93.56192593574524L61.173611111111114,95.60713634490968L61.506076388888886,96.39826140403748L61.838541666666664,95.83244261741639L62.17100694444444,97.44791264533997L62.50347222222223,98.62770051956177L62.8359375,99.91092081069947L63.16840277777778,102.10427041053772L63.50086805555556,104.90116567611695L63.833333333333336,108.05155420303345L64.16579861111111,110.82029356956481L64.49826388888889,112.85630435943604L64.83072916666667,114.57879803180695L65.16319444444444,116.508287358284L65.49565972222221,118.68349514007569L65.828125,120.64964790344239L66.16059027777779,121.87058508396149L66.49305555555556,122.27248606681825L66.82552083333333,122.36674418449401L67.15798611111111,122.58376235961914L67.49045138888889,122.94388103485107L67.82291666666666,123.46821713447571L68.15538194444444,124.17497577667235L68.48784722222223,124.85230407714845L68.8203125,125.33086152076721L69.15277777777777,125.63019096851349L69.48524305555556,125.87032635211945L69.81770833333333,126.18048012256622L70.15017361111111,126.58244018554687L70.48263888888889,127.0157928943634L70.81510416666667,127.39591441154481L71.14756944444444,127.69762394428254L71.48003472222223,127.95121693611145L71.8125,128.2194533586502L72.14496527777777,128.52162709236146L72.47743055555556,128.83348574638367L72.80989583333334,129.13241429328917L73.14236111111111,129.40500576496123L73.47482638888889,129.66610193252563L73.80729166666667,129.93938970565796L74.13975694444444,130.22451038360595L74.47222222222221,130.51461911201477L74.8046875,130.81485164165497L75.13715277777779,131.1310991048813L75.46961805555556,131.46975903511049L75.80208333333334,131.83491640090944L76.1345486111111,132.2189625263214L76.46701388888889,132.61927678585053L76.79947916666666,133.15289268493652L77.13194444444444,133.44382009506225L77.46440972222223,133.9156888246536L77.796875,134.51359655857087L78.12934027777779,134.87044472694396L78.46180555555556,135.34214887619018L78.79427083333333,135.8729289293289L79.1267361111111,136.37202515602112L79.45920138888889,136.89333972930908L79.79166666666667,137.43320546150207L80.12413194444444,138.00873870849608L80.45659722222223,138.70321712493896L80.7890625,139.1225383043289L81.12152777777779,139.6017456293106L81.45399305555554,140.22360191345214L81.78645833333333,140.77211022377014L82.11892361111111,141.23181688785553L82.45138888888889,141.73255891799926L82.78385416666667,142.2781807422638L83.11631944444444,142.8250896692276L83.44878472222223,143.40390397310256L83.78125000000001,143.76929132938386L84.11371527777777,144.25052214860915L84.44618055555556,144.76398750543595L84.77864583333333,145.06995713710785L85.11111111111111,145.54602055549623L85.44357638888889,145.88715341091157L85.77604166666667,146.22203221321107L86.10850694444446,146.59172397851944L86.44097222222221,146.93380633592605L86.7734375,147.2242210149765L87.10590277777777,147.56161494255065L87.43836805555556,147.80032818317414L87.77083333333333,148.0992356300354L88.10329861111111,148.30849320888518L88.4357638888889,148.55998674631118L88.76822916666667,148.7546241044998L89.10069444444444,148.95060764551164L89.43315972222221,149.1471440076828L89.765625,149.34835402965547L90.09809027777777,149.5293734192848L90.43055555555556,149.75618201494217L90.76302083333334,149.92040998935698L91.09548611111111,150.14856687784194L91.4279513888889,150.29893634319305L91.76041666666666,150.49812920093535L92.09288194444444,150.6516953229904L92.42534722222221,150.8031514406204L92.7578125,150.96677595376968L93.09027777777779,151.08993480205535L93.42274305555556,151.23988437652588L93.75520833333334,151.3655667901039L94.08767361111111,151.48923836946489L94.42013888888889,151.6188538312912L94.75260416666666,151.72872387170793L95.08506944444444,151.84971363544463L95.41753472222223,151.9627718925476L95.75,152.0741231560707L96.08246527777779,152.18807394504546L96.41493055555556,152.29317326545714L96.74739583333333,152.40275423526765L97.0798611111111,152.50773750543595L97.41232638888889,152.61098635196686L97.74479166666667,152.7135642170906L98.07725694444444,152.81077423095704L98.40972222222223,152.90536361932755L98.7421875,152.9927705526352L99.07465277777779,153.06814835071563L99.40711805555554,153.11562978029252L99.73958333333333,153.0665363073349L100.07204861111111,152.4097172498703L100.40451388888889,151.6793096780777L100.73697916666667,152.36245948076248L101.06944444444444,150.4398572087288L101.40190972222223,150.28694729804994L101.73437500000001,151.0724766254425L102.06684027777777,151.7585002541542L102.39930555555556,149.16878843307495L102.73177083333333,150.60676699876785L103.06423611111111,150.28520865440368L103.39670138888889,150.19920487403868L103.72916666666667,150.6390163064003L104.06163194444446,151.43661485910417L104.39409722222223,149.9385897874832L104.7265625,151.12488069534302L105.05902777777777,151.79974873065947L105.39149305555556,151.75811412334443L105.72395833333333,151.02535811662673L106.05642361111111,151.7067967057228L106.3888888888889,152.22563202381133L106.72135416666667,151.89040718078613L107.05381944444444,151.96949436664582L107.38628472222221,152.34701635837556L107.71875,152.47816368341446L108.05121527777777,152.37602047920228L108.38368055555556,152.65007629394532L108.71614583333334,152.8875361919403L109.04861111111111,152.82777664661407L109.3810763888889,152.96112470626832L109.71354166666666,153.1822742700577L110.04600694444444,153.23954401016235L110.37847222222221,153.28573833703996L110.7109375,153.46302090883256L111.04340277777779,153.5805165052414L111.37586805555556,153.62065300941467L111.70833333333334,153.7472617149353L112.04079861111111,153.87805666923524L112.37326388888889,153.94385715723038L112.70572916666666,154.03701174259186L113.03819444444444,154.160917532444L113.37065972222221,154.24734964370728L113.703125,154.32930221557618L114.03559027777779,154.44020826816558L114.36805555555556,154.5356817483902L114.70052083333334,154.61751194000243L115.0329861111111,154.71673700809478L115.36545138888889,154.81310513019562L115.69791666666666,154.89655791521074L116.03038194444444,154.987522315979L116.36284722222223,155.0805165410042L116.6953125,155.16407271623612L117.02777777777779,155.24933166503905L117.36024305555556,155.3373863697052L117.69270833333333,155.41933261156083L118.0251736111111,155.5002555012703L118.35763888888889,155.58325674533845L118.69010416666667,155.66252539157867L119.02256944444444,155.73975999355315L119.35503472222223,155.81809179782869L119.6875,155.89394223690033L120.01996527777777,155.9675434112549L120.35243055555554,156.04334321022034L120.68489583333333,156.11874421834946L121.01736111111111,156.1941726565361L121.34982638888889,156.261401617527L121.68229166666667,156.3381973385811L122.01475694444444,156.39983689785004L122.34722222222223,156.4735583424568L122.67968749999999,156.53706736564635L123.01215277777777,156.60472254753114L123.34461805555556,156.6678116798401L123.67708333333333,156.73298971652986L124.00954861111111,156.79455964565278L124.34201388888889,156.8566528558731L124.67447916666667,156.91696100234986L125.00694444444446,156.97657495737076L125.33940972222221,157.0345578789711L125.671875,157.09191834926605L126.00434027777777,157.14774484634398L126.33680555555556,157.20242983102798L126.66927083333333,157.25593110322953L127.00173611111111,157.30825921297074L127.3342013888889,157.35923902988435L127.66666666666667,157.40913430452346L127.99913194444444,157.45787751674652L128.33159722222223,157.5054602265358L128.6640625,157.55199637413025L128.99652777777777,157.59756613969802L129.32899305555557,157.64214420318604L129.66145833333334,157.6858255147934L129.99392361111111,157.72869658470154L130.32638888888889,157.77076585292815L130.65885416666666,157.8120945096016L130.99131944444443,157.85275218486785L131.32378472222223,157.89276630878447L131.65625,157.93216220140457L131.98871527777777,157.97100105285645L132.32118055555557,158.00930607318878L132.65364583333334,158.04709203243254L132.98611111111111,158.08440113067627L133.31857638888889,158.12124391794205L133.65104166666666,158.1576478242874L133.98350694444446,158.19361917972566L134.31597222222223,158.22918963432312L134.6484375,158.26436129808425L134.98090277777777,158.29915738105774L135.31336805555557,158.3335821032524L135.64583333333331,158.36765023469925L135.97829861111111,158.4013744354248L136.31076388888889,158.4347652554512L136.64322916666666,158.467835354805L136.97569444444446,158.50059739351272L137.30815972222223,158.5330513715744L137.640625,158.56522682905197L137.9730902777778,158.59712587594987L138.30555555555554,158.62875695228576L138.63802083333334,158.66014326810836L138.97048611111111,158.69130170345306L139.30295138888889,158.72224702835084L139.63541666666666,158.75300456285476L139.96788194444446,158.783584856987L140.30034722222223,158.81401534080504L140.6328125,158.84431711435317L140.96527777777777,158.8745007276535L141.29774305555554,158.9046062707901L141.63020833333334,158.9346358537674L141.96267361111111,158.96460424661637L142.29513888888889,158.99453254938126L142.62760416666669,159.02441232204438L142.96006944444446,159.05424778461457L143.29253472222223,159.08404104709626L143.625,159.11375834941865L143.95746527777777,159.14339125156403L144.28993055555554,159.17291021347046L144.62239583333334,159.20226881504058L144.95486111111111,159.23141852617263L145.28732638888889,159.26032980680466L145.61979166666669,159.28901109695434L145.95225694444443,159.31772087216376L146.28472222222223,159.34600337147714L146.6171875,159.3733859539032L146.94965277777777,159.39791897535324L147.28211805555557,159.42288771271706L147.61458333333334,159.44575910568238L147.94704861111111,159.4686821937561L148.27951388888889,159.4920061826706L148.61197916666666,159.51382995843886L148.94444444444443,159.536010324955L149.27690972222223,159.55734141469003L149.609375,159.5782557785511L149.94184027777777,159.59850232601167L150.27430555555557,159.61827095746995L150.60677083333331,159.63740869760514L150.93923611111111,159.65599361658096L151.27170138888889,159.674058419466L151.60416666666669,159.69160838127135L151.93663194444443,159.70868042707443L152.2690972222222,159.7253062069416L152.6015625,159.74152475595474L152.93402777777777,159.7573645591736L153.26649305555557,159.77283511161804L153.59895833333331,159.787960678339L153.93142361111111,159.80278134942054L154.26388888888889,159.81729712486268L154.59635416666669,159.83152382969857L154.92881944444446,159.84549100399016L155.2612847222222,159.85919337272645L155.59375,159.87265625596046L155.92621527777777,159.88588914871215L156.25868055555557,159.89890365600587L156.59114583333331,159.91170821785926L156.92361111111111,159.92431654930115L157.25607638888889,159.9367286503315L157.58854166666666,159.94895296096803L157.92100694444446,159.96101058125495L158.2534722222222,159.97289412617684L158.5859375,159.984600430727L158.91840277777777,159.99615903496743L159.25086805555557,160.0075625538826L159.58333333333334,160.01881204247474L159.91579861111111,160.0299275457859L160.24826388888889,160.04091750383378L160.58072916666666,160.0518114566803L160.91319444444446,160.06263261437417L161.2456597222222,160.07305498123168L161.578125,160.08245083093644L161.91059027777777,160.09060705304145L162.24305555555557,160.09791716337205L162.57552083333334,160.1049054980278L162.9079861111111,160.11199405789375L163.24045138888889,160.11940755844117L163.57291666666666,160.1272029697895L163.90538194444446,160.13531277179717L164.23784722222223,160.1436356842518L164.5703125,160.15206198692323L164.90277777777777,160.1605188846588L165.23524305555554,160.16895573735238L165.56770833333334,160.17733772993088L165.9001736111111,160.1856553673744L166.23263888888889,160.19390126466752L166.56510416666666,160.20208597183228L166.89756944444446,160.2101978838444L167.23003472222223,160.21824860572815L167.56250000000003,160.22620437741278L167.89496527777777,160.2340398788452L168.22743055555554,160.24166543483733L168.55989583333334,160.24901036024093L168.89236111111111,160.25584993958472L169.22482638888889,160.2620322525501L169.55729166666666,160.26755940914154L169.88975694444446,160.27273102998734L170.22222222222223,160.2777064204216L170.55468749999997,160.28262906074525L170.88715277777777,160.2876477062702L171.21961805555554,160.29281721711158L171.55208333333334,160.2981502532959L171.88454861111111,160.30364470481874L172.2170138888889,160.30925731658937L172.54947916666666,160.3149290084839L172.88194444444443,160.3206492304802L173.21440972222223,160.32639899253846L173.546875,160.3321740746498L173.87934027777777,160.33799557685853L174.21180555555554,160.34384134411812L174.54427083333334,160.34971559643745L174.87673611111111,160.35563099384308L175.2092013888889,160.3615537762642L175.54166666666666,160.36747233867646L175.87413194444443,160.37340250611305L176.20659722222223,160.37934322357177L176.5390625,160.38525229096413L176.8715277777778,160.3911560833454L177.20399305555554,160.39706726074218L177.53645833333334,160.40296788811685L177.86892361111111,160.40885902047157L178.20138888888889,160.41474698781968L178.53385416666666,160.42063179016114L178.86631944444443,160.42651131749153L179.19878472222223,160.4323887348175L179.53125,160.4382598221302L179.8637152777778,160.44412457942963L180.19618055555554,160.44998828172683L180.52864583333334,160.45586042404176L180.86111111111111,160.4617283463478L181.19357638888889,160.46759626865386L181.52604166666669,160.47347474098206L181.85850694444443,160.47935321331025L182.19097222222223,160.48523379564284L182.5234375,160.49112914800645L182.8559027777778,160.49702872037886L183.18836805555554,160.5029356777668L183.52083333333331,160.50885213017463L183.85329861111111,160.51478018760682L184.18576388888889,160.5207187950611L184.51822916666669,160.5266658425331L184.85069444444443,160.5326202750206L185.18315972222223,160.53859791755676L185.515625,160.54457872509957L185.84809027777777,160.55058274269103L186.18055555555557,160.55658781528473L186.51302083333331,160.5626182079315L186.84548611111111,160.56866337060927L187.17795138888889,160.5747138082981L187.51041666666669,160.5807790160179L187.84288194444443,160.58687165379524L188.17534722222223,160.5929737865925L188.5078125,160.59909279942514L188.84027777777777,160.6052244722843L189.17274305555557,160.61138146519662L189.50520833333331,160.61755428314208L189.83767361111111,160.6237460911274L190.17013888888889,160.62995266914368L190.50260416666669,160.6361866772175L190.83506944444446,160.64243651032447L191.1675347222222,160.64871060848236L191.5,160.6549994766712L191.83246527777777,160.6613157749176L192.16493055555557,160.6676510632038L192.49739583333331,160.67401483654976L192.82986111111111,160.68040709495546L193.16232638888889,160.68681939840317L193.49479166666666,160.6932580769062L193.82725694444446,160.69971996545792L194.1597222222222,160.70620928406714L194.4921875,160.71273658275604L194.82465277777777,160.71929131150245L195.15711805555557,160.72587769031526L195.48958333333334,160.73248727917672L195.82204861111111,160.73913484811783L196.15451388888889,160.74581723213197L196.48697916666666,160.7525323212147L196.81944444444446,160.75928433537484L197.1519097222222,160.76607327461244L197.484375,160.7728949189186L197.81684027777777,160.7797608733177L198.14930555555557,160.78667113780975L198.48177083333334,160.7936151623726L198.8142361111111,160.80060244202613L199.14670138888889,160.8076340317726L199.47916666666666,160.81471415162088L199.81163194444446,160.82184174656868L200.14409722222223,160.82899888157846L200.4765625,160.83621087670326L200.80902777777777,160.84347878694535L201.14149305555557,160.85079206228255L201.47395833333334,160.85815492272377L201.8064236111111,160.86556842327118L202.13888888888889,160.87303467392923L202.47135416666666,160.88055789470673L202.80381944444446,160.8881370306015L203.13628472222223,160.8957689166069L203.46875000000003,160.90344722270964L203.80121527777777,160.9111919939518L204.13368055555554,160.91899479031562L204.46614583333334,160.92685772180556L204.79861111111111,160.93478078842162L205.13107638888889,160.9427544951439L205.46354166666666,160.95079361200334L205.79600694444446,160.95889919400216L206.12847222222223,160.9670659661293L206.46093749999997,160.97529709339142L206.79340277777777,160.98358941078186L207.12586805555554,160.99193764328956L207.45833333333334,161.000363945961L207.79079861111111,161.00885882377625L208.1232638888889,161.01741067171096L208.45572916666666,161.02603425979615L208.78819444444446,161.03471692800522L209.12065972222223,161.0434766113758L209.453125,161.0523048698902L209.78559027777777,161.0611974835396L210.11805555555554,161.07015445232392L210.45052083333334,161.07918738126756L210.78298611111111,161.08829627037048L211.1154513888889,161.09746740460395L211.44791666666666,161.1067039489746L211.78038194444443,161.116018563509L212.11284722222223,161.1254038631916L212.4453125,161.13486828804017L212.7777777777778,161.14439390301703L213.11024305555554,161.15399547815323L213.44270833333334,161.16365929841996L213.77517361111111,161.17340962886811L214.10763888888889,161.183223259449L214.44010416666666,161.19311074018478L214.77256944444443,161.20307207107544L215.10503472222223,161.2131178021431L215.4375,161.22322261333466L215.7699652777778,161.23339494466782L216.10243055555554,161.24364007115364L216.43489583333334,161.25396537780762L216.76736111111111,161.26436558961868L217.09982638888889,161.2748375415802L217.43229166666669,161.2853675186634L217.76475694444443,161.2959797859192L218.09722222222223,161.30666695833207L218.4296875,161.31742270588876L218.7621527777778,161.32824808359146L219.09461805555554,161.3391441464424L219.42708333333331,161.35013093948365L219.75954861111111,161.36119263768197L220.09201388888889,161.37234717607498L220.42447916666669,161.38358083963394L220.75694444444443,161.39492211341857L221.08940972222223,161.40632668733596L221.421875,161.4181131720543L221.7543402777778,161.42963274121286L222.08680555555557,161.44173256158828L222.41927083333331,161.4538302719593L222.75173611111111,161.46638479828835L223.08420138888889,161.47895936965944L223.41666666666669,161.49184094667436L223.74913194444443,161.5046993136406L224.08159722222223,161.51773386597634L224.4140625,161.5307441532612L224.74652777777777,161.54389897584915L225.07899305555557,161.55708228349687L225.41145833333331,161.57047448158264L225.74392361111111,161.58403970003127L226.07638888888889,161.59806489944458L226.40885416666669,161.6127051651478L226.74131944444443,161.62818415760995L227.0737847222222,161.6441273510456L227.40625,161.66026782989502L227.73871527777777,161.67608125805856L228.07118055555557,161.6917195558548L228.40364583333331,161.7065877020359L228.73611111111111,161.72146006822587L229.06857638888889,161.73555384278296L229.40104166666669,161.7498860478401L229.73350694444446,161.76373400688172L230.0659722222222,161.77775498628617L230.3984375,161.7915459752083L230.73090277777777,161.8053285241127L231.06336805555557,161.81898025274276L231.39583333333331,161.8325876712799L231.72829861111111,161.84619403481483L232.06076388888889,161.859871083498L232.39322916666666,161.87372537255288L232.72569444444446,161.88776850700378L233.0581597222222,161.90209965705873L233.390625,161.9166692376137L233.72309027777777,161.9314962387085L234.05555555555557,161.94648360013963L234.38802083333334,161.96165031194687L234.72048611111111,161.9769088089466L235.05295138888889,161.9922569811344L235.38541666666666,162.00765051841736L235.71788194444446,162.02314217090606L236.0503472222222,162.03875303864478L236.3828125,162.05455380678177L236.71527777777777,162.07054342031478L237.04774305555557,162.08673137426376L237.38020833333334,162.10305331349372L237.7126736111111,162.11943855285645L238.04513888888889,162.1357594370842L238.37760416666666,162.15195899605752L238.71006944444446,162.16802034974097L239.04253472222223,162.18411651849746L239.375,162.20071592330933L239.70746527777777,162.21848321557044L240.03993055555554,162.2369837343693L240.37239583333334,162.25530595779418L240.7048611111111,162.27358809113503L241.03732638888889,162.2920253098011L241.36979166666666,162.3108180642128L241.70225694444446,162.3297384738922L242.03472222222223,162.34853650331496L242.36718750000003,162.36694840192794L242.69965277777777,162.3844656586647L243.03211805555554,162.40056077241897L243.36458333333334,162.41481385231017L243.69704861111111,162.42701811790465L244.02951388888889,162.4372052192688L244.36197916666666,162.44584357738495L244.69444444444446,162.45378668904306L245.02690972222223,162.4623501420021L245.35937499999997,162.47323248982428L245.69184027777777,162.4885300219059L246.02430555555554,162.51095092892646L246.35677083333334,162.54513194561005L246.68923611111111,162.60145429372787L247.0217013888889,162.68644421696663L247.35416666666666,162.77482386231424L247.68663194444443,162.85260812044143L248.01909722222223,162.90491935014725L248.3515625,162.93174172639846L248.68402777777777,162.93399521112443L249.01649305555554,162.91164393424987L249.34895833333334,162.877977758646L249.68142361111111,162.84560923576356L250.0138888888889,162.82085466384888L250.34635416666666,162.8018108189106L250.67881944444443,163.0424388885498L251.01128472222223,163.37289301156997L251.34375,163.40649483203887L251.6762152777778,163.647554397583L252.00868055555554,164.1261561512947L252.34114583333334,164.3504665017128L252.67361111111111,163.8827143907547L253.00607638888889,162.9355091392994L253.33854166666666,162.7776934683323L253.67100694444443,163.11040635108947L254.00347222222223,163.36712742447853L254.3359375,163.4111969769001L254.6684027777778,163.48590273857116L255.00086805555554,163.5917468905449L255.33333333333334,163.34973993301392L255.66579861111111,163.044291472435L255.99826388888889,163.13667696118355L256.3307291666667,163.4058322906494L256.66319444444446,163.5347620010376L256.99565972222223,163.5973500072956L257.328125,163.70973200798034L257.66059027777777,163.73870342373849L257.99305555555554,163.59450255632402L258.3255208333333,163.36736796498298L258.65798611111114,163.26488927006721L258.99045138888886,163.38464890122412L259.3229166666667,163.46748767495154L259.65538194444446,163.50613451600074L259.98784722222223,163.57142543792725L260.3203125,163.69441865086554L260.65277777777777,163.81428378224373L260.98524305555554,163.82596898674964L261.3177083333333,163.70237758755684L261.65017361111114,163.5547437429428L261.98263888888886,163.52549908161163L262.3151041666667,163.57290349602698L262.64756944444446,163.5789961338043L262.98003472222223,163.5686497271061L263.3125,163.60390790104867L263.64496527777777,163.70416370630264L263.97743055555554,163.8569871068001L264.3098958333333,164.00875128507613L264.64236111111114,164.05755779743194L264.97482638888886,163.9585416197777L265.3072916666667,163.80505040287971L265.63975694444446,163.73092489242555L265.97222222222223,163.73890914916993L266.3046875,163.72160289287567L266.63715277777777,163.67015781998634L266.96961805555554,163.6507288992405L267.3020833333333,163.69838651418686L267.63454861111114,163.7973415017128L267.9670138888889,163.93470911979676L268.29947916666663,164.1062250494957L268.63194444444446,164.2388451576233L268.96440972222223,164.22674744725228L269.296875,164.1151377081871L269.62934027777777,164.0401755809784L269.96180555555554,164.04534298181534L270.2942708333333,164.05934497117997L270.62673611111114,164.02150415182115L270.9592013888889,163.965443444252L271.29166666666663,163.9376968860626L271.62413194444446,163.9495635509491L271.95659722222223,163.98353145718573L272.2890625,164.02361204624177L272.62152777777777,164.0444884300232L272.95399305555554,164.04012177586554L273.2864583333333,164.0780311703682L273.6189236111111,164.15095608830453L273.9513888888889,164.6834083199501L274.28385416666663,165.0422441124916L274.61631944444446,165.02878544926642L274.94878472222223,165.4888518691063L275.28125,165.8079288482666L275.61371527777777,164.58449553251268L275.9461805555556,163.44996092319488L276.2786458333333,164.17512513399123L276.6111111111111,164.97176890969277L276.9435763888889,164.69754745960236L277.2760416666667,164.79239426851274L277.60850694444446,164.38613401651384L277.94097222222223,163.72364115715027L278.2734375,164.28297168016434L278.60590277777777,164.94841643571854L278.93836805555554,164.98278313279152L279.2708333333333,165.0185477077961L279.6032986111111,164.64729137420653L279.9357638888889,164.13454130887985L280.2682291666667,164.08636357784272L280.60069444444446,164.4718329012394L280.93315972222223,164.6387131512165L281.265625,164.76329625248908L281.59809027777777,164.74972892403602L281.93055555555554,164.62519751787187L282.2630208333333,164.25889863967896L282.5954861111111,164.12796864509582L282.9279513888889,164.36891638040544L283.2604166666667,164.60350561738014L283.59288194444446,164.7556917965412L283.92534722222223,164.9579821407795L284.2578125,164.97855468392373L284.59027777777777,164.81862478852273L284.92274305555554,164.49438040852547L285.25520833333337,164.3094670057297L285.5876736111111,164.39837204217912L285.9201388888889,164.59497592449188L286.2526041666667,164.6800048828125L286.58506944444446,164.81823971271515L286.91753472222223,164.90803306102754L287.25,165.03548365831375L287.58246527777777,164.9348111271858L287.91493055555554,164.52817423939706L288.24739583333337,164.3753423988819L288.5798611111111,164.8554834008217L288.91232638888886,165.315656375885L289.2447916666667,165.33833892345427L289.57725694444446,165.4418916106224" style="fill: none;" fill="none"></path></g></g></g></g></g></g><g transform="translate(30, 177)" clip-path="url(#clip_1)"><clipPath id="clip_1"><rect width="299" height="23"></rect></clipPath><g><g><line x1="0" y1="0" x2="0" y2="5" style="visibility: inherit;" fill="rgb(0, 0, 0)" stroke="rgb(204, 204, 204)" stroke-width="1px"></line><line x1="33.24652777777778" y1="0" x2="33.24652777777778" y2="5" style="visibility: inherit;" fill="rgb(0, 0, 0)" stroke="rgb(204, 204, 204)" stroke-width="1px"></line><line x1="66.49305555555556" y1="0" x2="66.49305555555556" y2="5" style="visibility: inherit;" fill="rgb(0, 0, 0)" stroke="rgb(204, 204, 204)" stroke-width="1px"></line><line x1="99.73958333333333" y1="0" x2="99.73958333333333" y2="5" style="visibility: inherit;" fill="rgb(0, 0, 0)" stroke="rgb(204, 204, 204)" stroke-width="1px"></line><line x1="132.98611111111111" y1="0" x2="132.98611111111111" y2="5" style="visibility: inherit;" fill="rgb(0, 0, 0)" stroke="rgb(204, 204, 204)" stroke-width="1px"></line><line x1="166.23263888888889" y1="0" x2="166.23263888888889" y2="5" style="visibility: inherit;" fill="rgb(0, 0, 0)" stroke="rgb(204, 204, 204)" stroke-width="1px"></line><line x1="199.47916666666666" y1="0" x2="199.47916666666666" y2="5" style="visibility: inherit;" fill="rgb(0, 0, 0)" stroke="rgb(204, 204, 204)" stroke-width="1px"></line><line x1="232.72569444444446" y1="0" x2="232.72569444444446" y2="5" style="visibility: inherit;" fill="rgb(0, 0, 0)" stroke="rgb(204, 204, 204)" stroke-width="1px"></line><line x1="265.97222222222223" y1="0" x2="265.97222222222223" y2="5" style="visibility: inherit;" fill="rgb(0, 0, 0)" stroke="rgb(204, 204, 204)" stroke-width="1px"></line><line x1="299.21875" y1="0" x2="299.21875" y2="5" style="visibility: inherit;" fill="rgb(0, 0, 0)" stroke="rgb(204, 204, 204)" stroke-width="1px"></line></g><g transform="translate(0, 8)"><text x="0" y="0" dx="0em" dy="0.95em" style="text-anchor: middle; visibility: hidden; font-family: Roboto, sans-serif; font-size: 12px; font-weight: 200;" fill="rgb(33, 33, 33)" stroke="none" stroke-width="1px">-100</text><text x="33.24652777777778" y="0" dx="0em" dy="0.95em" style="text-anchor: middle; visibility: inherit; font-family: Roboto, sans-serif; font-size: 12px; font-weight: 200;" fill="rgb(33, 33, 33)" stroke="none" stroke-width="1px">0</text><text x="66.49305555555556" y="0" dx="0em" dy="0.95em" style="text-anchor: middle; visibility: inherit; font-family: Roboto, sans-serif; font-size: 12px; font-weight: 200;" fill="rgb(33, 33, 33)" stroke="none" stroke-width="1px">100</text><text x="99.73958333333333" y="0" dx="0em" dy="0.95em" style="text-anchor: middle; visibility: inherit; font-family: Roboto, sans-serif; font-size: 12px; font-weight: 200;" fill="rgb(33, 33, 33)" stroke="none" stroke-width="1px">200</text><text x="132.98611111111111" y="0" dx="0em" dy="0.95em" style="text-anchor: middle; visibility: inherit; font-family: Roboto, sans-serif; font-size: 12px; font-weight: 200;" fill="rgb(33, 33, 33)" stroke="none" stroke-width="1px">300</text><text x="166.23263888888889" y="0" dx="0em" dy="0.95em" style="text-anchor: middle; visibility: inherit; font-family: Roboto, sans-serif; font-size: 12px; font-weight: 200;" fill="rgb(33, 33, 33)" stroke="none" stroke-width="1px">400</text><text x="199.47916666666666" y="0" dx="0em" dy="0.95em" style="text-anchor: middle; visibility: inherit; font-family: Roboto, sans-serif; font-size: 12px; font-weight: 200;" fill="rgb(33, 33, 33)" stroke="none" stroke-width="1px">500</text><text x="232.72569444444446" y="0" dx="0em" dy="0.95em" style="text-anchor: middle; visibility: inherit; font-family: Roboto, sans-serif; font-size: 12px; font-weight: 200;" fill="rgb(33, 33, 33)" stroke="none" stroke-width="1px">600</text><text x="265.97222222222223" y="0" dx="0em" dy="0.95em" style="text-anchor: middle; visibility: inherit; font-family: Roboto, sans-serif; font-size: 12px; font-weight: 200;" fill="rgb(33, 33, 33)" stroke="none" stroke-width="1px">700</text><text x="299.21875" y="0" dx="0em" dy="0.95em" style="text-anchor: middle; visibility: hidden; font-family: Roboto, sans-serif; font-size: 12px; font-weight: 200;" fill="rgb(33, 33, 33)" stroke="none" stroke-width="1px">800</text></g><line x1="0" y1="0" x2="299.21875" y2="0" fill="rgb(0, 0, 0)" stroke="rgb(204, 204, 204)" stroke-width="1px"></line></g></g></g></g></svg>