<svg viewBox="0 0 330 200" xmlns="http://www.w3.org/2000/svg"><g><g><g><g><g><line x1="41.171875" y1="177" x2="36.171875" y2="177" style="visibility: inherit;" fill="rgb(0, 0, 0)" stroke="rgb(204, 204, 204)" stroke-width="1px"></line><line x1="41.171875" y1="157.33333333333331" x2="36.171875" y2="157.33333333333331" style="visibility: inherit;" fill="rgb(0, 0, 0)" stroke="rgb(204, 204, 204)" stroke-width="1px"></line><line x1="41.171875" y1="137.66666666666666" x2="36.171875" y2="137.66666666666666" style="visibility: inherit;" fill="rgb(0, 0, 0)" stroke="rgb(204, 204, 204)" stroke-width="1px"></line><line x1="41.171875" y1="118.00000000000001" x2="36.171875" y2="118.00000000000001" style="visibility: inherit;" fill="rgb(0, 0, 0)" stroke="rgb(204, 204, 204)" stroke-width="1px"></line><line x1="41.171875" y1="98.33333333333334" x2="36.171875" y2="98.33333333333334" style="visibility: inherit;" fill="rgb(0, 0, 0)" stroke="rgb(204, 204, 204)" stroke-width="1px"></line><line x1="41.171875" y1="78.66666666666666" x2="36.171875" y2="78.66666666666666" style="visibility: inherit;" fill="rgb(0, 0, 0)" stroke="rgb(204, 204, 204)" stroke-width="1px"></line><line x1="41.171875" y1="59.00000000000001" x2="36.171875" y2="59.00000000000001" style="visibility: inherit;" fill="rgb(0, 0, 0)" stroke="rgb(204, 204, 204)" stroke-width="1px"></line><line x1="41.171875" y1="39.33333333333333" x2="36.171875" y2="39.33333333333333" style="visibility: inherit;" fill="rgb(0, 0, 0)" stroke="rgb(204, 204, 204)" stroke-width="1px"></line><line x1="41.171875" y1="19.666666666666675" x2="36.171875" y2="19.666666666666675" style="visibility: inherit;" fill="rgb(0, 0, 0)" stroke="rgb(204, 204, 204)" stroke-width="1px"></line><line x1="41.171875" y1="0" x2="36.171875" y2="0" style="visibility: inherit;" fill="rgb(0, 0, 0)" stroke="rgb(204, 204, 204)" stroke-width="1px"></line></g><g transform="translate(31.171875, 0)"><text x="0" y="177" dx="0em" dy="0.3em" style="text-anchor: end; visibility: hidden; font-family: Roboto, sans-serif; font-size: 12px; font-weight: 200;" fill="rgb(33, 33, 33)" stroke="none" stroke-width="1px">0</text><text x="0" y="157.33333333333331" dx="0em" dy="0.3em" style="text-anchor: end; visibility: inherit; font-family: Roboto, sans-serif; font-size: 12px; font-weight: 200;" fill="rgb(33, 33, 33)" stroke="none" stroke-width="1px">50</text><text x="0" y="137.66666666666666" dx="0em" dy="0.3em" style="text-anchor: end; visibility: hidden; font-family: Roboto, sans-serif; font-size: 12px; font-weight: 200;" fill="rgb(33, 33, 33)" stroke="none" stroke-width="1px">100</text><text x="0" y="118.00000000000001" dx="0em" dy="0.3em" style="text-anchor: end; visibility: inherit; font-family: Roboto, sans-serif; font-size: 12px; font-weight: 200;" fill="rgb(33, 33, 33)" stroke="none" stroke-width="1px">150</text><text x="0" y="98.33333333333334" dx="0em" dy="0.3em" style="text-anchor: end; visibility: hidden; font-family: Roboto, sans-serif; font-size: 12px; font-weight: 200;" fill="rgb(33, 33, 33)" stroke="none" stroke-width="1px">200</text><text x="0" y="78.66666666666666" dx="0em" dy="0.3em" style="text-anchor: end; visibility: inherit; font-family: Roboto, sans-serif; font-size: 12px; font-weight: 200;" fill="rgb(33, 33, 33)" stroke="none" stroke-width="1px">250</text><text x="0" y="59.00000000000001" dx="0em" dy="0.3em" style="text-anchor: end; visibility: hidden; font-family: Roboto, sans-serif; font-size: 12px; font-weight: 200;" fill="rgb(33, 33, 33)" stroke="none" stroke-width="1px">300</text><text x="0" y="39.33333333333333" dx="0em" dy="0.3em" style="text-anchor: end; visibility: inherit; font-family: Roboto, sans-serif; font-size: 12px; font-weight: 200;" fill="rgb(33, 33, 33)" stroke="none" stroke-width="1px">350</text><text x="0" y="19.666666666666675" dx="0em" dy="0.3em" style="text-anchor: end; visibility: hidden; font-family: Roboto, sans-serif; font-size: 12px; font-weight: 200;" fill="rgb(33, 33, 33)" stroke="none" stroke-width="1px">400</text><text x="0" y="0" dx="0em" dy="0.3em" style="text-anchor: end; visibility: hidden; font-family: Roboto, sans-serif; font-size: 12px; font-weight: 200;" fill="rgb(33, 33, 33)" stroke="none" stroke-width="1px">450</text></g><line x1="41.171875" y1="0" x2="41.171875" y2="177" fill="rgb(0, 0, 0)" stroke="rgb(204, 204, 204)" stroke-width="1px"></line></g></g><g transform="translate(41, 0)" clip-path="url(#clip_0)"><clipPath id="clip_0"><rect width="288" height="177"></rect></clipPath><g><g><g><line x1="0" y1="0" x2="0" y2="177" fill="rgb(0, 0, 0)" stroke="rgb(66, 66, 66)" stroke-width="1px" opacity="0.25"></line><line x1="32.092013888888886" y1="0" x2="32.092013888888886" y2="177" fill="rgb(0, 0, 0)" stroke="rgb(66, 66, 66)" stroke-width="1px" opacity="0.25"></line><line x1="64.18402777777777" y1="0" x2="64.18402777777777" y2="177" fill="rgb(0, 0, 0)" stroke="rgb(66, 66, 66)" stroke-width="1px" opacity="0.25"></line><line x1="96.27604166666666" y1="0" x2="96.27604166666666" y2="177" fill="rgb(0, 0, 0)" stroke="rgb(66, 66, 66)" stroke-width="1px" opacity="0.25"></line><line x1="128.36805555555554" y1="0" x2="128.36805555555554" y2="177" fill="rgb(0, 0, 0)" stroke="rgb(66, 66, 66)" stroke-width="1px" opacity="0.25"></line><line x1="160.46006944444446" y1="0" x2="160.46006944444446" y2="177" fill="rgb(0, 0, 0)" stroke="rgb(66, 66, 66)" stroke-width="1px" opacity="0.25"></line><line x1="192.55208333333331" y1="0" x2="192.55208333333331" y2="177" fill="rgb(0, 0, 0)" stroke="rgb(66, 66, 66)" stroke-width="1px" opacity="0.25"></line><line x1="224.64409722222223" y1="0" x2="224.64409722222223" y2="177" fill="rgb(0, 0, 0)" stroke="rgb(66, 66, 66)" stroke-width="1px" opacity="0.25"></line><line x1="256.7361111111111" y1="0" x2="256.7361111111111" y2="177" fill="rgb(0, 0, 0)" stroke="rgb(66, 66, 66)" stroke-width="1px" opacity="0.25"></line><line x1="288.828125" y1="0" x2="288.828125" y2="177" fill="rgb(0, 0, 0)" stroke="rgb(66, 66, 66)" stroke-width="1px" opacity="0.25"></line></g><g><line x1="0" y1="177" x2="288.828125" y2="177" fill="rgb(0, 0, 0)" stroke="rgb(66, 66, 66)" stroke-width="1px" opacity="0.25"></line><line x1="0" y1="157.33333333333331" x2="288.828125" y2="157.33333333333331" fill="rgb(0, 0, 0)" stroke="rgb(66, 66, 66)" stroke-width="1px" opacity="0.25"></line><line x1="0" y1="137.66666666666666" x2="288.828125" y2="137.66666666666666" fill="rgb(0, 0, 0)" stroke="rgb(66, 66, 66)" stroke-width="1px" opacity="0.25"></line><line x1="0" y1="118.00000000000001" x2="288.828125" y2="118.00000000000001" fill="rgb(0, 0, 0)" stroke="rgb(66, 66, 66)" stroke-width="1px" opacity="0.25"></line><line x1="0" y1="98.33333333333334" x2="288.828125" y2="98.33333333333334" fill="rgb(0, 0, 0)" stroke="rgb(66, 66, 66)" stroke-width="1px" opacity="0.25"></line><line x1="0" y1="78.66666666666666" x2="288.828125" y2="78.66666666666666" fill="rgb(0, 0, 0)" stroke="rgb(66, 66, 66)" stroke-width="1px" opacity="0.25"></line><line x1="0" y1="59.00000000000001" x2="288.828125" y2="59.00000000000001" fill="rgb(0, 0, 0)" stroke="rgb(66, 66, 66)" stroke-width="1px" opacity="0.25"></line><line x1="0" y1="39.33333333333333" x2="288.828125" y2="39.33333333333333" fill="rgb(0, 0, 0)" stroke="rgb(66, 66, 66)" stroke-width="1px" opacity="0.25"></line><line x1="0" y1="19.666666666666675" x2="288.828125" y2="19.666666666666675" fill="rgb(0, 0, 0)" stroke="rgb(66, 66, 66)" stroke-width="1px" opacity="0.25"></line><line x1="0" y1="0" x2="288.828125" y2="0" fill="rgb(0, 0, 0)" stroke="rgb(66, 66, 66)" stroke-width="1px" opacity="0.25"></line></g></g></g><g><g><line x1="0" y1="177" x2="288.828125" y2="177" fill="rgb(0, 0, 0)" stroke="rgb(153, 153, 153)" stroke-width="1.5px"></line></g></g><g><g><line x1="32.092013888888886" y1="0" x2="32.092013888888886" y2="177" fill="rgb(0, 0, 0)" stroke="rgb(153, 153, 153)" stroke-width="1.5px"></line></g></g><g><g><g><g><g><path stroke="rgb(51, 187, 238)" stroke-width="2px" d="M32.092013888888886,11.727978515625004L32.41293402777778,11.797614288330081L32.73385416666667,11.851990202819422L33.054774305555554,11.896070128796186L33.37569444444444,11.934755562599864L33.696614583333336,11.971076747349315L34.01753472222222,12.006963053941625L34.33845486111111,12.042427800802617L34.659375,12.076756903060994L34.98029513888889,12.109304820343992L35.30121527777778,12.139805118656401L35.622135416666666,12.168182635840703L35.94305555555555,12.194491713167615L36.26397569444445,12.218827623924236L36.584895833333334,12.241314227295913L36.90581597222222,12.262075643401198L37.22673611111111,12.281237480411058L37.54765625,12.298902973759656L37.86857638888889,12.315186363739613L38.18949652777778,12.330179912004544L38.510416666666664,12.343977227738355L38.83133680555556,12.356653593335228L39.152256944444446,12.368292540886172L39.47317708333333,12.378972970972972L39.79409722222222,12.388761414579278L40.115017361111114,12.397736193483974L40.4359375,12.406155559342935L40.75685763888889,12.414059225876004L41.077777777777776,12.421326977005545L41.39869791666667,12.427925093911977L41.71961805555555,12.433862153488871L42.040538194444444,12.43917211022426L42.36145833333333,12.443904145266751L42.682378472222226,12.44814058298457L43.003298611111106,12.452002839440498L43.32421875,12.455530154221503L43.64513888888889,12.458674049583582L43.96605902777778,12.461434247468736L44.28697916666666,12.463844191064751L44.607899305555556,12.465957556308332L44.92881944444444,12.467916981703246L45.24973958333334,12.470537868059672L45.57065972222222,12.475255338024654L45.89157986111111,12.491318567400917L46.2125,12.609190391754879L46.53342013888889,12.997432203827168L46.85434027777777,13.838761975322557L47.17526041666667,15.149187361004207L47.496180555555554,16.958623012330023L47.81710069444445,18.90120562707515L48.13802083333333,20.668763578076586L48.45894097222222,22.26238697172037L48.77986111111111,23.269667453216268L49.100781250000004,26.202788020760977L49.421701388888884,29.467635703083634L49.74262152777778,31.823473918595862L50.063541666666666,34.45446643123621L50.38446180555556,37.06861084832542L50.70538194444444,39.479585617068366L51.026302083333334,41.09258332011088L51.34722222222222,42.845685001832194L51.66814236111111,44.9403450831306L51.989062499999996,46.14745591055546L52.30998263888889,47.62680525206245L52.63090277777778,49.27335805358122L52.951822916666664,51.25762534647164L53.27274305555555,52.12614885697155L53.593663194444446,54.226545271214185L53.91458333333333,55.14139688929102L54.23550347222222,57.28091674685585L54.55642361111111,58.708239501238516L54.87734375,59.97594304970143L55.19826388888889,60.64634146458646L55.519184027777776,54.664442492684174L55.84010416666666,55.24910657633967L56.16102430555556,53.480936927574625L56.481944444444444,54.366468569305205L56.80286458333333,57.85750085186956L57.12378472222222,61.027885927788404L57.44470486111111,64.74793923896472L57.765625,65.85743476733717L58.08654513888889,67.42117277446478L58.407465277777774,69.35582801363721L58.72838541666667,70.03796157055211L59.049305555555556,71.4758621474094L59.37022569444444,72.91122130862794L59.69114583333333,73.59112511916115L60.012065972222224,74.76300409167897L60.33298611111111,75.96026127662196L60.65390625,76.88778038250965L60.974826388888886,77.91388152703182L61.29574652777778,79.11590272806806L61.61666666666667,80.34819670682782L61.937586805555554,81.5886289615967L62.25850694444444,82.88319247298665L62.579427083333336,84.2579681774769L62.900347222222216,85.74200543448093L63.22126736111111,87.34506357156094L63.5421875,88.98025371910846L63.86310763888889,90.485948292663L64.18402777777777,91.70780562924362L64.50494791666667,92.63029332220763L64.82586805555556,93.46582927294698L65.14678819444444,94.38927116402859L65.46770833333333,95.42799767563069L65.78862847222221,96.49463385114665L66.10954861111111,97.46522537904738L66.43046875,98.26811008094406L66.75138888888888,98.91419873085809L67.07230902777778,99.49517679059818L67.39322916666667,100.12069343601254L67.71414930555557,100.8286754610216L68.03506944444445,101.550176386639L68.35598958333333,102.1810207896657L68.67690972222222,102.6815174217161L68.99782986111111,103.11500233128486L69.31875,103.58991655990376L69.63967013888889,104.14843870547348L69.96059027777778,104.72352277732055L70.28151041666668,105.21350925558504L70.60243055555556,105.58957202470522L70.92335069444444,105.9269198098752L71.24427083333333,106.32455951938867L71.56519097222223,106.7967378275186L71.8861111111111,107.26393246701899L72.20703125,107.64596039166973L72.5279513888889,107.94944570114767L72.84887152777779,108.25888287479016L73.16979166666667,108.6401627326866L73.49071180555555,109.07037473922134L73.81163194444444,109.4697696840276L74.13255208333332,109.79424795950513L74.45347222222222,110.05131993455723L74.77439236111111,110.34402682401559L75.0953125,110.71711706283384L75.4162326388889,111.08971717780446L75.73715277777778,111.43108518949519L76.05807291666666,111.74753929729084L76.37899305555555,112.06060211027555L76.69991319444443,112.40872601225911L77.02083333333333,112.79194035995961L77.34175347222222,113.1735630196867L77.66267361111112,113.52271166435106L77.98359375000001,113.81333545401431L78.30451388888889,114.08048060183566L78.62543402777777,114.3932035629243L78.94635416666667,114.71249261301499L79.26727430555556,115.02976754046523L79.58819444444444,115.35762151060727L79.90911458333333,115.71112706489299L80.23003472222223,116.08235946647487L80.55095486111112,116.43087962845263L80.871875,116.73338678586065L81.19279513888888,117.01988400022732L81.51371527777778,117.33880458633432L81.83463541666667,117.6791909956157L82.15555555555555,118.02898786397098L82.47647569444445,118.35727650744509L82.79739583333334,118.68203981397227L83.11831597222223,119.00073633955523L83.4392361111111,119.3422342842019L83.76015625,119.66310924727895L84.08107638888889,119.98032982245593L84.40199652777778,120.29714629842147L84.72291666666666,120.6014070417482L85.04383680555556,120.91383022765308L85.36475694444445,121.21915930195645L85.68567708333335,121.50311720389521L86.00659722222221,121.80126045905588L86.3275173611111,122.06982756449602L86.6484375,122.34776987040334L86.9693576388889,122.61659449873939L87.29027777777777,122.87204296226447L87.61119791666667,123.15003884702016L87.93211805555556,123.40036209401937L88.25303819444446,123.67157614313038L88.57395833333332,123.92387289128187L88.89487847222222,124.1751759483108L89.21579861111111,124.42181837823128L89.53671875,124.65269096183457L89.85763888888889,124.88365168647574L90.17855902777778,125.10425338981514L90.49947916666667,125.31776101826408L90.82039930555557,125.53162637821106L91.14131944444443,125.73275451345008L91.46223958333333,125.93617687799191L91.78315972222222,126.12905622445138L92.10407986111112,126.31353554131145L92.425,126.48951780916187L92.74592013888889,126.65241226427317L93.06684027777779,126.8066593946967L93.38776041666667,126.95021328818521L93.70868055555555,127.08254980722103L94.02960069444444,127.2032812474511L94.35052083333333,127.3080625595058L94.67144097222223,127.39243696197302L94.99236111111111,127.44847401800413L95.31328125,127.46219431477382L95.6342013888889,127.40576320344763L95.95512152777778,127.2101562863264L96.27604166666666,126.64660943748592L96.59696180555555,124.46247225428844L96.91788194444445,119.59226566051578L97.23880208333334,119.80344118341883L97.55972222222222,120.05361772925706L97.88064236111111,123.18910781203338L98.20156250000001,121.49349805310547L98.52248263888889,120.01946797248829L98.84340277777777,117.45398445374035L99.16432291666666,119.17593998865047L99.48524305555556,120.21462055243508L99.80616319444445,120.51808951082302L100.12708333333333,120.64404934451466L100.44800347222223,122.3607860113312L100.76892361111112,124.96036701288594L101.08984375,128.32163101502323L101.41076388888888,129.72661492086291L101.73168402777777,128.780958902062L102.05260416666667,129.45149817245465L102.37352430555556,131.2832741476134L102.69444444444444,131.42948709192092L103.01536458333334,130.5124323267671L103.33628472222222,131.47200144928294L103.65720486111111,132.11579482302028L103.97812499999999,131.67875484791372L104.29904513888889,131.93464141786282L104.61996527777778,132.7128793127945L104.94088541666667,132.71181804177826L105.26180555555555,132.57865214505395L105.58272569444445,133.1567120796756L105.90364583333333,133.43682253589128L106.22456597222222,133.2864170078629L106.5454861111111,133.5781300305641L106.86640625,133.95817900303896L107.18732638888889,133.94307105742234L107.50824652777779,134.0355661858857L107.82916666666667,134.37557933555485L108.15008680555556,134.49117125042144L108.47100694444444,134.51338593710182L108.79192708333333,134.75729033097855L109.11284722222221,134.94134221616525L109.43376736111111,134.97485680268093L109.7546875,135.13135383990934L110.0756076388889,135.3257268343818L110.39652777777778,135.39512374304445L110.71744791666667,135.49795734315737L111.03836805555555,135.6699127929387L111.35928819444445,135.76755361244943L111.68020833333333,135.8471359679254L112.00112847222222,135.98701526402346L112.32204861111111,136.09645525216408L112.64296875000001,136.17014844019818L112.96388888888889,136.28149197753038L113.28480902777778,136.3894535768177L113.60572916666666,136.46356452076512L113.92664930555556,136.55430008941218L114.24756944444444,136.653658829689L114.56848958333333,136.72860984859466L114.88940972222223,136.80622539808905L115.21032986111112,136.8950209240748L115.53125,136.96983266349434L115.85217013888888,137.04117920014738L116.17309027777777,137.1224405930051L116.49401041666667,137.19857759636295L116.81493055555555,137.26534288757037L117.13585069444444,137.34244271170888L117.45677083333334,137.41413219196676L117.77769097222223,137.4795961771592L118.09861111111111,137.55119060831376L118.41953124999999,137.62066557755335L118.74045138888889,137.68594839845258L119.06137152777778,137.75430599789317L119.38229166666666,137.82357818695203L119.70321180555555,137.8901953740853L120.02413194444445,137.9580283979538L120.34505208333334,138.0276364357449L120.66597222222222,138.09606361193522L120.9868923611111,138.16446527490854L121.3078125,138.23453813304408L121.62873263888889,138.3043101194098L121.94965277777777,138.3736879189766L122.27057291666667,138.4441231924667L122.59149305555556,138.5148796568537L122.91241319444445,138.58526226676847L123.23333333333333,138.6562344067733L123.55425347222221,138.7277475206916L123.87517361111111,138.7991170793095L124.19609375,138.87076781431747L124.51701388888888,138.94294016043293L124.83793402777778,139.01514218870767L125.15885416666667,139.0874508527754L125.47977430555557,139.1601187864048L125.80069444444443,139.2329038524093L126.12161458333333,139.30568597599637L126.44253472222222,139.37862958283088L126.76345486111111,139.45166407782352L127.084375,139.5246390716941L127.40529513888889,139.5975999713368L127.72621527777778,139.67055361480078L128.04713541666666,139.74339727304712L128.36805555555554,139.8161089204689L128.68897569444445,139.88866093740504L129.00989583333333,139.9610331509847L129.3308159722222,140.03318344853352L129.65173611111112,140.1050661563597L129.97265625,140.17667547669342L130.29357638888888,140.2479863244275L130.6144965277778,140.31894523703932L130.93541666666667,140.38955494739938L131.25633680555555,140.45981829558806L131.57725694444443,140.52965656166273L131.89817708333334,140.59907893048722L132.21909722222222,140.66813172515432L132.54001736111113,140.73677671982566L132.8609375,140.80499698078862L133.18185763888889,140.87281235676744L133.50277777777777,140.9402335566386L133.82369791666667,141.0072730075183L134.14461805555555,141.07393936603444L134.46553819444443,141.14025823225086L134.78645833333334,141.20625216835444L135.10737847222222,141.27191910700225L135.42829861111113,141.3373094231857L135.74921874999998,141.40243053509633L136.0701388888889,141.4672748900682L136.39105902777777,141.53188357010862L136.71197916666665,141.596265619767L137.03289930555556,141.66040125825344L137.35381944444444,141.72432062962653L137.67473958333335,141.78804182032152L137.99565972222223,141.8514964585666L138.3165798611111,141.91470834063475L138.6375,141.97768574249935L138.9584201388889,142.04035920754387L139.27934027777778,142.1027242728987L139.60026041666666,142.1647866633486L139.92118055555557,142.22650780123183L140.24210069444445,142.28792815892922L140.56302083333335,142.34925807537056L140.8839409722222,142.41075939437596L141.20486111111111,142.47214508975057L141.52578125,142.53391514629828L141.84670138888887,142.59322221603418L142.16762152777778,142.65474499547338L142.48854166666666,142.7129998293153L142.80946180555557,142.77231759778448L143.13038194444445,142.83011848428916L143.45130208333333,142.8880187427545L143.7722222222222,142.94432693168784L144.09314236111112,143.0006917807575L144.4140625,143.0564316293269L144.73498263888888,143.1114435723227L145.0559027777778,143.1660643855811L145.37682291666667,143.2204025066742L145.69774305555558,143.27433574228579L146.01866319444443,143.32794922369177L146.33958333333334,143.38135164684527L146.66050347222222,143.43453020604338L146.9814236111111,143.4874904218031L147.30234375,143.5402368067928L147.62326388888889,143.59281888257829L147.9441840277778,143.64523995422147L148.26510416666665,143.69745759151073L148.58602430555555,143.74948594813563L148.90694444444443,143.8013671263358L149.22786458333334,143.8530567666869L149.54878472222222,143.90457026606683L149.8697048611111,143.95590725973776L150.190625,144.00706752885696L150.5115451388889,144.05806774713187L150.8324652777778,144.1088711048221L151.15338541666665,144.15949272718362L151.47430555555556,144.20995129223465L151.79522569444444,144.2602219960439L152.11614583333332,144.31029835875916L152.43706597222223,144.36017409175287L152.7579861111111,144.40988863473922L153.07890625000002,144.45941523650762L153.39982638888887,144.5087222416767L153.72074652777778,144.55783747098258L154.04166666666666,144.60677521615077L154.36258680555557,144.6555212454131L154.68350694444445,144.70408862615412L155.00442708333333,144.75253201276928L155.32534722222223,144.80089500111862L155.64626736111111,144.84914133009826L155.96718750000002,144.89732366524643L156.28810763888887,144.94556603345777L156.60902777777778,144.99375319429342L156.92994791666666,145.04166235765675L157.25086805555554,145.0892486759873L157.57178819444445,145.13648043931633L157.89270833333333,145.18338903670178L158.21362847222224,145.2299476879716L158.53454861111112,145.2761955414939L158.85546875,145.322163288438L159.17638888888888,145.3678753452959L159.49730902777776,145.41333075730773L159.81822916666667,145.45859257059558L160.13914930555555,145.50369261104223L160.46006944444446,145.54863917095477L160.78098958333334,145.59346603431115L161.10190972222225,145.63815265932365L161.4228298611111,145.68267591769705L161.74375,145.72705074104792L162.06467013888889,145.77125247832018L162.38559027777777,145.81532995785798L162.70651041666667,145.8591588308346L163.02743055555555,145.90271970442524L163.34835069444446,145.94615818984263L163.66927083333334,145.989439217291L163.99019097222222,146.03264257497096L164.3111111111111,146.07587135227422L164.63203124999998,146.11907336881896L164.9529513888889,146.1621741034854L165.27387152777777,146.20517685792456L165.59479166666668,146.24799118555552L165.91571180555556,146.2905340098359L166.23663194444447,146.33281550274398L166.55755208333332,146.37487897856695L166.8784722222222,146.41673602158028L167.1993923611111,146.4584247916591L167.5203125,146.49998859081578L167.8412326388889,146.54147380634495L168.16215277777778,146.5828974674007L168.48307291666669,146.6242025714235L168.80399305555557,146.6653885269036L169.12491319444445,146.70651499683876L169.44583333333333,146.7475493586176L169.7667534722222,146.78842882578255L170.08767361111111,146.8292093543888L170.40859375,146.8699185162791L170.7295138888889,146.91051523737164L171.05043402777778,146.95098447608183L171.3713541666667,146.99136402142383L171.69227430555554,147.03165133928658L172.01319444444442,147.07182210240006L172.33411458333333,147.11188572156374L172.6550347222222,147.15183343896038L172.97595486111112,147.19165519846737L173.296875,147.23137617572107L173.6177951388889,147.2709934707321L173.9387152777778,147.3104825367036L174.25963541666667,147.34984064913806L174.58055555555555,147.38909618228882L174.90147569444443,147.42825055605297L175.22239583333334,147.46727821449116L175.54331597222222,147.50618182941085L175.86423611111113,147.54497860855145L176.18515625,147.5836548693952L176.5060763888889,147.62220960457984L176.82699652777777,147.66064941183646L177.14791666666665,147.6989782498037L177.46883680555555,147.73718288900983L177.78975694444443,147.77527219678478L178.11067708333334,147.81324429137817L178.43159722222222,147.8511136483946L178.75251736111113,147.8888553431709L179.0734375,147.92648923129315L179.39435763888886,147.96400441930973L179.71527777777777,148.00140877544652L180.03619791666665,148.03869501705827L180.35711805555556,148.07586597670633L180.67803819444444,148.11294736108889L180.99895833333335,148.14992218455697L181.31987847222223,148.18676345070816L181.64079861111114,148.22349697423348L181.96171875,148.26013464287342L182.28263888888887,148.29666198282692L182.60355902777778,148.33307991267793L182.92447916666666,148.36938538250257L183.24539930555557,148.4055777627047L183.56631944444445,148.44167828197175L183.88723958333335,148.47767326963879L184.20815972222223,148.51357132831973L184.5290798611111,148.5493584138538L184.85,148.58504530547376L185.17092013888887,148.62063366928686L185.49184027777778,148.65612690567366L185.81276041666666,148.6915198527141L186.13368055555557,148.72680581218185L186.45460069444445,148.76199156836378L186.77552083333333,148.79708719362245L187.0964409722222,148.83209513030107L187.4173611111111,148.86700724094106L187.73828125,148.9018078398446L188.05920138888888,148.93650912203827L188.3801215277778,148.97112560668648L188.70104166666667,149.00566000349758L189.02196180555558,149.04009713328344L189.34288194444446,149.07443389032161L189.6638020833333,149.10867681368515L189.98472222222222,149.14283942968245L190.3056423611111,149.17691304908553L190.6265625,149.21089846014794L190.94748263888889,149.24479013403146L191.2684027777778,149.27859075522358L191.58932291666667,149.31230913656512L191.91024305555555,149.3459505657607L192.23116319444443,149.379485805765L192.55208333333331,149.4129297240189L192.87300347222222,149.4463080459999L193.1939236111111,149.47961820162337L193.51484375,149.51282263809642L193.8357638888889,149.54592763233703L194.1566840277778,149.57896335837356L194.47760416666668,149.61193351632622L194.79852430555553,149.6448139183895L195.11944444444444,149.6775924525962L195.44036458333332,149.71028825964365L195.76128472222223,149.74290322108567L196.0822048611111,149.7754492690772L196.40312500000002,149.8079263607627L196.7240451388889,149.84031166362558L197.04496527777778,149.8725974799462L197.36588541666666,149.9048019978961L197.68680555555554,149.9369397314525L198.00772569444445,149.96901698828557L198.32864583333333,150.00099914153904L198.64956597222223,150.03289302333488L198.97048611111111,150.06470153258817L199.29140625,150.0964372118706L199.6123263888889,150.12809918421874L199.93324652777775,150.15969412560284L200.25416666666666,150.19119603265338L200.57508680555554,150.22260970943577L200.89600694444445,150.25395004197009L201.21692708333333,150.28521635900364L201.53784722222224,150.3163998552785L201.85876736111112,150.34750004907204L202.1796875,150.37852745457343L202.50060763888888,150.40947397599928L202.82152777777776,150.4403395573118L203.14244791666667,150.47112056381417L203.46336805555555,150.5018376214916L203.78428819444446,150.53247909877388L204.10520833333334,150.5630404174349L204.42612847222222,150.59350562660026L204.74704861111113,150.6238843614745L205.06796874999998,150.65418720461255L205.38888888888889,150.68442290626362L205.70980902777777,150.7145739097738L206.03072916666667,150.74465488867028L206.35164930555555,150.77465544134017L206.67256944444443,150.80457892968042L206.99348958333334,150.8344129665322L207.31440972222222,150.8641561213907L207.63532986111113,150.8938303427563L207.95624999999998,150.92344639901313L208.2771701388889,150.9529771411657L208.59809027777777,150.98240988089083L208.91901041666668,151.01176101235612L209.23993055555556,151.04104757421055L209.56085069444444,151.0702581831982L209.88177083333335,151.09938480900746L210.2026909722222,151.1284202327352L210.5236111111111,151.15737692805257L210.84453125,151.1862623791623L211.1654513888889,151.21507267407938L211.48637152777778,151.24379466239034L211.80729166666666,151.27242645563732L212.12821180555557,151.30096452002954L212.44913194444445,151.32939473171172L212.77005208333335,151.3577254213838L213.0909722222222,151.38593998102039L213.41189236111111,151.41403564795468L213.7328125,151.44197355348635L214.0537326388889,151.47028134075066L214.37465277777778,151.49846295321342L214.69557291666666,151.5266192758343L215.01649305555557,151.55443272679616L215.33741319444442,151.5820884690855L215.65833333333333,151.60955595824166L215.9792534722222,151.63696091055698L216.30017361111112,151.66423111176385L216.62109375,151.69143726731875L216.94201388888888,151.718516168985L217.2629340277778,151.74556913335715L217.58385416666667,151.77257412568486L217.90477430555558,151.79962355662838L218.22569444444443,151.82665403713455L218.54661458333334,151.85361252929573L218.86753472222222,151.88016832120698L219.1884548611111,151.905884114469L219.509375,151.93043030999L219.83029513888889,151.9540490795487L220.1512152777778,151.97745649647592L220.47213541666665,152.00135828712712L220.79305555555555,152.026370544786L221.11397569444443,152.0525838421711L221.43489583333334,152.07979924735994L221.75581597222222,152.1075799064889L222.0767361111111,152.13535041378265L222.39765625,152.16267909999488L222.7185763888889,152.1893093642938L223.0394965277778,152.2151502649793L223.36041666666665,152.24048333729158L223.68133680555556,152.26563835035674L224.00225694444444,152.29116066931235L224.32317708333332,152.31743332989143L224.64409722222223,152.34472516517118L224.9650173611111,152.37297720929152L225.28593750000002,152.40193381702997L225.60685763888887,152.43104488291004L225.92777777777778,152.4597486745377L226.24869791666666,152.48748008444267L226.56961805555557,152.51391265190256L226.89053819444445,152.53895853271055L227.21145833333333,152.56287291218817L227.53237847222223,152.5861528041163L227.85329861111111,152.60952314405833L228.17421875000002,152.63374359021103L228.49513888888887,152.65947099746973L228.81605902777778,152.68704366212117L229.13697916666666,152.716394481371L229.45789930555554,152.7469766424359L229.77881944444445,152.7778546764609L230.09973958333333,152.8078161078785L230.42065972222224,152.8356232991672L230.74157986111112,152.86027379029133L231.0625,152.88130774748208L231.38342013888888,152.89898042892546L231.70434027777776,152.91423782604016L232.02526041666667,152.9285808120792L232.34618055555555,152.9443281340574L232.66710069444446,152.96427125787585L232.98802083333334,152.99087429850806L233.30894097222225,153.0256721417676L233.6298611111111,153.06864343805535L233.95078125,153.11803845948035L234.27170138888889,153.1705290896856L234.59262152777777,153.22145006286084L234.91354166666667,153.2653176186898L235.23446180555555,153.29630574455373L235.55538194444446,153.30887162218798L235.87630208333334,153.29861584033753L236.19722222222222,153.26363937318038L236.5181423611111,153.2064044796211L236.83906249999998,153.13601258930262L237.1599826388889,153.06964305569747L237.48090277777777,153.0311969458859L237.80182291666668,153.0451231154482L238.12274305555556,153.12657582239393L238.44366319444447,153.27283549791227L238.76458333333332,153.46709907503316L239.0855034722222,153.68850129682653L239.4064236111111,153.9196975696812L239.72734375,154.14778199192264L240.0482638888889,154.35582348185608L240.36918402777778,154.5172430922061L240.69010416666669,154.58323245200336L241.01102430555557,154.47563816098065L241.33194444444445,154.0371832505923L241.65286458333333,152.89687302001684L241.9737847222222,150.4711485719385L242.29470486111111,149.04128273040268L242.615625,149.96478103147078L242.9365451388889,151.07464640005108L243.25746527777778,151.4106021914304L243.5783854166667,151.3918367380353L243.89930555555554,152.16576649187718L244.22022569444442,153.49124201996355L244.54114583333333,153.93599157021382L244.8620659722222,152.8319663613991L245.18298611111112,152.6398047151142L245.50390625,153.2378421186193L245.8248263888889,153.95285521420544L246.1457465277778,154.49768082058054L246.46666666666667,154.8512919538555L246.78758680555555,154.82843332457566L247.10850694444443,154.24072912316336L247.42942708333334,153.55490580682445L247.75034722222222,153.548179161178L248.07126736111113,153.88400595658635L248.3921875,154.30679704725912L248.7131076388889,154.6857224646022L249.03402777777777,155.01807783707838L249.35494791666665,155.23235629493908L249.67586805555555,155.1461577039654L249.99678819444443,154.7126196508623L250.31770833333334,154.30225880223614L250.63862847222222,154.07844577613335L250.95954861111113,154.12952445623992L251.28046875,154.31448249600956L251.60138888888886,154.5431434262353L251.92230902777777,154.76226682356346L252.24322916666665,154.97471521702218L252.56414930555556,155.12907887590015L252.88506944444444,155.111698658141L253.20598958333335,154.88721007216324L253.52690972222223,154.57907238118858L253.84782986111114,154.2784740480165L254.16875,154.12794994801564L254.48967013888887,154.12216530368894L254.81059027777778,154.22931471566062L255.13151041666666,154.37707486251813L255.45243055555557,154.54091237763456L255.77335069444445,154.76727268699742L256.0942708333333,155.0583539889888L256.4151909722222,155.28365788086074L256.7361111111111,155.33100521435628L257.05703125,155.19828955032602L257.3779513888889,154.92855464246773L257.6988715277778,154.58968969059134L258.01979166666666,154.27279043788994L258.34071180555554,154.05335614749958L258.6616319444444,153.9600428124418L258.9825520833333,153.9809185402483L259.30347222222224,154.07590317493023L259.6243923611111,154.2566082603455L259.9453125,154.60335040339154L260.2662326388889,155.07751807487998L260.58715277777776,155.5332317515035L260.90807291666664,155.8859784185779L261.2289930555556,156.12760896276782L261.54991319444446,156.28673891078245L261.87083333333334,156.37278206513807L262.1917534722222,156.36777506387125L262.5126736111111,156.23329324266845L262.83359375000003,155.9350800614051L263.15451388888886,155.44209466770243L263.4754340277778,154.70616213509413L263.7963541666667,153.65459024573747L264.11727430555555,151.6563096283995L264.43819444444443,148.19327747625846L264.7591145833333,148.919261773841L265.08003472222225,150.07386923878377L265.40095486111113,150.01552885935098L265.721875,149.6778987568541L266.0427951388889,151.47644964229605L266.36371527777777,153.0448713316016L266.68463541666665,152.18169733509376L267.00555555555553,153.36839502866042L267.32647569444447,154.1845903212327L267.64739583333335,154.81262595787635L267.96831597222223,155.38407339780522L268.2892361111111,155.2880279315054L268.61015625,153.7166128811363L268.93107638888887,153.90942142334325L269.25199652777775,154.43739233561402L269.5729166666667,154.91098726090618L269.89383680555557,155.51057190976636L270.21475694444445,156.00142700816448L270.5356770833333,155.92314486049767L270.85659722222226,155.87430841491513L271.1775173611111,155.97172894950245L271.49843749999997,156.06843848257583L271.8193576388889,156.19664733840617L272.1402777777778,156.37945803805346L272.46119791666666,156.38709301537767L272.78211805555554,155.8170451870749L273.1030381944445,154.70353675376512L273.4239583333333,154.4089777244596L273.74487847222224,154.59111456029424L274.0657986111111,154.86218572429505L274.38671875,155.1480007656317L274.7076388888889,155.51897129678136L275.02855902777776,155.97105487686437L275.3494791666667,156.21550823129442L275.6703993055556,156.12136080628966L275.99131944444446,156.1366549644053L276.31223958333334,156.2097553280898L276.6331597222222,156.2346810980583L276.9540798611111,156.17274282224645L277.275,156.1242916894416L277.5959201388889,156.15770804996055L277.9168402777778,155.95111525762934L278.2377604166667,154.8914252479207L278.55868055555555,151.50263621564696L278.87960069444443,151.81651656418634L279.2005208333333,152.8000051737006L279.5214409722222,153.49053109901203" style="fill: none;" fill="none"></path></g></g></g></g><g opacity="0.2"><g><g><g><path stroke="rgb(51, 187, 238)" stroke-width="2px" d="M32.092013888888886,11.727978515625004L32.41293402777778,11.83939575195313L32.73385416666667,11.904191080729161L33.054774305555554,11.94790812174479L33.37569444444444,11.985263264973955L33.696614583333336,12.021322021484382L34.01753472222222,12.058281046549483L34.33845486111111,12.094135742187506L34.659375,12.127385660807285L34.98029513888889,12.157634684244796L35.30121527777778,12.185278930664065L35.622135416666666,12.210594482421868L35.94305555555555,12.23386942545572L36.26397569444445,12.255283813476561L36.584895833333334,12.275017700195303L36.90581597222222,12.293203125000002L37.22673611111111,12.30997212727865L37.54765625,12.32539672851562L37.86857638888889,12.339608968098968L38.18949652777778,12.352668863932296L38.510416666666664,12.364672444661464L38.83133680555556,12.375667724609375L39.152256944444446,12.385750732421865L39.47317708333333,12.394993489583326L39.79409722222222,12.403444010416658L40.115017361111114,12.411198323567701L40.4359375,12.418784586588535L40.75685763888889,12.425914713541658L41.077777777777776,12.432228597005203L41.39869791666667,12.437822265625007L41.71961805555555,12.442767740885422L42.040538194444444,12.44713704427084L42.36145833333333,12.451002197265625L42.682378472222226,12.454495239257817L43.003298611111106,12.45779622395833L43.32421875,12.460821126302086L43.64513888888889,12.463389892578133L43.96605902777778,12.465574544270842L44.28697916666666,12.467459106445304L44.607899305555556,12.469127604166658L44.92881944444444,12.470856119791677L45.24973958333334,12.474469197591137L45.57065972222222,12.482331542968746L45.89157986111111,12.515413411458335L46.2125,12.785998128255214L46.53342013888889,13.57979492187501L46.85434027777777,15.100756632486988L47.17526041666667,17.114825439453128L47.496180555555554,19.672776489257814L47.81710069444445,21.81507954915365L48.13802083333333,23.320100504557285L48.45894097222222,24.652822062174486L48.77986111111111,24.780588175455726L49.100781250000004,30.602468872070318L49.421701388888884,34.364907226562494L49.74262152777778,35.357231241861975L50.063541666666666,38.40095520019532L50.38446180555556,40.989827473958336L50.70538194444444,43.096047770182295L51.026302083333334,43.51207987467449L51.34722222222222,45.47533752441407L51.66814236111111,48.082335205078124L51.989062499999996,47.95812215169272L52.30998263888889,49.84582926432292L52.63090277777778,51.743187255859375L52.951822916666664,54.23402628580729L53.27274305555555,53.42893412272136L53.593663194444446,57.37713989257812L53.91458333333333,56.513674316406245L54.23550347222222,60.49019653320312L54.55642361111111,60.849223632812496L54.87734375,61.87749837239584L55.19826388888889,61.651939086914055L55.519184027777776,45.69159403483073L55.84010416666666,56.12610270182291L56.16102430555556,50.82868245442709L56.481944444444444,55.69476603190104L56.80286458333333,63.094049275716145L57.12378472222222,65.78346354166666L57.44470486111111,70.32801920572916L57.765625,67.52167805989583L58.08654513888889,69.76677978515625L58.407465277777774,72.25781087239584L58.72838541666667,71.0611619059245L59.049305555555556,73.6327130126953L59.37022569444444,75.06426005045572L59.69114583333333,74.61098083496093L60.012065972222224,76.52082255045573L60.33298611111111,77.75614705403646L60.65390625,78.27905904134114L60.974826388888886,79.45303324381511L61.29574652777778,80.9189345296224L61.61666666666667,82.19663767496745L61.937586805555554,83.44927734375L62.25850694444444,84.82503774007161L62.579427083333336,86.32013173421224L62.900347222222216,87.96806131998697L63.22126736111111,89.74965077718099L63.5421875,91.43303894042968L63.86310763888889,92.7444901529948L64.18402777777777,93.54059163411459L64.50494791666667,94.01402486165364L64.82586805555556,94.71913319905599L65.14678819444444,95.77443400065106L65.46770833333333,96.98608744303385L65.78862847222221,98.09458811442057L66.10954861111111,98.92111267089845L66.43046875,99.47243713378907L66.75138888888888,99.88333170572916L67.07230902777778,100.36664388020833L67.39322916666667,101.0589684041341L67.71414930555557,101.89064849853517L68.03506944444445,102.6324277750651L68.35598958333333,103.12728739420572L68.67690972222222,103.43226236979166L68.99782986111111,103.76522969563803L69.31875,104.30228790283205L69.63967013888889,104.98622192382813L69.96059027777778,105.58614888509115L70.28151041666668,105.94848897298178L70.60243055555556,106.15366617838542L70.92335069444444,106.43294148763022L71.24427083333333,106.92101908365886L71.56519097222223,107.50500528971354L71.8861111111111,107.96472442626954L72.20703125,108.21900227864583L72.5279513888889,108.4046736653646L72.84887152777779,108.7230386352539L73.16979166666667,109.21208251953125L73.49071180555555,109.71569274902343L73.81163194444444,110.06886210123697L74.13255208333332,110.28096537272135L74.45347222222222,110.43692789713542L74.77439236111111,110.78308715820313L75.0953125,111.27675242106119L75.4162326388889,111.64861735026041L75.73715277777778,111.94313720703124L76.05807291666666,112.22222045898437L76.37899305555555,112.53019632975261L76.69991319444443,112.93091186523438L77.02083333333333,113.3667618815104L77.34175347222222,113.74599700927735L77.66267361111112,114.04643463134765L77.98359375000001,114.24927113850912L78.30451388888889,114.4811983235677L78.62543402777777,114.86228800455729L78.94635416666667,115.19142618815104L79.26727430555556,115.50567993164061L79.58819444444444,115.8494024658203L79.90911458333333,116.24138539632162L80.23003472222223,116.63920806884765L80.55095486111112,116.95365987141928L80.871875,117.18714752197265L81.19279513888888,117.44962982177734L81.51371527777778,117.81718546549479L81.83463541666667,118.18977060953777L82.15555555555555,118.5536831665039L82.47647569444445,118.84970947265624L82.79739583333334,119.169184773763L83.11831597222223,119.47878112792968L83.4392361111111,119.8544812011719L83.76015625,120.14442169189454L84.08107638888889,120.45616068522135L84.40199652777778,120.77237101236977L84.72291666666666,121.05779815673827L85.04383680555556,121.38246500651042L85.36475694444445,121.67715291341146L85.68567708333335,121.92905405680338L86.00659722222221,122.24847534179688L86.3275173611111,122.47267822265626L86.6484375,122.76468332926433L86.9693576388889,123.01983144124348L87.29027777777777,123.25521565755209L87.61119791666667,123.56703267415365L87.93211805555556,123.77584696451824L88.25303819444446,124.07839721679687L88.57395833333332,124.30231801350911L88.89487847222222,124.55213053385417L89.21579861111111,124.79178202311198L89.53671875,124.9989998372396L89.85763888888889,125.2300927734375L90.17855902777778,125.43515594482422L90.49947916666667,125.6380224609375L90.82039930555557,125.8524244181315L91.14131944444443,126.0344467163086L91.46223958333333,126.2413104248047L91.78315972222222,126.41837524414063L92.10407986111112,126.59025451660156L92.425,126.75349121093751L92.74592013888889,126.89675394694011L93.06684027777779,127.03803009033204L93.38776041666667,127.16554412841798L93.70868055555555,127.28105458577473L94.02960069444444,127.38437840779622L94.35052083333333,127.4652345275879L94.67144097222223,127.51899856567383L94.99236111111111,127.53252960205079L95.31328125,127.48277475992839L95.6342013888889,127.32111653645835L95.95512152777778,126.91674591064454L96.27604166666666,125.80128916422525L96.59696180555555,121.18626647949218L96.91788194444445,112.28695576985676L97.23880208333334,120.12020446777342L97.55972222222222,120.42888254801433L97.88064236111111,127.89234293619792L98.20156250000001,118.95008341471355L98.52248263888889,117.80842285156251L98.84340277777777,113.60575917561849L99.16432291666666,121.75887329101562L99.48524305555556,121.77264139811197L99.80616319444445,120.97329294840495L100.12708333333333,120.83298909505208L100.44800347222223,124.935891011556L100.76892361111112,128.85973851521808L101.08984375,133.36352701822918L101.41076388888888,131.8340907796224L101.73168402777777,127.36247487386066L102.05260416666667,130.45730707804364L102.37352430555556,134.03093811035157L102.69444444444444,131.64880650838217L103.01536458333334,129.13685017903646L103.33628472222222,132.91135513305665L103.65720486111111,133.0814848836263L103.97812499999999,131.0231948852539L104.29904513888889,132.31847127278644L104.61996527777778,133.88023615519205L104.94088541666667,132.7102261352539L105.26180555555555,132.37890329996745L105.58272569444445,134.02380198160807L105.90364583333333,133.85698822021484L106.22456597222222,133.06080871582031L106.5454861111111,134.0156995646159L106.86640625,134.5282524617513L107.18732638888889,133.9204091389974L107.50824652777779,134.17430887858072L107.82916666666667,134.8855990600586L108.15008680555556,134.66455912272136L108.47100694444444,134.54670796712242L108.79192708333333,135.12314692179362L109.11284722222221,135.2174200439453L109.43376736111111,135.02512868245444L109.7546875,135.36609939575195L110.0756076388889,135.6172863260905L110.39652777777778,135.49921910603842L110.71744791666667,135.6522077433268L111.03836805555555,135.92784596761066L111.35928819444445,135.9140148417155L111.68020833333333,135.9665095011393L112.00112847222222,136.19683420817057L112.32204861111111,136.260615234375L112.64296875000001,136.28068822224935L112.96388888888889,136.44850728352864L113.28480902777778,136.5513959757487L113.60572916666666,136.5747309366862L113.92664930555556,136.69040344238283L114.24756944444444,136.80269694010417L114.56848958333333,136.84103637695313L114.88940972222223,136.92264872233073L115.21032986111112,137.0282142130534L115.53125,137.0820502726237L115.85217013888888,137.14819900512697L116.17309027777777,137.24433268229166L116.49401041666667,137.31278310139973L116.81493055555555,137.3654908243815L117.13585069444444,137.45809244791667L117.45677083333334,137.5216664123535L117.77769097222223,137.5777921549479L118.09861111111111,137.6585822550456L118.41953124999999,137.72487803141277L118.74045138888889,137.78387262980144L119.06137152777778,137.85684239705404L119.38229166666666,137.92748647054037L119.70321180555555,137.99012115478516L120.02413194444445,138.05977793375652L120.34505208333334,138.13204849243164L120.66597222222222,138.19870437622072L120.9868923611111,138.2670677693685L121.3078125,138.3396474202474L121.62873263888889,138.40896809895833L121.94965277777777,138.47775461832683L122.27057291666667,138.54977610270183L122.59149305555556,138.62101435343425L122.91241319444445,138.69083618164063L123.23333333333333,138.76269261678058L123.55425347222221,138.835017191569L123.87517361111111,138.90617141723632L124.19609375,138.97824391682943L124.51701388888888,139.05119867960613L124.83793402777778,139.1234452311198L125.15885416666667,139.19591384887696L125.47977430555557,139.26912068684896L125.80069444444443,139.34208145141602L126.12161458333333,139.41485916137694L126.44253472222222,139.48804499308267L126.76345486111111,139.5612158203125L127.084375,139.63410156249998L127.40529513888889,139.70704132080078L127.72621527777778,139.77998407999672L128.04713541666666,139.85266276041668L128.36805555555554,139.92517639160155L128.68897569444445,139.99748896280926L129.00989583333333,140.06959147135416L129.3308159722222,140.14140889485677L129.65173611111112,140.21289021809895L129.97265625,140.284089457194L130.29357638888888,140.35495259602865L130.6144965277778,140.42538360595702L130.93541666666667,140.49546951293945L131.25633680555555,140.5652133178711L131.57725694444443,140.63441396077474L131.89817708333334,140.70321248372397L132.21909722222222,140.77171091715493L132.54001736111113,140.83974421183268L132.8609375,140.90732737223308L133.18185763888889,140.9745354207357L133.50277777777777,141.0413653564453L133.82369791666667,141.1078321838379L134.14461805555555,141.1739389038086L134.46553819444443,141.23973653157552L134.78645833333334,141.30524307250977L135.10737847222222,141.37041951497395L135.42829861111113,141.43539489746092L135.74921874999998,141.50011220296224L136.0701388888889,141.56454142252602L136.39105902777777,141.6287965901693L136.71197916666665,141.69283869425456L137.03289930555556,141.75660471598306L137.35381944444444,141.8201996866862L137.67473958333335,141.88362360636395L137.99565972222223,141.94667841593426L138.3165798611111,142.00952616373698L138.6375,142.07215184529622L138.9584201388889,142.13436940511068L139.27934027777778,142.19627187093099L139.60026041666666,142.25788024902343L139.92118055555557,142.31908950805663L140.24210069444445,142.38005869547527L140.56302083333335,142.44125295003255L140.8839409722222,142.50301137288412L141.20486111111111,142.56422363281249L141.52578125,142.62657023111979L141.84670138888887,142.68218282063802L142.16762152777778,142.74702916463218L142.48854166666666,142.80038208007812L142.80946180555557,142.8612942504883L143.13038194444445,142.91681981404622L143.45130208333333,142.97486913045248L143.7722222222222,143.0287892150879L144.09314236111112,143.08523905436198L144.4140625,143.140041402181L144.73498263888888,143.1939614868164L145.0559027777778,143.24799560546873L145.37682291666667,143.3019096883138L145.69774305555558,143.3552355957031L146.01866319444443,143.4083694458008L146.33958333333334,143.46145528157552L146.66050347222222,143.5142980448405L146.9814236111111,143.5669307454427L147.30234375,143.61935638427732L147.62326388888889,143.6716919962565L147.9441840277778,143.7238715616862L148.26510416666665,143.77578404744466L148.58602430555555,143.82752848307294L148.90694444444443,143.87918889363607L149.22786458333334,143.93059122721354L149.54878472222222,143.98184051513672L149.8697048611111,144.03291275024415L150.190625,144.08380793253582L150.5115451388889,144.1345680745443L150.8324652777778,144.18507614135743L151.15338541666665,144.2354251607259L151.47430555555556,144.2856391398112L151.79522569444444,144.3356280517578L152.11614583333332,144.38541290283203L152.43706597222223,144.4349876912435L152.7579861111111,144.48446044921874L153.07890625000002,144.53370513916016L153.39982638888887,144.58268274943035L153.72074652777778,144.6315103149414L154.04166666666666,144.680181833903L154.36258680555557,144.72864028930664L154.68350694444445,144.77693969726565L155.00442708333333,144.82519709269206L155.32534722222223,144.87343948364258L155.64626736111111,144.9215108235677L155.96718750000002,144.96959716796874L156.28810763888887,145.01792958577474L156.60902777777778,145.06603393554687L156.92994791666666,145.11352610270183L157.25086805555554,145.1606281534831L157.57178819444445,145.2073280843099L157.89270833333333,145.25375193277995L158.21362847222224,145.2997856648763L158.53454861111112,145.34556732177734L158.85546875,145.39111490885418L159.17638888888888,145.43644343058267L159.49730902777776,145.48151387532553L159.81822916666667,145.52648529052735L160.13914930555555,145.57134267171224L160.46006944444446,145.61605901082356L160.78098958333334,145.66070632934571L161.10190972222225,145.70518259684243L161.4228298611111,145.74946080525717L161.74375,145.7936129760742L162.06467013888889,145.8375550842285L162.38559027777777,145.88144617716472L162.70651041666667,145.92490214029948L163.02743055555555,145.96806101481118L163.34835069444446,146.01131591796874L163.66927083333334,146.05436075846353L163.99019097222222,146.09744761149088L164.3111111111111,146.14071451822917L164.63203124999998,146.18387639363607L164.9529513888889,146.22682520548503L165.27387152777777,146.26968098958332L165.59479166666668,146.31221267700195L165.91571180555556,146.3543482462565L166.23663194444447,146.3962377421061L166.55755208333332,146.43797419230143L166.8784722222222,146.47952158610028L167.1993923611111,146.52095794677734L167.5203125,146.5623342895508L167.8412326388889,146.60370162963866L168.16215277777778,146.64503295898436L168.48307291666669,146.68616022745766L168.80399305555557,146.7271674601237L169.12491319444445,146.76820470174152L169.44583333333333,146.8091009012858L169.7667534722222,146.84974802652994L170.08767361111111,146.89038014729817L170.40859375,146.9309822591146L170.7295138888889,146.9714103190104L171.05043402777778,147.01168833414712L171.3713541666667,147.05193333943686L171.69227430555554,147.09208231608073L172.01319444444442,147.13207824707033L172.33411458333333,147.17198115030925L172.6550347222222,147.21175501505533L172.97595486111112,147.25138783772786L173.296875,147.29095764160155L173.6177951388889,147.3304194132487L173.9387152777778,147.3697161356608L174.25963541666667,147.40887781778972L174.58055555555555,147.44797948201497L174.90147569444443,147.48698211669924L175.22239583333334,147.52581970214842L175.54331597222222,147.56453725179037L175.86423611111113,147.60317377726236L176.18515625,147.6416692606608L176.5060763888889,147.68004170735676L176.82699652777777,147.71830912272137L177.14791666666665,147.75647150675456L177.46883680555555,147.79448984781902L177.78975694444443,147.83240615844727L178.11067708333334,147.87020243326822L178.43159722222222,147.90791768391927L178.75251736111113,147.9454678853353L179.0734375,147.98294006347658L179.39435763888886,148.02027720133464L179.71527777777777,148.05751530965168L180.03619791666665,148.09462437947593L180.35711805555556,148.1316224161784L180.67803819444444,148.16856943766277L180.99895833333335,148.2053844197591L181.31987847222223,148.2420253499349L181.64079861111114,148.2785972595215L181.96171875,148.31509114583332L182.28263888888887,148.35145299275715L182.60355902777778,148.38770680745444L182.92447916666666,148.4238435872396L183.24539930555557,148.45986633300782L183.56631944444445,148.49582906087238L183.88723958333335,148.53166575113931L184.20815972222223,148.56741841634116L184.5290798611111,148.60303904215493L184.85,148.63857564290365L185.17092013888887,148.6740162150065L185.49184027777778,148.7093667602539L185.81276041666666,148.74460927327473L186.13368055555557,148.77973475138347L186.45460069444445,148.8147702026367L186.77552083333333,148.84973063151043L187.0964409722222,148.88460703531902L187.4173611111111,148.91937540690105L187.73828125,148.95400873819986L188.05920138888888,148.9885610453288L188.3801215277778,149.02305033365886L188.70104166666667,149.0574615987142L189.02196180555558,149.09175282796224L189.34288194444446,149.1259390258789L189.6638020833333,149.16004119873045L189.98472222222222,149.1940833536784L190.3056423611111,149.2280234781901L190.6265625,149.2618765767415L190.94748263888889,149.29562764485678L191.2684027777778,149.32929168701173L191.58932291666667,149.36288670857746L191.91024305555555,149.39641270955406L192.23116319444443,149.4297886657715L192.55208333333331,149.46309560139974L192.87300347222222,149.49637552897136L193.1939236111111,149.5295834350586L193.51484375,149.562629292806L193.8357638888889,149.5955851236979L194.1566840277778,149.62851694742838L194.47760416666668,149.6613887532552L194.79852430555553,149.6941345214844L195.11944444444444,149.72676025390624L195.44036458333332,149.75933197021484L195.76128472222223,149.7918256632487L196.0822048611111,149.82426834106445L196.40312500000002,149.85664199829102L196.7240451388889,149.88888961791994L197.04496527777778,149.92102620442708L197.36588541666666,149.95310877482098L197.68680555555554,149.98514633178712L198.00772569444445,150.01713287353516L198.32864583333333,150.04897237141927L198.64956597222223,150.08073384602864L198.97048611111111,150.1124142964681L199.29140625,150.14404073079427L199.6123263888889,150.1755921427409L199.93324652777775,150.20708653767903L200.25416666666666,150.23844889322916L200.57508680555554,150.26973022460936L200.89600694444445,150.30096054077148L201.21692708333333,150.33211583455403L201.53784722222224,150.36317509969075L201.85876736111112,150.39415033976235L202.1796875,150.42506856282552L202.50060763888888,150.45589375813802L202.82152777777776,150.4866379292806L203.14244791666667,150.51729207356772L203.46336805555555,150.5479132080078L203.78428819444446,150.57844131469724L204.10520833333334,150.60888239542643L204.42612847222222,150.6392034403483L204.74704861111113,150.6694524637858L205.06796874999998,150.69964146931966L205.38888888888889,150.72977645874025L205.70980902777777,150.75980041503908L206.03072916666667,150.78977635701497L206.35164930555555,150.81965627034506L206.67256944444443,150.84946416219077L206.99348958333334,150.87916402180988L207.31440972222222,150.9087708536784L207.63532986111113,150.9383416748047L207.95624999999998,150.96787048339843L208.2771701388889,150.99727325439454L208.59809027777777,151.02655899047852L208.91901041666668,151.05578770955404L209.23993055555556,151.0849774169922L209.56085069444444,151.11407409667967L209.88177083333335,151.14307474772136L210.2026909722222,151.17197336832683L210.5236111111111,151.20081197102866L210.84453125,151.2295905558268L211.1654513888889,151.25828811645508L211.48637152777778,151.2868776448568L211.80729166666666,151.31537414550783L212.12821180555557,151.34377161661786L212.44913194444445,151.372040049235L212.77005208333335,151.40022145589194L213.0909722222222,151.42826182047526L213.41189236111111,151.4561791483561L213.7328125,151.48388041178384L214.0537326388889,151.51274302164714L214.37465277777778,151.54073537190754L214.69557291666666,151.56885375976563L215.01649305555557,151.59615290323893L215.33741319444442,151.62357208251953L215.65833333333333,151.6507571919759L215.9792534722222,151.67806833902995L216.30017361111112,151.70513641357422L216.62109375,151.73224650065103L216.94201388888888,151.75913452148438L217.2629340277778,151.78614857991536L217.58385416666667,151.81308161417644L217.90477430555558,151.84019770304363L218.22569444444443,151.86719975789387L218.54661458333334,151.89405026753744L218.86753472222222,151.9200020090739L219.1884548611111,151.94445780436197L219.509375,151.96724960327148L219.83029513888889,151.98947723388673L220.1512152777778,152.01256762186685L220.47213541666665,152.03721097310384L220.79305555555555,152.06388893127442L221.11397569444443,152.0919037882487L221.43489583333334,152.12062235514324L221.75581597222222,152.1492508951823L222.0767361111111,152.17700617472332L222.39765625,152.20367212931316L222.7185763888889,152.22925476074218L223.0394965277778,152.25391161600749L223.36041666666665,152.2784829457601L223.68133680555556,152.30337086995445L224.00225694444444,152.32944414774576L224.32317708333332,152.35684232076008L224.64409722222223,152.38566291809082L224.9650173611111,152.41535527547202L225.28593750000002,152.4453687286377L225.60685763888887,152.47471148173014L225.92777777777778,152.50280436197914L226.24869791666666,152.52907719930013L226.56961805555557,152.55356150309245L226.89053819444445,152.57652735392253L227.21145833333333,152.59874448140462L227.53237847222223,152.62107264200847L227.85329861111111,152.64457865397137L228.17421875000002,152.6700742594401L228.49513888888887,152.69806210835773L228.81605902777778,152.72840265909832L229.13697916666666,152.76042071024577L229.45789930555554,152.7928498840332L229.77881944444445,152.82417172749837L230.09973958333333,152.8527582550049L230.42065972222224,152.87733408610026L230.74157986111112,152.89724952697756L231.0625,152.91285868326824L231.38342013888888,152.9254894510905L231.70434027777776,152.93712392171224L232.02526041666667,152.9500952911377L232.34618055555555,152.96794911702474L232.66710069444446,152.99418594360353L232.98802083333334,153.03077885945638L233.30894097222225,153.0778689066569L233.6298611111111,153.133100382487L233.95078125,153.19213099161783L234.27170138888889,153.2492650349935L234.59262152777777,153.29783152262368L234.91354166666667,153.3311189524333L235.23446180555555,153.3427879333496L235.55538194444446,153.32772043863932L235.87630208333334,153.28323216756186L236.19722222222222,153.21117467244466L236.5181423611111,153.1205521392822L236.83906249999998,153.0304247538249L237.1599826388889,152.9700887552897L237.48090277777777,152.97352778116863L237.80182291666668,153.06601236979168L238.12274305555556,153.2487548828125L238.44366319444447,153.4922250111898L238.76458333333332,153.75849444071451L239.0855034722222,154.02060462951658L239.4064236111111,154.26649197896322L239.72734375,154.48990862528484L240.0482638888889,154.6678857167562L240.36918402777778,154.75937250773111L240.69010416666669,154.68221649169922L241.01102430555557,154.3142467244466L241.33194444444445,153.37950088500975L241.65286458333333,151.18640767415363L241.9737847222222,146.83256189982094L242.29470486111111,146.89648396809895L242.615625,151.35002848307292L242.9365451388889,152.73944445292156L243.25746527777778,151.91453587849935L243.5783854166667,151.3636885579427L243.89930555555554,153.32666112264L244.22022569444442,155.4794553120931L244.54114583333333,154.60311589558918L244.8620659722222,151.1759285481771L245.18298611111112,152.35156224568686L245.50390625,154.13489822387695L245.8248263888889,155.02537485758464L246.1457465277778,155.31491923014323L246.46666666666667,155.3817086537679L246.78758680555555,154.79414538065592L247.10850694444443,153.35917282104492L247.42942708333334,152.5261708323161L247.75034722222222,153.53808919270833L248.07126736111113,154.3877461496989L248.3921875,154.94098368326823L248.7131076388889,155.25411059061685L249.03402777777777,155.51661089579264L249.35494791666665,155.55377398173016L249.67586805555555,155.0168598175049L249.99678819444443,154.06231257120768L250.31770833333334,153.68671752929686L250.63862847222222,153.74272623697917L250.95954861111113,154.20614247639975L251.28046875,154.59191955566408L251.60138888888886,154.88613482157388L251.92230902777777,155.09095191955566L252.24322916666665,155.29338780721028L252.56414930555556,155.36062436421713L252.88506944444444,155.08562833150228L253.20598958333335,154.5504771931966L253.52690972222223,154.11686584472656L253.84782986111114,153.82757654825846L254.16875,153.90216379801433L254.48967013888887,154.1134883371989L254.81059027777778,154.39003883361815L255.13151041666666,154.59871508280435L255.45243055555557,154.78666865030925L255.77335069444445,155.10681315104168L256.0942708333333,155.4949759419759L256.4151909722222,155.6216137186686L256.7361111111111,155.4020262145996L257.05703125,154.9992160542806L257.3779513888889,154.52395228068033L257.6988715277778,154.0813922627767L258.01979166666666,153.79744155883787L258.34071180555554,153.72420471191404L258.6616319444444,153.82007280985516L258.9825520833333,154.012232131958L259.30347222222224,154.21838012695312L259.6243923611111,154.52766588846842L259.9453125,155.12346361796062L260.2662326388889,155.78876958211262L260.58715277777776,156.2168022664388L260.90807291666664,156.41509841918943L261.2289930555556,156.49005477905274L261.54991319444446,156.52543383280437L261.87083333333334,156.50184679667154L262.1917534722222,156.36026456197104L262.5126736111111,156.03157051086427L262.83359375000003,155.4877602895101L263.15451388888886,154.70261657714843L263.4754340277778,153.60226333618164L263.7963541666667,152.07723241170248L264.11727430555555,148.65888870239257L264.43819444444443,142.99872924804686L264.7591145833333,150.00823822021485L265.08003472222225,151.80578043619792L265.40095486111113,149.92801829020183L265.721875,149.17145360310872L266.0427951388889,154.17427597045898L266.36371527777777,155.3975038655599L266.68463541666665,150.88693634033203L267.00555555555553,155.1484415690104L267.32647569444447,155.40888326009116L267.64739583333335,155.7546794128418L267.96831597222223,156.24124455769856L268.2892361111111,155.14395973205566L268.61015625,151.35949030558268L268.93107638888887,154.19863423665365L269.25199652777775,155.2293487040202L269.5729166666667,155.6213796488444L269.89383680555557,156.40994888305664L270.21475694444445,156.73770965576173L270.5356770833333,155.8057216389974L270.85659722222226,155.80105374654136L271.1775173611111,156.11785975138346L271.49843749999997,156.21350278218588L271.8193576388889,156.3889606221517L272.1402777777778,156.65367408752442L272.46119791666666,156.39854548136393L272.78211805555554,154.96197344462075L273.1030381944445,153.03327410380044L273.4239583333333,153.9671391805013L273.74487847222224,154.8643198140462L274.0657986111111,155.26879247029623L274.38671875,155.57672332763673L274.7076388888889,156.07542709350585L275.02855902777776,156.64918024698895L275.3494791666667,156.58218826293944L275.6703993055556,155.98013966878256L275.99131944444446,156.15959620157878L276.31223958333334,156.31940587361655L276.6331597222222,156.27206975301107L276.9540798611111,156.07983540852865L277.275,156.05161499023438L277.5959201388889,156.20783259073892L277.9168402777778,155.64122606913247L278.2377604166667,153.30189023335774L278.55868055555555,146.41945266723633L278.87960069444443,152.28733708699545L279.2005208333333,154.275238087972L279.5214409722222,154.52631998697916" style="fill: none;" fill="none"></path></g></g></g></g></g></g><g transform="translate(41, 177)" clip-path="url(#clip_1)"><clipPath id="clip_1"><rect width="288" height="23"></rect></clipPath><g><g><line x1="0" y1="0" x2="0" y2="5" style="visibility: inherit;" fill="rgb(0, 0, 0)" stroke="rgb(204, 204, 204)" stroke-width="1px"></line><line x1="32.092013888888886" y1="0" x2="32.092013888888886" y2="5" style="visibility: inherit;" fill="rgb(0, 0, 0)" stroke="rgb(204, 204, 204)" stroke-width="1px"></line><line x1="64.18402777777777" y1="0" x2="64.18402777777777" y2="5" style="visibility: inherit;" fill="rgb(0, 0, 0)" stroke="rgb(204, 204, 204)" stroke-width="1px"></line><line x1="96.27604166666666" y1="0" x2="96.27604166666666" y2="5" style="visibility: inherit;" fill="rgb(0, 0, 0)" stroke="rgb(204, 204, 204)" stroke-width="1px"></line><line x1="128.36805555555554" y1="0" x2="128.36805555555554" y2="5" style="visibility: inherit;" fill="rgb(0, 0, 0)" stroke="rgb(204, 204, 204)" stroke-width="1px"></line><line x1="160.46006944444446" y1="0" x2="160.46006944444446" y2="5" style="visibility: inherit;" fill="rgb(0, 0, 0)" stroke="rgb(204, 204, 204)" stroke-width="1px"></line><line x1="192.55208333333331" y1="0" x2="192.55208333333331" y2="5" style="visibility: inherit;" fill="rgb(0, 0, 0)" stroke="rgb(204, 204, 204)" stroke-width="1px"></line><line x1="224.64409722222223" y1="0" x2="224.64409722222223" y2="5" style="visibility: inherit;" fill="rgb(0, 0, 0)" stroke="rgb(204, 204, 204)" stroke-width="1px"></line><line x1="256.7361111111111" y1="0" x2="256.7361111111111" y2="5" style="visibility: inherit;" fill="rgb(0, 0, 0)" stroke="rgb(204, 204, 204)" stroke-width="1px"></line><line x1="288.828125" y1="0" x2="288.828125" y2="5" style="visibility: inherit;" fill="rgb(0, 0, 0)" stroke="rgb(204, 204, 204)" stroke-width="1px"></line></g><g transform="translate(0, 8)"><text x="0" y="0" dx="0em" dy="0.95em" style="text-anchor: middle; visibility: hidden; font-family: Roboto, sans-serif; font-size: 12px; font-weight: 200;" fill="rgb(33, 33, 33)" stroke="none" stroke-width="1px">-100</text><text x="32.092013888888886" y="0" dx="0em" dy="0.95em" style="text-anchor: middle; visibility: inherit; font-family: Roboto, sans-serif; font-size: 12px; font-weight: 200;" fill="rgb(33, 33, 33)" stroke="none" stroke-width="1px">0</text><text x="64.18402777777777" y="0" dx="0em" dy="0.95em" style="text-anchor: middle; visibility: inherit; font-family: Roboto, sans-serif; font-size: 12px; font-weight: 200;" fill="rgb(33, 33, 33)" stroke="none" stroke-width="1px">100</text><text x="96.27604166666666" y="0" dx="0em" dy="0.95em" style="text-anchor: middle; visibility: inherit; font-family: Roboto, sans-serif; font-size: 12px; font-weight: 200;" fill="rgb(33, 33, 33)" stroke="none" stroke-width="1px">200</text><text x="128.36805555555554" y="0" dx="0em" dy="0.95em" style="text-anchor: middle; visibility: inherit; font-family: Roboto, sans-serif; font-size: 12px; font-weight: 200;" fill="rgb(33, 33, 33)" stroke="none" stroke-width="1px">300</text><text x="160.46006944444446" y="0" dx="0em" dy="0.95em" style="text-anchor: middle; visibility: inherit; font-family: Roboto, sans-serif; font-size: 12px; font-weight: 200;" fill="rgb(33, 33, 33)" stroke="none" stroke-width="1px">400</text><text x="192.55208333333331" y="0" dx="0em" dy="0.95em" style="text-anchor: middle; visibility: inherit; font-family: Roboto, sans-serif; font-size: 12px; font-weight: 200;" fill="rgb(33, 33, 33)" stroke="none" stroke-width="1px">500</text><text x="224.64409722222223" y="0" dx="0em" dy="0.95em" style="text-anchor: middle; visibility: inherit; font-family: Roboto, sans-serif; font-size: 12px; font-weight: 200;" fill="rgb(33, 33, 33)" stroke="none" stroke-width="1px">600</text><text x="256.7361111111111" y="0" dx="0em" dy="0.95em" style="text-anchor: middle; visibility: inherit; font-family: Roboto, sans-serif; font-size: 12px; font-weight: 200;" fill="rgb(33, 33, 33)" stroke="none" stroke-width="1px">700</text><text x="288.828125" y="0" dx="0em" dy="0.95em" style="text-anchor: middle; visibility: hidden; font-family: Roboto, sans-serif; font-size: 12px; font-weight: 200;" fill="rgb(33, 33, 33)" stroke="none" stroke-width="1px">800</text></g><line x1="0" y1="0" x2="288.828125" y2="0" fill="rgb(0, 0, 0)" stroke="rgb(204, 204, 204)" stroke-width="1px"></line></g></g></g></g></svg>