<svg viewBox="0 0 330 200" xmlns="http://www.w3.org/2000/svg"><g><g><g><g><g><line x1="70" y1="177" x2="65" y2="177" style="visibility: inherit;" fill="rgb(0, 0, 0)" stroke="rgb(204, 204, 204)" stroke-width="1px"></line><line x1="70" y1="160.9090909090909" x2="65" y2="160.9090909090909" style="visibility: inherit;" fill="rgb(0, 0, 0)" stroke="rgb(204, 204, 204)" stroke-width="1px"></line><line x1="70" y1="144.8181818181818" x2="65" y2="144.8181818181818" style="visibility: inherit;" fill="rgb(0, 0, 0)" stroke="rgb(204, 204, 204)" stroke-width="1px"></line><line x1="70" y1="128.72727272727272" x2="65" y2="128.72727272727272" style="visibility: inherit;" fill="rgb(0, 0, 0)" stroke="rgb(204, 204, 204)" stroke-width="1px"></line><line x1="70" y1="112.63636363636364" x2="65" y2="112.63636363636364" style="visibility: inherit;" fill="rgb(0, 0, 0)" stroke="rgb(204, 204, 204)" stroke-width="1px"></line><line x1="70" y1="96.54545454545453" x2="65" y2="96.54545454545453" style="visibility: inherit;" fill="rgb(0, 0, 0)" stroke="rgb(204, 204, 204)" stroke-width="1px"></line><line x1="70" y1="80.45454545454544" x2="65" y2="80.45454545454544" style="visibility: inherit;" fill="rgb(0, 0, 0)" stroke="rgb(204, 204, 204)" stroke-width="1px"></line><line x1="70" y1="64.36363636363635" x2="65" y2="64.36363636363635" style="visibility: inherit;" fill="rgb(0, 0, 0)" stroke="rgb(204, 204, 204)" stroke-width="1px"></line><line x1="70" y1="48.272727272727266" x2="65" y2="48.272727272727266" style="visibility: inherit;" fill="rgb(0, 0, 0)" stroke="rgb(204, 204, 204)" stroke-width="1px"></line><line x1="70" y1="32.181818181818194" x2="65" y2="32.181818181818194" style="visibility: inherit;" fill="rgb(0, 0, 0)" stroke="rgb(204, 204, 204)" stroke-width="1px"></line><line x1="70" y1="16.090909090909076" x2="65" y2="16.090909090909076" style="visibility: inherit;" fill="rgb(0, 0, 0)" stroke="rgb(204, 204, 204)" stroke-width="1px"></line><line x1="70" y1="0" x2="65" y2="0" style="visibility: inherit;" fill="rgb(0, 0, 0)" stroke="rgb(204, 204, 204)" stroke-width="1px"></line></g><g transform="translate(60, 0)"><text x="0" y="177" dx="0em" dy="0.3em" style="text-anchor: end; visibility: hidden; font-family: Roboto, sans-serif; font-size: 12px; font-weight: 200;" fill="rgb(33, 33, 33)" stroke="none" stroke-width="1px">0</text><text x="0" y="160.9090909090909" dx="0em" dy="0.3em" style="text-anchor: end; visibility: inherit; font-family: Roboto, sans-serif; font-size: 12px; font-weight: 200;" fill="rgb(33, 33, 33)" stroke="none" stroke-width="1px">5e-4</text><text x="0" y="144.8181818181818" dx="0em" dy="0.3em" style="text-anchor: end; visibility: hidden; font-family: Roboto, sans-serif; font-size: 12px; font-weight: 200;" fill="rgb(33, 33, 33)" stroke="none" stroke-width="1px">1e-3</text><text x="0" y="128.72727272727272" dx="0em" dy="0.3em" style="text-anchor: end; visibility: inherit; font-family: Roboto, sans-serif; font-size: 12px; font-weight: 200;" fill="rgb(33, 33, 33)" stroke="none" stroke-width="1px">1.5e-3</text><text x="0" y="112.63636363636364" dx="0em" dy="0.3em" style="text-anchor: end; visibility: hidden; font-family: Roboto, sans-serif; font-size: 12px; font-weight: 200;" fill="rgb(33, 33, 33)" stroke="none" stroke-width="1px">2e-3</text><text x="0" y="96.54545454545453" dx="0em" dy="0.3em" style="text-anchor: end; visibility: inherit; font-family: Roboto, sans-serif; font-size: 12px; font-weight: 200;" fill="rgb(33, 33, 33)" stroke="none" stroke-width="1px">2.5e-3</text><text x="0" y="80.45454545454544" dx="0em" dy="0.3em" style="text-anchor: end; visibility: hidden; font-family: Roboto, sans-serif; font-size: 12px; font-weight: 200;" fill="rgb(33, 33, 33)" stroke="none" stroke-width="1px">3e-3</text><text x="0" y="64.36363636363635" dx="0em" dy="0.3em" style="text-anchor: end; visibility: inherit; font-family: Roboto, sans-serif; font-size: 12px; font-weight: 200;" fill="rgb(33, 33, 33)" stroke="none" stroke-width="1px">3.5e-3</text><text x="0" y="48.272727272727266" dx="0em" dy="0.3em" style="text-anchor: end; visibility: hidden; font-family: Roboto, sans-serif; font-size: 12px; font-weight: 200;" fill="rgb(33, 33, 33)" stroke="none" stroke-width="1px">4e-3</text><text x="0" y="32.181818181818194" dx="0em" dy="0.3em" style="text-anchor: end; visibility: inherit; font-family: Roboto, sans-serif; font-size: 12px; font-weight: 200;" fill="rgb(33, 33, 33)" stroke="none" stroke-width="1px">4.5e-3</text><text x="0" y="16.090909090909076" dx="0em" dy="0.3em" style="text-anchor: end; visibility: hidden; font-family: Roboto, sans-serif; font-size: 12px; font-weight: 200;" fill="rgb(33, 33, 33)" stroke="none" stroke-width="1px">5e-3</text><text x="0" y="0" dx="0em" dy="0.3em" style="text-anchor: end; visibility: hidden; font-family: Roboto, sans-serif; font-size: 12px; font-weight: 200;" fill="rgb(33, 33, 33)" stroke="none" stroke-width="1px">5.5e-3</text></g><line x1="70" y1="0" x2="70" y2="177" fill="rgb(0, 0, 0)" stroke="rgb(204, 204, 204)" stroke-width="1px"></line></g></g><g transform="translate(70, 0)" clip-path="url(#clip_0)"><clipPath id="clip_0"><rect width="260" height="177"></rect></clipPath><g><g><g><line x1="0" y1="0" x2="0" y2="177" fill="rgb(0, 0, 0)" stroke="rgb(66, 66, 66)" stroke-width="1px" opacity="0.25"></line><line x1="21.666666666666664" y1="0" x2="21.666666666666664" y2="177" fill="rgb(0, 0, 0)" stroke="rgb(66, 66, 66)" stroke-width="1px" opacity="0.25"></line><line x1="43.33333333333333" y1="0" x2="43.33333333333333" y2="177" fill="rgb(0, 0, 0)" stroke="rgb(66, 66, 66)" stroke-width="1px" opacity="0.25"></line><line x1="65" y1="0" x2="65" y2="177" fill="rgb(0, 0, 0)" stroke="rgb(66, 66, 66)" stroke-width="1px" opacity="0.25"></line><line x1="86.66666666666666" y1="0" x2="86.66666666666666" y2="177" fill="rgb(0, 0, 0)" stroke="rgb(66, 66, 66)" stroke-width="1px" opacity="0.25"></line><line x1="108.33333333333334" y1="0" x2="108.33333333333334" y2="177" fill="rgb(0, 0, 0)" stroke="rgb(66, 66, 66)" stroke-width="1px" opacity="0.25"></line><line x1="130" y1="0" x2="130" y2="177" fill="rgb(0, 0, 0)" stroke="rgb(66, 66, 66)" stroke-width="1px" opacity="0.25"></line><line x1="151.66666666666669" y1="0" x2="151.66666666666669" y2="177" fill="rgb(0, 0, 0)" stroke="rgb(66, 66, 66)" stroke-width="1px" opacity="0.25"></line><line x1="173.33333333333331" y1="0" x2="173.33333333333331" y2="177" fill="rgb(0, 0, 0)" stroke="rgb(66, 66, 66)" stroke-width="1px" opacity="0.25"></line><line x1="195" y1="0" x2="195" y2="177" fill="rgb(0, 0, 0)" stroke="rgb(66, 66, 66)" stroke-width="1px" opacity="0.25"></line><line x1="216.66666666666669" y1="0" x2="216.66666666666669" y2="177" fill="rgb(0, 0, 0)" stroke="rgb(66, 66, 66)" stroke-width="1px" opacity="0.25"></line><line x1="238.33333333333331" y1="0" x2="238.33333333333331" y2="177" fill="rgb(0, 0, 0)" stroke="rgb(66, 66, 66)" stroke-width="1px" opacity="0.25"></line><line x1="260" y1="0" x2="260" y2="177" fill="rgb(0, 0, 0)" stroke="rgb(66, 66, 66)" stroke-width="1px" opacity="0.25"></line></g><g><line x1="0" y1="177" x2="260" y2="177" fill="rgb(0, 0, 0)" stroke="rgb(66, 66, 66)" stroke-width="1px" opacity="0.25"></line><line x1="0" y1="160.9090909090909" x2="260" y2="160.9090909090909" fill="rgb(0, 0, 0)" stroke="rgb(66, 66, 66)" stroke-width="1px" opacity="0.25"></line><line x1="0" y1="144.8181818181818" x2="260" y2="144.8181818181818" fill="rgb(0, 0, 0)" stroke="rgb(66, 66, 66)" stroke-width="1px" opacity="0.25"></line><line x1="0" y1="128.72727272727272" x2="260" y2="128.72727272727272" fill="rgb(0, 0, 0)" stroke="rgb(66, 66, 66)" stroke-width="1px" opacity="0.25"></line><line x1="0" y1="112.63636363636364" x2="260" y2="112.63636363636364" fill="rgb(0, 0, 0)" stroke="rgb(66, 66, 66)" stroke-width="1px" opacity="0.25"></line><line x1="0" y1="96.54545454545453" x2="260" y2="96.54545454545453" fill="rgb(0, 0, 0)" stroke="rgb(66, 66, 66)" stroke-width="1px" opacity="0.25"></line><line x1="0" y1="80.45454545454544" x2="260" y2="80.45454545454544" fill="rgb(0, 0, 0)" stroke="rgb(66, 66, 66)" stroke-width="1px" opacity="0.25"></line><line x1="0" y1="64.36363636363635" x2="260" y2="64.36363636363635" fill="rgb(0, 0, 0)" stroke="rgb(66, 66, 66)" stroke-width="1px" opacity="0.25"></line><line x1="0" y1="48.272727272727266" x2="260" y2="48.272727272727266" fill="rgb(0, 0, 0)" stroke="rgb(66, 66, 66)" stroke-width="1px" opacity="0.25"></line><line x1="0" y1="32.181818181818194" x2="260" y2="32.181818181818194" fill="rgb(0, 0, 0)" stroke="rgb(66, 66, 66)" stroke-width="1px" opacity="0.25"></line><line x1="0" y1="16.090909090909076" x2="260" y2="16.090909090909076" fill="rgb(0, 0, 0)" stroke="rgb(66, 66, 66)" stroke-width="1px" opacity="0.25"></line><line x1="0" y1="0" x2="260" y2="0" fill="rgb(0, 0, 0)" stroke="rgb(66, 66, 66)" stroke-width="1px" opacity="0.25"></line></g></g></g><g><g><line x1="0" y1="177" x2="260" y2="177" fill="rgb(0, 0, 0)" stroke="rgb(153, 153, 153)" stroke-width="1.5px"></line></g></g><g><g><line x1="21.666666666666664" y1="0" x2="21.666666666666664" y2="177" fill="rgb(0, 0, 0)" stroke="rgb(153, 153, 153)" stroke-width="1.5px"></line></g></g><g><g><g><g><g><path stroke="rgb(255, 112, 67)" stroke-width="2px" d="M31.416666666666668,-31.889190622395578L32.5,15.350787196448708L33.583333333333336,47.05503904248815L34.666666666666664,68.36295013457617L35.75,83.03304972561203L36.833333333333336,93.34948947696644L37.91666666666667,101.01725655857173L39,106.9422769192608L40.083333333333336,111.49078804301506L41.166666666666664,114.97666621968531L42.25,118.0302978326357L43.33333333333333,120.7075495925714L44.416666666666664,123.04508812461042L45.5,125.11906380352265L46.583333333333336,126.83266817161531L47.666666666666664,128.4938751791973L48.75,129.92927572116542L49.833333333333336,131.17798841573327L50.916666666666664,132.38614145879646L52,133.50159357392062L53.083333333333336,134.52226131787828L54.16666666666667,135.47653802960664L55.25,136.39062650171638L56.333333333333336,137.2566472082186L57.416666666666664,138.08158085130407L58.5,138.86690341152925L59.58333333333333,139.55469608868643L60.666666666666664,140.2701753103012L61.75,140.8401827525503L62.833333333333336,141.58064386982767L63.916666666666664,142.04844978595787L65,142.641734687089L66.08333333333333,143.3117995675743L67.16666666666667,143.99876252367469L68.25,144.2072304594461L69.33333333333333,144.58570207191946L70.41666666666666,145.16197653521013L71.5,145.6449641820552L72.58333333333333,146.0785877394063L73.66666666666667,146.49823879562183L74.75,146.89289381276714L75.83333333333334,147.2576770239992L76.91666666666667,147.61339002891478L78,147.97600173847852L79.08333333333333,148.33312727422467L80.16666666666667,148.67899913585774L81.25,149.01379762984146L82.33333333333333,149.34026544842004L83.41666666666667,149.65503245068234L84.5,149.9639778293055L85.58333333333333,150.2603121073785L86.66666666666666,150.55319558247476L87.75,150.83153587207065L88.83333333333333,151.10993344350214L89.91666666666667,151.37058245256495L91,151.63604919613192L92.08333333333334,151.87880779092077L93.16666666666667,152.13262240402682L94.25,152.35695253746246L95.33333333333333,152.600527550613L96.41666666666667,152.8076378994265L97.5,153.04432328623867L98.58333333333333,153.23984441037513L99.66666666666667,153.4761438010123L100.75,153.66910602852894L101.83333333333333,153.91450477324136L102.91666666666666,154.12606169046558L104,154.42958882478288L105.08333333333333,154.74647414510983L106.16666666666667,155.00287341307154L107.25,155.11093426988805L108.33333333333334,155.3720978540909L109.41666666666667,155.58904802017616L110.5,155.75228959188286L111.58333333333333,155.98126386154493L112.66666666666667,156.22171344772622L113.75,156.0522144519183L114.83333333333333,156.2373580174992L115.91666666666667,156.40343090213617L117,156.57380773580348L118.08333333333333,156.68337239542822L119.16666666666666,156.8318876538623L120.25,156.97620009940962L121.33333333333333,157.15865864492713L122.41666666666667,157.28196943690688L123.5,157.4274465485288L124.58333333333334,157.56684452990297L125.66666666666667,157.7435730274472L126.75,157.86461543443113L127.83333333333333,157.99575303968405L128.91666666666666,158.12744272039302L130,158.29646739940515L131.08333333333334,158.4113192484866L132.16666666666666,158.52319322502476L133.25,158.64678420664072L134.33333333333334,158.81093692824416L135.41666666666669,158.92082827971572L136.5,159.01119373487376L137.58333333333334,159.1254851936096L138.66666666666666,159.2889668090803L139.75,159.40013615735708L140.83333333333331,159.47100682336185L141.91666666666666,159.56969460353747L143,159.7324788169755L144.08333333333334,159.855754878141L145.16666666666666,159.9183222949135L146.25,159.9903683606652L147.33333333333334,160.13992718546928L148.41666666666666,160.2843480105198L149.5,160.35787966482323L150.58333333333334,160.40494337238766L151.66666666666669,160.519368833784L152.75,160.67412517897492L153.83333333333334,160.77591278678545L154.91666666666666,160.81686837746477L156,160.89156932279414L157.08333333333331,161.03286639558695L158.16666666666666,161.16281604258873L159.25,161.21709623565403L160.33333333333334,161.26216290575883L161.41666666666666,161.37713449492853L162.5,161.5220828527715L163.58333333333334,161.59966287228977L164.66666666666666,161.62378759123652L165.75,161.70975305903863L166.83333333333334,161.8614290464442L167.91666666666669,161.9631682373921L169,161.97230684197078L170.08333333333334,162.0286282984797L171.16666666666666,162.18454554604384L172.25,162.31186645546194L173.33333333333331,162.31374909520758L174.41666666666666,162.33475737841454L175.5,162.48973482198974L176.58333333333334,162.64755671885044L177.66666666666666,162.66326031276083L178.75,162.63208061904308L179.83333333333334,162.76555200157534L180.91666666666666,162.9608728426554L182,163.0404823920649L183.08333333333334,162.95048304053458L184.16666666666669,163.01030752841066L185.25,163.22454105395093L186.33333333333334,163.37394406281516L187.41666666666666,163.3042981423891L188.5,163.30736204605557L189.58333333333331,163.4837695363178L190.66666666666666,163.65551345489936L191.75,163.6628307185689L192.83333333333334,163.593216567877L193.91666666666666,163.71872212499778L195,163.92037920792097L196.08333333333334,164.0547640432857L197.16666666666666,163.94100067141378L198.25,163.9780589185181L199.33333333333334,164.17361731798334L200.41666666666669,164.33196631796577L201.5,164.26843840749174L202.58333333333334,164.2750858246879L203.66666666666666,164.4469867187667L204.75,164.61478173206996L205.83333333333331,164.60916914036844L206.91666666666666,164.56630231749645L208,164.6838714553838L209.08333333333334,164.87604427807062L210.16666666666666,165.00326807303065L211.25,164.93756406029513L212.33333333333334,164.93511243686416L213.41666666666666,165.07316775328596L214.5,165.24753549767408L215.58333333333334,165.30281530929645L216.66666666666669,165.24105510123735L217.75,165.29889185474127L218.83333333333334,165.49373769794886L219.91666666666666,165.66315516662385L221,165.66883641247364L222.08333333333331,165.69524428314568L223.16666666666666,165.64787092019964L224.25,165.7212197738931L225.33333333333334,165.92224421120707L226.41666666666666,166.09493424736627L227.5,166.10711449421257L228.58333333333334,166.15646013459963L229.66666666666666,166.11456451909066L230.75,166.15156438237062L231.83333333333334,166.3306572909474L232.91666666666669,166.49915105827702L234,166.51171292668167L235.08333333333334,166.50171812885466L236.16666666666666,166.5482458240901L237.25,166.71706255739122" style="fill: none;" fill="none"></path></g></g></g></g><g opacity="0.2"><g><g><g><path stroke="rgb(255, 112, 67)" stroke-width="2px" d="M28.166666666666668,-87.06954144212334L29.25,4.025733549486489L30.333333333333332,49.34844876961273L31.416666666666668,72.29455956918271L32.5,85.78229080276054L33.583333333333336,94.43888367306103L34.666666666666664,100.25524274598469L35.75,105.00945885987446L36.833333333333336,108.8120225163346L37.91666666666667,112.51349927755919L39,115.82730019024827L40.083333333333336,118.3123998621648L41.166666666666664,120.20495244623586L42.25,122.6104661380364L43.33333333333333,124.7232804056257L44.416666666666664,126.55131900496781L45.5,128.2299863748591L46.583333333333336,129.4030544244769L47.666666666666664,130.98567388342187L48.75,132.08237041278997L49.833333333333336,133.05105426247147L50.916666666666664,134.19836916859177L52,135.17477071911773L53.083333333333336,136.05326236970723L54.16666666666667,136.90795278075066L55.25,137.76175902800804L56.333333333333336,138.55567816458642L57.416666666666664,139.31898125684395L58.5,140.04488721811637L59.58333333333333,140.58638508668676L60.666666666666664,141.3433941316537L61.75,141.6951939106326L62.833333333333336,142.6913355416195L63.916666666666664,142.75015865858984L65,143.5316620375961L66.08333333333333,144.3168968874961L67.16666666666667,145.0292069573294L68.25,144.51993236301297L69.33333333333333,145.15340949053115L70.41666666666666,146.02638823005626L71.5,146.36944565227762L72.58333333333333,146.72902307540855L73.66666666666667,147.12771537993103L74.75,147.48487633847716L75.83333333333334,147.80485184084284L76.91666666666667,148.14695953628555L78,148.5199193028225L79.08333333333333,148.86881557784298L80.16666666666667,149.19780692830682L81.25,149.51599537081677L82.33333333333333,149.82996717628768L83.41666666666667,150.12718295407566L84.5,150.42739589724013L85.58333333333333,150.70481352448803L86.66666666666666,150.99252079511908L87.75,151.2490463064645L88.83333333333333,151.5275298006494L89.91666666666667,151.76155596615916L91,152.03424931148237L92.08333333333334,152.24294568310407L93.16666666666667,152.5133443236859L94.25,152.69344773761588L95.33333333333333,152.96589007033882L96.41666666666667,153.11830342264676L97.5,153.39935136645693L98.58333333333333,153.53312609657985L99.66666666666667,153.8305928869681L100.75,153.95854936980388L101.83333333333333,154.28260289030996L102.91666666666666,154.4433970663019L104,154.88487952625886L105.08333333333333,155.22180212560025L106.16666666666667,155.3874723150141L107.25,155.2730255551128L108.33333333333334,155.76384323039517L109.41666666666667,155.9144732693041L110.5,155.99715194944292L111.58333333333333,156.32472526603803L112.66666666666667,156.58238782699812L113.75,155.7979659582065L114.83333333333333,156.51507336587053L115.91666666666667,156.65254022909158L117,156.8293729863045L118.08333333333333,156.84771938486531L119.16666666666666,157.0546605415134L120.25,157.19266876773062L121.33333333333333,157.43234646320343L122.41666666666667,157.46693562487647L123.5,157.64566221596166L124.58333333333334,157.7759415019642L125.66666666666667,158.00866577376357L126.75,158.04617904490706L127.83333333333333,158.19245944756338L128.91666666666666,158.3249772414565L130,158.55000441792336L131.08333333333334,158.58359702210873L132.16666666666666,158.69100418983197L133.25,158.83217067906463L134.33333333333334,159.05716601064935L135.41666666666669,159.08566530692306L136.5,159.14674191761085L137.58333333333334,159.2969223817133L138.66666666666666,159.5341892322864L139.75,159.56689017977226L140.83333333333331,159.577312822369L141.91666666666666,159.71772627380085L143,159.97665513713252L144.08333333333334,160.04066896988925L145.16666666666666,160.0121734200723L146.25,160.09843745929274L147.33333333333334,160.36426542267543L148.41666666666666,160.50097924809563L149.5,160.46817714627832L150.58333333333334,160.47553893373433L151.66666666666669,160.69100702587855L152.75,160.9062596967613L153.83333333333334,160.92859419850126L154.91666666666666,160.87830176348373L156,161.00362074078822L157.08333333333331,161.24481200477615L158.16666666666666,161.3577405130914L159.25,161.29851652525196L160.33333333333334,161.32976291091606L161.41666666666666,161.54959187868306L162.5,161.73950538953596L163.58333333333334,161.71603290156716L164.66666666666666,161.65997466965663L165.75,161.8387012607418L166.83333333333334,162.08894302755255L167.91666666666669,162.11577702381393L169,161.9860147488388L170.08333333333334,162.11311048324305L171.16666666666666,162.41842141739008L172.25,162.50284781958908L173.33333333333331,162.31657305482605L174.41666666666666,162.36626980322498L175.5,162.72220098735258L176.58333333333334,162.88428956414148L177.66666666666666,162.6868157036264L178.75,162.58531107846648L179.83333333333334,162.96575907537374L180.91666666666666,163.2538541042754L182,163.15989671617916L183.08333333333334,162.8154840132391L184.16666666666669,163.10004426022485L185.25,163.54589134226129L186.33333333333334,163.5980485761115L187.41666666666666,163.19982926174998L188.5,163.31195790155536L189.58333333333331,163.74838077171114L190.66666666666666,163.9131293327717L191.75,163.67380661407316L192.83333333333334,163.48879534183916L193.91666666666666,163.906980460679L195,164.22286483230576L196.08333333333334,164.2563412963328L197.16666666666666,163.7703556136059L198.25,164.03364628917453L199.33333333333334,164.46695491718128L200.41666666666669,164.56948981793937L201.5,164.1731465417807L202.58333333333334,164.28505695048213L203.66666666666666,164.7048380598849L204.75,164.86647425202483L205.83333333333331,164.60075025281614L206.91666666666666,164.50200208318844L208,164.86022516221485L209.08333333333334,165.16430351210082L210.16666666666666,165.19410376547074L211.25,164.83900804119185L212.33333333333334,164.93143500171772L213.41666666666666,165.28025072791868L214.5,165.5090871142562L215.58333333333334,165.38573502673006L216.66666666666669,165.1484147891487L217.75,165.38564698499712L218.83333333333334,165.78600646276027L219.91666666666666,165.91728136963636L221,165.67735828124833L222.08333333333331,165.73485608915374L223.16666666666666,165.57681087578055L224.25,165.83124305443332L225.33333333333334,166.223780867178L226.41666666666666,166.35396930160508L227.5,166.12538486448202L228.58333333333334,166.23047859518027L229.66666666666666,166.05172109582716L230.75,166.20706417729062L231.83333333333334,166.5992966538126L232.91666666666669,166.7518917092715L234,166.5305557292886L235.08333333333334,166.48672593211415L236.16666666666666,166.61803736694327L237.25,166.97028765734285" style="fill: none;" fill="none"></path></g></g></g></g></g></g><g transform="translate(70, 177)" clip-path="url(#clip_1)"><clipPath id="clip_1"><rect width="260" height="23"></rect></clipPath><g><g><line x1="0" y1="0" x2="0" y2="5" style="visibility: inherit;" fill="rgb(0, 0, 0)" stroke="rgb(204, 204, 204)" stroke-width="1px"></line><line x1="21.666666666666664" y1="0" x2="21.666666666666664" y2="5" style="visibility: inherit;" fill="rgb(0, 0, 0)" stroke="rgb(204, 204, 204)" stroke-width="1px"></line><line x1="43.33333333333333" y1="0" x2="43.33333333333333" y2="5" style="visibility: inherit;" fill="rgb(0, 0, 0)" stroke="rgb(204, 204, 204)" stroke-width="1px"></line><line x1="65" y1="0" x2="65" y2="5" style="visibility: inherit;" fill="rgb(0, 0, 0)" stroke="rgb(204, 204, 204)" stroke-width="1px"></line><line x1="86.66666666666666" y1="0" x2="86.66666666666666" y2="5" style="visibility: inherit;" fill="rgb(0, 0, 0)" stroke="rgb(204, 204, 204)" stroke-width="1px"></line><line x1="108.33333333333334" y1="0" x2="108.33333333333334" y2="5" style="visibility: inherit;" fill="rgb(0, 0, 0)" stroke="rgb(204, 204, 204)" stroke-width="1px"></line><line x1="130" y1="0" x2="130" y2="5" style="visibility: inherit;" fill="rgb(0, 0, 0)" stroke="rgb(204, 204, 204)" stroke-width="1px"></line><line x1="151.66666666666669" y1="0" x2="151.66666666666669" y2="5" style="visibility: inherit;" fill="rgb(0, 0, 0)" stroke="rgb(204, 204, 204)" stroke-width="1px"></line><line x1="173.33333333333331" y1="0" x2="173.33333333333331" y2="5" style="visibility: inherit;" fill="rgb(0, 0, 0)" stroke="rgb(204, 204, 204)" stroke-width="1px"></line><line x1="195" y1="0" x2="195" y2="5" style="visibility: inherit;" fill="rgb(0, 0, 0)" stroke="rgb(204, 204, 204)" stroke-width="1px"></line><line x1="216.66666666666669" y1="0" x2="216.66666666666669" y2="5" style="visibility: inherit;" fill="rgb(0, 0, 0)" stroke="rgb(204, 204, 204)" stroke-width="1px"></line><line x1="238.33333333333331" y1="0" x2="238.33333333333331" y2="5" style="visibility: inherit;" fill="rgb(0, 0, 0)" stroke="rgb(204, 204, 204)" stroke-width="1px"></line><line x1="260" y1="0" x2="260" y2="5" style="visibility: inherit;" fill="rgb(0, 0, 0)" stroke="rgb(204, 204, 204)" stroke-width="1px"></line></g><g transform="translate(0, 8)"><text x="0" y="0" dx="0em" dy="0.95em" style="text-anchor: middle; visibility: hidden; font-family: Roboto, sans-serif; font-size: 12px; font-weight: 200;" fill="rgb(33, 33, 33)" stroke="none" stroke-width="1px">-20</text><text x="21.666666666666664" y="0" dx="0em" dy="0.95em" style="text-anchor: middle; visibility: inherit; font-family: Roboto, sans-serif; font-size: 12px; font-weight: 200;" fill="rgb(33, 33, 33)" stroke="none" stroke-width="1px">0</text><text x="43.33333333333333" y="0" dx="0em" dy="0.95em" style="text-anchor: middle; visibility: hidden; font-family: Roboto, sans-serif; font-size: 12px; font-weight: 200;" fill="rgb(33, 33, 33)" stroke="none" stroke-width="1px">20</text><text x="65" y="0" dx="0em" dy="0.95em" style="text-anchor: middle; visibility: inherit; font-family: Roboto, sans-serif; font-size: 12px; font-weight: 200;" fill="rgb(33, 33, 33)" stroke="none" stroke-width="1px">40</text><text x="86.66666666666666" y="0" dx="0em" dy="0.95em" style="text-anchor: middle; visibility: hidden; font-family: Roboto, sans-serif; font-size: 12px; font-weight: 200;" fill="rgb(33, 33, 33)" stroke="none" stroke-width="1px">60</text><text x="108.33333333333334" y="0" dx="0em" dy="0.95em" style="text-anchor: middle; visibility: inherit; font-family: Roboto, sans-serif; font-size: 12px; font-weight: 200;" fill="rgb(33, 33, 33)" stroke="none" stroke-width="1px">80</text><text x="130" y="0" dx="0em" dy="0.95em" style="text-anchor: middle; visibility: hidden; font-family: Roboto, sans-serif; font-size: 12px; font-weight: 200;" fill="rgb(33, 33, 33)" stroke="none" stroke-width="1px">100</text><text x="151.66666666666669" y="0" dx="0em" dy="0.95em" style="text-anchor: middle; visibility: inherit; font-family: Roboto, sans-serif; font-size: 12px; font-weight: 200;" fill="rgb(33, 33, 33)" stroke="none" stroke-width="1px">120</text><text x="173.33333333333331" y="0" dx="0em" dy="0.95em" style="text-anchor: middle; visibility: hidden; font-family: Roboto, sans-serif; font-size: 12px; font-weight: 200;" fill="rgb(33, 33, 33)" stroke="none" stroke-width="1px">140</text><text x="195" y="0" dx="0em" dy="0.95em" style="text-anchor: middle; visibility: inherit; font-family: Roboto, sans-serif; font-size: 12px; font-weight: 200;" fill="rgb(33, 33, 33)" stroke="none" stroke-width="1px">160</text><text x="216.66666666666669" y="0" dx="0em" dy="0.95em" style="text-anchor: middle; visibility: hidden; font-family: Roboto, sans-serif; font-size: 12px; font-weight: 200;" fill="rgb(33, 33, 33)" stroke="none" stroke-width="1px">180</text><text x="238.33333333333331" y="0" dx="0em" dy="0.95em" style="text-anchor: middle; visibility: inherit; font-family: Roboto, sans-serif; font-size: 12px; font-weight: 200;" fill="rgb(33, 33, 33)" stroke="none" stroke-width="1px">200</text><text x="260" y="0" dx="0em" dy="0.95em" style="text-anchor: middle; visibility: hidden; font-family: Roboto, sans-serif; font-size: 12px; font-weight: 200;" fill="rgb(33, 33, 33)" stroke="none" stroke-width="1px">220</text></g><line x1="0" y1="0" x2="260" y2="0" fill="rgb(0, 0, 0)" stroke="rgb(204, 204, 204)" stroke-width="1px"></line></g></g></g></g></svg>