<svg viewBox="0 0 330 200" xmlns="http://www.w3.org/2000/svg"><g><g><g><g><g><line x1="72.34375" y1="177" x2="67.34375" y2="177" style="visibility: inherit;" fill="rgb(0, 0, 0)" stroke="rgb(204, 204, 204)" stroke-width="1px"></line><line x1="72.34375" y1="157.33333333333331" x2="67.34375" y2="157.33333333333331" style="visibility: inherit;" fill="rgb(0, 0, 0)" stroke="rgb(204, 204, 204)" stroke-width="1px"></line><line x1="72.34375" y1="137.66666666666666" x2="67.34375" y2="137.66666666666666" style="visibility: inherit;" fill="rgb(0, 0, 0)" stroke="rgb(204, 204, 204)" stroke-width="1px"></line><line x1="72.34375" y1="118" x2="67.34375" y2="118" style="visibility: inherit;" fill="rgb(0, 0, 0)" stroke="rgb(204, 204, 204)" stroke-width="1px"></line><line x1="72.34375" y1="98.33333333333334" x2="67.34375" y2="98.33333333333334" style="visibility: inherit;" fill="rgb(0, 0, 0)" stroke="rgb(204, 204, 204)" stroke-width="1px"></line><line x1="72.34375" y1="78.66666666666666" x2="67.34375" y2="78.66666666666666" style="visibility: inherit;" fill="rgb(0, 0, 0)" stroke="rgb(204, 204, 204)" stroke-width="1px"></line><line x1="72.34375" y1="58.999999999999986" x2="67.34375" y2="58.999999999999986" style="visibility: inherit;" fill="rgb(0, 0, 0)" stroke="rgb(204, 204, 204)" stroke-width="1px"></line><line x1="72.34375" y1="39.333333333333314" x2="67.34375" y2="39.333333333333314" style="visibility: inherit;" fill="rgb(0, 0, 0)" stroke="rgb(204, 204, 204)" stroke-width="1px"></line><line x1="72.34375" y1="19.666666666666657" x2="67.34375" y2="19.666666666666657" style="visibility: inherit;" fill="rgb(0, 0, 0)" stroke="rgb(204, 204, 204)" stroke-width="1px"></line><line x1="72.34375" y1="0" x2="67.34375" y2="0" style="visibility: inherit;" fill="rgb(0, 0, 0)" stroke="rgb(204, 204, 204)" stroke-width="1px"></line></g><g transform="translate(62.34375, 0)"><text x="0" y="177" dx="0em" dy="0.3em" style="text-anchor: end; visibility: hidden; font-family: Roboto, sans-serif; font-size: 12px; font-weight: 200;" fill="rgb(33, 33, 33)" stroke="none" stroke-width="1px">0</text><text x="0" y="157.33333333333331" dx="0em" dy="0.3em" style="text-anchor: end; visibility: inherit; font-family: Roboto, sans-serif; font-size: 12px; font-weight: 200;" fill="rgb(33, 33, 33)" stroke="none" stroke-width="1px">5e-4</text><text x="0" y="137.66666666666666" dx="0em" dy="0.3em" style="text-anchor: end; visibility: hidden; font-family: Roboto, sans-serif; font-size: 12px; font-weight: 200;" fill="rgb(33, 33, 33)" stroke="none" stroke-width="1px">1e-3</text><text x="0" y="118" dx="0em" dy="0.3em" style="text-anchor: end; visibility: inherit; font-family: Roboto, sans-serif; font-size: 12px; font-weight: 200;" fill="rgb(33, 33, 33)" stroke="none" stroke-width="1px">1.5e-3</text><text x="0" y="98.33333333333334" dx="0em" dy="0.3em" style="text-anchor: end; visibility: hidden; font-family: Roboto, sans-serif; font-size: 12px; font-weight: 200;" fill="rgb(33, 33, 33)" stroke="none" stroke-width="1px">2e-3</text><text x="0" y="78.66666666666666" dx="0em" dy="0.3em" style="text-anchor: end; visibility: inherit; font-family: Roboto, sans-serif; font-size: 12px; font-weight: 200;" fill="rgb(33, 33, 33)" stroke="none" stroke-width="1px">2.5e-3</text><text x="0" y="58.999999999999986" dx="0em" dy="0.3em" style="text-anchor: end; visibility: hidden; font-family: Roboto, sans-serif; font-size: 12px; font-weight: 200;" fill="rgb(33, 33, 33)" stroke="none" stroke-width="1px">3e-3</text><text x="0" y="39.333333333333314" dx="0em" dy="0.3em" style="text-anchor: end; visibility: inherit; font-family: Roboto, sans-serif; font-size: 12px; font-weight: 200;" fill="rgb(33, 33, 33)" stroke="none" stroke-width="1px">3.5e-3</text><text x="0" y="19.666666666666657" dx="0em" dy="0.3em" style="text-anchor: end; visibility: hidden; font-family: Roboto, sans-serif; font-size: 12px; font-weight: 200;" fill="rgb(33, 33, 33)" stroke="none" stroke-width="1px">4e-3</text><text x="0" y="0" dx="0em" dy="0.3em" style="text-anchor: end; visibility: hidden; font-family: Roboto, sans-serif; font-size: 12px; font-weight: 200;" fill="rgb(33, 33, 33)" stroke="none" stroke-width="1px">4.5e-3</text></g><line x1="72.34375" y1="0" x2="72.34375" y2="177" fill="rgb(0, 0, 0)" stroke="rgb(204, 204, 204)" stroke-width="1px"></line></g></g><g transform="translate(72, 0)" clip-path="url(#clip_0)"><clipPath id="clip_0"><rect width="257" height="177"></rect></clipPath><g><g><g><line x1="0" y1="0" x2="0" y2="177" fill="rgb(0, 0, 0)" stroke="rgb(66, 66, 66)" stroke-width="1px" opacity="0.25"></line><line x1="21.471354166666664" y1="0" x2="21.471354166666664" y2="177" fill="rgb(0, 0, 0)" stroke="rgb(66, 66, 66)" stroke-width="1px" opacity="0.25"></line><line x1="42.94270833333333" y1="0" x2="42.94270833333333" y2="177" fill="rgb(0, 0, 0)" stroke="rgb(66, 66, 66)" stroke-width="1px" opacity="0.25"></line><line x1="64.4140625" y1="0" x2="64.4140625" y2="177" fill="rgb(0, 0, 0)" stroke="rgb(66, 66, 66)" stroke-width="1px" opacity="0.25"></line><line x1="85.88541666666666" y1="0" x2="85.88541666666666" y2="177" fill="rgb(0, 0, 0)" stroke="rgb(66, 66, 66)" stroke-width="1px" opacity="0.25"></line><line x1="107.35677083333334" y1="0" x2="107.35677083333334" y2="177" fill="rgb(0, 0, 0)" stroke="rgb(66, 66, 66)" stroke-width="1px" opacity="0.25"></line><line x1="128.828125" y1="0" x2="128.828125" y2="177" fill="rgb(0, 0, 0)" stroke="rgb(66, 66, 66)" stroke-width="1px" opacity="0.25"></line><line x1="150.29947916666669" y1="0" x2="150.29947916666669" y2="177" fill="rgb(0, 0, 0)" stroke="rgb(66, 66, 66)" stroke-width="1px" opacity="0.25"></line><line x1="171.77083333333331" y1="0" x2="171.77083333333331" y2="177" fill="rgb(0, 0, 0)" stroke="rgb(66, 66, 66)" stroke-width="1px" opacity="0.25"></line><line x1="193.2421875" y1="0" x2="193.2421875" y2="177" fill="rgb(0, 0, 0)" stroke="rgb(66, 66, 66)" stroke-width="1px" opacity="0.25"></line><line x1="214.71354166666669" y1="0" x2="214.71354166666669" y2="177" fill="rgb(0, 0, 0)" stroke="rgb(66, 66, 66)" stroke-width="1px" opacity="0.25"></line><line x1="236.18489583333331" y1="0" x2="236.18489583333331" y2="177" fill="rgb(0, 0, 0)" stroke="rgb(66, 66, 66)" stroke-width="1px" opacity="0.25"></line><line x1="257.65625" y1="0" x2="257.65625" y2="177" fill="rgb(0, 0, 0)" stroke="rgb(66, 66, 66)" stroke-width="1px" opacity="0.25"></line></g><g><line x1="0" y1="177" x2="257.65625" y2="177" fill="rgb(0, 0, 0)" stroke="rgb(66, 66, 66)" stroke-width="1px" opacity="0.25"></line><line x1="0" y1="157.33333333333331" x2="257.65625" y2="157.33333333333331" fill="rgb(0, 0, 0)" stroke="rgb(66, 66, 66)" stroke-width="1px" opacity="0.25"></line><line x1="0" y1="137.66666666666666" x2="257.65625" y2="137.66666666666666" fill="rgb(0, 0, 0)" stroke="rgb(66, 66, 66)" stroke-width="1px" opacity="0.25"></line><line x1="0" y1="118" x2="257.65625" y2="118" fill="rgb(0, 0, 0)" stroke="rgb(66, 66, 66)" stroke-width="1px" opacity="0.25"></line><line x1="0" y1="98.33333333333334" x2="257.65625" y2="98.33333333333334" fill="rgb(0, 0, 0)" stroke="rgb(66, 66, 66)" stroke-width="1px" opacity="0.25"></line><line x1="0" y1="78.66666666666666" x2="257.65625" y2="78.66666666666666" fill="rgb(0, 0, 0)" stroke="rgb(66, 66, 66)" stroke-width="1px" opacity="0.25"></line><line x1="0" y1="58.999999999999986" x2="257.65625" y2="58.999999999999986" fill="rgb(0, 0, 0)" stroke="rgb(66, 66, 66)" stroke-width="1px" opacity="0.25"></line><line x1="0" y1="39.333333333333314" x2="257.65625" y2="39.333333333333314" fill="rgb(0, 0, 0)" stroke="rgb(66, 66, 66)" stroke-width="1px" opacity="0.25"></line><line x1="0" y1="19.666666666666657" x2="257.65625" y2="19.666666666666657" fill="rgb(0, 0, 0)" stroke="rgb(66, 66, 66)" stroke-width="1px" opacity="0.25"></line><line x1="0" y1="0" x2="257.65625" y2="0" fill="rgb(0, 0, 0)" stroke="rgb(66, 66, 66)" stroke-width="1px" opacity="0.25"></line></g></g></g><g><g><line x1="0" y1="177" x2="257.65625" y2="177" fill="rgb(0, 0, 0)" stroke="rgb(153, 153, 153)" stroke-width="1.5px"></line></g></g><g><g><line x1="21.471354166666664" y1="0" x2="21.471354166666664" y2="177" fill="rgb(0, 0, 0)" stroke="rgb(153, 153, 153)" stroke-width="1.5px"></line></g></g><g><g><g><g><g><path stroke="rgb(255, 112, 67)" stroke-width="2px" d="M31.133463541666668,-51.451595553196825L32.20703125,25.813507741454185L33.280598958333336,70.23509431429287L34.354166666666664,95.24217633325704L35.427734375,116.7289499772243L36.501302083333336,120.82426978447832L37.57486979166667,133.4141092458103L38.6484375,135.9732622129382L39.722005208333336,137.64934390606953L40.795572916666664,137.0190674681737L41.869140625,145.028074576256L42.94270833333333,143.29376987585766L44.016276041666664,145.1105750628115L45.08984375,148.07816326288744L46.163411458333336,143.80889145770797L47.236979166666664,147.55577612354696L48.310546875,148.69236088260712L49.384114583333336,146.42494897119303L50.457682291666664,147.59449999112488L51.53125,148.83635392742934L52.604817708333336,149.1673692942011L53.67838541666667,149.20203916090242L54.751953125,149.89967908341302L55.825520833333336,150.66758230967702L56.899088541666664,151.7212556300059L57.97265625,153.16183583031452L59.04622395833333,151.65893294742975L60.119791666666664,153.5611270385114L61.193359375,149.57591389157537L62.266927083333336,152.2378390908975L63.340494791666664,146.36646594275405L64.4140625,148.0183903676519L65.48763020833333,153.75237249226632L66.56119791666667,158.24125904691942L67.634765625,138.50018047558632L68.70833333333333,146.9645310675004L69.78190104166666,152.19188024965138L70.85546875,153.8170009208366L71.92903645833333,152.46080874254608L73.00260416666667,153.02820489107023L74.076171875,152.47489177786926L75.14973958333334,152.19090467902058L76.22330729166667,152.29482673197737L77.296875,152.9838247197764L78.37044270833333,153.47601257959937L79.44401041666667,153.87241318978354L80.517578125,154.21263364473486L81.59114583333333,154.4794726117125L82.66471354166667,154.7531370894316L83.73828125,154.96933950925586L84.81184895833333,155.22283140301042L85.88541666666666,155.407765314729L86.958984375,155.65306810495815L88.03255208333333,155.82217221222356L89.10611979166667,156.0689392521453L90.1796875,156.23042602769368L91.25325520833334,156.48644576181073L92.32682291666667,156.64600664253493L93.400390625,156.91264986619626L94.47395833333333,157.0791956796017L95.54752604166667,157.3534137458364L96.62109375,157.53861969838104L97.69466145833333,157.8257697480071L98.76822916666667,158.0620618716418L99.841796875,158.431938331656L100.91536458333333,158.90821635783902L101.98893229166666,159.8666643065012L103.0625,161.9603670917032L104.13606770833333,164.81324989993092L105.20963541666667,164.29588903767845L106.283203125,157.45231499753683L107.35677083333334,158.3397547589801L108.43033854166667,160.77289713966223L109.50390625,156.43970131306276L110.57747395833333,161.95469896809686L111.65104166666667,163.545699951014L112.724609375,151.20592139927214L113.79817708333333,154.85002415867498L114.87174479166667,157.45703790288528L115.9453125,158.63684070782926L117.01888020833333,158.3273408062134L118.09244791666666,158.11792987367753L119.166015625,159.01749453538403L120.23958333333333,159.73169562319913L121.31315104166667,159.33695509841044L122.38671875,158.79935456252096L123.46028645833334,159.44100398879846L124.53385416666667,160.21017746241847L125.607421875,159.83855719738628L126.68098958333333,159.10794718773718L127.75455729166667,159.73011070858124L128.828125,160.69564099843214L129.90169270833334,160.30951813071664L130.97526041666666,159.29165850133518L132.048828125,159.95744548973184L133.12239583333334,161.24377983347372L134.19596354166669,160.86987322143193L135.26953125,159.428194986834L136.34309895833334,160.06054206302497L137.41666666666666,161.78027109271724L138.490234375,161.606877920887L139.56380208333331,159.70182365523448L140.63736979166666,159.93473697840423L141.7109375,162.04738856295546L142.78450520833334,162.4921657047682L143.85807291666666,160.462813721593L144.931640625,159.68771460120624L146.00520833333334,161.70714596004632L147.07877604166666,163.18326003699062L148.15234375,161.75455401145305L149.22591145833334,159.96338739799194L150.29947916666669,160.93860114517597L151.373046875,163.07256513732594L152.44661458333334,162.98026293685044L153.52018229166666,160.95182646092775L154.59375,160.56620339369974L155.66731770833331,162.4426410940386L156.74088541666666,163.62787231531075L157.814453125,162.16253736253378L158.88802083333334,160.78794691444912L159.96158854166666,161.91892772367981L161.03515625,163.78185280973298L162.10872395833334,163.28064240230867L163.18229166666666,161.25021530380596L164.255859375,161.57105158668708L165.32942708333334,163.7755282030495L166.40299479166669,164.21557935741745L167.4765625,161.7359462947927L168.55013020833334,161.24575026590568L169.62369791666666,163.71018617571383L170.697265625,165.07474149379973L171.77083333333331,162.3685140217921L172.84440104166666,160.85384297130986L173.91796875,163.4620642185717L174.99153645833334,165.8689725282719L176.06510416666666,163.57889505603742L177.138671875,160.35883051941593L178.21223958333334,162.6104323768256L179.28580729166666,166.27801373482944L180.359375,166.0718252442526L181.43294270833334,160.56761597674074L182.50651041666669,160.93736217362024L183.580078125,165.51397890456113L184.65364583333334,167.6294714474013L185.72721354166666,162.07413761508946L186.80078125,160.5134518446077L187.87434895833331,164.3689027873791L188.94791666666666,167.31301865715486L190.021484375,164.4311433937348L191.09505208333334,159.8793666845777L192.16861979166666,162.81479538559722L193.2421875,167.01635835112765L194.31575520833334,168.42359247753998L195.38932291666666,160.98718029205986L196.462890625,161.4358911479959L197.53645833333334,166.06008128198368L198.61002604166669,168.2173124917627L199.68359375,162.41743605444512L200.75716145833334,161.41687070854812L201.83072916666666,165.60175229166433L202.904296875,168.16831589488504L203.97786458333331,164.42202741403372L205.05143229166666,160.9726525954842L206.125,164.0964860427778L207.19856770833334,167.89371320756246L208.27213541666666,168.82378999107138L209.345703125,163.16987290881906L210.41927083333334,161.8669673625797L211.49283854166666,164.9835982433957L212.56640625,167.90449405613802L213.63997395833334,166.3340241299764L214.71354166666669,161.53847388930794L215.787109375,163.31934758081638L216.86067708333334,167.58841847690394L217.93424479166666,169.80173581236323L219.0078125,166.21405146884405L220.08138020833331,165.59683677586904L221.15494791666666,161.0407317338615L222.228515625,163.44485393010703L223.30208333333334,167.71604609195703L224.37565104166666,169.97768337863894L225.44921875,166.66707427243816L226.52278645833334,166.87458087275928L227.59635416666666,162.55914785886608L228.669921875,162.77710836267602L229.74348958333334,166.94185355947158L230.81705729166669,169.19791508808987L231.890625,166.1769456081803L232.96419270833334,163.6377805995871L234.03776041666666,163.8449115281187L235.111328125,167.59892004604993" style="fill: none;" fill="none"></path></g></g></g></g><g opacity="0.2"><g><g><g><path stroke="rgb(255, 112, 67)" stroke-width="2px" d="M26.839192708333336,-170.86672207216424L27.912760416666668,13.844896897673587L28.986328125,121.6937939307342L30.059895833333332,136.59005885136622L31.133463541666668,142.5076825680832L32.20703125,141.01037388325977L33.280598958333336,136.62573386107883L34.354166666666664,132.67114690008262L35.427734375,148.917015616782L36.501302083333336,126.96243560065825L37.57486979166667,152.28998910759887L38.6484375,139.81090871586153L39.722005208333336,140.1630408888062L40.795572916666664,136.07374882760146L41.869140625,157.04085318340609L42.94270833333333,140.69240793865174L44.016276041666664,147.83572306049365L45.08984375,152.5294869731491L46.163411458333336,137.40503432353339L47.236979166666664,153.1760764910529L48.310546875,150.39723317418247L49.384114583333336,143.0238369057576L50.457682291666664,149.34882472548634L51.53125,150.6991336879631L52.604817708333336,149.66389216141155L53.67838541666667,149.2540439494575L54.751953125,150.94613882837197L55.825520833333336,151.81943705740073L56.899088541666664,153.3017655350268L57.97265625,155.32270606886595L59.04622395833333,149.40457866185656L60.119791666666664,156.41441814570376L61.193359375,143.598094208166L62.266927083333336,156.23072687505433L63.340494791666664,137.55940624016026L64.4140625,150.4962770016864L65.48763020833333,162.35334567228952L66.56119791666667,164.9745888756588L67.634765625,108.88856262713671L68.70833333333333,159.6610569531719L69.78190104166666,160.03290402206284L70.85546875,156.2546819274624L71.92903645833333,150.4265204751864L73.00260416666667,153.87929911383736L74.076171875,151.644922108079L75.14973958333334,151.764924030751L76.22330729166667,152.4507098114118L77.296875,154.017321701472L78.37044270833333,154.2142943693325L79.44401041666667,154.4670141050592L80.517578125,154.72296432716152L81.59114583333333,154.87973106217882L82.66471354166667,155.1636338060101L83.73828125,155.29364313899228L84.81184895833333,155.6030692436422L85.88541666666666,155.6851661823069L86.958984375,156.02102229030183L88.03255208333333,156.0758283731217L89.10611979166667,156.4390898120279L90.1796875,156.47265619101623L91.25325520833334,156.87047536298633L92.32682291666667,156.88534796362123L93.400390625,157.3126147016883L94.47395833333333,157.3290143997098L95.54752604166667,157.7647408451885L96.62109375,157.81642862719795L97.69466145833333,158.25649482244626L98.76822916666667,158.4165000570938L99.841796875,158.98675302167734L100.91536458333333,159.62263339711353L101.98893229166666,161.30433622949448L103.0625,165.10092126950622L104.13606770833333,169.0925741122725L105.20963541666667,163.5198477442997L106.283203125,147.1869539373244L107.35677083333334,159.67091440114504L108.43033854166667,164.42261071068546L109.50390625,149.9399075731635L110.57747395833333,170.22719545064805L111.65104166666667,165.9322014253897L112.724609375,132.69625357165933L113.79817708333333,160.31617829777923L114.87174479166667,161.3675585192007L115.9453125,160.40654491524523L117.01888020833333,157.86309095378965L118.09244791666666,157.8038134748737L119.166015625,160.3668415279438L120.23958333333333,160.80299725492173L121.31315104166667,158.7448443112274L122.38671875,157.99295375868678L123.46028645833334,160.40347812821466L124.53385416666667,161.36393767284852L125.607421875,159.28112679983798L126.68098958333333,158.01203217326352L127.75455729166667,160.66335598984733L128.828125,162.1439364332085L129.90169270833334,159.7303338291434L130.97526041666666,157.76486905726293L132.048828125,160.95612597232684L133.12239583333334,163.1732813490865L134.19596354166669,160.30901330336928L135.26953125,157.26567763493708L136.34309895833334,161.0090626773114L137.41666666666666,164.35986463725567L138.490234375,161.34678816314164L139.56380208333331,156.84424225675565L140.63736979166666,160.2841069631589L141.7109375,165.21636593978232L142.78450520833334,163.1593314174873L143.85807291666666,157.41878574683022L144.931640625,158.52506592062613L146.00520833333334,164.73629299830645L147.07877604166666,165.39743115240708L148.15234375,159.61149497314665L149.22591145833334,157.27663747780025L150.29947916666669,162.40142176595205L151.373046875,166.27351112555093L152.44661458333334,162.84180963613713L153.52018229166666,157.90917174704373L154.59375,159.98776879285774L155.66731770833331,165.2572976445469L156.74088541666666,165.40571914721903L157.814453125,159.96453493336838L158.88802083333334,158.72606124232215L159.96158854166666,163.61539893752587L161.03515625,166.5762404388127L162.10872395833334,162.52882679117224L163.18229166666666,158.2045746560519L164.255859375,162.05230601100874L165.32942708333334,167.08224312759316L166.40299479166669,164.87565608896935L167.4765625,158.01649670085558L168.55013020833334,160.51045622257516L169.62369791666666,167.4068400404261L170.697265625,167.12157447092855L171.77083333333331,158.3091728137806L172.84440104166666,158.58183639558652L173.91796875,167.37439608946443L174.99153645833334,169.47933499282226L176.06510416666666,160.1437788476857L177.138671875,155.52873371448368L178.21223958333334,165.98783516294014L179.28580729166666,171.77938577183522L180.359375,165.76254250838733L181.43294270833334,152.31130207547295L182.50651041666669,161.49198146893954L183.580078125,172.3789040009724L184.65364583333334,170.80271026166156L185.72721354166666,153.74113686662167L186.80078125,158.17242318888506L187.87434895833331,170.15207920153625L188.94791666666666,171.72919246181846L190.021484375,160.10833049860474L191.09505208333334,153.051701620842L192.16861979166666,167.21793843712658L193.2421875,173.31870279942328L194.31575520833334,170.53444366715848L195.38932291666666,149.83256201383966L196.462890625,162.1089574319L197.53645833333334,172.99636648296533L198.61002604166669,171.4531593064312L199.68359375,153.71762139846882L200.75716145833334,159.9160226897026L201.83072916666666,171.87907466633868L202.904296875,172.01816129971604L203.97786458333331,158.8025946927567L205.05143229166666,155.79859036765993L206.125,168.78223621371825L207.19856770833334,173.58955395473944L208.27213541666666,170.2189051663348L209.345703125,154.68899728544056L210.41927083333334,159.9126090432207L211.49283854166666,169.65854456461966L212.56640625,172.28583777525154L213.63997395833334,163.97831924073398L214.71354166666669,154.34514852830517L215.787109375,165.99065811807912L216.86067708333334,173.99202482103524L217.93424479166666,173.12171181555217L219.0078125,160.83252495356524L220.08138020833331,164.6710147364065L221.15494791666666,154.20657417085022L222.228515625,167.0510372244753L223.30208333333334,174.12283433473203L224.37565104166666,173.37013930866183L225.44921875,161.70116061313698L226.52278645833334,167.18584077324098L227.59635416666666,156.08599833802631L228.669921875,163.10404911839092L229.74348958333334,173.18897135466491L230.81705729166669,172.58200738101732L231.890625,161.64549138831597L232.96419270833334,159.82903308669728L234.03776041666666,164.1556079209161L235.111328125,173.22993282294675" style="fill: none;" fill="none"></path></g></g></g></g></g></g><g transform="translate(72, 177)" clip-path="url(#clip_1)"><clipPath id="clip_1"><rect width="257" height="23"></rect></clipPath><g><g><line x1="0" y1="0" x2="0" y2="5" style="visibility: inherit;" fill="rgb(0, 0, 0)" stroke="rgb(204, 204, 204)" stroke-width="1px"></line><line x1="21.471354166666664" y1="0" x2="21.471354166666664" y2="5" style="visibility: inherit;" fill="rgb(0, 0, 0)" stroke="rgb(204, 204, 204)" stroke-width="1px"></line><line x1="42.94270833333333" y1="0" x2="42.94270833333333" y2="5" style="visibility: inherit;" fill="rgb(0, 0, 0)" stroke="rgb(204, 204, 204)" stroke-width="1px"></line><line x1="64.4140625" y1="0" x2="64.4140625" y2="5" style="visibility: inherit;" fill="rgb(0, 0, 0)" stroke="rgb(204, 204, 204)" stroke-width="1px"></line><line x1="85.88541666666666" y1="0" x2="85.88541666666666" y2="5" style="visibility: inherit;" fill="rgb(0, 0, 0)" stroke="rgb(204, 204, 204)" stroke-width="1px"></line><line x1="107.35677083333334" y1="0" x2="107.35677083333334" y2="5" style="visibility: inherit;" fill="rgb(0, 0, 0)" stroke="rgb(204, 204, 204)" stroke-width="1px"></line><line x1="128.828125" y1="0" x2="128.828125" y2="5" style="visibility: inherit;" fill="rgb(0, 0, 0)" stroke="rgb(204, 204, 204)" stroke-width="1px"></line><line x1="150.29947916666669" y1="0" x2="150.29947916666669" y2="5" style="visibility: inherit;" fill="rgb(0, 0, 0)" stroke="rgb(204, 204, 204)" stroke-width="1px"></line><line x1="171.77083333333331" y1="0" x2="171.77083333333331" y2="5" style="visibility: inherit;" fill="rgb(0, 0, 0)" stroke="rgb(204, 204, 204)" stroke-width="1px"></line><line x1="193.2421875" y1="0" x2="193.2421875" y2="5" style="visibility: inherit;" fill="rgb(0, 0, 0)" stroke="rgb(204, 204, 204)" stroke-width="1px"></line><line x1="214.71354166666669" y1="0" x2="214.71354166666669" y2="5" style="visibility: inherit;" fill="rgb(0, 0, 0)" stroke="rgb(204, 204, 204)" stroke-width="1px"></line><line x1="236.18489583333331" y1="0" x2="236.18489583333331" y2="5" style="visibility: inherit;" fill="rgb(0, 0, 0)" stroke="rgb(204, 204, 204)" stroke-width="1px"></line><line x1="257.65625" y1="0" x2="257.65625" y2="5" style="visibility: inherit;" fill="rgb(0, 0, 0)" stroke="rgb(204, 204, 204)" stroke-width="1px"></line></g><g transform="translate(0, 8)"><text x="0" y="0" dx="0em" dy="0.95em" style="text-anchor: middle; visibility: hidden; font-family: Roboto, sans-serif; font-size: 12px; font-weight: 200;" fill="rgb(33, 33, 33)" stroke="none" stroke-width="1px">-20</text><text x="21.471354166666664" y="0" dx="0em" dy="0.95em" style="text-anchor: middle; visibility: inherit; font-family: Roboto, sans-serif; font-size: 12px; font-weight: 200;" fill="rgb(33, 33, 33)" stroke="none" stroke-width="1px">0</text><text x="42.94270833333333" y="0" dx="0em" dy="0.95em" style="text-anchor: middle; visibility: hidden; font-family: Roboto, sans-serif; font-size: 12px; font-weight: 200;" fill="rgb(33, 33, 33)" stroke="none" stroke-width="1px">20</text><text x="64.4140625" y="0" dx="0em" dy="0.95em" style="text-anchor: middle; visibility: inherit; font-family: Roboto, sans-serif; font-size: 12px; font-weight: 200;" fill="rgb(33, 33, 33)" stroke="none" stroke-width="1px">40</text><text x="85.88541666666666" y="0" dx="0em" dy="0.95em" style="text-anchor: middle; visibility: hidden; font-family: Roboto, sans-serif; font-size: 12px; font-weight: 200;" fill="rgb(33, 33, 33)" stroke="none" stroke-width="1px">60</text><text x="107.35677083333334" y="0" dx="0em" dy="0.95em" style="text-anchor: middle; visibility: inherit; font-family: Roboto, sans-serif; font-size: 12px; font-weight: 200;" fill="rgb(33, 33, 33)" stroke="none" stroke-width="1px">80</text><text x="128.828125" y="0" dx="0em" dy="0.95em" style="text-anchor: middle; visibility: hidden; font-family: Roboto, sans-serif; font-size: 12px; font-weight: 200;" fill="rgb(33, 33, 33)" stroke="none" stroke-width="1px">100</text><text x="150.29947916666669" y="0" dx="0em" dy="0.95em" style="text-anchor: middle; visibility: inherit; font-family: Roboto, sans-serif; font-size: 12px; font-weight: 200;" fill="rgb(33, 33, 33)" stroke="none" stroke-width="1px">120</text><text x="171.77083333333331" y="0" dx="0em" dy="0.95em" style="text-anchor: middle; visibility: hidden; font-family: Roboto, sans-serif; font-size: 12px; font-weight: 200;" fill="rgb(33, 33, 33)" stroke="none" stroke-width="1px">140</text><text x="193.2421875" y="0" dx="0em" dy="0.95em" style="text-anchor: middle; visibility: inherit; font-family: Roboto, sans-serif; font-size: 12px; font-weight: 200;" fill="rgb(33, 33, 33)" stroke="none" stroke-width="1px">160</text><text x="214.71354166666669" y="0" dx="0em" dy="0.95em" style="text-anchor: middle; visibility: hidden; font-family: Roboto, sans-serif; font-size: 12px; font-weight: 200;" fill="rgb(33, 33, 33)" stroke="none" stroke-width="1px">180</text><text x="236.18489583333331" y="0" dx="0em" dy="0.95em" style="text-anchor: middle; visibility: inherit; font-family: Roboto, sans-serif; font-size: 12px; font-weight: 200;" fill="rgb(33, 33, 33)" stroke="none" stroke-width="1px">200</text><text x="257.65625" y="0" dx="0em" dy="0.95em" style="text-anchor: middle; visibility: hidden; font-family: Roboto, sans-serif; font-size: 12px; font-weight: 200;" fill="rgb(33, 33, 33)" stroke="none" stroke-width="1px">220</text></g><line x1="0" y1="0" x2="257.65625" y2="0" fill="rgb(0, 0, 0)" stroke="rgb(204, 204, 204)" stroke-width="1px"></line></g></g></g></g></svg>