<svg viewBox="0 0 330 200" xmlns="http://www.w3.org/2000/svg"><g><g><g><g><g><line x1="51.5625" y1="177" x2="46.5625" y2="177" style="visibility: inherit;" fill="rgb(0, 0, 0)" stroke="rgb(204, 204, 204)" stroke-width="1px"></line><line x1="51.5625" y1="154.87500000000003" x2="46.5625" y2="154.87500000000003" style="visibility: inherit;" fill="rgb(0, 0, 0)" stroke="rgb(204, 204, 204)" stroke-width="1px"></line><line x1="51.5625" y1="132.75000000000009" x2="46.5625" y2="132.75000000000009" style="visibility: inherit;" fill="rgb(0, 0, 0)" stroke="rgb(204, 204, 204)" stroke-width="1px"></line><line x1="51.5625" y1="110.62500000000016" x2="46.5625" y2="110.62500000000016" style="visibility: inherit;" fill="rgb(0, 0, 0)" stroke="rgb(204, 204, 204)" stroke-width="1px"></line><line x1="51.5625" y1="88.5000000000002" x2="46.5625" y2="88.5000000000002" style="visibility: inherit;" fill="rgb(0, 0, 0)" stroke="rgb(204, 204, 204)" stroke-width="1px"></line><line x1="51.5625" y1="66.37499999999984" x2="46.5625" y2="66.37499999999984" style="visibility: inherit;" fill="rgb(0, 0, 0)" stroke="rgb(204, 204, 204)" stroke-width="1px"></line><line x1="51.5625" y1="44.2499999999999" x2="46.5625" y2="44.2499999999999" style="visibility: inherit;" fill="rgb(0, 0, 0)" stroke="rgb(204, 204, 204)" stroke-width="1px"></line><line x1="51.5625" y1="22.12499999999994" x2="46.5625" y2="22.12499999999994" style="visibility: inherit;" fill="rgb(0, 0, 0)" stroke="rgb(204, 204, 204)" stroke-width="1px"></line><line x1="51.5625" y1="0" x2="46.5625" y2="0" style="visibility: inherit;" fill="rgb(0, 0, 0)" stroke="rgb(204, 204, 204)" stroke-width="1px"></line></g><g transform="translate(41.5625, 0)"><text x="0" y="177" dx="0em" dy="0.3em" style="text-anchor: end; visibility: hidden; font-family: Roboto, sans-serif; font-size: 12px; font-weight: 200;" fill="rgb(33, 33, 33)" stroke="none" stroke-width="1px">11.3</text><text x="0" y="154.87500000000003" dx="0em" dy="0.3em" style="text-anchor: end; visibility: inherit; font-family: Roboto, sans-serif; font-size: 12px; font-weight: 200;" fill="rgb(33, 33, 33)" stroke="none" stroke-width="1px">11.4</text><text x="0" y="132.75000000000009" dx="0em" dy="0.3em" style="text-anchor: end; visibility: hidden; font-family: Roboto, sans-serif; font-size: 12px; font-weight: 200;" fill="rgb(33, 33, 33)" stroke="none" stroke-width="1px">11.5</text><text x="0" y="110.62500000000016" dx="0em" dy="0.3em" style="text-anchor: end; visibility: inherit; font-family: Roboto, sans-serif; font-size: 12px; font-weight: 200;" fill="rgb(33, 33, 33)" stroke="none" stroke-width="1px">11.6</text><text x="0" y="88.5000000000002" dx="0em" dy="0.3em" style="text-anchor: end; visibility: hidden; font-family: Roboto, sans-serif; font-size: 12px; font-weight: 200;" fill="rgb(33, 33, 33)" stroke="none" stroke-width="1px">11.7</text><text x="0" y="66.37499999999984" dx="0em" dy="0.3em" style="text-anchor: end; visibility: inherit; font-family: Roboto, sans-serif; font-size: 12px; font-weight: 200;" fill="rgb(33, 33, 33)" stroke="none" stroke-width="1px">11.8</text><text x="0" y="44.2499999999999" dx="0em" dy="0.3em" style="text-anchor: end; visibility: hidden; font-family: Roboto, sans-serif; font-size: 12px; font-weight: 200;" fill="rgb(33, 33, 33)" stroke="none" stroke-width="1px">11.9</text><text x="0" y="22.12499999999994" dx="0em" dy="0.3em" style="text-anchor: end; visibility: inherit; font-family: Roboto, sans-serif; font-size: 12px; font-weight: 200;" fill="rgb(33, 33, 33)" stroke="none" stroke-width="1px">12</text><text x="0" y="0" dx="0em" dy="0.3em" style="text-anchor: end; visibility: hidden; font-family: Roboto, sans-serif; font-size: 12px; font-weight: 200;" fill="rgb(33, 33, 33)" stroke="none" stroke-width="1px">12.1</text></g><line x1="51.5625" y1="0" x2="51.5625" y2="177" fill="rgb(0, 0, 0)" stroke="rgb(204, 204, 204)" stroke-width="1px"></line></g></g><g transform="translate(51, 0)" clip-path="url(#clip_0)"><clipPath id="clip_0"><rect width="278" height="177"></rect></clipPath><g><g><g><line x1="0" y1="0" x2="0" y2="177" fill="rgb(0, 0, 0)" stroke="rgb(66, 66, 66)" stroke-width="1px" opacity="0.25"></line><line x1="27.84375" y1="0" x2="27.84375" y2="177" fill="rgb(0, 0, 0)" stroke="rgb(66, 66, 66)" stroke-width="1px" opacity="0.25"></line><line x1="55.6875" y1="0" x2="55.6875" y2="177" fill="rgb(0, 0, 0)" stroke="rgb(66, 66, 66)" stroke-width="1px" opacity="0.25"></line><line x1="83.53125" y1="0" x2="83.53125" y2="177" fill="rgb(0, 0, 0)" stroke="rgb(66, 66, 66)" stroke-width="1px" opacity="0.25"></line><line x1="111.375" y1="0" x2="111.375" y2="177" fill="rgb(0, 0, 0)" stroke="rgb(66, 66, 66)" stroke-width="1px" opacity="0.25"></line><line x1="139.21875" y1="0" x2="139.21875" y2="177" fill="rgb(0, 0, 0)" stroke="rgb(66, 66, 66)" stroke-width="1px" opacity="0.25"></line><line x1="167.0625" y1="0" x2="167.0625" y2="177" fill="rgb(0, 0, 0)" stroke="rgb(66, 66, 66)" stroke-width="1px" opacity="0.25"></line><line x1="194.90625" y1="0" x2="194.90625" y2="177" fill="rgb(0, 0, 0)" stroke="rgb(66, 66, 66)" stroke-width="1px" opacity="0.25"></line><line x1="222.75" y1="0" x2="222.75" y2="177" fill="rgb(0, 0, 0)" stroke="rgb(66, 66, 66)" stroke-width="1px" opacity="0.25"></line><line x1="250.59375" y1="0" x2="250.59375" y2="177" fill="rgb(0, 0, 0)" stroke="rgb(66, 66, 66)" stroke-width="1px" opacity="0.25"></line><line x1="278.4375" y1="0" x2="278.4375" y2="177" fill="rgb(0, 0, 0)" stroke="rgb(66, 66, 66)" stroke-width="1px" opacity="0.25"></line></g><g><line x1="0" y1="177" x2="278.4375" y2="177" fill="rgb(0, 0, 0)" stroke="rgb(66, 66, 66)" stroke-width="1px" opacity="0.25"></line><line x1="0" y1="154.87500000000003" x2="278.4375" y2="154.87500000000003" fill="rgb(0, 0, 0)" stroke="rgb(66, 66, 66)" stroke-width="1px" opacity="0.25"></line><line x1="0" y1="132.75000000000009" x2="278.4375" y2="132.75000000000009" fill="rgb(0, 0, 0)" stroke="rgb(66, 66, 66)" stroke-width="1px" opacity="0.25"></line><line x1="0" y1="110.62500000000016" x2="278.4375" y2="110.62500000000016" fill="rgb(0, 0, 0)" stroke="rgb(66, 66, 66)" stroke-width="1px" opacity="0.25"></line><line x1="0" y1="88.5000000000002" x2="278.4375" y2="88.5000000000002" fill="rgb(0, 0, 0)" stroke="rgb(66, 66, 66)" stroke-width="1px" opacity="0.25"></line><line x1="0" y1="66.37499999999984" x2="278.4375" y2="66.37499999999984" fill="rgb(0, 0, 0)" stroke="rgb(66, 66, 66)" stroke-width="1px" opacity="0.25"></line><line x1="0" y1="44.2499999999999" x2="278.4375" y2="44.2499999999999" fill="rgb(0, 0, 0)" stroke="rgb(66, 66, 66)" stroke-width="1px" opacity="0.25"></line><line x1="0" y1="22.12499999999994" x2="278.4375" y2="22.12499999999994" fill="rgb(0, 0, 0)" stroke="rgb(66, 66, 66)" stroke-width="1px" opacity="0.25"></line><line x1="0" y1="0" x2="278.4375" y2="0" fill="rgb(0, 0, 0)" stroke="rgb(66, 66, 66)" stroke-width="1px" opacity="0.25"></line></g></g></g><g><g><line x1="0" y1="2677.1250000000036" x2="278.4375" y2="2677.1250000000036" fill="rgb(0, 0, 0)" stroke="rgb(153, 153, 153)" stroke-width="1.5px"></line></g></g><g><g><line x1="27.84375" y1="0" x2="27.84375" y2="177" fill="rgb(0, 0, 0)" stroke="rgb(153, 153, 153)" stroke-width="1.5px"></line></g></g><g><g><g><g><g><path stroke="rgb(255, 112, 67)" stroke-width="2px" d="M30.349687499999998,-2.328382199489847L30.628125,35.3061883209259L30.9065625,-22.317707212411978L31.185000000000002,17.208005699186252L31.4634375,5.091410035173201L31.741875,32.3872550458533L32.0203125,19.00173136899617L32.29875,48.3350988673979L32.5771875,51.4262977314557L32.855624999999996,44.070338750534866L33.1340625,20.64116391856889L33.4125,-40.226001779920516L35.64,-19.708961108738663L35.9184375,21.39720913582099L36.196875,57.26579005142134L36.4753125,75.06218664792179L36.753750000000004,80.96103224876668L37.0321875,77.9252278514528L37.310625,69.06645838933257L37.589062500000004,85.56459158102666L37.8675,74.55104860070212L38.1459375,49.98096152005417L38.424375000000005,55.1187802659167L38.7028125,45.374923389445115L38.98125,59.87495995807767L39.2596875,56.868677336009604L39.538124999999994,31.750878063359536L39.816562499999996,-5.5936834116792316L40.095,16.7407043420632L40.373437499999994,46.677779273669955L40.651875,24.767017409268416L40.9303125,30.768512848191943L41.208749999999995,43.988329484148295L41.4871875,33.07534794445936L41.765625,56.835746982428L42.044062499999995,48.29954980533755L42.3225,28.227437345478233L42.6009375,33.03441200751184L42.879374999999996,17.191547930815446L43.1578125,21.64680036341033L43.43625,22.200072577207962L43.714687500000004,54.71086939014008L43.993125,70.59809908769884L44.2715625,76.29394246043229L44.550000000000004,52.48538618624979L44.8284375,67.52087391222065L45.106875,76.44831355097597L45.385312500000005,57.288973520295194L45.66375,52.375908106622916L45.9421875,28.801847201619804L46.220625000000005,51.64494422795448L46.4990625,38.20171310735975L46.7775,26.715288461644512L47.055937500000006,42.860293186544425L47.334375,43.132203076385636L47.612812500000004,24.9244688833373L47.89125,32.65876629856895L48.169687499999995,52.60059043710093L48.448125,55.159960394767566L48.7265625,36.96991060117952L49.004999999999995,37.99842137062576L49.2834375,41.81353493907475L49.561875,42.365731837620785L49.840312499999996,12.155579925936525L50.11875,-43.11553552069565L50.9540625,-26.798081599441883L51.2325,7.195310090322813L51.5109375,19.22576836010196L51.789375,44.85543553388322L52.0678125,52.77968740675573L52.34625,61.85282678731523L52.6246875,27.804854794313005L52.903125,35.66211571930019L53.1815625,43.121334830749724L53.46,58.773137736218246L53.7384375,63.09657965177107L54.016875,79.23240000053532L54.2953125,89.44164651658724L54.573750000000004,85.9849891306558L54.8521875,88.4856530929568L55.130625,86.90907421737704L55.409062500000005,73.40885376351932L55.6875,72.99209160457782L55.9659375,67.25306879789044L56.244375000000005,65.38279001301754L56.5228125,67.06279301873599L56.801249999999996,60.53875422615826L57.0796875,61.17392249190239L57.358124999999994,78.33774544765579L57.6365625,87.49275442343954L57.915,97.01958186854097L58.193437499999995,93.88767017977953L58.471875,81.79795855318008L58.7503125,95.15507680198269L59.028749999999995,80.60647963297801L59.3071875,62.91368493325954L59.585625,82.57378640703853L59.864062499999996,70.82067870457483L60.1425,75.99131011581116L60.4209375,75.23204326400567L60.699374999999996,73.64206037383927L60.9778125,68.21553646005171L61.25625,71.40214082286926L61.534687500000004,65.8760846417318L61.813125,72.72442664868663L62.0915625,78.11369813780207L62.370000000000005,83.59745415032043L62.6484375,60.97567181575384L62.926875,29.21647427551794L63.205312500000005,41.664587820010475L63.48375,53.6622006442768L63.7621875,65.79210188070687L64.040625,73.74169923114663L64.3190625,48.264713008689085L64.5975,65.36447279422697L64.8759375,83.31023078423269L65.154375,95.53477023399819L65.4328125,86.2453598401364L65.71124999999999,72.28157640823247L65.9896875,81.71216569738733L66.268125,91.96425210474207L66.5465625,99.35863415621692L66.825,103.29831514491418L67.1034375,57.2531362160074L67.381875,3.1675861706748365L67.6603125,10.826596261883807L67.93875,42.53361797441538L68.2171875,63.83123416965924L68.495625,75.62274381676741L68.7740625,76.65147412514338L69.0525,80.22381570753875L69.3309375,78.55191065560251L69.609375,85.34979158455417L69.8878125,70.89457887300422L70.16625,62.10776420765262L70.4446875,59.251714875299655L70.723125,33.840203577279446L71.0015625,40.242617400884114L71.28,55.185811777353145L71.5584375,76.74524761404969L71.836875,86.28236718873045L72.1153125,86.4225800269834L72.39375,66.5568690916298L72.6721875,80.90319961431001L72.950625,72.17748037649609L73.2290625,63.152565286597266L73.50750000000001,80.58710735204268L73.7859375,91.2356229851389L74.064375,102.40819679675957L74.34281250000001,101.3135023294595L74.62125,99.99161225430406L74.8996875,108.65188883466858L75.17812500000001,96.37679614259801L75.4565625,75.29080375214801L75.735,90.18219328034125L76.01343750000001,95.53255147998439L76.291875,103.44242145577022L76.5703125,65.8759183046754L76.84875000000001,80.98558497175789L77.1271875,99.03190140572322L77.405625,90.19132721809825L77.68406250000001,99.00991752379117L77.9625,87.20480305333722L78.2409375,93.19709419238427L78.519375,101.73063883202026L78.79781249999999,110.14760532985177L79.07624999999999,82.5658071935778L79.3546875,91.28462210301193L79.63312499999999,102.47135633828424L79.91156249999999,83.82401329637891L80.19,82.15662263847204L80.4684375,103.44171738038551L80.74687499999999,81.62009567862788L81.0253125,84.44567124155793L81.30375,88.80038175647066L81.58218749999999,105.37890535393133L81.860625,104.12122081398228L82.1390625,94.1600699822857L82.41749999999999,84.33447821144753L82.6959375,84.33455991270846L82.974375,95.93802966787021L83.25281249999999,96.42096313305825L83.53125,83.38722687046608L83.8096875,74.77564905334052L84.08812499999999,94.15674704461428L84.3665625,78.47080775588233L84.645,95.90525248342429L84.92343749999999,99.00959989245945L85.201875,106.19068549165848L85.4803125,103.05524123960588L85.75874999999999,116.40854423793486L86.0371875,110.45052433939149L86.315625,102.35734892446612L86.59406249999999,48.52545576428663L86.8725,73.48804195603937L87.1509375,62.17974934507121L87.42937500000001,66.4241889091059L87.7078125,88.30018118451402L87.98625,91.00775630134555L88.26468750000001,106.38033060346972L88.543125,105.64541390010652L88.8215625,112.24715224783992L89.10000000000001,104.49395708967076L89.3784375,112.03347676234718L89.656875,94.61187654279045L89.93531250000001,94.7288569780729L90.21375,113.0899983985749L90.4921875,122.57667684218453L90.77062500000001,114.60218524730904L91.0490625,93.3713561999602L91.3275,95.22083856509934L91.60593750000001,93.23337908891925L91.884375,95.36289437000822L92.1628125,109.32704734435613L92.44125000000001,93.81885423440275L92.7196875,61.8150171648178L92.998125,63.06794182126007L93.27656250000001,85.62802715101414L93.555,94.57903873323538L93.8334375,97.17136065601798L94.11187500000001,105.29376278185545L94.39031250000001,122.21473852314782L94.66875,118.17568740557573L94.94718750000001,112.76736007518117L95.22562500000001,122.17335940829835L95.5040625,106.1445971574302L95.7825,111.02568661248176L96.0609375,118.82296449587044L96.33937499999999,130.56106843140904L96.6178125,128.7920459126664L96.89625,107.00422773451987L97.17468749999999,121.2792197805133L97.453125,105.58557853349933L97.7315625,106.87040782719207L98.00999999999999,121.24880834072431L98.2884375,121.44266736298565L98.566875,128.70168535584074L98.84531249999999,132.241706041538L99.12375,123.45454797032055L99.4021875,132.25041223098418L99.68062499999999,115.64667849856352L99.9590625,130.08402302931387L100.2375,99.42118007582796L100.51593749999999,94.54894026900762L100.794375,103.04105792513728L101.0728125,111.32074719709894L101.35125,125.61427391792972L101.6296875,129.40616591707266L101.908125,142.166588306042L102.1865625,136.34126386619357L102.465,117.88233982072317L102.7434375,118.37411405173569L103.021875,111.1621204467274L103.3003125,125.93865114758344L103.57875,134.52773698753083L103.8571875,124.49076023451046L104.135625,132.31062521190415L104.4140625,129.09500721485006L104.6925,116.96925103301146L104.9709375,124.81442663451654L105.249375,113.63286107409343L105.5278125,114.23669067399726L105.80625,101.03258838282213L106.0846875,94.52425197378507L106.363125,92.69566328296507L106.6415625,107.57335357051778L106.92,94.92863290418192L107.1984375,103.35690289085514L107.476875,111.28237369862453L107.7553125,127.9826444340185L108.03375,117.51449510767684L108.31218750000001,118.83882106134051L108.590625,114.20884845726927L108.8690625,131.58292635722904L109.14750000000001,141.32499766614427L109.4259375,147.2397861973428L109.704375,140.19356749629856L109.98281250000001,137.97101568088462L110.26125,127.6657457763288L110.5396875,131.74978096570547L110.81812500000001,138.181864829576L111.0965625,131.37225757343558L111.375,136.71002618255L111.65343750000001,136.04715924132967L111.931875,139.30953715246403L112.2103125,142.55094379187503L112.48875000000001,132.25902811289353L112.7671875,124.7834407782586L113.045625,131.12401468134127L113.3240625,133.93842934713504L113.60249999999999,140.43771943536817L113.88093749999999,140.81240449599895L114.159375,137.5149429455548L114.43781249999999,123.7039832004994L114.71624999999999,123.3630088167838L114.9946875,117.16440801605314L115.273125,129.51867044439757L115.55156249999999,137.438472965186L115.83,142.94143165279948L116.1084375,119.00693214612924L116.38687499999999,116.99591954158359L116.6653125,118.55780658487465L116.94375,127.28524394848343L117.22218749999999,128.04478337775723L117.500625,133.15441719538623L117.7790625,129.20316677002108L118.05749999999999,134.32402942602621L118.3359375,129.3726221920539L118.614375,130.93372975596694L118.89281249999999,127.12634474521211L119.17125,129.85562185338333L119.4496875,124.3664371722412L119.72812499999999,134.68102010211163L120.0065625,141.38579254222438L120.285,148.1321653179678L120.56343749999999,152.46289837672433L120.841875,156.20352580734578L121.1203125,155.08404881112838L121.39874999999999,157.28661064119996L121.6771875,137.88157427198774L121.955625,134.90560662679115L122.23406250000001,131.82076971490537L122.5125,130.32974992251016L122.7909375,142.28472739491218L123.06937500000001,148.4222925068933L123.3478125,148.88918483030784L123.62625,152.4919863925693L123.90468750000001,138.90172469534386L124.183125,143.13540365647012L124.4615625,150.02078534573758L124.74000000000001,146.68394909745732L125.0184375,152.46126486329004L125.296875,149.1665249435173L125.57531250000001,125.14705556440742L125.85375,93.19431635027141L126.1321875,91.31525628736654L126.41062500000001,115.54433422667405L126.6890625,120.3437729679505L126.9675,126.82766137140754L127.24593750000001,133.0024540043938L127.524375,121.87155087095921L127.8028125,103.53219613613138L128.08125,121.65145517099755L128.3596875,128.85489449923577L128.638125,135.6045603872855L128.9165625,138.19254885444164L129.195,119.13144270377829L129.47343750000002,127.14741620896729L129.751875,133.81718021320407L130.0303125,-4.855324997383031L132.53625,-36.854222542084464L132.8146875,23.942921301104334L133.093125,14.159276187644986L133.37156249999998,67.84565202011268L133.65,90.71437792547674L133.9284375,27.52477057318791L134.206875,29.94855155671188L134.4853125,-5.49989124462275L134.76375,18.407588217703957L135.04218749999998,47.966389402180006L135.320625,74.83351606394605L135.5990625,64.93735309997659L135.8775,92.58408935403499L136.1559375,110.48269705495629L136.434375,120.18812830758928L136.71281249999998,116.72762078948524L136.99125,129.26984893624643L137.2696875,129.1692078312917L137.548125,129.40506778959536L137.8265625,127.13324510338362L138.105,135.17925202418866L138.38343749999999,130.96945402365614L138.661875,138.00771888102128L138.9403125,132.7413126945796L139.21875,130.459315223712L139.4971875,117.35199332429069L139.775625,104.72523579712546L140.05406250000001,122.54958334991831L140.3325,131.906871076998L140.6109375,133.41331829820712L140.889375,136.52315405723257L141.1678125,141.5820830089856L141.44625,110.11464802163924L141.72468750000002,131.15580835186285L142.003125,123.62599548246172L142.2815625,131.61477918950166L142.56,140.06772548870708L142.8384375,107.4191129619863L143.116875,113.2528823623051L143.39531250000002,114.53941175991223L143.67375,101.74754575284685L143.9521875,118.95764953727928L144.230625,127.93111457130536L144.5090625,102.10873454631121L144.7875,116.61813465249983L145.06593750000002,128.71303262408048L145.344375,130.38192008790637L145.6228125,137.88080019269756L145.90125,146.46872603007782L146.1796875,136.84191333716302L146.458125,137.81142546811807L146.73656250000002,143.90049749659966L147.01500000000001,144.70315593509386L147.2934375,140.05153223293152L147.571875,122.442250135047L147.8503125,136.4565444245953L148.12875,129.06194745630108L148.40718750000002,95.69559380489629L148.68562500000002,92.73972500013123L148.9640625,85.5440831461358L149.2425,86.6383529829267L149.5209375,101.1386539177467L149.799375,114.7034918806776L150.07781250000002,114.82690984856023L150.35625000000002,106.38312596589893L150.6346875,108.53931638306732L150.913125,123.38027184430575L151.1915625,128.33145643010033L151.47,133.6956718011754L151.74843750000002,143.85839438701L152.02687500000002,149.62281603970726L152.3053125,146.133055659286L152.58375,137.08648164996583L152.8621875,129.9027603622026L153.140625,134.8584010217039L153.41906250000002,138.43187067588894L153.69750000000002,126.63456243086289L153.97593750000001,137.87743030672334L154.254375,64.8185636680425L154.5328125,89.17487309462445L154.81125,97.56498969844972L155.08968750000003,111.27413185389052L155.36812500000002,121.40976195306311L155.64656250000002,135.2415238664791L155.925,143.25446441449193L156.2034375,149.0422835986463L156.481875,151.550618686715L156.7603125,148.5251870384449L157.03875,142.3584237236163L157.3171875,143.71832514634025L157.59562499999998,140.54542923468537L157.87406249999998,135.24340296088565L158.15249999999997,67.04256963908033L158.4309375,89.46347408401601L158.709375,90.7599436575631L158.9878125,106.14251643028611L159.26624999999999,122.95161798958064L159.54468749999998,134.05587346174778L159.82312499999998,140.24283174764207L160.1015625,140.25709736401498L160.38,140.59583022627044L160.6584375,98.54361492653372L160.936875,30.247264231799072L161.21531249999998,67.5324719462145L161.49374999999998,77.92408865173758L161.7721875,92.88451777386712L162.050625,103.85312582545312L162.3290625,85.32971120770489L162.6075,94.70186420020904L162.88593749999998,113.50922324500944L163.16437499999998,122.38114401246582L163.4428125,99.79408634034067L163.72125,91.64050905899535L163.9996875,93.13804689047566L164.278125,87.27122020124114L164.55656249999998,76.64446048378178L164.83499999999998,96.1544453408674L165.1134375,105.24563437142119L165.391875,104.43287504576541L165.6703125,106.56626694716721L165.94875,124.13140064071231L166.22718749999999,129.31191361898556L166.50562499999998,126.22491081329808L166.7840625,134.5647901044645L167.0625,135.38955851473577L167.3409375,134.92943155812145L167.619375,122.18804004220337L167.8978125,116.97452103154772L168.17624999999998,120.53681165609923L168.4546875,117.90658883234357L168.733125,122.02605788696118L169.0115625,120.46957207195953L169.29,127.52196293159096L169.5684375,130.84542034318298L169.84687499999998,131.72845086008465L170.1253125,132.52311692565792L170.40375,134.94643784719761L170.6821875,137.4599058220268L170.960625,137.5914197200229L171.2390625,138.3570922990855L171.51749999999998,136.7955336082111L171.7959375,133.72715632367928L172.074375,132.9731198325683L172.3528125,130.50446210950196L172.63125,122.73764869361867L172.9096875,123.39325259202573L173.18812499999999,130.26593211933292L173.4665625,134.85770761754696L173.745,135.8907561051048L174.0234375,129.38560665531136L174.301875,122.31599114467618L174.5803125,122.78510211783617L174.85875000000001,136.22118028925613L175.1371875,143.77507572726452L175.415625,146.60396421763912L175.6940625,148.01239550598626L175.9725,151.31949184231854L176.2509375,151.19585522349436L176.52937500000002,139.98490109643765L176.8078125,127.75974148870358L177.08625,110.3438885829502L177.3646875,129.37493666539532L177.643125,139.33327365237432L177.9215625,145.13390507887564L178.20000000000002,151.49435557479157L178.4784375,152.15507205459178L178.756875,150.75082416613523L179.0353125,149.37005550431988L179.31375,142.9409673617352L179.5921875,129.8129146341126L179.87062500000002,123.3719832088731L180.1490625,131.99392414010663L180.4275,126.35390682171055L180.7059375,134.7835580059902L180.984375,120.73871905499793L181.2628125,109.49985498722837L181.54125000000002,126.47872549615175L181.81968750000001,138.0120618243331L182.098125,142.7458458363602L182.3765625,149.5305585157626L182.655,134.57361941884471L182.9334375,136.29017318100048L183.21187500000002,142.8058637428899L183.49031250000002,145.7257704048528L183.76875,139.71213851625782L184.0471875,138.94630414399563L184.325625,144.08177565427462L184.6040625,134.99592904384028L184.88250000000002,144.5057872541851L185.16093750000002,141.08745224524196L185.439375,144.8213237717671L185.7178125,146.02512811392077L185.99625,149.51041931372603L186.2746875,138.9775219587189L186.55312500000002,141.59390548632743L186.83156250000002,145.4979068980584L187.11,144.2205529538376L187.3884375,146.79824440047636L187.666875,148.4654671213954L187.9453125,142.39585112702432L188.22375000000002,143.50471429331034L188.50218750000002,127.54826133431743L188.78062500000001,120.23690510381299L189.0590625,116.29639950149681L189.3375,109.48758281918425L189.6159375,126.67729862720981L189.89437500000003,138.43107953185583L190.17281250000002,145.12599772521682L190.45125000000002,152.39311505740196L190.7296875,152.27342406144942L191.008125,142.7127507640791L191.2865625,141.92000275336946L191.565,142.5005377619458L191.8434375,149.43030016952721L192.121875,153.82861371835432L192.40031249999998,150.55401904583167L192.67874999999998,155.00975250721095L192.95718749999997,150.9892457456598L193.235625,156.34488077945787L193.5140625,150.9216760873035L193.7925,154.66393714423387L194.07093749999999,144.09709370896476L194.34937499999998,152.15194423654864L194.62781249999998,134.10059056078893L194.90625,139.66687594291872L195.1846875,146.00926786921792L195.463125,154.93813136972432L195.7415625,156.84533903454226L196.01999999999998,149.99485686692282L196.29843749999998,150.05047590299066L196.576875,154.6596873209693L196.8553125,138.2182658914222L197.13375,138.9073175670801L197.4121875,142.85584998620132L197.69062499999998,139.7471447497165L197.96906249999998,140.9854849165414L198.2475,144.006196593388L198.5259375,131.4517722696925L198.804375,137.6387040478506L199.0828125,144.91795219555613L199.36124999999998,147.06138761982413L199.63968749999998,148.42864184466072L199.918125,145.41114953092978L200.1965625,143.91259719689026L200.475,142.8634022817574L200.7534375,145.99256281528253L201.03187499999999,135.5628253249727L201.31031249999998,145.90438764264601L201.58875,145.9475213108684L201.8671875,146.19503637660884L202.145625,143.5888924390635L202.4240625,151.48022030535694L202.7025,142.20433444227785L202.98093749999998,127.51877299813047L203.259375,130.35854296605348L203.5378125,132.35366995764116L203.81625,129.96264142771005L204.0946875,141.222992533323L204.373125,137.69943043820672L204.65156249999998,144.12102068205252L204.93,139.55961478197318L205.2084375,140.69741456773156L205.486875,151.58340063730645L205.7653125,154.8809462966904L206.04375,150.00685452117835L206.32218749999998,144.62036189254684L206.600625,145.46457286367772L206.8790625,152.69357354456133L207.1575,158.25190691360194L207.4359375,160.73412754659887L207.714375,153.12967845514441L207.99281249999999,150.61590769717148L208.27125,144.09419032829456L208.5496875,138.83075707493705L208.828125,113.95442157589478L209.1065625,96.11183455945883L209.385,119.71942751027252L209.66343750000001,126.82931008587553L209.941875,132.0722560802119L210.2203125,140.1269067716013L210.49875,150.4666399354584L210.7771875,155.32598501413153L211.055625,154.77274478655497L211.33406250000002,146.427172644028L211.6125,150.63337468092993L211.8909375,157.6400957047067L212.169375,159.66052693957806L212.4478125,161.8269296815082L212.72625,162.42422425330187L213.00468750000002,160.97458040464224L213.283125,163.4703355535765L213.5615625,160.4777836266099L213.84,156.59241968768467L214.1184375,148.99547428117765L214.396875,152.75258127585997L214.67531250000002,154.16048049769367L214.95375,150.08882532025345L215.2321875,145.35580221119508L215.510625,120.38060712398863L215.7890625,119.31071605433088L216.0675,131.67307628482018L216.34593750000002,133.4779650526611L216.62437500000001,139.02085686667957L216.9028125,137.93862391080992L217.18125,131.46972313264934L217.4596875,123.94558662617196L217.738125,129.5235090878248L218.01656250000002,139.65468639294144L218.29500000000002,145.92641598081488L218.5734375,146.90939630327154L218.851875,150.64477909360832L219.1303125,155.07340815517017L219.40875,154.8450279405878L219.68718750000002,153.44807396955278L219.96562500000002,148.9251586593807L220.2440625,155.62337961182743L220.5225,157.2439123534307L220.8009375,157.5530998076881L221.079375,147.0830899337459L221.35781250000002,143.7956022894101L221.63625000000002,143.70979125951044L221.9146875,148.9463133314508L222.193125,127.25187088842767L222.4715625,120.3082201587889L222.75,134.0051583831152L223.02843750000002,141.72789227870933L223.30687500000002,147.90031664316567L223.58531250000001,147.98519807305775L223.86375,149.5343988731314L224.1421875,152.45711393325388L224.420625,155.28397562008436L224.69906250000003,159.43748818577123L224.97750000000002,160.80859257424356L225.25593750000002,162.18593317058395L225.534375,155.18793471924477L225.8128125,153.8421992318156L226.09125,157.63228878118554L226.3696875,159.31646967374053L226.648125,157.19244003559805L226.9265625,130.1932703034024L227.20499999999998,144.11686683749787L227.48343749999998,150.88328862819466L227.76187499999997,154.42754102130795L228.0403125,155.52643590199975L228.31875,158.67253964560064L228.5971875,148.5105574215462L228.87562499999999,138.90502152949637L229.15406249999998,143.29293128317647L229.43249999999998,139.9374845770958L229.7109375,132.68558196711328L229.989375,125.37528579525815L230.2678125,115.91378784830978L230.54625,115.94689865503067L230.82468749999998,117.79090616460626L231.10312499999998,123.21049731585973L231.3815625,129.17158208855122L231.66,133.08583366017422L231.9384375,140.88022162402208L232.216875,139.63213077714752L232.49531249999998,143.52748040873257L232.77374999999998,149.47051894973802L233.0521875,145.43931334204126L233.330625,130.51510015122113L233.6090625,142.84199246759414L233.8875,144.9307071268276L234.16593749999998,145.6232655465437L234.44437499999998,125.30741632102956L234.7228125,123.77452633451826L235.00125,133.31205867333063L235.2796875,140.38514970900349L235.558125,143.13680920101217L235.83656249999999,148.3678072041097L236.11499999999998,156.30751007472404L236.3934375,136.70719510123092L236.671875,132.44866264942235L236.9503125,132.94680398156035L237.22875,137.69509731203195L237.5071875,143.56981965583512L237.78562499999998,150.0971049587843L238.0640625,135.12648893123392L238.3425,141.7199187798833L238.6209375,134.01356023094303L238.899375,139.7350123974158L239.1778125,139.01218778207746L239.45624999999998,141.46936787554552L239.7346875,149.48874085777365L240.013125,155.25206104298454L240.2915625,132.46362371075185L240.57,140.85344278113882L240.8484375,138.75433766422785L241.12687499999998,137.59227239834144L241.4053125,128.38496339170285L241.68375,135.22199671177958L241.9621875,142.71212420886096L242.240625,130.5016332747063L242.5190625,138.6556815792036L242.79749999999999,126.01448019080844L243.0759375,132.0749891742077L243.354375,143.072593602181L243.6328125,149.90114674129498L243.91125,145.48365116809842L244.1896875,147.41920624193577L244.46812500000001,152.9014063478533L244.7465625,152.98984969860462L245.025,156.0952481103311L245.3034375,139.89997208549804L245.581875,146.29969547053713L245.8603125,148.2023766390118L246.13875000000002,135.41432692716344L246.4171875,135.76786953276303L246.695625,149.75005277434514L246.9740625,154.86573305391994L247.2525,154.84947075047327L247.5309375,154.26849297045598L247.80937500000002,138.59578816508628L248.0878125,142.41142740497207L248.36625,152.22036031871556L248.6446875,149.69473602765524L248.923125,155.29784118171747L249.2015625,150.7935233773957L249.48000000000002,155.27938017023612L249.7584375,154.02923717959519L250.036875,144.71109861650342L250.3153125,138.0047827393906" style="fill: none;" fill="none"></path></g></g></g></g><g opacity="0.2"><g><g><g><path stroke="rgb(255, 112, 67)" stroke-width="2px" d="M30.07125,-39.878324031829955L30.349687499999998,91.44835138320927L30.628125,91.41670131683354L30.9065625,-108.43996381759668L31.185000000000002,76.36751675605775L31.4634375,-13.059745788574297L31.741875,73.29893732070924L32.0203125,-1.067113637924273L32.29875,92.3227372169495L32.5771875,56.06231117248535L32.855624999999996,33.03752088546749L33.1340625,-14.500456809997637L33.4125,-131.52341222763084L33.6909375,10.001758575439395L33.969375,-19.062708377838252L34.8046875,-80.19164657592793L35.083125,99.6853866577149L35.3615625,-9.773202896118242L35.64,-28.781810760498164L35.9184375,83.05644178390507L36.196875,111.06864953041085L36.4753125,101.75677800178534L36.753750000000004,89.80929994583134L37.0321875,73.37152147293092L37.310625,55.77830457687378L37.589062500000004,110.31179094314584L37.8675,58.0307343006134L38.1459375,13.12583112716669L38.424375000000005,62.82550835609436L38.7028125,30.759138107299766L38.98125,81.62501478195195L39.2596875,52.35925340652466L39.538124999999994,-5.925820827484209L39.816562499999996,-61.6105256080629L40.095,50.24228596687315L40.373437499999994,91.5833916664124L40.651875,-8.099125385284502L40.9303125,39.77075600624082L41.208749999999995,63.81805443763733L41.4871875,16.705875635147034L41.765625,92.47634553909306L42.044062499999995,35.49525403976436L42.3225,-1.880731344223101L42.6009375,40.244874000549295L42.879374999999996,-6.57274818420418L43.1578125,28.329679012298545L43.43625,23.029980897903403L43.714687500000004,103.47706460952764L43.993125,94.42894363403325L44.2715625,84.83770751953129L44.550000000000004,16.772551774978577L44.8284375,90.07410550117497L45.106875,89.83947300910954L45.385312500000005,28.549963474273643L45.66375,45.00630998611448L45.9421875,-6.559244155883867L46.220625000000005,85.9095897674561L46.4990625,18.036866426467835L46.7775,9.485651493072451L47.055937500000006,67.07780027389528L47.334375,43.54006791114805L47.612812500000004,-2.38713240623482L47.89125,44.260212421417215L48.169687499999995,82.5133266448975L48.448125,58.99901533126831L48.7265625,9.68483591079706L49.004999999999995,39.54118752479551L49.2834375,47.536205291748026L49.561875,43.19402718544004L49.840312499999996,-33.159647941589476L50.11875,-126.02220869064355L50.3971875,3.7521364688872505L50.675625,6.9705262184142285L50.9540625,-49.24589967727677L51.2325,58.18539762496948L51.5109375,37.27145576477049L51.789375,83.2999362945557L52.0678125,64.66606521606445L52.34625,75.46253585815431L52.6246875,-23.267103195190547L52.903125,47.448007106780985L53.1815625,54.310163497924805L53.46,82.25084209442143L53.7384375,69.58174252510072L54.016875,103.4361305236817L54.2953125,104.75551629066473L54.573750000000004,80.80000305175783L54.8521875,92.23664903640751L55.130625,84.544205904007L55.409062500000005,53.158523082733154L55.6875,72.36694836616518L55.9659375,58.64453458786011L56.244375000000005,62.57737183570862L56.5228125,69.58279752731325L56.801249999999996,50.75269603729246L57.0796875,62.12667489051819L57.358124999999994,104.08347988128668L57.6365625,101.22526788711554L57.915,111.30982303619393L58.193437499999995,89.189802646637L58.471875,63.66339111328125L58.7503125,115.19075417518624L59.028749999999995,58.783583879470825L59.3071875,36.37449288368221L59.585625,112.06393861770638L59.864062499999996,53.191017150878906L60.1425,83.74725723266606L60.4209375,74.09314298629762L60.699374999999996,71.25708603858949L60.9778125,60.07575058937073L61.25625,76.18204736709596L61.534687500000004,57.587000370025635L61.813125,82.9969396591187L62.0915625,86.19760537147526L62.370000000000005,91.82308816909794L62.6484375,27.04299831390377L62.926875,-18.422322034835933L63.205312500000005,60.33675813674927L63.48375,71.65861988067628L63.7621875,83.9869537353516L64.040625,85.66609525680546L64.3190625,10.049233675002993L64.5975,91.01411247253422L64.8759375,110.22886776924142L65.154375,113.87157940864572L65.4328125,72.31124424934389L65.71124999999999,51.335901260375955L65.9896875,95.85804963111882L66.268125,107.34238171577462L66.5465625,110.45020723342904L66.825,109.20783662796029L67.1034375,-11.814632177352983L67.381875,-77.96073889732381L67.6603125,22.31511139869686L67.93875,90.09415054321293L68.2171875,95.77765846252446L68.495625,93.31000828742985L68.7740625,78.19456958770753L69.0525,85.58232808113102L69.3309375,76.04405307769777L69.609375,95.54661297798161L69.8878125,49.2117598056793L70.16625,48.92754220962522L70.4446875,54.96764087677002L70.723125,-4.277063369751055L71.0015625,49.84623813629148L71.28,77.60060334205629L71.5584375,109.08440136909493L71.836875,100.58804655075079L72.1153125,86.63289928436284L72.39375,36.75830268859859L72.6721875,102.42269539833075L72.950625,59.08890151977539L73.2290625,49.615192651748636L73.50750000000001,106.73892045021063L73.7859375,107.20839643478402L74.064375,119.16705751419076L74.34281250000001,99.67146062850958L74.62125,98.00877714157109L74.8996875,121.64230370521554L75.17812500000001,77.9641571044922L75.4565625,43.66181516647337L75.735,112.51927757263192L76.01343750000001,103.55808877944952L76.291875,115.30722641944894L76.5703125,9.526163578033389L76.84875000000001,103.65008497238165L77.1271875,126.10137605667123L77.405625,76.93046593666078L77.68406250000001,112.23780298233041L77.9625,69.49713134765626L78.2409375,102.18553090095526L78.519375,114.53095579147347L78.79781249999999,122.7730550765992L79.07624999999999,41.19310998916624L79.3546875,104.36284446716314L79.63312499999999,119.25145769119271L79.91156249999999,55.85299873352051L80.19,79.65553665161134L80.4684375,135.3693594932557L80.74687499999999,48.8876631259918L81.0253125,88.6840345859528L81.30375,95.33244752883915L81.58218749999999,130.24669075012216L81.860625,102.2346940040589L82.1390625,79.21834373474123L82.41749999999999,69.59609055519105L82.6959375,84.33468246459965L82.974375,113.34323430061349L83.25281249999999,97.1453633308411L83.53125,63.83662247657776L83.8096875,61.85828232765198L84.08812499999999,123.22839403152474L84.3665625,54.941898822784424L84.645,122.05691957473763L84.92343749999999,103.66612100601202L85.201875,116.96231389045724L85.4803125,98.35207486152653L85.75874999999999,136.43849873542794L86.0371875,101.5134944915772L86.315625,90.21758580207829L86.59406249999999,-32.22238397598279L86.8725,110.93192124366769L87.1509375,45.21731042861936L87.42937500000001,72.79084825515748L87.7078125,121.11416959762582L87.98625,95.06911897659306L88.26468750000001,129.43919205665597L88.543125,104.54303884506231L88.8215625,122.14975976943978L89.10000000000001,92.86416435241703L89.3784375,123.34275627136239L89.656875,68.47947621345521L89.93531250000001,94.90432763099675L90.21375,140.6317105293275L90.4921875,136.80669450759896L90.77062500000001,102.64044785499578L91.0490625,61.52511262893677L91.3275,97.99506211280827L91.60593750000001,90.25218987464909L91.884375,98.55716729164128L92.1628125,130.27327680587777L92.44125000000001,70.55656456947328L92.7196875,13.809261560440005L92.998125,64.94732880592346L93.27656250000001,119.46815514564523L93.555,108.00555610656747L93.8334375,101.05984354019171L94.11187500000001,117.47736597061166L94.39031250000001,147.59620213508617L94.66875,112.11711072921761L94.94718750000001,104.6548690795899L95.22562500000001,136.28235840797433L95.5040625,82.10145378112797L95.7825,118.34732079505929L96.0609375,130.51888132095345L96.33937499999999,148.1682243347169L96.6178125,126.13851213455209L96.89625,74.32250046730043L97.17468749999999,142.69170784950268L97.453125,82.04511666297917L97.7315625,108.7976517677308L98.00999999999999,142.81640911102306L98.2884375,121.73345589637765L98.566875,139.5902123451234L98.84531249999999,137.5517370700837L99.12375,110.27381086349496L99.4021875,145.44420862197887L99.68062499999999,90.7410778999329L99.9590625,151.74003982543957L100.2375,53.426915645599365L100.51593749999999,87.2405805587769L100.794375,115.77923440933236L101.0728125,123.74028110504159L101.35125,147.05456399917614L101.6296875,135.09400391578683L101.908125,161.307221889496L102.1865625,127.60327720642098L102.465,90.19395375251774L102.7434375,119.11177539825448L103.021875,100.34413003921514L103.3003125,148.1034471988679L103.57875,147.4113657474519L103.8571875,109.43529510498055L104.135625,144.0404226779939L104.4140625,124.27158021926888L104.6925,98.78061676025395L104.9709375,136.58219003677377L105.249375,96.86051273345952L105.5278125,115.14243507385262L105.80625,81.22643494606022L106.0846875,84.76174736022953L106.363125,89.95278024673466L106.6415625,129.8898890018464L106.92,75.96155190467836L107.1984375,115.99930787086495L107.476875,123.1705799102784L107.7553125,153.0330505371095L108.03375,101.81227111816412L108.31218750000001,120.82530999183663L108.590625,107.2638895511628L108.8690625,157.64404320716872L109.14750000000001,155.93810462951674L109.4259375,156.11196899414077L109.704375,129.62423944473275L109.98281250000001,134.63718795776376L110.26125,112.20784091949471L110.5396875,137.8758337497712L110.81812500000001,147.82999062538158L111.0965625,121.15784668922433L111.375,144.71667909622204L111.65343750000001,135.05285882949838L111.931875,144.20310401916515L112.2103125,147.41305375099193L112.48875000000001,116.82115459442147L112.7671875,113.57005977630624L113.045625,140.63487553596508L113.3240625,138.16005134582528L113.60249999999999,150.18665456771862L113.88093749999999,141.3744320869447L114.159375,132.5687506198884L114.43781249999999,102.98754358291632L114.71624999999999,122.85154724121102L114.9946875,107.86650681495675L115.273125,148.05006408691418L115.55156249999999,149.31817674636852L115.83,151.19586968421947L116.1084375,83.1051828861237L116.38687499999999,113.97940063476571L116.6653125,120.90063714981088L116.94375,140.3763999938966L117.22218749999999,129.18409252166757L117.500625,140.81886792182934L117.7790625,123.27629113197335L118.05749999999999,142.0053234100343L118.3359375,121.94551134109506L118.614375,133.27539110183724L118.89281249999999,121.41526722908029L119.17125,133.94953751564034L119.4496875,116.13266015052804L119.72812499999999,150.15289449691784L120.0065625,151.4429512023927L120.285,158.25172448158278L120.56343749999999,158.95899796485915L120.841875,161.81446695327773L121.1203125,153.4048333168031L121.39874999999999,160.5904533863069L121.6771875,108.77401971817025L121.955625,130.44165515899667L122.23406250000001,127.1935143470765L122.5125,128.09322023391732L122.7909375,160.21719360351577L123.06937500000001,157.62864017486586L123.3478125,149.5895233154298L123.62625,157.89618873596206L123.90468750000001,118.5163321495057L124.183125,149.4859220981599L124.4615625,160.3488578796388L124.74000000000001,141.67869472503673L125.0184375,161.12723851203933L125.296875,144.22441506385815L125.57531250000001,89.11785149574284L125.85375,45.26520752906797L126.1321875,88.49666619300847L126.41062500000001,151.8879511356355L126.6890625,127.54293107986459L126.9675,136.5534939765931L127.24593750000001,142.2646429538728L127.524375,105.17519617080694L127.8028125,76.02316403388978L128.08125,148.83034372329723L128.3596875,139.66005349159252L128.638125,145.72905921936047L128.9165625,142.0745315551759L129.195,90.53978347778325L129.47343750000002,139.1713764667512L129.751875,143.82182621955883L130.0303125,-212.86408281326334L131.70093749999998,-627.0902345180521L131.979375,3.1434001922606636L132.2578125,101.4139022827149L132.53625,31.77531623840328L132.8146875,115.13863706588754L133.093125,-0.5161914825440239L133.37156249999998,148.3752157688142L133.65,125.01746678352364L133.9284375,-67.25964045524613L134.206875,33.58422303199764L134.4853125,-58.67255544662491L134.76375,54.26880741119385L135.04218749999998,92.30459117889409L135.320625,115.13420605659493L135.5990625,50.093108654022195L135.8775,134.05419373512277L136.1559375,137.3306086063386L136.434375,134.74627518653878L136.71281249999998,111.53685951232919L136.99125,148.08319115638744L137.2696875,129.01824617385873L137.548125,129.75885772705087L137.8265625,123.72551107406625L138.105,147.24826240539562L138.38343749999999,124.65475702285775L138.661875,148.5651161670686L138.9403125,124.84170341491708L139.21875,127.03631901741036L139.4971875,97.69101047515873L139.775625,85.78509950637822L140.05406250000001,149.28610467910778L140.3325,145.9428026676179L140.6109375,135.67298913002023L140.889375,141.18790769577038L141.1678125,149.1704764366151L141.44625,62.9134955406189L141.72468750000002,162.71754884719863L142.003125,112.33127617836007L142.2815625,143.59795475006115L142.56,152.74714493751537L142.8384375,58.44619417190552L143.116875,122.0035364627839L143.39531250000002,116.46920585632333L143.67375,82.55974674224858L143.9521875,144.77280521392834L144.230625,141.39131212234508L144.5090625,63.37516450881958L144.7875,138.38223481178295L145.06593750000002,146.85537958145153L145.344375,132.88525128364572L145.6228125,149.12912034988415L145.90125,159.3506147861482L146.1796875,122.40169429779061L146.458125,139.2656936645509L146.73656250000002,153.034105539322L147.01500000000001,145.9071435928346L147.2934375,133.07409667968759L147.571875,96.02832698822026L147.8503125,157.47798585891738L148.12875,117.97005200386056L148.40718750000002,45.646063327789285L148.68562500000002,88.30592179298405L148.9640625,74.75062036514284L149.2425,88.27975773811345L149.5209375,122.88910531997689L149.799375,135.05074882507333L150.07781250000002,115.0120368003846L150.35625000000002,93.71745014190678L150.6346875,111.77360200881967L150.913125,145.64170503616344L151.1915625,135.7582333087922L151.47,141.7419948577882L151.74843750000002,159.10247826576247L152.02687500000002,158.2694485187532L152.3053125,140.89841508865368L152.58375,123.51662063598641L152.8621875,119.12717843055734L153.140625,142.29186201095592L153.41906250000002,143.79207515716564L153.69750000000002,108.93860006332406L153.97593750000001,154.74173212051403L154.254375,-44.769736289978184L154.5328125,125.70933723449716L154.81125,110.1501646041871L155.08968750000003,131.83784508705148L155.36812500000002,136.61320710182198L155.64656250000002,155.98916673660293L155.925,155.27387523651134L156.2034375,157.72401237487807L156.481875,155.31312131881725L156.7603125,143.98703956604015L157.03875,133.10827875137338L157.3171875,145.75817728042614L157.59562499999998,135.78608536720284L157.87406249999998,127.29036355018624L158.15249999999997,-35.25868034362805L158.4309375,123.09483075141915L158.709375,92.70464801788334L158.9878125,129.2163755893708L159.26624999999999,148.16527032852184L159.54468749999998,150.71225666999828L159.82312499999998,149.52326917648327L160.1015625,140.27849578857433L160.38,141.10392951965343L160.6584375,35.46529197692867L160.936875,-72.19726181030289L161.21531249999998,123.46028351783761L161.49374999999998,93.51151371002202L161.7721875,115.32516145706185L162.050625,120.30603790283212L162.3290625,57.54458928108215L162.6075,108.76009368896493L162.88593749999998,141.7202618122102L163.16437499999998,135.6890251636506L163.4428125,65.91349983215332L163.72125,79.41014313697816L163.9996875,95.38435363769536L164.278125,78.47098016738893L164.55656249999998,60.70432090759277L164.83499999999998,125.41942262649545L165.1134375,118.88241791725167L165.391875,103.21373605728155L165.6703125,109.76635479927072L165.94875,150.4791011810304L166.22718749999999,137.08268308639535L166.50562499999998,121.59440660476693L166.7840625,147.0746090412141L167.0625,136.6267111301423L167.3409375,134.23924112319955L167.619375,103.07595276832586L167.8978125,109.15424251556405L168.17624999999998,125.88024759292611L168.4546875,113.96125459671029L168.733125,128.20526146888741L169.0115625,118.13484334945687L169.29,138.1005492210389L169.5684375,135.83060646057137L169.84687499999998,133.0529966354371L170.1253125,133.71511602401742L170.40375,138.58141922950756L170.6821875,141.23010778427135L170.960625,137.7886905670167L171.2390625,139.50560116767895L171.51749999999998,134.4531955718995L171.7959375,129.1245903968812L172.074375,131.84206509590157L172.3528125,126.80147552490243L172.63125,111.08742856979379L172.9096875,124.37665843963632L173.18812499999999,140.5749514102937L173.4665625,141.74537086486828L173.745,137.44032883644113L174.0234375,119.62788248062142L174.301875,111.71156787872323L174.5803125,123.48876857757577L174.85875000000001,156.37529754638686L175.1371875,155.10591888427746L175.415625,150.8472969532014L175.6940625,150.1250424385072L175.9725,156.28013634681716L176.2509375,151.01040029525768L176.52937500000002,123.16846990585336L176.8078125,109.42200207710275L177.08625,84.2201092243195L177.3646875,157.92150878906264L177.643125,154.27077913284313L177.9215625,153.83485221862804L178.20000000000002,161.0350313186647L178.4784375,153.1461467742921L178.756875,148.64445233345043L179.0353125,147.2989025115968L179.31375,133.29733514785775L179.5921875,110.12083554267892L179.87062500000002,113.71058607101449L180.1490625,144.9268355369569L180.4275,117.8938808441163L180.7059375,147.42803478240978L180.984375,99.67146062850958L181.2628125,92.64155888557438L181.54125000000002,151.94703125953686L181.81968750000001,155.31206631660473L182.098125,149.84652185440075L182.3765625,159.70762753486648L182.655,112.1382107734681L182.9334375,138.86500382423412L183.21187500000002,152.579399585724L183.49031250000002,150.10563039779674L183.76875,130.69169068336495L184.0471875,137.7975525856019L184.325625,151.7849829196931L184.6040625,121.36715912818917L184.88250000000002,158.7705745697023L185.16093750000002,135.95994973182687L185.439375,150.42213106155407L185.7178125,147.8308346271516L185.99625,154.73835611343395L186.2746875,123.17817592620858L186.55312500000002,145.5184807777406L186.83156250000002,151.35390901565563L187.11,142.30452203750622L187.3884375,150.66478157043468L187.666875,150.96630120277416L187.9453125,133.29142713546761L188.22375000000002,145.16800904273998L188.50218750000002,103.6135818958283L188.78062500000001,109.26987075805673L189.0590625,110.38564109802255L189.3375,99.27435779571537L189.6159375,152.46187233924877L189.89437500000003,156.0617508888246L190.17281250000002,155.1683750152589L190.45125000000002,163.29379105567946L190.7296875,152.09388756752026L191.008125,128.37174081802377L191.2865625,140.7308807373048L191.565,143.3713402748109L191.8434375,159.8249437808992L192.121875,160.4260840415956L192.40031249999998,145.64212703704845L192.67874999999998,161.69335269927993L192.95718749999997,144.95848560333263L193.235625,164.37833333015456L193.5140625,142.78686904907238L193.7925,160.27732872962966L194.07093749999999,128.24682855606088L194.34937499999998,164.23422002792373L194.62781249999998,107.02356004714974L194.90625,148.0163040161134L195.1846875,155.5228557586671L195.463125,168.33142662048354L195.7415625,159.70615053176894L196.01999999999998,139.7191336154939L196.29843749999998,150.1339044570924L196.576875,161.57350444793715L196.8553125,113.55613374710092L197.13375,139.94089508056652L197.4121875,148.77864861488354L197.69062499999998,135.0840868949891L197.96906249999998,142.84299516677868L198.2475,148.53726410865795L198.5259375,112.62013578414926L198.804375,146.919101715088L199.0828125,155.8368244171144L199.36124999999998,150.2765407562257L199.63968749999998,150.4795231819154L199.918125,140.88491106033337L200.1965625,141.6647686958314L200.475,141.28960990905773L200.7534375,150.68630361557018L201.03187499999999,119.91821908950814L201.31031249999998,161.41673111915603L201.58875,146.01222181320202L201.8671875,146.56630897521984L202.145625,139.67967653274548L202.4240625,163.3172121047975L202.7025,128.2905056476594L202.98093749999998,105.49043083190924L203.259375,134.61819791793832L203.5378125,135.34636044502267L203.81625,126.37609863281259L204.0946875,158.11351919174209L204.373125,132.4140872955323L204.65156249999998,153.75340604782116L204.93,132.71750593185433L205.2084375,142.40411424636852L205.486875,167.91237974166884L205.7653125,159.82726478576674L206.04375,142.69571685791027L206.32218749999998,136.5406229496003L206.600625,146.73088932037365L206.8790625,163.5370745658876L207.1575,166.58940696716323L207.4359375,164.4574584960939L207.714375,141.72300481796276L207.99281249999999,146.8452515602113L208.27125,134.31161427497872L208.5496875,130.9356071949006L208.828125,76.63991832733156L209.1065625,69.34795403480531L209.385,155.13081693649303L209.66343750000001,137.49413394927987L209.941875,139.93667507171642L210.2203125,152.20888280868542L210.49875,165.97623968124404L210.7771875,162.61500263214126L211.055625,153.94288444519054L211.33406250000002,133.9088144302369L211.6125,156.9426777362825L211.8909375,168.15017724037185L212.169375,162.69117379188552L212.4478125,165.07653379440322L212.72625,163.32016611099257L213.00468750000002,158.80011463165297L213.283125,167.21396827697768L213.5615625,155.98895573616042L213.84,150.764373779297L214.1184375,137.60005617141732L214.396875,158.38824176788344L214.67531250000002,156.27232933044448L214.95375,143.98134255409252L215.2321875,138.2562675476075L215.510625,82.91781449317936L215.7890625,117.70587944984445L216.0675,150.2166166305543L216.34593750000002,136.18529820442208L216.62437500000001,147.33519458770763L216.9028125,136.3152744770051L217.18125,121.76637196540841L217.4596875,112.65938186645516L217.738125,137.89039278030404L218.01656250000002,154.85145235061657L218.29500000000002,155.33401036262524L218.5734375,148.3838667869569L218.851875,156.2478532791139L219.1303125,161.71635174751296L219.40875,154.5024576187135L219.68718750000002,151.3526430130006L219.96562500000002,142.14078569412243L220.2440625,165.67071104049697L220.5225,159.6747114658357L220.8009375,158.01688098907485L221.079375,131.37807512283334L221.35781250000002,138.8643708229066L221.63625000000002,143.58107471466076L221.9146875,156.80109643936171L222.193125,94.71020722389225L222.4715625,109.89274406433114L222.75,154.5505657196046L223.02843750000002,153.31199312210094L223.30687500000002,157.15895318985L223.58531250000001,148.11252021789562L223.86375,151.8582000732423L224.1421875,156.84118652343764L224.420625,159.52426815032973L224.69906250000003,165.6677570343019L224.97750000000002,162.86524915695205L225.25593750000002,164.25194406509414L225.534375,144.69093704223644L225.8128125,151.8235960006715L226.09125,163.31742310524L226.3696875,161.84274101257338L226.648125,154.0063955783845L226.9265625,89.69451570510869L227.20499999999998,165.0022616386415L227.48343749999998,161.03292131423964L227.76187499999997,159.74391961097731L228.0403125,157.17477822303786L228.31875,163.39169526100173L228.5971875,133.26758408546456L228.87562499999999,124.4967176914216L229.15406249999998,149.8747959136964L229.43249999999998,134.90431451797494L229.7109375,121.80772805213937L229.989375,114.40984153747567L230.2678125,101.72154092788702L230.54625,115.99656486511239L230.82468749999998,120.55691742897042L231.10312499999998,131.33988404273995L231.3815625,138.1132092475892L231.66,138.95721101760876L231.9384375,152.57180356979381L232.216875,137.75999450683602L232.49531249999998,149.37050485610973L232.77374999999998,158.38507676124587L233.0521875,139.39250493049633L233.330625,108.12878036499032L233.6090625,161.33233094215407L233.8875,148.063779115677L234.16593749999998,146.66210317611706L234.44437499999998,94.83364248275761L234.7228125,121.47519135475167L235.00125,147.6183571815492L235.2796875,150.99478626251232L235.558125,147.264298439026L235.83656249999999,156.21430420875564L236.11499999999998,168.2170643806459L236.3934375,107.3067226409913L236.671875,126.06086397171029L236.9503125,133.69401597976693L237.22875,144.81753730773937L237.5071875,152.38190317153942L237.78562499999998,159.88803291320815L238.0640625,112.67056488990792L238.3425,151.61006355285656L238.6209375,122.45402240753182L238.899375,148.31719064712536L239.1778125,137.9279508590699L239.45624999999998,145.15513801574718L239.7346875,161.51780033111586L240.013125,163.89704132080092L240.2915625,98.28096771240239L240.57,153.43817138671886L240.8484375,135.60567998886117L241.12687499999998,135.8491744995118L241.4053125,114.57399988174447L241.68375,145.47754669189464L241.9621875,153.94731545448315L242.240625,112.1858968734742L242.5190625,150.88675403594982L242.79749999999999,107.05267810821542L243.0759375,141.16575264930736L243.354375,159.56900024414077L243.6328125,160.14397644996657L243.91125,138.85740780830395L244.1896875,150.32253885269176L244.46812500000001,161.12470650672927L244.7465625,153.12251472473156L245.025,160.75334572792067L245.3034375,115.60705804824838L245.581875,155.89928054809585L245.8603125,151.05639839172375L246.13875000000002,116.23225235939034L246.4171875,136.2981834411622L246.695625,170.72332763671892L246.9740625,162.539253473282L247.2525,154.82507729530346L247.5309375,153.3970263004304L247.80937500000002,115.08673095703134L248.0878125,148.13488626480114L248.36625,166.9337596893312L248.6446875,145.90629959106457L248.923125,163.70249891281142L249.2015625,144.0370466709138L249.48000000000002,162.0081653594972L249.7584375,152.15402269363415L250.036875,130.73389077186593L250.3153125,127.9453089237214" style="fill: none;" fill="none"></path></g></g></g></g></g></g><g transform="translate(51, 177)" clip-path="url(#clip_1)"><clipPath id="clip_1"><rect width="278" height="23"></rect></clipPath><g><g><line x1="0" y1="0" x2="0" y2="5" style="visibility: inherit;" fill="rgb(0, 0, 0)" stroke="rgb(204, 204, 204)" stroke-width="1px"></line><line x1="27.84375" y1="0" x2="27.84375" y2="5" style="visibility: inherit;" fill="rgb(0, 0, 0)" stroke="rgb(204, 204, 204)" stroke-width="1px"></line><line x1="55.6875" y1="0" x2="55.6875" y2="5" style="visibility: inherit;" fill="rgb(0, 0, 0)" stroke="rgb(204, 204, 204)" stroke-width="1px"></line><line x1="83.53125" y1="0" x2="83.53125" y2="5" style="visibility: inherit;" fill="rgb(0, 0, 0)" stroke="rgb(204, 204, 204)" stroke-width="1px"></line><line x1="111.375" y1="0" x2="111.375" y2="5" style="visibility: inherit;" fill="rgb(0, 0, 0)" stroke="rgb(204, 204, 204)" stroke-width="1px"></line><line x1="139.21875" y1="0" x2="139.21875" y2="5" style="visibility: inherit;" fill="rgb(0, 0, 0)" stroke="rgb(204, 204, 204)" stroke-width="1px"></line><line x1="167.0625" y1="0" x2="167.0625" y2="5" style="visibility: inherit;" fill="rgb(0, 0, 0)" stroke="rgb(204, 204, 204)" stroke-width="1px"></line><line x1="194.90625" y1="0" x2="194.90625" y2="5" style="visibility: inherit;" fill="rgb(0, 0, 0)" stroke="rgb(204, 204, 204)" stroke-width="1px"></line><line x1="222.75" y1="0" x2="222.75" y2="5" style="visibility: inherit;" fill="rgb(0, 0, 0)" stroke="rgb(204, 204, 204)" stroke-width="1px"></line><line x1="250.59375" y1="0" x2="250.59375" y2="5" style="visibility: inherit;" fill="rgb(0, 0, 0)" stroke="rgb(204, 204, 204)" stroke-width="1px"></line><line x1="278.4375" y1="0" x2="278.4375" y2="5" style="visibility: inherit;" fill="rgb(0, 0, 0)" stroke="rgb(204, 204, 204)" stroke-width="1px"></line></g><g transform="translate(0, 8)"><text x="0" y="0" dx="0em" dy="0.95em" style="text-anchor: middle; visibility: hidden; font-family: Roboto, sans-serif; font-size: 12px; font-weight: 200;" fill="rgb(33, 33, 33)" stroke="none" stroke-width="1px">-100</text><text x="27.84375" y="0" dx="0em" dy="0.95em" style="text-anchor: middle; visibility: inherit; font-family: Roboto, sans-serif; font-size: 12px; font-weight: 200;" fill="rgb(33, 33, 33)" stroke="none" stroke-width="1px">0</text><text x="55.6875" y="0" dx="0em" dy="0.95em" style="text-anchor: middle; visibility: inherit; font-family: Roboto, sans-serif; font-size: 12px; font-weight: 200;" fill="rgb(33, 33, 33)" stroke="none" stroke-width="1px">100</text><text x="83.53125" y="0" dx="0em" dy="0.95em" style="text-anchor: middle; visibility: inherit; font-family: Roboto, sans-serif; font-size: 12px; font-weight: 200;" fill="rgb(33, 33, 33)" stroke="none" stroke-width="1px">200</text><text x="111.375" y="0" dx="0em" dy="0.95em" style="text-anchor: middle; visibility: inherit; font-family: Roboto, sans-serif; font-size: 12px; font-weight: 200;" fill="rgb(33, 33, 33)" stroke="none" stroke-width="1px">300</text><text x="139.21875" y="0" dx="0em" dy="0.95em" style="text-anchor: middle; visibility: inherit; font-family: Roboto, sans-serif; font-size: 12px; font-weight: 200;" fill="rgb(33, 33, 33)" stroke="none" stroke-width="1px">400</text><text x="167.0625" y="0" dx="0em" dy="0.95em" style="text-anchor: middle; visibility: inherit; font-family: Roboto, sans-serif; font-size: 12px; font-weight: 200;" fill="rgb(33, 33, 33)" stroke="none" stroke-width="1px">500</text><text x="194.90625" y="0" dx="0em" dy="0.95em" style="text-anchor: middle; visibility: inherit; font-family: Roboto, sans-serif; font-size: 12px; font-weight: 200;" fill="rgb(33, 33, 33)" stroke="none" stroke-width="1px">600</text><text x="222.75" y="0" dx="0em" dy="0.95em" style="text-anchor: middle; visibility: inherit; font-family: Roboto, sans-serif; font-size: 12px; font-weight: 200;" fill="rgb(33, 33, 33)" stroke="none" stroke-width="1px">700</text><text x="250.59375" y="0" dx="0em" dy="0.95em" style="text-anchor: middle; visibility: inherit; font-family: Roboto, sans-serif; font-size: 12px; font-weight: 200;" fill="rgb(33, 33, 33)" stroke="none" stroke-width="1px">800</text><text x="278.4375" y="0" dx="0em" dy="0.95em" style="text-anchor: middle; visibility: hidden; font-family: Roboto, sans-serif; font-size: 12px; font-weight: 200;" fill="rgb(33, 33, 33)" stroke="none" stroke-width="1px">900</text></g><line x1="0" y1="0" x2="278.4375" y2="0" fill="rgb(0, 0, 0)" stroke="rgb(204, 204, 204)" stroke-width="1px"></line></g></g></g></g></svg>