<svg viewBox="0 0 330 200" xmlns="http://www.w3.org/2000/svg"><g><g><g><g><g><line x1="30.78125" y1="177" x2="25.78125" y2="177" style="visibility: inherit;" fill="rgb(0, 0, 0)" stroke="rgb(204, 204, 204)" stroke-width="1px"></line><line x1="30.78125" y1="160.9090909090909" x2="25.78125" y2="160.9090909090909" style="visibility: inherit;" fill="rgb(0, 0, 0)" stroke="rgb(204, 204, 204)" stroke-width="1px"></line><line x1="30.78125" y1="144.8181818181818" x2="25.78125" y2="144.8181818181818" style="visibility: inherit;" fill="rgb(0, 0, 0)" stroke="rgb(204, 204, 204)" stroke-width="1px"></line><line x1="30.78125" y1="128.72727272727272" x2="25.78125" y2="128.72727272727272" style="visibility: inherit;" fill="rgb(0, 0, 0)" stroke="rgb(204, 204, 204)" stroke-width="1px"></line><line x1="30.78125" y1="112.63636363636364" x2="25.78125" y2="112.63636363636364" style="visibility: inherit;" fill="rgb(0, 0, 0)" stroke="rgb(204, 204, 204)" stroke-width="1px"></line><line x1="30.78125" y1="96.54545454545453" x2="25.78125" y2="96.54545454545453" style="visibility: inherit;" fill="rgb(0, 0, 0)" stroke="rgb(204, 204, 204)" stroke-width="1px"></line><line x1="30.78125" y1="80.45454545454547" x2="25.78125" y2="80.45454545454547" style="visibility: inherit;" fill="rgb(0, 0, 0)" stroke="rgb(204, 204, 204)" stroke-width="1px"></line><line x1="30.78125" y1="64.36363636363636" x2="25.78125" y2="64.36363636363636" style="visibility: inherit;" fill="rgb(0, 0, 0)" stroke="rgb(204, 204, 204)" stroke-width="1px"></line><line x1="30.78125" y1="48.272727272727266" x2="25.78125" y2="48.272727272727266" style="visibility: inherit;" fill="rgb(0, 0, 0)" stroke="rgb(204, 204, 204)" stroke-width="1px"></line><line x1="30.78125" y1="32.18181818181817" x2="25.78125" y2="32.18181818181817" style="visibility: inherit;" fill="rgb(0, 0, 0)" stroke="rgb(204, 204, 204)" stroke-width="1px"></line><line x1="30.78125" y1="16.090909090909097" x2="25.78125" y2="16.090909090909097" style="visibility: inherit;" fill="rgb(0, 0, 0)" stroke="rgb(204, 204, 204)" stroke-width="1px"></line><line x1="30.78125" y1="0" x2="25.78125" y2="0" style="visibility: inherit;" fill="rgb(0, 0, 0)" stroke="rgb(204, 204, 204)" stroke-width="1px"></line></g><g transform="translate(20.78125, 0)"><text x="0" y="177" dx="0em" dy="0.3em" style="text-anchor: end; visibility: hidden; font-family: Roboto, sans-serif; font-size: 12px; font-weight: 200;" fill="rgb(33, 33, 33)" stroke="none" stroke-width="1px">83</text><text x="0" y="160.9090909090909" dx="0em" dy="0.3em" style="text-anchor: end; visibility: inherit; font-family: Roboto, sans-serif; font-size: 12px; font-weight: 200;" fill="rgb(33, 33, 33)" stroke="none" stroke-width="1px">84</text><text x="0" y="144.8181818181818" dx="0em" dy="0.3em" style="text-anchor: end; visibility: hidden; font-family: Roboto, sans-serif; font-size: 12px; font-weight: 200;" fill="rgb(33, 33, 33)" stroke="none" stroke-width="1px">85</text><text x="0" y="128.72727272727272" dx="0em" dy="0.3em" style="text-anchor: end; visibility: inherit; font-family: Roboto, sans-serif; font-size: 12px; font-weight: 200;" fill="rgb(33, 33, 33)" stroke="none" stroke-width="1px">86</text><text x="0" y="112.63636363636364" dx="0em" dy="0.3em" style="text-anchor: end; visibility: hidden; font-family: Roboto, sans-serif; font-size: 12px; font-weight: 200;" fill="rgb(33, 33, 33)" stroke="none" stroke-width="1px">87</text><text x="0" y="96.54545454545453" dx="0em" dy="0.3em" style="text-anchor: end; visibility: inherit; font-family: Roboto, sans-serif; font-size: 12px; font-weight: 200;" fill="rgb(33, 33, 33)" stroke="none" stroke-width="1px">88</text><text x="0" y="80.45454545454547" dx="0em" dy="0.3em" style="text-anchor: end; visibility: hidden; font-family: Roboto, sans-serif; font-size: 12px; font-weight: 200;" fill="rgb(33, 33, 33)" stroke="none" stroke-width="1px">89</text><text x="0" y="64.36363636363636" dx="0em" dy="0.3em" style="text-anchor: end; visibility: inherit; font-family: Roboto, sans-serif; font-size: 12px; font-weight: 200;" fill="rgb(33, 33, 33)" stroke="none" stroke-width="1px">90</text><text x="0" y="48.272727272727266" dx="0em" dy="0.3em" style="text-anchor: end; visibility: hidden; font-family: Roboto, sans-serif; font-size: 12px; font-weight: 200;" fill="rgb(33, 33, 33)" stroke="none" stroke-width="1px">91</text><text x="0" y="32.18181818181817" dx="0em" dy="0.3em" style="text-anchor: end; visibility: inherit; font-family: Roboto, sans-serif; font-size: 12px; font-weight: 200;" fill="rgb(33, 33, 33)" stroke="none" stroke-width="1px">92</text><text x="0" y="16.090909090909097" dx="0em" dy="0.3em" style="text-anchor: end; visibility: hidden; font-family: Roboto, sans-serif; font-size: 12px; font-weight: 200;" fill="rgb(33, 33, 33)" stroke="none" stroke-width="1px">93</text><text x="0" y="0" dx="0em" dy="0.3em" style="text-anchor: end; visibility: hidden; font-family: Roboto, sans-serif; font-size: 12px; font-weight: 200;" fill="rgb(33, 33, 33)" stroke="none" stroke-width="1px">94</text></g><line x1="30.78125" y1="0" x2="30.78125" y2="177" fill="rgb(0, 0, 0)" stroke="rgb(204, 204, 204)" stroke-width="1px"></line></g></g><g transform="translate(30, 0)" clip-path="url(#clip_0)"><clipPath id="clip_0"><rect width="299" height="177"></rect></clipPath><g><g><g><line x1="0" y1="0" x2="0" y2="177" fill="rgb(0, 0, 0)" stroke="rgb(66, 66, 66)" stroke-width="1px" opacity="0.25"></line><line x1="29.921875" y1="0" x2="29.921875" y2="177" fill="rgb(0, 0, 0)" stroke="rgb(66, 66, 66)" stroke-width="1px" opacity="0.25"></line><line x1="59.84375" y1="0" x2="59.84375" y2="177" fill="rgb(0, 0, 0)" stroke="rgb(66, 66, 66)" stroke-width="1px" opacity="0.25"></line><line x1="89.765625" y1="0" x2="89.765625" y2="177" fill="rgb(0, 0, 0)" stroke="rgb(66, 66, 66)" stroke-width="1px" opacity="0.25"></line><line x1="119.6875" y1="0" x2="119.6875" y2="177" fill="rgb(0, 0, 0)" stroke="rgb(66, 66, 66)" stroke-width="1px" opacity="0.25"></line><line x1="149.609375" y1="0" x2="149.609375" y2="177" fill="rgb(0, 0, 0)" stroke="rgb(66, 66, 66)" stroke-width="1px" opacity="0.25"></line><line x1="179.53125" y1="0" x2="179.53125" y2="177" fill="rgb(0, 0, 0)" stroke="rgb(66, 66, 66)" stroke-width="1px" opacity="0.25"></line><line x1="209.453125" y1="0" x2="209.453125" y2="177" fill="rgb(0, 0, 0)" stroke="rgb(66, 66, 66)" stroke-width="1px" opacity="0.25"></line><line x1="239.375" y1="0" x2="239.375" y2="177" fill="rgb(0, 0, 0)" stroke="rgb(66, 66, 66)" stroke-width="1px" opacity="0.25"></line><line x1="269.296875" y1="0" x2="269.296875" y2="177" fill="rgb(0, 0, 0)" stroke="rgb(66, 66, 66)" stroke-width="1px" opacity="0.25"></line><line x1="299.21875" y1="0" x2="299.21875" y2="177" fill="rgb(0, 0, 0)" stroke="rgb(66, 66, 66)" stroke-width="1px" opacity="0.25"></line></g><g><line x1="0" y1="177" x2="299.21875" y2="177" fill="rgb(0, 0, 0)" stroke="rgb(66, 66, 66)" stroke-width="1px" opacity="0.25"></line><line x1="0" y1="160.9090909090909" x2="299.21875" y2="160.9090909090909" fill="rgb(0, 0, 0)" stroke="rgb(66, 66, 66)" stroke-width="1px" opacity="0.25"></line><line x1="0" y1="144.8181818181818" x2="299.21875" y2="144.8181818181818" fill="rgb(0, 0, 0)" stroke="rgb(66, 66, 66)" stroke-width="1px" opacity="0.25"></line><line x1="0" y1="128.72727272727272" x2="299.21875" y2="128.72727272727272" fill="rgb(0, 0, 0)" stroke="rgb(66, 66, 66)" stroke-width="1px" opacity="0.25"></line><line x1="0" y1="112.63636363636364" x2="299.21875" y2="112.63636363636364" fill="rgb(0, 0, 0)" stroke="rgb(66, 66, 66)" stroke-width="1px" opacity="0.25"></line><line x1="0" y1="96.54545454545453" x2="299.21875" y2="96.54545454545453" fill="rgb(0, 0, 0)" stroke="rgb(66, 66, 66)" stroke-width="1px" opacity="0.25"></line><line x1="0" y1="80.45454545454547" x2="299.21875" y2="80.45454545454547" fill="rgb(0, 0, 0)" stroke="rgb(66, 66, 66)" stroke-width="1px" opacity="0.25"></line><line x1="0" y1="64.36363636363636" x2="299.21875" y2="64.36363636363636" fill="rgb(0, 0, 0)" stroke="rgb(66, 66, 66)" stroke-width="1px" opacity="0.25"></line><line x1="0" y1="48.272727272727266" x2="299.21875" y2="48.272727272727266" fill="rgb(0, 0, 0)" stroke="rgb(66, 66, 66)" stroke-width="1px" opacity="0.25"></line><line x1="0" y1="32.18181818181817" x2="299.21875" y2="32.18181818181817" fill="rgb(0, 0, 0)" stroke="rgb(66, 66, 66)" stroke-width="1px" opacity="0.25"></line><line x1="0" y1="16.090909090909097" x2="299.21875" y2="16.090909090909097" fill="rgb(0, 0, 0)" stroke="rgb(66, 66, 66)" stroke-width="1px" opacity="0.25"></line><line x1="0" y1="0" x2="299.21875" y2="0" fill="rgb(0, 0, 0)" stroke="rgb(66, 66, 66)" stroke-width="1px" opacity="0.25"></line></g></g></g><g><g><line x1="0" y1="1512.5454545454547" x2="299.21875" y2="1512.5454545454547" fill="rgb(0, 0, 0)" stroke="rgb(153, 153, 153)" stroke-width="1.5px"></line></g></g><g><g><line x1="29.921875" y1="0" x2="29.921875" y2="177" fill="rgb(0, 0, 0)" stroke="rgb(153, 153, 153)" stroke-width="1.5px"></line></g></g><g><g><g><g><g><path style="fill: none;" stroke="rgb(255, 112, 67)" stroke-width="2px" d="M32.61484375,-6.551348520008654L32.9140625,0.239318394190576L33.21328125,-5.987533822288702L33.5125,0.07838217217377808L33.811718750000004,0.5842476754777692L34.1109375,6.124136709780615L34.41015625,5.364923083505488L34.709375,12.393159853228275L35.00859375,10.787972879451877L35.3078125,14.574252907139345L35.60703125,4.6802140614961925L35.90625,-4.0167036266970655L36.20546875,-1.7260498207868664L36.504687499999996,1.7136210154335458L36.80390625,7.579471044874472L37.103125,-5.908647612497054L38.300000000000004,-5.686355541696637L38.59921875,2.3312798226496367L38.8984375,11.084054588154194L39.19765625,14.376161275287217L39.496875,15.969924025226296L39.796093750000004,18.113554041539047L40.095312500000006,19.772786938976065L40.39453125,22.995312821624047L40.69375,24.687621829868007L40.99296875,26.08745463942911L41.292187500000004,29.126301192860506L41.591406250000006,23.966455091808854L41.89062500000001,30.617558662781217L42.189843749999994,23.91641865058732L42.489062499999996,30.200781423434798L42.78828125,5.400459860950517L43.0875,-0.15719029272543983L43.38671875,6.086995195315183L43.685937499999994,4.755549889245097L43.985156249999996,11.624761041655546L44.284375,23.055846393435786L44.58359375,10.731706189122344L44.8828125,13.277954710467473L45.18203125,9.932222766345316L45.481249999999996,6.669596443892289L45.78046875,8.973106299398822L46.0796875,1.7897789185730233L46.37890625,6.95160616506619L46.678125,0.038338188562207276L46.97734375,9.470617548259204L47.2765625,15.777883890106775L47.57578125,17.86790553825446L47.875,19.67744969946195L48.17421875,23.67847493553318L48.4734375,24.034089133904942L48.772656250000004,24.72422351097162L49.071875,22.9707848279074L49.37109375,15.510986521744403L49.6703125,18.594073325067104L49.96953125,20.957127588790264L50.268750000000004,17.4295394483379L50.567968750000006,18.077727664031105L50.86718750000001,24.020086305450132L51.16640625,18.345505152410702L51.465624999999996,18.927538465203533L51.76484375,23.14504874717978L52.0640625,25.783145192910148L52.36328125,16.826084403565687L52.662499999999994,17.667727613020137L52.961718749999996,25.755053571096788L53.2609375,30.66878198729581L53.56015625,34.41547540242725L53.859375,27.027557003263745L54.15859375,14.067527687842562L54.457812499999996,16.49225666952377L54.75703125,1.2596506547682935L55.05625,2.6183641899135237L55.35546875,6.893668105567343L55.6546875,12.159705224579664L55.95390625,16.406868278568865L56.253125,27.93446104393464L56.55234375,27.855488083214613L56.8515625,15.16219560427892L57.15078125,9.826633102979276L57.45,12.480102120754363L57.749218750000004,11.124082279643584L58.0484375,17.87606541226404L58.34765625,29.665701891623424L58.646875,27.305324066881028L58.94609375,25.642538367685475L59.245312500000004,31.74818226688245L59.544531250000006,31.056838659223942L59.84375,30.420271796830534L60.14296875,35.817270111567964L60.4421875,28.307637513052104L60.741406250000004,31.62127961809413L61.040625,18.077180612653258L61.33984374999999,15.845548757329183L61.639062499999994,24.694794297898873L61.938281249999996,26.692859244755038L62.2375,29.6820868403544L62.53671875,31.61852057012182L62.8359375,29.399806911054L63.13515625,33.09988503441631L63.434374999999996,32.943713979634154L63.73359375,31.25221471590549L64.0328125,38.781338428708736L64.33203125,44.7161463633332L64.63125,53.36520167852889L64.93046875,61.71207311116554L65.2296875,64.79889192689109L65.52890625,63.77329933404676L65.828125,58.222245980044626L66.12734375,58.43801733234496L66.4265625,51.08929299883871L66.72578125,46.094425519651196L67.025,55.90398890776004L67.32421875,60.288471835866964L67.62343750000001,58.20954578129627L67.92265625,45.26485350082686L68.221875,36.33934339710487L68.52109375,41.34643940118924L68.8203125,44.79799952716605L69.11953125000001,38.42410555791895L69.41875,33.279468051104395L69.71796875,31.920562799767612L70.0171875,35.35427443634144L70.31640625,39.25129479763587L70.615625,30.993264283144775L70.91484375,32.438471498242826L71.2140625,38.76849089122189L71.51328124999999,49.102108495138054L71.8125,59.93656694367364L72.11171875,63.89995785530211L72.4109375,58.01387080915063L72.71015625,56.21765809007126L73.00937499999999,63.21322785519691L73.30859375,67.36598186803647L73.6078125,76.99011829562662L73.90703125,77.42648230993993L74.20625,80.70348016188727L74.50546875,84.91429390767922L74.8046875,83.83324237132985L75.10390625,86.3318357370735L75.403125,72.87795664465897L75.70234375,67.19824837422446L76.0015625,58.1195172063529L76.30078125,58.5473656194438L76.60000000000001,60.46295861172318L76.89921875,50.68264494020508L77.1984375,54.19224326960946L77.49765625,60.42797607762154L77.796875,60.70438030655163L78.09609375000001,75.89642523648789L78.3953125,77.56062042287644L78.69453125,73.0475297577209L78.99375,85.60644587753741L79.29296875,88.54855990933491L79.59218750000001,88.89094569347017L79.89140625,92.55183703611047L80.19062500000001,93.00168716040932L80.48984375,89.98407836957665L80.7890625,98.32098013609254L81.08828125000001,92.30491440889288L81.3875,93.24058358851754L81.68671875000001,100.43658786839806L81.9859375,99.0983596368769L82.28515625,98.51973688475394L82.58437500000001,102.86042528292977L82.88359375,102.0117355164376L83.18281250000001,104.44139106350244L83.48203125,100.12422350972788L83.78125000000001,103.72426777060946L84.08046875000001,104.73718850327472L84.37968749999999,106.38877777925549L84.67890625,106.38205373253928L84.97812499999999,103.28309243572393L85.27734374999999,90.90893904630647L85.5765625,96.89065706237183L85.87578124999999,90.23783994942602L86.175,93.18771129387419L86.47421874999999,96.70780527641318L86.7734375,101.17432583275114L87.07265625,90.84661792729618L87.37187499999999,94.27316018730801L87.67109375,101.61431670009793L87.97031249999999,104.97149085457568L88.26953125,98.62154752233339L88.56875,102.94208689408184L88.86796875,80.3834278511154L89.1671875,79.33165083797729L89.46640624999999,78.39229993993126L89.765625,83.554299197801L90.06484375,94.9668374421535L90.3640625,109.28969941131484L90.66328125,111.03132530641254L90.96249999999999,115.51128369814089L91.26171875,119.96371962628882L91.5609375,113.23677031670033L91.86015625,116.1985846287632L92.159375,120.80253284623875L92.45859375,123.85992796635466L92.7578125,124.7483955781972L93.05703125,103.9892572954268L93.35625,86.23489182398905L93.65546875,84.82575537360157L93.9546875,97.41049617071634L94.25390625,112.95926101475226L94.553125,119.1405590502575L94.85234375,118.68405716532847L95.1515625,123.98201633044712L95.45078125,119.97684518534209L95.75,120.52071432223148L96.04921875000001,125.25313016471678L96.3484375,123.32408629529684L96.64765625,124.69171684731286L96.946875,130.95780687507795L97.24609375,128.48955034708177L97.54531250000001,131.06564848772354L97.84453125,122.847649368735L98.14375,120.59153140479917L98.44296875,119.09083858719778L98.7421875,124.06747423275208L99.04140625000001,132.1064174897579L99.340625,128.10030956700814L99.63984375000001,116.32165729782211L99.9390625,89.35615744243603L100.23828125,94.56439026624287L100.53750000000001,108.3525035667059L100.83671875,117.03039418547804L101.13593750000001,128.1935835793799L101.43515625,137.48579292550434L101.73437500000001,139.52998699686862L102.03359375000001,135.52857846854033L102.3328125,137.90000785438414L102.63203125000001,133.93141900817372L102.93124999999999,136.957033112113L103.23046874999999,136.66096081187L103.5296875,142.17759788271852L103.82890624999999,145.67152954372912L104.128125,140.29746007353867L104.42734374999999,142.494566575906L104.7265625,134.72157487318918L105.02578125,132.29429246919048L105.32499999999999,137.38236799527488L105.62421875,132.0024632332444L105.92343749999999,131.1169536812464L106.22265625,139.06593220741618L106.521875,141.07160943986173L106.82109374999999,146.04308163071397L107.1203125,141.09875658229907L107.41953124999999,147.3648902686265L107.71875,125.47580477774179L108.01796875,107.78010344991931L108.3171875,113.19535255290621L108.61640625,115.23267506601228L108.91562499999999,124.62721545775386L109.21484375,134.42043050423325L109.5140625,144.30651578212093L109.81328125,147.1746185313286L110.1125,133.14978315936884L110.41171874999999,129.24183911170792L110.7109375,133.87757500244737L111.01015625,142.95749176771483L111.309375,149.3071671797696L111.60859375,149.00816311192776L111.9078125,152.69813128778873L112.20703125,143.81086790841542L112.50625,123.98544652629916L112.80546875,131.89618374275037L113.1046875,120.37032105220216L113.40390625,127.23347914144193L113.703125,119.75490016242189L114.00234375000001,105.1913905812953L114.3015625,112.13838559611378L114.60078125,117.36696801427341L114.9,117.5515967132161L115.19921875,108.55722145566408L115.49843750000001,105.07698978923648L115.79765625,124.56249358945102L116.096875,130.042237475581L116.39609375,124.84007664949986L116.6953125,130.50332244566587L116.99453125000001,139.22082586486027L117.29375,147.22456427779395L117.59296875000001,150.58172897860814L117.8921875,148.36651702361735L118.19140625,138.10425414172718L118.49062500000001,118.66782065131817L118.78984375,116.04978019263748L119.08906250000001,125.40125955068552L119.38828125,132.03152943424658L119.6875,142.8102218153776L119.98671875000001,150.28120394549435L120.2859375,152.39872225632374L120.58515625000001,145.78788947062654L120.884375,144.96969440902717L121.18359375000001,143.57636454136787L121.48281250000001,137.14194021807356L121.78203124999999,143.62488026188097L122.08125,146.94993037658884L122.38046874999999,149.80028104644333L122.67968749999999,152.47541565378947L122.97890625,115.246888519138L123.27812499999999,119.47916893357092L123.57734375,125.87317613153814L123.87656249999999,136.45020212112823L124.17578125,144.8963186714695L124.475,150.05709273874822L124.77421874999999,129.53501164688873L125.0734375,107.22431342900678L125.37265624999999,111.64666330820295L125.671875,126.17517200170094L125.97109375,136.720820863485L126.2703125,143.93014599376568L126.56953125,137.34522277248456L126.86874999999999,127.60649140718759L127.16796875,132.2445883146606L127.4671875,136.90465371234046L127.76640625,117.78051223139911L128.065625,119.00276029738005L128.36484375,119.82661067949347L128.6640625,131.96409412653477L128.96328125,142.51347872600968L129.2625,148.3560805661277L129.56171875,154.75980256996775L129.8609375,159.32599900691324L130.16015625,159.6437816662217L130.459375,158.3526419578296L130.75859375,151.0111701356351L131.0578125,141.9723920005926L131.35703125,138.36814228709198L131.65625,125.504067412383L131.95546875,135.65768836113713L132.2546875,142.2262830495302L132.55390625,150.06440780246314L132.853125,154.92186694932226L133.15234375,151.40488935682683L133.4515625,156.06066293982425L133.75078125,151.45161160888736L134.05,144.18899564075855L134.34921875,148.4321662498669L134.6484375,149.38331652903955L134.94765625,141.1936243390322L135.24687500000002,112.02328408939238L135.54609375,117.16758096056029L135.8453125,119.80862435980563L136.14453125,129.64941689216178L136.44375,138.23014529687396L136.74296875000002,142.24841793318464L137.0421875,126.80936403672196L137.34140625,88.26914919484922L137.640625,88.1213633405958L137.93984375,104.0977713956927L138.23906250000002,119.50856656832816L138.53828125,130.52711592643723L138.8375,130.3708122360824L139.13671875,118.60984418646478L139.4359375,108.90608096145273L139.73515625000002,82.19598844281629L140.034375,44.22711455006486L140.33359375,39.151093614626845L140.6328125,32.954524743438796L140.93203125,17.31139698606669L141.23125,20.893856124878692L141.53046874999998,-1.6906957688759918L141.8296875,31.483493194302895L142.12890625,58.705176593960964L142.428125,59.84993590133401L142.72734375,71.07823241482397L143.02656249999998,74.85218098165362L143.32578125,91.45188642546226L143.625,82.06569140339529L143.92421875,74.4321372319518L144.2234375,80.08805819588265L144.52265624999998,39.80516368617296L144.821875,33.17288758492825L145.12109375,40.078112489255915L145.4203125,48.58295036819834L145.71953125,46.03068952134518L146.01874999999998,53.45152167844991L146.31796875,60.86842526958788L146.6171875,62.13024178506599L146.91640625,63.11542700907226L147.215625,70.4056165126167L147.51484375,74.15928149537177L147.8140625,77.51198513479413L148.11328125,76.77968697487519L148.4125,75.22168347842658L148.71171875,83.68038169128181L149.0109375,92.59545879548637L149.31015625,91.45736627516105L149.609375,85.54339393057968L149.90859375,84.91114405765542L150.2078125,87.99884291763648L150.50703125,89.05123806814231L150.80625,99.46789050157435L151.10546875,107.81832307935379L151.4046875,118.82849606707241L151.70390625,127.66291184922778L152.003125,115.68439594653938L152.30234375,123.74269600631135L152.6015625,118.49610865936195L152.90078125,123.51087486802503L153.20000000000002,131.68460802850316L153.49921875,117.0638889848042L153.7984375,117.37338310679144L154.09765625,122.89037174972836L154.396875,117.56039298280913L154.69609375000002,125.05838184126583L154.9953125,134.1534062354413L155.29453125,133.31872220806173L155.59375,138.40278506045507L155.89296875,142.44574430065524L156.19218750000002,145.41889949454432L156.49140625,148.03105604970963L156.790625,151.50349829823853L157.08984375,149.7776000220895L157.3890625,147.32492377168757L157.68828125000002,149.48256246169865L157.9875,149.58888939463287L158.28671875,148.0799818634309L158.5859375,143.89414057402445L158.88515625,143.29465889386444L159.18437500000002,145.62772223839616L159.48359375,134.0147348167591L159.7828125,115.1245058403396L160.08203125,92.92532190130972L160.38125000000002,89.9690483986872L160.68046875000002,106.43706591332453L160.9796875,117.21866876940813L161.27890625,120.61730549859443L161.578125,116.29712141394711L161.87734375000002,111.95336662056292L162.17656250000002,119.44567165024974L162.47578125,127.30620941992603L162.775,130.83299905616371L163.07421875,135.9906219656585L163.37343750000002,137.97668685570898L163.67265625000002,131.7714574481201L163.971875,124.16402109751195L164.27109375,118.49109953705826L164.5703125,128.08210118397136L164.86953125000002,133.91679333644802L165.16875000000002,137.44972366255766L165.46796875,142.8902942916397L165.7671875,117.3002110653957L166.06640625000003,109.56626333579283L166.36562500000002,107.66632854701898L166.66484375000002,107.64631812430505L166.9640625,111.31020659058099L167.26328125,118.539305828017L167.56250000000003,123.99357306534708L167.86171875000002,128.1648633216301L168.16093750000002,131.06922272486736L168.46015624999998,134.21610999544944L168.75937499999998,136.27822334812186L169.05859374999997,141.03174391210464L169.3578125,146.21907103875787L169.65703125,149.8696642252611L169.95624999999998,123.52934747425455L170.25546874999998,119.4709121511011L170.55468749999997,111.44763851047604L170.85390625,121.89985557832048L171.153125,130.84360847083806L171.45234374999998,139.8037486451802L171.75156249999998,147.90951248167494L172.05078125,152.26870581331255L172.35,153.92862766279225L172.64921875,134.00929618219246L172.94843749999998,87.2493701564923L173.24765624999998,78.02578869767726L173.546875,82.09791451388334L173.84609375,92.06745148931377L174.1453125,98.25580986065138L174.44453124999998,101.9525218383545L174.74374999999998,114.46351583294873L175.04296875,120.08534272065008L175.3421875,122.14285186152702L175.64140625,120.89968733539992L175.94062499999998,123.39244745539492L176.23984374999998,121.35387834095721L176.5390625,120.34277466970198L176.83828125,113.10985763962307L177.1375,119.51337219208342L177.43671874999998,119.06964607359537L177.7359375,119.5501586158369L178.03515625,121.52273765884873L178.334375,128.70074780882135L178.63359375,130.9398170823987L178.93281249999998,132.7026692133952L179.23203125,136.67479533130432L179.53125,139.67218510449982L179.83046875,138.98077077949668L180.1296875,139.46052723154745L180.42890624999998,139.0362523075008L180.728125,138.687748421521L181.02734375,135.50692506498655L181.3265625,137.71691416097366L181.62578125,137.15745063170493L181.92499999999998,139.06589649319199L182.22421875,138.53695555394086L182.5234375,137.42349169173943L182.82265625,137.30618130765723L183.121875,140.21610957472222L183.42109374999998,143.97981389380368L183.7203125,147.85714492807918L184.01953125,149.2447434998163L184.31875,145.94806541585208L184.61796875,145.85207816330723L184.9171875,147.42022350487352L185.21640625,146.03080647730263L185.515625,142.80998779263155L185.81484375,140.2145715551956L186.1140625,139.51927166402993L186.41328125,142.951034433965L186.7125,146.16097904771914L187.01171875,145.4427588597394L187.3109375,144.1266499669443L187.61015625,140.27230678591934L187.909375,144.65598022966586L188.20859375,148.58183443130093L188.5078125,149.81066904035012L188.80703125,153.41779679885494L189.10625,155.314153532083L189.40546875,157.36533094204827L189.7046875,154.2854533370684L190.00390625,146.36434784119703L190.303125,135.46042777432044L190.60234375000002,144.66171032226265L190.9015625,150.02303410573327L191.20078125,154.16645024637666L191.5,158.36623478294663L191.79921875,159.6618057445905L192.09843750000002,162.4479584689489L192.39765625,163.47469771098574L192.696875,161.5365156813678L192.99609375,153.1420765341758L193.2953125,135.1405637472101L193.59453125000002,140.9072819184255L193.89375,147.07833244118305L194.19296875,149.75937073601668L194.4921875,140.72230168521799L194.79140625,136.38362348716058L195.09062500000002,144.7777043879284L195.38984375,150.74003821558725L195.6890625,153.96157053677416L195.98828125,156.3991968497635L196.2875,151.143886839883L196.58671875000002,154.76716956176003L196.8859375,156.77491688265278L197.18515625,160.26037110571045L197.484375,156.4755744145804L197.78359375000002,152.20251550279673L198.08281250000002,154.67828531375181L198.38203125,155.66419636358853L198.68125,160.9571581768179L198.98046875,156.90130712421924L199.27968750000002,154.3652149829832L199.57890625000002,151.9085407773433L199.878125,153.20148710401233L200.17734375,151.69001624145577L200.4765625,148.49010060957508L200.77578125000002,152.7546524622472L201.07500000000002,157.34149220533118L201.37421875,162.6757626882554L201.6734375,160.89407511117759L201.97265625,154.66387204646517L202.27187500000002,150.94480316395865L202.57109375000002,146.50798214029643L202.8703125,147.89812923890085L203.16953125,144.9778029916716L203.46875000000003,141.1627809826806L203.76796875000002,146.640302755979L204.06718750000002,153.22287905237994L204.36640625,156.79784763739397L204.665625,160.7273247489845L204.96484375000003,162.32495519651417L205.26406250000002,161.77972487128213L205.56328125000002,155.20282415838722L205.86249999999998,156.6231354795848L206.16171874999998,159.25898343840785L206.46093749999997,159.71671152966402L206.76015625,159.6041019577486L207.059375,162.6093164769396L207.35859374999998,158.17824913243496L207.65781249999998,158.75099993888912L207.95703124999997,157.6256576692994L208.25625,160.1503668583269L208.55546875,161.79871038266285L208.85468749999998,166.03958472791086L209.15390624999998,157.93660040173245L209.453125,157.96282610796055L209.75234375,162.34551876269902L210.0515625,168.64435071962234L210.35078124999998,168.98213599995526L210.64999999999998,168.3086658107332L210.94921875,166.15156439899332L211.2484375,165.21125641061403L211.54765625,155.2313264893016L211.84687499999998,155.11526378908863L212.14609374999998,156.9743942575619L212.4453125,156.79255281430284L212.74453125,150.66836089001987L213.04375,132.67844628809573L213.34296874999998,133.96014338986728L213.64218749999998,137.26408874166177L213.94140625,143.58959698833849L214.240625,149.0084789849066L214.53984375,152.39538862718322L214.83906249999998,151.09989630663674L215.13828125,154.93724657748345L215.4375,155.8736383406661L215.73671875,156.6085213833059L216.0359375,155.46044447282782L216.33515624999998,162.6415005038316L216.634375,163.08866950062992L216.93359375,160.80308906277156L217.2328125,158.7913552243285L217.53203125,159.52756914933443L217.83124999999998,143.04516531328682L218.13046875,146.67286251583093L218.4296875,150.1778843796158L218.72890625,134.8503396920452L219.028125,143.47092963420783L219.32734374999998,152.22685987125632L219.6265625,151.9567302693449L219.92578125,155.86069088266527L220.225,150.3172057671702L220.52421875,155.18953305502885L220.82343749999998,164.28309183674608L221.12265625,165.334458595478L221.421875,162.57350868667245L221.72109375,160.59028857271022L222.0203125,160.87401428576038L222.31953125,162.85614657527356L222.61875,168.88296173777786L222.91796875,172.15354413251052L223.2171875,168.35011542659433L223.51640625,164.32741350533524L223.815625,163.25923552330053L224.11484375,163.1099244704965L224.4140625,137.1172544536936L224.71328125,130.5885025856572L225.0125,138.02823749333317L225.31171875,139.77663931773276L225.6109375,146.7217847048087L225.91015625,155.80099906773611L226.209375,163.0736339421509L226.50859375,165.40674916855764L226.8078125,162.9041014365037L227.10703125,159.10466733828707L227.40625,162.93874700275927L227.70546875,167.14473596133237L228.00468750000002,169.02057792711906L228.30390625,173.13322327660174L228.603125,174.78894830367426L228.90234375,171.5441808607556L229.2015625,172.48944131119768L229.50078125000002,173.92640432196373L229.8,165.24643929506033L230.09921875,160.58932642327196L230.3984375,162.21500082777354L230.69765625,164.88754264421382L230.99687500000002,161.14278504142874L231.29609375,151.21896403799644L231.5953125,117.77096083135602L231.89453125,125.83605866545058L232.19375,137.44284530447274L232.49296875000002,146.96075001826617L232.7921875,151.55964481298375L233.09140625,127.97090374237122L233.390625,137.614506911616L233.68984375,142.91442558251637L233.98906250000002,146.07380155645222L234.28828125,149.6758943704835L234.5875,150.25084412850472L234.88671875,155.3287058290205L235.18593750000002,162.64407075415954L235.48515625000002,166.53693073374558L235.784375,168.45686996590422L236.08359375,165.12073286377557L236.3828125,164.0706180962837L236.68203125000002,167.11241729997548L236.98125000000002,168.86958383612875L237.28046875,170.85109489507204L237.5796875,168.8249133623805L237.87890625,162.33300870856831L238.17812500000002,161.12241764080167L238.47734375000002,162.79791402997117L238.7765625,151.38127360885636L239.07578125,156.59338208523565L239.375,158.48745930485245L239.67421875000002,156.97529918021266L239.97343750000002,162.73427896214034L240.27265625,163.15818434283818L240.571875,162.40173877509216L240.87109375000003,164.41090798895448L241.17031250000002,167.340211008749L241.46953125000002,169.65023034282044L241.76875,171.8041055463351L242.06796875,170.72527061206944L242.36718750000003,169.42545500307259L242.66640625000002,170.6254526116625L242.96562500000002,170.26350842779294L243.26484374999998,168.28016232984683L243.56406249999998,157.19852758478658L243.86328124999997,149.92016080690897L244.1625,157.9272010762087L244.46171875,163.02217924391414L244.76093749999998,166.04258250417865L245.06015624999998,169.42369791781263L245.35937499999997,173.37696128220378L245.65859375,169.224558505384L245.9578125,166.62690151835835L246.25703124999998,166.51819801772677L246.55624999999998,159.5400919507283L246.85546875,122.34800814007478L247.1546875,109.09567955112601L247.45390625,104.81516835079297L247.75312499999998,108.99892489630683L248.05234374999998,116.67724412013513L248.3515625,123.81277902268477L248.65078125,133.9180190870838L248.95,142.74948893138733L249.24921874999998,147.1047584445035L249.54843749999998,144.7282553463541L249.84765625,150.38258919414065L250.146875,157.36352901364367L250.44609375,153.31188571873307L250.74531249999998,150.96369171177966L251.04453124999998,159.85103218793432L251.34375,160.67618466476708L251.64296875,161.3724125145029L251.9421875,153.438668844373L252.24140624999998,150.29188394600595L252.540625,153.52012104587075L252.83984375,155.15010446567942L253.1390625,160.95433602812932L253.43828125,165.71430693914323L253.73749999999998,169.16918086536822L254.03671875,156.49109037291421L254.3359375,156.34749513283933L254.63515625,143.76633066457595L254.934375,152.53074372234295L255.23359374999998,160.35383108780914L255.5328125,165.01851480591702L255.83203125,152.97325515707658L256.13125,147.6474665552722L256.43046875,149.80297689250276L256.7296875,147.12329975189027L257.02890625,142.32996684509718L257.328125,151.43641061575863L257.62734375,160.95580666331168L257.9265625,165.0284972037755L258.22578125,132.99696559854362L258.525,142.94802455177532L258.82421875,138.98593148577055L259.1234375,144.23064386349708L259.42265625,148.12716583691932L259.721875,154.2249933498078L260.02109375,159.32213895422046L260.3203125,151.90498325712053L260.61953125,159.26266130769912L260.91875,159.05137730219758L261.21796875,163.02109071903158L261.5171875,168.0580562646931L261.81640625,173.64575544516183L262.115625,171.5208955389366L262.41484375,166.92143513941312L262.7140625,169.048154718236L263.01328125,166.62948431709208L263.3125,162.55668367663645L263.61171875,121.98268518822618L263.9109375,134.9645006947893L264.21015625,147.10871279036442L264.509375,140.6405278562145L264.80859375,145.29877871656967L265.1078125,157.9447951285567L265.40703125,163.86497666431453L265.70625,168.71965960476774L266.00546875,167.34653630795992L266.3046875,162.18664160011696L266.60390625,165.30167390271927L266.903125,169.40141144612372L267.20234375,168.38104489901292L267.5015625,167.35569991525998L267.80078125,168.01154117607365L268.1,168.8775396071001L268.39921875,162.77505781077997L268.6984375,155.5016585545433L268.99765625000003,160.04890273659672" fill="none"></path></g></g></g></g><g opacity="0.2"><g><g><g><path style="fill: none;" stroke="rgb(255, 112, 67)" stroke-width="2px" d="M32.315625,-10.697400179776263L32.61484375,6.448541814630673L32.9140625,10.36372791637074L33.21328125,-15.29392589222303L33.5125,9.15744989568536L33.811718750000004,1.3420548872514133L34.1109375,14.427458329634225L34.41015625,4.226638100363988L34.709375,22.932540893554688L35.00859375,8.380599975585938L35.3078125,20.25309614701704L35.60703125,-10.159939852627826L35.90625,-17.061603199351936L36.20546875,1.7098555131392117L36.504687499999996,6.873059359463784L36.80390625,16.378176602450278L37.103125,-26.140729730779462L37.40234375,-18.862672285600148L37.7015625,11.879370949485082L38.00078125,2.700437372381046L38.300000000000004,-14.123985984108668L38.59921875,14.3577284379439L38.8984375,24.21321383389559L39.19765625,19.31432065096769L39.496875,18.360567959872153L39.796093750000004,21.328998912464492L40.095312500000006,22.261636213822804L40.39453125,27.8291015625L40.69375,27.226085316051133L40.99296875,28.18720384077593L41.292187500000004,33.68457100608133L41.591406250000006,16.226685957475148L41.89062500000001,40.59421400590376L42.189843749999994,13.864708640358668L42.489062499999996,39.62732557816938L42.78828125,-31.800022472034783L43.0875,-8.493665521795089L43.38671875,15.453273426402697L43.685937499999994,2.758381930264565L43.985156249999996,21.928577769886367L44.284375,40.20247442072089L44.58359375,-7.754504117098736L44.8828125,17.097327492453832L45.18203125,4.91362485018644L45.481249999999996,1.7756569602272692L45.78046875,12.428371082652697L46.0796875,-8.985212152654464L46.37890625,14.694347034801135L46.678125,-10.33156377618962L46.97734375,23.61903658780184L47.2765625,25.238783402876415L47.57578125,21.002938010475855L47.875,22.391765941273086L48.17421875,29.680012789639566L48.4734375,24.567510431463077L48.772656250000004,25.75942507657137L49.071875,20.34062680331144L49.37109375,4.3212890625L49.6703125,23.21870353005149L49.96953125,24.501708984375L50.268750000000004,12.138157237659803L50.567968750000006,19.05000998757102L50.86718750000001,32.933624267578125L51.16640625,9.833633422851562L51.465624999999996,19.800588434392765L51.76484375,29.471314170143824L52.0640625,29.740289861505673L52.36328125,3.3904932195490147L52.662499999999994,18.93019242720171L52.961718749999996,37.886042508212L53.2609375,38.039374611594454L53.56015625,40.035515525124296L53.859375,15.945679404518824L54.15859375,-5.372516285289436L54.457812499999996,20.12935014204546L54.75703125,-21.58925836736507L55.05625,4.6564344926314L55.35546875,13.306623979048288L55.6546875,20.058760903098364L55.95390625,22.777612859552548L56.253125,45.22585019198331L56.55234375,27.737028642134227L56.8515625,-3.877743114124627L57.15078125,1.8232893510298367L57.45,16.460305647416554L57.749218750000004,9.090052517977622L58.0484375,28.00404011119496L58.34765625,47.350156610662296L58.646875,23.76475732976739L58.94609375,23.14835981889204L59.245312500000004,40.90664811567827L59.544531250000006,30.01982324773614L59.84375,29.46542150324042L60.14296875,43.91276758367364L60.4421875,17.04318861527876L60.741406250000004,36.591742775656954L61.040625,-2.2389678955078125L61.33984374999999,12.498100974343043L61.639062499999994,37.968662608753554L61.938281249999996,29.689956665039062L62.2375,34.165928233753554L62.53671875,34.523171164772734L62.8359375,26.071736422452066L63.13515625,38.650002219460234L63.434374999999996,32.70945739746094L63.73359375,28.7149658203125L64.0328125,50.07502399791371L64.33203125,53.61835826526988L64.63125,66.33878465132281L64.93046875,74.23238026012073L65.2296875,69.4291201504794L65.52890625,62.234910444779835L65.828125,49.8956659490412L66.12734375,58.76167436079546L66.4265625,40.06620649857954L66.72578125,38.60212430087003L67.025,70.61833398992364L67.32421875,66.86519622802734L67.62343750000001,55.0911566994407L67.92265625,25.84781508012251L68.221875,22.95107824152167L68.52109375,48.85708340731534L68.8203125,49.975339716131046L69.11953125000001,28.86326460404829L69.41875,25.56251179088246L69.71796875,29.882204922762778L70.0171875,40.50484189120206L70.31640625,45.09682533957742L70.615625,18.606218511408017L70.91484375,34.60628232088956L71.2140625,48.2635199806907L71.51328124999999,64.60253490101208L71.8125,76.18825461647727L72.11171875,69.84504422274503L72.4109375,49.18474023992364L72.71015625,53.52333901145242L73.00937499999999,73.70658250288531L73.30859375,73.59511288729581L73.6078125,91.42632293701172L73.90703125,78.0810283314098L74.20625,85.61897693980823L74.50546875,91.23051452636719L74.8046875,82.21166506680575L75.10390625,90.07972578568891L75.403125,52.69713800603692L75.70234375,58.67868596857245L76.0015625,44.50142045454546L76.30078125,59.189138239080265L76.60000000000001,63.33634810014204L76.89921875,36.01217443292792L77.1984375,59.45664076371626L77.49765625,69.78157528963956L77.796875,61.11898664994673L78.09609375000001,98.68449263139203L78.3953125,80.05691320245917L78.69453125,66.27789375998758L78.99375,104.44482005726208L79.29296875,92.96173095703125L79.59218750000001,89.40452436967328L79.89140625,98.04317405007102L80.19062500000001,93.67646234685725L80.48984375,85.45766518332742L80.7890625,110.82633278586648L81.08828125000001,83.28081581809305L81.3875,94.64408735795453L81.68671875000001,111.23059428821911L81.9859375,97.09101728959516L82.28515625,97.65180275656961L82.58437500000001,109.37145788019353L82.88359375,100.73870086669922L83.18281250000001,108.08587438409978L83.48203125,93.64847217906605L83.78125000000001,109.12433416193181L84.08046875000001,106.25656960227273L84.37968749999999,108.8661616932262L84.67890625,106.37196766246448L84.97812499999999,98.6346504905007L85.27734374999999,72.34770896218039L85.5765625,105.86323408647016L85.87578124999999,80.25861428000711L86.175,97.61251831054688L86.47421874999999,101.98794625022195L86.7734375,107.87410666725852L87.07265625,75.35505606911399L87.37187499999999,99.412973577326L87.67109375,112.62605146928266L87.97031249999999,110.00725208629261L88.26953125,89.09663252397016L88.56875,109.42289595170453L88.86796875,46.54543928666548L89.1671875,77.7539853182706L89.46640624999999,76.98327359286222L89.765625,91.29729808460583L90.06484375,112.08564480868252L90.3640625,130.7739923650568L90.66328125,113.64376414905895L90.96249999999999,122.2312212857333L91.26171875,126.64237351851031L91.5609375,103.14634635231711L91.86015625,120.64130609685725L92.159375,127.70845517245205L92.45859375,128.44602064652875L92.7578125,126.08109699596058L93.05703125,72.8505498712713L93.35625,59.60334361683238L93.65546875,82.71205069802024L93.9546875,116.2876073663885L94.25390625,136.2824082808061L94.553125,128.41250610351562L94.85234375,117.999304337935L95.1515625,131.928955078125L95.45078125,113.96908846768467L95.75,121.3365180275657L96.04921875000001,132.3517539284446L96.3484375,120.43052049116656L96.64765625,126.74316267533735L96.946875,140.35694191672584L97.24609375,124.78716555508701L97.54531250000001,134.9297956986861L97.84453125,110.52065069025213L98.14375,117.20735445889561L98.44296875,116.83979936079547L98.7421875,131.53242770108312L99.04140625000001,144.16483237526634L99.340625,122.09114768288352L99.63984375000001,98.65367889404297L99.9390625,48.907907659357235L100.23828125,102.37673950195312L100.53750000000001,129.03467351740056L100.83671875,130.04723011363637L101.13593750000001,144.9383676702326L101.43515625,151.42410694469106L101.73437500000001,142.59627810391513L102.03359375000001,129.5264656760476L102.3328125,141.45715193314985L102.63203125000001,127.9785357388583L102.93124999999999,141.49545426802203L103.23046874999999,136.2168523615057L103.5296875,150.45255348899147L103.82890624999999,150.91242703524503L104.128125,132.23635586825282L104.42734374999999,145.7902263294567L104.7265625,123.06208731911399L105.02578125,128.6533688631925L105.32499999999999,145.01448128440163L105.62421875,123.93260609019886L105.92343749999999,129.78868935324928L106.22265625,150.9893999966708L106.521875,144.08012528852984L106.82109374999999,153.5002899169922L107.1203125,133.68226900967684L107.41953124999999,156.7640907981179L107.71875,92.64217654141514L108.01796875,81.23655145818536L108.3171875,121.31822620738636L108.61640625,118.28865883567117L108.91562499999999,138.71902604536578L109.21484375,149.1102530739524L109.5140625,159.1356436989524L109.81328125,151.47677265514028L110.1125,112.11253010142933L110.41171874999999,123.37992304021662L110.7109375,140.83117883855647L111.01015625,156.57736691561612L111.309375,158.83168029785156L111.60859375,148.55965701016513L111.9078125,158.23308355158025L112.20703125,130.47997283935547L112.50625,94.247314453125L112.80546875,143.7622895674272L113.1046875,103.08152701637961L113.40390625,137.52821627530184L113.703125,108.53703169389203L114.00234375000001,83.34612620960583L114.3015625,122.55887811834162L114.60078125,125.2098416415128L114.9,117.82853976162998L115.19921875,95.06565856933594L115.49843750000001,99.85664228959516L115.79765625,153.79074928977272L116.096875,138.26185330477628L116.39609375,117.0368354103782L116.6953125,138.99819113991478L116.99453125000001,152.29708099365234L117.29375,159.2301718971946L117.59296875000001,155.61747602982953L117.8921875,145.04369909113103L118.19140625,122.71085981889203L118.49062500000001,89.5131704157049L118.78984375,112.12271950461648L119.08906250000001,139.42847858775747L119.38828125,141.97693425958806L119.6875,158.97826038707387L119.98671875000001,161.48767714066938L120.2859375,155.57499972256747L120.58515625000001,135.87164029208097L120.884375,143.7424018166282L121.18359375000001,141.48636973987925L121.48281250000001,127.49030373313211L121.78203124999999,153.34929032759234L122.08125,151.93750554865056L122.38046874999999,154.07580705122515L122.67968749999999,156.48811756480825L122.97890625,59.40409781716086L123.27812499999999,125.82758955522016L123.57734375,135.464186928489L123.87656249999999,152.31574110551313L124.17578125,157.56549349698153L124.475,157.7982538396662L124.77421874999999,98.75189000909978L125.0734375,73.75826610218395L125.37265624999999,118.2801881269975L125.671875,147.9679350419478L125.97109375,152.53929415616122L126.2703125,154.74413368918678L126.56953125,127.46783794056286L126.86874999999999,112.99839435924183L127.16796875,139.20173367587003L127.4671875,143.8947518088601L127.76640625,89.09430000998758L128.065625,120.8361323963512L128.36484375,121.06238625266336L128.6640625,150.17031929709694L128.96328125,158.33755562522194L129.2625,157.11998332630503L129.56171875,164.36538557572797L129.8609375,166.1752936623313L130.16015625,160.12045565518466L130.459375,156.41593239524147L130.75859375,139.99896240234375L131.0578125,128.41422479802912L131.35703125,132.96176771684125L131.65625,106.20795510031961L131.95546875,150.88811978426847L132.2546875,152.07917508212003L132.55390625,161.82159493186256L132.853125,162.20805566961116L133.15234375,146.12942296808416L133.4515625,163.04432331431997L133.75078125,144.53803461248225L134.05,133.29507168856534L134.34921875,154.79692216352984L134.6484375,150.81004194779828L134.94765625,128.90908605402166L135.24687500000002,68.26777371493253L135.54609375,124.8840262673118L135.8453125,123.77018945867366L136.14453125,144.41060569069603L136.44375,151.10123790394175L136.74296875000002,148.27582688765094L137.0421875,103.6507831920277L137.34140625,30.45882693204012L137.640625,87.8996845592152L137.93984375,128.06238347833806L138.23906250000002,142.6247593272816L138.53828125,147.05493996360084L138.8375,130.13635670055044L139.13671875,100.96839211203836L139.4359375,94.35043612393467L139.73515625000002,42.130849664861515L140.034375,-12.7261962890625L140.33359375,31.537062211470165L140.6328125,23.659671436656602L140.93203125,-6.153294649991108L141.23125,26.267544833096597L141.53046874999998,-35.567523609508186L141.8296875,81.24477663907138L142.12890625,99.53770169344814L142.428125,61.56707486239347L142.72734375,87.9206771850586L143.02656249999998,80.51310383189808L143.32578125,116.35144459117542L143.625,67.98639887029474L143.92421875,62.98180597478692L144.2234375,88.57193964177912L144.52265624999998,-20.619178078391332L144.821875,23.224473433061085L145.12109375,50.43594984574751L145.4203125,61.34020718661222L145.71953125,42.20229825106534L146.01874999999998,64.58276991410688L146.31796875,71.99378065629438L146.6171875,64.02296655828302L146.91640625,64.59320484508167L147.215625,81.34090076793323L147.51484375,79.78977896950461L147.8140625,82.54104059392755L148.11328125,75.68123973499645L148.4125,72.88467823375355L148.71171875,96.36842901056463L149.0109375,105.96807445179333L149.31015625,89.75022749467328L149.609375,76.67243541370739L149.90859375,83.96276924826883L150.2078125,92.6303912076083L150.50703125,90.62983079390094L150.80625,115.0928691517223L151.10546875,120.34397194602273L151.4046875,135.34375554865056L151.70390625,140.91453552246094L152.003125,97.71662209250711L152.30234375,135.83014609596947L152.6015625,110.6262276389382L152.90078125,131.0330241810192L153.20000000000002,143.94520776922053L153.49921875,95.13281041925603L153.7984375,117.83762428977273L154.09765625,131.16585471413353L154.396875,109.56542483243076L154.69609375000002,136.30536512895063L154.9953125,147.79594282670453L155.29453125,132.0666961669922L155.59375,146.02887933904475L155.89296875,148.51018316095525L156.19218750000002,149.8786322853782L156.49140625,151.94929088245738L156.790625,156.7121616710316L157.08984375,147.18875260786578L157.3890625,143.64590939608487L157.68828125000002,152.7190204967152L157.9875,149.7483797940341L158.28671875,145.8166205666282L158.5859375,137.61537863991478L158.88515625,142.39543637362394L159.18437500000002,149.12731725519353L159.48359375,116.59525368430398L159.7828125,86.78916237571023L160.08203125,59.62654599276456L160.38125000000002,85.5346381447532L160.68046875000002,131.13909218528053L160.9796875,133.39107305353338L161.27890625,125.71526059237392L161.578125,109.8168452869762L161.87734375000002,105.4377344304865L162.17656250000002,130.68412919477984L162.47578125,139.0970160744407L162.775,136.12318351052025L163.07421875,143.72705632990056L163.37343750000002,140.9557841907848L163.67265625000002,122.4636133367365L163.971875,112.75286657159978L164.27109375,109.98171719637783L164.5703125,142.46860365434125L164.86953125000002,142.66883156516334L165.16875000000002,142.7491191517223L165.46796875,151.05115023526278L165.7671875,78.91508622602984L166.06640625000003,97.9653417413885L166.36562500000002,104.8164263638583L166.66484375000002,107.61630249023438L166.9640625,116.80603928999469L167.26328125,129.38295468417078L167.56250000000003,132.17497392134234L167.86171875000002,134.4217987060547L168.16093750000002,135.425761829723L168.46015624999998,138.9364409013228L168.75937499999998,139.3713933771307L169.05859374999997,148.16202475807884L169.3578125,154.00006172873756L169.65703125,155.34555400501597L169.95624999999998,84.01887234774503L170.25546874999998,113.38325916637073L170.55468749999997,99.41272804953836L170.85390625,137.578181180087L171.153125,144.2592378096147L171.45234374999998,153.2439589066939L171.75156249999998,160.0681582364169L172.05078125,158.8074958107688L172.35,156.41851043701172L172.64921875,104.13029896129261L172.94843749999998,17.109481117942114L173.24765624999998,64.19041650945489L173.546875,88.20610323819247L173.84609375,107.02175695245916L174.1453125,107.53834741765803L174.44453124999998,107.49758980490945L174.74374999999998,133.2300068248402L175.04296875,128.51808305220172L175.3421875,125.22911557284267L175.64140625,119.03494054620916L175.94062499999998,127.13158763538708L176.23984374999998,118.29602466930042L176.5390625,118.82611916281961L176.83828125,102.26048209450461L177.1375,129.11864402077416L177.43671874999998,118.40405689586292L177.7359375,120.27092742919922L178.03515625,124.48160622336648L178.334375,139.4677630337802L178.63359375,134.29842099276456L178.93281249999998,135.3469474098899L179.23203125,142.63298450816762L179.53125,144.1682697642933L179.83046875,137.9436492919922L180.1296875,140.1801619096236L180.42890624999998,138.3998399214311L180.728125,138.1649925925515L181.02734375,130.73569003018468L181.3265625,141.03189780495384L181.62578125,136.31825533780184L181.92499999999998,141.9285652854226L182.22421875,137.7435441450639L182.5234375,135.7532958984375L182.82265625,137.1302157315341L183.121875,144.5810019753196L183.42109374999998,149.62537037242544L183.7203125,153.6731414794922L184.01953125,151.32614135742188L184.31875,141.0030482899059L184.61796875,145.7080972844904L184.9171875,149.772441517223L185.21640625,143.94668093594638L185.515625,137.978759765625L185.81484375,136.3214471990412L186.1140625,138.4763218272816L186.41328125,148.0986785888672L186.7125,150.9758959683505L187.01171875,144.36542857776988L187.3109375,142.15248662775213L187.61015625,134.4907920143821L187.909375,151.23149039528587L188.20859375,154.47061573375356L188.5078125,151.653920953924L188.80703125,158.82848843661222L189.10625,158.15868863192472L189.40546875,160.44209705699575L189.7046875,149.66563692959872L190.00390625,134.4826895973899L190.303125,119.10454767400569L190.60234375000002,158.46363414417613L190.9015625,158.06501978093928L191.20078125,160.38157445734197L191.5,164.66591158780184L191.79921875,161.6051621870561L192.09843750000002,166.6271875554865L192.39765625,165.0148065740412L192.696875,158.6292426369407L192.99609375,140.55041781338778L193.2953125,108.13829456676136L193.59453125000002,149.5573591752486L193.89375,156.3349082253196L194.19296875,153.78092817826703L194.4921875,127.16669810901989L194.79140625,129.87560619007456L195.09062500000002,157.36882573908025L195.38984375,159.68353895707563L195.6890625,158.7938690185547L195.98828125,160.05563631924716L196.2875,143.26092182506216L196.58671875000002,160.20209364457563L196.8859375,159.78653786399147L197.18515625,165.48855244029653L197.484375,150.7983793778853L197.78359375000002,145.79292713512075L198.08281250000002,158.39194003018466L198.38203125,157.1430629383434L198.68125,168.89660089666194L198.98046875,150.81753054532138L199.27968750000002,150.56107677112925L199.57890625000002,148.22352946888316L199.878125,155.14090659401634L200.17734375,149.42280994762075L200.4765625,143.69022716175425L200.77578125000002,159.1514802412553L201.07500000000002,164.22175181995738L201.37421875,170.67716841264203L201.6734375,158.2215437455611L201.97265625,145.3185674493963L202.27187500000002,145.36619984019887L202.57109375000002,139.8527506048029L202.8703125,149.98334988680753L203.16953125,140.5973136208274L203.46875000000003,135.4402479691939L203.76796875000002,154.85658541592684L204.06718750000002,163.09674349698153L204.36640625,162.16030051491478L204.665625,166.62154041637075L204.96484375000003,164.72140086780894L205.26406250000002,160.96187938343394L205.56328125000002,145.33747308904475L205.86249999999998,158.7536024613814L206.16171874999998,163.2127553766424L206.46093749999997,160.40330366654828L206.76015625,159.43518759987572L207.059375,167.11713825572622L207.35859374999998,151.53164811567828L207.65781249999998,159.61012614857066L207.95703124999997,155.93764426491478L208.25625,163.9374306418679L208.55546875,164.27122566916725L208.85468749999998,172.40089624578303L209.15390624999998,145.7821239124645L209.453125,158.0021646673029L209.75234375,168.91955774480647L210.0515625,178.0925986550071L210.35078124999998,169.48881392045453L210.64999999999998,167.29846052689985L210.94921875,162.91591228138316L211.2484375,163.8007944280451L211.54765625,140.2614316073331L211.84687499999998,154.94116973876953L212.14609374999998,159.76308996027166L212.4453125,156.51979064941406L212.74453125,141.48207300359553L213.04375,105.69357438520953L213.34296874999998,135.88268904252485L213.64218749999998,142.2200067693537L213.94140625,153.07785935835406L214.240625,157.13680197975853L214.53984375,157.47575309059837L214.83906249999998,149.15665782581675L215.13828125,160.69327198375356L215.4375,157.27822598544034L215.73671875,157.71084594726562L216.0359375,153.73832910711116L216.33515624999998,173.41308455033735L216.634375,163.7594229958274L216.93359375,157.37471840598366L217.2328125,155.77375446666372L217.53203125,160.63189003684303L217.83124999999998,118.3215595592152L218.13046875,152.11440831964666L218.4296875,155.43541717529297L218.72890625,111.85902266068891L219.028125,156.40181454745206L219.32734374999998,165.36075522682884L219.6265625,151.55153586647728L219.92578125,161.7166318026456L220.225,142.00197809392756L220.52421875,162.4980239868164L220.82343749999998,177.92343000932172L221.12265625,166.911508733576L221.421875,158.43208382346413L221.72109375,157.6154584017667L222.0203125,161.2996028553356L222.31953125,165.8293450095437L222.61875,177.92318448153407L222.91796875,177.05941772460938L223.2171875,162.64497236772016L223.51640625,158.29336062344638L223.815625,161.6569685502486L224.11484375,162.88595789129084L224.4140625,98.12824942848899L224.71328125,120.79537478360264L225.0125,149.1878398548473L225.31171875,142.39924205433238L225.6109375,157.1395027854226L225.91015625,169.41982061212713L226.209375,173.9825862537731L226.50859375,168.90642200816762L226.8078125,159.15012983842328L227.10703125,153.40551619096235L227.40625,168.68986649946734L227.70546875,173.45371939919212L228.00468750000002,171.834340875799L228.30390625,179.30219130082563L228.603125,177.27253584428266L228.90234375,166.67702969637784L229.2015625,173.90733198686078L229.50078125000002,176.08184883811256L229.8,152.22649175470525L230.09921875,153.6036571155895L230.3984375,164.65351243452594L230.69765625,168.89635536887428L230.99687500000002,155.5256486372514L231.29609375,136.333232532848L231.5953125,67.5989560213956L231.89453125,137.9337054165927L232.19375,154.85302526300603L232.49296875000002,161.23760708895597L232.7921875,158.45798700506037L233.09140625,92.58779213645242L233.390625,152.07991166548297L233.68984375,150.8643035888672L233.98906250000002,150.8128655173562L234.28828125,155.07903359153053L234.5875,151.11326876553622L234.88671875,162.94549837979403L235.18593750000002,173.6171181418679L235.48515625000002,172.376220703125L235.784375,171.3367788141424L236.08359375,160.11652721058238L236.3828125,162.49544594504616L236.68203125000002,171.67511610551313L236.98125000000002,171.50533364035866L237.28046875,173.82336148348722L237.5796875,165.7856410633434L237.87890625,152.59515172784978L238.17812500000002,159.30653103915128L238.47734375000002,165.31115861372515L238.7765625,134.25631297718394L239.07578125,164.4115447998047L239.375,161.32857513427734L239.67421875000002,154.70705899325284L239.97343750000002,171.37274863503197L240.27265625,163.79404241388494L240.571875,161.267070423473L240.87109375000003,167.42466180974787L241.17031250000002,171.73416553844106L241.46953125000002,173.11525934392756L241.76875,175.03491835160688L242.06796875,169.10701821067116L242.36718750000003,167.4757315895774L242.66640625000002,172.42544902454722L242.96562500000002,169.72059215198863L243.26484374999998,165.3051431829279L243.56406249999998,140.57607546719638L243.86328124999997,139.00261064009234L244.1625,169.93776148015803L244.46171875,170.6646464954723L244.76093749999998,170.57318739457563L245.06015624999998,174.4953710382635L245.35937499999997,179.30685632879084L245.65859375,162.99595434015447L245.9578125,162.7304160378196L246.25703124999998,166.35514276677912L246.55624999999998,149.0729328502308L246.85546875,66.55988242409445L247.1546875,89.21718666770242L247.45390625,98.39440155029297L247.75312499999998,115.27455971457742L248.05234374999998,128.19472295587713L248.3515625,134.51608137650922L248.65078125,149.07587918368253L248.95,155.9966936978427L249.24921874999998,153.6376627141779L249.54843749999998,141.16350069912997L249.84765625,158.8640899658203L250.146875,167.83493874289772L250.44609375,147.2344207763672L250.74531249999998,147.44140070134944L251.04453124999998,173.1820429021662L251.34375,161.91391338001597L251.64296875,162.41675428910688L251.9421875,141.5380533391779L252.24140624999998,145.57170659845525L252.540625,158.36247669566762L252.83984375,157.5950795953924L253.1390625,169.66068337180397L253.43828125,172.85426330566406L253.73749999999998,174.35149175470525L254.03671875,137.47395463423297L254.3359375,156.13210227272728L254.63515625,124.89458396218039L254.934375,165.67736330899325L255.23359374999998,172.08846213600853L255.5328125,172.01554038307884L255.83203125,134.9053656838157L256.13125,139.6587836525657L256.43046875,153.03624239834872L256.7296875,143.10378404097125L257.02890625,135.13996748490766L257.328125,165.09607627175072L257.62734375,175.23490073464134L257.9265625,171.13753301447088L258.22578125,84.94966819069602L258.525,157.87461298162287L258.82421875,133.04279188676313L259.1234375,152.097712430087L259.42265625,153.97194879705256L259.721875,163.37173461914062L260.02109375,166.96785736083984L260.3203125,140.77924971147016L260.61953125,170.29917838356712L260.91875,158.7344512939453L261.21796875,168.97566084428266L261.5171875,175.61350458318537L261.81640625,182.0273042158647L262.115625,168.33360567959872L262.41484375,160.02224454012784L262.7140625,172.23823408647016L263.01328125,163.0014787153764L263.3125,156.44748271595347L263.61171875,61.12168745561079L263.9109375,154.43722395463422L264.21015625,165.3250309337269L264.509375,130.93825045498937L264.80859375,152.28615500710228L265.1078125,176.91381974653765L265.40703125,172.745248967951L265.70625,176.00168401544744L266.00546875,165.2868513627486L266.3046875,154.44679953835228L266.60390625,169.97422235662287L266.903125,175.55101776123047L267.20234375,166.85049507834694L267.5015625,165.8176824396307L267.80078125,168.99530306729403L268.1,170.1765372536399L268.39921875,153.62133511629972L268.6984375,144.59155967018822L268.99765625000003,166.86976900967684" fill="none"></path></g></g></g></g></g><g><g><span fill="rgb(0, 0, 0)" stroke="none" stroke-width="1px">Alt + Scroll to Zoom</span></g></g></g><g transform="translate(30, 177)" clip-path="url(#clip_1)"><clipPath id="clip_1"><rect width="299" height="23"></rect></clipPath><g><g><line x1="0" y1="0" x2="0" y2="5" style="visibility: inherit;" fill="rgb(0, 0, 0)" stroke="rgb(204, 204, 204)" stroke-width="1px"></line><line x1="29.921875" y1="0" x2="29.921875" y2="5" style="visibility: inherit;" fill="rgb(0, 0, 0)" stroke="rgb(204, 204, 204)" stroke-width="1px"></line><line x1="59.84375" y1="0" x2="59.84375" y2="5" style="visibility: inherit;" fill="rgb(0, 0, 0)" stroke="rgb(204, 204, 204)" stroke-width="1px"></line><line x1="89.765625" y1="0" x2="89.765625" y2="5" style="visibility: inherit;" fill="rgb(0, 0, 0)" stroke="rgb(204, 204, 204)" stroke-width="1px"></line><line x1="119.6875" y1="0" x2="119.6875" y2="5" style="visibility: inherit;" fill="rgb(0, 0, 0)" stroke="rgb(204, 204, 204)" stroke-width="1px"></line><line x1="149.609375" y1="0" x2="149.609375" y2="5" style="visibility: inherit;" fill="rgb(0, 0, 0)" stroke="rgb(204, 204, 204)" stroke-width="1px"></line><line x1="179.53125" y1="0" x2="179.53125" y2="5" style="visibility: inherit;" fill="rgb(0, 0, 0)" stroke="rgb(204, 204, 204)" stroke-width="1px"></line><line x1="209.453125" y1="0" x2="209.453125" y2="5" style="visibility: inherit;" fill="rgb(0, 0, 0)" stroke="rgb(204, 204, 204)" stroke-width="1px"></line><line x1="239.375" y1="0" x2="239.375" y2="5" style="visibility: inherit;" fill="rgb(0, 0, 0)" stroke="rgb(204, 204, 204)" stroke-width="1px"></line><line x1="269.296875" y1="0" x2="269.296875" y2="5" style="visibility: inherit;" fill="rgb(0, 0, 0)" stroke="rgb(204, 204, 204)" stroke-width="1px"></line><line x1="299.21875" y1="0" x2="299.21875" y2="5" style="visibility: inherit;" fill="rgb(0, 0, 0)" stroke="rgb(204, 204, 204)" stroke-width="1px"></line></g><g transform="translate(0, 8)"><text x="0" y="0" dx="0em" dy="0.95em" style="text-anchor: middle; visibility: hidden; font-family: Roboto, sans-serif; font-size: 12px; font-weight: 200;" fill="rgb(33, 33, 33)" stroke="none" stroke-width="1px">-100</text><text x="29.921875" y="0" dx="0em" dy="0.95em" style="text-anchor: middle; visibility: inherit; font-family: Roboto, sans-serif; font-size: 12px; font-weight: 200;" fill="rgb(33, 33, 33)" stroke="none" stroke-width="1px">0</text><text x="59.84375" y="0" dx="0em" dy="0.95em" style="text-anchor: middle; visibility: inherit; font-family: Roboto, sans-serif; font-size: 12px; font-weight: 200;" fill="rgb(33, 33, 33)" stroke="none" stroke-width="1px">100</text><text x="89.765625" y="0" dx="0em" dy="0.95em" style="text-anchor: middle; visibility: inherit; font-family: Roboto, sans-serif; font-size: 12px; font-weight: 200;" fill="rgb(33, 33, 33)" stroke="none" stroke-width="1px">200</text><text x="119.6875" y="0" dx="0em" dy="0.95em" style="text-anchor: middle; visibility: inherit; font-family: Roboto, sans-serif; font-size: 12px; font-weight: 200;" fill="rgb(33, 33, 33)" stroke="none" stroke-width="1px">300</text><text x="149.609375" y="0" dx="0em" dy="0.95em" style="text-anchor: middle; visibility: inherit; font-family: Roboto, sans-serif; font-size: 12px; font-weight: 200;" fill="rgb(33, 33, 33)" stroke="none" stroke-width="1px">400</text><text x="179.53125" y="0" dx="0em" dy="0.95em" style="text-anchor: middle; visibility: inherit; font-family: Roboto, sans-serif; font-size: 12px; font-weight: 200;" fill="rgb(33, 33, 33)" stroke="none" stroke-width="1px">500</text><text x="209.453125" y="0" dx="0em" dy="0.95em" style="text-anchor: middle; visibility: inherit; font-family: Roboto, sans-serif; font-size: 12px; font-weight: 200;" fill="rgb(33, 33, 33)" stroke="none" stroke-width="1px">600</text><text x="239.375" y="0" dx="0em" dy="0.95em" style="text-anchor: middle; visibility: inherit; font-family: Roboto, sans-serif; font-size: 12px; font-weight: 200;" fill="rgb(33, 33, 33)" stroke="none" stroke-width="1px">700</text><text x="269.296875" y="0" dx="0em" dy="0.95em" style="text-anchor: middle; visibility: inherit; font-family: Roboto, sans-serif; font-size: 12px; font-weight: 200;" fill="rgb(33, 33, 33)" stroke="none" stroke-width="1px">800</text><text x="299.21875" y="0" dx="0em" dy="0.95em" style="text-anchor: middle; visibility: hidden; font-family: Roboto, sans-serif; font-size: 12px; font-weight: 200;" fill="rgb(33, 33, 33)" stroke="none" stroke-width="1px">900</text></g><line x1="0" y1="0" x2="299.21875" y2="0" fill="rgb(0, 0, 0)" stroke="rgb(204, 204, 204)" stroke-width="1px"></line></g></g></g></g></svg>