<svg viewBox="0 0 301 200" xmlns="http://www.w3.org/2000/svg"><g><g><g><g><g><line x1="30.78125" y1="177" x2="25.78125" y2="177" style="visibility: inherit;" fill="rgb(0, 0, 0)" stroke="rgb(204, 204, 204)" stroke-width="1px"></line><line x1="30.78125" y1="162.25" x2="25.78125" y2="162.25" style="visibility: inherit;" fill="rgb(0, 0, 0)" stroke="rgb(204, 204, 204)" stroke-width="1px"></line><line x1="30.78125" y1="147.5" x2="25.78125" y2="147.5" style="visibility: inherit;" fill="rgb(0, 0, 0)" stroke="rgb(204, 204, 204)" stroke-width="1px"></line><line x1="30.78125" y1="132.75" x2="25.78125" y2="132.75" style="visibility: inherit;" fill="rgb(0, 0, 0)" stroke="rgb(204, 204, 204)" stroke-width="1px"></line><line x1="30.78125" y1="118.00000000000001" x2="25.78125" y2="118.00000000000001" style="visibility: inherit;" fill="rgb(0, 0, 0)" stroke="rgb(204, 204, 204)" stroke-width="1px"></line><line x1="30.78125" y1="103.24999999999999" x2="25.78125" y2="103.24999999999999" style="visibility: inherit;" fill="rgb(0, 0, 0)" stroke="rgb(204, 204, 204)" stroke-width="1px"></line><line x1="30.78125" y1="88.5" x2="25.78125" y2="88.5" style="visibility: inherit;" fill="rgb(0, 0, 0)" stroke="rgb(204, 204, 204)" stroke-width="1px"></line><line x1="30.78125" y1="73.75" x2="25.78125" y2="73.75" style="visibility: inherit;" fill="rgb(0, 0, 0)" stroke="rgb(204, 204, 204)" stroke-width="1px"></line><line x1="30.78125" y1="59.00000000000001" x2="25.78125" y2="59.00000000000001" style="visibility: inherit;" fill="rgb(0, 0, 0)" stroke="rgb(204, 204, 204)" stroke-width="1px"></line><line x1="30.78125" y1="44.25" x2="25.78125" y2="44.25" style="visibility: inherit;" fill="rgb(0, 0, 0)" stroke="rgb(204, 204, 204)" stroke-width="1px"></line><line x1="30.78125" y1="29.499999999999993" x2="25.78125" y2="29.499999999999993" style="visibility: inherit;" fill="rgb(0, 0, 0)" stroke="rgb(204, 204, 204)" stroke-width="1px"></line><line x1="30.78125" y1="14.750000000000007" x2="25.78125" y2="14.750000000000007" style="visibility: inherit;" fill="rgb(0, 0, 0)" stroke="rgb(204, 204, 204)" stroke-width="1px"></line><line x1="30.78125" y1="0" x2="25.78125" y2="0" style="visibility: inherit;" fill="rgb(0, 0, 0)" stroke="rgb(204, 204, 204)" stroke-width="1px"></line></g><g transform="translate(20.78125, 0)"><text x="0" y="177" dx="0em" dy="0.3em" style="text-anchor: end; visibility: hidden; font-family: Roboto, sans-serif; font-size: 12px; font-weight: 200;" fill="rgb(33, 33, 33)" stroke="none" stroke-width="1px">-1</text><text x="0" y="162.25" dx="0em" dy="0.3em" style="text-anchor: end; visibility: inherit; font-family: Roboto, sans-serif; font-size: 12px; font-weight: 200;" fill="rgb(33, 33, 33)" stroke="none" stroke-width="1px">0</text><text x="0" y="147.5" dx="0em" dy="0.3em" style="text-anchor: end; visibility: hidden; font-family: Roboto, sans-serif; font-size: 12px; font-weight: 200;" fill="rgb(33, 33, 33)" stroke="none" stroke-width="1px">1</text><text x="0" y="132.75" dx="0em" dy="0.3em" style="text-anchor: end; visibility: inherit; font-family: Roboto, sans-serif; font-size: 12px; font-weight: 200;" fill="rgb(33, 33, 33)" stroke="none" stroke-width="1px">2</text><text x="0" y="118.00000000000001" dx="0em" dy="0.3em" style="text-anchor: end; visibility: hidden; font-family: Roboto, sans-serif; font-size: 12px; font-weight: 200;" fill="rgb(33, 33, 33)" stroke="none" stroke-width="1px">3</text><text x="0" y="103.24999999999999" dx="0em" dy="0.3em" style="text-anchor: end; visibility: inherit; font-family: Roboto, sans-serif; font-size: 12px; font-weight: 200;" fill="rgb(33, 33, 33)" stroke="none" stroke-width="1px">4</text><text x="0" y="88.5" dx="0em" dy="0.3em" style="text-anchor: end; visibility: hidden; font-family: Roboto, sans-serif; font-size: 12px; font-weight: 200;" fill="rgb(33, 33, 33)" stroke="none" stroke-width="1px">5</text><text x="0" y="73.75" dx="0em" dy="0.3em" style="text-anchor: end; visibility: inherit; font-family: Roboto, sans-serif; font-size: 12px; font-weight: 200;" fill="rgb(33, 33, 33)" stroke="none" stroke-width="1px">6</text><text x="0" y="59.00000000000001" dx="0em" dy="0.3em" style="text-anchor: end; visibility: hidden; font-family: Roboto, sans-serif; font-size: 12px; font-weight: 200;" fill="rgb(33, 33, 33)" stroke="none" stroke-width="1px">7</text><text x="0" y="44.25" dx="0em" dy="0.3em" style="text-anchor: end; visibility: inherit; font-family: Roboto, sans-serif; font-size: 12px; font-weight: 200;" fill="rgb(33, 33, 33)" stroke="none" stroke-width="1px">8</text><text x="0" y="29.499999999999993" dx="0em" dy="0.3em" style="text-anchor: end; visibility: hidden; font-family: Roboto, sans-serif; font-size: 12px; font-weight: 200;" fill="rgb(33, 33, 33)" stroke="none" stroke-width="1px">9</text><text x="0" y="14.750000000000007" dx="0em" dy="0.3em" style="text-anchor: end; visibility: inherit; font-family: Roboto, sans-serif; font-size: 12px; font-weight: 200;" fill="rgb(33, 33, 33)" stroke="none" stroke-width="1px">10</text><text x="0" y="0" dx="0em" dy="0.3em" style="text-anchor: end; visibility: hidden; font-family: Roboto, sans-serif; font-size: 12px; font-weight: 200;" fill="rgb(33, 33, 33)" stroke="none" stroke-width="1px">11</text></g><line x1="30.78125" y1="0" x2="30.78125" y2="177" fill="rgb(0, 0, 0)" stroke="rgb(204, 204, 204)" stroke-width="1px"></line></g></g><g transform="translate(30, 0)" clip-path="url(#clip_0)"><clipPath id="clip_0"><rect width="270" height="177"></rect></clipPath><g><g><g><line x1="0" y1="0" x2="0" y2="177" fill="rgb(0, 0, 0)" stroke="rgb(66, 66, 66)" stroke-width="1px" opacity="0.25"></line><line x1="22.518229166666664" y1="0" x2="22.518229166666664" y2="177" fill="rgb(0, 0, 0)" stroke="rgb(66, 66, 66)" stroke-width="1px" opacity="0.25"></line><line x1="45.03645833333333" y1="0" x2="45.03645833333333" y2="177" fill="rgb(0, 0, 0)" stroke="rgb(66, 66, 66)" stroke-width="1px" opacity="0.25"></line><line x1="67.5546875" y1="0" x2="67.5546875" y2="177" fill="rgb(0, 0, 0)" stroke="rgb(66, 66, 66)" stroke-width="1px" opacity="0.25"></line><line x1="90.07291666666666" y1="0" x2="90.07291666666666" y2="177" fill="rgb(0, 0, 0)" stroke="rgb(66, 66, 66)" stroke-width="1px" opacity="0.25"></line><line x1="112.59114583333334" y1="0" x2="112.59114583333334" y2="177" fill="rgb(0, 0, 0)" stroke="rgb(66, 66, 66)" stroke-width="1px" opacity="0.25"></line><line x1="135.109375" y1="0" x2="135.109375" y2="177" fill="rgb(0, 0, 0)" stroke="rgb(66, 66, 66)" stroke-width="1px" opacity="0.25"></line><line x1="157.62760416666669" y1="0" x2="157.62760416666669" y2="177" fill="rgb(0, 0, 0)" stroke="rgb(66, 66, 66)" stroke-width="1px" opacity="0.25"></line><line x1="180.14583333333331" y1="0" x2="180.14583333333331" y2="177" fill="rgb(0, 0, 0)" stroke="rgb(66, 66, 66)" stroke-width="1px" opacity="0.25"></line><line x1="202.6640625" y1="0" x2="202.6640625" y2="177" fill="rgb(0, 0, 0)" stroke="rgb(66, 66, 66)" stroke-width="1px" opacity="0.25"></line><line x1="225.18229166666669" y1="0" x2="225.18229166666669" y2="177" fill="rgb(0, 0, 0)" stroke="rgb(66, 66, 66)" stroke-width="1px" opacity="0.25"></line><line x1="247.70052083333331" y1="0" x2="247.70052083333331" y2="177" fill="rgb(0, 0, 0)" stroke="rgb(66, 66, 66)" stroke-width="1px" opacity="0.25"></line><line x1="270.21875" y1="0" x2="270.21875" y2="177" fill="rgb(0, 0, 0)" stroke="rgb(66, 66, 66)" stroke-width="1px" opacity="0.25"></line></g><g><line x1="0" y1="177" x2="270.21875" y2="177" fill="rgb(0, 0, 0)" stroke="rgb(66, 66, 66)" stroke-width="1px" opacity="0.25"></line><line x1="0" y1="162.25" x2="270.21875" y2="162.25" fill="rgb(0, 0, 0)" stroke="rgb(66, 66, 66)" stroke-width="1px" opacity="0.25"></line><line x1="0" y1="147.5" x2="270.21875" y2="147.5" fill="rgb(0, 0, 0)" stroke="rgb(66, 66, 66)" stroke-width="1px" opacity="0.25"></line><line x1="0" y1="132.75" x2="270.21875" y2="132.75" fill="rgb(0, 0, 0)" stroke="rgb(66, 66, 66)" stroke-width="1px" opacity="0.25"></line><line x1="0" y1="118.00000000000001" x2="270.21875" y2="118.00000000000001" fill="rgb(0, 0, 0)" stroke="rgb(66, 66, 66)" stroke-width="1px" opacity="0.25"></line><line x1="0" y1="103.24999999999999" x2="270.21875" y2="103.24999999999999" fill="rgb(0, 0, 0)" stroke="rgb(66, 66, 66)" stroke-width="1px" opacity="0.25"></line><line x1="0" y1="88.5" x2="270.21875" y2="88.5" fill="rgb(0, 0, 0)" stroke="rgb(66, 66, 66)" stroke-width="1px" opacity="0.25"></line><line x1="0" y1="73.75" x2="270.21875" y2="73.75" fill="rgb(0, 0, 0)" stroke="rgb(66, 66, 66)" stroke-width="1px" opacity="0.25"></line><line x1="0" y1="59.00000000000001" x2="270.21875" y2="59.00000000000001" fill="rgb(0, 0, 0)" stroke="rgb(66, 66, 66)" stroke-width="1px" opacity="0.25"></line><line x1="0" y1="44.25" x2="270.21875" y2="44.25" fill="rgb(0, 0, 0)" stroke="rgb(66, 66, 66)" stroke-width="1px" opacity="0.25"></line><line x1="0" y1="29.499999999999993" x2="270.21875" y2="29.499999999999993" fill="rgb(0, 0, 0)" stroke="rgb(66, 66, 66)" stroke-width="1px" opacity="0.25"></line><line x1="0" y1="14.750000000000007" x2="270.21875" y2="14.750000000000007" fill="rgb(0, 0, 0)" stroke="rgb(66, 66, 66)" stroke-width="1px" opacity="0.25"></line><line x1="0" y1="0" x2="270.21875" y2="0" fill="rgb(0, 0, 0)" stroke="rgb(66, 66, 66)" stroke-width="1px" opacity="0.25"></line></g></g></g><g><g><line x1="0" y1="162.25" x2="270.21875" y2="162.25" fill="rgb(0, 0, 0)" stroke="rgb(153, 153, 153)" stroke-width="1.5px"></line></g></g><g><g><line x1="22.518229166666664" y1="0" x2="22.518229166666664" y2="177" fill="rgb(0, 0, 0)" stroke="rgb(153, 153, 153)" stroke-width="1.5px"></line></g></g><g><g><g><g><g><path stroke="rgb(0, 119, 187)" stroke-width="2px" d="M27.021875,-371.67840480804443L28.147786458333336,108.21636664867401L29.273697916666666,-5.186137676239014L30.399609375,-18.29719877243042L31.525520833333335,19.269193410873413L32.651432291666666,25.909307003021247L33.77734375,19.780883550643928L34.903255208333334,69.5138144493103L36.02916666666667,48.70530247688293L37.155078125,22.08782172203064L38.28098958333333,85.39520585536957L39.40690104166667,108.80468159914015L40.5328125,83.3951256275177L41.65872395833333,107.14312696456908L42.78463541666667,123.65950661897661L43.910546875,65.28337514400482L45.03645833333333,116.71028089523317L46.16236979166667,70.47871947288513L47.28828125,-137.9371223449707L48.41419270833333,124.13721513748169L49.540104166666666,143.0807610154152L50.666015625,142.194418489933L51.791927083333334,123.09562200307846L52.91783854166667,97.61162507534026L54.04375,107.71629208326341L55.16966145833333,148.83707375824451L56.29557291666667,127.02023375034331L57.421484375,122.18227845430373L58.54739583333333,109.9722912311554L59.67330729166667,136.79725751280785L60.79921875,148.2013540416956L61.92513020833333,115.85217022895812L63.05104166666667,148.62063038349152L64.176953125,107.49448841810228L65.30286458333333,131.53234457969666L66.42877604166667,136.73847806453705L67.5546875,139.54410874843597L68.68059895833333,138.49523082375526L69.80651041666667,145.10067704319954L70.932421875,85.84977114200592L72.05833333333334,122.90512025356293L73.18424479166666,119.7659084200859L74.31015625,135.5435737669468L75.43606770833334,150.75814574956894L76.56197916666666,151.65488795936108L77.687890625,150.56473571062088L78.81380208333334,145.38258066773415L79.93971354166666,-14.353980302810669L81.065625,114.66032367944716L82.19153645833333,143.9910046160221L83.31744791666667,148.71262130141258L84.443359375,141.99963518977165L85.56927083333333,138.57319197058678L86.69518229166667,155.7598237618804L87.82109375,145.78136798739433L88.94700520833334,155.37928798049688L90.07291666666666,144.8895289003849L91.198828125,88.68699562549592L92.32473958333334,117.63554596900939L93.45065104166666,136.91346248984337L94.5765625,116.10420674085617L95.70247395833334,128.78335696458817L96.82838541666666,142.83879801630974L97.954296875,136.04229617118835L99.08020833333333,93.05848169326784L100.20611979166667,142.69827875494957L101.33203125,147.25775742530823L102.45794270833333,148.51754435896873L103.58385416666667,91.31489360332489L104.709765625,117.99415177106856L105.83567708333334,152.19526888430119L106.96158854166666,157.8271388411522L108.0875,150.17982782423496L109.21341145833334,121.88836187124252L110.33932291666666,151.7855895459652L111.465234375,138.365484893322L112.59114583333334,137.22167259454727L113.71705729166666,117.10746461153029L114.84296875,72.3654432296753L115.96888020833333,150.7992503941059L117.09479166666667,154.2297210842371L118.220703125,154.93456718325615L119.34661458333333,123.8527091741562L120.47252604166667,134.41920867562294L121.5984375,120.45555984973909L122.72434895833334,152.37337435781956L123.85026041666666,153.2720050215721L124.976171875,149.2364413291216L126.10208333333334,117.3426914215088L127.22799479166666,110.34546661376953L128.35390625,151.4089388102293L129.47981770833334,144.41173422336578L130.60572916666666,95.59754848480225L131.73164062499998,77.86864423751831L132.85755208333333,149.80939105153084L133.98346354166668,158.58252086490393L135.109375,156.6602356210351L136.23528645833332,152.149554759264L137.36119791666667,139.74284654855728L138.487109375,141.0150596499443L139.61302083333334,151.3129432797432L140.73893229166669,129.1804386973381L141.86484375,158.13154390454292L142.99075520833333,154.9125765413046L144.11666666666667,154.50501599907875L145.242578125,147.8171468526125L146.36848958333331,128.7925671339035L147.49440104166666,156.88814159482718L148.6203125,149.29418423771858L149.74622395833333,147.98170609772205L150.87213541666668,151.56494462490082L151.998046875,156.73724330961704L153.12395833333332,157.4502072110772L154.24986979166667,152.05365505814552L155.37578125,139.94804096221924L156.50169270833334,125.60220527648924L157.62760416666669,147.02315306663513L158.753515625,151.52200603485107L159.87942708333333,151.38978524506092L161.00533854166667,154.41104519367218L162.13125,144.00505900382996L163.25716145833331,129.2057763338089L164.38307291666666,153.43546706438065L165.508984375,158.9375291094184L166.63489583333333,153.2783306390047L167.76080729166668,143.84827336668968L168.88671875,143.30123361945152L170.01263020833332,150.03654973208904L171.13854166666667,155.65087632089853L172.264453125,156.59050744771957L173.39036458333334,145.7299981713295L174.51627604166669,137.76582691073418L175.6421875,148.2725930660963L176.76809895833333,155.93659245967865L177.89401041666667,152.77594473958015L179.019921875,153.74133594334126L180.14583333333331,143.7868493795395L181.27174479166666,143.31851455569267L182.39765625,146.653432816267L183.52356770833333,154.87518110871315L184.64947916666668,159.19296184927225L185.775390625,147.93130952119827L186.90130208333332,144.9567835330963L188.02721354166667,150.86032535135746L189.153125,143.02991870045662L190.27903645833334,152.75845631957054L191.40494791666669,157.52541831880808L192.530859375,158.32350639253855L193.65677083333333,157.12807635217905L194.78268229166667,137.20977744460106L195.90859375,148.7883854061365L197.03450520833331,147.4218788444996L198.16041666666666,150.9545124322176L199.286328125,147.74330988526344L200.41223958333333,140.72929295897484L201.53815104166668,150.60908536612988L202.6640625,156.68789821863174L203.78997395833332,147.5532442033291L204.91588541666667,152.8241724073887L206.041796875,156.65783812850714L207.16770833333334,151.40894320607185L208.29361979166669,153.717644110322L209.41953125,145.86406081914902L210.54544270833333,138.27202048897743L211.67135416666667,150.52975007891655L212.797265625,137.70517483353615L213.92317708333331,53.99845957756042L215.04908854166666,113.6987102627754L216.175,153.60494965314865L217.30091145833333,150.88112296164036L218.42682291666668,126.0197892189026L219.552734375,152.96746017038822L220.67864583333332,159.14469967409968L221.80455729166667,152.40079826116562L222.93046875,153.2775727957487L224.05638020833334,138.54073658585548L225.18229166666669,145.98431876301765L226.308203125,152.74498833715916L227.43411458333333,159.28652054443955L228.56002604166667,158.65390978753567L229.6859375,123.23306769132614L230.81184895833331,149.5647668093443L231.93776041666666,158.07862367480993L233.063671875,158.24152568727732L234.18958333333333,156.49404771625996L235.31549479166668,154.30512736737728L236.44140625,153.88130748271942L237.56731770833332,154.86876229941845L238.69322916666667,153.94037353992462L239.819140625,154.72517649829388L240.94505208333334,154.44107231497765L242.07096354166669,158.29883033037186L243.196875,154.56550015509129L244.32278645833333,154.35683566331863L245.44869791666667,154.03255611658096L246.574609375,143.51339983940125" style="fill: none;" fill="none"></path></g></g></g></g></g></g><g transform="translate(30, 177)" clip-path="url(#clip_1)"><clipPath id="clip_1"><rect width="270" height="23"></rect></clipPath><g><g><line x1="0" y1="0" x2="0" y2="5" style="visibility: inherit;" fill="rgb(0, 0, 0)" stroke="rgb(204, 204, 204)" stroke-width="1px"></line><line x1="22.518229166666664" y1="0" x2="22.518229166666664" y2="5" style="visibility: inherit;" fill="rgb(0, 0, 0)" stroke="rgb(204, 204, 204)" stroke-width="1px"></line><line x1="45.03645833333333" y1="0" x2="45.03645833333333" y2="5" style="visibility: inherit;" fill="rgb(0, 0, 0)" stroke="rgb(204, 204, 204)" stroke-width="1px"></line><line x1="67.5546875" y1="0" x2="67.5546875" y2="5" style="visibility: inherit;" fill="rgb(0, 0, 0)" stroke="rgb(204, 204, 204)" stroke-width="1px"></line><line x1="90.07291666666666" y1="0" x2="90.07291666666666" y2="5" style="visibility: inherit;" fill="rgb(0, 0, 0)" stroke="rgb(204, 204, 204)" stroke-width="1px"></line><line x1="112.59114583333334" y1="0" x2="112.59114583333334" y2="5" style="visibility: inherit;" fill="rgb(0, 0, 0)" stroke="rgb(204, 204, 204)" stroke-width="1px"></line><line x1="135.109375" y1="0" x2="135.109375" y2="5" style="visibility: inherit;" fill="rgb(0, 0, 0)" stroke="rgb(204, 204, 204)" stroke-width="1px"></line><line x1="157.62760416666669" y1="0" x2="157.62760416666669" y2="5" style="visibility: inherit;" fill="rgb(0, 0, 0)" stroke="rgb(204, 204, 204)" stroke-width="1px"></line><line x1="180.14583333333331" y1="0" x2="180.14583333333331" y2="5" style="visibility: inherit;" fill="rgb(0, 0, 0)" stroke="rgb(204, 204, 204)" stroke-width="1px"></line><line x1="202.6640625" y1="0" x2="202.6640625" y2="5" style="visibility: inherit;" fill="rgb(0, 0, 0)" stroke="rgb(204, 204, 204)" stroke-width="1px"></line><line x1="225.18229166666669" y1="0" x2="225.18229166666669" y2="5" style="visibility: inherit;" fill="rgb(0, 0, 0)" stroke="rgb(204, 204, 204)" stroke-width="1px"></line><line x1="247.70052083333331" y1="0" x2="247.70052083333331" y2="5" style="visibility: inherit;" fill="rgb(0, 0, 0)" stroke="rgb(204, 204, 204)" stroke-width="1px"></line><line x1="270.21875" y1="0" x2="270.21875" y2="5" style="visibility: inherit;" fill="rgb(0, 0, 0)" stroke="rgb(204, 204, 204)" stroke-width="1px"></line></g><g transform="translate(0, 8)"><text x="0" y="0" dx="0em" dy="0.95em" style="text-anchor: middle; visibility: hidden; font-family: Roboto, sans-serif; font-size: 12px; font-weight: 200;" fill="rgb(33, 33, 33)" stroke="none" stroke-width="1px">-20</text><text x="22.518229166666664" y="0" dx="0em" dy="0.95em" style="text-anchor: middle; visibility: inherit; font-family: Roboto, sans-serif; font-size: 12px; font-weight: 200;" fill="rgb(33, 33, 33)" stroke="none" stroke-width="1px">0</text><text x="45.03645833333333" y="0" dx="0em" dy="0.95em" style="text-anchor: middle; visibility: hidden; font-family: Roboto, sans-serif; font-size: 12px; font-weight: 200;" fill="rgb(33, 33, 33)" stroke="none" stroke-width="1px">20</text><text x="67.5546875" y="0" dx="0em" dy="0.95em" style="text-anchor: middle; visibility: inherit; font-family: Roboto, sans-serif; font-size: 12px; font-weight: 200;" fill="rgb(33, 33, 33)" stroke="none" stroke-width="1px">40</text><text x="90.07291666666666" y="0" dx="0em" dy="0.95em" style="text-anchor: middle; visibility: hidden; font-family: Roboto, sans-serif; font-size: 12px; font-weight: 200;" fill="rgb(33, 33, 33)" stroke="none" stroke-width="1px">60</text><text x="112.59114583333334" y="0" dx="0em" dy="0.95em" style="text-anchor: middle; visibility: inherit; font-family: Roboto, sans-serif; font-size: 12px; font-weight: 200;" fill="rgb(33, 33, 33)" stroke="none" stroke-width="1px">80</text><text x="135.109375" y="0" dx="0em" dy="0.95em" style="text-anchor: middle; visibility: hidden; font-family: Roboto, sans-serif; font-size: 12px; font-weight: 200;" fill="rgb(33, 33, 33)" stroke="none" stroke-width="1px">100</text><text x="157.62760416666669" y="0" dx="0em" dy="0.95em" style="text-anchor: middle; visibility: inherit; font-family: Roboto, sans-serif; font-size: 12px; font-weight: 200;" fill="rgb(33, 33, 33)" stroke="none" stroke-width="1px">120</text><text x="180.14583333333331" y="0" dx="0em" dy="0.95em" style="text-anchor: middle; visibility: hidden; font-family: Roboto, sans-serif; font-size: 12px; font-weight: 200;" fill="rgb(33, 33, 33)" stroke="none" stroke-width="1px">140</text><text x="202.6640625" y="0" dx="0em" dy="0.95em" style="text-anchor: middle; visibility: inherit; font-family: Roboto, sans-serif; font-size: 12px; font-weight: 200;" fill="rgb(33, 33, 33)" stroke="none" stroke-width="1px">160</text><text x="225.18229166666669" y="0" dx="0em" dy="0.95em" style="text-anchor: middle; visibility: hidden; font-family: Roboto, sans-serif; font-size: 12px; font-weight: 200;" fill="rgb(33, 33, 33)" stroke="none" stroke-width="1px">180</text><text x="247.70052083333331" y="0" dx="0em" dy="0.95em" style="text-anchor: middle; visibility: inherit; font-family: Roboto, sans-serif; font-size: 12px; font-weight: 200;" fill="rgb(33, 33, 33)" stroke="none" stroke-width="1px">200</text><text x="270.21875" y="0" dx="0em" dy="0.95em" style="text-anchor: middle; visibility: hidden; font-family: Roboto, sans-serif; font-size: 12px; font-weight: 200;" fill="rgb(33, 33, 33)" stroke="none" stroke-width="1px">220</text></g><line x1="0" y1="0" x2="270.21875" y2="0" fill="rgb(0, 0, 0)" stroke="rgb(204, 204, 204)" stroke-width="1px"></line></g></g></g></g></svg>