<svg viewBox="0 0 301 200" xmlns="http://www.w3.org/2000/svg"><g><g><g><g><g><line x1="30.78125" y1="177" x2="25.78125" y2="177" style="visibility: inherit;" fill="rgb(0, 0, 0)" stroke="rgb(204, 204, 204)" stroke-width="1px"></line><line x1="30.78125" y1="164.35714285714286" x2="25.78125" y2="164.35714285714286" style="visibility: inherit;" fill="rgb(0, 0, 0)" stroke="rgb(204, 204, 204)" stroke-width="1px"></line><line x1="30.78125" y1="151.71428571428572" x2="25.78125" y2="151.71428571428572" style="visibility: inherit;" fill="rgb(0, 0, 0)" stroke="rgb(204, 204, 204)" stroke-width="1px"></line><line x1="30.78125" y1="139.07142857142856" x2="25.78125" y2="139.07142857142856" style="visibility: inherit;" fill="rgb(0, 0, 0)" stroke="rgb(204, 204, 204)" stroke-width="1px"></line><line x1="30.78125" y1="126.42857142857143" x2="25.78125" y2="126.42857142857143" style="visibility: inherit;" fill="rgb(0, 0, 0)" stroke="rgb(204, 204, 204)" stroke-width="1px"></line><line x1="30.78125" y1="113.78571428571428" x2="25.78125" y2="113.78571428571428" style="visibility: inherit;" fill="rgb(0, 0, 0)" stroke="rgb(204, 204, 204)" stroke-width="1px"></line><line x1="30.78125" y1="101.14285714285714" x2="25.78125" y2="101.14285714285714" style="visibility: inherit;" fill="rgb(0, 0, 0)" stroke="rgb(204, 204, 204)" stroke-width="1px"></line><line x1="30.78125" y1="88.5" x2="25.78125" y2="88.5" style="visibility: inherit;" fill="rgb(0, 0, 0)" stroke="rgb(204, 204, 204)" stroke-width="1px"></line><line x1="30.78125" y1="75.85714285714286" x2="25.78125" y2="75.85714285714286" style="visibility: inherit;" fill="rgb(0, 0, 0)" stroke="rgb(204, 204, 204)" stroke-width="1px"></line><line x1="30.78125" y1="63.21428571428571" x2="25.78125" y2="63.21428571428571" style="visibility: inherit;" fill="rgb(0, 0, 0)" stroke="rgb(204, 204, 204)" stroke-width="1px"></line><line x1="30.78125" y1="50.57142857142857" x2="25.78125" y2="50.57142857142857" style="visibility: inherit;" fill="rgb(0, 0, 0)" stroke="rgb(204, 204, 204)" stroke-width="1px"></line><line x1="30.78125" y1="37.92857142857143" x2="25.78125" y2="37.92857142857143" style="visibility: inherit;" fill="rgb(0, 0, 0)" stroke="rgb(204, 204, 204)" stroke-width="1px"></line><line x1="30.78125" y1="25.285714285714295" x2="25.78125" y2="25.285714285714295" style="visibility: inherit;" fill="rgb(0, 0, 0)" stroke="rgb(204, 204, 204)" stroke-width="1px"></line><line x1="30.78125" y1="12.642857142857137" x2="25.78125" y2="12.642857142857137" style="visibility: inherit;" fill="rgb(0, 0, 0)" stroke="rgb(204, 204, 204)" stroke-width="1px"></line><line x1="30.78125" y1="0" x2="25.78125" y2="0" style="visibility: inherit;" fill="rgb(0, 0, 0)" stroke="rgb(204, 204, 204)" stroke-width="1px"></line></g><g transform="translate(20.78125, 0)"><text x="0" y="177" dx="0em" dy="0.3em" style="text-anchor: end; visibility: hidden; font-family: Roboto, sans-serif; font-size: 12px; font-weight: 200;" fill="rgb(33, 33, 33)" stroke="none" stroke-width="1px">-5</text><text x="0" y="164.35714285714286" dx="0em" dy="0.3em" style="text-anchor: end; visibility: inherit; font-family: Roboto, sans-serif; font-size: 12px; font-weight: 200;" fill="rgb(33, 33, 33)" stroke="none" stroke-width="1px">0</text><text x="0" y="151.71428571428572" dx="0em" dy="0.3em" style="text-anchor: end; visibility: hidden; font-family: Roboto, sans-serif; font-size: 12px; font-weight: 200;" fill="rgb(33, 33, 33)" stroke="none" stroke-width="1px">5</text><text x="0" y="139.07142857142856" dx="0em" dy="0.3em" style="text-anchor: end; visibility: inherit; font-family: Roboto, sans-serif; font-size: 12px; font-weight: 200;" fill="rgb(33, 33, 33)" stroke="none" stroke-width="1px">10</text><text x="0" y="126.42857142857143" dx="0em" dy="0.3em" style="text-anchor: end; visibility: hidden; font-family: Roboto, sans-serif; font-size: 12px; font-weight: 200;" fill="rgb(33, 33, 33)" stroke="none" stroke-width="1px">15</text><text x="0" y="113.78571428571428" dx="0em" dy="0.3em" style="text-anchor: end; visibility: inherit; font-family: Roboto, sans-serif; font-size: 12px; font-weight: 200;" fill="rgb(33, 33, 33)" stroke="none" stroke-width="1px">20</text><text x="0" y="101.14285714285714" dx="0em" dy="0.3em" style="text-anchor: end; visibility: hidden; font-family: Roboto, sans-serif; font-size: 12px; font-weight: 200;" fill="rgb(33, 33, 33)" stroke="none" stroke-width="1px">25</text><text x="0" y="88.5" dx="0em" dy="0.3em" style="text-anchor: end; visibility: inherit; font-family: Roboto, sans-serif; font-size: 12px; font-weight: 200;" fill="rgb(33, 33, 33)" stroke="none" stroke-width="1px">30</text><text x="0" y="75.85714285714286" dx="0em" dy="0.3em" style="text-anchor: end; visibility: hidden; font-family: Roboto, sans-serif; font-size: 12px; font-weight: 200;" fill="rgb(33, 33, 33)" stroke="none" stroke-width="1px">35</text><text x="0" y="63.21428571428571" dx="0em" dy="0.3em" style="text-anchor: end; visibility: inherit; font-family: Roboto, sans-serif; font-size: 12px; font-weight: 200;" fill="rgb(33, 33, 33)" stroke="none" stroke-width="1px">40</text><text x="0" y="50.57142857142857" dx="0em" dy="0.3em" style="text-anchor: end; visibility: hidden; font-family: Roboto, sans-serif; font-size: 12px; font-weight: 200;" fill="rgb(33, 33, 33)" stroke="none" stroke-width="1px">45</text><text x="0" y="37.92857142857143" dx="0em" dy="0.3em" style="text-anchor: end; visibility: inherit; font-family: Roboto, sans-serif; font-size: 12px; font-weight: 200;" fill="rgb(33, 33, 33)" stroke="none" stroke-width="1px">50</text><text x="0" y="25.285714285714295" dx="0em" dy="0.3em" style="text-anchor: end; visibility: hidden; font-family: Roboto, sans-serif; font-size: 12px; font-weight: 200;" fill="rgb(33, 33, 33)" stroke="none" stroke-width="1px">55</text><text x="0" y="12.642857142857137" dx="0em" dy="0.3em" style="text-anchor: end; visibility: inherit; font-family: Roboto, sans-serif; font-size: 12px; font-weight: 200;" fill="rgb(33, 33, 33)" stroke="none" stroke-width="1px">60</text><text x="0" y="0" dx="0em" dy="0.3em" style="text-anchor: end; visibility: hidden; font-family: Roboto, sans-serif; font-size: 12px; font-weight: 200;" fill="rgb(33, 33, 33)" stroke="none" stroke-width="1px">65</text></g><line x1="30.78125" y1="0" x2="30.78125" y2="177" fill="rgb(0, 0, 0)" stroke="rgb(204, 204, 204)" stroke-width="1px"></line></g></g><g transform="translate(30, 0)" clip-path="url(#clip_0)"><clipPath id="clip_0"><rect width="270" height="177"></rect></clipPath><g><g><g><line x1="0" y1="0" x2="0" y2="177" fill="rgb(0, 0, 0)" stroke="rgb(66, 66, 66)" stroke-width="1px" opacity="0.25"></line><line x1="22.518229166666664" y1="0" x2="22.518229166666664" y2="177" fill="rgb(0, 0, 0)" stroke="rgb(66, 66, 66)" stroke-width="1px" opacity="0.25"></line><line x1="45.03645833333333" y1="0" x2="45.03645833333333" y2="177" fill="rgb(0, 0, 0)" stroke="rgb(66, 66, 66)" stroke-width="1px" opacity="0.25"></line><line x1="67.5546875" y1="0" x2="67.5546875" y2="177" fill="rgb(0, 0, 0)" stroke="rgb(66, 66, 66)" stroke-width="1px" opacity="0.25"></line><line x1="90.07291666666666" y1="0" x2="90.07291666666666" y2="177" fill="rgb(0, 0, 0)" stroke="rgb(66, 66, 66)" stroke-width="1px" opacity="0.25"></line><line x1="112.59114583333334" y1="0" x2="112.59114583333334" y2="177" fill="rgb(0, 0, 0)" stroke="rgb(66, 66, 66)" stroke-width="1px" opacity="0.25"></line><line x1="135.109375" y1="0" x2="135.109375" y2="177" fill="rgb(0, 0, 0)" stroke="rgb(66, 66, 66)" stroke-width="1px" opacity="0.25"></line><line x1="157.62760416666669" y1="0" x2="157.62760416666669" y2="177" fill="rgb(0, 0, 0)" stroke="rgb(66, 66, 66)" stroke-width="1px" opacity="0.25"></line><line x1="180.14583333333331" y1="0" x2="180.14583333333331" y2="177" fill="rgb(0, 0, 0)" stroke="rgb(66, 66, 66)" stroke-width="1px" opacity="0.25"></line><line x1="202.6640625" y1="0" x2="202.6640625" y2="177" fill="rgb(0, 0, 0)" stroke="rgb(66, 66, 66)" stroke-width="1px" opacity="0.25"></line><line x1="225.18229166666669" y1="0" x2="225.18229166666669" y2="177" fill="rgb(0, 0, 0)" stroke="rgb(66, 66, 66)" stroke-width="1px" opacity="0.25"></line><line x1="247.70052083333331" y1="0" x2="247.70052083333331" y2="177" fill="rgb(0, 0, 0)" stroke="rgb(66, 66, 66)" stroke-width="1px" opacity="0.25"></line><line x1="270.21875" y1="0" x2="270.21875" y2="177" fill="rgb(0, 0, 0)" stroke="rgb(66, 66, 66)" stroke-width="1px" opacity="0.25"></line></g><g><line x1="0" y1="177" x2="270.21875" y2="177" fill="rgb(0, 0, 0)" stroke="rgb(66, 66, 66)" stroke-width="1px" opacity="0.25"></line><line x1="0" y1="164.35714285714286" x2="270.21875" y2="164.35714285714286" fill="rgb(0, 0, 0)" stroke="rgb(66, 66, 66)" stroke-width="1px" opacity="0.25"></line><line x1="0" y1="151.71428571428572" x2="270.21875" y2="151.71428571428572" fill="rgb(0, 0, 0)" stroke="rgb(66, 66, 66)" stroke-width="1px" opacity="0.25"></line><line x1="0" y1="139.07142857142856" x2="270.21875" y2="139.07142857142856" fill="rgb(0, 0, 0)" stroke="rgb(66, 66, 66)" stroke-width="1px" opacity="0.25"></line><line x1="0" y1="126.42857142857143" x2="270.21875" y2="126.42857142857143" fill="rgb(0, 0, 0)" stroke="rgb(66, 66, 66)" stroke-width="1px" opacity="0.25"></line><line x1="0" y1="113.78571428571428" x2="270.21875" y2="113.78571428571428" fill="rgb(0, 0, 0)" stroke="rgb(66, 66, 66)" stroke-width="1px" opacity="0.25"></line><line x1="0" y1="101.14285714285714" x2="270.21875" y2="101.14285714285714" fill="rgb(0, 0, 0)" stroke="rgb(66, 66, 66)" stroke-width="1px" opacity="0.25"></line><line x1="0" y1="88.5" x2="270.21875" y2="88.5" fill="rgb(0, 0, 0)" stroke="rgb(66, 66, 66)" stroke-width="1px" opacity="0.25"></line><line x1="0" y1="75.85714285714286" x2="270.21875" y2="75.85714285714286" fill="rgb(0, 0, 0)" stroke="rgb(66, 66, 66)" stroke-width="1px" opacity="0.25"></line><line x1="0" y1="63.21428571428571" x2="270.21875" y2="63.21428571428571" fill="rgb(0, 0, 0)" stroke="rgb(66, 66, 66)" stroke-width="1px" opacity="0.25"></line><line x1="0" y1="50.57142857142857" x2="270.21875" y2="50.57142857142857" fill="rgb(0, 0, 0)" stroke="rgb(66, 66, 66)" stroke-width="1px" opacity="0.25"></line><line x1="0" y1="37.92857142857143" x2="270.21875" y2="37.92857142857143" fill="rgb(0, 0, 0)" stroke="rgb(66, 66, 66)" stroke-width="1px" opacity="0.25"></line><line x1="0" y1="25.285714285714295" x2="270.21875" y2="25.285714285714295" fill="rgb(0, 0, 0)" stroke="rgb(66, 66, 66)" stroke-width="1px" opacity="0.25"></line><line x1="0" y1="12.642857142857137" x2="270.21875" y2="12.642857142857137" fill="rgb(0, 0, 0)" stroke="rgb(66, 66, 66)" stroke-width="1px" opacity="0.25"></line><line x1="0" y1="0" x2="270.21875" y2="0" fill="rgb(0, 0, 0)" stroke="rgb(66, 66, 66)" stroke-width="1px" opacity="0.25"></line></g></g></g><g><g><line x1="0" y1="164.35714285714286" x2="270.21875" y2="164.35714285714286" fill="rgb(0, 0, 0)" stroke="rgb(153, 153, 153)" stroke-width="1.5px"></line></g></g><g><g><line x1="22.518229166666664" y1="0" x2="22.518229166666664" y2="177" fill="rgb(0, 0, 0)" stroke="rgb(153, 153, 153)" stroke-width="1.5px"></line></g></g><g><g><g><g><g><path stroke="rgb(0, 119, 187)" stroke-width="2px" d="M32.651432291666666,-9.439778791155128L33.77734375,10.083998107910148L34.903255208333334,39.09303343636649L36.02916666666667,48.155683299473345L37.155078125,51.28477886744908L38.28098958333333,78.00685877118791L39.40690104166667,88.89858104160855L40.5328125,83.26375514439174L41.65872395833333,97.86124804360527L42.78463541666667,100.13827318464008L43.910546875,91.2526948928833L45.03645833333333,109.0337962286813L46.16236979166667,99.7997754233224L47.28828125,32.65899091448103L48.41419270833333,114.08414848872593L49.540104166666666,124.82451953887939L50.666015625,128.3311660357884L51.791927083333334,126.2607645852225L52.91783854166667,116.82805129459926L54.04375,118.76387786865234L55.16966145833333,135.402680683136L56.29557291666667,135.6161094393049L57.421484375,133.82136137826103L58.54739583333333,130.10454156058177L59.67330729166667,140.03112128121512L60.79921875,142.31127164023263L61.92513020833333,136.76871925081525L63.05104166666667,146.34182741301402L64.176953125,128.96406608309064L65.30286458333333,134.08715923854282L66.42877604166667,144.6454236439296L67.5546875,144.95491185869489L68.68059895833333,144.24415505954198L69.80651041666667,149.58615695408412L70.932421875,125.96292118344988L72.05833333333334,136.56793605259486L73.18424479166666,141.2737981387547L74.31015625,146.78555893216813L75.43606770833334,153.20932271821158L76.56197916666666,153.3585988998413L77.687890625,153.91012632506235L78.81380208333334,150.65139449664525L79.93971354166666,99.22397812434605L81.065625,121.32661448887417L82.19153645833333,143.50463468006677L83.31744791666667,149.83131053107127L84.443359375,150.21454279763358L85.56927083333333,146.79600526264736L86.69518229166667,154.81423850400108L87.82109375,152.4015623841967L88.94700520833334,155.8284446852548L90.07291666666666,152.6313671861376L91.198828125,128.64830814089095L92.32473958333334,139.01124401092528L93.45065104166666,149.47264595031737L94.5765625,144.4212615966797L95.70247395833334,143.63090940202986L96.82838541666666,151.56552075658524L97.954296875,147.92946467399597L99.08020833333333,131.82769656862533L100.20611979166667,147.58808766092574L101.33203125,153.24351202419825L102.45794270833333,153.15943256786892L103.58385416666667,131.32449306760515L104.709765625,136.35506916046143L105.83567708333334,154.77573273181915L106.96158854166666,157.9881481545312L108.0875,155.5551436492375L109.21341145833334,144.57867636680604L110.33932291666666,151.4617471218109L111.465234375,152.08754549707686L112.59114583333334,146.82426003047397L113.71705729166666,146.0838727406093L114.84296875,132.8541232926505L115.96888020833333,152.28972612108504L117.09479166666667,156.45162605217524L118.220703125,156.0506594998496L119.34661458333333,145.4105088370187L120.47252604166667,148.08430885587418L121.5984375,144.4927292551313L122.72434895833334,156.02317217077527L123.85026041666666,156.27226542745316L124.976171875,155.21818076542445L126.10208333333334,145.9498102937426L127.22799479166666,145.16883978162494L128.35390625,156.606531725611L129.47981770833334,152.10272306033545L130.60572916666666,141.0197439602443L131.73164062499998,133.95395646776473L132.85755208333333,151.7985098566328L133.98346354166668,158.54887580190385L135.109375,158.78280475820813L136.23528645833332,155.46892525127956L137.36119791666667,152.6509335586003L138.487109375,151.3345934322902L139.61302083333334,155.10382756846292L140.73893229166669,148.9797766481127L141.86484375,158.32481382914952L142.99075520833333,157.92686940601894L144.11666666666667,157.58696276460375L145.242578125,156.54400988306318L146.36848958333331,145.32801369258334L147.49440104166666,153.54357756205968L148.6203125,155.72146203517914L149.74622395833333,154.81682778085982L150.87213541666668,156.94556181090218L151.998046875,158.6650068283081L153.12395833333332,159.95753645896912L154.24986979166667,158.17991620813098L155.37578125,154.25726063592094L156.50169270833334,140.44815943581716L157.62760416666669,152.47290464809964L158.753515625,156.7347790002823L159.87942708333333,155.78483451093948L161.00533854166667,158.47271549361093L162.13125,150.9006692137037L163.25716145833331,143.5144154548645L164.38307291666666,156.50344896657126L165.508984375,159.5620634538787L166.63489583333333,158.49023214748928L167.76080729166668,154.32324590001787L168.88671875,149.97809931891305L170.01263020833332,154.71319280351912L171.13854166666667,158.29070289475578L172.264453125,160.36778341361455L173.39036458333334,156.359030015128L174.51627604166669,152.6583221912384L175.6421875,157.02458509377072L176.76809895833333,158.02825933865137L177.89401041666667,157.51825137478966L179.019921875,158.81191377639772L180.14583333333331,153.0168191773551L181.27174479166666,151.6263274669647L182.39765625,155.9601421185902L183.52356770833333,159.15489439283098L184.64947916666668,160.5969919885908L185.775390625,157.11390399251664L186.90130208333332,155.30004471710748L188.02721354166667,156.62226391860418L189.153125,154.40485001972743L190.27903645833334,157.02554725578852L191.40494791666669,160.04526923724583L192.530859375,159.5208827989442L193.65677083333333,159.93324367659432L194.78268229166667,153.80344088418144L195.90859375,157.85721635137284L197.03450520833331,156.070221049445L198.16041666666666,158.2774478469576L199.286328125,155.60396372590745L200.41223958333333,152.57580172674997L201.53815104166668,155.78952595506397L202.6640625,159.02422362736291L203.78997395833332,154.38977313382284L204.91588541666667,158.19501539979663L206.041796875,159.47914540427072L207.16770833333334,158.72705663272313L208.29361979166669,158.20607785156795L209.41953125,156.0796286548887L210.54544270833333,150.17017483030045L211.67135416666667,158.17060807432446L212.797265625,149.6160756111145L213.92317708333331,107.3670422417777L215.04908854166666,131.006205531529L216.175,152.35305639675687L217.30091145833333,156.48975744928632L218.42682291666668,146.22637158802576L219.552734375,155.30527933665684L220.67864583333332,160.341372186797L221.80455729166667,157.47504571846554L222.93046875,157.80766681603023L224.05638020833334,152.63152272360665L225.18229166666669,153.0778091566903L226.308203125,158.02445891925265L227.43411458333333,160.36185972690583L228.56002604166667,160.34815253530232L229.6859375,146.27124836785453L230.81184895833331,155.15258555071694L231.93776041666666,159.9398449761527L233.063671875,159.62420971563884L234.18958333333333,159.7738090293748L235.31549479166668,158.68289604868207L236.44140625,158.75152364117758L237.56731770833332,159.0741819007056L238.69322916666667,158.68949915681569L239.819140625,159.135758461271L240.94505208333334,159.0004493032183L242.07096354166669,160.14334194149288L243.196875,159.57841116530554L244.32278645833333,158.37100062029702L245.44869791666667,157.61119706971306L246.574609375,154.5944200515747" style="fill: none;" fill="none"></path></g></g></g></g></g></g><g transform="translate(30, 177)" clip-path="url(#clip_1)"><clipPath id="clip_1"><rect width="270" height="23"></rect></clipPath><g><g><line x1="0" y1="0" x2="0" y2="5" style="visibility: inherit;" fill="rgb(0, 0, 0)" stroke="rgb(204, 204, 204)" stroke-width="1px"></line><line x1="22.518229166666664" y1="0" x2="22.518229166666664" y2="5" style="visibility: inherit;" fill="rgb(0, 0, 0)" stroke="rgb(204, 204, 204)" stroke-width="1px"></line><line x1="45.03645833333333" y1="0" x2="45.03645833333333" y2="5" style="visibility: inherit;" fill="rgb(0, 0, 0)" stroke="rgb(204, 204, 204)" stroke-width="1px"></line><line x1="67.5546875" y1="0" x2="67.5546875" y2="5" style="visibility: inherit;" fill="rgb(0, 0, 0)" stroke="rgb(204, 204, 204)" stroke-width="1px"></line><line x1="90.07291666666666" y1="0" x2="90.07291666666666" y2="5" style="visibility: inherit;" fill="rgb(0, 0, 0)" stroke="rgb(204, 204, 204)" stroke-width="1px"></line><line x1="112.59114583333334" y1="0" x2="112.59114583333334" y2="5" style="visibility: inherit;" fill="rgb(0, 0, 0)" stroke="rgb(204, 204, 204)" stroke-width="1px"></line><line x1="135.109375" y1="0" x2="135.109375" y2="5" style="visibility: inherit;" fill="rgb(0, 0, 0)" stroke="rgb(204, 204, 204)" stroke-width="1px"></line><line x1="157.62760416666669" y1="0" x2="157.62760416666669" y2="5" style="visibility: inherit;" fill="rgb(0, 0, 0)" stroke="rgb(204, 204, 204)" stroke-width="1px"></line><line x1="180.14583333333331" y1="0" x2="180.14583333333331" y2="5" style="visibility: inherit;" fill="rgb(0, 0, 0)" stroke="rgb(204, 204, 204)" stroke-width="1px"></line><line x1="202.6640625" y1="0" x2="202.6640625" y2="5" style="visibility: inherit;" fill="rgb(0, 0, 0)" stroke="rgb(204, 204, 204)" stroke-width="1px"></line><line x1="225.18229166666669" y1="0" x2="225.18229166666669" y2="5" style="visibility: inherit;" fill="rgb(0, 0, 0)" stroke="rgb(204, 204, 204)" stroke-width="1px"></line><line x1="247.70052083333331" y1="0" x2="247.70052083333331" y2="5" style="visibility: inherit;" fill="rgb(0, 0, 0)" stroke="rgb(204, 204, 204)" stroke-width="1px"></line><line x1="270.21875" y1="0" x2="270.21875" y2="5" style="visibility: inherit;" fill="rgb(0, 0, 0)" stroke="rgb(204, 204, 204)" stroke-width="1px"></line></g><g transform="translate(0, 8)"><text x="0" y="0" dx="0em" dy="0.95em" style="text-anchor: middle; visibility: hidden; font-family: Roboto, sans-serif; font-size: 12px; font-weight: 200;" fill="rgb(33, 33, 33)" stroke="none" stroke-width="1px">-20</text><text x="22.518229166666664" y="0" dx="0em" dy="0.95em" style="text-anchor: middle; visibility: inherit; font-family: Roboto, sans-serif; font-size: 12px; font-weight: 200;" fill="rgb(33, 33, 33)" stroke="none" stroke-width="1px">0</text><text x="45.03645833333333" y="0" dx="0em" dy="0.95em" style="text-anchor: middle; visibility: hidden; font-family: Roboto, sans-serif; font-size: 12px; font-weight: 200;" fill="rgb(33, 33, 33)" stroke="none" stroke-width="1px">20</text><text x="67.5546875" y="0" dx="0em" dy="0.95em" style="text-anchor: middle; visibility: inherit; font-family: Roboto, sans-serif; font-size: 12px; font-weight: 200;" fill="rgb(33, 33, 33)" stroke="none" stroke-width="1px">40</text><text x="90.07291666666666" y="0" dx="0em" dy="0.95em" style="text-anchor: middle; visibility: hidden; font-family: Roboto, sans-serif; font-size: 12px; font-weight: 200;" fill="rgb(33, 33, 33)" stroke="none" stroke-width="1px">60</text><text x="112.59114583333334" y="0" dx="0em" dy="0.95em" style="text-anchor: middle; visibility: inherit; font-family: Roboto, sans-serif; font-size: 12px; font-weight: 200;" fill="rgb(33, 33, 33)" stroke="none" stroke-width="1px">80</text><text x="135.109375" y="0" dx="0em" dy="0.95em" style="text-anchor: middle; visibility: hidden; font-family: Roboto, sans-serif; font-size: 12px; font-weight: 200;" fill="rgb(33, 33, 33)" stroke="none" stroke-width="1px">100</text><text x="157.62760416666669" y="0" dx="0em" dy="0.95em" style="text-anchor: middle; visibility: inherit; font-family: Roboto, sans-serif; font-size: 12px; font-weight: 200;" fill="rgb(33, 33, 33)" stroke="none" stroke-width="1px">120</text><text x="180.14583333333331" y="0" dx="0em" dy="0.95em" style="text-anchor: middle; visibility: hidden; font-family: Roboto, sans-serif; font-size: 12px; font-weight: 200;" fill="rgb(33, 33, 33)" stroke="none" stroke-width="1px">140</text><text x="202.6640625" y="0" dx="0em" dy="0.95em" style="text-anchor: middle; visibility: inherit; font-family: Roboto, sans-serif; font-size: 12px; font-weight: 200;" fill="rgb(33, 33, 33)" stroke="none" stroke-width="1px">160</text><text x="225.18229166666669" y="0" dx="0em" dy="0.95em" style="text-anchor: middle; visibility: hidden; font-family: Roboto, sans-serif; font-size: 12px; font-weight: 200;" fill="rgb(33, 33, 33)" stroke="none" stroke-width="1px">180</text><text x="247.70052083333331" y="0" dx="0em" dy="0.95em" style="text-anchor: middle; visibility: inherit; font-family: Roboto, sans-serif; font-size: 12px; font-weight: 200;" fill="rgb(33, 33, 33)" stroke="none" stroke-width="1px">200</text><text x="270.21875" y="0" dx="0em" dy="0.95em" style="text-anchor: middle; visibility: hidden; font-family: Roboto, sans-serif; font-size: 12px; font-weight: 200;" fill="rgb(33, 33, 33)" stroke="none" stroke-width="1px">220</text></g><line x1="0" y1="0" x2="270.21875" y2="0" fill="rgb(0, 0, 0)" stroke="rgb(204, 204, 204)" stroke-width="1px"></line></g></g></g></g></svg>