<svg viewBox="0 0 330 200" xmlns="http://www.w3.org/2000/svg"><g><g><g><g><g><line x1="30.78125" y1="177" x2="25.78125" y2="177" style="visibility: inherit;" fill="rgb(0, 0, 0)" stroke="rgb(204, 204, 204)" stroke-width="1px"></line><line x1="30.78125" y1="160.9090909090909" x2="25.78125" y2="160.9090909090909" style="visibility: inherit;" fill="rgb(0, 0, 0)" stroke="rgb(204, 204, 204)" stroke-width="1px"></line><line x1="30.78125" y1="144.8181818181818" x2="25.78125" y2="144.8181818181818" style="visibility: inherit;" fill="rgb(0, 0, 0)" stroke="rgb(204, 204, 204)" stroke-width="1px"></line><line x1="30.78125" y1="128.72727272727272" x2="25.78125" y2="128.72727272727272" style="visibility: inherit;" fill="rgb(0, 0, 0)" stroke="rgb(204, 204, 204)" stroke-width="1px"></line><line x1="30.78125" y1="112.63636363636364" x2="25.78125" y2="112.63636363636364" style="visibility: inherit;" fill="rgb(0, 0, 0)" stroke="rgb(204, 204, 204)" stroke-width="1px"></line><line x1="30.78125" y1="96.54545454545453" x2="25.78125" y2="96.54545454545453" style="visibility: inherit;" fill="rgb(0, 0, 0)" stroke="rgb(204, 204, 204)" stroke-width="1px"></line><line x1="30.78125" y1="80.45454545454547" x2="25.78125" y2="80.45454545454547" style="visibility: inherit;" fill="rgb(0, 0, 0)" stroke="rgb(204, 204, 204)" stroke-width="1px"></line><line x1="30.78125" y1="64.36363636363636" x2="25.78125" y2="64.36363636363636" style="visibility: inherit;" fill="rgb(0, 0, 0)" stroke="rgb(204, 204, 204)" stroke-width="1px"></line><line x1="30.78125" y1="48.272727272727266" x2="25.78125" y2="48.272727272727266" style="visibility: inherit;" fill="rgb(0, 0, 0)" stroke="rgb(204, 204, 204)" stroke-width="1px"></line><line x1="30.78125" y1="32.18181818181817" x2="25.78125" y2="32.18181818181817" style="visibility: inherit;" fill="rgb(0, 0, 0)" stroke="rgb(204, 204, 204)" stroke-width="1px"></line><line x1="30.78125" y1="16.090909090909097" x2="25.78125" y2="16.090909090909097" style="visibility: inherit;" fill="rgb(0, 0, 0)" stroke="rgb(204, 204, 204)" stroke-width="1px"></line><line x1="30.78125" y1="0" x2="25.78125" y2="0" style="visibility: inherit;" fill="rgb(0, 0, 0)" stroke="rgb(204, 204, 204)" stroke-width="1px"></line></g><g transform="translate(20.78125, 0)"><text x="0" y="177" dx="0em" dy="0.3em" style="text-anchor: end; visibility: hidden; font-family: Roboto, sans-serif; font-size: 12px; font-weight: 200;" fill="rgb(33, 33, 33)" stroke="none" stroke-width="1px">-1</text><text x="0" y="160.9090909090909" dx="0em" dy="0.3em" style="text-anchor: end; visibility: inherit; font-family: Roboto, sans-serif; font-size: 12px; font-weight: 200;" fill="rgb(33, 33, 33)" stroke="none" stroke-width="1px">0</text><text x="0" y="144.8181818181818" dx="0em" dy="0.3em" style="text-anchor: end; visibility: hidden; font-family: Roboto, sans-serif; font-size: 12px; font-weight: 200;" fill="rgb(33, 33, 33)" stroke="none" stroke-width="1px">1</text><text x="0" y="128.72727272727272" dx="0em" dy="0.3em" style="text-anchor: end; visibility: inherit; font-family: Roboto, sans-serif; font-size: 12px; font-weight: 200;" fill="rgb(33, 33, 33)" stroke="none" stroke-width="1px">2</text><text x="0" y="112.63636363636364" dx="0em" dy="0.3em" style="text-anchor: end; visibility: hidden; font-family: Roboto, sans-serif; font-size: 12px; font-weight: 200;" fill="rgb(33, 33, 33)" stroke="none" stroke-width="1px">3</text><text x="0" y="96.54545454545453" dx="0em" dy="0.3em" style="text-anchor: end; visibility: inherit; font-family: Roboto, sans-serif; font-size: 12px; font-weight: 200;" fill="rgb(33, 33, 33)" stroke="none" stroke-width="1px">4</text><text x="0" y="80.45454545454547" dx="0em" dy="0.3em" style="text-anchor: end; visibility: hidden; font-family: Roboto, sans-serif; font-size: 12px; font-weight: 200;" fill="rgb(33, 33, 33)" stroke="none" stroke-width="1px">5</text><text x="0" y="64.36363636363636" dx="0em" dy="0.3em" style="text-anchor: end; visibility: inherit; font-family: Roboto, sans-serif; font-size: 12px; font-weight: 200;" fill="rgb(33, 33, 33)" stroke="none" stroke-width="1px">6</text><text x="0" y="48.272727272727266" dx="0em" dy="0.3em" style="text-anchor: end; visibility: hidden; font-family: Roboto, sans-serif; font-size: 12px; font-weight: 200;" fill="rgb(33, 33, 33)" stroke="none" stroke-width="1px">7</text><text x="0" y="32.18181818181817" dx="0em" dy="0.3em" style="text-anchor: end; visibility: inherit; font-family: Roboto, sans-serif; font-size: 12px; font-weight: 200;" fill="rgb(33, 33, 33)" stroke="none" stroke-width="1px">8</text><text x="0" y="16.090909090909097" dx="0em" dy="0.3em" style="text-anchor: end; visibility: hidden; font-family: Roboto, sans-serif; font-size: 12px; font-weight: 200;" fill="rgb(33, 33, 33)" stroke="none" stroke-width="1px">9</text><text x="0" y="0" dx="0em" dy="0.3em" style="text-anchor: end; visibility: hidden; font-family: Roboto, sans-serif; font-size: 12px; font-weight: 200;" fill="rgb(33, 33, 33)" stroke="none" stroke-width="1px">10</text></g><line x1="30.78125" y1="0" x2="30.78125" y2="177" fill="rgb(0, 0, 0)" stroke="rgb(204, 204, 204)" stroke-width="1px"></line></g></g><g transform="translate(30, 0)" clip-path="url(#clip_0)"><clipPath id="clip_0"><rect width="299" height="177"></rect></clipPath><g><g><g><line x1="0" y1="0" x2="0" y2="177" fill="rgb(0, 0, 0)" stroke="rgb(66, 66, 66)" stroke-width="1px" opacity="0.25"></line><line x1="24.934895833333332" y1="0" x2="24.934895833333332" y2="177" fill="rgb(0, 0, 0)" stroke="rgb(66, 66, 66)" stroke-width="1px" opacity="0.25"></line><line x1="49.869791666666664" y1="0" x2="49.869791666666664" y2="177" fill="rgb(0, 0, 0)" stroke="rgb(66, 66, 66)" stroke-width="1px" opacity="0.25"></line><line x1="74.8046875" y1="0" x2="74.8046875" y2="177" fill="rgb(0, 0, 0)" stroke="rgb(66, 66, 66)" stroke-width="1px" opacity="0.25"></line><line x1="99.73958333333333" y1="0" x2="99.73958333333333" y2="177" fill="rgb(0, 0, 0)" stroke="rgb(66, 66, 66)" stroke-width="1px" opacity="0.25"></line><line x1="124.67447916666667" y1="0" x2="124.67447916666667" y2="177" fill="rgb(0, 0, 0)" stroke="rgb(66, 66, 66)" stroke-width="1px" opacity="0.25"></line><line x1="149.609375" y1="0" x2="149.609375" y2="177" fill="rgb(0, 0, 0)" stroke="rgb(66, 66, 66)" stroke-width="1px" opacity="0.25"></line><line x1="174.54427083333334" y1="0" x2="174.54427083333334" y2="177" fill="rgb(0, 0, 0)" stroke="rgb(66, 66, 66)" stroke-width="1px" opacity="0.25"></line><line x1="199.47916666666666" y1="0" x2="199.47916666666666" y2="177" fill="rgb(0, 0, 0)" stroke="rgb(66, 66, 66)" stroke-width="1px" opacity="0.25"></line><line x1="224.4140625" y1="0" x2="224.4140625" y2="177" fill="rgb(0, 0, 0)" stroke="rgb(66, 66, 66)" stroke-width="1px" opacity="0.25"></line><line x1="249.34895833333334" y1="0" x2="249.34895833333334" y2="177" fill="rgb(0, 0, 0)" stroke="rgb(66, 66, 66)" stroke-width="1px" opacity="0.25"></line><line x1="274.28385416666663" y1="0" x2="274.28385416666663" y2="177" fill="rgb(0, 0, 0)" stroke="rgb(66, 66, 66)" stroke-width="1px" opacity="0.25"></line><line x1="299.21875" y1="0" x2="299.21875" y2="177" fill="rgb(0, 0, 0)" stroke="rgb(66, 66, 66)" stroke-width="1px" opacity="0.25"></line></g><g><line x1="0" y1="177" x2="299.21875" y2="177" fill="rgb(0, 0, 0)" stroke="rgb(66, 66, 66)" stroke-width="1px" opacity="0.25"></line><line x1="0" y1="160.9090909090909" x2="299.21875" y2="160.9090909090909" fill="rgb(0, 0, 0)" stroke="rgb(66, 66, 66)" stroke-width="1px" opacity="0.25"></line><line x1="0" y1="144.8181818181818" x2="299.21875" y2="144.8181818181818" fill="rgb(0, 0, 0)" stroke="rgb(66, 66, 66)" stroke-width="1px" opacity="0.25"></line><line x1="0" y1="128.72727272727272" x2="299.21875" y2="128.72727272727272" fill="rgb(0, 0, 0)" stroke="rgb(66, 66, 66)" stroke-width="1px" opacity="0.25"></line><line x1="0" y1="112.63636363636364" x2="299.21875" y2="112.63636363636364" fill="rgb(0, 0, 0)" stroke="rgb(66, 66, 66)" stroke-width="1px" opacity="0.25"></line><line x1="0" y1="96.54545454545453" x2="299.21875" y2="96.54545454545453" fill="rgb(0, 0, 0)" stroke="rgb(66, 66, 66)" stroke-width="1px" opacity="0.25"></line><line x1="0" y1="80.45454545454547" x2="299.21875" y2="80.45454545454547" fill="rgb(0, 0, 0)" stroke="rgb(66, 66, 66)" stroke-width="1px" opacity="0.25"></line><line x1="0" y1="64.36363636363636" x2="299.21875" y2="64.36363636363636" fill="rgb(0, 0, 0)" stroke="rgb(66, 66, 66)" stroke-width="1px" opacity="0.25"></line><line x1="0" y1="48.272727272727266" x2="299.21875" y2="48.272727272727266" fill="rgb(0, 0, 0)" stroke="rgb(66, 66, 66)" stroke-width="1px" opacity="0.25"></line><line x1="0" y1="32.18181818181817" x2="299.21875" y2="32.18181818181817" fill="rgb(0, 0, 0)" stroke="rgb(66, 66, 66)" stroke-width="1px" opacity="0.25"></line><line x1="0" y1="16.090909090909097" x2="299.21875" y2="16.090909090909097" fill="rgb(0, 0, 0)" stroke="rgb(66, 66, 66)" stroke-width="1px" opacity="0.25"></line><line x1="0" y1="0" x2="299.21875" y2="0" fill="rgb(0, 0, 0)" stroke="rgb(66, 66, 66)" stroke-width="1px" opacity="0.25"></line></g></g></g><g><g><line x1="0" y1="160.9090909090909" x2="299.21875" y2="160.9090909090909" fill="rgb(0, 0, 0)" stroke="rgb(153, 153, 153)" stroke-width="1.5px"></line></g></g><g><g><line x1="24.934895833333332" y1="0" x2="24.934895833333332" y2="177" fill="rgb(0, 0, 0)" stroke="rgb(153, 153, 153)" stroke-width="1.5px"></line></g></g><g><g><g><g><g><path stroke="rgb(0, 119, 187)" stroke-width="2px" d="M33.662109375,-1.2437980698427056L34.908854166666664,2.0314153815009606L36.155598958333336,7.073347057500353L37.40234375,13.46281851550752L38.64908854166667,21.22625744179513L39.895833333333336,30.45168592307522L41.142578125,40.660489924736105L42.389322916666664,51.225608126496944L43.636067708333336,61.08517529119398L44.8828125,69.47944393505152L46.12955729166667,76.17885044509273L47.37630208333333,81.39802629345307L48.623046875,85.55041130417403L49.869791666666664,89.13821036308616L51.116536458333336,91.99442390800685L52.36328125,94.26838077405358L53.610026041666664,96.20296750912989L54.85677083333333,97.95665116535665L56.103515625,99.59019069899357L57.35026041666667,101.20194732692036L58.597005208333336,102.78676542102946L59.84375,104.50283254490915L61.090494791666664,106.36484095511366L62.337239583333336,108.42831149142367L63.583984375,110.62863399442277L64.83072916666667,112.86694943345262L66.07747395833333,115.18933058684559L67.32421875,117.53291189253945L68.57096354166666,119.6480743189559L69.81770833333333,121.58942991666471L71.064453125,123.68258997431722L72.31119791666667,125.44686510031798L73.55794270833333,127.07373953327948L74.8046875,128.52350570899003L76.05143229166666,129.85668018554736L77.29817708333334,130.95991603820642L78.544921875,131.96377340853283L79.79166666666667,132.80026072537964L81.03841145833333,133.55061419287762L82.28515625,134.18706754029762L83.53190104166667,134.8210014446307L84.77864583333333,135.46930012368412L86.025390625,136.02297400014186L87.27213541666667,136.52647078706292L88.51888020833333,136.91454041405714L89.765625,137.32728653845325L91.01236979166666,137.64841070536542L92.25911458333334,137.9636288915991L93.505859375,138.2646682998491L94.75260416666666,138.51868326962258L95.99934895833334,138.7803866443325L97.24609375,139.0057198706008L98.49283854166667,139.27906524880424L99.73958333333333,139.48433495498824L100.986328125,139.7079253165876L102.23307291666667,140.0131011467549L103.47981770833333,140.14289872578655L104.7265625,140.4013153900074L105.97330729166667,140.67259210501499L107.22005208333333,140.94054377279403L108.466796875,141.14073042339572L109.71354166666666,141.3983870803938L110.96028645833334,141.64128744524112L112.20703125,141.86392236359296L113.45377604166666,142.07455223618916L114.70052083333334,142.3377328721007L115.947265625,142.56962491425884L117.19401041666667,142.82681910714408L118.44075520833333,143.10339388290853L119.6875,143.40899111760635L120.93424479166667,143.76634886333224L122.18098958333333,144.0394538593063L123.427734375,144.32764752490664L124.67447916666667,144.56006124540718L125.92122395833333,144.86371922935683L127.16796875,145.10674122729193L128.41471354166666,145.43844504862548L129.66145833333334,145.66888300549158L130.908203125,145.9865571540501L132.15494791666666,146.20527380759592L133.40169270833334,146.47754033186533L134.6484375,146.71334015107342L135.89518229166666,147.00012530551072L137.14192708333331,147.2327569779065L138.388671875,147.47230185280807L139.63541666666666,147.7295585249317L140.88216145833334,147.9629590485257L142.12890625,148.1554859145738L143.37565104166669,148.33662202091017L144.62239583333334,148.45988189710323L145.869140625,148.6101781665545L147.11588541666666,148.77581774284556L148.36263020833334,148.96933684240213L149.609375,149.2134818360994L150.85611979166666,149.38522558528555L152.10286458333331,149.61203395252994L153.349609375,149.78852133760736L154.59635416666669,149.90576405791194L155.84309895833334,150.05081382130777L157.08984375,150.20669274009745L158.33658854166666,150.35851490998934L159.58333333333334,150.5696900983027L160.830078125,150.7339540573309L162.07682291666666,150.866800388292L163.32356770833331,150.6985749941821L164.5703125,150.9657169860022L165.81705729166669,151.22380318801828L167.06380208333334,151.41466462838298L168.310546875,151.53780565614272L169.55729166666666,151.5920733698403L170.80403645833331,151.954220141986L172.05078125,152.06580043631297L173.29752604166669,152.2093736154234L174.54427083333334,152.31809955752087L175.791015625,152.45079848608L177.03776041666666,152.6093105250309L178.28450520833334,152.7388294269324L179.53125,152.9078441122797L180.77799479166666,152.9671124905667L182.02473958333331,153.09861388419725L183.271484375,153.20108346980334L184.51822916666669,153.33437289176027L185.76497395833334,153.41487711513804L187.01171875,153.53292948998777L188.25846354166666,153.6307816315648L189.50520833333331,153.74311503442053L190.751953125,153.83755382374804L191.99869791666669,153.93584460737202L193.24544270833334,154.02901802926758L194.4921875,154.129472907654L195.73893229166666,154.22833896653148L196.98567708333334,154.3319061619256L198.232421875,154.4199362334574L199.47916666666666,154.52143936756855L200.72591145833331,154.61878620355762L201.97265625,154.6922252094008L203.21940104166669,154.78706740394412L204.46614583333334,154.88608073625076L205.712890625,154.97859470506376L206.95963541666666,155.06183736815154L208.20638020833331,155.15204722135454L209.453125,155.23555897308538L210.69986979166669,155.3231044080933L211.94661458333334,155.39463551986154L213.193359375,155.47478905137413L214.44010416666666,155.5419488966337L215.68684895833334,155.6151838910503L216.93359375,155.688789439912L218.18033854166666,155.75727747569675L219.42708333333331,155.83168458157894L220.673828125,155.8861104419856L221.92057291666669,155.96168747642537L223.16731770833334,156.01853955121902L224.4140625,156.07540968746096L225.66080729166666,156.11442103309614L226.90755208333331,156.20526722645488L228.154296875,156.25717311519546L229.40104166666669,156.2822912430762L230.64778645833334,156.2862876656705L231.89453125,156.39497315576722L233.14127604166666,156.43887647422963L234.38802083333334,156.49169671901842L235.634765625,156.48171608667838L236.88151041666666,156.59434179784705L238.12825520833331,156.63986154011184L239.375,156.65875427599616L240.62174479166669,156.64595050781128L241.86848958333334,156.70261475002806L243.115234375,156.752425860338L244.36197916666666,156.77313132181484L245.60872395833331,156.75214018498872L246.85546875,156.74594111812394L248.10221354166669,156.78333607332007L249.34895833333334,156.8491226078039L250.595703125,156.91429898603732L251.84244791666666,156.9630242272419L253.08919270833334,157.0045858259972L254.3359375,157.02809028406432L255.58268229166666,157.05379232459416L256.8294270833333,157.06605276228333L258.076171875,157.09044165198085L259.3229166666667,157.10165390135205L260.5696614583333,157.1254247158088L261.81640625,157.13401656759055L263.0631510416667,157.1574236964827L264.3098958333333,157.16534704279954L265.556640625,157.1896381570169L266.8033854166667,157.19668461748662L268.05013020833337,157.22167033366492L269.296875,157.2274848745809L270.5436197916667,157.25257563261556L271.7903645833333,157.25736175090185L273.037109375,157.28154446656663" style="fill: none;" fill="none"></path></g></g></g></g><g opacity="0.2"><g><g><g><path stroke="rgb(0, 119, 187)" stroke-width="2px" d="M32.415364583333336,-1.2458540309559394L33.662109375,1.8023734526200657L34.908854166666664,6.861719044772056L36.155598958333336,14.560027989474204L37.40234375,22.989073666659262L38.64908854166667,32.82916753942315L39.895833333333336,44.259706020355225L41.142578125,55.953695817427196L42.389322916666664,67.06086652929132L43.636067708333336,75.86757230758667L44.8828125,82.06729472767223L46.12955729166667,86.22625923156738L47.37630208333333,89.22599497708408L48.623046875,91.77860927581787L49.869791666666664,94.51971218802713L51.116536458333336,96.27865024046466L52.36328125,97.67927117781207L53.610026041666664,99.1048246947202L54.85677083333333,100.58716418526389L56.103515625,102.04049303314902L57.35026041666667,103.61957814476706L58.597005208333336,105.16399012912403L59.84375,107.07693164998835L61.090494791666664,109.15785254131664L62.337239583333336,111.52351661161944L63.583984375,113.92911731113087L64.83072916666667,116.22442232478748L66.07747395833333,118.67290215058759L67.32421875,121.04828375036067L68.57096354166666,122.82081790403888L69.81770833333333,124.50146328319202L71.064453125,126.82233004136518L72.31119791666667,128.09327777949244L73.55794270833333,129.51405117728493L74.8046875,130.69815496964887L76.05143229166666,131.85644189877942L77.29817708333334,132.61476981639862L78.544921875,133.46955946358767L79.79166666666667,134.0549917004325L81.03841145833333,134.6761443940076L82.28515625,135.14174756136808L83.53190104166667,135.77190230109474L84.77864583333333,136.44174814224243L86.025390625,136.85348481481725L87.27213541666667,137.28171596743843L88.51888020833333,137.4966448545456L89.765625,137.94640572504565L91.01236979166666,138.13009695573285L92.25911458333334,138.43645617094907L93.505859375,138.71622741222382L94.75260416666666,138.8997057242827L95.99934895833334,139.17294170639732L97.24609375,139.34371971000326L98.49283854166667,139.6890833161094L99.73958333333333,139.7922395142642L100.986328125,140.0433108589866L102.23307291666667,140.47086489200592L103.47981770833333,140.337595094334L104.7265625,140.78894038633868L105.97330729166667,141.0795071775263L107.22005208333333,141.3424712744626L108.466796875,141.44101039929822L109.71354166666666,141.7848720658909L110.96028645833334,142.0056379925121L112.20703125,142.19787474112078L113.45377604166666,142.3904970450835L114.70052083333334,142.73250382596797L115.947265625,142.91746297749606L117.19401041666667,143.2126103964719L118.44075520833333,143.51825604655525L119.6875,143.86738696965304L120.93424479166667,144.3023854819211L122.18098958333333,144.4491113532673L123.427734375,144.75993802330711L124.67447916666667,144.90868182615802L125.92122395833333,145.31920620528135L127.16796875,145.47127422419462L128.41471354166666,145.9360007806258L129.66145833333334,146.01453994079068L130.908203125,146.46306837688792L132.15494791666666,146.53334878791463L133.40169270833334,146.88594011826947L134.6484375,147.06703987988558L135.89518229166666,147.4303030371666L137.14192708333331,147.58170448650014L138.388671875,147.83161916516045L139.63541666666666,148.11544353311712L140.88216145833334,148.31305983391675L142.12890625,148.44427621364594L143.37565104166669,148.6083261804147L144.62239583333334,148.64477171139285L145.869140625,148.83562257073143L147.11588541666666,149.02427710728213L148.36263020833334,149.259615491737L149.609375,149.57969932664525L150.85611979166666,149.64284120906484L152.10286458333331,149.95224650339648L153.349609375,150.05325241522357L154.59635416666669,150.08162813836879L155.84309895833334,150.26838846640155L157.08984375,150.44051111828196L158.33658854166666,150.58624816482717L159.58333333333334,150.88645288077268L160.830078125,150.98034999587318L162.07682291666666,151.0660698847337L163.32356770833331,150.44623690301722L164.5703125,151.36642997373235L165.81705729166669,151.6109324910424L167.06380208333334,151.70095678893003L168.310546875,151.72251719778234L169.55729166666666,151.67347494038668L170.80403645833331,152.49744030020454L172.05078125,152.23317087780345L173.29752604166669,152.42473338408902L174.54427083333334,152.48118847066706L175.791015625,152.64984687891874L177.03776041666666,152.84707858345726L178.28450520833334,152.93310777978465L179.53125,153.16136614030057L180.77799479166666,153.05601505799726L182.02473958333331,153.29586597464302L183.271484375,153.3547878482125L184.51822916666669,153.53430702469566L185.76497395833334,153.53563345020467L187.01171875,153.7100080522624L188.25846354166666,153.77755984393033L189.50520833333331,153.91161513870412L190.751953125,153.97921200773933L191.99869791666669,154.08328078280795L193.24544270833334,154.16877816211093L194.4921875,154.28015522523359L195.73893229166666,154.37663805484772L196.98567708333334,154.48725695501673L198.232421875,154.5519813407551L199.47916666666666,154.6736940687353L200.72591145833331,154.7648064575412L201.97265625,154.8023837181655L203.21940104166669,154.92933069575918L204.46614583333334,155.0346007347107L205.712890625,155.11736565828323L206.95963541666666,155.18670136278325L208.20638020833331,155.28736200115898L209.453125,155.36082660068166L210.69986979166669,155.45442256060514L211.94661458333334,155.50193218751386L213.193359375,155.59501934864304L214.44010416666666,155.64268866452304L215.68684895833334,155.72503638267517L216.93359375,155.79919776320457L218.18033854166666,155.86000952937385L219.42708333333331,155.94329524040222L220.673828125,155.96774923259562L221.92057291666669,156.07505302808502L223.16731770833334,156.1038176634095L224.4140625,156.16071489182386L225.66080729166666,156.17293805154887L226.90755208333331,156.34153651649302L228.154296875,156.33503194830635L229.40104166666669,156.31996843489733L230.64778645833334,156.29228229956195L231.89453125,156.55800139091232L233.14127604166666,156.5047314519232L234.38802083333334,156.57092708620158L235.634765625,156.46674513816833L236.88151041666666,156.7632803646001L238.12825520833331,156.70814115350896L239.375,156.68709337982264L240.62174479166669,156.62674485553396L241.86848958333334,156.78761111335322L243.115234375,156.82714252580297L244.36197916666666,156.8041895140301L245.60872395833331,156.7206534797495L246.85546875,156.73664251782677L248.10221354166669,156.83942850611427L249.34895833333334,156.9478024095297L250.595703125,157.01206355338746L251.84244791666666,157.03611208904874L253.08919270833334,157.06692822413012L254.3359375,157.06334697116506L255.58268229166666,157.09234538538888L256.8294270833333,157.08444341881707L258.076171875,157.12702498652718L259.3229166666667,157.11847227540883L260.5696614583333,157.16108093749392L261.81640625,157.14690434526312L263.0631510416667,157.19253438982096L264.3098958333333,157.17723206227475L265.556640625,157.22607482834295L266.8033854166667,157.2072543081912L268.05013020833337,157.25914890793237L269.296875,157.23620668595487L270.5436197916667,157.29021176966754L271.7903645833333,157.2645409283313L273.037109375,157.31781854006377" style="fill: none;" fill="none"></path></g></g></g></g></g></g><g transform="translate(30, 177)" clip-path="url(#clip_1)"><clipPath id="clip_1"><rect width="299" height="23"></rect></clipPath><g><g><line x1="0" y1="0" x2="0" y2="5" style="visibility: inherit;" fill="rgb(0, 0, 0)" stroke="rgb(204, 204, 204)" stroke-width="1px"></line><line x1="24.934895833333332" y1="0" x2="24.934895833333332" y2="5" style="visibility: inherit;" fill="rgb(0, 0, 0)" stroke="rgb(204, 204, 204)" stroke-width="1px"></line><line x1="49.869791666666664" y1="0" x2="49.869791666666664" y2="5" style="visibility: inherit;" fill="rgb(0, 0, 0)" stroke="rgb(204, 204, 204)" stroke-width="1px"></line><line x1="74.8046875" y1="0" x2="74.8046875" y2="5" style="visibility: inherit;" fill="rgb(0, 0, 0)" stroke="rgb(204, 204, 204)" stroke-width="1px"></line><line x1="99.73958333333333" y1="0" x2="99.73958333333333" y2="5" style="visibility: inherit;" fill="rgb(0, 0, 0)" stroke="rgb(204, 204, 204)" stroke-width="1px"></line><line x1="124.67447916666667" y1="0" x2="124.67447916666667" y2="5" style="visibility: inherit;" fill="rgb(0, 0, 0)" stroke="rgb(204, 204, 204)" stroke-width="1px"></line><line x1="149.609375" y1="0" x2="149.609375" y2="5" style="visibility: inherit;" fill="rgb(0, 0, 0)" stroke="rgb(204, 204, 204)" stroke-width="1px"></line><line x1="174.54427083333334" y1="0" x2="174.54427083333334" y2="5" style="visibility: inherit;" fill="rgb(0, 0, 0)" stroke="rgb(204, 204, 204)" stroke-width="1px"></line><line x1="199.47916666666666" y1="0" x2="199.47916666666666" y2="5" style="visibility: inherit;" fill="rgb(0, 0, 0)" stroke="rgb(204, 204, 204)" stroke-width="1px"></line><line x1="224.4140625" y1="0" x2="224.4140625" y2="5" style="visibility: inherit;" fill="rgb(0, 0, 0)" stroke="rgb(204, 204, 204)" stroke-width="1px"></line><line x1="249.34895833333334" y1="0" x2="249.34895833333334" y2="5" style="visibility: inherit;" fill="rgb(0, 0, 0)" stroke="rgb(204, 204, 204)" stroke-width="1px"></line><line x1="274.28385416666663" y1="0" x2="274.28385416666663" y2="5" style="visibility: inherit;" fill="rgb(0, 0, 0)" stroke="rgb(204, 204, 204)" stroke-width="1px"></line><line x1="299.21875" y1="0" x2="299.21875" y2="5" style="visibility: inherit;" fill="rgb(0, 0, 0)" stroke="rgb(204, 204, 204)" stroke-width="1px"></line></g><g transform="translate(0, 8)"><text x="0" y="0" dx="0em" dy="0.95em" style="text-anchor: middle; visibility: hidden; font-family: Roboto, sans-serif; font-size: 12px; font-weight: 200;" fill="rgb(33, 33, 33)" stroke="none" stroke-width="1px">-20</text><text x="24.934895833333332" y="0" dx="0em" dy="0.95em" style="text-anchor: middle; visibility: inherit; font-family: Roboto, sans-serif; font-size: 12px; font-weight: 200;" fill="rgb(33, 33, 33)" stroke="none" stroke-width="1px">0</text><text x="49.869791666666664" y="0" dx="0em" dy="0.95em" style="text-anchor: middle; visibility: inherit; font-family: Roboto, sans-serif; font-size: 12px; font-weight: 200;" fill="rgb(33, 33, 33)" stroke="none" stroke-width="1px">20</text><text x="74.8046875" y="0" dx="0em" dy="0.95em" style="text-anchor: middle; visibility: inherit; font-family: Roboto, sans-serif; font-size: 12px; font-weight: 200;" fill="rgb(33, 33, 33)" stroke="none" stroke-width="1px">40</text><text x="99.73958333333333" y="0" dx="0em" dy="0.95em" style="text-anchor: middle; visibility: inherit; font-family: Roboto, sans-serif; font-size: 12px; font-weight: 200;" fill="rgb(33, 33, 33)" stroke="none" stroke-width="1px">60</text><text x="124.67447916666667" y="0" dx="0em" dy="0.95em" style="text-anchor: middle; visibility: inherit; font-family: Roboto, sans-serif; font-size: 12px; font-weight: 200;" fill="rgb(33, 33, 33)" stroke="none" stroke-width="1px">80</text><text x="149.609375" y="0" dx="0em" dy="0.95em" style="text-anchor: middle; visibility: inherit; font-family: Roboto, sans-serif; font-size: 12px; font-weight: 200;" fill="rgb(33, 33, 33)" stroke="none" stroke-width="1px">100</text><text x="174.54427083333334" y="0" dx="0em" dy="0.95em" style="text-anchor: middle; visibility: inherit; font-family: Roboto, sans-serif; font-size: 12px; font-weight: 200;" fill="rgb(33, 33, 33)" stroke="none" stroke-width="1px">120</text><text x="199.47916666666666" y="0" dx="0em" dy="0.95em" style="text-anchor: middle; visibility: inherit; font-family: Roboto, sans-serif; font-size: 12px; font-weight: 200;" fill="rgb(33, 33, 33)" stroke="none" stroke-width="1px">140</text><text x="224.4140625" y="0" dx="0em" dy="0.95em" style="text-anchor: middle; visibility: inherit; font-family: Roboto, sans-serif; font-size: 12px; font-weight: 200;" fill="rgb(33, 33, 33)" stroke="none" stroke-width="1px">160</text><text x="249.34895833333334" y="0" dx="0em" dy="0.95em" style="text-anchor: middle; visibility: inherit; font-family: Roboto, sans-serif; font-size: 12px; font-weight: 200;" fill="rgb(33, 33, 33)" stroke="none" stroke-width="1px">180</text><text x="274.28385416666663" y="0" dx="0em" dy="0.95em" style="text-anchor: middle; visibility: inherit; font-family: Roboto, sans-serif; font-size: 12px; font-weight: 200;" fill="rgb(33, 33, 33)" stroke="none" stroke-width="1px">200</text><text x="299.21875" y="0" dx="0em" dy="0.95em" style="text-anchor: middle; visibility: hidden; font-family: Roboto, sans-serif; font-size: 12px; font-weight: 200;" fill="rgb(33, 33, 33)" stroke="none" stroke-width="1px">220</text></g><line x1="0" y1="0" x2="299.21875" y2="0" fill="rgb(0, 0, 0)" stroke="rgb(204, 204, 204)" stroke-width="1px"></line></g></g></g></g></svg>