<svg viewBox="0 0 330 200" xmlns="http://www.w3.org/2000/svg"><g><g><g><g><g><line x1="72.34375" y1="177" x2="67.34375" y2="177" style="visibility: inherit;" fill="rgb(0, 0, 0)" stroke="rgb(204, 204, 204)" stroke-width="1px"></line><line x1="72.34375" y1="162.25" x2="67.34375" y2="162.25" style="visibility: inherit;" fill="rgb(0, 0, 0)" stroke="rgb(204, 204, 204)" stroke-width="1px"></line><line x1="72.34375" y1="147.5" x2="67.34375" y2="147.5" style="visibility: inherit;" fill="rgb(0, 0, 0)" stroke="rgb(204, 204, 204)" stroke-width="1px"></line><line x1="72.34375" y1="132.75" x2="67.34375" y2="132.75" style="visibility: inherit;" fill="rgb(0, 0, 0)" stroke="rgb(204, 204, 204)" stroke-width="1px"></line><line x1="72.34375" y1="118" x2="67.34375" y2="118" style="visibility: inherit;" fill="rgb(0, 0, 0)" stroke="rgb(204, 204, 204)" stroke-width="1px"></line><line x1="72.34375" y1="103.25" x2="67.34375" y2="103.25" style="visibility: inherit;" fill="rgb(0, 0, 0)" stroke="rgb(204, 204, 204)" stroke-width="1px"></line><line x1="72.34375" y1="88.5" x2="67.34375" y2="88.5" style="visibility: inherit;" fill="rgb(0, 0, 0)" stroke="rgb(204, 204, 204)" stroke-width="1px"></line><line x1="72.34375" y1="73.75" x2="67.34375" y2="73.75" style="visibility: inherit;" fill="rgb(0, 0, 0)" stroke="rgb(204, 204, 204)" stroke-width="1px"></line><line x1="72.34375" y1="59.00000000000001" x2="67.34375" y2="59.00000000000001" style="visibility: inherit;" fill="rgb(0, 0, 0)" stroke="rgb(204, 204, 204)" stroke-width="1px"></line><line x1="72.34375" y1="44.25" x2="67.34375" y2="44.25" style="visibility: inherit;" fill="rgb(0, 0, 0)" stroke="rgb(204, 204, 204)" stroke-width="1px"></line><line x1="72.34375" y1="29.499999999999993" x2="67.34375" y2="29.499999999999993" style="visibility: inherit;" fill="rgb(0, 0, 0)" stroke="rgb(204, 204, 204)" stroke-width="1px"></line><line x1="72.34375" y1="14.750000000000007" x2="67.34375" y2="14.750000000000007" style="visibility: inherit;" fill="rgb(0, 0, 0)" stroke="rgb(204, 204, 204)" stroke-width="1px"></line><line x1="72.34375" y1="0" x2="67.34375" y2="0" style="visibility: inherit;" fill="rgb(0, 0, 0)" stroke="rgb(204, 204, 204)" stroke-width="1px"></line></g><g transform="translate(62.34375, 0)"><text x="0" y="177" dx="0em" dy="0.3em" style="text-anchor: end; visibility: hidden; font-family: Roboto, sans-serif; font-size: 12px; font-weight: 200;" fill="rgb(33, 33, 33)" stroke="none" stroke-width="1px">1e-4</text><text x="0" y="162.25" dx="0em" dy="0.3em" style="text-anchor: end; visibility: inherit; font-family: Roboto, sans-serif; font-size: 12px; font-weight: 200;" fill="rgb(33, 33, 33)" stroke="none" stroke-width="1px">2e-4</text><text x="0" y="147.5" dx="0em" dy="0.3em" style="text-anchor: end; visibility: hidden; font-family: Roboto, sans-serif; font-size: 12px; font-weight: 200;" fill="rgb(33, 33, 33)" stroke="none" stroke-width="1px">3e-4</text><text x="0" y="132.75" dx="0em" dy="0.3em" style="text-anchor: end; visibility: inherit; font-family: Roboto, sans-serif; font-size: 12px; font-weight: 200;" fill="rgb(33, 33, 33)" stroke="none" stroke-width="1px">4e-4</text><text x="0" y="118" dx="0em" dy="0.3em" style="text-anchor: end; visibility: hidden; font-family: Roboto, sans-serif; font-size: 12px; font-weight: 200;" fill="rgb(33, 33, 33)" stroke="none" stroke-width="1px">5e-4</text><text x="0" y="103.25" dx="0em" dy="0.3em" style="text-anchor: end; visibility: inherit; font-family: Roboto, sans-serif; font-size: 12px; font-weight: 200;" fill="rgb(33, 33, 33)" stroke="none" stroke-width="1px">6e-4</text><text x="0" y="88.5" dx="0em" dy="0.3em" style="text-anchor: end; visibility: hidden; font-family: Roboto, sans-serif; font-size: 12px; font-weight: 200;" fill="rgb(33, 33, 33)" stroke="none" stroke-width="1px">7e-4</text><text x="0" y="73.75" dx="0em" dy="0.3em" style="text-anchor: end; visibility: inherit; font-family: Roboto, sans-serif; font-size: 12px; font-weight: 200;" fill="rgb(33, 33, 33)" stroke="none" stroke-width="1px">8e-4</text><text x="0" y="59.00000000000001" dx="0em" dy="0.3em" style="text-anchor: end; visibility: hidden; font-family: Roboto, sans-serif; font-size: 12px; font-weight: 200;" fill="rgb(33, 33, 33)" stroke="none" stroke-width="1px">9e-4</text><text x="0" y="44.25" dx="0em" dy="0.3em" style="text-anchor: end; visibility: inherit; font-family: Roboto, sans-serif; font-size: 12px; font-weight: 200;" fill="rgb(33, 33, 33)" stroke="none" stroke-width="1px">1e-3</text><text x="0" y="29.499999999999993" dx="0em" dy="0.3em" style="text-anchor: end; visibility: hidden; font-family: Roboto, sans-serif; font-size: 12px; font-weight: 200;" fill="rgb(33, 33, 33)" stroke="none" stroke-width="1px">1.1e-3</text><text x="0" y="14.750000000000007" dx="0em" dy="0.3em" style="text-anchor: end; visibility: inherit; font-family: Roboto, sans-serif; font-size: 12px; font-weight: 200;" fill="rgb(33, 33, 33)" stroke="none" stroke-width="1px">1.2e-3</text><text x="0" y="0" dx="0em" dy="0.3em" style="text-anchor: end; visibility: hidden; font-family: Roboto, sans-serif; font-size: 12px; font-weight: 200;" fill="rgb(33, 33, 33)" stroke="none" stroke-width="1px">1.3e-3</text></g><line x1="72.34375" y1="0" x2="72.34375" y2="177" fill="rgb(0, 0, 0)" stroke="rgb(204, 204, 204)" stroke-width="1px"></line></g></g><g transform="translate(72, 0)" clip-path="url(#clip_0)"><clipPath id="clip_0"><rect width="257" height="177"></rect></clipPath><g><g><g><line x1="0" y1="0" x2="0" y2="177" fill="rgb(0, 0, 0)" stroke="rgb(66, 66, 66)" stroke-width="1px" opacity="0.25"></line><line x1="21.471354166666664" y1="0" x2="21.471354166666664" y2="177" fill="rgb(0, 0, 0)" stroke="rgb(66, 66, 66)" stroke-width="1px" opacity="0.25"></line><line x1="42.94270833333333" y1="0" x2="42.94270833333333" y2="177" fill="rgb(0, 0, 0)" stroke="rgb(66, 66, 66)" stroke-width="1px" opacity="0.25"></line><line x1="64.4140625" y1="0" x2="64.4140625" y2="177" fill="rgb(0, 0, 0)" stroke="rgb(66, 66, 66)" stroke-width="1px" opacity="0.25"></line><line x1="85.88541666666666" y1="0" x2="85.88541666666666" y2="177" fill="rgb(0, 0, 0)" stroke="rgb(66, 66, 66)" stroke-width="1px" opacity="0.25"></line><line x1="107.35677083333334" y1="0" x2="107.35677083333334" y2="177" fill="rgb(0, 0, 0)" stroke="rgb(66, 66, 66)" stroke-width="1px" opacity="0.25"></line><line x1="128.828125" y1="0" x2="128.828125" y2="177" fill="rgb(0, 0, 0)" stroke="rgb(66, 66, 66)" stroke-width="1px" opacity="0.25"></line><line x1="150.29947916666669" y1="0" x2="150.29947916666669" y2="177" fill="rgb(0, 0, 0)" stroke="rgb(66, 66, 66)" stroke-width="1px" opacity="0.25"></line><line x1="171.77083333333331" y1="0" x2="171.77083333333331" y2="177" fill="rgb(0, 0, 0)" stroke="rgb(66, 66, 66)" stroke-width="1px" opacity="0.25"></line><line x1="193.2421875" y1="0" x2="193.2421875" y2="177" fill="rgb(0, 0, 0)" stroke="rgb(66, 66, 66)" stroke-width="1px" opacity="0.25"></line><line x1="214.71354166666669" y1="0" x2="214.71354166666669" y2="177" fill="rgb(0, 0, 0)" stroke="rgb(66, 66, 66)" stroke-width="1px" opacity="0.25"></line><line x1="236.18489583333331" y1="0" x2="236.18489583333331" y2="177" fill="rgb(0, 0, 0)" stroke="rgb(66, 66, 66)" stroke-width="1px" opacity="0.25"></line><line x1="257.65625" y1="0" x2="257.65625" y2="177" fill="rgb(0, 0, 0)" stroke="rgb(66, 66, 66)" stroke-width="1px" opacity="0.25"></line></g><g><line x1="0" y1="177" x2="257.65625" y2="177" fill="rgb(0, 0, 0)" stroke="rgb(66, 66, 66)" stroke-width="1px" opacity="0.25"></line><line x1="0" y1="162.25" x2="257.65625" y2="162.25" fill="rgb(0, 0, 0)" stroke="rgb(66, 66, 66)" stroke-width="1px" opacity="0.25"></line><line x1="0" y1="147.5" x2="257.65625" y2="147.5" fill="rgb(0, 0, 0)" stroke="rgb(66, 66, 66)" stroke-width="1px" opacity="0.25"></line><line x1="0" y1="132.75" x2="257.65625" y2="132.75" fill="rgb(0, 0, 0)" stroke="rgb(66, 66, 66)" stroke-width="1px" opacity="0.25"></line><line x1="0" y1="118" x2="257.65625" y2="118" fill="rgb(0, 0, 0)" stroke="rgb(66, 66, 66)" stroke-width="1px" opacity="0.25"></line><line x1="0" y1="103.25" x2="257.65625" y2="103.25" fill="rgb(0, 0, 0)" stroke="rgb(66, 66, 66)" stroke-width="1px" opacity="0.25"></line><line x1="0" y1="88.5" x2="257.65625" y2="88.5" fill="rgb(0, 0, 0)" stroke="rgb(66, 66, 66)" stroke-width="1px" opacity="0.25"></line><line x1="0" y1="73.75" x2="257.65625" y2="73.75" fill="rgb(0, 0, 0)" stroke="rgb(66, 66, 66)" stroke-width="1px" opacity="0.25"></line><line x1="0" y1="59.00000000000001" x2="257.65625" y2="59.00000000000001" fill="rgb(0, 0, 0)" stroke="rgb(66, 66, 66)" stroke-width="1px" opacity="0.25"></line><line x1="0" y1="44.25" x2="257.65625" y2="44.25" fill="rgb(0, 0, 0)" stroke="rgb(66, 66, 66)" stroke-width="1px" opacity="0.25"></line><line x1="0" y1="29.499999999999993" x2="257.65625" y2="29.499999999999993" fill="rgb(0, 0, 0)" stroke="rgb(66, 66, 66)" stroke-width="1px" opacity="0.25"></line><line x1="0" y1="14.750000000000007" x2="257.65625" y2="14.750000000000007" fill="rgb(0, 0, 0)" stroke="rgb(66, 66, 66)" stroke-width="1px" opacity="0.25"></line><line x1="0" y1="0" x2="257.65625" y2="0" fill="rgb(0, 0, 0)" stroke="rgb(66, 66, 66)" stroke-width="1px" opacity="0.25"></line></g></g></g><g><g><line x1="0" y1="191.75" x2="257.65625" y2="191.75" fill="rgb(0, 0, 0)" stroke="rgb(153, 153, 153)" stroke-width="1.5px"></line></g></g><g><g><line x1="21.471354166666664" y1="0" x2="21.471354166666664" y2="177" fill="rgb(0, 0, 0)" stroke="rgb(153, 153, 153)" stroke-width="1.5px"></line></g></g><g><g><g><g><g><path stroke="rgb(204, 51, 17)" stroke-width="2px" d="M30.059895833333332,-15.581991696264607L31.133463541666668,3.0942261819727586L32.20703125,15.863135691732161L33.280598958333336,25.75106837507336L34.354166666666664,36.316785031929605L35.427734375,44.2451678700745L36.501302083333336,51.22736277012153L37.57486979166667,55.587600714759894L38.6484375,59.17763896472751L39.722005208333336,62.52558820601553L40.795572916666664,64.52415115386248L41.869140625,65.39288812386803L42.94270833333333,66.37107470491901L44.016276041666664,68.01836518757045L45.08984375,70.0130474306643L46.163411458333336,71.98258236353286L47.236979166666664,73.79577297437936L48.310546875,75.34457769547589L49.384114583333336,76.60137655516155L50.457682291666664,77.6097845537588L51.53125,78.43586811400019L52.604817708333336,79.19575646705925L53.67838541666667,80.03493311302736L54.751953125,81.0644445901271L55.825520833333336,82.31412596255541L56.899088541666664,83.741401091218L57.97265625,85.27746473741718L59.04622395833333,86.86809006216936L60.119791666666664,88.49236247083172L61.193359375,90.16474874992853L62.266927083333336,91.91405368805862L63.340494791666664,93.74541149195284L64.4140625,95.59975302731618L65.48763020833333,97.34320256579669L66.56119791666667,98.80864081974143L67.634765625,99.86492229113354L68.70833333333333,100.45217938208951L69.78190104166666,100.60417937533931L70.85546875,100.4882390280254L71.92903645833333,100.37981969257817L73.00260416666667,100.53550292109138L74.076171875,101.07030181284064L75.14973958333334,101.92734515480697L76.22330729166667,102.95036589563823L77.296875,103.99234370747583L78.37044270833333,104.96919093024916L79.44401041666667,105.8403061197605L80.517578125,106.6301583214663L81.59114583333333,107.5652450399939L82.66471354166667,108.90314376051536L83.73828125,110.43722412618807L84.81184895833333,111.74295249115676L85.88541666666666,112.61094251135364L86.958984375,113.05705184536055L88.03255208333333,113.30576896038836L89.10611979166667,113.50945444614625L90.1796875,113.73503328836522L91.25325520833334,113.9653256414458L92.32682291666667,114.19585839216597L93.400390625,114.40538210631347L94.47395833333333,114.60304047982207L95.54752604166667,114.81819636723958L96.62109375,115.10844217450357L97.69466145833333,115.54085742868483L98.76822916666667,116.15640417044051L99.841796875,116.94033228745684L100.91536458333333,117.7955125477165L101.98893229166666,118.49539593281223L103.0625,118.73864400153978L104.13606770833333,118.53598879138006L105.20963541666667,118.41055273730306L106.283203125,118.79141986905596L107.35677083333334,119.45590470172465L108.43033854166667,120.09340919216629L109.50390625,120.69021350366529L110.57747395833333,121.34609124227426L111.65104166666667,122.02512871776707L112.724609375,122.45321681443602L113.79817708333333,122.28702477482148L114.87174479166667,121.66677310783416L115.9453125,121.1412681605434L117.01888020833333,120.9633524431847L118.09244791666666,121.09085763408802L119.166015625,121.3532173151616L120.23958333333333,121.41052210249471L121.31315104166667,121.33123810240068L122.38671875,120.57068007020278L123.46028645833334,118.66007690154947L124.53385416666667,115.28843132150358L125.607421875,115.761250550393L126.68098958333333,122.59859299415257L127.75455729166667,127.95387111150194L128.828125,131.0632428667741L129.90169270833334,131.53862061339896L130.97526041666666,132.68403809529264L132.048828125,131.621849710471L133.12239583333334,109.08106377068907L134.19596354166669,65.69616691744886L135.26953125,122.18923015648032L136.34309895833334,133.86299534072168L137.41666666666666,138.03947075398173L138.490234375,138.0270645186538L139.56380208333331,138.38095560099464L140.63736979166666,139.23552628152538L141.7109375,139.36294561612885L142.78450520833334,139.76759923575446L143.85807291666666,139.33281434769742L144.931640625,135.19803504645824L146.00520833333334,120.59057297487743L147.07877604166666,117.70844567404127L148.15234375,119.0997641843278L149.22591145833334,130.55402485956438L150.29947916666669,138.02938263874967L151.373046875,141.57395568513311L152.44661458333334,140.24351787706837L153.52018229166666,141.9243953442201L154.59375,139.01187920605298L155.66731770833331,135.9804864351172L156.74088541666666,126.47456277231686L157.814453125,121.88747960503679L158.88802083333334,142.5900993363466L159.96158854166666,143.6928118946962L161.03515625,141.22665407380555L162.10872395833334,136.7382240878651L163.18229166666666,128.75188395450823L164.255859375,139.07893726904877L165.32942708333334,142.99193686933722L166.40299479166669,142.91046353359707L167.4765625,141.32406233879738L168.55013020833334,128.13438827474602L169.62369791666666,113.33136272337288L170.697265625,137.97288060782012L171.77083333333331,143.68044858751819L172.84440104166666,143.5271092359908L173.91796875,144.21759564906824L174.99153645833334,145.52942410414107L176.06510416666666,144.79938798653893L177.138671875,145.8054220584454L178.21223958333334,143.36300779727753L179.28580729166666,140.40390603081323L180.359375,138.0544569711201L181.43294270833334,139.62215437099803L182.50651041666669,137.33953156229109L183.580078125,130.81368436000776L184.65364583333334,134.46585252135992L185.72721354166666,137.77030266833026L186.80078125,143.8066573482938L187.87434895833331,148.40755050140433L188.94791666666666,150.3109245696105L190.021484375,150.19012904854026L191.09505208333334,148.28030717221554L192.16861979166666,148.17853740719147L193.2421875,153.24385304306634L194.31575520833334,155.4631911731558L195.38932291666666,156.34986781701446L196.462890625,156.8231270594406L197.53645833333334,156.58719609386753L198.61002604166669,156.7254140045843L199.68359375,157.790388426336L200.75716145833334,159.5202233020682L201.83072916666666,160.72047290985938L202.904296875,161.17477508127922L203.97786458333331,161.44190622621682L205.05143229166666,161.63077076821355L206.125,162.05843816901324L207.19856770833334,162.72864317765925L208.27213541666666,163.22235339070903L209.345703125,163.47489325748757L210.41927083333334,163.55371577996993L211.49283854166666,163.53537472791504L212.56640625,163.50832140783314L213.63997395833334,163.50335247447947L214.71354166666669,163.50622007489437L215.787109375,163.5010365007911L216.86067708333334,163.50972301192814L217.93424479166666,163.60118358174805L219.0078125,163.86720288760262L220.08138020833331,164.32205453934148L221.15494791666666,164.78411597386003L222.228515625,164.87923402205342L223.30208333333334,164.28320885647554L224.37565104166666,163.42755853297422L225.44921875,164.1435592919588L226.52278645833334,166.69916435243795L227.59635416666666,168.29007085657213L228.669921875,165.73709514527582L229.74348958333334,156.90319879108574L230.81705729166669,156.2142878411105L231.890625,163.06698568409774L232.96419270833334,169.4683369587874L234.03776041666666,165.7423946253839L235.111328125,166.77888621966122" style="fill: none;" fill="none"></path></g></g></g></g></g></g><g transform="translate(72, 177)" clip-path="url(#clip_1)"><clipPath id="clip_1"><rect width="257" height="23"></rect></clipPath><g><g><line x1="0" y1="0" x2="0" y2="5" style="visibility: inherit;" fill="rgb(0, 0, 0)" stroke="rgb(204, 204, 204)" stroke-width="1px"></line><line x1="21.471354166666664" y1="0" x2="21.471354166666664" y2="5" style="visibility: inherit;" fill="rgb(0, 0, 0)" stroke="rgb(204, 204, 204)" stroke-width="1px"></line><line x1="42.94270833333333" y1="0" x2="42.94270833333333" y2="5" style="visibility: inherit;" fill="rgb(0, 0, 0)" stroke="rgb(204, 204, 204)" stroke-width="1px"></line><line x1="64.4140625" y1="0" x2="64.4140625" y2="5" style="visibility: inherit;" fill="rgb(0, 0, 0)" stroke="rgb(204, 204, 204)" stroke-width="1px"></line><line x1="85.88541666666666" y1="0" x2="85.88541666666666" y2="5" style="visibility: inherit;" fill="rgb(0, 0, 0)" stroke="rgb(204, 204, 204)" stroke-width="1px"></line><line x1="107.35677083333334" y1="0" x2="107.35677083333334" y2="5" style="visibility: inherit;" fill="rgb(0, 0, 0)" stroke="rgb(204, 204, 204)" stroke-width="1px"></line><line x1="128.828125" y1="0" x2="128.828125" y2="5" style="visibility: inherit;" fill="rgb(0, 0, 0)" stroke="rgb(204, 204, 204)" stroke-width="1px"></line><line x1="150.29947916666669" y1="0" x2="150.29947916666669" y2="5" style="visibility: inherit;" fill="rgb(0, 0, 0)" stroke="rgb(204, 204, 204)" stroke-width="1px"></line><line x1="171.77083333333331" y1="0" x2="171.77083333333331" y2="5" style="visibility: inherit;" fill="rgb(0, 0, 0)" stroke="rgb(204, 204, 204)" stroke-width="1px"></line><line x1="193.2421875" y1="0" x2="193.2421875" y2="5" style="visibility: inherit;" fill="rgb(0, 0, 0)" stroke="rgb(204, 204, 204)" stroke-width="1px"></line><line x1="214.71354166666669" y1="0" x2="214.71354166666669" y2="5" style="visibility: inherit;" fill="rgb(0, 0, 0)" stroke="rgb(204, 204, 204)" stroke-width="1px"></line><line x1="236.18489583333331" y1="0" x2="236.18489583333331" y2="5" style="visibility: inherit;" fill="rgb(0, 0, 0)" stroke="rgb(204, 204, 204)" stroke-width="1px"></line><line x1="257.65625" y1="0" x2="257.65625" y2="5" style="visibility: inherit;" fill="rgb(0, 0, 0)" stroke="rgb(204, 204, 204)" stroke-width="1px"></line></g><g transform="translate(0, 8)"><text x="0" y="0" dx="0em" dy="0.95em" style="text-anchor: middle; visibility: hidden; font-family: Roboto, sans-serif; font-size: 12px; font-weight: 200;" fill="rgb(33, 33, 33)" stroke="none" stroke-width="1px">-20</text><text x="21.471354166666664" y="0" dx="0em" dy="0.95em" style="text-anchor: middle; visibility: inherit; font-family: Roboto, sans-serif; font-size: 12px; font-weight: 200;" fill="rgb(33, 33, 33)" stroke="none" stroke-width="1px">0</text><text x="42.94270833333333" y="0" dx="0em" dy="0.95em" style="text-anchor: middle; visibility: hidden; font-family: Roboto, sans-serif; font-size: 12px; font-weight: 200;" fill="rgb(33, 33, 33)" stroke="none" stroke-width="1px">20</text><text x="64.4140625" y="0" dx="0em" dy="0.95em" style="text-anchor: middle; visibility: inherit; font-family: Roboto, sans-serif; font-size: 12px; font-weight: 200;" fill="rgb(33, 33, 33)" stroke="none" stroke-width="1px">40</text><text x="85.88541666666666" y="0" dx="0em" dy="0.95em" style="text-anchor: middle; visibility: hidden; font-family: Roboto, sans-serif; font-size: 12px; font-weight: 200;" fill="rgb(33, 33, 33)" stroke="none" stroke-width="1px">60</text><text x="107.35677083333334" y="0" dx="0em" dy="0.95em" style="text-anchor: middle; visibility: inherit; font-family: Roboto, sans-serif; font-size: 12px; font-weight: 200;" fill="rgb(33, 33, 33)" stroke="none" stroke-width="1px">80</text><text x="128.828125" y="0" dx="0em" dy="0.95em" style="text-anchor: middle; visibility: hidden; font-family: Roboto, sans-serif; font-size: 12px; font-weight: 200;" fill="rgb(33, 33, 33)" stroke="none" stroke-width="1px">100</text><text x="150.29947916666669" y="0" dx="0em" dy="0.95em" style="text-anchor: middle; visibility: inherit; font-family: Roboto, sans-serif; font-size: 12px; font-weight: 200;" fill="rgb(33, 33, 33)" stroke="none" stroke-width="1px">120</text><text x="171.77083333333331" y="0" dx="0em" dy="0.95em" style="text-anchor: middle; visibility: hidden; font-family: Roboto, sans-serif; font-size: 12px; font-weight: 200;" fill="rgb(33, 33, 33)" stroke="none" stroke-width="1px">140</text><text x="193.2421875" y="0" dx="0em" dy="0.95em" style="text-anchor: middle; visibility: inherit; font-family: Roboto, sans-serif; font-size: 12px; font-weight: 200;" fill="rgb(33, 33, 33)" stroke="none" stroke-width="1px">160</text><text x="214.71354166666669" y="0" dx="0em" dy="0.95em" style="text-anchor: middle; visibility: hidden; font-family: Roboto, sans-serif; font-size: 12px; font-weight: 200;" fill="rgb(33, 33, 33)" stroke="none" stroke-width="1px">180</text><text x="236.18489583333331" y="0" dx="0em" dy="0.95em" style="text-anchor: middle; visibility: inherit; font-family: Roboto, sans-serif; font-size: 12px; font-weight: 200;" fill="rgb(33, 33, 33)" stroke="none" stroke-width="1px">200</text><text x="257.65625" y="0" dx="0em" dy="0.95em" style="text-anchor: middle; visibility: hidden; font-family: Roboto, sans-serif; font-size: 12px; font-weight: 200;" fill="rgb(33, 33, 33)" stroke="none" stroke-width="1px">220</text></g><line x1="0" y1="0" x2="257.65625" y2="0" fill="rgb(0, 0, 0)" stroke="rgb(204, 204, 204)" stroke-width="1px"></line></g></g></g></g></svg>