<svg viewBox="0 0 301 200" xmlns="http://www.w3.org/2000/svg"><g><g><g><g><g><line x1="30" y1="177" x2="25" y2="177" style="visibility: inherit;" fill="rgb(0, 0, 0)" stroke="rgb(204, 204, 204)" stroke-width="1px"></line><line x1="30" y1="162.25" x2="25" y2="162.25" style="visibility: inherit;" fill="rgb(0, 0, 0)" stroke="rgb(204, 204, 204)" stroke-width="1px"></line><line x1="30" y1="147.5" x2="25" y2="147.5" style="visibility: inherit;" fill="rgb(0, 0, 0)" stroke="rgb(204, 204, 204)" stroke-width="1px"></line><line x1="30" y1="132.75" x2="25" y2="132.75" style="visibility: inherit;" fill="rgb(0, 0, 0)" stroke="rgb(204, 204, 204)" stroke-width="1px"></line><line x1="30" y1="118.00000000000001" x2="25" y2="118.00000000000001" style="visibility: inherit;" fill="rgb(0, 0, 0)" stroke="rgb(204, 204, 204)" stroke-width="1px"></line><line x1="30" y1="103.24999999999999" x2="25" y2="103.24999999999999" style="visibility: inherit;" fill="rgb(0, 0, 0)" stroke="rgb(204, 204, 204)" stroke-width="1px"></line><line x1="30" y1="88.5" x2="25" y2="88.5" style="visibility: inherit;" fill="rgb(0, 0, 0)" stroke="rgb(204, 204, 204)" stroke-width="1px"></line><line x1="30" y1="73.75" x2="25" y2="73.75" style="visibility: inherit;" fill="rgb(0, 0, 0)" stroke="rgb(204, 204, 204)" stroke-width="1px"></line><line x1="30" y1="59.00000000000001" x2="25" y2="59.00000000000001" style="visibility: inherit;" fill="rgb(0, 0, 0)" stroke="rgb(204, 204, 204)" stroke-width="1px"></line><line x1="30" y1="44.25" x2="25" y2="44.25" style="visibility: inherit;" fill="rgb(0, 0, 0)" stroke="rgb(204, 204, 204)" stroke-width="1px"></line><line x1="30" y1="29.499999999999993" x2="25" y2="29.499999999999993" style="visibility: inherit;" fill="rgb(0, 0, 0)" stroke="rgb(204, 204, 204)" stroke-width="1px"></line><line x1="30" y1="14.750000000000007" x2="25" y2="14.750000000000007" style="visibility: inherit;" fill="rgb(0, 0, 0)" stroke="rgb(204, 204, 204)" stroke-width="1px"></line><line x1="30" y1="0" x2="25" y2="0" style="visibility: inherit;" fill="rgb(0, 0, 0)" stroke="rgb(204, 204, 204)" stroke-width="1px"></line></g><g transform="translate(20, 0)"><text x="0" y="177" dx="0em" dy="0.3em" style="text-anchor: end; visibility: hidden; font-family: Roboto, sans-serif; font-size: 12px; font-weight: 200;" fill="rgb(33, 33, 33)" stroke="none" stroke-width="1px">-5</text><text x="0" y="162.25" dx="0em" dy="0.3em" style="text-anchor: end; visibility: inherit; font-family: Roboto, sans-serif; font-size: 12px; font-weight: 200;" fill="rgb(33, 33, 33)" stroke="none" stroke-width="1px">0</text><text x="0" y="147.5" dx="0em" dy="0.3em" style="text-anchor: end; visibility: hidden; font-family: Roboto, sans-serif; font-size: 12px; font-weight: 200;" fill="rgb(33, 33, 33)" stroke="none" stroke-width="1px">5</text><text x="0" y="132.75" dx="0em" dy="0.3em" style="text-anchor: end; visibility: inherit; font-family: Roboto, sans-serif; font-size: 12px; font-weight: 200;" fill="rgb(33, 33, 33)" stroke="none" stroke-width="1px">10</text><text x="0" y="118.00000000000001" dx="0em" dy="0.3em" style="text-anchor: end; visibility: hidden; font-family: Roboto, sans-serif; font-size: 12px; font-weight: 200;" fill="rgb(33, 33, 33)" stroke="none" stroke-width="1px">15</text><text x="0" y="103.24999999999999" dx="0em" dy="0.3em" style="text-anchor: end; visibility: inherit; font-family: Roboto, sans-serif; font-size: 12px; font-weight: 200;" fill="rgb(33, 33, 33)" stroke="none" stroke-width="1px">20</text><text x="0" y="88.5" dx="0em" dy="0.3em" style="text-anchor: end; visibility: hidden; font-family: Roboto, sans-serif; font-size: 12px; font-weight: 200;" fill="rgb(33, 33, 33)" stroke="none" stroke-width="1px">25</text><text x="0" y="73.75" dx="0em" dy="0.3em" style="text-anchor: end; visibility: inherit; font-family: Roboto, sans-serif; font-size: 12px; font-weight: 200;" fill="rgb(33, 33, 33)" stroke="none" stroke-width="1px">30</text><text x="0" y="59.00000000000001" dx="0em" dy="0.3em" style="text-anchor: end; visibility: hidden; font-family: Roboto, sans-serif; font-size: 12px; font-weight: 200;" fill="rgb(33, 33, 33)" stroke="none" stroke-width="1px">35</text><text x="0" y="44.25" dx="0em" dy="0.3em" style="text-anchor: end; visibility: inherit; font-family: Roboto, sans-serif; font-size: 12px; font-weight: 200;" fill="rgb(33, 33, 33)" stroke="none" stroke-width="1px">40</text><text x="0" y="29.499999999999993" dx="0em" dy="0.3em" style="text-anchor: end; visibility: hidden; font-family: Roboto, sans-serif; font-size: 12px; font-weight: 200;" fill="rgb(33, 33, 33)" stroke="none" stroke-width="1px">45</text><text x="0" y="14.750000000000007" dx="0em" dy="0.3em" style="text-anchor: end; visibility: inherit; font-family: Roboto, sans-serif; font-size: 12px; font-weight: 200;" fill="rgb(33, 33, 33)" stroke="none" stroke-width="1px">50</text><text x="0" y="0" dx="0em" dy="0.3em" style="text-anchor: end; visibility: hidden; font-family: Roboto, sans-serif; font-size: 12px; font-weight: 200;" fill="rgb(33, 33, 33)" stroke="none" stroke-width="1px">55</text></g><line x1="30" y1="0" x2="30" y2="177" fill="rgb(0, 0, 0)" stroke="rgb(204, 204, 204)" stroke-width="1px"></line></g></g><g transform="translate(30, 0)" clip-path="url(#clip_0)"><clipPath id="clip_0"><rect width="300" height="177"></rect></clipPath><g><g><g><line x1="0" y1="0" x2="0" y2="177" fill="rgb(0, 0, 0)" stroke="rgb(66, 66, 66)" stroke-width="1px" opacity="0.25"></line><line x1="25" y1="0" x2="25" y2="177" fill="rgb(0, 0, 0)" stroke="rgb(66, 66, 66)" stroke-width="1px" opacity="0.25"></line><line x1="50" y1="0" x2="50" y2="177" fill="rgb(0, 0, 0)" stroke="rgb(66, 66, 66)" stroke-width="1px" opacity="0.25"></line><line x1="75" y1="0" x2="75" y2="177" fill="rgb(0, 0, 0)" stroke="rgb(66, 66, 66)" stroke-width="1px" opacity="0.25"></line><line x1="100" y1="0" x2="100" y2="177" fill="rgb(0, 0, 0)" stroke="rgb(66, 66, 66)" stroke-width="1px" opacity="0.25"></line><line x1="125" y1="0" x2="125" y2="177" fill="rgb(0, 0, 0)" stroke="rgb(66, 66, 66)" stroke-width="1px" opacity="0.25"></line><line x1="150" y1="0" x2="150" y2="177" fill="rgb(0, 0, 0)" stroke="rgb(66, 66, 66)" stroke-width="1px" opacity="0.25"></line><line x1="175" y1="0" x2="175" y2="177" fill="rgb(0, 0, 0)" stroke="rgb(66, 66, 66)" stroke-width="1px" opacity="0.25"></line><line x1="200" y1="0" x2="200" y2="177" fill="rgb(0, 0, 0)" stroke="rgb(66, 66, 66)" stroke-width="1px" opacity="0.25"></line><line x1="225" y1="0" x2="225" y2="177" fill="rgb(0, 0, 0)" stroke="rgb(66, 66, 66)" stroke-width="1px" opacity="0.25"></line><line x1="250" y1="0" x2="250" y2="177" fill="rgb(0, 0, 0)" stroke="rgb(66, 66, 66)" stroke-width="1px" opacity="0.25"></line><line x1="275" y1="0" x2="275" y2="177" fill="rgb(0, 0, 0)" stroke="rgb(66, 66, 66)" stroke-width="1px" opacity="0.25"></line><line x1="300" y1="0" x2="300" y2="177" fill="rgb(0, 0, 0)" stroke="rgb(66, 66, 66)" stroke-width="1px" opacity="0.25"></line></g><g><line x1="0" y1="177" x2="300" y2="177" fill="rgb(0, 0, 0)" stroke="rgb(66, 66, 66)" stroke-width="1px" opacity="0.25"></line><line x1="0" y1="162.25" x2="300" y2="162.25" fill="rgb(0, 0, 0)" stroke="rgb(66, 66, 66)" stroke-width="1px" opacity="0.25"></line><line x1="0" y1="147.5" x2="300" y2="147.5" fill="rgb(0, 0, 0)" stroke="rgb(66, 66, 66)" stroke-width="1px" opacity="0.25"></line><line x1="0" y1="132.75" x2="300" y2="132.75" fill="rgb(0, 0, 0)" stroke="rgb(66, 66, 66)" stroke-width="1px" opacity="0.25"></line><line x1="0" y1="118.00000000000001" x2="300" y2="118.00000000000001" fill="rgb(0, 0, 0)" stroke="rgb(66, 66, 66)" stroke-width="1px" opacity="0.25"></line><line x1="0" y1="103.24999999999999" x2="300" y2="103.24999999999999" fill="rgb(0, 0, 0)" stroke="rgb(66, 66, 66)" stroke-width="1px" opacity="0.25"></line><line x1="0" y1="88.5" x2="300" y2="88.5" fill="rgb(0, 0, 0)" stroke="rgb(66, 66, 66)" stroke-width="1px" opacity="0.25"></line><line x1="0" y1="73.75" x2="300" y2="73.75" fill="rgb(0, 0, 0)" stroke="rgb(66, 66, 66)" stroke-width="1px" opacity="0.25"></line><line x1="0" y1="59.00000000000001" x2="300" y2="59.00000000000001" fill="rgb(0, 0, 0)" stroke="rgb(66, 66, 66)" stroke-width="1px" opacity="0.25"></line><line x1="0" y1="44.25" x2="300" y2="44.25" fill="rgb(0, 0, 0)" stroke="rgb(66, 66, 66)" stroke-width="1px" opacity="0.25"></line><line x1="0" y1="29.499999999999993" x2="300" y2="29.499999999999993" fill="rgb(0, 0, 0)" stroke="rgb(66, 66, 66)" stroke-width="1px" opacity="0.25"></line><line x1="0" y1="14.750000000000007" x2="300" y2="14.750000000000007" fill="rgb(0, 0, 0)" stroke="rgb(66, 66, 66)" stroke-width="1px" opacity="0.25"></line><line x1="0" y1="0" x2="300" y2="0" fill="rgb(0, 0, 0)" stroke="rgb(66, 66, 66)" stroke-width="1px" opacity="0.25"></line></g></g></g><g><g><line x1="0" y1="162.25" x2="300" y2="162.25" fill="rgb(0, 0, 0)" stroke="rgb(153, 153, 153)" stroke-width="1.5px"></line></g></g><g><g><line x1="25" y1="0" x2="25" y2="177" fill="rgb(0, 0, 0)" stroke="rgb(153, 153, 153)" stroke-width="1.5px"></line></g></g><g><g><g><g><g><path stroke="rgb(0, 119, 187)" stroke-width="2px" d="M25,57.74822158813476L25.500000000000004,66.09105529785157L26,78.39087314605713L26.5,78.10993309020996L27,52.29436092376709L27.499999999999996,52.177697372436526L28,68.5317114830017L28.5,76.34029769897461L29,77.77902812957764L29.5,75.91710958480834L30,70.18199377059936L30.5,62.77415084838867L31,60.801932525634776L31.5,65.19975566864014L32,69.83521032333374L32.5,71.3892370223999L33,69.8855803489685L33.5,66.44618873596191L34,63.55424480438233L34.5,63.42434730529786L35,65.12050952911376L35.5,66.20360012054444L36,65.52047634124756L36.5,63.501894187927256L37,61.648578834533694L37.5,61.223753356933585L38,61.86994361877442L38.5,62.26070518493653L39,61.64698085784912L39.49999999999999,60.402089500427245L40,59.52393379211425L40.5,59.39620819091797L41,59.42789764404298L41.5,58.93096065521241L42.00000000000001,58.059241867065424L42.5,57.563621520996094L43,57.69430675506591L43.5,57.90608367919923L44,57.89353618621826L44.5,58.09126892089844L45,58.62109947204589L45.5,58.69390869140625L46,57.50809745788574L46.5,54.50781745910645L47,49.18206501007081L47.5,41.70041694641114L48,32.97055778503419L48.49999999999999,24.138113021850586L49,16.360411643981926L49.5,9.504922866821282L50,-1.5147918701171927L61.49999999999999,-3.315148925781232L62,3.0218639373779297L62.5,8.963928985595693L63,14.294160270690924L63.5,19.34031181335449L64,24.199151229858394L64.5,28.46286811828613L65,32.45725841522217L65.5,36.615463829040536L66,40.13480491638184L66.5,44.00189723968505L67,48.15495986938476L67.5,52.31056575775146L68,56.96568565368651L68.5,62.72595272064209L69,66.09229316711425L69.5,71.80534114837646L70,77.55374717712402L70.5,83.02113437652588L71,86.62433547973633L71.5,91.73904247283936L72,94.33205785751343L72.5,97.84720706939696L73,99.37309474945069L73.5,102.45781431198121L74,103.11642827987671L74.5,104.50688743591307L75,108.72822980880738L75.5,106.94263153076172L76,109.15959348678588L76.5,109.55929584503174L77,111.61549797058106L77.50000000000001,113.51077709197999L78,113.39378156661986L78.5,114.42860651016237L78.99999999999999,114.13696451187134L79.5,117.57262001037599L80,115.08136310577392L80.5,115.0931116104126L81,117.23997077941894L81.5,118.56969556808471L82,115.65258350372314L82.5,119.53209109306334L83,115.48658804893493L83.5,116.9623420238495L84.00000000000001,119.57276072502135L84.5,121.88333654403688L85,120.44207410812378L85.49999999999999,119.5029983520508L86,121.43801589012145L86.5,120.05070204734803L87,121.09152503013611L87.5,124.33832950592041L88,125.64605398178101L88.5,124.88108172416688L89,127.0530921459198L89.5,127.44566268920897L90,126.74328722953797L90.50000000000001,125.52506351470946L91,126.04865407943727L91.5,126.96756944656372L92,129.2381902217865L92.5,129.52690353393555L93,129.52817797660828L93.5,128.7062777996063L94,129.14681015014648L94.5,129.18881330490112L95,131.1559338569641L95.5,131.41233596801757L96,131.61274700164796L96.5,132.30256090164184L96.99999999999999,131.98240852355957L97.5,131.8379632472992L98,131.0393350124359L98.5,131.17507300376892L99,133.06683826446533L99.5,131.69156832695006L100,133.1180016517639L100.5,132.80250816345216L101,133.2283408164978L101.5,133.85095529556276L102.00000000000001,134.1286515712738L102.5,132.69144315719603L103,134.703391456604L103.49999999999999,135.004868888855L104,136.0180564403534L104.5,134.6933422088623L105,134.3961326122284L105.5,135.91780309677125L106,135.2483690261841L106.5,135.55199303627015L107,136.1543261528015L107.5,136.5557671546936L108,136.94082889556884L108.50000000000001,137.08856296539307L109,137.64036288261414L109.5,136.35326862335205L109.99999999999999,137.73715581893921L110.5,137.87805066108703L111,137.91643304824828L111.5,138.23736190795898L112,138.41982383728026L112.5,138.95997371673585L113,138.80393748283387L113.5,139.01972060203553L114,139.58349409103394L114.5,138.8016839981079L115.00000000000001,139.5432084798813L115.5,139.08601694107057L116,137.88454947471618L116.49999999999999,139.39521136283875L117,139.8508569717407L117.5,141.27195057868957L118,138.81798589229584L118.5,140.29843814373015L119,140.82787623405457L119.5,140.68396549224855L120,141.0873336315155L120.5,142.22272279262543L121,140.28514652252198L121.50000000000001,140.84718418121338L122,141.94170396327974L122.5,141.82899737358093L122.99999999999999,142.50134043693544L123.5,141.7744284391403L124,142.4277659893036L124.5,142.90259997844697L125,142.55774648189544L125.5,142.3692147731781L126,143.56581797599793L126.5,143.59934453964235L127,143.38136982917786L127.5,143.56929244995118L128,143.88436956405639L128.5,144.48815717697144L129,144.05940005779266L129.5,144.3357473373413L130,144.94650218486785L130.5,144.61170496940613L131,144.78186416625977L131.5,144.3963804244995L132,145.1302751302719L132.5,144.34679954051973L133,144.92387731075286L133.5,144.62931928634643L134,144.75136756896973L134.5,144.87539644241332L135,144.696285200119L135.5,144.8713508605957L136,144.89912695884703L136.5,144.69719672203064L137,145.25070292949675L137.5,145.60459990501403L138,144.82111868858337L138.5,145.7505165576935L139,144.91472129821778L139.5,145.40020940303802L140,145.89070243835448L140.5,145.14565143585205L141,145.2064898967743L141.5,145.57542417049407L142,146.38244740962983L142.5,146.64867510795594L143,145.94009623527526L143.5,146.44019541740417L144,147.31718077659608L144.5,147.3781444311142L145,146.90905809402466L145.5,147.40480363368988L146,147.65497419834136L146.5,147.31775329113006L147,146.87629113197326L147.5,147.54622316360474L148,147.72032384872438L148.5,147.71282629966737L149,147.93551194667816L149.5,147.33701903820037L150,148.27141761779785L150.5,147.30323786735534L151,147.80305008888246L151.5,148.8277216911316L152,149.22532529830931L152.5,148.52487275600433L153,148.8380649328232L153.5,149.47211985588075L154,148.87183485031127L154.5,149.79644160270692L155.00000000000003,147.94246230125427L155.5,147.01457800865174L156,149.12410275936128L156.49999999999997,148.26014878749848L157,149.85474383831024L157.5,149.0589809894562L157.99999999999997,150.4131311893463L158.5,150.71590908765793L159,148.9642685174942L159.5,149.2104483604431L160,148.34752407073975L160.5,149.0662365913391L161,149.23583030700684L161.5,149.03498742580413L162,148.74951508045197L162.5,149.00428264141084L163,148.63390090465546L163.5,149.0403665304184L164,147.68527245521545L164.5,148.95539243221282L165,150.07475821971894L165.5,149.6479830980301L166,150.13731422424317L166.50000000000003,150.14078307151794L167,150.04127526283264L167.5,150.93532211780547L168.00000000000003,149.69316532611847L168.5,149.6052597284317L169,150.37764654159545L169.49999999999997,150.40246019363403L170,149.26872386932374L170.5,150.5058061003685L170.99999999999997,151.04366873502732L171.5,150.55957112312316L172,150.91976153850555L172.5,149.77318091392516L173,151.18379623889922L173.5,151.3119002342224L174,152.3315823793411L174.5,151.599396777153L175,152.3908045768738L175.5,150.74111660718918L176,151.87831122875212L176.5,151.55667340755463L177,153.45307997465133L177.5,152.56634850502013L178,151.63616712093352L178.5,151.90720281600952L179,153.48150032758713L179.50000000000003,153.27145853042603L180,153.27983454465866L180.5,152.70873230695724L181.00000000000003,153.64697320461272L181.5,152.89484946727754L182,153.85741871595383L182.49999999999997,152.42511324882508L183,153.30239189863204L183.5,153.7803332209587L184,152.84776401519775L184.5,152.40449709892272L185,153.52481238842012L185.5,153.28252761363984L186,153.55524990558624L186.5,154.03968019485472L187,153.06698573827742L187.5,154.74753744602202L188,154.0404960632324L188.5,153.31032621860504L189,153.6766222834587L189.5,153.27942168712616L190,152.55593211650847L190.5,153.45271986722946L191,153.22248392105104L191.5,154.03782057762146L192,153.92015899419783L192.50000000000003,154.34909687042236L193,154.04781777858733L193.5,154.32194603681563L193.99999999999997,154.15018042325974L194.5,153.90787103176118L195,153.88858699798584L195.49999999999997,154.14107856750488L196,154.19679534435272L196.5,154.8648058652878L197,154.2864634990692L197.5,154.5412662267685L198,154.81272532939911L198.5,154.8096334695816L199,154.60170800685881L199.5,154.96977014541625L200,154.8402200937271L200.5,154.7841432094574L201,154.7338807940483L201.5,155.04263492822648L202,154.8038126707077L202.5,155.0379352450371L203,154.89241597652435L203.5,155.1793512582779L204.00000000000003,155.28160840272903L204.5,155.2270619750023L205,155.33132362365723L205.50000000000003,155.6506066799164L206,155.6340909719467L206.5,155.91682523488998L206.99999999999997,155.91519560813904L207.5,155.93854562044143L208,155.97945016622543L208.49999999999997,156.00959861278534L209,155.96009720563887L209.5,156.02662212848662L210,156.060196518898L210.5,156.1115554332733L211,156.12820196151733L211.5,156.21853828430176L212,156.2330466747284L212.5,156.2348092317581L213,156.26776468753815L213.5,156.27762755155564L214,156.30192776918412L214.5,156.3715726852417L215,156.3758180141449L215.5,156.46341906785966L216,156.4610470712185L216.5,156.5423346400261L217.00000000000003,156.56993631124496L217.5,156.63926191329955L218,156.73107594251633L218.50000000000003,156.71273226737975L219,156.84772648215295L219.5,156.68933266997337L219.99999999999997,156.90760981440545L220.5,156.58647980093957L221,156.941552400589L221.5,156.61011290550232L222,156.99451702833176L222.5,156.68837789297103L223,157.06584889292716L223.5,156.77979102134705L224,157.10581624507904L224.5,156.874620950222L225,157.1483954310417L225.5,156.9147314310074L226,157.18966254591942L226.5,156.9629594504833L227,157.2422343611717L227.5,156.98524918556214L228,157.28112666606904L228.5,157.04415769577025L229,157.2969014108181L229.5,157.1240600466728L230.00000000000003,157.34327086806297L230.5,157.18698037862777L231,157.37808066606522L231.49999999999997,157.24015495181084L232,157.3927114367485L232.5,157.34319947957994L232.99999999999997,157.41069394946098L233.5,157.40782891511918L234,157.43793305158616L234.5,157.4598204791546L235,157.46677505373955L235.5,157.49490668773652L236,157.5023922801018L236.5,157.52279391288758L237,157.53470840454102L237.5,157.55668128728865L238,157.56420943140984L238.5,157.59392954707147L239,157.59412331581115L239.5,157.62645350694658L240,157.62555183172225L240.5,157.65747760534288L241,157.6553345441818L241.50000000000003,157.6849920630455L242,157.68214004039766L242.5,157.71126724481582L243.00000000000003,157.70586422681808L243.5,157.73502554297448L244,157.7293665111065L244.49999999999997,157.75790924429893L245,157.75332455635072L245.5,157.77938029766082L245.99999999999997,157.77859291434288L246.5,157.79857078790664L247,157.80456847548484L247.5,157.8175699710846L248,157.83263821601867L248.5,157.83785625696183L249,157.86523778438567L249.5,157.8619454741478L250,157.9023967206478L250.5,157.8929681658745L251,157.9444797039032L251.5,157.93044254779815L252,157.9880389869213L252.5,157.96863116621972L253,158.0262810587883L253.5,158.00267397761345L254,158.0567818760872L254.50000000000003,158.03303869962693L255,158.0845544576645L255.5,158.0647939145565L256,158.1147531926632L256.5,158.09838905334473L257,158.14560567736626L257.5,158.12976939082145L258,158.172791326046L258.5,158.1566691339016L259,158.19589306116103L259.5,158.18115925192834L260,158.218936419487L260.5,158.20783920288085L261,158.2455302119255L261.5,158.23780759572983L262,158.274397534132L262.5,158.26804255247117L263,158.30206250548363L263.5,158.29661201238633L264,158.32758793234825L264.5,158.32351105213166L265,158.35175381302832L265.5,158.34947887659072L266,158.3753025174141L266.5,158.37496984004974L267,158.39845876097678L267.5,158.39988547563553L268,158.42106288671494L268.5,158.4239644944668L269,158.44305511116983L269.5,158.44718403816222L270,158.46447693109513L270.5,158.46959580183028L271,158.48546373844147L271.5,158.4913794875145L272,158.50613052845L272.5,158.51266450881957L273,158.52655888795852L273.5,158.53351346254348L274,158.54678539037704L274.5,158.55406068563462" style="fill: none;" fill="none"></path></g></g></g></g></g></g><g transform="translate(30, 177)" clip-path="url(#clip_1)"><clipPath id="clip_1"><rect width="300" height="23"></rect></clipPath><g><g><line x1="0" y1="0" x2="0" y2="5" style="visibility: inherit;" fill="rgb(0, 0, 0)" stroke="rgb(204, 204, 204)" stroke-width="1px"></line><line x1="25" y1="0" x2="25" y2="5" style="visibility: inherit;" fill="rgb(0, 0, 0)" stroke="rgb(204, 204, 204)" stroke-width="1px"></line><line x1="50" y1="0" x2="50" y2="5" style="visibility: inherit;" fill="rgb(0, 0, 0)" stroke="rgb(204, 204, 204)" stroke-width="1px"></line><line x1="75" y1="0" x2="75" y2="5" style="visibility: inherit;" fill="rgb(0, 0, 0)" stroke="rgb(204, 204, 204)" stroke-width="1px"></line><line x1="100" y1="0" x2="100" y2="5" style="visibility: inherit;" fill="rgb(0, 0, 0)" stroke="rgb(204, 204, 204)" stroke-width="1px"></line><line x1="125" y1="0" x2="125" y2="5" style="visibility: inherit;" fill="rgb(0, 0, 0)" stroke="rgb(204, 204, 204)" stroke-width="1px"></line><line x1="150" y1="0" x2="150" y2="5" style="visibility: inherit;" fill="rgb(0, 0, 0)" stroke="rgb(204, 204, 204)" stroke-width="1px"></line><line x1="175" y1="0" x2="175" y2="5" style="visibility: inherit;" fill="rgb(0, 0, 0)" stroke="rgb(204, 204, 204)" stroke-width="1px"></line><line x1="200" y1="0" x2="200" y2="5" style="visibility: inherit;" fill="rgb(0, 0, 0)" stroke="rgb(204, 204, 204)" stroke-width="1px"></line><line x1="225" y1="0" x2="225" y2="5" style="visibility: inherit;" fill="rgb(0, 0, 0)" stroke="rgb(204, 204, 204)" stroke-width="1px"></line><line x1="250" y1="0" x2="250" y2="5" style="visibility: inherit;" fill="rgb(0, 0, 0)" stroke="rgb(204, 204, 204)" stroke-width="1px"></line><line x1="275" y1="0" x2="275" y2="5" style="visibility: inherit;" fill="rgb(0, 0, 0)" stroke="rgb(204, 204, 204)" stroke-width="1px"></line><line x1="300" y1="0" x2="300" y2="5" style="visibility: inherit;" fill="rgb(0, 0, 0)" stroke="rgb(204, 204, 204)" stroke-width="1px"></line></g><g transform="translate(0, 8)"><text x="0" y="0" dx="0em" dy="0.95em" style="text-anchor: middle; visibility: hidden; font-family: Roboto, sans-serif; font-size: 12px; font-weight: 200;" fill="rgb(33, 33, 33)" stroke="none" stroke-width="1px">-50</text><text x="25" y="0" dx="0em" dy="0.95em" style="text-anchor: middle; visibility: inherit; font-family: Roboto, sans-serif; font-size: 12px; font-weight: 200;" fill="rgb(33, 33, 33)" stroke="none" stroke-width="1px">0</text><text x="50" y="0" dx="0em" dy="0.95em" style="text-anchor: middle; visibility: inherit; font-family: Roboto, sans-serif; font-size: 12px; font-weight: 200;" fill="rgb(33, 33, 33)" stroke="none" stroke-width="1px">50</text><text x="75" y="0" dx="0em" dy="0.95em" style="text-anchor: middle; visibility: inherit; font-family: Roboto, sans-serif; font-size: 12px; font-weight: 200;" fill="rgb(33, 33, 33)" stroke="none" stroke-width="1px">100</text><text x="100" y="0" dx="0em" dy="0.95em" style="text-anchor: middle; visibility: inherit; font-family: Roboto, sans-serif; font-size: 12px; font-weight: 200;" fill="rgb(33, 33, 33)" stroke="none" stroke-width="1px">150</text><text x="125" y="0" dx="0em" dy="0.95em" style="text-anchor: middle; visibility: inherit; font-family: Roboto, sans-serif; font-size: 12px; font-weight: 200;" fill="rgb(33, 33, 33)" stroke="none" stroke-width="1px">200</text><text x="150" y="0" dx="0em" dy="0.95em" style="text-anchor: middle; visibility: inherit; font-family: Roboto, sans-serif; font-size: 12px; font-weight: 200;" fill="rgb(33, 33, 33)" stroke="none" stroke-width="1px">250</text><text x="175" y="0" dx="0em" dy="0.95em" style="text-anchor: middle; visibility: inherit; font-family: Roboto, sans-serif; font-size: 12px; font-weight: 200;" fill="rgb(33, 33, 33)" stroke="none" stroke-width="1px">300</text><text x="200" y="0" dx="0em" dy="0.95em" style="text-anchor: middle; visibility: inherit; font-family: Roboto, sans-serif; font-size: 12px; font-weight: 200;" fill="rgb(33, 33, 33)" stroke="none" stroke-width="1px">350</text><text x="225" y="0" dx="0em" dy="0.95em" style="text-anchor: middle; visibility: inherit; font-family: Roboto, sans-serif; font-size: 12px; font-weight: 200;" fill="rgb(33, 33, 33)" stroke="none" stroke-width="1px">400</text><text x="250" y="0" dx="0em" dy="0.95em" style="text-anchor: middle; visibility: inherit; font-family: Roboto, sans-serif; font-size: 12px; font-weight: 200;" fill="rgb(33, 33, 33)" stroke="none" stroke-width="1px">450</text><text x="275" y="0" dx="0em" dy="0.95em" style="text-anchor: middle; visibility: inherit; font-family: Roboto, sans-serif; font-size: 12px; font-weight: 200;" fill="rgb(33, 33, 33)" stroke="none" stroke-width="1px">500</text><text x="300" y="0" dx="0em" dy="0.95em" style="text-anchor: middle; visibility: hidden; font-family: Roboto, sans-serif; font-size: 12px; font-weight: 200;" fill="rgb(33, 33, 33)" stroke="none" stroke-width="1px">550</text></g><line x1="0" y1="0" x2="300" y2="0" fill="rgb(0, 0, 0)" stroke="rgb(204, 204, 204)" stroke-width="1px"></line></g></g></g></g></svg>