<svg viewBox="0 0 301 200" xmlns="http://www.w3.org/2000/svg"><g><g><g><g><g><line x1="72.34375" y1="177" x2="67.34375" y2="177" style="visibility: inherit;" fill="rgb(0, 0, 0)" stroke="rgb(204, 204, 204)" stroke-width="1px"></line><line x1="72.34375" y1="163.3846153846154" x2="67.34375" y2="163.3846153846154" style="visibility: inherit;" fill="rgb(0, 0, 0)" stroke="rgb(204, 204, 204)" stroke-width="1px"></line><line x1="72.34375" y1="149.76923076923077" x2="67.34375" y2="149.76923076923077" style="visibility: inherit;" fill="rgb(0, 0, 0)" stroke="rgb(204, 204, 204)" stroke-width="1px"></line><line x1="72.34375" y1="136.15384615384613" x2="67.34375" y2="136.15384615384613" style="visibility: inherit;" fill="rgb(0, 0, 0)" stroke="rgb(204, 204, 204)" stroke-width="1px"></line><line x1="72.34375" y1="122.53846153846153" x2="67.34375" y2="122.53846153846153" style="visibility: inherit;" fill="rgb(0, 0, 0)" stroke="rgb(204, 204, 204)" stroke-width="1px"></line><line x1="72.34375" y1="108.92307692307693" x2="67.34375" y2="108.92307692307693" style="visibility: inherit;" fill="rgb(0, 0, 0)" stroke="rgb(204, 204, 204)" stroke-width="1px"></line><line x1="72.34375" y1="95.3076923076923" x2="67.34375" y2="95.3076923076923" style="visibility: inherit;" fill="rgb(0, 0, 0)" stroke="rgb(204, 204, 204)" stroke-width="1px"></line><line x1="72.34375" y1="81.6923076923077" x2="67.34375" y2="81.6923076923077" style="visibility: inherit;" fill="rgb(0, 0, 0)" stroke="rgb(204, 204, 204)" stroke-width="1px"></line><line x1="72.34375" y1="68.07692307692307" x2="67.34375" y2="68.07692307692307" style="visibility: inherit;" fill="rgb(0, 0, 0)" stroke="rgb(204, 204, 204)" stroke-width="1px"></line><line x1="72.34375" y1="54.46153846153847" x2="67.34375" y2="54.46153846153847" style="visibility: inherit;" fill="rgb(0, 0, 0)" stroke="rgb(204, 204, 204)" stroke-width="1px"></line><line x1="72.34375" y1="40.84615384615384" x2="67.34375" y2="40.84615384615384" style="visibility: inherit;" fill="rgb(0, 0, 0)" stroke="rgb(204, 204, 204)" stroke-width="1px"></line><line x1="72.34375" y1="27.230769230769234" x2="67.34375" y2="27.230769230769234" style="visibility: inherit;" fill="rgb(0, 0, 0)" stroke="rgb(204, 204, 204)" stroke-width="1px"></line><line x1="72.34375" y1="13.615384615384606" x2="67.34375" y2="13.615384615384606" style="visibility: inherit;" fill="rgb(0, 0, 0)" stroke="rgb(204, 204, 204)" stroke-width="1px"></line><line x1="72.34375" y1="0" x2="67.34375" y2="0" style="visibility: inherit;" fill="rgb(0, 0, 0)" stroke="rgb(204, 204, 204)" stroke-width="1px"></line></g><g transform="translate(62.34375, 0)"><text x="0" y="177" dx="0em" dy="0.3em" style="text-anchor: end; visibility: hidden; font-family: Roboto, sans-serif; font-size: 12px; font-weight: 200;" fill="rgb(33, 33, 33)" stroke="none" stroke-width="1px">-100</text><text x="0" y="163.3846153846154" dx="0em" dy="0.3em" style="text-anchor: end; visibility: inherit; font-family: Roboto, sans-serif; font-size: 12px; font-weight: 200;" fill="rgb(33, 33, 33)" stroke="none" stroke-width="1px">0</text><text x="0" y="149.76923076923077" dx="0em" dy="0.3em" style="text-anchor: end; visibility: hidden; font-family: Roboto, sans-serif; font-size: 12px; font-weight: 200;" fill="rgb(33, 33, 33)" stroke="none" stroke-width="1px">100</text><text x="0" y="136.15384615384613" dx="0em" dy="0.3em" style="text-anchor: end; visibility: inherit; font-family: Roboto, sans-serif; font-size: 12px; font-weight: 200;" fill="rgb(33, 33, 33)" stroke="none" stroke-width="1px">200</text><text x="0" y="122.53846153846153" dx="0em" dy="0.3em" style="text-anchor: end; visibility: hidden; font-family: Roboto, sans-serif; font-size: 12px; font-weight: 200;" fill="rgb(33, 33, 33)" stroke="none" stroke-width="1px">300</text><text x="0" y="108.92307692307693" dx="0em" dy="0.3em" style="text-anchor: end; visibility: inherit; font-family: Roboto, sans-serif; font-size: 12px; font-weight: 200;" fill="rgb(33, 33, 33)" stroke="none" stroke-width="1px">400</text><text x="0" y="95.3076923076923" dx="0em" dy="0.3em" style="text-anchor: end; visibility: hidden; font-family: Roboto, sans-serif; font-size: 12px; font-weight: 200;" fill="rgb(33, 33, 33)" stroke="none" stroke-width="1px">500</text><text x="0" y="81.6923076923077" dx="0em" dy="0.3em" style="text-anchor: end; visibility: inherit; font-family: Roboto, sans-serif; font-size: 12px; font-weight: 200;" fill="rgb(33, 33, 33)" stroke="none" stroke-width="1px">600</text><text x="0" y="68.07692307692307" dx="0em" dy="0.3em" style="text-anchor: end; visibility: hidden; font-family: Roboto, sans-serif; font-size: 12px; font-weight: 200;" fill="rgb(33, 33, 33)" stroke="none" stroke-width="1px">700</text><text x="0" y="54.46153846153847" dx="0em" dy="0.3em" style="text-anchor: end; visibility: inherit; font-family: Roboto, sans-serif; font-size: 12px; font-weight: 200;" fill="rgb(33, 33, 33)" stroke="none" stroke-width="1px">800</text><text x="0" y="40.84615384615384" dx="0em" dy="0.3em" style="text-anchor: end; visibility: hidden; font-family: Roboto, sans-serif; font-size: 12px; font-weight: 200;" fill="rgb(33, 33, 33)" stroke="none" stroke-width="1px">900</text><text x="0" y="27.230769230769234" dx="0em" dy="0.3em" style="text-anchor: end; visibility: inherit; font-family: Roboto, sans-serif; font-size: 12px; font-weight: 200;" fill="rgb(33, 33, 33)" stroke="none" stroke-width="1px">1e+3</text><text x="0" y="13.615384615384606" dx="0em" dy="0.3em" style="text-anchor: end; visibility: hidden; font-family: Roboto, sans-serif; font-size: 12px; font-weight: 200;" fill="rgb(33, 33, 33)" stroke="none" stroke-width="1px">1.1e+3</text><text x="0" y="0" dx="0em" dy="0.3em" style="text-anchor: end; visibility: hidden; font-family: Roboto, sans-serif; font-size: 12px; font-weight: 200;" fill="rgb(33, 33, 33)" stroke="none" stroke-width="1px">1.2e+3</text></g><line x1="72.34375" y1="0" x2="72.34375" y2="177" fill="rgb(0, 0, 0)" stroke="rgb(204, 204, 204)" stroke-width="1px"></line></g></g><g transform="translate(72, 0)" clip-path="url(#clip_0)"><clipPath id="clip_0"><rect width="257" height="177"></rect></clipPath><g><g><g><line x1="0" y1="0" x2="0" y2="177" fill="rgb(0, 0, 0)" stroke="rgb(66, 66, 66)" stroke-width="1px" opacity="0.25"></line><line x1="21.471354166666664" y1="0" x2="21.471354166666664" y2="177" fill="rgb(0, 0, 0)" stroke="rgb(66, 66, 66)" stroke-width="1px" opacity="0.25"></line><line x1="42.94270833333333" y1="0" x2="42.94270833333333" y2="177" fill="rgb(0, 0, 0)" stroke="rgb(66, 66, 66)" stroke-width="1px" opacity="0.25"></line><line x1="64.4140625" y1="0" x2="64.4140625" y2="177" fill="rgb(0, 0, 0)" stroke="rgb(66, 66, 66)" stroke-width="1px" opacity="0.25"></line><line x1="85.88541666666666" y1="0" x2="85.88541666666666" y2="177" fill="rgb(0, 0, 0)" stroke="rgb(66, 66, 66)" stroke-width="1px" opacity="0.25"></line><line x1="107.35677083333334" y1="0" x2="107.35677083333334" y2="177" fill="rgb(0, 0, 0)" stroke="rgb(66, 66, 66)" stroke-width="1px" opacity="0.25"></line><line x1="128.828125" y1="0" x2="128.828125" y2="177" fill="rgb(0, 0, 0)" stroke="rgb(66, 66, 66)" stroke-width="1px" opacity="0.25"></line><line x1="150.29947916666669" y1="0" x2="150.29947916666669" y2="177" fill="rgb(0, 0, 0)" stroke="rgb(66, 66, 66)" stroke-width="1px" opacity="0.25"></line><line x1="171.77083333333331" y1="0" x2="171.77083333333331" y2="177" fill="rgb(0, 0, 0)" stroke="rgb(66, 66, 66)" stroke-width="1px" opacity="0.25"></line><line x1="193.2421875" y1="0" x2="193.2421875" y2="177" fill="rgb(0, 0, 0)" stroke="rgb(66, 66, 66)" stroke-width="1px" opacity="0.25"></line><line x1="214.71354166666669" y1="0" x2="214.71354166666669" y2="177" fill="rgb(0, 0, 0)" stroke="rgb(66, 66, 66)" stroke-width="1px" opacity="0.25"></line><line x1="236.18489583333331" y1="0" x2="236.18489583333331" y2="177" fill="rgb(0, 0, 0)" stroke="rgb(66, 66, 66)" stroke-width="1px" opacity="0.25"></line><line x1="257.65625" y1="0" x2="257.65625" y2="177" fill="rgb(0, 0, 0)" stroke="rgb(66, 66, 66)" stroke-width="1px" opacity="0.25"></line></g><g><line x1="0" y1="177" x2="257.65625" y2="177" fill="rgb(0, 0, 0)" stroke="rgb(66, 66, 66)" stroke-width="1px" opacity="0.25"></line><line x1="0" y1="163.3846153846154" x2="257.65625" y2="163.3846153846154" fill="rgb(0, 0, 0)" stroke="rgb(66, 66, 66)" stroke-width="1px" opacity="0.25"></line><line x1="0" y1="149.76923076923077" x2="257.65625" y2="149.76923076923077" fill="rgb(0, 0, 0)" stroke="rgb(66, 66, 66)" stroke-width="1px" opacity="0.25"></line><line x1="0" y1="136.15384615384613" x2="257.65625" y2="136.15384615384613" fill="rgb(0, 0, 0)" stroke="rgb(66, 66, 66)" stroke-width="1px" opacity="0.25"></line><line x1="0" y1="122.53846153846153" x2="257.65625" y2="122.53846153846153" fill="rgb(0, 0, 0)" stroke="rgb(66, 66, 66)" stroke-width="1px" opacity="0.25"></line><line x1="0" y1="108.92307692307693" x2="257.65625" y2="108.92307692307693" fill="rgb(0, 0, 0)" stroke="rgb(66, 66, 66)" stroke-width="1px" opacity="0.25"></line><line x1="0" y1="95.3076923076923" x2="257.65625" y2="95.3076923076923" fill="rgb(0, 0, 0)" stroke="rgb(66, 66, 66)" stroke-width="1px" opacity="0.25"></line><line x1="0" y1="81.6923076923077" x2="257.65625" y2="81.6923076923077" fill="rgb(0, 0, 0)" stroke="rgb(66, 66, 66)" stroke-width="1px" opacity="0.25"></line><line x1="0" y1="68.07692307692307" x2="257.65625" y2="68.07692307692307" fill="rgb(0, 0, 0)" stroke="rgb(66, 66, 66)" stroke-width="1px" opacity="0.25"></line><line x1="0" y1="54.46153846153847" x2="257.65625" y2="54.46153846153847" fill="rgb(0, 0, 0)" stroke="rgb(66, 66, 66)" stroke-width="1px" opacity="0.25"></line><line x1="0" y1="40.84615384615384" x2="257.65625" y2="40.84615384615384" fill="rgb(0, 0, 0)" stroke="rgb(66, 66, 66)" stroke-width="1px" opacity="0.25"></line><line x1="0" y1="27.230769230769234" x2="257.65625" y2="27.230769230769234" fill="rgb(0, 0, 0)" stroke="rgb(66, 66, 66)" stroke-width="1px" opacity="0.25"></line><line x1="0" y1="13.615384615384606" x2="257.65625" y2="13.615384615384606" fill="rgb(0, 0, 0)" stroke="rgb(66, 66, 66)" stroke-width="1px" opacity="0.25"></line><line x1="0" y1="0" x2="257.65625" y2="0" fill="rgb(0, 0, 0)" stroke="rgb(66, 66, 66)" stroke-width="1px" opacity="0.25"></line></g></g></g><g><g><line x1="0" y1="163.3846153846154" x2="257.65625" y2="163.3846153846154" fill="rgb(0, 0, 0)" stroke="rgb(153, 153, 153)" stroke-width="1.5px"></line></g></g><g><g><line x1="21.471354166666664" y1="0" x2="21.471354166666664" y2="177" fill="rgb(0, 0, 0)" stroke="rgb(153, 153, 153)" stroke-width="1.5px"></line></g></g><g><g><g><g><g><path stroke="rgb(0, 119, 187)" stroke-width="2px" d="M22.759635416666665,-57.72170175405649L23.1890625,51.86324707031249L23.618489583333332,49.81364304762621L24.04791666666667,-5.083846998948319L25.765625,-17.336712552584125L26.195052083333334,14.374369178185102L26.624479166666667,21.506507192758406L27.05390625,7.429459322415872L27.483333333333334,-12.810394944411067L28.77161458333333,-0.3125954026442488L29.201041666666665,9.193775165264423L29.630468750000002,8.821944861778842L30.059895833333332,2.1892647611177964L30.489322916666666,-2.778289701021639L30.91875,-1.0513197678785955L31.348177083333336,5.330941631610572L31.777604166666666,10.64009399414062L32.20703125,11.512861422025242L32.63645833333334,9.331158916766828L33.06588541666667,7.92964853140024L33.495312500000004,9.711399113581729L33.92473958333333,13.437380746694718L34.354166666666664,16.166075345552887L34.78359375,16.906511606069706L35.21302083333333,17.178453650841348L35.64244791666667,18.831645883413465L36.071875000000006,21.578406794621397L36.501302083333336,23.85929950420673L36.930729166666666,25.35114145132212L37.360156249999996,27.151764432466944L37.78958333333333,29.73887864332932L38.21901041666667,32.29629230205829L38.6484375,34.46015286959135L39.07786458333334,36.91528494027945L39.50729166666667,39.868786292442906L39.93671875,42.71660719651442L40.366145833333334,45.42346266526443L40.795572916666664,48.43269202599159L41.225,51.527316706730765L41.65442708333333,54.48870441143329L42.08385416666667,57.4579701585036L42.51328125,60.48702758789062L42.94270833333333,63.47678621732272L43.372135416666666,66.47372483473558L43.8015625,69.41620689978966L44.23098958333333,72.22777052659255L44.66041666666667,74.99105205829326L45.08984375,77.6681571138822L45.51927083333333,80.22653475247897L45.94869791666667,82.72846970778245L46.378125,85.16749666654147L46.807552083333334,87.57762084960939L47.236979166666664,89.96551532451922L47.66640625,92.29270399827224L48.09583333333334,94.56157604510967L48.52526041666666,96.75067875788763L48.9546875,98.86067279522236L49.384114583333336,100.91052612304686L49.813541666666666,102.89829416128306L50.24296875,104.83287710336539L50.67239583333333,106.71227635310247L51.10182291666667,108.5411622267503L51.53125,110.30601407564603L51.96067708333333,112.0054441011869L52.39010416666667,113.65808786245492L52.81953125,115.23011880727914L53.248958333333334,116.76148392897386L53.67838541666667,118.25942969689004L54.1078125,119.7066418691782L54.53723958333333,121.135542579064L54.96666666666667,122.55947380652793L55.39609375,123.96462820199821L55.825520833333336,125.36977844238281L56.254947916666666,126.78306849553034L56.684375,128.166583205003L57.11380208333333,129.56405692467322L57.54322916666666,130.9502765948956L57.97265625,132.32507185715895L58.40208333333333,133.72029559795672L58.83151041666667,135.09356802133414L59.260937500000004,136.417166395921L59.690364583333334,137.73416233943058L60.119791666666664,139.03888000488283L60.549218749999994,140.26134982769304L60.97864583333333,141.48137646014874L61.40807291666667,142.5915945669321L61.8375,143.6112525822566L62.266927083333336,144.60055977454553L62.69635416666667,145.46258007343L63.125781249999996,146.33712691673867L63.55520833333333,147.11295100285457L63.98463541666666,147.78019335233247L64.4140625,148.4213635782095L64.84348958333332,148.90959445073054L65.27291666666667,149.5347946049617L65.70234375,149.9796089876615L66.13177083333333,150.49346427330605L66.56119791666667,150.90813974233774L66.99062500000001,151.3609713627742L67.42005208333333,151.79026650061974L67.84947916666665,152.0522321847769L68.27890625,152.4830148432805L68.70833333333333,152.82573565556453L69.13776041666667,153.07466475853553L69.5671875,153.52503760704627L69.99661458333334,153.86184365492602L70.42604166666666,154.01890796954814L70.85546875,154.37479936453013L71.28489583333334,154.5721191875751L71.71432291666666,154.72829223632812L72.14375000000001,155.10277815892147L72.57317708333333,155.40094710423398L73.00260416666667,155.54440195523776L73.43203125,155.80335416353665L73.86145833333333,156.02009174053484L74.29088541666667,156.11624769357533L74.72031249999999,156.24391166100136L75.14973958333334,156.5691494310819L75.57916666666667,156.77216535714956L76.00859375,156.94062447474553L76.43802083333334,157.11193865555984L76.86744791666666,157.28132331848144L77.296875,157.38522538992075L77.72630208333334,157.56530576265777L78.15572916666667,157.6607169165978L78.58515625,157.7988953282283L79.01458333333333,157.97280591818003L79.44401041666667,158.08614886357233L79.8734375,158.1886537874662L80.30286458333333,158.32560281313383L80.73229166666667,158.40395266606257L81.16171875,158.5702859379695L81.59114583333333,158.69126748891978L82.02057291666667,158.79785842015193L82.45,158.9269896521935L82.87942708333333,158.9993073595487L83.30885416666666,159.0634966806265L83.73828125,159.18154266357422L84.16770833333334,159.21173065919143L84.59713541666666,159.31483988835262L85.0265625,159.45174892132098L85.45598958333333,159.5170110335717L85.88541666666666,159.59475450369027L86.31484375000001,159.66619185227614L86.74427083333333,159.73663509662333L87.17369791666667,159.8200712937575L87.603125,159.90124322891236L88.03255208333333,159.95272084456224L88.46197916666667,160.0405577967717L88.89140624999999,160.1228425157987L89.32083333333334,160.17728452535775L89.75026041666666,160.2314967067425L90.1796875,160.28011224746703L90.60911458333334,160.34302050370437L91.03854166666666,160.41375642189612L91.46796875,160.4655700800969L91.89739583333333,160.5270038003188L92.32682291666667,160.5890636400076L92.75625,160.61591484216544L93.18567708333335,160.66994264162506L93.61510416666667,160.72363102252666L94.04453124999999,160.7622180043734L94.47395833333333,160.81842358809251L94.90338541666667,160.87617512336143L95.3328125,160.9027707877526L95.76223958333333,160.94465768667368L96.19166666666668,160.9982203762348L96.62109375,161.0386400105403L97.05052083333332,161.07494714883657L97.47994791666667,161.11588097498966L97.909375,161.15483646099383L98.33880208333333,161.18753646557147L98.76822916666667,161.2268303313622L99.19765625000001,161.2527600134336L99.62708333333333,161.27890848673306L100.05651041666665,161.33218642308162L100.4859375,161.3648216342926L100.91536458333333,161.39674723478464L101.34479166666667,161.41769470948438L101.77421875,161.45682315092822L102.20364583333334,161.49528106542732L102.63307291666666,161.52389532235952L103.0625,161.5528610735673L103.49192708333334,161.594884960468L103.92135416666666,161.61686302625216L104.35078125000001,161.6365877371568L104.78020833333333,161.6732380595574L105.20963541666667,161.70170260356022L105.6390625,161.72541308036216L106.06848958333333,161.74966034228984L106.49791666666667,161.78180265646714L106.92734374999999,161.80453006597665L107.35677083333334,161.82966443868784L107.78619791666667,161.843867690013L108.215625,161.88181673636802L108.64505208333334,161.90353303175706L109.07447916666666,161.92445245962875L109.50390625,161.95023333769578L109.93333333333334,161.97632519795346L110.36276041666667,161.9993581361037L110.7921875,162.01314938471867L111.22161458333333,162.0407422696627L111.65104166666667,162.06595455022958L112.08046875,162.08284744042618L112.50989583333333,162.10455062132615L112.93932291666667,162.12113798288198L113.36875,162.14383799479558L113.79817708333333,162.15327912844145L114.22760416666667,162.18313160089346L114.65703125,162.19821352298442L115.08645833333333,162.21256752601036L115.51588541666666,162.23181907653807L115.9453125,162.23595053012554L116.37473958333334,162.26135615202097L116.80416666666666,162.27820437504695L117.23359375,162.27885165948135L117.66302083333333,162.30811456423538L118.09244791666666,162.3205511900095L118.52187500000001,162.3356745331104L118.95130208333333,162.3504990346615L119.38072916666667,162.35864300251006L119.81015625,162.37952016537005L120.23958333333333,162.39224031081565L120.66901041666667,162.40039193960337L121.09843749999999,162.42289783110985L121.52786458333334,162.42355719126186L121.95729166666666,162.44880920483516L122.38671875,162.46306575811826L122.81614583333334,162.47156544025128L123.24557291666666,162.4864009138254L123.675,162.49681446735676L124.10442708333333,162.51094331667974L124.53385416666667,162.52233513318575L124.96328125,162.53866903451774L125.39270833333335,162.54926125673148L125.82213541666667,162.55856079284962L126.25156249999999,162.56987723350525L126.68098958333333,162.58437614514278L127.11041666666667,162.5918864624317L127.53984375,162.60550228852492L127.96927083333333,162.61418959874374L128.39869791666666,162.62446304798127L128.828125,162.633976960549L129.25755208333334,162.64233543469356L129.68697916666665,162.65542668122512L130.11640625,162.6630624301617L130.54583333333335,162.66412080838128L130.97526041666666,162.66880248619958L131.4046875,162.66672935815959L131.83411458333333,162.68736903190612L132.26354166666667,162.71292131533988L132.69296875,162.71001717017248L133.12239583333334,162.7290420088401L133.55182291666665,162.74037922492394L133.98125000000002,162.73453016281127L134.41067708333333,162.74751123465023L134.84010416666666,162.74878522286048L135.26953125,162.75783616799575L135.6989583333333,162.774309394543L136.12838541666667,162.77403269180886L136.5578125,162.77524844389694L136.98723958333332,162.7860828296955L137.41666666666666,162.8101555780264L137.84609375,162.78355303177466L138.27552083333333,162.8061465046956L138.70494791666667,162.8216842526656L139.134375,162.80733953365913L139.56380208333331,162.82774522414573L139.99322916666668,162.80893352838663L140.42265625000002,162.85323660960563L140.85208333333333,162.85279772868523L141.28151041666666,162.86291679052206L141.7109375,162.8546049312445L142.14036458333334,162.88184638683612L142.56979166666667,162.880515460968L142.99921875,162.8919856073306L143.42864583333332,162.89844222087126L143.85807291666666,162.9053618992292L144.28750000000002,162.90016388709728L144.71692708333333,162.91881496282724L145.14635416666667,162.89955516705146L145.57578124999998,162.91512946679043L146.00520833333334,162.93804320592147L146.43463541666668,162.94129413843154L146.8640625,162.937591210512L147.29348958333333,162.9555881524086L147.72291666666666,162.95036443068432L148.15234375,162.96435898634104L148.58177083333334,162.96467142930396L149.01119791666667,162.97555801336583L149.44062499999998,162.9518914246559L149.87005208333332,162.9624059662452L150.29947916666669,162.98109323666645L150.72890625,162.99154470535424L151.15833333333333,162.99617986569038L151.58776041666667,163.00208398268774L152.0171875,162.98448365669984L152.44661458333334,163.005040942889L152.87604166666668,163.01113723259704L153.30546875,163.0195789707624L153.73489583333333,162.99685889757598L154.1643229166667,163.0211729330283L154.59375,163.0281763298695L155.02317708333334,163.03599084487328L155.45260416666667,163.02989562639823L155.88203124999998,163.03883555283915L156.31145833333335,163.03606070225055L156.74088541666666,163.04940232515335L157.1703125,163.0432251411218L157.59973958333333,163.03701510594442L158.02916666666667,163.0614182809683L158.45859375,163.07452877723253L158.88802083333334,163.06057447396793L159.31744791666665,163.06812465410965L159.746875,163.07142866134643L160.17630208333335,163.07701601798718L160.60572916666666,163.08609715241653L161.03515625,163.0670793903791L161.46458333333334,163.0765693138196L161.89401041666665,163.1003520826193L162.3234375,163.09759687130267L162.75286458333335,163.0974347580396L163.18229166666666,163.11269362834784L163.61171875,163.0882494543149L164.04114583333333,163.10847212626382L164.47057291666667,163.11189413144038L164.9,163.10807687374262L165.32942708333334,163.11866987503493L165.75885416666665,163.1194540176025L166.18828125000002,163.12061335141843L166.61770833333333,163.12216597382837L167.04713541666666,163.13609122395516L167.4765625,163.12207441586713L167.9059895833333,163.1362065438124L168.33541666666667,163.13758739563136L168.76484375,163.125882178545L169.19427083333332,163.14268110862145L169.62369791666666,163.14572608846885L170.053125,163.14173240193955L170.48255208333333,163.14856552142362L170.91197916666667,163.15202099451653L171.34140625,163.15183044488614L171.77083333333331,163.15491848505462L172.20026041666668,163.1614022040367L172.62968750000002,163.16062744287345L173.05911458333333,163.16242802326497L173.48854166666666,163.16382478127113L173.91796875,163.16746770391097L174.34739583333334,163.16862879065366L174.77682291666667,163.1716584486228L175.20625,163.17232290524703L175.63567708333332,163.1766675179738L176.06510416666666,163.1782385785763L176.49453125000002,163.17720566648705L176.92395833333333,163.18016546707887L177.35338541666667,163.18042352062005L177.78281249999998,163.18187690789884L178.21223958333334,163.18453733132435L178.64166666666668,163.18473524973942L179.07109375,163.18648210617212L179.50052083333333,163.1889770078659L179.92994791666666,163.19085854750412L180.359375,163.19317093381514L180.78880208333334,163.19448342149076L181.21822916666667,163.19695798598804L181.64765624999998,163.1968352648845L182.07708333333332,163.199308904226L182.50651041666669,163.1996181172591L182.9359375,163.2019934303944L183.36536458333333,163.2021036700102L183.79479166666667,163.20523319611183L184.22421875,163.20531579466964L184.65364583333334,163.20938396435517L185.08307291666668,163.20950800015376L185.5125,163.21332525785152L185.94192708333333,163.21363005610613L186.3713541666667,163.21620771866577L186.80078125,163.21685641518005L187.23020833333334,163.21780137254643L187.65963541666667,163.21962595829598L188.08906249999998,163.21940257375059L188.51848958333335,163.22261778226266L188.94791666666666,163.22113613715538L189.37734375,163.22652153391104L189.80677083333333,163.2240208378205L190.23619791666667,163.23024525348958L190.665625,163.22752346139686L191.09505208333334,163.23446957973334L191.52447916666665,163.23096051252807L191.95390625,163.2373734652079L192.38333333333335,163.23454492312212L192.81276041666666,163.23974588926023L193.2421875,163.23715331059236L193.67161458333334,163.24203141359183L194.10104166666665,163.23908722703274L194.53046875,163.24384686139913L194.95989583333335,163.24058804071868L195.38932291666666,163.24525468881313L195.81875,163.2424811691504L196.24817708333333,163.2467190318841L196.67760416666667,163.2441604567491L197.10703125,163.24790647745132L197.53645833333334,163.24570980053682L197.96588541666665,163.24944877707043L198.39531250000002,163.24806958079338L198.82473958333333,163.25132534196743L199.25416666666666,163.25049871527233L199.68359375,163.2521650182284L200.1130208333333,163.25173392809353L200.54244791666667,163.2524436767743L200.971875,163.25238079864246L201.40130208333332,163.25274526944528L201.83072916666666,163.25319791408685L202.26015625,163.2533961327718L202.68958333333333,163.25384777110358L203.11901041666667,163.25412686788118L203.5484375,163.25448505736315L203.97786458333331,163.25465733922445L204.40729166666668,163.25497757297296L204.83671875000002,163.25500789211347L205.26614583333333,163.25542864322662L205.69557291666666,163.2554334962368L206.125,163.25587916163298L206.55442708333334,163.25585821578136L206.98385416666667,163.25629839516603L207.41328125,163.25624493901546L207.84270833333332,163.25667239345037L208.27213541666666,163.2565945748641L208.70156250000002,163.2570935341028L209.13098958333333,163.2570061961504L209.56041666666667,163.2575799225844L209.98984374999998,163.25750216080593L210.41927083333334,163.25813831902468L210.84869791666668,163.25810870592412L211.278125,163.25875620135895L211.70755208333333,163.25883470975435L212.13697916666666,163.25946595815512L212.56640625,163.25969748244836L212.99583333333334,163.26028671741486L213.42526041666667,163.26074518891483L213.85468749999998,163.26124119414735L214.28411458333332,163.26198160281547L214.71354166666669,163.26238315288836L215.14296875,163.26338968992232L215.57239583333333,163.26372527801072L216.00182291666667,163.264941760485L216.43125,163.265237534413L216.86067708333334,163.26658973886416L217.29010416666668,163.26686473736396L217.71953125,163.2682850949581L218.14895833333333,163.2685501115139L218.5783854166667,163.26998910207016L219.0078125,163.27025225208357L219.43723958333334,163.27166686397334L219.86666666666667,163.27193515103596L220.29609374999998,163.27329239515157L220.72552083333335,163.27355741170737L221.15494791666666,163.27483354238365L221.584375,163.27508895030388L222.01380208333333,163.27626865377792L222.44322916666667,163.27651804818555L222.87265625,163.27759879245207L223.30208333333334,163.2778431877723L223.73151041666665,163.27883675639447L224.1609375,163.27907705343685L224.59036458333335,163.2799905555065L225.01979166666666,163.28022876689067L225.44921875,163.2810633872564L225.87864583333334,163.28130221541113L226.30807291666665,163.28205810826557L226.7375,163.2823044512822L227.16692708333335,163.28298817386994L227.59635416666666,163.28324928691754L228.02578125,163.2838776218891L228.45520833333333,163.28416142559968L228.88463541666667,163.28475031160391L229.3140625,163.28506690153708L229.74348958333334,163.28563163610605L230.17291666666665,163.28598947662573L230.60234375000002,163.28654345828755L231.03177083333333,163.2869484898677L231.46119791666666,163.28750546611272L231.890625,163.28796375907385L232.3200520833333,163.28853977405106L232.74947916666667,163.2890580641765L233.17890625,163.2896696164975L233.60833333333332,163.29025609222742L234.03776041666666,163.2909176922303L234.4671875,163.29157776653767L234.89661458333333,163.29230132763203L235.32604166666667,163.29303970744976L235.75546875,163.29383599065818" style="fill: none;" fill="none"></path></g></g></g></g></g><g><g opacity="0.272603"><span fill="rgb(0, 0, 0)" stroke="none" stroke-width="1px">Alt + Scroll to Zoom</span></g></g></g><g transform="translate(72, 177)" clip-path="url(#clip_1)"><clipPath id="clip_1"><rect width="257" height="23"></rect></clipPath><g><g><line x1="0" y1="0" x2="0" y2="5" style="visibility: inherit;" fill="rgb(0, 0, 0)" stroke="rgb(204, 204, 204)" stroke-width="1px"></line><line x1="21.471354166666664" y1="0" x2="21.471354166666664" y2="5" style="visibility: inherit;" fill="rgb(0, 0, 0)" stroke="rgb(204, 204, 204)" stroke-width="1px"></line><line x1="42.94270833333333" y1="0" x2="42.94270833333333" y2="5" style="visibility: inherit;" fill="rgb(0, 0, 0)" stroke="rgb(204, 204, 204)" stroke-width="1px"></line><line x1="64.4140625" y1="0" x2="64.4140625" y2="5" style="visibility: inherit;" fill="rgb(0, 0, 0)" stroke="rgb(204, 204, 204)" stroke-width="1px"></line><line x1="85.88541666666666" y1="0" x2="85.88541666666666" y2="5" style="visibility: inherit;" fill="rgb(0, 0, 0)" stroke="rgb(204, 204, 204)" stroke-width="1px"></line><line x1="107.35677083333334" y1="0" x2="107.35677083333334" y2="5" style="visibility: inherit;" fill="rgb(0, 0, 0)" stroke="rgb(204, 204, 204)" stroke-width="1px"></line><line x1="128.828125" y1="0" x2="128.828125" y2="5" style="visibility: inherit;" fill="rgb(0, 0, 0)" stroke="rgb(204, 204, 204)" stroke-width="1px"></line><line x1="150.29947916666669" y1="0" x2="150.29947916666669" y2="5" style="visibility: inherit;" fill="rgb(0, 0, 0)" stroke="rgb(204, 204, 204)" stroke-width="1px"></line><line x1="171.77083333333331" y1="0" x2="171.77083333333331" y2="5" style="visibility: inherit;" fill="rgb(0, 0, 0)" stroke="rgb(204, 204, 204)" stroke-width="1px"></line><line x1="193.2421875" y1="0" x2="193.2421875" y2="5" style="visibility: inherit;" fill="rgb(0, 0, 0)" stroke="rgb(204, 204, 204)" stroke-width="1px"></line><line x1="214.71354166666669" y1="0" x2="214.71354166666669" y2="5" style="visibility: inherit;" fill="rgb(0, 0, 0)" stroke="rgb(204, 204, 204)" stroke-width="1px"></line><line x1="236.18489583333331" y1="0" x2="236.18489583333331" y2="5" style="visibility: inherit;" fill="rgb(0, 0, 0)" stroke="rgb(204, 204, 204)" stroke-width="1px"></line><line x1="257.65625" y1="0" x2="257.65625" y2="5" style="visibility: inherit;" fill="rgb(0, 0, 0)" stroke="rgb(204, 204, 204)" stroke-width="1px"></line></g><g transform="translate(0, 8)"><text x="0" y="0" dx="0em" dy="0.95em" style="text-anchor: middle; visibility: hidden; font-family: Roboto, sans-serif; font-size: 12px; font-weight: 200;" fill="rgb(33, 33, 33)" stroke="none" stroke-width="1px">-50</text><text x="21.471354166666664" y="0" dx="0em" dy="0.95em" style="text-anchor: middle; visibility: inherit; font-family: Roboto, sans-serif; font-size: 12px; font-weight: 200;" fill="rgb(33, 33, 33)" stroke="none" stroke-width="1px">0</text><text x="42.94270833333333" y="0" dx="0em" dy="0.95em" style="text-anchor: middle; visibility: hidden; font-family: Roboto, sans-serif; font-size: 12px; font-weight: 200;" fill="rgb(33, 33, 33)" stroke="none" stroke-width="1px">50</text><text x="64.4140625" y="0" dx="0em" dy="0.95em" style="text-anchor: middle; visibility: inherit; font-family: Roboto, sans-serif; font-size: 12px; font-weight: 200;" fill="rgb(33, 33, 33)" stroke="none" stroke-width="1px">100</text><text x="85.88541666666666" y="0" dx="0em" dy="0.95em" style="text-anchor: middle; visibility: hidden; font-family: Roboto, sans-serif; font-size: 12px; font-weight: 200;" fill="rgb(33, 33, 33)" stroke="none" stroke-width="1px">150</text><text x="107.35677083333334" y="0" dx="0em" dy="0.95em" style="text-anchor: middle; visibility: inherit; font-family: Roboto, sans-serif; font-size: 12px; font-weight: 200;" fill="rgb(33, 33, 33)" stroke="none" stroke-width="1px">200</text><text x="128.828125" y="0" dx="0em" dy="0.95em" style="text-anchor: middle; visibility: hidden; font-family: Roboto, sans-serif; font-size: 12px; font-weight: 200;" fill="rgb(33, 33, 33)" stroke="none" stroke-width="1px">250</text><text x="150.29947916666669" y="0" dx="0em" dy="0.95em" style="text-anchor: middle; visibility: inherit; font-family: Roboto, sans-serif; font-size: 12px; font-weight: 200;" fill="rgb(33, 33, 33)" stroke="none" stroke-width="1px">300</text><text x="171.77083333333331" y="0" dx="0em" dy="0.95em" style="text-anchor: middle; visibility: hidden; font-family: Roboto, sans-serif; font-size: 12px; font-weight: 200;" fill="rgb(33, 33, 33)" stroke="none" stroke-width="1px">350</text><text x="193.2421875" y="0" dx="0em" dy="0.95em" style="text-anchor: middle; visibility: inherit; font-family: Roboto, sans-serif; font-size: 12px; font-weight: 200;" fill="rgb(33, 33, 33)" stroke="none" stroke-width="1px">400</text><text x="214.71354166666669" y="0" dx="0em" dy="0.95em" style="text-anchor: middle; visibility: hidden; font-family: Roboto, sans-serif; font-size: 12px; font-weight: 200;" fill="rgb(33, 33, 33)" stroke="none" stroke-width="1px">450</text><text x="236.18489583333331" y="0" dx="0em" dy="0.95em" style="text-anchor: middle; visibility: inherit; font-family: Roboto, sans-serif; font-size: 12px; font-weight: 200;" fill="rgb(33, 33, 33)" stroke="none" stroke-width="1px">500</text><text x="257.65625" y="0" dx="0em" dy="0.95em" style="text-anchor: middle; visibility: hidden; font-family: Roboto, sans-serif; font-size: 12px; font-weight: 200;" fill="rgb(33, 33, 33)" stroke="none" stroke-width="1px">550</text></g><line x1="0" y1="0" x2="257.65625" y2="0" fill="rgb(0, 0, 0)" stroke="rgb(204, 204, 204)" stroke-width="1px"></line></g></g></g></g></svg>