<svg viewBox="0 0 330 200" xmlns="http://www.w3.org/2000/svg"><g><g><g><g><g><line x1="70" y1="177" x2="65" y2="177" style="visibility: inherit;" fill="rgb(0, 0, 0)" stroke="rgb(204, 204, 204)" stroke-width="1px"></line><line x1="70" y1="153.4" x2="65" y2="153.4" style="visibility: inherit;" fill="rgb(0, 0, 0)" stroke="rgb(204, 204, 204)" stroke-width="1px"></line><line x1="70" y1="129.8" x2="65" y2="129.8" style="visibility: inherit;" fill="rgb(0, 0, 0)" stroke="rgb(204, 204, 204)" stroke-width="1px"></line><line x1="70" y1="106.19999999999997" x2="65" y2="106.19999999999997" style="visibility: inherit;" fill="rgb(0, 0, 0)" stroke="rgb(204, 204, 204)" stroke-width="1px"></line><line x1="70" y1="82.59999999999998" x2="65" y2="82.59999999999998" style="visibility: inherit;" fill="rgb(0, 0, 0)" stroke="rgb(204, 204, 204)" stroke-width="1px"></line><line x1="70" y1="59.00000000000001" x2="65" y2="59.00000000000001" style="visibility: inherit;" fill="rgb(0, 0, 0)" stroke="rgb(204, 204, 204)" stroke-width="1px"></line><line x1="70" y1="35.39999999999999" x2="65" y2="35.39999999999999" style="visibility: inherit;" fill="rgb(0, 0, 0)" stroke="rgb(204, 204, 204)" stroke-width="1px"></line><line x1="70" y1="11.799999999999978" x2="65" y2="11.799999999999978" style="visibility: inherit;" fill="rgb(0, 0, 0)" stroke="rgb(204, 204, 204)" stroke-width="1px"></line></g><g transform="translate(60, 0)"><text x="0" y="177" dx="0em" dy="0.3em" style="text-anchor: end; visibility: hidden; font-family: Roboto, sans-serif; font-size: 12px; font-weight: 200;" fill="rgb(33, 33, 33)" stroke="none" stroke-width="1px">2e-4</text><text x="0" y="153.4" dx="0em" dy="0.3em" style="text-anchor: end; visibility: inherit; font-family: Roboto, sans-serif; font-size: 12px; font-weight: 200;" fill="rgb(33, 33, 33)" stroke="none" stroke-width="1px">4e-4</text><text x="0" y="129.8" dx="0em" dy="0.3em" style="text-anchor: end; visibility: inherit; font-family: Roboto, sans-serif; font-size: 12px; font-weight: 200;" fill="rgb(33, 33, 33)" stroke="none" stroke-width="1px">6e-4</text><text x="0" y="106.19999999999997" dx="0em" dy="0.3em" style="text-anchor: end; visibility: inherit; font-family: Roboto, sans-serif; font-size: 12px; font-weight: 200;" fill="rgb(33, 33, 33)" stroke="none" stroke-width="1px">8e-4</text><text x="0" y="82.59999999999998" dx="0em" dy="0.3em" style="text-anchor: end; visibility: inherit; font-family: Roboto, sans-serif; font-size: 12px; font-weight: 200;" fill="rgb(33, 33, 33)" stroke="none" stroke-width="1px">1e-3</text><text x="0" y="59.00000000000001" dx="0em" dy="0.3em" style="text-anchor: end; visibility: inherit; font-family: Roboto, sans-serif; font-size: 12px; font-weight: 200;" fill="rgb(33, 33, 33)" stroke="none" stroke-width="1px">1.2e-3</text><text x="0" y="35.39999999999999" dx="0em" dy="0.3em" style="text-anchor: end; visibility: inherit; font-family: Roboto, sans-serif; font-size: 12px; font-weight: 200;" fill="rgb(33, 33, 33)" stroke="none" stroke-width="1px">1.4e-3</text><text x="0" y="11.799999999999978" dx="0em" dy="0.3em" style="text-anchor: end; visibility: inherit; font-family: Roboto, sans-serif; font-size: 12px; font-weight: 200;" fill="rgb(33, 33, 33)" stroke="none" stroke-width="1px">1.6e-3</text></g><line x1="70" y1="0" x2="70" y2="177" fill="rgb(0, 0, 0)" stroke="rgb(204, 204, 204)" stroke-width="1px"></line></g></g><g transform="translate(70, 0)" clip-path="url(#clip_0)"><clipPath id="clip_0"><rect width="260" height="177"></rect></clipPath><g><g><g><line x1="0" y1="0" x2="0" y2="177" fill="rgb(0, 0, 0)" stroke="rgb(66, 66, 66)" stroke-width="1px" opacity="0.25"></line><line x1="21.666666666666664" y1="0" x2="21.666666666666664" y2="177" fill="rgb(0, 0, 0)" stroke="rgb(66, 66, 66)" stroke-width="1px" opacity="0.25"></line><line x1="43.33333333333333" y1="0" x2="43.33333333333333" y2="177" fill="rgb(0, 0, 0)" stroke="rgb(66, 66, 66)" stroke-width="1px" opacity="0.25"></line><line x1="65" y1="0" x2="65" y2="177" fill="rgb(0, 0, 0)" stroke="rgb(66, 66, 66)" stroke-width="1px" opacity="0.25"></line><line x1="86.66666666666666" y1="0" x2="86.66666666666666" y2="177" fill="rgb(0, 0, 0)" stroke="rgb(66, 66, 66)" stroke-width="1px" opacity="0.25"></line><line x1="108.33333333333334" y1="0" x2="108.33333333333334" y2="177" fill="rgb(0, 0, 0)" stroke="rgb(66, 66, 66)" stroke-width="1px" opacity="0.25"></line><line x1="130" y1="0" x2="130" y2="177" fill="rgb(0, 0, 0)" stroke="rgb(66, 66, 66)" stroke-width="1px" opacity="0.25"></line><line x1="151.66666666666669" y1="0" x2="151.66666666666669" y2="177" fill="rgb(0, 0, 0)" stroke="rgb(66, 66, 66)" stroke-width="1px" opacity="0.25"></line><line x1="173.33333333333331" y1="0" x2="173.33333333333331" y2="177" fill="rgb(0, 0, 0)" stroke="rgb(66, 66, 66)" stroke-width="1px" opacity="0.25"></line><line x1="195" y1="0" x2="195" y2="177" fill="rgb(0, 0, 0)" stroke="rgb(66, 66, 66)" stroke-width="1px" opacity="0.25"></line><line x1="216.66666666666669" y1="0" x2="216.66666666666669" y2="177" fill="rgb(0, 0, 0)" stroke="rgb(66, 66, 66)" stroke-width="1px" opacity="0.25"></line><line x1="238.33333333333331" y1="0" x2="238.33333333333331" y2="177" fill="rgb(0, 0, 0)" stroke="rgb(66, 66, 66)" stroke-width="1px" opacity="0.25"></line><line x1="260" y1="0" x2="260" y2="177" fill="rgb(0, 0, 0)" stroke="rgb(66, 66, 66)" stroke-width="1px" opacity="0.25"></line></g><g><line x1="0" y1="177" x2="260" y2="177" fill="rgb(0, 0, 0)" stroke="rgb(66, 66, 66)" stroke-width="1px" opacity="0.25"></line><line x1="0" y1="153.4" x2="260" y2="153.4" fill="rgb(0, 0, 0)" stroke="rgb(66, 66, 66)" stroke-width="1px" opacity="0.25"></line><line x1="0" y1="129.8" x2="260" y2="129.8" fill="rgb(0, 0, 0)" stroke="rgb(66, 66, 66)" stroke-width="1px" opacity="0.25"></line><line x1="0" y1="106.19999999999997" x2="260" y2="106.19999999999997" fill="rgb(0, 0, 0)" stroke="rgb(66, 66, 66)" stroke-width="1px" opacity="0.25"></line><line x1="0" y1="82.59999999999998" x2="260" y2="82.59999999999998" fill="rgb(0, 0, 0)" stroke="rgb(66, 66, 66)" stroke-width="1px" opacity="0.25"></line><line x1="0" y1="59.00000000000001" x2="260" y2="59.00000000000001" fill="rgb(0, 0, 0)" stroke="rgb(66, 66, 66)" stroke-width="1px" opacity="0.25"></line><line x1="0" y1="35.39999999999999" x2="260" y2="35.39999999999999" fill="rgb(0, 0, 0)" stroke="rgb(66, 66, 66)" stroke-width="1px" opacity="0.25"></line><line x1="0" y1="11.799999999999978" x2="260" y2="11.799999999999978" fill="rgb(0, 0, 0)" stroke="rgb(66, 66, 66)" stroke-width="1px" opacity="0.25"></line></g></g></g><g><g><line x1="0" y1="200.6" x2="260" y2="200.6" fill="rgb(0, 0, 0)" stroke="rgb(153, 153, 153)" stroke-width="1.5px"></line></g></g><g><g><line x1="21.666666666666664" y1="0" x2="21.666666666666664" y2="177" fill="rgb(0, 0, 0)" stroke="rgb(153, 153, 153)" stroke-width="1.5px"></line></g></g><g><g><g><g><g><path stroke="rgb(0, 119, 187)" stroke-width="2px" d="M28.166666666666668,-20.492019462957998L29.25,5.247397017106396L30.333333333333332,22.521354858204717L31.416666666666668,36.90587044171989L32.5,49.444873951748L33.583333333333336,60.04657470099627L34.666666666666664,69.04928772188723L35.75,73.87140336856245L36.833333333333336,79.51567894257603L37.91666666666667,87.2029978962615L39,91.36615613885222L40.083333333333336,88.50457253344356L41.166666666666664,89.57896453272551L42.25,98.10884287059307L43.33333333333333,100.9187547205016L44.416666666666664,104.04869077671319L45.5,98.50225017350166L46.583333333333336,104.09995042197404L47.666666666666664,106.49624096173793L48.75,110.92890556380151L49.833333333333336,113.6946872755885L50.916666666666664,108.46591498181223L52,110.96135924514381L53.083333333333336,113.96771030910313L54.16666666666667,116.6912026418373L55.25,109.56795270964501L56.333333333333336,111.41224905792622L57.416666666666664,114.52796044237911L58.5,116.74678944461046L59.58333333333333,118.60846997648477L60.666666666666664,122.32946140635757L61.75,123.0990978837013L62.833333333333336,126.52646763660013L63.916666666666664,123.04956223294137L65,127.36480975933371L66.08333333333333,123.73145357184112L67.16666666666667,126.35065454002469L68.25,119.52034630291163L69.33333333333333,112.20844604019074L70.41666666666666,119.73126432336866L71.5,131.2493402691558L72.58333333333333,135.4938490729779L73.66666666666667,135.8034949697554L74.75,129.301308905147L75.83333333333334,119.08116042092442L76.91666666666667,114.55209636539219L78,113.08365142382681L79.08333333333333,120.00373100806027L80.16666666666667,117.6052974950522L81.25,99.19109930694101L82.33333333333333,93.12757711801676L83.41666666666667,111.59375614430755L84.5,120.42627450488506L85.58333333333333,124.35295015517622L86.66666666666666,120.489876851812L87.75,120.69884421713648L88.83333333333333,121.14287926293909L89.91666666666667,113.76138044930993L91,108.35819623377174L92.08333333333334,117.85182870868593L93.16666666666667,126.58967847879975L94.25,126.66390640139579L95.33333333333333,134.1839635459706L96.41666666666667,132.22851419765502L97.5,134.4967140065506L98.58333333333333,140.95060075111687L99.66666666666667,140.90437571927905L100.75,147.54842729950323L101.83333333333333,146.66861314969137L102.91666666666666,143.3929205703549L104,148.15563396029174L105.08333333333333,147.9545069922693L106.16666666666667,147.03223175080493L107.25,147.07519767750054L108.33333333333334,137.82271837759762L109.41666666666667,128.1853899307549L110.5,122.46549212783574L111.58333333333333,112.15969339888541L112.66666666666667,114.09437925964593L113.75,113.07128811664879L114.83333333333333,123.8149883173406L115.91666666666667,127.82677846904843L117,130.1762670226395L118.08333333333333,131.8203258741647L119.16666666666666,130.84848063942044L120.25,136.54231933820992L121.33333333333333,136.71599633004516L122.41666666666667,138.3744172234088L123.5,141.36157768722623L124.58333333333334,136.0685368016362L125.66666666666667,140.21075984407216L126.75,140.9779236599803L127.83333333333333,143.65536267347633L128.91666666666666,143.303437700402L130,145.72003840645775L131.08333333333334,148.82796434164047L132.16666666666666,148.13652234794571L133.25,144.635415770486L134.33333333333334,140.99067847188562L135.41666666666669,137.62823668718337L136.5,140.5034611415118L137.58333333333334,140.65838711746036L138.66666666666666,137.37714478690177L139.75,124.93234967757014L140.83333333333331,136.80026600547134L141.91666666666666,138.31084235049784L143,144.56677194163203L144.08333333333334,143.88832515748217L145.16666666666666,143.80508575765415L146.25,146.88624169854447L147.33333333333334,148.22286287732422L148.41666666666666,147.46551071936264L149.5,150.54109286926686L150.58333333333334,154.1328156198375L151.66666666666669,150.82853976115584L152.75,134.05691682770848L153.83333333333334,123.60987418275326L154.91666666666666,118.86597705949097L156,108.72531777191907L157.08333333333331,123.26596131958065L158.16666666666666,125.58693184461444L159.25,130.97126888521015L160.33333333333334,129.6687326574698L161.41666666666666,122.42083311490714L162.5,120.85309707969425L163.58333333333334,134.6501014376059L164.66666666666666,136.9147570984438L165.75,137.63022168483585L166.83333333333334,138.22127705849707L167.91666666666669,139.216921659559L169,134.87475646603852L170.08333333333334,136.83852357268333L171.16666666666666,133.34088215548545L172.25,132.21582120228558L173.33333333333331,134.00753228403627L174.41666666666666,133.19197985753416L175.5,140.92270088791847L176.58333333333334,143.91880757817998L177.66666666666666,147.7451481222175L178.75,148.2296214852482L179.83333333333334,149.95480767162516L180.91666666666666,151.68741527656093L182,153.21017291340976L183.08333333333334,156.6298259020783L184.16666666666669,157.74747230522334L185.25,161.83520063702017L186.33333333333334,152.7067287423648L187.41666666666666,139.3274564942345L188.5,139.11445044856518L189.58333333333331,128.21082400102168L190.66666666666666,127.26259955149143L191.75,118.45552899818867L192.83333333333334,125.98769531529396L193.91666666666666,127.70682004690168L195,132.44622516855597L196.08333333333334,132.8827529394999L197.16666666666666,135.1746284816414L198.25,138.18933851495385L199.33333333333334,137.89785294272005L200.41666666666669,141.91414883304387L201.5,138.49933470543473L202.58333333333334,136.01487317997962L203.66666666666666,140.45726358368992L204.75,135.83272045422345L205.83333333333331,137.27144537903368L206.91666666666666,138.68826664462685L208,132.27818034999072L209.08333333333334,131.3186297373846L210.16666666666666,130.10765753630548L211.25,123.26253393609076L212.33333333333334,132.19136932808905L213.41666666666666,131.07104764264076L214.5,131.55978978089988L215.58333333333334,129.49335914514958L216.66666666666669,132.49125508069991L217.75,131.55130717847496L218.83333333333334,134.79620825443416L219.91666666666666,132.69433613810688L221,131.62675769478082L222.08333333333331,129.28099873885512L223.16666666666666,130.09391365982592L224.25,118.61362822297959L225.33333333333334,138.65103248450905L226.41666666666666,139.92177440728992L227.5,143.32195175290107L228.58333333333334,149.26999035002663L229.66666666666666,149.45314587736502L230.75,136.34719200842082L231.83333333333334,141.31065459866076L232.91666666666669,143.90784888006746L234,144.11574475876986L235.08333333333334,141.44053800906985L236.16666666666666,135.49808693993836L237.25,137.6198914548382" style="fill: none;" fill="none"></path></g></g></g></g></g></g><g transform="translate(70, 177)" clip-path="url(#clip_1)"><clipPath id="clip_1"><rect width="260" height="23"></rect></clipPath><g><g><line x1="0" y1="0" x2="0" y2="5" style="visibility: inherit;" fill="rgb(0, 0, 0)" stroke="rgb(204, 204, 204)" stroke-width="1px"></line><line x1="21.666666666666664" y1="0" x2="21.666666666666664" y2="5" style="visibility: inherit;" fill="rgb(0, 0, 0)" stroke="rgb(204, 204, 204)" stroke-width="1px"></line><line x1="43.33333333333333" y1="0" x2="43.33333333333333" y2="5" style="visibility: inherit;" fill="rgb(0, 0, 0)" stroke="rgb(204, 204, 204)" stroke-width="1px"></line><line x1="65" y1="0" x2="65" y2="5" style="visibility: inherit;" fill="rgb(0, 0, 0)" stroke="rgb(204, 204, 204)" stroke-width="1px"></line><line x1="86.66666666666666" y1="0" x2="86.66666666666666" y2="5" style="visibility: inherit;" fill="rgb(0, 0, 0)" stroke="rgb(204, 204, 204)" stroke-width="1px"></line><line x1="108.33333333333334" y1="0" x2="108.33333333333334" y2="5" style="visibility: inherit;" fill="rgb(0, 0, 0)" stroke="rgb(204, 204, 204)" stroke-width="1px"></line><line x1="130" y1="0" x2="130" y2="5" style="visibility: inherit;" fill="rgb(0, 0, 0)" stroke="rgb(204, 204, 204)" stroke-width="1px"></line><line x1="151.66666666666669" y1="0" x2="151.66666666666669" y2="5" style="visibility: inherit;" fill="rgb(0, 0, 0)" stroke="rgb(204, 204, 204)" stroke-width="1px"></line><line x1="173.33333333333331" y1="0" x2="173.33333333333331" y2="5" style="visibility: inherit;" fill="rgb(0, 0, 0)" stroke="rgb(204, 204, 204)" stroke-width="1px"></line><line x1="195" y1="0" x2="195" y2="5" style="visibility: inherit;" fill="rgb(0, 0, 0)" stroke="rgb(204, 204, 204)" stroke-width="1px"></line><line x1="216.66666666666669" y1="0" x2="216.66666666666669" y2="5" style="visibility: inherit;" fill="rgb(0, 0, 0)" stroke="rgb(204, 204, 204)" stroke-width="1px"></line><line x1="238.33333333333331" y1="0" x2="238.33333333333331" y2="5" style="visibility: inherit;" fill="rgb(0, 0, 0)" stroke="rgb(204, 204, 204)" stroke-width="1px"></line><line x1="260" y1="0" x2="260" y2="5" style="visibility: inherit;" fill="rgb(0, 0, 0)" stroke="rgb(204, 204, 204)" stroke-width="1px"></line></g><g transform="translate(0, 8)"><text x="0" y="0" dx="0em" dy="0.95em" style="text-anchor: middle; visibility: hidden; font-family: Roboto, sans-serif; font-size: 12px; font-weight: 200;" fill="rgb(33, 33, 33)" stroke="none" stroke-width="1px">-20</text><text x="21.666666666666664" y="0" dx="0em" dy="0.95em" style="text-anchor: middle; visibility: inherit; font-family: Roboto, sans-serif; font-size: 12px; font-weight: 200;" fill="rgb(33, 33, 33)" stroke="none" stroke-width="1px">0</text><text x="43.33333333333333" y="0" dx="0em" dy="0.95em" style="text-anchor: middle; visibility: hidden; font-family: Roboto, sans-serif; font-size: 12px; font-weight: 200;" fill="rgb(33, 33, 33)" stroke="none" stroke-width="1px">20</text><text x="65" y="0" dx="0em" dy="0.95em" style="text-anchor: middle; visibility: inherit; font-family: Roboto, sans-serif; font-size: 12px; font-weight: 200;" fill="rgb(33, 33, 33)" stroke="none" stroke-width="1px">40</text><text x="86.66666666666666" y="0" dx="0em" dy="0.95em" style="text-anchor: middle; visibility: hidden; font-family: Roboto, sans-serif; font-size: 12px; font-weight: 200;" fill="rgb(33, 33, 33)" stroke="none" stroke-width="1px">60</text><text x="108.33333333333334" y="0" dx="0em" dy="0.95em" style="text-anchor: middle; visibility: inherit; font-family: Roboto, sans-serif; font-size: 12px; font-weight: 200;" fill="rgb(33, 33, 33)" stroke="none" stroke-width="1px">80</text><text x="130" y="0" dx="0em" dy="0.95em" style="text-anchor: middle; visibility: hidden; font-family: Roboto, sans-serif; font-size: 12px; font-weight: 200;" fill="rgb(33, 33, 33)" stroke="none" stroke-width="1px">100</text><text x="151.66666666666669" y="0" dx="0em" dy="0.95em" style="text-anchor: middle; visibility: inherit; font-family: Roboto, sans-serif; font-size: 12px; font-weight: 200;" fill="rgb(33, 33, 33)" stroke="none" stroke-width="1px">120</text><text x="173.33333333333331" y="0" dx="0em" dy="0.95em" style="text-anchor: middle; visibility: hidden; font-family: Roboto, sans-serif; font-size: 12px; font-weight: 200;" fill="rgb(33, 33, 33)" stroke="none" stroke-width="1px">140</text><text x="195" y="0" dx="0em" dy="0.95em" style="text-anchor: middle; visibility: inherit; font-family: Roboto, sans-serif; font-size: 12px; font-weight: 200;" fill="rgb(33, 33, 33)" stroke="none" stroke-width="1px">160</text><text x="216.66666666666669" y="0" dx="0em" dy="0.95em" style="text-anchor: middle; visibility: hidden; font-family: Roboto, sans-serif; font-size: 12px; font-weight: 200;" fill="rgb(33, 33, 33)" stroke="none" stroke-width="1px">180</text><text x="238.33333333333331" y="0" dx="0em" dy="0.95em" style="text-anchor: middle; visibility: inherit; font-family: Roboto, sans-serif; font-size: 12px; font-weight: 200;" fill="rgb(33, 33, 33)" stroke="none" stroke-width="1px">200</text><text x="260" y="0" dx="0em" dy="0.95em" style="text-anchor: middle; visibility: hidden; font-family: Roboto, sans-serif; font-size: 12px; font-weight: 200;" fill="rgb(33, 33, 33)" stroke="none" stroke-width="1px">220</text></g><line x1="0" y1="0" x2="260" y2="0" fill="rgb(0, 0, 0)" stroke="rgb(204, 204, 204)" stroke-width="1px"></line></g></g></g></g></svg>