<svg viewBox="0 0 330 200" xmlns="http://www.w3.org/2000/svg"><g><g><g><g><g><line x1="72.34375" y1="177" x2="67.34375" y2="177" style="visibility: inherit;" fill="rgb(0, 0, 0)" stroke="rgb(204, 204, 204)" stroke-width="1px"></line><line x1="72.34375" y1="151.7142857142857" x2="67.34375" y2="151.7142857142857" style="visibility: inherit;" fill="rgb(0, 0, 0)" stroke="rgb(204, 204, 204)" stroke-width="1px"></line><line x1="72.34375" y1="126.42857142857142" x2="67.34375" y2="126.42857142857142" style="visibility: inherit;" fill="rgb(0, 0, 0)" stroke="rgb(204, 204, 204)" stroke-width="1px"></line><line x1="72.34375" y1="101.14285714285714" x2="67.34375" y2="101.14285714285714" style="visibility: inherit;" fill="rgb(0, 0, 0)" stroke="rgb(204, 204, 204)" stroke-width="1px"></line><line x1="72.34375" y1="75.85714285714285" x2="67.34375" y2="75.85714285714285" style="visibility: inherit;" fill="rgb(0, 0, 0)" stroke="rgb(204, 204, 204)" stroke-width="1px"></line><line x1="72.34375" y1="50.57142857142857" x2="67.34375" y2="50.57142857142857" style="visibility: inherit;" fill="rgb(0, 0, 0)" stroke="rgb(204, 204, 204)" stroke-width="1px"></line><line x1="72.34375" y1="25.285714285714295" x2="67.34375" y2="25.285714285714295" style="visibility: inherit;" fill="rgb(0, 0, 0)" stroke="rgb(204, 204, 204)" stroke-width="1px"></line><line x1="72.34375" y1="0" x2="67.34375" y2="0" style="visibility: inherit;" fill="rgb(0, 0, 0)" stroke="rgb(204, 204, 204)" stroke-width="1px"></line></g><g transform="translate(62.34375, 0)"><text x="0" y="177" dx="0em" dy="0.3em" style="text-anchor: end; visibility: hidden; font-family: Roboto, sans-serif; font-size: 12px; font-weight: 200;" fill="rgb(33, 33, 33)" stroke="none" stroke-width="1px">0</text><text x="0" y="151.7142857142857" dx="0em" dy="0.3em" style="text-anchor: end; visibility: inherit; font-family: Roboto, sans-serif; font-size: 12px; font-weight: 200;" fill="rgb(33, 33, 33)" stroke="none" stroke-width="1px">5e-5</text><text x="0" y="126.42857142857142" dx="0em" dy="0.3em" style="text-anchor: end; visibility: inherit; font-family: Roboto, sans-serif; font-size: 12px; font-weight: 200;" fill="rgb(33, 33, 33)" stroke="none" stroke-width="1px">1e-4</text><text x="0" y="101.14285714285714" dx="0em" dy="0.3em" style="text-anchor: end; visibility: inherit; font-family: Roboto, sans-serif; font-size: 12px; font-weight: 200;" fill="rgb(33, 33, 33)" stroke="none" stroke-width="1px">1.5e-4</text><text x="0" y="75.85714285714285" dx="0em" dy="0.3em" style="text-anchor: end; visibility: inherit; font-family: Roboto, sans-serif; font-size: 12px; font-weight: 200;" fill="rgb(33, 33, 33)" stroke="none" stroke-width="1px">2e-4</text><text x="0" y="50.57142857142857" dx="0em" dy="0.3em" style="text-anchor: end; visibility: inherit; font-family: Roboto, sans-serif; font-size: 12px; font-weight: 200;" fill="rgb(33, 33, 33)" stroke="none" stroke-width="1px">2.5e-4</text><text x="0" y="25.285714285714295" dx="0em" dy="0.3em" style="text-anchor: end; visibility: inherit; font-family: Roboto, sans-serif; font-size: 12px; font-weight: 200;" fill="rgb(33, 33, 33)" stroke="none" stroke-width="1px">3e-4</text><text x="0" y="0" dx="0em" dy="0.3em" style="text-anchor: end; visibility: hidden; font-family: Roboto, sans-serif; font-size: 12px; font-weight: 200;" fill="rgb(33, 33, 33)" stroke="none" stroke-width="1px">3.5e-4</text></g><line x1="72.34375" y1="0" x2="72.34375" y2="177" fill="rgb(0, 0, 0)" stroke="rgb(204, 204, 204)" stroke-width="1px"></line></g></g><g transform="translate(72, 0)" clip-path="url(#clip_0)"><clipPath id="clip_0"><rect width="257" height="177"></rect></clipPath><g><g><g><line x1="0" y1="0" x2="0" y2="177" fill="rgb(0, 0, 0)" stroke="rgb(66, 66, 66)" stroke-width="1px" opacity="0.25"></line><line x1="21.471354166666664" y1="0" x2="21.471354166666664" y2="177" fill="rgb(0, 0, 0)" stroke="rgb(66, 66, 66)" stroke-width="1px" opacity="0.25"></line><line x1="42.94270833333333" y1="0" x2="42.94270833333333" y2="177" fill="rgb(0, 0, 0)" stroke="rgb(66, 66, 66)" stroke-width="1px" opacity="0.25"></line><line x1="64.4140625" y1="0" x2="64.4140625" y2="177" fill="rgb(0, 0, 0)" stroke="rgb(66, 66, 66)" stroke-width="1px" opacity="0.25"></line><line x1="85.88541666666666" y1="0" x2="85.88541666666666" y2="177" fill="rgb(0, 0, 0)" stroke="rgb(66, 66, 66)" stroke-width="1px" opacity="0.25"></line><line x1="107.35677083333334" y1="0" x2="107.35677083333334" y2="177" fill="rgb(0, 0, 0)" stroke="rgb(66, 66, 66)" stroke-width="1px" opacity="0.25"></line><line x1="128.828125" y1="0" x2="128.828125" y2="177" fill="rgb(0, 0, 0)" stroke="rgb(66, 66, 66)" stroke-width="1px" opacity="0.25"></line><line x1="150.29947916666669" y1="0" x2="150.29947916666669" y2="177" fill="rgb(0, 0, 0)" stroke="rgb(66, 66, 66)" stroke-width="1px" opacity="0.25"></line><line x1="171.77083333333331" y1="0" x2="171.77083333333331" y2="177" fill="rgb(0, 0, 0)" stroke="rgb(66, 66, 66)" stroke-width="1px" opacity="0.25"></line><line x1="193.2421875" y1="0" x2="193.2421875" y2="177" fill="rgb(0, 0, 0)" stroke="rgb(66, 66, 66)" stroke-width="1px" opacity="0.25"></line><line x1="214.71354166666669" y1="0" x2="214.71354166666669" y2="177" fill="rgb(0, 0, 0)" stroke="rgb(66, 66, 66)" stroke-width="1px" opacity="0.25"></line><line x1="236.18489583333331" y1="0" x2="236.18489583333331" y2="177" fill="rgb(0, 0, 0)" stroke="rgb(66, 66, 66)" stroke-width="1px" opacity="0.25"></line><line x1="257.65625" y1="0" x2="257.65625" y2="177" fill="rgb(0, 0, 0)" stroke="rgb(66, 66, 66)" stroke-width="1px" opacity="0.25"></line></g><g><line x1="0" y1="177" x2="257.65625" y2="177" fill="rgb(0, 0, 0)" stroke="rgb(66, 66, 66)" stroke-width="1px" opacity="0.25"></line><line x1="0" y1="151.7142857142857" x2="257.65625" y2="151.7142857142857" fill="rgb(0, 0, 0)" stroke="rgb(66, 66, 66)" stroke-width="1px" opacity="0.25"></line><line x1="0" y1="126.42857142857142" x2="257.65625" y2="126.42857142857142" fill="rgb(0, 0, 0)" stroke="rgb(66, 66, 66)" stroke-width="1px" opacity="0.25"></line><line x1="0" y1="101.14285714285714" x2="257.65625" y2="101.14285714285714" fill="rgb(0, 0, 0)" stroke="rgb(66, 66, 66)" stroke-width="1px" opacity="0.25"></line><line x1="0" y1="75.85714285714285" x2="257.65625" y2="75.85714285714285" fill="rgb(0, 0, 0)" stroke="rgb(66, 66, 66)" stroke-width="1px" opacity="0.25"></line><line x1="0" y1="50.57142857142857" x2="257.65625" y2="50.57142857142857" fill="rgb(0, 0, 0)" stroke="rgb(66, 66, 66)" stroke-width="1px" opacity="0.25"></line><line x1="0" y1="25.285714285714295" x2="257.65625" y2="25.285714285714295" fill="rgb(0, 0, 0)" stroke="rgb(66, 66, 66)" stroke-width="1px" opacity="0.25"></line><line x1="0" y1="0" x2="257.65625" y2="0" fill="rgb(0, 0, 0)" stroke="rgb(66, 66, 66)" stroke-width="1px" opacity="0.25"></line></g></g></g><g><g><line x1="0" y1="177" x2="257.65625" y2="177" fill="rgb(0, 0, 0)" stroke="rgb(153, 153, 153)" stroke-width="1.5px"></line></g></g><g><g><line x1="21.471354166666664" y1="0" x2="21.471354166666664" y2="177" fill="rgb(0, 0, 0)" stroke="rgb(153, 153, 153)" stroke-width="1.5px"></line></g></g><g><g><g><g><g><path stroke="rgb(0, 119, 187)" stroke-width="2px" d="M23.618489583333332,-83.30975643412344L24.692057291666668,44.9880058625713L25.765625,86.94430907968697L26.839192708333336,110.52430028608069L27.912760416666668,125.06870826453502L28.986328125,134.65513570014653L30.059895833333332,141.34912326679165L31.133463541666668,146.0398981536938L32.20703125,151.20932436528216L33.280598958333336,153.96986320079304L34.354166666666664,155.08663779453906L35.427734375,155.49090874037108L36.501302083333336,156.8116742229987L37.57486979166667,158.27023354754783L38.6484375,159.38073817836786L39.722005208333336,158.81064437501064L40.795572916666664,160.2181903392276L41.869140625,162.09642139002347L42.94270833333333,163.62339469384668L44.016276041666664,163.83813724450636L45.08984375,164.25678973382207L46.163411458333336,164.9267613973103L47.236979166666664,164.1227692762789L48.310546875,164.08390488900477L49.384114583333336,163.54448294213842L50.457682291666664,162.26186065386617L51.53125,162.33258263445794L52.604817708333336,158.78737670449274L53.67838541666667,154.85463260827652L54.751953125,146.03161179423998L55.825520833333336,144.64418748041084L56.899088541666664,139.39075333245898L57.97265625,139.10793900120603L59.04622395833333,137.08102262359378L60.119791666666664,151.0240568956194L61.193359375,149.08233695086426L62.266927083333336,153.15265043610373L63.340494791666664,154.47527593414168L64.4140625,160.21160393451075L65.48763020833333,121.61500000657647L66.56119791666667,117.78620519888187L67.634765625,18.50803905712175L68.70833333333333,130.72821818039353L69.78190104166666,150.2778301196439L70.85546875,162.90080538373775L71.92903645833333,161.17837960005272L73.00260416666667,162.50070429441155L74.076171875,124.13348662896482L75.14973958333334,50.72929022447872L76.22330729166667,-32.43800012381482L77.296875,95.40401976203015L78.37044270833333,73.1471820699184L79.44401041666667,50.72390335492257L80.517578125,-4.881601373398954L81.59114583333333,11.361046669073403L82.66471354166667,152.76740095350294L83.73828125,163.04236525092608L84.81184895833333,158.14441297989936L85.88541666666666,131.82328339546387L86.958984375,109.14140550532778L88.03255208333333,85.98989856110087L89.10611979166667,55.633240171309026L90.1796875,17.051567880436778L91.25325520833334,76.93764694580543L92.32682291666667,145.37287565410537L93.400390625,147.3871178020823L94.47395833333333,147.49386907227537L95.54752604166667,150.82544183762678L96.62109375,154.13423263381367L97.69466145833333,155.8584282837941L98.76822916666667,159.8496570782071L99.841796875,159.11048217074546L100.91536458333333,159.67104040548602L101.98893229166666,160.16144239132493L103.0625,164.15869737809825L104.13606770833333,156.05061883752103L105.20963541666667,136.63755153102932L106.283203125,132.40169851405415L107.35677083333334,53.36199761514685L108.43033854166667,111.63455470711258L109.50390625,-25.185330895840053L110.57747395833333,13.191713943013129L111.65104166666667,34.96627962762224L112.724609375,90.82498194330505L113.79817708333333,155.64802944864743L114.87174479166667,147.6894760934769L115.9453125,131.70872778761466L117.01888020833333,127.1679499891387L118.09244791666666,135.6465883060425L119.166015625,133.6162646598449L120.23958333333333,142.4114146791731L121.31315104166667,146.7229837537244L122.38671875,142.7127408551917L123.46028645833334,151.6576690293815L124.53385416666667,156.60888654883354L125.607421875,163.96362205269645L126.68098958333333,165.69425876494333L127.75455729166667,166.1083991990724L128.828125,162.76202174133087L129.90169270833334,158.25375465731068L130.97526041666666,148.07380384737291L132.048828125,119.36563240909683L133.12239583333334,92.1960653502361L134.19596354166669,105.58736680188616L135.26953125,83.27848547384409L136.34309895833334,103.53109860839322L137.41666666666666,57.84966470653724L138.490234375,93.30223546443241L139.56380208333331,134.67496482585557L140.63736979166666,131.64097244881225L141.7109375,149.66890964445858L142.78450520833334,157.78208528957995L143.85807291666666,156.18185203161556L144.931640625,160.2668543032404L146.00520833333334,159.3058297832696L147.07877604166666,145.57750310612442L148.15234375,153.84816005598157L149.22591145833334,150.44124102840266L150.29947916666669,128.08898693745556L151.373046875,89.81387683037403L152.44661458333334,105.48525913099625L153.52018229166666,1.9278432922437787L154.59375,28.117684489249115L155.66731770833331,119.89616178970651L156.74088541666666,111.56308301704536L157.814453125,114.14766181905621L158.88802083333334,88.85581619252584L159.96158854166666,57.03587208887828L161.03515625,74.05612063906821L162.10872395833334,159.86596302932594L163.18229166666666,161.33132585237865L164.255859375,153.88386830434735L165.32942708333334,160.6263616141098L166.40299479166669,160.92619389051106L167.4765625,155.92144803440067L168.55013020833334,155.77255297290893L169.62369791666666,106.20498758654243L170.697265625,145.79592153293612L171.77083333333331,96.73287658765912L172.84440104166666,121.31029599841817L173.91796875,144.37692295157882L174.99153645833334,162.0775977029116L176.06510416666666,165.52982309991992L177.138671875,163.03179848682237L178.21223958333334,134.12689132363136L179.28580729166666,142.7996887565657L180.359375,140.70819249672684L181.43294270833334,153.92360934576885L182.50651041666669,146.73397090706774L183.580078125,146.07553833027902L184.65364583333334,131.71508605987765L185.72721354166666,122.22449265267434L186.80078125,102.53922285359087L187.87434895833331,103.61237263486588L188.94791666666666,91.72394155737544L190.021484375,123.45892104017548L191.09505208333334,125.84490318197226L192.16861979166666,139.17152172383587L193.2421875,155.14813236930473L194.31575520833334,160.59429612589466L195.38932291666666,162.002302954464L196.462890625,157.22512750009938L197.53645833333334,151.3812442466151L198.61002604166669,144.2415373788681L199.68359375,117.20468085571858L200.75716145833334,61.1110904218762L201.83072916666666,137.0006280109353L202.904296875,140.47269357231977L203.97786458333331,128.57282275613397L205.05143229166666,142.2919615826769L206.125,86.83049306253504L207.19856770833334,101.12355059059337L208.27213541666666,98.90218073249395L209.345703125,124.98824741987379L210.41927083333334,118.59360642827647L211.49283854166666,134.8018947795499L212.56640625,128.66498458794584L213.63997395833334,123.62466294747512L214.71354166666669,134.0570643949655L215.787109375,136.0921714635832L216.86067708333334,133.27565554709042L217.93424479166666,124.1006097987161L219.0078125,117.85782039162171L220.08138020833331,100.34871710876801L221.15494791666666,37.91407473265592L222.228515625,67.54424900262218L223.30208333333334,148.80000096185333L224.37565104166666,151.92167531163432L225.44921875,149.6600216776465L226.52278645833334,154.30516271466124L227.59635416666666,156.6461070945952L228.669921875,154.36501436780338L229.74348958333334,161.1905644487789L230.81705729166669,163.27500332077034L231.890625,157.2691313068083L232.96419270833334,159.6053768941035L234.03776041666666,156.61651610759353L235.111328125,161.79141197874142" style="fill: none;" fill="none"></path></g></g></g></g></g></g><g transform="translate(72, 177)" clip-path="url(#clip_1)"><clipPath id="clip_1"><rect width="257" height="23"></rect></clipPath><g><g><line x1="0" y1="0" x2="0" y2="5" style="visibility: inherit;" fill="rgb(0, 0, 0)" stroke="rgb(204, 204, 204)" stroke-width="1px"></line><line x1="21.471354166666664" y1="0" x2="21.471354166666664" y2="5" style="visibility: inherit;" fill="rgb(0, 0, 0)" stroke="rgb(204, 204, 204)" stroke-width="1px"></line><line x1="42.94270833333333" y1="0" x2="42.94270833333333" y2="5" style="visibility: inherit;" fill="rgb(0, 0, 0)" stroke="rgb(204, 204, 204)" stroke-width="1px"></line><line x1="64.4140625" y1="0" x2="64.4140625" y2="5" style="visibility: inherit;" fill="rgb(0, 0, 0)" stroke="rgb(204, 204, 204)" stroke-width="1px"></line><line x1="85.88541666666666" y1="0" x2="85.88541666666666" y2="5" style="visibility: inherit;" fill="rgb(0, 0, 0)" stroke="rgb(204, 204, 204)" stroke-width="1px"></line><line x1="107.35677083333334" y1="0" x2="107.35677083333334" y2="5" style="visibility: inherit;" fill="rgb(0, 0, 0)" stroke="rgb(204, 204, 204)" stroke-width="1px"></line><line x1="128.828125" y1="0" x2="128.828125" y2="5" style="visibility: inherit;" fill="rgb(0, 0, 0)" stroke="rgb(204, 204, 204)" stroke-width="1px"></line><line x1="150.29947916666669" y1="0" x2="150.29947916666669" y2="5" style="visibility: inherit;" fill="rgb(0, 0, 0)" stroke="rgb(204, 204, 204)" stroke-width="1px"></line><line x1="171.77083333333331" y1="0" x2="171.77083333333331" y2="5" style="visibility: inherit;" fill="rgb(0, 0, 0)" stroke="rgb(204, 204, 204)" stroke-width="1px"></line><line x1="193.2421875" y1="0" x2="193.2421875" y2="5" style="visibility: inherit;" fill="rgb(0, 0, 0)" stroke="rgb(204, 204, 204)" stroke-width="1px"></line><line x1="214.71354166666669" y1="0" x2="214.71354166666669" y2="5" style="visibility: inherit;" fill="rgb(0, 0, 0)" stroke="rgb(204, 204, 204)" stroke-width="1px"></line><line x1="236.18489583333331" y1="0" x2="236.18489583333331" y2="5" style="visibility: inherit;" fill="rgb(0, 0, 0)" stroke="rgb(204, 204, 204)" stroke-width="1px"></line><line x1="257.65625" y1="0" x2="257.65625" y2="5" style="visibility: inherit;" fill="rgb(0, 0, 0)" stroke="rgb(204, 204, 204)" stroke-width="1px"></line></g><g transform="translate(0, 8)"><text x="0" y="0" dx="0em" dy="0.95em" style="text-anchor: middle; visibility: hidden; font-family: Roboto, sans-serif; font-size: 12px; font-weight: 200;" fill="rgb(33, 33, 33)" stroke="none" stroke-width="1px">-20</text><text x="21.471354166666664" y="0" dx="0em" dy="0.95em" style="text-anchor: middle; visibility: inherit; font-family: Roboto, sans-serif; font-size: 12px; font-weight: 200;" fill="rgb(33, 33, 33)" stroke="none" stroke-width="1px">0</text><text x="42.94270833333333" y="0" dx="0em" dy="0.95em" style="text-anchor: middle; visibility: hidden; font-family: Roboto, sans-serif; font-size: 12px; font-weight: 200;" fill="rgb(33, 33, 33)" stroke="none" stroke-width="1px">20</text><text x="64.4140625" y="0" dx="0em" dy="0.95em" style="text-anchor: middle; visibility: inherit; font-family: Roboto, sans-serif; font-size: 12px; font-weight: 200;" fill="rgb(33, 33, 33)" stroke="none" stroke-width="1px">40</text><text x="85.88541666666666" y="0" dx="0em" dy="0.95em" style="text-anchor: middle; visibility: hidden; font-family: Roboto, sans-serif; font-size: 12px; font-weight: 200;" fill="rgb(33, 33, 33)" stroke="none" stroke-width="1px">60</text><text x="107.35677083333334" y="0" dx="0em" dy="0.95em" style="text-anchor: middle; visibility: inherit; font-family: Roboto, sans-serif; font-size: 12px; font-weight: 200;" fill="rgb(33, 33, 33)" stroke="none" stroke-width="1px">80</text><text x="128.828125" y="0" dx="0em" dy="0.95em" style="text-anchor: middle; visibility: hidden; font-family: Roboto, sans-serif; font-size: 12px; font-weight: 200;" fill="rgb(33, 33, 33)" stroke="none" stroke-width="1px">100</text><text x="150.29947916666669" y="0" dx="0em" dy="0.95em" style="text-anchor: middle; visibility: inherit; font-family: Roboto, sans-serif; font-size: 12px; font-weight: 200;" fill="rgb(33, 33, 33)" stroke="none" stroke-width="1px">120</text><text x="171.77083333333331" y="0" dx="0em" dy="0.95em" style="text-anchor: middle; visibility: hidden; font-family: Roboto, sans-serif; font-size: 12px; font-weight: 200;" fill="rgb(33, 33, 33)" stroke="none" stroke-width="1px">140</text><text x="193.2421875" y="0" dx="0em" dy="0.95em" style="text-anchor: middle; visibility: inherit; font-family: Roboto, sans-serif; font-size: 12px; font-weight: 200;" fill="rgb(33, 33, 33)" stroke="none" stroke-width="1px">160</text><text x="214.71354166666669" y="0" dx="0em" dy="0.95em" style="text-anchor: middle; visibility: hidden; font-family: Roboto, sans-serif; font-size: 12px; font-weight: 200;" fill="rgb(33, 33, 33)" stroke="none" stroke-width="1px">180</text><text x="236.18489583333331" y="0" dx="0em" dy="0.95em" style="text-anchor: middle; visibility: inherit; font-family: Roboto, sans-serif; font-size: 12px; font-weight: 200;" fill="rgb(33, 33, 33)" stroke="none" stroke-width="1px">200</text><text x="257.65625" y="0" dx="0em" dy="0.95em" style="text-anchor: middle; visibility: hidden; font-family: Roboto, sans-serif; font-size: 12px; font-weight: 200;" fill="rgb(33, 33, 33)" stroke="none" stroke-width="1px">220</text></g><line x1="0" y1="0" x2="257.65625" y2="0" fill="rgb(0, 0, 0)" stroke="rgb(204, 204, 204)" stroke-width="1px"></line></g></g></g></g></svg>