<svg viewBox="0 0 330 200" xmlns="http://www.w3.org/2000/svg"><g><g><g><g><g><line x1="30" y1="177" x2="25" y2="177" style="visibility: inherit;" fill="rgb(0, 0, 0)" stroke="rgb(204, 204, 204)" stroke-width="1px"></line><line x1="30" y1="159.3" x2="25" y2="159.3" style="visibility: inherit;" fill="rgb(0, 0, 0)" stroke="rgb(204, 204, 204)" stroke-width="1px"></line><line x1="30" y1="141.6" x2="25" y2="141.6" style="visibility: inherit;" fill="rgb(0, 0, 0)" stroke="rgb(204, 204, 204)" stroke-width="1px"></line><line x1="30" y1="123.89999999999999" x2="25" y2="123.89999999999999" style="visibility: inherit;" fill="rgb(0, 0, 0)" stroke="rgb(204, 204, 204)" stroke-width="1px"></line><line x1="30" y1="106.2" x2="25" y2="106.2" style="visibility: inherit;" fill="rgb(0, 0, 0)" stroke="rgb(204, 204, 204)" stroke-width="1px"></line><line x1="30" y1="88.5" x2="25" y2="88.5" style="visibility: inherit;" fill="rgb(0, 0, 0)" stroke="rgb(204, 204, 204)" stroke-width="1px"></line><line x1="30" y1="70.8" x2="25" y2="70.8" style="visibility: inherit;" fill="rgb(0, 0, 0)" stroke="rgb(204, 204, 204)" stroke-width="1px"></line><line x1="30" y1="53.10000000000001" x2="25" y2="53.10000000000001" style="visibility: inherit;" fill="rgb(0, 0, 0)" stroke="rgb(204, 204, 204)" stroke-width="1px"></line><line x1="30" y1="35.39999999999999" x2="25" y2="35.39999999999999" style="visibility: inherit;" fill="rgb(0, 0, 0)" stroke="rgb(204, 204, 204)" stroke-width="1px"></line><line x1="30" y1="17.699999999999996" x2="25" y2="17.699999999999996" style="visibility: inherit;" fill="rgb(0, 0, 0)" stroke="rgb(204, 204, 204)" stroke-width="1px"></line><line x1="30" y1="0" x2="25" y2="0" style="visibility: inherit;" fill="rgb(0, 0, 0)" stroke="rgb(204, 204, 204)" stroke-width="1px"></line></g><g transform="translate(20, 0)"><text x="0" y="177" dx="0em" dy="0.3em" style="text-anchor: end; visibility: hidden; font-family: Roboto, sans-serif; font-size: 12px; font-weight: 200;" fill="rgb(33, 33, 33)" stroke="none" stroke-width="1px">-2</text><text x="0" y="159.3" dx="0em" dy="0.3em" style="text-anchor: end; visibility: inherit; font-family: Roboto, sans-serif; font-size: 12px; font-weight: 200;" fill="rgb(33, 33, 33)" stroke="none" stroke-width="1px">0</text><text x="0" y="141.6" dx="0em" dy="0.3em" style="text-anchor: end; visibility: hidden; font-family: Roboto, sans-serif; font-size: 12px; font-weight: 200;" fill="rgb(33, 33, 33)" stroke="none" stroke-width="1px">2</text><text x="0" y="123.89999999999999" dx="0em" dy="0.3em" style="text-anchor: end; visibility: inherit; font-family: Roboto, sans-serif; font-size: 12px; font-weight: 200;" fill="rgb(33, 33, 33)" stroke="none" stroke-width="1px">4</text><text x="0" y="106.2" dx="0em" dy="0.3em" style="text-anchor: end; visibility: hidden; font-family: Roboto, sans-serif; font-size: 12px; font-weight: 200;" fill="rgb(33, 33, 33)" stroke="none" stroke-width="1px">6</text><text x="0" y="88.5" dx="0em" dy="0.3em" style="text-anchor: end; visibility: inherit; font-family: Roboto, sans-serif; font-size: 12px; font-weight: 200;" fill="rgb(33, 33, 33)" stroke="none" stroke-width="1px">8</text><text x="0" y="70.8" dx="0em" dy="0.3em" style="text-anchor: end; visibility: hidden; font-family: Roboto, sans-serif; font-size: 12px; font-weight: 200;" fill="rgb(33, 33, 33)" stroke="none" stroke-width="1px">10</text><text x="0" y="53.10000000000001" dx="0em" dy="0.3em" style="text-anchor: end; visibility: inherit; font-family: Roboto, sans-serif; font-size: 12px; font-weight: 200;" fill="rgb(33, 33, 33)" stroke="none" stroke-width="1px">12</text><text x="0" y="35.39999999999999" dx="0em" dy="0.3em" style="text-anchor: end; visibility: hidden; font-family: Roboto, sans-serif; font-size: 12px; font-weight: 200;" fill="rgb(33, 33, 33)" stroke="none" stroke-width="1px">14</text><text x="0" y="17.699999999999996" dx="0em" dy="0.3em" style="text-anchor: end; visibility: inherit; font-family: Roboto, sans-serif; font-size: 12px; font-weight: 200;" fill="rgb(33, 33, 33)" stroke="none" stroke-width="1px">16</text><text x="0" y="0" dx="0em" dy="0.3em" style="text-anchor: end; visibility: hidden; font-family: Roboto, sans-serif; font-size: 12px; font-weight: 200;" fill="rgb(33, 33, 33)" stroke="none" stroke-width="1px">18</text></g><line x1="30" y1="0" x2="30" y2="177" fill="rgb(0, 0, 0)" stroke="rgb(204, 204, 204)" stroke-width="1px"></line></g></g><g transform="translate(30, 0)" clip-path="url(#clip_0)"><clipPath id="clip_0"><rect width="300" height="177"></rect></clipPath><g><g><g><line x1="0" y1="0" x2="0" y2="177" fill="rgb(0, 0, 0)" stroke="rgb(66, 66, 66)" stroke-width="1px" opacity="0.25"></line><line x1="37.5" y1="0" x2="37.5" y2="177" fill="rgb(0, 0, 0)" stroke="rgb(66, 66, 66)" stroke-width="1px" opacity="0.25"></line><line x1="75" y1="0" x2="75" y2="177" fill="rgb(0, 0, 0)" stroke="rgb(66, 66, 66)" stroke-width="1px" opacity="0.25"></line><line x1="112.5" y1="0" x2="112.5" y2="177" fill="rgb(0, 0, 0)" stroke="rgb(66, 66, 66)" stroke-width="1px" opacity="0.25"></line><line x1="150" y1="0" x2="150" y2="177" fill="rgb(0, 0, 0)" stroke="rgb(66, 66, 66)" stroke-width="1px" opacity="0.25"></line><line x1="187.5" y1="0" x2="187.5" y2="177" fill="rgb(0, 0, 0)" stroke="rgb(66, 66, 66)" stroke-width="1px" opacity="0.25"></line><line x1="225" y1="0" x2="225" y2="177" fill="rgb(0, 0, 0)" stroke="rgb(66, 66, 66)" stroke-width="1px" opacity="0.25"></line><line x1="262.5" y1="0" x2="262.5" y2="177" fill="rgb(0, 0, 0)" stroke="rgb(66, 66, 66)" stroke-width="1px" opacity="0.25"></line><line x1="300" y1="0" x2="300" y2="177" fill="rgb(0, 0, 0)" stroke="rgb(66, 66, 66)" stroke-width="1px" opacity="0.25"></line></g><g><line x1="0" y1="177" x2="300" y2="177" fill="rgb(0, 0, 0)" stroke="rgb(66, 66, 66)" stroke-width="1px" opacity="0.25"></line><line x1="0" y1="159.3" x2="300" y2="159.3" fill="rgb(0, 0, 0)" stroke="rgb(66, 66, 66)" stroke-width="1px" opacity="0.25"></line><line x1="0" y1="141.6" x2="300" y2="141.6" fill="rgb(0, 0, 0)" stroke="rgb(66, 66, 66)" stroke-width="1px" opacity="0.25"></line><line x1="0" y1="123.89999999999999" x2="300" y2="123.89999999999999" fill="rgb(0, 0, 0)" stroke="rgb(66, 66, 66)" stroke-width="1px" opacity="0.25"></line><line x1="0" y1="106.2" x2="300" y2="106.2" fill="rgb(0, 0, 0)" stroke="rgb(66, 66, 66)" stroke-width="1px" opacity="0.25"></line><line x1="0" y1="88.5" x2="300" y2="88.5" fill="rgb(0, 0, 0)" stroke="rgb(66, 66, 66)" stroke-width="1px" opacity="0.25"></line><line x1="0" y1="70.8" x2="300" y2="70.8" fill="rgb(0, 0, 0)" stroke="rgb(66, 66, 66)" stroke-width="1px" opacity="0.25"></line><line x1="0" y1="53.10000000000001" x2="300" y2="53.10000000000001" fill="rgb(0, 0, 0)" stroke="rgb(66, 66, 66)" stroke-width="1px" opacity="0.25"></line><line x1="0" y1="35.39999999999999" x2="300" y2="35.39999999999999" fill="rgb(0, 0, 0)" stroke="rgb(66, 66, 66)" stroke-width="1px" opacity="0.25"></line><line x1="0" y1="17.699999999999996" x2="300" y2="17.699999999999996" fill="rgb(0, 0, 0)" stroke="rgb(66, 66, 66)" stroke-width="1px" opacity="0.25"></line><line x1="0" y1="0" x2="300" y2="0" fill="rgb(0, 0, 0)" stroke="rgb(66, 66, 66)" stroke-width="1px" opacity="0.25"></line></g></g></g><g><g><line x1="0" y1="159.3" x2="300" y2="159.3" fill="rgb(0, 0, 0)" stroke="rgb(153, 153, 153)" stroke-width="1.5px"></line></g></g><g><g><line x1="37.5" y1="0" x2="37.5" y2="177" fill="rgb(0, 0, 0)" stroke="rgb(153, 153, 153)" stroke-width="1.5px"></line></g></g><g><g><g><g><g><path stroke="rgb(255, 112, 67)" stroke-width="2px" d="M48,-13.861091709136971L48.75,21.79576334953309L49.5,46.73826069831848L50.25,65.90719513893127L51.00000000000001,81.53229274749755L51.74999999999999,94.60818006992339L52.5,105.87878136634826L53.25,115.2182264328003L54,122.83770561218262L54.75,129.12844326496125L55.5,134.1367286682129L56.25,138.07898919582368L57,141.24726423025132L57.75,143.85390672683715L58.5,146.0198020040989L59.25,147.85197159647942L60,149.42504952549933L60.75000000000001,150.79770129919052L61.49999999999999,151.99883608818055L62.25,153.0134164184332L63,153.8508887797594L63.75,154.53786982297896L64.5,155.10151477754115L65.25,155.5694006100297L66,155.9667988434434L66.75,156.31258082985877L67.5,156.61625082045794L68.25,156.88013351261617L69,157.10502503737808L69.75,157.29459060430526L70.5,157.45530041009187L71.25,157.59407381862403L72,157.71659135743977L72.75,157.82677684351802L73.5,157.92678037136793L74.25,158.01726685613394L75,158.0982009552419L75.75,158.1698548592627L76.5,158.2332735478878L77.25,158.28996659740807L78,158.3413839764893L78.75,158.38866904377937L79.5,158.43266520760955L80.25,158.47398641332984L81,158.513066200912L81.75,158.5501691121608L82.5,158.58541291169823L83.25000000000001,158.61878381855786L84.00000000000001,158.65019374005496L84.74999999999999,158.67955003380774L85.49999999999999,158.70682711601256L86.25,158.7320819567889L87,158.75543103497475L87.75,158.77701146788894L88.5,158.7969400310889L89.25,158.8153168508783L90,158.83224980123342L90.75,158.847878010571L91.5,158.8623816864565L92.25,158.87598425857723L93,158.88892554212362L93.75,158.90144986901433L94.5,158.91378960348666L95.25,158.92615169081836L96,158.93871060200036L96.75,158.95158640947193L97.5,158.9648533590138L98.25,158.97852239627392L99,158.99253905676306L99.75,159.00677552036942L100.5,159.02103816121817L101.25,159.03508371887727L102.00000000000001,159.04863850269467L102.75000000000001,159.061441531498L103.49999999999999,159.07328221695496L104.24999999999999,159.08403506325558L105,159.09367161830886L105.75,159.10225480310618L106.5,159.1099051516503L107.25,159.11676632557064L108,159.12297885445878L108.75,159.128660354577L109.5,159.13390178689733L110.25,159.13876903960482L111,159.1433080052957L111.75,159.1475524605252L112.5,159.15152836823836L113.25,159.15525704277678L114,159.15875928746536L114.75,159.16205240269193L115.5,159.16515344157816L116.25,159.1680782950949L117,159.17084123049864L117.75,159.1734562595375L118.5,159.17593534165061L119.25,159.1782901230734L120,159.18053018124775L120.75000000000001,159.1826656952966L121.50000000000001,159.18470407496207L122.24999999999999,159.18665319979192L122.99999999999999,159.1885192102287L123.75,159.1903077274561L124.5,159.19202572437933L125.25,159.19367512143216L126,159.1952635921072L126.75,159.19679118585773L127.5,159.19826433984562L128.25,159.1996825100854L129,159.20105138369837L129.75,159.2023690814618L130.5,159.20363948545418L131.25,159.204862092901L132,159.20603694501332L132.75,159.2071648989804L133.5,159.20824180897324L134.25,159.20926785632037L135,159.2102401974611L135.75,159.2111558157485L136.5,159.21200777948835L137.25,159.2127951573115L138,159.2135088992771L138.75,159.2141455354169L139.5,159.21469582621938L140.25,159.21514989752322L141,159.21550258146598L141.75,159.21574206696823L142.5,159.21586060635747L143.25,159.21584715507925L144,159.2156861848198L144.75,159.2153719013091L145.5,159.21489173518495L146.25,159.21423722170294L147,159.21339169512504L147.75,159.2123508200515L148.5,159.21110928026027L149.25,159.20966488332488L150,159.20802032444627L150.74999999999997,159.20617769714445L151.5,159.204152439069L152.24999999999997,159.20196324354038L153,159.19963695541955L153.75,159.1972108789254L154.5,159.19473075005226L155.25,159.19224071404898L156,159.1897905126214L156.75,159.18743006056175L157.5,159.18520962707697L158.25,159.18316818955356L159,159.18134347256273L159.75,159.1797533039935L160.5,159.17840611562133L161.25,159.17730681155808L162,159.1764507926535L162.75,159.17581381858326L163.5,159.17537655313498L164.25,159.17511814353057L165,159.17501064869575L165.75,159.17503352905624L166.50000000000003,159.1751652065199L167.25,159.1753743689507L168.00000000000003,159.1756497492548L168.75,159.1759806325659L169.49999999999997,159.17635529846885L170.25,159.1767611528747L170.99999999999997,159.1771919646766L171.75,159.17764092581348L172.5,159.17810018146412L173.25,159.17856394560076L174,159.1790345425252L174.75,159.17950568343514L175.5,159.17997576934286L176.25,159.1804434897378L177,159.18090985016897L177.75,159.1813697981648L178.5,159.18182770209387L179.25,159.18227974581532L180,159.18272399241104L180.75,159.1831593291834L181.5,159.18358555007725L182.25,159.1840076333843L183,159.18442040299996L183.75,159.1848195400089L184.5,159.1852110447362L185.25000000000003,159.18559434022754L186,159.18596633565613L186.75000000000003,159.18632860528305L187.5,159.18667915449478L188.24999999999997,159.18702151095493L189,159.18735500704497L189.74999999999997,159.18767633764074L190.5,159.18798586539924L191.25,159.18828701907768L192,159.1885757105425L192.75,159.18885623398236L193.5,159.18912847400642L194.25,159.1893927850295L195,159.189646850992L195.75,159.18989358139225L196.5,159.19013276193292L197.25,159.1903644255828L198,159.1905845336616L198.75,159.1908008668106L199.5,159.1910101281479L200.25,159.1912128781434L201,159.19141009761952L201.75,159.1916005584877L202.5,159.19178543938324L203.25,159.1919674602337L204.00000000000003,159.19214302743785L204.75,159.19231495982967L205.50000000000003,159.192483611824L206.25,159.19264716189355L206.99999999999997,159.19280560179612L207.75,159.19296307736076L208.49999999999997,159.19311682744882L209.25,159.19326561572962L210,159.19341273084282L210.75,159.19355914536862L211.5,159.1937015376985L212.25,159.19384265248664L213,159.19398130285555L213.75,159.19411786794663L214.5,159.19425346869974L215.25,159.19438793202863L216,159.19452093648724L216.75,159.19465120453387L217.5,159.19477987359278L218.25,159.1949090948794L219,159.19503644518554L219.75,159.19516504830682L220.5,159.19529540701768L221.25,159.19542105942963L222,159.1955482531339L222.75000000000003,159.19567562816664L223.5,159.19580133003183L224.25000000000003,159.19592305091209L225,159.19604857969097L225.74999999999997,159.19617515522987L226.5,159.19629792287014L227.24999999999997,159.1964209789876L228,159.19654582366348L228.75,159.19666745387948L229.5,159.19679069132545L230.25,159.19691715971567L231,159.19704109774904L231.75,159.197168481024L232.5,159.19729621871375L233.25,159.19742091502994L234,159.19754729275593L234.75,159.19767479966396L235.5,159.1978023725096L236.25,159.19792981348002L237,159.19806028758177L237.75,159.19819156117737L238.5,159.19832168086432L239.25,159.19845283082685L240,159.19858368407003L240.75,159.1987139768433L241.50000000000003,159.1988466433715L242.25,159.198981494084L243.00000000000003,159.1991158172954L243.75,159.19924971191213L244.49999999999997,159.19938232898713L245.25,159.19951858087444L245.99999999999997,159.1996558300685L246.75,159.19979476067238L247.5,159.19993609800002L248.25,159.20007610833272L249,159.20021805558355L249.75,159.20036207162775L250.5,159.20050517278725L251.25,159.20065009547397L252,159.2007941280026L252.75,159.20094299046323L253.5,159.20109339421614L254.25,159.2012469300069L255,159.20140119111164L255.75,159.20155819687062L256.5,159.20171667798422L257.25,159.20187885160558L258,159.2020421626512L258.75,159.202209908003L259.5,159.20237745554186L260.25,159.20255122594534L261,159.20272831795737L261.75,159.20290722325444" style="fill: none;" fill="none"></path></g></g></g></g></g></g><g transform="translate(30, 177)" clip-path="url(#clip_1)"><clipPath id="clip_1"><rect width="300" height="23"></rect></clipPath><g><g><line x1="0" y1="0" x2="0" y2="5" style="visibility: inherit;" fill="rgb(0, 0, 0)" stroke="rgb(204, 204, 204)" stroke-width="1px"></line><line x1="37.5" y1="0" x2="37.5" y2="5" style="visibility: inherit;" fill="rgb(0, 0, 0)" stroke="rgb(204, 204, 204)" stroke-width="1px"></line><line x1="75" y1="0" x2="75" y2="5" style="visibility: inherit;" fill="rgb(0, 0, 0)" stroke="rgb(204, 204, 204)" stroke-width="1px"></line><line x1="112.5" y1="0" x2="112.5" y2="5" style="visibility: inherit;" fill="rgb(0, 0, 0)" stroke="rgb(204, 204, 204)" stroke-width="1px"></line><line x1="150" y1="0" x2="150" y2="5" style="visibility: inherit;" fill="rgb(0, 0, 0)" stroke="rgb(204, 204, 204)" stroke-width="1px"></line><line x1="187.5" y1="0" x2="187.5" y2="5" style="visibility: inherit;" fill="rgb(0, 0, 0)" stroke="rgb(204, 204, 204)" stroke-width="1px"></line><line x1="225" y1="0" x2="225" y2="5" style="visibility: inherit;" fill="rgb(0, 0, 0)" stroke="rgb(204, 204, 204)" stroke-width="1px"></line><line x1="262.5" y1="0" x2="262.5" y2="5" style="visibility: inherit;" fill="rgb(0, 0, 0)" stroke="rgb(204, 204, 204)" stroke-width="1px"></line><line x1="300" y1="0" x2="300" y2="5" style="visibility: inherit;" fill="rgb(0, 0, 0)" stroke="rgb(204, 204, 204)" stroke-width="1px"></line></g><g transform="translate(0, 8)"><text x="0" y="0" dx="0em" dy="0.95em" style="text-anchor: middle; visibility: hidden; font-family: Roboto, sans-serif; font-size: 12px; font-weight: 200;" fill="rgb(33, 33, 33)" stroke="none" stroke-width="1px">-50</text><text x="37.5" y="0" dx="0em" dy="0.95em" style="text-anchor: middle; visibility: inherit; font-family: Roboto, sans-serif; font-size: 12px; font-weight: 200;" fill="rgb(33, 33, 33)" stroke="none" stroke-width="1px">0</text><text x="75" y="0" dx="0em" dy="0.95em" style="text-anchor: middle; visibility: inherit; font-family: Roboto, sans-serif; font-size: 12px; font-weight: 200;" fill="rgb(33, 33, 33)" stroke="none" stroke-width="1px">50</text><text x="112.5" y="0" dx="0em" dy="0.95em" style="text-anchor: middle; visibility: inherit; font-family: Roboto, sans-serif; font-size: 12px; font-weight: 200;" fill="rgb(33, 33, 33)" stroke="none" stroke-width="1px">100</text><text x="150" y="0" dx="0em" dy="0.95em" style="text-anchor: middle; visibility: inherit; font-family: Roboto, sans-serif; font-size: 12px; font-weight: 200;" fill="rgb(33, 33, 33)" stroke="none" stroke-width="1px">150</text><text x="187.5" y="0" dx="0em" dy="0.95em" style="text-anchor: middle; visibility: inherit; font-family: Roboto, sans-serif; font-size: 12px; font-weight: 200;" fill="rgb(33, 33, 33)" stroke="none" stroke-width="1px">200</text><text x="225" y="0" dx="0em" dy="0.95em" style="text-anchor: middle; visibility: inherit; font-family: Roboto, sans-serif; font-size: 12px; font-weight: 200;" fill="rgb(33, 33, 33)" stroke="none" stroke-width="1px">250</text><text x="262.5" y="0" dx="0em" dy="0.95em" style="text-anchor: middle; visibility: inherit; font-family: Roboto, sans-serif; font-size: 12px; font-weight: 200;" fill="rgb(33, 33, 33)" stroke="none" stroke-width="1px">300</text><text x="300" y="0" dx="0em" dy="0.95em" style="text-anchor: middle; visibility: hidden; font-family: Roboto, sans-serif; font-size: 12px; font-weight: 200;" fill="rgb(33, 33, 33)" stroke="none" stroke-width="1px">350</text></g><line x1="0" y1="0" x2="300" y2="0" fill="rgb(0, 0, 0)" stroke="rgb(204, 204, 204)" stroke-width="1px"></line></g></g></g></g></svg>