<svg viewBox="0 0 330 200" xmlns="http://www.w3.org/2000/svg"><g><g><g><g><g><line x1="51.5625" y1="177" x2="46.5625" y2="177" style="visibility: inherit;" fill="rgb(0, 0, 0)" stroke="rgb(204, 204, 204)" stroke-width="1px"></line><line x1="51.5625" y1="160.9090909090909" x2="46.5625" y2="160.9090909090909" style="visibility: inherit;" fill="rgb(0, 0, 0)" stroke="rgb(204, 204, 204)" stroke-width="1px"></line><line x1="51.5625" y1="144.8181818181818" x2="46.5625" y2="144.8181818181818" style="visibility: inherit;" fill="rgb(0, 0, 0)" stroke="rgb(204, 204, 204)" stroke-width="1px"></line><line x1="51.5625" y1="128.72727272727272" x2="46.5625" y2="128.72727272727272" style="visibility: inherit;" fill="rgb(0, 0, 0)" stroke="rgb(204, 204, 204)" stroke-width="1px"></line><line x1="51.5625" y1="112.63636363636364" x2="46.5625" y2="112.63636363636364" style="visibility: inherit;" fill="rgb(0, 0, 0)" stroke="rgb(204, 204, 204)" stroke-width="1px"></line><line x1="51.5625" y1="96.54545454545453" x2="46.5625" y2="96.54545454545453" style="visibility: inherit;" fill="rgb(0, 0, 0)" stroke="rgb(204, 204, 204)" stroke-width="1px"></line><line x1="51.5625" y1="80.45454545454547" x2="46.5625" y2="80.45454545454547" style="visibility: inherit;" fill="rgb(0, 0, 0)" stroke="rgb(204, 204, 204)" stroke-width="1px"></line><line x1="51.5625" y1="64.36363636363636" x2="46.5625" y2="64.36363636363636" style="visibility: inherit;" fill="rgb(0, 0, 0)" stroke="rgb(204, 204, 204)" stroke-width="1px"></line><line x1="51.5625" y1="48.272727272727266" x2="46.5625" y2="48.272727272727266" style="visibility: inherit;" fill="rgb(0, 0, 0)" stroke="rgb(204, 204, 204)" stroke-width="1px"></line><line x1="51.5625" y1="32.18181818181817" x2="46.5625" y2="32.18181818181817" style="visibility: inherit;" fill="rgb(0, 0, 0)" stroke="rgb(204, 204, 204)" stroke-width="1px"></line><line x1="51.5625" y1="16.090909090909097" x2="46.5625" y2="16.090909090909097" style="visibility: inherit;" fill="rgb(0, 0, 0)" stroke="rgb(204, 204, 204)" stroke-width="1px"></line><line x1="51.5625" y1="0" x2="46.5625" y2="0" style="visibility: inherit;" fill="rgb(0, 0, 0)" stroke="rgb(204, 204, 204)" stroke-width="1px"></line></g><g transform="translate(41.5625, 0)"><text x="0" y="177" dx="0em" dy="0.3em" style="text-anchor: end; visibility: hidden; font-family: Roboto, sans-serif; font-size: 12px; font-weight: 200;" fill="rgb(33, 33, 33)" stroke="none" stroke-width="1px">-0.5</text><text x="0" y="160.9090909090909" dx="0em" dy="0.3em" style="text-anchor: end; visibility: inherit; font-family: Roboto, sans-serif; font-size: 12px; font-weight: 200;" fill="rgb(33, 33, 33)" stroke="none" stroke-width="1px">0</text><text x="0" y="144.8181818181818" dx="0em" dy="0.3em" style="text-anchor: end; visibility: hidden; font-family: Roboto, sans-serif; font-size: 12px; font-weight: 200;" fill="rgb(33, 33, 33)" stroke="none" stroke-width="1px">0.5</text><text x="0" y="128.72727272727272" dx="0em" dy="0.3em" style="text-anchor: end; visibility: inherit; font-family: Roboto, sans-serif; font-size: 12px; font-weight: 200;" fill="rgb(33, 33, 33)" stroke="none" stroke-width="1px">1</text><text x="0" y="112.63636363636364" dx="0em" dy="0.3em" style="text-anchor: end; visibility: hidden; font-family: Roboto, sans-serif; font-size: 12px; font-weight: 200;" fill="rgb(33, 33, 33)" stroke="none" stroke-width="1px">1.5</text><text x="0" y="96.54545454545453" dx="0em" dy="0.3em" style="text-anchor: end; visibility: inherit; font-family: Roboto, sans-serif; font-size: 12px; font-weight: 200;" fill="rgb(33, 33, 33)" stroke="none" stroke-width="1px">2</text><text x="0" y="80.45454545454547" dx="0em" dy="0.3em" style="text-anchor: end; visibility: hidden; font-family: Roboto, sans-serif; font-size: 12px; font-weight: 200;" fill="rgb(33, 33, 33)" stroke="none" stroke-width="1px">2.5</text><text x="0" y="64.36363636363636" dx="0em" dy="0.3em" style="text-anchor: end; visibility: inherit; font-family: Roboto, sans-serif; font-size: 12px; font-weight: 200;" fill="rgb(33, 33, 33)" stroke="none" stroke-width="1px">3</text><text x="0" y="48.272727272727266" dx="0em" dy="0.3em" style="text-anchor: end; visibility: hidden; font-family: Roboto, sans-serif; font-size: 12px; font-weight: 200;" fill="rgb(33, 33, 33)" stroke="none" stroke-width="1px">3.5</text><text x="0" y="32.18181818181817" dx="0em" dy="0.3em" style="text-anchor: end; visibility: inherit; font-family: Roboto, sans-serif; font-size: 12px; font-weight: 200;" fill="rgb(33, 33, 33)" stroke="none" stroke-width="1px">4</text><text x="0" y="16.090909090909097" dx="0em" dy="0.3em" style="text-anchor: end; visibility: hidden; font-family: Roboto, sans-serif; font-size: 12px; font-weight: 200;" fill="rgb(33, 33, 33)" stroke="none" stroke-width="1px">4.5</text><text x="0" y="0" dx="0em" dy="0.3em" style="text-anchor: end; visibility: hidden; font-family: Roboto, sans-serif; font-size: 12px; font-weight: 200;" fill="rgb(33, 33, 33)" stroke="none" stroke-width="1px">5</text></g><line x1="51.5625" y1="0" x2="51.5625" y2="177" fill="rgb(0, 0, 0)" stroke="rgb(204, 204, 204)" stroke-width="1px"></line></g></g><g transform="translate(51, 0)" clip-path="url(#clip_0)"><clipPath id="clip_0"><rect width="278" height="177"></rect></clipPath><g><g><g><line x1="0" y1="0" x2="0" y2="177" fill="rgb(0, 0, 0)" stroke="rgb(66, 66, 66)" stroke-width="1px" opacity="0.25"></line><line x1="34.8046875" y1="0" x2="34.8046875" y2="177" fill="rgb(0, 0, 0)" stroke="rgb(66, 66, 66)" stroke-width="1px" opacity="0.25"></line><line x1="69.609375" y1="0" x2="69.609375" y2="177" fill="rgb(0, 0, 0)" stroke="rgb(66, 66, 66)" stroke-width="1px" opacity="0.25"></line><line x1="104.4140625" y1="0" x2="104.4140625" y2="177" fill="rgb(0, 0, 0)" stroke="rgb(66, 66, 66)" stroke-width="1px" opacity="0.25"></line><line x1="139.21875" y1="0" x2="139.21875" y2="177" fill="rgb(0, 0, 0)" stroke="rgb(66, 66, 66)" stroke-width="1px" opacity="0.25"></line><line x1="174.0234375" y1="0" x2="174.0234375" y2="177" fill="rgb(0, 0, 0)" stroke="rgb(66, 66, 66)" stroke-width="1px" opacity="0.25"></line><line x1="208.828125" y1="0" x2="208.828125" y2="177" fill="rgb(0, 0, 0)" stroke="rgb(66, 66, 66)" stroke-width="1px" opacity="0.25"></line><line x1="243.6328125" y1="0" x2="243.6328125" y2="177" fill="rgb(0, 0, 0)" stroke="rgb(66, 66, 66)" stroke-width="1px" opacity="0.25"></line><line x1="278.4375" y1="0" x2="278.4375" y2="177" fill="rgb(0, 0, 0)" stroke="rgb(66, 66, 66)" stroke-width="1px" opacity="0.25"></line></g><g><line x1="0" y1="177" x2="278.4375" y2="177" fill="rgb(0, 0, 0)" stroke="rgb(66, 66, 66)" stroke-width="1px" opacity="0.25"></line><line x1="0" y1="160.9090909090909" x2="278.4375" y2="160.9090909090909" fill="rgb(0, 0, 0)" stroke="rgb(66, 66, 66)" stroke-width="1px" opacity="0.25"></line><line x1="0" y1="144.8181818181818" x2="278.4375" y2="144.8181818181818" fill="rgb(0, 0, 0)" stroke="rgb(66, 66, 66)" stroke-width="1px" opacity="0.25"></line><line x1="0" y1="128.72727272727272" x2="278.4375" y2="128.72727272727272" fill="rgb(0, 0, 0)" stroke="rgb(66, 66, 66)" stroke-width="1px" opacity="0.25"></line><line x1="0" y1="112.63636363636364" x2="278.4375" y2="112.63636363636364" fill="rgb(0, 0, 0)" stroke="rgb(66, 66, 66)" stroke-width="1px" opacity="0.25"></line><line x1="0" y1="96.54545454545453" x2="278.4375" y2="96.54545454545453" fill="rgb(0, 0, 0)" stroke="rgb(66, 66, 66)" stroke-width="1px" opacity="0.25"></line><line x1="0" y1="80.45454545454547" x2="278.4375" y2="80.45454545454547" fill="rgb(0, 0, 0)" stroke="rgb(66, 66, 66)" stroke-width="1px" opacity="0.25"></line><line x1="0" y1="64.36363636363636" x2="278.4375" y2="64.36363636363636" fill="rgb(0, 0, 0)" stroke="rgb(66, 66, 66)" stroke-width="1px" opacity="0.25"></line><line x1="0" y1="48.272727272727266" x2="278.4375" y2="48.272727272727266" fill="rgb(0, 0, 0)" stroke="rgb(66, 66, 66)" stroke-width="1px" opacity="0.25"></line><line x1="0" y1="32.18181818181817" x2="278.4375" y2="32.18181818181817" fill="rgb(0, 0, 0)" stroke="rgb(66, 66, 66)" stroke-width="1px" opacity="0.25"></line><line x1="0" y1="16.090909090909097" x2="278.4375" y2="16.090909090909097" fill="rgb(0, 0, 0)" stroke="rgb(66, 66, 66)" stroke-width="1px" opacity="0.25"></line><line x1="0" y1="0" x2="278.4375" y2="0" fill="rgb(0, 0, 0)" stroke="rgb(66, 66, 66)" stroke-width="1px" opacity="0.25"></line></g></g></g><g><g><line x1="0" y1="160.9090909090909" x2="278.4375" y2="160.9090909090909" fill="rgb(0, 0, 0)" stroke="rgb(153, 153, 153)" stroke-width="1.5px"></line></g></g><g><g><line x1="34.8046875" y1="0" x2="34.8046875" y2="177" fill="rgb(0, 0, 0)" stroke="rgb(153, 153, 153)" stroke-width="1.5px"></line></g></g><g><g><g><g><g><path stroke="rgb(255, 112, 67)" stroke-width="2px" d="M44.550000000000004,-12.52517041293056L45.24609375,8.799577799710367L45.9421875,30.139088370583277L46.638281250000006,54.221098292957656L47.334375,78.144175009294L48.03046875,95.92271167581731L48.7265625,108.79470159790732L49.422656249999996,119.70714191956952L50.11875,128.44019703431562L50.81484375,134.47978354584086L51.5109375,139.05581152439117L52.20703125,142.9119098294865L52.903125,146.14505042813042L53.59921875,148.81573769721118L54.2953125,151.13222427801654L54.991406250000004,153.02816012230787L55.6875,154.6328990513628L56.38359375,156.0010460615158L57.0796875,157.03767636960202L57.775781249999994,157.81198829006064L58.471875,158.40006138926202L59.16796875,158.8487612632188L59.864062499999996,159.19902451539582L60.56015625,159.48113234679806L61.25625,159.71477937088773L61.952343750000004,159.9093742292713L62.6484375,160.06879753179172L63.34453125,160.1958703303879L64.040625,160.29558536308733L64.73671875000001,160.3745435869152L65.4328125,160.43885253556073L66.12890625,160.49286981773648L66.825,160.5392509819093L67.52109374999999,160.57947500930592L68.2171875,160.61429295959798L68.91328125,160.64404210380533L69.609375,160.66908584822986L70.30546875,160.6901205392893L71.0015625,160.7080953642726L71.69765625000001,160.7238632864742L72.39375,160.73797668347305L73.08984375,160.75074484775013L73.7859375,160.76236574207857L74.48203125,160.77298699183896L75.17812500000001,160.78270056505096L75.87421875000001,160.79155895706606L76.5703125,160.79957626954737L77.26640625,160.8067583394745L77.9625,160.81311283959076L78.65859375,160.8186645264822L79.3546875,160.8234689675949L80.05078125,160.8275928723372L80.74687499999999,160.83110342966393L81.44296874999999,160.83405986356294L82.1390625,160.83650143690068L82.83515625,160.83846578658134L83.53125,160.83999740552497L84.22734375,160.84115650678393L84.92343749999999,160.84202151119032L85.61953125,160.84268681446767L86.315625,160.84325390063566L87.01171875,160.84382982844147L87.7078125,160.84452224107966L88.40390625,160.84543589697304L89.10000000000001,160.84666611721994L89.79609375,160.84829017623667L90.4921875,160.8503642596347L91.18828125,160.85291338250548L91.884375,160.85592456712303L92.58046875000001,160.85934043275617L93.27656250000001,160.86306022594428L93.97265625,160.8669490030628L94.66875,160.87084667052312L95.36484375,160.87459478692406L96.0609375,160.87805809768508L96.75703125,160.88114491015122L97.453125,160.8838149105749L98.14921874999999,160.88607683756643L98.84531249999999,160.8879716305316L99.54140625,160.8895548793953L100.2375,160.89088489026338L100.93359375,160.89201385877095L101.6296875,160.89298438775057L102.32578124999999,160.89382915941744L103.021875,160.8945721782564L103.71796875,160.89523022839356L104.4140625,160.89581623604118L105.11015625,160.89633961979152L105.80625,160.89680820973908L106.50234375000001,160.89722833926896L107.1984375,160.89760590436742L107.89453125,160.89794522188922L108.590625,160.89824999614345L109.28671875,160.8985237487994L109.98281250000001,160.8987688513642L110.67890625000001,160.89898783363276L111.375,160.89918204807591L112.07109375,160.8993538259264L112.7671875,160.89950377692003L113.46328125,160.89963338933674L114.159375,160.89974348271392L114.85546875,160.89983491218035L115.55156249999999,160.89990880167304L116.24765624999999,160.8999646931876L116.94375,160.900004587332L117.63984375,160.90002720656446L118.3359375,160.90003455992237L119.03203125,160.90002557685577L119.72812499999999,160.9000017212926L120.42421875,160.89996161079034L121.1203125,160.8999064488982L121.81640625,160.89983547602208L122.5125,160.89974860880332L123.20859375,160.8996456655388L123.90468750000001,160.8995247786198L124.60078125,160.89938568954082L125.296875,160.8992274635609L125.99296875,160.89904848221076L126.6890625,160.89884554601633L127.38515625000001,160.89861847702096L128.08125,160.89836293963756L128.77734375,160.898077414678L129.47343750000002,160.89775715444492L130.16953125,160.89739778682335L130.865625,160.89699624346528L131.56171874999998,160.89654684848873L132.2578125,160.8960452082366L132.95390625,160.89548559624976L133.65,160.89485998106167L134.34609375,160.89416443544906L135.04218749999998,160.89339193480555L135.73828125,160.8925374298441L136.434375,160.89159146638121L137.13046875,160.8905511615184L137.8265625,160.88941207945092L138.52265625,160.888172360063L139.21875,160.88683250350667L139.91484375,160.88539253226057L140.6109375,160.88385969571854L141.30703125,160.8822432195302L142.003125,160.88055687379727L142.69921875,160.8788201681931L143.39531250000002,160.87705711563203L144.09140624999998,160.8752918264363L144.7875,160.87355114022185L145.48359374999998,160.87186246606606L146.1796875,160.87025326549667L146.87578125,160.86874537660995L147.571875,160.86735941990364L148.26796875,160.86610581802034L148.9640625,160.86499013444833L149.66015625,160.86401527269152L150.35625000000002,160.86317905605856L151.05234375,160.8624688589903L151.74843750000002,160.86187425135128L152.44453124999998,160.86138490416025L153.140625,160.86098466269587L153.83671875,160.86066346772185L154.5328125,160.86040848762389L155.22890625,160.860203841172L155.925,160.8600431668826L156.62109375,160.85991999837145L157.3171875,160.85982827012512L158.01328125,160.85976064658132L158.709375,160.85971441905184L159.40546875,160.859684971902L160.1015625,160.85966822898692L160.79765625000002,160.8596610208042L161.49374999999998,160.8596649957948L162.18984375,160.85967545590194L162.88593749999998,160.85969245732255L163.58203125,160.85971488361247L164.278125,160.8597428921229L164.97421875,160.85977410760032L165.6703125,160.85981005485255L166.36640625,160.85984938140874L167.0625,160.8598902327728L167.75859375000002,160.85993230173534L168.4546875,160.85997535976242L169.15078125000002,160.86002162850292L169.84687499999998,160.86006823817098L170.54296875,160.8601127573162L171.2390625,160.86015825803307L171.93515625,160.860204358183L172.63125,160.86024907589044L173.32734375,160.86029300309548L174.0234375,160.86033502335405L174.71953125,160.8603770660914L175.415625,160.86041842322712L176.11171875,160.8604566520715L176.8078125,160.86049260681665L177.50390625,160.86052737018855L178.20000000000002,160.86055905771948L178.89609374999998,160.86058972246775L179.5921875,160.86061870505694L180.28828124999998,160.8606465150052L180.984375,160.86067128283057L181.68046875,160.86069500914098L182.3765625,160.8607172893191L183.07265625,160.8607374227775L183.76875,160.86075402707368L184.46484375,160.86077076249586L185.16093750000002,160.8607855272818L185.85703125,160.86079885342835L186.55312500000002,160.86081078589302L187.24921874999998,160.86082135090098L187.9453125,160.8608303423971L188.64140625,160.8608395362019L189.3375,160.86084663948384L190.03359375,160.86085333440198L190.7296875,160.8608596359422L191.42578125,160.8608644388997L192.121875,160.86086790811862L192.81796875,160.86087200674228L193.5140625,160.86087538604625L194.21015625,160.86087708319113L194.90625,160.8608792074321L195.60234375000002,160.86088170631874L196.29843749999998,160.86088299509984L196.99453125,160.8608850931156L197.69062499999998,160.86088631820695L198.38671875,160.8608875432983L199.0828125,160.86088919173926L199.77890625,160.86089096006683L200.475,160.8608927621125L201.17109375,160.86089417827316L201.8671875,160.86089524975978L202.56328125000002,160.86089737400073L203.259375,160.8608994720165L203.95546875000002,160.86090283633465L204.65156249999998,160.86090781912208L205.34765625,160.86091119467957L206.04375,160.8609161512418L206.73984375,160.86092153490014L207.4359375,160.86092697850174L208.13203125,160.8609309122813L208.828125,160.8609374910593L209.52421875,160.86094544853339L210.2203125,160.86095187370665L210.91640625,160.860959160565L211.6125,160.86096790854143L212.30859375,160.8609757086643L213.00468750000002,160.860984868751L213.70078124999998,160.8609962092755L214.396875,160.86100712645037L215.09296874999998,160.86102044135757L215.7890625,160.86103443811987L216.48515625,160.8610473521562L217.18125,160.86106192961927L217.87734375,160.86107745118946L218.5734375,160.86109375951557L219.26953125,160.86111070099287L219.96562500000002,160.86112941079773L220.66171875,160.86114948805928L221.35781250000002,160.86116920191455L222.05390624999998,160.8611900097352L222.75,160.86121153687552L223.44609375,160.86123307150874L224.1421875,160.86125647937033L224.83828125,160.86128136333585L225.534375,160.86130668189037L226.23046875,160.86133246875198L226.9265625,160.86135789595374L227.62265625,160.8613858332815L228.31875,160.8614145648581L229.01484375,160.86144483248196L229.7109375,160.86147681223653L230.40703125000002,160.86150847354227L231.10312499999998,160.861541996837L231.79921875,160.86157659911126L232.49531249999998,160.8616113437509L233.19140625,160.86164761319841L233.8875,160.86168390512466L234.58359375,160.8617230293722L235.2796875,160.8617633787111L235.97578125,160.86180569493973L236.671875,160.8618490489369L237.36796875000002,160.86189406636086L238.0640625,160.86194057112814L238.76015625000002,160.86198896785606L239.45624999999998,160.86203881071626L240.15234375,160.8620908415072L240.8484375,160.86214345299894L241.54453125,160.86219978097571L242.240625,160.8622580084061L242.93671875,160.8623174159703" style="fill: none;" fill="none"></path></g></g></g></g></g></g><g transform="translate(51, 177)" clip-path="url(#clip_1)"><clipPath id="clip_1"><rect width="278" height="23"></rect></clipPath><g><g><line x1="0" y1="0" x2="0" y2="5" style="visibility: inherit;" fill="rgb(0, 0, 0)" stroke="rgb(204, 204, 204)" stroke-width="1px"></line><line x1="34.8046875" y1="0" x2="34.8046875" y2="5" style="visibility: inherit;" fill="rgb(0, 0, 0)" stroke="rgb(204, 204, 204)" stroke-width="1px"></line><line x1="69.609375" y1="0" x2="69.609375" y2="5" style="visibility: inherit;" fill="rgb(0, 0, 0)" stroke="rgb(204, 204, 204)" stroke-width="1px"></line><line x1="104.4140625" y1="0" x2="104.4140625" y2="5" style="visibility: inherit;" fill="rgb(0, 0, 0)" stroke="rgb(204, 204, 204)" stroke-width="1px"></line><line x1="139.21875" y1="0" x2="139.21875" y2="5" style="visibility: inherit;" fill="rgb(0, 0, 0)" stroke="rgb(204, 204, 204)" stroke-width="1px"></line><line x1="174.0234375" y1="0" x2="174.0234375" y2="5" style="visibility: inherit;" fill="rgb(0, 0, 0)" stroke="rgb(204, 204, 204)" stroke-width="1px"></line><line x1="208.828125" y1="0" x2="208.828125" y2="5" style="visibility: inherit;" fill="rgb(0, 0, 0)" stroke="rgb(204, 204, 204)" stroke-width="1px"></line><line x1="243.6328125" y1="0" x2="243.6328125" y2="5" style="visibility: inherit;" fill="rgb(0, 0, 0)" stroke="rgb(204, 204, 204)" stroke-width="1px"></line><line x1="278.4375" y1="0" x2="278.4375" y2="5" style="visibility: inherit;" fill="rgb(0, 0, 0)" stroke="rgb(204, 204, 204)" stroke-width="1px"></line></g><g transform="translate(0, 8)"><text x="0" y="0" dx="0em" dy="0.95em" style="text-anchor: middle; visibility: hidden; font-family: Roboto, sans-serif; font-size: 12px; font-weight: 200;" fill="rgb(33, 33, 33)" stroke="none" stroke-width="1px">-50</text><text x="34.8046875" y="0" dx="0em" dy="0.95em" style="text-anchor: middle; visibility: inherit; font-family: Roboto, sans-serif; font-size: 12px; font-weight: 200;" fill="rgb(33, 33, 33)" stroke="none" stroke-width="1px">0</text><text x="69.609375" y="0" dx="0em" dy="0.95em" style="text-anchor: middle; visibility: inherit; font-family: Roboto, sans-serif; font-size: 12px; font-weight: 200;" fill="rgb(33, 33, 33)" stroke="none" stroke-width="1px">50</text><text x="104.4140625" y="0" dx="0em" dy="0.95em" style="text-anchor: middle; visibility: inherit; font-family: Roboto, sans-serif; font-size: 12px; font-weight: 200;" fill="rgb(33, 33, 33)" stroke="none" stroke-width="1px">100</text><text x="139.21875" y="0" dx="0em" dy="0.95em" style="text-anchor: middle; visibility: inherit; font-family: Roboto, sans-serif; font-size: 12px; font-weight: 200;" fill="rgb(33, 33, 33)" stroke="none" stroke-width="1px">150</text><text x="174.0234375" y="0" dx="0em" dy="0.95em" style="text-anchor: middle; visibility: inherit; font-family: Roboto, sans-serif; font-size: 12px; font-weight: 200;" fill="rgb(33, 33, 33)" stroke="none" stroke-width="1px">200</text><text x="208.828125" y="0" dx="0em" dy="0.95em" style="text-anchor: middle; visibility: inherit; font-family: Roboto, sans-serif; font-size: 12px; font-weight: 200;" fill="rgb(33, 33, 33)" stroke="none" stroke-width="1px">250</text><text x="243.6328125" y="0" dx="0em" dy="0.95em" style="text-anchor: middle; visibility: inherit; font-family: Roboto, sans-serif; font-size: 12px; font-weight: 200;" fill="rgb(33, 33, 33)" stroke="none" stroke-width="1px">300</text><text x="278.4375" y="0" dx="0em" dy="0.95em" style="text-anchor: middle; visibility: hidden; font-family: Roboto, sans-serif; font-size: 12px; font-weight: 200;" fill="rgb(33, 33, 33)" stroke="none" stroke-width="1px">350</text></g><line x1="0" y1="0" x2="278.4375" y2="0" fill="rgb(0, 0, 0)" stroke="rgb(204, 204, 204)" stroke-width="1px"></line></g></g></g></g></svg>