<svg viewBox="0 0 330 200" xmlns="http://www.w3.org/2000/svg"><g><g><g><g><g><line x1="30.78125" y1="177" x2="25.78125" y2="177" style="visibility: inherit;" fill="rgb(0, 0, 0)" stroke="rgb(204, 204, 204)" stroke-width="1px"></line><line x1="30.78125" y1="162.25" x2="25.78125" y2="162.25" style="visibility: inherit;" fill="rgb(0, 0, 0)" stroke="rgb(204, 204, 204)" stroke-width="1px"></line><line x1="30.78125" y1="147.5" x2="25.78125" y2="147.5" style="visibility: inherit;" fill="rgb(0, 0, 0)" stroke="rgb(204, 204, 204)" stroke-width="1px"></line><line x1="30.78125" y1="132.75" x2="25.78125" y2="132.75" style="visibility: inherit;" fill="rgb(0, 0, 0)" stroke="rgb(204, 204, 204)" stroke-width="1px"></line><line x1="30.78125" y1="118.00000000000001" x2="25.78125" y2="118.00000000000001" style="visibility: inherit;" fill="rgb(0, 0, 0)" stroke="rgb(204, 204, 204)" stroke-width="1px"></line><line x1="30.78125" y1="103.24999999999999" x2="25.78125" y2="103.24999999999999" style="visibility: inherit;" fill="rgb(0, 0, 0)" stroke="rgb(204, 204, 204)" stroke-width="1px"></line><line x1="30.78125" y1="88.5" x2="25.78125" y2="88.5" style="visibility: inherit;" fill="rgb(0, 0, 0)" stroke="rgb(204, 204, 204)" stroke-width="1px"></line><line x1="30.78125" y1="73.75" x2="25.78125" y2="73.75" style="visibility: inherit;" fill="rgb(0, 0, 0)" stroke="rgb(204, 204, 204)" stroke-width="1px"></line><line x1="30.78125" y1="59.00000000000001" x2="25.78125" y2="59.00000000000001" style="visibility: inherit;" fill="rgb(0, 0, 0)" stroke="rgb(204, 204, 204)" stroke-width="1px"></line><line x1="30.78125" y1="44.25" x2="25.78125" y2="44.25" style="visibility: inherit;" fill="rgb(0, 0, 0)" stroke="rgb(204, 204, 204)" stroke-width="1px"></line><line x1="30.78125" y1="29.499999999999993" x2="25.78125" y2="29.499999999999993" style="visibility: inherit;" fill="rgb(0, 0, 0)" stroke="rgb(204, 204, 204)" stroke-width="1px"></line><line x1="30.78125" y1="14.750000000000007" x2="25.78125" y2="14.750000000000007" style="visibility: inherit;" fill="rgb(0, 0, 0)" stroke="rgb(204, 204, 204)" stroke-width="1px"></line><line x1="30.78125" y1="0" x2="25.78125" y2="0" style="visibility: inherit;" fill="rgb(0, 0, 0)" stroke="rgb(204, 204, 204)" stroke-width="1px"></line></g><g transform="translate(20.78125, 0)"><text x="0" y="177" dx="0em" dy="0.3em" style="text-anchor: end; visibility: hidden; font-family: Roboto, sans-serif; font-size: 12px; font-weight: 200;" fill="rgb(33, 33, 33)" stroke="none" stroke-width="1px">-2</text><text x="0" y="162.25" dx="0em" dy="0.3em" style="text-anchor: end; visibility: inherit; font-family: Roboto, sans-serif; font-size: 12px; font-weight: 200;" fill="rgb(33, 33, 33)" stroke="none" stroke-width="1px">0</text><text x="0" y="147.5" dx="0em" dy="0.3em" style="text-anchor: end; visibility: hidden; font-family: Roboto, sans-serif; font-size: 12px; font-weight: 200;" fill="rgb(33, 33, 33)" stroke="none" stroke-width="1px">2</text><text x="0" y="132.75" dx="0em" dy="0.3em" style="text-anchor: end; visibility: inherit; font-family: Roboto, sans-serif; font-size: 12px; font-weight: 200;" fill="rgb(33, 33, 33)" stroke="none" stroke-width="1px">4</text><text x="0" y="118.00000000000001" dx="0em" dy="0.3em" style="text-anchor: end; visibility: hidden; font-family: Roboto, sans-serif; font-size: 12px; font-weight: 200;" fill="rgb(33, 33, 33)" stroke="none" stroke-width="1px">6</text><text x="0" y="103.24999999999999" dx="0em" dy="0.3em" style="text-anchor: end; visibility: inherit; font-family: Roboto, sans-serif; font-size: 12px; font-weight: 200;" fill="rgb(33, 33, 33)" stroke="none" stroke-width="1px">8</text><text x="0" y="88.5" dx="0em" dy="0.3em" style="text-anchor: end; visibility: hidden; font-family: Roboto, sans-serif; font-size: 12px; font-weight: 200;" fill="rgb(33, 33, 33)" stroke="none" stroke-width="1px">10</text><text x="0" y="73.75" dx="0em" dy="0.3em" style="text-anchor: end; visibility: inherit; font-family: Roboto, sans-serif; font-size: 12px; font-weight: 200;" fill="rgb(33, 33, 33)" stroke="none" stroke-width="1px">12</text><text x="0" y="59.00000000000001" dx="0em" dy="0.3em" style="text-anchor: end; visibility: hidden; font-family: Roboto, sans-serif; font-size: 12px; font-weight: 200;" fill="rgb(33, 33, 33)" stroke="none" stroke-width="1px">14</text><text x="0" y="44.25" dx="0em" dy="0.3em" style="text-anchor: end; visibility: inherit; font-family: Roboto, sans-serif; font-size: 12px; font-weight: 200;" fill="rgb(33, 33, 33)" stroke="none" stroke-width="1px">16</text><text x="0" y="29.499999999999993" dx="0em" dy="0.3em" style="text-anchor: end; visibility: hidden; font-family: Roboto, sans-serif; font-size: 12px; font-weight: 200;" fill="rgb(33, 33, 33)" stroke="none" stroke-width="1px">18</text><text x="0" y="14.750000000000007" dx="0em" dy="0.3em" style="text-anchor: end; visibility: inherit; font-family: Roboto, sans-serif; font-size: 12px; font-weight: 200;" fill="rgb(33, 33, 33)" stroke="none" stroke-width="1px">20</text><text x="0" y="0" dx="0em" dy="0.3em" style="text-anchor: end; visibility: hidden; font-family: Roboto, sans-serif; font-size: 12px; font-weight: 200;" fill="rgb(33, 33, 33)" stroke="none" stroke-width="1px">22</text></g><line x1="30.78125" y1="0" x2="30.78125" y2="177" fill="rgb(0, 0, 0)" stroke="rgb(204, 204, 204)" stroke-width="1px"></line></g></g><g transform="translate(30, 0)" clip-path="url(#clip_0)"><clipPath id="clip_0"><rect width="299" height="177"></rect></clipPath><g><g><g><line x1="0" y1="0" x2="0" y2="177" fill="rgb(0, 0, 0)" stroke="rgb(66, 66, 66)" stroke-width="1px" opacity="0.25"></line><line x1="37.40234375" y1="0" x2="37.40234375" y2="177" fill="rgb(0, 0, 0)" stroke="rgb(66, 66, 66)" stroke-width="1px" opacity="0.25"></line><line x1="74.8046875" y1="0" x2="74.8046875" y2="177" fill="rgb(0, 0, 0)" stroke="rgb(66, 66, 66)" stroke-width="1px" opacity="0.25"></line><line x1="112.20703125" y1="0" x2="112.20703125" y2="177" fill="rgb(0, 0, 0)" stroke="rgb(66, 66, 66)" stroke-width="1px" opacity="0.25"></line><line x1="149.609375" y1="0" x2="149.609375" y2="177" fill="rgb(0, 0, 0)" stroke="rgb(66, 66, 66)" stroke-width="1px" opacity="0.25"></line><line x1="187.01171875" y1="0" x2="187.01171875" y2="177" fill="rgb(0, 0, 0)" stroke="rgb(66, 66, 66)" stroke-width="1px" opacity="0.25"></line><line x1="224.4140625" y1="0" x2="224.4140625" y2="177" fill="rgb(0, 0, 0)" stroke="rgb(66, 66, 66)" stroke-width="1px" opacity="0.25"></line><line x1="261.81640625" y1="0" x2="261.81640625" y2="177" fill="rgb(0, 0, 0)" stroke="rgb(66, 66, 66)" stroke-width="1px" opacity="0.25"></line><line x1="299.21875" y1="0" x2="299.21875" y2="177" fill="rgb(0, 0, 0)" stroke="rgb(66, 66, 66)" stroke-width="1px" opacity="0.25"></line></g><g><line x1="0" y1="177" x2="299.21875" y2="177" fill="rgb(0, 0, 0)" stroke="rgb(66, 66, 66)" stroke-width="1px" opacity="0.25"></line><line x1="0" y1="162.25" x2="299.21875" y2="162.25" fill="rgb(0, 0, 0)" stroke="rgb(66, 66, 66)" stroke-width="1px" opacity="0.25"></line><line x1="0" y1="147.5" x2="299.21875" y2="147.5" fill="rgb(0, 0, 0)" stroke="rgb(66, 66, 66)" stroke-width="1px" opacity="0.25"></line><line x1="0" y1="132.75" x2="299.21875" y2="132.75" fill="rgb(0, 0, 0)" stroke="rgb(66, 66, 66)" stroke-width="1px" opacity="0.25"></line><line x1="0" y1="118.00000000000001" x2="299.21875" y2="118.00000000000001" fill="rgb(0, 0, 0)" stroke="rgb(66, 66, 66)" stroke-width="1px" opacity="0.25"></line><line x1="0" y1="103.24999999999999" x2="299.21875" y2="103.24999999999999" fill="rgb(0, 0, 0)" stroke="rgb(66, 66, 66)" stroke-width="1px" opacity="0.25"></line><line x1="0" y1="88.5" x2="299.21875" y2="88.5" fill="rgb(0, 0, 0)" stroke="rgb(66, 66, 66)" stroke-width="1px" opacity="0.25"></line><line x1="0" y1="73.75" x2="299.21875" y2="73.75" fill="rgb(0, 0, 0)" stroke="rgb(66, 66, 66)" stroke-width="1px" opacity="0.25"></line><line x1="0" y1="59.00000000000001" x2="299.21875" y2="59.00000000000001" fill="rgb(0, 0, 0)" stroke="rgb(66, 66, 66)" stroke-width="1px" opacity="0.25"></line><line x1="0" y1="44.25" x2="299.21875" y2="44.25" fill="rgb(0, 0, 0)" stroke="rgb(66, 66, 66)" stroke-width="1px" opacity="0.25"></line><line x1="0" y1="29.499999999999993" x2="299.21875" y2="29.499999999999993" fill="rgb(0, 0, 0)" stroke="rgb(66, 66, 66)" stroke-width="1px" opacity="0.25"></line><line x1="0" y1="14.750000000000007" x2="299.21875" y2="14.750000000000007" fill="rgb(0, 0, 0)" stroke="rgb(66, 66, 66)" stroke-width="1px" opacity="0.25"></line><line x1="0" y1="0" x2="299.21875" y2="0" fill="rgb(0, 0, 0)" stroke="rgb(66, 66, 66)" stroke-width="1px" opacity="0.25"></line></g></g></g><g><g><line x1="0" y1="162.25" x2="299.21875" y2="162.25" fill="rgb(0, 0, 0)" stroke="rgb(153, 153, 153)" stroke-width="1.5px"></line></g></g><g><g><line x1="37.40234375" y1="0" x2="37.40234375" y2="177" fill="rgb(0, 0, 0)" stroke="rgb(153, 153, 153)" stroke-width="1.5px"></line></g></g><g><g><g><g><g><path stroke="rgb(255, 112, 67)" stroke-width="2px" d="M47.875,-21.796261310577393L48.623046875,12.804688453674316L49.37109375,38.48043203353881L50.119140625,59.973338007926934L50.86718750000001,78.4766138792038L51.61523437499999,93.44743990898134L52.36328125,105.78943604230882L53.111328125,116.0730771422386L53.859375,124.4239612221718L54.607421875,131.05032110214233L55.35546875,136.272566229105L56.103515625,140.44147077202797L56.8515625,143.82262977957726L57.599609375,146.60686150193214L58.34765625,148.9426364004612L59.095703125,150.9039294719696L59.84375,152.58258129656315L60.59179687500001,154.03999124467373L61.33984374999999,155.27849834412336L62.087890625,156.30142848938704L62.8359375,157.13408766686916L63.583984375,157.80939941853285L64.33203125,158.35937207192183L65.080078125,158.81392658874393L65.828125,159.19863622263074L66.576171875,159.53138216212392L67.32421875,159.82097543403506L68.072265625,160.06999815627933L68.8203125,160.28025921806693L69.568359375,160.45632513053715L70.31640625,160.60498736053705L71.064453125,160.73301078006625L71.8125,160.8457379862666L72.560546875,160.94677719660103L73.30859375,161.0380925834179L74.056640625,161.12031538970768L74.8046875,161.19349957443774L75.552734375,161.25803175196052L76.30078125,161.31499967351556L77.048828125,161.36585753876716L77.796875,161.41193959582597L78.544921875,161.45426991116256L79.29296875,161.4935964923352L80.041015625,161.53046491835266L80.7890625,161.56525740772486L81.537109375,161.59820644557476L82.28515625,161.6294136857614L83.03320312500001,161.6588686881587L83.78125000000001,161.6864998554811L84.52929687499999,161.71223564539105L85.27734374999999,161.73606759589165L86.025390625,161.75805829279125L86.7734375,161.77832037955523L87.521484375,161.79698158288375L88.26953125,161.81414825469255L89.017578125,161.8299124329351L89.765625,161.8443742878735L90.513671875,161.85766341444105L91.26171875,161.86994798108935L92.009765625,161.88143588369712L92.7578125,161.8923502662219L93.505859375,161.90291921794415L94.25390625,161.91336099244654L95.001953125,161.92387213883922L95.75,161.93461983650923L96.498046875,161.94572181161493L97.24609375,161.9572529308498L97.994140625,161.9692279752344L98.7421875,161.98159859050065L99.490234375,161.9942451273091L100.23828125,162.00698309764266L100.986328125,162.01957888994366L101.73437500000001,162.0317677645944L102.48242187500001,162.04329591663554L103.23046874999999,162.05395681015216L103.97851562499999,162.0636249438394L104.7265625,162.07226725271903L105.474609375,162.07993827271275L106.22265625,162.0867477899883L106.970703125,162.09282825677656L107.71875,162.0983101609163L108.466796875,162.10330345341936L109.21484375,162.10789372958243L109.962890625,162.11214336915873L110.7109375,162.11609613825567L111.458984375,162.1197839891538L112.20703125,162.1232315248344L112.955078125,162.12645870517008L113.703125,162.1294846246019L114.451171875,162.1323251631111L115.19921875,162.1349958984647L115.947265625,162.13751102099195L116.6953125,162.1398833267158L117.443359375,162.14212522702292L118.19140625,162.14424730627798L118.939453125,162.14625981228892L119.6875,162.14817103534006L120.43554687500001,162.14999000064563L121.18359375000001,162.1517230134923L121.93164062499999,162.15337699046358L122.67968749999999,162.15495722717606L123.427734375,162.15646861400455L124.17578125,162.1579172021011L124.923828125,162.15930450253654L125.671875,162.1606373838149L126.419921875,162.1619155505905L127.16796875,162.16314486169722L127.916015625,162.16432461654767L128.6640625,162.1654598840978L129.412109375,162.166548761772L130.16015625,162.1675948005868L130.908203125,162.1685973755084L131.65625,162.16955651401076L132.404296875,162.1704728892073L133.15234375,162.17134260665625L133.900390625,162.17216576938517L134.6484375,162.17293979483657L135.396484375,162.17366179137025L136.14453125,162.17432526138145L136.892578125,162.1749293669127L137.640625,162.17546558415052L138.388671875,162.17593068489805L139.13671875,162.17631587060168L139.884765625,162.17661190312356L140.6328125,162.17681378906127L141.380859375,162.17691038083285L142.12890625,162.17689420550596L142.876953125,162.176754747401L143.625,162.17647723923437L144.373046875,162.17605593206827L145.12109375,162.17547876480967L145.869140625,162.1747375158593L146.6171875,162.17381612665486L147.365234375,162.17271031811833L148.11328125,162.1714146710001L148.861328125,162.1699269049568L149.609375,162.16824938275386L150.35742187499997,162.16638386959676L151.10546875,162.16434487176593L151.85351562499997,162.16215011687018L152.6015625,162.15982507332228L153.349609375,162.15740535431542L154.09765625,162.1549345542444L154.845703125,162.15245497622527L155.59375,162.1500142327277L156.341796875,162.14766019035596L157.08984375,162.14544105227105L157.837890625,162.14339430676773L158.5859375,162.14155609591398L159.333984375,162.13994367339183L160.08203125,162.13856533635408L160.830078125,162.137425844674L161.578125,162.13652086432558L162.326171875,162.1358272965299L163.07421875,162.13532664440572L163.822265625,162.1349991610041L164.5703125,162.13481786684133L165.318359375,162.13476331718266L166.06640625000003,162.13481461803894L166.814453125,162.1349420150509L167.56250000000003,162.13513467658777L168.310546875,162.13538219686598L169.05859374999997,162.13567338709254L169.806640625,162.1359961037524L170.55468749999997,162.1363445223542L171.302734375,162.136711925501L172.05078125,162.13709079218097L172.798828125,162.1374756138539L173.546875,162.1378686777316L174.294921875,162.13826369913295L175.04296875,162.13865933183115L175.791015625,162.13905422959942L176.5390625,162.1394492853433L177.287109375,162.13983972545248L178.03515625,162.1402295611333L178.783203125,162.14061526884325L179.53125,162.14099483611062L180.279296875,162.14136726013385L181.02734375,162.1417323142523L181.775390625,162.14209466218017L182.5234375,162.14244930364657L183.271484375,162.1427921175491L184.01953125,162.14312879787758L184.76757812500003,162.14345878141467L185.515625,162.1437790185446L186.26367187500003,162.14409098599572L187.01171875,162.1443927399814L187.75976562499997,162.14468766667414L188.5078125,162.1449750517495L189.25585937499997,162.14525159832556L190.00390625,162.1455177803291L190.751953125,162.14577670919243L191.5,162.14602454542182L192.248046875,162.14626534830313L192.99609375,162.1464988568332L193.744140625,162.14672548999079L194.4921875,162.146942878142L195.240234375,162.14715392666403L195.98828125,162.14735834707972L196.736328125,162.14755600888748L197.484375,162.14774323743768L198.232421875,162.14792734768707L198.98046875,162.1481051251758L199.728515625,162.14827713312116L200.4765625,162.14844420948066L201.224609375,162.14860535832122L201.97265625,162.14876148628537L202.720703125,162.14891527895816L203.46875000000003,162.14906320592854L204.216796875,162.14920802146662L204.96484375000003,162.14935001404956L205.712890625,162.14948739786632L206.46093749999997,162.14962022099644L207.208984375,162.14975237788167L207.95703124999997,162.14988129283302L208.705078125,162.15000566770323L209.453125,162.1501287581632L210.201171875,162.15025134035386L210.94921875,162.15037030284293L211.697265625,162.15048837929498L212.4453125,162.15060418914072L213.193359375,162.15071829559747L213.94140625,162.1508316602558L214.689453125,162.1509441251401L215.4375,162.15105536743067L216.185546875,162.1511642538244L216.93359375,162.1512717321748L217.681640625,162.1513798905071L218.4296875,162.15148649655748L219.177734375,162.15159444196615L219.92578125,162.1517042143969L220.673828125,162.15180969401263L221.421875,162.15191682893783L222.16992187500003,162.15202421112917L222.91796875,162.1521302058827L223.66601562500003,162.15223254659213L224.4140625,162.15233865811024L225.16210937499997,162.15244596474804L225.91015625,162.1525497341063L226.65820312499997,162.1526539567858L227.40625,162.15275999961887L228.154296875,162.15286314394325L228.90234375,162.1529679435771L229.650390625,162.1530759301968L230.3984375,162.1531817188952L231.146484375,162.1532909143716L231.89453125,162.15340057003777L232.642578125,162.15350745769683L233.390625,162.1536160968244L234.138671875,162.15372593107168L234.88671875,162.15383595076855L235.634765625,162.15394604601897L236.3828125,162.1540590741206L237.130859375,162.15417306381278L237.87890625,162.15428600949235L238.626953125,162.15440007473808L239.375,162.15451404382475L240.123046875,162.15462755272165L240.87109375000003,162.15474348620046L241.619140625,162.1548615489155L242.36718750000003,162.15497930254787L243.115234375,162.15509678830858L243.86328124999997,162.15521313389763L244.611328125,162.15533307171427L245.35937499999997,162.1554540398065L246.107421875,162.15557673876174L246.85546875,162.15570184856188L247.603515625,162.15582578384783L248.3515625,162.15595175907947L249.099609375,162.15607969870325L249.84765625,162.1562069102656L250.595703125,162.15633599006105L251.34375,162.15646433492657L252.091796875,162.1565973503748L252.83984375,162.15673195244744L253.587890625,162.15686956979334L254.3359375,162.15700807317626L255.083984375,162.1571492209332L255.83203125,162.15729194157757L256.580078125,162.15743818576448L257.328125,162.15758570062462L258.076171875,162.1577373984037L258.82421875,162.15788908244576L259.572265625,162.15804681077134L260.3203125,162.15820772608276L261.068359375,162.15837044094224" style="fill: none;" fill="none"></path></g></g></g></g></g><g><g><circle r="4" cx="133.900390625" cy="162.17216576938517" fill="rgb(255, 112, 67)" style="stroke: none;" stroke="none" stroke-width="1px"></circle></g></g></g><g transform="translate(30, 177)" clip-path="url(#clip_1)"><clipPath id="clip_1"><rect width="299" height="23"></rect></clipPath><g><g><line x1="0" y1="0" x2="0" y2="5" style="visibility: inherit;" fill="rgb(0, 0, 0)" stroke="rgb(204, 204, 204)" stroke-width="1px"></line><line x1="37.40234375" y1="0" x2="37.40234375" y2="5" style="visibility: inherit;" fill="rgb(0, 0, 0)" stroke="rgb(204, 204, 204)" stroke-width="1px"></line><line x1="74.8046875" y1="0" x2="74.8046875" y2="5" style="visibility: inherit;" fill="rgb(0, 0, 0)" stroke="rgb(204, 204, 204)" stroke-width="1px"></line><line x1="112.20703125" y1="0" x2="112.20703125" y2="5" style="visibility: inherit;" fill="rgb(0, 0, 0)" stroke="rgb(204, 204, 204)" stroke-width="1px"></line><line x1="149.609375" y1="0" x2="149.609375" y2="5" style="visibility: inherit;" fill="rgb(0, 0, 0)" stroke="rgb(204, 204, 204)" stroke-width="1px"></line><line x1="187.01171875" y1="0" x2="187.01171875" y2="5" style="visibility: inherit;" fill="rgb(0, 0, 0)" stroke="rgb(204, 204, 204)" stroke-width="1px"></line><line x1="224.4140625" y1="0" x2="224.4140625" y2="5" style="visibility: inherit;" fill="rgb(0, 0, 0)" stroke="rgb(204, 204, 204)" stroke-width="1px"></line><line x1="261.81640625" y1="0" x2="261.81640625" y2="5" style="visibility: inherit;" fill="rgb(0, 0, 0)" stroke="rgb(204, 204, 204)" stroke-width="1px"></line><line x1="299.21875" y1="0" x2="299.21875" y2="5" style="visibility: inherit;" fill="rgb(0, 0, 0)" stroke="rgb(204, 204, 204)" stroke-width="1px"></line></g><g transform="translate(0, 8)"><text x="0" y="0" dx="0em" dy="0.95em" style="text-anchor: middle; visibility: hidden; font-family: Roboto, sans-serif; font-size: 12px; font-weight: 200;" fill="rgb(33, 33, 33)" stroke="none" stroke-width="1px">-50</text><text x="37.40234375" y="0" dx="0em" dy="0.95em" style="text-anchor: middle; visibility: inherit; font-family: Roboto, sans-serif; font-size: 12px; font-weight: 200;" fill="rgb(33, 33, 33)" stroke="none" stroke-width="1px">0</text><text x="74.8046875" y="0" dx="0em" dy="0.95em" style="text-anchor: middle; visibility: inherit; font-family: Roboto, sans-serif; font-size: 12px; font-weight: 200;" fill="rgb(33, 33, 33)" stroke="none" stroke-width="1px">50</text><text x="112.20703125" y="0" dx="0em" dy="0.95em" style="text-anchor: middle; visibility: inherit; font-family: Roboto, sans-serif; font-size: 12px; font-weight: 200;" fill="rgb(33, 33, 33)" stroke="none" stroke-width="1px">100</text><text x="149.609375" y="0" dx="0em" dy="0.95em" style="text-anchor: middle; visibility: inherit; font-family: Roboto, sans-serif; font-size: 12px; font-weight: 200;" fill="rgb(33, 33, 33)" stroke="none" stroke-width="1px">150</text><text x="187.01171875" y="0" dx="0em" dy="0.95em" style="text-anchor: middle; visibility: inherit; font-family: Roboto, sans-serif; font-size: 12px; font-weight: 200;" fill="rgb(33, 33, 33)" stroke="none" stroke-width="1px">200</text><text x="224.4140625" y="0" dx="0em" dy="0.95em" style="text-anchor: middle; visibility: inherit; font-family: Roboto, sans-serif; font-size: 12px; font-weight: 200;" fill="rgb(33, 33, 33)" stroke="none" stroke-width="1px">250</text><text x="261.81640625" y="0" dx="0em" dy="0.95em" style="text-anchor: middle; visibility: inherit; font-family: Roboto, sans-serif; font-size: 12px; font-weight: 200;" fill="rgb(33, 33, 33)" stroke="none" stroke-width="1px">300</text><text x="299.21875" y="0" dx="0em" dy="0.95em" style="text-anchor: middle; visibility: hidden; font-family: Roboto, sans-serif; font-size: 12px; font-weight: 200;" fill="rgb(33, 33, 33)" stroke="none" stroke-width="1px">350</text></g><line x1="0" y1="0" x2="299.21875" y2="0" fill="rgb(0, 0, 0)" stroke="rgb(204, 204, 204)" stroke-width="1px"></line></g></g></g></g></svg>