<svg viewBox="0 0 328 200" xmlns="http://www.w3.org/2000/svg"><g><g><g><g><g><line x1="60" y1="177" x2="55" y2="177" style="visibility: inherit;" fill="rgb(0, 0, 0)" stroke="rgb(204, 204, 204)" stroke-width="1px"></line><line x1="60" y1="157.33333333333331" x2="55" y2="157.33333333333331" style="visibility: inherit;" fill="rgb(0, 0, 0)" stroke="rgb(204, 204, 204)" stroke-width="1px"></line><line x1="60" y1="137.66666666666666" x2="55" y2="137.66666666666666" style="visibility: inherit;" fill="rgb(0, 0, 0)" stroke="rgb(204, 204, 204)" stroke-width="1px"></line><line x1="60" y1="118.00000000000001" x2="55" y2="118.00000000000001" style="visibility: inherit;" fill="rgb(0, 0, 0)" stroke="rgb(204, 204, 204)" stroke-width="1px"></line><line x1="60" y1="98.33333333333334" x2="55" y2="98.33333333333334" style="visibility: inherit;" fill="rgb(0, 0, 0)" stroke="rgb(204, 204, 204)" stroke-width="1px"></line><line x1="60" y1="78.66666666666666" x2="55" y2="78.66666666666666" style="visibility: inherit;" fill="rgb(0, 0, 0)" stroke="rgb(204, 204, 204)" stroke-width="1px"></line><line x1="60" y1="58.999999999999986" x2="55" y2="58.999999999999986" style="visibility: inherit;" fill="rgb(0, 0, 0)" stroke="rgb(204, 204, 204)" stroke-width="1px"></line><line x1="60" y1="39.33333333333335" x2="55" y2="39.33333333333335" style="visibility: inherit;" fill="rgb(0, 0, 0)" stroke="rgb(204, 204, 204)" stroke-width="1px"></line><line x1="60" y1="19.666666666666657" x2="55" y2="19.666666666666657" style="visibility: inherit;" fill="rgb(0, 0, 0)" stroke="rgb(204, 204, 204)" stroke-width="1px"></line><line x1="60" y1="0" x2="55" y2="0" style="visibility: inherit;" fill="rgb(0, 0, 0)" stroke="rgb(204, 204, 204)" stroke-width="1px"></line></g><g transform="translate(50, 0)"><text x="0" y="177" dx="0em" dy="0.3em" style="text-anchor: end; visibility: hidden; font-family: Roboto, sans-serif; font-size: 12px; font-weight: 200;" fill="rgb(33, 33, 33)" stroke="none" stroke-width="1px">-5e-3</text><text x="0" y="157.33333333333331" dx="0em" dy="0.3em" style="text-anchor: end; visibility: inherit; font-family: Roboto, sans-serif; font-size: 12px; font-weight: 200;" fill="rgb(33, 33, 33)" stroke="none" stroke-width="1px">0</text><text x="0" y="137.66666666666666" dx="0em" dy="0.3em" style="text-anchor: end; visibility: hidden; font-family: Roboto, sans-serif; font-size: 12px; font-weight: 200;" fill="rgb(33, 33, 33)" stroke="none" stroke-width="1px">5e-3</text><text x="0" y="118.00000000000001" dx="0em" dy="0.3em" style="text-anchor: end; visibility: inherit; font-family: Roboto, sans-serif; font-size: 12px; font-weight: 200;" fill="rgb(33, 33, 33)" stroke="none" stroke-width="1px">0.01</text><text x="0" y="98.33333333333334" dx="0em" dy="0.3em" style="text-anchor: end; visibility: hidden; font-family: Roboto, sans-serif; font-size: 12px; font-weight: 200;" fill="rgb(33, 33, 33)" stroke="none" stroke-width="1px">0.015</text><text x="0" y="78.66666666666666" dx="0em" dy="0.3em" style="text-anchor: end; visibility: inherit; font-family: Roboto, sans-serif; font-size: 12px; font-weight: 200;" fill="rgb(33, 33, 33)" stroke="none" stroke-width="1px">0.02</text><text x="0" y="58.999999999999986" dx="0em" dy="0.3em" style="text-anchor: end; visibility: hidden; font-family: Roboto, sans-serif; font-size: 12px; font-weight: 200;" fill="rgb(33, 33, 33)" stroke="none" stroke-width="1px">0.025</text><text x="0" y="39.33333333333335" dx="0em" dy="0.3em" style="text-anchor: end; visibility: inherit; font-family: Roboto, sans-serif; font-size: 12px; font-weight: 200;" fill="rgb(33, 33, 33)" stroke="none" stroke-width="1px">0.03</text><text x="0" y="19.666666666666657" dx="0em" dy="0.3em" style="text-anchor: end; visibility: hidden; font-family: Roboto, sans-serif; font-size: 12px; font-weight: 200;" fill="rgb(33, 33, 33)" stroke="none" stroke-width="1px">0.035</text><text x="0" y="0" dx="0em" dy="0.3em" style="text-anchor: end; visibility: hidden; font-family: Roboto, sans-serif; font-size: 12px; font-weight: 200;" fill="rgb(33, 33, 33)" stroke="none" stroke-width="1px">0.04</text></g><line x1="60" y1="0" x2="60" y2="177" fill="rgb(0, 0, 0)" stroke="rgb(204, 204, 204)" stroke-width="1px"></line></g></g><g transform="translate(60, 0)" clip-path="url(#clip_0)"><clipPath id="clip_0"><rect width="268" height="177"></rect></clipPath><g><g><g><line x1="0" y1="0" x2="0" y2="177" fill="rgb(0, 0, 0)" stroke="rgb(66, 66, 66)" stroke-width="1px" opacity="0.25"></line><line x1="22.333333333333332" y1="0" x2="22.333333333333332" y2="177" fill="rgb(0, 0, 0)" stroke="rgb(66, 66, 66)" stroke-width="1px" opacity="0.25"></line><line x1="44.666666666666664" y1="0" x2="44.666666666666664" y2="177" fill="rgb(0, 0, 0)" stroke="rgb(66, 66, 66)" stroke-width="1px" opacity="0.25"></line><line x1="67" y1="0" x2="67" y2="177" fill="rgb(0, 0, 0)" stroke="rgb(66, 66, 66)" stroke-width="1px" opacity="0.25"></line><line x1="89.33333333333333" y1="0" x2="89.33333333333333" y2="177" fill="rgb(0, 0, 0)" stroke="rgb(66, 66, 66)" stroke-width="1px" opacity="0.25"></line><line x1="111.66666666666667" y1="0" x2="111.66666666666667" y2="177" fill="rgb(0, 0, 0)" stroke="rgb(66, 66, 66)" stroke-width="1px" opacity="0.25"></line><line x1="134" y1="0" x2="134" y2="177" fill="rgb(0, 0, 0)" stroke="rgb(66, 66, 66)" stroke-width="1px" opacity="0.25"></line><line x1="156.33333333333334" y1="0" x2="156.33333333333334" y2="177" fill="rgb(0, 0, 0)" stroke="rgb(66, 66, 66)" stroke-width="1px" opacity="0.25"></line><line x1="178.66666666666666" y1="0" x2="178.66666666666666" y2="177" fill="rgb(0, 0, 0)" stroke="rgb(66, 66, 66)" stroke-width="1px" opacity="0.25"></line><line x1="201" y1="0" x2="201" y2="177" fill="rgb(0, 0, 0)" stroke="rgb(66, 66, 66)" stroke-width="1px" opacity="0.25"></line><line x1="223.33333333333334" y1="0" x2="223.33333333333334" y2="177" fill="rgb(0, 0, 0)" stroke="rgb(66, 66, 66)" stroke-width="1px" opacity="0.25"></line><line x1="245.66666666666666" y1="0" x2="245.66666666666666" y2="177" fill="rgb(0, 0, 0)" stroke="rgb(66, 66, 66)" stroke-width="1px" opacity="0.25"></line><line x1="268" y1="0" x2="268" y2="177" fill="rgb(0, 0, 0)" stroke="rgb(66, 66, 66)" stroke-width="1px" opacity="0.25"></line></g><g><line x1="0" y1="177" x2="268" y2="177" fill="rgb(0, 0, 0)" stroke="rgb(66, 66, 66)" stroke-width="1px" opacity="0.25"></line><line x1="0" y1="157.33333333333331" x2="268" y2="157.33333333333331" fill="rgb(0, 0, 0)" stroke="rgb(66, 66, 66)" stroke-width="1px" opacity="0.25"></line><line x1="0" y1="137.66666666666666" x2="268" y2="137.66666666666666" fill="rgb(0, 0, 0)" stroke="rgb(66, 66, 66)" stroke-width="1px" opacity="0.25"></line><line x1="0" y1="118.00000000000001" x2="268" y2="118.00000000000001" fill="rgb(0, 0, 0)" stroke="rgb(66, 66, 66)" stroke-width="1px" opacity="0.25"></line><line x1="0" y1="98.33333333333334" x2="268" y2="98.33333333333334" fill="rgb(0, 0, 0)" stroke="rgb(66, 66, 66)" stroke-width="1px" opacity="0.25"></line><line x1="0" y1="78.66666666666666" x2="268" y2="78.66666666666666" fill="rgb(0, 0, 0)" stroke="rgb(66, 66, 66)" stroke-width="1px" opacity="0.25"></line><line x1="0" y1="58.999999999999986" x2="268" y2="58.999999999999986" fill="rgb(0, 0, 0)" stroke="rgb(66, 66, 66)" stroke-width="1px" opacity="0.25"></line><line x1="0" y1="39.33333333333335" x2="268" y2="39.33333333333335" fill="rgb(0, 0, 0)" stroke="rgb(66, 66, 66)" stroke-width="1px" opacity="0.25"></line><line x1="0" y1="19.666666666666657" x2="268" y2="19.666666666666657" fill="rgb(0, 0, 0)" stroke="rgb(66, 66, 66)" stroke-width="1px" opacity="0.25"></line><line x1="0" y1="0" x2="268" y2="0" fill="rgb(0, 0, 0)" stroke="rgb(66, 66, 66)" stroke-width="1px" opacity="0.25"></line></g></g></g><g><g><line x1="0" y1="157.33333333333331" x2="268" y2="157.33333333333331" fill="rgb(0, 0, 0)" stroke="rgb(153, 153, 153)" stroke-width="1.5px"></line></g></g><g><g><line x1="22.333333333333332" y1="0" x2="22.333333333333332" y2="177" fill="rgb(0, 0, 0)" stroke="rgb(153, 153, 153)" stroke-width="1.5px"></line></g></g><g><g><g><g><g><path stroke="rgb(0, 119, 187)" stroke-width="2px" d="M22.78,-6.851503213246642L23.226666666666667,0.5252187848091256L23.673333333333332,-7.135152280330645L24.119999999999997,9.16850024461747L24.566666666666666,8.868821005026502L25.013333333333335,4.907756586869556L25.46,8.957543760538101L25.906666666666666,9.261926551659913L26.35333333333333,9.988354186216986L26.8,12.004902998606372L27.246666666666666,12.575805723667145L27.69333333333333,13.940685530503588L28.14,14.707349777221692L28.58666666666667,15.59428427616756L29.033333333333335,16.26825485626856L29.48,16.9460644721985L29.926666666666666,17.531180421511333L30.37333333333333,18.093760351339977L30.82,18.620909790198002L31.266666666666666,19.138637473185863L31.713333333333335,19.678945134083424L32.16,20.257980167865767L32.60666666666667,20.89540664354961L33.053333333333335,21.611313561598454L33.5,22.42554082473119L33.94666666666667,23.3610054254532L34.39333333333333,24.430865585803986L34.84,25.63721665740014L35.28666666666666,26.966372917095814L35.733333333333334,28.389819999535884L36.18,29.868640045324963L36.626666666666665,31.362728317578632L37.07333333333333,32.84002447128296L37.52,34.276336719592415L37.96666666666667,35.65321717659633L38.413333333333334,37.01890288790068L38.86,38.484637975692756L39.306666666666665,39.84654326240223L39.75333333333334,41.1511121094227L40.199999999999996,42.466047818462066L40.64666666666667,43.744248936573676L41.093333333333334,45.03983561197917L41.54,46.36382675667604L41.98666666666667,47.69659493366878L42.43333333333333,49.106942405303315L42.88,50.61806456744671L43.32666666666666,52.210744261741645L43.77333333333333,53.85941233734291L44.22,55.542353332042694L44.666666666666664,57.24779371420541L45.11333333333334,58.965220093727105L45.56,60.698984354734414L46.00666666666667,62.46663323541482L46.45333333333333,64.2621151258548L46.9,66.06510658065476L47.346666666666664,67.89805570244789L47.79333333333334,69.77063334484893L48.239999999999995,71.66162956754364L48.68666666666667,73.5837556819121L49.13333333333333,75.53422032793362L49.58,77.50698654850324L50.02666666666667,79.49454477926095L50.47333333333333,81.50605302552383L50.92,83.51998631159465L51.36666666666667,85.5595180541277L51.81333333333333,87.56605167190234L52.260000000000005,89.64811319112778L52.70666666666666,91.57508938511214L53.153333333333336,93.70568100611368L53.6,95.51164698104063L54.04666666666667,97.67563601583241L54.49333333333333,99.41777435690163L54.94,101.61058546602726L55.38666666666666,103.40763154377541L55.833333333333336,105.4053221916159L56.28,107.28722268342972L56.72666666666667,109.17734706401825L57.17333333333334,110.8177363028129L57.62,112.8290174305439L58.06666666666667,114.09714840600886L58.51333333333333,115.98700903604427L58.96,116.72601244350275L59.406666666666666,118.19103320688009L59.85333333333333,119.92695143073796L60.300000000000004,120.83624977866808L60.74666666666666,122.68964689473309L61.193333333333335,123.7763467952609L61.64,125.01250534256299L62.086666666666666,126.1847739815712L62.53333333333333,127.27092806498207L62.98,128.36005300531784L63.42666666666667,129.42971535275382L63.873333333333335,130.36700789133707L64.32,131.44810309261084L64.76666666666667,132.24392825985947L65.21333333333334,133.16939048717418L65.66,134.07075800249973L66.10666666666667,134.6714315712452L66.55333333333333,135.0252053166429L67,136.05711836616197L67.44666666666666,136.14122182379165L67.89333333333335,136.98696361482143L68.34,137.14642280340195L68.78666666666666,137.99653479456902L69.23333333333333,138.19083469857773L69.68,138.9478024492661L70.12666666666667,139.07584418480593L70.57333333333332,139.76810696472722L71.02000000000001,139.8305755505959L71.46666666666667,140.4858857790629L71.91333333333333,140.42762254923582L72.36,141.12576660017172L72.80666666666667,140.90249259894094L73.25333333333333,141.65238670632243L73.7,141.31110997498035L74.14666666666666,142.1038562208414L74.59333333333333,141.8084995597601L75.04,142.51200653860965L75.48666666666666,142.4734495046238L75.93333333333334,142.8228695342938L76.38,142.9780610923966L76.82666666666667,143.17032975082597L77.27333333333333,143.38034570775926L77.72,143.51995858301717L78.16666666666667,143.75810243748128L78.61333333333333,143.8838473452876L79.06,144.05627610099813L79.50666666666667,144.26664006213346L79.95333333333333,144.34752905989686L80.39999999999999,144.5056978855282L80.84666666666668,144.66869847476482L81.29333333333334,144.8149389984707L81.74,144.95993678085506L82.18666666666667,145.1507996854683L82.63333333333334,145.12527815625072L83.08,144.3606927767396L83.52666666666666,145.18821013718843L83.97333333333334,145.22445752223334L84.42,145.65280124172568L84.86666666666666,145.62137096747756L85.31333333333333,145.89219241651395L85.76,146.07895802954832L86.20666666666666,146.20218814909458L86.65333333333332,146.33037183371684L87.10000000000001,146.46001530438662L87.54666666666667,146.57723410924277L87.99333333333333,146.70555699554583L88.44,146.82168874517083L88.88666666666667,146.93198043480515L89.33333333333333,147.05093010266623L89.78,147.16521468261877L90.22666666666667,147.27791126444936L90.67333333333333,147.38878723482293L91.12,147.49726563940445L91.56666666666666,147.60174565886456L92.01333333333334,147.7040588942667L92.46,147.80490043821433L92.90666666666667,147.90359168251354L93.35333333333334,147.9995162934065L93.8,148.0936990516881L94.24666666666667,148.18493842706084L94.69333333333333,148.27433979076645L95.14,148.36159818122786L95.58666666666667,148.4472639945646L96.03333333333333,148.53117513408264L96.47999999999999,148.61419611548385L96.92666666666668,148.69112519174814L97.37333333333333,148.5814910468956L97.82,148.49957268933457L98.26666666666667,148.8252826432387L98.71333333333334,148.09877808143696L99.16,148.96042183289924L99.60666666666665,148.84074227201444L100.05333333333334,149.12074736878276L100.5,149.1722932017098L100.94666666666666,149.1526694279164L101.39333333333335,149.44166585430503L101.84,149.2692718990147L102.28666666666666,149.5520143235723L102.73333333333333,149.45326080483696L103.18,149.6366434507072L103.62666666666667,149.55135128398737L104.07333333333332,149.7290321557472L104.52000000000001,149.69348123700667L104.96666666666667,149.7666500362878L105.41333333333333,149.82824357474843L105.86,149.8638929420461L106.30666666666667,149.8908705941091L106.75333333333333,149.88607317302376L107.2,149.7987740294387L107.64666666666666,149.7625266443938L108.09333333333333,149.91111665436375L108.54,150.0410225018859L108.98666666666666,149.77376168531677L109.43333333333334,150.17367941420525L109.88,150.14480971824378L110.32666666666667,150.20238472397128L110.77333333333333,150.40748420575014L111.22,150.22190043330193L111.66666666666667,150.54364863410592L112.11333333333333,150.35624653970203L112.56,150.62560316578796L113.00666666666667,150.54733747864762L113.45333333333333,150.7003338628759L113.89999999999999,150.6885507153347L114.34666666666668,150.77385890856385L114.79333333333334,150.79863131294647L115.24,150.78983825414133L115.68666666666667,150.91893178659183L116.13333333333334,150.7876178957522L116.58,150.87497610847157L117.02666666666666,150.89609446873268L117.47333333333334,151.00923887702325L117.92,150.84755429315072L118.36666666666666,150.72890363416326L118.81333333333333,150.87708153389394L119.26,151.14612907730043L119.70666666666666,151.03684110504884L120.15333333333332,150.95631018529338L120.60000000000001,151.4042401307573L121.04666666666667,151.31475909240544L121.49333333333333,151.50948163835955L121.94,151.53839117164415L122.38666666666667,151.48772633882862L122.83333333333333,151.6002672345688L123.28,151.47715250588953L123.72666666666667,151.66362368905294L124.17333333333333,151.5477648479864L124.62,151.74119016248733L125.06666666666666,151.7056044433266L125.51333333333334,151.83729060708237L125.96,151.80359830552092L126.40666666666667,151.9196499225994L126.85333333333334,151.8270112040142L127.3,151.95266590546817L127.74666666666667,151.7997780436029L128.19333333333333,151.93800164945424L128.64,151.78361599581936L129.08666666666667,151.91833483303586L129.53333333333333,151.82984011185664L129.98,151.92756472869465L130.42666666666668,151.9978244875868L130.87333333333333,152.0043655928845L131.32,152.2447142371287L131.76666666666665,152.10261542132747L132.21333333333334,152.39908249055347L132.66,152.1995872501284L133.10666666666665,152.3888195718949L133.55333333333334,152.3277718505512L134,152.2951945361371L134.4466666666667,152.4155742265284L134.89333333333332,152.21147846213233L135.34,152.43153662979603L135.7866666666667,152.12747894786298L136.23333333333332,152.3889427470664L136.68,151.9752875523021L137.12666666666667,152.331912184755L137.57333333333332,151.81583385852477L138.02,152.38111768942326L138.46666666666667,151.79737727250904L138.91333333333333,152.38227251389375L139.36,151.83285904830942L139.80666666666664,152.30299990406883L140.25333333333333,152.1508648302406L140.70000000000002,152.31925582140684L141.14666666666665,152.46061146507662L141.59333333333333,152.35604764986783L142.04000000000002,152.68770801772675L142.48666666666665,152.58786332265782L142.93333333333334,152.8162387907505L143.38,152.607422990414L143.82666666666665,152.74721261517456L144.27333333333334,152.73123555909842L144.72,152.7497974621753L145.16666666666666,152.89266142932078L145.61333333333334,152.73397700799006L146.06,152.8996769192939L146.50666666666666,152.7902030395344L146.95333333333335,152.92176328071702L147.4,152.90572623970607L147.84666666666666,152.9754772714029L148.29333333333332,152.97965835873038L148.74,152.99782509387782L149.18666666666667,153.01661319968602L149.63333333333333,153.05249884352088L150.08,153.03917531948537L150.52666666666667,153.08309299188355L150.97333333333333,153.05106469988823L151.42,153.07383974331123L151.86666666666667,153.1107080411166L152.31333333333333,153.08822239066166L152.76,153.19443739422908L153.20666666666668,153.08401108191657L153.65333333333334,153.2206393632417L154.1,153.11742818541825L154.54666666666665,153.1544118740906L154.99333333333334,153.15595087688416L155.44,153.04994055473557L155.88666666666666,153.14165843588611L156.33333333333334,153.00231526388475L156.78,153.0928801521659L157.22666666666666,152.98843905422837L157.67333333333335,153.0332478005439L158.12,152.97081080979356L158.56666666666666,153.06248564831913L159.01333333333335,153.05982753727585L159.45999999999998,153.2680618042747L159.90666666666667,153.23128874972463L160.35333333333335,153.46694986894727L160.79999999999998,153.25648654345423L161.24666666666667,153.55293346506855L161.69333333333336,153.3309484530861L162.14,153.54628979011127L162.58666666666667,153.41109519451857L163.03333333333333,153.49772122471282L163.48,153.43260872270912L163.92666666666668,153.48817491997033L164.37333333333333,153.4266244241347L164.82,153.51240539938834L165.26666666666668,153.40559901762754L165.7133333333333,153.49764910542095L166.16,153.346832097508L166.60666666666668,153.38591754840067L167.0533333333333,153.35723055464527L167.5,153.36892486953488L167.9466666666667,153.4659301250552L168.39333333333332,153.36114193871617L168.84,153.59842265117913L169.2866666666667,153.4481251311178L169.73333333333332,153.70026310455674L170.18,153.63838910218328L170.62666666666667,153.71931610566872L171.07333333333332,153.74765715577328L171.52,153.7300456246982L171.96666666666667,153.79259983791658L172.41333333333333,153.78615168637288L172.86,153.8246906332982L173.30666666666664,153.83228033020472L173.75333333333333,153.83239823952317L174.20000000000002,153.8201075095373L174.64666666666665,153.81472718141353L175.09333333333333,153.7685335157439L175.54000000000002,153.83045880294716L175.98666666666665,153.76148459905139L176.43333333333334,153.87771159193167L176.88,153.78797779263306L177.32666666666665,153.92459233695018L177.77333333333334,153.87687958714864L178.22,153.9330289203984L178.66666666666666,153.94051742134616L179.11333333333334,153.91877334037173L179.56,153.95195714368796L180.00666666666666,153.91753014114997L180.45333333333335,153.95137240504846L180.9,153.92764790542424L181.34666666666666,153.9563806892062L181.79333333333332,153.9181098428865L182.24,153.9728115244458L182.68666666666667,153.89910148705044L183.13333333333333,154.01025952398777L183.58,153.89902959670871L184.02666666666667,154.05972305545583L184.47333333333333,153.94518044870347L184.92,154.10812608990818L185.36666666666667,154.0008851607951L185.81333333333333,154.12901321053505L186.26,153.99887795497975L186.70666666666668,154.1160544040613L187.15333333333334,153.95009417645633L187.6,154.08533822527775L188.04666666666665,153.87808134639636L188.49333333333334,154.01823156761628L188.94,153.80048762789616L189.38666666666666,153.9150954854364L189.83333333333334,153.7752037489166L190.28,153.83529239815348L190.72666666666666,153.83810894268873L191.17333333333335,153.85727000826347L191.62,154.00724470863742L192.06666666666666,154.01306965791932L192.51333333333335,154.16836607518294L192.95999999999998,154.12051412370056L193.40666666666667,154.2227476844564L193.85333333333335,154.14006211499992L194.29999999999998,154.2329295547679L194.74666666666667,154.1604249398224L195.19333333333336,154.26163532243422L195.64,154.20375077612698L196.08666666666667,154.2846816717647L196.53333333333333,154.2369137449811L196.98,154.2855564902226L197.42666666666668,154.25591156911105L197.87333333333333,154.2804531917597L198.32,154.28421163714182L198.76666666666668,154.2916051237844L199.2133333333333,154.33768202488622L199.66,154.3292779523569L200.10666666666668,154.40333462025347L200.5533333333333,154.36710646701977L201,154.44822968076915L201.4466666666667,154.3763713920489L201.89333333333332,154.4599388774174L202.34,154.3682386254271L202.7866666666667,154.4575296351686L203.23333333333332,154.37098694282273L203.68,154.45921104494482L204.12666666666667,154.3916375579623L204.57333333333332,154.46126220918572L205.02,154.4166482994333L205.46666666666667,154.4505219295L205.91333333333333,154.4286150649811L206.36,154.42211700230837L206.80666666666664,154.4191704140976L207.25333333333333,154.40911721376082L207.70000000000002,154.4230781349664L208.14666666666665,154.45423366905501L208.59333333333333,154.4434885814165L209.04000000000002,154.49094193071747L209.48666666666665,154.46082514338195L209.93333333333334,154.49798672630763L210.38,154.4921590296241L210.82666666666665,154.5044978391379L211.27333333333334,154.5017032738154L211.72,154.54852288914844L212.16666666666666,154.50406695498774L212.61333333333334,154.51408535490432L213.06,154.5265894664141L213.50666666666666,154.55781872244552L213.95333333333335,154.54346995971477L214.4,154.5090376913237L214.84666666666666,154.50043305847794L215.29333333333332,154.35317508038133L215.74,154.4307269010072L216.18666666666667,154.55039226698378L216.63333333333333,154.70485347416252L217.08,154.59429299707213L217.52666666666667,154.5923956873206L217.97333333333333,154.51506411672258L218.42,154.45645082214227L218.86666666666667,154.53236656511822L219.31333333333333,154.63452594603103L219.76,154.61914965510368L220.20666666666668,154.64929872440794L220.65333333333334,154.69579254370183L221.1,154.65254592414323L221.54666666666665,154.62736896487573L221.99333333333334,154.60460216365755L222.44,154.6486462165291L222.88666666666666,154.5598515706758L223.33333333333334,154.70508059269437L223.78,154.61280155476805L224.22666666666666,154.51549202452105L224.67333333333335,154.61252154875547L225.12,154.6953085431208L225.56666666666666,154.6899021146819L226.01333333333335,154.76332024065778L226.45999999999998,154.76825068177035L226.90666666666667,154.69439251363897L227.35333333333335,154.69673123924682L227.79999999999998,154.76320439189053L228.24666666666667,154.79088286031038L228.69333333333336,154.7032288440193L229.14,154.69520208130902L229.58666666666667,154.49441899638623L230.03333333333333,154.5932929428915L230.48,154.68437067947042L230.92666666666668,154.87641084566712L231.37333333333333,154.75145100786662L231.82,154.7714559836313L232.26666666666668,154.64259849876785L232.7133333333333,154.63875602868697L233.16,154.72372812312096L233.60666666666668,154.7894949646046L234.0533333333333,154.8280231508737L234.5,154.84032326781502L234.9466666666667,154.83027785178274L235.39333333333332,154.8097066823393L235.84,154.77029909860963L236.2866666666667,154.76768425914148L236.73333333333332,154.78196571053317L237.18,154.80123415372023L237.62666666666667,154.81601380060116L238.07333333333332,154.69028011135137L238.52,154.73153761215508L238.96666666666667,154.8514152149049L239.41333333333333,154.90875508884588L239.86,154.9144502234024L240.30666666666664,154.93321841054907L240.75333333333333,154.88347990997136L241.20000000000002,154.79101954353973L241.64666666666665,154.6868259406959L242.09333333333333,154.74850602230677L242.54000000000002,154.6418145735127L242.98666666666665,154.84799950787175L243.43333333333334,154.6898755564665L243.88,154.75617814126113L244.32666666666665,154.67627500277013L244.77333333333334,154.84961337735876L245.22,154.87056460402283" style="fill: none;" fill="none"></path></g></g></g></g></g></g><g transform="translate(60, 177)" clip-path="url(#clip_1)"><clipPath id="clip_1"><rect width="268" height="23"></rect></clipPath><g><g><line x1="0" y1="0" x2="0" y2="5" style="visibility: inherit;" fill="rgb(0, 0, 0)" stroke="rgb(204, 204, 204)" stroke-width="1px"></line><line x1="22.333333333333332" y1="0" x2="22.333333333333332" y2="5" style="visibility: inherit;" fill="rgb(0, 0, 0)" stroke="rgb(204, 204, 204)" stroke-width="1px"></line><line x1="44.666666666666664" y1="0" x2="44.666666666666664" y2="5" style="visibility: inherit;" fill="rgb(0, 0, 0)" stroke="rgb(204, 204, 204)" stroke-width="1px"></line><line x1="67" y1="0" x2="67" y2="5" style="visibility: inherit;" fill="rgb(0, 0, 0)" stroke="rgb(204, 204, 204)" stroke-width="1px"></line><line x1="89.33333333333333" y1="0" x2="89.33333333333333" y2="5" style="visibility: inherit;" fill="rgb(0, 0, 0)" stroke="rgb(204, 204, 204)" stroke-width="1px"></line><line x1="111.66666666666667" y1="0" x2="111.66666666666667" y2="5" style="visibility: inherit;" fill="rgb(0, 0, 0)" stroke="rgb(204, 204, 204)" stroke-width="1px"></line><line x1="134" y1="0" x2="134" y2="5" style="visibility: inherit;" fill="rgb(0, 0, 0)" stroke="rgb(204, 204, 204)" stroke-width="1px"></line><line x1="156.33333333333334" y1="0" x2="156.33333333333334" y2="5" style="visibility: inherit;" fill="rgb(0, 0, 0)" stroke="rgb(204, 204, 204)" stroke-width="1px"></line><line x1="178.66666666666666" y1="0" x2="178.66666666666666" y2="5" style="visibility: inherit;" fill="rgb(0, 0, 0)" stroke="rgb(204, 204, 204)" stroke-width="1px"></line><line x1="201" y1="0" x2="201" y2="5" style="visibility: inherit;" fill="rgb(0, 0, 0)" stroke="rgb(204, 204, 204)" stroke-width="1px"></line><line x1="223.33333333333334" y1="0" x2="223.33333333333334" y2="5" style="visibility: inherit;" fill="rgb(0, 0, 0)" stroke="rgb(204, 204, 204)" stroke-width="1px"></line><line x1="245.66666666666666" y1="0" x2="245.66666666666666" y2="5" style="visibility: inherit;" fill="rgb(0, 0, 0)" stroke="rgb(204, 204, 204)" stroke-width="1px"></line><line x1="268" y1="0" x2="268" y2="5" style="visibility: inherit;" fill="rgb(0, 0, 0)" stroke="rgb(204, 204, 204)" stroke-width="1px"></line></g><g transform="translate(0, 8)"><text x="0" y="0" dx="0em" dy="0.95em" style="text-anchor: middle; visibility: hidden; font-family: Roboto, sans-serif; font-size: 12px; font-weight: 200;" fill="rgb(33, 33, 33)" stroke="none" stroke-width="1px">-50</text><text x="22.333333333333332" y="0" dx="0em" dy="0.95em" style="text-anchor: middle; visibility: inherit; font-family: Roboto, sans-serif; font-size: 12px; font-weight: 200;" fill="rgb(33, 33, 33)" stroke="none" stroke-width="1px">0</text><text x="44.666666666666664" y="0" dx="0em" dy="0.95em" style="text-anchor: middle; visibility: hidden; font-family: Roboto, sans-serif; font-size: 12px; font-weight: 200;" fill="rgb(33, 33, 33)" stroke="none" stroke-width="1px">50</text><text x="67" y="0" dx="0em" dy="0.95em" style="text-anchor: middle; visibility: inherit; font-family: Roboto, sans-serif; font-size: 12px; font-weight: 200;" fill="rgb(33, 33, 33)" stroke="none" stroke-width="1px">100</text><text x="89.33333333333333" y="0" dx="0em" dy="0.95em" style="text-anchor: middle; visibility: hidden; font-family: Roboto, sans-serif; font-size: 12px; font-weight: 200;" fill="rgb(33, 33, 33)" stroke="none" stroke-width="1px">150</text><text x="111.66666666666667" y="0" dx="0em" dy="0.95em" style="text-anchor: middle; visibility: inherit; font-family: Roboto, sans-serif; font-size: 12px; font-weight: 200;" fill="rgb(33, 33, 33)" stroke="none" stroke-width="1px">200</text><text x="134" y="0" dx="0em" dy="0.95em" style="text-anchor: middle; visibility: hidden; font-family: Roboto, sans-serif; font-size: 12px; font-weight: 200;" fill="rgb(33, 33, 33)" stroke="none" stroke-width="1px">250</text><text x="156.33333333333334" y="0" dx="0em" dy="0.95em" style="text-anchor: middle; visibility: inherit; font-family: Roboto, sans-serif; font-size: 12px; font-weight: 200;" fill="rgb(33, 33, 33)" stroke="none" stroke-width="1px">300</text><text x="178.66666666666666" y="0" dx="0em" dy="0.95em" style="text-anchor: middle; visibility: hidden; font-family: Roboto, sans-serif; font-size: 12px; font-weight: 200;" fill="rgb(33, 33, 33)" stroke="none" stroke-width="1px">350</text><text x="201" y="0" dx="0em" dy="0.95em" style="text-anchor: middle; visibility: inherit; font-family: Roboto, sans-serif; font-size: 12px; font-weight: 200;" fill="rgb(33, 33, 33)" stroke="none" stroke-width="1px">400</text><text x="223.33333333333334" y="0" dx="0em" dy="0.95em" style="text-anchor: middle; visibility: hidden; font-family: Roboto, sans-serif; font-size: 12px; font-weight: 200;" fill="rgb(33, 33, 33)" stroke="none" stroke-width="1px">450</text><text x="245.66666666666666" y="0" dx="0em" dy="0.95em" style="text-anchor: middle; visibility: inherit; font-family: Roboto, sans-serif; font-size: 12px; font-weight: 200;" fill="rgb(33, 33, 33)" stroke="none" stroke-width="1px">500</text><text x="268" y="0" dx="0em" dy="0.95em" style="text-anchor: middle; visibility: hidden; font-family: Roboto, sans-serif; font-size: 12px; font-weight: 200;" fill="rgb(33, 33, 33)" stroke="none" stroke-width="1px">550</text></g><line x1="0" y1="0" x2="268" y2="0" fill="rgb(0, 0, 0)" stroke="rgb(204, 204, 204)" stroke-width="1px"></line></g></g></g></g></svg>