<svg viewBox="0 0 328 200" xmlns="http://www.w3.org/2000/svg"><g><g><g><g><g><line x1="61.953125" y1="177" x2="56.953125" y2="177" style="visibility: inherit;" fill="rgb(0, 0, 0)" stroke="rgb(204, 204, 204)" stroke-width="1px"></line><line x1="61.953125" y1="164.35714285714286" x2="56.953125" y2="164.35714285714286" style="visibility: inherit;" fill="rgb(0, 0, 0)" stroke="rgb(204, 204, 204)" stroke-width="1px"></line><line x1="61.953125" y1="151.71428571428572" x2="56.953125" y2="151.71428571428572" style="visibility: inherit;" fill="rgb(0, 0, 0)" stroke="rgb(204, 204, 204)" stroke-width="1px"></line><line x1="61.953125" y1="139.07142857142858" x2="56.953125" y2="139.07142857142858" style="visibility: inherit;" fill="rgb(0, 0, 0)" stroke="rgb(204, 204, 204)" stroke-width="1px"></line><line x1="61.953125" y1="126.42857142857143" x2="56.953125" y2="126.42857142857143" style="visibility: inherit;" fill="rgb(0, 0, 0)" stroke="rgb(204, 204, 204)" stroke-width="1px"></line><line x1="61.953125" y1="113.78571428571428" x2="56.953125" y2="113.78571428571428" style="visibility: inherit;" fill="rgb(0, 0, 0)" stroke="rgb(204, 204, 204)" stroke-width="1px"></line><line x1="61.953125" y1="101.14285714285714" x2="56.953125" y2="101.14285714285714" style="visibility: inherit;" fill="rgb(0, 0, 0)" stroke="rgb(204, 204, 204)" stroke-width="1px"></line><line x1="61.953125" y1="88.50000000000001" x2="56.953125" y2="88.50000000000001" style="visibility: inherit;" fill="rgb(0, 0, 0)" stroke="rgb(204, 204, 204)" stroke-width="1px"></line><line x1="61.953125" y1="75.85714285714286" x2="56.953125" y2="75.85714285714286" style="visibility: inherit;" fill="rgb(0, 0, 0)" stroke="rgb(204, 204, 204)" stroke-width="1px"></line><line x1="61.953125" y1="63.21428571428572" x2="56.953125" y2="63.21428571428572" style="visibility: inherit;" fill="rgb(0, 0, 0)" stroke="rgb(204, 204, 204)" stroke-width="1px"></line><line x1="61.953125" y1="50.57142857142859" x2="56.953125" y2="50.57142857142859" style="visibility: inherit;" fill="rgb(0, 0, 0)" stroke="rgb(204, 204, 204)" stroke-width="1px"></line><line x1="61.953125" y1="37.92857142857143" x2="56.953125" y2="37.92857142857143" style="visibility: inherit;" fill="rgb(0, 0, 0)" stroke="rgb(204, 204, 204)" stroke-width="1px"></line><line x1="61.953125" y1="25.285714285714313" x2="56.953125" y2="25.285714285714313" style="visibility: inherit;" fill="rgb(0, 0, 0)" stroke="rgb(204, 204, 204)" stroke-width="1px"></line><line x1="61.953125" y1="12.642857142857157" x2="56.953125" y2="12.642857142857157" style="visibility: inherit;" fill="rgb(0, 0, 0)" stroke="rgb(204, 204, 204)" stroke-width="1px"></line><line x1="61.953125" y1="0" x2="56.953125" y2="0" style="visibility: inherit;" fill="rgb(0, 0, 0)" stroke="rgb(204, 204, 204)" stroke-width="1px"></line></g><g transform="translate(51.953125, 0)"><text x="0" y="177" dx="0em" dy="0.3em" style="text-anchor: end; visibility: hidden; font-family: Roboto, sans-serif; font-size: 12px; font-weight: 200;" fill="rgb(33, 33, 33)" stroke="none" stroke-width="1px">-5e-3</text><text x="0" y="164.35714285714286" dx="0em" dy="0.3em" style="text-anchor: end; visibility: inherit; font-family: Roboto, sans-serif; font-size: 12px; font-weight: 200;" fill="rgb(33, 33, 33)" stroke="none" stroke-width="1px">0</text><text x="0" y="151.71428571428572" dx="0em" dy="0.3em" style="text-anchor: end; visibility: hidden; font-family: Roboto, sans-serif; font-size: 12px; font-weight: 200;" fill="rgb(33, 33, 33)" stroke="none" stroke-width="1px">5e-3</text><text x="0" y="139.07142857142858" dx="0em" dy="0.3em" style="text-anchor: end; visibility: inherit; font-family: Roboto, sans-serif; font-size: 12px; font-weight: 200;" fill="rgb(33, 33, 33)" stroke="none" stroke-width="1px">0.01</text><text x="0" y="126.42857142857143" dx="0em" dy="0.3em" style="text-anchor: end; visibility: hidden; font-family: Roboto, sans-serif; font-size: 12px; font-weight: 200;" fill="rgb(33, 33, 33)" stroke="none" stroke-width="1px">0.015</text><text x="0" y="113.78571428571428" dx="0em" dy="0.3em" style="text-anchor: end; visibility: inherit; font-family: Roboto, sans-serif; font-size: 12px; font-weight: 200;" fill="rgb(33, 33, 33)" stroke="none" stroke-width="1px">0.02</text><text x="0" y="101.14285714285714" dx="0em" dy="0.3em" style="text-anchor: end; visibility: hidden; font-family: Roboto, sans-serif; font-size: 12px; font-weight: 200;" fill="rgb(33, 33, 33)" stroke="none" stroke-width="1px">0.025</text><text x="0" y="88.50000000000001" dx="0em" dy="0.3em" style="text-anchor: end; visibility: inherit; font-family: Roboto, sans-serif; font-size: 12px; font-weight: 200;" fill="rgb(33, 33, 33)" stroke="none" stroke-width="1px">0.03</text><text x="0" y="75.85714285714286" dx="0em" dy="0.3em" style="text-anchor: end; visibility: hidden; font-family: Roboto, sans-serif; font-size: 12px; font-weight: 200;" fill="rgb(33, 33, 33)" stroke="none" stroke-width="1px">0.035</text><text x="0" y="63.21428571428572" dx="0em" dy="0.3em" style="text-anchor: end; visibility: inherit; font-family: Roboto, sans-serif; font-size: 12px; font-weight: 200;" fill="rgb(33, 33, 33)" stroke="none" stroke-width="1px">0.04</text><text x="0" y="50.57142857142859" dx="0em" dy="0.3em" style="text-anchor: end; visibility: hidden; font-family: Roboto, sans-serif; font-size: 12px; font-weight: 200;" fill="rgb(33, 33, 33)" stroke="none" stroke-width="1px">0.045</text><text x="0" y="37.92857142857143" dx="0em" dy="0.3em" style="text-anchor: end; visibility: inherit; font-family: Roboto, sans-serif; font-size: 12px; font-weight: 200;" fill="rgb(33, 33, 33)" stroke="none" stroke-width="1px">0.05</text><text x="0" y="25.285714285714313" dx="0em" dy="0.3em" style="text-anchor: end; visibility: hidden; font-family: Roboto, sans-serif; font-size: 12px; font-weight: 200;" fill="rgb(33, 33, 33)" stroke="none" stroke-width="1px">0.055</text><text x="0" y="12.642857142857157" dx="0em" dy="0.3em" style="text-anchor: end; visibility: inherit; font-family: Roboto, sans-serif; font-size: 12px; font-weight: 200;" fill="rgb(33, 33, 33)" stroke="none" stroke-width="1px">0.06</text><text x="0" y="0" dx="0em" dy="0.3em" style="text-anchor: end; visibility: hidden; font-family: Roboto, sans-serif; font-size: 12px; font-weight: 200;" fill="rgb(33, 33, 33)" stroke="none" stroke-width="1px">0.065</text></g><line x1="61.953125" y1="0" x2="61.953125" y2="177" fill="rgb(0, 0, 0)" stroke="rgb(204, 204, 204)" stroke-width="1px"></line></g></g><g transform="translate(61, 0)" clip-path="url(#clip_0)"><clipPath id="clip_0"><rect width="266" height="177"></rect></clipPath><g><g><g><line x1="0" y1="0" x2="0" y2="177" fill="rgb(0, 0, 0)" stroke="rgb(66, 66, 66)" stroke-width="1px" opacity="0.25"></line><line x1="22.170572916666664" y1="0" x2="22.170572916666664" y2="177" fill="rgb(0, 0, 0)" stroke="rgb(66, 66, 66)" stroke-width="1px" opacity="0.25"></line><line x1="44.34114583333333" y1="0" x2="44.34114583333333" y2="177" fill="rgb(0, 0, 0)" stroke="rgb(66, 66, 66)" stroke-width="1px" opacity="0.25"></line><line x1="66.51171875" y1="0" x2="66.51171875" y2="177" fill="rgb(0, 0, 0)" stroke="rgb(66, 66, 66)" stroke-width="1px" opacity="0.25"></line><line x1="88.68229166666666" y1="0" x2="88.68229166666666" y2="177" fill="rgb(0, 0, 0)" stroke="rgb(66, 66, 66)" stroke-width="1px" opacity="0.25"></line><line x1="110.85286458333334" y1="0" x2="110.85286458333334" y2="177" fill="rgb(0, 0, 0)" stroke="rgb(66, 66, 66)" stroke-width="1px" opacity="0.25"></line><line x1="133.0234375" y1="0" x2="133.0234375" y2="177" fill="rgb(0, 0, 0)" stroke="rgb(66, 66, 66)" stroke-width="1px" opacity="0.25"></line><line x1="155.19401041666669" y1="0" x2="155.19401041666669" y2="177" fill="rgb(0, 0, 0)" stroke="rgb(66, 66, 66)" stroke-width="1px" opacity="0.25"></line><line x1="177.36458333333331" y1="0" x2="177.36458333333331" y2="177" fill="rgb(0, 0, 0)" stroke="rgb(66, 66, 66)" stroke-width="1px" opacity="0.25"></line><line x1="199.53515625" y1="0" x2="199.53515625" y2="177" fill="rgb(0, 0, 0)" stroke="rgb(66, 66, 66)" stroke-width="1px" opacity="0.25"></line><line x1="221.70572916666669" y1="0" x2="221.70572916666669" y2="177" fill="rgb(0, 0, 0)" stroke="rgb(66, 66, 66)" stroke-width="1px" opacity="0.25"></line><line x1="243.87630208333331" y1="0" x2="243.87630208333331" y2="177" fill="rgb(0, 0, 0)" stroke="rgb(66, 66, 66)" stroke-width="1px" opacity="0.25"></line><line x1="266.046875" y1="0" x2="266.046875" y2="177" fill="rgb(0, 0, 0)" stroke="rgb(66, 66, 66)" stroke-width="1px" opacity="0.25"></line></g><g><line x1="0" y1="177" x2="266.046875" y2="177" fill="rgb(0, 0, 0)" stroke="rgb(66, 66, 66)" stroke-width="1px" opacity="0.25"></line><line x1="0" y1="164.35714285714286" x2="266.046875" y2="164.35714285714286" fill="rgb(0, 0, 0)" stroke="rgb(66, 66, 66)" stroke-width="1px" opacity="0.25"></line><line x1="0" y1="151.71428571428572" x2="266.046875" y2="151.71428571428572" fill="rgb(0, 0, 0)" stroke="rgb(66, 66, 66)" stroke-width="1px" opacity="0.25"></line><line x1="0" y1="139.07142857142858" x2="266.046875" y2="139.07142857142858" fill="rgb(0, 0, 0)" stroke="rgb(66, 66, 66)" stroke-width="1px" opacity="0.25"></line><line x1="0" y1="126.42857142857143" x2="266.046875" y2="126.42857142857143" fill="rgb(0, 0, 0)" stroke="rgb(66, 66, 66)" stroke-width="1px" opacity="0.25"></line><line x1="0" y1="113.78571428571428" x2="266.046875" y2="113.78571428571428" fill="rgb(0, 0, 0)" stroke="rgb(66, 66, 66)" stroke-width="1px" opacity="0.25"></line><line x1="0" y1="101.14285714285714" x2="266.046875" y2="101.14285714285714" fill="rgb(0, 0, 0)" stroke="rgb(66, 66, 66)" stroke-width="1px" opacity="0.25"></line><line x1="0" y1="88.50000000000001" x2="266.046875" y2="88.50000000000001" fill="rgb(0, 0, 0)" stroke="rgb(66, 66, 66)" stroke-width="1px" opacity="0.25"></line><line x1="0" y1="75.85714285714286" x2="266.046875" y2="75.85714285714286" fill="rgb(0, 0, 0)" stroke="rgb(66, 66, 66)" stroke-width="1px" opacity="0.25"></line><line x1="0" y1="63.21428571428572" x2="266.046875" y2="63.21428571428572" fill="rgb(0, 0, 0)" stroke="rgb(66, 66, 66)" stroke-width="1px" opacity="0.25"></line><line x1="0" y1="50.57142857142859" x2="266.046875" y2="50.57142857142859" fill="rgb(0, 0, 0)" stroke="rgb(66, 66, 66)" stroke-width="1px" opacity="0.25"></line><line x1="0" y1="37.92857142857143" x2="266.046875" y2="37.92857142857143" fill="rgb(0, 0, 0)" stroke="rgb(66, 66, 66)" stroke-width="1px" opacity="0.25"></line><line x1="0" y1="25.285714285714313" x2="266.046875" y2="25.285714285714313" fill="rgb(0, 0, 0)" stroke="rgb(66, 66, 66)" stroke-width="1px" opacity="0.25"></line><line x1="0" y1="12.642857142857157" x2="266.046875" y2="12.642857142857157" fill="rgb(0, 0, 0)" stroke="rgb(66, 66, 66)" stroke-width="1px" opacity="0.25"></line><line x1="0" y1="0" x2="266.046875" y2="0" fill="rgb(0, 0, 0)" stroke="rgb(66, 66, 66)" stroke-width="1px" opacity="0.25"></line></g></g></g><g><g><line x1="0" y1="164.35714285714286" x2="266.046875" y2="164.35714285714286" fill="rgb(0, 0, 0)" stroke="rgb(153, 153, 153)" stroke-width="1.5px"></line></g></g><g><g><line x1="22.170572916666664" y1="0" x2="22.170572916666664" y2="177" fill="rgb(0, 0, 0)" stroke="rgb(153, 153, 153)" stroke-width="1.5px"></line></g></g><g><g><g><g><g><path stroke="rgb(0, 119, 187)" stroke-width="2px" d="M31.038802083333334,-0.9089725741318406L31.482213541666667,0.6698382369109647L31.925625,2.649191941533773L32.36903645833333,5.077637480837967L32.81244791666667,7.907888148512156L33.255859375,11.16795802116394L33.69927083333334,14.882451257535395L34.14268229166667,19.07751684103696L34.58609375,23.776854642799936L35.02950520833333,28.96507293411665L35.47291666666666,34.599086178200594L35.916328125,40.592054505433374L36.35973958333333,46.773265370300855L36.803151041666666,52.73470608677184L37.2465625,57.71657724891391L37.68997395833333,61.53632579530989L38.13338541666667,64.46390041708948L38.576796875,67.05228240787984L39.020208333333336,69.52692197263242L39.46361979166667,71.86796246256148L39.907031249999996,73.98563449297633L40.35044270833333,76.01587321502824L40.79385416666666,77.92542721969743L41.237265625,79.7307809165546L41.680677083333336,81.4678891577891L42.124088541666666,83.15522390178273L42.5675,84.7876325930868L43.01091145833333,86.36142272395747L43.45432291666667,87.87628344552859L43.897734375,89.38317984236139L44.34114583333333,90.96516036987305L44.784557291666665,92.6507618959461L45.22796875,94.25588653449505L45.67138020833333,95.62748831723421L46.11479166666667,97.021362892219L46.558203125,98.56387032355582L47.001614583333335,99.94352120799678L47.44502604166667,101.40548110433988L47.888437499999995,102.89456962900502L48.33184895833333,104.2651493783508L48.77526041666666,105.88516650348902L49.218671875,107.14397253628289L49.662083333333335,108.90151202572244L50.105494791666665,109.99976461912905L50.54890625,111.95106656849384L50.99231770833334,112.73410428208965L51.43572916666667,114.96663025873048L51.879140625000005,115.34964316018991L52.32255208333333,117.38695604886328L52.765963541666665,118.60045350449425L53.209375,118.55013366682189L53.65278645833333,122.14667388796806L54.09619791666667,121.22638227045536L54.539609375,125.64689805890833L54.983020833333335,124.02682912562574L55.42643229166667,127.27137068446194L55.86984375,129.53404664620757L56.31325520833333,122.83806770401341L56.75666666666667,130.4935028659446L57.200078125,129.47576954854387L57.643489583333334,129.87176745491368L58.086901041666664,129.12083195149899L58.5303125,132.13536183376397L58.97372395833334,131.83947845654828L59.41713541666667,136.03541535884142L59.860546875000004,137.68099273847682L60.30395833333333,138.3601457029581L60.747369791666664,140.87958989292383L61.19078125,139.91052561732275L61.63419270833333,142.346631697246L62.07760416666667,142.18462998473217L62.521015625,143.76833195558618L62.964427083333334,143.8504148955856L63.40783854166667,145.17770069810962L63.85125,144.19110760784577L64.29466145833334,143.97202980465124L64.73807291666667,147.2489926647395L65.181484375,147.11781562066506L65.62489583333334,138.7216346753495L66.06830729166667,143.69223992100785L66.51171875,146.13575338811745L66.95513020833333,146.22358938705707L67.39854166666667,146.64898488298059L67.841953125,146.75932916573117L68.28536458333333,146.75335121234613L68.72877604166668,148.85589290969074L69.1721875,147.74492023938467L69.61559895833334,150.24465731770863L70.05901041666667,148.76516625178712L70.50242187500001,150.99607440137436L70.94583333333333,149.2891938574612L71.38924479166666,151.07965035789778L71.83265625,149.2394097630999L72.27606770833333,150.33915419557263L72.71947916666666,148.7981291836394L73.162890625,149.64206148364713L73.60630208333333,148.260498407696L74.04971354166666,150.65333291249615L74.493125,149.4163404633956L74.93653645833334,152.48674778427397L75.37994791666667,151.85960901927734L75.823359375,153.1519926169089L76.26677083333334,153.27360046122755L76.71018229166667,153.49197414464186L77.15359375,153.73763423572694L77.59700520833334,154.06587062164078L78.04041666666667,153.6172862712826L78.483828125,154.43494595480817L78.92723958333335,154.16548944104994L79.37065104166666,152.89595558999906L79.81406249999999,154.06300233437548L80.25747395833334,154.8233009824263L80.70088541666667,154.72542597805815L81.144296875,154.62889386434108L81.58770833333332,154.87000720202923L82.03111979166667,127.47498846639479L82.47453125,133.4755137179579L82.91794270833333,146.7500460882272L83.36135416666667,152.71443751401137L83.804765625,154.01758660855037L84.24817708333333,154.8914810891396L84.69158854166668,154.76983262252594L85.135,155.04100881343973L85.57841145833333,155.15856502537747L86.02182291666666,155.31137844574238L86.46523437500001,155.4198529254645L86.90864583333334,155.55096815300305L87.35205729166665,155.6924202828003L87.79546875,155.83326190071446L88.23888020833333,156.01148073987235L88.68229166666666,156.19490217643659L89.125703125,156.38386590699L89.56911458333333,156.54638923332095L90.01252604166666,156.6791941128405L90.4559375,156.79419347510805L90.89934895833333,156.89250413887203L91.34276041666666,156.9820144828409L91.786171875,157.0670387124909L92.22958333333334,157.14636169134508L92.67299479166667,157.22240898252596L93.11640625,157.2948096868183L93.55981770833334,157.36349845531265L94.00322916666667,157.42937604324626L94.446640625,157.4922882036439L94.89005208333334,157.55086790796904L95.33346354166667,157.59562307995347L95.77687499999999,157.54799962070373L96.22028645833333,156.2349787197475L96.66369791666666,144.0440690293908L97.107109375,147.68059571832418L97.55052083333332,148.84080732001792L97.99393229166667,154.6487546342292L98.43734375,155.03687299282421L98.88075520833333,156.56650139045502L99.32416666666667,157.6036427452096L99.767578125,157.42130574730356L100.21098958333333,158.02861435631556L100.65440104166667,157.97275575702744L101.0978125,158.075717379206L101.54122395833333,158.18060649984648L101.98463541666668,158.2329727592213L102.428046875,158.243058274234L102.87145833333334,158.28809780228352L103.31486979166667,158.3467028219519L103.75828125000001,158.31666292915386L104.20169270833333,158.46993732425784L104.64510416666666,158.31735527435583L105.088515625,158.46805339173545L105.53192708333333,158.48266799827772L105.97533854166666,157.33234233249513L106.41875,152.52310297212432L106.86216145833333,155.62574673337596L107.30557291666666,145.50200790725648L107.748984375,152.4301097079047L108.19239583333334,155.06102736267658L108.63580729166667,156.40728907553213L109.07921875,156.68093910533935L109.52263020833334,157.6864268613447L109.96604166666667,158.0524908461209L110.409453125,158.48462846555879L110.85286458333334,158.53545461009656L111.29627604166667,158.681607740266L111.7396875,158.75685553758274L112.18309895833335,158.78111823355513L112.62651041666666,158.8376986144909L113.06992187499999,158.87301999436957L113.51333333333334,158.85971766457496L113.95674479166667,158.96290241501163L114.40015625,158.6726873197726L114.84356770833332,158.92254033817778L115.28697916666667,159.04101732213584L115.730390625,158.68662959789592L116.17380208333333,157.39730032586624L116.61721354166667,158.10313507342445L117.060625,158.3336913242404L117.50403645833333,156.16136229024934L117.94744791666668,155.81455209585172L118.390859375,150.64158894813488L118.83427083333333,154.82083303082203L119.27768229166666,155.54861382607902L119.72109375000001,156.57047648807722L120.16450520833334,157.2281914779118L120.60791666666665,157.30118562094867L121.051328125,157.26430410944988L121.49473958333333,158.1979151298957L121.93815104166666,158.40582121323263L122.3815625,159.08123221674134L122.82497395833333,159.00958626291583L123.26838541666666,159.24015899814134L123.711796875,159.12733616666603L124.15520833333333,159.16191751430077L124.59861979166666,158.92003411919413L125.04203125,158.85954928810577L125.48544270833334,158.54052415476846L125.92885416666667,158.37214003210622L126.372265625,157.98637541170632L126.81567708333334,157.8051681845848L127.25908854166667,157.44619543956858L127.7025,157.31238559979414L128.14591145833333,156.93136848935058L128.58932291666667,157.00291200434523L129.032734375,156.78095767168062L129.47614583333333,157.3999248793615L129.91955729166668,157.87276427221616L130.36296875,158.49527150685233L130.80638020833334,159.31961385227208L131.24979166666668,159.52657325951648L131.693203125,159.97066266462207L132.13661458333334,159.94526195566038L132.58002604166668,160.13810217174304L133.0234375,160.03245153025327L133.46684895833334,160.15224815007033L133.91026041666666,159.93513876199722L134.353671875,160.02647828669953L134.79708333333335,159.6342450073654L135.24049479166666,159.7813403981605L135.68390625,158.99947425510203L136.12731770833335,159.35685566586574L136.57072916666667,157.99354495241175L137.014140625,158.30396934505552L137.45755208333335,157.8544300764001L137.90096354166667,157.77724241731423L138.344375,158.36968267762234L138.78778645833333,158.4751958509109L139.23119791666667,159.26127905917485L139.67460937500002,158.73999316404974L140.11802083333333,159.07131566692678L140.56143229166668,158.00054140681667L141.00484375000002,157.71360670908223L141.4482552083333,156.95268812948572L141.89166666666665,156.31624509274425L142.335078125,156.51233362060572L142.7784895833333,156.8743165365553L143.22190104166665,157.55615822598338L143.6653125,159.07099598712688L144.10872395833331,159.48541934229434L144.55213541666666,160.24080151519073L144.995546875,160.08643326176596L145.43895833333332,160.28288797901143L145.88236979166666,160.1297613548647L146.32578125,160.1792702184591L146.76919270833332,160.07629270059988L147.21260416666667,160.0090142322172L147.656015625,159.81442814054233L148.09942708333332,159.580549692469L148.54283854166667,159.107033850093L148.98625,158.69968407281806L149.42966145833333,158.03600525909235L149.87307291666667,157.8798313740907L150.316484375,157.7792334984988L150.75989583333333,158.12561804189215L151.20330729166668,159.11086470913142L151.64671875,159.41553486537723L152.09013020833333,160.29971031897833L152.53354166666668,160.3248996742602L152.976953125,160.66790432496262L153.42036458333334,160.53489515651017L153.86377604166668,160.62195226709758L154.3071875,160.35066510078366L154.75059895833334,160.29262879324546L155.19401041666669,159.76965560105498L155.637421875,159.4712945582079L156.08083333333335,158.5138794616131L156.5242447916667,158.01956206054558L156.96765625,156.93513223329293L157.41106770833335,157.26719771205848L157.8544791666667,157.20759597433997L158.29789062499998,158.06175743921528L158.74130208333332,159.45087508458113L159.18471354166667,159.8109446315627L159.62812499999998,160.75286085078758L160.07153645833333,160.76846864300649L160.51494791666667,160.9906555235918L160.958359375,160.92709222901613L161.40177083333333,160.9147012515792L161.84518229166665,160.86722703510895L162.28859375,160.80544876659823L162.73200520833333,160.6627352851044L163.17541666666665,160.48401720382807L163.618828125,159.9735653925288L164.06223958333334,159.4502937147793L164.50565104166665,158.19490495896233L164.9490625,157.6236542296995L165.39247395833334,156.4158350644367L165.83588541666666,157.11804147570263L166.279296875,158.14936383387874L166.72270833333334,158.77079722697715L167.16611979166666,160.2869178284226L167.60953125,160.3896760447616L168.05294270833335,160.96309947807876L168.49635416666666,160.95900928395403L168.939765625,161.04056148483818L169.38317708333335,161.0094471617735L169.82658854166667,161.04152170169567L170.27,160.9729050524932L170.71341145833335,160.99018925029253L171.15682291666667,160.7495221691206L171.600234375,160.62786192792868L172.04364583333333,160.041410218126L172.48705729166667,159.67155835152207L172.93046875000002,158.6932769360553L173.37388020833333,158.46657744835L173.81729166666668,157.93087946942876L174.26070312500002,158.24387425250774L174.7041145833333,159.25932212426727L175.14752604166665,159.55176879645194L175.5909375,160.715462435303L176.0343489583333,160.76747604605873L176.47776041666665,161.31033444038724L176.921171875,161.14250019052997L177.36458333333331,161.3027639752919L177.80799479166666,161.03434068077644L178.25140625,161.0174338582105L178.69481770833332,160.62215125747025L179.13822916666666,160.43803453205953L179.581640625,159.7988662691787L180.02505208333332,159.5086358669879L180.46846354166667,158.8715628903093L180.911875,158.84434536392135L181.35528645833332,159.0140105606988L181.79869791666667,159.2125464346526L182.242109375,160.2051492696628L182.68552083333333,160.3716173740769L183.12893229166667,161.15822042997127L183.57234375,161.16766952902879L184.01575520833333,161.49694413838108L184.45916666666668,161.35505252245014L184.902578125,161.35556088986675L185.34598958333333,161.06102099203108L185.78940104166668,160.77475862271552L186.2328125,160.1403101995321L186.67622395833334,159.5523139594256L187.11963541666668,158.56228180921505L187.563046875,158.20844984506923L188.00645833333334,157.95213905921472L188.44986979166669,158.0601631613182L188.89328125,159.55790129117668L189.33669270833335,159.7205476618505L189.7801041666667,160.90668570742545L190.223515625,160.9749800275479L190.66692708333335,161.43575342132578L191.1103385416667,161.37427010600058L191.55374999999998,161.42981873951587L191.99716145833332,161.32644118036012L192.44057291666667,161.2256846423261L192.88398437499998,161.06906597263048L193.32739583333333,160.90623856781585L193.77080729166667,160.645699236542L194.21421875,160.42609363787676L194.65763020833333,160.05003450797605L195.10104166666665,159.85920980532785L195.544453125,159.5510164009008L195.98786458333333,159.5085499125666L196.43127604166665,159.63164135374663L196.8746875,159.7121205961864L197.31809895833334,160.29131033484427L197.76151041666665,160.42005710596484L198.204921875,161.01346818025092L198.64833333333334,161.10824176070412L199.09174479166666,161.47752668136465L199.53515625,161.51722202270423L199.97856770833334,161.67468434093254L200.42197916666666,161.69606609196802L200.865390625,161.73226408919854L201.30880208333335,161.76120158710648L201.75221354166666,161.73722030355464L202.195625,161.77829121000002L202.63903645833335,161.69106336802778L203.08244791666667,161.73428195754866L203.525859375,161.5031952619819L203.96927083333335,161.5377359873216L204.41268229166667,161.08363171467292L204.85609375,161.222445161481L205.29950520833333,160.78070655092597L205.74291666666667,161.3723820523758L206.18632812500002,161.28204513301273L206.62973958333333,161.80183565669824L207.07315104166668,161.7432827395387L207.51656250000002,161.43982683667647L207.9599739583333,161.58329124189913L208.40338541666665,161.62115004339387L208.846796875,161.56180528584602L209.2902083333333,161.593993156084L209.73361979166665,161.83588567648883L210.17703125,161.46659486853918L210.62044270833331,161.29015016396133L211.06385416666666,160.88166531734169L211.507265625,160.26069908063593L211.95067708333332,161.30212373259877L212.39408854166666,160.9936827676637L212.8375,158.33701293276889L213.28091145833332,161.09631705656648L213.72432291666667,158.7718775445329L214.167734375,161.50186532336687L214.61114583333332,161.66408780922313L215.05455729166667,161.2488384673904L215.49796875,160.80156109521965L215.94138020833333,161.2180779704026L216.38479166666667,160.81020952295512L216.828203125,161.14260910537894L217.27161458333333,161.80695936443018L217.71502604166668,161.58140583755448L218.1584375,161.78981793339233L218.60184895833333,161.94750970871453L219.04526041666668,161.79510854577114L219.488671875,161.4169564845839L219.93208333333334,160.3043918912964L220.37549479166668,158.1987899810608L220.81890625,160.5993851103953L221.26231770833334,159.7630332838744L221.70572916666669,161.75474058164818L222.149140625,161.37876151887966L222.59255208333335,161.3374333378992L223.0359635416667,161.7360269500475L223.479375,161.64236783342702L223.92278645833335,161.3518548413579L224.3661979166667,161.73559658921192L224.80960937499998,161.65052202323986L225.25302083333332,161.01635177446795L225.69643229166667,161.3530735102083L226.13984374999998,161.9370319530634L226.58325520833333,161.0705375005491L227.02666666666667,157.78463567500668L227.470078125,161.28819911634284L227.91348958333333,158.10636307405574L228.35690104166665,161.61439555657228L228.8003125,161.6028299770717L229.24372395833333,161.2304353902915L229.68713541666665,160.9674148610128L230.130546875,161.13577896689196L230.57395833333334,161.85289729280132L231.01736979166665,161.67577996544009L231.46078125,162.01392922161278L231.90419270833334,162.0785491374055L232.34760416666666,162.08428276829156L232.791015625,162.0491939363336L233.23442708333334,161.70968545228243L233.67783854166666,160.97991887440105L234.12125,159.0317801654871L234.56466145833335,159.7280471851118L235.00807291666666,161.14795123153766L235.451484375,160.67560372168998L235.89489583333335,161.4198503815569L236.33830729166667,161.9578081964116L236.78171875,161.98910811626618L237.22513020833335,162.09165851129885L237.66854166666667,162.11388199749803L238.111953125,161.41081810257L238.55536458333333,161.46570471042236L238.99877604166667,162.11535764651907L239.44218750000002,161.11779977461057L239.88559895833333,155.4105616057558L240.32901041666668,158.11391764347044L240.77242187500002,159.06420323292593L241.2158333333333,159.12962102357832L241.65924479166665,160.49515359995087L242.10265625,160.89003704248796L242.5460677083333,161.61118639526623L242.98947916666665,161.87169187462757L243.432890625,162.01306467320373" style="fill: none;" fill="none"></path></g></g></g></g></g></g><g transform="translate(61, 177)" clip-path="url(#clip_1)"><clipPath id="clip_1"><rect width="266" height="23"></rect></clipPath><g><g><line x1="0" y1="0" x2="0" y2="5" style="visibility: inherit;" fill="rgb(0, 0, 0)" stroke="rgb(204, 204, 204)" stroke-width="1px"></line><line x1="22.170572916666664" y1="0" x2="22.170572916666664" y2="5" style="visibility: inherit;" fill="rgb(0, 0, 0)" stroke="rgb(204, 204, 204)" stroke-width="1px"></line><line x1="44.34114583333333" y1="0" x2="44.34114583333333" y2="5" style="visibility: inherit;" fill="rgb(0, 0, 0)" stroke="rgb(204, 204, 204)" stroke-width="1px"></line><line x1="66.51171875" y1="0" x2="66.51171875" y2="5" style="visibility: inherit;" fill="rgb(0, 0, 0)" stroke="rgb(204, 204, 204)" stroke-width="1px"></line><line x1="88.68229166666666" y1="0" x2="88.68229166666666" y2="5" style="visibility: inherit;" fill="rgb(0, 0, 0)" stroke="rgb(204, 204, 204)" stroke-width="1px"></line><line x1="110.85286458333334" y1="0" x2="110.85286458333334" y2="5" style="visibility: inherit;" fill="rgb(0, 0, 0)" stroke="rgb(204, 204, 204)" stroke-width="1px"></line><line x1="133.0234375" y1="0" x2="133.0234375" y2="5" style="visibility: inherit;" fill="rgb(0, 0, 0)" stroke="rgb(204, 204, 204)" stroke-width="1px"></line><line x1="155.19401041666669" y1="0" x2="155.19401041666669" y2="5" style="visibility: inherit;" fill="rgb(0, 0, 0)" stroke="rgb(204, 204, 204)" stroke-width="1px"></line><line x1="177.36458333333331" y1="0" x2="177.36458333333331" y2="5" style="visibility: inherit;" fill="rgb(0, 0, 0)" stroke="rgb(204, 204, 204)" stroke-width="1px"></line><line x1="199.53515625" y1="0" x2="199.53515625" y2="5" style="visibility: inherit;" fill="rgb(0, 0, 0)" stroke="rgb(204, 204, 204)" stroke-width="1px"></line><line x1="221.70572916666669" y1="0" x2="221.70572916666669" y2="5" style="visibility: inherit;" fill="rgb(0, 0, 0)" stroke="rgb(204, 204, 204)" stroke-width="1px"></line><line x1="243.87630208333331" y1="0" x2="243.87630208333331" y2="5" style="visibility: inherit;" fill="rgb(0, 0, 0)" stroke="rgb(204, 204, 204)" stroke-width="1px"></line><line x1="266.046875" y1="0" x2="266.046875" y2="5" style="visibility: inherit;" fill="rgb(0, 0, 0)" stroke="rgb(204, 204, 204)" stroke-width="1px"></line></g><g transform="translate(0, 8)"><text x="0" y="0" dx="0em" dy="0.95em" style="text-anchor: middle; visibility: hidden; font-family: Roboto, sans-serif; font-size: 12px; font-weight: 200;" fill="rgb(33, 33, 33)" stroke="none" stroke-width="1px">-50</text><text x="22.170572916666664" y="0" dx="0em" dy="0.95em" style="text-anchor: middle; visibility: inherit; font-family: Roboto, sans-serif; font-size: 12px; font-weight: 200;" fill="rgb(33, 33, 33)" stroke="none" stroke-width="1px">0</text><text x="44.34114583333333" y="0" dx="0em" dy="0.95em" style="text-anchor: middle; visibility: hidden; font-family: Roboto, sans-serif; font-size: 12px; font-weight: 200;" fill="rgb(33, 33, 33)" stroke="none" stroke-width="1px">50</text><text x="66.51171875" y="0" dx="0em" dy="0.95em" style="text-anchor: middle; visibility: inherit; font-family: Roboto, sans-serif; font-size: 12px; font-weight: 200;" fill="rgb(33, 33, 33)" stroke="none" stroke-width="1px">100</text><text x="88.68229166666666" y="0" dx="0em" dy="0.95em" style="text-anchor: middle; visibility: hidden; font-family: Roboto, sans-serif; font-size: 12px; font-weight: 200;" fill="rgb(33, 33, 33)" stroke="none" stroke-width="1px">150</text><text x="110.85286458333334" y="0" dx="0em" dy="0.95em" style="text-anchor: middle; visibility: inherit; font-family: Roboto, sans-serif; font-size: 12px; font-weight: 200;" fill="rgb(33, 33, 33)" stroke="none" stroke-width="1px">200</text><text x="133.0234375" y="0" dx="0em" dy="0.95em" style="text-anchor: middle; visibility: hidden; font-family: Roboto, sans-serif; font-size: 12px; font-weight: 200;" fill="rgb(33, 33, 33)" stroke="none" stroke-width="1px">250</text><text x="155.19401041666669" y="0" dx="0em" dy="0.95em" style="text-anchor: middle; visibility: inherit; font-family: Roboto, sans-serif; font-size: 12px; font-weight: 200;" fill="rgb(33, 33, 33)" stroke="none" stroke-width="1px">300</text><text x="177.36458333333331" y="0" dx="0em" dy="0.95em" style="text-anchor: middle; visibility: hidden; font-family: Roboto, sans-serif; font-size: 12px; font-weight: 200;" fill="rgb(33, 33, 33)" stroke="none" stroke-width="1px">350</text><text x="199.53515625" y="0" dx="0em" dy="0.95em" style="text-anchor: middle; visibility: inherit; font-family: Roboto, sans-serif; font-size: 12px; font-weight: 200;" fill="rgb(33, 33, 33)" stroke="none" stroke-width="1px">400</text><text x="221.70572916666669" y="0" dx="0em" dy="0.95em" style="text-anchor: middle; visibility: hidden; font-family: Roboto, sans-serif; font-size: 12px; font-weight: 200;" fill="rgb(33, 33, 33)" stroke="none" stroke-width="1px">450</text><text x="243.87630208333331" y="0" dx="0em" dy="0.95em" style="text-anchor: middle; visibility: inherit; font-family: Roboto, sans-serif; font-size: 12px; font-weight: 200;" fill="rgb(33, 33, 33)" stroke="none" stroke-width="1px">500</text><text x="266.046875" y="0" dx="0em" dy="0.95em" style="text-anchor: middle; visibility: hidden; font-family: Roboto, sans-serif; font-size: 12px; font-weight: 200;" fill="rgb(33, 33, 33)" stroke="none" stroke-width="1px">550</text></g><line x1="0" y1="0" x2="266.046875" y2="0" fill="rgb(0, 0, 0)" stroke="rgb(204, 204, 204)" stroke-width="1px"></line></g></g></g></g></svg>