<svg viewBox="0 0 330 200" xmlns="http://www.w3.org/2000/svg"><g><g><g><g><g><line x1="72.34375" y1="177" x2="67.34375" y2="177" style="visibility: inherit;" fill="rgb(0, 0, 0)" stroke="rgb(204, 204, 204)" stroke-width="1px"></line><line x1="72.34375" y1="164.35714285714286" x2="67.34375" y2="164.35714285714286" style="visibility: inherit;" fill="rgb(0, 0, 0)" stroke="rgb(204, 204, 204)" stroke-width="1px"></line><line x1="72.34375" y1="151.71428571428572" x2="67.34375" y2="151.71428571428572" style="visibility: inherit;" fill="rgb(0, 0, 0)" stroke="rgb(204, 204, 204)" stroke-width="1px"></line><line x1="72.34375" y1="139.07142857142856" x2="67.34375" y2="139.07142857142856" style="visibility: inherit;" fill="rgb(0, 0, 0)" stroke="rgb(204, 204, 204)" stroke-width="1px"></line><line x1="72.34375" y1="126.42857142857143" x2="67.34375" y2="126.42857142857143" style="visibility: inherit;" fill="rgb(0, 0, 0)" stroke="rgb(204, 204, 204)" stroke-width="1px"></line><line x1="72.34375" y1="113.78571428571428" x2="67.34375" y2="113.78571428571428" style="visibility: inherit;" fill="rgb(0, 0, 0)" stroke="rgb(204, 204, 204)" stroke-width="1px"></line><line x1="72.34375" y1="101.14285714285714" x2="67.34375" y2="101.14285714285714" style="visibility: inherit;" fill="rgb(0, 0, 0)" stroke="rgb(204, 204, 204)" stroke-width="1px"></line><line x1="72.34375" y1="88.5" x2="67.34375" y2="88.5" style="visibility: inherit;" fill="rgb(0, 0, 0)" stroke="rgb(204, 204, 204)" stroke-width="1px"></line><line x1="72.34375" y1="75.85714285714286" x2="67.34375" y2="75.85714285714286" style="visibility: inherit;" fill="rgb(0, 0, 0)" stroke="rgb(204, 204, 204)" stroke-width="1px"></line><line x1="72.34375" y1="63.21428571428571" x2="67.34375" y2="63.21428571428571" style="visibility: inherit;" fill="rgb(0, 0, 0)" stroke="rgb(204, 204, 204)" stroke-width="1px"></line><line x1="72.34375" y1="50.57142857142857" x2="67.34375" y2="50.57142857142857" style="visibility: inherit;" fill="rgb(0, 0, 0)" stroke="rgb(204, 204, 204)" stroke-width="1px"></line><line x1="72.34375" y1="37.92857142857143" x2="67.34375" y2="37.92857142857143" style="visibility: inherit;" fill="rgb(0, 0, 0)" stroke="rgb(204, 204, 204)" stroke-width="1px"></line><line x1="72.34375" y1="25.285714285714295" x2="67.34375" y2="25.285714285714295" style="visibility: inherit;" fill="rgb(0, 0, 0)" stroke="rgb(204, 204, 204)" stroke-width="1px"></line><line x1="72.34375" y1="12.642857142857137" x2="67.34375" y2="12.642857142857137" style="visibility: inherit;" fill="rgb(0, 0, 0)" stroke="rgb(204, 204, 204)" stroke-width="1px"></line><line x1="72.34375" y1="0" x2="67.34375" y2="0" style="visibility: inherit;" fill="rgb(0, 0, 0)" stroke="rgb(204, 204, 204)" stroke-width="1px"></line></g><g transform="translate(62.34375, 0)"><text x="0" y="177" dx="0em" dy="0.3em" style="text-anchor: end; visibility: hidden; font-family: Roboto, sans-serif; font-size: 12px; font-weight: 200;" fill="rgb(33, 33, 33)" stroke="none" stroke-width="1px">0</text><text x="0" y="164.35714285714286" dx="0em" dy="0.3em" style="text-anchor: end; visibility: inherit; font-family: Roboto, sans-serif; font-size: 12px; font-weight: 200;" fill="rgb(33, 33, 33)" stroke="none" stroke-width="1px">100</text><text x="0" y="151.71428571428572" dx="0em" dy="0.3em" style="text-anchor: end; visibility: hidden; font-family: Roboto, sans-serif; font-size: 12px; font-weight: 200;" fill="rgb(33, 33, 33)" stroke="none" stroke-width="1px">200</text><text x="0" y="139.07142857142856" dx="0em" dy="0.3em" style="text-anchor: end; visibility: inherit; font-family: Roboto, sans-serif; font-size: 12px; font-weight: 200;" fill="rgb(33, 33, 33)" stroke="none" stroke-width="1px">300</text><text x="0" y="126.42857142857143" dx="0em" dy="0.3em" style="text-anchor: end; visibility: hidden; font-family: Roboto, sans-serif; font-size: 12px; font-weight: 200;" fill="rgb(33, 33, 33)" stroke="none" stroke-width="1px">400</text><text x="0" y="113.78571428571428" dx="0em" dy="0.3em" style="text-anchor: end; visibility: inherit; font-family: Roboto, sans-serif; font-size: 12px; font-weight: 200;" fill="rgb(33, 33, 33)" stroke="none" stroke-width="1px">500</text><text x="0" y="101.14285714285714" dx="0em" dy="0.3em" style="text-anchor: end; visibility: hidden; font-family: Roboto, sans-serif; font-size: 12px; font-weight: 200;" fill="rgb(33, 33, 33)" stroke="none" stroke-width="1px">600</text><text x="0" y="88.5" dx="0em" dy="0.3em" style="text-anchor: end; visibility: inherit; font-family: Roboto, sans-serif; font-size: 12px; font-weight: 200;" fill="rgb(33, 33, 33)" stroke="none" stroke-width="1px">700</text><text x="0" y="75.85714285714286" dx="0em" dy="0.3em" style="text-anchor: end; visibility: hidden; font-family: Roboto, sans-serif; font-size: 12px; font-weight: 200;" fill="rgb(33, 33, 33)" stroke="none" stroke-width="1px">800</text><text x="0" y="63.21428571428571" dx="0em" dy="0.3em" style="text-anchor: end; visibility: inherit; font-family: Roboto, sans-serif; font-size: 12px; font-weight: 200;" fill="rgb(33, 33, 33)" stroke="none" stroke-width="1px">900</text><text x="0" y="50.57142857142857" dx="0em" dy="0.3em" style="text-anchor: end; visibility: hidden; font-family: Roboto, sans-serif; font-size: 12px; font-weight: 200;" fill="rgb(33, 33, 33)" stroke="none" stroke-width="1px">1e+3</text><text x="0" y="37.92857142857143" dx="0em" dy="0.3em" style="text-anchor: end; visibility: inherit; font-family: Roboto, sans-serif; font-size: 12px; font-weight: 200;" fill="rgb(33, 33, 33)" stroke="none" stroke-width="1px">1.1e+3</text><text x="0" y="25.285714285714295" dx="0em" dy="0.3em" style="text-anchor: end; visibility: hidden; font-family: Roboto, sans-serif; font-size: 12px; font-weight: 200;" fill="rgb(33, 33, 33)" stroke="none" stroke-width="1px">1.2e+3</text><text x="0" y="12.642857142857137" dx="0em" dy="0.3em" style="text-anchor: end; visibility: inherit; font-family: Roboto, sans-serif; font-size: 12px; font-weight: 200;" fill="rgb(33, 33, 33)" stroke="none" stroke-width="1px">1.3e+3</text><text x="0" y="0" dx="0em" dy="0.3em" style="text-anchor: end; visibility: hidden; font-family: Roboto, sans-serif; font-size: 12px; font-weight: 200;" fill="rgb(33, 33, 33)" stroke="none" stroke-width="1px">1.4e+3</text></g><line x1="72.34375" y1="0" x2="72.34375" y2="177" fill="rgb(0, 0, 0)" stroke="rgb(204, 204, 204)" stroke-width="1px"></line></g></g><g transform="translate(72, 0)" clip-path="url(#clip_0)"><clipPath id="clip_0"><rect width="257" height="177"></rect></clipPath><g><g><g><line x1="0" y1="0" x2="0" y2="177" fill="rgb(0, 0, 0)" stroke="rgb(66, 66, 66)" stroke-width="1px" opacity="0.25"></line><line x1="25.765625" y1="0" x2="25.765625" y2="177" fill="rgb(0, 0, 0)" stroke="rgb(66, 66, 66)" stroke-width="1px" opacity="0.25"></line><line x1="51.53125" y1="0" x2="51.53125" y2="177" fill="rgb(0, 0, 0)" stroke="rgb(66, 66, 66)" stroke-width="1px" opacity="0.25"></line><line x1="77.296875" y1="0" x2="77.296875" y2="177" fill="rgb(0, 0, 0)" stroke="rgb(66, 66, 66)" stroke-width="1px" opacity="0.25"></line><line x1="103.0625" y1="0" x2="103.0625" y2="177" fill="rgb(0, 0, 0)" stroke="rgb(66, 66, 66)" stroke-width="1px" opacity="0.25"></line><line x1="128.828125" y1="0" x2="128.828125" y2="177" fill="rgb(0, 0, 0)" stroke="rgb(66, 66, 66)" stroke-width="1px" opacity="0.25"></line><line x1="154.59375" y1="0" x2="154.59375" y2="177" fill="rgb(0, 0, 0)" stroke="rgb(66, 66, 66)" stroke-width="1px" opacity="0.25"></line><line x1="180.359375" y1="0" x2="180.359375" y2="177" fill="rgb(0, 0, 0)" stroke="rgb(66, 66, 66)" stroke-width="1px" opacity="0.25"></line><line x1="206.125" y1="0" x2="206.125" y2="177" fill="rgb(0, 0, 0)" stroke="rgb(66, 66, 66)" stroke-width="1px" opacity="0.25"></line><line x1="231.890625" y1="0" x2="231.890625" y2="177" fill="rgb(0, 0, 0)" stroke="rgb(66, 66, 66)" stroke-width="1px" opacity="0.25"></line><line x1="257.65625" y1="0" x2="257.65625" y2="177" fill="rgb(0, 0, 0)" stroke="rgb(66, 66, 66)" stroke-width="1px" opacity="0.25"></line></g><g><line x1="0" y1="177" x2="257.65625" y2="177" fill="rgb(0, 0, 0)" stroke="rgb(66, 66, 66)" stroke-width="1px" opacity="0.25"></line><line x1="0" y1="164.35714285714286" x2="257.65625" y2="164.35714285714286" fill="rgb(0, 0, 0)" stroke="rgb(66, 66, 66)" stroke-width="1px" opacity="0.25"></line><line x1="0" y1="151.71428571428572" x2="257.65625" y2="151.71428571428572" fill="rgb(0, 0, 0)" stroke="rgb(66, 66, 66)" stroke-width="1px" opacity="0.25"></line><line x1="0" y1="139.07142857142856" x2="257.65625" y2="139.07142857142856" fill="rgb(0, 0, 0)" stroke="rgb(66, 66, 66)" stroke-width="1px" opacity="0.25"></line><line x1="0" y1="126.42857142857143" x2="257.65625" y2="126.42857142857143" fill="rgb(0, 0, 0)" stroke="rgb(66, 66, 66)" stroke-width="1px" opacity="0.25"></line><line x1="0" y1="113.78571428571428" x2="257.65625" y2="113.78571428571428" fill="rgb(0, 0, 0)" stroke="rgb(66, 66, 66)" stroke-width="1px" opacity="0.25"></line><line x1="0" y1="101.14285714285714" x2="257.65625" y2="101.14285714285714" fill="rgb(0, 0, 0)" stroke="rgb(66, 66, 66)" stroke-width="1px" opacity="0.25"></line><line x1="0" y1="88.5" x2="257.65625" y2="88.5" fill="rgb(0, 0, 0)" stroke="rgb(66, 66, 66)" stroke-width="1px" opacity="0.25"></line><line x1="0" y1="75.85714285714286" x2="257.65625" y2="75.85714285714286" fill="rgb(0, 0, 0)" stroke="rgb(66, 66, 66)" stroke-width="1px" opacity="0.25"></line><line x1="0" y1="63.21428571428571" x2="257.65625" y2="63.21428571428571" fill="rgb(0, 0, 0)" stroke="rgb(66, 66, 66)" stroke-width="1px" opacity="0.25"></line><line x1="0" y1="50.57142857142857" x2="257.65625" y2="50.57142857142857" fill="rgb(0, 0, 0)" stroke="rgb(66, 66, 66)" stroke-width="1px" opacity="0.25"></line><line x1="0" y1="37.92857142857143" x2="257.65625" y2="37.92857142857143" fill="rgb(0, 0, 0)" stroke="rgb(66, 66, 66)" stroke-width="1px" opacity="0.25"></line><line x1="0" y1="25.285714285714295" x2="257.65625" y2="25.285714285714295" fill="rgb(0, 0, 0)" stroke="rgb(66, 66, 66)" stroke-width="1px" opacity="0.25"></line><line x1="0" y1="12.642857142857137" x2="257.65625" y2="12.642857142857137" fill="rgb(0, 0, 0)" stroke="rgb(66, 66, 66)" stroke-width="1px" opacity="0.25"></line><line x1="0" y1="0" x2="257.65625" y2="0" fill="rgb(0, 0, 0)" stroke="rgb(66, 66, 66)" stroke-width="1px" opacity="0.25"></line></g></g></g><g><g><line x1="0" y1="177" x2="257.65625" y2="177" fill="rgb(0, 0, 0)" stroke="rgb(153, 153, 153)" stroke-width="1.5px"></line></g></g><g><g><line x1="25.765625" y1="0" x2="25.765625" y2="177" fill="rgb(0, 0, 0)" stroke="rgb(153, 153, 153)" stroke-width="1.5px"></line></g></g><g><g><g><g><g><path stroke="rgb(204, 51, 17)" stroke-width="2px" d="M33.23765625,-1.4310627768501318L33.495312500000004,1.5705568587119156L33.75296875,4.9532499466652L34.010625000000005,7.570314036886491L34.26828125,10.457113414161292L34.525937500000005,12.51501201523511L34.78359375,14.446972630853866L35.041250000000005,16.267337084476573L35.29890625,16.821425620488903L35.556562500000005,18.508658424322483L35.81421875,19.356640961139963L36.071875000000006,19.68707236294234L36.329531249999995,18.310443577538177L36.5871875,16.20855015121736L36.844843749999995,16.456044013764377L37.1025,16.32446524055521L37.360156249999996,16.84505979447721L37.6178125,18.872949764876026L37.875468749999996,20.070281159175718L38.133125,22.675101696377617L38.390781249999996,24.079773106286577L38.6484375,26.35586110848165L38.90609375,27.31549176274806L39.16375,29.48138106490705L39.42140625,31.371326197539982L39.6790625,30.736799555019104L39.93671875,30.968681853547253L40.194375,31.168500650911867L40.45203125,30.100265848136267L40.7096875,31.18442059984169L40.96734375,33.23301714087611L41.225,33.95524464557477L41.48265625,34.772509161786864L41.7403125,33.711827588310946L41.99796875,35.6950025937232L42.255625,38.22486525601072L42.51328125,40.39704453725597L42.7709375,41.61227806163931L43.028593750000006,41.322223631068375L43.28625,42.83844466971247L43.543906250000006,44.38075845221809L43.8015625,45.084995494042914L44.05921875000001,46.84157829879739L44.316874999999996,48.21632813510991L44.57453125,48.65916373723226L44.832187499999996,50.0943201243148L45.08984375,51.513579431592234L45.3475,52.804199591154L45.60515625,54.27896621814105L45.8628125,56.27230783147056L46.12046875,58.25287060848055L46.378125,59.105678698793696L46.63578125,60.446967713835384L46.8934375,61.66760654906017L47.15109375,63.21519485856556L47.40875,65.51670163193621L47.66640625,67.83748606705235L47.9240625,70.50461970942786L48.18171875,73.21343400478618L48.439375,74.95439423029916L48.69703125,76.55019091178441L48.9546875,78.46925450940323L49.21234375,79.77712950530712L49.47,80.84747627670548L49.72765625,80.39006134498536L49.9853125,81.24299966273898L50.24296875,83.10250171937888L50.500625,84.96586312705145L50.75828125,86.79420420784359L51.0159375,88.53980965151976L51.27359375,90.28294675631365L51.53125,91.97626923961407L51.788906250000004,93.27770239198274L52.0465625,94.72908127405681L52.304218750000004,95.75990741747539L52.56187499999999,96.76372318932452L52.81953125,97.84661407542508L53.077187499999994,98.76303387494254L53.33484375,99.7242508669577L53.592499999999994,101.03309385513558L53.85015625,101.87965700713826L54.1078125,103.11762421265347L54.36546875,104.48059902884768L54.623125,105.39813470330193L54.88078125,106.46040785183607L55.1384375,107.28853813325566L55.39609375,108.34426392348018L55.65375,109.26818879493632L55.91140625,110.02732343321179L56.1690625,110.87151651388913L56.42671875,111.45595137736248L56.684375,112.13221062308324L56.94203125,112.43302675226792L57.1996875,113.59360485228152L57.45734375,113.80941819526957L57.715,114.50087441046533L57.97265625,115.04662146547562L58.230312500000004,115.6158550814338L58.48796875,115.9643756761622L58.745625000000004,116.34930276514206L59.00328125,116.66698883333191L59.260937500000004,116.95780653765259L59.51859375,117.39100501982928L59.776250000000005,117.6700427266018L60.03390625,118.12543914042536L60.291562500000005,118.4357922318138L60.549218749999994,118.53889335143484L60.806875,118.7654506959195L61.064531249999995,119.04612050648863L61.3221875,119.18244608144619L61.579843749999995,119.27416341477173L61.8375,119.74781560606172L62.095156249999995,120.23702739377096L62.3528125,119.96271393382116L62.610468749999995,119.95892256718446L62.868125,120.50913072711312L63.125781249999996,120.82545527778574L63.3834375,121.40926514490806L63.641093749999996,121.635758480081L63.89875,121.66524582465574L64.15640625,121.31268555457304L64.4140625,122.2279764450485L64.67171875,122.5612887008042L64.92937500000001,122.50189530823364L65.18703125,122.12697017531407L65.4446875,121.53280878801489L65.70234375,122.13596068087257L65.96000000000001,122.67533024501907L66.21765625,122.82707579768109L66.4753125,123.24309641331848L66.73296875,123.5256678717076L66.99062500000001,124.21103067559154L67.24828125,124.54050654535213L67.5059375,124.70007366772467L67.76359375,124.54504336358123L68.02125000000001,125.22038278607563L68.27890625,125.64284072947183L68.5365625,126.0740315948399L68.79421875,125.94480701842738L69.05187500000001,126.61687548302908L69.30953125,127.37965707169525L69.5671875,128.344546588511L69.82484375,128.40139913056197L70.08250000000001,128.16976063835392L70.34015625,126.8824705972283L70.5978125,127.09532578572258L70.85546875,126.93492775379964L71.11312500000001,128.41711075733L71.37078125000001,128.31504894253973L71.6284375,129.55565574317453L71.88609375,129.52982721404086L72.14375000000001,130.37286837432296L72.40140625000001,130.2921120332433L72.65906249999999,131.03357597936287L72.91671874999999,130.97303792160207L73.174375,131.7707917819791L73.43203125,131.72896952370758L73.68968749999999,132.52633476947005L73.94734374999999,132.36375087388907L74.205,133.14059485852707L74.46265625,133.01357500244882L74.72031249999999,133.96534991392744L74.97796874999999,134.19303288536818L75.235625,135.13303666760484L75.49328125,135.21950871582519L75.75093749999999,135.9401700732451L76.00859375,135.70747265813512L76.26625,136.220083343765L76.52390625,135.80698374823723L76.78156249999999,136.06095065979613L77.03921875,135.7499049644463L77.296875,135.60641018535028L77.55453125,135.2503037440924L77.8121875,134.7417273339973L78.06984375,134.31898840932695L78.3275,134.46009018043156L78.58515625,134.35226868171037L78.8428125,134.60111462699496L79.10046875,134.69739997736886L79.358125,134.91311275951006L79.61578125,135.08777043542142L79.8734375,135.32171756782373L80.13109375,135.4337443642852L80.38875,135.57611383222903L80.64640625,135.54539623948807L80.9040625,135.69497277264094L81.16171875,135.67524500740433L81.419375,135.99541298693424L81.67703125,135.97131196626768L81.9346875,136.19116862332925L82.19234375,136.19964808213092L82.45,136.50872609641863L82.70765625,136.4490524128735L82.9653125,136.64769665419732L83.22296875,136.64564943434317L83.480625,136.96882644562265L83.73828125,136.87618180138588L83.9959375,137.0728209408343L84.25359375000001,137.06915550744142L84.51125,137.37248373066464L84.76890625,137.2434836640405L85.0265625,137.49162947890702L85.28421875000001,137.49049724475213L85.541875,137.68252887663644L85.79953125,137.6392892724802L86.05718750000001,137.75701911140942L86.31484375000001,137.79004945338306L86.5725,137.87173925803708L86.83015625,137.6071880599143L87.08781250000001,137.5444887305496L87.34546875000001,137.15791115127618L87.603125,137.06618889047274L87.86078125,137.0651083712535L88.11843750000001,137.03029100977778L88.37609375000001,137.0604319300854L88.63374999999999,137.14796731409197L88.89140624999999,137.1619874022666L89.1490625,137.21808796661105L89.40671875,137.30853313013407L89.66437499999999,137.34874832220711L89.92203124999999,137.41932049165015L90.1796875,137.49326939285558L90.43734375,137.52893750938802L90.695,137.56312785161495L90.95265624999999,137.56612385975524L91.2103125,137.55167033112937L91.46796875,137.4992158391631L91.725625,137.47036369713626L91.98328124999999,137.43145985646535L92.2409375,137.48073372812308L92.49859375,137.58213176519416L92.75625,137.81070450903277L93.01390624999999,138.08388696497605L93.2715625,138.44358015610615L93.52921875,138.7752174208819L93.786875,139.1405786685587L94.04453124999999,139.43261222450298L94.3021875,139.74554875385635L94.55984375,139.97373478733056L94.8175,140.2503382496305L95.07515624999999,140.41479867906122L95.3328125,140.67523467618673L95.59046875,140.78336946084596L95.848125,141.03084022770736L96.10578124999999,141.094403184476L96.3634375,141.3376293374434L96.62109375,141.36516016559384L96.87875,141.6113922157765L97.13640625000001,141.59775753579962L97.3940625,141.84482909946524L97.65171875,141.7784166334375L97.909375,142.0210718829643L98.16703125000001,141.908606909773L98.4246875,142.15397690744305L98.68234375,142.00455784507966L98.94,142.26578118967893L99.19765625000001,142.07853132715837L99.4553125,142.36492218461814L99.71296875,142.13484440661352L99.970625,142.45629892563662L100.22828125000001,142.18232888977093L100.4859375,142.54496819567896L100.74359375,142.2357557761546L101.00125,142.63365636399072L101.25890625000001,142.30319960801498L101.5165625,142.72172166213042L101.77421875,142.38369349358126L102.031875,142.80789100546795L102.28953125000001,142.46283991508324L102.5471875,142.88137141208006L102.80484375,142.52810247545676L103.0625,142.9320482702908L103.32015625000001,142.57324572940382L103.57781250000001,142.96433211607422L103.83546875,142.6291494492623L104.093125,142.99333853779117L104.35078125000001,142.67004413829972L104.60843750000001,143.01532579066676L104.86609374999999,142.81168680740788L105.12374999999999,142.87663529698656L105.38140625,142.90508668181917L105.6390625,143.2043315152299L105.89671874999999,143.43634503776516L106.15437499999999,143.21266672899282L106.41203125,143.53272599651956L106.6696875,143.18471771635484L106.92734374999999,143.23260040520353L107.18499999999999,143.25727109342904L107.44265625,143.30371768884203L107.7003125,143.3188980327388L107.95796874999999,143.37218987642342L108.215625,143.24518784465985L108.47328125,143.32473668663687L108.7309375,143.15429182364505L108.98859374999999,143.33951718054306L109.24625,143.38795357702003L109.50390625,143.51374592725276L109.7615625,143.94555329016862L110.01921875,143.90499180773676L110.276875,143.90976034343115L110.53453125,144.281537628701L110.7921875,144.4171889520811L111.04984375,144.16903669888538L111.3075,144.68642021443446L111.56515625,144.61648274389506L111.8228125,144.35270849399328L112.08046875,144.8805342368466L112.338125,144.90813081432475L112.59578125,144.53003700561493L112.8534375,145.02150628627214L113.11109375,145.0778403518763L113.36875,144.53680980194608L113.62640625,145.04835164567658L113.8840625,145.29168358174886L114.14171875,144.6976025737145L114.399375,145.2702203141087L114.65703125,145.47965042925765L114.9146875,145.22527659003924L115.17234375,145.6922935000615L115.43,145.701378253706L115.68765625,145.33576541570713L115.9453125,145.86837917565893L116.20296875,145.96107203926115L116.46062500000001,145.60119735738064L116.71828125,146.14471980951765L116.9759375,146.16436900380492L117.23359375,145.7628457413594L117.49125000000001,146.21146367476123L117.74890625,146.33167960081795L118.0065625,146.07766680938863L118.26421875000001,146.46812338798392L118.52187500000001,146.50834444817818L118.77953125,146.39788281985557L119.0371875,146.6569664996003L119.29484375000001,146.6999759943821L119.55250000000001,146.48080164102797L119.81015625,146.83560486854535L120.0678125,146.90122730536967L120.32546875000001,146.74612809813533L120.58312500000001,146.99122101781674L120.84078124999999,147.11664485957397L121.09843749999999,146.8350031292977L121.35609375,147.0753383077195L121.61375,147.07765760499302L121.87140624999999,147.29325625384405L122.12906249999999,147.16643785264822L122.38671875,147.3204500528975L122.644375,147.16668588169668L122.90203125,147.22869971348368L123.15968749999999,147.41917873399143L123.41734375,147.5999962497071L123.675,147.53737374382536L123.93265625,147.5555626173541L124.19031249999999,147.7666943819359L124.44796875,147.79479866389926L124.705625,147.93754887171426L124.96328125,148.1123024335545L125.22093749999999,147.95414780011598L125.47859375,148.23620492326853L125.73625,147.97242828494603L125.99390625,148.10827695213393L126.25156249999999,148.17476272802563L126.50921875,148.25401342033237L126.766875,148.35473961260678L127.02453125,148.5048783439801L127.28218749999999,148.42679939059565L127.53984375,148.53253056209178L127.7975,148.50053822599668L128.05515625,148.51255179127602L128.3128125,148.47173188914897L128.57046875,148.47782772950643L128.828125,148.4080086581419L129.08578125,148.37783871190524L129.3434375,148.30736889399583L129.60109375,148.26796529042932L129.85875000000001,148.21599630682596L130.11640625,148.23302429776743L130.3740625,148.27745721346096L130.63171875,148.41000166310727L130.889375,148.5824360477388L131.14703125,148.82131121622L131.4046875,149.0617318242493L131.66234375,149.31457355325495L131.92000000000002,149.52975601201015L132.17765625,149.70586027747675L132.4353125,149.82439256157534L132.69296875,149.89199162476606L132.950625,149.8956125294425L133.20828125,149.83393648303243L133.4659375,149.71250058349273L133.72359375,149.46318846480685L133.98125000000002,149.3112615242315L134.23890625,148.78968181949844L134.4965625,148.4763088126812L134.75421875,148.43100869807887L135.011875,148.55208665544052L135.26953125,148.76262422052434L135.5271875,149.11972365863994L135.78484375,149.39079901277603L136.04250000000002,149.69764718459086L136.30015625000001,149.98082163943755L136.5578125,150.07771504699957L136.81546875,150.13760430024215L137.073125,150.2306251673384L137.33078125,150.3155824673464L137.5884375,150.47197160739583L137.84609375,150.55354343371067L138.10375000000002,150.6793267656184L138.36140625000002,150.728413751719L138.6190625,150.809354102559L138.87671875,150.76773378198743L139.134375,150.88256455072147L139.39203125,150.89334784734137L139.6496875,150.98160593740872L139.90734375000002,150.9642094338529L140.16500000000002,151.04561821576652L140.42265625000002,151.01760781562064L140.6803125,151.0911890528629L140.93796875,151.06605904329L141.195625,151.12060317761322L141.45328125,151.04825442801743L141.7109375,151.15227598619103L141.96859375000003,151.15767491352685L142.22625000000002,151.19223204075004L142.48390625000002,151.12580746001086L142.74156250000001,151.2559699714376L142.99921875,151.27400078866614L143.256875,151.34504956028812L143.51453125,151.35388788611007L143.7721875,151.43460046237897L144.02984375000003,151.43676397877363L144.28750000000002,151.4783951487388L144.54515625000002,151.48787276952368L144.80281250000002,151.53484077074043L145.06046874999998,151.55446541912676L145.31812499999998,151.59710192865236L145.57578124999998,151.63373398782758L145.83343749999997,151.68156919344293L146.09109375,151.72678767259478L146.34875,151.77332752124659L146.60640625,151.82321052380405L146.8640625,151.8673782011407L147.12171874999999,151.9158162944637L147.37937499999998,151.95538065453815L147.63703124999998,151.99979200879432L147.89468749999997,152.03333050574395L148.15234375,152.06968004434341L148.41,152.0924728607648L148.66765625,152.1118750302842L148.9253125,152.1210122993159L149.18296875,152.0974478816473L149.44062499999998,151.98553466439574L149.69828124999998,151.80029284889554L149.95593749999998,151.4157621787151L150.21359375,150.59710384827957L150.47125,148.96941985814465L150.72890625,150.56941665051735L150.9865625,151.06150091630093L151.24421875,150.6064699772708L151.50187499999998,147.7674043775455L151.75953124999998,144.70125268512106L152.0171875,142.2302321408578L152.27484375,142.76980561403477L152.5325,144.03059190811115L152.79015625,145.20652118228995L153.0478125,145.69915185819514L153.30546875,145.45282672544303L153.56312499999999,144.99278841633446L153.82078124999998,145.5972774635144L154.0784375,147.26667005825652L154.33609375,148.26208913212187L154.59375,148.51188964434706L154.85140625,148.10944439015876L155.1090625,147.74281804487927L155.36671875,147.4550288657808L155.624375,148.11619052416296L155.88203124999998,148.64259718367327L156.1396875,149.3134103827835L156.39734375,149.76852157146695L156.655,150.17940885439666L156.91265625,150.27080000188184L157.1703125,150.37060310467962L157.42796875,150.36589172643778L157.685625,150.5221562429637L157.94328124999998,150.21266691908315L158.2009375,149.772112184095L158.45859375,149.24268369229293L158.71625,149.56336278757163L158.97390625,149.69830944674777L159.2315625,150.09682351071748L159.48921875,150.67172929058225L159.746875,151.47681210612254L160.00453124999999,152.02101343729237L160.2621875,152.38333920251213L160.51984375,152.58689959171514L160.7775,152.6859925513112L161.03515625,152.54444202300908L161.2928125,152.4633630549048L161.55046875,151.93354322356788L161.808125,151.29874804804976L162.06578125000001,150.5603460055179L162.3234375,149.27098494706075L162.58109375,146.56337384874706L162.83875,145.2234582168933L163.09640625,145.38926474947192L163.3540625,145.95195613187485L163.61171875,146.4023635507767L163.869375,147.1520766300475L164.12703125000002,147.7218511154448L164.3846875,148.2559954218129L164.64234375,148.873246532001L164.9,149.3549676204771L165.15765625,149.84326803043356L165.4153125,150.38634288089966L165.67296875,150.88404468553617L165.930625,151.26617313613335L166.18828125000002,151.71404801532958L166.4459375,152.04067435799098L166.70359375,152.36623559100832L166.96125,152.69820145941108L167.21890625,153.07630009579174L167.4765625,153.22954534678166L167.73421875,153.3542517267632L167.991875,153.49427917675266L168.24953125000002,153.35914533023546L168.50718750000001,153.234167670379L168.76484375,152.95767859382198L169.0225,152.62788019706468L169.28015625,152.56036210348574L169.5378125,152.5239857949807L169.79546875,152.3798667577501L170.053125,152.33280857829683L170.31078125000002,152.38709331522588L170.56843750000002,152.3344004942276L170.82609375,152.3246165712994L171.08375,152.36548790368226L171.34140625,152.30690151121743L171.5990625,152.32002078954298L171.85671875,152.3510999937802L172.11437500000002,152.3293843615025L172.37203125000002,152.3417734217285L172.62968750000002,152.42385403978375L172.88734375,152.4262179676063L173.145,152.48401217007273L173.40265625,152.5744711317381L173.6603125,152.64870623425352L173.91796875,152.70073161408726L174.17562500000003,152.82754070097886L174.43328125000002,152.93066276112862L174.69093750000002,153.03328961137163L174.94859375000001,153.158806138126L175.20625,153.29149659965853L175.46390625,153.40861349237045L175.7215625,153.54959766521162L175.97921875,153.62410876217803L176.23687500000003,153.76868272556854L176.49453125000002,153.8151333980713L176.75218750000002,153.9284835291818L177.00984375000002,153.93194666745327L177.26749999999998,154.013042407559L177.52515624999998,153.90580780537528L177.78281249999998,153.75445480215652L178.04046874999997,153.03638937299314L178.298125,151.2132307795576L178.55578125,149.30537530070748L178.8134375,149.85414587395826L179.07109375,150.5737950151325L179.32874999999999,152.1387877687056L179.58640624999998,152.98389261274403L179.84406249999998,153.9208041737778L180.10171874999997,154.44506189356636L180.359375,154.2094415768834L180.61703125,154.57618430299388L180.8746875,154.67013163718138L181.13234375,154.8904798394168L181.39,154.45614152826644L181.64765624999998,154.8997597286228L181.90531249999998,154.51172066610084L182.16296874999998,154.99339536701544L182.420625,154.5134306571861L182.67828125,155.0413845138708L182.9359375,154.60403941367963L183.19359375,155.12986865989163L183.45125,154.6193795830374L183.70890624999998,155.1027060274103L183.96656249999998,154.56472130321376L184.22421875,155.00909971918412L184.481875,154.48270154816782L184.73953125,154.89712345750004L184.9971875,154.38146094670984L185.25484375,154.81753364636015L185.5125,154.30230286342297L185.77015624999999,154.80744572649405L186.02781249999998,154.30731569813835L186.28546875,154.88956542683502L186.543125,154.3830106576426L186.80078125,155.02976987812352L187.0584375,154.47337681945223L187.31609375,155.11554424527066L187.57375,154.45301775722797L187.83140625,155.06446961604158L188.08906249999998,154.3563297929578L188.34671875,154.94758081732044L188.604375,154.18101556628514L188.86203125,154.73323960623313L189.1196875,153.93975097547954L189.37734375,154.52174317213203L189.635,153.72113606964362L189.89265625,154.27239237438243L190.15031249999998,153.40873105712808L190.40796875,153.8567390048474L190.665625,152.76538948968303L190.92328125,152.92954508209803L191.1809375,151.61687828129706L191.43859375,151.19826227064067L191.69625,150.62928963341537L191.95390625,150.72163460594206L192.21156249999999,151.2082174971381L192.46921875,151.9462106888869L192.726875,152.01528763595354L192.98453125,152.66122195465385L193.2421875,152.70318899641816L193.49984375,153.13447547932412L193.7575,153.04316430893934L194.01515625,153.4107110766443L194.27281250000001,153.68402831311826L194.53046875,154.13061784149122L194.788125,153.9828257394232L195.04578125,154.21851183682494L195.3034375,154.33074013257766L195.56109375,154.5027533926395L195.81875,154.40600141389703L196.07640625,154.4250034405885L196.33406250000002,154.79782415559194L196.59171875,155.13065382650248L196.849375,155.0919360799068L197.10703125,155.1796938832259L197.3646875,155.28990041894224L197.62234375,155.3638790549019L197.88,155.265632059406L198.13765625,155.15819128223956L198.39531250000002,155.3931142104361L198.65296875,155.49294781528928L198.910625,155.4631418755575L199.16828125,155.46361607364642L199.4259375,155.58934607066666L199.68359375,155.66989476485398L199.94125,155.564845999363L200.19890625,155.3836279408915L200.45656250000002,155.4806128432877L200.71421875000001,155.31804610301504L200.971875,155.31128631049066L201.22953125,155.13400461797687L201.4871875,155.5994069647733L201.74484375,155.96331322880818L202.0025,155.8805341321789L202.26015625,155.7407855453997L202.51781250000002,155.75630983693569L202.77546875000002,155.61644039522085L203.033125,155.6147405145111L203.29078125,155.34334293105601L203.5484375,155.50045185151168L203.80609375,155.33225753930404L204.06375,155.66735207345687L204.32140625000002,155.7405495671768L204.57906250000002,156.0098202013831L204.83671875000002,156.2034133654239L205.094375,156.29977158667202L205.35203125,156.27180970318904L205.6096875,156.22183504153537L205.86734375,156.0574620129932L206.125,156.21210431786847L206.38265625000003,156.13130429081176L206.64031250000002,156.18604212212935L206.89796875000002,156.06908965054464L207.15562500000001,156.40219243778773L207.41328125,156.5718205198713L207.6709375,156.5578354367484L207.92859375,156.62322962595806L208.18625,156.68261877969036L208.44390625000003,156.64353409740406L208.70156250000002,156.69786494783975L208.95921875000002,156.7970282861564L209.21687500000002,156.94238104291315L209.47453124999998,157.1196522193235L209.73218749999998,157.02717389559385L209.98984374999998,156.87287831196568L210.24749999999997,156.89457359275278L210.50515625,156.85642361209L210.7628125,157.08946968500652L211.02046875,157.35426978010267L211.278125,157.29065669489614L211.53578124999999,157.28104098959395L211.79343749999998,157.25194277874522L212.05109374999998,157.2564452605786L212.30874999999997,157.30725195684937L212.56640625,157.37176689763783L212.8240625,157.41429094302606L213.08171875,157.55163338626764L213.339375,157.54130784722514L213.59703125,157.59096672824998L213.85468749999998,157.5915501428024L214.11234374999998,157.60848236665242L214.36999999999998,157.59755381033742L214.62765625,157.6489266430663L214.8853125,157.77607650585932L215.14296875,158.02045453650246L215.400625,157.83494862086215L215.65828125,157.70917492638867L215.91593749999998,157.83901129477013L216.17359374999998,158.07801463034284L216.43125,158.0455339935726L216.68890625,158.15890132876075L216.9465625,158.04604645957508L217.20421875,158.11206585966664L217.461875,158.17284332788145L217.71953125,158.4173289476915L217.97718749999999,158.22382375149715L218.23484374999998,158.2276410352175L218.4925,158.1880272480836L218.75015625,158.2847303415957L219.0078125,158.20604513157573L219.26546875,158.3576974132437L219.523125,158.39523520820012L219.78078125,158.65119777862404L220.0384375,158.40998080881087L220.29609374999998,158.33637441493914L220.55375,158.37669795305808L220.81140625,158.63042197443667L221.0690625,158.538670233525L221.32671875,158.7466082113692L221.584375,158.6170384436672L221.84203125,158.7468164587087L222.0996875,158.66303233215183L222.35734374999998,158.86014716679946L222.615,158.6629094932298L222.87265625,158.7001610750534L223.1303125,158.67707444131412L223.38796875,158.91606957236382L223.645625,158.7987231555974L223.90328125,158.95928974924573L224.1609375,158.8331458230756L224.41859374999999,158.98343587728567L224.67625,158.89630896289484L224.93390625,159.11975111957562L225.1915625,158.9692788202875L225.44921875,159.1286077584811L225.706875,159.0122945073836L225.96453125,159.22804807806995L226.2221875,159.07990524105932L226.47984375000001,159.27959753742297L226.7375,159.13001295186228L226.99515625,159.33894121227948L227.2528125,159.18249919217655L227.51046875,159.4081686132063L227.768125,159.23896722976113L228.02578125,159.4605160015704L228.2834375,159.28572472719782L228.54109375000002,159.52046778658377L228.79875,159.3337290449274L229.05640625,159.57759102541485L229.3140625,159.39312202421934L229.57171875,159.65511630883964L229.829375,159.44810074756663L230.08703125,159.71123324255504L230.3446875,159.49916332461368L230.60234375000002,159.77395944670738L230.86,159.54058249001102L231.11765625,159.82827519242318L231.3753125,159.5725191141286L231.63296875,159.84642860889286" style="fill: none;" fill="none"></path></g></g></g></g><g opacity="0.2"><g><g><g><path stroke="rgb(204, 51, 17)" stroke-width="2px" d="M32.980000000000004,-0.3581731305803486L33.23765625,2.5595612444196507L33.495312500000004,6.072985316685268L33.75296875,10.027288905552464L34.010625000000005,11.495909859793525L34.26828125,14.787312273297998L34.525937500000005,15.601859828404008L34.78359375,17.344913504464284L35.041250000000005,18.99788373674665L35.29890625,17.65255841936383L35.556562500000005,21.03950762067522L35.81421875,20.62861476353236L36.071875000000006,20.182719464983254L36.329531249999995,16.24550040108817L36.5871875,13.05571001325334L36.844843749999995,16.827284807477685L37.1025,16.127097080775677L37.360156249999996,17.625951625279015L37.6178125,21.9147847202846L37.875468749999996,21.86627825055804L38.133125,26.58233250209264L38.390781249999996,26.186780221121655L38.6484375,29.769993111746658L38.90609375,28.754937744140634L39.16375,32.73021501813616L39.42140625,34.20624389648437L39.6790625,29.78500959123884L39.93671875,31.31650530133929L40.194375,31.468228846958695L40.45203125,28.49791364397322L40.7096875,32.81065272739956L40.96734375,36.30591195242746L41.225,35.03858590262278L41.48265625,35.99840593610491L41.7403125,32.12080522809709L41.99796875,38.66976510184151L42.255625,42.019659249441965L42.51328125,43.655313459123875L42.7709375,43.43512834821429L43.028593750000006,40.88714198521206L43.28625,45.11277622767858L43.543906250000006,46.69422912597656L43.8015625,46.14135105678013L44.05921875000001,49.47645250592912L44.316874999999996,50.27845288957869L44.57453125,49.32341714041574L44.832187499999996,52.24705470493861L45.08984375,53.64246839250837L45.3475,54.74012983049664L45.60515625,56.491116158621644L45.8628125,59.26232025146484L46.12046875,61.22371477399553L46.378125,60.38489083426339L46.63578125,62.458901236397885L46.8934375,63.498564801897324L47.15109375,65.53657732282366L47.40875,68.9689617919922L47.66640625,71.31866271972658L47.9240625,74.50532017299108L48.18171875,77.27665544782366L48.439375,77.56583456856863L48.69703125,78.94388593401227L48.9546875,81.34784990583148L49.21234375,81.73894199916295L49.47,82.45299643380302L49.72765625,79.70393894740512L49.9853125,82.52240713936942L50.24296875,85.89175480433873L50.500625,87.76090523856027L50.75828125,89.53671582903182L51.0159375,91.15821781703403L51.27359375,92.89765241350447L51.53125,94.51625296456474L51.788906250000004,95.22985212053571L52.0465625,96.90614959716797L52.304218750000004,97.30614663260323L52.56187499999999,98.26944684709822L52.81953125,99.4709504045759L53.077187499999994,100.13766357421875L53.33484375,101.16607635498049L53.592499999999994,102.99635833740234L53.85015625,103.14950173514231L54.1078125,104.97457502092634L54.36546875,106.52506125313896L54.623125,106.77443821498326L54.88078125,108.05381757463728L55.1384375,108.53073355538505L55.39609375,109.92785260881696L55.65375,110.65407610212053L55.91140625,111.166025390625L56.1690625,112.13780613490515L56.42671875,112.33260367257253L56.684375,113.14659949166433L56.94203125,112.8842509460449L57.1996875,115.3344720023019L57.45734375,114.13313820975166L57.715,115.53805873325894L57.97265625,115.86524204799107L58.230312500000004,116.46970550537108L58.48796875,116.48715656825475L58.745625000000004,116.92669339861189L59.00328125,117.14351793561664L59.260937500000004,117.39403309413366L59.51859375,118.04080274309432L59.776250000000005,118.0885992867606L60.03390625,118.8085337611607L60.291562500000005,118.90132186889649L60.549218749999994,118.69354503086635L60.806875,119.10528671264649L61.064531249999995,119.46712522234236L61.3221875,119.38693444388254L61.579843749999995,119.41173941476004L61.8375,120.45829389299665L62.095156249999995,120.97084507533482L62.3528125,119.55124374389648L62.610468749999995,119.95323551722934L62.868125,121.33444296700614L63.125781249999996,121.29994210379463L63.3834375,122.28497994559152L63.641093749999996,121.97549848284041L63.89875,121.70947684151785L64.15640625,120.78384514944895L64.4140625,123.60091278076172L64.67171875,123.06125708443777L64.92937500000001,122.4128052193778L65.18703125,121.5645824759347L65.4446875,120.64156670706613L65.70234375,123.04068852015904L65.96000000000001,123.48438459123882L66.21765625,123.05469412667412L66.4753125,123.86712733677456L66.73296875,123.94952505929128L66.99062500000001,125.23907488141741L67.24828125,125.03472034999301L67.5059375,124.93942435128348L67.76359375,124.31249790736607L68.02125000000001,126.23339191981725L68.27890625,126.27652764456613L68.5365625,126.72081789289203L68.79421875,125.7509701538086L69.05187500000001,127.62497817993165L69.30953125,128.5238294546945L69.5671875,129.79188086373463L69.82484375,128.4866779436384L70.08250000000001,127.82230290004185L70.34015625,124.9515355355399L70.5978125,127.41460856846402L70.85546875,126.69433070591519L71.11312500000001,130.64038526262556L71.37078125000001,128.16195622035434L71.6284375,131.41656594412666L71.88609375,129.4910844203404L72.14375000000001,131.63743011474608L72.40140625000001,130.17097752162388L72.65906249999999,132.14577189854214L72.91671874999999,130.88223083496095L73.174375,132.96742257254465L73.43203125,131.66623613630023L73.68968749999999,133.72238263811383L73.94734374999999,132.1198750305176L74.205,134.30586083548408L74.46265625,132.82304521833146L74.72031249999999,135.39301228114536L74.97796874999999,134.5345573425293L75.235625,136.54304234095983L75.49328125,135.3492167881557L75.75093749999999,137.021162109375L76.00859375,135.35842653547013L76.26625,136.9889993722098L76.52390625,135.1873343549456L76.78156249999999,136.4419010271345L77.03921875,135.2833364214216L77.296875,135.3911680167062L77.55453125,134.71614408220563L77.8121875,133.97886271885463L78.06984375,133.68488002232144L78.3275,134.67174283708846L78.58515625,134.19053643362864L78.8428125,134.97438354492186L79.10046875,134.8418280029297L79.358125,135.23668193272184L79.61578125,135.3497569492885L79.8734375,135.67263826642719L80.13109375,135.6017845589774L80.38875,135.78966803414482L80.64640625,135.49931985037668L80.9040625,135.91933757237024L81.16171875,135.64565335954939L81.419375,136.47566495622908L81.67703125,135.93516043526785L81.9346875,136.5209536089216L82.19234375,136.21236727033343L82.45,136.97234311785016L82.70765625,136.35954188755582L82.9653125,136.94566301618303L83.22296875,136.64257860456195L83.480625,137.45359196254185L83.73828125,136.7372148350307L83.9959375,137.36777965000698L84.25359375000001,137.0636573573521L84.51125,137.82747606549944L84.76890625,137.04998356410437L85.0265625,137.86384820120674L85.28421875000001,137.4887988935198L85.541875,137.97057632446288L85.79953125,137.57442986624582L86.05718750000001,137.93361386980328L86.31484375000001,137.83959496634347L86.5725,137.99427396501815L86.83015625,137.2103612627302L87.08781250000001,137.45043973650252L87.34546875000001,136.57804478236608L87.603125,136.92860549926758L87.86078125,137.06348759242468L88.11843750000001,136.97806496756417L88.37609375000001,137.10564331054687L88.63374999999999,137.27927039010183L88.89140624999999,137.18301753452846L89.1490625,137.3022388131278L89.40671875,137.44420087541852L89.66437499999999,137.4090711103167L89.92203124999999,137.52517874581474L90.1796875,137.60419274466378L90.43734375,137.58243968418665L90.695,137.61441336495537L90.95265624999999,137.57061787196568L91.2103125,137.52999003819056L91.46796875,137.42053410121372L91.725625,137.42708548409598L91.98328124999999,137.37310409545898L92.2409375,137.55464453560967L92.49859375,137.73422882080078L92.75625,138.15356362479073L93.01390624999999,138.49366064889088L93.2715625,138.98311994280135L93.52921875,139.2726733180455L93.786875,139.68862054007394L94.04453124999999,139.87066255841938L94.3021875,140.21495354788644L94.55984375,140.31601383754185L94.8175,140.66524344308036L95.07515624999999,140.66148932320732L95.3328125,141.065888671875L95.59046875,140.94557163783483L95.848125,141.40204637799943L96.10578124999999,141.18974761962892L96.3634375,141.70246856689454L96.62109375,141.40645640781946L96.87875,141.98074029105052L97.13640625000001,141.57730551583424L97.3940625,142.21543644496373L97.65171875,141.67879793439593L97.909375,142.38505475725447L98.16703125000001,141.73990944998607L98.4246875,142.52203190394812L98.68234375,141.7804292515346L98.94,142.65761620657784L99.19765625000001,141.7976565333775L99.4553125,142.79450847080776L99.71296875,141.7897277396066L99.970625,142.93848070417133L100.22828125000001,141.77137383597238L100.4859375,143.088927154541L100.74359375,141.77193714686803L101.00125,143.23050724574497L101.25890625000001,141.80751447405135L101.5165625,143.34950474330356L101.77421875,141.87665124075752L102.031875,143.44418727329798L102.28953125000001,141.94526327950615L102.5471875,143.50916865757534L102.80484375,141.99819907052176L103.0625,143.53796696254184L103.32015625000001,142.03504191807338L103.57781250000001,143.5509616960798L103.83546875,142.12637544904436L104.093125,143.53962217058455L104.35078125000001,142.1851025390625L104.60843750000001,143.53324826921735L104.86609374999999,142.50622833251953L105.12374999999999,142.97405803135462L105.38140625,142.94776375906807L105.6390625,143.653198765346L105.89671874999999,143.7843653215681L106.15437499999999,142.87714926583428L106.41203125,144.0128148978097L106.6696875,142.6627052961077L106.92734374999999,143.30442443847656L107.18499999999999,143.2942771257673L107.44265625,143.3733875819615L107.7003125,143.34166854858398L107.95796874999999,143.45212764195034L108.215625,143.05468479701452L108.47328125,143.4440599496024L108.7309375,142.89862452915736L108.98859374999999,143.6173552158901L109.24625,143.4606081717355L109.50390625,143.70243445260184L109.7615625,144.5932643345424L110.01921875,143.84414958408902L110.276875,143.91691314697266L110.53453125,144.83920355660572L110.7921875,144.62066593715124L111.04984375,143.7968083190918L111.3075,145.4624954877581L111.56515625,144.51157653808593L111.8228125,143.95704711914064L112.08046875,145.67227285112654L112.338125,144.949525680542L112.59578125,143.96289629255023L112.8534375,145.75871020725793L113.11109375,145.1623414502825L113.36875,143.7252639770508L113.62640625,145.81566441127234L113.8840625,145.65668148585726L114.14171875,143.80648106166296L114.399375,146.12914692470005L114.65703125,145.79379560198103L114.9146875,144.84371583121163L115.17234375,146.39281886509485L115.43,145.7150053841727L115.68765625,144.78734615870883L115.9453125,146.66729981558663L116.20296875,146.1001113346645L116.46062500000001,145.06138533455984L116.71828125,146.9600034877232L116.9759375,146.19384279523578L117.23359375,145.16056084769113L117.49125000000001,146.884390574864L117.74890625,146.51200348990304L118.0065625,145.6966476222447L118.26421875000001,147.05380825587682L118.52187500000001,146.5686760384696L118.77953125,146.23219037737167L119.0371875,147.04559201921737L119.29484375000001,146.76449023655482L119.55250000000001,146.15204011099678L119.81015625,147.36780970982142L120.0678125,146.99966096060615L120.32546875000001,146.51347928728376L120.58312500000001,147.35886039733887L120.84078124999999,147.30478062220982L121.09843749999999,146.41254053388323L121.35609375,147.43584107535224L121.61375,147.08113655090332L121.87140624999999,147.61665422712053L122.12906249999999,146.9762102508545L122.38671875,147.55146835327147L122.644375,146.9360396248954L122.90203125,147.3217204611642L123.15968749999999,147.70489726475307L123.41734375,147.87122252328055L123.675,147.44343998500278L123.93265625,147.58284592764718L124.19031249999999,148.0833920288086L124.44796875,147.8369550868443L124.705625,148.1516741834368L124.96328125,148.37443277631488L125.22093749999999,147.71691584995816L125.47859375,148.65929060799735L125.73625,147.57676332746232L125.99390625,148.31204995291574L126.25156249999999,148.27449139186314L126.50921875,148.37288945879254L126.766875,148.50582890101842L127.02453125,148.73008644104004L127.28218749999999,148.30968096051896L127.53984375,148.69112731933595L127.7975,148.45254972185407L128.05515625,148.53057213919504L128.3128125,148.41050203595842L128.57046875,148.48697149004255L128.828125,148.30328005109513L129.08578125,148.33258379255022L129.3434375,148.2016641671317L129.60109375,148.2088598850795L129.85875000000001,148.1380428314209L130.11640625,148.2585662841797L130.3740625,148.34410658700125L130.63171875,148.60881833757674L130.889375,148.8410876246861L131.14703125,149.17962396894183L131.4046875,149.42236273629325L131.66234375,149.6938361467634L131.92000000000002,149.85252970014298L132.17765625,149.97001667567662L132.4353125,150.00219098772322L132.69296875,149.99339021955217L132.950625,149.9010438864572L133.20828125,149.74142241341727L133.4659375,149.53034673418318L133.72359375,149.08922028677804L133.98125000000002,149.08337111336846L134.23890625,148.00731226239884L134.4965625,148.00624930245536L134.75421875,148.36305852617537L135.011875,148.733703591483L135.26953125,149.0784305681501L135.5271875,149.65537281581334L135.78484375,149.7974120439802L136.04250000000002,150.15791944231307L136.30015625000001,150.40558332170758L136.5578125,150.22305515834262L136.81546875,150.22743818010602L137.073125,150.3701564679827L137.33078125,150.4430184173584L137.5884375,150.70655531747002L137.84609375,150.6759011731829L138.10375000000002,150.86800176348007L138.36140625000002,150.80204423086983L138.6190625,150.93076462881905L138.87671875,150.70530330113002L139.134375,151.05481070382254L139.39203125,150.90952279227122L139.6496875,151.11399307250977L139.90734375000002,150.93811467851913L140.16500000000002,151.167731388637L140.42265625000002,150.97559221540178L140.6803125,151.2015609087263L140.93796875,151.02836402893067L141.195625,151.20241937909807L141.45328125,150.93973130362374L141.7109375,151.30830832345143L141.96859375000003,151.16577330453055L142.22625000000002,151.24406773158483L142.48390625000002,151.02617058890206L142.74156250000001,151.4512137385777L142.99921875,151.30104701450892L143.256875,151.4516227177211L143.51453125,151.36714537484306L143.7721875,151.55566932678224L144.02984375000003,151.44000925336564L144.28750000000002,151.54084190368653L144.54515625000002,151.50208920070105L144.80281250000002,151.60529277256558L145.06046874999998,151.5839023917062L145.31812499999998,151.66105669294083L145.57578124999998,151.6886820765904L145.83343749999997,151.75332200186594L146.09109375,151.79461539132254L146.34875,151.84313729422433L146.60640625,151.89803502764022L146.8640625,151.93362971714566L147.12171874999999,151.98847343444825L147.37937499999998,152.01472719464982L147.63703124999998,152.06640904017857L147.89468749999997,152.0836382511684L148.15234375,152.1242043522426L148.41,152.1266620853969L148.66765625,152.14097828456332L148.9253125,152.1347182028634L149.18296875,152.0621012551444L149.44062499999998,151.81766483851843L149.69828124999998,151.52243012564523L149.95593749999998,150.83896617344448L150.21359375,149.36911635262626L150.47125,146.52789387294226L150.72890625,152.96941183907646L150.9865625,151.79962731497628L151.24421875,149.9239235687256L151.50187499999998,143.5088059779576L151.75953124999998,140.10202514648438L152.0171875,138.5237013244629L152.27484375,143.57916582380022L152.5325,145.9217713492257L152.79015625,146.9704150935582L153.0478125,146.43809787205288L153.30546875,145.08333902631486L153.56312499999999,144.3027309526716L153.82078124999998,146.5040110342843L154.0784375,149.7707589503697L154.33609375,149.7552177429199L154.59375,148.88659041268485L154.85140625,147.50577650887627L155.1090625,147.1928785269601L155.36671875,147.0233450971331L155.624375,149.10793301173618L155.88203124999998,149.43220717293875L156.1396875,150.31963018144882L156.39734375,150.4511883544922L156.655,150.79573977879116L156.91265625,150.40788672310964L157.1703125,150.52030775887624L157.42796875,150.35882465907505L157.685625,150.7565530177525L157.94328124999998,149.74843293326242L158.2009375,149.11128008161273L158.45859375,148.44854095458984L158.71625,150.04438143048966L158.97390625,149.90072943551198L159.2315625,150.694594606672L159.48921875,151.53408796037948L159.746875,152.6844363294329L160.00453124999999,152.83731543404716L160.2621875,152.9268278503418L160.51984375,152.89224017551967L160.7775,152.83463199070522L161.03515625,152.33211623055595L161.2928125,152.34174460274832L161.55046875,151.1388134765625L161.808125,150.34655528477262L162.06578125000001,149.45274294172015L162.3234375,147.336943359375L162.58109375,142.5019572012765L162.83875,143.21358476911274L163.09640625,145.63797454833986L163.3540625,146.79599320547922L163.61171875,147.07797467912945L163.869375,148.27664624895368L164.12703125000002,148.57651284354074L164.3846875,149.05721188136508L164.64234375,149.79912319728308L164.9,150.07754925319125L165.15765625,150.5757186453683L165.4153125,151.20095515659878L165.67296875,151.63059739249096L165.930625,151.83936581202917L166.18828125000002,152.3858603341239L166.4459375,152.53061387198312L166.70359375,152.8545774405343L166.96125,153.1961502620152L167.21890625,153.6434480503627L167.4765625,153.4594132232666L167.73421875,153.5413112967355L167.991875,153.7043203517369L168.24953125000002,153.15644456045968L168.50718750000001,153.0467011805943L168.76484375,152.54294497898647L169.0225,152.13318260192872L169.28015625,152.45908496311733L169.5378125,152.46942133222308L169.79546875,152.1636882019043L170.053125,152.2622213091169L170.31078125000002,152.4685204206194L170.56843750000002,152.2553612627302L170.82609375,152.30994068690708L171.08375,152.42679490225655L171.34140625,152.21902192252023L171.5990625,152.33969970703126L171.85671875,152.39771880013603L172.11437500000002,152.29681091308595L172.37203125000002,152.36035701206754L172.62968750000002,152.54697496686663L172.88734375,152.4297638593401L173.145,152.5707034737723L173.40265625,152.71015957423617L173.6603125,152.76005888802666L173.91796875,152.77876968383788L174.17562500000003,153.01775433131627L174.43328125000002,153.08534585135322L174.69093750000002,153.1872298867362L174.94859375000001,153.34708092825755L175.20625,153.49053229195732L175.46390625,153.58428883143833L175.7215625,153.76107392447335L175.97921875,153.73587540762767L176.23687500000003,153.9855436706543L176.49453125000002,153.88480940682547L176.75218750000002,154.09850872584752L177.00984375000002,153.9371413748605L177.26749999999998,154.13468601771763L177.52515624999998,153.7449559020996L177.78281249999998,153.52742529732842L178.04046874999997,151.95929122924804L178.298125,148.4784928894043L178.55578125,146.44359208243233L178.8134375,150.6773017338344L179.07109375,151.65326872689383L179.32874999999999,154.48627689906527L179.58640624999998,154.25154987880163L179.84406249999998,155.32617151532855L180.10171874999997,155.23144847324915L180.359375,153.85601110185897L180.61703125,155.12629839215958L180.8746875,154.8110526384626L181.13234375,155.22100214276995L181.39,153.80463406154087L181.64765624999998,155.56518702915739L181.90531249999998,153.92966207231794L182.16296874999998,155.71590741838727L182.420625,153.7934835924421L182.67828125,155.8333152988979L182.9359375,153.94802176339286L183.19359375,155.91861252920967L183.45125,153.853645967756L183.70890624999998,155.82769569396973L183.96656249999998,153.75774421691895L184.22421875,155.67566734313965L184.481875,153.6931042916434L184.73953125,155.51875632149833L184.9971875,153.60796718052455L185.25484375,155.47164269583567L185.5125,153.52945668901714L185.77015624999999,155.56516002110072L186.02781249999998,153.55712065560476L186.28546875,155.76294001988L186.543125,153.62317850385392L186.80078125,155.99990870884488L187.0584375,153.63878723144532L187.31609375,156.07879538399834L187.57375,153.45922802516392L187.83140625,155.981647404262L188.08906249999998,153.29412005833217L188.34671875,155.8344573538644L188.604375,153.03116768973214L188.86203125,155.56157566615514L189.1196875,152.7495180293492L189.37734375,155.39473146711077L189.635,152.520225415911L189.89265625,155.09927683149064L190.15031249999998,152.11323908124652L190.40796875,154.52875092642648L190.665625,151.1283652169364L190.92328125,153.17577847072056L191.1809375,149.64787808009558L191.43859375,150.5703382546561L191.69625,149.77583067757743L191.95390625,150.86015206473215L192.21156249999999,151.93809183393205L192.46921875,153.05320047651017L192.726875,152.11890305655342L192.98453125,153.63012343270438L193.2421875,152.7661395590646L193.49984375,153.78140520368302L193.7575,152.90619755336215L194.01515625,153.96203122820174L194.27281250000001,154.09400416782924L194.53046875,154.80050213405065L194.788125,153.76113758632115L195.04578125,154.57204098292758L195.3034375,154.49908257620675L195.56109375,154.7607732827323L195.81875,154.26087344578335L196.07640625,154.4535064806257L196.33406250000002,155.3570552280971L196.59171875,155.62989833286832L196.849375,155.03385946001325L197.10703125,155.31133058820453L197.3646875,155.45521022251674L197.62234375,155.47484700884138L197.88,155.11826156616212L198.13765625,154.99703011648995L198.39531250000002,155.7454986027309L198.65296875,155.64269822256907L198.910625,155.41843296595982L199.16828125,155.46432737077987L199.4259375,155.77794106619697L199.68359375,155.79071780613492L199.94125,155.40727285112655L200.19890625,155.1118008531843L200.45656250000002,155.62609019688196L200.71421875000001,155.074195992606L200.971875,155.3011466217041L201.22953125,154.8680820792062L201.4871875,156.29751048496792L201.74484375,156.5091726248605L202.0025,155.75636548723494L202.26015625,155.5311626652309L202.51781250000002,155.77959627423968L202.77546875000002,155.4066362326486L203.033125,155.61219069344656L203.29078125,154.93624655587334L203.5484375,155.73611523219517L203.80609375,155.0799660709926L204.06375,156.1699938746861L204.32140625000002,155.8503458077567L204.57906250000002,156.4137261526925L204.83671875000002,156.49380311148508L205.094375,156.44430891854424L205.35203125,156.22986687796455L205.6096875,156.14687304905485L205.86734375,155.81090247017997L206.125,156.44406777518137L206.38265625000003,156.0101042502267L206.64031250000002,156.26814886910574L206.89796875000002,155.89366094316756L207.15562500000001,156.90184661865234L207.41328125,156.82626264299665L207.6709375,156.53685781206403L207.92859375,156.7213209097726L208.18625,156.7717025102888L208.44390625000003,156.58490707397462L208.70156250000002,156.7793612234933L208.95921875000002,156.94577329363142L209.21687500000002,157.16041017804827L209.47453124999998,157.38555898393903L209.73218749999998,156.8884564099993L209.98984374999998,156.64143493652344L210.24749999999997,156.92711651393347L210.50515625,156.79919864109584L210.7628125,157.43903879438128L211.02046875,157.75146992274694L211.278125,157.19523706708637L211.53578124999999,157.26661743164064L211.79343749999998,157.2082954624721L212.05109374999998,157.26319898332866L212.30874999999997,157.38346200125557L212.56640625,157.46853930882045L212.8240625,157.4780770111084L213.08171875,157.75764705113002L213.339375,157.5258195386614L213.59703125,157.66545504978725L213.85468749999998,157.592425264631L214.11234374999998,157.63388070242746L214.36999999999998,157.58116097586495L214.62765625,157.7259858921596L214.8853125,157.96680130004884L215.14296875,158.3870215824672L215.400625,157.55668974740163L215.65828125,157.52051438467842L215.91593749999998,158.03376584734235L216.17359374999998,158.43651963370186L216.43125,157.99681303841726L216.68890625,158.32895233154298L216.9465625,157.8767641557966L217.20421875,158.211094959804L217.461875,158.26400953020368L217.71953125,158.78405737740653L217.97718749999999,157.93356595720562L218.23484374999998,158.233366960798L218.4925,158.1286065673828L218.75015625,158.42978498186383L219.0078125,158.08801731654577L219.26546875,158.58517583574567L219.523125,158.45154190063477L219.78078125,159.0351416342599L220.0384375,158.0481553540911L220.29609374999998,158.22596482413155L220.55375,158.43718326023645L220.81140625,159.01100800650462L221.0690625,158.40104262215752L221.32671875,159.05851517813545L221.584375,158.42268379211427L221.84203125,158.94148348127092L222.0996875,158.53735614231655L222.35734374999998,159.15581941877093L222.615,158.3670529828753L222.87265625,158.7560384477888L223.1303125,158.6424444907052L223.38796875,159.27456226893835L223.645625,158.62270353044784L223.90328125,159.2001396397182L224.1609375,158.64392993382046L224.41859374999999,159.20887095860073L224.67625,158.7656185913086L224.93390625,159.45491435459684L225.1915625,158.74357037135533L225.44921875,159.36760116577148L225.706875,158.83782463073732L225.96453125,159.55167843409947L226.2221875,158.85769098554337L226.47984375000001,159.57913598196848L226.7375,158.9056360735212L226.99515625,159.65233360290526L227.2528125,158.94783616202218L227.51046875,159.74667274475098L227.768125,158.98516515459335L228.02578125,159.7928391592843L228.2834375,159.02353781563895L228.54109375000002,159.87258237566266L228.79875,159.0536209324428L229.05640625,159.94338399614608L229.3140625,159.11641852242607L229.57171875,160.0481077357701L229.829375,159.13757740565708L230.08703125,160.10593198503767L230.3446875,159.1810584477016L230.60234375000002,160.18615362984792L230.86,159.1905170549665L231.11765625,160.25981424604143L231.3753125,159.18888499668668L231.63296875,160.25729285103935" style="fill: none;" fill="none"></path></g></g></g></g></g></g><g transform="translate(72, 177)" clip-path="url(#clip_1)"><clipPath id="clip_1"><rect width="257" height="23"></rect></clipPath><g><g><line x1="0" y1="0" x2="0" y2="5" style="visibility: inherit;" fill="rgb(0, 0, 0)" stroke="rgb(204, 204, 204)" stroke-width="1px"></line><line x1="25.765625" y1="0" x2="25.765625" y2="5" style="visibility: inherit;" fill="rgb(0, 0, 0)" stroke="rgb(204, 204, 204)" stroke-width="1px"></line><line x1="51.53125" y1="0" x2="51.53125" y2="5" style="visibility: inherit;" fill="rgb(0, 0, 0)" stroke="rgb(204, 204, 204)" stroke-width="1px"></line><line x1="77.296875" y1="0" x2="77.296875" y2="5" style="visibility: inherit;" fill="rgb(0, 0, 0)" stroke="rgb(204, 204, 204)" stroke-width="1px"></line><line x1="103.0625" y1="0" x2="103.0625" y2="5" style="visibility: inherit;" fill="rgb(0, 0, 0)" stroke="rgb(204, 204, 204)" stroke-width="1px"></line><line x1="128.828125" y1="0" x2="128.828125" y2="5" style="visibility: inherit;" fill="rgb(0, 0, 0)" stroke="rgb(204, 204, 204)" stroke-width="1px"></line><line x1="154.59375" y1="0" x2="154.59375" y2="5" style="visibility: inherit;" fill="rgb(0, 0, 0)" stroke="rgb(204, 204, 204)" stroke-width="1px"></line><line x1="180.359375" y1="0" x2="180.359375" y2="5" style="visibility: inherit;" fill="rgb(0, 0, 0)" stroke="rgb(204, 204, 204)" stroke-width="1px"></line><line x1="206.125" y1="0" x2="206.125" y2="5" style="visibility: inherit;" fill="rgb(0, 0, 0)" stroke="rgb(204, 204, 204)" stroke-width="1px"></line><line x1="231.890625" y1="0" x2="231.890625" y2="5" style="visibility: inherit;" fill="rgb(0, 0, 0)" stroke="rgb(204, 204, 204)" stroke-width="1px"></line><line x1="257.65625" y1="0" x2="257.65625" y2="5" style="visibility: inherit;" fill="rgb(0, 0, 0)" stroke="rgb(204, 204, 204)" stroke-width="1px"></line></g><g transform="translate(0, 8)"><text x="0" y="0" dx="0em" dy="0.95em" style="text-anchor: middle; visibility: hidden; font-family: Roboto, sans-serif; font-size: 12px; font-weight: 200;" fill="rgb(33, 33, 33)" stroke="none" stroke-width="1px">-100</text><text x="25.765625" y="0" dx="0em" dy="0.95em" style="text-anchor: middle; visibility: inherit; font-family: Roboto, sans-serif; font-size: 12px; font-weight: 200;" fill="rgb(33, 33, 33)" stroke="none" stroke-width="1px">0</text><text x="51.53125" y="0" dx="0em" dy="0.95em" style="text-anchor: middle; visibility: inherit; font-family: Roboto, sans-serif; font-size: 12px; font-weight: 200;" fill="rgb(33, 33, 33)" stroke="none" stroke-width="1px">100</text><text x="77.296875" y="0" dx="0em" dy="0.95em" style="text-anchor: middle; visibility: inherit; font-family: Roboto, sans-serif; font-size: 12px; font-weight: 200;" fill="rgb(33, 33, 33)" stroke="none" stroke-width="1px">200</text><text x="103.0625" y="0" dx="0em" dy="0.95em" style="text-anchor: middle; visibility: inherit; font-family: Roboto, sans-serif; font-size: 12px; font-weight: 200;" fill="rgb(33, 33, 33)" stroke="none" stroke-width="1px">300</text><text x="128.828125" y="0" dx="0em" dy="0.95em" style="text-anchor: middle; visibility: inherit; font-family: Roboto, sans-serif; font-size: 12px; font-weight: 200;" fill="rgb(33, 33, 33)" stroke="none" stroke-width="1px">400</text><text x="154.59375" y="0" dx="0em" dy="0.95em" style="text-anchor: middle; visibility: inherit; font-family: Roboto, sans-serif; font-size: 12px; font-weight: 200;" fill="rgb(33, 33, 33)" stroke="none" stroke-width="1px">500</text><text x="180.359375" y="0" dx="0em" dy="0.95em" style="text-anchor: middle; visibility: inherit; font-family: Roboto, sans-serif; font-size: 12px; font-weight: 200;" fill="rgb(33, 33, 33)" stroke="none" stroke-width="1px">600</text><text x="206.125" y="0" dx="0em" dy="0.95em" style="text-anchor: middle; visibility: inherit; font-family: Roboto, sans-serif; font-size: 12px; font-weight: 200;" fill="rgb(33, 33, 33)" stroke="none" stroke-width="1px">700</text><text x="231.890625" y="0" dx="0em" dy="0.95em" style="text-anchor: middle; visibility: inherit; font-family: Roboto, sans-serif; font-size: 12px; font-weight: 200;" fill="rgb(33, 33, 33)" stroke="none" stroke-width="1px">800</text><text x="257.65625" y="0" dx="0em" dy="0.95em" style="text-anchor: middle; visibility: hidden; font-family: Roboto, sans-serif; font-size: 12px; font-weight: 200;" fill="rgb(33, 33, 33)" stroke="none" stroke-width="1px">900</text></g><line x1="0" y1="0" x2="257.65625" y2="0" fill="rgb(0, 0, 0)" stroke="rgb(204, 204, 204)" stroke-width="1px"></line></g></g></g></g></svg>