<svg viewBox="0 0 301 200" xmlns="http://www.w3.org/2000/svg"><g><g><g><g><g><line x1="51.5625" y1="177" x2="46.5625" y2="177" style="visibility: inherit;" fill="rgb(0, 0, 0)" stroke="rgb(204, 204, 204)" stroke-width="1px"></line><line x1="51.5625" y1="154.875" x2="46.5625" y2="154.875" style="visibility: inherit;" fill="rgb(0, 0, 0)" stroke="rgb(204, 204, 204)" stroke-width="1px"></line><line x1="51.5625" y1="132.75" x2="46.5625" y2="132.75" style="visibility: inherit;" fill="rgb(0, 0, 0)" stroke="rgb(204, 204, 204)" stroke-width="1px"></line><line x1="51.5625" y1="110.62499999999999" x2="46.5625" y2="110.62499999999999" style="visibility: inherit;" fill="rgb(0, 0, 0)" stroke="rgb(204, 204, 204)" stroke-width="1px"></line><line x1="51.5625" y1="88.49999999999999" x2="46.5625" y2="88.49999999999999" style="visibility: inherit;" fill="rgb(0, 0, 0)" stroke="rgb(204, 204, 204)" stroke-width="1px"></line><line x1="51.5625" y1="66.375" x2="46.5625" y2="66.375" style="visibility: inherit;" fill="rgb(0, 0, 0)" stroke="rgb(204, 204, 204)" stroke-width="1px"></line><line x1="51.5625" y1="44.25" x2="46.5625" y2="44.25" style="visibility: inherit;" fill="rgb(0, 0, 0)" stroke="rgb(204, 204, 204)" stroke-width="1px"></line><line x1="51.5625" y1="22.125" x2="46.5625" y2="22.125" style="visibility: inherit;" fill="rgb(0, 0, 0)" stroke="rgb(204, 204, 204)" stroke-width="1px"></line><line x1="51.5625" y1="0" x2="46.5625" y2="0" style="visibility: inherit;" fill="rgb(0, 0, 0)" stroke="rgb(204, 204, 204)" stroke-width="1px"></line></g><g transform="translate(41.5625, 0)"><text x="0" y="177" dx="0em" dy="0.3em" style="text-anchor: end; visibility: hidden; font-family: Roboto, sans-serif; font-size: 12px; font-weight: 200;" fill="rgb(33, 33, 33)" stroke="none" stroke-width="1px">-0.2</text><text x="0" y="154.875" dx="0em" dy="0.3em" style="text-anchor: end; visibility: inherit; font-family: Roboto, sans-serif; font-size: 12px; font-weight: 200;" fill="rgb(33, 33, 33)" stroke="none" stroke-width="1px">0</text><text x="0" y="132.75" dx="0em" dy="0.3em" style="text-anchor: end; visibility: hidden; font-family: Roboto, sans-serif; font-size: 12px; font-weight: 200;" fill="rgb(33, 33, 33)" stroke="none" stroke-width="1px">0.2</text><text x="0" y="110.62499999999999" dx="0em" dy="0.3em" style="text-anchor: end; visibility: inherit; font-family: Roboto, sans-serif; font-size: 12px; font-weight: 200;" fill="rgb(33, 33, 33)" stroke="none" stroke-width="1px">0.4</text><text x="0" y="88.49999999999999" dx="0em" dy="0.3em" style="text-anchor: end; visibility: hidden; font-family: Roboto, sans-serif; font-size: 12px; font-weight: 200;" fill="rgb(33, 33, 33)" stroke="none" stroke-width="1px">0.6</text><text x="0" y="66.375" dx="0em" dy="0.3em" style="text-anchor: end; visibility: inherit; font-family: Roboto, sans-serif; font-size: 12px; font-weight: 200;" fill="rgb(33, 33, 33)" stroke="none" stroke-width="1px">0.8</text><text x="0" y="44.25" dx="0em" dy="0.3em" style="text-anchor: end; visibility: hidden; font-family: Roboto, sans-serif; font-size: 12px; font-weight: 200;" fill="rgb(33, 33, 33)" stroke="none" stroke-width="1px">1</text><text x="0" y="22.125" dx="0em" dy="0.3em" style="text-anchor: end; visibility: inherit; font-family: Roboto, sans-serif; font-size: 12px; font-weight: 200;" fill="rgb(33, 33, 33)" stroke="none" stroke-width="1px">1.2</text><text x="0" y="0" dx="0em" dy="0.3em" style="text-anchor: end; visibility: hidden; font-family: Roboto, sans-serif; font-size: 12px; font-weight: 200;" fill="rgb(33, 33, 33)" stroke="none" stroke-width="1px">1.4</text></g><line x1="51.5625" y1="0" x2="51.5625" y2="177" fill="rgb(0, 0, 0)" stroke="rgb(204, 204, 204)" stroke-width="1px"></line></g></g><g transform="translate(51, 0)" clip-path="url(#clip_0)"><clipPath id="clip_0"><rect width="278" height="177"></rect></clipPath><g><g><g><line x1="0" y1="0" x2="0" y2="177" fill="rgb(0, 0, 0)" stroke="rgb(66, 66, 66)" stroke-width="1px" opacity="0.25"></line><line x1="23.203125" y1="0" x2="23.203125" y2="177" fill="rgb(0, 0, 0)" stroke="rgb(66, 66, 66)" stroke-width="1px" opacity="0.25"></line><line x1="46.40625" y1="0" x2="46.40625" y2="177" fill="rgb(0, 0, 0)" stroke="rgb(66, 66, 66)" stroke-width="1px" opacity="0.25"></line><line x1="69.609375" y1="0" x2="69.609375" y2="177" fill="rgb(0, 0, 0)" stroke="rgb(66, 66, 66)" stroke-width="1px" opacity="0.25"></line><line x1="92.8125" y1="0" x2="92.8125" y2="177" fill="rgb(0, 0, 0)" stroke="rgb(66, 66, 66)" stroke-width="1px" opacity="0.25"></line><line x1="116.015625" y1="0" x2="116.015625" y2="177" fill="rgb(0, 0, 0)" stroke="rgb(66, 66, 66)" stroke-width="1px" opacity="0.25"></line><line x1="139.21875" y1="0" x2="139.21875" y2="177" fill="rgb(0, 0, 0)" stroke="rgb(66, 66, 66)" stroke-width="1px" opacity="0.25"></line><line x1="162.421875" y1="0" x2="162.421875" y2="177" fill="rgb(0, 0, 0)" stroke="rgb(66, 66, 66)" stroke-width="1px" opacity="0.25"></line><line x1="185.625" y1="0" x2="185.625" y2="177" fill="rgb(0, 0, 0)" stroke="rgb(66, 66, 66)" stroke-width="1px" opacity="0.25"></line><line x1="208.828125" y1="0" x2="208.828125" y2="177" fill="rgb(0, 0, 0)" stroke="rgb(66, 66, 66)" stroke-width="1px" opacity="0.25"></line><line x1="232.03125" y1="0" x2="232.03125" y2="177" fill="rgb(0, 0, 0)" stroke="rgb(66, 66, 66)" stroke-width="1px" opacity="0.25"></line><line x1="255.234375" y1="0" x2="255.234375" y2="177" fill="rgb(0, 0, 0)" stroke="rgb(66, 66, 66)" stroke-width="1px" opacity="0.25"></line><line x1="278.4375" y1="0" x2="278.4375" y2="177" fill="rgb(0, 0, 0)" stroke="rgb(66, 66, 66)" stroke-width="1px" opacity="0.25"></line></g><g><line x1="0" y1="177" x2="278.4375" y2="177" fill="rgb(0, 0, 0)" stroke="rgb(66, 66, 66)" stroke-width="1px" opacity="0.25"></line><line x1="0" y1="154.875" x2="278.4375" y2="154.875" fill="rgb(0, 0, 0)" stroke="rgb(66, 66, 66)" stroke-width="1px" opacity="0.25"></line><line x1="0" y1="132.75" x2="278.4375" y2="132.75" fill="rgb(0, 0, 0)" stroke="rgb(66, 66, 66)" stroke-width="1px" opacity="0.25"></line><line x1="0" y1="110.62499999999999" x2="278.4375" y2="110.62499999999999" fill="rgb(0, 0, 0)" stroke="rgb(66, 66, 66)" stroke-width="1px" opacity="0.25"></line><line x1="0" y1="88.49999999999999" x2="278.4375" y2="88.49999999999999" fill="rgb(0, 0, 0)" stroke="rgb(66, 66, 66)" stroke-width="1px" opacity="0.25"></line><line x1="0" y1="66.375" x2="278.4375" y2="66.375" fill="rgb(0, 0, 0)" stroke="rgb(66, 66, 66)" stroke-width="1px" opacity="0.25"></line><line x1="0" y1="44.25" x2="278.4375" y2="44.25" fill="rgb(0, 0, 0)" stroke="rgb(66, 66, 66)" stroke-width="1px" opacity="0.25"></line><line x1="0" y1="22.125" x2="278.4375" y2="22.125" fill="rgb(0, 0, 0)" stroke="rgb(66, 66, 66)" stroke-width="1px" opacity="0.25"></line><line x1="0" y1="0" x2="278.4375" y2="0" fill="rgb(0, 0, 0)" stroke="rgb(66, 66, 66)" stroke-width="1px" opacity="0.25"></line></g></g></g><g><g><line x1="0" y1="154.875" x2="278.4375" y2="154.875" fill="rgb(0, 0, 0)" stroke="rgb(153, 153, 153)" stroke-width="1.5px"></line></g></g><g><g><line x1="23.203125" y1="0" x2="23.203125" y2="177" fill="rgb(0, 0, 0)" stroke="rgb(153, 153, 153)" stroke-width="1.5px"></line></g></g><g><g><g><g><g><path stroke="rgb(0, 119, 187)" stroke-width="2px" d="M23.203125,3.9828997403383255L24.36328125,4.780731976032257L25.523437499999996,5.483785450458527L26.683593750000004,6.14061664044857L27.84375,6.805465847253799L29.00390625,7.536793380975723L30.1640625,8.391371548175812L31.32421875,9.401536166667938L32.484375,10.57005661725998L33.64453125,12.029810428619385L34.8046875,14.300096064805984L35.96484375000001,18.551834106445312L37.125,26.357241600751877L38.28515625,33.50191439688206L39.4453125,41.15617963671684L40.60546875,49.10712468624115L41.765625,58.002692341804504L42.92578125,67.89917356520891L44.0859375,78.68430293351412L45.24609375,89.31663501262665L46.40625,100.23504412919283L47.56640625,110.71433494985104L48.7265625,119.04610942304134L49.88671875,125.0703237131238L51.04687499999999,129.54734593816102L52.20703125,133.3191436920315L53.36718750000001,136.24961179867387L54.52734375,138.54472130723298L55.6875,140.40495890378952L56.84765625,141.85250930674374L58.0078125,143.0173850543797L59.16796875,143.9287874540314L60.328125,144.66292145848274L61.48828125,145.27547470014542L62.6484375,145.77576251886785L63.80859375,146.21110093966126L64.96875,146.57601549010724L66.12890625,146.89910909347236L67.2890625,147.1793729038909L68.44921875,147.42703714594245L69.609375,147.65045859105885L70.76953125,147.8445724043995L71.92968750000001,148.02653885632753L73.08984375,148.1813950482756L74.25,148.32957505434752L75.41015625,148.45548297464848L76.5703125,148.57361643528566L77.73046875,148.6782013596967L78.890625,148.77235041651875L80.05078125,148.85978537332267L81.2109375,148.9392674267292L82.37109375,149.01331250974908L83.53125,149.08341122511774L84.69140624999999,149.14956645760685L85.8515625,149.21273141819984L87.01171875,149.27342825056985L88.171875,149.33189144544303L89.33203125000001,149.3883015071042L90.4921875,149.44288344774395L91.65234375,149.49595005903393L92.8125,149.54772511683404L93.97265625,149.59855232108384L95.1328125,149.6488091647625L96.29296875,149.69886901974678L97.453125,149.749142347835L98.61328125,149.7999221594073L99.7734375,149.85105432523414L100.93359375,149.90091595519334L102.09374999999999,149.94438204634935L103.25390625,149.9741726713255L104.4140625,150.0032375701703L105.57421875,150.07859646063298L106.73437500000001,150.16761350864545L107.89453125,150.1966726379469L109.0546875,150.25010602734983L110.21484375,150.37837163032964L111.375,150.47650332050398L112.53515625,150.548690198455L113.6953125,150.6229265006259L114.85546875,150.68854186870158L116.015625,150.74951563915238L117.17578125,150.84704853314906L118.3359375,150.97796400496736L119.49609374999999,151.09598743217066L120.65625,151.19781039375812L121.81640625,151.29520069761202L122.9765625,151.3786431304179L124.13671875000001,151.44500256353058L125.296875,151.52602632134221L126.45703125,151.63253064919263L127.6171875,151.71874060831033L128.77734375,151.77034443430603L129.9375,151.81734107388183L131.09765625,151.85612600483L132.2578125,151.8753715530038L133.41796875,151.905553270597L134.578125,151.95976225147024L135.73828125,152.003909972962L136.8984375,152.02924548019655L138.05859375,152.05102694872767L139.21875,152.066516936291L140.37890625,152.0791382244788L141.5390625,152.1002098331228L142.69921875,152.12677981657907L143.85937500000003,152.14785966742784L145.01953125,152.16286460123956L146.1796875,152.17538718902506L147.33984375,152.18552283430472L148.5,152.19481468386948L149.66015625,152.20639951480553L150.8203125,152.22000636463054L151.98046874999997,152.2326923541259L153.140625,152.2431737598963L154.30078125,152.25203227554448L155.4609375,152.25975872436538L156.62109375,152.26679550670087L157.78125,152.27400826010853L158.94140625,152.2819232493639L160.1015625,152.29015679983422L161.26171875000003,152.29799390025437L162.421875,152.30509744444862L163.58203125,152.31150369811803L164.7421875,152.31739708059467L165.90234375,152.32307183858939L167.0625,152.32882613386028L168.22265625,152.33475372148678L169.38281249999997,152.34069470269606L170.54296875,152.3464242713526L171.703125,152.35182847897522L172.86328125,152.35692422208376L174.0234375,152.36182009172626L175.18359375,152.36665002373047L176.34375,152.37149664619938L177.50390625,152.37634718371555L178.66406250000003,152.38112663221546L179.82421875,152.38577070250176L180.984375,152.39026703126729L182.14453125,152.39464858733118L183.3046875,152.39897038741037L184.46484375,152.40326993353665L185.625,152.40755423158407L186.78515624999997,152.4118039123714L187.9453125,152.41599630983546L189.10546875,152.42012668470852L190.265625,152.42421090323478L191.42578125,152.42827183753252L192.5859375,152.43232514779083L193.74609375,152.43637639749795L194.90625,152.44042311399244L196.06640625000003,152.44446200039238L197.2265625,152.44849944440648L198.38671875,152.4525434821844L199.546875,152.45660874363966L200.70703125,152.4607053254731L201.8671875,152.4648402335588L203.02734375,152.4690204737708L204.18749999999997,152.473250991432L205.34765625,152.4775455922354L206.5078125,152.4819158152677L207.66796875,152.48637546622194L208.828125,152.49094061739743L209.98828125,152.4956252805423L211.1484375,152.5004467642866L212.30859375,152.50542464386672L213.46875000000003,152.51058220351115L214.62890625,152.51594334561378L215.7890625,152.52153918449767L216.94921875,152.52740042237565L218.109375,152.53356497338973L219.26953125,152.54007652122527L220.4296875,152.54698163433932L221.58984374999997,152.5543363597244L222.75,152.5622023078613L223.91015625,152.570646652719L225.0703125,152.57974213175476L226.23046875,152.58956292481162L227.390625,152.60017455741763L228.55078125,152.61162710096687L229.7109375,152.62393230060115L230.87109375000003,152.63706151465885L232.03125,152.65098898625L233.19140625,152.66590243158862L234.3515625,152.68273589853197L235.51171875,152.70394103089347L236.671875,152.73346213577315L237.83203125,152.77443001465872L238.99218749999997,152.82588486280292L240.15234375,152.8821943695657L241.3125,152.93277636822313L242.47265625,152.95758890756406L243.6328125,152.941190010868L244.79296875,152.96692011365667L245.953125,153.1380422967486L247.11328125,153.23742535966448L248.27343750000003,153.1497598271817L249.43359375,152.9772453296464L250.59375,153.1386697345879L251.75390625,153.253311797278L252.9140625,153.25645073794294L254.07421875,153.36127808620222" style="fill: none;" fill="none"></path></g></g></g></g></g><g><g opacity="0.666591"><span fill="rgb(0, 0, 0)" stroke="none" stroke-width="1px">Alt + Scroll to Zoom</span></g></g></g><g transform="translate(51, 177)" clip-path="url(#clip_1)"><clipPath id="clip_1"><rect width="278" height="23"></rect></clipPath><g><g><line x1="0" y1="0" x2="0" y2="5" style="visibility: inherit;" fill="rgb(0, 0, 0)" stroke="rgb(204, 204, 204)" stroke-width="1px"></line><line x1="23.203125" y1="0" x2="23.203125" y2="5" style="visibility: inherit;" fill="rgb(0, 0, 0)" stroke="rgb(204, 204, 204)" stroke-width="1px"></line><line x1="46.40625" y1="0" x2="46.40625" y2="5" style="visibility: inherit;" fill="rgb(0, 0, 0)" stroke="rgb(204, 204, 204)" stroke-width="1px"></line><line x1="69.609375" y1="0" x2="69.609375" y2="5" style="visibility: inherit;" fill="rgb(0, 0, 0)" stroke="rgb(204, 204, 204)" stroke-width="1px"></line><line x1="92.8125" y1="0" x2="92.8125" y2="5" style="visibility: inherit;" fill="rgb(0, 0, 0)" stroke="rgb(204, 204, 204)" stroke-width="1px"></line><line x1="116.015625" y1="0" x2="116.015625" y2="5" style="visibility: inherit;" fill="rgb(0, 0, 0)" stroke="rgb(204, 204, 204)" stroke-width="1px"></line><line x1="139.21875" y1="0" x2="139.21875" y2="5" style="visibility: inherit;" fill="rgb(0, 0, 0)" stroke="rgb(204, 204, 204)" stroke-width="1px"></line><line x1="162.421875" y1="0" x2="162.421875" y2="5" style="visibility: inherit;" fill="rgb(0, 0, 0)" stroke="rgb(204, 204, 204)" stroke-width="1px"></line><line x1="185.625" y1="0" x2="185.625" y2="5" style="visibility: inherit;" fill="rgb(0, 0, 0)" stroke="rgb(204, 204, 204)" stroke-width="1px"></line><line x1="208.828125" y1="0" x2="208.828125" y2="5" style="visibility: inherit;" fill="rgb(0, 0, 0)" stroke="rgb(204, 204, 204)" stroke-width="1px"></line><line x1="232.03125" y1="0" x2="232.03125" y2="5" style="visibility: inherit;" fill="rgb(0, 0, 0)" stroke="rgb(204, 204, 204)" stroke-width="1px"></line><line x1="255.234375" y1="0" x2="255.234375" y2="5" style="visibility: inherit;" fill="rgb(0, 0, 0)" stroke="rgb(204, 204, 204)" stroke-width="1px"></line><line x1="278.4375" y1="0" x2="278.4375" y2="5" style="visibility: inherit;" fill="rgb(0, 0, 0)" stroke="rgb(204, 204, 204)" stroke-width="1px"></line></g><g transform="translate(0, 8)"><text x="0" y="0" dx="0em" dy="0.95em" style="text-anchor: middle; visibility: hidden; font-family: Roboto, sans-serif; font-size: 12px; font-weight: 200;" fill="rgb(33, 33, 33)" stroke="none" stroke-width="1px">-20</text><text x="23.203125" y="0" dx="0em" dy="0.95em" style="text-anchor: middle; visibility: inherit; font-family: Roboto, sans-serif; font-size: 12px; font-weight: 200;" fill="rgb(33, 33, 33)" stroke="none" stroke-width="1px">0</text><text x="46.40625" y="0" dx="0em" dy="0.95em" style="text-anchor: middle; visibility: hidden; font-family: Roboto, sans-serif; font-size: 12px; font-weight: 200;" fill="rgb(33, 33, 33)" stroke="none" stroke-width="1px">20</text><text x="69.609375" y="0" dx="0em" dy="0.95em" style="text-anchor: middle; visibility: inherit; font-family: Roboto, sans-serif; font-size: 12px; font-weight: 200;" fill="rgb(33, 33, 33)" stroke="none" stroke-width="1px">40</text><text x="92.8125" y="0" dx="0em" dy="0.95em" style="text-anchor: middle; visibility: hidden; font-family: Roboto, sans-serif; font-size: 12px; font-weight: 200;" fill="rgb(33, 33, 33)" stroke="none" stroke-width="1px">60</text><text x="116.015625" y="0" dx="0em" dy="0.95em" style="text-anchor: middle; visibility: inherit; font-family: Roboto, sans-serif; font-size: 12px; font-weight: 200;" fill="rgb(33, 33, 33)" stroke="none" stroke-width="1px">80</text><text x="139.21875" y="0" dx="0em" dy="0.95em" style="text-anchor: middle; visibility: hidden; font-family: Roboto, sans-serif; font-size: 12px; font-weight: 200;" fill="rgb(33, 33, 33)" stroke="none" stroke-width="1px">100</text><text x="162.421875" y="0" dx="0em" dy="0.95em" style="text-anchor: middle; visibility: inherit; font-family: Roboto, sans-serif; font-size: 12px; font-weight: 200;" fill="rgb(33, 33, 33)" stroke="none" stroke-width="1px">120</text><text x="185.625" y="0" dx="0em" dy="0.95em" style="text-anchor: middle; visibility: hidden; font-family: Roboto, sans-serif; font-size: 12px; font-weight: 200;" fill="rgb(33, 33, 33)" stroke="none" stroke-width="1px">140</text><text x="208.828125" y="0" dx="0em" dy="0.95em" style="text-anchor: middle; visibility: inherit; font-family: Roboto, sans-serif; font-size: 12px; font-weight: 200;" fill="rgb(33, 33, 33)" stroke="none" stroke-width="1px">160</text><text x="232.03125" y="0" dx="0em" dy="0.95em" style="text-anchor: middle; visibility: hidden; font-family: Roboto, sans-serif; font-size: 12px; font-weight: 200;" fill="rgb(33, 33, 33)" stroke="none" stroke-width="1px">180</text><text x="255.234375" y="0" dx="0em" dy="0.95em" style="text-anchor: middle; visibility: inherit; font-family: Roboto, sans-serif; font-size: 12px; font-weight: 200;" fill="rgb(33, 33, 33)" stroke="none" stroke-width="1px">200</text><text x="278.4375" y="0" dx="0em" dy="0.95em" style="text-anchor: middle; visibility: hidden; font-family: Roboto, sans-serif; font-size: 12px; font-weight: 200;" fill="rgb(33, 33, 33)" stroke="none" stroke-width="1px">220</text></g><line x1="0" y1="0" x2="278.4375" y2="0" fill="rgb(0, 0, 0)" stroke="rgb(204, 204, 204)" stroke-width="1px"></line></g></g></g></g></svg>