<svg viewBox="0 0 301 200" xmlns="http://www.w3.org/2000/svg"><g><g><g><g><g><line x1="30.78125" y1="177" x2="25.78125" y2="177" style="visibility: inherit;" fill="rgb(0, 0, 0)" stroke="rgb(204, 204, 204)" stroke-width="1px"></line><line x1="30.78125" y1="157.33333333333331" x2="25.78125" y2="157.33333333333331" style="visibility: inherit;" fill="rgb(0, 0, 0)" stroke="rgb(204, 204, 204)" stroke-width="1px"></line><line x1="30.78125" y1="137.66666666666666" x2="25.78125" y2="137.66666666666666" style="visibility: inherit;" fill="rgb(0, 0, 0)" stroke="rgb(204, 204, 204)" stroke-width="1px"></line><line x1="30.78125" y1="118.00000000000001" x2="25.78125" y2="118.00000000000001" style="visibility: inherit;" fill="rgb(0, 0, 0)" stroke="rgb(204, 204, 204)" stroke-width="1px"></line><line x1="30.78125" y1="98.33333333333334" x2="25.78125" y2="98.33333333333334" style="visibility: inherit;" fill="rgb(0, 0, 0)" stroke="rgb(204, 204, 204)" stroke-width="1px"></line><line x1="30.78125" y1="78.66666666666666" x2="25.78125" y2="78.66666666666666" style="visibility: inherit;" fill="rgb(0, 0, 0)" stroke="rgb(204, 204, 204)" stroke-width="1px"></line><line x1="30.78125" y1="59.00000000000001" x2="25.78125" y2="59.00000000000001" style="visibility: inherit;" fill="rgb(0, 0, 0)" stroke="rgb(204, 204, 204)" stroke-width="1px"></line><line x1="30.78125" y1="39.33333333333333" x2="25.78125" y2="39.33333333333333" style="visibility: inherit;" fill="rgb(0, 0, 0)" stroke="rgb(204, 204, 204)" stroke-width="1px"></line><line x1="30.78125" y1="19.666666666666675" x2="25.78125" y2="19.666666666666675" style="visibility: inherit;" fill="rgb(0, 0, 0)" stroke="rgb(204, 204, 204)" stroke-width="1px"></line><line x1="30.78125" y1="0" x2="25.78125" y2="0" style="visibility: inherit;" fill="rgb(0, 0, 0)" stroke="rgb(204, 204, 204)" stroke-width="1px"></line></g><g transform="translate(20.78125, 0)"><text x="0" y="177" dx="0em" dy="0.3em" style="text-anchor: end; visibility: hidden; font-family: Roboto, sans-serif; font-size: 12px; font-weight: 200;" fill="rgb(33, 33, 33)" stroke="none" stroke-width="1px">0</text><text x="0" y="157.33333333333331" dx="0em" dy="0.3em" style="text-anchor: end; visibility: inherit; font-family: Roboto, sans-serif; font-size: 12px; font-weight: 200;" fill="rgb(33, 33, 33)" stroke="none" stroke-width="1px">5</text><text x="0" y="137.66666666666666" dx="0em" dy="0.3em" style="text-anchor: end; visibility: hidden; font-family: Roboto, sans-serif; font-size: 12px; font-weight: 200;" fill="rgb(33, 33, 33)" stroke="none" stroke-width="1px">10</text><text x="0" y="118.00000000000001" dx="0em" dy="0.3em" style="text-anchor: end; visibility: inherit; font-family: Roboto, sans-serif; font-size: 12px; font-weight: 200;" fill="rgb(33, 33, 33)" stroke="none" stroke-width="1px">15</text><text x="0" y="98.33333333333334" dx="0em" dy="0.3em" style="text-anchor: end; visibility: hidden; font-family: Roboto, sans-serif; font-size: 12px; font-weight: 200;" fill="rgb(33, 33, 33)" stroke="none" stroke-width="1px">20</text><text x="0" y="78.66666666666666" dx="0em" dy="0.3em" style="text-anchor: end; visibility: inherit; font-family: Roboto, sans-serif; font-size: 12px; font-weight: 200;" fill="rgb(33, 33, 33)" stroke="none" stroke-width="1px">25</text><text x="0" y="59.00000000000001" dx="0em" dy="0.3em" style="text-anchor: end; visibility: hidden; font-family: Roboto, sans-serif; font-size: 12px; font-weight: 200;" fill="rgb(33, 33, 33)" stroke="none" stroke-width="1px">30</text><text x="0" y="39.33333333333333" dx="0em" dy="0.3em" style="text-anchor: end; visibility: inherit; font-family: Roboto, sans-serif; font-size: 12px; font-weight: 200;" fill="rgb(33, 33, 33)" stroke="none" stroke-width="1px">35</text><text x="0" y="19.666666666666675" dx="0em" dy="0.3em" style="text-anchor: end; visibility: hidden; font-family: Roboto, sans-serif; font-size: 12px; font-weight: 200;" fill="rgb(33, 33, 33)" stroke="none" stroke-width="1px">40</text><text x="0" y="0" dx="0em" dy="0.3em" style="text-anchor: end; visibility: hidden; font-family: Roboto, sans-serif; font-size: 12px; font-weight: 200;" fill="rgb(33, 33, 33)" stroke="none" stroke-width="1px">45</text></g><line x1="30.78125" y1="0" x2="30.78125" y2="177" fill="rgb(0, 0, 0)" stroke="rgb(204, 204, 204)" stroke-width="1px"></line></g></g><g transform="translate(30, 0)" clip-path="url(#clip_0)"><clipPath id="clip_0"><rect width="270" height="177"></rect></clipPath><g><g><g><line x1="0" y1="0" x2="0" y2="177" fill="rgb(0, 0, 0)" stroke="rgb(66, 66, 66)" stroke-width="1px" opacity="0.25"></line><line x1="22.518229166666664" y1="0" x2="22.518229166666664" y2="177" fill="rgb(0, 0, 0)" stroke="rgb(66, 66, 66)" stroke-width="1px" opacity="0.25"></line><line x1="45.03645833333333" y1="0" x2="45.03645833333333" y2="177" fill="rgb(0, 0, 0)" stroke="rgb(66, 66, 66)" stroke-width="1px" opacity="0.25"></line><line x1="67.5546875" y1="0" x2="67.5546875" y2="177" fill="rgb(0, 0, 0)" stroke="rgb(66, 66, 66)" stroke-width="1px" opacity="0.25"></line><line x1="90.07291666666666" y1="0" x2="90.07291666666666" y2="177" fill="rgb(0, 0, 0)" stroke="rgb(66, 66, 66)" stroke-width="1px" opacity="0.25"></line><line x1="112.59114583333334" y1="0" x2="112.59114583333334" y2="177" fill="rgb(0, 0, 0)" stroke="rgb(66, 66, 66)" stroke-width="1px" opacity="0.25"></line><line x1="135.109375" y1="0" x2="135.109375" y2="177" fill="rgb(0, 0, 0)" stroke="rgb(66, 66, 66)" stroke-width="1px" opacity="0.25"></line><line x1="157.62760416666669" y1="0" x2="157.62760416666669" y2="177" fill="rgb(0, 0, 0)" stroke="rgb(66, 66, 66)" stroke-width="1px" opacity="0.25"></line><line x1="180.14583333333331" y1="0" x2="180.14583333333331" y2="177" fill="rgb(0, 0, 0)" stroke="rgb(66, 66, 66)" stroke-width="1px" opacity="0.25"></line><line x1="202.6640625" y1="0" x2="202.6640625" y2="177" fill="rgb(0, 0, 0)" stroke="rgb(66, 66, 66)" stroke-width="1px" opacity="0.25"></line><line x1="225.18229166666669" y1="0" x2="225.18229166666669" y2="177" fill="rgb(0, 0, 0)" stroke="rgb(66, 66, 66)" stroke-width="1px" opacity="0.25"></line><line x1="247.70052083333331" y1="0" x2="247.70052083333331" y2="177" fill="rgb(0, 0, 0)" stroke="rgb(66, 66, 66)" stroke-width="1px" opacity="0.25"></line><line x1="270.21875" y1="0" x2="270.21875" y2="177" fill="rgb(0, 0, 0)" stroke="rgb(66, 66, 66)" stroke-width="1px" opacity="0.25"></line></g><g><line x1="0" y1="177" x2="270.21875" y2="177" fill="rgb(0, 0, 0)" stroke="rgb(66, 66, 66)" stroke-width="1px" opacity="0.25"></line><line x1="0" y1="157.33333333333331" x2="270.21875" y2="157.33333333333331" fill="rgb(0, 0, 0)" stroke="rgb(66, 66, 66)" stroke-width="1px" opacity="0.25"></line><line x1="0" y1="137.66666666666666" x2="270.21875" y2="137.66666666666666" fill="rgb(0, 0, 0)" stroke="rgb(66, 66, 66)" stroke-width="1px" opacity="0.25"></line><line x1="0" y1="118.00000000000001" x2="270.21875" y2="118.00000000000001" fill="rgb(0, 0, 0)" stroke="rgb(66, 66, 66)" stroke-width="1px" opacity="0.25"></line><line x1="0" y1="98.33333333333334" x2="270.21875" y2="98.33333333333334" fill="rgb(0, 0, 0)" stroke="rgb(66, 66, 66)" stroke-width="1px" opacity="0.25"></line><line x1="0" y1="78.66666666666666" x2="270.21875" y2="78.66666666666666" fill="rgb(0, 0, 0)" stroke="rgb(66, 66, 66)" stroke-width="1px" opacity="0.25"></line><line x1="0" y1="59.00000000000001" x2="270.21875" y2="59.00000000000001" fill="rgb(0, 0, 0)" stroke="rgb(66, 66, 66)" stroke-width="1px" opacity="0.25"></line><line x1="0" y1="39.33333333333333" x2="270.21875" y2="39.33333333333333" fill="rgb(0, 0, 0)" stroke="rgb(66, 66, 66)" stroke-width="1px" opacity="0.25"></line><line x1="0" y1="19.666666666666675" x2="270.21875" y2="19.666666666666675" fill="rgb(0, 0, 0)" stroke="rgb(66, 66, 66)" stroke-width="1px" opacity="0.25"></line><line x1="0" y1="0" x2="270.21875" y2="0" fill="rgb(0, 0, 0)" stroke="rgb(66, 66, 66)" stroke-width="1px" opacity="0.25"></line></g></g></g><g><g><line x1="0" y1="177" x2="270.21875" y2="177" fill="rgb(0, 0, 0)" stroke="rgb(153, 153, 153)" stroke-width="1.5px"></line></g></g><g><g><line x1="22.518229166666664" y1="0" x2="22.518229166666664" y2="177" fill="rgb(0, 0, 0)" stroke="rgb(153, 153, 153)" stroke-width="1.5px"></line></g></g><g><g><g><g><g><path stroke="rgb(0, 153, 136)" stroke-width="2px" d="M30.399609375,-2.812453969319658L31.525520833333335,11.613269297281894L32.651432291666666,16.942168935139982L33.77734375,17.23249053955078L34.903255208333334,38.829603068033855L36.02916666666667,56.53421694437663L37.155078125,60.848281351725255L38.28098958333333,66.97355855305989L39.40690104166667,73.97379926045735L40.5328125,78.98885027567546L41.65872395833333,83.14948641459146L42.78463541666667,87.2185427347819L43.910546875,91.17586072285971L45.03645833333333,94.85687878926596L46.16236979166667,98.30606269836427L47.28828125,101.63977966308593L48.41419270833333,104.74702657063801L49.540104166666666,107.81801516215005L50.666015625,110.75051994323731L51.791927083333334,113.64249763488769L52.91783854166667,116.58213704427085L54.04375,119.65930372873942L55.16966145833333,122.81255811055503L56.29557291666667,126.47038300832112L57.421484375,130.9519723892212L58.54739583333333,136.68474000295004L59.67330729166667,143.13352120717366L60.79921875,148.17269379297892L61.92513020833333,150.77569840749106L63.05104166666667,152.593447526296L64.176953125,154.02260885238647L65.30286458333333,156.0152445157369L66.42877604166667,157.69716561635335L67.5546875,156.75622367858887L68.68059895833333,156.66564728418987L69.80651041666667,160.82992388407388L70.932421875,162.9630502065023L72.05833333333334,160.95479675928752L73.18424479166666,160.59058748881023L74.31015625,160.39905160268148L75.43606770833334,156.48270146052042L76.56197916666666,162.74448750813804L77.687890625,151.02131605148315L78.81380208333334,166.6537517865499L79.93971354166666,157.95481685002645L81.065625,159.5613460858663L82.19153645833333,160.9114056905111L83.31744791666667,159.16545674006144L84.443359375,160.84083401362102L85.56927083333333,160.7080594062805L86.69518229166667,160.44588057200113L87.82109375,160.65984252293904L88.94700520833334,160.91805642445883L90.07291666666666,161.04273799260457L91.198828125,159.76153580347696L92.32473958333334,159.43588053385415L93.45065104166666,157.37445872624716L94.5765625,164.65857380231222L95.70247395833334,155.54694356918336L96.82838541666666,160.53815434773762L97.954296875,167.98253598213196L99.08020833333333,150.11807285944622L100.20611979166667,165.10894346237183L101.33203125,155.14255043665568L102.45794270833333,167.0245920976003L103.58385416666667,152.46077795028685L104.709765625,165.6842750867208L105.83567708333334,152.81460975011188L106.96158854166666,168.13132224082946L108.0875,154.53181200027467L109.21341145833334,166.4753373146057L110.33932291666666,156.3130195935567L111.465234375,165.1625403881073L112.59114583333334,159.57770471572877L113.71705729166666,163.90495430628457L114.84296875,163.40655438105264L115.96888020833333,163.54520324071248L117.09479166666667,164.36243046124775L118.220703125,166.45475492477416L119.34661458333333,166.69413445790607L120.47252604166667,164.98816305796305L121.5984375,167.28316798210145L122.72434895833334,166.15889760653178L123.85026041666666,163.12404917081196L124.976171875,166.37221061388652L126.10208333333334,165.8037763595581L127.22799479166666,165.41003828048707L128.35390625,164.25131950378417L129.47981770833334,167.08000644048056L130.60572916666666,166.92760504086812L131.73164062499998,164.8069924513499L132.85755208333333,165.01616516113282L133.98346354166668,164.32650036811827L135.109375,166.8218966325124L136.23528645833332,166.18573404947918L137.36119791666667,160.68468618392944L138.487109375,158.893292427063L139.61302083333334,164.92777004241944L140.73893229166669,163.51007776260377L141.86484375,159.85731687545777L142.99075520833333,160.12105617523193L144.11666666666667,160.32804104487101L145.242578125,163.10996747016907L146.36848958333331,160.3319403330485L147.49440104166666,160.1038966814677L148.6203125,162.95079998970033L149.74622395833333,164.65998140970865L150.87213541666668,164.03540603319806L151.998046875,166.65991112391154L153.12395833333332,164.68583693504334L154.24986979166667,160.05796798070273L155.37578125,167.36439283688864L156.50169270833334,119.21025352478027L157.62760416666669,158.32197450002033L158.753515625,169.21335501670836L159.87942708333333,169.50942239761352L161.00533854166667,163.4468179543813L162.13125,156.6999550183614L163.25716145833331,158.36994380950927L164.38307291666666,164.81159319877625L165.508984375,164.02186261812847L166.63489583333333,160.62606369654338L167.76080729166668,159.8925079981486L168.88671875,162.78716680208842L170.01263020833332,164.90444464683532L171.13854166666667,163.84382325808207L172.264453125,162.61697572072347L173.39036458333334,162.43562881151834L174.51627604166669,163.34176786740622L175.6421875,164.34576048851014L176.76809895833333,164.6757661183675L177.89401041666667,164.33520483970642L179.019921875,163.74661300977073L180.14583333333331,163.6092320283254L181.27174479166666,163.9727454662323L182.39765625,164.50976785024008L183.52356770833333,164.75636172294617L184.64947916666668,164.62796936035156L185.775390625,164.4390123685201L186.90130208333332,164.40148054758706L188.02721354166667,164.56952036221824L189.153125,164.70634617805482L190.27903645833334,164.6708559036255L191.40494791666669,164.64449772834777L192.530859375,164.75966270764667L193.65677083333333,164.9601797103882L194.78268229166667,165.01570564905802L195.90859375,164.94229062398276L197.03450520833331,164.8670075416565L198.16041666666666,164.92562346458436L199.286328125,165.05629275639853L200.41223958333333,165.1396116733551L201.53815104166668,165.06004856427512L202.6640625,165.06499910354614L203.78997395833332,165.1991269270579L204.91588541666667,165.39795967737834L206.041796875,165.49562099774678L207.16770833333334,165.41727887789406L208.29361979166669,165.30674934387207L209.41953125,165.29084366162618L210.54544270833333,165.32212893168133L211.67135416666667,155.6597284634908L212.797265625,160.3370080947876L213.92317708333331,167.08557403882347L215.04908854166666,171.199094247818L216.175,168.69255528450012L217.30091145833333,165.62089711825053L218.42682291666668,163.93891224861144L219.552734375,164.90652464230857L220.67864583333332,166.30441851615905L221.80455729166667,166.2531229019165L222.93046875,165.62384831110634L224.05638020833334,165.35027732849122L225.18229166666669,165.65002643267314L226.308203125,165.92520852088927L227.43411458333333,165.80643027623495L228.56002604166667,165.62722338040672L229.6859375,165.65408139228822L230.81184895833331,165.79921124776206L231.93776041666666,165.87492008209227L233.063671875,165.75537192026775L234.18958333333333,165.62467355728148L235.31549479166668,165.7097939491272L236.44140625,165.901491133372L237.56731770833332,165.91841055552163L238.69322916666667,165.94774618148804L239.819140625,165.96608821551004L240.94505208333334,166.03277654647826L242.07096354166669,166.0492795944214L243.196875,166.00692008336387L244.32278645833333,166.0147055308024L245.44869791666667,166.03309257825214L246.574609375,166.05189412434896" style="fill: none;" fill="none"></path></g></g></g></g></g></g><g transform="translate(30, 177)" clip-path="url(#clip_1)"><clipPath id="clip_1"><rect width="270" height="23"></rect></clipPath><g><g><line x1="0" y1="0" x2="0" y2="5" style="visibility: inherit;" fill="rgb(0, 0, 0)" stroke="rgb(204, 204, 204)" stroke-width="1px"></line><line x1="22.518229166666664" y1="0" x2="22.518229166666664" y2="5" style="visibility: inherit;" fill="rgb(0, 0, 0)" stroke="rgb(204, 204, 204)" stroke-width="1px"></line><line x1="45.03645833333333" y1="0" x2="45.03645833333333" y2="5" style="visibility: inherit;" fill="rgb(0, 0, 0)" stroke="rgb(204, 204, 204)" stroke-width="1px"></line><line x1="67.5546875" y1="0" x2="67.5546875" y2="5" style="visibility: inherit;" fill="rgb(0, 0, 0)" stroke="rgb(204, 204, 204)" stroke-width="1px"></line><line x1="90.07291666666666" y1="0" x2="90.07291666666666" y2="5" style="visibility: inherit;" fill="rgb(0, 0, 0)" stroke="rgb(204, 204, 204)" stroke-width="1px"></line><line x1="112.59114583333334" y1="0" x2="112.59114583333334" y2="5" style="visibility: inherit;" fill="rgb(0, 0, 0)" stroke="rgb(204, 204, 204)" stroke-width="1px"></line><line x1="135.109375" y1="0" x2="135.109375" y2="5" style="visibility: inherit;" fill="rgb(0, 0, 0)" stroke="rgb(204, 204, 204)" stroke-width="1px"></line><line x1="157.62760416666669" y1="0" x2="157.62760416666669" y2="5" style="visibility: inherit;" fill="rgb(0, 0, 0)" stroke="rgb(204, 204, 204)" stroke-width="1px"></line><line x1="180.14583333333331" y1="0" x2="180.14583333333331" y2="5" style="visibility: inherit;" fill="rgb(0, 0, 0)" stroke="rgb(204, 204, 204)" stroke-width="1px"></line><line x1="202.6640625" y1="0" x2="202.6640625" y2="5" style="visibility: inherit;" fill="rgb(0, 0, 0)" stroke="rgb(204, 204, 204)" stroke-width="1px"></line><line x1="225.18229166666669" y1="0" x2="225.18229166666669" y2="5" style="visibility: inherit;" fill="rgb(0, 0, 0)" stroke="rgb(204, 204, 204)" stroke-width="1px"></line><line x1="247.70052083333331" y1="0" x2="247.70052083333331" y2="5" style="visibility: inherit;" fill="rgb(0, 0, 0)" stroke="rgb(204, 204, 204)" stroke-width="1px"></line><line x1="270.21875" y1="0" x2="270.21875" y2="5" style="visibility: inherit;" fill="rgb(0, 0, 0)" stroke="rgb(204, 204, 204)" stroke-width="1px"></line></g><g transform="translate(0, 8)"><text x="0" y="0" dx="0em" dy="0.95em" style="text-anchor: middle; visibility: hidden; font-family: Roboto, sans-serif; font-size: 12px; font-weight: 200;" fill="rgb(33, 33, 33)" stroke="none" stroke-width="1px">-20</text><text x="22.518229166666664" y="0" dx="0em" dy="0.95em" style="text-anchor: middle; visibility: inherit; font-family: Roboto, sans-serif; font-size: 12px; font-weight: 200;" fill="rgb(33, 33, 33)" stroke="none" stroke-width="1px">0</text><text x="45.03645833333333" y="0" dx="0em" dy="0.95em" style="text-anchor: middle; visibility: hidden; font-family: Roboto, sans-serif; font-size: 12px; font-weight: 200;" fill="rgb(33, 33, 33)" stroke="none" stroke-width="1px">20</text><text x="67.5546875" y="0" dx="0em" dy="0.95em" style="text-anchor: middle; visibility: inherit; font-family: Roboto, sans-serif; font-size: 12px; font-weight: 200;" fill="rgb(33, 33, 33)" stroke="none" stroke-width="1px">40</text><text x="90.07291666666666" y="0" dx="0em" dy="0.95em" style="text-anchor: middle; visibility: hidden; font-family: Roboto, sans-serif; font-size: 12px; font-weight: 200;" fill="rgb(33, 33, 33)" stroke="none" stroke-width="1px">60</text><text x="112.59114583333334" y="0" dx="0em" dy="0.95em" style="text-anchor: middle; visibility: inherit; font-family: Roboto, sans-serif; font-size: 12px; font-weight: 200;" fill="rgb(33, 33, 33)" stroke="none" stroke-width="1px">80</text><text x="135.109375" y="0" dx="0em" dy="0.95em" style="text-anchor: middle; visibility: hidden; font-family: Roboto, sans-serif; font-size: 12px; font-weight: 200;" fill="rgb(33, 33, 33)" stroke="none" stroke-width="1px">100</text><text x="157.62760416666669" y="0" dx="0em" dy="0.95em" style="text-anchor: middle; visibility: inherit; font-family: Roboto, sans-serif; font-size: 12px; font-weight: 200;" fill="rgb(33, 33, 33)" stroke="none" stroke-width="1px">120</text><text x="180.14583333333331" y="0" dx="0em" dy="0.95em" style="text-anchor: middle; visibility: hidden; font-family: Roboto, sans-serif; font-size: 12px; font-weight: 200;" fill="rgb(33, 33, 33)" stroke="none" stroke-width="1px">140</text><text x="202.6640625" y="0" dx="0em" dy="0.95em" style="text-anchor: middle; visibility: inherit; font-family: Roboto, sans-serif; font-size: 12px; font-weight: 200;" fill="rgb(33, 33, 33)" stroke="none" stroke-width="1px">160</text><text x="225.18229166666669" y="0" dx="0em" dy="0.95em" style="text-anchor: middle; visibility: hidden; font-family: Roboto, sans-serif; font-size: 12px; font-weight: 200;" fill="rgb(33, 33, 33)" stroke="none" stroke-width="1px">180</text><text x="247.70052083333331" y="0" dx="0em" dy="0.95em" style="text-anchor: middle; visibility: inherit; font-family: Roboto, sans-serif; font-size: 12px; font-weight: 200;" fill="rgb(33, 33, 33)" stroke="none" stroke-width="1px">200</text><text x="270.21875" y="0" dx="0em" dy="0.95em" style="text-anchor: middle; visibility: hidden; font-family: Roboto, sans-serif; font-size: 12px; font-weight: 200;" fill="rgb(33, 33, 33)" stroke="none" stroke-width="1px">220</text></g><line x1="0" y1="0" x2="270.21875" y2="0" fill="rgb(0, 0, 0)" stroke="rgb(204, 204, 204)" stroke-width="1px"></line></g></g></g></g></svg>