<svg viewBox="0 0 301 200" xmlns="http://www.w3.org/2000/svg"><g><g><g><g><g><line x1="41.171875" y1="177" x2="36.171875" y2="177" style="visibility: inherit;" fill="rgb(0, 0, 0)" stroke="rgb(204, 204, 204)" stroke-width="1px"></line><line x1="41.171875" y1="163.3846153846154" x2="36.171875" y2="163.3846153846154" style="visibility: inherit;" fill="rgb(0, 0, 0)" stroke="rgb(204, 204, 204)" stroke-width="1px"></line><line x1="41.171875" y1="149.76923076923077" x2="36.171875" y2="149.76923076923077" style="visibility: inherit;" fill="rgb(0, 0, 0)" stroke="rgb(204, 204, 204)" stroke-width="1px"></line><line x1="41.171875" y1="136.15384615384613" x2="36.171875" y2="136.15384615384613" style="visibility: inherit;" fill="rgb(0, 0, 0)" stroke="rgb(204, 204, 204)" stroke-width="1px"></line><line x1="41.171875" y1="122.53846153846153" x2="36.171875" y2="122.53846153846153" style="visibility: inherit;" fill="rgb(0, 0, 0)" stroke="rgb(204, 204, 204)" stroke-width="1px"></line><line x1="41.171875" y1="108.92307692307693" x2="36.171875" y2="108.92307692307693" style="visibility: inherit;" fill="rgb(0, 0, 0)" stroke="rgb(204, 204, 204)" stroke-width="1px"></line><line x1="41.171875" y1="95.3076923076923" x2="36.171875" y2="95.3076923076923" style="visibility: inherit;" fill="rgb(0, 0, 0)" stroke="rgb(204, 204, 204)" stroke-width="1px"></line><line x1="41.171875" y1="81.6923076923077" x2="36.171875" y2="81.6923076923077" style="visibility: inherit;" fill="rgb(0, 0, 0)" stroke="rgb(204, 204, 204)" stroke-width="1px"></line><line x1="41.171875" y1="68.07692307692307" x2="36.171875" y2="68.07692307692307" style="visibility: inherit;" fill="rgb(0, 0, 0)" stroke="rgb(204, 204, 204)" stroke-width="1px"></line><line x1="41.171875" y1="54.46153846153847" x2="36.171875" y2="54.46153846153847" style="visibility: inherit;" fill="rgb(0, 0, 0)" stroke="rgb(204, 204, 204)" stroke-width="1px"></line><line x1="41.171875" y1="40.84615384615384" x2="36.171875" y2="40.84615384615384" style="visibility: inherit;" fill="rgb(0, 0, 0)" stroke="rgb(204, 204, 204)" stroke-width="1px"></line><line x1="41.171875" y1="27.230769230769234" x2="36.171875" y2="27.230769230769234" style="visibility: inherit;" fill="rgb(0, 0, 0)" stroke="rgb(204, 204, 204)" stroke-width="1px"></line><line x1="41.171875" y1="13.615384615384606" x2="36.171875" y2="13.615384615384606" style="visibility: inherit;" fill="rgb(0, 0, 0)" stroke="rgb(204, 204, 204)" stroke-width="1px"></line><line x1="41.171875" y1="0" x2="36.171875" y2="0" style="visibility: inherit;" fill="rgb(0, 0, 0)" stroke="rgb(204, 204, 204)" stroke-width="1px"></line></g><g transform="translate(31.171875, 0)"><text x="0" y="177" dx="0em" dy="0.3em" style="text-anchor: end; visibility: hidden; font-family: Roboto, sans-serif; font-size: 12px; font-weight: 200;" fill="rgb(33, 33, 33)" stroke="none" stroke-width="1px">70</text><text x="0" y="163.3846153846154" dx="0em" dy="0.3em" style="text-anchor: end; visibility: inherit; font-family: Roboto, sans-serif; font-size: 12px; font-weight: 200;" fill="rgb(33, 33, 33)" stroke="none" stroke-width="1px">80</text><text x="0" y="149.76923076923077" dx="0em" dy="0.3em" style="text-anchor: end; visibility: hidden; font-family: Roboto, sans-serif; font-size: 12px; font-weight: 200;" fill="rgb(33, 33, 33)" stroke="none" stroke-width="1px">90</text><text x="0" y="136.15384615384613" dx="0em" dy="0.3em" style="text-anchor: end; visibility: inherit; font-family: Roboto, sans-serif; font-size: 12px; font-weight: 200;" fill="rgb(33, 33, 33)" stroke="none" stroke-width="1px">100</text><text x="0" y="122.53846153846153" dx="0em" dy="0.3em" style="text-anchor: end; visibility: hidden; font-family: Roboto, sans-serif; font-size: 12px; font-weight: 200;" fill="rgb(33, 33, 33)" stroke="none" stroke-width="1px">110</text><text x="0" y="108.92307692307693" dx="0em" dy="0.3em" style="text-anchor: end; visibility: inherit; font-family: Roboto, sans-serif; font-size: 12px; font-weight: 200;" fill="rgb(33, 33, 33)" stroke="none" stroke-width="1px">120</text><text x="0" y="95.3076923076923" dx="0em" dy="0.3em" style="text-anchor: end; visibility: hidden; font-family: Roboto, sans-serif; font-size: 12px; font-weight: 200;" fill="rgb(33, 33, 33)" stroke="none" stroke-width="1px">130</text><text x="0" y="81.6923076923077" dx="0em" dy="0.3em" style="text-anchor: end; visibility: inherit; font-family: Roboto, sans-serif; font-size: 12px; font-weight: 200;" fill="rgb(33, 33, 33)" stroke="none" stroke-width="1px">140</text><text x="0" y="68.07692307692307" dx="0em" dy="0.3em" style="text-anchor: end; visibility: hidden; font-family: Roboto, sans-serif; font-size: 12px; font-weight: 200;" fill="rgb(33, 33, 33)" stroke="none" stroke-width="1px">150</text><text x="0" y="54.46153846153847" dx="0em" dy="0.3em" style="text-anchor: end; visibility: inherit; font-family: Roboto, sans-serif; font-size: 12px; font-weight: 200;" fill="rgb(33, 33, 33)" stroke="none" stroke-width="1px">160</text><text x="0" y="40.84615384615384" dx="0em" dy="0.3em" style="text-anchor: end; visibility: hidden; font-family: Roboto, sans-serif; font-size: 12px; font-weight: 200;" fill="rgb(33, 33, 33)" stroke="none" stroke-width="1px">170</text><text x="0" y="27.230769230769234" dx="0em" dy="0.3em" style="text-anchor: end; visibility: inherit; font-family: Roboto, sans-serif; font-size: 12px; font-weight: 200;" fill="rgb(33, 33, 33)" stroke="none" stroke-width="1px">180</text><text x="0" y="13.615384615384606" dx="0em" dy="0.3em" style="text-anchor: end; visibility: hidden; font-family: Roboto, sans-serif; font-size: 12px; font-weight: 200;" fill="rgb(33, 33, 33)" stroke="none" stroke-width="1px">190</text><text x="0" y="0" dx="0em" dy="0.3em" style="text-anchor: end; visibility: hidden; font-family: Roboto, sans-serif; font-size: 12px; font-weight: 200;" fill="rgb(33, 33, 33)" stroke="none" stroke-width="1px">200</text></g><line x1="41.171875" y1="0" x2="41.171875" y2="177" fill="rgb(0, 0, 0)" stroke="rgb(204, 204, 204)" stroke-width="1px"></line></g></g><g transform="translate(41, 0)" clip-path="url(#clip_0)"><clipPath id="clip_0"><rect width="259" height="177"></rect></clipPath><g><g><g><line x1="0" y1="0" x2="0" y2="177" fill="rgb(0, 0, 0)" stroke="rgb(66, 66, 66)" stroke-width="1px" opacity="0.25"></line><line x1="21.65234375" y1="0" x2="21.65234375" y2="177" fill="rgb(0, 0, 0)" stroke="rgb(66, 66, 66)" stroke-width="1px" opacity="0.25"></line><line x1="43.3046875" y1="0" x2="43.3046875" y2="177" fill="rgb(0, 0, 0)" stroke="rgb(66, 66, 66)" stroke-width="1px" opacity="0.25"></line><line x1="64.95703125" y1="0" x2="64.95703125" y2="177" fill="rgb(0, 0, 0)" stroke="rgb(66, 66, 66)" stroke-width="1px" opacity="0.25"></line><line x1="86.609375" y1="0" x2="86.609375" y2="177" fill="rgb(0, 0, 0)" stroke="rgb(66, 66, 66)" stroke-width="1px" opacity="0.25"></line><line x1="108.26171875" y1="0" x2="108.26171875" y2="177" fill="rgb(0, 0, 0)" stroke="rgb(66, 66, 66)" stroke-width="1px" opacity="0.25"></line><line x1="129.9140625" y1="0" x2="129.9140625" y2="177" fill="rgb(0, 0, 0)" stroke="rgb(66, 66, 66)" stroke-width="1px" opacity="0.25"></line><line x1="151.56640625" y1="0" x2="151.56640625" y2="177" fill="rgb(0, 0, 0)" stroke="rgb(66, 66, 66)" stroke-width="1px" opacity="0.25"></line><line x1="173.21875" y1="0" x2="173.21875" y2="177" fill="rgb(0, 0, 0)" stroke="rgb(66, 66, 66)" stroke-width="1px" opacity="0.25"></line><line x1="194.87109375" y1="0" x2="194.87109375" y2="177" fill="rgb(0, 0, 0)" stroke="rgb(66, 66, 66)" stroke-width="1px" opacity="0.25"></line><line x1="216.5234375" y1="0" x2="216.5234375" y2="177" fill="rgb(0, 0, 0)" stroke="rgb(66, 66, 66)" stroke-width="1px" opacity="0.25"></line><line x1="238.17578125" y1="0" x2="238.17578125" y2="177" fill="rgb(0, 0, 0)" stroke="rgb(66, 66, 66)" stroke-width="1px" opacity="0.25"></line><line x1="259.828125" y1="0" x2="259.828125" y2="177" fill="rgb(0, 0, 0)" stroke="rgb(66, 66, 66)" stroke-width="1px" opacity="0.25"></line></g><g><line x1="0" y1="177" x2="259.828125" y2="177" fill="rgb(0, 0, 0)" stroke="rgb(66, 66, 66)" stroke-width="1px" opacity="0.25"></line><line x1="0" y1="163.3846153846154" x2="259.828125" y2="163.3846153846154" fill="rgb(0, 0, 0)" stroke="rgb(66, 66, 66)" stroke-width="1px" opacity="0.25"></line><line x1="0" y1="149.76923076923077" x2="259.828125" y2="149.76923076923077" fill="rgb(0, 0, 0)" stroke="rgb(66, 66, 66)" stroke-width="1px" opacity="0.25"></line><line x1="0" y1="136.15384615384613" x2="259.828125" y2="136.15384615384613" fill="rgb(0, 0, 0)" stroke="rgb(66, 66, 66)" stroke-width="1px" opacity="0.25"></line><line x1="0" y1="122.53846153846153" x2="259.828125" y2="122.53846153846153" fill="rgb(0, 0, 0)" stroke="rgb(66, 66, 66)" stroke-width="1px" opacity="0.25"></line><line x1="0" y1="108.92307692307693" x2="259.828125" y2="108.92307692307693" fill="rgb(0, 0, 0)" stroke="rgb(66, 66, 66)" stroke-width="1px" opacity="0.25"></line><line x1="0" y1="95.3076923076923" x2="259.828125" y2="95.3076923076923" fill="rgb(0, 0, 0)" stroke="rgb(66, 66, 66)" stroke-width="1px" opacity="0.25"></line><line x1="0" y1="81.6923076923077" x2="259.828125" y2="81.6923076923077" fill="rgb(0, 0, 0)" stroke="rgb(66, 66, 66)" stroke-width="1px" opacity="0.25"></line><line x1="0" y1="68.07692307692307" x2="259.828125" y2="68.07692307692307" fill="rgb(0, 0, 0)" stroke="rgb(66, 66, 66)" stroke-width="1px" opacity="0.25"></line><line x1="0" y1="54.46153846153847" x2="259.828125" y2="54.46153846153847" fill="rgb(0, 0, 0)" stroke="rgb(66, 66, 66)" stroke-width="1px" opacity="0.25"></line><line x1="0" y1="40.84615384615384" x2="259.828125" y2="40.84615384615384" fill="rgb(0, 0, 0)" stroke="rgb(66, 66, 66)" stroke-width="1px" opacity="0.25"></line><line x1="0" y1="27.230769230769234" x2="259.828125" y2="27.230769230769234" fill="rgb(0, 0, 0)" stroke="rgb(66, 66, 66)" stroke-width="1px" opacity="0.25"></line><line x1="0" y1="13.615384615384606" x2="259.828125" y2="13.615384615384606" fill="rgb(0, 0, 0)" stroke="rgb(66, 66, 66)" stroke-width="1px" opacity="0.25"></line><line x1="0" y1="0" x2="259.828125" y2="0" fill="rgb(0, 0, 0)" stroke="rgb(66, 66, 66)" stroke-width="1px" opacity="0.25"></line></g></g></g><g><g><line x1="0" y1="272.30769230769226" x2="259.828125" y2="272.30769230769226" fill="rgb(0, 0, 0)" stroke="rgb(153, 153, 153)" stroke-width="1.5px"></line></g></g><g><g><line x1="21.65234375" y1="0" x2="21.65234375" y2="177" fill="rgb(0, 0, 0)" stroke="rgb(153, 153, 153)" stroke-width="1.5px"></line></g></g><g><g><g><g><g><path stroke="rgb(0, 153, 136)" stroke-width="2px" d="M31.3958984375,-0.1795828012319518L32.478515625,19.185110708383416L33.561132812500006,33.4194576556866L34.64375,44.766913428673384L35.7263671875,49.37978562575121L36.808984375,54.035517531174875L37.8916015625,58.06923311673677L38.97421875,62.012804119403555L40.056835937500004,65.26338993952825L41.139453124999996,68.4783666757437L42.2220703125,71.73919478196363L43.3046875,74.40852567232572L44.3873046875,77.38527057354266L45.469921875,80.4020289494441L46.5525390625,83.57098811222957L47.635156249999994,86.53990067702074L48.7177734375,89.58724048321064L49.800390625000006,92.60809161846454L50.8830078125,95.17878077580379L51.965625,97.98495941162109L53.0482421875,100.1750115614671L54.130859375,103.35832654512846L55.2134765625,107.15921190701998L56.296093750000004,110.52427033644456L57.378710937499996,114.27035011878381L58.461328125,116.60003392146184L59.5439453125,118.54213133591874L60.6265625,119.73278151292067L61.7091796875,121.52636577899638L62.791796875,123.38252563476563L63.874414062499994,125.19908752441405L64.95703125,126.2088252727802L66.03964843749999,127.40063887376053L67.12226562500001,128.92164952204777L68.2048828125,130.92078587458684L69.2875,131.31109384390024L70.3701171875,130.7323735163762L71.452734375,130.49458835308369L72.5353515625,131.15478990994967L73.61796875,135.31872587937576L74.7005859375,130.79877178485577L75.783203125,139.7833550086388L76.8658203125,139.71502462533806L77.9484375,142.59160079956055L79.03105468749999,145.30232673058143L80.11367187500001,146.95927100548377L81.1962890625,149.65699151846079L82.27890624999999,152.86095727773812L83.36152343750001,155.76096813495343L84.444140625,157.86301557100737L85.5267578125,158.82806537334736L86.609375,161.5286736708421L87.6919921875,162.5626978947566L88.774609375,165.58853513277495L89.8572265625,164.47390224750225L90.93984375,166.3464643038236L92.0224609375,166.56935348510743L93.105078125,170.14842998798076L94.1876953125,173.62611201359675L95.27031249999999,168.64871415358323L96.35292968750001,174.21615494948168L97.435546875,170.31654475285458L98.51816406249999,173.8538107065054L99.60078125000001,169.3302728506235L100.6833984375,173.54344658484825L101.766015625,168.5263572692871L102.8486328125,173.45635598989634L103.93125,167.65258431067835L105.0138671875,171.68003610464243L106.096484375,166.78572956965522L107.1791015625,170.53377262995795L108.26171875,167.44442490797778L109.3443359375,169.07871357844428L110.426953125,168.04569696279674L111.50957031249999,167.38314778254582L112.59218750000001,167.08599683321438L113.6748046875,165.93171404325045L114.75742187499999,165.42152146559496L115.84003906250001,163.345962700477L116.92265625,162.69185873178336L118.0052734375,161.65938227726863L119.087890625,159.59265306912937L120.1705078125,159.81608241154598L121.253125,158.09645866980918L122.3357421875,157.33775042020358L123.418359375,155.67711850679837L124.5009765625,154.9359239431528L125.58359375,152.6845323415903L126.6662109375,150.26313541118915L127.74882812499999,148.73268233079176L128.8314453125,146.80124271099385L129.9140625,146.0785071152907L130.9966796875,144.7973383976863L132.07929687499998,143.05717814518854L133.1619140625,143.38882669302131L134.24453125000002,146.09632204495944L135.3271484375,145.0351651118352L136.409765625,143.9902234004094L137.4923828125,144.0932071979229L138.575,142.19698192889874L139.6576171875,142.68919337346003L140.740234375,141.6821148799016L141.82285156249998,141.06638312706582L142.90546875,141.15693283081055L143.98808593750002,141.1709458571214L145.070703125,141.39273394071137L146.1533203125,142.6786290682279L147.2359375,142.61041294978216L148.31855468749998,142.149759380634L149.401171875,146.8815812917856L150.48378906250002,131.48111994816705L151.56640625,141.87884779710035L152.6490234375,144.3969855088454L153.731640625,144.20652677095853L154.8142578125,142.34302280132587L155.896875,140.5856293311486L156.9794921875,141.9567141019381L158.06210937499998,144.50511122483474L159.1447265625,144.1605403606708L160.22734375000002,143.1857364947979L161.3099609375,143.2189564044659L162.392578125,144.3429174569937L163.4751953125,145.1244994530311L164.55781249999998,144.58563678448016L165.6404296875,144.25239891639123L166.72304687500002,144.27031772320086L167.8056640625,144.50658628023587L168.88828125,144.30409856942984L169.9708984375,144.28586813119742L171.053515625,144.10002153836766L172.1361328125,143.84489928025465L173.21875,143.9417231633113L174.30136718749998,143.9831389793983L175.383984375,144.0511681189904L176.46660156250002,144.0282735971304L177.54921875,144.05298596895656L178.6318359375,143.96729771540717L179.714453125,143.96565645658055L180.79707031249998,144.0461300776555L181.8796875,144.22614916287935L182.96230468750002,144.2025171133188L184.044921875,144.28233630840595L185.1275390625,144.2665262075571L186.21015625,144.32704502986027L187.2927734375,144.32328467735877L188.375390625,144.32402220505935L189.4580078125,144.3084717970628L190.54062499999998,144.3617088317871L191.6232421875,144.46436022244967L192.70585937500002,144.64028654832106L193.7884765625,144.62480885432316L194.87109375,144.6529387840858L195.9537109375,144.75806245070237L197.03632812499998,144.8468150799091L198.1189453125,144.89933536236103L199.20156250000002,144.92551240187424L200.2841796875,144.89836930495042L201.366796875,144.94743047860953L202.4494140625,144.96205638005185L203.53203125,141.35956596961387L204.6146484375,138.59011829082783L205.697265625,145.64767667330227L206.77988281249998,146.62576305682842L207.8625,145.6494737478403L208.94511718750002,144.71505731435923L210.027734375,144.20895749605617L211.1103515625,144.69651524470405L212.19296875,145.18045806884766L213.27558593749998,145.18338740422175L214.358203125,145.0634924081656L215.44082031250002,144.9676969088041L216.5234375,145.0628795330341L217.6060546875,145.13694393451397L218.688671875,145.0736308171199L219.7712890625,145.04207294170672L220.85390625,145.07679906991814L221.9365234375,145.18869552612304L223.01914062499998,145.16926011305588L224.1017578125,145.26209511390098L225.18437500000002,145.17837013831505L226.2669921875,145.20652084350587L227.349609375,145.3412391075721L228.4322265625,145.26091091449445L229.51484374999998,145.25947740994968L230.5974609375,145.19054453923152L231.68007812500002,145.1893395643968L232.7626953125,145.197556246244L233.8453125,145.2038200378418L234.9279296875,145.3069804264949L236.010546875,145.31222622211163L237.0931640625,145.34666149432843" style="fill: none;" fill="none"></path></g></g></g></g></g></g><g transform="translate(41, 177)" clip-path="url(#clip_1)"><clipPath id="clip_1"><rect width="259" height="23"></rect></clipPath><g><g><line x1="0" y1="0" x2="0" y2="5" style="visibility: inherit;" fill="rgb(0, 0, 0)" stroke="rgb(204, 204, 204)" stroke-width="1px"></line><line x1="21.65234375" y1="0" x2="21.65234375" y2="5" style="visibility: inherit;" fill="rgb(0, 0, 0)" stroke="rgb(204, 204, 204)" stroke-width="1px"></line><line x1="43.3046875" y1="0" x2="43.3046875" y2="5" style="visibility: inherit;" fill="rgb(0, 0, 0)" stroke="rgb(204, 204, 204)" stroke-width="1px"></line><line x1="64.95703125" y1="0" x2="64.95703125" y2="5" style="visibility: inherit;" fill="rgb(0, 0, 0)" stroke="rgb(204, 204, 204)" stroke-width="1px"></line><line x1="86.609375" y1="0" x2="86.609375" y2="5" style="visibility: inherit;" fill="rgb(0, 0, 0)" stroke="rgb(204, 204, 204)" stroke-width="1px"></line><line x1="108.26171875" y1="0" x2="108.26171875" y2="5" style="visibility: inherit;" fill="rgb(0, 0, 0)" stroke="rgb(204, 204, 204)" stroke-width="1px"></line><line x1="129.9140625" y1="0" x2="129.9140625" y2="5" style="visibility: inherit;" fill="rgb(0, 0, 0)" stroke="rgb(204, 204, 204)" stroke-width="1px"></line><line x1="151.56640625" y1="0" x2="151.56640625" y2="5" style="visibility: inherit;" fill="rgb(0, 0, 0)" stroke="rgb(204, 204, 204)" stroke-width="1px"></line><line x1="173.21875" y1="0" x2="173.21875" y2="5" style="visibility: inherit;" fill="rgb(0, 0, 0)" stroke="rgb(204, 204, 204)" stroke-width="1px"></line><line x1="194.87109375" y1="0" x2="194.87109375" y2="5" style="visibility: inherit;" fill="rgb(0, 0, 0)" stroke="rgb(204, 204, 204)" stroke-width="1px"></line><line x1="216.5234375" y1="0" x2="216.5234375" y2="5" style="visibility: inherit;" fill="rgb(0, 0, 0)" stroke="rgb(204, 204, 204)" stroke-width="1px"></line><line x1="238.17578125" y1="0" x2="238.17578125" y2="5" style="visibility: inherit;" fill="rgb(0, 0, 0)" stroke="rgb(204, 204, 204)" stroke-width="1px"></line><line x1="259.828125" y1="0" x2="259.828125" y2="5" style="visibility: inherit;" fill="rgb(0, 0, 0)" stroke="rgb(204, 204, 204)" stroke-width="1px"></line></g><g transform="translate(0, 8)"><text x="0" y="0" dx="0em" dy="0.95em" style="text-anchor: middle; visibility: hidden; font-family: Roboto, sans-serif; font-size: 12px; font-weight: 200;" fill="rgb(33, 33, 33)" stroke="none" stroke-width="1px">-20</text><text x="21.65234375" y="0" dx="0em" dy="0.95em" style="text-anchor: middle; visibility: inherit; font-family: Roboto, sans-serif; font-size: 12px; font-weight: 200;" fill="rgb(33, 33, 33)" stroke="none" stroke-width="1px">0</text><text x="43.3046875" y="0" dx="0em" dy="0.95em" style="text-anchor: middle; visibility: hidden; font-family: Roboto, sans-serif; font-size: 12px; font-weight: 200;" fill="rgb(33, 33, 33)" stroke="none" stroke-width="1px">20</text><text x="64.95703125" y="0" dx="0em" dy="0.95em" style="text-anchor: middle; visibility: inherit; font-family: Roboto, sans-serif; font-size: 12px; font-weight: 200;" fill="rgb(33, 33, 33)" stroke="none" stroke-width="1px">40</text><text x="86.609375" y="0" dx="0em" dy="0.95em" style="text-anchor: middle; visibility: hidden; font-family: Roboto, sans-serif; font-size: 12px; font-weight: 200;" fill="rgb(33, 33, 33)" stroke="none" stroke-width="1px">60</text><text x="108.26171875" y="0" dx="0em" dy="0.95em" style="text-anchor: middle; visibility: inherit; font-family: Roboto, sans-serif; font-size: 12px; font-weight: 200;" fill="rgb(33, 33, 33)" stroke="none" stroke-width="1px">80</text><text x="129.9140625" y="0" dx="0em" dy="0.95em" style="text-anchor: middle; visibility: hidden; font-family: Roboto, sans-serif; font-size: 12px; font-weight: 200;" fill="rgb(33, 33, 33)" stroke="none" stroke-width="1px">100</text><text x="151.56640625" y="0" dx="0em" dy="0.95em" style="text-anchor: middle; visibility: inherit; font-family: Roboto, sans-serif; font-size: 12px; font-weight: 200;" fill="rgb(33, 33, 33)" stroke="none" stroke-width="1px">120</text><text x="173.21875" y="0" dx="0em" dy="0.95em" style="text-anchor: middle; visibility: hidden; font-family: Roboto, sans-serif; font-size: 12px; font-weight: 200;" fill="rgb(33, 33, 33)" stroke="none" stroke-width="1px">140</text><text x="194.87109375" y="0" dx="0em" dy="0.95em" style="text-anchor: middle; visibility: inherit; font-family: Roboto, sans-serif; font-size: 12px; font-weight: 200;" fill="rgb(33, 33, 33)" stroke="none" stroke-width="1px">160</text><text x="216.5234375" y="0" dx="0em" dy="0.95em" style="text-anchor: middle; visibility: hidden; font-family: Roboto, sans-serif; font-size: 12px; font-weight: 200;" fill="rgb(33, 33, 33)" stroke="none" stroke-width="1px">180</text><text x="238.17578125" y="0" dx="0em" dy="0.95em" style="text-anchor: middle; visibility: inherit; font-family: Roboto, sans-serif; font-size: 12px; font-weight: 200;" fill="rgb(33, 33, 33)" stroke="none" stroke-width="1px">200</text><text x="259.828125" y="0" dx="0em" dy="0.95em" style="text-anchor: middle; visibility: hidden; font-family: Roboto, sans-serif; font-size: 12px; font-weight: 200;" fill="rgb(33, 33, 33)" stroke="none" stroke-width="1px">220</text></g><line x1="0" y1="0" x2="259.828125" y2="0" fill="rgb(0, 0, 0)" stroke="rgb(204, 204, 204)" stroke-width="1px"></line></g></g></g></g></svg>