<svg viewBox="0 0 301 200" xmlns="http://www.w3.org/2000/svg"><g><g><g><g><g><line x1="70" y1="177" x2="65" y2="177" style="visibility: inherit;" fill="rgb(0, 0, 0)" stroke="rgb(204, 204, 204)" stroke-width="1px"></line><line x1="70" y1="163.3846153846154" x2="65" y2="163.3846153846154" style="visibility: inherit;" fill="rgb(0, 0, 0)" stroke="rgb(204, 204, 204)" stroke-width="1px"></line><line x1="70" y1="149.76923076923077" x2="65" y2="149.76923076923077" style="visibility: inherit;" fill="rgb(0, 0, 0)" stroke="rgb(204, 204, 204)" stroke-width="1px"></line><line x1="70" y1="136.15384615384613" x2="65" y2="136.15384615384613" style="visibility: inherit;" fill="rgb(0, 0, 0)" stroke="rgb(204, 204, 204)" stroke-width="1px"></line><line x1="70" y1="122.53846153846153" x2="65" y2="122.53846153846153" style="visibility: inherit;" fill="rgb(0, 0, 0)" stroke="rgb(204, 204, 204)" stroke-width="1px"></line><line x1="70" y1="108.92307692307693" x2="65" y2="108.92307692307693" style="visibility: inherit;" fill="rgb(0, 0, 0)" stroke="rgb(204, 204, 204)" stroke-width="1px"></line><line x1="70" y1="95.3076923076923" x2="65" y2="95.3076923076923" style="visibility: inherit;" fill="rgb(0, 0, 0)" stroke="rgb(204, 204, 204)" stroke-width="1px"></line><line x1="70" y1="81.6923076923077" x2="65" y2="81.6923076923077" style="visibility: inherit;" fill="rgb(0, 0, 0)" stroke="rgb(204, 204, 204)" stroke-width="1px"></line><line x1="70" y1="68.07692307692307" x2="65" y2="68.07692307692307" style="visibility: inherit;" fill="rgb(0, 0, 0)" stroke="rgb(204, 204, 204)" stroke-width="1px"></line><line x1="70" y1="54.46153846153847" x2="65" y2="54.46153846153847" style="visibility: inherit;" fill="rgb(0, 0, 0)" stroke="rgb(204, 204, 204)" stroke-width="1px"></line><line x1="70" y1="40.84615384615384" x2="65" y2="40.84615384615384" style="visibility: inherit;" fill="rgb(0, 0, 0)" stroke="rgb(204, 204, 204)" stroke-width="1px"></line><line x1="70" y1="27.230769230769234" x2="65" y2="27.230769230769234" style="visibility: inherit;" fill="rgb(0, 0, 0)" stroke="rgb(204, 204, 204)" stroke-width="1px"></line><line x1="70" y1="13.615384615384606" x2="65" y2="13.615384615384606" style="visibility: inherit;" fill="rgb(0, 0, 0)" stroke="rgb(204, 204, 204)" stroke-width="1px"></line><line x1="70" y1="0" x2="65" y2="0" style="visibility: inherit;" fill="rgb(0, 0, 0)" stroke="rgb(204, 204, 204)" stroke-width="1px"></line></g><g transform="translate(60, 0)"><text x="0" y="177" dx="0em" dy="0.3em" style="text-anchor: end; visibility: hidden; font-family: Roboto, sans-serif; font-size: 12px; font-weight: 200;" fill="rgb(33, 33, 33)" stroke="none" stroke-width="1px">200</text><text x="0" y="163.3846153846154" dx="0em" dy="0.3em" style="text-anchor: end; visibility: inherit; font-family: Roboto, sans-serif; font-size: 12px; font-weight: 200;" fill="rgb(33, 33, 33)" stroke="none" stroke-width="1px">400</text><text x="0" y="149.76923076923077" dx="0em" dy="0.3em" style="text-anchor: end; visibility: hidden; font-family: Roboto, sans-serif; font-size: 12px; font-weight: 200;" fill="rgb(33, 33, 33)" stroke="none" stroke-width="1px">600</text><text x="0" y="136.15384615384613" dx="0em" dy="0.3em" style="text-anchor: end; visibility: inherit; font-family: Roboto, sans-serif; font-size: 12px; font-weight: 200;" fill="rgb(33, 33, 33)" stroke="none" stroke-width="1px">800</text><text x="0" y="122.53846153846153" dx="0em" dy="0.3em" style="text-anchor: end; visibility: hidden; font-family: Roboto, sans-serif; font-size: 12px; font-weight: 200;" fill="rgb(33, 33, 33)" stroke="none" stroke-width="1px">1e+3</text><text x="0" y="108.92307692307693" dx="0em" dy="0.3em" style="text-anchor: end; visibility: inherit; font-family: Roboto, sans-serif; font-size: 12px; font-weight: 200;" fill="rgb(33, 33, 33)" stroke="none" stroke-width="1px">1.2e+3</text><text x="0" y="95.3076923076923" dx="0em" dy="0.3em" style="text-anchor: end; visibility: hidden; font-family: Roboto, sans-serif; font-size: 12px; font-weight: 200;" fill="rgb(33, 33, 33)" stroke="none" stroke-width="1px">1.4e+3</text><text x="0" y="81.6923076923077" dx="0em" dy="0.3em" style="text-anchor: end; visibility: inherit; font-family: Roboto, sans-serif; font-size: 12px; font-weight: 200;" fill="rgb(33, 33, 33)" stroke="none" stroke-width="1px">1.6e+3</text><text x="0" y="68.07692307692307" dx="0em" dy="0.3em" style="text-anchor: end; visibility: hidden; font-family: Roboto, sans-serif; font-size: 12px; font-weight: 200;" fill="rgb(33, 33, 33)" stroke="none" stroke-width="1px">1.8e+3</text><text x="0" y="54.46153846153847" dx="0em" dy="0.3em" style="text-anchor: end; visibility: inherit; font-family: Roboto, sans-serif; font-size: 12px; font-weight: 200;" fill="rgb(33, 33, 33)" stroke="none" stroke-width="1px">2e+3</text><text x="0" y="40.84615384615384" dx="0em" dy="0.3em" style="text-anchor: end; visibility: hidden; font-family: Roboto, sans-serif; font-size: 12px; font-weight: 200;" fill="rgb(33, 33, 33)" stroke="none" stroke-width="1px">2.2e+3</text><text x="0" y="27.230769230769234" dx="0em" dy="0.3em" style="text-anchor: end; visibility: inherit; font-family: Roboto, sans-serif; font-size: 12px; font-weight: 200;" fill="rgb(33, 33, 33)" stroke="none" stroke-width="1px">2.4e+3</text><text x="0" y="13.615384615384606" dx="0em" dy="0.3em" style="text-anchor: end; visibility: hidden; font-family: Roboto, sans-serif; font-size: 12px; font-weight: 200;" fill="rgb(33, 33, 33)" stroke="none" stroke-width="1px">2.6e+3</text><text x="0" y="0" dx="0em" dy="0.3em" style="text-anchor: end; visibility: hidden; font-family: Roboto, sans-serif; font-size: 12px; font-weight: 200;" fill="rgb(33, 33, 33)" stroke="none" stroke-width="1px">2.8e+3</text></g><line x1="70" y1="0" x2="70" y2="177" fill="rgb(0, 0, 0)" stroke="rgb(204, 204, 204)" stroke-width="1px"></line></g></g><g transform="translate(70, 0)" clip-path="url(#clip_0)"><clipPath id="clip_0"><rect width="260" height="177"></rect></clipPath><g><g><g><line x1="0" y1="0" x2="0" y2="177" fill="rgb(0, 0, 0)" stroke="rgb(66, 66, 66)" stroke-width="1px" opacity="0.25"></line><line x1="21.666666666666664" y1="0" x2="21.666666666666664" y2="177" fill="rgb(0, 0, 0)" stroke="rgb(66, 66, 66)" stroke-width="1px" opacity="0.25"></line><line x1="43.33333333333333" y1="0" x2="43.33333333333333" y2="177" fill="rgb(0, 0, 0)" stroke="rgb(66, 66, 66)" stroke-width="1px" opacity="0.25"></line><line x1="65" y1="0" x2="65" y2="177" fill="rgb(0, 0, 0)" stroke="rgb(66, 66, 66)" stroke-width="1px" opacity="0.25"></line><line x1="86.66666666666666" y1="0" x2="86.66666666666666" y2="177" fill="rgb(0, 0, 0)" stroke="rgb(66, 66, 66)" stroke-width="1px" opacity="0.25"></line><line x1="108.33333333333334" y1="0" x2="108.33333333333334" y2="177" fill="rgb(0, 0, 0)" stroke="rgb(66, 66, 66)" stroke-width="1px" opacity="0.25"></line><line x1="130" y1="0" x2="130" y2="177" fill="rgb(0, 0, 0)" stroke="rgb(66, 66, 66)" stroke-width="1px" opacity="0.25"></line><line x1="151.66666666666669" y1="0" x2="151.66666666666669" y2="177" fill="rgb(0, 0, 0)" stroke="rgb(66, 66, 66)" stroke-width="1px" opacity="0.25"></line><line x1="173.33333333333331" y1="0" x2="173.33333333333331" y2="177" fill="rgb(0, 0, 0)" stroke="rgb(66, 66, 66)" stroke-width="1px" opacity="0.25"></line><line x1="195" y1="0" x2="195" y2="177" fill="rgb(0, 0, 0)" stroke="rgb(66, 66, 66)" stroke-width="1px" opacity="0.25"></line><line x1="216.66666666666669" y1="0" x2="216.66666666666669" y2="177" fill="rgb(0, 0, 0)" stroke="rgb(66, 66, 66)" stroke-width="1px" opacity="0.25"></line><line x1="238.33333333333331" y1="0" x2="238.33333333333331" y2="177" fill="rgb(0, 0, 0)" stroke="rgb(66, 66, 66)" stroke-width="1px" opacity="0.25"></line><line x1="260" y1="0" x2="260" y2="177" fill="rgb(0, 0, 0)" stroke="rgb(66, 66, 66)" stroke-width="1px" opacity="0.25"></line></g><g><line x1="0" y1="177" x2="260" y2="177" fill="rgb(0, 0, 0)" stroke="rgb(66, 66, 66)" stroke-width="1px" opacity="0.25"></line><line x1="0" y1="163.3846153846154" x2="260" y2="163.3846153846154" fill="rgb(0, 0, 0)" stroke="rgb(66, 66, 66)" stroke-width="1px" opacity="0.25"></line><line x1="0" y1="149.76923076923077" x2="260" y2="149.76923076923077" fill="rgb(0, 0, 0)" stroke="rgb(66, 66, 66)" stroke-width="1px" opacity="0.25"></line><line x1="0" y1="136.15384615384613" x2="260" y2="136.15384615384613" fill="rgb(0, 0, 0)" stroke="rgb(66, 66, 66)" stroke-width="1px" opacity="0.25"></line><line x1="0" y1="122.53846153846153" x2="260" y2="122.53846153846153" fill="rgb(0, 0, 0)" stroke="rgb(66, 66, 66)" stroke-width="1px" opacity="0.25"></line><line x1="0" y1="108.92307692307693" x2="260" y2="108.92307692307693" fill="rgb(0, 0, 0)" stroke="rgb(66, 66, 66)" stroke-width="1px" opacity="0.25"></line><line x1="0" y1="95.3076923076923" x2="260" y2="95.3076923076923" fill="rgb(0, 0, 0)" stroke="rgb(66, 66, 66)" stroke-width="1px" opacity="0.25"></line><line x1="0" y1="81.6923076923077" x2="260" y2="81.6923076923077" fill="rgb(0, 0, 0)" stroke="rgb(66, 66, 66)" stroke-width="1px" opacity="0.25"></line><line x1="0" y1="68.07692307692307" x2="260" y2="68.07692307692307" fill="rgb(0, 0, 0)" stroke="rgb(66, 66, 66)" stroke-width="1px" opacity="0.25"></line><line x1="0" y1="54.46153846153847" x2="260" y2="54.46153846153847" fill="rgb(0, 0, 0)" stroke="rgb(66, 66, 66)" stroke-width="1px" opacity="0.25"></line><line x1="0" y1="40.84615384615384" x2="260" y2="40.84615384615384" fill="rgb(0, 0, 0)" stroke="rgb(66, 66, 66)" stroke-width="1px" opacity="0.25"></line><line x1="0" y1="27.230769230769234" x2="260" y2="27.230769230769234" fill="rgb(0, 0, 0)" stroke="rgb(66, 66, 66)" stroke-width="1px" opacity="0.25"></line><line x1="0" y1="13.615384615384606" x2="260" y2="13.615384615384606" fill="rgb(0, 0, 0)" stroke="rgb(66, 66, 66)" stroke-width="1px" opacity="0.25"></line><line x1="0" y1="0" x2="260" y2="0" fill="rgb(0, 0, 0)" stroke="rgb(66, 66, 66)" stroke-width="1px" opacity="0.25"></line></g></g></g><g><g><line x1="0" y1="190.6153846153846" x2="260" y2="190.6153846153846" fill="rgb(0, 0, 0)" stroke="rgb(153, 153, 153)" stroke-width="1.5px"></line></g></g><g><g><line x1="21.666666666666664" y1="0" x2="21.666666666666664" y2="177" fill="rgb(0, 0, 0)" stroke="rgb(153, 153, 153)" stroke-width="1.5px"></line></g></g><g><g><g><g><g><path stroke="rgb(255, 112, 67)" stroke-width="2px" d="M21.666666666666664,9.502315204326958L22.1,9.510313744178182L22.533333333333335,9.522293534451029L22.966666666666665,9.540166201354197L23.4,9.567606853260532L23.833333333333332,9.619179888840874L24.26666666666667,9.70733261665985L24.7,9.861916546816923L25.133333333333333,10.091058763061223L25.566666666666666,10.482560965453768L26,10.969023732518728L26.433333333333334,11.820477216190842L26.866666666666667,12.985533259220201L27.3,13.03778476767504L27.733333333333334,13.095574835511776L28.166666666666668,12.785295303738058L28.6,12.517696903299331L29.03333333333333,12.625778870882915L29.466666666666665,13.04169729432784L29.900000000000002,13.820310215312954L30.333333333333332,15.0737255694091L30.766666666666666,16.90276955706005L31.2,19.317426221177755L31.633333333333336,22.287395399002676L32.06666666666667,25.69204979603552L32.5,29.42570634872061L32.93333333333334,33.35541558666057L33.36666666666667,37.368692171093606L33.800000000000004,41.438079782817866L34.23333333333333,45.60831382317117L34.666666666666664,49.84748577627703L35.1,53.42161943576629L35.53333333333333,56.544549034143486L35.96666666666667,59.44295084517536L36.400000000000006,62.21916110471006L36.833333333333336,64.81521423767973L37.266666666666666,67.25469488883473L37.699999999999996,69.44175376534007L38.13333333333333,71.19748298351831L38.56666666666667,72.53738541239487L39,73.635121339964L39.43333333333334,74.6394527248343L39.86666666666666,75.72060107857212L40.3,76.87897283935116L40.733333333333334,78.07517900121101L41.166666666666664,79.28260779518291L41.6,80.50855731537678L42.03333333333333,81.59228996316867L42.46666666666667,82.51612033458431L42.9,83.31294259588924L43.33333333333333,84.1506303599715L43.766666666666666,85.08171544930892L44.2,86.17346399014014L44.63333333333333,87.38395831445796L45.06666666666667,88.64169701015996L45.5,89.94539324365655L45.93333333333333,91.1758848907555L46.36666666666667,92.2868312274222L46.8,93.3875522933945L47.233333333333334,94.5399969334286L47.666666666666664,95.65531236904155L48.1,96.71225089798747L48.53333333333334,97.74531553278288L48.96666666666666,98.83698589418894L49.4,99.76513346860473L49.833333333333336,100.41342724913157L50.266666666666666,100.93199565236358L50.7,101.5293921780768L51.13333333333333,102.31042889533765L51.56666666666667,103.27802020153551L52,104.32721213594536L52.43333333333333,105.37871779388692L52.86666666666667,106.41828217122398L53.3,107.38352230003008L53.733333333333334,108.33383186709737L54.16666666666667,109.07844477831131L54.6,109.68348139898798L55.03333333333333,110.23837192983751L55.46666666666667,110.76446122130396L55.9,111.42175258539656L56.333333333333336,112.12343753756603L56.766666666666666,112.85579738582086L57.2,113.50470274038675L57.63333333333334,114.05502394290994L58.06666666666666,114.64318100111254L58.5,115.16198281941753L58.93333333333333,115.35976026707118L59.36666666666667,115.52547227727997L59.800000000000004,115.81949377802664L60.233333333333334,116.21795777898546L60.666666666666664,116.7573059361713L61.099999999999994,117.33673846705135L61.53333333333333,117.8927971367212L61.96666666666667,118.39593988810242L62.4,118.89161873304175L62.833333333333336,119.25143875034186L63.26666666666667,119.48124863557172L63.699999999999996,119.77283617052572L64.13333333333334,120.11362646944285L64.56666666666666,120.52109320250405L65,120.9701547007993L65.43333333333332,121.4377227032921L65.86666666666667,121.66688005376612L66.3,121.78986822907457L66.73333333333333,121.94952514793151L67.16666666666667,122.14252503467239L67.60000000000001,122.4494688782253L68.03333333333333,122.8222810583805L68.46666666666665,123.21851079060222L68.9,123.60959622045506L69.33333333333333,124.01687965234518L69.76666666666667,124.42929799498282L70.2,124.8620608338737L70.63333333333334,125.20950718654719L71.06666666666666,125.50486116288984L71.5,125.88404727540816L71.93333333333334,126.15553138319864L72.36666666666666,126.43440026020764L72.80000000000001,126.64239821276522L73.23333333333333,126.86612458721441L73.66666666666667,127.13265833856663L74.1,127.42402223045367L74.53333333333333,127.7716888040174L74.96666666666667,128.10957506876863L75.39999999999999,128.48586475467764L75.83333333333334,128.8793245262591L76.26666666666667,119.34033372942736L76.7,100.17269430316122L77.13333333333334,83.62079298288832L77.56666666666666,75.90173668216086L78,77.13745002462105L78.43333333333334,78.53869565705027L78.86666666666667,75.43828447656189L79.3,65.73848146568473L79.73333333333332,61.19036832652622L80.16666666666667,59.66182490592174L80.6,61.35810810836674L81.03333333333333,64.98639866910659L81.46666666666667,69.7078178109892L81.9,75.0512152508964L82.33333333333333,80.60907207421573L82.76666666666668,86.0641163965727L83.2,91.21073426102056L83.63333333333333,95.95772762842724L84.06666666666666,100.30671731248304L84.5,104.26458267114367L84.93333333333334,107.84113215226552L85.36666666666666,111.04693111302397L85.8,113.87974599503794L86.23333333333333,116.36264529834489L86.66666666666666,118.52307885944563L87.10000000000001,120.37884786967881L87.53333333333333,121.96628321850199L87.96666666666667,123.31977002500142L88.4,124.46524124990171L88.83333333333333,125.44140714477275L89.26666666666667,126.27517859049946L89.69999999999999,127.02368455626784L90.13333333333334,127.69610404430759L90.56666666666666,128.30660531645836L91,128.8509282308155L91.43333333333334,129.36755066595325L91.86666666666666,129.85299505552146L92.3,130.3051200125797L92.73333333333333,130.73573753489157L93.16666666666667,131.1487038265239L93.6,131.54065177683378L94.03333333333335,131.9253388106165L94.46666666666667,132.22863400677255L94.89999999999999,132.54555833375102L95.33333333333333,132.8732994496196L95.76666666666667,133.1724251512922L96.2,133.45493838592256L96.63333333333333,133.76515580874704L97.06666666666668,134.00345086956312L97.5,134.27294527759724L97.93333333333332,134.51019135150426L98.36666666666667,134.75916514143142L98.8,135.02912335243698L99.23333333333333,135.27387423306675L99.66666666666667,135.55807859633043L100.10000000000001,135.79332747630787L100.53333333333333,136.04257551222705L100.96666666666665,136.31866829787108L101.4,136.52521167396L101.83333333333333,136.7458896996885L102.26666666666667,136.98673594008054L102.7,137.23595018033436L103.13333333333334,137.4637239731345L103.56666666666666,137.6483778258879L104,137.8809739799378L104.43333333333334,138.09532819993683L104.86666666666666,138.3398160981472L105.30000000000001,138.53097157745805L105.73333333333333,138.74534038337387L106.16666666666667,138.96844499024067L106.6,139.13865145741065L107.03333333333333,139.34849343980096L107.46666666666667,139.523180996648L107.89999999999999,139.7439220820633L108.33333333333334,139.88836662063224L108.76666666666667,140.0875763313036L109.2,140.27778681252917L109.63333333333334,140.46591019035705L110.06666666666666,140.67675615027193L110.5,140.85448097381698L110.93333333333334,141.06745281956663L111.36666666666667,138.19665688179407L111.8,128.34837085684086L112.23333333333332,108.81174548961533L112.66666666666667,93.48272713150959L113.1,77.90164863617738L113.53333333333333,63.00309021836508L113.96666666666667,55.28900072807433L114.4,52.65916316971718L114.83333333333333,53.955303453212515L115.26666666666668,58.27660753391669L115.7,63.29078109562044L116.13333333333333,70.21784677486023L116.56666666666666,46.2681030093272L117,42.11133093119728L117.43333333333334,29.129040408177506L117.86666666666666,21.436389839858418L118.3,17.76318621761696L118.73333333333333,16.14505798958461L119.16666666666666,15.725803573798855L119.60000000000001,16.119638769880282L120.03333333333333,16.95884613752913L120.46666666666667,18.065010882637658L120.9,19.459486247130666L121.33333333333333,21.093263150021183L121.76666666666667,22.95641518418336L122.19999999999999,25.04908949512541L122.63333333333334,27.376280695272364L123.06666666666666,29.927503130204265L123.5,32.686440016644205L123.93333333333334,35.630836027714906L124.36666666666666,38.732884917410196L124.8,41.963304718474966L125.23333333333333,45.29605652399362L125.66666666666667,48.70891206568823L126.1,52.180626423607656L126.53333333333335,55.690378483371305L126.96666666666667,59.218239635094896L127.39999999999999,62.73963454878529L127.83333333333333,66.22402870102601L128.26666666666668,69.64831471911322L128.7,72.99650742371553L129.13333333333333,76.25677860912715L129.56666666666666,79.42049230820466L130,82.48153287741077L130.43333333333334,85.43699214231187L130.86666666666665,88.28674734368039L131.3,91.03238021209766L131.73333333333335,93.67619932993287L132.16666666666666,96.22024468810395L132.6,98.66577352184673L133.03333333333336,101.01798112783159L133.46666666666667,103.22903336194535L133.9,105.3411620356468L134.33333333333334,107.32350953358758L134.76666666666665,109.20863227514053L135.20000000000002,111.0166258795074L135.63333333333333,112.74888078236188L136.06666666666666,114.41514307278253L136.5,116.01628427365749L136.9333333333333,117.55458573096132L137.36666666666667,119.03226721381719L137.8,120.39847935623503L138.23333333333332,121.78341130664965L138.66666666666666,122.54620712804028L139.1,123.4153178765838L139.53333333333333,124.34562314594727L139.96666666666667,125.23299712224386L140.4,126.09750260026938L140.83333333333331,126.92009555430226L141.26666666666668,127.69715780583857L141.70000000000002,128.41616397436854L142.13333333333333,129.0860297022293L142.56666666666666,129.72413417875947L143,130.3255709895273L143.43333333333334,130.88931925950664L143.86666666666667,131.41387395128692L144.3,131.90613030714536L144.73333333333332,132.3718492799152L145.16666666666666,132.8097938565609L145.60000000000002,133.2250356250844L146.03333333333333,133.62365739893883L146.46666666666667,134.0070335413014L146.89999999999998,134.37342913732593L147.33333333333334,134.72622591125673L147.76666666666668,135.06551496569935L148.2,135.39430107301936L148.63333333333333,135.71354776933745L149.06666666666666,136.0225766784294L149.5,136.3228621973371L149.93333333333334,136.61544851957413L150.36666666666667,136.90080094392596L150.79999999999998,137.17870668752445L151.23333333333332,137.44989402828992L151.66666666666669,137.70674571497577L152.1,137.95851785979974L152.53333333333333,138.1941670560241L152.96666666666667,138.42992687874667L153.4,138.66194701892468L153.83333333333334,138.89477650650204L154.26666666666668,139.12729715014524L154.7,139.34753454008714L155.13333333333333,139.56504570151623L155.5666666666667,139.77871062027873L156,139.99226001662336L156.43333333333334,140.203566158712L156.86666666666667,140.41095019515208L157.29999999999998,140.61491726627995L157.73333333333335,140.8155061928509L158.16666666666666,141.0121303007466L158.6,141.2048730384708L159.03333333333333,141.38923050126758L159.46666666666664,141.58506079925814L159.9,141.76344427890885L160.33333333333334,141.94725370113437L160.76666666666665,142.1253736205454L161.2,142.2950322402359L161.63333333333335,142.4792260843008L162.06666666666666,142.6392859698413L162.5,142.82316041153217L162.93333333333334,142.97184316511343L163.36666666666665,143.1513760688397L163.8,143.30793967375573L164.23333333333335,143.46493541633276L164.66666666666666,143.62971613261215L165.1,143.78284831876502L165.53333333333336,143.9441923521364L165.96666666666667,144.10525634051865L166.4,144.25686153042295L166.83333333333334,144.42096079971412L167.26666666666665,144.5634576209042L167.70000000000002,144.72968404144274L168.13333333333333,144.8660079158512L168.56666666666666,145.0322601731886L169,145.16312480884105L169.4333333333333,145.31904951158168L169.86666666666667,145.4680099071443L170.3,145.61151028998972L170.73333333333332,145.7564332360431L171.16666666666666,145.90717255430616L171.6,146.05060844544428L172.03333333333333,146.20041896600455L172.46666666666667,146.33841784594887L172.9,146.49301372965465L173.33333333333331,146.62345290050314L173.76666666666668,146.78105859426825L174.20000000000002,146.90243394712584L174.63333333333333,147.06241789719678L175.06666666666666,147.19738130848035L175.5,147.33870615700826L175.93333333333334,147.47217373927708L176.36666666666667,147.62031459137273L176.8,147.75619145915056L177.23333333333332,147.89862448711895L177.66666666666666,148.03619738795948L178.10000000000002,148.18402583399262L178.53333333333333,148.31366212937695L178.96666666666667,148.46520831090442L179.39999999999998,148.59157225216762L179.83333333333334,148.74504916748148L180.26666666666668,148.8657771529829L180.7,149.01848853675668L181.13333333333333,149.15666894649812L181.56666666666666,149.30418212586162L182,149.432206559922L182.43333333333334,149.57766822118458L182.86666666666667,149.72066491633453L183.29999999999998,149.86718701695816L183.73333333333332,150.003287636482L184.16666666666669,150.15275401968967L184.6,150.28848383271225L185.03333333333333,150.44113822631002L185.46666666666667,150.57494487050656L185.9,150.72715006533278L186.33333333333334,150.85854649014618L186.76666666666668,151.01175040573133L187.2,151.145617513571L187.63333333333333,151.28986626385174L188.0666666666667,151.42606546331405L188.5,151.5756258972042L188.93333333333334,151.71464147319332L189.36666666666667,151.8532486384232L189.79999999999998,151.98901632172579L190.23333333333335,152.13369905272597L190.66666666666666,152.27084007466442L191.1,152.41537451880708L191.53333333333333,152.5491290926695L191.96666666666664,152.69271365226635L192.4,152.8267093681176L192.83333333333334,152.969715628007L193.26666666666665,153.10381643735107L193.7,153.24244812187578L194.13333333333335,153.3786559975245L194.56666666666666,153.5118589098879L195,153.65082276217373L195.43333333333334,153.78429644801938L195.86666666666665,153.9170405528561L196.3,154.05354188354661L196.73333333333335,154.18465884031426L197.16666666666666,154.26741429457317L197.6,154.339182594923L198.03333333333336,154.45692376030414L198.46666666666667,154.54464087539824L198.9,154.70055826321973L199.33333333333334,154.82263086575935L199.76666666666665,154.9471648043865L200.20000000000002,155.05590202265594L200.63333333333333,155.17265578127686L201.06666666666666,155.28907879215853L201.5,155.40938697256075L201.9333333333333,155.5301348596933L202.36666666666667,155.65320167622014L202.8,155.7740532360506L203.23333333333332,155.894885324856L203.66666666666666,156.01446917756084L204.1,156.1333464704788L204.53333333333333,156.25193528331644L204.96666666666667,156.37002358735765L205.4,156.48779662781274L205.83333333333331,156.60502815885408L206.26666666666668,156.72196553188098L206.70000000000002,156.83836408663157L207.13333333333333,156.95439115142307L207.56666666666666,157.06998008880305L208,157.18525047158863L208.43333333333334,157.30016019412355L208.86666666666667,157.4148028284633L209.3,157.52919629105335L209.73333333333332,157.6434111649941L210.16666666666666,157.7573900780905L210.60000000000002,157.8709481929255L211.03333333333333,157.98368292003715L211.46666666666667,158.0951607407918L211.89999999999998,158.20527943726356L212.33333333333334,158.31448044405886L212.76666666666668,158.42318319112732L213.2,158.53154626252044L213.63333333333333,158.63990746567032L214.06666666666666,158.74818029107587L214.5,158.85583998429095L214.93333333333334,158.96271296555955L215.36666666666667,159.06829869185827L215.79999999999998,159.17263672337816L216.23333333333332,159.27540260005756L216.66666666666669,159.3772102255243L217.1,159.47896644105379L217.53333333333333,159.5815460962278L217.96666666666667,159.68476524318592L218.4,159.78849439981778L218.83333333333334,159.8914816496563L219.26666666666668,159.99373871654407L219.7,160.09478732078432L220.13333333333333,160.19465960513585L220.5666666666667,160.29375546109833L221,160.39182369244926L221.43333333333334,160.48940332567088L221.86666666666667,160.5863042080678L222.29999999999998,160.68255684500295L222.73333333333335,160.77565823372953L223.16666666666666,160.8614921927167L223.6,160.92842455616486L224.03333333333333,161.02046021841196L224.46666666666664,161.10517607564603L224.9,161.20284254630408L225.33333333333334,161.28199680632812L225.76666666666665,161.37160198629087L226.2,161.4570517773364L226.63333333333335,161.54596257274952L227.06666666666666,161.6360275417717L227.5,161.7268082834389L227.93333333333334,161.8158212794083L228.36666666666665,161.9051539474076L228.8,161.9933305088442L229.23333333333335,162.08069457089397L229.66666666666666,162.1675827675514L230.1,162.2531774211979L230.53333333333336,162.33792946766766L230.96666666666667,162.42126764811113L231.4,162.50392952948417L231.83333333333334,162.5860634718972L232.26666666666665,162.66877067027778L232.70000000000002,162.75176198900562L233.13333333333333,162.8360722456119L233.56666666666666,162.9199539318022L234,163.0045208491655L234.4333333333333,163.08799144016334L234.86666666666667,163.17126794289908L235.3,163.25370833184522L235.73333333333332,163.33389194434451L236.16666666666666,163.41477410328037L236.6,163.49359563497003L237.03333333333333,163.57249712144176L237.46666666666667,163.65112248410304L237.9,163.72617084717004" style="fill: none;" fill="none"></path></g></g></g></g><g opacity="0.2"><g><g><g><path stroke="rgb(255, 112, 67)" stroke-width="2px" d="M21.666666666666664,9.502315204326917L22.1,9.515112868088949L22.533333333333335,9.533794133112973L22.966666666666665,9.561184457632207L23.4,9.603433368389425L23.833333333333332,9.690523963341338L24.26666666666667,9.833392427884608L24.7,10.08730140099159L25.133333333333333,10.428999023437505L25.566666666666666,11.063896108774042L26,11.694305701622604L26.433333333333334,13.093023869441108L26.866666666666667,14.729313213641833L27.3,13.116059664212738L27.733333333333334,13.18219200721154L28.166666666666668,12.32009483924278L28.6,12.116412541316112L29.03333333333333,12.787874380258415L29.466666666666665,13.66551156850962L29.900000000000002,14.988158428485573L30.333333333333332,16.95377986027644L30.766666666666666,19.646275353064908L31.2,22.93936354417068L31.633333333333336,26.74231398362379L32.06666666666667,30.799007192758403L32.5,35.02617525540865L32.93333333333334,39.24996938852164L33.36666666666667,43.38860088641828L33.800000000000004,47.54215745192308L34.23333333333333,51.86366257887621L34.666666666666664,56.20624230018029L35.1,58.782819213867185L35.53333333333333,61.228943058894224L35.96666666666667,63.79055335411658L36.400000000000006,66.38347637469951L36.833333333333336,68.7092938701923L37.266666666666666,70.91391582782452L37.699999999999996,72.72234205979568L38.13333333333333,73.8310768010066L38.56666666666667,74.54723905123197L39,75.28172522911659L39.43333333333334,76.14594980093149L39.86666666666666,77.34232360839844L40.3,78.61653048001803L40.733333333333334,79.8694882436899L41.166666666666664,81.09375098595251L41.6,82.34748159555289L42.03333333333333,83.21788893479567L42.46666666666667,83.90186589167669L42.9,84.50817598783054L43.33333333333333,85.40716200608475L43.766666666666666,86.47834308330829L44.2,87.81108680138222L44.63333333333333,89.1996998009315L45.06666666666667,90.52830505371094L45.5,91.90093759390024L45.93333333333333,93.02162236140326L46.36666666666667,93.95325073242186L46.8,95.03863389235276L47.233333333333334,96.26866389347957L47.666666666666664,97.32828552246092L48.1,98.29765869140626L48.53333333333334,99.29491248497597L48.96666666666666,100.47449143629808L49.4,101.15735483022836L49.833333333333336,101.38586791992186L50.266666666666666,101.70984825721153L50.7,102.42548696664664L51.13333333333333,103.48198397122897L51.56666666666667,104.72940716083234L52,105.9010000375601L52.43333333333333,106.95597628079928L52.86666666666667,107.97762873722958L53.3,108.83138249323919L53.733333333333334,109.7592962176983L54.16666666666667,110.19536414513222L54.6,110.591036330003L55.03333333333333,111.07070772611176L55.46666666666667,111.55359515850361L55.9,112.40768963153545L56.333333333333336,113.17596496582033L56.766666666666666,113.95433715820313L57.2,114.47806077223558L57.63333333333334,114.88050574669472L58.06666666666666,115.52541658841648L58.5,115.940185546875L58.93333333333333,115.65642643855168L59.36666666666667,115.77404029259314L59.800000000000004,116.26052602914663L60.233333333333334,116.81565378042366L60.666666666666664,117.56632817195012L61.099999999999994,118.2058872633714L61.53333333333333,118.72688514122596L61.96666666666667,119.1506540151743L62.4,119.63513700045071L62.833333333333336,119.79116877629208L63.26666666666667,119.82596346341646L63.699999999999996,120.21021747295673L64.13333333333334,120.6248119178185L64.56666666666666,121.13229330209585L65,121.6437469482422L65.43333333333332,122.13907470703124L65.86666666666667,122.01061607947716L66.3,121.97435049203726L66.73333333333333,122.18901052621695L67.16666666666667,122.43202486478364L67.60000000000001,122.90988464355469L68.03333333333333,123.38149932861329L68.46666666666665,123.81285538893479L68.9,124.19622436523439L69.33333333333333,124.6278048001803L69.76666666666667,125.0479255089393L70.2,125.51120509221003L70.63333333333334,125.73067671555738L71.06666666666666,125.94789212740385L71.5,126.4528264441857L71.93333333333334,126.56275754488432L72.36666666666666,126.85270357572115L72.80000000000001,126.95439514160155L73.23333333333333,127.20171414888823L73.66666666666667,127.53245896559494L74.1,127.86106806828424L74.53333333333333,128.293188664363L74.96666666666667,128.6164044658954L75.39999999999999,129.05029928354116L75.83333333333334,129.4695141836313L76.26666666666667,105.03184753417969L76.7,71.421235163762L77.13333333333334,58.792941002478976L77.56666666666666,64.32315223106971L78,78.9910200383113L78.43333333333334,80.64056410569411L78.86666666666667,70.78766770582932L79.3,51.18877694936899L79.73333333333332,54.36819861778847L80.16666666666667,57.369009775015016L80.6,63.902532912034246L81.03333333333333,70.42883451021636L81.46666666666667,76.78994652381311L81.9,83.06631141075721L82.33333333333333,88.94585730919472L82.76666666666668,94.24668288010817L83.2,98.9306610576923L83.63333333333333,103.07821767953725L84.06666666666666,106.83020183856671L84.5,110.2013807091346L84.93333333333334,113.20595637394831L85.36666666666666,115.85562955416167L85.8,118.12896831805888L86.23333333333333,120.08699425330528L86.66666666666666,121.76372920109675L87.10000000000001,123.16250138502855L87.53333333333333,124.34743624173679L87.96666666666667,125.3500002347506L88.4,126.1834480872521L88.83333333333333,126.90565598707931L89.26666666666667,127.52583575908955L89.69999999999999,128.14644350492037L90.13333333333334,128.7047332763672L90.56666666666666,129.2223572246845L91,129.66741260235128L91.43333333333334,130.14248431865985L91.86666666666666,130.58116163987378L92.3,130.98330744816707L92.73333333333333,131.38166381835939L93.16666666666667,131.76815326397235L93.6,132.1285737022987L94.03333333333335,132.50236936129056L94.46666666666667,132.6835768010066L94.89999999999999,133.02094482421876L95.33333333333333,133.36491112342247L95.76666666666667,133.6211137038011L96.2,133.8787082378681L96.63333333333333,134.23048194298377L97.06666666666668,134.36089346078725L97.5,134.67718688964842L97.93333333333332,134.86606046236477L98.36666666666667,135.1326258263221L98.8,135.4340606689453L99.23333333333333,135.6410005540114L99.66666666666667,135.98438514122597L100.10000000000001,136.14620079627403L100.53333333333333,136.41644756610577L100.96666666666665,136.73280747633714L101.4,136.83502673809343L101.83333333333333,137.07690673828125L102.26666666666667,137.34800530066858L102.7,137.60977154071514L103.13333333333334,137.80538466233475L103.56666666666666,137.92535860501803L104,138.22986821101262L104.43333333333334,138.4168595299354L104.86666666666666,138.70654794546275L105.30000000000001,138.8177047964243L105.73333333333333,139.0668935922476L106.16666666666667,139.30310190054087L106.6,139.39396115816555L107.03333333333333,139.66325641338642L107.46666666666667,139.78521233191856L107.89999999999999,140.0750337101863L108.33333333333334,140.10503342848557L108.76666666666667,140.3863908973107L109.2,140.5631025343675L109.63333333333334,140.74809525709887L110.06666666666666,140.99302509014422L110.5,141.12106820913462L110.93333333333334,141.38691058819109L111.36666666666667,133.89046297513522L111.8,113.57594181941106L112.23333333333332,79.50680743877705L112.66666666666667,70.48919959435096L113.1,54.53003089317909L113.53333333333333,40.65525259164664L113.96666666666667,43.71786649263823L114.4,48.71440683218149L114.83333333333333,55.89951387845552L115.26666666666668,64.75856365497296L115.7,70.81204143817608L116.13333333333333,80.60844529371997L116.56666666666666,10.343487361027638L117,35.8761728140024L117.43333333333334,9.655604623647829L117.86666666666666,9.897413987379803L118.3,12.253380784254801L118.73333333333333,13.717865647536067L119.16666666666666,15.096921950120201L119.60000000000001,16.710391564002403L120.03333333333333,18.21765718900241L120.46666666666667,19.72425800030048L120.9,21.551199293870187L121.33333333333333,23.543928504356963L121.76666666666667,25.751143235426678L122.19999999999999,28.188100961538463L122.63333333333334,30.86706749549279L123.06666666666666,33.75433678260217L123.5,36.82484534630408L123.93333333333334,40.047430044320926L124.36666666666666,43.38595825195313L124.8,46.80893442007212L125.23333333333333,50.29518423227164L125.66666666666667,53.82819537823017L126.1,57.38819796048678L126.53333333333335,60.955006573016824L126.96666666666667,64.5100313626803L127.39999999999999,68.02172691932091L127.83333333333333,71.45061992938702L128.26666666666668,74.78474374624399L128.7,78.01879648061899L129.13333333333333,81.14718538724459L129.56666666666666,84.1660628568209L130,87.07309373121996L130.43333333333334,89.87018103966345L130.86666666666665,92.56138014573317L131.3,95.15082951472357L131.73333333333335,97.64192800668569L132.16666666666666,100.03631272536057L132.6,102.33406677246093L133.03333333333336,104.54629253680889L133.46666666666667,106.54561171311599L133.9,108.50935504619893L134.33333333333334,110.2970307804988L134.76666666666665,112.03631638746995L135.20000000000002,113.7286162860577L135.63333333333333,115.34726313664362L136.06666666666666,116.91453650841345L136.5,118.41799607496995L136.9333333333333,119.86203791691706L137.36666666666667,121.24878943810096L137.8,122.44779756986178L138.23333333333332,123.86080923227163L138.66666666666666,123.6904008601262L139.1,124.71898399939904L139.53333333333333,125.7410810499925L139.96666666666667,126.5640580866887L140.4,127.3942608173077L140.83333333333331,128.15398498535157L141.26666666666668,128.86275118314305L141.70000000000002,129.49467322716345L142.13333333333333,130.09082829402044L142.56666666666666,130.6812908935547L143,131.2277262056791L143.43333333333334,131.73494166447566L143.86666666666667,132.20070598895734L144.3,132.644514840933L144.73333333333332,133.07042773907003L145.16666666666666,133.46671072152947L145.60000000000002,133.8478982778696L146.03333333333333,134.22159005972054L146.46666666666667,134.58209775484525L146.89999999999998,134.92302253136268L147.33333333333334,135.25542107215296L147.76666666666668,135.5744485473633L148.2,135.88748023399938L148.63333333333333,136.1924178138146L149.06666666666666,136.4861200420673L149.5,136.77329047569862L149.93333333333334,137.05432800292968L150.36666666666667,137.32882958045371L150.79999999999998,137.59556530292218L151.23333333333332,137.8566750394381L151.66666666666669,138.0920232450045L152.1,138.33617607703576L152.53333333333333,138.54764085036058L152.96666666666667,138.78356661283053L153.4,139.0099772291917L153.83333333333334,139.24402073786808L154.26666666666668,139.47607811560997L154.7,139.677890625L155.13333333333333,139.89131244365987L155.5666666666667,140.0992079984225L156,140.31258411114032L156.43333333333334,140.52052537184497L156.86666666666667,140.72202624981222L157.29999999999998,140.92086787297177L157.73333333333335,141.11638958270734L158.16666666666666,141.30706646259014L158.6,141.4939871450571L159.03333333333333,141.66576669546274L159.46666666666664,141.87880624624398L159.9,142.03101949838492L160.33333333333334,142.22296783447266L160.76666666666665,142.39255349966197L161.2,142.54952016977165L161.63333333333335,142.75551685039815L162.06666666666666,142.87937579815204L162.5,143.0989720740685L162.93333333333334,143.1948672954853L163.36666666666665,143.42067542442908L163.8,143.5427850811298L164.23333333333335,143.70042903019834L164.66666666666666,143.87688720703125L165.1,144.0125465979943L165.53333333333336,144.18620840219353L165.96666666666667,144.34685232309195L166.4,144.48426931527945L166.83333333333334,144.66710970365082L167.26666666666665,144.7772028526893L167.70000000000002,144.9790236722506L168.13333333333333,145.07049372746394L168.56666666666666,145.2816385591947L169,145.3594217623197L169.4333333333333,145.55293656569262L169.86666666666667,145.6914505004883L170.3,145.8267608642578L170.73333333333332,145.97381765512318L171.16666666666666,146.1332815317007L171.6,146.26576228215146L172.03333333333333,146.42513474684495L172.46666666666667,146.5454161658654L172.9,146.72490755521335L173.33333333333331,146.81911165677585L173.76666666666668,147.01746713491588L174.20000000000002,147.08449697641228L174.63333333333333,147.30239382230317L175.06666666666666,147.39982642540565L175.5,147.5506934298002L175.93333333333334,147.6723751126803L176.36666666666667,147.84252586951624L176.8,147.9600067608173L177.23333333333332,148.11227402907153L177.66666666666666,148.24255673922025L178.10000000000002,148.40576850304237L178.53333333333333,148.50811657245345L178.96666666666667,148.6925275831956L179.39999999999998,148.7811181640625L179.83333333333334,148.97526454045223L180.26666666666668,149.04686913123498L180.7,149.24755561241736L181.13333333333333,149.36393956111027L181.56666666666666,149.52545189490684L182,149.6242432110126L182.43333333333334,149.7958607130784L182.86666666666667,149.9351599590595L183.29999999999998,150.0869701678936L183.73333333333332,150.20743856576772L184.16666666666669,150.3769535945012L184.6,150.49207855224608L185.03333333333333,150.67011981670674L185.46666666666667,150.77565483680138L185.9,150.95545785757213L186.33333333333334,151.0556411273663L186.76666666666668,151.2415562791091L187.2,151.34641817533054L187.63333333333333,151.50623938927282L188.0666666666667,151.63036426250753L188.5,151.79996654803938L188.93333333333334,151.92316483717698L189.36666666666667,152.06115938626803L189.79999999999998,152.19266784667968L190.23333333333335,152.35072314922627L190.66666666666666,152.4765516075721L191.1,152.63217618502105L191.53333333333333,152.74976095346304L191.96666666666664,152.90809049166165L192.4,153.02770294189455L192.83333333333334,153.18422501784104L193.26666666666665,153.30496765136718L193.7,153.45039564866286L194.13333333333335,153.58296781099762L194.56666666666666,153.71166327843298L195,153.85926854060247L195.43333333333334,153.98450697678786L195.86666666666665,154.11615671011117L196.3,154.25829387958234L196.73333333333335,154.38133427546575L197.16666666666666,154.39154747596154L197.6,154.44683504544773L198.03333333333336,154.6335355083759L198.46666666666667,154.67621654803935L198.9,154.9344343449519L199.33333333333334,155.0057397695688L199.76666666666665,155.13396571232724L200.20000000000002,155.21900785006008L200.63333333333333,155.34778641920823L201.06666666666666,155.46371330848106L201.5,155.58984924316405L201.9333333333333,155.71125669039213L202.36666666666667,155.83780190101038L202.8,155.95533057579627L203.23333333333332,156.07613345806413L203.66666666666666,156.1938449566181L204.1,156.31166240985578L204.53333333333333,156.42981850257286L204.96666666666667,156.54715604341948L205.4,156.66445618849534L205.83333333333331,156.78087545541615L206.26666666666668,156.89737159142126L206.70000000000002,157.01296191875753L207.13333333333333,157.12843174861027L207.56666666666666,157.24336349487305L208,157.35815604576698L208.43333333333334,157.47252477792594L208.86666666666667,157.58676677997295L209.3,157.70078648493842L209.73333333333332,157.8147334759052L210.16666666666666,157.92835844773512L210.60000000000002,158.04128536517803L211.03333333333333,158.15278501070463L211.46666666666667,158.26237747192383L211.89999999999998,158.37045748197116L212.33333333333334,158.4782819542518L212.76666666666668,158.58623731173L213.2,158.69409086961014L213.63333333333333,158.80244927039513L214.06666666666666,158.9105895291842L214.5,159.0173295241136L214.93333333333334,159.12302243746242L215.36666666666667,159.22667728130634L215.79999999999998,159.32914377065805L216.23333333333332,159.42955141507662L216.66666666666669,159.52992166372445L217.1,159.63160076434795L217.53333333333333,159.7354155789889L217.96666666666667,159.83959396362306L218.4,159.94408813476562L218.83333333333334,160.04596252441405L219.26666666666668,160.14712431687576L219.7,160.2463602271447L220.13333333333333,160.34446803166315L220.5666666666667,160.44239924504208L221,160.53892603947565L221.43333333333334,160.6357727755033L221.86666666666667,160.73165553166316L222.29999999999998,160.82693580040564L222.73333333333335,160.91531031681941L223.16666666666666,160.99024313119742L223.6,161.02882310133714L224.03333333333333,161.1585137117826L224.46666666666664,161.23224986149714L224.9,161.34934225229117L225.33333333333334,161.40072819636418L225.76666666666665,161.506009756235L226.2,161.58522646390475L226.63333333333335,161.67932876586914L227.06666666666666,161.77112499530497L227.5,161.86297939593976L227.93333333333334,161.9493407733624L228.36666666666665,162.03915294940654L228.8,162.1255953509991L229.23333333333335,162.2117406639686L229.66666666666666,162.29791506253756L230.1,162.38156940166766L230.53333333333336,162.46505753737227L230.96666666666667,162.54627491877628L231.4,162.62792235154373L231.83333333333334,162.70926438551683L232.26666666666665,162.79283146784854L232.70000000000002,162.87624896709735L233.13333333333333,162.96253763052133L233.56666666666666,163.04577646108774L234,163.13137122521033L234.4333333333333,163.21319732666015L234.86666666666667,163.2961826970027L235.3,163.3773689152644L235.73333333333332,163.45416736309343L236.16666666666666,163.53609734168418L236.6,163.6118279325045L237.03333333333333,163.69084935114932L237.46666666666667,163.76906052809494L237.9,163.83874339177058" style="fill: none;" fill="none"></path></g></g></g></g></g><g><g opacity="0.847533"><span fill="rgb(0, 0, 0)" stroke="none" stroke-width="1px">Alt + Scroll to Zoom</span></g></g></g><g transform="translate(70, 177)" clip-path="url(#clip_1)"><clipPath id="clip_1"><rect width="260" height="23"></rect></clipPath><g><g><line x1="0" y1="0" x2="0" y2="5" style="visibility: inherit;" fill="rgb(0, 0, 0)" stroke="rgb(204, 204, 204)" stroke-width="1px"></line><line x1="21.666666666666664" y1="0" x2="21.666666666666664" y2="5" style="visibility: inherit;" fill="rgb(0, 0, 0)" stroke="rgb(204, 204, 204)" stroke-width="1px"></line><line x1="43.33333333333333" y1="0" x2="43.33333333333333" y2="5" style="visibility: inherit;" fill="rgb(0, 0, 0)" stroke="rgb(204, 204, 204)" stroke-width="1px"></line><line x1="65" y1="0" x2="65" y2="5" style="visibility: inherit;" fill="rgb(0, 0, 0)" stroke="rgb(204, 204, 204)" stroke-width="1px"></line><line x1="86.66666666666666" y1="0" x2="86.66666666666666" y2="5" style="visibility: inherit;" fill="rgb(0, 0, 0)" stroke="rgb(204, 204, 204)" stroke-width="1px"></line><line x1="108.33333333333334" y1="0" x2="108.33333333333334" y2="5" style="visibility: inherit;" fill="rgb(0, 0, 0)" stroke="rgb(204, 204, 204)" stroke-width="1px"></line><line x1="130" y1="0" x2="130" y2="5" style="visibility: inherit;" fill="rgb(0, 0, 0)" stroke="rgb(204, 204, 204)" stroke-width="1px"></line><line x1="151.66666666666669" y1="0" x2="151.66666666666669" y2="5" style="visibility: inherit;" fill="rgb(0, 0, 0)" stroke="rgb(204, 204, 204)" stroke-width="1px"></line><line x1="173.33333333333331" y1="0" x2="173.33333333333331" y2="5" style="visibility: inherit;" fill="rgb(0, 0, 0)" stroke="rgb(204, 204, 204)" stroke-width="1px"></line><line x1="195" y1="0" x2="195" y2="5" style="visibility: inherit;" fill="rgb(0, 0, 0)" stroke="rgb(204, 204, 204)" stroke-width="1px"></line><line x1="216.66666666666669" y1="0" x2="216.66666666666669" y2="5" style="visibility: inherit;" fill="rgb(0, 0, 0)" stroke="rgb(204, 204, 204)" stroke-width="1px"></line><line x1="238.33333333333331" y1="0" x2="238.33333333333331" y2="5" style="visibility: inherit;" fill="rgb(0, 0, 0)" stroke="rgb(204, 204, 204)" stroke-width="1px"></line><line x1="260" y1="0" x2="260" y2="5" style="visibility: inherit;" fill="rgb(0, 0, 0)" stroke="rgb(204, 204, 204)" stroke-width="1px"></line></g><g transform="translate(0, 8)"><text x="0" y="0" dx="0em" dy="0.95em" style="text-anchor: middle; visibility: hidden; font-family: Roboto, sans-serif; font-size: 12px; font-weight: 200;" fill="rgb(33, 33, 33)" stroke="none" stroke-width="1px">-50</text><text x="21.666666666666664" y="0" dx="0em" dy="0.95em" style="text-anchor: middle; visibility: inherit; font-family: Roboto, sans-serif; font-size: 12px; font-weight: 200;" fill="rgb(33, 33, 33)" stroke="none" stroke-width="1px">0</text><text x="43.33333333333333" y="0" dx="0em" dy="0.95em" style="text-anchor: middle; visibility: hidden; font-family: Roboto, sans-serif; font-size: 12px; font-weight: 200;" fill="rgb(33, 33, 33)" stroke="none" stroke-width="1px">50</text><text x="65" y="0" dx="0em" dy="0.95em" style="text-anchor: middle; visibility: inherit; font-family: Roboto, sans-serif; font-size: 12px; font-weight: 200;" fill="rgb(33, 33, 33)" stroke="none" stroke-width="1px">100</text><text x="86.66666666666666" y="0" dx="0em" dy="0.95em" style="text-anchor: middle; visibility: hidden; font-family: Roboto, sans-serif; font-size: 12px; font-weight: 200;" fill="rgb(33, 33, 33)" stroke="none" stroke-width="1px">150</text><text x="108.33333333333334" y="0" dx="0em" dy="0.95em" style="text-anchor: middle; visibility: inherit; font-family: Roboto, sans-serif; font-size: 12px; font-weight: 200;" fill="rgb(33, 33, 33)" stroke="none" stroke-width="1px">200</text><text x="130" y="0" dx="0em" dy="0.95em" style="text-anchor: middle; visibility: hidden; font-family: Roboto, sans-serif; font-size: 12px; font-weight: 200;" fill="rgb(33, 33, 33)" stroke="none" stroke-width="1px">250</text><text x="151.66666666666669" y="0" dx="0em" dy="0.95em" style="text-anchor: middle; visibility: inherit; font-family: Roboto, sans-serif; font-size: 12px; font-weight: 200;" fill="rgb(33, 33, 33)" stroke="none" stroke-width="1px">300</text><text x="173.33333333333331" y="0" dx="0em" dy="0.95em" style="text-anchor: middle; visibility: hidden; font-family: Roboto, sans-serif; font-size: 12px; font-weight: 200;" fill="rgb(33, 33, 33)" stroke="none" stroke-width="1px">350</text><text x="195" y="0" dx="0em" dy="0.95em" style="text-anchor: middle; visibility: inherit; font-family: Roboto, sans-serif; font-size: 12px; font-weight: 200;" fill="rgb(33, 33, 33)" stroke="none" stroke-width="1px">400</text><text x="216.66666666666669" y="0" dx="0em" dy="0.95em" style="text-anchor: middle; visibility: hidden; font-family: Roboto, sans-serif; font-size: 12px; font-weight: 200;" fill="rgb(33, 33, 33)" stroke="none" stroke-width="1px">450</text><text x="238.33333333333331" y="0" dx="0em" dy="0.95em" style="text-anchor: middle; visibility: inherit; font-family: Roboto, sans-serif; font-size: 12px; font-weight: 200;" fill="rgb(33, 33, 33)" stroke="none" stroke-width="1px">500</text><text x="260" y="0" dx="0em" dy="0.95em" style="text-anchor: middle; visibility: hidden; font-family: Roboto, sans-serif; font-size: 12px; font-weight: 200;" fill="rgb(33, 33, 33)" stroke="none" stroke-width="1px">550</text></g><line x1="0" y1="0" x2="260" y2="0" fill="rgb(0, 0, 0)" stroke="rgb(204, 204, 204)" stroke-width="1px"></line></g></g></g></g></svg>