<svg viewBox="0 0 301 200" xmlns="http://www.w3.org/2000/svg"><g><g><g><g><g><line x1="41.171875" y1="177" x2="36.171875" y2="177" style="visibility: inherit;" fill="rgb(0, 0, 0)" stroke="rgb(204, 204, 204)" stroke-width="1px"></line><line x1="41.171875" y1="160.9090909090909" x2="36.171875" y2="160.9090909090909" style="visibility: inherit;" fill="rgb(0, 0, 0)" stroke="rgb(204, 204, 204)" stroke-width="1px"></line><line x1="41.171875" y1="144.8181818181818" x2="36.171875" y2="144.8181818181818" style="visibility: inherit;" fill="rgb(0, 0, 0)" stroke="rgb(204, 204, 204)" stroke-width="1px"></line><line x1="41.171875" y1="128.72727272727272" x2="36.171875" y2="128.72727272727272" style="visibility: inherit;" fill="rgb(0, 0, 0)" stroke="rgb(204, 204, 204)" stroke-width="1px"></line><line x1="41.171875" y1="112.63636363636364" x2="36.171875" y2="112.63636363636364" style="visibility: inherit;" fill="rgb(0, 0, 0)" stroke="rgb(204, 204, 204)" stroke-width="1px"></line><line x1="41.171875" y1="96.54545454545453" x2="36.171875" y2="96.54545454545453" style="visibility: inherit;" fill="rgb(0, 0, 0)" stroke="rgb(204, 204, 204)" stroke-width="1px"></line><line x1="41.171875" y1="80.45454545454547" x2="36.171875" y2="80.45454545454547" style="visibility: inherit;" fill="rgb(0, 0, 0)" stroke="rgb(204, 204, 204)" stroke-width="1px"></line><line x1="41.171875" y1="64.36363636363636" x2="36.171875" y2="64.36363636363636" style="visibility: inherit;" fill="rgb(0, 0, 0)" stroke="rgb(204, 204, 204)" stroke-width="1px"></line><line x1="41.171875" y1="48.272727272727266" x2="36.171875" y2="48.272727272727266" style="visibility: inherit;" fill="rgb(0, 0, 0)" stroke="rgb(204, 204, 204)" stroke-width="1px"></line><line x1="41.171875" y1="32.18181818181817" x2="36.171875" y2="32.18181818181817" style="visibility: inherit;" fill="rgb(0, 0, 0)" stroke="rgb(204, 204, 204)" stroke-width="1px"></line><line x1="41.171875" y1="16.090909090909097" x2="36.171875" y2="16.090909090909097" style="visibility: inherit;" fill="rgb(0, 0, 0)" stroke="rgb(204, 204, 204)" stroke-width="1px"></line><line x1="41.171875" y1="0" x2="36.171875" y2="0" style="visibility: inherit;" fill="rgb(0, 0, 0)" stroke="rgb(204, 204, 204)" stroke-width="1px"></line></g><g transform="translate(31.171875, 0)"><text x="0" y="177" dx="0em" dy="0.3em" style="text-anchor: end; visibility: hidden; font-family: Roboto, sans-serif; font-size: 12px; font-weight: 200;" fill="rgb(33, 33, 33)" stroke="none" stroke-width="1px">-50</text><text x="0" y="160.9090909090909" dx="0em" dy="0.3em" style="text-anchor: end; visibility: inherit; font-family: Roboto, sans-serif; font-size: 12px; font-weight: 200;" fill="rgb(33, 33, 33)" stroke="none" stroke-width="1px">0</text><text x="0" y="144.8181818181818" dx="0em" dy="0.3em" style="text-anchor: end; visibility: hidden; font-family: Roboto, sans-serif; font-size: 12px; font-weight: 200;" fill="rgb(33, 33, 33)" stroke="none" stroke-width="1px">50</text><text x="0" y="128.72727272727272" dx="0em" dy="0.3em" style="text-anchor: end; visibility: inherit; font-family: Roboto, sans-serif; font-size: 12px; font-weight: 200;" fill="rgb(33, 33, 33)" stroke="none" stroke-width="1px">100</text><text x="0" y="112.63636363636364" dx="0em" dy="0.3em" style="text-anchor: end; visibility: hidden; font-family: Roboto, sans-serif; font-size: 12px; font-weight: 200;" fill="rgb(33, 33, 33)" stroke="none" stroke-width="1px">150</text><text x="0" y="96.54545454545453" dx="0em" dy="0.3em" style="text-anchor: end; visibility: inherit; font-family: Roboto, sans-serif; font-size: 12px; font-weight: 200;" fill="rgb(33, 33, 33)" stroke="none" stroke-width="1px">200</text><text x="0" y="80.45454545454547" dx="0em" dy="0.3em" style="text-anchor: end; visibility: hidden; font-family: Roboto, sans-serif; font-size: 12px; font-weight: 200;" fill="rgb(33, 33, 33)" stroke="none" stroke-width="1px">250</text><text x="0" y="64.36363636363636" dx="0em" dy="0.3em" style="text-anchor: end; visibility: inherit; font-family: Roboto, sans-serif; font-size: 12px; font-weight: 200;" fill="rgb(33, 33, 33)" stroke="none" stroke-width="1px">300</text><text x="0" y="48.272727272727266" dx="0em" dy="0.3em" style="text-anchor: end; visibility: hidden; font-family: Roboto, sans-serif; font-size: 12px; font-weight: 200;" fill="rgb(33, 33, 33)" stroke="none" stroke-width="1px">350</text><text x="0" y="32.18181818181817" dx="0em" dy="0.3em" style="text-anchor: end; visibility: inherit; font-family: Roboto, sans-serif; font-size: 12px; font-weight: 200;" fill="rgb(33, 33, 33)" stroke="none" stroke-width="1px">400</text><text x="0" y="16.090909090909097" dx="0em" dy="0.3em" style="text-anchor: end; visibility: hidden; font-family: Roboto, sans-serif; font-size: 12px; font-weight: 200;" fill="rgb(33, 33, 33)" stroke="none" stroke-width="1px">450</text><text x="0" y="0" dx="0em" dy="0.3em" style="text-anchor: end; visibility: hidden; font-family: Roboto, sans-serif; font-size: 12px; font-weight: 200;" fill="rgb(33, 33, 33)" stroke="none" stroke-width="1px">500</text></g><line x1="41.171875" y1="0" x2="41.171875" y2="177" fill="rgb(0, 0, 0)" stroke="rgb(204, 204, 204)" stroke-width="1px"></line></g></g><g transform="translate(41, 0)" clip-path="url(#clip_0)"><clipPath id="clip_0"><rect width="259" height="177"></rect></clipPath><g><g><g><line x1="0" y1="0" x2="0" y2="177" fill="rgb(0, 0, 0)" stroke="rgb(66, 66, 66)" stroke-width="1px" opacity="0.25"></line><line x1="21.65234375" y1="0" x2="21.65234375" y2="177" fill="rgb(0, 0, 0)" stroke="rgb(66, 66, 66)" stroke-width="1px" opacity="0.25"></line><line x1="43.3046875" y1="0" x2="43.3046875" y2="177" fill="rgb(0, 0, 0)" stroke="rgb(66, 66, 66)" stroke-width="1px" opacity="0.25"></line><line x1="64.95703125" y1="0" x2="64.95703125" y2="177" fill="rgb(0, 0, 0)" stroke="rgb(66, 66, 66)" stroke-width="1px" opacity="0.25"></line><line x1="86.609375" y1="0" x2="86.609375" y2="177" fill="rgb(0, 0, 0)" stroke="rgb(66, 66, 66)" stroke-width="1px" opacity="0.25"></line><line x1="108.26171875" y1="0" x2="108.26171875" y2="177" fill="rgb(0, 0, 0)" stroke="rgb(66, 66, 66)" stroke-width="1px" opacity="0.25"></line><line x1="129.9140625" y1="0" x2="129.9140625" y2="177" fill="rgb(0, 0, 0)" stroke="rgb(66, 66, 66)" stroke-width="1px" opacity="0.25"></line><line x1="151.56640625" y1="0" x2="151.56640625" y2="177" fill="rgb(0, 0, 0)" stroke="rgb(66, 66, 66)" stroke-width="1px" opacity="0.25"></line><line x1="173.21875" y1="0" x2="173.21875" y2="177" fill="rgb(0, 0, 0)" stroke="rgb(66, 66, 66)" stroke-width="1px" opacity="0.25"></line><line x1="194.87109375" y1="0" x2="194.87109375" y2="177" fill="rgb(0, 0, 0)" stroke="rgb(66, 66, 66)" stroke-width="1px" opacity="0.25"></line><line x1="216.5234375" y1="0" x2="216.5234375" y2="177" fill="rgb(0, 0, 0)" stroke="rgb(66, 66, 66)" stroke-width="1px" opacity="0.25"></line><line x1="238.17578125" y1="0" x2="238.17578125" y2="177" fill="rgb(0, 0, 0)" stroke="rgb(66, 66, 66)" stroke-width="1px" opacity="0.25"></line><line x1="259.828125" y1="0" x2="259.828125" y2="177" fill="rgb(0, 0, 0)" stroke="rgb(66, 66, 66)" stroke-width="1px" opacity="0.25"></line></g><g><line x1="0" y1="177" x2="259.828125" y2="177" fill="rgb(0, 0, 0)" stroke="rgb(66, 66, 66)" stroke-width="1px" opacity="0.25"></line><line x1="0" y1="160.9090909090909" x2="259.828125" y2="160.9090909090909" fill="rgb(0, 0, 0)" stroke="rgb(66, 66, 66)" stroke-width="1px" opacity="0.25"></line><line x1="0" y1="144.8181818181818" x2="259.828125" y2="144.8181818181818" fill="rgb(0, 0, 0)" stroke="rgb(66, 66, 66)" stroke-width="1px" opacity="0.25"></line><line x1="0" y1="128.72727272727272" x2="259.828125" y2="128.72727272727272" fill="rgb(0, 0, 0)" stroke="rgb(66, 66, 66)" stroke-width="1px" opacity="0.25"></line><line x1="0" y1="112.63636363636364" x2="259.828125" y2="112.63636363636364" fill="rgb(0, 0, 0)" stroke="rgb(66, 66, 66)" stroke-width="1px" opacity="0.25"></line><line x1="0" y1="96.54545454545453" x2="259.828125" y2="96.54545454545453" fill="rgb(0, 0, 0)" stroke="rgb(66, 66, 66)" stroke-width="1px" opacity="0.25"></line><line x1="0" y1="80.45454545454547" x2="259.828125" y2="80.45454545454547" fill="rgb(0, 0, 0)" stroke="rgb(66, 66, 66)" stroke-width="1px" opacity="0.25"></line><line x1="0" y1="64.36363636363636" x2="259.828125" y2="64.36363636363636" fill="rgb(0, 0, 0)" stroke="rgb(66, 66, 66)" stroke-width="1px" opacity="0.25"></line><line x1="0" y1="48.272727272727266" x2="259.828125" y2="48.272727272727266" fill="rgb(0, 0, 0)" stroke="rgb(66, 66, 66)" stroke-width="1px" opacity="0.25"></line><line x1="0" y1="32.18181818181817" x2="259.828125" y2="32.18181818181817" fill="rgb(0, 0, 0)" stroke="rgb(66, 66, 66)" stroke-width="1px" opacity="0.25"></line><line x1="0" y1="16.090909090909097" x2="259.828125" y2="16.090909090909097" fill="rgb(0, 0, 0)" stroke="rgb(66, 66, 66)" stroke-width="1px" opacity="0.25"></line><line x1="0" y1="0" x2="259.828125" y2="0" fill="rgb(0, 0, 0)" stroke="rgb(66, 66, 66)" stroke-width="1px" opacity="0.25"></line></g></g></g><g><g><line x1="0" y1="160.9090909090909" x2="259.828125" y2="160.9090909090909" fill="rgb(0, 0, 0)" stroke="rgb(153, 153, 153)" stroke-width="1.5px"></line></g></g><g><g><line x1="21.65234375" y1="0" x2="21.65234375" y2="177" fill="rgb(0, 0, 0)" stroke="rgb(153, 153, 153)" stroke-width="1.5px"></line></g></g><g><g><g><g><g><path stroke="rgb(255, 112, 67)" stroke-width="2px" d="M25.549765625,-11.149067898321967L25.9828125,10.883534575605463L26.415859375,37.48048775903985L26.84890625,49.599569836948504L27.281953124999998,45.36876457956564L27.715000000000003,41.34070106098046L28.148046875000002,36.848373361051614L28.58109375,33.88702893004355L29.014140625,37.346850875177076L29.4471875,46.596551495055984L29.880234375,60.088418321686284L30.31328125,75.65718573718473L30.746328124999998,90.41712862890141L31.179375,102.09705883711284L31.612421875000003,110.37984441787228L32.04546875,116.05426543463295L32.478515625,120.06858961256712L32.9115625,123.11023351859517L33.344609375,125.53551796547832L33.77765625,127.54171509403385L34.210703124999995,129.27138987359857L34.64375,130.75063583934468L35.076796875,132.17383952481157L35.509843749999995,133.72069611163946L35.942890625000004,134.6972948811327L36.375937500000006,135.73466384503902L36.808984375,136.82480583114045L37.242031250000004,137.5300590068663L37.675078125,138.14475990480426L38.108125,138.82269599899166L38.541171875,139.52656542914895L38.97421875,140.19647239734218L39.407265625,140.9842698801019L39.840312499999996,141.47075390596262L40.273359375,141.82136965764755L40.70640625,142.20644686121236L41.139453124999996,142.62257792232865L41.5725,143.03135119954618L42.00554687499999,143.5247627350087L42.43859375,143.93849308911982L42.871640625000005,144.421014898664L43.3046875,144.89742177211974L43.737734375,145.19987781524804L44.170781250000005,145.27277954448454L44.603828125,145.35509643485398L45.036875,145.4980002464993L45.469921875,145.67037897757828L45.90296875,145.91110142663047L46.336015625,146.22546958844458L46.7690625,146.5324594319553L47.202109375,146.68251417235678L47.635156249999994,146.77034512339807L48.068203125,146.91750609081797L48.50125,147.08715732159393L48.934296875,147.1291993639924L49.36734375,147.14440361830668L49.800390625000006,147.37821847047798L50.2334375,147.71209327489154L50.666484375,147.9770008046899L51.09953125,147.89903212288408L51.532578125,147.65714815001772L51.965625,147.47657926754084L52.398671875,147.35241514530787L52.83171875,147.28504876314352L53.264765624999995,147.36466452288968L53.6978125,147.44156634179666L54.130859375,147.59269609724774L54.563906249999995,147.8880979661878L54.996953125,148.21494407911786L55.43000000000001,148.46663481849788L55.863046875,148.46867724119636L56.296093750000004,148.39518269636912L56.729140625,148.29774800394097L57.1621875,148.2879994104967L57.595234375000004,148.45270465894893L58.02828125,148.65444470865506L58.461328125,148.83394743154955L58.894375,149.16977973600714L59.327421875,149.67113533095088L59.76046875,149.86069464572518L60.193515624999996,149.82305989823055L60.6265625,149.6829719058462L61.059609374999994,149.59475446808156L61.492656249999996,149.57803247932193L61.925703125000005,149.63322865340905L62.35875,149.77884964543676L62.791796875,150.002667924913L63.224843750000005,150.45043895074858L63.657890625,150.8078741020942L64.0909375,150.9095028980907L64.523984375,150.85233515060867L64.95703125,150.81982047124677L65.390078125,150.85411220351332L65.823125,150.99842269015L66.256171875,151.33233084131834L66.68921875,151.6729487034327L67.12226562500001,151.8839535815234L67.5553125,151.90584381750423L67.988359375,151.87446131591537L68.42140624999999,151.87910132512715L68.854453125,151.93209797297715L69.2875,152.0354746776184L69.720546875,152.1213910451963L70.15359375,152.16048941504837L70.586640625,152.24748194387323L71.01968749999999,152.42838533720015L71.452734375,152.57148786458484L71.88578125000001,152.73892770715423L72.318828125,152.80669737802123L72.75187500000001,153.00716486957285L73.184921875,153.14153694081998L73.61796875,153.24578855021198L74.05101562499999,153.36198782850255L74.48406250000001,153.40447885488297L74.917109375,153.48371803025933L75.35015625,153.52842740823237L75.783203125,153.60423214573402L76.21625,137.8340292887721L76.64929687499999,108.5357942156638L77.08234375,86.76346248021505L77.515390625,86.04542059448556L77.9484375,98.11036883396406L78.38148437500001,102.4762462471114L78.81453125,102.03743143079525L79.247578125,84.62951461131806L79.68062499999999,76.1962027964428L80.11367187500001,78.09241470432165L80.54671875,87.98497135011432L80.979765625,100.73114171232355L81.4128125,112.93539378982311L81.845859375,122.95735217410693L82.27890624999999,130.71979090984414L82.71195312500001,136.4974265589569L83.145,140.6524217057488L83.578046875,143.61135785854339L84.01109374999999,145.6425187473304L84.444140625,146.99146384350212L84.8771875,147.78735682727492L85.310234375,148.23477814332873L85.74328125000001,148.44696087458922L86.176328125,148.53425930507134L86.609375,148.5456499544917L87.042421875,148.54026098876392L87.47546875,148.54615731458293L87.90851562499999,148.609897541493L88.34156250000001,148.75328747953003L88.774609375,148.99167192563974L89.20765625,149.27638636738666L89.64070312499999,149.54622951441283L90.07375,149.80471277578638L90.50679687499999,150.10275490324258L90.93984375,150.4193752846968L91.37289062500001,150.7069713261581L91.8059375,150.97258103621778L92.238984375,151.23218407261402L92.67203125,151.5116747124782L93.105078125,151.791383538147L93.538125,152.0614623181008L93.97117187500001,152.30453792996738L94.40421875,152.5934474283906L94.837265625,152.87154461170854L95.27031249999999,153.062107647485L95.703359375,153.28551775122182L96.13640625,153.4885998436264L96.569453125,153.6572164954758L97.0025,153.85781664710794L97.435546875,154.01658857835264L97.86859375,154.18444644701603L98.301640625,154.37043861600125L98.7346875,154.4707742585789L99.167734375,154.60579508132588L99.60078125000001,154.69797417875603L100.033828125,154.81987073744492L100.466875,154.93390353544015L100.89992187499999,155.03893042526357L101.33296875,155.15265688630603L101.766015625,155.24552140978213L102.1990625,155.37501901430412L102.632109375,155.4690036806994L103.06515625,155.54156297640836L103.49820312499999,155.61256648402062L103.93125,155.6668387698624L104.36429687500001,155.78023750042064L104.79734375,155.82968144623072L105.23039062500001,155.90114057161804L105.6634375,155.94984733180695L106.096484375,156.0086567497478L106.52953124999999,156.07751513361112L106.96257812500001,156.09320590189964L107.395625,156.194257962471L107.828671875,156.19470002589568L108.26171875,156.2868825196989L108.694765625,156.34306228922412L109.12781249999999,156.38563554553153L109.560859375,156.45986078482736L109.99390625,156.47434246785022L110.426953125,156.52466378315597L110.86000000000001,156.52805672326272L111.293046875,154.368493835094L111.72609375,128.18730486373397L112.15914062499999,111.31791877362035L112.59218750000001,87.83792748931425L113.025234375,56.114881693339974L113.45828125,30.59762388461193L113.891328125,18.404450706832506L114.324375,17.522993355562583L114.75742187499999,25.465467954921348L115.19046875000001,40.204865001468434L115.623515625,58.043172130319974L116.0565625,76.28043977721542L116.48960937499999,87.59282449088535L116.92265625,65.07268559474427L117.355703125,9.609033054289755L117.78875,-23.084590199386376L121.686171875,-7.098817645014915L122.11921874999999,2.236078287280835L122.552265625,12.239223011075875L122.98531249999999,22.853850212895505L123.418359375,33.974787400464585L123.85140625000001,45.4243697769265L124.284453125,56.939273166759605L124.7175,68.18591730470774L125.150546875,78.81204465661727L125.58359375,88.5229155368681L126.016640625,97.14381535106263L126.44968750000001,104.63036624810208L126.882734375,111.02719466341203L127.31578125,116.41533613509444L127.74882812499999,120.88953290775234L128.181875,124.55484609297348L128.614921875,127.51297709159729L129.04796875,129.86814784941862L129.481015625,131.7315364813131L129.9140625,133.21109263186315L130.347109375,134.39924430204047L130.78015625,135.36906540224703L131.213203125,136.17462798424594L131.64625,136.85360993152767L132.07929687499998,137.43185304831644L132.51234375,137.92763098848027L132.94539062500002,138.35612611173164L133.3784375,138.75532190172473L133.811484375,139.09196820428946L134.24453125000002,139.36640141484995L134.677578125,139.59507927442488L135.110625,139.79067446229342L135.54367187499997,139.98156616530218L135.97671875,140.1657058596261L136.409765625,140.3550188277208L136.84281249999998,140.5585331250238L137.275859375,140.78468803186354L137.70890625,141.04653708170247L138.141953125,141.36431302106072L138.575,141.867007082545L139.00804687500002,142.38433195726847L139.44109375,142.61890495494524L139.874140625,142.90342000488297L140.3071875,143.18148360471426L140.740234375,143.4965449257902L141.17328125,143.8810164357875L141.606328125,144.31525710046398L142.03937499999998,144.74646835551545L142.472421875,145.13615521097438L142.90546875,145.49168232336197L143.33851562499999,145.8427082521049L143.77156250000002,146.1961139316429L144.20460937500002,146.54440169083946L144.63765625,146.89150533335132L145.070703125,147.23867044521677L145.50375000000003,147.5671195173298L145.936796875,147.8661021436365L146.36984375,148.15017543801517L146.80289062499997,148.43704869154226L147.2359375,148.72334257385646L147.668984375,149.00518459094474L148.10203124999998,149.27478285151287L148.53507812499998,149.53820946310498L148.96812500000001,149.79954080126498L149.401171875,150.05540220958534L149.83421875,150.30231045916295L150.26726562500002,150.54211510600868L150.7003125,150.77817344509714L151.133359375,151.00913980563917L151.56640625,151.22196403308607L151.999453125,151.4288447184578L152.4325,151.64759708376025L152.865546875,151.86458999824754L153.29859374999998,152.06430252051058L153.731640625,152.23924586611048L154.1646875,152.40368631499877L154.597734375,152.59015132119254L155.03078125,152.772188171533L155.46382812500002,152.94897560045175L155.896875,153.10905876947294L156.329921875,153.26709461615377L156.76296875000003,153.42165647228458L157.196015625,153.57371948317987L157.6290625,153.7220078809258L158.06210937499998,153.87061495416359L158.49515625,154.0167706171182L158.928203125,154.16632916048752L159.36124999999998,154.27551131492933L159.794296875,154.40942219395362L160.22734375000002,154.5423728043427L160.660390625,154.6743924658975L161.0934375,154.8039276381855L161.526484375,154.90883726112287L161.95953125,155.0332467425491L162.392578125,155.11761680496215L162.825625,155.23704456750767L163.258671875,155.31692640592095L163.69171875,155.4100402332565L164.124765625,155.5254649774672L164.55781249999998,155.62501009609946L164.990859375,155.72373360920665L165.42390625000002,155.80886377836134L165.856953125,155.88922413762782L166.29,155.97931941410633L166.72304687500002,156.04818976247748L167.15609375,156.13048000156274L167.589140625,156.18960675426683L168.02218749999997,156.26738257867206L168.455234375,156.3086992504614L168.88828125,156.3803733984047L169.32132812499998,156.46957234448496L169.754375,156.52107556070487L170.187421875,156.58414519077084L170.62046875,156.6468941669361L171.053515625,156.70107236053542L171.48656250000002,156.76337665176715L171.919609375,156.81063791427806L172.35265625,156.86631479424332L172.785703125,156.90489566587482L173.21875,156.95926857142766L173.651796875,156.98135561251655L174.08484375,157.0370878273488L174.51789062499998,157.08747937681812L174.9509375,157.1071737985762L175.383984375,157.1666218603225L175.81703124999999,157.2184920939656L176.25007812500002,157.2501384359781L176.68312500000002,157.29203398377257L177.116171875,157.3261595936993L177.54921875,157.3630654336765L177.98226562500003,157.38728757591304L178.4153125,157.4274769191329L178.848359375,157.44240594434862L179.28140624999997,157.48219379271669L179.714453125,157.4821317164148L180.1475,157.5194396154257L180.58054687499998,157.58300071522268L181.01359374999998,157.590528039635L181.44664062500001,157.61136086064622L181.8796875,157.65046643537744L182.312734375,157.67045850835447L182.74578125000002,157.69078438721152L183.178828125,157.7072539394891L183.611875,157.73530816453018L184.044921875,157.74432996957438L184.47796875,157.77075421579227L184.911015625,157.77801848281675L185.3440625,157.8088503401506L185.77710937499998,157.8027390995205L186.21015625,157.84258699941844L186.643203125,157.84922163185763L187.07625,157.8567087936565L187.509296875,157.915313205382L187.94234375000002,157.9461156472005L188.375390625,157.9468865791495L188.8084375,157.9604578669011L189.24148437500003,157.96967433256742L189.67453125,157.98833602016146L190.107578125,157.9915673747034L190.54062499999998,158.00997557760414L190.973671875,158.01013342894885L191.40671875,158.02944228506928L191.83976562499998,158.03324534998444L192.2728125,158.05218882736682L192.70585937500002,158.05878872838255L193.13890625,158.073313975222L193.571953125,158.0854456424907L194.005,158.0907027215207L194.438046875,158.10478418312772L194.87109375,158.10549918030898L195.304140625,158.10914532921922L195.7371875,158.12593038212404L196.170234375,158.12327374441114L196.60328125,158.13188266899886L197.03632812499998,158.1002188556052L197.469375,158.17168282564782L197.90242187500002,158.18997712411627L198.33546875,158.28272857432995L198.768515625,158.35528096353997L199.20156250000002,158.42850480900887L199.634609375,158.44861297701354L200.06765625,158.46498173440594L200.50070312499997,158.44928896878852L200.93375,158.44696857142537L201.366796875,158.43505325755692L201.79984374999998,158.43334840239905L202.232890625,158.42868167278985L202.6659375,158.42361209891928L203.098984375,158.41850571143064L203.53203125,158.41157500042794L203.96507812500002,158.40467586989675L204.398125,158.3978406806156L204.831171875,158.39041021024647L205.26421875,158.38280947925293L205.697265625,158.3745272076878L206.1303125,158.36589788478224L206.563359375,158.3565957924982L206.99640624999998,158.34688942476762L207.429453125,158.3366856339255L207.8625,158.3261114495747L208.29554687499999,158.31516366123765L208.72859375000002,158.30382978493284L209.16164062500002,158.29189080808237L209.5946875,158.27894352387864L210.027734375,158.26430970535836L210.46078125000003,158.24722640105148L210.893828125,158.22742833386152L211.326875,158.20618948322706L211.75992187499997,158.18677984788414L212.19296875,158.17250385025324L212.626015625,158.1628893569659L213.05906249999998,158.1541884453896L213.49210937499998,158.14564774893543L213.92515625000001,158.13856757947045L214.358203125,158.13125418612665L214.79125,158.12493887975126L215.22429687500002,158.11904159434135L215.65734375,158.1152196385007L216.090390625,158.1123317966946L216.5234375,158.11152374925922L216.956484375,158.11016975242973L217.38953125,158.107224208913L217.822578125,158.10184467799118L218.25562499999998,158.09295447483558L218.688671875,158.08143526244376L219.12171875,158.0671931346169L219.554765625,158.05077709639627L219.9878125,158.03316732220765L220.42085937500002,158.01409085075534L220.85390625,157.9943690855098L221.286953125,157.97393015464172L221.72000000000003,157.9525945443675L222.153046875,157.93097394283478L222.58609375,157.9029798235755L223.01914062499998,157.8129230162711L223.4521875,157.66592904238985L223.885234375,157.58256268069957L224.31828124999998,157.56769421769488L224.751328125,157.5861240760881L225.18437500000002,157.61936702266814L225.617421875,157.6514648201738L226.05046875,157.664674553337L226.483515625,157.67270768887806L226.9165625,157.6799277270908L227.349609375,157.68781609725858L227.78265625,157.6919038723333L228.215703125,157.6912261808496L228.64875,157.6900169356216L229.081796875,157.68700626136518L229.51484374999998,157.68457744386967L229.947890625,157.68291145475285L230.38093750000002,157.6826566698266L230.813984375,157.6831440125771L231.24703125,157.68369422240445L231.68007812500002,157.68487866223794L232.113125,157.68217403461196L232.546171875,157.67845445072987L232.97921874999997,157.66816742474367L233.412265625,157.65480222708518L233.8453125,157.63641103262896L234.27835937499998,157.61384289365853L234.71140625,157.58937086764266L235.144453125,157.56048558821254L235.5775,157.53244020172124L236.010546875,157.5032524871771L236.44359375000002,157.4726608387307L236.876640625,157.44275008433752L237.3096875,157.41239330691133L237.742734375,157.387191887911" style="fill: none;" fill="none"></path></g></g></g></g><g opacity="0.2"><g><g><g><path stroke="rgb(255, 112, 67)" stroke-width="2px" d="M25.11671875,-7.988295676491473L25.549765625,17.05497885964133L25.9828125,43.73260420365767L26.415859375,77.23117808948862L26.84890625,67.7386220481179L27.281953124999998,39.03084528142756L27.715000000000003,35.30334062056109L28.148046875000002,30.113050148703845L28.58109375,29.446265425248587L29.014140625,42.53570534446023L29.4471875,60.46969332608309L29.880234375,80.3249853515625L30.31328125,99.00948303222658L30.746328124999998,112.55655728426845L31.179375,119.61672354958274L31.612421875000003,122.80392467151988L32.04546875,124.56585662841799L32.478515625,126.09005876020953L32.9115625,127.67269159490412L33.344609375,129.1734409124201L33.77765625,130.55100893887607L34.210703124999995,131.86590108698067L34.64375,132.96950429742986L35.076796875,134.30864476984198L35.509843749999995,136.0409808072177L35.942890625000004,136.1621929654208L36.375937500000006,137.2907172463157L36.808984375,138.46001878218217L37.242031250000004,138.5879387595437L37.675078125,139.06681124600496L38.108125,139.8396001364968L38.541171875,140.58236957203258L38.97421875,141.20133284828879L39.407265625,142.16596610329367L39.840312499999996,142.20047994440253L40.273359375,142.34729328502308L40.70640625,142.7840626664595L41.139453124999996,143.24677451393822L41.5725,143.64451111533424L42.00554687499999,144.2648800381747L42.43859375,144.55908862027255L42.871640625000005,145.14479761297054L43.3046875,145.6120320822976L43.737734375,145.6535618799383L44.170781250000005,145.38213213833893L44.603828125,145.47857177040794L45.036875,145.71235596396707L45.469921875,145.92894707419654L45.90296875,146.27218510020862L46.336015625,146.69702183116567L46.7690625,146.99294419722125L47.202109375,146.907596282959L47.635156249999994,146.90209154996006L48.068203125,147.1382475419478L48.50125,147.3416341677579L48.934296875,147.19226242759012L49.36734375,147.16720999977807L49.800390625000006,147.7289407487349L50.2334375,148.2129054815119L50.666484375,148.37436209938744L51.09953125,147.78207910017534L51.532578125,147.29432219071822L51.965625,147.20572594382546L52.398671875,147.16616896195848L52.83171875,147.183999189897L53.264765624999995,147.48408816250887L53.6978125,147.55691907015714L54.130859375,147.81939073042437L54.563906249999995,148.33120076959784L54.996953125,148.70521324851296L55.43000000000001,148.84417092756792L55.863046875,148.47174087524414L56.296093750000004,148.2849408791282L56.729140625,148.15159596529875L57.1621875,148.27337652033026L57.595234375000004,148.6997625316273L58.02828125,148.95705478321423L58.461328125,149.10320151589133L58.894375,149.67352819269354L59.327421875,150.42316872336647L59.76046875,150.14503361788664L60.193515624999996,149.76660777698865L60.6265625,149.4728399172696L61.059609374999994,149.46242831143465L61.492656249999996,149.55294949618252L61.925703125000005,149.71602291453968L62.35875,149.99728113347834L62.791796875,150.33839534412732L63.224843750000005,151.12209548950196L63.657890625,151.34402682911264L64.0909375,151.0619460920854L64.523984375,150.76658352938566L64.95703125,150.7710484522039L65.390078125,150.90554980191317L65.823125,151.21488842010498L66.256171875,151.83319306807084L66.68921875,152.18387549660423L67.12226562500001,152.20046089865946L67.5553125,151.93867917147548L67.988359375,151.82738756353206L68.42140624999999,151.88606133894487L68.854453125,152.0115929447521L69.2875,152.1905397345803L69.720546875,152.25026559656317L70.15359375,152.21913696982645L70.586640625,152.37797073711047L71.01968749999999,152.69974042719062L71.452734375,152.78614165566185L71.88578125000001,152.9900874710083L72.318828125,152.90835188432172L72.75187500000001,153.3078661069003L73.184921875,153.34309504769064L73.61796875,153.4021659643L74.05101562499999,153.5362867459384L74.48406250000001,153.46821539445358L74.917109375,153.60257679332386L75.35015625,153.59549147519198L75.783203125,153.71793925198642L76.21625,114.17872500332919L76.64929687499999,64.58844160600142L77.08234375,54.104964877041894L77.515390625,84.96835776589133L77.9484375,116.2077911931818L78.38148437500001,109.02506236683237L78.81453125,101.37920920632101L79.247578125,58.51763938210227L79.68062499999999,63.546235074129974L80.11367187500001,80.93673256613992L80.54671875,102.82380631880328L80.979765625,119.85039725563742L81.4128125,131.24177190607244L81.845859375,137.99028975053267L82.27890624999999,142.36344901344992L82.71195312500001,145.16388003262605L83.145,146.8849144259366L83.578046875,148.04976208773527L84.01109374999999,148.68926008051093L84.444140625,149.01488148775968L84.8771875,148.98119630293414L85.310234375,148.90591011740943L85.74328125000001,148.76523497147994L86.176328125,148.66520695079456L86.609375,148.56273592862215L87.042421875,148.53217754017223L87.47546875,148.55500180331143L87.90851562499999,148.70550788185813L88.34156250000001,148.96837238658557L88.774609375,149.34924859480424L89.20765625,149.7034580300071L89.64070312499999,149.95099423495205L90.07375,150.1924376678467L90.50679687499999,150.54981809442694L90.93984375,150.8943058568781L91.37289062500001,151.13836538835005L91.8059375,151.37099560130727L92.238984375,151.62158862720835L92.67203125,151.93091067227448L93.105078125,152.21094677665016L93.538125,152.46658048803155L93.97117187500001,152.6691513477672L94.40421875,153.0268116760254L94.837265625,153.28869038668546L95.27031249999999,153.3479522011497L95.703359375,153.62063290682707L96.13640625,153.79322298223323L96.569453125,153.91014147324995L97.0025,154.15871687455612L97.435546875,154.25474647521972L97.86859375,154.4362332500111L98.301640625,154.6494268694791L98.7346875,154.6212777224454L99.167734375,154.80832631544632L99.60078125000001,154.83624282490123L100.033828125,155.0027155754783L100.466875,155.10495273243296L100.89992187499999,155.19647075999868L101.33296875,155.32324657786975L101.766015625,155.38481819499623L102.1990625,155.5692654210871L102.632109375,155.6099806802923L103.06515625,155.6504019199718L103.49820312499999,155.719071745439L103.93125,155.74824719862505L104.36429687500001,155.950335596258L104.79734375,155.90384736494585L105.23039062500001,156.00832925969905L105.6634375,156.02290747209028L106.096484375,156.09687087665904L106.52953124999999,156.18080270940607L106.96257812500001,156.11674205433238L107.395625,156.34583605332807L107.828671875,156.19536312103273L108.26171875,156.4251562604037L108.694765625,156.42733194351197L109.12781249999999,156.44949542999268L109.560859375,156.57119864377108L109.99390625,156.49606499238448L110.426953125,156.6001457561146L110.86000000000001,156.53314613342286L111.293046875,151.1291495028409L111.72609375,88.91552140669388L112.15914062499999,86.01383963844994L112.59218750000001,52.61794056285512L113.025234375,8.530312999378543L113.45828125,-7.678262828480117L113.891328125,0.11469094016335113L114.324375,16.200807328657678L114.75742187499999,37.37917985395952L115.19046875000001,62.313960571289066L115.623515625,84.8006328235973L116.0565625,103.6363412475586L116.48960937499999,104.56140156139028L116.92265625,31.29247725053267L117.355703125,-73.58644575639202L121.253125,-3.797450617009953L121.686171875,5.896673916903411L122.11921874999999,16.23842218572443L122.552265625,27.243940096768462L122.98531249999999,38.77579101562501L123.418359375,50.656193181818175L123.85140625000001,62.59874334161931L124.284453125,74.21162825150923L124.7175,85.05588351162996L125.150546875,94.75123568448153L125.58359375,103.08922185724431L126.016640625,110.07516507235441L126.44968750000001,115.86019259366122L126.882734375,120.62243728637695L127.31578125,124.49754834261807L127.74882812499999,127.60082806673918L128.181875,130.05281587080523L128.614921875,131.95017358953305L129.04796875,133.40090398615058L129.481015625,134.52661942915483L129.9140625,135.43042685768822L130.347109375,136.18147180730645L130.78015625,136.8237970525568L131.213203125,137.38297185724434L131.64625,137.8720828524503L132.07929687499998,138.29921772349965L132.51234375,138.67129789872604L132.94539062500002,138.99886879660866L133.3784375,139.3541155867143L133.811484375,139.59693765813654L134.24453125000002,139.7780512306907L134.677578125,139.9380960637873L135.110625,140.08406724409625L135.54367187499997,140.26790371981537L135.97671875,140.44191540111194L136.409765625,140.63898827986284L136.84281249999998,140.86380457097835L137.275859375,141.12392039212313L137.70890625,141.43931065646086L138.141953125,141.8409769300981L138.575,142.6210481747714L139.00804687500002,143.1603192693537L139.44109375,142.9707644514604L139.874140625,143.3301925797896L140.3071875,143.59857900446113L140.740234375,143.9691369074041L141.17328125,144.45772370078348L141.606328125,144.9666180974787L142.03937499999998,145.3932852380926L142.472421875,145.7206854941628L142.90546875,146.02497299194337L143.33851562499999,146.36924714521928L143.77156250000002,146.72622245094993L144.20460937500002,147.06683332963422L144.63765625,147.41216079711913L145.070703125,147.7594181130149L145.50375000000003,148.05979312549937L145.936796875,148.3145760830966L146.36984375,148.5762853795832L146.80289062499997,148.86735857183282L147.2359375,149.15278339732777L147.668984375,149.42794761657714L148.10203124999998,149.67918024236505L148.53507812499998,149.93334938049315L148.96812500000001,150.19153780850496L149.401171875,150.43919432206587L149.83421875,150.67267283352936L150.26726562500002,150.90182207627728L150.7003125,151.13226095372983L151.133359375,151.3555893464522L151.56640625,151.5412003742565L151.999453125,151.73916574651545L152.4325,151.97572563171386L152.865546875,152.19007936997846L153.29859374999998,152.36387130390514L153.731640625,152.5016608845104L154.1646875,152.6503469883312L154.597734375,152.86984883048316L155.03078125,153.04524344704367L155.46382812500002,153.2141567438299L155.896875,153.3491835230047L156.329921875,153.504148386175L156.76296875000003,153.6534992564808L157.196015625,153.8018139995228L157.6290625,153.94444047754462L158.06210937499998,154.09352556402035L158.49515625,154.23600411155007L158.928203125,154.39066697554156L159.36124999999998,154.439284546592L159.794296875,154.61028851249L160.22734375000002,154.74179871992632L160.660390625,154.87242195822975L161.0934375,154.99823039661754L161.526484375,155.0662016955289L161.95953125,155.2198609646884L162.392578125,155.24417189858175L162.825625,155.4161862113259L163.258671875,155.43674916354092L163.69171875,155.5497109742598L164.124765625,155.69860209378328L164.55781249999998,155.77432777404786L164.990859375,155.8718188788674L165.42390625000002,155.93655903209338L165.856953125,156.00976467652754L166.29,156.11446232882412L166.72304687500002,156.15149528503417L167.15609375,156.25391536019066L167.589140625,156.27829688332298L168.02218749999997,156.38404631527987L168.455234375,156.3706742581454L168.88828125,156.4878846203197L169.32132812499998,156.60337076360528L169.754375,156.59833038503473L170.187421875,156.67874963586982L170.62046875,156.74101763118398L171.053515625,156.7823396509344L171.48656250000002,156.85683308861474L171.919609375,156.88152980804443L172.35265625,156.94983011419123L172.785703125,156.9627669733221L173.21875,157.04082792975686L173.651796875,157.01448617414994L174.08484375,157.12068614959716L174.51789062499998,157.16306670102207L174.9509375,157.1367154312134L175.383984375,157.2557939529419L175.81703124999999,157.29629744443025L176.25007812500002,157.2976079489968L176.68312500000002,157.3548773054643L177.116171875,157.3773480085893L177.54921875,157.41842419364235L177.98226562500003,157.4236207892678L178.4153125,157.48776093396273L178.848359375,157.4647994821722L179.28140624999997,157.54187556526878L179.714453125,157.482038601962L180.1475,157.5754014639421L180.58054687499998,157.6783423649181L181.01359374999998,157.60181902625345L181.44664062500001,157.6426100921631L181.8796875,157.70912479747426L182.312734375,157.70044661782003L182.74578125000002,157.72127320549706L183.178828125,157.7319582679055L183.611875,157.77738950209184L184.044921875,157.75786267714068L184.47796875,157.81039058511908L184.911015625,157.7889148833535L185.3440625,157.85509812615135L185.77710937499998,157.79357223857534L186.21015625,157.90235884926537L186.643203125,157.85917358051645L187.07625,157.86793953635475L187.509296875,158.0032198229703L187.94234375000002,157.9923193099282L188.375390625,157.948042977073L188.8084375,157.98081479852848L189.24148437500003,157.98349903106688L189.67453125,158.0163285515525L190.107578125,157.99641440651632L190.54062499999998,158.03758788195523L190.973671875,158.0103702059659L191.40671875,158.05840556924994L191.83976562499998,158.03894994735717L192.2728125,158.0806040434404L192.70585937500002,158.0686885799061L193.13890625,158.09510184548117L193.571953125,158.10364314339378L194.005,158.0985883400657L194.438046875,158.12590637553822L194.87109375,158.10657167608088L195.304140625,158.11461455258456L195.7371875,158.15110796148127L196.170234375,158.11928878784178L196.60328125,158.14479605588045L197.03632812499998,158.0527231355147L197.469375,158.27887878071178L197.90242187500002,158.21741857181897L198.33546875,158.42185574965043L198.768515625,158.46410954735495L199.20156250000002,158.53834057721224L199.634609375,158.47877522902056L200.06765625,158.4895348704945L200.50070312499997,158.42574982036243L200.93375,158.44348797538063L201.366796875,158.41718028675427L201.79984374999998,158.4307911196622L202.232890625,158.42168157837608L202.6659375,158.4160077381134L203.098984375,158.4108461301977L203.53203125,158.4011789339239L203.96507812500002,158.3943271741L204.398125,158.38758789669384L204.831171875,158.37926450469277L205.26421875,158.37140838276255L205.697265625,158.36210380034012L206.1303125,158.35295390042393L206.563359375,158.34264265407216L206.99640624999998,158.33232987317172L207.429453125,158.32137994766236L207.8625,158.31025017304853L208.29554687499999,158.298741978732L208.72859375000002,158.28682897047563L209.16164062500002,158.27398234280673L209.5946875,158.259522597573L210.027734375,158.2423589775779L210.46078125000003,158.2216014445912L210.893828125,158.1977312330766L211.326875,158.1743312072754L211.75992187499997,158.15766539486972L212.19296875,158.15108985380692L212.626015625,158.14846761703492L213.05906249999998,158.14113707802514L213.49210937499998,158.13283670425415L213.92515625000001,158.127947325273L214.358203125,158.12028409611096L214.79125,158.1154659201882L215.22429687500002,158.11019566622647L215.65734375,158.10948670473965L216.090390625,158.1080000339855L216.5234375,158.11031167810614L216.956484375,158.10813875718551L217.38953125,158.1028058936379L217.822578125,158.09377538160845L218.25562499999998,158.0796191701022L218.688671875,158.06415644385598L219.12171875,158.04582994287665L219.554765625,158.02615303906526L219.9878125,158.00675266092475L220.42085937500002,157.98547614357688L220.85390625,157.9647864376415L221.286953125,157.94327175833962L221.72000000000003,157.92059112895618L222.153046875,157.89854304053566L222.58609375,157.8609886446866L223.01914062499998,157.6778378053145L223.4521875,157.44543808156794L223.885234375,157.45751313816416L224.31828124999998,157.54539152318782L224.751328125,157.613768863678L225.18437500000002,157.66923144253818L225.617421875,157.69961151643233L226.05046875,157.68448915308173L226.483515625,157.6847573921897L226.9165625,157.69075778440995L227.349609375,157.6996486525102L227.78265625,157.6980355349454L228.215703125,157.69020964362406L228.64875,157.68820306777954L229.081796875,157.6824902499806L229.51484374999998,157.6809342176264L229.947890625,157.68041247107766L230.38093750000002,157.6822744924372L230.813984375,157.68387502670288L231.24703125,157.68451953714543L231.68007812500002,157.68665532198818L232.113125,157.67811709317294L232.546171875,157.67287507490678L232.97921874999997,157.65273688576437L233.412265625,157.63475443059747L233.8453125,157.6088242409446L234.27835937499998,157.57999068520286L234.71140625,157.55266282861882L235.144453125,157.5171576690674L235.5775,157.4903721219843L236.010546875,157.4594709153609L236.44359375000002,157.42677336606113L236.876640625,157.3978839527477L237.3096875,157.36685814077205L237.742734375,157.3493897594105" style="fill: none;" fill="none"></path></g></g></g></g></g><g><g opacity="0.779276"><span fill="rgb(0, 0, 0)" stroke="none" stroke-width="1px">Alt + Scroll to Zoom</span></g></g></g><g transform="translate(41, 177)" clip-path="url(#clip_1)"><clipPath id="clip_1"><rect width="259" height="23"></rect></clipPath><g><g><line x1="0" y1="0" x2="0" y2="5" style="visibility: inherit;" fill="rgb(0, 0, 0)" stroke="rgb(204, 204, 204)" stroke-width="1px"></line><line x1="21.65234375" y1="0" x2="21.65234375" y2="5" style="visibility: inherit;" fill="rgb(0, 0, 0)" stroke="rgb(204, 204, 204)" stroke-width="1px"></line><line x1="43.3046875" y1="0" x2="43.3046875" y2="5" style="visibility: inherit;" fill="rgb(0, 0, 0)" stroke="rgb(204, 204, 204)" stroke-width="1px"></line><line x1="64.95703125" y1="0" x2="64.95703125" y2="5" style="visibility: inherit;" fill="rgb(0, 0, 0)" stroke="rgb(204, 204, 204)" stroke-width="1px"></line><line x1="86.609375" y1="0" x2="86.609375" y2="5" style="visibility: inherit;" fill="rgb(0, 0, 0)" stroke="rgb(204, 204, 204)" stroke-width="1px"></line><line x1="108.26171875" y1="0" x2="108.26171875" y2="5" style="visibility: inherit;" fill="rgb(0, 0, 0)" stroke="rgb(204, 204, 204)" stroke-width="1px"></line><line x1="129.9140625" y1="0" x2="129.9140625" y2="5" style="visibility: inherit;" fill="rgb(0, 0, 0)" stroke="rgb(204, 204, 204)" stroke-width="1px"></line><line x1="151.56640625" y1="0" x2="151.56640625" y2="5" style="visibility: inherit;" fill="rgb(0, 0, 0)" stroke="rgb(204, 204, 204)" stroke-width="1px"></line><line x1="173.21875" y1="0" x2="173.21875" y2="5" style="visibility: inherit;" fill="rgb(0, 0, 0)" stroke="rgb(204, 204, 204)" stroke-width="1px"></line><line x1="194.87109375" y1="0" x2="194.87109375" y2="5" style="visibility: inherit;" fill="rgb(0, 0, 0)" stroke="rgb(204, 204, 204)" stroke-width="1px"></line><line x1="216.5234375" y1="0" x2="216.5234375" y2="5" style="visibility: inherit;" fill="rgb(0, 0, 0)" stroke="rgb(204, 204, 204)" stroke-width="1px"></line><line x1="238.17578125" y1="0" x2="238.17578125" y2="5" style="visibility: inherit;" fill="rgb(0, 0, 0)" stroke="rgb(204, 204, 204)" stroke-width="1px"></line><line x1="259.828125" y1="0" x2="259.828125" y2="5" style="visibility: inherit;" fill="rgb(0, 0, 0)" stroke="rgb(204, 204, 204)" stroke-width="1px"></line></g><g transform="translate(0, 8)"><text x="0" y="0" dx="0em" dy="0.95em" style="text-anchor: middle; visibility: hidden; font-family: Roboto, sans-serif; font-size: 12px; font-weight: 200;" fill="rgb(33, 33, 33)" stroke="none" stroke-width="1px">-50</text><text x="21.65234375" y="0" dx="0em" dy="0.95em" style="text-anchor: middle; visibility: inherit; font-family: Roboto, sans-serif; font-size: 12px; font-weight: 200;" fill="rgb(33, 33, 33)" stroke="none" stroke-width="1px">0</text><text x="43.3046875" y="0" dx="0em" dy="0.95em" style="text-anchor: middle; visibility: hidden; font-family: Roboto, sans-serif; font-size: 12px; font-weight: 200;" fill="rgb(33, 33, 33)" stroke="none" stroke-width="1px">50</text><text x="64.95703125" y="0" dx="0em" dy="0.95em" style="text-anchor: middle; visibility: inherit; font-family: Roboto, sans-serif; font-size: 12px; font-weight: 200;" fill="rgb(33, 33, 33)" stroke="none" stroke-width="1px">100</text><text x="86.609375" y="0" dx="0em" dy="0.95em" style="text-anchor: middle; visibility: hidden; font-family: Roboto, sans-serif; font-size: 12px; font-weight: 200;" fill="rgb(33, 33, 33)" stroke="none" stroke-width="1px">150</text><text x="108.26171875" y="0" dx="0em" dy="0.95em" style="text-anchor: middle; visibility: inherit; font-family: Roboto, sans-serif; font-size: 12px; font-weight: 200;" fill="rgb(33, 33, 33)" stroke="none" stroke-width="1px">200</text><text x="129.9140625" y="0" dx="0em" dy="0.95em" style="text-anchor: middle; visibility: hidden; font-family: Roboto, sans-serif; font-size: 12px; font-weight: 200;" fill="rgb(33, 33, 33)" stroke="none" stroke-width="1px">250</text><text x="151.56640625" y="0" dx="0em" dy="0.95em" style="text-anchor: middle; visibility: inherit; font-family: Roboto, sans-serif; font-size: 12px; font-weight: 200;" fill="rgb(33, 33, 33)" stroke="none" stroke-width="1px">300</text><text x="173.21875" y="0" dx="0em" dy="0.95em" style="text-anchor: middle; visibility: hidden; font-family: Roboto, sans-serif; font-size: 12px; font-weight: 200;" fill="rgb(33, 33, 33)" stroke="none" stroke-width="1px">350</text><text x="194.87109375" y="0" dx="0em" dy="0.95em" style="text-anchor: middle; visibility: inherit; font-family: Roboto, sans-serif; font-size: 12px; font-weight: 200;" fill="rgb(33, 33, 33)" stroke="none" stroke-width="1px">400</text><text x="216.5234375" y="0" dx="0em" dy="0.95em" style="text-anchor: middle; visibility: hidden; font-family: Roboto, sans-serif; font-size: 12px; font-weight: 200;" fill="rgb(33, 33, 33)" stroke="none" stroke-width="1px">450</text><text x="238.17578125" y="0" dx="0em" dy="0.95em" style="text-anchor: middle; visibility: inherit; font-family: Roboto, sans-serif; font-size: 12px; font-weight: 200;" fill="rgb(33, 33, 33)" stroke="none" stroke-width="1px">500</text><text x="259.828125" y="0" dx="0em" dy="0.95em" style="text-anchor: middle; visibility: hidden; font-family: Roboto, sans-serif; font-size: 12px; font-weight: 200;" fill="rgb(33, 33, 33)" stroke="none" stroke-width="1px">550</text></g><line x1="0" y1="0" x2="259.828125" y2="0" fill="rgb(0, 0, 0)" stroke="rgb(204, 204, 204)" stroke-width="1px"></line></g></g></g></g></svg>