<svg viewBox="0 0 301 200" xmlns="http://www.w3.org/2000/svg"><g><g><g><g><g><line x1="41.171875" y1="177" x2="36.171875" y2="177" style="visibility: inherit;" fill="rgb(0, 0, 0)" stroke="rgb(204, 204, 204)" stroke-width="1px"></line><line x1="41.171875" y1="159.3" x2="36.171875" y2="159.3" style="visibility: inherit;" fill="rgb(0, 0, 0)" stroke="rgb(204, 204, 204)" stroke-width="1px"></line><line x1="41.171875" y1="141.6" x2="36.171875" y2="141.6" style="visibility: inherit;" fill="rgb(0, 0, 0)" stroke="rgb(204, 204, 204)" stroke-width="1px"></line><line x1="41.171875" y1="123.89999999999999" x2="36.171875" y2="123.89999999999999" style="visibility: inherit;" fill="rgb(0, 0, 0)" stroke="rgb(204, 204, 204)" stroke-width="1px"></line><line x1="41.171875" y1="106.2" x2="36.171875" y2="106.2" style="visibility: inherit;" fill="rgb(0, 0, 0)" stroke="rgb(204, 204, 204)" stroke-width="1px"></line><line x1="41.171875" y1="88.5" x2="36.171875" y2="88.5" style="visibility: inherit;" fill="rgb(0, 0, 0)" stroke="rgb(204, 204, 204)" stroke-width="1px"></line><line x1="41.171875" y1="70.8" x2="36.171875" y2="70.8" style="visibility: inherit;" fill="rgb(0, 0, 0)" stroke="rgb(204, 204, 204)" stroke-width="1px"></line><line x1="41.171875" y1="53.10000000000001" x2="36.171875" y2="53.10000000000001" style="visibility: inherit;" fill="rgb(0, 0, 0)" stroke="rgb(204, 204, 204)" stroke-width="1px"></line><line x1="41.171875" y1="35.39999999999999" x2="36.171875" y2="35.39999999999999" style="visibility: inherit;" fill="rgb(0, 0, 0)" stroke="rgb(204, 204, 204)" stroke-width="1px"></line><line x1="41.171875" y1="17.699999999999996" x2="36.171875" y2="17.699999999999996" style="visibility: inherit;" fill="rgb(0, 0, 0)" stroke="rgb(204, 204, 204)" stroke-width="1px"></line><line x1="41.171875" y1="0" x2="36.171875" y2="0" style="visibility: inherit;" fill="rgb(0, 0, 0)" stroke="rgb(204, 204, 204)" stroke-width="1px"></line></g><g transform="translate(31.171875, 0)"><text x="0" y="177" dx="0em" dy="0.3em" style="text-anchor: end; visibility: hidden; font-family: Roboto, sans-serif; font-size: 12px; font-weight: 200;" fill="rgb(33, 33, 33)" stroke="none" stroke-width="1px">-50</text><text x="0" y="159.3" dx="0em" dy="0.3em" style="text-anchor: end; visibility: inherit; font-family: Roboto, sans-serif; font-size: 12px; font-weight: 200;" fill="rgb(33, 33, 33)" stroke="none" stroke-width="1px">0</text><text x="0" y="141.6" dx="0em" dy="0.3em" style="text-anchor: end; visibility: hidden; font-family: Roboto, sans-serif; font-size: 12px; font-weight: 200;" fill="rgb(33, 33, 33)" stroke="none" stroke-width="1px">50</text><text x="0" y="123.89999999999999" dx="0em" dy="0.3em" style="text-anchor: end; visibility: inherit; font-family: Roboto, sans-serif; font-size: 12px; font-weight: 200;" fill="rgb(33, 33, 33)" stroke="none" stroke-width="1px">100</text><text x="0" y="106.2" dx="0em" dy="0.3em" style="text-anchor: end; visibility: hidden; font-family: Roboto, sans-serif; font-size: 12px; font-weight: 200;" fill="rgb(33, 33, 33)" stroke="none" stroke-width="1px">150</text><text x="0" y="88.5" dx="0em" dy="0.3em" style="text-anchor: end; visibility: inherit; font-family: Roboto, sans-serif; font-size: 12px; font-weight: 200;" fill="rgb(33, 33, 33)" stroke="none" stroke-width="1px">200</text><text x="0" y="70.8" dx="0em" dy="0.3em" style="text-anchor: end; visibility: hidden; font-family: Roboto, sans-serif; font-size: 12px; font-weight: 200;" fill="rgb(33, 33, 33)" stroke="none" stroke-width="1px">250</text><text x="0" y="53.10000000000001" dx="0em" dy="0.3em" style="text-anchor: end; visibility: inherit; font-family: Roboto, sans-serif; font-size: 12px; font-weight: 200;" fill="rgb(33, 33, 33)" stroke="none" stroke-width="1px">300</text><text x="0" y="35.39999999999999" dx="0em" dy="0.3em" style="text-anchor: end; visibility: hidden; font-family: Roboto, sans-serif; font-size: 12px; font-weight: 200;" fill="rgb(33, 33, 33)" stroke="none" stroke-width="1px">350</text><text x="0" y="17.699999999999996" dx="0em" dy="0.3em" style="text-anchor: end; visibility: inherit; font-family: Roboto, sans-serif; font-size: 12px; font-weight: 200;" fill="rgb(33, 33, 33)" stroke="none" stroke-width="1px">400</text><text x="0" y="0" dx="0em" dy="0.3em" style="text-anchor: end; visibility: hidden; font-family: Roboto, sans-serif; font-size: 12px; font-weight: 200;" fill="rgb(33, 33, 33)" stroke="none" stroke-width="1px">450</text></g><line x1="41.171875" y1="0" x2="41.171875" y2="177" fill="rgb(0, 0, 0)" stroke="rgb(204, 204, 204)" stroke-width="1px"></line></g></g><g transform="translate(41, 0)" clip-path="url(#clip_0)"><clipPath id="clip_0"><rect width="259" height="177"></rect></clipPath><g><g><g><line x1="0" y1="0" x2="0" y2="177" fill="rgb(0, 0, 0)" stroke="rgb(66, 66, 66)" stroke-width="1px" opacity="0.25"></line><line x1="21.65234375" y1="0" x2="21.65234375" y2="177" fill="rgb(0, 0, 0)" stroke="rgb(66, 66, 66)" stroke-width="1px" opacity="0.25"></line><line x1="43.3046875" y1="0" x2="43.3046875" y2="177" fill="rgb(0, 0, 0)" stroke="rgb(66, 66, 66)" stroke-width="1px" opacity="0.25"></line><line x1="64.95703125" y1="0" x2="64.95703125" y2="177" fill="rgb(0, 0, 0)" stroke="rgb(66, 66, 66)" stroke-width="1px" opacity="0.25"></line><line x1="86.609375" y1="0" x2="86.609375" y2="177" fill="rgb(0, 0, 0)" stroke="rgb(66, 66, 66)" stroke-width="1px" opacity="0.25"></line><line x1="108.26171875" y1="0" x2="108.26171875" y2="177" fill="rgb(0, 0, 0)" stroke="rgb(66, 66, 66)" stroke-width="1px" opacity="0.25"></line><line x1="129.9140625" y1="0" x2="129.9140625" y2="177" fill="rgb(0, 0, 0)" stroke="rgb(66, 66, 66)" stroke-width="1px" opacity="0.25"></line><line x1="151.56640625" y1="0" x2="151.56640625" y2="177" fill="rgb(0, 0, 0)" stroke="rgb(66, 66, 66)" stroke-width="1px" opacity="0.25"></line><line x1="173.21875" y1="0" x2="173.21875" y2="177" fill="rgb(0, 0, 0)" stroke="rgb(66, 66, 66)" stroke-width="1px" opacity="0.25"></line><line x1="194.87109375" y1="0" x2="194.87109375" y2="177" fill="rgb(0, 0, 0)" stroke="rgb(66, 66, 66)" stroke-width="1px" opacity="0.25"></line><line x1="216.5234375" y1="0" x2="216.5234375" y2="177" fill="rgb(0, 0, 0)" stroke="rgb(66, 66, 66)" stroke-width="1px" opacity="0.25"></line><line x1="238.17578125" y1="0" x2="238.17578125" y2="177" fill="rgb(0, 0, 0)" stroke="rgb(66, 66, 66)" stroke-width="1px" opacity="0.25"></line><line x1="259.828125" y1="0" x2="259.828125" y2="177" fill="rgb(0, 0, 0)" stroke="rgb(66, 66, 66)" stroke-width="1px" opacity="0.25"></line></g><g><line x1="0" y1="177" x2="259.828125" y2="177" fill="rgb(0, 0, 0)" stroke="rgb(66, 66, 66)" stroke-width="1px" opacity="0.25"></line><line x1="0" y1="159.3" x2="259.828125" y2="159.3" fill="rgb(0, 0, 0)" stroke="rgb(66, 66, 66)" stroke-width="1px" opacity="0.25"></line><line x1="0" y1="141.6" x2="259.828125" y2="141.6" fill="rgb(0, 0, 0)" stroke="rgb(66, 66, 66)" stroke-width="1px" opacity="0.25"></line><line x1="0" y1="123.89999999999999" x2="259.828125" y2="123.89999999999999" fill="rgb(0, 0, 0)" stroke="rgb(66, 66, 66)" stroke-width="1px" opacity="0.25"></line><line x1="0" y1="106.2" x2="259.828125" y2="106.2" fill="rgb(0, 0, 0)" stroke="rgb(66, 66, 66)" stroke-width="1px" opacity="0.25"></line><line x1="0" y1="88.5" x2="259.828125" y2="88.5" fill="rgb(0, 0, 0)" stroke="rgb(66, 66, 66)" stroke-width="1px" opacity="0.25"></line><line x1="0" y1="70.8" x2="259.828125" y2="70.8" fill="rgb(0, 0, 0)" stroke="rgb(66, 66, 66)" stroke-width="1px" opacity="0.25"></line><line x1="0" y1="53.10000000000001" x2="259.828125" y2="53.10000000000001" fill="rgb(0, 0, 0)" stroke="rgb(66, 66, 66)" stroke-width="1px" opacity="0.25"></line><line x1="0" y1="35.39999999999999" x2="259.828125" y2="35.39999999999999" fill="rgb(0, 0, 0)" stroke="rgb(66, 66, 66)" stroke-width="1px" opacity="0.25"></line><line x1="0" y1="17.699999999999996" x2="259.828125" y2="17.699999999999996" fill="rgb(0, 0, 0)" stroke="rgb(66, 66, 66)" stroke-width="1px" opacity="0.25"></line><line x1="0" y1="0" x2="259.828125" y2="0" fill="rgb(0, 0, 0)" stroke="rgb(66, 66, 66)" stroke-width="1px" opacity="0.25"></line></g></g></g><g><g><line x1="0" y1="159.3" x2="259.828125" y2="159.3" fill="rgb(0, 0, 0)" stroke="rgb(153, 153, 153)" stroke-width="1.5px"></line></g></g><g><g><line x1="21.65234375" y1="0" x2="21.65234375" y2="177" fill="rgb(0, 0, 0)" stroke="rgb(153, 153, 153)" stroke-width="1.5px"></line></g></g><g><g><g><g><g><path stroke="rgb(255, 112, 67)" stroke-width="2px" d="M21.65234375,132.11506219482422L22.085390625000002,137.25921500301362L22.5184375,138.83788629539646L22.951484375,140.31811510335697L23.38453125,141.0873885197054L23.817578124999997,140.82864494222423L24.250625,139.32619201654592L24.683671875,136.9276001474317L25.11671875,134.48536317666864L25.549765625,131.49397858477948L25.9828125,134.56059947994405L26.415859375,122.3792193415523L26.84890625,63.70316936535695L27.281953124999998,53.99067732241808L27.715000000000003,62.28164335306111L28.148046875000002,79.72443235143173L28.58109375,100.9502113936725L29.014140625,117.43429765118407L29.4471875,128.81899229276672L29.880234375,135.48452779279842L30.31328125,139.5514934718501L30.746328124999998,142.01358550252434L31.179375,141.54956600859444L31.612421875000003,141.12566896864115L32.04546875,139.56794489869728L32.478515625,137.60720578815923L32.9115625,130.3709443869642L33.344609375,125.09804466853532L33.77765625,124.50816917410975L34.210703124999995,127.58601593001468L34.64375,125.03931590965657L35.076796875,84.48473758772373L35.509843749999995,91.13011843148769L35.942890625000004,107.35003919939372L36.375937500000006,122.50407813195154L36.808984375,132.12090704306024L37.242031250000004,138.88939981887145L37.675078125,138.64386419155863L38.108125,99.50100822265007L38.541171875,97.57087630552167L38.97421875,112.16453427280102L39.407265625,125.27978941764832L39.840312499999996,136.02508716992693L40.273359375,143.3482467490256L40.70640625,147.95542917019458L41.139453124999996,146.58982513813996L41.5725,147.10813449330377L42.00554687499999,101.35976936683011L42.43859375,95.71621689345953L42.871640625000005,102.14388627626438L43.3046875,117.7276923706926L43.737734375,131.32200368234282L44.170781250000005,141.12510355753682L44.603828125,147.33582283055827L45.036875,150.53311801779498L45.469921875,149.0068351905592L45.90296875,112.72702294049921L46.336015625,127.85365017177229L46.7690625,136.34879097434091L47.202109375,137.49073164637218L47.635156249999994,108.69477324075214L48.068203125,125.28112307836271L48.50125,131.5449390935997L48.934296875,137.75505627537376L49.36734375,62.679871509364595L49.800390625000006,64.97424465854844L50.2334375,82.59755421700409L50.666484375,105.7106060592552L51.09953125,124.23498263579727L51.532578125,134.8737701066859L51.965625,140.3185636661844L52.398671875,142.3054777626989L52.83171875,140.72420345449436L53.264765624999995,145.98359071283332L53.6978125,140.73962238424295L54.130859375,105.07909545203015L54.563906249999995,92.0986755573509L54.996953125,109.23098218987928L55.43000000000001,124.05098657955257L55.863046875,135.55220515573936L56.296093750000004,143.48966297228884L56.729140625,146.17634083146902L57.1621875,128.6940198919478L57.595234375000004,131.8202983121218L58.02828125,140.6400044465626L58.461328125,90.05059112008601L58.894375,63.12284812908284L59.327421875,94.53037987049169L59.76046875,118.81136481575814L60.193515624999996,134.14898602354913L60.6265625,142.81145433233016L61.059609374999994,147.83061624411246L61.492656249999996,149.86657239234148L61.925703125000005,145.4136761380416L62.35875,146.3177273014773L62.791796875,78.44873540432388L63.224843750000005,102.65828429679355L63.657890625,121.27112717902827L64.0909375,135.5079728959332L64.523984375,143.4452526554066L64.95703125,148.87747986854305L65.390078125,144.66849530332797L65.823125,70.21746764098117L66.256171875,76.65225636583868L66.68921875,99.24592200797977L67.12226562500001,115.3632608341824L67.5553125,126.58626980006999L67.988359375,134.25098293411915L68.42140624999999,139.3825636374246L68.854453125,142.056425780111L69.2875,146.66743819816915L69.720546875,149.42898920063976L70.15359375,149.62640874255183L70.586640625,120.6566065736561L71.01968749999999,129.39804929270437L71.452734375,131.95798513592538L71.88578125000001,118.44677195313727L72.318828125,114.2442293217847L72.75187500000001,103.72583639678176L73.184921875,112.69094099212178L73.61796875,126.04842459283168L74.05101562499999,134.69557739974198L74.48406250000001,141.15517936220846L74.917109375,143.5863481904452L75.35015625,148.46542580803543L75.783203125,148.6520403694648L76.21625,-771.0281535126961L79.247578125,-47.89699276969587L79.68062499999999,18.56939939433483L80.11367187500001,66.43149014014094L80.54671875,97.51336746665294L80.979765625,117.80583688013824L81.4128125,130.05243209176703L81.845859375,137.8352772680607L82.27890624999999,142.8905640842251L82.71195312500001,146.13292167502235L83.145,148.8477733465051L83.578046875,151.36091840090845L84.01109374999999,153.33581497487123L84.444140625,154.738058122496L84.8771875,155.79879599181425L85.310234375,156.55272862124212L85.74328125000001,157.09319003262382L86.176328125,157.4767473693744L86.609375,157.73790406928396L87.042421875,157.898629851925L87.47546875,158.0284758405373L87.90851562499999,158.1694690549663L88.34156250000001,158.2859866835291L88.774609375,158.344019488717L89.20765625,158.37542224754387L89.64070312499999,158.37778885324892L90.07375,158.34185366969166L90.50679687499999,158.2833163018516L90.93984375,157.4919803137953L91.37289062500001,157.64667804881185L91.8059375,157.84975873530058L92.238984375,157.78467854669182L92.67203125,157.41920444399412L93.105078125,157.35187959770138L93.538125,156.72703858167992L93.97117187500001,143.77407876424232L94.40421875,141.33899115502976L94.837265625,146.5913007095584L95.27031249999999,148.9533195401149L95.703359375,152.35018000035984L96.13640625,148.15499972995224L96.569453125,142.68891859407486L97.0025,132.43192753583943L97.435546875,130.98926029347632L97.86859375,140.3869398316339L98.301640625,146.00758355077477L98.7346875,149.1747346145652L99.167734375,151.67304425995005L99.60078125000001,152.921139245179L100.033828125,140.43779860448046L100.466875,147.0222372204733L100.89992187499999,148.96353345319463L101.33296875,121.70687622426051L101.766015625,135.58522730926336L102.1990625,142.79607168218885L102.632109375,148.47969385541316L103.06515625,145.01523736732506L103.49820312499999,128.0192581064302L103.93125,137.2299098763703L104.36429687500001,137.86138208915227L104.79734375,143.63259407587904L105.23039062500001,138.15162653830086L105.6634375,146.24851099034808L106.096484375,145.82247547543443L106.52953124999999,118.35801369102238L106.96257812500001,127.12278731007241L107.395625,125.86939216143408L107.828671875,122.54582509178232L108.26171875,129.5457020710606L108.694765625,140.0762119439303L109.12781249999999,146.35794787863844L109.560859375,149.69624496619673L109.99390625,150.88706664829715L110.426953125,145.04060211056031L110.86000000000001,147.1443720512483L111.293046875,-1050.844445519251L114.75742187499999,-39.1377579672383L115.19046875000001,35.344218895194125L115.623515625,80.45300920271707L116.0565625,107.62043677010436L116.48960937499999,105.19734657133996L116.92265625,-2704.3952373696966L119.5209375,-93.0260206118592L119.953984375,1.0405098832506874L120.38703124999999,58.86953625831957L120.82007812500001,93.38312498680328L121.253125,114.39225870790229L121.686171875,127.51037616285171L122.11921874999999,135.5364316883116L122.552265625,140.27968017082387L122.98531249999999,143.213013827592L123.418359375,145.14746824223388L123.85140625000001,146.4354220296299L124.284453125,147.24279459351035L124.7175,147.6634980238064L125.150546875,147.8115020735612L125.58359375,148.00181536462011L126.016640625,148.70544175173106L126.44968750000001,149.87960452552593L126.882734375,151.05432595994446L127.31578125,151.91229747263415L127.74882812499999,152.51327659301654L128.181875,153.02855000884946L128.614921875,153.4162451145626L129.04796875,153.73427353663308L129.481015625,154.0010234710399L129.9140625,154.2433853457465L130.347109375,154.45829055421913L130.78015625,154.66280397730688L131.213203125,154.850056695161L131.64625,154.99785558997257L132.07929687499998,155.07987784601846L132.51234375,155.07476800476073L132.94539062500002,153.89246701318356L133.3784375,146.75979217690428L133.811484375,147.294787674917L134.24453125000002,149.113250455292L134.677578125,150.8581958755922L135.110625,152.3137794951124L135.54367187499997,153.49175326759354L135.97671875,154.4850782926484L136.409765625,155.4290067579987L136.84281249999998,156.45597240158574L137.275859375,157.1514275911132L137.70890625,157.62476507536644L138.141953125,154.08872126293227L138.575,138.85646951923397L139.00804687500002,140.89204869152084L139.44109375,144.9106978642045L139.874140625,148.95619943141332L140.3071875,152.21852250308626L140.740234375,154.46178298656244L141.17328125,156.0191058471209L141.606328125,157.07345223469773L142.03937499999998,157.7026458606436L142.472421875,158.09460689018454L142.90546875,158.3351273726361L143.33851562499999,158.46704239018783L143.77156250000002,158.54434286804212L144.20460937500002,158.57732715866095L144.63765625,158.5908746856995L145.070703125,158.5862784573166L145.50375000000003,158.57637185649446L145.936796875,158.44772273242694L146.36984375,158.3974723765625L146.80289062499997,158.40355266078552L147.2359375,158.41017327051307L147.668984375,158.4175939575013L148.10203124999998,158.41669073958258L148.53507812499998,158.41025244366563L148.96812500000001,158.39786896440646L149.401171875,158.37812387822427L149.83421875,158.35138174823737L150.26726562500002,158.32289416239152L150.7003125,158.3084596087783L151.133359375,158.30034430431422L151.56640625,150.16756691278871L151.999453125,149.8571472674242L152.4325,151.78201722855755L152.865546875,153.8146691090309L153.29859374999998,155.30866972255964L153.731640625,156.31539813709415L154.1646875,155.28547301158997L154.597734375,155.53643571888026L155.03078125,156.06206963445314L155.46382812500002,156.61072842694264L155.896875,157.0909959005412L156.329921875,157.48422150616028L156.76296875000003,157.78608522379506L157.196015625,157.98529642160003L157.6290625,158.08122096838514L158.06210937499998,158.13992235726093L158.49515625,157.06759511586412L158.928203125,155.21308472454777L159.36124999999998,155.1793587250485L159.794296875,156.3379066374644L160.22734375000002,156.93347193963194L160.660390625,157.21208520159047L161.0934375,157.01465695286345L161.526484375,156.93649305324882L161.95953125,154.89450011661728L162.392578125,153.29589204384732L162.825625,151.0215385527244L163.258671875,152.7821145775575L163.69171875,154.31235800358405L164.124765625,155.64934803998918L164.55781249999998,156.60945361140043L164.990859375,157.18015788060828L165.42390625000002,157.42061878270152L165.856953125,157.498313644804L166.29,156.76561929955332L166.72304687500002,156.9616369678393L167.15609375,154.63117418357223L167.589140625,154.5161746013909L168.02218749999997,151.3529846894234L168.455234375,149.80055942327317L168.88828125,152.48929955624664L169.32132812499998,154.0944923317857L169.754375,155.49093653371497L170.187421875,156.58877119719125L170.62046875,157.13039355518305L171.053515625,157.38705137358835L171.48656250000002,157.31955697581012L171.919609375,157.33784073913597L172.35265625,155.74563463146987L172.785703125,155.79989535102547L173.21875,152.74693579765142L173.651796875,150.34889240510452L174.08484375,149.84045016779416L174.51789062499998,152.56597358044334L174.9509375,154.138600038006L175.383984375,155.75145446173792L175.81703124999999,156.65586894130973L176.25007812500002,157.18391582451028L176.68312500000002,157.38577872596835L177.116171875,157.47385156938228L177.54921875,156.6670282923984L177.98226562500003,156.85083222354694L178.4153125,154.25326494692115L178.848359375,154.11879296778648L179.28140624999997,150.31920571231254L179.714453125,148.355018733784L180.1475,151.2185196097162L180.58054687499998,153.22201953636804L181.01359374999998,154.79484396135328L181.44664062500001,156.24601054780197L181.8796875,156.9424768673927L182.312734375,157.34509278585617L182.74578125000002,157.36799835835757L183.178828125,157.4698274657897L183.611875,156.15851849943232L184.044921875,156.63443761829038L184.47796875,153.93115566789803L184.911015625,154.79763402421295L185.3440625,152.06851448282612L185.77710937499998,150.7643278486312L186.21015625,147.21153143818265L186.643203125,149.31491349181582L187.07625,152.421408730084L187.509296875,154.22874904435534L187.94234375000002,155.68026550937688L188.375390625,156.74572255654928L188.8084375,157.18899428756117L189.24148437500003,157.46384122127938L189.67453125,157.0482623842874L190.107578125,157.27960589210505L190.54062499999998,155.0574250098724L190.973671875,156.12516309994808L191.40671875,153.6029957466266L191.83976562499998,155.34282774182208L192.2728125,153.5241712727788L192.70585937500002,155.39940324126738L193.13890625,153.90967234331998L193.571953125,155.10914785827777L194.005,154.8540837070321L194.438046875,153.15647660361378L194.87109375,154.94095599123625L195.304140625,153.62177678688042L195.7371875,153.43164010624693L196.170234375,155.0029161987579L196.60328125,152.59207579652525L197.03632812499998,117.94857282166515L197.469375,84.10124520667097L197.90242187500002,96.20873278074086L198.33546875,114.35391789110078L198.768515625,129.5368726493333L199.20156250000002,139.71480442150917L199.634609375,146.68621176629355L200.06765625,151.04319257643874L200.50070312499997,153.95111339437398L200.93375,155.7044775052752L201.366796875,156.88193067087448L201.79984374999998,157.5669048323495L202.232890625,158.02764330109733L202.6659375,158.29656241040695L203.098984375,158.4569135313348L203.53203125,158.56272695219016L203.96507812500002,158.62048558308777L204.398125,158.65363789831457L204.831171875,158.6760765860728L205.26421875,158.6877712605388L205.697265625,158.6918156935448L206.1303125,158.6920264267012L206.563359375,158.68995572742728L206.99640624999998,158.6854250263268L207.429453125,158.6781141725954L207.8625,158.667843280016L208.29554687499999,158.65443152886544L208.72859375000002,158.63741797217082L209.16164062500002,158.6156903787157L209.5946875,158.58688064492353L210.027734375,158.5482045588291L210.46078125000003,158.50087436569908L210.893828125,158.45569587414968L211.326875,158.42984424873296L211.75992187499997,158.43675495698514L212.19296875,158.46464673029462L212.626015625,158.46204227020192L213.05906249999998,158.41613503218798L213.49210937499998,158.35412378397646L213.92515625000001,158.2565626035158L214.358203125,158.09946323349618L214.79125,157.85952026340092L215.22429687500002,157.50015341361L215.65734375,156.9111193049409L216.090390625,156.1911511667048L216.5234375,155.1760132700607L216.956484375,154.51467574920684L217.38953125,153.82495924896256L217.822578125,153.4900882126466L218.25562499999998,153.28167301578375L218.688671875,153.0283051095191L219.12171875,153.0553680373301L219.554765625,152.89096456782042L219.9878125,152.88298097000134L220.42085937500002,152.88678531509404L220.85390625,152.76461587747195L221.286953125,152.8572244367615L221.72000000000003,152.74889658222293L222.153046875,152.76758109203394L222.58609375,152.28189108991273L223.01914062499998,128.41749036683828L223.4521875,126.10354003309124L223.885234375,135.86239410652468L224.31828124999998,144.55447489050476L224.751328125,150.21262780654104L225.18437500000002,153.50921205303473L225.617421875,155.35672273505568L226.05046875,156.42956085298562L226.483515625,157.12494927805724L226.9165625,157.64453598071373L227.349609375,157.93942714262747L227.78265625,158.03516789045776L228.215703125,158.06007840036656L228.64875,157.99742536053245L229.081796875,157.83891819697132L229.51484374999998,157.5782262882084L229.947890625,157.2127386705691L230.38093750000002,156.60129721998064L230.813984375,156.01947792763045L231.24703125,154.9713397930773L231.68007812500002,154.5504166527934L232.113125,153.51505274741336L232.546171875,153.5054172624617L232.97921874999997,152.8844578007143L233.412265625,152.92084432917127L233.8453125,152.75024924429232L234.27835937499998,152.60936547064765L234.71140625,152.72465647416107L235.144453125,152.46815496542925L235.5775,152.6027768079929L236.010546875,152.5620906316097L236.44359375000002,152.58086156738136L236.876640625,152.57793328564364L237.3096875,152.54333370948436L237.742734375,152.55196629166963" style="fill: none;" fill="none"></path></g></g></g></g><g opacity="0.2"><g><g><g><path stroke="rgb(255, 112, 67)" stroke-width="2px" d="M21.65234375,132.11506219482422L22.085390625000002,140.34570668792725L22.5184375,140.353410736084L22.951484375,142.05886418151854L23.38453125,142.09175189208986L23.817578124999997,140.4707094268799L24.250625,137.1776602935791L24.683671875,133.43043017578125L25.11671875,130.88353802490235L25.549765625,127.05212109375L25.9828125,139.132716796875L26.415859375,104.17343966674804L26.84890625,-24.119318115234368L27.281953124999998,39.44096704101563L27.715000000000003,74.70834667968751L28.148046875000002,105.87631384277344L28.58109375,132.77989791870118L29.014140625,142.15624172973634L29.4471875,145.89429991149902L29.880234375,145.48222178649903L30.31328125,145.65171894836425L30.746328124999998,145.70664253234864L31.179375,140.85354592895507L31.612421875000003,140.48982843017578L32.04546875,137.2313698654175L32.478515625,134.6661054840088L32.9115625,119.51657080078124L33.344609375,117.18870318603516L33.77765625,123.6233564758301L34.210703124999995,132.20278436279295L34.64375,121.21926672363281L35.076796875,23.652878173828125L35.509843749999995,101.09818890380859L35.942890625000004,131.67991918945313L36.375937500000006,145.2351358795166L36.808984375,146.54615016174316L37.242031250000004,149.04213887786864L37.675078125,138.27556075286864L38.108125,40.786724487304696L38.541171875,94.6756784362793L38.97421875,134.05502119445802L39.407265625,144.95267211914063L39.840312499999996,152.1430337905884L40.273359375,154.33298611450195L40.70640625,154.86620280075073L41.139453124999996,144.54141909027098L41.5725,147.88559852600096L42.00554687499999,32.737221679687494L42.43859375,87.25088818359376L42.871640625000005,111.7853903503418L43.3046875,141.10340151214598L43.737734375,151.71347064971923L44.170781250000005,155.82975337028503L44.603828125,156.65190174007415L45.036875,155.329060798645L45.469921875,146.71741094970704L45.90296875,58.30730456542969L46.336015625,150.54359101867675L46.7690625,149.09150217819214L47.202109375,139.20364265441896L47.635156249999994,65.50083563232423L48.068203125,150.16064783477785L48.50125,140.94066311645508L48.934296875,147.07023204803468L49.36734375,-49.93290563964844L49.800390625000006,68.41580438232421L50.2334375,109.0325185546875L50.666484375,140.38018382263184L51.09953125,152.02154750061035L51.532578125,150.8319513130188L51.965625,148.48575400543214L52.398671875,145.2858489074707L52.83171875,138.3522919921875L53.264765624999995,153.8726716003418L53.6978125,132.87366989135742L54.130859375,51.58830505371094L54.563906249999995,72.62804571533204L54.996953125,134.92944213867187L55.43000000000001,146.2809931640625L55.863046875,152.80403302001952L56.296093750000004,155.39584969711305L56.729140625,150.20635762023926L57.1621875,102.470538482666L57.595234375000004,136.50971594238283L58.02828125,153.86956364822387L58.461328125,14.166471130371088L58.894375,22.731233642578125L59.327421875,141.641677482605L59.76046875,155.23284223365783L60.193515624999996,157.1554178352356L60.6265625,155.8051567955017L61.059609374999994,155.3593591117859L61.492656249999996,152.92050661468505L61.925703125000005,138.7343317565918L62.35875,147.67380404663086L62.791796875,-23.354752441406234L63.224843750000005,138.97260763549806L63.657890625,149.19039150238038L64.0909375,156.8632414712906L64.523984375,155.3511722946167L64.95703125,157.02582068824768L65.390078125,138.3550184555054L65.823125,-41.459073852539056L66.256171875,86.304439453125L66.68921875,133.1364204711914L67.12226562500001,139.53926907348634L67.5553125,143.4207832489014L67.988359375,145.74805263519286L68.42140624999999,147.0799346923828L68.854453125,146.06721899414063L69.2875,153.58395682525634L69.720546875,153.57131570434572L70.15359375,149.92253805541992L70.586640625,77.2019033203125L71.01968749999999,142.51021337127685L71.452734375,135.79788890075685L71.88578125000001,98.17995217895508L72.318828125,107.94041537475586L72.75187500000001,87.94824700927734L73.184921875,126.13859788513182L73.61796875,146.08464999389648L74.05101562499999,147.66630661010743L74.48406250000001,150.8445823059082L74.917109375,147.23310143280028L75.35015625,155.78404223442078L75.783203125,148.9319622116089L76.21625,-2150.5484443359373L76.64929687499999,-216.96984960937496L77.08234375,141.49594876098632L77.515390625,145.53039470672607L77.9484375,150.5759115600586L78.38148437500001,-63.361959594726585L78.81453125,-235.28507153320317L79.247578125,45.93358502197266L79.68062499999999,118.26898764038087L80.11367187500001,138.2246262588501L80.54671875,144.1361834564209L80.979765625,148.2445410003662L81.4128125,148.4223249092102L81.845859375,149.50954503250122L82.27890624999999,150.4734943084717L82.71195312500001,150.99645806121825L83.145,152.92005085372924L83.578046875,155.1306359825134L84.01109374999999,156.29815983581543L84.444140625,156.84142284393312L84.8771875,157.38990279579164L85.310234375,157.68362756538392L85.74328125000001,157.90388214969636L86.176328125,158.05208337450026L86.609375,158.12963911914824L87.042421875,158.13971852588654L87.47546875,158.22324482345581L87.90851562499999,158.3809588766098L88.34156250000001,158.4607631263733L88.774609375,158.43106869649887L89.20765625,158.42252638578415L89.64070312499999,158.3813387618065L90.07375,158.2879508943558L90.50679687499999,158.19551025009156L90.93984375,156.3049763317108L91.37289062500001,157.87872465133668L91.8059375,158.15437976503372L92.238984375,157.68705826377868L92.67203125,156.8709932899475L93.105078125,157.25089232826232L93.538125,155.7897770576477L93.97117187500001,124.34463903808593L94.40421875,137.68635974121094L94.837265625,154.4697650413513L95.27031249999999,152.49634778594972L95.703359375,157.44547069072723L96.13640625,141.8622293243408L96.569453125,134.4897968902588L97.0025,117.04644094848632L97.435546875,128.82525942993163L97.86859375,154.48345913887024L98.301640625,154.43854912948606L98.7346875,153.92546121025086L99.167734375,155.42050872802733L99.60078125000001,154.79328172302246L100.033828125,121.7127876434326L100.466875,156.89889514446259L100.89992187499999,151.8754778022766L101.33296875,80.82189038085937L101.766015625,156.40275393676757L102.1990625,153.61233824157716L102.632109375,157.00512711524962L103.06515625,139.81855263519287L103.49820312499999,102.5252892150879L103.93125,151.0458875312805L104.36429687500001,138.8085904083252L104.79734375,152.28941205596922L105.23039062500001,129.9301752319336L105.6634375,158.39383766841888L106.096484375,145.18342220306397L106.52953124999999,77.1613210144043L106.96257812500001,140.26994773864746L107.395625,123.98929943847655L107.828671875,117.56047448730469L108.26171875,140.04551753997802L108.694765625,155.87197675323486L109.12781249999999,155.78055178070068L109.560859375,154.70369059753418L109.99390625,152.67329917144775L110.426953125,136.2709053039551L110.86000000000001,150.30002696228027L111.293046875,-2847.827671875L113.45828125,-59.286033325195326L113.891328125,119.92003065490724L114.324375,142.10581228637696L114.75742187499999,141.23334942626954L115.19046875000001,147.06718418884276L115.623515625,148.11619466400148L116.0565625,148.3715781211853L116.48960937499999,101.56271127319336L116.92265625,-6918.78411328125L117.78875,-655.3913305664063L118.22179687500001,2.8132888183593776L118.65484375,107.10846459960938L119.087890625,128.73391278076173L119.5209375,134.7093183746338L119.953984375,142.14030562591552L120.38703124999999,145.61307582092283L120.82007812500001,145.15350807952882L121.253125,145.90595928955076L121.686171875,147.1875523452759L122.11921874999999,147.57551497650147L122.552265625,147.3945528945923L122.98531249999999,147.61301431274413L123.418359375,148.04914986419678L123.85140625000001,148.36735271072388L124.284453125,148.45385343933106L124.7175,148.2945531692505L125.150546875,148.03350814819336L125.58359375,148.2872853012085L126.016640625,149.76088133239747L126.44968750000001,151.64084868621825L126.882734375,152.81640811157226L127.31578125,153.1992547416687L127.74882812499999,153.41474527359009L128.181875,153.80146013259886L128.614921875,153.99778777313233L129.04796875,154.21131616973875L129.481015625,154.40114837265014L129.9140625,154.6069281578064L130.347109375,154.7806483669281L130.78015625,154.96957411193847L131.213203125,155.13093577194215L131.64625,155.21955393218994L132.07929687499998,155.20291123008727L132.51234375,155.06710324287414L132.94539062500002,152.11901552581787L133.3784375,136.06077992248535L133.811484375,148.09728092193603L134.24453125000002,151.8409446258545L134.677578125,153.4756140060425L135.110625,154.4971549243927L135.54367187499997,155.25871392631532L135.97671875,155.97506583023073L136.409765625,156.84489945602417L136.84281249999998,157.99642086696625L137.275859375,158.19461037540435L137.70890625,158.33477130174637L138.141953125,148.784655544281L138.575,116.00809190368652L139.00804687500002,143.94541744995118L139.44109375,150.93867162322996L139.874140625,155.02445178222658L140.3071875,157.1120071105957L140.740234375,157.82667371177675L141.17328125,158.35509013795854L141.606328125,158.65497181606293L142.03937499999998,158.64643629956245L142.472421875,158.68254843449594L142.90546875,158.69590809631347L143.33851562499999,158.66491491651536L143.77156250000002,158.6602935848236L144.20460937500002,158.62680359458923L144.63765625,158.61119597625733L145.070703125,158.57938411474228L145.50375000000003,158.56151195526124L145.936796875,158.25474904632568L146.36984375,158.3220968427658L146.80289062499997,158.41267308712006L147.2359375,158.42010418510438L147.668984375,158.4287249879837L148.10203124999998,158.41533591270448L148.53507812499998,158.4005949997902L148.96812500000001,158.3792937455177L149.401171875,158.34850624895094L149.83421875,158.31126855325698L150.26726562500002,158.28016278362273L150.7003125,158.28680777835848L151.133359375,158.28817134761812L151.56640625,137.96840082550048L151.999453125,149.39151779937743L152.4325,154.66932217025757L152.865546875,156.8636469297409L153.29859374999998,157.5496706428528L153.731640625,157.82549075889588L154.1646875,153.74058532333373L154.597734375,155.91287977981568L155.03078125,156.8505205078125L155.46382812500002,157.43371661567687L155.896875,157.81139711093903L156.329921875,158.07405991458893L156.76296875000003,158.2388808002472L157.196015625,158.2841132183075L157.6290625,158.22510778856278L158.06210937499998,158.22797444057466L158.49515625,155.4591042537689L158.928203125,152.43131913757324L159.36124999999998,155.12876972579954L159.794296875,158.07572850608824L160.22734375000002,157.8268198928833L160.660390625,157.6300050945282L161.0934375,156.71851457977294L161.526484375,156.8192472038269L161.95953125,151.83151071166992L162.392578125,150.8979799346924L162.825625,147.61000831604005L163.258671875,155.42297861480714L163.69171875,156.6077231426239L164.124765625,157.65483309459685L164.55781249999998,158.0496119685173L164.990859375,158.03621428442003L165.42390625000002,157.78131013584138L165.856953125,157.61485593795777L166.29,155.66657778167726L166.72304687500002,157.25566347026825L167.15609375,151.13548000717162L167.589140625,154.34367522811888L168.02218749999997,146.60819982147217L168.455234375,147.47192152404784L168.88828125,156.5224097557068L169.32132812499998,156.5022814950943L169.754375,157.5856028366089L170.187421875,158.23552319240568L170.62046875,157.94282709217072L171.053515625,157.77203810119627L171.48656250000002,157.21831537914275L171.919609375,157.36526638412474L172.35265625,153.3573254699707L172.785703125,155.8812864303589L173.21875,148.16749646759033L173.651796875,146.7518273162842L174.08484375,149.07778681182862L174.51789062499998,156.6542586994171L174.9509375,156.49753972435L175.383984375,158.17073609733583L175.81703124999999,158.01249066066742L176.25007812500002,157.97598614931107L176.68312500000002,157.6885730781555L177.116171875,157.60596083450318L177.54921875,155.4567933769226L177.98226562500003,157.12653812026977L178.4153125,150.35691403198243L178.848359375,153.91708499908447L179.28140624999997,144.61982482910156L179.714453125,145.40873826599122L180.1475,155.5137709236145L180.58054687499998,156.22726942634583L181.01359374999998,157.15408059883117L181.44664062500001,158.42276042747497L181.8796875,157.98717634677888L182.312734375,157.94901666355133L182.74578125000002,157.40235671710968L183.178828125,157.62257112693786L183.611875,154.19155504989624L184.044921875,157.34831629657745L184.47796875,149.87623274230955L184.911015625,156.0973515586853L185.3440625,147.97483517074585L185.77710937499998,148.80804789733887L186.21015625,141.88233682250979L186.643203125,152.46998657226564L187.07625,157.08115158748626L187.509296875,156.93975951576235L187.94234375000002,157.8575402069092L188.375390625,158.34390812730788L188.8084375,157.853901884079L189.24148437500003,157.8761116218567L189.67453125,156.42489412879942L190.107578125,157.62662115383148L190.54062499999998,151.72415368652344L190.973671875,157.72677023506165L191.40671875,149.8197447166443L191.83976562499998,157.95257573461532L192.2728125,150.7961865692139L192.70585937500002,158.21225119400023L193.13890625,151.67507599639893L193.571953125,156.9083611307144L194.005,154.47148748016357L194.438046875,150.61006594848632L194.87109375,157.61767507266998L195.304140625,151.64300798034668L195.7371875,153.14643508529662L196.170234375,157.35983033752441L196.60328125,148.97581519317626L197.03632812499998,65.983318359375L197.469375,33.33025378417969L197.90242187500002,114.3699641418457L198.33546875,141.57169555664063L198.768515625,152.31130478668211L199.20156250000002,154.98170207977296L199.634609375,157.14332278347015L200.06765625,157.5786637916565L200.50070312499997,158.31299462127686L200.93375,158.33452367162704L201.366796875,158.6481104192734L201.79984374999998,158.5943660745621L202.232890625,158.71875100421906L202.6659375,158.69994107437134L203.098984375,158.69744021272658L203.53203125,158.7214470834732L203.96507812500002,158.7071235294342L204.398125,158.70336637115477L204.831171875,158.7097346177101L205.26421875,158.70531327223776L205.697265625,158.69788234305383L206.1303125,158.69234252643585L206.563359375,158.68684967851638L206.99640624999998,158.67862897467614L207.429453125,158.6671478919983L207.8625,158.65243694114685L208.29554687499999,158.63431390213967L208.72859375000002,158.61189763712883L209.16164062500002,158.583098988533L209.5946875,158.54366604423524L210.027734375,158.4901904296875L210.46078125000003,158.42987907600403L210.893828125,158.38792813682556L211.326875,158.39106681060792L211.75992187499997,158.4471210193634L212.19296875,158.5064843902588L212.626015625,158.45813558006287L213.05906249999998,158.3472741751671L213.49210937499998,158.26110691165923L213.92515625000001,158.1102208328247L214.358203125,157.86381417846678L214.79125,157.49960580825805L215.22429687500002,156.96110313892365L215.65734375,156.02756814193725L216.090390625,155.1111989593506L216.5234375,153.6533064250946L216.956484375,153.52266946792602L217.38953125,152.7903844985962L217.822578125,152.98778165817262L218.25562499999998,152.9690502204895L218.688671875,152.64825325012208L219.12171875,153.09596242904664L219.554765625,152.6443593635559L219.9878125,152.8710055732727L220.42085937500002,152.89249183273316L220.85390625,152.58136172103883L221.286953125,152.99613727569582L221.72000000000003,152.58640480041504L222.153046875,152.79560785675048L222.58609375,151.55335608673096L223.01914062499998,92.62088928222657L223.4521875,122.63261453247068L223.885234375,150.5006752166748L224.31828124999998,157.59259606647493L224.751328125,158.6998571805954L225.18437500000002,158.45408842277527L225.617421875,158.12798875808716L226.05046875,158.0388180298805L226.483515625,158.16803191566467L226.9165625,158.4239160346985L227.349609375,158.38176388549803L227.78265625,158.17877901220322L228.215703125,158.0974441652298L228.64875,157.90344580078124L229.081796875,157.60115745162963L229.51484374999998,157.18718842506408L229.947890625,156.6645072441101L230.38093750000002,155.6841350440979L230.813984375,155.14674898910522L231.24703125,153.39913259124756L231.68007812500002,153.91903194236755L232.113125,151.96200688934326L232.546171875,153.49096403503418L232.97921874999997,151.95301860809326L233.412265625,152.9754241218567L233.8453125,152.49435661697387L234.27835937499998,152.39803981018068L234.71140625,152.89759297943115L235.144453125,152.08340270233154L235.5775,152.80470957183837L236.010546875,152.5010613670349L236.44359375000002,152.60901797103884L236.876640625,152.57354086303712L237.3096875,152.49143434524535L237.742734375,152.5649151649475" style="fill: none;" fill="none"></path></g></g></g></g></g><g><g opacity="0.214653"><span fill="rgb(0, 0, 0)" stroke="none" stroke-width="1px">Alt + Scroll to Zoom</span></g></g></g><g transform="translate(41, 177)" clip-path="url(#clip_1)"><clipPath id="clip_1"><rect width="259" height="23"></rect></clipPath><g><g><line x1="0" y1="0" x2="0" y2="5" style="visibility: inherit;" fill="rgb(0, 0, 0)" stroke="rgb(204, 204, 204)" stroke-width="1px"></line><line x1="21.65234375" y1="0" x2="21.65234375" y2="5" style="visibility: inherit;" fill="rgb(0, 0, 0)" stroke="rgb(204, 204, 204)" stroke-width="1px"></line><line x1="43.3046875" y1="0" x2="43.3046875" y2="5" style="visibility: inherit;" fill="rgb(0, 0, 0)" stroke="rgb(204, 204, 204)" stroke-width="1px"></line><line x1="64.95703125" y1="0" x2="64.95703125" y2="5" style="visibility: inherit;" fill="rgb(0, 0, 0)" stroke="rgb(204, 204, 204)" stroke-width="1px"></line><line x1="86.609375" y1="0" x2="86.609375" y2="5" style="visibility: inherit;" fill="rgb(0, 0, 0)" stroke="rgb(204, 204, 204)" stroke-width="1px"></line><line x1="108.26171875" y1="0" x2="108.26171875" y2="5" style="visibility: inherit;" fill="rgb(0, 0, 0)" stroke="rgb(204, 204, 204)" stroke-width="1px"></line><line x1="129.9140625" y1="0" x2="129.9140625" y2="5" style="visibility: inherit;" fill="rgb(0, 0, 0)" stroke="rgb(204, 204, 204)" stroke-width="1px"></line><line x1="151.56640625" y1="0" x2="151.56640625" y2="5" style="visibility: inherit;" fill="rgb(0, 0, 0)" stroke="rgb(204, 204, 204)" stroke-width="1px"></line><line x1="173.21875" y1="0" x2="173.21875" y2="5" style="visibility: inherit;" fill="rgb(0, 0, 0)" stroke="rgb(204, 204, 204)" stroke-width="1px"></line><line x1="194.87109375" y1="0" x2="194.87109375" y2="5" style="visibility: inherit;" fill="rgb(0, 0, 0)" stroke="rgb(204, 204, 204)" stroke-width="1px"></line><line x1="216.5234375" y1="0" x2="216.5234375" y2="5" style="visibility: inherit;" fill="rgb(0, 0, 0)" stroke="rgb(204, 204, 204)" stroke-width="1px"></line><line x1="238.17578125" y1="0" x2="238.17578125" y2="5" style="visibility: inherit;" fill="rgb(0, 0, 0)" stroke="rgb(204, 204, 204)" stroke-width="1px"></line><line x1="259.828125" y1="0" x2="259.828125" y2="5" style="visibility: inherit;" fill="rgb(0, 0, 0)" stroke="rgb(204, 204, 204)" stroke-width="1px"></line></g><g transform="translate(0, 8)"><text x="0" y="0" dx="0em" dy="0.95em" style="text-anchor: middle; visibility: hidden; font-family: Roboto, sans-serif; font-size: 12px; font-weight: 200;" fill="rgb(33, 33, 33)" stroke="none" stroke-width="1px">-50</text><text x="21.65234375" y="0" dx="0em" dy="0.95em" style="text-anchor: middle; visibility: inherit; font-family: Roboto, sans-serif; font-size: 12px; font-weight: 200;" fill="rgb(33, 33, 33)" stroke="none" stroke-width="1px">0</text><text x="43.3046875" y="0" dx="0em" dy="0.95em" style="text-anchor: middle; visibility: hidden; font-family: Roboto, sans-serif; font-size: 12px; font-weight: 200;" fill="rgb(33, 33, 33)" stroke="none" stroke-width="1px">50</text><text x="64.95703125" y="0" dx="0em" dy="0.95em" style="text-anchor: middle; visibility: inherit; font-family: Roboto, sans-serif; font-size: 12px; font-weight: 200;" fill="rgb(33, 33, 33)" stroke="none" stroke-width="1px">100</text><text x="86.609375" y="0" dx="0em" dy="0.95em" style="text-anchor: middle; visibility: hidden; font-family: Roboto, sans-serif; font-size: 12px; font-weight: 200;" fill="rgb(33, 33, 33)" stroke="none" stroke-width="1px">150</text><text x="108.26171875" y="0" dx="0em" dy="0.95em" style="text-anchor: middle; visibility: inherit; font-family: Roboto, sans-serif; font-size: 12px; font-weight: 200;" fill="rgb(33, 33, 33)" stroke="none" stroke-width="1px">200</text><text x="129.9140625" y="0" dx="0em" dy="0.95em" style="text-anchor: middle; visibility: hidden; font-family: Roboto, sans-serif; font-size: 12px; font-weight: 200;" fill="rgb(33, 33, 33)" stroke="none" stroke-width="1px">250</text><text x="151.56640625" y="0" dx="0em" dy="0.95em" style="text-anchor: middle; visibility: inherit; font-family: Roboto, sans-serif; font-size: 12px; font-weight: 200;" fill="rgb(33, 33, 33)" stroke="none" stroke-width="1px">300</text><text x="173.21875" y="0" dx="0em" dy="0.95em" style="text-anchor: middle; visibility: hidden; font-family: Roboto, sans-serif; font-size: 12px; font-weight: 200;" fill="rgb(33, 33, 33)" stroke="none" stroke-width="1px">350</text><text x="194.87109375" y="0" dx="0em" dy="0.95em" style="text-anchor: middle; visibility: inherit; font-family: Roboto, sans-serif; font-size: 12px; font-weight: 200;" fill="rgb(33, 33, 33)" stroke="none" stroke-width="1px">400</text><text x="216.5234375" y="0" dx="0em" dy="0.95em" style="text-anchor: middle; visibility: hidden; font-family: Roboto, sans-serif; font-size: 12px; font-weight: 200;" fill="rgb(33, 33, 33)" stroke="none" stroke-width="1px">450</text><text x="238.17578125" y="0" dx="0em" dy="0.95em" style="text-anchor: middle; visibility: inherit; font-family: Roboto, sans-serif; font-size: 12px; font-weight: 200;" fill="rgb(33, 33, 33)" stroke="none" stroke-width="1px">500</text><text x="259.828125" y="0" dx="0em" dy="0.95em" style="text-anchor: middle; visibility: hidden; font-family: Roboto, sans-serif; font-size: 12px; font-weight: 200;" fill="rgb(33, 33, 33)" stroke="none" stroke-width="1px">550</text></g><line x1="0" y1="0" x2="259.828125" y2="0" fill="rgb(0, 0, 0)" stroke="rgb(204, 204, 204)" stroke-width="1px"></line></g></g></g></g></svg>