<svg viewBox="0 0 301 200" xmlns="http://www.w3.org/2000/svg"><g><g><g><g><g><line x1="72.34375" y1="177" x2="67.34375" y2="177" style="visibility: inherit;" fill="rgb(0, 0, 0)" stroke="rgb(204, 204, 204)" stroke-width="1px"></line><line x1="72.34375" y1="154.875" x2="67.34375" y2="154.875" style="visibility: inherit;" fill="rgb(0, 0, 0)" stroke="rgb(204, 204, 204)" stroke-width="1px"></line><line x1="72.34375" y1="132.75" x2="67.34375" y2="132.75" style="visibility: inherit;" fill="rgb(0, 0, 0)" stroke="rgb(204, 204, 204)" stroke-width="1px"></line><line x1="72.34375" y1="110.625" x2="67.34375" y2="110.625" style="visibility: inherit;" fill="rgb(0, 0, 0)" stroke="rgb(204, 204, 204)" stroke-width="1px"></line><line x1="72.34375" y1="88.5" x2="67.34375" y2="88.5" style="visibility: inherit;" fill="rgb(0, 0, 0)" stroke="rgb(204, 204, 204)" stroke-width="1px"></line><line x1="72.34375" y1="66.375" x2="67.34375" y2="66.375" style="visibility: inherit;" fill="rgb(0, 0, 0)" stroke="rgb(204, 204, 204)" stroke-width="1px"></line><line x1="72.34375" y1="44.25" x2="67.34375" y2="44.25" style="visibility: inherit;" fill="rgb(0, 0, 0)" stroke="rgb(204, 204, 204)" stroke-width="1px"></line><line x1="72.34375" y1="22.125" x2="67.34375" y2="22.125" style="visibility: inherit;" fill="rgb(0, 0, 0)" stroke="rgb(204, 204, 204)" stroke-width="1px"></line><line x1="72.34375" y1="0" x2="67.34375" y2="0" style="visibility: inherit;" fill="rgb(0, 0, 0)" stroke="rgb(204, 204, 204)" stroke-width="1px"></line></g><g transform="translate(62.34375, 0)"><text x="0" y="177" dx="0em" dy="0.3em" style="text-anchor: end; visibility: hidden; font-family: Roboto, sans-serif; font-size: 12px; font-weight: 200;" fill="rgb(33, 33, 33)" stroke="none" stroke-width="1px">0</text><text x="0" y="154.875" dx="0em" dy="0.3em" style="text-anchor: end; visibility: inherit; font-family: Roboto, sans-serif; font-size: 12px; font-weight: 200;" fill="rgb(33, 33, 33)" stroke="none" stroke-width="1px">500</text><text x="0" y="132.75" dx="0em" dy="0.3em" style="text-anchor: end; visibility: hidden; font-family: Roboto, sans-serif; font-size: 12px; font-weight: 200;" fill="rgb(33, 33, 33)" stroke="none" stroke-width="1px">1e+3</text><text x="0" y="110.625" dx="0em" dy="0.3em" style="text-anchor: end; visibility: inherit; font-family: Roboto, sans-serif; font-size: 12px; font-weight: 200;" fill="rgb(33, 33, 33)" stroke="none" stroke-width="1px">1.5e+3</text><text x="0" y="88.5" dx="0em" dy="0.3em" style="text-anchor: end; visibility: hidden; font-family: Roboto, sans-serif; font-size: 12px; font-weight: 200;" fill="rgb(33, 33, 33)" stroke="none" stroke-width="1px">2e+3</text><text x="0" y="66.375" dx="0em" dy="0.3em" style="text-anchor: end; visibility: inherit; font-family: Roboto, sans-serif; font-size: 12px; font-weight: 200;" fill="rgb(33, 33, 33)" stroke="none" stroke-width="1px">2.5e+3</text><text x="0" y="44.25" dx="0em" dy="0.3em" style="text-anchor: end; visibility: hidden; font-family: Roboto, sans-serif; font-size: 12px; font-weight: 200;" fill="rgb(33, 33, 33)" stroke="none" stroke-width="1px">3e+3</text><text x="0" y="22.125" dx="0em" dy="0.3em" style="text-anchor: end; visibility: inherit; font-family: Roboto, sans-serif; font-size: 12px; font-weight: 200;" fill="rgb(33, 33, 33)" stroke="none" stroke-width="1px">3.5e+3</text><text x="0" y="0" dx="0em" dy="0.3em" style="text-anchor: end; visibility: hidden; font-family: Roboto, sans-serif; font-size: 12px; font-weight: 200;" fill="rgb(33, 33, 33)" stroke="none" stroke-width="1px">4e+3</text></g><line x1="72.34375" y1="0" x2="72.34375" y2="177" fill="rgb(0, 0, 0)" stroke="rgb(204, 204, 204)" stroke-width="1px"></line></g></g><g transform="translate(72, 0)" clip-path="url(#clip_0)"><clipPath id="clip_0"><rect width="228" height="177"></rect></clipPath><g><g><g><line x1="0" y1="0" x2="0" y2="177" fill="rgb(0, 0, 0)" stroke="rgb(66, 66, 66)" stroke-width="1px" opacity="0.25"></line><line x1="19.0546875" y1="0" x2="19.0546875" y2="177" fill="rgb(0, 0, 0)" stroke="rgb(66, 66, 66)" stroke-width="1px" opacity="0.25"></line><line x1="38.109375" y1="0" x2="38.109375" y2="177" fill="rgb(0, 0, 0)" stroke="rgb(66, 66, 66)" stroke-width="1px" opacity="0.25"></line><line x1="57.1640625" y1="0" x2="57.1640625" y2="177" fill="rgb(0, 0, 0)" stroke="rgb(66, 66, 66)" stroke-width="1px" opacity="0.25"></line><line x1="76.21875" y1="0" x2="76.21875" y2="177" fill="rgb(0, 0, 0)" stroke="rgb(66, 66, 66)" stroke-width="1px" opacity="0.25"></line><line x1="95.2734375" y1="0" x2="95.2734375" y2="177" fill="rgb(0, 0, 0)" stroke="rgb(66, 66, 66)" stroke-width="1px" opacity="0.25"></line><line x1="114.328125" y1="0" x2="114.328125" y2="177" fill="rgb(0, 0, 0)" stroke="rgb(66, 66, 66)" stroke-width="1px" opacity="0.25"></line><line x1="133.3828125" y1="0" x2="133.3828125" y2="177" fill="rgb(0, 0, 0)" stroke="rgb(66, 66, 66)" stroke-width="1px" opacity="0.25"></line><line x1="152.4375" y1="0" x2="152.4375" y2="177" fill="rgb(0, 0, 0)" stroke="rgb(66, 66, 66)" stroke-width="1px" opacity="0.25"></line><line x1="171.4921875" y1="0" x2="171.4921875" y2="177" fill="rgb(0, 0, 0)" stroke="rgb(66, 66, 66)" stroke-width="1px" opacity="0.25"></line><line x1="190.546875" y1="0" x2="190.546875" y2="177" fill="rgb(0, 0, 0)" stroke="rgb(66, 66, 66)" stroke-width="1px" opacity="0.25"></line><line x1="209.6015625" y1="0" x2="209.6015625" y2="177" fill="rgb(0, 0, 0)" stroke="rgb(66, 66, 66)" stroke-width="1px" opacity="0.25"></line><line x1="228.65625" y1="0" x2="228.65625" y2="177" fill="rgb(0, 0, 0)" stroke="rgb(66, 66, 66)" stroke-width="1px" opacity="0.25"></line></g><g><line x1="0" y1="177" x2="228.65625" y2="177" fill="rgb(0, 0, 0)" stroke="rgb(66, 66, 66)" stroke-width="1px" opacity="0.25"></line><line x1="0" y1="154.875" x2="228.65625" y2="154.875" fill="rgb(0, 0, 0)" stroke="rgb(66, 66, 66)" stroke-width="1px" opacity="0.25"></line><line x1="0" y1="132.75" x2="228.65625" y2="132.75" fill="rgb(0, 0, 0)" stroke="rgb(66, 66, 66)" stroke-width="1px" opacity="0.25"></line><line x1="0" y1="110.625" x2="228.65625" y2="110.625" fill="rgb(0, 0, 0)" stroke="rgb(66, 66, 66)" stroke-width="1px" opacity="0.25"></line><line x1="0" y1="88.5" x2="228.65625" y2="88.5" fill="rgb(0, 0, 0)" stroke="rgb(66, 66, 66)" stroke-width="1px" opacity="0.25"></line><line x1="0" y1="66.375" x2="228.65625" y2="66.375" fill="rgb(0, 0, 0)" stroke="rgb(66, 66, 66)" stroke-width="1px" opacity="0.25"></line><line x1="0" y1="44.25" x2="228.65625" y2="44.25" fill="rgb(0, 0, 0)" stroke="rgb(66, 66, 66)" stroke-width="1px" opacity="0.25"></line><line x1="0" y1="22.125" x2="228.65625" y2="22.125" fill="rgb(0, 0, 0)" stroke="rgb(66, 66, 66)" stroke-width="1px" opacity="0.25"></line><line x1="0" y1="0" x2="228.65625" y2="0" fill="rgb(0, 0, 0)" stroke="rgb(66, 66, 66)" stroke-width="1px" opacity="0.25"></line></g></g></g><g><g><line x1="0" y1="177" x2="228.65625" y2="177" fill="rgb(0, 0, 0)" stroke="rgb(153, 153, 153)" stroke-width="1.5px"></line></g></g><g><g><line x1="19.0546875" y1="0" x2="19.0546875" y2="177" fill="rgb(0, 0, 0)" stroke="rgb(153, 153, 153)" stroke-width="1.5px"></line></g></g><g><g><g><g><g><path stroke="rgb(255, 112, 67)" stroke-width="2px" d="M19.0546875,23.278827392578126L19.43578125,24.05171019744874L19.816875,24.43386937604632L20.19796875,24.883983321694775L20.5790625,25.400012384630426L20.960156249999997,26.069922114117187L21.341250000000002,27.00637483615558L21.72234375,28.378456443751332L22.1034375,30.287677501606137L22.48453125,32.779921729832274L22.865625,36.508927071998826L23.24671875,39.19677820381482L23.6278125,34.285931678014975L24.00890625,32.524099797529935L24.39,33.044176481077905L24.771093750000002,34.40514740186096L25.1521875,36.477247283875705L25.533281249999998,39.08373171270079L25.914375,42.04900153074845L26.29546875,45.2434297235238L26.6765625,48.7072228816738L27.05765625,52.23335167371537L27.43875,55.350872098839595L27.81984375,58.36725024736618L28.200937500000002,61.165790380140535L28.58203125,63.89953904761006L28.963125,65.96754578440883L29.34421875,68.2505446441061L29.7253125,71.09776208846921L30.106406249999996,74.4309703923107L30.4875,77.07149152118352L30.868593750000002,74.52104734644765L31.249687499999997,77.59431524895909L31.630781250000002,81.64004619888418L32.011875,85.48147748019166L32.39296875,88.52090998137905L32.7740625,91.04960722273837L33.15515625,92.52502356763713L33.53625,88.86660644200195L33.91734375,89.59306303609412L34.2984375,92.22290946683216L34.679531250000004,94.62345464121545L35.060624999999995,96.73625642791744L35.44171875,98.45280059777049L35.822812500000005,99.85917835685535L36.203906249999996,100.53052508056133L36.585,101.44838755813677L36.96609375,96.50211206357962L37.3471875,96.45404948912366L37.72828125,97.84179099719634L38.109375,100.3997667370021L38.49046875,102.74584827462995L38.8715625,104.6908970263048L39.25265625,106.26537630172203L39.63375,107.50221757790901L40.01484375,108.1825343919605L40.3959375,104.48047853312467L40.77703125,107.1366472517111L41.158125,108.95622226215963L41.53921875,109.8686834671591L41.920312499999994,107.00622018771726L42.30140625,109.78676120198587L42.682500000000005,111.26455801513686L43.063593749999995,112.75618848339852L43.4446875,103.9771768839844L43.825781250000006,104.71751334474611L44.206875,107.30340441798049L44.58796875,110.61726877383516L44.9690625,113.42976956508235L45.35015625,115.35529312332673L45.73125,116.69303911862495L46.11234375,117.60780904246403L46.4934375,118.07660399237294L46.87453125,119.37237919229878L47.255625,119.34515546948082L47.63671875,115.39236889204004L48.0178125,114.20371032448185L48.39890625,116.75087160484536L48.78,118.97993885646191L49.16109375,120.84510799161153L49.542187500000004,122.28327833256456L49.923281249999995,123.08175011721453L50.304375,121.316908773942L50.685468750000005,122.08805044014645L51.066562499999996,123.60055372600192L51.44765625,117.63877903735896L51.82875,114.44754267876303L52.20984375,118.55013538508986L52.5909375,121.80243289121016L52.97203125,123.97346251792922L53.353125,125.3875868369294L53.73421875,126.37948285166937L54.1153125,126.99311773834538L54.49640625,126.77114022308534L54.8775,127.2263598784801L55.25859375,119.00739595638493L55.6396875,122.24453303281535L56.02078125,124.80981552281422L56.401875000000004,126.82490802706744L56.782968749999995,128.0740607708303L57.1640625,129.04050921640444L57.54515625,128.82302050787L57.92625,119.68543762210481L58.30734375,120.6156398071496L58.6884375,123.59045931153585L59.069531250000004,125.75958923438246L59.450625,127.36499209043414L59.83171875,128.56109294713158L60.21281249999999,129.46072726486096L60.59390625,130.05645342434627L60.975,130.9117794032406L61.35609374999999,131.53685748569436L61.737187500000005,131.84820745406307L62.11828125,128.46478245583629L62.49937499999999,129.77431903404866L62.880468750000006,130.36046008497996L63.261562500000004,128.87104654659345L63.642656249999995,128.53631179026075L64.02375,127.38427526995724L64.40484375,128.66881153648606L64.7859375,130.52607821827837L65.16703125,131.81233478497091L65.548125,132.8516110882677L65.92921875,133.3860286768864L66.3103125,134.24664806550683L66.69140625,134.53614662128652L67.0725,11.207366537225036L67.45359375,22.422807471163125L67.8346875,43.21541775906507L68.21578125,59.028051876142165L68.596875,74.29972096943528L68.97796875,72.79966077990335L69.35906250000001,60.321193001145154L69.74015625,59.441946684476164L70.12124999999999,63.634391692326304L70.50234375000001,68.88432720289579L70.8834375,75.23237083345623L71.26453124999999,81.87991661628467L71.64562500000001,88.15775067777861L72.02671875,93.98183412248747L72.40781249999999,99.29368873032843L72.78890625000001,104.03918580899783L73.17,108.2951551499495L73.55109374999999,112.10170100012594L73.9321875,115.45469165720448L74.31328125,118.38806576336567L74.694375,120.95484896729674L75.07546875,123.1943821831124L75.4565625,125.13244356767993L75.83765625,126.80627715135013L76.21875,128.2447674626851L76.59984375,129.47036594636106L76.9809375,130.51923995966231L77.36203125,131.4253937072427L77.743125,132.20423214109366L78.12421875,132.87877234129684L78.5053125,133.4637979262625L78.88640625,133.987726418111L79.2675,134.4558468616088L79.64859375,134.88633727956295L80.0296875,135.18476442218113L80.41078125,135.57945087132626L80.791875,135.95689477206332L81.17296875,136.278337644488L81.5540625,136.5509851672592L81.93515625,136.8494583977188L82.31625,137.0632552510336L82.69734375,135.72760486570806L83.0784375,135.66008511180766L83.45953125,136.5608634511178L83.84062499999999,137.09534979064136L84.22171875000001,137.7451077564649L84.6028125,137.4322679986055L84.98390624999999,136.9738332234797L85.36500000000001,135.8741828991757L85.74609375,135.89085161572615L86.12718749999999,137.24285185078335L86.50828125000001,138.1328398946497L86.889375,138.7180032654031L87.27046874999999,139.20794538575555L87.65156250000001,139.56136403321113L88.03265625,138.1706188593798L88.41375,139.1713648825224L88.79484375,139.60792868903494L89.1759375,136.35073555814753L89.55703125,138.241740358326L89.938125,139.31745271108935L90.31921875,140.20281753729816L90.7003125,139.92778976554294L91.08140625,137.933080976025L91.4625,139.24306249552708L91.84359375,139.47691922339047L92.2246875,140.36403627524524L92.60578125,139.81299174805727L92.986875,140.9711398608461L93.36796875,141.0709904655799L93.7490625,137.7580353254905L94.13015625,138.99218619773572L94.51125,138.96295250843636L94.89234375,138.69104933709306L95.2734375,139.67259746114257L95.65453125,141.12612336926367L96.035625,142.04083169978085L96.41671875,142.5906041407181L96.7978125,142.87849708526096L97.17890625,142.27012852459407L97.56,142.6719979155377L97.94109375000001,-9.239572051458648L99.84656249999999,-28.85064152108081L100.22765625000001,4.483569774851517L100.60875,27.777221308270274L100.98984374999999,44.742733077930914L101.37093750000001,58.88849519343823L101.75203125,70.23907438657075L102.13312499999999,80.64521838682525L102.51421875,66.3304541766264L102.8953125,-290.6670538612116L104.80078125,-15.457879388872811L105.181875,4.146936917457547L105.56296875,17.12514603719328L105.9440625,25.914558716065986L106.32515625,32.11992810073334L106.70625,36.90481699227594L107.08734375,40.94688448247494L107.4684375,44.59393056741467L107.84953125,48.07494098205036L108.230625,51.55941434508957L108.61171875,55.12365793322563L108.9928125,58.772827352708816L109.37390625,62.47337575732842L109.755,66.17215174834237L110.13609375,69.81802610759917L110.5171875,73.39541988819231L110.89828125,76.92536438408727L111.279375,80.38287019295237L111.66046875,83.70238459135737L112.0415625,86.83940768352535L112.42265624999999,89.79458897046678L112.80375000000001,92.58876649263165L113.18484375,95.2202951738993L113.56593749999999,97.70306184555052L113.94703125000001,100.04903281045532L114.328125,102.2724401940857L114.70921875,104.38372463891234L115.0903125,106.39497994936303L115.47140625,108.31381243250843L115.8525,110.14413119729802L116.23359375,111.887523322871L116.6146875,113.54464936969917L116.99578125000001,114.98471349877262L117.376875,115.5852008775839L117.75796875,117.07124960369877L118.13906250000001,118.62481605860597L118.52015625,120.09970767715576L118.90125,121.48374721371535L119.28234374999998,122.7832079717839L119.6634375,124.01576416295313L120.04453125,125.20052893234221L120.42562499999998,126.35677657571392L120.80671875,127.43529922179553L121.1878125,128.41850754821405L121.56890624999998,128.92040140392842L121.95,127.58130818854846L122.33109375000001,128.47180837504314L122.71218749999998,129.611093276979L123.09328125,130.7326938446054L123.47437500000001,131.7406459149175L123.85546874999999,132.59906062023958L124.2365625,133.35168095222187L124.61765625000001,134.01053674516126L124.99874999999999,134.58388949094442L125.37984375,135.10123560496703L125.76093750000001,135.57111720526538L126.14203124999999,136.00230889127445L126.52312500000001,136.40152521513576L126.90421875000001,136.7735046798627L127.28531249999999,137.12564394561295L127.66640625000001,137.45746770281698L128.0475,137.7712975833601L128.42859375,138.05543089986958L128.8096875,138.33740338855455L129.19078125,138.61576641057414L129.571875,138.88527655777028L129.95296875,139.1454972334903L130.3340625,139.39616647974262L130.71515625,139.63909330825572L131.09625,139.87434762313703L131.47734375,140.10224468838416L131.8584375,140.32303199979808L132.23953125,140.5379232526132L132.620625,140.7492163722222L133.00171875,140.9562310196224L133.3828125,140.13585031221288L133.76390625,140.28914577082384L134.145,140.713004527924L134.52609375,141.15016648628566L134.9071875,141.51518934489638L135.28828125,141.81642422705502L135.669375,141.8614334668971L136.05046875,142.0615963045035L136.4315625,142.29371370311225L136.81265625,142.5254878165939L137.19375,142.74633916212431L137.57484375,142.95456975704022L137.9559375,143.1483548913335L138.33703125,143.32674342186067L138.71812500000001,143.48950712489375L139.09921874999998,143.64508358401827L139.4803125,143.6564221963094L139.86140625000002,143.56500570426024L140.24249999999998,143.703091642771L140.62359375,143.982272331854L141.00468750000002,144.19447583807724L141.38578124999998,144.36323262198698L141.766875,144.466643015575L142.14796875000002,144.5910227661321L142.52906249999998,144.45691831055817L142.91015625,144.38821170410833L143.29125000000002,144.21698391943767L143.67234374999998,144.5647351514673L144.0534375,144.87058572589015L144.43453125000002,145.15562691771183L144.81562499999998,145.39643504955288L145.19671875,145.5808832099075L145.57781250000002,145.727520355632L145.95890624999998,145.85297470117217L146.34,145.87231902480485L146.72109375000002,146.01295498910167L147.10218749999999,145.82558474272858L147.48328125,145.9273861788891L147.864375,145.631293053769L148.24546875,145.55098393773017L148.6265625,145.9819948548256L149.00765625,146.29625960820786L149.38875,146.574720718538L149.76984375,146.81389809274387L150.1509375,146.9844298590643L150.53203125,147.1219404166593L150.913125,147.21530290966356L151.29421875,147.32146356342508L151.6753125,147.2197939461605L152.05640625,147.33236755421976L152.4375,147.0430099734498L152.81859375,146.84873642230232L153.1996875,146.87173804478763L153.58078125,147.32334609835695L153.961875,147.61035803743212L154.34296875,147.91199969184404L154.7240625,148.11893834660057L155.10515625,148.28558737319472L155.48625,148.40490051351645L155.86734375,148.51318370410596L156.2484375,148.50682858183856L156.62953125,148.62922307683752L157.010625,148.39431635342675L157.39171875,148.47806422611853L157.7728125,148.09072301443086L158.15390625,147.94495041022103L158.535,148.38649041214825L158.91609375,148.74493142990613L159.2971875,149.0323884355804L159.67828125,149.31253295758847L160.059375,149.4881840872972L160.44046875,149.6358088837748L160.8215625,149.7344145538977L161.20265625,149.84464695011206L161.58375,149.77305718251841L161.96484375,149.93094063275325L162.3459375,149.6848873654918L162.72703125,149.8934214512775L163.108125,149.64349614469228L163.48921875,149.5785666443349L163.8703125,149.22535400027283L164.25140625,149.58877040187267L164.6325,150.06512529654353L165.01359375,150.39286229950815L165.3946875,150.66706623834747L165.77578125,150.89756820370184L166.156875,151.04520336728945L166.53796875,151.17092270396745L166.9190625,151.20978971857187L167.30015625000001,151.3331953033111L167.68124999999998,151.14709597226985L168.06234375,151.37453332799083L168.44343750000002,151.14885767379644L168.82453124999998,151.4601893052056L169.205625,151.32255886510578L169.58671875000002,151.65082391769627L169.96781249999998,151.5537710840162L170.34890625,151.79548437892535L170.73000000000002,151.85285932852707L171.11109374999998,151.7291758937471L171.4921875,152.0426600040217L171.87328125000002,151.9650225221884L172.25437499999998,152.0298461060865L172.63546875,152.3146172827925L173.01656250000002,152.0996731406716L173.39765624999998,147.81867168225452L173.77875,143.64423117707733L174.15984375000002,145.23671391376593L174.54093749999998,147.57463146105252L174.92203125,149.5838230538776L175.30312500000002,150.94548022759025L175.68421874999999,151.90061750056782L176.0653125,152.51816916977427L176.44640625,152.95539170572198L176.8275,153.24991775048397L177.20859375,153.47366196620837L177.5896875,153.63753525345547L177.97078125,153.77448074679987L178.351875,153.88595286458383L178.73296875,153.98383490234406L179.1140625,154.07383837426775L179.49515625,154.15737970913096L179.87625,154.237666567544L180.25734375,154.31620708163967L180.6384375,154.39317637300724L181.01953125,154.46874325361392L181.400625,154.5435929248246L181.78171875,154.61771356129125L182.1628125,154.69123040728255L182.54390625,154.76404683811953L182.925,154.83623397750551L183.30609375,154.90774375259218L183.6871875,154.9785759482106L184.06828125,155.0485732483697L184.449375,155.11743114079428L184.83046875,155.1846714499795L185.2115625,155.2502184736254L185.59265625,155.3151265584184L185.97375,155.38143597228247L186.35484375,155.45120758556678L186.7359375,155.52371173395724L187.11703125,155.59272171200521L187.498125,155.65622353013282L187.87921875,155.71773196353865L188.2603125,155.77494114040348L188.64140625,155.82427610391983L189.0225,155.862883188597L189.40359375,155.88578168012597L189.7846875,155.87944622670352L190.16578125,155.85585074993813L190.546875,155.79502246168164L190.92796875,155.77831051070038L191.3090625,155.75836868251886L191.69015625,155.78286176126915L192.07125,155.82301162158083L192.45234375,155.8566985806145L192.8334375,155.9245896989058L193.21453125,155.96746394812766L193.595625,156.02896174900354L193.97671875,156.0912269364871L194.3578125,156.1369882553981L194.73890625,156.209180111442L195.12,156.25569189865232L195.50109375,156.3176193994453L195.88218750000001,156.31357402919355L196.26328124999998,153.37393260110989L196.644375,153.10798215588076L197.02546875000002,154.3762003653058L197.40656249999998,155.5157318494325L197.78765625,156.2890186384681L198.16875000000002,156.7571121413328L198.54984374999998,157.05070848353017L198.9309375,157.2421717545468L199.31203125000002,157.38799230748884L199.69312499999998,157.51247541379016L200.07421875,157.60942855882098L200.45531250000002,157.67981673001913L200.83640624999998,157.74090341691775L201.2175,157.79022004697683L201.59859375000002,157.82677972410895L201.97968749999998,157.85033655394778L202.36078125,157.86005807555716L202.74187500000002,157.8386814517796L203.12296874999998,157.82019080771326L203.5040625,157.74297907813383L203.88515625000002,157.74391343870158L204.26624999999999,157.66788082689283L204.64734375,157.72010982853317L205.0284375,157.695877072657L205.40953125,157.75311078949264L205.790625,157.78422571747L206.17171875,157.8177680110484L206.5528125,157.88294390599427L206.93390625,157.90049647360146L207.315,157.9655875295466L207.69609375,158.0090623016635L208.0771875,158.05843621217485L208.45828125,158.10524308411644L208.839375,158.1478505196593L209.22046875,158.19424629507196" style="fill: none;" fill="none"></path></g></g></g></g><g opacity="0.2"><g><g><g><path stroke="rgb(255, 112, 67)" stroke-width="2px" d="M19.0546875,23.278827392578126L19.43578125,24.5154398803711L19.816875,24.800742187500003L20.19796875,25.413317321777342L20.5790625,26.073739929199213L20.960156249999997,26.996648437499996L21.341250000000002,28.34551721191406L21.72234375,30.37896459960938L22.1034375,33.103407714843755L22.48453125,36.48061395263671L22.865625,42.06861328125L23.24671875,43.213927734375L23.6278125,26.935696655273436L24.00890625,29.88480358886719L24.39,33.823680175781256L24.771093750000002,36.44564392089844L25.1521875,39.58452026367187L25.533281249999998,42.99279656982422L25.914375,46.496454528808584L26.29546875,50.03478002929688L26.6765625,53.902722656250006L27.05765625,57.52242883300781L27.43875,60.02709118652345L27.81984375,62.89178173828124L28.200937500000002,65.36358068847657L28.58203125,68.00015039062501L28.963125,69.06955059814453L29.34421875,71.67503942871093L29.7253125,75.36858563232421L30.106406249999996,79.43078100585937L30.4875,81.03227233886719L30.868593750000002,70.69538159179687L31.249687499999997,82.20421673583984L31.630781250000002,87.70864233398437L32.011875,91.24362423706054L32.39296875,93.08005865478518L32.7740625,94.8426530456543L33.15515625,94.73814807128907L33.53625,83.37898077392578L33.91734375,90.68274792480469L34.2984375,96.16767910766602L34.679531250000004,98.22427239990235L35.060624999999995,99.9054591064453L35.44171875,101.02761685180664L35.822812500000005,101.96874499511719L36.203906249999996,101.53754516601562L36.585,102.82518127441406L36.96609375,89.08269882202148L37.3471875,96.38195562744141L37.72828125,99.92340325927734L38.109375,104.23673034667969L38.49046875,106.2649705810547L38.8715625,107.6084701538086L39.25265625,108.62709521484375L39.63375,109.35747949218748L40.01484375,109.20300961303711L40.3959375,98.92739474487306L40.77703125,111.12090032958984L41.158125,111.68558477783202L41.53921875,111.23737527465819L41.920312499999994,102.71252526855469L42.30140625,113.95757272338868L42.682500000000005,113.48125323486327L43.063593749999995,114.99363418579101L43.4446875,90.80865948486328L43.825781250000006,105.82801803588866L44.206875,111.18224102783203L44.58796875,115.58806530761717L44.9690625,117.64852075195311L45.35015625,118.24357846069336L45.73125,118.69965811157228L46.11234375,118.97996392822266L46.4934375,118.77979641723633L46.87453125,121.3160419921875L47.255625,119.3043198852539L47.63671875,109.4631890258789L48.0178125,112.42072247314452L48.39890625,120.57161352539062L48.78,122.32353973388672L49.16109375,123.64286169433593L49.542187500000004,124.44053384399415L49.923281249999995,124.27945779418947L50.304375,118.6696467590332L50.685468750000005,123.24476293945314L51.066562499999996,125.86930865478516L51.44765625,108.69611700439455L51.82875,109.66068814086914L52.20984375,124.70402444458009L52.5909375,126.68087915039062L52.97203125,127.23000695800782L53.353125,127.50877331542968L53.73421875,127.86732687377929L54.1153125,127.91357006835936L54.49640625,126.4381739501953L54.8775,127.90918936157226L55.25859375,106.67895007324219L55.6396875,127.10023864746093L56.02078125,128.6577392578125L56.401875000000004,129.84754678344729L56.782968749999995,129.9477898864746L57.1640625,130.49018188476563L57.54515625,128.49678744506835L57.92625,105.97906329345703L58.30734375,122.0109430847168L58.6884375,128.05268856811526L59.069531250000004,129.01328411865236L59.450625,129.7730963745117L59.83171875,130.35524423217774L60.21281249999999,130.81017874145508L60.59390625,130.9500426635742L60.975,132.19476837158203L61.35609374999999,132.474474609375L61.737187500000005,132.31523240661622L62.11828125,123.3896449584961L62.49937499999999,131.7386239013672L62.880468750000006,131.23967166137695L63.261562500000004,126.63692623901368L63.642656249999995,128.0342096557617L64.02375,125.65622048950195L64.40484375,130.5956159362793L64.7859375,133.3119782409668L65.16703125,133.7417196350098L65.548125,134.41052554321288L65.92921875,134.18765505981443L66.3103125,135.5375771484375L66.69140625,134.97039445495605L67.0725,-173.78580358886717L67.45359375,39.24596887207031L67.8346875,74.40433319091798L68.21578125,82.74700305175782L68.596875,97.207224609375L68.97796875,70.54957049560547L69.35906250000001,41.60349133300781L69.74015625,58.123077209472655L70.12124999999999,69.92305920410156L70.50234375000001,76.75923046875L70.8834375,84.75443627929687L71.26453124999999,91.85123529052734L71.64562500000001,97.57450177001952L72.02671875,102.71795928955078L72.40781249999999,107.26147064208983L72.78890625000001,111.15743142700195L73.17,114.67910916137696L73.55109374999999,117.81151977539064L73.9321875,120.48417764282226L74.31328125,122.78812692260742L74.694375,124.80502377319337L75.07546875,126.55368200683594L75.4565625,128.03953564453124L75.83765625,129.31702752685547L76.21875,130.4025029296875L76.59984375,131.308763671875L76.9809375,132.09255097961426L77.36203125,132.7846243286133L77.743125,133.37248979187012L78.12421875,133.89058264160155L78.5053125,134.34133630371093L78.88640625,134.77361915588378L79.2675,135.15802752685545L79.64859375,135.53207290649414L80.0296875,135.6324051361084L80.41078125,136.17148054504395L80.791875,136.52306062316893L81.17296875,136.760501953125L81.5540625,136.95995645141602L81.93515625,137.2971682434082L82.31625,137.38395053100587L82.69734375,133.7241292877197L83.0784375,135.55880548095703L83.45953125,137.912030960083L83.84062499999999,137.89707929992676L84.22171875000001,138.7197447052002L84.6028125,136.9630083618164L84.98390624999999,136.286181060791L85.36500000000001,134.22470741271974L85.74609375,135.91585469055175L86.12718749999999,139.27085220336915L86.50828125000001,139.4678219604492L86.889375,139.5957483215332L87.27046874999999,139.94285856628417L87.65156250000001,140.09149200439452L88.03265625,136.0845010986328L88.41375,140.67248391723632L88.79484375,140.2627743988037L89.1759375,131.4649458618164L89.55703125,141.07824755859374L89.938125,140.93102124023437L90.31921875,141.5308647766113L90.7003125,139.51524810791017L91.08140625,134.94101779174804L91.4625,141.2080347747803L91.84359375,139.82770431518554L92.2246875,141.69471185302734L92.60578125,138.98642495727537L92.986875,142.7083620300293L93.36796875,141.22076637268066L93.7490625,132.78860261535644L94.13015625,140.8434125061035L94.51125,138.91910197448732L94.89234375,138.28319458007812L95.2734375,141.1449196472168L95.65453125,143.3064122314453L96.035625,143.41289419555665L96.41671875,143.41526280212403L96.7978125,143.31033650207522L97.17890625,141.35757568359375L97.56,143.2748020019531L97.94109375000001,-237.10692700195315L99.08437500000001,-73.16931958007814L99.46546875,42.969861328125006L99.84656249999999,29.02190698242188L100.22765625000001,54.48488671875L100.60875,62.717698608398436L100.98984374999999,70.19100073242187L101.37093750000001,80.10713836669922L101.75203125,87.26494317626953L102.13312499999999,96.25443438720704L102.51421875,44.858307861328136L102.8953125,-826.1633159179687L103.6575,-74.34531518554688L104.03859375,11.167572143554693L104.4196875,26.17091491699219L104.80078125,30.615511962890636L105.181875,33.55416137695313L105.56296875,36.59245971679688L105.9440625,39.098677734374995L106.32515625,41.427982177734386L106.70625,44.082150329589844L107.08734375,47.009985717773425L107.4684375,50.06449969482421L107.84953125,53.29645660400391L108.230625,56.78612438964845L108.61171875,60.4700233154297L108.9928125,64.24658148193359L109.37390625,68.02419836425781L109.755,71.72031573486329L110.13609375,75.28683764648439L110.5171875,78.76151055908204L110.89828125,82.2202811279297L111.279375,85.56912890625L111.66046875,88.68165618896482L112.0415625,91.54494232177734L112.42265624999999,94.2273609008789L112.80375000000001,96.7800327758789L113.18484375,99.16758819580077L113.56593749999999,101.42721185302734L113.94703125000001,103.5679892578125L114.328125,105.60755126953127L114.70921875,107.55065130615233L115.0903125,109.41186291503907L115.47140625,111.19206115722656L115.8525,112.88960934448242L116.23359375,114.50261151123047L116.6146875,116.03033843994142L116.99578125000001,117.14480969238282L117.376875,116.48593194580079L117.75796875,119.30032269287108L118.13906250000001,120.9551657409668L118.52015625,122.31204510498047L118.90125,123.55980651855471L119.28234374999998,124.73239910888671L119.6634375,125.86459844970703L120.04453125,126.9776760864258L120.42562499999998,128.0911480407715L120.80671875,129.05308319091796L121.1878125,129.8933200378418L121.56890624999998,129.6732421875L121.95,125.5726683654785L122.33109375000001,129.80755865478514L122.71218749999998,131.3200206298828L123.09328125,132.41509469604492L123.47437500000001,133.25257402038574L123.85546874999999,133.88668267822266L124.2365625,134.4806114501953L124.61765625000001,134.99882043457032L124.99874999999999,135.44391860961915L125.37984375,135.87725477600097L125.76093750000001,136.2759396057129L126.14203124999999,136.6490964202881L126.52312500000001,137.00034970092773L126.90421875000001,137.3314738769531L127.28531249999999,137.6538528442383L127.66640625000001,137.95520333862305L128.0475,138.2420424041748L128.42859375,138.4816308746338L128.8096875,138.76036212158203L129.19078125,139.0333109436035L129.571875,139.28954177856446L129.95296875,139.53582824707033L130.3340625,139.7721703491211L130.71515625,140.0034835510254L131.09625,140.22722909545897L131.47734375,140.4440902862549L131.8584375,140.65421296691895L132.23953125,140.86026013183596L132.620625,141.06615605163574L133.00171875,141.26675299072264L133.3828125,138.90527925109862L133.76390625,140.51908895874024L134.145,141.34879266357422L134.52609375,141.80590942382813L134.9071875,142.0627236328125L135.28828125,142.26827655029297L135.669375,141.92894732666014L136.05046875,142.3618405609131L136.4315625,142.6418898010254L136.81265625,142.8731489868164L137.19375,143.07761618041994L137.57484375,143.26691564941405L137.9559375,143.43903259277343L138.33703125,143.59432621765137L138.71812500000001,143.73365267944334L139.09921874999998,143.87844827270507L139.4803125,143.6734301147461L139.86140625000002,143.42788096618654L140.24249999999998,143.9102205505371L140.62359375,144.40104336547853L141.00468750000002,144.5127810974121L141.38578124999998,144.61636779785155L141.766875,144.62175860595704L142.14796875000002,144.77759239196777L142.52906249999998,144.25576162719727L142.91015625,144.2851517944336L143.29125000000002,143.96014224243163L143.67234374999998,145.08636199951172L144.0534375,145.32936158752443L144.43453125000002,145.58318870544434L144.81562499999998,145.75764724731445L145.19671875,145.85755545043943L145.57781250000002,145.94747607421874L145.95890624999998,146.04115621948242L146.34,145.9013355102539L146.72109375000002,146.22390893554686L147.10218749999999,145.54452937316896L147.48328125,146.08008833312988L147.864375,145.18715336608886L148.24546875,145.4305202636719L148.6265625,146.62851123046875L149.00765625,146.76765673828126L149.38875,146.9924123840332L149.76984375,147.17266415405274L150.1509375,147.24022750854493L150.53203125,147.32820625305175L150.913125,147.35534664916992L151.29421875,147.48070454406738L151.6753125,147.06728952026367L152.05640625,147.5012279663086L152.4375,146.60897360229492L152.81859375,146.55732609558106L153.1996875,146.90624047851563L153.58078125,148.00075817871092L153.961875,148.0408759460449L154.34296875,148.3644621734619L154.7240625,148.42934632873536L155.10515625,148.53556091308593L155.48625,148.583870223999L155.86734375,148.67560848999022L156.2484375,148.4972958984375L156.62953125,148.81281481933593L157.010625,148.04195626831054L157.39171875,148.60368603515624L157.7728125,147.50971119689942L158.15390625,147.72629150390625L158.535,149.04880041503907L158.91609375,149.28259295654297L159.2971875,149.4635739440918L159.67828125,149.73274974060058L160.059375,149.75166078186035L160.44046875,149.85724607849122L160.8215625,149.882323059082L161.20265625,150.0099955444336L161.58375,149.66567253112794L161.96484375,150.16776580810546L162.3459375,149.31580746459963L162.72703125,150.20622257995606L163.108125,149.26860818481444L163.48921875,149.48117239379883L163.8703125,148.69553503417967L164.25140625,150.13389500427246L164.6325,150.7796576385498L165.01359375,150.8844678039551L165.3946875,151.07837214660645L165.77578125,151.2433211517334L166.156875,151.2666561126709L166.53796875,151.35950170898437L166.9190625,151.26809024047853L167.30015625000001,151.51830368041993L167.68124999999998,150.867946975708L168.06234375,151.71568936157226L168.44343750000002,150.81034419250489L168.82453124999998,151.92718675231933L169.205625,151.11611320495606L169.58671875000002,152.14322149658202L169.96781249999998,151.4081918334961L170.34890625,152.15805432128906L170.73000000000002,151.93892175292967L171.11109374999998,151.54365074157715L171.4921875,152.5128861694336L171.87328125000002,151.8485662994385L172.25437499999998,152.12708148193357L172.63546875,152.74177404785158L173.01656250000002,151.77725692749024L173.39765624999998,141.3971694946289L173.77875,137.38257041931152L174.15984375000002,147.62543801879883L174.54093749999998,151.08150778198242L174.92203125,152.59761044311523L175.30312500000002,152.98796598815917L175.68421874999999,153.33332341003418L176.0653125,153.44449667358398L176.44640625,153.61122550964356L176.8275,153.69170681762694L177.20859375,153.80927828979492L177.5896875,153.88334518432617L177.97078125,153.9798989868164L178.351875,154.05316104125976L178.73296875,154.1306579589844L179.1140625,154.20884358215332L179.49515625,154.28269171142577L179.87625,154.35809685516358L180.25734375,154.4340178527832L180.6384375,154.50863031005858L181.01953125,154.58209357452392L181.400625,154.65586743164062L181.78171875,154.72889451599121L182.1628125,154.80150567626953L182.54390625,154.873271484375L182.925,154.94451468658448L183.30609375,155.01500841522218L183.6871875,155.0848242416382L184.06828125,155.15356919860838L184.449375,155.22071797943116L184.83046875,155.28553191375732L185.2115625,155.34853900909425L185.59265625,155.4124886856079L185.97375,155.48090009307862L186.35484375,155.55586500549316L186.7359375,155.63246795654297L187.11703125,155.69623667907715L187.498125,155.7514762573242L187.87921875,155.80999461364746L188.2603125,155.8607549057007L188.64140625,155.89827854919434L189.0225,155.9207938156128L189.40359375,155.92012941741942L189.7846875,155.86994304656983L190.16578125,155.82045753479005L190.546875,155.70378002929687L190.92796875,155.7532425842285L191.3090625,155.7284559402466L191.69015625,155.81960137939453L192.07125,155.88323641204835L192.45234375,155.90722901916504L192.8334375,156.02642637634276L193.21453125,156.03177532196045L193.595625,156.1212084503174L193.97671875,156.1846247177124L194.3578125,156.20563023376465L194.73890625,156.31746789550783L195.12,156.32545957946778L195.50109375,156.41051065063476L195.88218750000001,156.30750597381592L196.26328124999998,148.96447045898438L196.644375,152.7090564880371L197.02546875000002,156.27852767944336L197.40656249999998,157.22502907562256L197.78765625,157.4489488220215L198.16875000000002,157.45925239562987L198.54984374999998,157.49110299682616L198.9309375,157.52936666107178L199.31203125000002,157.60672313690185L199.69312499999998,157.6992000732422L200.07421875,157.7548582763672L200.45531250000002,157.7853989868164L200.83640624999998,157.8325334472656L201.2175,157.86419499206545L201.59859375000002,157.88161923980712L201.97968749999998,157.88567179870606L202.36078125,157.8746403579712L202.74187500000002,157.80661651611328L203.12296874999998,157.7924548416138L203.5040625,157.62716148376464L203.88515625000002,157.74531497955323L204.26624999999999,157.55383190917968L204.64734375,157.79845333099365L205.0284375,157.65952793884276L205.40953125,157.8389613647461L205.790625,157.83089810943602L206.17171875,157.86808145141603L206.5528125,157.9807077484131L206.93390625,157.9268253250122L207.315,158.06322411346434L207.69609375,158.07427445983888L208.0771875,158.13249707794188L208.45828125,158.17545339202883L208.839375,158.21176167297364L209.22046875,158.2638399581909" style="fill: none;" fill="none"></path></g></g></g></g></g></g><g transform="translate(72, 177)" clip-path="url(#clip_1)"><clipPath id="clip_1"><rect width="228" height="23"></rect></clipPath><g><g><line x1="0" y1="0" x2="0" y2="5" style="visibility: inherit;" fill="rgb(0, 0, 0)" stroke="rgb(204, 204, 204)" stroke-width="1px"></line><line x1="19.0546875" y1="0" x2="19.0546875" y2="5" style="visibility: inherit;" fill="rgb(0, 0, 0)" stroke="rgb(204, 204, 204)" stroke-width="1px"></line><line x1="38.109375" y1="0" x2="38.109375" y2="5" style="visibility: inherit;" fill="rgb(0, 0, 0)" stroke="rgb(204, 204, 204)" stroke-width="1px"></line><line x1="57.1640625" y1="0" x2="57.1640625" y2="5" style="visibility: inherit;" fill="rgb(0, 0, 0)" stroke="rgb(204, 204, 204)" stroke-width="1px"></line><line x1="76.21875" y1="0" x2="76.21875" y2="5" style="visibility: inherit;" fill="rgb(0, 0, 0)" stroke="rgb(204, 204, 204)" stroke-width="1px"></line><line x1="95.2734375" y1="0" x2="95.2734375" y2="5" style="visibility: inherit;" fill="rgb(0, 0, 0)" stroke="rgb(204, 204, 204)" stroke-width="1px"></line><line x1="114.328125" y1="0" x2="114.328125" y2="5" style="visibility: inherit;" fill="rgb(0, 0, 0)" stroke="rgb(204, 204, 204)" stroke-width="1px"></line><line x1="133.3828125" y1="0" x2="133.3828125" y2="5" style="visibility: inherit;" fill="rgb(0, 0, 0)" stroke="rgb(204, 204, 204)" stroke-width="1px"></line><line x1="152.4375" y1="0" x2="152.4375" y2="5" style="visibility: inherit;" fill="rgb(0, 0, 0)" stroke="rgb(204, 204, 204)" stroke-width="1px"></line><line x1="171.4921875" y1="0" x2="171.4921875" y2="5" style="visibility: inherit;" fill="rgb(0, 0, 0)" stroke="rgb(204, 204, 204)" stroke-width="1px"></line><line x1="190.546875" y1="0" x2="190.546875" y2="5" style="visibility: inherit;" fill="rgb(0, 0, 0)" stroke="rgb(204, 204, 204)" stroke-width="1px"></line><line x1="209.6015625" y1="0" x2="209.6015625" y2="5" style="visibility: inherit;" fill="rgb(0, 0, 0)" stroke="rgb(204, 204, 204)" stroke-width="1px"></line><line x1="228.65625" y1="0" x2="228.65625" y2="5" style="visibility: inherit;" fill="rgb(0, 0, 0)" stroke="rgb(204, 204, 204)" stroke-width="1px"></line></g><g transform="translate(0, 8)"><text x="0" y="0" dx="0em" dy="0.95em" style="text-anchor: middle; visibility: hidden; font-family: Roboto, sans-serif; font-size: 12px; font-weight: 200;" fill="rgb(33, 33, 33)" stroke="none" stroke-width="1px">-50</text><text x="19.0546875" y="0" dx="0em" dy="0.95em" style="text-anchor: middle; visibility: inherit; font-family: Roboto, sans-serif; font-size: 12px; font-weight: 200;" fill="rgb(33, 33, 33)" stroke="none" stroke-width="1px">0</text><text x="38.109375" y="0" dx="0em" dy="0.95em" style="text-anchor: middle; visibility: hidden; font-family: Roboto, sans-serif; font-size: 12px; font-weight: 200;" fill="rgb(33, 33, 33)" stroke="none" stroke-width="1px">50</text><text x="57.1640625" y="0" dx="0em" dy="0.95em" style="text-anchor: middle; visibility: inherit; font-family: Roboto, sans-serif; font-size: 12px; font-weight: 200;" fill="rgb(33, 33, 33)" stroke="none" stroke-width="1px">100</text><text x="76.21875" y="0" dx="0em" dy="0.95em" style="text-anchor: middle; visibility: hidden; font-family: Roboto, sans-serif; font-size: 12px; font-weight: 200;" fill="rgb(33, 33, 33)" stroke="none" stroke-width="1px">150</text><text x="95.2734375" y="0" dx="0em" dy="0.95em" style="text-anchor: middle; visibility: inherit; font-family: Roboto, sans-serif; font-size: 12px; font-weight: 200;" fill="rgb(33, 33, 33)" stroke="none" stroke-width="1px">200</text><text x="114.328125" y="0" dx="0em" dy="0.95em" style="text-anchor: middle; visibility: hidden; font-family: Roboto, sans-serif; font-size: 12px; font-weight: 200;" fill="rgb(33, 33, 33)" stroke="none" stroke-width="1px">250</text><text x="133.3828125" y="0" dx="0em" dy="0.95em" style="text-anchor: middle; visibility: inherit; font-family: Roboto, sans-serif; font-size: 12px; font-weight: 200;" fill="rgb(33, 33, 33)" stroke="none" stroke-width="1px">300</text><text x="152.4375" y="0" dx="0em" dy="0.95em" style="text-anchor: middle; visibility: hidden; font-family: Roboto, sans-serif; font-size: 12px; font-weight: 200;" fill="rgb(33, 33, 33)" stroke="none" stroke-width="1px">350</text><text x="171.4921875" y="0" dx="0em" dy="0.95em" style="text-anchor: middle; visibility: inherit; font-family: Roboto, sans-serif; font-size: 12px; font-weight: 200;" fill="rgb(33, 33, 33)" stroke="none" stroke-width="1px">400</text><text x="190.546875" y="0" dx="0em" dy="0.95em" style="text-anchor: middle; visibility: hidden; font-family: Roboto, sans-serif; font-size: 12px; font-weight: 200;" fill="rgb(33, 33, 33)" stroke="none" stroke-width="1px">450</text><text x="209.6015625" y="0" dx="0em" dy="0.95em" style="text-anchor: middle; visibility: inherit; font-family: Roboto, sans-serif; font-size: 12px; font-weight: 200;" fill="rgb(33, 33, 33)" stroke="none" stroke-width="1px">500</text><text x="228.65625" y="0" dx="0em" dy="0.95em" style="text-anchor: middle; visibility: hidden; font-family: Roboto, sans-serif; font-size: 12px; font-weight: 200;" fill="rgb(33, 33, 33)" stroke="none" stroke-width="1px">550</text></g><line x1="0" y1="0" x2="228.65625" y2="0" fill="rgb(0, 0, 0)" stroke="rgb(204, 204, 204)" stroke-width="1px"></line></g></g></g></g></svg>