<svg viewBox="0 0 301 200" xmlns="http://www.w3.org/2000/svg"><g><g><g><g><g><line x1="30" y1="177" x2="25" y2="177" style="visibility: inherit;" fill="rgb(0, 0, 0)" stroke="rgb(204, 204, 204)" stroke-width="1px"></line><line x1="30" y1="164.35714285714286" x2="25" y2="164.35714285714286" style="visibility: inherit;" fill="rgb(0, 0, 0)" stroke="rgb(204, 204, 204)" stroke-width="1px"></line><line x1="30" y1="151.71428571428572" x2="25" y2="151.71428571428572" style="visibility: inherit;" fill="rgb(0, 0, 0)" stroke="rgb(204, 204, 204)" stroke-width="1px"></line><line x1="30" y1="139.07142857142856" x2="25" y2="139.07142857142856" style="visibility: inherit;" fill="rgb(0, 0, 0)" stroke="rgb(204, 204, 204)" stroke-width="1px"></line><line x1="30" y1="126.42857142857143" x2="25" y2="126.42857142857143" style="visibility: inherit;" fill="rgb(0, 0, 0)" stroke="rgb(204, 204, 204)" stroke-width="1px"></line><line x1="30" y1="113.78571428571428" x2="25" y2="113.78571428571428" style="visibility: inherit;" fill="rgb(0, 0, 0)" stroke="rgb(204, 204, 204)" stroke-width="1px"></line><line x1="30" y1="101.14285714285714" x2="25" y2="101.14285714285714" style="visibility: inherit;" fill="rgb(0, 0, 0)" stroke="rgb(204, 204, 204)" stroke-width="1px"></line><line x1="30" y1="88.5" x2="25" y2="88.5" style="visibility: inherit;" fill="rgb(0, 0, 0)" stroke="rgb(204, 204, 204)" stroke-width="1px"></line><line x1="30" y1="75.85714285714286" x2="25" y2="75.85714285714286" style="visibility: inherit;" fill="rgb(0, 0, 0)" stroke="rgb(204, 204, 204)" stroke-width="1px"></line><line x1="30" y1="63.21428571428571" x2="25" y2="63.21428571428571" style="visibility: inherit;" fill="rgb(0, 0, 0)" stroke="rgb(204, 204, 204)" stroke-width="1px"></line><line x1="30" y1="50.57142857142857" x2="25" y2="50.57142857142857" style="visibility: inherit;" fill="rgb(0, 0, 0)" stroke="rgb(204, 204, 204)" stroke-width="1px"></line><line x1="30" y1="37.92857142857143" x2="25" y2="37.92857142857143" style="visibility: inherit;" fill="rgb(0, 0, 0)" stroke="rgb(204, 204, 204)" stroke-width="1px"></line><line x1="30" y1="25.285714285714295" x2="25" y2="25.285714285714295" style="visibility: inherit;" fill="rgb(0, 0, 0)" stroke="rgb(204, 204, 204)" stroke-width="1px"></line><line x1="30" y1="12.642857142857137" x2="25" y2="12.642857142857137" style="visibility: inherit;" fill="rgb(0, 0, 0)" stroke="rgb(204, 204, 204)" stroke-width="1px"></line><line x1="30" y1="0" x2="25" y2="0" style="visibility: inherit;" fill="rgb(0, 0, 0)" stroke="rgb(204, 204, 204)" stroke-width="1px"></line></g><g transform="translate(20, 0)"><text x="0" y="177" dx="0em" dy="0.3em" style="text-anchor: end; visibility: hidden; font-family: Roboto, sans-serif; font-size: 12px; font-weight: 200;" fill="rgb(33, 33, 33)" stroke="none" stroke-width="1px">0</text><text x="0" y="164.35714285714286" dx="0em" dy="0.3em" style="text-anchor: end; visibility: inherit; font-family: Roboto, sans-serif; font-size: 12px; font-weight: 200;" fill="rgb(33, 33, 33)" stroke="none" stroke-width="1px">2</text><text x="0" y="151.71428571428572" dx="0em" dy="0.3em" style="text-anchor: end; visibility: hidden; font-family: Roboto, sans-serif; font-size: 12px; font-weight: 200;" fill="rgb(33, 33, 33)" stroke="none" stroke-width="1px">4</text><text x="0" y="139.07142857142856" dx="0em" dy="0.3em" style="text-anchor: end; visibility: inherit; font-family: Roboto, sans-serif; font-size: 12px; font-weight: 200;" fill="rgb(33, 33, 33)" stroke="none" stroke-width="1px">6</text><text x="0" y="126.42857142857143" dx="0em" dy="0.3em" style="text-anchor: end; visibility: hidden; font-family: Roboto, sans-serif; font-size: 12px; font-weight: 200;" fill="rgb(33, 33, 33)" stroke="none" stroke-width="1px">8</text><text x="0" y="113.78571428571428" dx="0em" dy="0.3em" style="text-anchor: end; visibility: inherit; font-family: Roboto, sans-serif; font-size: 12px; font-weight: 200;" fill="rgb(33, 33, 33)" stroke="none" stroke-width="1px">10</text><text x="0" y="101.14285714285714" dx="0em" dy="0.3em" style="text-anchor: end; visibility: hidden; font-family: Roboto, sans-serif; font-size: 12px; font-weight: 200;" fill="rgb(33, 33, 33)" stroke="none" stroke-width="1px">12</text><text x="0" y="88.5" dx="0em" dy="0.3em" style="text-anchor: end; visibility: inherit; font-family: Roboto, sans-serif; font-size: 12px; font-weight: 200;" fill="rgb(33, 33, 33)" stroke="none" stroke-width="1px">14</text><text x="0" y="75.85714285714286" dx="0em" dy="0.3em" style="text-anchor: end; visibility: hidden; font-family: Roboto, sans-serif; font-size: 12px; font-weight: 200;" fill="rgb(33, 33, 33)" stroke="none" stroke-width="1px">16</text><text x="0" y="63.21428571428571" dx="0em" dy="0.3em" style="text-anchor: end; visibility: inherit; font-family: Roboto, sans-serif; font-size: 12px; font-weight: 200;" fill="rgb(33, 33, 33)" stroke="none" stroke-width="1px">18</text><text x="0" y="50.57142857142857" dx="0em" dy="0.3em" style="text-anchor: end; visibility: hidden; font-family: Roboto, sans-serif; font-size: 12px; font-weight: 200;" fill="rgb(33, 33, 33)" stroke="none" stroke-width="1px">20</text><text x="0" y="37.92857142857143" dx="0em" dy="0.3em" style="text-anchor: end; visibility: inherit; font-family: Roboto, sans-serif; font-size: 12px; font-weight: 200;" fill="rgb(33, 33, 33)" stroke="none" stroke-width="1px">22</text><text x="0" y="25.285714285714295" dx="0em" dy="0.3em" style="text-anchor: end; visibility: hidden; font-family: Roboto, sans-serif; font-size: 12px; font-weight: 200;" fill="rgb(33, 33, 33)" stroke="none" stroke-width="1px">24</text><text x="0" y="12.642857142857137" dx="0em" dy="0.3em" style="text-anchor: end; visibility: inherit; font-family: Roboto, sans-serif; font-size: 12px; font-weight: 200;" fill="rgb(33, 33, 33)" stroke="none" stroke-width="1px">26</text><text x="0" y="0" dx="0em" dy="0.3em" style="text-anchor: end; visibility: hidden; font-family: Roboto, sans-serif; font-size: 12px; font-weight: 200;" fill="rgb(33, 33, 33)" stroke="none" stroke-width="1px">28</text></g><line x1="30" y1="0" x2="30" y2="177" fill="rgb(0, 0, 0)" stroke="rgb(204, 204, 204)" stroke-width="1px"></line></g></g><g transform="translate(30, 0)" clip-path="url(#clip_0)"><clipPath id="clip_0"><rect width="300" height="177"></rect></clipPath><g><g><g><line x1="0" y1="0" x2="0" y2="177" fill="rgb(0, 0, 0)" stroke="rgb(66, 66, 66)" stroke-width="1px" opacity="0.25"></line><line x1="25" y1="0" x2="25" y2="177" fill="rgb(0, 0, 0)" stroke="rgb(66, 66, 66)" stroke-width="1px" opacity="0.25"></line><line x1="50" y1="0" x2="50" y2="177" fill="rgb(0, 0, 0)" stroke="rgb(66, 66, 66)" stroke-width="1px" opacity="0.25"></line><line x1="75" y1="0" x2="75" y2="177" fill="rgb(0, 0, 0)" stroke="rgb(66, 66, 66)" stroke-width="1px" opacity="0.25"></line><line x1="100" y1="0" x2="100" y2="177" fill="rgb(0, 0, 0)" stroke="rgb(66, 66, 66)" stroke-width="1px" opacity="0.25"></line><line x1="125" y1="0" x2="125" y2="177" fill="rgb(0, 0, 0)" stroke="rgb(66, 66, 66)" stroke-width="1px" opacity="0.25"></line><line x1="150" y1="0" x2="150" y2="177" fill="rgb(0, 0, 0)" stroke="rgb(66, 66, 66)" stroke-width="1px" opacity="0.25"></line><line x1="175" y1="0" x2="175" y2="177" fill="rgb(0, 0, 0)" stroke="rgb(66, 66, 66)" stroke-width="1px" opacity="0.25"></line><line x1="200" y1="0" x2="200" y2="177" fill="rgb(0, 0, 0)" stroke="rgb(66, 66, 66)" stroke-width="1px" opacity="0.25"></line><line x1="225" y1="0" x2="225" y2="177" fill="rgb(0, 0, 0)" stroke="rgb(66, 66, 66)" stroke-width="1px" opacity="0.25"></line><line x1="250" y1="0" x2="250" y2="177" fill="rgb(0, 0, 0)" stroke="rgb(66, 66, 66)" stroke-width="1px" opacity="0.25"></line><line x1="275" y1="0" x2="275" y2="177" fill="rgb(0, 0, 0)" stroke="rgb(66, 66, 66)" stroke-width="1px" opacity="0.25"></line><line x1="300" y1="0" x2="300" y2="177" fill="rgb(0, 0, 0)" stroke="rgb(66, 66, 66)" stroke-width="1px" opacity="0.25"></line></g><g><line x1="0" y1="177" x2="300" y2="177" fill="rgb(0, 0, 0)" stroke="rgb(66, 66, 66)" stroke-width="1px" opacity="0.25"></line><line x1="0" y1="164.35714285714286" x2="300" y2="164.35714285714286" fill="rgb(0, 0, 0)" stroke="rgb(66, 66, 66)" stroke-width="1px" opacity="0.25"></line><line x1="0" y1="151.71428571428572" x2="300" y2="151.71428571428572" fill="rgb(0, 0, 0)" stroke="rgb(66, 66, 66)" stroke-width="1px" opacity="0.25"></line><line x1="0" y1="139.07142857142856" x2="300" y2="139.07142857142856" fill="rgb(0, 0, 0)" stroke="rgb(66, 66, 66)" stroke-width="1px" opacity="0.25"></line><line x1="0" y1="126.42857142857143" x2="300" y2="126.42857142857143" fill="rgb(0, 0, 0)" stroke="rgb(66, 66, 66)" stroke-width="1px" opacity="0.25"></line><line x1="0" y1="113.78571428571428" x2="300" y2="113.78571428571428" fill="rgb(0, 0, 0)" stroke="rgb(66, 66, 66)" stroke-width="1px" opacity="0.25"></line><line x1="0" y1="101.14285714285714" x2="300" y2="101.14285714285714" fill="rgb(0, 0, 0)" stroke="rgb(66, 66, 66)" stroke-width="1px" opacity="0.25"></line><line x1="0" y1="88.5" x2="300" y2="88.5" fill="rgb(0, 0, 0)" stroke="rgb(66, 66, 66)" stroke-width="1px" opacity="0.25"></line><line x1="0" y1="75.85714285714286" x2="300" y2="75.85714285714286" fill="rgb(0, 0, 0)" stroke="rgb(66, 66, 66)" stroke-width="1px" opacity="0.25"></line><line x1="0" y1="63.21428571428571" x2="300" y2="63.21428571428571" fill="rgb(0, 0, 0)" stroke="rgb(66, 66, 66)" stroke-width="1px" opacity="0.25"></line><line x1="0" y1="50.57142857142857" x2="300" y2="50.57142857142857" fill="rgb(0, 0, 0)" stroke="rgb(66, 66, 66)" stroke-width="1px" opacity="0.25"></line><line x1="0" y1="37.92857142857143" x2="300" y2="37.92857142857143" fill="rgb(0, 0, 0)" stroke="rgb(66, 66, 66)" stroke-width="1px" opacity="0.25"></line><line x1="0" y1="25.285714285714295" x2="300" y2="25.285714285714295" fill="rgb(0, 0, 0)" stroke="rgb(66, 66, 66)" stroke-width="1px" opacity="0.25"></line><line x1="0" y1="12.642857142857137" x2="300" y2="12.642857142857137" fill="rgb(0, 0, 0)" stroke="rgb(66, 66, 66)" stroke-width="1px" opacity="0.25"></line><line x1="0" y1="0" x2="300" y2="0" fill="rgb(0, 0, 0)" stroke="rgb(66, 66, 66)" stroke-width="1px" opacity="0.25"></line></g></g></g><g><g><line x1="0" y1="177" x2="300" y2="177" fill="rgb(0, 0, 0)" stroke="rgb(153, 153, 153)" stroke-width="1.5px"></line></g></g><g><g><line x1="25" y1="0" x2="25" y2="177" fill="rgb(0, 0, 0)" stroke="rgb(153, 153, 153)" stroke-width="1.5px"></line></g></g><g><g><g><g><g><path stroke="rgb(51, 187, 238)" stroke-width="2px" d="M36.5,-12.946384293692464L37,12.082367624555317L37.5,9.483071259089884L38,17.94104208265033L38.5,33.28641700744629L39,33.612599577222554L39.49999999999999,46.24406269618443L40,49.87722505841937L40.5,59.80046735491071L41,54.68804720469883L41.5,57.11794035775321L42.00000000000001,61.96050902775356L42.5,73.18505736759731L43,66.73780018942696L43.5,76.37623408862522L44,75.22625153405326L44.5,80.54744155066354L45,87.35679960250854L45.5,91.6418809890747L46,93.35172006062099L46.5,94.14230254718235L47,98.25931303841728L47.5,103.17367008754185L48,104.69073915481567L48.49999999999999,104.91708837236678L49,103.66478868893215L49.5,105.56712647846767L50,108.44347245352608L50.5,108.74819326400757L51.00000000000001,110.77371311187744L51.5,111.33150182451521L52,108.53792830875942L52.5,109.9524210180555L53,109.65541076660156L53.5,112.60041628565108L54,112.90715064321245L54.5,115.93883514404297L54.99999999999999,110.92205245154244L55.5,115.88359522819519L56,117.32110507147652L56.5,117.92862960270473L57,115.08883493287223L57.50000000000001,111.38030924115861L58,112.73900740487235L58.5,111.93237079892839L59,119.8310216494969L59.5,121.08875308718001L60,118.39124505860465L60.5,121.27520513534546L61,123.78111873354231L61.49999999999999,125.84303314345223L62,125.90912451062883L62.5,127.73899269104004L63,130.19293989453996L63.5,129.69204895836967L64,131.00998183659146L64.5,131.61767516817366L65,133.4268592766353L65.5,135.18974385942732L66,134.49249289716994L66.5,133.77189925738742L67,131.9102363245828L67.5,131.8719186442239L68,131.8049350466047L68.5,134.4663770709719L69,136.27277898788452L69.5,136.3564979348864L70,136.7178120783397L70.5,136.1924059050424L71,137.56844830513L71.5,136.54276611123765L72,137.14950692653656L72.5,136.12043968268802L73,135.97030683926175L73.5,136.13152926308769L74,135.51417813982283L74.5,136.86371285574776L75,137.7709333726338L75.5,138.92535899366652L76,138.28025226933616L76.5,137.8740462745939L77,142.18811007908414L77.50000000000001,141.63872822693418L78,143.75785088539124L78.5,144.95384962218148L78.99999999999999,146.67822963850838L79.5,145.29013007027763L80,145.4676296710968L80.5,144.47465556008476L81,145.10309324945723L81.5,141.0103086233139L82,137.61059715066636L82.5,140.92564620290483L83,143.0745711667197L83.5,143.46703801836287L84.00000000000001,142.82953032425473L84.5,142.54146347727095L85,147.6353758743831L85.49999999999999,147.47892206055778L86,147.48951729706357L86.5,146.19357970782687L87,145.69141372612546L87.5,148.27033649172103L88,147.3004970720836L88.5,144.21034434863498L89,143.01521372795105L89.5,144.9167195728847L90,145.81532222884042L90.50000000000001,146.11704080445426L91,143.30082694121768L91.5,143.6309220620564L92,144.51198153836387L92.5,145.42964959144592L93,145.76824501582553L93.5,145.77255846772874L94,144.37444843564714L94.5,144.51455574376243L95,146.34407426629747L95.5,146.20039200782776L96,147.48669591971804L96.5,150.51467284134458L96.99999999999999,150.53652344431197L97.5,150.5273630108152L98,147.9123169694628L98.5,148.42518971647536L99,148.70282409872328L99.5,149.48253403391158L100,150.22675972325462L100.5,150.30927295344216L101,151.2051657608577L101.5,149.30648430756162L102.00000000000001,150.4963730743953L102.5,150.8595952647073L103,150.8675047670092L103.49999999999999,151.89549289430892L104,149.57021376064847L104.5,149.02859371049064L105,151.09709434849876L105.5,153.35342456613267L106,151.81016732965196L106.5,154.33661428519656L107,155.11891651153564L107.5,155.19852999278476L108,154.8456196955272L108.50000000000001,155.6960283432688L109,156.4378742490496L109.5,155.4450463312013L109.99999999999999,155.1368816920689L110.5,157.05515302930561L111,157.57217947074344L111.5,157.8592847585678L112,157.82830386502403L112.5,158.41608478341786L113,157.7989190391132L113.5,158.57166897399085L114,158.30186421530587L114.5,158.27913645335605L115.00000000000001,158.4868709104402L115.5,159.23063692024778L116,158.8692700266838L116.49999999999999,159.54111201422555L117,159.5177587866783L117.5,160.18450059209553L118,158.64743621860234L118.5,159.76622235774994L119,159.20489938770024L119.5,159.31161135435104L120,159.54392736298698L120.5,160.74899007592884L121,160.68838019881932L121.50000000000001,161.61354781048638L122,160.71628952877862L122.5,161.01596742868423L122.99999999999999,160.60540578195025L123.5,161.9449300340244L124,160.96636876038144L124.5,162.08896948610035L125,160.72518018313815L125.5,161.07179965291706L126,160.78281495400836L126.5,161.07613269771846L127,161.1267652681896L127.5,161.28231630155017L128,161.3858858687537L128.5,161.41919379574912L129,160.79484499352318L129.5,159.240258540426L130,159.376555783408L130.5,158.26143653052193L131,159.72334706783295L131.5,159.4864960568292L132,159.96395991529735L132.5,160.4542465720858L133,159.6809299503054L133.5,158.86275162015644L134,156.35223218372892L134.5,153.82495328358243L135,158.64995164530617L135.5,157.84347479684013L136,158.06728145905902L136.5,156.31919102157863L137,157.98151430061887L137.5,158.26705818516868L138,157.76085455928532L138.5,159.45472240447998L139,160.05421686172485L139.5,159.4266487956047L140,158.96518329211642L140.5,160.27851033210754L141,160.36707626070293L141.5,162.0657097016062L142,162.1140272957938L142.5,159.40690668991635L143,159.9205631528582L143.5,163.03429668290275L144,163.479165494442L144.5,163.12518964494976L145,162.49865095955985L145.5,161.90998986789157L146,160.81821630682262L146.5,156.7366342970303L147,157.88954523631503L147.5,158.77209377288818L148,160.84219952140538L148.5,157.99558803013394L149,154.9176838823727L149.5,158.74427185739788L150,156.25368894849507L150.5,158.86479832444874L151,157.07658163138797L151.5,158.4334923199245L152,160.6165631839207L152.5,159.15967144284932L153,158.71334220681874L153.5,159.38951271772385L154,159.13258652176174L154.5,161.3327318429947L155.00000000000003,160.34787672758102L155.5,162.02309213365825L156,159.30438760348727L156.49999999999997,159.899068236351L157,160.49039396217893L157.5,160.25363337993622L157.99999999999997,160.16640428985866L158.5,160.15015273434776L159,158.39704651491982L159.5,157.52965986728668L160,158.1927619150707L160.5,159.20869136708123L161,160.1469229204314L161.5,160.22973908696858L162,158.968517099108L162.5,159.30016458034515L163,160.67106459821971L163.5,160.0682303053992L164,161.0605322292873L164.5,161.72700576271328L165,160.5113674061639L165.5,159.63761909518925L166,160.46251326799393L166.50000000000003,161.04599882023675L167,159.55185042960304L167.5,160.84703293868472L168.00000000000003,159.81269068377358L168.5,160.32618136065346L169,157.2407007898603L169.49999999999997,157.97351135526387L170,156.71530516658513L170.5,158.59660470485687L170.99999999999997,155.73137845311848L171.5,153.62112987041473L172,153.7617496081761L172.5,154.7244617342949L173,154.67888111727578L173.5,156.62098194020135L174,155.91663684163777L174.5,156.1108491846493L175,156.20102323804585L175.5,157.73371839523315L176,157.40753130401882L176.5,155.8613667828696L177,156.14110514095853L177.5,156.35267377751214L178,156.00206941366196L178.5,154.33038072926658L179,156.77963166577476L179.50000000000003,156.4337898833411L180,157.17963876894544L180.5,157.62341942105976L181.00000000000003,156.8380757740566L181.5,156.40616389683316L182,156.5515326516969L182.49999999999997,157.53904938697815L183,157.46164538179127L183.5,157.27674267973217L184,156.91764404092518L184.5,157.8196618897574L185,158.42660767691476L185.5,159.19292511258809L186,158.55410770859035L186.5,157.51288231781552L187,158.00824202810017L187.5,157.3070182289396L188,155.64609508855003L188.5,155.90048174347194L189,155.11548172576087L189.5,152.77492163862502L190,154.1748839531626L190.5,154.10702168941498L191,154.37155897276742L191.5,154.23059259142195L192,154.95111840963364L192.50000000000003,154.64343304293496L193,153.35117439712798L193.5,152.4015397770064L193.99999999999997,153.3793519990785L194.5,149.45046196665083L195,151.11743780544828L195.49999999999997,148.34070815358842L196,151.46398794651031L196.5,148.8969053200313L197,152.80157853024346L197.5,154.14777190344674L198,152.51334740434373L198.5,155.1323542254312L199,155.13288474082947L199.5,155.35263567311424L200,156.7670741251537L200.5,155.30680486985614L201,158.7843679700579L201.5,159.02933948380607L202,158.47618373802732L202.5,158.88071227925164L203,157.83946880272458L203.5,157.16605034044812L204.00000000000003,157.95756725754055L204.5,158.15871699367253L205,158.99395320245196L205.50000000000003,157.3295033403805L206,157.4213262115206L206.5,158.62164442879813L206.99999999999997,160.05137890577316L207.5,158.35078768219265L208,159.7359272156443L208.49999999999997,157.1823591675077L209,158.62632562432972L209.5,159.918947492327L210,158.72018766403198L210.5,159.78788607461112L211,159.64117595979144L211.5,159.79675562892643L212,158.95801530565532L212.5,160.04343473911285L213,162.3158311332975L213.5,160.2994536331722L214,159.32392021587918L214.5,158.19951694352287L215,159.90849543469292L215.5,159.56868977206094L216,160.9243480222566L216.5,161.74800482818057L217.00000000000003,163.1927052651133L217.5,162.8217242871012L218,163.66227167844772L218.50000000000003,164.34340974262784L219,161.99988962071282L219.5,163.16442668437958L219.99999999999997,162.1485379253115L220.5,162.02821944441112L221,161.9996288844517L221.5,161.81893413407462L222,162.2247814280646L222.5,161.9646163753101L223,163.11445424386432L223.5,162.41576245001386L224,162.73841076237815L224.5,164.80909826925824L225,162.5337569117546L225.5,164.23913332394193L226,165.00228726012367L226.5,163.89498406648636L227,165.4638929281916L227.5,163.71347997869762L228,163.5183889695576L228.5,163.53604217086522L229,161.9946131025042L229.5,163.28262310368675L230.00000000000003,161.02099225350787L230.5,162.3895019377981L231,162.97701609134674L231.49999999999997,162.93827641010284L232,163.08621484892709L232.5,162.54427528381348L232.99999999999997,161.44510465008872L233.5,162.59816479682922L234,163.6211446779115L234.5,162.2768955230713L235,161.44206021513256L235.5,163.7795020171574L236,161.76054579019547L236.5,164.02258507694515L237,159.92756987469537L237.5,162.61869815417697L238,163.06176592622487L238.5,160.68835909877507L239,160.69627312251498L239.5,159.90005541699273L240,159.5876059617315L240.5,160.77768462896347L241,161.2189468400819L241.50000000000003,161.86923965385984L242,160.28862780332565L242.5,161.00081458262036L243.00000000000003,160.49527711527688L243.5,161.76961428778512L244,160.00921498877662L244.49999999999997,161.93215847866875L245,163.3271487184933L245.5,163.08559691905975L245.99999999999997,162.19585025310516L246.5,162.37060684817178L247,163.30899062326978L247.5,161.72173828738076L248,162.98913053103854L248.5,162.55837463481086L249,163.95401746886117L249.5,164.61568019219806L250,162.8488031796047L250.5,163.44216656684875L251,164.27519028527396L251.5,161.86075140748707L252,163.32797463451115L252.5,161.69099250861575L253,163.51995338712422L253.5,163.99980155059268L254,162.44760392393383L254.50000000000003,162.33433135066716L255,159.6856895174299L255.5,161.95818839754375L256,161.50589086328236L256.5,163.11210460322243L257,162.72393161058426L257.5,163.28288082565578L258,163.0372898748943L258.5,163.16823976380485L259,161.44127348491122L259.5,162.9340684584209L260,163.1463409321649L260.5,162.59878121955055L261,164.95726202641217L261.5,163.95670320306508L262,163.69248242037636L262.5,163.2371133225305L263,164.2188637171473L263.5,162.43753015995026L264,163.7598639045443L264.5,163.76091287817272L265,164.3216329898153L265.5,162.01137558051516L266,164.12546738556455L266.5,164.21450354371754L267,161.762863780771L267.5,158.48404350451062L268,155.4624252319336L268.5,154.96559303998947L269,156.04995596408844L269.5,152.77413490840365L270,155.61039079938618L270.5,156.80836239031385L271,156.9559662427221L271.5,158.2582504238401L272,158.98907457079204L272.5,161.82611719199588L273,162.23880240746905L273.5,163.18659378801075L274,160.47716423443387L274.5,162.22963745253426" style="fill: none;" fill="none"></path></g></g></g></g></g><g><g opacity="0.555189"><span fill="rgb(0, 0, 0)" stroke="none" stroke-width="1px">Alt + Scroll to Zoom</span></g></g></g><g transform="translate(30, 177)" clip-path="url(#clip_1)"><clipPath id="clip_1"><rect width="300" height="23"></rect></clipPath><g><g><line x1="0" y1="0" x2="0" y2="5" style="visibility: inherit;" fill="rgb(0, 0, 0)" stroke="rgb(204, 204, 204)" stroke-width="1px"></line><line x1="25" y1="0" x2="25" y2="5" style="visibility: inherit;" fill="rgb(0, 0, 0)" stroke="rgb(204, 204, 204)" stroke-width="1px"></line><line x1="50" y1="0" x2="50" y2="5" style="visibility: inherit;" fill="rgb(0, 0, 0)" stroke="rgb(204, 204, 204)" stroke-width="1px"></line><line x1="75" y1="0" x2="75" y2="5" style="visibility: inherit;" fill="rgb(0, 0, 0)" stroke="rgb(204, 204, 204)" stroke-width="1px"></line><line x1="100" y1="0" x2="100" y2="5" style="visibility: inherit;" fill="rgb(0, 0, 0)" stroke="rgb(204, 204, 204)" stroke-width="1px"></line><line x1="125" y1="0" x2="125" y2="5" style="visibility: inherit;" fill="rgb(0, 0, 0)" stroke="rgb(204, 204, 204)" stroke-width="1px"></line><line x1="150" y1="0" x2="150" y2="5" style="visibility: inherit;" fill="rgb(0, 0, 0)" stroke="rgb(204, 204, 204)" stroke-width="1px"></line><line x1="175" y1="0" x2="175" y2="5" style="visibility: inherit;" fill="rgb(0, 0, 0)" stroke="rgb(204, 204, 204)" stroke-width="1px"></line><line x1="200" y1="0" x2="200" y2="5" style="visibility: inherit;" fill="rgb(0, 0, 0)" stroke="rgb(204, 204, 204)" stroke-width="1px"></line><line x1="225" y1="0" x2="225" y2="5" style="visibility: inherit;" fill="rgb(0, 0, 0)" stroke="rgb(204, 204, 204)" stroke-width="1px"></line><line x1="250" y1="0" x2="250" y2="5" style="visibility: inherit;" fill="rgb(0, 0, 0)" stroke="rgb(204, 204, 204)" stroke-width="1px"></line><line x1="275" y1="0" x2="275" y2="5" style="visibility: inherit;" fill="rgb(0, 0, 0)" stroke="rgb(204, 204, 204)" stroke-width="1px"></line><line x1="300" y1="0" x2="300" y2="5" style="visibility: inherit;" fill="rgb(0, 0, 0)" stroke="rgb(204, 204, 204)" stroke-width="1px"></line></g><g transform="translate(0, 8)"><text x="0" y="0" dx="0em" dy="0.95em" style="text-anchor: middle; visibility: hidden; font-family: Roboto, sans-serif; font-size: 12px; font-weight: 200;" fill="rgb(33, 33, 33)" stroke="none" stroke-width="1px">-50</text><text x="25" y="0" dx="0em" dy="0.95em" style="text-anchor: middle; visibility: inherit; font-family: Roboto, sans-serif; font-size: 12px; font-weight: 200;" fill="rgb(33, 33, 33)" stroke="none" stroke-width="1px">0</text><text x="50" y="0" dx="0em" dy="0.95em" style="text-anchor: middle; visibility: inherit; font-family: Roboto, sans-serif; font-size: 12px; font-weight: 200;" fill="rgb(33, 33, 33)" stroke="none" stroke-width="1px">50</text><text x="75" y="0" dx="0em" dy="0.95em" style="text-anchor: middle; visibility: inherit; font-family: Roboto, sans-serif; font-size: 12px; font-weight: 200;" fill="rgb(33, 33, 33)" stroke="none" stroke-width="1px">100</text><text x="100" y="0" dx="0em" dy="0.95em" style="text-anchor: middle; visibility: inherit; font-family: Roboto, sans-serif; font-size: 12px; font-weight: 200;" fill="rgb(33, 33, 33)" stroke="none" stroke-width="1px">150</text><text x="125" y="0" dx="0em" dy="0.95em" style="text-anchor: middle; visibility: inherit; font-family: Roboto, sans-serif; font-size: 12px; font-weight: 200;" fill="rgb(33, 33, 33)" stroke="none" stroke-width="1px">200</text><text x="150" y="0" dx="0em" dy="0.95em" style="text-anchor: middle; visibility: inherit; font-family: Roboto, sans-serif; font-size: 12px; font-weight: 200;" fill="rgb(33, 33, 33)" stroke="none" stroke-width="1px">250</text><text x="175" y="0" dx="0em" dy="0.95em" style="text-anchor: middle; visibility: inherit; font-family: Roboto, sans-serif; font-size: 12px; font-weight: 200;" fill="rgb(33, 33, 33)" stroke="none" stroke-width="1px">300</text><text x="200" y="0" dx="0em" dy="0.95em" style="text-anchor: middle; visibility: inherit; font-family: Roboto, sans-serif; font-size: 12px; font-weight: 200;" fill="rgb(33, 33, 33)" stroke="none" stroke-width="1px">350</text><text x="225" y="0" dx="0em" dy="0.95em" style="text-anchor: middle; visibility: inherit; font-family: Roboto, sans-serif; font-size: 12px; font-weight: 200;" fill="rgb(33, 33, 33)" stroke="none" stroke-width="1px">400</text><text x="250" y="0" dx="0em" dy="0.95em" style="text-anchor: middle; visibility: inherit; font-family: Roboto, sans-serif; font-size: 12px; font-weight: 200;" fill="rgb(33, 33, 33)" stroke="none" stroke-width="1px">450</text><text x="275" y="0" dx="0em" dy="0.95em" style="text-anchor: middle; visibility: inherit; font-family: Roboto, sans-serif; font-size: 12px; font-weight: 200;" fill="rgb(33, 33, 33)" stroke="none" stroke-width="1px">500</text><text x="300" y="0" dx="0em" dy="0.95em" style="text-anchor: middle; visibility: hidden; font-family: Roboto, sans-serif; font-size: 12px; font-weight: 200;" fill="rgb(33, 33, 33)" stroke="none" stroke-width="1px">550</text></g><line x1="0" y1="0" x2="300" y2="0" fill="rgb(0, 0, 0)" stroke="rgb(204, 204, 204)" stroke-width="1px"></line></g></g></g></g></svg>