<svg viewBox="0 0 301 200" xmlns="http://www.w3.org/2000/svg"><g><g><g><g><g><line x1="72.34375" y1="177" x2="67.34375" y2="177" style="visibility: inherit;" fill="rgb(0, 0, 0)" stroke="rgb(204, 204, 204)" stroke-width="1px"></line><line x1="72.34375" y1="163.3846153846154" x2="67.34375" y2="163.3846153846154" style="visibility: inherit;" fill="rgb(0, 0, 0)" stroke="rgb(204, 204, 204)" stroke-width="1px"></line><line x1="72.34375" y1="149.76923076923077" x2="67.34375" y2="149.76923076923077" style="visibility: inherit;" fill="rgb(0, 0, 0)" stroke="rgb(204, 204, 204)" stroke-width="1px"></line><line x1="72.34375" y1="136.15384615384613" x2="67.34375" y2="136.15384615384613" style="visibility: inherit;" fill="rgb(0, 0, 0)" stroke="rgb(204, 204, 204)" stroke-width="1px"></line><line x1="72.34375" y1="122.53846153846153" x2="67.34375" y2="122.53846153846153" style="visibility: inherit;" fill="rgb(0, 0, 0)" stroke="rgb(204, 204, 204)" stroke-width="1px"></line><line x1="72.34375" y1="108.92307692307693" x2="67.34375" y2="108.92307692307693" style="visibility: inherit;" fill="rgb(0, 0, 0)" stroke="rgb(204, 204, 204)" stroke-width="1px"></line><line x1="72.34375" y1="95.3076923076923" x2="67.34375" y2="95.3076923076923" style="visibility: inherit;" fill="rgb(0, 0, 0)" stroke="rgb(204, 204, 204)" stroke-width="1px"></line><line x1="72.34375" y1="81.6923076923077" x2="67.34375" y2="81.6923076923077" style="visibility: inherit;" fill="rgb(0, 0, 0)" stroke="rgb(204, 204, 204)" stroke-width="1px"></line><line x1="72.34375" y1="68.07692307692307" x2="67.34375" y2="68.07692307692307" style="visibility: inherit;" fill="rgb(0, 0, 0)" stroke="rgb(204, 204, 204)" stroke-width="1px"></line><line x1="72.34375" y1="54.46153846153847" x2="67.34375" y2="54.46153846153847" style="visibility: inherit;" fill="rgb(0, 0, 0)" stroke="rgb(204, 204, 204)" stroke-width="1px"></line><line x1="72.34375" y1="40.84615384615384" x2="67.34375" y2="40.84615384615384" style="visibility: inherit;" fill="rgb(0, 0, 0)" stroke="rgb(204, 204, 204)" stroke-width="1px"></line><line x1="72.34375" y1="27.230769230769234" x2="67.34375" y2="27.230769230769234" style="visibility: inherit;" fill="rgb(0, 0, 0)" stroke="rgb(204, 204, 204)" stroke-width="1px"></line><line x1="72.34375" y1="13.615384615384606" x2="67.34375" y2="13.615384615384606" style="visibility: inherit;" fill="rgb(0, 0, 0)" stroke="rgb(204, 204, 204)" stroke-width="1px"></line><line x1="72.34375" y1="0" x2="67.34375" y2="0" style="visibility: inherit;" fill="rgb(0, 0, 0)" stroke="rgb(204, 204, 204)" stroke-width="1px"></line></g><g transform="translate(62.34375, 0)"><text x="0" y="177" dx="0em" dy="0.3em" style="text-anchor: end; visibility: hidden; font-family: Roboto, sans-serif; font-size: 12px; font-weight: 200;" fill="rgb(33, 33, 33)" stroke="none" stroke-width="1px">-200</text><text x="0" y="163.3846153846154" dx="0em" dy="0.3em" style="text-anchor: end; visibility: inherit; font-family: Roboto, sans-serif; font-size: 12px; font-weight: 200;" fill="rgb(33, 33, 33)" stroke="none" stroke-width="1px">0</text><text x="0" y="149.76923076923077" dx="0em" dy="0.3em" style="text-anchor: end; visibility: hidden; font-family: Roboto, sans-serif; font-size: 12px; font-weight: 200;" fill="rgb(33, 33, 33)" stroke="none" stroke-width="1px">200</text><text x="0" y="136.15384615384613" dx="0em" dy="0.3em" style="text-anchor: end; visibility: inherit; font-family: Roboto, sans-serif; font-size: 12px; font-weight: 200;" fill="rgb(33, 33, 33)" stroke="none" stroke-width="1px">400</text><text x="0" y="122.53846153846153" dx="0em" dy="0.3em" style="text-anchor: end; visibility: hidden; font-family: Roboto, sans-serif; font-size: 12px; font-weight: 200;" fill="rgb(33, 33, 33)" stroke="none" stroke-width="1px">600</text><text x="0" y="108.92307692307693" dx="0em" dy="0.3em" style="text-anchor: end; visibility: inherit; font-family: Roboto, sans-serif; font-size: 12px; font-weight: 200;" fill="rgb(33, 33, 33)" stroke="none" stroke-width="1px">800</text><text x="0" y="95.3076923076923" dx="0em" dy="0.3em" style="text-anchor: end; visibility: hidden; font-family: Roboto, sans-serif; font-size: 12px; font-weight: 200;" fill="rgb(33, 33, 33)" stroke="none" stroke-width="1px">1e+3</text><text x="0" y="81.6923076923077" dx="0em" dy="0.3em" style="text-anchor: end; visibility: inherit; font-family: Roboto, sans-serif; font-size: 12px; font-weight: 200;" fill="rgb(33, 33, 33)" stroke="none" stroke-width="1px">1.2e+3</text><text x="0" y="68.07692307692307" dx="0em" dy="0.3em" style="text-anchor: end; visibility: hidden; font-family: Roboto, sans-serif; font-size: 12px; font-weight: 200;" fill="rgb(33, 33, 33)" stroke="none" stroke-width="1px">1.4e+3</text><text x="0" y="54.46153846153847" dx="0em" dy="0.3em" style="text-anchor: end; visibility: inherit; font-family: Roboto, sans-serif; font-size: 12px; font-weight: 200;" fill="rgb(33, 33, 33)" stroke="none" stroke-width="1px">1.6e+3</text><text x="0" y="40.84615384615384" dx="0em" dy="0.3em" style="text-anchor: end; visibility: hidden; font-family: Roboto, sans-serif; font-size: 12px; font-weight: 200;" fill="rgb(33, 33, 33)" stroke="none" stroke-width="1px">1.8e+3</text><text x="0" y="27.230769230769234" dx="0em" dy="0.3em" style="text-anchor: end; visibility: inherit; font-family: Roboto, sans-serif; font-size: 12px; font-weight: 200;" fill="rgb(33, 33, 33)" stroke="none" stroke-width="1px">2e+3</text><text x="0" y="13.615384615384606" dx="0em" dy="0.3em" style="text-anchor: end; visibility: hidden; font-family: Roboto, sans-serif; font-size: 12px; font-weight: 200;" fill="rgb(33, 33, 33)" stroke="none" stroke-width="1px">2.2e+3</text><text x="0" y="0" dx="0em" dy="0.3em" style="text-anchor: end; visibility: hidden; font-family: Roboto, sans-serif; font-size: 12px; font-weight: 200;" fill="rgb(33, 33, 33)" stroke="none" stroke-width="1px">2.4e+3</text></g><line x1="72.34375" y1="0" x2="72.34375" y2="177" fill="rgb(0, 0, 0)" stroke="rgb(204, 204, 204)" stroke-width="1px"></line></g></g><g transform="translate(72, 0)" clip-path="url(#clip_0)"><clipPath id="clip_0"><rect width="257" height="177"></rect></clipPath><g><g><g><line x1="0" y1="0" x2="0" y2="177" fill="rgb(0, 0, 0)" stroke="rgb(66, 66, 66)" stroke-width="1px" opacity="0.25"></line><line x1="21.471354166666664" y1="0" x2="21.471354166666664" y2="177" fill="rgb(0, 0, 0)" stroke="rgb(66, 66, 66)" stroke-width="1px" opacity="0.25"></line><line x1="42.94270833333333" y1="0" x2="42.94270833333333" y2="177" fill="rgb(0, 0, 0)" stroke="rgb(66, 66, 66)" stroke-width="1px" opacity="0.25"></line><line x1="64.4140625" y1="0" x2="64.4140625" y2="177" fill="rgb(0, 0, 0)" stroke="rgb(66, 66, 66)" stroke-width="1px" opacity="0.25"></line><line x1="85.88541666666666" y1="0" x2="85.88541666666666" y2="177" fill="rgb(0, 0, 0)" stroke="rgb(66, 66, 66)" stroke-width="1px" opacity="0.25"></line><line x1="107.35677083333334" y1="0" x2="107.35677083333334" y2="177" fill="rgb(0, 0, 0)" stroke="rgb(66, 66, 66)" stroke-width="1px" opacity="0.25"></line><line x1="128.828125" y1="0" x2="128.828125" y2="177" fill="rgb(0, 0, 0)" stroke="rgb(66, 66, 66)" stroke-width="1px" opacity="0.25"></line><line x1="150.29947916666669" y1="0" x2="150.29947916666669" y2="177" fill="rgb(0, 0, 0)" stroke="rgb(66, 66, 66)" stroke-width="1px" opacity="0.25"></line><line x1="171.77083333333331" y1="0" x2="171.77083333333331" y2="177" fill="rgb(0, 0, 0)" stroke="rgb(66, 66, 66)" stroke-width="1px" opacity="0.25"></line><line x1="193.2421875" y1="0" x2="193.2421875" y2="177" fill="rgb(0, 0, 0)" stroke="rgb(66, 66, 66)" stroke-width="1px" opacity="0.25"></line><line x1="214.71354166666669" y1="0" x2="214.71354166666669" y2="177" fill="rgb(0, 0, 0)" stroke="rgb(66, 66, 66)" stroke-width="1px" opacity="0.25"></line><line x1="236.18489583333331" y1="0" x2="236.18489583333331" y2="177" fill="rgb(0, 0, 0)" stroke="rgb(66, 66, 66)" stroke-width="1px" opacity="0.25"></line><line x1="257.65625" y1="0" x2="257.65625" y2="177" fill="rgb(0, 0, 0)" stroke="rgb(66, 66, 66)" stroke-width="1px" opacity="0.25"></line></g><g><line x1="0" y1="177" x2="257.65625" y2="177" fill="rgb(0, 0, 0)" stroke="rgb(66, 66, 66)" stroke-width="1px" opacity="0.25"></line><line x1="0" y1="163.3846153846154" x2="257.65625" y2="163.3846153846154" fill="rgb(0, 0, 0)" stroke="rgb(66, 66, 66)" stroke-width="1px" opacity="0.25"></line><line x1="0" y1="149.76923076923077" x2="257.65625" y2="149.76923076923077" fill="rgb(0, 0, 0)" stroke="rgb(66, 66, 66)" stroke-width="1px" opacity="0.25"></line><line x1="0" y1="136.15384615384613" x2="257.65625" y2="136.15384615384613" fill="rgb(0, 0, 0)" stroke="rgb(66, 66, 66)" stroke-width="1px" opacity="0.25"></line><line x1="0" y1="122.53846153846153" x2="257.65625" y2="122.53846153846153" fill="rgb(0, 0, 0)" stroke="rgb(66, 66, 66)" stroke-width="1px" opacity="0.25"></line><line x1="0" y1="108.92307692307693" x2="257.65625" y2="108.92307692307693" fill="rgb(0, 0, 0)" stroke="rgb(66, 66, 66)" stroke-width="1px" opacity="0.25"></line><line x1="0" y1="95.3076923076923" x2="257.65625" y2="95.3076923076923" fill="rgb(0, 0, 0)" stroke="rgb(66, 66, 66)" stroke-width="1px" opacity="0.25"></line><line x1="0" y1="81.6923076923077" x2="257.65625" y2="81.6923076923077" fill="rgb(0, 0, 0)" stroke="rgb(66, 66, 66)" stroke-width="1px" opacity="0.25"></line><line x1="0" y1="68.07692307692307" x2="257.65625" y2="68.07692307692307" fill="rgb(0, 0, 0)" stroke="rgb(66, 66, 66)" stroke-width="1px" opacity="0.25"></line><line x1="0" y1="54.46153846153847" x2="257.65625" y2="54.46153846153847" fill="rgb(0, 0, 0)" stroke="rgb(66, 66, 66)" stroke-width="1px" opacity="0.25"></line><line x1="0" y1="40.84615384615384" x2="257.65625" y2="40.84615384615384" fill="rgb(0, 0, 0)" stroke="rgb(66, 66, 66)" stroke-width="1px" opacity="0.25"></line><line x1="0" y1="27.230769230769234" x2="257.65625" y2="27.230769230769234" fill="rgb(0, 0, 0)" stroke="rgb(66, 66, 66)" stroke-width="1px" opacity="0.25"></line><line x1="0" y1="13.615384615384606" x2="257.65625" y2="13.615384615384606" fill="rgb(0, 0, 0)" stroke="rgb(66, 66, 66)" stroke-width="1px" opacity="0.25"></line><line x1="0" y1="0" x2="257.65625" y2="0" fill="rgb(0, 0, 0)" stroke="rgb(66, 66, 66)" stroke-width="1px" opacity="0.25"></line></g></g></g><g><g><line x1="0" y1="163.3846153846154" x2="257.65625" y2="163.3846153846154" fill="rgb(0, 0, 0)" stroke="rgb(153, 153, 153)" stroke-width="1.5px"></line></g></g><g><g><line x1="21.471354166666664" y1="0" x2="21.471354166666664" y2="177" fill="rgb(0, 0, 0)" stroke="rgb(153, 153, 153)" stroke-width="1.5px"></line></g></g><g><g><g><g><g><path stroke="rgb(51, 187, 238)" stroke-width="2px" d="M31.777604166666666,-8.687851938100955L32.20703125,8.7817568734976L32.63645833333334,22.563644080528842L33.06588541666667,35.24876319298377L33.495312500000004,48.42347604604867L33.92473958333333,60.4652383188101L34.354166666666664,70.32244769756612L34.78359375,80.22491426908053L35.21302083333333,90.32797175480768L35.64244791666667,99.60580014742338L36.071875000000006,108.47665867732121L36.501302083333336,117.07864577073316L36.930729166666666,126.31048567551834L37.360156249999996,136.43018635676458L37.78958333333333,140.2067956308218L38.21901041666667,141.71395322359524L38.6484375,144.16276956411508L39.07786458333334,146.11439770625188L39.50729166666667,147.26430103595442L39.93671875,148.4011698620136L40.366145833333334,149.42407403799203L40.795572916666664,150.09487833463228L41.225,150.8068273280217L41.65442708333333,151.40348619901215L42.08385416666667,151.7227276611328L42.51328125,151.99225248483512L42.94270833333333,152.10841205890364L43.372135416666666,152.09846166757436L43.8015625,152.34045801016L44.23098958333333,152.51893348106972L44.66041666666667,152.849380170382L45.08984375,153.0204699765719L45.51927083333333,153.15023641733023L45.94869791666667,153.45960955106295L46.378125,153.87078228290264L46.807552083333334,154.3146576162485L47.236979166666664,154.64108322143554L47.66640625,154.72830522097073L48.09583333333334,154.66694655198316L48.52526041666666,155.01483940711387L48.9546875,154.87374931922326L49.384114583333336,154.67911939474254L49.813541666666666,154.70728412334734L50.24296875,154.73209829477162L50.67239583333333,154.79728172008808L51.10182291666667,153.92849434485802L51.53125,151.36438684316784L51.96067708333333,151.75789007333609L52.39010416666667,154.28580677912785L52.81953125,156.81304257026085L53.248958333333334,158.42446580446682L53.67838541666667,159.18324417114258L54.1078125,159.35488374710084L54.53723958333333,159.27419899573692L54.96666666666667,158.93758512056792L55.39609375,158.30305576031023L55.825520833333336,157.3659125518799L56.254947916666666,156.16798889747034L56.684375,154.70693717369667L57.11380208333333,153.48067583524264L57.54322916666666,153.0571053666335L57.97265625,153.86366462120642L58.40208333333333,155.31845774723934L58.83151041666667,156.81801620776835L59.260937500000004,157.6891480900691L59.690364583333334,158.3070093242939L60.119791666666664,158.4809765272874L60.549218749999994,158.48377913254959L60.97864583333333,158.3144656254695L61.40807291666667,157.8996551161546L61.8375,157.50951958289514L62.266927083333336,157.01284661513108L62.69635416666667,156.3311975449782L63.125781249999996,155.80018591073843L63.55520833333333,155.47296876173752L63.98463541666666,155.7334999025785L64.4140625,156.42528011028583L64.84348958333332,156.8222959459745L65.27291666666667,157.392302539532L65.70234375,157.72754731398362L66.13177083333333,157.9412973844088L66.56119791666667,158.09199714660645L66.99062500000001,158.06197509472187L67.42005208333333,158.1116247323843L67.84947916666665,157.9683693254911L68.27890625,157.87052381075344L68.70833333333333,157.68464189969578L69.13776041666667,157.61136592571552L69.5671875,157.34759225992056L69.99661458333334,157.0966396302443L70.42604166666666,156.91005395155688L70.85546875,157.07385677631083L71.28489583333334,157.09059242248534L71.71432291666666,157.40834636394794L72.14375000000001,157.72640726236196L72.57317708333333,157.9617461189857L73.00260416666667,157.84141016446628L73.43203125,157.84713691124549L73.86145833333333,157.87986236572266L74.29088541666667,157.76097497793344L74.72031249999999,157.56374656677247L75.14973958333334,157.1533996582031L75.57916666666667,156.79677696814903L76.00859375,156.5466532780574L76.43802083333334,156.5359809405987L76.86744791666666,156.95811063326323L77.296875,157.4047475404006L77.72630208333334,157.90454357440655L78.15572916666667,158.22801075862006L78.58515625,158.29390314542331L79.01458333333333,158.29595731588512L79.44401041666667,158.24141298734224L79.8734375,158.3169597156231L80.30286458333333,158.3441505960318L80.73229166666667,158.4315445122352L81.16171875,158.4057528569148L81.59114583333333,158.2547082226093L82.02057291666667,158.05288844181942L82.45,157.9082405618521L82.87942708333333,157.87063599806567L83.30885416666666,157.92091201488788L83.73828125,157.94510552039515L84.16770833333334,157.92603471609263L84.59713541666666,158.01693864088793L85.0265625,158.12789293142467L85.45598958333333,158.2445054098276L85.88541666666666,158.33008666992188L86.31484375000001,158.43045276348408L86.74427083333333,158.44883797865648L87.17369791666667,158.52045711223897L87.603125,158.5513844534067L88.03255208333333,158.69710019038274L88.46197916666667,158.80630207355208L88.89140624999999,158.9707395876371L89.32083333333334,158.8853453063965L89.75026041666666,158.9082086651142L90.1796875,158.90371545938345L90.60911458333334,158.8265892791748L91.03854166666666,158.7176600735004L91.46796875,158.72545137845552L91.89739583333333,158.6727529467069L92.32682291666667,158.70428641099198L92.75625,158.72600400484524L93.18567708333335,159.01352762075572L93.61510416666667,159.04934601710391L94.04453124999999,159.09102853775025L94.47395833333333,158.98873318598822L94.90338541666667,158.98060168339654L95.3328125,158.98064738933857L95.76223958333333,158.9064037997906L96.19166666666668,158.80354725177472L96.62109375,158.7662117297833L97.05052083333332,158.75047122661886L97.47994791666667,158.82749093275802L97.909375,158.83803186563344L98.33880208333333,158.86435069744405L98.76822916666667,158.89913655501147L99.19765625000001,158.94646921304556L99.62708333333333,158.93999403146597L100.05651041666665,158.9649037698599L100.4859375,158.90607554802529L100.91536458333333,158.85937705993652L101.34479166666667,158.84868394704966L101.77421875,159.08358366306012L102.20364583333334,159.2201135444641L102.63307291666666,159.4452693249629L103.0625,159.55239340562088L103.49192708333334,159.62506481464092L103.92135416666666,159.49349740395178L104.35078125000001,159.33365645335272L104.78020833333333,159.0620470751249L105.20963541666667,158.8545249586839L105.6390625,158.7032590660682L106.06848958333333,158.66460534315843L106.49791666666667,158.6654187011719L106.92734374999999,158.76368439894455L107.35677083333334,158.90077210059533L107.78619791666667,159.0875291765653L108.215625,159.2921377988962L108.64505208333334,159.44354834043062L109.07447916666666,159.471369235699L109.50390625,159.45915458239043L109.93333333333334,159.39969660538893L110.36276041666667,159.2886088327261L110.7921875,159.1140838094858L111.22161458333333,158.92224454439602L111.65104166666667,158.77240488492524L112.08046875,158.59066767179047L112.50989583333333,158.51777136876032L112.93932291666667,158.48494255652795L113.36875,158.47418659797083L113.79817708333333,158.48654434204101L114.22760416666667,158.42285103431115L114.65703125,158.4801216184176L115.08645833333333,158.56243178734414L115.51588541666666,158.57437661977914L115.9453125,158.6818188241812L116.37473958333334,158.73171620882476L116.80416666666666,158.80649061056283L117.23359375,158.96137662153978L117.66302083333333,159.13835314530593L118.09244791666666,159.18856268075797L118.52187500000001,159.21721770946795L118.95130208333333,159.12555703970102L119.38072916666667,159.05132227971004L119.81015625,159.01534806765042L120.23958333333333,159.26980499267577L120.66901041666667,159.43249633202186L121.09843749999999,159.61915965887218L121.52786458333334,159.79967190082257L121.95729166666666,159.95322360992432L122.38671875,159.95340851123518L122.81614583333334,160.00877788396983L123.24557291666666,160.01285895714392L123.675,159.99447322258584L124.10442708333333,159.9066425030048L124.53385416666667,159.7258651146522L124.96328125,159.61017636372492L125.39270833333335,159.49245317899263L125.82213541666667,159.23780304248515L126.25156249999999,159.21597715671246L126.68098958333333,159.21154601757343L127.11041666666667,159.19159329634445L127.53984375,159.10125524227436L127.96927083333333,159.00148722135103L128.39869791666666,158.9955568753756L128.828125,158.96392420842096L129.25755208333334,159.03934446628276L129.68697916666665,159.12130690648007L130.11640625,159.1053721530621L130.54583333333335,159.05623203277588L130.97526041666666,159.07181620084322L131.4046875,159.2251411980849L131.83411458333333,159.64392630650448L132.26354166666667,159.88599172738884L132.69296875,159.87083527344925L133.12239583333334,159.81462345710167L133.55182291666665,159.81689888587366L133.98125000000002,159.67680238283597L134.41067708333333,159.5641123052744L134.84010416666666,159.40269398029034L135.26953125,159.29142727925228L135.6989583333333,159.11685836791992L136.12838541666667,159.09835914758534L136.5578125,159.02833478780894L136.98723958333332,159.17645398213313L137.41666666666666,159.35326300400953L137.84609375,159.558308429718L138.27552083333333,159.59147614112268L138.70494791666667,159.53281074670645L139.134375,159.4399993779109L139.56380208333331,159.43724169951219L139.99322916666668,159.42071874178373L140.42265625000002,159.34612508627086L140.85208333333333,159.26077339465803L141.28151041666666,159.19908673359797L141.7109375,159.1323976091238L142.14036458333334,159.17409155625563L142.56979166666667,159.16700038323035L142.99921875,159.0824786699735L143.42864583333332,159.11042343873245L143.85807291666666,159.05358498353223L144.28750000000002,159.12375918608444L144.71692708333333,159.1764861840468L145.14635416666667,158.93732698587272L145.57578124999998,158.86896388127255L146.00520833333334,159.13775221604567L146.43463541666668,159.0562761805608L146.8640625,158.81412558042086L147.29348958333333,158.8073611010038L147.72291666666666,158.69486423492432L148.15234375,158.63420985295224L148.58177083333334,158.60696703397312L149.01119791666667,158.73875700143668L149.44062499999998,158.73965242239146L149.87005208333332,158.66606793330266L150.29947916666669,158.58035682678224L150.72890625,158.8596647996169L151.15833333333333,158.89525622441218L151.58776041666667,158.8141416813777L152.0171875,159.12384358626144L152.44661458333334,159.1528855573214L152.87604166666668,158.9743077674279L153.30546875,159.1256268970783L153.73489583333333,159.22059163900522L154.1643229166667,158.93031683701736L154.59375,158.97985896183894L155.02317708333334,158.98909571721003L155.45260416666667,158.83175508939303L155.88203124999998,158.47918672414926L156.31145833333335,158.54186359405517L156.74088541666666,158.73695784935583L157.1703125,158.77598552997296L157.59973958333333,158.8255006467379L158.02916666666667,158.92545954190768L158.45859375,159.03018795600303L158.88802083333334,159.24724911029523L159.31744791666665,159.39508290217472L159.746875,159.24295820529645L160.17630208333335,159.24736597207877L160.60572916666666,159.0274549484253L161.03515625,158.99785256019004L161.46458333333334,158.79579905583307L161.89401041666665,157.72219660245455L162.3234375,158.9044181882418L162.75286458333335,159.165276022691L163.18229166666666,155.3323263843243L163.61171875,157.1135612165011L164.04114583333333,159.64689355703499L164.47057291666667,159.52908908843995L164.9,159.1407630949754L165.32942708333334,159.04197255794818L165.75885416666665,158.71708822983962L166.18828125000002,158.50518769190862L166.61770833333333,158.26615184783935L167.04713541666666,158.011380175077L167.4765625,157.66124045738806L167.9059895833333,157.49894696749175L168.33541666666667,157.77326624063346L168.76484375,158.35288614419792L169.19427083333332,158.81559959705058L169.62369791666666,159.28410394081703L170.053125,159.43656623840332L170.48255208333333,159.82698275932898L170.91197916666667,160.0119718463604L171.34140625,160.0269628759531L171.77083333333331,159.9591357774001L172.20026041666668,159.93201033959022L172.62968750000002,159.75494032639725L173.05911458333333,159.62057472522443L173.48854166666666,159.29298751390897L173.91796875,158.88157924065223L174.34739583333334,158.690518015348L174.77682291666667,158.54384764744685L175.20625,158.3912027857854L175.63567708333332,158.53519312345065L176.06510416666666,158.82315094581017L176.49453125000002,158.86439640338605L176.92395833333333,158.89531855069674L177.35338541666667,159.19544687857996L177.78281249999998,159.45762343333317L178.21223958333334,159.6633843128498L178.64166666666668,159.80218079346878L179.07109375,159.66427531902607L179.50052083333333,159.7555378796504L179.92994791666666,159.55075162740854L180.359375,159.5488153575017L180.78880208333334,159.53484544020432L181.21822916666667,159.11147467539863L181.64765624999998,159.3034832602281L182.07708333333332,159.25444078445435L182.50651041666669,159.0652171457731L182.9359375,159.3262855911255L183.36536458333333,159.26820943979118L183.79479166666667,159.1708988923293L184.22421875,159.21847877795878L184.65364583333334,159.24380766061637L185.08307291666668,159.31010335041927L185.5125,159.56790537907528L185.94192708333333,159.61378739283634L186.3713541666667,159.52164681067833L186.80078125,159.55903141461886L187.23020833333334,159.88991880270152L187.65963541666667,159.72480193211481L188.08906249999998,159.78386179997372L188.51848958333335,159.9614937884991L188.94791666666666,159.75124983127301L189.37734375,159.31818187566904L189.80677083333333,159.335576102917L190.23619791666667,159.52221190232498L190.665625,159.49008296232958L191.09505208333334,159.34541638447686L191.52447916666665,159.151078614455L191.95390625,159.40127242161677L192.38333333333335,159.73196893545295L192.81276041666666,159.6229976595365L193.2421875,159.67304696449867L193.67161458333334,159.93640174572286L194.10104166666665,159.82287182147687L194.53046875,159.94335995600775L194.95989583333335,159.90682636554425L195.38932291666666,159.78975500987127L195.81875,159.93585483257587L196.24817708333333,159.74230003650374L196.67760416666667,159.62863403320313L197.10703125,159.5170751777062L197.53645833333334,159.5453746869014L197.96588541666665,159.73870900374192L198.39531250000002,159.6778762127803L198.82473958333333,159.67879266885612L199.25416666666666,159.614566990779L199.68359375,159.4243360035236L200.1130208333333,159.7557508277893L200.54244791666667,159.9882704588083L200.971875,159.9692705506545L201.40130208333332,159.74084004328802L201.83072916666666,159.85052028069128L202.26015625,159.85714504535383L202.68958333333333,160.03125819573035L203.11901041666667,159.9127348973201L203.5484375,159.903566700862L203.97786458333331,159.80118772800154L204.40729166666668,159.7817728306697L204.83671875000002,159.83292115578286L205.26614583333333,159.48246149649987L205.69557291666666,159.4735838963435L206.125,159.42073146673349L206.55442708333334,159.36565996170043L206.98385416666667,159.6109292133038L207.41328125,159.58272033691406L207.84270833333332,159.37823454930233L208.27213541666666,159.57986293646005L208.70156250000002,159.64393357790433L209.13098958333333,159.5086320436918L209.56041666666667,159.3920065806462L209.98984374999998,159.44104983549852L210.41927083333334,159.87925321725697L210.84869791666668,159.80425833628726L211.278125,159.56777579234196L211.70755208333333,159.5931859588623L212.13697916666666,159.63599996126615L212.56640625,159.8838147222079L212.99583333333334,159.86634959881124L213.42526041666667,159.75582484025222L213.85468749999998,159.88052285561196L214.28411458333332,159.82801218179557L214.71354166666669,159.76595078394965L215.14296875,159.9443525020893L215.57239583333333,160.1030975488516L216.00182291666667,160.07005371093751L216.43125,159.88575203088612L216.86067708333334,159.89681105100192L217.29010416666668,160.00688861846925L217.71953125,160.00326746133658L218.14895833333333,159.8615307382437L218.5783854166667,159.742992377648L219.0078125,159.71233875274658L219.43723958333334,159.55835075965294L219.86666666666667,159.7527560498164L220.29609374999998,160.00446906016424L220.72552083333335,159.86586085686318L221.15494791666666,159.6059477850107L221.584375,159.19905037659865L222.01380208333333,159.04390545184796L222.44322916666667,159.18584577413705L222.87265625,159.2522720894447L223.30208333333334,159.64980886899508L223.73151041666665,159.9702633564289L224.1609375,160.25996527598454L224.59036458333335,160.37150725144608L225.01979166666666,160.67199525392974L225.44921875,160.77053414858304L225.87864583333334,160.67000081282396L226.30807291666665,160.80677636366624L226.7375,160.7124107331496L227.16692708333335,160.78625855079065L227.59635416666666,160.7027579498291L228.02578125,160.26929162538968L228.45520833333333,160.27572136072013L228.88463541666667,159.96660168721124L229.3140625,159.5263412783696L229.74348958333334,159.25954011330236L230.17291666666665,156.55353098355806L230.60234375000002,156.956333295382L231.03177083333333,158.85552010169397L231.46119791666666,159.03239690340482L231.890625,159.5822674325796L232.3200520833333,160.0364598435622L232.74947916666667,160.42873342807476L233.17890625,160.78159966102012L233.60833333333332,160.7071581855187L234.03776041666666,160.62448808229885L234.4671875,160.81182141670814L234.89661458333333,160.61888391054595L235.32604166666667,160.34652713628915L235.75546875,160.1189803636991" style="fill: none;" fill="none"></path></g></g></g></g></g></g><g transform="translate(72, 177)" clip-path="url(#clip_1)"><clipPath id="clip_1"><rect width="257" height="23"></rect></clipPath><g><g><line x1="0" y1="0" x2="0" y2="5" style="visibility: inherit;" fill="rgb(0, 0, 0)" stroke="rgb(204, 204, 204)" stroke-width="1px"></line><line x1="21.471354166666664" y1="0" x2="21.471354166666664" y2="5" style="visibility: inherit;" fill="rgb(0, 0, 0)" stroke="rgb(204, 204, 204)" stroke-width="1px"></line><line x1="42.94270833333333" y1="0" x2="42.94270833333333" y2="5" style="visibility: inherit;" fill="rgb(0, 0, 0)" stroke="rgb(204, 204, 204)" stroke-width="1px"></line><line x1="64.4140625" y1="0" x2="64.4140625" y2="5" style="visibility: inherit;" fill="rgb(0, 0, 0)" stroke="rgb(204, 204, 204)" stroke-width="1px"></line><line x1="85.88541666666666" y1="0" x2="85.88541666666666" y2="5" style="visibility: inherit;" fill="rgb(0, 0, 0)" stroke="rgb(204, 204, 204)" stroke-width="1px"></line><line x1="107.35677083333334" y1="0" x2="107.35677083333334" y2="5" style="visibility: inherit;" fill="rgb(0, 0, 0)" stroke="rgb(204, 204, 204)" stroke-width="1px"></line><line x1="128.828125" y1="0" x2="128.828125" y2="5" style="visibility: inherit;" fill="rgb(0, 0, 0)" stroke="rgb(204, 204, 204)" stroke-width="1px"></line><line x1="150.29947916666669" y1="0" x2="150.29947916666669" y2="5" style="visibility: inherit;" fill="rgb(0, 0, 0)" stroke="rgb(204, 204, 204)" stroke-width="1px"></line><line x1="171.77083333333331" y1="0" x2="171.77083333333331" y2="5" style="visibility: inherit;" fill="rgb(0, 0, 0)" stroke="rgb(204, 204, 204)" stroke-width="1px"></line><line x1="193.2421875" y1="0" x2="193.2421875" y2="5" style="visibility: inherit;" fill="rgb(0, 0, 0)" stroke="rgb(204, 204, 204)" stroke-width="1px"></line><line x1="214.71354166666669" y1="0" x2="214.71354166666669" y2="5" style="visibility: inherit;" fill="rgb(0, 0, 0)" stroke="rgb(204, 204, 204)" stroke-width="1px"></line><line x1="236.18489583333331" y1="0" x2="236.18489583333331" y2="5" style="visibility: inherit;" fill="rgb(0, 0, 0)" stroke="rgb(204, 204, 204)" stroke-width="1px"></line><line x1="257.65625" y1="0" x2="257.65625" y2="5" style="visibility: inherit;" fill="rgb(0, 0, 0)" stroke="rgb(204, 204, 204)" stroke-width="1px"></line></g><g transform="translate(0, 8)"><text x="0" y="0" dx="0em" dy="0.95em" style="text-anchor: middle; visibility: hidden; font-family: Roboto, sans-serif; font-size: 12px; font-weight: 200;" fill="rgb(33, 33, 33)" stroke="none" stroke-width="1px">-50</text><text x="21.471354166666664" y="0" dx="0em" dy="0.95em" style="text-anchor: middle; visibility: inherit; font-family: Roboto, sans-serif; font-size: 12px; font-weight: 200;" fill="rgb(33, 33, 33)" stroke="none" stroke-width="1px">0</text><text x="42.94270833333333" y="0" dx="0em" dy="0.95em" style="text-anchor: middle; visibility: hidden; font-family: Roboto, sans-serif; font-size: 12px; font-weight: 200;" fill="rgb(33, 33, 33)" stroke="none" stroke-width="1px">50</text><text x="64.4140625" y="0" dx="0em" dy="0.95em" style="text-anchor: middle; visibility: inherit; font-family: Roboto, sans-serif; font-size: 12px; font-weight: 200;" fill="rgb(33, 33, 33)" stroke="none" stroke-width="1px">100</text><text x="85.88541666666666" y="0" dx="0em" dy="0.95em" style="text-anchor: middle; visibility: hidden; font-family: Roboto, sans-serif; font-size: 12px; font-weight: 200;" fill="rgb(33, 33, 33)" stroke="none" stroke-width="1px">150</text><text x="107.35677083333334" y="0" dx="0em" dy="0.95em" style="text-anchor: middle; visibility: inherit; font-family: Roboto, sans-serif; font-size: 12px; font-weight: 200;" fill="rgb(33, 33, 33)" stroke="none" stroke-width="1px">200</text><text x="128.828125" y="0" dx="0em" dy="0.95em" style="text-anchor: middle; visibility: hidden; font-family: Roboto, sans-serif; font-size: 12px; font-weight: 200;" fill="rgb(33, 33, 33)" stroke="none" stroke-width="1px">250</text><text x="150.29947916666669" y="0" dx="0em" dy="0.95em" style="text-anchor: middle; visibility: inherit; font-family: Roboto, sans-serif; font-size: 12px; font-weight: 200;" fill="rgb(33, 33, 33)" stroke="none" stroke-width="1px">300</text><text x="171.77083333333331" y="0" dx="0em" dy="0.95em" style="text-anchor: middle; visibility: hidden; font-family: Roboto, sans-serif; font-size: 12px; font-weight: 200;" fill="rgb(33, 33, 33)" stroke="none" stroke-width="1px">350</text><text x="193.2421875" y="0" dx="0em" dy="0.95em" style="text-anchor: middle; visibility: inherit; font-family: Roboto, sans-serif; font-size: 12px; font-weight: 200;" fill="rgb(33, 33, 33)" stroke="none" stroke-width="1px">400</text><text x="214.71354166666669" y="0" dx="0em" dy="0.95em" style="text-anchor: middle; visibility: hidden; font-family: Roboto, sans-serif; font-size: 12px; font-weight: 200;" fill="rgb(33, 33, 33)" stroke="none" stroke-width="1px">450</text><text x="236.18489583333331" y="0" dx="0em" dy="0.95em" style="text-anchor: middle; visibility: inherit; font-family: Roboto, sans-serif; font-size: 12px; font-weight: 200;" fill="rgb(33, 33, 33)" stroke="none" stroke-width="1px">500</text><text x="257.65625" y="0" dx="0em" dy="0.95em" style="text-anchor: middle; visibility: hidden; font-family: Roboto, sans-serif; font-size: 12px; font-weight: 200;" fill="rgb(33, 33, 33)" stroke="none" stroke-width="1px">550</text></g><line x1="0" y1="0" x2="257.65625" y2="0" fill="rgb(0, 0, 0)" stroke="rgb(204, 204, 204)" stroke-width="1px"></line></g></g></g></g></svg>