<svg viewBox="0 0 301 200" xmlns="http://www.w3.org/2000/svg"><g><g><g><g><g><line x1="30.78125" y1="177" x2="25.78125" y2="177" style="visibility: inherit;" fill="rgb(0, 0, 0)" stroke="rgb(204, 204, 204)" stroke-width="1px"></line><line x1="30.78125" y1="160.9090909090909" x2="25.78125" y2="160.9090909090909" style="visibility: inherit;" fill="rgb(0, 0, 0)" stroke="rgb(204, 204, 204)" stroke-width="1px"></line><line x1="30.78125" y1="144.8181818181818" x2="25.78125" y2="144.8181818181818" style="visibility: inherit;" fill="rgb(0, 0, 0)" stroke="rgb(204, 204, 204)" stroke-width="1px"></line><line x1="30.78125" y1="128.72727272727272" x2="25.78125" y2="128.72727272727272" style="visibility: inherit;" fill="rgb(0, 0, 0)" stroke="rgb(204, 204, 204)" stroke-width="1px"></line><line x1="30.78125" y1="112.63636363636364" x2="25.78125" y2="112.63636363636364" style="visibility: inherit;" fill="rgb(0, 0, 0)" stroke="rgb(204, 204, 204)" stroke-width="1px"></line><line x1="30.78125" y1="96.54545454545453" x2="25.78125" y2="96.54545454545453" style="visibility: inherit;" fill="rgb(0, 0, 0)" stroke="rgb(204, 204, 204)" stroke-width="1px"></line><line x1="30.78125" y1="80.45454545454547" x2="25.78125" y2="80.45454545454547" style="visibility: inherit;" fill="rgb(0, 0, 0)" stroke="rgb(204, 204, 204)" stroke-width="1px"></line><line x1="30.78125" y1="64.36363636363636" x2="25.78125" y2="64.36363636363636" style="visibility: inherit;" fill="rgb(0, 0, 0)" stroke="rgb(204, 204, 204)" stroke-width="1px"></line><line x1="30.78125" y1="48.272727272727266" x2="25.78125" y2="48.272727272727266" style="visibility: inherit;" fill="rgb(0, 0, 0)" stroke="rgb(204, 204, 204)" stroke-width="1px"></line><line x1="30.78125" y1="32.18181818181817" x2="25.78125" y2="32.18181818181817" style="visibility: inherit;" fill="rgb(0, 0, 0)" stroke="rgb(204, 204, 204)" stroke-width="1px"></line><line x1="30.78125" y1="16.090909090909097" x2="25.78125" y2="16.090909090909097" style="visibility: inherit;" fill="rgb(0, 0, 0)" stroke="rgb(204, 204, 204)" stroke-width="1px"></line><line x1="30.78125" y1="0" x2="25.78125" y2="0" style="visibility: inherit;" fill="rgb(0, 0, 0)" stroke="rgb(204, 204, 204)" stroke-width="1px"></line></g><g transform="translate(20.78125, 0)"><text x="0" y="177" dx="0em" dy="0.3em" style="text-anchor: end; visibility: hidden; font-family: Roboto, sans-serif; font-size: 12px; font-weight: 200;" fill="rgb(33, 33, 33)" stroke="none" stroke-width="1px">-2</text><text x="0" y="160.9090909090909" dx="0em" dy="0.3em" style="text-anchor: end; visibility: inherit; font-family: Roboto, sans-serif; font-size: 12px; font-weight: 200;" fill="rgb(33, 33, 33)" stroke="none" stroke-width="1px">0</text><text x="0" y="144.8181818181818" dx="0em" dy="0.3em" style="text-anchor: end; visibility: hidden; font-family: Roboto, sans-serif; font-size: 12px; font-weight: 200;" fill="rgb(33, 33, 33)" stroke="none" stroke-width="1px">2</text><text x="0" y="128.72727272727272" dx="0em" dy="0.3em" style="text-anchor: end; visibility: inherit; font-family: Roboto, sans-serif; font-size: 12px; font-weight: 200;" fill="rgb(33, 33, 33)" stroke="none" stroke-width="1px">4</text><text x="0" y="112.63636363636364" dx="0em" dy="0.3em" style="text-anchor: end; visibility: hidden; font-family: Roboto, sans-serif; font-size: 12px; font-weight: 200;" fill="rgb(33, 33, 33)" stroke="none" stroke-width="1px">6</text><text x="0" y="96.54545454545453" dx="0em" dy="0.3em" style="text-anchor: end; visibility: inherit; font-family: Roboto, sans-serif; font-size: 12px; font-weight: 200;" fill="rgb(33, 33, 33)" stroke="none" stroke-width="1px">8</text><text x="0" y="80.45454545454547" dx="0em" dy="0.3em" style="text-anchor: end; visibility: hidden; font-family: Roboto, sans-serif; font-size: 12px; font-weight: 200;" fill="rgb(33, 33, 33)" stroke="none" stroke-width="1px">10</text><text x="0" y="64.36363636363636" dx="0em" dy="0.3em" style="text-anchor: end; visibility: inherit; font-family: Roboto, sans-serif; font-size: 12px; font-weight: 200;" fill="rgb(33, 33, 33)" stroke="none" stroke-width="1px">12</text><text x="0" y="48.272727272727266" dx="0em" dy="0.3em" style="text-anchor: end; visibility: hidden; font-family: Roboto, sans-serif; font-size: 12px; font-weight: 200;" fill="rgb(33, 33, 33)" stroke="none" stroke-width="1px">14</text><text x="0" y="32.18181818181817" dx="0em" dy="0.3em" style="text-anchor: end; visibility: inherit; font-family: Roboto, sans-serif; font-size: 12px; font-weight: 200;" fill="rgb(33, 33, 33)" stroke="none" stroke-width="1px">16</text><text x="0" y="16.090909090909097" dx="0em" dy="0.3em" style="text-anchor: end; visibility: hidden; font-family: Roboto, sans-serif; font-size: 12px; font-weight: 200;" fill="rgb(33, 33, 33)" stroke="none" stroke-width="1px">18</text><text x="0" y="0" dx="0em" dy="0.3em" style="text-anchor: end; visibility: hidden; font-family: Roboto, sans-serif; font-size: 12px; font-weight: 200;" fill="rgb(33, 33, 33)" stroke="none" stroke-width="1px">20</text></g><line x1="30.78125" y1="0" x2="30.78125" y2="177" fill="rgb(0, 0, 0)" stroke="rgb(204, 204, 204)" stroke-width="1px"></line></g></g><g transform="translate(30, 0)" clip-path="url(#clip_0)"><clipPath id="clip_0"><rect width="299" height="177"></rect></clipPath><g><g><g><line x1="0" y1="0" x2="0" y2="177" fill="rgb(0, 0, 0)" stroke="rgb(66, 66, 66)" stroke-width="1px" opacity="0.25"></line><line x1="24.934895833333332" y1="0" x2="24.934895833333332" y2="177" fill="rgb(0, 0, 0)" stroke="rgb(66, 66, 66)" stroke-width="1px" opacity="0.25"></line><line x1="49.869791666666664" y1="0" x2="49.869791666666664" y2="177" fill="rgb(0, 0, 0)" stroke="rgb(66, 66, 66)" stroke-width="1px" opacity="0.25"></line><line x1="74.8046875" y1="0" x2="74.8046875" y2="177" fill="rgb(0, 0, 0)" stroke="rgb(66, 66, 66)" stroke-width="1px" opacity="0.25"></line><line x1="99.73958333333333" y1="0" x2="99.73958333333333" y2="177" fill="rgb(0, 0, 0)" stroke="rgb(66, 66, 66)" stroke-width="1px" opacity="0.25"></line><line x1="124.67447916666667" y1="0" x2="124.67447916666667" y2="177" fill="rgb(0, 0, 0)" stroke="rgb(66, 66, 66)" stroke-width="1px" opacity="0.25"></line><line x1="149.609375" y1="0" x2="149.609375" y2="177" fill="rgb(0, 0, 0)" stroke="rgb(66, 66, 66)" stroke-width="1px" opacity="0.25"></line><line x1="174.54427083333334" y1="0" x2="174.54427083333334" y2="177" fill="rgb(0, 0, 0)" stroke="rgb(66, 66, 66)" stroke-width="1px" opacity="0.25"></line><line x1="199.47916666666666" y1="0" x2="199.47916666666666" y2="177" fill="rgb(0, 0, 0)" stroke="rgb(66, 66, 66)" stroke-width="1px" opacity="0.25"></line><line x1="224.4140625" y1="0" x2="224.4140625" y2="177" fill="rgb(0, 0, 0)" stroke="rgb(66, 66, 66)" stroke-width="1px" opacity="0.25"></line><line x1="249.34895833333334" y1="0" x2="249.34895833333334" y2="177" fill="rgb(0, 0, 0)" stroke="rgb(66, 66, 66)" stroke-width="1px" opacity="0.25"></line><line x1="274.28385416666663" y1="0" x2="274.28385416666663" y2="177" fill="rgb(0, 0, 0)" stroke="rgb(66, 66, 66)" stroke-width="1px" opacity="0.25"></line><line x1="299.21875" y1="0" x2="299.21875" y2="177" fill="rgb(0, 0, 0)" stroke="rgb(66, 66, 66)" stroke-width="1px" opacity="0.25"></line></g><g><line x1="0" y1="177" x2="299.21875" y2="177" fill="rgb(0, 0, 0)" stroke="rgb(66, 66, 66)" stroke-width="1px" opacity="0.25"></line><line x1="0" y1="160.9090909090909" x2="299.21875" y2="160.9090909090909" fill="rgb(0, 0, 0)" stroke="rgb(66, 66, 66)" stroke-width="1px" opacity="0.25"></line><line x1="0" y1="144.8181818181818" x2="299.21875" y2="144.8181818181818" fill="rgb(0, 0, 0)" stroke="rgb(66, 66, 66)" stroke-width="1px" opacity="0.25"></line><line x1="0" y1="128.72727272727272" x2="299.21875" y2="128.72727272727272" fill="rgb(0, 0, 0)" stroke="rgb(66, 66, 66)" stroke-width="1px" opacity="0.25"></line><line x1="0" y1="112.63636363636364" x2="299.21875" y2="112.63636363636364" fill="rgb(0, 0, 0)" stroke="rgb(66, 66, 66)" stroke-width="1px" opacity="0.25"></line><line x1="0" y1="96.54545454545453" x2="299.21875" y2="96.54545454545453" fill="rgb(0, 0, 0)" stroke="rgb(66, 66, 66)" stroke-width="1px" opacity="0.25"></line><line x1="0" y1="80.45454545454547" x2="299.21875" y2="80.45454545454547" fill="rgb(0, 0, 0)" stroke="rgb(66, 66, 66)" stroke-width="1px" opacity="0.25"></line><line x1="0" y1="64.36363636363636" x2="299.21875" y2="64.36363636363636" fill="rgb(0, 0, 0)" stroke="rgb(66, 66, 66)" stroke-width="1px" opacity="0.25"></line><line x1="0" y1="48.272727272727266" x2="299.21875" y2="48.272727272727266" fill="rgb(0, 0, 0)" stroke="rgb(66, 66, 66)" stroke-width="1px" opacity="0.25"></line><line x1="0" y1="32.18181818181817" x2="299.21875" y2="32.18181818181817" fill="rgb(0, 0, 0)" stroke="rgb(66, 66, 66)" stroke-width="1px" opacity="0.25"></line><line x1="0" y1="16.090909090909097" x2="299.21875" y2="16.090909090909097" fill="rgb(0, 0, 0)" stroke="rgb(66, 66, 66)" stroke-width="1px" opacity="0.25"></line><line x1="0" y1="0" x2="299.21875" y2="0" fill="rgb(0, 0, 0)" stroke="rgb(66, 66, 66)" stroke-width="1px" opacity="0.25"></line></g></g></g><g><g><line x1="0" y1="160.9090909090909" x2="299.21875" y2="160.9090909090909" fill="rgb(0, 0, 0)" stroke="rgb(153, 153, 153)" stroke-width="1.5px"></line></g></g><g><g><line x1="24.934895833333332" y1="0" x2="24.934895833333332" y2="177" fill="rgb(0, 0, 0)" stroke="rgb(153, 153, 153)" stroke-width="1.5px"></line></g></g><g><g><g><g><g><path stroke="rgb(255, 112, 67)" stroke-width="2px" d="M36.155598958333336,-1.9992344261337494L37.40234375,17.83986479753511L38.64908854166667,21.60785850730415L39.895833333333336,13.004216468088957L41.142578125,31.450256026852834L42.389322916666664,50.43906409898878L43.636067708333336,68.83351467884734L44.8828125,81.04322494914422L46.12955729166667,87.6100139673374L47.37630208333333,96.44922209035957L48.623046875,86.5631327212046L49.869791666666664,97.69458258209677L51.116536458333336,94.21704217560523L52.36328125,103.84517254009933L53.610026041666664,83.06278251221651L54.85677083333333,90.64764267146725L56.103515625,107.75967056496107L57.35026041666667,80.5635260035074L58.597005208333336,97.23975873271694L59.84375,114.69491275457374L61.090494791666664,116.41750769300276L62.337239583333336,92.74160341652207L63.583984375,105.00439168305196L64.83072916666667,101.0400973844765L66.07747395833333,111.98104777239415L67.32421875,124.36258168553093L68.57096354166666,117.95388326909955L69.81770833333333,112.50215291883191L71.064453125,123.04103543063813L72.31119791666667,127.86771345060215L73.55794270833333,136.12448037077175L74.8046875,137.6469213890783L76.05143229166666,138.4737653303076L77.29817708333334,141.45973484627947L78.544921875,141.9969499990126L79.79166666666667,141.88273452049165L81.03841145833333,142.16879032612675L82.28515625,143.0964238168073L83.53190104166667,142.99639201778487L84.77864583333333,144.36532970061924L86.025390625,144.06791463857178L87.27213541666667,146.1872657911545L88.51888020833333,144.52910464753526L89.765625,130.35162845698397L91.01236979166666,121.85880329495397L92.25911458333334,133.92764546933878L93.505859375,140.34518471365553L94.75260416666666,146.53217351385777L95.99934895833334,150.28024051375715L97.24609375,151.98460385456033L98.49283854166667,152.87802609627784L99.73958333333333,153.28167973273383L100.986328125,153.2102853587797L102.23307291666667,152.6167839995668L103.47981770833333,152.62484270956355L104.7265625,152.5306489060622L105.97330729166667,152.24308944124155L107.22005208333333,151.85370400394086L108.466796875,152.33128963128866L109.71354166666666,151.95350879993092L110.96028645833334,150.46550075586632L112.20703125,152.37290275104257L113.45377604166666,152.64342960448784L114.70052083333334,152.51146071393322L115.947265625,152.70217292288723L117.19401041666667,152.75996523584973L118.44075520833333,152.979140561465L119.6875,152.48574262630288L120.93424479166667,152.2808230635712L122.18098958333333,152.25741136013966L123.427734375,152.02390738147741L124.67447916666667,151.50209483558518L125.92122395833333,151.36476530573606L127.16796875,153.07292002838324L128.41471354166666,153.14825888786325L129.66145833333334,152.9248446374859L130.908203125,152.2541352599696L132.15494791666666,151.23191041181406L133.40169270833334,152.9026157784078L134.6484375,153.18971162819724L135.89518229166666,152.88825875825367L137.14192708333331,153.4308262225571L138.388671875,153.4504072358522L139.63541666666666,152.6544449990091L140.88216145833334,151.3053360836943L142.12890625,152.65353229495418L143.37565104166669,152.4115770878455L144.62239583333334,153.55403531487784L145.869140625,153.9486302201618L147.11588541666666,153.98824944989985L148.36263020833334,154.42659408172054L149.609375,153.62277149803037L150.85611979166666,153.50460313781423L152.10286458333331,153.82563371727008L153.349609375,153.75447542448507L154.59635416666669,153.09555672557588L155.84309895833334,153.32821206963376L157.08984375,154.80864499258968L158.33658854166666,153.53327590158185L159.58333333333334,152.71161336315578L160.830078125,151.07727071195407L162.07682291666666,152.43303657555862L163.32356770833331,141.5284668244162L164.5703125,117.23796214629101L165.81705729166669,123.49611589781682L167.06380208333334,135.87082680691083L168.310546875,144.00945557297186L169.55729166666666,148.6399436899478L170.80403645833331,152.13430022593522L172.05078125,154.7539667890061L173.29752604166669,156.4467760081263L174.54427083333334,157.26843133518312L175.791015625,157.70945425924458L177.03776041666666,157.82905987775584L178.28450520833334,157.29109872289075L179.53125,157.92181192960703L180.77799479166666,158.3400398600589L182.02473958333331,157.26753374442944L183.271484375,158.21172055198952L184.51822916666669,157.92821294206718L185.76497395833334,158.32546022481364L187.01171875,157.4232972537458L188.25846354166666,157.77694595523738L189.50520833333331,157.0021399407759L190.751953125,157.16745480646284L191.99869791666669,156.78389734801678L193.24544270833334,156.5070531295361L194.4921875,156.32223987467094L195.73893229166666,155.68949526914523L196.98567708333334,155.13566207780306L198.232421875,154.48695568216527L199.47916666666666,154.59299553616452L200.72591145833331,154.77635817149536L201.97265625,155.33650011941077L203.21940104166669,154.86489611883982L204.46614583333334,156.3962400134153L205.712890625,154.6861636396604L206.95963541666666,150.98574129949878L208.20638020833331,149.93766632639256L209.453125,152.51014115625713L210.69986979166669,154.43113106996094L211.94661458333334,155.08162059654595L213.193359375,156.20455043259958L214.44010416666666,156.29466154476768L215.68684895833334,155.61396520750543L216.93359375,155.76905918965832L218.18033854166666,155.95192062819604L219.42708333333331,155.00267633503708L220.673828125,152.81921883266966L221.92057291666669,148.76053325602132L223.16731770833334,150.53487549638527L224.4140625,153.8042552512199L225.66080729166666,155.5745783061028L226.90755208333331,155.61617527502585L228.154296875,156.82738149278592L229.40104166666669,156.888594865932L230.64778645833334,155.37536475883144L231.89453125,153.9331413486266L233.14127604166666,152.4517723287523L234.38802083333334,154.3390130537162L235.634765625,156.27640291837946L236.88151041666666,156.3955888838492L238.12825520833331,155.70842650478613L239.375,156.58644262790727L240.62174479166669,156.27960240528827L241.86848958333334,155.89355281729283L243.115234375,155.71240300217897L244.36197916666666,156.03909852346288L245.60872395833331,155.68533596052126L246.85546875,156.12353965325104L248.10221354166669,155.52914904004464L249.34895833333334,155.79509948324477L250.595703125,155.03335741701153L251.84244791666666,156.17017786988708L253.08919270833334,155.20852528711885L254.3359375,156.15760067197843L255.58268229166666,155.5991665352609L256.8294270833333,156.30386310014663L258.076171875,155.9100888019957L259.3229166666667,155.54505506487183L260.5696614583333,155.2050630898077L261.81640625,155.24194831175578L263.0631510416667,155.72391501109854L264.3098958333333,156.4377463689997L265.556640625,156.54867797952943L266.8033854166667,156.73763187662178L268.05013020833337,156.5110453851058L269.296875,156.16600106714733L270.5436197916667,155.94444460226418L271.7903645833333,155.62296552337654L273.037109375,155.66591787427768" style="fill: none;" fill="none"></path></g></g></g></g><g opacity="0.2"><g><g><g><path stroke="rgb(255, 112, 67)" stroke-width="2px" d="M31.168619791666668,-128.7934117750688L32.415364583333336,93.24404187635943L33.662109375,-70.19002610986882L34.908854166666664,1.757948268543592L36.155598958333336,59.8135537667708L37.40234375,47.41857446323741L38.64908854166667,27.239343816583798L39.895833333333336,0.12684579329057888L41.142578125,59.08317765322599L42.389322916666664,78.8999555761164L43.636067708333336,96.41221735694192L44.8828125,99.35262361439793L46.12955729166667,97.45853018760681L47.37630208333333,109.70668771050192L48.623046875,71.7349022951993L49.869791666666664,114.39114689826965L51.116536458333336,89.0008459958163L52.36328125,118.28717799620196L53.610026041666664,51.88944365761496L54.85677083333333,102.02487900040366L56.103515625,133.42763943021947L57.35026041666667,39.76937874880704L58.597005208333336,122.25408222458579L59.84375,140.87762770869514L61.090494791666664,119.00139914859425L62.337239583333336,57.2277548529885L63.583984375,123.39857164296238L64.83072916666667,95.09365640987049L66.07747395833333,128.3924725705927L67.32421875,142.93488202311775L68.57096354166666,108.34083580970764L69.81770833333333,104.32455747777766L71.064453125,138.8493591005152L72.31119791666667,135.1077304536646L73.55794270833333,148.50963072343305L74.8046875,139.93058291348544L76.05143229166666,139.71403124115685L77.29817708333334,145.93868911808187L78.544921875,142.8027727278796L79.79166666666667,141.71141130273992L81.03841145833333,142.5978740345348L82.28515625,144.48787405274132L83.53190104166667,142.84634431925687L84.77864583333333,146.41873622482473L86.025390625,143.62179204550657L87.27213541666667,149.36629252000287L88.51888020833333,142.0418629321185L89.765625,109.08541417121887L91.01236979166666,109.1195655519312L92.25911458333334,152.03090873089704L93.505859375,149.9714935801246L94.75260416666666,155.8126567141576L95.99934895833334,155.90234101360494L97.24609375,154.5411488657648L98.49283854166667,154.218159458854L99.73958333333333,153.8871601874178L100.986328125,153.10319379784843L102.23307291666667,151.72653196074745L103.47981770833333,152.63693077455866L104.7265625,152.38935820081016L105.97330729166667,151.81175024401057L107.22005208333333,151.26962584798986L108.466796875,153.04766807231036L109.71354166666666,151.38683755289424L110.96028645833334,148.2334886897694L112.20703125,155.23400574380702L113.45377604166666,153.04921988465568L114.70052083333334,152.31350737810135L115.947265625,152.98824123631823L117.19401041666667,152.84665370529348L118.44075520833333,153.30790354988793L119.6875,151.74564572355965L120.93424479166667,151.97344371947375L122.18098958333333,152.22229380499232L123.427734375,151.67365141348407L124.67447916666667,150.71937601674688L125.92122395833333,151.1587710109624L127.16796875,155.63515211235392L128.41471354166666,153.26126717708328L129.66145833333334,152.5897232619199L130.908203125,151.24807119369507L132.15494791666666,149.69857313958082L133.40169270833334,155.4086738282984L134.6484375,153.62035540288144L135.89518229166666,152.43607945333827L137.14192708333331,154.24467741901225L138.388671875,153.47977875579488L139.63541666666666,151.46050164374438L140.88216145833334,149.28167271072215L142.12890625,154.67582661184397L143.37565104166669,152.0486442771825L144.62239583333334,155.26772265542638L145.869140625,154.54052257808772L147.11588541666666,154.04767829450694L148.36263020833334,155.08411102945155L149.609375,152.41703762249514L150.85611979166666,153.32735059748995L152.10286458333331,154.30717958645388L153.349609375,153.64773798530751L154.59635416666669,152.10717867721212L155.84309895833334,153.67719508572057L157.08984375,157.02929437702352L158.33658854166666,151.62022226507014L159.58333333333334,151.4791195555167L160.830078125,148.62575673515147L162.07682291666666,154.46668537096545L163.32356770833331,125.17161219770259L164.5703125,80.80220512910321L165.81705729166669,132.88334652510557L167.06380208333334,154.4328931705518L168.310546875,156.21739872206342L169.55729166666666,155.58567586541176L170.80403645833331,157.37583502991632L172.05078125,158.68346663361245L173.29752604166669,158.9859898368066L174.54427083333334,158.5009143257683L175.791015625,158.37098864533684L177.03776041666666,158.00846830552274L178.28450520833334,156.48415699059314L179.53125,158.86788173968142L180.77799479166666,158.96738175573674L182.02473958333331,155.6587745709853L183.271484375,159.6280007633296L184.51822916666669,157.5029515271837L185.76497395833334,158.9213311489333L187.01171875,156.07005279714411L188.25846354166666,158.30741900747472L189.50520833333331,155.83993091908368L190.751953125,157.4154271049933L191.99869791666669,156.20856116034767L193.24544270833334,156.09178680181503L194.4921875,156.0450199923732L195.73893229166666,154.74037836085665L196.98567708333334,154.30491229078987L198.232421875,153.51389608870852L199.47916666666666,154.75205531716347L200.72591145833331,155.0514021244916L201.97265625,156.17671304128388L203.21940104166669,154.15749011798337L204.46614583333334,158.69325585527852L205.712890625,152.12104907902804L206.95963541666666,145.43510778925636L208.20638020833331,148.3655538667332L209.453125,156.36885340105403L210.69986979166669,157.31261594051665L211.94661458333334,156.05735488642347L213.193359375,157.88894518668002L214.44010416666666,156.42982821301982L215.68684895833334,154.59292070161212L216.93359375,156.00170016288757L218.18033854166666,156.2262127860026L219.42708333333331,153.5788098952987L220.673828125,149.54403257911855L221.92057291666669,142.6725048910488L223.16731770833334,153.19638885693118L224.4140625,158.70832488347185L225.66080729166666,158.23006288842723L226.90755208333331,155.67857072841036L228.154296875,158.64419081942603L229.40104166666669,156.9804149256511L230.64778645833334,153.1055195981806L231.89453125,151.76980623331937L233.14127604166666,150.22971879894084L234.38802083333334,157.1698741411621L235.634765625,159.18248771537435L236.88151041666666,156.57436783205378L238.12825520833331,154.67768293619156L239.375,157.90346681258896L240.62174479166669,155.8193420713598L241.86848958333334,155.3144784352996L243.115234375,155.44067827950823L244.36197916666666,156.52914180538872L245.60872395833331,155.1546921161088L246.85546875,156.7808451923457L248.10221354166669,154.6375631202351L249.34895833333334,156.19402514804494L250.595703125,153.89074431766164L251.84244791666666,157.87540854920042L253.08919270833334,153.76604641296646L254.3359375,157.58121374926785L255.58268229166666,154.76151533018458L256.8294270833333,157.36090794747525L258.076171875,155.31942735476926L259.3229166666667,154.99750445918605L260.5696614583333,154.69507512721148L261.81640625,155.29727614467794L263.0631510416667,156.44686506011269L264.3098958333333,157.50849340585145L265.556640625,156.71507539532402L266.8033854166667,157.0210627222603L268.05013020833337,156.17116564783183L269.296875,155.6484345902096L270.5436197916667,155.61210990493947L271.7903645833333,155.14074690504506L273.037109375,155.7303464006294" style="fill: none;" fill="none"></path></g></g></g></g></g></g><g transform="translate(30, 177)" clip-path="url(#clip_1)"><clipPath id="clip_1"><rect width="299" height="23"></rect></clipPath><g><g><line x1="0" y1="0" x2="0" y2="5" style="visibility: inherit;" fill="rgb(0, 0, 0)" stroke="rgb(204, 204, 204)" stroke-width="1px"></line><line x1="24.934895833333332" y1="0" x2="24.934895833333332" y2="5" style="visibility: inherit;" fill="rgb(0, 0, 0)" stroke="rgb(204, 204, 204)" stroke-width="1px"></line><line x1="49.869791666666664" y1="0" x2="49.869791666666664" y2="5" style="visibility: inherit;" fill="rgb(0, 0, 0)" stroke="rgb(204, 204, 204)" stroke-width="1px"></line><line x1="74.8046875" y1="0" x2="74.8046875" y2="5" style="visibility: inherit;" fill="rgb(0, 0, 0)" stroke="rgb(204, 204, 204)" stroke-width="1px"></line><line x1="99.73958333333333" y1="0" x2="99.73958333333333" y2="5" style="visibility: inherit;" fill="rgb(0, 0, 0)" stroke="rgb(204, 204, 204)" stroke-width="1px"></line><line x1="124.67447916666667" y1="0" x2="124.67447916666667" y2="5" style="visibility: inherit;" fill="rgb(0, 0, 0)" stroke="rgb(204, 204, 204)" stroke-width="1px"></line><line x1="149.609375" y1="0" x2="149.609375" y2="5" style="visibility: inherit;" fill="rgb(0, 0, 0)" stroke="rgb(204, 204, 204)" stroke-width="1px"></line><line x1="174.54427083333334" y1="0" x2="174.54427083333334" y2="5" style="visibility: inherit;" fill="rgb(0, 0, 0)" stroke="rgb(204, 204, 204)" stroke-width="1px"></line><line x1="199.47916666666666" y1="0" x2="199.47916666666666" y2="5" style="visibility: inherit;" fill="rgb(0, 0, 0)" stroke="rgb(204, 204, 204)" stroke-width="1px"></line><line x1="224.4140625" y1="0" x2="224.4140625" y2="5" style="visibility: inherit;" fill="rgb(0, 0, 0)" stroke="rgb(204, 204, 204)" stroke-width="1px"></line><line x1="249.34895833333334" y1="0" x2="249.34895833333334" y2="5" style="visibility: inherit;" fill="rgb(0, 0, 0)" stroke="rgb(204, 204, 204)" stroke-width="1px"></line><line x1="274.28385416666663" y1="0" x2="274.28385416666663" y2="5" style="visibility: inherit;" fill="rgb(0, 0, 0)" stroke="rgb(204, 204, 204)" stroke-width="1px"></line><line x1="299.21875" y1="0" x2="299.21875" y2="5" style="visibility: inherit;" fill="rgb(0, 0, 0)" stroke="rgb(204, 204, 204)" stroke-width="1px"></line></g><g transform="translate(0, 8)"><text x="0" y="0" dx="0em" dy="0.95em" style="text-anchor: middle; visibility: hidden; font-family: Roboto, sans-serif; font-size: 12px; font-weight: 200;" fill="rgb(33, 33, 33)" stroke="none" stroke-width="1px">-20</text><text x="24.934895833333332" y="0" dx="0em" dy="0.95em" style="text-anchor: middle; visibility: inherit; font-family: Roboto, sans-serif; font-size: 12px; font-weight: 200;" fill="rgb(33, 33, 33)" stroke="none" stroke-width="1px">0</text><text x="49.869791666666664" y="0" dx="0em" dy="0.95em" style="text-anchor: middle; visibility: inherit; font-family: Roboto, sans-serif; font-size: 12px; font-weight: 200;" fill="rgb(33, 33, 33)" stroke="none" stroke-width="1px">20</text><text x="74.8046875" y="0" dx="0em" dy="0.95em" style="text-anchor: middle; visibility: inherit; font-family: Roboto, sans-serif; font-size: 12px; font-weight: 200;" fill="rgb(33, 33, 33)" stroke="none" stroke-width="1px">40</text><text x="99.73958333333333" y="0" dx="0em" dy="0.95em" style="text-anchor: middle; visibility: inherit; font-family: Roboto, sans-serif; font-size: 12px; font-weight: 200;" fill="rgb(33, 33, 33)" stroke="none" stroke-width="1px">60</text><text x="124.67447916666667" y="0" dx="0em" dy="0.95em" style="text-anchor: middle; visibility: inherit; font-family: Roboto, sans-serif; font-size: 12px; font-weight: 200;" fill="rgb(33, 33, 33)" stroke="none" stroke-width="1px">80</text><text x="149.609375" y="0" dx="0em" dy="0.95em" style="text-anchor: middle; visibility: inherit; font-family: Roboto, sans-serif; font-size: 12px; font-weight: 200;" fill="rgb(33, 33, 33)" stroke="none" stroke-width="1px">100</text><text x="174.54427083333334" y="0" dx="0em" dy="0.95em" style="text-anchor: middle; visibility: inherit; font-family: Roboto, sans-serif; font-size: 12px; font-weight: 200;" fill="rgb(33, 33, 33)" stroke="none" stroke-width="1px">120</text><text x="199.47916666666666" y="0" dx="0em" dy="0.95em" style="text-anchor: middle; visibility: inherit; font-family: Roboto, sans-serif; font-size: 12px; font-weight: 200;" fill="rgb(33, 33, 33)" stroke="none" stroke-width="1px">140</text><text x="224.4140625" y="0" dx="0em" dy="0.95em" style="text-anchor: middle; visibility: inherit; font-family: Roboto, sans-serif; font-size: 12px; font-weight: 200;" fill="rgb(33, 33, 33)" stroke="none" stroke-width="1px">160</text><text x="249.34895833333334" y="0" dx="0em" dy="0.95em" style="text-anchor: middle; visibility: inherit; font-family: Roboto, sans-serif; font-size: 12px; font-weight: 200;" fill="rgb(33, 33, 33)" stroke="none" stroke-width="1px">180</text><text x="274.28385416666663" y="0" dx="0em" dy="0.95em" style="text-anchor: middle; visibility: inherit; font-family: Roboto, sans-serif; font-size: 12px; font-weight: 200;" fill="rgb(33, 33, 33)" stroke="none" stroke-width="1px">200</text><text x="299.21875" y="0" dx="0em" dy="0.95em" style="text-anchor: middle; visibility: hidden; font-family: Roboto, sans-serif; font-size: 12px; font-weight: 200;" fill="rgb(33, 33, 33)" stroke="none" stroke-width="1px">220</text></g><line x1="0" y1="0" x2="299.21875" y2="0" fill="rgb(0, 0, 0)" stroke="rgb(204, 204, 204)" stroke-width="1px"></line></g></g></g></g></svg>