<svg viewBox="0 0 301 200" xmlns="http://www.w3.org/2000/svg"><g><g><g><g><g><line x1="41.171875" y1="177" x2="36.171875" y2="177" style="visibility: inherit;" fill="rgb(0, 0, 0)" stroke="rgb(204, 204, 204)" stroke-width="1px"></line><line x1="41.171875" y1="159.3" x2="36.171875" y2="159.3" style="visibility: inherit;" fill="rgb(0, 0, 0)" stroke="rgb(204, 204, 204)" stroke-width="1px"></line><line x1="41.171875" y1="141.6" x2="36.171875" y2="141.6" style="visibility: inherit;" fill="rgb(0, 0, 0)" stroke="rgb(204, 204, 204)" stroke-width="1px"></line><line x1="41.171875" y1="123.89999999999999" x2="36.171875" y2="123.89999999999999" style="visibility: inherit;" fill="rgb(0, 0, 0)" stroke="rgb(204, 204, 204)" stroke-width="1px"></line><line x1="41.171875" y1="106.2" x2="36.171875" y2="106.2" style="visibility: inherit;" fill="rgb(0, 0, 0)" stroke="rgb(204, 204, 204)" stroke-width="1px"></line><line x1="41.171875" y1="88.5" x2="36.171875" y2="88.5" style="visibility: inherit;" fill="rgb(0, 0, 0)" stroke="rgb(204, 204, 204)" stroke-width="1px"></line><line x1="41.171875" y1="70.8" x2="36.171875" y2="70.8" style="visibility: inherit;" fill="rgb(0, 0, 0)" stroke="rgb(204, 204, 204)" stroke-width="1px"></line><line x1="41.171875" y1="53.10000000000001" x2="36.171875" y2="53.10000000000001" style="visibility: inherit;" fill="rgb(0, 0, 0)" stroke="rgb(204, 204, 204)" stroke-width="1px"></line><line x1="41.171875" y1="35.39999999999999" x2="36.171875" y2="35.39999999999999" style="visibility: inherit;" fill="rgb(0, 0, 0)" stroke="rgb(204, 204, 204)" stroke-width="1px"></line><line x1="41.171875" y1="17.699999999999996" x2="36.171875" y2="17.699999999999996" style="visibility: inherit;" fill="rgb(0, 0, 0)" stroke="rgb(204, 204, 204)" stroke-width="1px"></line><line x1="41.171875" y1="0" x2="36.171875" y2="0" style="visibility: inherit;" fill="rgb(0, 0, 0)" stroke="rgb(204, 204, 204)" stroke-width="1px"></line></g><g transform="translate(31.171875, 0)"><text x="0" y="177" dx="0em" dy="0.3em" style="text-anchor: end; visibility: hidden; font-family: Roboto, sans-serif; font-size: 12px; font-weight: 200;" fill="rgb(33, 33, 33)" stroke="none" stroke-width="1px">-20</text><text x="0" y="159.3" dx="0em" dy="0.3em" style="text-anchor: end; visibility: inherit; font-family: Roboto, sans-serif; font-size: 12px; font-weight: 200;" fill="rgb(33, 33, 33)" stroke="none" stroke-width="1px">0</text><text x="0" y="141.6" dx="0em" dy="0.3em" style="text-anchor: end; visibility: hidden; font-family: Roboto, sans-serif; font-size: 12px; font-weight: 200;" fill="rgb(33, 33, 33)" stroke="none" stroke-width="1px">20</text><text x="0" y="123.89999999999999" dx="0em" dy="0.3em" style="text-anchor: end; visibility: inherit; font-family: Roboto, sans-serif; font-size: 12px; font-weight: 200;" fill="rgb(33, 33, 33)" stroke="none" stroke-width="1px">40</text><text x="0" y="106.2" dx="0em" dy="0.3em" style="text-anchor: end; visibility: hidden; font-family: Roboto, sans-serif; font-size: 12px; font-weight: 200;" fill="rgb(33, 33, 33)" stroke="none" stroke-width="1px">60</text><text x="0" y="88.5" dx="0em" dy="0.3em" style="text-anchor: end; visibility: inherit; font-family: Roboto, sans-serif; font-size: 12px; font-weight: 200;" fill="rgb(33, 33, 33)" stroke="none" stroke-width="1px">80</text><text x="0" y="70.8" dx="0em" dy="0.3em" style="text-anchor: end; visibility: hidden; font-family: Roboto, sans-serif; font-size: 12px; font-weight: 200;" fill="rgb(33, 33, 33)" stroke="none" stroke-width="1px">100</text><text x="0" y="53.10000000000001" dx="0em" dy="0.3em" style="text-anchor: end; visibility: inherit; font-family: Roboto, sans-serif; font-size: 12px; font-weight: 200;" fill="rgb(33, 33, 33)" stroke="none" stroke-width="1px">120</text><text x="0" y="35.39999999999999" dx="0em" dy="0.3em" style="text-anchor: end; visibility: hidden; font-family: Roboto, sans-serif; font-size: 12px; font-weight: 200;" fill="rgb(33, 33, 33)" stroke="none" stroke-width="1px">140</text><text x="0" y="17.699999999999996" dx="0em" dy="0.3em" style="text-anchor: end; visibility: inherit; font-family: Roboto, sans-serif; font-size: 12px; font-weight: 200;" fill="rgb(33, 33, 33)" stroke="none" stroke-width="1px">160</text><text x="0" y="0" dx="0em" dy="0.3em" style="text-anchor: end; visibility: hidden; font-family: Roboto, sans-serif; font-size: 12px; font-weight: 200;" fill="rgb(33, 33, 33)" stroke="none" stroke-width="1px">180</text></g><line x1="41.171875" y1="0" x2="41.171875" y2="177" fill="rgb(0, 0, 0)" stroke="rgb(204, 204, 204)" stroke-width="1px"></line></g></g><g transform="translate(41, 0)" clip-path="url(#clip_0)"><clipPath id="clip_0"><rect width="288" height="177"></rect></clipPath><g><g><g><line x1="0" y1="0" x2="0" y2="177" fill="rgb(0, 0, 0)" stroke="rgb(66, 66, 66)" stroke-width="1px" opacity="0.25"></line><line x1="24.069010416666664" y1="0" x2="24.069010416666664" y2="177" fill="rgb(0, 0, 0)" stroke="rgb(66, 66, 66)" stroke-width="1px" opacity="0.25"></line><line x1="48.13802083333333" y1="0" x2="48.13802083333333" y2="177" fill="rgb(0, 0, 0)" stroke="rgb(66, 66, 66)" stroke-width="1px" opacity="0.25"></line><line x1="72.20703125" y1="0" x2="72.20703125" y2="177" fill="rgb(0, 0, 0)" stroke="rgb(66, 66, 66)" stroke-width="1px" opacity="0.25"></line><line x1="96.27604166666666" y1="0" x2="96.27604166666666" y2="177" fill="rgb(0, 0, 0)" stroke="rgb(66, 66, 66)" stroke-width="1px" opacity="0.25"></line><line x1="120.34505208333334" y1="0" x2="120.34505208333334" y2="177" fill="rgb(0, 0, 0)" stroke="rgb(66, 66, 66)" stroke-width="1px" opacity="0.25"></line><line x1="144.4140625" y1="0" x2="144.4140625" y2="177" fill="rgb(0, 0, 0)" stroke="rgb(66, 66, 66)" stroke-width="1px" opacity="0.25"></line><line x1="168.48307291666669" y1="0" x2="168.48307291666669" y2="177" fill="rgb(0, 0, 0)" stroke="rgb(66, 66, 66)" stroke-width="1px" opacity="0.25"></line><line x1="192.55208333333331" y1="0" x2="192.55208333333331" y2="177" fill="rgb(0, 0, 0)" stroke="rgb(66, 66, 66)" stroke-width="1px" opacity="0.25"></line><line x1="216.62109375" y1="0" x2="216.62109375" y2="177" fill="rgb(0, 0, 0)" stroke="rgb(66, 66, 66)" stroke-width="1px" opacity="0.25"></line><line x1="240.69010416666669" y1="0" x2="240.69010416666669" y2="177" fill="rgb(0, 0, 0)" stroke="rgb(66, 66, 66)" stroke-width="1px" opacity="0.25"></line><line x1="264.7591145833333" y1="0" x2="264.7591145833333" y2="177" fill="rgb(0, 0, 0)" stroke="rgb(66, 66, 66)" stroke-width="1px" opacity="0.25"></line><line x1="288.828125" y1="0" x2="288.828125" y2="177" fill="rgb(0, 0, 0)" stroke="rgb(66, 66, 66)" stroke-width="1px" opacity="0.25"></line></g><g><line x1="0" y1="177" x2="288.828125" y2="177" fill="rgb(0, 0, 0)" stroke="rgb(66, 66, 66)" stroke-width="1px" opacity="0.25"></line><line x1="0" y1="159.3" x2="288.828125" y2="159.3" fill="rgb(0, 0, 0)" stroke="rgb(66, 66, 66)" stroke-width="1px" opacity="0.25"></line><line x1="0" y1="141.6" x2="288.828125" y2="141.6" fill="rgb(0, 0, 0)" stroke="rgb(66, 66, 66)" stroke-width="1px" opacity="0.25"></line><line x1="0" y1="123.89999999999999" x2="288.828125" y2="123.89999999999999" fill="rgb(0, 0, 0)" stroke="rgb(66, 66, 66)" stroke-width="1px" opacity="0.25"></line><line x1="0" y1="106.2" x2="288.828125" y2="106.2" fill="rgb(0, 0, 0)" stroke="rgb(66, 66, 66)" stroke-width="1px" opacity="0.25"></line><line x1="0" y1="88.5" x2="288.828125" y2="88.5" fill="rgb(0, 0, 0)" stroke="rgb(66, 66, 66)" stroke-width="1px" opacity="0.25"></line><line x1="0" y1="70.8" x2="288.828125" y2="70.8" fill="rgb(0, 0, 0)" stroke="rgb(66, 66, 66)" stroke-width="1px" opacity="0.25"></line><line x1="0" y1="53.10000000000001" x2="288.828125" y2="53.10000000000001" fill="rgb(0, 0, 0)" stroke="rgb(66, 66, 66)" stroke-width="1px" opacity="0.25"></line><line x1="0" y1="35.39999999999999" x2="288.828125" y2="35.39999999999999" fill="rgb(0, 0, 0)" stroke="rgb(66, 66, 66)" stroke-width="1px" opacity="0.25"></line><line x1="0" y1="17.699999999999996" x2="288.828125" y2="17.699999999999996" fill="rgb(0, 0, 0)" stroke="rgb(66, 66, 66)" stroke-width="1px" opacity="0.25"></line><line x1="0" y1="0" x2="288.828125" y2="0" fill="rgb(0, 0, 0)" stroke="rgb(66, 66, 66)" stroke-width="1px" opacity="0.25"></line></g></g></g><g><g><line x1="0" y1="159.3" x2="288.828125" y2="159.3" fill="rgb(0, 0, 0)" stroke="rgb(153, 153, 153)" stroke-width="1.5px"></line></g></g><g><g><line x1="24.069010416666664" y1="0" x2="24.069010416666664" y2="177" fill="rgb(0, 0, 0)" stroke="rgb(153, 153, 153)" stroke-width="1.5px"></line></g></g><g><g><g><g><g><path stroke="rgb(255, 112, 67)" stroke-width="2px" d="M34.900065104166664,-5.309233730753906L36.103515625,20.529892621268413L37.306966145833336,35.807215530803504L38.510416666666664,43.41152320279015L39.7138671875,54.43934881481808L40.917317708333336,63.98658942323019L42.12076822916667,73.32679828527566L43.32421875,80.37354817874443L44.527669270833336,86.27494512603386L45.731119791666664,92.74460192630362L46.9345703125,93.67170807715432L48.13802083333333,99.48057730110999L49.341471354166664,99.22613125487038L50.544921875,103.96250549465928L51.748372395833336,98.09375603651836L52.951822916666664,99.76043008272543L54.1552734375,106.97650161351244L55.358723958333336,101.0879831218075L56.562174479166664,104.23022637303042L57.765625,111.38917562436063L58.969075520833336,115.23091201616043L60.17252604166667,113.17881992486355L61.3759765625,117.58342424821468L62.579427083333336,116.73453897494562L63.782877604166664,120.06427085890815L64.986328125,125.2507547469908L66.18977864583333,125.04189436673111L67.39322916666667,124.37692205446098L68.5966796875,127.84938965761887L69.80013020833333,131.4529484617184L71.00358072916666,134.78901863135627L72.20703125,136.42365905152374L73.41048177083333,138.27875756559604L74.61393229166667,140.35520418213858L75.8173828125,141.78760194449833L77.02083333333333,143.11111868865666L78.22428385416666,144.44189063657106L79.427734375,145.83993232511017L80.63118489583333,146.62490732446605L81.83463541666667,145.83736144789168L83.0380859375,145.88274109130006L84.24153645833334,147.23150448564292L85.44498697916667,147.3993491978865L86.6484375,143.9305375697207L87.85188802083333,143.1964340645062L89.05533854166667,145.76369785630789L90.2587890625,147.9910182056679L91.46223958333333,150.42114049302714L92.66569010416667,151.75700730435378L93.869140625,152.3901449868222L95.07259114583333,152.85269031126145L96.27604166666666,153.1096685948303L97.4794921875,153.27936544789856L98.68294270833333,153.11505241521587L99.88639322916667,153.07353413849108L101.08984375,153.41214874523303L102.29329427083334,153.21423115692986L103.49674479166667,152.8993588998464L104.7001953125,153.09172060361786L105.90364583333333,153.45330964774658L107.10709635416667,152.9902159064458L108.310546875,153.69785562762297L109.51399739583333,153.8388791728537L110.71744791666667,153.79731655457738L111.9208984375,153.7981115847774L113.12434895833333,153.91541144549532L114.32779947916666,154.1947948962431L115.53125,153.9782009257067L116.73470052083333,153.87164871246748L117.93815104166667,153.70253619594058L119.1416015625,153.4633416075866L120.34505208333334,153.3552442328549L121.54850260416667,153.2207521171818L122.751953125,154.15447253438532L123.95540364583333,154.4115255072874L125.15885416666667,154.4166194774605L126.3623046875,154.1739641562639L127.56575520833333,154.02421847483745L128.76920572916669,154.74749942005414L129.97265625,154.93306121743166L131.17610677083334,155.0093011574533L132.37955729166666,155.14172022083918L133.5830078125,155.12907570492933L134.78645833333334,154.43552841360398L135.98990885416666,154.11510950192826L137.193359375,154.82394609466206L138.39680989583334,155.12376431474095L139.60026041666666,155.4877510228694L140.8037109375,155.64083191197756L142.00716145833331,155.76603716779735L143.21061197916666,155.94289967065444L144.4140625,155.825448952707L145.61751302083334,155.8685040184214L146.82096354166666,155.9011975262376L148.0244140625,155.88695278631522L149.22786458333334,155.6708913115673L150.43131510416669,155.7887888362415L151.634765625,156.08741550936742L152.83821614583334,155.52483946045902L154.04166666666666,155.1305625641386L155.2451171875,154.73222812628984L156.44856770833331,153.22597551713133L157.65201822916666,148.39858260947315L158.85546875,142.48598567865994L160.05891927083334,143.94573405017084L161.26236979166666,147.62519271033779L162.4658203125,151.06539778886898L163.66927083333334,153.11197133838334L164.87272135416666,154.66638396155358L166.076171875,155.49187285072517L167.27962239583334,156.23083219603842L168.48307291666669,156.67046828458396L169.6865234375,156.72671910208277L170.88997395833334,156.87358743621L172.09342447916666,156.30089049883537L173.296875,156.4119310259095L174.50032552083331,156.89551707239576L175.70377604166666,156.50127538759486L176.9072265625,156.784730670446L178.11067708333334,156.72919212340943L179.31412760416666,156.87644688749094L180.517578125,156.56019930782188L181.72102864583334,156.64847675908962L182.92447916666666,156.61217721384384L184.1279296875,156.75749523592958L185.33138020833334,156.7168992859898L186.53483072916669,156.6514833087193L187.73828125,156.66298498359126L188.94173177083334,156.54131556967974L190.14518229166666,156.4634647091632L191.3486328125,156.09478389122515L192.55208333333331,156.03860745536346L193.75553385416666,156.2599970776263L194.958984375,156.65832317056794L196.16243489583334,156.61255085672462L197.36588541666666,157.07545414260343L198.5693359375,156.78900173551628L199.77278645833334,154.78161853627438L200.97623697916666,153.70492727181954L202.1796875,154.77019320000196L203.38313802083334,155.8024625329315L204.58658854166669,156.2264060728633L205.7900390625,156.68236050038837L206.99348958333334,156.8189700688678L208.19694010416666,156.47425139032353L209.400390625,156.4184445095214L210.60384114583331,156.4560931034179L211.80729166666666,156.2570653721864L213.0107421875,154.6790348308787L214.21419270833334,152.78098481759457L215.41764322916666,154.0041135126652L216.62109375,155.49724311699282L217.82454427083334,156.35342059773095L219.02799479166666,156.186617489826L220.2314453125,156.3686882020064L221.43489583333334,156.8041699762957L222.63834635416669,155.49378342079024L223.841796875,153.90312631086647L225.04524739583334,154.23588386509502L226.24869791666666,155.42449367364458L227.4521484375,156.5039020154489L228.65559895833331,156.8367525485523L229.85904947916666,156.52416333123253L231.0625,156.43969035341863L232.26595052083334,156.8055353662641L233.46940104166666,156.89095268996186L234.6728515625,156.95507698077932L235.87630208333334,157.11009646808492L237.07975260416666,156.98787192628018L238.283203125,157.13931799820205L239.48665364583334,156.89634293562852L240.69010416666669,157.04555609754732L241.8935546875,156.5597510293246L243.09700520833334,156.89809097404006L244.30045572916666,156.69458959075644L245.50390625,157.06302094371816L246.70735677083331,156.9239308227998L247.91080729166666,157.08625648009195L249.1142578125,156.9386316618169L250.31770833333334,156.81017110400467L251.52115885416666,156.62225986607712L252.724609375,156.60583550052547L253.92805989583334,156.71165630338612L255.13151041666666,157.07772949646724L256.3349609375,157.1838298541952L257.53841145833337,157.2457867888599L258.7418619791667,157.11930090403493L259.9453125,156.91273283228836L261.1487630208333,156.7917330822084L262.3522135416667,156.71172736982902L263.5556640625,156.77537524855376" style="fill: none;" fill="none"></path></g></g></g></g><g opacity="0.2"><g><g><g><path stroke="rgb(255, 112, 67)" stroke-width="2px" d="M32.4931640625,-3.9136699676513595L33.696614583333336,1.9559909820556602L34.900065104166664,42.42984603881836L36.103515625,59.05422317504884L37.306966145833336,58.640061378479004L38.510416666666664,54.793155326843255L39.7138671875,70.95948257446288L40.917317708333336,78.29622791290284L42.12076822916667,87.33052413940429L43.32421875,90.94069107055665L44.527669270833336,95.12554218292236L45.731119791666664,102.44810153961181L46.9345703125,95.06228256225586L48.13802083333333,108.19356256484986L49.341471354166664,98.8444705581665L50.544921875,111.06697334289552L51.748372395833336,89.29070137023926L52.951822916666664,102.26042930603026L54.1552734375,117.80057813644409L55.358723958333336,92.25522045135499L56.562174479166664,108.94358642578126L57.765625,122.12759290695189L58.969075520833336,120.99351448059082L60.17252604166667,110.1006824684143L61.3759765625,124.19032985687254L62.579427083333336,115.46121116638183L63.782877604166664,125.0588684463501L64.986328125,133.03048035621643L66.18977864583333,124.72860380172729L67.39322916666667,123.37946359634398L68.5966796875,133.05809103012083L69.80013020833333,136.85828664779663L71.00358072916666,139.7931238746643L72.20703125,138.87561967849732L73.41048177083333,141.06140533447265L74.61393229166667,143.4698741054535L75.8173828125,143.9361985874176L77.02083333333333,145.09639380455016L78.22428385416666,146.43804855823518L79.427734375,147.93699485778808L80.63118489583333,147.80236982345582L81.83463541666667,144.65604263305664L83.0380859375,145.95081055641174L84.24153645833334,149.2546495771408L85.44498697916667,147.65111626625063L86.6484375,138.7273201274872L87.85188802083333,142.0952788066864L89.05533854166667,149.61459354400634L90.2587890625,151.33199872970582L91.46223958333333,154.06632392406465L92.66569010416667,153.76080752134322L93.869140625,153.33985151052474L95.07259114583333,153.5465082979202L96.27604166666666,153.49513602018357L97.4794921875,153.5339107275009L98.68294270833333,152.86858286619187L99.88639322916667,153.01125672340393L101.08984375,153.9200706553459L102.29329427083334,152.9173547744751L103.49674479166667,152.42705051422118L104.7001953125,153.38026315927505L105.90364583333333,153.99569321393966L107.10709635416667,152.29557529449463L108.310546875,154.75931520938875L109.51399739583333,154.05041449069978L110.71744791666667,153.73497262716293L111.9208984375,153.79930413007736L113.12434895833333,154.09136123657225L114.32779947916666,154.61387007236482L115.53125,153.65330996990204L116.73470052083333,153.71182039260864L117.93815104166667,153.4488674211502L119.1416015625,153.1045497250557L120.34505208333334,153.19309817075728L121.54850260416667,153.01901394367218L122.751953125,155.55505316019057L123.95540364583333,154.79710496664046L125.15885416666667,154.4242604327202L126.3623046875,153.809981174469L127.56575520833333,153.79959995269775L128.76920572916669,155.83242083787917L129.97265625,155.21140391349792L131.17610677083334,155.1236610674858L132.37955729166666,155.34034881591796L133.5830078125,155.11010893106462L134.78645833333334,153.3952074766159L135.98990885416666,153.63448113441467L137.193359375,155.88720098376274L138.39680989583334,155.5734916448593L139.60026041666666,156.03373108506202L140.8037109375,155.8704532456398L142.00716145833331,155.95384505152703L143.21061197916666,156.2081934249401L144.4140625,155.64927287578584L145.61751302083334,155.93308661699294L146.82096354166666,155.95023778796195L148.0244140625,155.86558567643166L149.22786458333334,155.34679909944535L150.43131510416669,155.96563512325287L151.634765625,156.5353555190563L152.83821614583334,154.6809753870964L154.04166666666666,154.5391472196579L155.2451171875,154.13472646951675L156.44856770833331,150.96659660339355L157.65201822916666,141.15749324798585L158.85546875,133.6170902824402L160.05891927083334,146.13535660743713L161.26236979166666,153.14438070058821L162.4658203125,156.2257054066658L163.66927083333334,156.18183166265487L164.87272135416666,156.9980028963089L166.076171875,156.73010618448257L167.27962239583334,157.33927121400833L168.48307291666669,157.32992241740226L169.6865234375,156.811095328331L170.88997395833334,157.0938899374008L172.09342447916666,155.44184509277343L173.296875,156.57849181652068L174.50032552083331,157.62089614212513L175.70377604166666,155.90991286039352L176.9072265625,157.20991359472274L178.11067708333334,156.64588430285454L179.31412760416666,157.0973290336132L180.517578125,156.08582793831826L181.72102864583334,156.7808929359913L182.92447916666666,156.55772789597512L184.1279296875,156.97547226905823L185.33138020833334,156.65600536108016L186.53483072916669,156.55335934281348L187.73828125,156.6802374958992L188.94173177083334,156.35881144881247L190.14518229166666,156.34668841838837L191.3486328125,155.5417626643181L192.55208333333331,155.9543428015709L193.75553385416666,156.59208151102067L194.958984375,157.2558123099804L196.16243489583334,156.54389238595962L197.36588541666666,157.76980907142163L198.5693359375,156.35932312488555L199.77278645833334,151.7705437374115L200.97623697916666,152.08989037513734L202.1796875,156.36809209227562L203.38313802083334,157.35086653232574L204.58658854166669,156.862321382761L205.7900390625,157.36629214167596L206.99348958333334,157.02388442158698L208.19694010416666,155.9571733725071L209.400390625,156.33473418831827L210.60384114583331,156.5125659942627L211.80729166666666,155.95852377533913L213.0107421875,152.31198901891707L214.21419270833334,149.93390979766846L215.41764322916666,155.83880655527113L216.62109375,157.73693752348422L217.82454427083334,157.63768681883812L219.02799479166666,155.9364128279686L220.2314453125,156.64179427027702L221.43489583333334,157.45739263772964L222.63834635416669,153.52820358753203L223.841796875,151.51714064598085L225.04524739583334,154.73502019643783L226.24869791666666,157.2074083864689L227.4521484375,158.12301452815532L228.65559895833331,157.33602834820746L229.85904947916666,156.05527950525283L231.0625,156.31298088669777L232.26595052083334,157.35430288553238L233.46940104166666,157.0190786755085L234.6728515625,157.05126341700554L235.87630208333334,157.34262569904328L237.07975260416666,156.80453511357308L238.283203125,157.36648710608483L239.48665364583334,156.53188034176827L240.69010416666669,157.26937584042548L241.8935546875,155.8310434269905L243.09700520833334,157.40560089111327L244.30045572916666,156.389337515831L245.50390625,157.61566797316075L246.70735677083331,156.71529564142227L247.91080729166666,157.32974496603012L249.1142578125,156.71719443440438L250.31770833333334,156.6174802672863L251.52115885416666,156.3403930091858L252.724609375,156.58119895219804L253.92805989583334,156.87038750767707L255.13151041666666,157.62683928608894L256.3349609375,157.34298039078712L257.53841145833337,157.33872219085694L258.7418619791667,156.92957207679748L259.9453125,156.6028807246685L261.1487630208333,156.61023345708847L262.3522135416667,156.59171880126L263.5556640625,156.87084706664086" style="fill: none;" fill="none"></path></g></g></g></g></g></g><g transform="translate(41, 177)" clip-path="url(#clip_1)"><clipPath id="clip_1"><rect width="288" height="23"></rect></clipPath><g><g><line x1="0" y1="0" x2="0" y2="5" style="visibility: inherit;" fill="rgb(0, 0, 0)" stroke="rgb(204, 204, 204)" stroke-width="1px"></line><line x1="24.069010416666664" y1="0" x2="24.069010416666664" y2="5" style="visibility: inherit;" fill="rgb(0, 0, 0)" stroke="rgb(204, 204, 204)" stroke-width="1px"></line><line x1="48.13802083333333" y1="0" x2="48.13802083333333" y2="5" style="visibility: inherit;" fill="rgb(0, 0, 0)" stroke="rgb(204, 204, 204)" stroke-width="1px"></line><line x1="72.20703125" y1="0" x2="72.20703125" y2="5" style="visibility: inherit;" fill="rgb(0, 0, 0)" stroke="rgb(204, 204, 204)" stroke-width="1px"></line><line x1="96.27604166666666" y1="0" x2="96.27604166666666" y2="5" style="visibility: inherit;" fill="rgb(0, 0, 0)" stroke="rgb(204, 204, 204)" stroke-width="1px"></line><line x1="120.34505208333334" y1="0" x2="120.34505208333334" y2="5" style="visibility: inherit;" fill="rgb(0, 0, 0)" stroke="rgb(204, 204, 204)" stroke-width="1px"></line><line x1="144.4140625" y1="0" x2="144.4140625" y2="5" style="visibility: inherit;" fill="rgb(0, 0, 0)" stroke="rgb(204, 204, 204)" stroke-width="1px"></line><line x1="168.48307291666669" y1="0" x2="168.48307291666669" y2="5" style="visibility: inherit;" fill="rgb(0, 0, 0)" stroke="rgb(204, 204, 204)" stroke-width="1px"></line><line x1="192.55208333333331" y1="0" x2="192.55208333333331" y2="5" style="visibility: inherit;" fill="rgb(0, 0, 0)" stroke="rgb(204, 204, 204)" stroke-width="1px"></line><line x1="216.62109375" y1="0" x2="216.62109375" y2="5" style="visibility: inherit;" fill="rgb(0, 0, 0)" stroke="rgb(204, 204, 204)" stroke-width="1px"></line><line x1="240.69010416666669" y1="0" x2="240.69010416666669" y2="5" style="visibility: inherit;" fill="rgb(0, 0, 0)" stroke="rgb(204, 204, 204)" stroke-width="1px"></line><line x1="264.7591145833333" y1="0" x2="264.7591145833333" y2="5" style="visibility: inherit;" fill="rgb(0, 0, 0)" stroke="rgb(204, 204, 204)" stroke-width="1px"></line><line x1="288.828125" y1="0" x2="288.828125" y2="5" style="visibility: inherit;" fill="rgb(0, 0, 0)" stroke="rgb(204, 204, 204)" stroke-width="1px"></line></g><g transform="translate(0, 8)"><text x="0" y="0" dx="0em" dy="0.95em" style="text-anchor: middle; visibility: hidden; font-family: Roboto, sans-serif; font-size: 12px; font-weight: 200;" fill="rgb(33, 33, 33)" stroke="none" stroke-width="1px">-20</text><text x="24.069010416666664" y="0" dx="0em" dy="0.95em" style="text-anchor: middle; visibility: inherit; font-family: Roboto, sans-serif; font-size: 12px; font-weight: 200;" fill="rgb(33, 33, 33)" stroke="none" stroke-width="1px">0</text><text x="48.13802083333333" y="0" dx="0em" dy="0.95em" style="text-anchor: middle; visibility: hidden; font-family: Roboto, sans-serif; font-size: 12px; font-weight: 200;" fill="rgb(33, 33, 33)" stroke="none" stroke-width="1px">20</text><text x="72.20703125" y="0" dx="0em" dy="0.95em" style="text-anchor: middle; visibility: inherit; font-family: Roboto, sans-serif; font-size: 12px; font-weight: 200;" fill="rgb(33, 33, 33)" stroke="none" stroke-width="1px">40</text><text x="96.27604166666666" y="0" dx="0em" dy="0.95em" style="text-anchor: middle; visibility: hidden; font-family: Roboto, sans-serif; font-size: 12px; font-weight: 200;" fill="rgb(33, 33, 33)" stroke="none" stroke-width="1px">60</text><text x="120.34505208333334" y="0" dx="0em" dy="0.95em" style="text-anchor: middle; visibility: inherit; font-family: Roboto, sans-serif; font-size: 12px; font-weight: 200;" fill="rgb(33, 33, 33)" stroke="none" stroke-width="1px">80</text><text x="144.4140625" y="0" dx="0em" dy="0.95em" style="text-anchor: middle; visibility: hidden; font-family: Roboto, sans-serif; font-size: 12px; font-weight: 200;" fill="rgb(33, 33, 33)" stroke="none" stroke-width="1px">100</text><text x="168.48307291666669" y="0" dx="0em" dy="0.95em" style="text-anchor: middle; visibility: inherit; font-family: Roboto, sans-serif; font-size: 12px; font-weight: 200;" fill="rgb(33, 33, 33)" stroke="none" stroke-width="1px">120</text><text x="192.55208333333331" y="0" dx="0em" dy="0.95em" style="text-anchor: middle; visibility: hidden; font-family: Roboto, sans-serif; font-size: 12px; font-weight: 200;" fill="rgb(33, 33, 33)" stroke="none" stroke-width="1px">140</text><text x="216.62109375" y="0" dx="0em" dy="0.95em" style="text-anchor: middle; visibility: inherit; font-family: Roboto, sans-serif; font-size: 12px; font-weight: 200;" fill="rgb(33, 33, 33)" stroke="none" stroke-width="1px">160</text><text x="240.69010416666669" y="0" dx="0em" dy="0.95em" style="text-anchor: middle; visibility: hidden; font-family: Roboto, sans-serif; font-size: 12px; font-weight: 200;" fill="rgb(33, 33, 33)" stroke="none" stroke-width="1px">180</text><text x="264.7591145833333" y="0" dx="0em" dy="0.95em" style="text-anchor: middle; visibility: inherit; font-family: Roboto, sans-serif; font-size: 12px; font-weight: 200;" fill="rgb(33, 33, 33)" stroke="none" stroke-width="1px">200</text><text x="288.828125" y="0" dx="0em" dy="0.95em" style="text-anchor: middle; visibility: hidden; font-family: Roboto, sans-serif; font-size: 12px; font-weight: 200;" fill="rgb(33, 33, 33)" stroke="none" stroke-width="1px">220</text></g><line x1="0" y1="0" x2="288.828125" y2="0" fill="rgb(0, 0, 0)" stroke="rgb(204, 204, 204)" stroke-width="1px"></line></g></g></g></g></svg>