<svg viewBox="0 0 330 200" xmlns="http://www.w3.org/2000/svg"><g><g><g><g><g><line x1="60" y1="177" x2="55" y2="177" style="visibility: inherit;" fill="rgb(0, 0, 0)" stroke="rgb(204, 204, 204)" stroke-width="1px"></line><line x1="60" y1="163.3846153846154" x2="55" y2="163.3846153846154" style="visibility: inherit;" fill="rgb(0, 0, 0)" stroke="rgb(204, 204, 204)" stroke-width="1px"></line><line x1="60" y1="149.76923076923077" x2="55" y2="149.76923076923077" style="visibility: inherit;" fill="rgb(0, 0, 0)" stroke="rgb(204, 204, 204)" stroke-width="1px"></line><line x1="60" y1="136.15384615384613" x2="55" y2="136.15384615384613" style="visibility: inherit;" fill="rgb(0, 0, 0)" stroke="rgb(204, 204, 204)" stroke-width="1px"></line><line x1="60" y1="122.53846153846153" x2="55" y2="122.53846153846153" style="visibility: inherit;" fill="rgb(0, 0, 0)" stroke="rgb(204, 204, 204)" stroke-width="1px"></line><line x1="60" y1="108.92307692307693" x2="55" y2="108.92307692307693" style="visibility: inherit;" fill="rgb(0, 0, 0)" stroke="rgb(204, 204, 204)" stroke-width="1px"></line><line x1="60" y1="95.3076923076923" x2="55" y2="95.3076923076923" style="visibility: inherit;" fill="rgb(0, 0, 0)" stroke="rgb(204, 204, 204)" stroke-width="1px"></line><line x1="60" y1="81.6923076923077" x2="55" y2="81.6923076923077" style="visibility: inherit;" fill="rgb(0, 0, 0)" stroke="rgb(204, 204, 204)" stroke-width="1px"></line><line x1="60" y1="68.07692307692307" x2="55" y2="68.07692307692307" style="visibility: inherit;" fill="rgb(0, 0, 0)" stroke="rgb(204, 204, 204)" stroke-width="1px"></line><line x1="60" y1="54.46153846153847" x2="55" y2="54.46153846153847" style="visibility: inherit;" fill="rgb(0, 0, 0)" stroke="rgb(204, 204, 204)" stroke-width="1px"></line><line x1="60" y1="40.84615384615384" x2="55" y2="40.84615384615384" style="visibility: inherit;" fill="rgb(0, 0, 0)" stroke="rgb(204, 204, 204)" stroke-width="1px"></line><line x1="60" y1="27.230769230769234" x2="55" y2="27.230769230769234" style="visibility: inherit;" fill="rgb(0, 0, 0)" stroke="rgb(204, 204, 204)" stroke-width="1px"></line><line x1="60" y1="13.615384615384606" x2="55" y2="13.615384615384606" style="visibility: inherit;" fill="rgb(0, 0, 0)" stroke="rgb(204, 204, 204)" stroke-width="1px"></line><line x1="60" y1="0" x2="55" y2="0" style="visibility: inherit;" fill="rgb(0, 0, 0)" stroke="rgb(204, 204, 204)" stroke-width="1px"></line></g><g transform="translate(50, 0)"><text x="0" y="177" dx="0em" dy="0.3em" style="text-anchor: end; visibility: hidden; font-family: Roboto, sans-serif; font-size: 12px; font-weight: 200;" fill="rgb(33, 33, 33)" stroke="none" stroke-width="1px">2e-3</text><text x="0" y="163.3846153846154" dx="0em" dy="0.3em" style="text-anchor: end; visibility: inherit; font-family: Roboto, sans-serif; font-size: 12px; font-weight: 200;" fill="rgb(33, 33, 33)" stroke="none" stroke-width="1px">3e-3</text><text x="0" y="149.76923076923077" dx="0em" dy="0.3em" style="text-anchor: end; visibility: hidden; font-family: Roboto, sans-serif; font-size: 12px; font-weight: 200;" fill="rgb(33, 33, 33)" stroke="none" stroke-width="1px">4e-3</text><text x="0" y="136.15384615384613" dx="0em" dy="0.3em" style="text-anchor: end; visibility: inherit; font-family: Roboto, sans-serif; font-size: 12px; font-weight: 200;" fill="rgb(33, 33, 33)" stroke="none" stroke-width="1px">5e-3</text><text x="0" y="122.53846153846153" dx="0em" dy="0.3em" style="text-anchor: end; visibility: hidden; font-family: Roboto, sans-serif; font-size: 12px; font-weight: 200;" fill="rgb(33, 33, 33)" stroke="none" stroke-width="1px">6e-3</text><text x="0" y="108.92307692307693" dx="0em" dy="0.3em" style="text-anchor: end; visibility: inherit; font-family: Roboto, sans-serif; font-size: 12px; font-weight: 200;" fill="rgb(33, 33, 33)" stroke="none" stroke-width="1px">7e-3</text><text x="0" y="95.3076923076923" dx="0em" dy="0.3em" style="text-anchor: end; visibility: hidden; font-family: Roboto, sans-serif; font-size: 12px; font-weight: 200;" fill="rgb(33, 33, 33)" stroke="none" stroke-width="1px">8e-3</text><text x="0" y="81.6923076923077" dx="0em" dy="0.3em" style="text-anchor: end; visibility: inherit; font-family: Roboto, sans-serif; font-size: 12px; font-weight: 200;" fill="rgb(33, 33, 33)" stroke="none" stroke-width="1px">9e-3</text><text x="0" y="68.07692307692307" dx="0em" dy="0.3em" style="text-anchor: end; visibility: hidden; font-family: Roboto, sans-serif; font-size: 12px; font-weight: 200;" fill="rgb(33, 33, 33)" stroke="none" stroke-width="1px">0.01</text><text x="0" y="54.46153846153847" dx="0em" dy="0.3em" style="text-anchor: end; visibility: inherit; font-family: Roboto, sans-serif; font-size: 12px; font-weight: 200;" fill="rgb(33, 33, 33)" stroke="none" stroke-width="1px">0.011</text><text x="0" y="40.84615384615384" dx="0em" dy="0.3em" style="text-anchor: end; visibility: hidden; font-family: Roboto, sans-serif; font-size: 12px; font-weight: 200;" fill="rgb(33, 33, 33)" stroke="none" stroke-width="1px">0.012</text><text x="0" y="27.230769230769234" dx="0em" dy="0.3em" style="text-anchor: end; visibility: inherit; font-family: Roboto, sans-serif; font-size: 12px; font-weight: 200;" fill="rgb(33, 33, 33)" stroke="none" stroke-width="1px">0.013</text><text x="0" y="13.615384615384606" dx="0em" dy="0.3em" style="text-anchor: end; visibility: hidden; font-family: Roboto, sans-serif; font-size: 12px; font-weight: 200;" fill="rgb(33, 33, 33)" stroke="none" stroke-width="1px">0.014</text><text x="0" y="0" dx="0em" dy="0.3em" style="text-anchor: end; visibility: hidden; font-family: Roboto, sans-serif; font-size: 12px; font-weight: 200;" fill="rgb(33, 33, 33)" stroke="none" stroke-width="1px">0.015</text></g><line x1="60" y1="0" x2="60" y2="177" fill="rgb(0, 0, 0)" stroke="rgb(204, 204, 204)" stroke-width="1px"></line></g></g><g transform="translate(60, 0)" clip-path="url(#clip_0)"><clipPath id="clip_0"><rect width="270" height="177"></rect></clipPath><g><g><g><line x1="0" y1="0" x2="0" y2="177" fill="rgb(0, 0, 0)" stroke="rgb(66, 66, 66)" stroke-width="1px" opacity="0.25"></line><line x1="22.5" y1="0" x2="22.5" y2="177" fill="rgb(0, 0, 0)" stroke="rgb(66, 66, 66)" stroke-width="1px" opacity="0.25"></line><line x1="45" y1="0" x2="45" y2="177" fill="rgb(0, 0, 0)" stroke="rgb(66, 66, 66)" stroke-width="1px" opacity="0.25"></line><line x1="67.5" y1="0" x2="67.5" y2="177" fill="rgb(0, 0, 0)" stroke="rgb(66, 66, 66)" stroke-width="1px" opacity="0.25"></line><line x1="90" y1="0" x2="90" y2="177" fill="rgb(0, 0, 0)" stroke="rgb(66, 66, 66)" stroke-width="1px" opacity="0.25"></line><line x1="112.5" y1="0" x2="112.5" y2="177" fill="rgb(0, 0, 0)" stroke="rgb(66, 66, 66)" stroke-width="1px" opacity="0.25"></line><line x1="135" y1="0" x2="135" y2="177" fill="rgb(0, 0, 0)" stroke="rgb(66, 66, 66)" stroke-width="1px" opacity="0.25"></line><line x1="157.5" y1="0" x2="157.5" y2="177" fill="rgb(0, 0, 0)" stroke="rgb(66, 66, 66)" stroke-width="1px" opacity="0.25"></line><line x1="180" y1="0" x2="180" y2="177" fill="rgb(0, 0, 0)" stroke="rgb(66, 66, 66)" stroke-width="1px" opacity="0.25"></line><line x1="202.5" y1="0" x2="202.5" y2="177" fill="rgb(0, 0, 0)" stroke="rgb(66, 66, 66)" stroke-width="1px" opacity="0.25"></line><line x1="225" y1="0" x2="225" y2="177" fill="rgb(0, 0, 0)" stroke="rgb(66, 66, 66)" stroke-width="1px" opacity="0.25"></line><line x1="247.5" y1="0" x2="247.5" y2="177" fill="rgb(0, 0, 0)" stroke="rgb(66, 66, 66)" stroke-width="1px" opacity="0.25"></line><line x1="270" y1="0" x2="270" y2="177" fill="rgb(0, 0, 0)" stroke="rgb(66, 66, 66)" stroke-width="1px" opacity="0.25"></line></g><g><line x1="0" y1="177" x2="270" y2="177" fill="rgb(0, 0, 0)" stroke="rgb(66, 66, 66)" stroke-width="1px" opacity="0.25"></line><line x1="0" y1="163.3846153846154" x2="270" y2="163.3846153846154" fill="rgb(0, 0, 0)" stroke="rgb(66, 66, 66)" stroke-width="1px" opacity="0.25"></line><line x1="0" y1="149.76923076923077" x2="270" y2="149.76923076923077" fill="rgb(0, 0, 0)" stroke="rgb(66, 66, 66)" stroke-width="1px" opacity="0.25"></line><line x1="0" y1="136.15384615384613" x2="270" y2="136.15384615384613" fill="rgb(0, 0, 0)" stroke="rgb(66, 66, 66)" stroke-width="1px" opacity="0.25"></line><line x1="0" y1="122.53846153846153" x2="270" y2="122.53846153846153" fill="rgb(0, 0, 0)" stroke="rgb(66, 66, 66)" stroke-width="1px" opacity="0.25"></line><line x1="0" y1="108.92307692307693" x2="270" y2="108.92307692307693" fill="rgb(0, 0, 0)" stroke="rgb(66, 66, 66)" stroke-width="1px" opacity="0.25"></line><line x1="0" y1="95.3076923076923" x2="270" y2="95.3076923076923" fill="rgb(0, 0, 0)" stroke="rgb(66, 66, 66)" stroke-width="1px" opacity="0.25"></line><line x1="0" y1="81.6923076923077" x2="270" y2="81.6923076923077" fill="rgb(0, 0, 0)" stroke="rgb(66, 66, 66)" stroke-width="1px" opacity="0.25"></line><line x1="0" y1="68.07692307692307" x2="270" y2="68.07692307692307" fill="rgb(0, 0, 0)" stroke="rgb(66, 66, 66)" stroke-width="1px" opacity="0.25"></line><line x1="0" y1="54.46153846153847" x2="270" y2="54.46153846153847" fill="rgb(0, 0, 0)" stroke="rgb(66, 66, 66)" stroke-width="1px" opacity="0.25"></line><line x1="0" y1="40.84615384615384" x2="270" y2="40.84615384615384" fill="rgb(0, 0, 0)" stroke="rgb(66, 66, 66)" stroke-width="1px" opacity="0.25"></line><line x1="0" y1="27.230769230769234" x2="270" y2="27.230769230769234" fill="rgb(0, 0, 0)" stroke="rgb(66, 66, 66)" stroke-width="1px" opacity="0.25"></line><line x1="0" y1="13.615384615384606" x2="270" y2="13.615384615384606" fill="rgb(0, 0, 0)" stroke="rgb(66, 66, 66)" stroke-width="1px" opacity="0.25"></line><line x1="0" y1="0" x2="270" y2="0" fill="rgb(0, 0, 0)" stroke="rgb(66, 66, 66)" stroke-width="1px" opacity="0.25"></line></g></g></g><g><g><line x1="0" y1="204.23076923076923" x2="270" y2="204.23076923076923" fill="rgb(0, 0, 0)" stroke="rgb(153, 153, 153)" stroke-width="1.5px"></line></g></g><g><g><line x1="22.5" y1="0" x2="22.5" y2="177" fill="rgb(0, 0, 0)" stroke="rgb(153, 153, 153)" stroke-width="1.5px"></line></g></g><g><g><g><g><g><path stroke="rgb(238, 51, 119)" stroke-width="2px" d="M30.599999999999998,-25.839091871793446L31.05,16.15555016467203L31.5,35.47991917683527L31.95,44.284939745870915L32.4,48.14402878857575L32.85,49.73857840666405L33.300000000000004,50.54237089764613L33.75,50.97483304257576L34.2,51.060805578644455L34.65,50.7760564237833L35.1,50.13280940170471L35.55,49.2309853950372L36,48.1857089841595L36.45,47.11249783921699L36.9,46.14672700373025L37.35,45.44431363160793L37.800000000000004,45.175922083166924L38.25,45.50226267140645L38.7,46.55467809965977L39.15,48.40341731332814L39.6,51.0393378052574L40.050000000000004,54.36585361567826L40.5,58.22003537645706L40.95,62.415786783855694L41.4,66.7866279815252L41.85,71.19637238578154L42.300000000000004,75.53239343831173L42.75,79.69087739976553L43.2,83.5971245341576L43.65,87.24182749023804L44.1,90.68633363223992L44.550000000000004,94.03114713728428L45,97.3624307461656L45.45,100.72208021982357L45.900000000000006,104.10670991413868L46.35,107.49032518324944L46.800000000000004,110.8425566726006L47.25,114.14125187179216L47.7,117.36808772557056L48.150000000000006,120.50726456137804L48.6,123.5421838468084L49.050000000000004,126.45916352191797L49.5,129.25123575358435L49.95,131.91263733861538L50.400000000000006,134.44105411951358L50.849999999999994,136.83556677343753L51.3,139.09309398382902L51.75,141.21213947351163L52.199999999999996,143.19316607398483L52.65,145.03615476477606L53.099999999999994,146.74591772544844L53.55,148.32716569304466L54,149.78304338569825L54.449999999999996,151.12008116566216L54.9,152.34372205817354L55.349999999999994,153.4588828553947L55.8,154.47328903927254L56.25,155.39219660039706L56.699999999999996,156.22017996242414L57.15,156.96466027973938L57.6,157.63042437127578L58.05,158.22207836147683L58.5,158.7453442425109L58.949999999999996,159.2040895104695L59.4,159.60388399374025L59.85,159.94793898211074L60.3,160.2407274567164L60.75,160.4859298790017L61.199999999999996,160.68828551671825L61.65,160.85167137619393L62.1,160.97978059918833L62.55,161.07696887392265L63,161.14723366971774L63.449999999999996,161.19540301653055L63.9,161.22503691281264L64.35000000000001,161.24239943420085L64.8,161.24971914606598L65.25,161.25436648153342L65.7,161.25904868786725L66.15,161.268961524161L66.60000000000001,161.2891485857276L67.05,161.322586576526L67.5,161.37276258319616L67.94999999999999,161.44215560733127L68.4,161.53235068831307L68.85,161.6444700340239L69.3,161.77775282556047L69.75,161.92845202982426L70.2,162.0958131680695L70.64999999999999,162.27435200403517L71.1,162.45981429202052L71.55,162.64754318632185L72,162.83097979397726L72.44999999999999,163.0081998771773L72.9,163.17435004533482L73.35,163.3286187582864L73.8,163.47021666641993L74.25,163.59986337761467L74.7,163.72206040371495L75.14999999999999,163.8402314297855L75.60000000000001,163.9577779503396L76.05,164.0796960095087L76.5,164.20652135060382L76.94999999999999,164.3369415610169L77.4,164.46784045332325L77.85,164.5893717628832L78.3,164.68815775731434L78.75,164.74843363492536L79.2,164.75077632313165L79.64999999999999,164.67822907062677L80.10000000000001,164.51866632614L80.55,164.26906066445204L81,163.93555886828554L81.45,163.5306668983629L81.9,163.07042218314913L82.35,162.5570818187239L82.8,161.98281571054113L83.25,161.32879993090262L83.7,160.57223210326183L84.14999999999999,159.69240527313488L84.60000000000001,158.6672778828786L85.05,157.469641146465L85.5,156.065663983329L85.95,154.4207671743173L86.4,152.496088723867L86.85,150.26183306167906L87.3,147.6867971024834L87.75,144.75952735170722L88.2,141.4857172708099L88.64999999999999,137.90093514351892L89.10000000000001,134.0684557419557L89.55,130.09254295665485L90,126.09913133657896L90.45,122.235350577304L90.9,118.64247840900833L91.35,115.44813586255678L91.80000000000001,112.73936696064013L92.25,110.56106001855089L92.7,108.91377931030897L93.14999999999999,107.76104990966046L93.60000000000001,107.04168295631042L94.05,106.67784667645509L94.5,106.59463210891073L94.95,106.71404897593534L95.4,106.972911267613L95.85,107.32390872847574L96.30000000000001,107.72792258658087L96.75,108.16060029686643L97.2,108.60628167024025L97.65,109.06094704683011L98.10000000000001,109.52568693373067L98.55,110.00632159555188L99,110.51021829534037L99.45,111.04656392135298L99.9,111.62724626895326L100.35,112.26073578859751L100.80000000000001,112.95611158586466L101.25,113.7224464261761L101.69999999999999,114.56540841036117L102.15,115.4930939195821L102.6,116.50137551128864L103.05,117.59853977136886L103.5,118.77630645409226L103.95,120.03563926340296L104.39999999999999,121.36243134880296L104.85,122.74425600153896L105.3,124.16306279313105L105.75,125.58697341153255L106.19999999999999,126.9793037052911L106.65,128.29138662522803L107.1,129.46089842285102L107.55,130.41097102830042L108,131.05495350865218L108.45,131.29915735612695L108.89999999999999,131.05123817634123L109.35000000000001,130.24639321920964L109.8,128.8808374106884L110.25,127.0456217530255L110.69999999999999,124.95092880840485L111.15,122.9073311932958L111.6,121.2354316533758L112.05,120.14954019337893L112.5,119.68355129544551L112.95,119.73463394464208L113.39999999999999,120.15798528320515L113.85000000000001,120.83169042204435L114.3,121.68763070868758L114.75,122.71513565801656L115.2,123.91052163850802L115.65,125.24390114757878L116.1,126.69746468273493L116.55,128.27267048020775L117,129.95271712255018L117.45,131.71713224110695L117.89999999999999,133.55201821057844L118.35000000000001,135.44828958522814L118.8,137.38855531295906L119.25,139.35702206137088L119.7,141.3486177044419L120.15,143.35588621692014L120.6,145.38515507601772L121.05,147.460168171674L121.5,149.64087169330853L121.95,152.06145824506305L122.39999999999999,154.9835258965882L122.85000000000001,158.82576280058575L123.3,163.86479002996705L123.75,168.80742150430495L124.2,170.06347962225286L124.65,171.71221539664728L125.1,169.0520881832792L125.55000000000001,139.48852960879987L126,158.42651040078354L126.45,136.1899104914986L126.89999999999999,155.9395043587742L127.35000000000001,156.45676294055122L127.8,148.1527542996292L128.25,50.61808505883583L128.70000000000002,-160.71113265477692L129.15,126.45322279431498L129.6,-306.1127548951369L130.5,-634.4493261667399L130.95,23.50722910406497L131.4,67.90045417558687L131.85,73.4582996654969L132.3,36.90105280623986L132.75,100.59244935902265L133.20000000000002,88.9873108984186L133.65,108.14295563846827L134.1,110.98341595238217L134.55,104.67079372933277L135,53.68790057129584L135.45000000000002,82.492643732291L135.89999999999998,61.770827919244766L136.35,79.764905079053L136.8,77.40946047581158L137.25,86.01070838192335L137.7,93.67693521655522L138.15,109.79588542706692L138.6,107.2075414772217L139.05,60.50939017763504L139.5,28.72580008438L139.95,99.95123752751029L140.4,83.14393007411407L140.85,82.19250067495382L141.29999999999998,90.94986862001511L141.75,85.31059014682586L142.2,91.036120123015L142.65,99.61702880377953L143.1,106.2780109821604L143.54999999999998,114.13688984341347L144,96.75930424091908L144.45000000000002,33.33376317356642L144.89999999999998,66.5076737306439L145.35,107.19415106452429L145.8,87.53740563415563L146.25,97.20073136859214L146.7,97.97161844200812L147.15,92.82639040396764L147.6,105.11450965387317L148.05,112.868985141126L148.5,112.2460202829769L148.95,87.30809481671223L149.4,44.18709843491133L149.85000000000002,81.58037114601868L150.29999999999998,103.19602870740569L150.75,93.09014095709874L151.20000000000002,103.11685282020613L151.65,103.023779307707L152.1,103.86352049186826L152.54999999999998,114.71782579731482L153,110.88166276422831L153.45000000000002,77.63989984129483L153.89999999999998,56.73222865049656L154.35,90.46294452192691L154.8,97.97330492391035L155.25,96.0363360780936L155.7,104.05541803974373L156.15,104.73367541168744L156.6,111.96684412658215L157.05,121.31541908073885L157.5,102.20848577097058L157.95,36.94558607271084L158.4,71.13691438849156L158.85000000000002,116.20063013898638L159.29999999999998,90.72117913800938L159.75,97.51661069691181L160.20000000000002,102.54256135139329L160.65,93.67954736145643L161.1,103.708281734815L161.55,112.14462848380208L162,118.11363952950789L162.45000000000002,120.33200992701146L162.9,79.28297702509622L163.35,28.86109904601022L163.8,105.35920803363507L164.25,111.55775814245527L164.7,82.07769310245148L165.15,101.40294973666852L165.6,100.9454693301366L166.05,93.76748534635855L166.5,105.54110081293261L166.95,109.13136083632708L167.4,114.95683705577484L167.85000000000002,126.5604411982573L168.29999999999998,106.53265706908243L168.75,23.91178187555991L169.20000000000002,78.45447060007314L169.64999999999998,124.35120696775043L170.1,76.53505131029165L170.55,95.77042987140325L171,109.64539544800154L171.45,91.16689221217081L171.9,103.61671717980734L172.35,108.88949016682231L172.8,105.14589977379029L173.25,118.15341767783349L173.7,126.80280005989167L174.15,105.8335532591893L174.6,38.976338528669785L175.04999999999998,77.44941614854793L175.5,122.7654384678373L175.95,90.38451677331558L176.4,96.09570531317821L176.85,106.28553040898763L177.29999999999998,94.48058822407171L177.75,102.39370079281238L178.20000000000002,108.98161899584991L178.64999999999998,109.13729522377253L179.1,122.4662464341292L179.55,130.0130183607913L180,91.75775685275977L180.45,11.551378489686892L180.9,107.9317523109225L181.35,113.0964953538317L181.8,60.150549941911144L182.25,111.35693365278152L182.7,110.90581242424938L183.15,86.6561871394515L183.60000000000002,106.45791295199439L184.04999999999998,106.59718719239419L184.5,98.21521997451782L184.95000000000002,109.47366594122006L185.4,115.64553032700832L185.85,123.26319155498192L186.29999999999998,128.02497320593548L186.75,84.30126242912732L187.20000000000002,25.483798573796552L187.64999999999998,116.36839070715583L188.1,112.8521710433639L188.55,69.76395327597857L189,109.6046282351017L189.45,109.50595636350604L189.9,92.76499231847433L190.35,107.92551359591576L190.8,108.00293325948027L191.25,103.04530414251181L191.7,115.40493402916653L192.15,125.78573100985243L192.60000000000002,127.81627424061298L193.04999999999998,93.32285009897672L193.5,29.522669123342393L193.95000000000002,108.90941728193027L194.4,118.83793278525656L194.85,70.48135478049517L195.3,106.36045205048643L195.75,112.20561445905611L196.20000000000002,92.3740582053478L196.65,107.45408484282402L197.1,109.91139675705477L197.55,102.59807577070134L198,114.86130356215513L198.45,126.53372377443773L198.9,129.25106456933113L199.35,98.2584915496409L199.8,28.27438086844407L200.25,106.52664025958913L200.7,120.47385193120974L201.15,65.78006457250851L201.60000000000002,107.96530442455641L202.04999999999998,114.64779241726949L202.5,89.69435258553578L202.95000000000002,107.71271254867315L203.39999999999998,110.43154962074297L203.85,99.47528824210167L204.3,111.05384876235172L204.75,120.01189537346363L205.2,126.57404717631066L205.65,129.64611978485033L206.1,75.54304490295739L206.55,35.73798894882202L207,128.6548868767344L207.45,103.40812599716278L207.9,69.75793012632774L208.35,119.87248798975578L208.79999999999998,105.17146962909743L209.25,92.98218075472576L209.7,112.29501068018949L210.15,105.60677850475678L210.6,100.82562767255766L211.04999999999998,112.05967037293775L211.5,114.1528036388067L211.95000000000002,121.72513908061845L212.39999999999998,136.34869339660955L212.85,113.48294063542897L213.3,13.847783546035092L213.75,95.57563487153786L214.2,121.9920280117255L214.65,44.636488800438556L215.1,115.03326131460759L215.55,117.60933705963767L216,77.3788248346402L216.45,112.71169217303395L216.9,113.40065807104111L217.35000000000002,94.70964543521404L217.79999999999998,110.73171169855273L218.25,112.54318980643383L218.70000000000002,106.02013775505698L219.15,120.0868106748049L219.6,133.47521988245157L220.04999999999998,132.05203204200816L220.5,77.01208476263741L220.95000000000002,40.08236632897302L221.39999999999998,132.1561754695498L221.85,95.66730086906597L222.3,70.62285441618698L222.75,127.91802742876685L223.2,95.15765364640033L223.65,96.78060717021043L224.1,118.60294752682631L224.55,101.50686491853915L225,104.63816727869785L225.45,113.9848655462265L225.9,106.38193884434608L226.35000000000002,111.10137458317554L226.79999999999998,122.75047569607312L227.25,131.5471843185906L227.70000000000002,134.6331735729025L228.15,77.07203729221455L228.6,39.00593438400671L229.05,134.2076919414103L229.5,90.78392133689843L229.95000000000002,69.68954518723945L230.4,130.27431527295937L230.85,88.12442813928311L231.3,100.24795689978278L231.75,121.50299898133828L232.2,97.06328943371773L232.65,107.86687347894677L233.1,115.37831170770986L233.55,102.86443212857613L234,110.95442875216787L234.45,117.09615836922939L234.9,118.05066908494784L235.35000000000002,135.1776028997623L235.79999999999998,138.0474878847599L236.25,63.17045573431711L236.70000000000002,47.30580924222103L237.14999999999998,140.46471732310377L237.6,74.46022207920367L238.05,79.95247229933739L238.5,130.51711794562067L238.95,70.26284759147809L239.4,110.41535685841853L239.85,121.79558457090303L240.3,87.61163619848398L240.75,115.68991142969864L241.2,115.06999618732011L241.65,98.27979447893225L242.1,115.5281866914951L242.54999999999998,112.8777535789861L243,107.3148486433694L243.45,123.83457923164734L243.9,134.14346614565986L244.35,139.87463252189067L244.79999999999998,96.0592113664517L245.25,24.591814491611256L245.70000000000002,111.06112092303542L246.14999999999998,106.59539292781398L246.6,28.63049483643128L247.05,137.23328485511814" style="fill: none;" fill="none"></path></g></g></g></g></g></g><g transform="translate(60, 177)" clip-path="url(#clip_1)"><clipPath id="clip_1"><rect width="270" height="23"></rect></clipPath><g><g><line x1="0" y1="0" x2="0" y2="5" style="visibility: inherit;" fill="rgb(0, 0, 0)" stroke="rgb(204, 204, 204)" stroke-width="1px"></line><line x1="22.5" y1="0" x2="22.5" y2="5" style="visibility: inherit;" fill="rgb(0, 0, 0)" stroke="rgb(204, 204, 204)" stroke-width="1px"></line><line x1="45" y1="0" x2="45" y2="5" style="visibility: inherit;" fill="rgb(0, 0, 0)" stroke="rgb(204, 204, 204)" stroke-width="1px"></line><line x1="67.5" y1="0" x2="67.5" y2="5" style="visibility: inherit;" fill="rgb(0, 0, 0)" stroke="rgb(204, 204, 204)" stroke-width="1px"></line><line x1="90" y1="0" x2="90" y2="5" style="visibility: inherit;" fill="rgb(0, 0, 0)" stroke="rgb(204, 204, 204)" stroke-width="1px"></line><line x1="112.5" y1="0" x2="112.5" y2="5" style="visibility: inherit;" fill="rgb(0, 0, 0)" stroke="rgb(204, 204, 204)" stroke-width="1px"></line><line x1="135" y1="0" x2="135" y2="5" style="visibility: inherit;" fill="rgb(0, 0, 0)" stroke="rgb(204, 204, 204)" stroke-width="1px"></line><line x1="157.5" y1="0" x2="157.5" y2="5" style="visibility: inherit;" fill="rgb(0, 0, 0)" stroke="rgb(204, 204, 204)" stroke-width="1px"></line><line x1="180" y1="0" x2="180" y2="5" style="visibility: inherit;" fill="rgb(0, 0, 0)" stroke="rgb(204, 204, 204)" stroke-width="1px"></line><line x1="202.5" y1="0" x2="202.5" y2="5" style="visibility: inherit;" fill="rgb(0, 0, 0)" stroke="rgb(204, 204, 204)" stroke-width="1px"></line><line x1="225" y1="0" x2="225" y2="5" style="visibility: inherit;" fill="rgb(0, 0, 0)" stroke="rgb(204, 204, 204)" stroke-width="1px"></line><line x1="247.5" y1="0" x2="247.5" y2="5" style="visibility: inherit;" fill="rgb(0, 0, 0)" stroke="rgb(204, 204, 204)" stroke-width="1px"></line><line x1="270" y1="0" x2="270" y2="5" style="visibility: inherit;" fill="rgb(0, 0, 0)" stroke="rgb(204, 204, 204)" stroke-width="1px"></line></g><g transform="translate(0, 8)"><text x="0" y="0" dx="0em" dy="0.95em" style="text-anchor: middle; visibility: hidden; font-family: Roboto, sans-serif; font-size: 12px; font-weight: 200;" fill="rgb(33, 33, 33)" stroke="none" stroke-width="1px">-50</text><text x="22.5" y="0" dx="0em" dy="0.95em" style="text-anchor: middle; visibility: inherit; font-family: Roboto, sans-serif; font-size: 12px; font-weight: 200;" fill="rgb(33, 33, 33)" stroke="none" stroke-width="1px">0</text><text x="45" y="0" dx="0em" dy="0.95em" style="text-anchor: middle; visibility: hidden; font-family: Roboto, sans-serif; font-size: 12px; font-weight: 200;" fill="rgb(33, 33, 33)" stroke="none" stroke-width="1px">50</text><text x="67.5" y="0" dx="0em" dy="0.95em" style="text-anchor: middle; visibility: inherit; font-family: Roboto, sans-serif; font-size: 12px; font-weight: 200;" fill="rgb(33, 33, 33)" stroke="none" stroke-width="1px">100</text><text x="90" y="0" dx="0em" dy="0.95em" style="text-anchor: middle; visibility: hidden; font-family: Roboto, sans-serif; font-size: 12px; font-weight: 200;" fill="rgb(33, 33, 33)" stroke="none" stroke-width="1px">150</text><text x="112.5" y="0" dx="0em" dy="0.95em" style="text-anchor: middle; visibility: inherit; font-family: Roboto, sans-serif; font-size: 12px; font-weight: 200;" fill="rgb(33, 33, 33)" stroke="none" stroke-width="1px">200</text><text x="135" y="0" dx="0em" dy="0.95em" style="text-anchor: middle; visibility: hidden; font-family: Roboto, sans-serif; font-size: 12px; font-weight: 200;" fill="rgb(33, 33, 33)" stroke="none" stroke-width="1px">250</text><text x="157.5" y="0" dx="0em" dy="0.95em" style="text-anchor: middle; visibility: inherit; font-family: Roboto, sans-serif; font-size: 12px; font-weight: 200;" fill="rgb(33, 33, 33)" stroke="none" stroke-width="1px">300</text><text x="180" y="0" dx="0em" dy="0.95em" style="text-anchor: middle; visibility: hidden; font-family: Roboto, sans-serif; font-size: 12px; font-weight: 200;" fill="rgb(33, 33, 33)" stroke="none" stroke-width="1px">350</text><text x="202.5" y="0" dx="0em" dy="0.95em" style="text-anchor: middle; visibility: inherit; font-family: Roboto, sans-serif; font-size: 12px; font-weight: 200;" fill="rgb(33, 33, 33)" stroke="none" stroke-width="1px">400</text><text x="225" y="0" dx="0em" dy="0.95em" style="text-anchor: middle; visibility: hidden; font-family: Roboto, sans-serif; font-size: 12px; font-weight: 200;" fill="rgb(33, 33, 33)" stroke="none" stroke-width="1px">450</text><text x="247.5" y="0" dx="0em" dy="0.95em" style="text-anchor: middle; visibility: inherit; font-family: Roboto, sans-serif; font-size: 12px; font-weight: 200;" fill="rgb(33, 33, 33)" stroke="none" stroke-width="1px">500</text><text x="270" y="0" dx="0em" dy="0.95em" style="text-anchor: middle; visibility: hidden; font-family: Roboto, sans-serif; font-size: 12px; font-weight: 200;" fill="rgb(33, 33, 33)" stroke="none" stroke-width="1px">550</text></g><line x1="0" y1="0" x2="270" y2="0" fill="rgb(0, 0, 0)" stroke="rgb(204, 204, 204)" stroke-width="1px"></line></g></g></g></g></svg>