<svg viewBox="0 0 330 200" xmlns="http://www.w3.org/2000/svg"><g><g><g><g><g><line x1="72.34375" y1="177" x2="67.34375" y2="177" style="visibility: inherit;" fill="rgb(0, 0, 0)" stroke="rgb(204, 204, 204)" stroke-width="1px"></line><line x1="72.34375" y1="160.9090909090909" x2="67.34375" y2="160.9090909090909" style="visibility: inherit;" fill="rgb(0, 0, 0)" stroke="rgb(204, 204, 204)" stroke-width="1px"></line><line x1="72.34375" y1="144.8181818181818" x2="67.34375" y2="144.8181818181818" style="visibility: inherit;" fill="rgb(0, 0, 0)" stroke="rgb(204, 204, 204)" stroke-width="1px"></line><line x1="72.34375" y1="128.72727272727272" x2="67.34375" y2="128.72727272727272" style="visibility: inherit;" fill="rgb(0, 0, 0)" stroke="rgb(204, 204, 204)" stroke-width="1px"></line><line x1="72.34375" y1="112.63636363636364" x2="67.34375" y2="112.63636363636364" style="visibility: inherit;" fill="rgb(0, 0, 0)" stroke="rgb(204, 204, 204)" stroke-width="1px"></line><line x1="72.34375" y1="96.54545454545453" x2="67.34375" y2="96.54545454545453" style="visibility: inherit;" fill="rgb(0, 0, 0)" stroke="rgb(204, 204, 204)" stroke-width="1px"></line><line x1="72.34375" y1="80.45454545454544" x2="67.34375" y2="80.45454545454544" style="visibility: inherit;" fill="rgb(0, 0, 0)" stroke="rgb(204, 204, 204)" stroke-width="1px"></line><line x1="72.34375" y1="64.36363636363635" x2="67.34375" y2="64.36363636363635" style="visibility: inherit;" fill="rgb(0, 0, 0)" stroke="rgb(204, 204, 204)" stroke-width="1px"></line><line x1="72.34375" y1="48.272727272727266" x2="67.34375" y2="48.272727272727266" style="visibility: inherit;" fill="rgb(0, 0, 0)" stroke="rgb(204, 204, 204)" stroke-width="1px"></line><line x1="72.34375" y1="32.181818181818194" x2="67.34375" y2="32.181818181818194" style="visibility: inherit;" fill="rgb(0, 0, 0)" stroke="rgb(204, 204, 204)" stroke-width="1px"></line><line x1="72.34375" y1="16.090909090909076" x2="67.34375" y2="16.090909090909076" style="visibility: inherit;" fill="rgb(0, 0, 0)" stroke="rgb(204, 204, 204)" stroke-width="1px"></line><line x1="72.34375" y1="0" x2="67.34375" y2="0" style="visibility: inherit;" fill="rgb(0, 0, 0)" stroke="rgb(204, 204, 204)" stroke-width="1px"></line></g><g transform="translate(62.34375, 0)"><text x="0" y="177" dx="0em" dy="0.3em" style="text-anchor: end; visibility: hidden; font-family: Roboto, sans-serif; font-size: 12px; font-weight: 200;" fill="rgb(33, 33, 33)" stroke="none" stroke-width="1px">0</text><text x="0" y="160.9090909090909" dx="0em" dy="0.3em" style="text-anchor: end; visibility: inherit; font-family: Roboto, sans-serif; font-size: 12px; font-weight: 200;" fill="rgb(33, 33, 33)" stroke="none" stroke-width="1px">5e-4</text><text x="0" y="144.8181818181818" dx="0em" dy="0.3em" style="text-anchor: end; visibility: hidden; font-family: Roboto, sans-serif; font-size: 12px; font-weight: 200;" fill="rgb(33, 33, 33)" stroke="none" stroke-width="1px">1e-3</text><text x="0" y="128.72727272727272" dx="0em" dy="0.3em" style="text-anchor: end; visibility: inherit; font-family: Roboto, sans-serif; font-size: 12px; font-weight: 200;" fill="rgb(33, 33, 33)" stroke="none" stroke-width="1px">1.5e-3</text><text x="0" y="112.63636363636364" dx="0em" dy="0.3em" style="text-anchor: end; visibility: hidden; font-family: Roboto, sans-serif; font-size: 12px; font-weight: 200;" fill="rgb(33, 33, 33)" stroke="none" stroke-width="1px">2e-3</text><text x="0" y="96.54545454545453" dx="0em" dy="0.3em" style="text-anchor: end; visibility: inherit; font-family: Roboto, sans-serif; font-size: 12px; font-weight: 200;" fill="rgb(33, 33, 33)" stroke="none" stroke-width="1px">2.5e-3</text><text x="0" y="80.45454545454544" dx="0em" dy="0.3em" style="text-anchor: end; visibility: hidden; font-family: Roboto, sans-serif; font-size: 12px; font-weight: 200;" fill="rgb(33, 33, 33)" stroke="none" stroke-width="1px">3e-3</text><text x="0" y="64.36363636363635" dx="0em" dy="0.3em" style="text-anchor: end; visibility: inherit; font-family: Roboto, sans-serif; font-size: 12px; font-weight: 200;" fill="rgb(33, 33, 33)" stroke="none" stroke-width="1px">3.5e-3</text><text x="0" y="48.272727272727266" dx="0em" dy="0.3em" style="text-anchor: end; visibility: hidden; font-family: Roboto, sans-serif; font-size: 12px; font-weight: 200;" fill="rgb(33, 33, 33)" stroke="none" stroke-width="1px">4e-3</text><text x="0" y="32.181818181818194" dx="0em" dy="0.3em" style="text-anchor: end; visibility: inherit; font-family: Roboto, sans-serif; font-size: 12px; font-weight: 200;" fill="rgb(33, 33, 33)" stroke="none" stroke-width="1px">4.5e-3</text><text x="0" y="16.090909090909076" dx="0em" dy="0.3em" style="text-anchor: end; visibility: hidden; font-family: Roboto, sans-serif; font-size: 12px; font-weight: 200;" fill="rgb(33, 33, 33)" stroke="none" stroke-width="1px">5e-3</text><text x="0" y="0" dx="0em" dy="0.3em" style="text-anchor: end; visibility: hidden; font-family: Roboto, sans-serif; font-size: 12px; font-weight: 200;" fill="rgb(33, 33, 33)" stroke="none" stroke-width="1px">5.5e-3</text></g><line x1="72.34375" y1="0" x2="72.34375" y2="177" fill="rgb(0, 0, 0)" stroke="rgb(204, 204, 204)" stroke-width="1px"></line></g></g><g transform="translate(72, 0)" clip-path="url(#clip_0)"><clipPath id="clip_0"><rect width="257" height="177"></rect></clipPath><g><g><g><line x1="0" y1="0" x2="0" y2="177" fill="rgb(0, 0, 0)" stroke="rgb(66, 66, 66)" stroke-width="1px" opacity="0.25"></line><line x1="21.471354166666664" y1="0" x2="21.471354166666664" y2="177" fill="rgb(0, 0, 0)" stroke="rgb(66, 66, 66)" stroke-width="1px" opacity="0.25"></line><line x1="42.94270833333333" y1="0" x2="42.94270833333333" y2="177" fill="rgb(0, 0, 0)" stroke="rgb(66, 66, 66)" stroke-width="1px" opacity="0.25"></line><line x1="64.4140625" y1="0" x2="64.4140625" y2="177" fill="rgb(0, 0, 0)" stroke="rgb(66, 66, 66)" stroke-width="1px" opacity="0.25"></line><line x1="85.88541666666666" y1="0" x2="85.88541666666666" y2="177" fill="rgb(0, 0, 0)" stroke="rgb(66, 66, 66)" stroke-width="1px" opacity="0.25"></line><line x1="107.35677083333334" y1="0" x2="107.35677083333334" y2="177" fill="rgb(0, 0, 0)" stroke="rgb(66, 66, 66)" stroke-width="1px" opacity="0.25"></line><line x1="128.828125" y1="0" x2="128.828125" y2="177" fill="rgb(0, 0, 0)" stroke="rgb(66, 66, 66)" stroke-width="1px" opacity="0.25"></line><line x1="150.29947916666669" y1="0" x2="150.29947916666669" y2="177" fill="rgb(0, 0, 0)" stroke="rgb(66, 66, 66)" stroke-width="1px" opacity="0.25"></line><line x1="171.77083333333331" y1="0" x2="171.77083333333331" y2="177" fill="rgb(0, 0, 0)" stroke="rgb(66, 66, 66)" stroke-width="1px" opacity="0.25"></line><line x1="193.2421875" y1="0" x2="193.2421875" y2="177" fill="rgb(0, 0, 0)" stroke="rgb(66, 66, 66)" stroke-width="1px" opacity="0.25"></line><line x1="214.71354166666669" y1="0" x2="214.71354166666669" y2="177" fill="rgb(0, 0, 0)" stroke="rgb(66, 66, 66)" stroke-width="1px" opacity="0.25"></line><line x1="236.18489583333331" y1="0" x2="236.18489583333331" y2="177" fill="rgb(0, 0, 0)" stroke="rgb(66, 66, 66)" stroke-width="1px" opacity="0.25"></line><line x1="257.65625" y1="0" x2="257.65625" y2="177" fill="rgb(0, 0, 0)" stroke="rgb(66, 66, 66)" stroke-width="1px" opacity="0.25"></line></g><g><line x1="0" y1="177" x2="257.65625" y2="177" fill="rgb(0, 0, 0)" stroke="rgb(66, 66, 66)" stroke-width="1px" opacity="0.25"></line><line x1="0" y1="160.9090909090909" x2="257.65625" y2="160.9090909090909" fill="rgb(0, 0, 0)" stroke="rgb(66, 66, 66)" stroke-width="1px" opacity="0.25"></line><line x1="0" y1="144.8181818181818" x2="257.65625" y2="144.8181818181818" fill="rgb(0, 0, 0)" stroke="rgb(66, 66, 66)" stroke-width="1px" opacity="0.25"></line><line x1="0" y1="128.72727272727272" x2="257.65625" y2="128.72727272727272" fill="rgb(0, 0, 0)" stroke="rgb(66, 66, 66)" stroke-width="1px" opacity="0.25"></line><line x1="0" y1="112.63636363636364" x2="257.65625" y2="112.63636363636364" fill="rgb(0, 0, 0)" stroke="rgb(66, 66, 66)" stroke-width="1px" opacity="0.25"></line><line x1="0" y1="96.54545454545453" x2="257.65625" y2="96.54545454545453" fill="rgb(0, 0, 0)" stroke="rgb(66, 66, 66)" stroke-width="1px" opacity="0.25"></line><line x1="0" y1="80.45454545454544" x2="257.65625" y2="80.45454545454544" fill="rgb(0, 0, 0)" stroke="rgb(66, 66, 66)" stroke-width="1px" opacity="0.25"></line><line x1="0" y1="64.36363636363635" x2="257.65625" y2="64.36363636363635" fill="rgb(0, 0, 0)" stroke="rgb(66, 66, 66)" stroke-width="1px" opacity="0.25"></line><line x1="0" y1="48.272727272727266" x2="257.65625" y2="48.272727272727266" fill="rgb(0, 0, 0)" stroke="rgb(66, 66, 66)" stroke-width="1px" opacity="0.25"></line><line x1="0" y1="32.181818181818194" x2="257.65625" y2="32.181818181818194" fill="rgb(0, 0, 0)" stroke="rgb(66, 66, 66)" stroke-width="1px" opacity="0.25"></line><line x1="0" y1="16.090909090909076" x2="257.65625" y2="16.090909090909076" fill="rgb(0, 0, 0)" stroke="rgb(66, 66, 66)" stroke-width="1px" opacity="0.25"></line><line x1="0" y1="0" x2="257.65625" y2="0" fill="rgb(0, 0, 0)" stroke="rgb(66, 66, 66)" stroke-width="1px" opacity="0.25"></line></g></g></g><g><g><line x1="0" y1="177" x2="257.65625" y2="177" fill="rgb(0, 0, 0)" stroke="rgb(153, 153, 153)" stroke-width="1.5px"></line></g></g><g><g><line x1="21.471354166666664" y1="0" x2="21.471354166666664" y2="177" fill="rgb(0, 0, 0)" stroke="rgb(153, 153, 153)" stroke-width="1.5px"></line></g></g><g><g><g><g><g><path stroke="rgb(238, 51, 119)" stroke-width="2px" d="M26.624479166666667,-385.85902586850256L27.05390625,27.106214765797944L27.483333333333334,99.92970562861726L27.912760416666668,112.37639394741167L28.3421875,112.13275437395681L28.77161458333333,117.72506034916097L29.201041666666665,125.06038658134639L29.630468750000002,129.19500618986785L30.059895833333332,131.6776369468055L30.489322916666666,133.20425062423402L30.91875,134.56835799494928L31.348177083333336,135.8632458312945L31.777604166666666,137.05883008580315L32.20703125,138.19183352725074L32.63645833333334,139.26364609108052L33.06588541666667,140.2704051804136L33.495312500000004,141.2119309653274L33.92473958333333,142.08722688833421L34.354166666666664,142.89515028013423L34.78359375,143.63640172813427L35.21302083333333,144.31067402288318L35.64244791666667,144.91866775178775L36.071875000000006,145.46103854477406L36.501302083333336,145.93803928767076L36.930729166666666,146.3508763395419L37.360156249999996,146.70085346732628L37.78958333333333,146.99241022223777L38.21901041666667,147.23557961537418L38.6484375,147.4496371665631L39.07786458333334,147.6623778382147L39.50729166666667,147.90696526521987L39.93671875,148.21214039031076L40.366145833333334,148.5896371159364L40.795572916666664,149.0306063113226L41.225,149.5102183345536L41.65442708333333,150.00223487598652L42.08385416666667,150.49116059062496L42.51328125,150.9745209438049L42.94270833333333,151.45946792140603L43.372135416666666,151.95341950773516L43.8015625,152.46123673038727L44.23098958333333,152.98353400826454L44.66041666666667,153.52014649727127L45.08984375,154.07044479267842L45.51927083333333,154.63495152519846L45.94869791666667,155.214168720032L46.378125,155.80666897716847L46.807552083333334,156.40893250051886L47.236979166666664,157.01598961524326L47.66640625,157.62262900004333L48.09583333333334,158.22460966591132L48.52526041666666,158.81932969865474L48.9546875,159.40432018329474L49.384114583333336,159.97679000957444L49.813541666666666,160.53370642077854L50.24296875,161.07184184444222L50.67239583333333,161.5892209612595L51.10182291666667,162.08394057121635L51.53125,162.5542566987093L51.96067708333333,162.9993713484569L52.39010416666667,163.41872442517936L52.81953125,163.8114767225713L53.248958333333334,164.17838877134702L53.67838541666667,164.52053486797112L54.1078125,164.83811732110652L54.53723958333333,165.13275085359982L54.96666666666667,165.40621690562165L55.39609375,165.65939776772973L55.825520833333336,165.89472676356408L56.254947916666666,166.1131536199034L56.684375,166.3174376021224L57.11380208333333,166.50850970471618L57.54322916666666,166.68861030880362L57.97265625,166.85889051321217L58.40208333333333,167.02158414276147L58.83151041666667,167.17752291084352L59.260937500000004,167.3288966214115L59.690364583333334,167.4763993055729L60.119791666666664,167.6219154310582L60.549218749999994,167.76609407149425L60.97864583333333,167.91020433909515L61.40807291666667,168.05513414410368L61.8375,168.20115510463208L62.266927083333336,168.34907083564693L62.69635416666667,168.49891505525872L63.125781249999996,168.6503552654335L63.55520833333333,168.80299808821556L63.98463541666666,168.9559696625749L64.4140625,169.1075587944043L64.84348958333332,169.25665559590033L65.27291666666667,169.40086935936813L65.70234375,169.53768574404106L66.13177083333333,169.66451875816776L66.56119791666667,169.7781314631416L66.99062500000001,169.87547986287709L67.42005208333333,169.9535297957376L67.84947916666665,170.00930891662244L68.27890625,170.04033660287544L68.70833333333333,170.04442024070093L69.13776041666667,170.02021906689995L69.5671875,169.96692150528543L69.99661458333334,169.8846624282993L70.42604166666666,169.77414710641924L70.85546875,169.6371321595401L71.28489583333334,169.47578116641805L71.71432291666666,169.29276722392322L72.14375000000001,169.0914284249937L72.57317708333333,168.87511269701645L73.00260416666667,168.6474386488765L73.43203125,168.4118324152448L73.86145833333333,168.17074417881668L74.29088541666667,167.925925408109L74.72031249999999,167.67745477871293L75.14973958333334,167.4222751819444L75.57916666666667,167.1552155709148L76.00859375,166.867571990048L76.43802083333334,166.54779224004596L76.86744791666666,166.1832376491617L77.296875,165.76242532754657L77.72630208333334,165.2770269019106L78.15572916666667,164.72339145017958L78.58515625,164.10250803692773L79.01458333333333,163.41510160153055L79.44401041666667,162.65985807429323L79.8734375,161.8314518669874L80.30286458333333,160.92192925199527L80.73229166666667,159.9222378532656L81.16171875,158.82476206089962L81.59114583333333,157.61962621498176L82.02057291666667,156.29675422016192L82.45,154.84841900945386L82.87942708333333,153.26758473713627L83.30885416666666,151.55531914337453L83.73828125,149.7145219856704L84.16770833333334,147.76130302792245L84.59713541666666,145.71914131439883L85.0265625,143.62620012648404L85.45598958333333,141.5269892432473L85.88541666666666,139.47901864857837L86.31484375000001,137.5375186074525L86.74427083333333,135.76182175495407L87.17369791666667,134.19544318589297L87.603125,132.87634574621916L88.03255208333333,131.81905444863844L88.46197916666667,131.0296160742979L88.89140624999999,130.49293240261346L89.32083333333334,130.1870716759427L89.75026041666666,130.0817063271322L90.1796875,130.14120005985552L90.60911458333334,130.32970302975312L91.03854166666666,130.61342969011855L91.46796875,130.96236342970622L91.89739583333333,131.3545799837871L92.32682291666667,131.7683124388145L92.75625,132.19558458843014L93.18567708333335,132.6249472608959L93.61510416666667,133.05679383416742L94.04453124999999,133.48838190192527L94.47395833333333,133.92360028624535L94.90338541666667,134.3663190769201L95.3328125,134.8177746046673L95.76223958333333,135.28414103016257L96.19166666666668,135.7672616101124L96.62109375,136.2710251665928L97.05052083333332,136.79572766968474L97.47994791666667,137.34227950837123L97.909375,137.91171095825055L98.33880208333333,138.49877323345706L98.76822916666667,139.10358622060582L99.19765625000001,139.71906911649486L99.62708333333333,140.3407111872326L100.05651041666665,140.9594460075552L100.4859375,141.5650869616392L100.91536458333333,142.14751486988231L101.34479166666667,142.68970957940275L101.77421875,143.1767751782794L102.20364583333334,143.59041022543204L102.63307291666666,143.90935357897118L103.0625,144.11359916000882L103.49192708333334,144.18003882349214L103.92135416666666,144.0900601724332L104.35078125000001,143.82802549648014L104.78020833333333,143.39012839560482L105.20963541666667,142.80250789834693L105.6390625,142.12632865712723L106.06848958333333,141.46871310895816L106.49791666666667,140.96464983594012L106.92734374999999,140.71740991757676L107.35677083333334,140.74825824221426L107.78619791666667,140.99115976369515L108.215625,141.37021501531655L108.64505208333334,141.84804185192016L109.07447916666666,142.41161758994514L109.50390625,143.0437497395006L109.93333333333334,143.73522576351058L110.36276041666667,144.4902004824782L110.7921875,145.30497614362022L111.22161458333333,146.16800616732374L111.65104166666667,147.0745924968611L112.08046875,148.0184485778551L112.50989583333333,148.9897399614142L112.93932291666667,149.98027127346194L113.36875,150.98031858558005L113.79817708333333,151.98588630167598L114.22760416666667,152.98474036732858L114.65703125,153.97601722426373L115.08645833333333,154.95289832124993L115.51588541666666,155.91993560320273L115.9453125,156.88311403473332L116.37473958333334,157.85578598759392L116.80416666666666,158.83391652789643L117.23359375,159.65639490405604L117.66302083333333,159.39014921074903L118.09244791666666,154.68378096886656L118.52187500000001,140.24211193925956L118.95130208333333,124.81015699051999L119.38072916666667,132.8073060417717L119.81015625,146.2090373613279L120.23958333333333,143.64608257230032L120.66901041666667,156.85193602190438L121.09843749999999,166.6656108109958L121.52786458333334,163.57950455195862L121.95729166666666,121.26825680685313L122.38671875,19.23203191703015L122.81614583333334,-10.982976690612059L123.24557291666666,126.55419253727251L123.675,131.14736346257L124.10442708333333,-185.70952089266345L124.53385416666667,-11.97352486171506L124.96328125,78.1796286583624L125.39270833333335,109.0546505464749L125.82213541666667,67.63173452053557L126.25156249999999,139.09404774179512L126.68098958333333,90.49812821400435L127.11041666666667,126.26533323119988L127.53984375,74.20980069515379L127.96927083333333,44.40207689052277L128.39869791666666,21.584012488749888L128.828125,115.92553603191944L129.25755208333334,97.5147995698181L129.68697916666665,123.9694146378474L130.11640625,107.72210332717408L130.54583333333335,125.6685151826929L130.97526041666666,113.91457668319345L131.4046875,116.17043066837572L131.83411458333333,66.00477574630216L132.26354166666667,-27.3967280875553L132.69296875,24.062023864551012L133.12239583333334,99.22916317934339L133.55182291666665,113.37895325876094L133.98125000000002,133.8685910622166L134.41067708333333,121.91068421947685L134.84010416666666,133.45155048590493L135.26953125,131.39472701400518L135.6989583333333,133.8793471394615L136.12838541666667,129.26152827539906L136.5578125,112.93024013733321L136.98723958333332,46.59618177603591L137.41666666666666,-11.14387951384893L137.84609375,90.6358179914003L138.27552083333333,116.51308534649962L138.70494791666667,138.19759557768703L139.134375,137.61169845052063L139.56380208333331,136.11456189456987L139.99322916666668,139.3103531670164L140.42265625000002,136.75794090720063L140.85208333333333,129.94281393712893L141.28151041666666,104.35055453059347L141.7109375,40.09243780984119L142.14036458333334,32.374976738610044L142.56979166666667,112.55454545739022L142.99921875,126.9108177525076L143.42864583333332,141.83050094155425L143.85807291666666,141.18363397771662L144.28750000000002,140.2017513610084L144.71692708333333,137.33798981542614L145.14635416666667,126.2609798484905L145.57578124999998,93.87259924682704L146.00520833333334,41.20940641652454L146.43463541666668,68.297082755376L146.8640625,124.41874967109074L147.29348958333333,133.84851005419412L147.72291666666666,142.65955809571525L148.15234375,143.2747600073503L148.58177083333334,143.68300015682524L149.01119791666667,139.03752120279452L149.44062499999998,119.77005625719374L149.87005208333332,56.18729830363934L150.29947916666669,-4.459451432932525L150.72890625,96.29370943795551L151.15833333333333,122.22256550209767L151.58776041666667,144.40385589443824L152.0171875,142.51876999861136L152.44661458333334,142.3125650207089L152.87604166666668,145.4768410992216L153.30546875,144.76992218060926L153.73489583333333,142.83844765766779L154.1643229166667,136.4287884590978L154.59375,102.35657787018202L155.02317708333334,13.978870190002699L155.45260416666667,28.604947312311687L155.88203124999998,110.4333840842274L156.31145833333335,132.09194260971114L156.74088541666666,147.46193116429177L157.1703125,141.09840208732268L157.59973958333333,145.6159245585176L158.02916666666667,147.12621305078608L158.45859375,146.46100156161594L158.88802083333334,145.67880696134472L159.31744791666665,143.51854194616052L159.746875,124.57537029429592L160.17630208333335,54.83269944008101L160.60572916666666,-26.680495477535505L161.03515625,91.77021511474793L161.46458333333334,122.4471918076954L161.89401041666665,147.23506073111838L162.3234375,142.0969152254137L162.75286458333335,144.75101006708363L163.18229166666666,148.9100453340533L163.61171875,147.83839948754758L164.04114583333333,146.78804288135672L164.47057291666667,147.69664105815306L164.9,142.65975291146472L165.32942708333334,125.33500185896726L165.75885416666665,64.58101729168132L166.18828125000002,1.9491475183855385L166.61770833333333,100.46397283571687L167.04713541666666,125.78117488273844L167.4765625,148.41917520837688L167.9059895833333,145.06033251976424L168.33541666666667,146.30770404552194L168.76484375,149.03740051058546L169.19427083333332,148.78457275202328L169.62369791666666,148.08128414997324L170.053125,148.74492025409234L170.48255208333333,143.52320628477767L170.91197916666667,118.24878877350554L171.34140625,26.736724218184285L171.77083333333331,-15.523996938358675L172.20026041666668,93.70389630069786L172.62968750000002,132.3231177216565L173.05911458333333,148.66060624559495L173.48854166666666,140.55748866600067L173.91796875,149.36150460825726L174.34739583333334,150.73093194751576L174.77682291666667,148.87025796368042L175.20625,148.95335999342868L175.63567708333332,150.9789099178531L176.06510416666666,148.91916420971128L176.49453125000002,148.72547052402726L176.92395833333333,142.88838417929682L177.35338541666667,112.76247380538419L177.78281249999998,21.102997417477038L178.21223958333334,25.03547320718114L178.64166666666668,106.86633768305182L179.07109375,138.19200211780316L179.50052083333333,150.04680834482L179.92994791666666,143.67107518508354L180.359375,150.33869666115126L180.78880208333334,151.8131353090602L181.21822916666667,150.29823118211195L181.64765624999998,150.38581959378314L182.07708333333332,151.3095740612427L182.50651041666669,149.08355123769832L182.9359375,144.5574681128968L183.36536458333333,120.1488005529073L183.79479166666667,40.56366713615981L184.22421875,20.519194559617464L184.65364583333334,108.38568323444237L185.08307291666668,137.02333240837535L185.5125,151.0411610427228L185.94192708333333,144.8604253356091L186.3713541666667,150.41079160105437L186.80078125,152.71949310473758L187.23020833333334,151.12917467723176L187.65963541666667,151.25454610493034L188.08906249999998,152.1658791951327L188.51848958333335,150.26217902908948L188.94791666666666,146.26000415855512L189.37734375,125.0774367058819L189.80677083333333,49.49587933448227L190.23619791666667,13.562234231016836L190.665625,106.38023492355236L191.09505208333334,136.9221181336113L191.52447916666665,151.34422878590837L191.95390625,145.12861543995413L192.38333333333335,151.08779693598098L192.81276041666666,153.7406348414211L193.2421875,151.55170755909586L193.67161458333334,152.12464569246566L194.10104166666665,153.1597261213782L194.53046875,151.85014842823148L194.95989583333335,151.03238122139803L195.38932291666666,145.41524935073474L195.81875,112.18270962786944L196.24817708333333,16.575284584002056L196.67760416666667,50.27876890247517L197.10703125,112.14706583862954L197.53645833333334,144.47219875793564L197.96588541666665,151.718231940642L198.39531250000002,146.54475734806195L198.82473958333333,153.85313906351274L199.25416666666666,154.07641664469108L199.68359375,152.3848221258853L200.1130208333333,153.69053534892473L200.54244791666667,153.83322664604268L200.971875,152.90280161239207L201.40130208333332,153.13656365270302L201.83072916666666,151.07592441463336L202.26015625,135.79819235679776L202.68958333333333,67.74017196385697L203.11901041666667,-20.83053818074142L203.5484375,93.46055644378066L203.97786458333331,134.60128185661003L204.40729166666668,149.5151730235666L204.83671875000002,144.03450021926653L205.26614583333333,152.11642409319228L205.69557291666666,154.9542545385828L206.125,151.41063285805285L206.55442708333334,153.89681712919L206.98385416666667,154.9776099497791L207.41328125,153.59790233327922L207.84270833333332,154.05485578626394L208.27213541666666,154.58504122876647L208.70156250000002,153.07335905459794L209.13098958333333,148.00214774466374L209.56041666666667,118.29966190931471L209.98984374999998,20.731393868272946L210.41927083333334,42.35510285334152L210.84869791666668,109.17933262613685L211.278125,144.1846095006913L211.70755208333333,152.2735579809682L212.13697916666666,148.39556503812358L212.56640625,155.20125093725935L212.99583333333334,155.07015305046332L213.42526041666667,153.929596752267L213.85468749999998,155.8581771373918L214.28411458333332,155.35332148877734L214.71354166666669,154.81195099973544L215.14296875,155.4163724821569L215.57239583333333,154.9901680727066L216.00182291666667,153.99994771656665L216.43125,149.5402218332006L216.86067708333334,119.15183844789863L217.29010416666668,18.717178848656726L217.71953125,43.9657345691865L218.14895833333333,108.98452436957845L218.5783854166667,143.4681708355519L219.0078125,151.70589860511774L219.43723958333334,149.0571049997075L219.86666666666667,154.6522320568223L220.29609374999998,155.44176783903757L220.72552083333335,154.5131560904397L221.15494791666666,156.5066269791939L221.584375,155.82568224502558L222.01380208333333,155.39245322922415L222.44322916666667,156.22159655188972L222.87265625,155.50639796392485L223.30208333333334,155.2251027539711L223.73151041666665,155.34158383987167L224.1609375,149.81613900453192L224.59036458333335,116.0445984265005L225.01979166666666,8.522740423679352L225.44921875,51.46376567029139L225.87864583333334,111.69990375028416L226.30807291666665,143.00278972817415L226.7375,150.51156566715375L227.16692708333335,150.30374221994796L227.59635416666666,153.38924717268145L228.02578125,154.94285594401035L228.45520833333333,155.13126525248992L228.88463541666667,157.0910554953258L229.3140625,155.8130754181607L229.74348958333334,156.0063888384876L230.17291666666665,157.17168299041012L230.60234375000002,155.78089335493067L231.03177083333333,155.97328140044755L231.46119791666666,156.7461304644292L231.890625,155.65844416347417L232.3200520833333,153.22754448093474L232.74947916666667,131.55235543406823L233.17890625,35.095099133524016L233.60833333333332,-15.789066244255434L234.03776041666666,80.42978053641589L234.4671875,126.66050948609005L234.89661458333333,140.4983058891852L235.32604166666667,142.4268244577741L235.75546875,149.7184670045972" style="fill: none;" fill="none"></path></g></g></g></g></g></g><g transform="translate(72, 177)" clip-path="url(#clip_1)"><clipPath id="clip_1"><rect width="257" height="23"></rect></clipPath><g><g><line x1="0" y1="0" x2="0" y2="5" style="visibility: inherit;" fill="rgb(0, 0, 0)" stroke="rgb(204, 204, 204)" stroke-width="1px"></line><line x1="21.471354166666664" y1="0" x2="21.471354166666664" y2="5" style="visibility: inherit;" fill="rgb(0, 0, 0)" stroke="rgb(204, 204, 204)" stroke-width="1px"></line><line x1="42.94270833333333" y1="0" x2="42.94270833333333" y2="5" style="visibility: inherit;" fill="rgb(0, 0, 0)" stroke="rgb(204, 204, 204)" stroke-width="1px"></line><line x1="64.4140625" y1="0" x2="64.4140625" y2="5" style="visibility: inherit;" fill="rgb(0, 0, 0)" stroke="rgb(204, 204, 204)" stroke-width="1px"></line><line x1="85.88541666666666" y1="0" x2="85.88541666666666" y2="5" style="visibility: inherit;" fill="rgb(0, 0, 0)" stroke="rgb(204, 204, 204)" stroke-width="1px"></line><line x1="107.35677083333334" y1="0" x2="107.35677083333334" y2="5" style="visibility: inherit;" fill="rgb(0, 0, 0)" stroke="rgb(204, 204, 204)" stroke-width="1px"></line><line x1="128.828125" y1="0" x2="128.828125" y2="5" style="visibility: inherit;" fill="rgb(0, 0, 0)" stroke="rgb(204, 204, 204)" stroke-width="1px"></line><line x1="150.29947916666669" y1="0" x2="150.29947916666669" y2="5" style="visibility: inherit;" fill="rgb(0, 0, 0)" stroke="rgb(204, 204, 204)" stroke-width="1px"></line><line x1="171.77083333333331" y1="0" x2="171.77083333333331" y2="5" style="visibility: inherit;" fill="rgb(0, 0, 0)" stroke="rgb(204, 204, 204)" stroke-width="1px"></line><line x1="193.2421875" y1="0" x2="193.2421875" y2="5" style="visibility: inherit;" fill="rgb(0, 0, 0)" stroke="rgb(204, 204, 204)" stroke-width="1px"></line><line x1="214.71354166666669" y1="0" x2="214.71354166666669" y2="5" style="visibility: inherit;" fill="rgb(0, 0, 0)" stroke="rgb(204, 204, 204)" stroke-width="1px"></line><line x1="236.18489583333331" y1="0" x2="236.18489583333331" y2="5" style="visibility: inherit;" fill="rgb(0, 0, 0)" stroke="rgb(204, 204, 204)" stroke-width="1px"></line><line x1="257.65625" y1="0" x2="257.65625" y2="5" style="visibility: inherit;" fill="rgb(0, 0, 0)" stroke="rgb(204, 204, 204)" stroke-width="1px"></line></g><g transform="translate(0, 8)"><text x="0" y="0" dx="0em" dy="0.95em" style="text-anchor: middle; visibility: hidden; font-family: Roboto, sans-serif; font-size: 12px; font-weight: 200;" fill="rgb(33, 33, 33)" stroke="none" stroke-width="1px">-50</text><text x="21.471354166666664" y="0" dx="0em" dy="0.95em" style="text-anchor: middle; visibility: inherit; font-family: Roboto, sans-serif; font-size: 12px; font-weight: 200;" fill="rgb(33, 33, 33)" stroke="none" stroke-width="1px">0</text><text x="42.94270833333333" y="0" dx="0em" dy="0.95em" style="text-anchor: middle; visibility: hidden; font-family: Roboto, sans-serif; font-size: 12px; font-weight: 200;" fill="rgb(33, 33, 33)" stroke="none" stroke-width="1px">50</text><text x="64.4140625" y="0" dx="0em" dy="0.95em" style="text-anchor: middle; visibility: inherit; font-family: Roboto, sans-serif; font-size: 12px; font-weight: 200;" fill="rgb(33, 33, 33)" stroke="none" stroke-width="1px">100</text><text x="85.88541666666666" y="0" dx="0em" dy="0.95em" style="text-anchor: middle; visibility: hidden; font-family: Roboto, sans-serif; font-size: 12px; font-weight: 200;" fill="rgb(33, 33, 33)" stroke="none" stroke-width="1px">150</text><text x="107.35677083333334" y="0" dx="0em" dy="0.95em" style="text-anchor: middle; visibility: inherit; font-family: Roboto, sans-serif; font-size: 12px; font-weight: 200;" fill="rgb(33, 33, 33)" stroke="none" stroke-width="1px">200</text><text x="128.828125" y="0" dx="0em" dy="0.95em" style="text-anchor: middle; visibility: hidden; font-family: Roboto, sans-serif; font-size: 12px; font-weight: 200;" fill="rgb(33, 33, 33)" stroke="none" stroke-width="1px">250</text><text x="150.29947916666669" y="0" dx="0em" dy="0.95em" style="text-anchor: middle; visibility: inherit; font-family: Roboto, sans-serif; font-size: 12px; font-weight: 200;" fill="rgb(33, 33, 33)" stroke="none" stroke-width="1px">300</text><text x="171.77083333333331" y="0" dx="0em" dy="0.95em" style="text-anchor: middle; visibility: hidden; font-family: Roboto, sans-serif; font-size: 12px; font-weight: 200;" fill="rgb(33, 33, 33)" stroke="none" stroke-width="1px">350</text><text x="193.2421875" y="0" dx="0em" dy="0.95em" style="text-anchor: middle; visibility: inherit; font-family: Roboto, sans-serif; font-size: 12px; font-weight: 200;" fill="rgb(33, 33, 33)" stroke="none" stroke-width="1px">400</text><text x="214.71354166666669" y="0" dx="0em" dy="0.95em" style="text-anchor: middle; visibility: hidden; font-family: Roboto, sans-serif; font-size: 12px; font-weight: 200;" fill="rgb(33, 33, 33)" stroke="none" stroke-width="1px">450</text><text x="236.18489583333331" y="0" dx="0em" dy="0.95em" style="text-anchor: middle; visibility: inherit; font-family: Roboto, sans-serif; font-size: 12px; font-weight: 200;" fill="rgb(33, 33, 33)" stroke="none" stroke-width="1px">500</text><text x="257.65625" y="0" dx="0em" dy="0.95em" style="text-anchor: middle; visibility: hidden; font-family: Roboto, sans-serif; font-size: 12px; font-weight: 200;" fill="rgb(33, 33, 33)" stroke="none" stroke-width="1px">550</text></g><line x1="0" y1="0" x2="257.65625" y2="0" fill="rgb(0, 0, 0)" stroke="rgb(204, 204, 204)" stroke-width="1px"></line></g></g></g></g></svg>