<svg viewBox="0 0 330 200" xmlns="http://www.w3.org/2000/svg"><g><g><g><g><g><line x1="61.953125" y1="177" x2="56.953125" y2="177" style="visibility: inherit;" fill="rgb(0, 0, 0)" stroke="rgb(204, 204, 204)" stroke-width="1px"></line><line x1="61.953125" y1="162.25" x2="56.953125" y2="162.25" style="visibility: inherit;" fill="rgb(0, 0, 0)" stroke="rgb(204, 204, 204)" stroke-width="1px"></line><line x1="61.953125" y1="147.5" x2="56.953125" y2="147.5" style="visibility: inherit;" fill="rgb(0, 0, 0)" stroke="rgb(204, 204, 204)" stroke-width="1px"></line><line x1="61.953125" y1="132.75" x2="56.953125" y2="132.75" style="visibility: inherit;" fill="rgb(0, 0, 0)" stroke="rgb(204, 204, 204)" stroke-width="1px"></line><line x1="61.953125" y1="118" x2="56.953125" y2="118" style="visibility: inherit;" fill="rgb(0, 0, 0)" stroke="rgb(204, 204, 204)" stroke-width="1px"></line><line x1="61.953125" y1="103.24999999999999" x2="56.953125" y2="103.24999999999999" style="visibility: inherit;" fill="rgb(0, 0, 0)" stroke="rgb(204, 204, 204)" stroke-width="1px"></line><line x1="61.953125" y1="88.49999999999999" x2="56.953125" y2="88.49999999999999" style="visibility: inherit;" fill="rgb(0, 0, 0)" stroke="rgb(204, 204, 204)" stroke-width="1px"></line><line x1="61.953125" y1="73.75000000000001" x2="56.953125" y2="73.75000000000001" style="visibility: inherit;" fill="rgb(0, 0, 0)" stroke="rgb(204, 204, 204)" stroke-width="1px"></line><line x1="61.953125" y1="58.999999999999986" x2="56.953125" y2="58.999999999999986" style="visibility: inherit;" fill="rgb(0, 0, 0)" stroke="rgb(204, 204, 204)" stroke-width="1px"></line><line x1="61.953125" y1="44.25" x2="56.953125" y2="44.25" style="visibility: inherit;" fill="rgb(0, 0, 0)" stroke="rgb(204, 204, 204)" stroke-width="1px"></line><line x1="61.953125" y1="29.500000000000014" x2="56.953125" y2="29.500000000000014" style="visibility: inherit;" fill="rgb(0, 0, 0)" stroke="rgb(204, 204, 204)" stroke-width="1px"></line><line x1="61.953125" y1="14.749999999999988" x2="56.953125" y2="14.749999999999988" style="visibility: inherit;" fill="rgb(0, 0, 0)" stroke="rgb(204, 204, 204)" stroke-width="1px"></line><line x1="61.953125" y1="0" x2="56.953125" y2="0" style="visibility: inherit;" fill="rgb(0, 0, 0)" stroke="rgb(204, 204, 204)" stroke-width="1px"></line></g><g transform="translate(51.953125, 0)"><text x="0" y="177" dx="0em" dy="0.3em" style="text-anchor: end; visibility: hidden; font-family: Roboto, sans-serif; font-size: 12px; font-weight: 200;" fill="rgb(33, 33, 33)" stroke="none" stroke-width="1px">-0.02</text><text x="0" y="162.25" dx="0em" dy="0.3em" style="text-anchor: end; visibility: inherit; font-family: Roboto, sans-serif; font-size: 12px; font-weight: 200;" fill="rgb(33, 33, 33)" stroke="none" stroke-width="1px">0</text><text x="0" y="147.5" dx="0em" dy="0.3em" style="text-anchor: end; visibility: hidden; font-family: Roboto, sans-serif; font-size: 12px; font-weight: 200;" fill="rgb(33, 33, 33)" stroke="none" stroke-width="1px">0.02</text><text x="0" y="132.75" dx="0em" dy="0.3em" style="text-anchor: end; visibility: inherit; font-family: Roboto, sans-serif; font-size: 12px; font-weight: 200;" fill="rgb(33, 33, 33)" stroke="none" stroke-width="1px">0.04</text><text x="0" y="118" dx="0em" dy="0.3em" style="text-anchor: end; visibility: hidden; font-family: Roboto, sans-serif; font-size: 12px; font-weight: 200;" fill="rgb(33, 33, 33)" stroke="none" stroke-width="1px">0.06</text><text x="0" y="103.24999999999999" dx="0em" dy="0.3em" style="text-anchor: end; visibility: inherit; font-family: Roboto, sans-serif; font-size: 12px; font-weight: 200;" fill="rgb(33, 33, 33)" stroke="none" stroke-width="1px">0.08</text><text x="0" y="88.49999999999999" dx="0em" dy="0.3em" style="text-anchor: end; visibility: hidden; font-family: Roboto, sans-serif; font-size: 12px; font-weight: 200;" fill="rgb(33, 33, 33)" stroke="none" stroke-width="1px">0.1</text><text x="0" y="73.75000000000001" dx="0em" dy="0.3em" style="text-anchor: end; visibility: inherit; font-family: Roboto, sans-serif; font-size: 12px; font-weight: 200;" fill="rgb(33, 33, 33)" stroke="none" stroke-width="1px">0.12</text><text x="0" y="58.999999999999986" dx="0em" dy="0.3em" style="text-anchor: end; visibility: hidden; font-family: Roboto, sans-serif; font-size: 12px; font-weight: 200;" fill="rgb(33, 33, 33)" stroke="none" stroke-width="1px">0.14</text><text x="0" y="44.25" dx="0em" dy="0.3em" style="text-anchor: end; visibility: inherit; font-family: Roboto, sans-serif; font-size: 12px; font-weight: 200;" fill="rgb(33, 33, 33)" stroke="none" stroke-width="1px">0.16</text><text x="0" y="29.500000000000014" dx="0em" dy="0.3em" style="text-anchor: end; visibility: hidden; font-family: Roboto, sans-serif; font-size: 12px; font-weight: 200;" fill="rgb(33, 33, 33)" stroke="none" stroke-width="1px">0.18</text><text x="0" y="14.749999999999988" dx="0em" dy="0.3em" style="text-anchor: end; visibility: inherit; font-family: Roboto, sans-serif; font-size: 12px; font-weight: 200;" fill="rgb(33, 33, 33)" stroke="none" stroke-width="1px">0.2</text><text x="0" y="0" dx="0em" dy="0.3em" style="text-anchor: end; visibility: hidden; font-family: Roboto, sans-serif; font-size: 12px; font-weight: 200;" fill="rgb(33, 33, 33)" stroke="none" stroke-width="1px">0.22</text></g><line x1="61.953125" y1="0" x2="61.953125" y2="177" fill="rgb(0, 0, 0)" stroke="rgb(204, 204, 204)" stroke-width="1px"></line></g></g><g transform="translate(61, 0)" clip-path="url(#clip_0)"><clipPath id="clip_0"><rect width="268" height="177"></rect></clipPath><g><g><g><line x1="0" y1="0" x2="0" y2="177" fill="rgb(0, 0, 0)" stroke="rgb(66, 66, 66)" stroke-width="1px" opacity="0.25"></line><line x1="22.337239583333332" y1="0" x2="22.337239583333332" y2="177" fill="rgb(0, 0, 0)" stroke="rgb(66, 66, 66)" stroke-width="1px" opacity="0.25"></line><line x1="44.674479166666664" y1="0" x2="44.674479166666664" y2="177" fill="rgb(0, 0, 0)" stroke="rgb(66, 66, 66)" stroke-width="1px" opacity="0.25"></line><line x1="67.01171875" y1="0" x2="67.01171875" y2="177" fill="rgb(0, 0, 0)" stroke="rgb(66, 66, 66)" stroke-width="1px" opacity="0.25"></line><line x1="89.34895833333333" y1="0" x2="89.34895833333333" y2="177" fill="rgb(0, 0, 0)" stroke="rgb(66, 66, 66)" stroke-width="1px" opacity="0.25"></line><line x1="111.68619791666667" y1="0" x2="111.68619791666667" y2="177" fill="rgb(0, 0, 0)" stroke="rgb(66, 66, 66)" stroke-width="1px" opacity="0.25"></line><line x1="134.0234375" y1="0" x2="134.0234375" y2="177" fill="rgb(0, 0, 0)" stroke="rgb(66, 66, 66)" stroke-width="1px" opacity="0.25"></line><line x1="156.36067708333334" y1="0" x2="156.36067708333334" y2="177" fill="rgb(0, 0, 0)" stroke="rgb(66, 66, 66)" stroke-width="1px" opacity="0.25"></line><line x1="178.69791666666666" y1="0" x2="178.69791666666666" y2="177" fill="rgb(0, 0, 0)" stroke="rgb(66, 66, 66)" stroke-width="1px" opacity="0.25"></line><line x1="201.03515625" y1="0" x2="201.03515625" y2="177" fill="rgb(0, 0, 0)" stroke="rgb(66, 66, 66)" stroke-width="1px" opacity="0.25"></line><line x1="223.37239583333334" y1="0" x2="223.37239583333334" y2="177" fill="rgb(0, 0, 0)" stroke="rgb(66, 66, 66)" stroke-width="1px" opacity="0.25"></line><line x1="245.70963541666666" y1="0" x2="245.70963541666666" y2="177" fill="rgb(0, 0, 0)" stroke="rgb(66, 66, 66)" stroke-width="1px" opacity="0.25"></line><line x1="268.046875" y1="0" x2="268.046875" y2="177" fill="rgb(0, 0, 0)" stroke="rgb(66, 66, 66)" stroke-width="1px" opacity="0.25"></line></g><g><line x1="0" y1="177" x2="268.046875" y2="177" fill="rgb(0, 0, 0)" stroke="rgb(66, 66, 66)" stroke-width="1px" opacity="0.25"></line><line x1="0" y1="162.25" x2="268.046875" y2="162.25" fill="rgb(0, 0, 0)" stroke="rgb(66, 66, 66)" stroke-width="1px" opacity="0.25"></line><line x1="0" y1="147.5" x2="268.046875" y2="147.5" fill="rgb(0, 0, 0)" stroke="rgb(66, 66, 66)" stroke-width="1px" opacity="0.25"></line><line x1="0" y1="132.75" x2="268.046875" y2="132.75" fill="rgb(0, 0, 0)" stroke="rgb(66, 66, 66)" stroke-width="1px" opacity="0.25"></line><line x1="0" y1="118" x2="268.046875" y2="118" fill="rgb(0, 0, 0)" stroke="rgb(66, 66, 66)" stroke-width="1px" opacity="0.25"></line><line x1="0" y1="103.24999999999999" x2="268.046875" y2="103.24999999999999" fill="rgb(0, 0, 0)" stroke="rgb(66, 66, 66)" stroke-width="1px" opacity="0.25"></line><line x1="0" y1="88.49999999999999" x2="268.046875" y2="88.49999999999999" fill="rgb(0, 0, 0)" stroke="rgb(66, 66, 66)" stroke-width="1px" opacity="0.25"></line><line x1="0" y1="73.75000000000001" x2="268.046875" y2="73.75000000000001" fill="rgb(0, 0, 0)" stroke="rgb(66, 66, 66)" stroke-width="1px" opacity="0.25"></line><line x1="0" y1="58.999999999999986" x2="268.046875" y2="58.999999999999986" fill="rgb(0, 0, 0)" stroke="rgb(66, 66, 66)" stroke-width="1px" opacity="0.25"></line><line x1="0" y1="44.25" x2="268.046875" y2="44.25" fill="rgb(0, 0, 0)" stroke="rgb(66, 66, 66)" stroke-width="1px" opacity="0.25"></line><line x1="0" y1="29.500000000000014" x2="268.046875" y2="29.500000000000014" fill="rgb(0, 0, 0)" stroke="rgb(66, 66, 66)" stroke-width="1px" opacity="0.25"></line><line x1="0" y1="14.749999999999988" x2="268.046875" y2="14.749999999999988" fill="rgb(0, 0, 0)" stroke="rgb(66, 66, 66)" stroke-width="1px" opacity="0.25"></line><line x1="0" y1="0" x2="268.046875" y2="0" fill="rgb(0, 0, 0)" stroke="rgb(66, 66, 66)" stroke-width="1px" opacity="0.25"></line></g></g></g><g><g><line x1="0" y1="162.25" x2="268.046875" y2="162.25" fill="rgb(0, 0, 0)" stroke="rgb(153, 153, 153)" stroke-width="1.5px"></line></g></g><g><g><line x1="22.337239583333332" y1="0" x2="22.337239583333332" y2="177" fill="rgb(0, 0, 0)" stroke="rgb(153, 153, 153)" stroke-width="1.5px"></line></g></g><g><g><g><g><g><path stroke="rgb(238, 51, 119)" stroke-width="2px" d="M25.464453125,-92.12200106680395L25.911197916666666,49.72622240334749L26.357942708333333,55.49426017701625L26.8046875,-111.12681092321874L27.698177083333334,-170.27025693655017L28.144921874999998,93.18106020241974L28.59166666666667,147.4384585339576L29.038411458333336,144.68423239327967L29.48515625,140.48542798869312L29.931901041666666,143.51059051137418L30.378645833333334,147.6482047876343L30.825390625,150.05119074508548L31.272135416666668,151.19458236172795L31.71888020833333,151.73243705090135L32.165625,152.0102858953178L32.612369791666666,152.16017657099292L33.05911458333333,152.26561154145747L33.505859375,152.34326890809461L33.95260416666667,152.4004883542657L34.399348958333334,152.43373878207058L34.84609375,152.44432383356616L35.29283854166666,152.43722523469478L35.739583333333336,152.4185937307775L36.186328125,152.39487953390926L36.63307291666666,152.37333372374997L37.07981770833334,152.36237227823585L37.526562500000004,152.37122440617532L37.973307291666664,152.4085224433802L38.42005208333334,152.4813677361235L38.866796875,152.59356337506324L39.313541666666666,152.74476936925203L39.76028645833333,152.93016128148884L40.20703125,153.14183758478612L40.65377604166667,153.3708870820701L41.10052083333333,153.60969397611916L41.547265625,153.85224283114076L41.99401041666667,154.0931274476461L42.44075520833333,154.32664009882137L42.8875,154.54794535785913L43.33424479166666,154.75561663648114L43.78098958333333,154.95238759927452L44.227734375000004,155.14356897352263L44.674479166666664,155.33414729312062L45.12122395833333,155.52678891131654L45.567968750000006,155.72176444716752L46.014713541666666,155.91811780491844L46.46145833333333,156.11452542385086L46.908203125,156.30999755254015L47.35494791666667,156.50362033653073L47.801692708333334,156.69439955987036L48.2484375,156.88107862975448L48.69518229166667,157.06234600534663L49.14192708333333,157.2372902361676L49.588671875,157.40529865166172L50.03541666666667,157.5661847719457L50.48216145833333,157.7199688591063L50.92890625,157.86645756475627L51.37565104166667,158.00545547995716L51.82239583333333,158.13676204439253L52.269140625,158.26016021333635L52.715885416666666,158.3757863265928L53.16263020833333,158.48373070498928L53.609375,158.584009146085L54.05611979166667,158.67685586586595L54.502864583333334,158.76246009161696L54.949609374999994,158.84098769770935L55.39635416666667,158.91287826839834L55.843098958333336,158.9783752921503L56.289843749999996,159.03773565101437L56.73658854166667,159.0914318980649L57.18333333333334,159.13977208570577L57.630078125,159.18309105350636L58.07682291666667,159.2218228909187L58.52356770833333,159.25623890385032L58.9703125,159.2868497655727L59.41705729166667,159.31387835904025L59.86380208333333,159.33774263272062L60.310546875,159.35871389252134L60.75729166666667,159.3772372175008L61.204036458333334,159.39356451004278L61.65078125,159.40810633497313L62.09752604166666,159.42109433258884L62.544270833333336,159.4329237852944L62.991015624999996,159.44387904915493L63.43776041666666,159.4542444802355L63.88450520833334,159.46435491810553L64.33125,159.47435374278575L64.77799479166667,159.48463949922007L65.22473958333333,159.49527743819635L65.671484375,159.50640080869198L66.11822916666667,159.51818716153502L66.56497395833333,159.53055458981544L67.01171875,159.54341054044198L67.45846354166666,159.55658433109056L67.90520833333333,159.56986252299976L68.351953125,159.58280467335135L68.79869791666667,159.5949811572209L69.24544270833334,159.6056685494259L69.6921875,159.614388286951L70.13893229166666,159.62031443219166L70.58567708333332,159.6227707809303L71.032421875,159.62106670509093L71.47916666666667,159.6144506186247L71.92591145833333,159.6025711975526L72.37265625,159.5848047817126L72.81940104166667,159.5610081627965L73.26614583333333,159.53110080759507L73.712890625,159.49528018559795L74.15963541666667,159.45415621995926L74.60638020833333,159.4083515405655L75.05312500000001,159.35904701496474L75.49986979166667,159.3075514365919L75.94661458333333,159.25556166935712L76.39335937499999,159.20493873441592L76.84010416666668,159.15757353091612L77.28684895833334,159.11532708001323L77.73359375,159.07958922348917L78.18033854166667,159.05081637343392L78.62708333333333,159.028165420983L79.07382812499999,159.00935739651322L79.52057291666667,158.99021831015125L79.96731770833334,158.96557995607145L80.4140625,158.930285804905L80.86080729166667,158.8801635839045L81.30755208333333,158.81320459907874L81.754296875,158.72944594034925L82.20104166666665,158.62967817252502L82.64778645833334,158.51444528112188L83.09453125,158.38305595121346L83.54127604166666,158.23393969936296L83.98802083333334,158.06526229158044L84.434765625,157.8753241165541L84.88151041666666,157.6619196976535L85.32825520833335,157.42284081084654L85.775,157.15608563064598L86.22174479166667,156.86021108436398L86.66848958333333,156.534744275501L87.115234375,156.18061004811898L87.56197916666666,155.80064646806568L88.00872395833333,155.40011103171855L88.45546875000001,154.9867095137015L88.90221354166667,154.57043970841914L89.34895833333333,154.16301241517067L89.795703125,153.7766728028655L90.24244791666666,153.42305817781016L90.68919270833332,153.1115907537751L91.13593750000001,152.84879973065108L91.58268229166667,152.63720172829926L92.02942708333333,152.47639631293714L92.47617187499999,152.3625632226467L92.92291666666667,152.29021177534014L93.36966145833333,152.25222757458687L93.81640625,152.24153194017708L94.26315104166667,152.25075908843428L94.70989583333333,152.2735893088393L95.156640625,152.30458892788738L95.60338541666667,152.33961211657152L96.05013020833333,152.37531528715044L96.496875,152.40951975015923L96.94361979166668,152.44128246000037L97.39036458333334,152.46985749714077L97.837109375,152.4950353722088L98.28385416666666,152.51735732331872L98.73059895833333,152.53729109559208L99.17734375,152.55515057966113L99.62408854166667,152.57166933175176L100.07083333333334,152.58725808840245L100.517578125,152.60216961055994L100.96432291666666,152.61634070798755L101.41106770833333,152.62993897218257L101.8578125,152.64212026400492L102.30455729166667,152.6524814022705L102.75130208333334,152.6601926716976L103.198046875,152.6641846462153L103.64479166666666,152.66366195306182L104.09153645833332,152.65740337222815L104.53828125,152.6444370104L104.98502604166667,152.62506439490244L105.43177083333333,152.6004511108622L105.878515625,152.5731659787707L106.32526041666667,152.5482491068542L106.77200520833333,152.5327242272906L107.21875,152.53678763424978L107.66549479166667,152.57156355679035L108.11223958333333,152.64801275357604L108.55898437500001,152.7722365166992L109.00572916666667,152.9403623836115L109.45247395833333,153.13846034137532L109.89921874999999,153.3411945393309L110.34596354166668,153.52301345579326L110.79270833333334,153.67038682475686L111.239453125,153.78897085925564L111.68619791666667,153.8964842390269L112.13294270833333,154.00998489372432L112.57968749999999,154.13479660078883L113.02643229166667,154.2668841141276L113.47317708333334,154.4044794808142L113.919921875,154.54966866550967L114.36666666666667,154.70297024026513L114.81341145833333,154.86411976767704L115.26015625,155.03377387672663L115.70690104166665,155.21161386882886L116.15364583333334,155.39630588050932L116.600390625,155.58681894931942L117.04713541666666,155.78186385706067L117.49388020833334,155.97997486498207L117.940625,156.1795310061425L118.38736979166666,156.3788268310018L118.83411458333335,156.5767125519924L119.280859375,156.77148409327492L119.72760416666667,156.96208782633767L120.17434895833333,157.14767961204052L120.62109375,157.32544885855168L121.06783854166666,157.4820905867964L121.51458333333333,157.54979480430484L121.96132812500001,157.21655971743166L122.40807291666667,155.23744974657893L122.85481770833333,147.90494946669787L123.3015625,130.30429398082197L123.74830729166666,112.56753908842802L124.19505208333332,121.41668060235679L124.64179687500001,140.9816636648029L125.08854166666667,150.97115610865876L125.53528645833333,154.6069155856967L125.98203124999999,156.93052258598618L126.42877604166667,152.15998768713325L126.87552083333333,120.31234329938889L127.322265625,15.668399207293994L127.76901041666667,-15.854506433010114L128.21575520833332,133.8165831696242L128.6625,126.9163329564035L129.10924479166667,82.97810083627701L129.55598958333334,91.39128741249442L130.002734375,124.13502567820251L130.44947916666666,115.86635517328978L130.89622395833334,122.3593470584601L131.34296875,144.71400186326355L131.78971354166666,143.38263302948326L132.23645833333333,137.7942547146231L132.683203125,105.0515824407339L133.12994791666665,45.45685923099518L133.57669270833333,45.09657597541809L134.0234375,130.12156979553401L134.47018229166667,141.9834033763036L134.91692708333332,145.29143561981618L135.363671875,149.84729370940477L135.81041666666667,150.18293826747686L136.25716145833331,148.0028709806502L136.70390625,137.52610007673502L137.1506510416667,87.41809962689877L137.59739583333334,-23.908964782953287L138.044140625,44.43007832765579L138.49088541666669,121.49826744012533L138.93763020833333,144.0510689690709L139.384375,149.733320501633L139.83111979166665,148.37868392374367L140.27786458333333,151.35704239970073L140.724609375,151.55306332185864L141.17135416666665,150.90602620644495L141.61809895833332,146.41321617551148L142.06484375,125.11442214623094L142.51158854166667,53.41067476570607L142.95833333333334,-7.954858668148544L143.40507812500002,107.13287102431057L143.85182291666666,136.76271805912256L144.29856770833334,151.21443920675665L144.7453125,150.56958284135908L145.19205729166666,149.95058089867234L145.63880208333333,150.82204638188705L146.085546875,148.7698850631714L146.53229166666665,141.20629121921957L146.97903645833333,112.13817516714334L147.42578125,42.02276109158993L147.87252604166665,37.676448695361614L148.31927083333335,126.61280002817512L148.76601562500002,142.72654253896326L149.21276041666667,151.92539118602872L149.65950520833334,152.72822382999584L150.10625000000002,150.58996306639165L150.55299479166666,146.74635510332882L150.99973958333334,134.77015955746174L151.44648437499998,99.43580566346644L151.89322916666666,41.767670348286636L152.33997395833333,75.4615232758224L152.78671874999998,137.79356511682272L153.23346354166665,146.3242223430425L153.68020833333335,151.8496975246817L154.126953125,153.75117554236203L154.57369791666667,152.75791774643585L155.02044270833335,147.57393840141594L155.4671875,126.46072310768068L155.91393229166667,56.55317468941212L156.36067708333334,-7.613598421216038L156.807421875,107.96907017379999L157.25416666666666,136.86886941455305L157.70091145833334,152.32072991225868L158.14765624999998,151.08866178803146L158.59440104166666,151.66911081783473L159.04114583333333,153.35395484603941L159.487890625,152.8460921663791L159.93463541666668,151.46637043822557L160.38138020833335,143.40470428019762L160.828125,106.05920846015213L161.27486979166667,8.725330740213401L161.72161458333335,31.254474394023426L162.168359375,121.57075488381088L162.61510416666667,144.43848556280136L163.06184895833331,152.6597991064191L163.50859375,150.61356599349529L163.95533854166666,153.46375200338662L164.4020833333333,154.14096726477146L164.848828125,153.69386062398553L165.29557291666669,153.4681485327892L165.74231770833333,149.8566733384505L166.1890625,129.8214903511107L166.63580729166668,52.33118771016598L167.08255208333333,-34.83588644862178L167.529296875,101.59003226459026L167.97604166666667,136.64173073507845L168.42278645833332,152.0752488928847L168.86953125,150.31810905225575L169.31627604166667,153.06798056140542L169.76302083333331,154.7218826659955L170.209765625,153.87434361642227L170.6565104166667,153.85087805939838L171.10325520833334,153.2142426064238L171.55,148.5425774184987L171.99674479166669,129.43481006100774L172.44348958333333,61.93456514179707L172.890234375,-5.401566490530968L173.33697916666665,109.20238973945378L173.78372395833333,137.1564344447106L174.23046875,153.159450489562L174.67721354166665,151.36377971526235L175.12395833333332,152.96673331782222L175.570703125,154.42914908658713L176.01744791666667,154.04291524924338L176.46419270833334,154.2634498621337L176.91093750000002,153.87119440734386L177.35768229166666,148.69013348966837L177.80442708333334,120.8391685448587L178.251171875,19.19949161261321L178.69791666666666,-22.72564792633059L179.14466145833333,101.13828251510857L179.59140625,144.33218584768474L180.03815104166665,151.6830188515596L180.48489583333333,150.8353410582058L180.931640625,154.6258183955215L181.37838541666665,155.09987155115232L181.82513020833335,153.5141050061211L182.27187500000002,154.50619584321976L182.71861979166667,154.71368716703728L183.16536458333334,153.96911866869777L183.61210937500002,153.25544813554734L184.05885416666666,146.86103439331055L184.50559895833334,113.48377554118633L184.95234374999998,11.823476612567909L185.39908854166666,22.053129732608788L185.84583333333333,114.00092443823814L186.29257812499998,146.77172873076051L186.73932291666665,152.14174494054168L187.18606770833335,151.5538689973764L187.6328125,154.4680406167172L188.07955729166667,155.2480409797281L188.52630208333335,154.06974912062287L188.973046875,154.59467316418886L189.41979166666667,154.50194355240092L189.86653645833334,153.06740154651925L190.31328125,147.97685583494604L190.76002604166666,120.84238575212656L191.20677083333334,32.11210327595472L191.65351562499998,14.584637194871895L192.10026041666666,114.70417132973671L192.54700520833333,145.5264950580895L192.99375,152.67232519714162L193.44049479166668,151.56193193420768L193.88723958333335,154.20977112976834L194.333984375,155.40004372037947L194.78072916666667,154.25623175129294L195.22747395833335,154.72102959780023L195.67421875,154.76352571882308L196.12096354166667,153.44450782891363L196.56770833333331,149.2148102670908L197.014453125,125.52732913196085L197.46119791666666,41.20647510886193L197.9079427083333,5.241163954138756L198.3546875,111.84973646327852L198.80143229166669,145.25803683232516L199.24817708333333,152.74402138916776L199.694921875,151.4292248818092L200.14166666666668,154.42931873863563L200.58841145833333,155.6437478577718L201.03515625,154.14884406514466L201.48190104166667,154.8580143544823L201.92864583333332,155.101512436755L202.375390625,154.33208888303488L202.82213541666667,153.6901578134857L203.26888020833331,147.19882192462683L203.715625,110.50317999348044L204.1623697916667,4.019119724631303L204.60911458333334,48.352444678545L205.055859375,117.27055487595499L205.50260416666669,149.08761106804013L205.94934895833333,152.59045881126076L206.39609375,152.1662071174942L206.84283854166665,155.67043336946517L207.28958333333333,155.20269374269992L207.736328125,154.31307961139828L208.18307291666665,155.29154745768756L208.62981770833332,155.04119460843503L209.0765625,154.69662099517882L209.52330729166667,154.92857861705124L209.97005208333334,152.56857026275247L210.41679687500002,136.1684276200831L210.86354166666666,60.54101711511612L211.31028645833334,-36.77159571647648L211.75703125,97.06806199997663L212.20377604166666,144.05553349666297L212.65052083333333,153.10633772192523L213.097265625,150.6305943885818L213.54401041666665,155.4076801231131L213.99075520833333,155.78934365790337L214.4375,153.62729726498947L214.88424479166665,155.36832909006625L215.33098958333335,155.58150822203606L215.77773437500002,154.60442231874913L216.22447916666667,155.28642424056306L216.67122395833334,155.34837059117854L217.11796875000002,154.193090967834L217.56471354166666,149.0193985812366L218.01145833333334,115.81769319623709L218.45820312499998,6.631766766309732L218.90494791666666,37.92841839045287L219.35169270833333,111.7190865278244L219.79843749999998,147.47403051611036L220.24518229166665,152.32817124947906L220.69192708333335,152.92586640594527L221.138671875,156.43890494853258L221.58541666666667,154.71347355656326L222.03216145833335,154.71971290558577L222.47890625,155.88993564620614L222.92565104166667,155.1015199921094L223.37239583333334,155.12921311333776L223.819140625,155.56898831296712L224.26588541666666,155.1362203611061L224.71263020833334,154.64332552533597L225.15937499999998,149.72844523750246L225.60611979166666,116.07494889199734L226.05286458333333,3.982535324990756L226.499609375,39.21146592497826L226.94635416666668,110.67871148139238L227.39309895833335,146.47291446477175L227.83984375,151.46281804796308L228.28658854166667,153.11864127311856L228.73333333333335,156.53257245454006L229.180078125,154.41918906895444L229.62682291666667,155.03583511477336L230.07356770833331,156.15137426089495L230.5203125,154.95297004841268L230.96705729166666,155.35560862068087L231.4138020833333,155.70678080571815L231.860546875,155.06802023760974L232.30729166666669,155.39099103212357L232.75403645833333,155.17882157023996L233.20078125,149.41881307773292L233.64752604166668,112.65871985256672L234.09427083333333,-8.257853105664292L234.541015625,47.70262925326824L234.98776041666667,113.36691756173968L235.43450520833332,145.69814721494913L235.88125,149.27917639166117L236.32799479166667,153.47655008686706L236.77473958333331,156.37632463499904L237.221484375,153.57994099054486L237.6682291666667,155.65120018459857L238.11497395833334,156.23436089977622L238.56171875,154.52886190637946L239.00846354166669,155.81910488568246L239.45520833333333,155.7578240931034L239.901953125,154.86889612535015L240.34869791666665,155.65699788881466L240.79544270833333,155.5802526595071L241.2421875,155.15485942037776L241.68893229166665,152.97818242711946L242.13567708333332,128.58150833658874L242.582421875,21.529233217239387L243.02916666666667,-29.75378693640236L243.47591145833334,76.72271248325706L243.92265625000002,131.0506393611431L244.36940104166666,141.2779297158122L244.81614583333334,145.19982900843024L245.262890625,153.00340151321143" style="fill: none;" fill="none"></path></g></g></g></g></g></g><g transform="translate(61, 177)" clip-path="url(#clip_1)"><clipPath id="clip_1"><rect width="268" height="23"></rect></clipPath><g><g><line x1="0" y1="0" x2="0" y2="5" style="visibility: inherit;" fill="rgb(0, 0, 0)" stroke="rgb(204, 204, 204)" stroke-width="1px"></line><line x1="22.337239583333332" y1="0" x2="22.337239583333332" y2="5" style="visibility: inherit;" fill="rgb(0, 0, 0)" stroke="rgb(204, 204, 204)" stroke-width="1px"></line><line x1="44.674479166666664" y1="0" x2="44.674479166666664" y2="5" style="visibility: inherit;" fill="rgb(0, 0, 0)" stroke="rgb(204, 204, 204)" stroke-width="1px"></line><line x1="67.01171875" y1="0" x2="67.01171875" y2="5" style="visibility: inherit;" fill="rgb(0, 0, 0)" stroke="rgb(204, 204, 204)" stroke-width="1px"></line><line x1="89.34895833333333" y1="0" x2="89.34895833333333" y2="5" style="visibility: inherit;" fill="rgb(0, 0, 0)" stroke="rgb(204, 204, 204)" stroke-width="1px"></line><line x1="111.68619791666667" y1="0" x2="111.68619791666667" y2="5" style="visibility: inherit;" fill="rgb(0, 0, 0)" stroke="rgb(204, 204, 204)" stroke-width="1px"></line><line x1="134.0234375" y1="0" x2="134.0234375" y2="5" style="visibility: inherit;" fill="rgb(0, 0, 0)" stroke="rgb(204, 204, 204)" stroke-width="1px"></line><line x1="156.36067708333334" y1="0" x2="156.36067708333334" y2="5" style="visibility: inherit;" fill="rgb(0, 0, 0)" stroke="rgb(204, 204, 204)" stroke-width="1px"></line><line x1="178.69791666666666" y1="0" x2="178.69791666666666" y2="5" style="visibility: inherit;" fill="rgb(0, 0, 0)" stroke="rgb(204, 204, 204)" stroke-width="1px"></line><line x1="201.03515625" y1="0" x2="201.03515625" y2="5" style="visibility: inherit;" fill="rgb(0, 0, 0)" stroke="rgb(204, 204, 204)" stroke-width="1px"></line><line x1="223.37239583333334" y1="0" x2="223.37239583333334" y2="5" style="visibility: inherit;" fill="rgb(0, 0, 0)" stroke="rgb(204, 204, 204)" stroke-width="1px"></line><line x1="245.70963541666666" y1="0" x2="245.70963541666666" y2="5" style="visibility: inherit;" fill="rgb(0, 0, 0)" stroke="rgb(204, 204, 204)" stroke-width="1px"></line><line x1="268.046875" y1="0" x2="268.046875" y2="5" style="visibility: inherit;" fill="rgb(0, 0, 0)" stroke="rgb(204, 204, 204)" stroke-width="1px"></line></g><g transform="translate(0, 8)"><text x="0" y="0" dx="0em" dy="0.95em" style="text-anchor: middle; visibility: hidden; font-family: Roboto, sans-serif; font-size: 12px; font-weight: 200;" fill="rgb(33, 33, 33)" stroke="none" stroke-width="1px">-50</text><text x="22.337239583333332" y="0" dx="0em" dy="0.95em" style="text-anchor: middle; visibility: inherit; font-family: Roboto, sans-serif; font-size: 12px; font-weight: 200;" fill="rgb(33, 33, 33)" stroke="none" stroke-width="1px">0</text><text x="44.674479166666664" y="0" dx="0em" dy="0.95em" style="text-anchor: middle; visibility: hidden; font-family: Roboto, sans-serif; font-size: 12px; font-weight: 200;" fill="rgb(33, 33, 33)" stroke="none" stroke-width="1px">50</text><text x="67.01171875" y="0" dx="0em" dy="0.95em" style="text-anchor: middle; visibility: inherit; font-family: Roboto, sans-serif; font-size: 12px; font-weight: 200;" fill="rgb(33, 33, 33)" stroke="none" stroke-width="1px">100</text><text x="89.34895833333333" y="0" dx="0em" dy="0.95em" style="text-anchor: middle; visibility: hidden; font-family: Roboto, sans-serif; font-size: 12px; font-weight: 200;" fill="rgb(33, 33, 33)" stroke="none" stroke-width="1px">150</text><text x="111.68619791666667" y="0" dx="0em" dy="0.95em" style="text-anchor: middle; visibility: inherit; font-family: Roboto, sans-serif; font-size: 12px; font-weight: 200;" fill="rgb(33, 33, 33)" stroke="none" stroke-width="1px">200</text><text x="134.0234375" y="0" dx="0em" dy="0.95em" style="text-anchor: middle; visibility: hidden; font-family: Roboto, sans-serif; font-size: 12px; font-weight: 200;" fill="rgb(33, 33, 33)" stroke="none" stroke-width="1px">250</text><text x="156.36067708333334" y="0" dx="0em" dy="0.95em" style="text-anchor: middle; visibility: inherit; font-family: Roboto, sans-serif; font-size: 12px; font-weight: 200;" fill="rgb(33, 33, 33)" stroke="none" stroke-width="1px">300</text><text x="178.69791666666666" y="0" dx="0em" dy="0.95em" style="text-anchor: middle; visibility: hidden; font-family: Roboto, sans-serif; font-size: 12px; font-weight: 200;" fill="rgb(33, 33, 33)" stroke="none" stroke-width="1px">350</text><text x="201.03515625" y="0" dx="0em" dy="0.95em" style="text-anchor: middle; visibility: inherit; font-family: Roboto, sans-serif; font-size: 12px; font-weight: 200;" fill="rgb(33, 33, 33)" stroke="none" stroke-width="1px">400</text><text x="223.37239583333334" y="0" dx="0em" dy="0.95em" style="text-anchor: middle; visibility: hidden; font-family: Roboto, sans-serif; font-size: 12px; font-weight: 200;" fill="rgb(33, 33, 33)" stroke="none" stroke-width="1px">450</text><text x="245.70963541666666" y="0" dx="0em" dy="0.95em" style="text-anchor: middle; visibility: inherit; font-family: Roboto, sans-serif; font-size: 12px; font-weight: 200;" fill="rgb(33, 33, 33)" stroke="none" stroke-width="1px">500</text><text x="268.046875" y="0" dx="0em" dy="0.95em" style="text-anchor: middle; visibility: hidden; font-family: Roboto, sans-serif; font-size: 12px; font-weight: 200;" fill="rgb(33, 33, 33)" stroke="none" stroke-width="1px">550</text></g><line x1="0" y1="0" x2="268.046875" y2="0" fill="rgb(0, 0, 0)" stroke="rgb(204, 204, 204)" stroke-width="1px"></line></g></g></g></g></svg>