<svg viewBox="0 0 301 200" xmlns="http://www.w3.org/2000/svg"><g><g><g><g><g><line x1="61.953125" y1="177" x2="56.953125" y2="177" style="visibility: inherit;" fill="rgb(0, 0, 0)" stroke="rgb(204, 204, 204)" stroke-width="1px"></line><line x1="61.953125" y1="157.33333333333331" x2="56.953125" y2="157.33333333333331" style="visibility: inherit;" fill="rgb(0, 0, 0)" stroke="rgb(204, 204, 204)" stroke-width="1px"></line><line x1="61.953125" y1="137.66666666666666" x2="56.953125" y2="137.66666666666666" style="visibility: inherit;" fill="rgb(0, 0, 0)" stroke="rgb(204, 204, 204)" stroke-width="1px"></line><line x1="61.953125" y1="118.00000000000001" x2="56.953125" y2="118.00000000000001" style="visibility: inherit;" fill="rgb(0, 0, 0)" stroke="rgb(204, 204, 204)" stroke-width="1px"></line><line x1="61.953125" y1="98.33333333333334" x2="56.953125" y2="98.33333333333334" style="visibility: inherit;" fill="rgb(0, 0, 0)" stroke="rgb(204, 204, 204)" stroke-width="1px"></line><line x1="61.953125" y1="78.66666666666669" x2="56.953125" y2="78.66666666666669" style="visibility: inherit;" fill="rgb(0, 0, 0)" stroke="rgb(204, 204, 204)" stroke-width="1px"></line><line x1="61.953125" y1="59.00000000000001" x2="56.953125" y2="59.00000000000001" style="visibility: inherit;" fill="rgb(0, 0, 0)" stroke="rgb(204, 204, 204)" stroke-width="1px"></line><line x1="61.953125" y1="39.33333333333335" x2="56.953125" y2="39.33333333333335" style="visibility: inherit;" fill="rgb(0, 0, 0)" stroke="rgb(204, 204, 204)" stroke-width="1px"></line><line x1="61.953125" y1="19.666666666666675" x2="56.953125" y2="19.666666666666675" style="visibility: inherit;" fill="rgb(0, 0, 0)" stroke="rgb(204, 204, 204)" stroke-width="1px"></line><line x1="61.953125" y1="0" x2="56.953125" y2="0" style="visibility: inherit;" fill="rgb(0, 0, 0)" stroke="rgb(204, 204, 204)" stroke-width="1px"></line></g><g transform="translate(51.953125, 0)"><text x="0" y="177" dx="0em" dy="0.3em" style="text-anchor: end; visibility: hidden; font-family: Roboto, sans-serif; font-size: 12px; font-weight: 200;" fill="rgb(33, 33, 33)" stroke="none" stroke-width="1px">-1e-3</text><text x="0" y="157.33333333333331" dx="0em" dy="0.3em" style="text-anchor: end; visibility: inherit; font-family: Roboto, sans-serif; font-size: 12px; font-weight: 200;" fill="rgb(33, 33, 33)" stroke="none" stroke-width="1px">0</text><text x="0" y="137.66666666666666" dx="0em" dy="0.3em" style="text-anchor: end; visibility: hidden; font-family: Roboto, sans-serif; font-size: 12px; font-weight: 200;" fill="rgb(33, 33, 33)" stroke="none" stroke-width="1px">1e-3</text><text x="0" y="118.00000000000001" dx="0em" dy="0.3em" style="text-anchor: end; visibility: inherit; font-family: Roboto, sans-serif; font-size: 12px; font-weight: 200;" fill="rgb(33, 33, 33)" stroke="none" stroke-width="1px">2e-3</text><text x="0" y="98.33333333333334" dx="0em" dy="0.3em" style="text-anchor: end; visibility: hidden; font-family: Roboto, sans-serif; font-size: 12px; font-weight: 200;" fill="rgb(33, 33, 33)" stroke="none" stroke-width="1px">3e-3</text><text x="0" y="78.66666666666669" dx="0em" dy="0.3em" style="text-anchor: end; visibility: inherit; font-family: Roboto, sans-serif; font-size: 12px; font-weight: 200;" fill="rgb(33, 33, 33)" stroke="none" stroke-width="1px">4e-3</text><text x="0" y="59.00000000000001" dx="0em" dy="0.3em" style="text-anchor: end; visibility: hidden; font-family: Roboto, sans-serif; font-size: 12px; font-weight: 200;" fill="rgb(33, 33, 33)" stroke="none" stroke-width="1px">5e-3</text><text x="0" y="39.33333333333335" dx="0em" dy="0.3em" style="text-anchor: end; visibility: inherit; font-family: Roboto, sans-serif; font-size: 12px; font-weight: 200;" fill="rgb(33, 33, 33)" stroke="none" stroke-width="1px">6e-3</text><text x="0" y="19.666666666666675" dx="0em" dy="0.3em" style="text-anchor: end; visibility: hidden; font-family: Roboto, sans-serif; font-size: 12px; font-weight: 200;" fill="rgb(33, 33, 33)" stroke="none" stroke-width="1px">7e-3</text><text x="0" y="0" dx="0em" dy="0.3em" style="text-anchor: end; visibility: hidden; font-family: Roboto, sans-serif; font-size: 12px; font-weight: 200;" fill="rgb(33, 33, 33)" stroke="none" stroke-width="1px">8e-3</text></g><line x1="61.953125" y1="0" x2="61.953125" y2="177" fill="rgb(0, 0, 0)" stroke="rgb(204, 204, 204)" stroke-width="1px"></line></g></g><g transform="translate(61, 0)" clip-path="url(#clip_0)"><clipPath id="clip_0"><rect width="268" height="177"></rect></clipPath><g><g><g><line x1="0" y1="0" x2="0" y2="177" fill="rgb(0, 0, 0)" stroke="rgb(66, 66, 66)" stroke-width="1px" opacity="0.25"></line><line x1="29.78298611111111" y1="0" x2="29.78298611111111" y2="177" fill="rgb(0, 0, 0)" stroke="rgb(66, 66, 66)" stroke-width="1px" opacity="0.25"></line><line x1="59.56597222222222" y1="0" x2="59.56597222222222" y2="177" fill="rgb(0, 0, 0)" stroke="rgb(66, 66, 66)" stroke-width="1px" opacity="0.25"></line><line x1="89.34895833333333" y1="0" x2="89.34895833333333" y2="177" fill="rgb(0, 0, 0)" stroke="rgb(66, 66, 66)" stroke-width="1px" opacity="0.25"></line><line x1="119.13194444444444" y1="0" x2="119.13194444444444" y2="177" fill="rgb(0, 0, 0)" stroke="rgb(66, 66, 66)" stroke-width="1px" opacity="0.25"></line><line x1="148.91493055555557" y1="0" x2="148.91493055555557" y2="177" fill="rgb(0, 0, 0)" stroke="rgb(66, 66, 66)" stroke-width="1px" opacity="0.25"></line><line x1="178.69791666666666" y1="0" x2="178.69791666666666" y2="177" fill="rgb(0, 0, 0)" stroke="rgb(66, 66, 66)" stroke-width="1px" opacity="0.25"></line><line x1="208.48090277777777" y1="0" x2="208.48090277777777" y2="177" fill="rgb(0, 0, 0)" stroke="rgb(66, 66, 66)" stroke-width="1px" opacity="0.25"></line><line x1="238.26388888888889" y1="0" x2="238.26388888888889" y2="177" fill="rgb(0, 0, 0)" stroke="rgb(66, 66, 66)" stroke-width="1px" opacity="0.25"></line><line x1="268.046875" y1="0" x2="268.046875" y2="177" fill="rgb(0, 0, 0)" stroke="rgb(66, 66, 66)" stroke-width="1px" opacity="0.25"></line></g><g><line x1="0" y1="177" x2="268.046875" y2="177" fill="rgb(0, 0, 0)" stroke="rgb(66, 66, 66)" stroke-width="1px" opacity="0.25"></line><line x1="0" y1="157.33333333333331" x2="268.046875" y2="157.33333333333331" fill="rgb(0, 0, 0)" stroke="rgb(66, 66, 66)" stroke-width="1px" opacity="0.25"></line><line x1="0" y1="137.66666666666666" x2="268.046875" y2="137.66666666666666" fill="rgb(0, 0, 0)" stroke="rgb(66, 66, 66)" stroke-width="1px" opacity="0.25"></line><line x1="0" y1="118.00000000000001" x2="268.046875" y2="118.00000000000001" fill="rgb(0, 0, 0)" stroke="rgb(66, 66, 66)" stroke-width="1px" opacity="0.25"></line><line x1="0" y1="98.33333333333334" x2="268.046875" y2="98.33333333333334" fill="rgb(0, 0, 0)" stroke="rgb(66, 66, 66)" stroke-width="1px" opacity="0.25"></line><line x1="0" y1="78.66666666666669" x2="268.046875" y2="78.66666666666669" fill="rgb(0, 0, 0)" stroke="rgb(66, 66, 66)" stroke-width="1px" opacity="0.25"></line><line x1="0" y1="59.00000000000001" x2="268.046875" y2="59.00000000000001" fill="rgb(0, 0, 0)" stroke="rgb(66, 66, 66)" stroke-width="1px" opacity="0.25"></line><line x1="0" y1="39.33333333333335" x2="268.046875" y2="39.33333333333335" fill="rgb(0, 0, 0)" stroke="rgb(66, 66, 66)" stroke-width="1px" opacity="0.25"></line><line x1="0" y1="19.666666666666675" x2="268.046875" y2="19.666666666666675" fill="rgb(0, 0, 0)" stroke="rgb(66, 66, 66)" stroke-width="1px" opacity="0.25"></line><line x1="0" y1="0" x2="268.046875" y2="0" fill="rgb(0, 0, 0)" stroke="rgb(66, 66, 66)" stroke-width="1px" opacity="0.25"></line></g></g></g><g><g><line x1="0" y1="157.33333333333331" x2="268.046875" y2="157.33333333333331" fill="rgb(0, 0, 0)" stroke="rgb(153, 153, 153)" stroke-width="1.5px"></line></g></g><g><g><line x1="29.78298611111111" y1="0" x2="29.78298611111111" y2="177" fill="rgb(0, 0, 0)" stroke="rgb(153, 153, 153)" stroke-width="1.5px"></line></g></g><g><g><g><g><g><path stroke="rgb(0, 153, 136)" stroke-width="2px" d="M33.356944444444444,-105.7055878366033L33.95260416666667,7.098710452516885L34.54826388888889,42.04879078020653L35.14392361111111,73.46104207386576L35.739583333333336,92.97567075987658L36.33524305555556,111.28842572309078L36.930902777777774,122.3790998502324L37.526562500000004,129.05838571116328L38.12222222222222,133.14844246581197L38.71788194444444,135.98915039810043L39.313541666666666,138.39163060470796L39.90920138888889,140.32857162427777L40.50486111111111,141.48820061329752L41.10052083333333,142.03391928163668L41.69618055555556,142.0766001654168L42.29184027777777,141.62750188742453L42.8875,140.95914150138074L43.48315972222222,140.4657688466832L44.07881944444445,140.7966223942737L44.674479166666664,142.27611875875544L45.27013888888889,144.80949776961157L45.86579861111111,147.72927935405943L46.46145833333333,150.3523215330982L47.057118055555556,152.2811113555605L47.65277777777778,153.49635347661874L48.2484375,154.1871509756893L48.844097222222224,154.5855204865414L49.43975694444444,154.85207653736384L50.03541666666667,155.05623909796122L50.631076388888886,155.2281288478213L51.226736111111116,155.39549397067944L51.82239583333333,155.56049360938295L52.41805555555556,155.69945546493787L53.01371527777778,155.805994118137L53.609375,155.8734079124018L54.20503472222222,155.93855710366432L54.800694444444446,156.07426543473653L55.39635416666667,156.10624075339487L55.99201388888889,156.05494819655237L56.587673611111114,156.0509256858107L57.18333333333334,155.45153566874797L57.77899305555555,155.7461917710413L58.374652777777776,155.08974308803832L58.9703125,151.2228763671592L59.56597222222222,153.01172242418397L60.161631944444444,146.7070982878407L60.75729166666667,147.83442641973184L61.35295138888889,146.88472237996757L61.948611111111106,120.79921114196381L62.544270833333336,132.03634009013572L63.13993055555555,113.28882256150246L63.73559027777778,115.00410779938102L64.33125,71.82684181506436L64.92690972222222,76.20056778440873L65.52256944444444,85.65949599817397L66.11822916666667,87.65872519090773L66.71388888888889,7.81993084525069L67.30954861111111,72.20352888976537L67.90520833333333,115.83162515982985L68.50086805555556,102.34577548007172L69.09652777777778,115.74535217074057L69.6921875,121.26999214229487L70.28784722222223,114.44257096635799L70.88350694444443,130.85873508142927L71.47916666666667,140.12222001422197L72.0748263888889,124.47557561192662L72.67048611111112,139.37424794320637L73.26614583333333,143.21313380977762L73.86180555555555,142.3932610942672L74.45746527777779,143.05614155887937L75.05312500000001,136.91381129994988L75.64878472222222,137.1811998706932L76.24444444444444,140.0215403380183L76.84010416666668,141.55072460509837L77.43576388888889,141.72419668656462L78.03142361111111,144.79767936374992L78.62708333333333,147.3022930799052L79.22274305555555,147.50105155880252L79.81840277777778,149.6434112166365L80.4140625,150.07044328081733L81.00972222222222,148.23596145235933L81.60538194444445,149.44616667049314L82.20104166666665,153.23428713790298L82.79670138888889,153.4755456299754L83.39236111111111,153.88788939837832L83.98802083333334,155.7640673388572L84.58368055555555,156.11802209795377L85.17934027777778,155.95212425926002L85.775,156.48109136184212L86.37065972222223,156.4105219192764L86.96631944444444,156.33009789061424L87.56197916666666,156.27350893018107L88.1576388888889,156.14677379874047L88.75329861111112,155.99216048281716L89.34895833333333,155.89810690964805L89.94461805555555,155.87121313919005L90.54027777777777,155.82290966942674L91.13593750000001,155.79092333254326L91.73159722222222,155.738777650268L92.32725694444444,155.63977503378797L92.92291666666667,155.47479814700395L93.5185763888889,155.3124192718533L94.11423611111111,155.19041975927152L94.70989583333333,155.07298451068345L95.30555555555556,154.94033981857746L95.90121527777777,154.82001378837353L96.496875,154.67368946891898L97.09253472222223,154.48460871214047L97.68819444444445,154.27101655413085L98.28385416666666,154.07166080157427L98.87951388888888,153.8508558558145L99.47517361111112,153.6284408182449L100.07083333333334,153.41190865434083L100.66649305555555,153.170887125656L101.26215277777777,152.91925404449768L101.8578125,152.63182632718235L102.45347222222223,152.36490595946088L103.04913194444444,151.9058283175497L103.64479166666666,151.584838514061L104.24045138888889,150.41448435606435L104.83611111111112,149.4942461984077L105.43177083333333,144.6298406003043L106.02743055555555,141.31182658889642L106.62309027777778,118.16283662430943L107.21875,121.13569457332294L107.81440972222222,86.17272435314953L108.41006944444445,88.11510522787772L109.00572916666667,101.24716742523015L109.60138888888889,132.1324693824475L110.1970486111111,145.63588297165307L110.79270833333334,153.26187791842193L111.38836805555556,152.6773925550127L111.98402777777778,151.43550693461052L112.57968749999999,140.72444128586602L113.17534722222223,140.4005569803218L113.77100694444445,135.2445816708108L114.36666666666667,143.12642467068508L114.96232638888888,138.4228170470645L115.5579861111111,142.6913198248173L116.15364583333334,92.01797235384583L116.74930555555555,127.18715109024197L117.34496527777777,131.00679026388875L117.940625,125.85022884203742L118.53628472222222,127.25082899071276L119.13194444444444,124.09939451701939L119.72760416666667,121.83342926142119L120.32326388888889,135.96406204253435L120.91892361111111,141.51880094331378L121.51458333333333,149.99559204148437L122.11024305555556,126.8090262087062L122.70590277777778,117.83382154628634L123.3015625,131.81067081261426L123.89722222222221,136.59114729861417L124.49288194444445,149.55037046161792L125.08854166666667,120.56833782792091L125.6842013888889,112.79892880407473L126.2798611111111,137.1037597777322L126.87552083333333,141.10280770979202L127.47118055555556,151.5660439976491L128.06684027777777,131.73930018767715L128.6625,126.4461700115353L129.25815972222222,142.1417433467383L129.85381944444444,144.807390283638L130.44947916666666,152.7421854426308L131.04513888888889,138.49479896885654L131.6407986111111,133.43756985167664L132.23645833333333,143.39524074550718L132.83211805555555,145.76322045658407L133.42777777777778,152.80651184435314L134.0234375,139.3956833994016L134.61909722222222,134.42099996314695L135.21475694444445,142.52964897795272L135.81041666666667,144.68648973169428L136.40607638888886,152.61323099738607L137.00173611111111,139.23466620516652L137.59739583333334,133.91028319112957L138.19305555555556,141.21529205484936L138.78871527777778,143.0588878157238L139.384375,152.6372389945124L139.98003472222223,140.3285613215218L140.57569444444445,134.29409519396722L141.17135416666665,137.31094820052385L141.76701388888887,142.02935401598612L142.3626736111111,152.3382601706156L142.95833333333334,142.19185480708256L143.55399305555557,137.59521726456782L144.1496527777778,146.76764415049306L144.7453125,143.70907871921858L145.34097222222223,151.4089670352017L145.93663194444443,144.71154832374305L146.53229166666665,140.88050056497255L147.12795138888887,144.8717401527489L147.7236111111111,142.0003322971364L148.31927083333335,146.5570283442115L148.91493055555557,143.21139378876737L149.5105902777778,140.24003775262585L150.10625000000002,137.1106992562612L150.7019097222222,106.51979282746714L151.29756944444443,71.80858991046748L151.89322916666666,128.5685514807701L152.48888888888888,136.16340434427062L153.0845486111111,137.89017143131545L153.68020833333335,137.94069156764695L154.27586805555558,135.5272297679136L154.87152777777777,140.23351152908677L155.4671875,137.59756629293165L156.06284722222222,142.72241812137267L156.65850694444444,135.2010445135335L157.25416666666666,132.4033700482299L157.84982638888889,128.2765416127319L158.4454861111111,123.95367920491844L159.04114583333333,28.04647539059322L159.63680555555555,-43.59969561050334L160.23246527777778,70.20191861564916L160.828125,79.45874796807766L161.42378472222222,57.349519005666195L162.01944444444445,83.55570985873541L162.61510416666667,77.24882970501982L163.2107638888889,82.8651504678031L163.80642361111111,129.99483754485846L164.4020833333333,139.32261053022617L164.99774305555556,144.92517024526992L165.59340277777778,149.22899373240458L166.1890625,140.19364100818834L166.78472222222223,143.13040954774866L167.38038194444445,144.98790258169174L167.97604166666667,141.76958261616528L168.5717013888889,149.17355975384513L169.1673611111111,145.55901410927373L169.76302083333331,142.90410836786032L170.35868055555557,149.5977110529784L170.9543402777778,143.2652371362783L171.55,142.42966531015313L172.14565972222223,148.27411370251016L172.74131944444446,143.00813071600473L173.33697916666665,145.32600469049066L173.93263888888887,144.23663935251534L174.5282986111111,135.26700275732824L175.12395833333332,126.19669220969081L175.71961805555554,58.8142961661021L176.3152777777778,17.923362841208785L176.91093750000002,112.87787996791303L177.50659722222224,130.69625146159282L178.10225694444443,140.71665469184518L178.69791666666666,133.72791525224844L179.29357638888888,130.19813839439303L179.8892361111111,146.25909324673316L180.48489583333333,127.75184514559805L181.08055555555555,125.74484996435545L181.6762152777778,145.37045993780097L182.27187500000002,103.67667633978031L182.86753472222222,97.57898792251945L183.46319444444444,123.71145912228774L184.05885416666666,-64.62927816808222L184.65451388888889,-84.44679872194924L185.2501736111111,93.5743158304443L185.84583333333333,136.83509824424982L186.44149305555555,149.46296474174596L187.0371527777778,151.0918716734741L187.6328125,147.54056606224427L188.22847222222222,149.62105480853157L188.82413194444445,147.80278035998344L189.41979166666667,147.01902109369016L190.0154513888889,150.6053045614778L190.61111111111111,147.11399991158396L191.20677083333334,147.23910513271886L191.80243055555553,147.35428879984343L192.39809027777775,131.99301356698075L192.99375,78.55222449575862L193.58940972222223,-20.135402391354237L194.18506944444445,90.09471339421967L194.78072916666667,135.14889196275422L195.3763888888889,139.64356198456758L195.97204861111112,144.35788447440913L196.56770833333331,147.96776869427413L197.16336805555554,144.42548772490895L197.75902777777776,146.59994275712717L198.3546875,145.40297886993113L198.95034722222223,144.11860296673453L199.54600694444446,149.66203058619675L200.14166666666668,137.65576770622283L200.7373263888889,133.27741007568935L201.3329861111111,142.48361168522388L201.92864583333332,97.26133335009217L202.52430555555554,30.108601763844504L203.11996527777777,37.81115276987355L203.715625,13.860541994373L204.31128472222224,38.59538023918868L204.90694444444446,111.60293452069163L205.50260416666669,135.84603367000818L206.09826388888888,143.5287587392765L206.6939236111111,146.92939970890683L207.28958333333333,144.13123185606673L207.88524305555555,147.54005092444518L208.48090277777777,146.04627036117017L209.0765625,146.5208553679598L209.67222222222225,145.33101182989776L210.26788194444447,122.3411857082198L210.86354166666666,29.556346569210312L211.45920138888889,3.90609242891273L212.0548611111111,109.12035038632652L212.65052083333333,136.67970521003008L213.24618055555555,146.07624909157556L213.84184027777778,148.8936733677207L214.4375,146.9500624584034L215.0331597222222,147.65463817647347L215.62881944444445,148.4179195705025L216.22447916666667,147.60941022246456L216.8201388888889,149.77106350800022L217.41579861111111,148.51713511060612L218.01145833333334,149.6715428918445L218.60711805555556,154.1607587491162L219.20277777777778,151.89846871552677L219.79843749999998,149.7368205813691L220.3940972222222,141.83875989882895L220.98975694444445,-17.736004998286557L222.77673611111112,-43.1680421878894L223.37239583333334,97.67385569959879L223.96805555555557,138.11438000698885L224.56371527777776,144.31335710780695L225.15937499999998,138.42334134286892L225.7550347222222,149.23861135511348L226.35069444444446,139.55041476773718L226.94635416666668,145.821566108459L227.5420138888889,138.53429401153699L228.13767361111113,148.55338077852502L228.73333333333335,139.92409916144484L229.32899305555554,145.6920513077639L229.92465277777777,135.2570388475433L230.5203125,142.29190029141805L231.1159722222222,140.1888387791502L231.71163194444443,142.89742760298154L232.30729166666669,141.90060619823635L232.9029513888889,139.9475928793351L233.4986111111111,145.5092884299035L234.09427083333333,144.41158243858567L234.68993055555555,151.3843921003087L235.28559027777777,152.29693180974573L235.88125,153.48960517145073L236.47690972222222,150.93089740738895L237.07256944444444,154.11975091843246L237.6682291666667,154.5382846398667L238.26388888888889,153.049385865801L238.8595486111111,152.4386954425524L239.45520833333333,153.4691793853417L240.05086805555555,153.73399484277857L240.64652777777778,149.44022999354638L241.2421875,151.4420921128088L241.83784722222222,147.74651357531548" style="fill: none;" fill="none"></path></g></g></g></g></g></g><g transform="translate(61, 177)" clip-path="url(#clip_1)"><clipPath id="clip_1"><rect width="268" height="23"></rect></clipPath><g><g><line x1="0" y1="0" x2="0" y2="5" style="visibility: inherit;" fill="rgb(0, 0, 0)" stroke="rgb(204, 204, 204)" stroke-width="1px"></line><line x1="29.78298611111111" y1="0" x2="29.78298611111111" y2="5" style="visibility: inherit;" fill="rgb(0, 0, 0)" stroke="rgb(204, 204, 204)" stroke-width="1px"></line><line x1="59.56597222222222" y1="0" x2="59.56597222222222" y2="5" style="visibility: inherit;" fill="rgb(0, 0, 0)" stroke="rgb(204, 204, 204)" stroke-width="1px"></line><line x1="89.34895833333333" y1="0" x2="89.34895833333333" y2="5" style="visibility: inherit;" fill="rgb(0, 0, 0)" stroke="rgb(204, 204, 204)" stroke-width="1px"></line><line x1="119.13194444444444" y1="0" x2="119.13194444444444" y2="5" style="visibility: inherit;" fill="rgb(0, 0, 0)" stroke="rgb(204, 204, 204)" stroke-width="1px"></line><line x1="148.91493055555557" y1="0" x2="148.91493055555557" y2="5" style="visibility: inherit;" fill="rgb(0, 0, 0)" stroke="rgb(204, 204, 204)" stroke-width="1px"></line><line x1="178.69791666666666" y1="0" x2="178.69791666666666" y2="5" style="visibility: inherit;" fill="rgb(0, 0, 0)" stroke="rgb(204, 204, 204)" stroke-width="1px"></line><line x1="208.48090277777777" y1="0" x2="208.48090277777777" y2="5" style="visibility: inherit;" fill="rgb(0, 0, 0)" stroke="rgb(204, 204, 204)" stroke-width="1px"></line><line x1="238.26388888888889" y1="0" x2="238.26388888888889" y2="5" style="visibility: inherit;" fill="rgb(0, 0, 0)" stroke="rgb(204, 204, 204)" stroke-width="1px"></line><line x1="268.046875" y1="0" x2="268.046875" y2="5" style="visibility: inherit;" fill="rgb(0, 0, 0)" stroke="rgb(204, 204, 204)" stroke-width="1px"></line></g><g transform="translate(0, 8)"><text x="0" y="0" dx="0em" dy="0.95em" style="text-anchor: middle; visibility: hidden; font-family: Roboto, sans-serif; font-size: 12px; font-weight: 200;" fill="rgb(33, 33, 33)" stroke="none" stroke-width="1px">-50</text><text x="29.78298611111111" y="0" dx="0em" dy="0.95em" style="text-anchor: middle; visibility: inherit; font-family: Roboto, sans-serif; font-size: 12px; font-weight: 200;" fill="rgb(33, 33, 33)" stroke="none" stroke-width="1px">0</text><text x="59.56597222222222" y="0" dx="0em" dy="0.95em" style="text-anchor: middle; visibility: inherit; font-family: Roboto, sans-serif; font-size: 12px; font-weight: 200;" fill="rgb(33, 33, 33)" stroke="none" stroke-width="1px">50</text><text x="89.34895833333333" y="0" dx="0em" dy="0.95em" style="text-anchor: middle; visibility: inherit; font-family: Roboto, sans-serif; font-size: 12px; font-weight: 200;" fill="rgb(33, 33, 33)" stroke="none" stroke-width="1px">100</text><text x="119.13194444444444" y="0" dx="0em" dy="0.95em" style="text-anchor: middle; visibility: inherit; font-family: Roboto, sans-serif; font-size: 12px; font-weight: 200;" fill="rgb(33, 33, 33)" stroke="none" stroke-width="1px">150</text><text x="148.91493055555557" y="0" dx="0em" dy="0.95em" style="text-anchor: middle; visibility: inherit; font-family: Roboto, sans-serif; font-size: 12px; font-weight: 200;" fill="rgb(33, 33, 33)" stroke="none" stroke-width="1px">200</text><text x="178.69791666666666" y="0" dx="0em" dy="0.95em" style="text-anchor: middle; visibility: inherit; font-family: Roboto, sans-serif; font-size: 12px; font-weight: 200;" fill="rgb(33, 33, 33)" stroke="none" stroke-width="1px">250</text><text x="208.48090277777777" y="0" dx="0em" dy="0.95em" style="text-anchor: middle; visibility: inherit; font-family: Roboto, sans-serif; font-size: 12px; font-weight: 200;" fill="rgb(33, 33, 33)" stroke="none" stroke-width="1px">300</text><text x="238.26388888888889" y="0" dx="0em" dy="0.95em" style="text-anchor: middle; visibility: inherit; font-family: Roboto, sans-serif; font-size: 12px; font-weight: 200;" fill="rgb(33, 33, 33)" stroke="none" stroke-width="1px">350</text><text x="268.046875" y="0" dx="0em" dy="0.95em" style="text-anchor: middle; visibility: hidden; font-family: Roboto, sans-serif; font-size: 12px; font-weight: 200;" fill="rgb(33, 33, 33)" stroke="none" stroke-width="1px">400</text></g><line x1="0" y1="0" x2="268.046875" y2="0" fill="rgb(0, 0, 0)" stroke="rgb(204, 204, 204)" stroke-width="1px"></line></g></g></g></g></svg>