<svg viewBox="0 0 301 200" xmlns="http://www.w3.org/2000/svg"><g><g><g><g><g><line x1="61.953125" y1="177" x2="56.953125" y2="177" style="visibility: inherit;" fill="rgb(0, 0, 0)" stroke="rgb(204, 204, 204)" stroke-width="1px"></line><line x1="61.953125" y1="163.3846153846154" x2="56.953125" y2="163.3846153846154" style="visibility: inherit;" fill="rgb(0, 0, 0)" stroke="rgb(204, 204, 204)" stroke-width="1px"></line><line x1="61.953125" y1="149.76923076923077" x2="56.953125" y2="149.76923076923077" style="visibility: inherit;" fill="rgb(0, 0, 0)" stroke="rgb(204, 204, 204)" stroke-width="1px"></line><line x1="61.953125" y1="136.15384615384616" x2="56.953125" y2="136.15384615384616" style="visibility: inherit;" fill="rgb(0, 0, 0)" stroke="rgb(204, 204, 204)" stroke-width="1px"></line><line x1="61.953125" y1="122.53846153846153" x2="56.953125" y2="122.53846153846153" style="visibility: inherit;" fill="rgb(0, 0, 0)" stroke="rgb(204, 204, 204)" stroke-width="1px"></line><line x1="61.953125" y1="108.92307692307693" x2="56.953125" y2="108.92307692307693" style="visibility: inherit;" fill="rgb(0, 0, 0)" stroke="rgb(204, 204, 204)" stroke-width="1px"></line><line x1="61.953125" y1="95.3076923076923" x2="56.953125" y2="95.3076923076923" style="visibility: inherit;" fill="rgb(0, 0, 0)" stroke="rgb(204, 204, 204)" stroke-width="1px"></line><line x1="61.953125" y1="81.6923076923077" x2="56.953125" y2="81.6923076923077" style="visibility: inherit;" fill="rgb(0, 0, 0)" stroke="rgb(204, 204, 204)" stroke-width="1px"></line><line x1="61.953125" y1="68.07692307692307" x2="56.953125" y2="68.07692307692307" style="visibility: inherit;" fill="rgb(0, 0, 0)" stroke="rgb(204, 204, 204)" stroke-width="1px"></line><line x1="61.953125" y1="54.46153846153847" x2="56.953125" y2="54.46153846153847" style="visibility: inherit;" fill="rgb(0, 0, 0)" stroke="rgb(204, 204, 204)" stroke-width="1px"></line><line x1="61.953125" y1="40.84615384615386" x2="56.953125" y2="40.84615384615386" style="visibility: inherit;" fill="rgb(0, 0, 0)" stroke="rgb(204, 204, 204)" stroke-width="1px"></line><line x1="61.953125" y1="27.230769230769234" x2="56.953125" y2="27.230769230769234" style="visibility: inherit;" fill="rgb(0, 0, 0)" stroke="rgb(204, 204, 204)" stroke-width="1px"></line><line x1="61.953125" y1="13.615384615384626" x2="56.953125" y2="13.615384615384626" style="visibility: inherit;" fill="rgb(0, 0, 0)" stroke="rgb(204, 204, 204)" stroke-width="1px"></line><line x1="61.953125" y1="0" x2="56.953125" y2="0" style="visibility: inherit;" fill="rgb(0, 0, 0)" stroke="rgb(204, 204, 204)" stroke-width="1px"></line></g><g transform="translate(51.953125, 0)"><text x="0" y="177" dx="0em" dy="0.3em" style="text-anchor: end; visibility: hidden; font-family: Roboto, sans-serif; font-size: 12px; font-weight: 200;" fill="rgb(33, 33, 33)" stroke="none" stroke-width="1px">-0.02</text><text x="0" y="163.3846153846154" dx="0em" dy="0.3em" style="text-anchor: end; visibility: inherit; font-family: Roboto, sans-serif; font-size: 12px; font-weight: 200;" fill="rgb(33, 33, 33)" stroke="none" stroke-width="1px">0</text><text x="0" y="149.76923076923077" dx="0em" dy="0.3em" style="text-anchor: end; visibility: hidden; font-family: Roboto, sans-serif; font-size: 12px; font-weight: 200;" fill="rgb(33, 33, 33)" stroke="none" stroke-width="1px">0.02</text><text x="0" y="136.15384615384616" dx="0em" dy="0.3em" style="text-anchor: end; visibility: inherit; font-family: Roboto, sans-serif; font-size: 12px; font-weight: 200;" fill="rgb(33, 33, 33)" stroke="none" stroke-width="1px">0.04</text><text x="0" y="122.53846153846153" dx="0em" dy="0.3em" style="text-anchor: end; visibility: hidden; font-family: Roboto, sans-serif; font-size: 12px; font-weight: 200;" fill="rgb(33, 33, 33)" stroke="none" stroke-width="1px">0.06</text><text x="0" y="108.92307692307693" dx="0em" dy="0.3em" style="text-anchor: end; visibility: inherit; font-family: Roboto, sans-serif; font-size: 12px; font-weight: 200;" fill="rgb(33, 33, 33)" stroke="none" stroke-width="1px">0.08</text><text x="0" y="95.3076923076923" dx="0em" dy="0.3em" style="text-anchor: end; visibility: hidden; font-family: Roboto, sans-serif; font-size: 12px; font-weight: 200;" fill="rgb(33, 33, 33)" stroke="none" stroke-width="1px">0.1</text><text x="0" y="81.6923076923077" dx="0em" dy="0.3em" style="text-anchor: end; visibility: inherit; font-family: Roboto, sans-serif; font-size: 12px; font-weight: 200;" fill="rgb(33, 33, 33)" stroke="none" stroke-width="1px">0.12</text><text x="0" y="68.07692307692307" dx="0em" dy="0.3em" style="text-anchor: end; visibility: hidden; font-family: Roboto, sans-serif; font-size: 12px; font-weight: 200;" fill="rgb(33, 33, 33)" stroke="none" stroke-width="1px">0.14</text><text x="0" y="54.46153846153847" dx="0em" dy="0.3em" style="text-anchor: end; visibility: inherit; font-family: Roboto, sans-serif; font-size: 12px; font-weight: 200;" fill="rgb(33, 33, 33)" stroke="none" stroke-width="1px">0.16</text><text x="0" y="40.84615384615386" dx="0em" dy="0.3em" style="text-anchor: end; visibility: hidden; font-family: Roboto, sans-serif; font-size: 12px; font-weight: 200;" fill="rgb(33, 33, 33)" stroke="none" stroke-width="1px">0.18</text><text x="0" y="27.230769230769234" dx="0em" dy="0.3em" style="text-anchor: end; visibility: inherit; font-family: Roboto, sans-serif; font-size: 12px; font-weight: 200;" fill="rgb(33, 33, 33)" stroke="none" stroke-width="1px">0.2</text><text x="0" y="13.615384615384626" dx="0em" dy="0.3em" style="text-anchor: end; visibility: hidden; font-family: Roboto, sans-serif; font-size: 12px; font-weight: 200;" fill="rgb(33, 33, 33)" stroke="none" stroke-width="1px">0.22</text><text x="0" y="0" dx="0em" dy="0.3em" style="text-anchor: end; visibility: hidden; font-family: Roboto, sans-serif; font-size: 12px; font-weight: 200;" fill="rgb(33, 33, 33)" stroke="none" stroke-width="1px">0.24</text></g><line x1="61.953125" y1="0" x2="61.953125" y2="177" fill="rgb(0, 0, 0)" stroke="rgb(204, 204, 204)" stroke-width="1px"></line></g></g><g transform="translate(61, 0)" clip-path="url(#clip_0)"><clipPath id="clip_0"><rect width="268" height="177"></rect></clipPath><g><g><g><line x1="0" y1="0" x2="0" y2="177" fill="rgb(0, 0, 0)" stroke="rgb(66, 66, 66)" stroke-width="1px" opacity="0.25"></line><line x1="29.78298611111111" y1="0" x2="29.78298611111111" y2="177" fill="rgb(0, 0, 0)" stroke="rgb(66, 66, 66)" stroke-width="1px" opacity="0.25"></line><line x1="59.56597222222222" y1="0" x2="59.56597222222222" y2="177" fill="rgb(0, 0, 0)" stroke="rgb(66, 66, 66)" stroke-width="1px" opacity="0.25"></line><line x1="89.34895833333333" y1="0" x2="89.34895833333333" y2="177" fill="rgb(0, 0, 0)" stroke="rgb(66, 66, 66)" stroke-width="1px" opacity="0.25"></line><line x1="119.13194444444444" y1="0" x2="119.13194444444444" y2="177" fill="rgb(0, 0, 0)" stroke="rgb(66, 66, 66)" stroke-width="1px" opacity="0.25"></line><line x1="148.91493055555557" y1="0" x2="148.91493055555557" y2="177" fill="rgb(0, 0, 0)" stroke="rgb(66, 66, 66)" stroke-width="1px" opacity="0.25"></line><line x1="178.69791666666666" y1="0" x2="178.69791666666666" y2="177" fill="rgb(0, 0, 0)" stroke="rgb(66, 66, 66)" stroke-width="1px" opacity="0.25"></line><line x1="208.48090277777777" y1="0" x2="208.48090277777777" y2="177" fill="rgb(0, 0, 0)" stroke="rgb(66, 66, 66)" stroke-width="1px" opacity="0.25"></line><line x1="238.26388888888889" y1="0" x2="238.26388888888889" y2="177" fill="rgb(0, 0, 0)" stroke="rgb(66, 66, 66)" stroke-width="1px" opacity="0.25"></line><line x1="268.046875" y1="0" x2="268.046875" y2="177" fill="rgb(0, 0, 0)" stroke="rgb(66, 66, 66)" stroke-width="1px" opacity="0.25"></line></g><g><line x1="0" y1="177" x2="268.046875" y2="177" fill="rgb(0, 0, 0)" stroke="rgb(66, 66, 66)" stroke-width="1px" opacity="0.25"></line><line x1="0" y1="163.3846153846154" x2="268.046875" y2="163.3846153846154" fill="rgb(0, 0, 0)" stroke="rgb(66, 66, 66)" stroke-width="1px" opacity="0.25"></line><line x1="0" y1="149.76923076923077" x2="268.046875" y2="149.76923076923077" fill="rgb(0, 0, 0)" stroke="rgb(66, 66, 66)" stroke-width="1px" opacity="0.25"></line><line x1="0" y1="136.15384615384616" x2="268.046875" y2="136.15384615384616" fill="rgb(0, 0, 0)" stroke="rgb(66, 66, 66)" stroke-width="1px" opacity="0.25"></line><line x1="0" y1="122.53846153846153" x2="268.046875" y2="122.53846153846153" fill="rgb(0, 0, 0)" stroke="rgb(66, 66, 66)" stroke-width="1px" opacity="0.25"></line><line x1="0" y1="108.92307692307693" x2="268.046875" y2="108.92307692307693" fill="rgb(0, 0, 0)" stroke="rgb(66, 66, 66)" stroke-width="1px" opacity="0.25"></line><line x1="0" y1="95.3076923076923" x2="268.046875" y2="95.3076923076923" fill="rgb(0, 0, 0)" stroke="rgb(66, 66, 66)" stroke-width="1px" opacity="0.25"></line><line x1="0" y1="81.6923076923077" x2="268.046875" y2="81.6923076923077" fill="rgb(0, 0, 0)" stroke="rgb(66, 66, 66)" stroke-width="1px" opacity="0.25"></line><line x1="0" y1="68.07692307692307" x2="268.046875" y2="68.07692307692307" fill="rgb(0, 0, 0)" stroke="rgb(66, 66, 66)" stroke-width="1px" opacity="0.25"></line><line x1="0" y1="54.46153846153847" x2="268.046875" y2="54.46153846153847" fill="rgb(0, 0, 0)" stroke="rgb(66, 66, 66)" stroke-width="1px" opacity="0.25"></line><line x1="0" y1="40.84615384615386" x2="268.046875" y2="40.84615384615386" fill="rgb(0, 0, 0)" stroke="rgb(66, 66, 66)" stroke-width="1px" opacity="0.25"></line><line x1="0" y1="27.230769230769234" x2="268.046875" y2="27.230769230769234" fill="rgb(0, 0, 0)" stroke="rgb(66, 66, 66)" stroke-width="1px" opacity="0.25"></line><line x1="0" y1="13.615384615384626" x2="268.046875" y2="13.615384615384626" fill="rgb(0, 0, 0)" stroke="rgb(66, 66, 66)" stroke-width="1px" opacity="0.25"></line><line x1="0" y1="0" x2="268.046875" y2="0" fill="rgb(0, 0, 0)" stroke="rgb(66, 66, 66)" stroke-width="1px" opacity="0.25"></line></g></g></g><g><g><line x1="0" y1="163.3846153846154" x2="268.046875" y2="163.3846153846154" fill="rgb(0, 0, 0)" stroke="rgb(153, 153, 153)" stroke-width="1.5px"></line></g></g><g><g><line x1="29.78298611111111" y1="0" x2="29.78298611111111" y2="177" fill="rgb(0, 0, 0)" stroke="rgb(153, 153, 153)" stroke-width="1.5px"></line></g></g><g><g><g><g><g><path stroke="rgb(0, 153, 136)" stroke-width="2px" d="M32.165625,-323.62940135368933L32.76128472222222,16.769537714811474L33.356944444444444,106.20629527935615L33.95260416666667,126.79354251691929L34.54826388888889,141.65663178838216L35.14392361111111,144.19338714446013L35.739583333333336,150.27235300609698L36.33524305555556,157.47716473243557L36.930902777777774,159.4619630926217L37.526562500000004,159.4973725554032L38.12222222222222,158.4173745888357L38.71788194444444,157.47000669458737L39.313541666666666,156.6764053728145L39.90920138888889,156.291427203669L40.50486111111111,155.67006640537429L41.10052083333333,154.90491337042587L41.69618055555556,154.22278596632754L42.29184027777777,153.7374957268341L42.8875,153.5877488142309L43.48315972222222,153.92597402775516L44.07881944444445,154.85929466898625L44.674479166666664,156.34663919746302L45.27013888888889,158.13750418519172L45.86579861111111,159.8713990534441L46.46145833333333,161.24650789431942L47.057118055555556,162.14853082342933L47.65277777777778,162.63682550507096L48.2484375,162.85560230928687L48.844097222222224,162.94219622041922L49.43975694444444,162.97730420871028L50.03541666666667,162.99287848866797L50.631076388888886,163.00368445502738L51.226736111111116,163.01778171603712L51.82239583333333,163.03180713513686L52.41805555555556,163.0393029845033L53.01371527777778,163.0348966542739L53.609375,163.01908901689322L54.20503472222222,163.03070073802238L54.800694444444446,163.05760872320164L55.39635416666667,163.01783477523043L55.99201388888889,162.960480362956L56.587673611111114,162.71542507195127L57.18333333333334,162.55945117363277L57.77899305555555,162.88936238008765L58.374652777777776,161.87062856318573L58.9703125,161.1766564767951L59.56597222222222,159.65071465433218L60.161631944444444,156.4801635490014L60.75729166666667,160.42023700884042L61.35295138888889,154.30270365195778L61.948611111111106,150.2509308818441L62.544270833333336,144.4315272652759L63.13993055555555,141.9164717323505L63.73559027777778,136.1408722641376L64.33125,124.29098089841696L64.92690972222222,118.04806109918997L65.52256944444444,140.0664467347356L66.11822916666667,104.54901867875687L66.71388888888889,110.642741891054L67.30954861111111,128.73384121346933L67.90520833333333,146.53934433597786L68.50086805555556,130.0375018681471L69.09652777777778,132.8711921618535L69.6921875,145.25678752964507L70.28784722222223,146.6846734268161L70.88350694444443,150.14616485083332L71.47916666666667,153.2885827751687L72.0748263888889,151.99400122606983L72.67048611111112,155.21983913905345L73.26614583333333,158.0948070283406L73.86180555555555,155.01123337404658L74.45746527777779,152.43210737923016L75.05312500000001,155.6911924442706L75.64878472222222,155.15887281828773L76.24444444444444,154.62623364836548L76.84010416666668,157.78309128146904L77.43576388888889,157.89757296987452L78.03142361111111,157.2088023487192L78.62708333333333,159.8927374876176L79.22274305555555,159.46518103957462L79.81840277777778,157.51310074529968L80.4140625,160.09807553543496L81.00972222222222,159.78372164901631L81.60538194444445,159.55657092324245L82.20104166666665,161.95935779974724L82.79670138888889,161.65183701810355L83.39236111111111,161.3939149717872L83.98802083333334,162.5333254450144L84.58368055555555,162.29389716269304L85.17934027777778,162.12996811022123L85.775,162.39663640384634L86.37065972222223,162.23598568832787L86.96631944444444,162.1571014483746L87.56197916666666,161.9703172375448L88.1576388888889,161.82432100363076L88.75329861111112,161.63556833239272L89.34895833333333,161.58206881514678L89.94461805555555,161.65219270094084L90.54027777777777,161.6619473503043L91.13593750000001,161.63324989528897L91.73159722222222,161.53801660812817L92.32725694444444,161.41743901676426L92.92291666666667,161.22082550121615L93.5185763888889,161.07867092725175L94.11423611111111,161.03352520156366L94.70989583333333,161.03732295592243L95.30555555555556,160.94969595574702L95.90121527777777,160.84844585909295L96.496875,160.69535704945716L97.09253472222223,160.5438247484943L97.68819444444445,160.34807682295258L98.28385416666666,160.27424949264298L98.87951388888888,160.14108526205214L99.47517361111112,160.08261252524187L100.07083333333334,159.85504176403182L100.66649305555555,159.82073326960491L101.26215277777777,159.4641003597241L101.8578125,159.54529653811971L102.45347222222223,159.0143784039582L103.04913194444444,159.37883189814883L103.64479166666666,158.25249815832538L104.24045138888889,159.07935931247013L104.83611111111112,156.21959195085444L105.43177083333333,157.15611183557374L106.02743055555555,150.02791457279372L106.62309027777778,146.86842387226912L107.21875,141.76701139486752L107.81440972222222,100.48273075200045L108.41006944444445,98.13417409589657L109.00572916666667,133.531674268154L109.60138888888889,152.36104435760242L110.1970486111111,154.02929069875526L110.79270833333334,161.43028734599312L111.38836805555556,160.0452826287454L111.98402777777778,155.6195055511422L112.57968749999999,152.83803216081398L113.17534722222223,151.4505482834692L113.77100694444445,151.55233444044222L114.36666666666667,152.85426803620962L114.96232638888888,155.45714616317017L115.5579861111111,144.28183487802744L116.15364583333334,134.85353624706084L116.74930555555555,140.4150767807777L117.34496527777777,142.83495767299945L117.940625,145.13066784808268L118.53628472222222,140.8307628688904L119.13194444444444,146.9352491326057L119.72760416666667,150.78481018657868L120.32326388888889,152.10242806403684L120.91892361111111,159.93789082149473L121.51458333333333,152.22537005864655L122.11024305555556,152.84908559144688L122.70590277777778,151.0033528804779L123.3015625,150.69218428920095L123.89722222222221,159.65000677574426L124.49288194444445,152.82998079477022L125.08854166666667,151.74174664656704L125.6842013888889,151.29103118811662L126.2798611111111,151.31238991079422L126.87552083333333,160.2769763943954L127.47118055555556,155.3049126407848L128.06684027777777,155.39691022855158L128.6625,154.3713777022293L129.25815972222222,153.80575639883486L129.85381944444444,160.94101802363562L130.44947916666666,156.07656940932458L131.04513888888889,157.19139354418104L131.6407986111111,155.80292694241953L132.23645833333333,155.364595713667L132.83211805555555,161.08531446131664L133.42777777777778,155.96743754584057L134.0234375,157.23370204937572L134.61909722222222,155.76736626688106L135.21475694444445,155.58521100506186L135.81041666666667,160.8965033021254L136.40607638888886,155.89570373554642L137.00173611111111,157.14604493345206L137.59739583333334,155.44630449379866L138.19305555555556,155.46386419408594L138.78871527777778,160.72541288322267L139.384375,156.22080545700513L139.98003472222223,157.14865454229025L140.57569444444445,153.48200449691367L141.17135416666665,150.0261887819148L141.76701388888887,157.91779300026022L142.3626736111111,156.66119533490675L142.95833333333334,157.9454988546383L143.55399305555557,156.86968951314114L144.1496527777778,156.99703157707475L144.7453125,160.47932854502534L145.34097222222223,158.2419326028142L145.93663194444443,157.81832860897367L146.53229166666665,155.94962550728368L147.12795138888887,153.74140443394964L147.7236111111111,155.90541432081508L148.31927083333335,155.63002957862156L148.91493055555557,156.04828216250127L149.5105902777778,154.3714607582929L150.10625000000002,145.7124280224626L150.7019097222222,107.74612172979576L151.29756944444443,56.86639815110427L151.89322916666666,130.9626880872708L152.48888888888888,149.82086531645976L153.0845486111111,152.78500435128808L153.68020833333335,155.33935237647248L154.27586805555558,156.14915280072736L154.87152777777777,156.02609795131363L155.4671875,157.99570212398584L156.06284722222222,154.8288986857694L156.65850694444444,156.1708462837224L157.25416666666666,153.07097462048898L157.84982638888889,151.4037718692651L158.4454861111111,155.36209578955402L159.04114583333333,10.903015315532704L159.63680555555555,-84.1432295900125L160.23246527777778,70.81836620890178L160.828125,112.60464023626768L161.42378472222222,105.83518810684865L162.01944444444445,72.70167703353442L162.61510416666667,122.59039341371792L163.2107638888889,144.34398237014045L163.80642361111111,147.98589946100344L164.4020833333333,158.9645650542986L164.99774305555556,159.75131488483973L165.59340277777778,155.83672885826002L166.1890625,159.3078833163644L166.78472222222223,158.11655091558796L167.38038194444445,156.85881994707654L167.97604166666667,160.24788014347163L168.5717013888889,158.38671168498695L169.1673611111111,158.18353594789426L169.76302083333331,160.13799728832853L170.35868055555557,157.83069128213594L170.9543402777778,158.6498123719715L171.55,159.4636327731065L172.14565972222223,157.77669152646112L172.74131944444446,159.34806343067723L173.33697916666665,158.13006020623905L173.93263888888887,155.81777685937973L174.5282986111111,151.68228230911953L175.12395833333332,128.334789162645L175.71961805555554,49.05975711574923L176.3152777777778,3.057389919574438L176.91093750000002,123.62306812749459L177.50659722222224,148.55719583940046L178.10225694444443,152.94870404856135L178.69791666666666,154.18743197992444L179.29357638888888,158.18137141811448L179.8892361111111,155.46099463878917L180.48489583333333,153.92857285832557L181.08055555555555,158.4502080456139L181.6762152777778,152.81594305198925L182.27187500000002,147.14689373511536L182.86753472222222,148.84739118957748L183.46319444444444,118.28899215734923L184.05885416666666,3.5709832562849937L184.65451388888889,-35.273193927911606L185.2501736111111,105.83918494215378L185.84583333333333,151.58984027631007L186.44149305555555,158.27369076887575L187.0371527777778,159.07379709227155L187.6328125,160.6416080470125L188.22847222222222,159.72475850102134L188.82413194444445,159.83972901557215L189.41979166666667,160.87453402227794L190.0154513888889,159.91533317502874L190.61111111111111,160.19450647835262L191.20677083333334,159.78518939548385L191.80243055555553,155.77549625087815L192.39809027777775,140.87445923456778L192.99375,67.27743387910037L193.58940972222223,-66.42619195351234L194.18506944444445,94.48275057283732L194.78072916666667,139.83240615977692L195.3763888888889,150.9079816948909L195.97204861111112,157.5890146214515L196.56770833333331,159.06434613645362L197.16336805555554,159.882398592738L197.75902777777776,159.5211579733743L198.3546875,159.20888999878215L198.95034722222223,160.7291389938014L199.54600694444446,158.2915826934175L200.14166666666668,155.89734710437747L200.7373263888889,157.07900157169652L201.3329861111111,147.67526724705328L201.92864583333332,111.8643888040231L202.52430555555554,40.85270216373298L203.11996527777777,14.76544942534888L203.715625,101.15631415981514L204.31128472222224,131.34602669167978L204.90694444444446,142.7976369697314L205.50260416666669,156.85070771552049L206.09826388888888,158.6384172068479L206.6939236111111,158.91998613869342L207.28958333333333,160.0393479242921L207.88524305555555,159.55216831785555L208.48090277777777,159.81138946244923L209.0765625,159.65546406633578L209.67222222222225,154.49045600484197L210.26788194444447,125.94951031414362L210.86354166666666,1.0474078196745666L211.45920138888889,-33.58865972207144L212.0548611111111,105.57355770239464L212.65052083333333,142.05979986947315L213.24618055555555,156.25571690041286L213.84184027777778,159.54329558440412L214.4375,160.17334493457412L215.0331597222222,160.40547617109348L215.62881944444445,160.32833737650742L216.22447916666667,160.79330947167742L216.8201388888889,160.55698437945773L217.41579861111111,160.6685927084719L218.01145833333334,161.81402395379084L218.60711805555556,161.61663741453623L219.20277777777778,160.87187923981736L219.79843749999998,159.26535987982956L220.3940972222222,143.32194263659989L220.98975694444445,-55.48488573844618L222.77673611111112,-46.37490105628967L223.37239583333334,97.32527143794758L223.96805555555557,140.1710720142493L224.56371527777776,149.93181046499657L225.15937499999998,155.41652350586193L225.7550347222222,156.54284741844123L226.35069444444446,156.1064176029311L226.94635416666668,156.125870474256L227.5420138888889,157.76360100321472L228.13767361111113,156.66328505082774L228.73333333333335,156.84071309119463L229.32899305555554,154.54861046574436L229.92465277777777,156.83467789524448L230.5203125,154.2274142813224L231.1159722222222,157.24659222364426L231.71163194444443,155.75591721041846L232.30729166666669,156.91004144572295L232.9029513888889,154.38567982957912L233.4986111111111,157.4009541369115L234.09427083333333,159.24722385922303L234.68993055555555,159.91260563926053L235.28559027777777,160.62876700896484L235.88125,160.62953511904925L236.47690972222222,160.92342361098585L237.07256944444444,161.02836320380894L237.6682291666667,161.6152416288566L238.26388888888889,160.92346593153735L238.8595486111111,161.35472598259983L239.45520833333333,160.7546579693444L240.05086805555555,161.09322729491842L240.64652777777778,160.029738464536L241.2421875,160.7064165032397L241.83784722222222,158.7358831804819" style="fill: none;" fill="none"></path></g></g></g></g></g><g><g><span fill="rgb(0, 0, 0)" stroke="none" stroke-width="1px">Alt + Scroll to Zoom</span></g></g></g><g transform="translate(61, 177)" clip-path="url(#clip_1)"><clipPath id="clip_1"><rect width="268" height="23"></rect></clipPath><g><g><line x1="0" y1="0" x2="0" y2="5" style="visibility: inherit;" fill="rgb(0, 0, 0)" stroke="rgb(204, 204, 204)" stroke-width="1px"></line><line x1="29.78298611111111" y1="0" x2="29.78298611111111" y2="5" style="visibility: inherit;" fill="rgb(0, 0, 0)" stroke="rgb(204, 204, 204)" stroke-width="1px"></line><line x1="59.56597222222222" y1="0" x2="59.56597222222222" y2="5" style="visibility: inherit;" fill="rgb(0, 0, 0)" stroke="rgb(204, 204, 204)" stroke-width="1px"></line><line x1="89.34895833333333" y1="0" x2="89.34895833333333" y2="5" style="visibility: inherit;" fill="rgb(0, 0, 0)" stroke="rgb(204, 204, 204)" stroke-width="1px"></line><line x1="119.13194444444444" y1="0" x2="119.13194444444444" y2="5" style="visibility: inherit;" fill="rgb(0, 0, 0)" stroke="rgb(204, 204, 204)" stroke-width="1px"></line><line x1="148.91493055555557" y1="0" x2="148.91493055555557" y2="5" style="visibility: inherit;" fill="rgb(0, 0, 0)" stroke="rgb(204, 204, 204)" stroke-width="1px"></line><line x1="178.69791666666666" y1="0" x2="178.69791666666666" y2="5" style="visibility: inherit;" fill="rgb(0, 0, 0)" stroke="rgb(204, 204, 204)" stroke-width="1px"></line><line x1="208.48090277777777" y1="0" x2="208.48090277777777" y2="5" style="visibility: inherit;" fill="rgb(0, 0, 0)" stroke="rgb(204, 204, 204)" stroke-width="1px"></line><line x1="238.26388888888889" y1="0" x2="238.26388888888889" y2="5" style="visibility: inherit;" fill="rgb(0, 0, 0)" stroke="rgb(204, 204, 204)" stroke-width="1px"></line><line x1="268.046875" y1="0" x2="268.046875" y2="5" style="visibility: inherit;" fill="rgb(0, 0, 0)" stroke="rgb(204, 204, 204)" stroke-width="1px"></line></g><g transform="translate(0, 8)"><text x="0" y="0" dx="0em" dy="0.95em" style="text-anchor: middle; visibility: hidden; font-family: Roboto, sans-serif; font-size: 12px; font-weight: 200;" fill="rgb(33, 33, 33)" stroke="none" stroke-width="1px">-50</text><text x="29.78298611111111" y="0" dx="0em" dy="0.95em" style="text-anchor: middle; visibility: inherit; font-family: Roboto, sans-serif; font-size: 12px; font-weight: 200;" fill="rgb(33, 33, 33)" stroke="none" stroke-width="1px">0</text><text x="59.56597222222222" y="0" dx="0em" dy="0.95em" style="text-anchor: middle; visibility: inherit; font-family: Roboto, sans-serif; font-size: 12px; font-weight: 200;" fill="rgb(33, 33, 33)" stroke="none" stroke-width="1px">50</text><text x="89.34895833333333" y="0" dx="0em" dy="0.95em" style="text-anchor: middle; visibility: inherit; font-family: Roboto, sans-serif; font-size: 12px; font-weight: 200;" fill="rgb(33, 33, 33)" stroke="none" stroke-width="1px">100</text><text x="119.13194444444444" y="0" dx="0em" dy="0.95em" style="text-anchor: middle; visibility: inherit; font-family: Roboto, sans-serif; font-size: 12px; font-weight: 200;" fill="rgb(33, 33, 33)" stroke="none" stroke-width="1px">150</text><text x="148.91493055555557" y="0" dx="0em" dy="0.95em" style="text-anchor: middle; visibility: inherit; font-family: Roboto, sans-serif; font-size: 12px; font-weight: 200;" fill="rgb(33, 33, 33)" stroke="none" stroke-width="1px">200</text><text x="178.69791666666666" y="0" dx="0em" dy="0.95em" style="text-anchor: middle; visibility: inherit; font-family: Roboto, sans-serif; font-size: 12px; font-weight: 200;" fill="rgb(33, 33, 33)" stroke="none" stroke-width="1px">250</text><text x="208.48090277777777" y="0" dx="0em" dy="0.95em" style="text-anchor: middle; visibility: inherit; font-family: Roboto, sans-serif; font-size: 12px; font-weight: 200;" fill="rgb(33, 33, 33)" stroke="none" stroke-width="1px">300</text><text x="238.26388888888889" y="0" dx="0em" dy="0.95em" style="text-anchor: middle; visibility: inherit; font-family: Roboto, sans-serif; font-size: 12px; font-weight: 200;" fill="rgb(33, 33, 33)" stroke="none" stroke-width="1px">350</text><text x="268.046875" y="0" dx="0em" dy="0.95em" style="text-anchor: middle; visibility: hidden; font-family: Roboto, sans-serif; font-size: 12px; font-weight: 200;" fill="rgb(33, 33, 33)" stroke="none" stroke-width="1px">400</text></g><line x1="0" y1="0" x2="268.046875" y2="0" fill="rgb(0, 0, 0)" stroke="rgb(204, 204, 204)" stroke-width="1px"></line></g></g></g></g></svg>