<svg viewBox="0 0 301 200" xmlns="http://www.w3.org/2000/svg"><g><g><g><g><g><line x1="30" y1="177" x2="25" y2="177" style="visibility: inherit;" fill="rgb(0, 0, 0)" stroke="rgb(204, 204, 204)" stroke-width="1px"></line><line x1="30" y1="159.3" x2="25" y2="159.3" style="visibility: inherit;" fill="rgb(0, 0, 0)" stroke="rgb(204, 204, 204)" stroke-width="1px"></line><line x1="30" y1="141.6" x2="25" y2="141.6" style="visibility: inherit;" fill="rgb(0, 0, 0)" stroke="rgb(204, 204, 204)" stroke-width="1px"></line><line x1="30" y1="123.89999999999999" x2="25" y2="123.89999999999999" style="visibility: inherit;" fill="rgb(0, 0, 0)" stroke="rgb(204, 204, 204)" stroke-width="1px"></line><line x1="30" y1="106.2" x2="25" y2="106.2" style="visibility: inherit;" fill="rgb(0, 0, 0)" stroke="rgb(204, 204, 204)" stroke-width="1px"></line><line x1="30" y1="88.5" x2="25" y2="88.5" style="visibility: inherit;" fill="rgb(0, 0, 0)" stroke="rgb(204, 204, 204)" stroke-width="1px"></line><line x1="30" y1="70.8" x2="25" y2="70.8" style="visibility: inherit;" fill="rgb(0, 0, 0)" stroke="rgb(204, 204, 204)" stroke-width="1px"></line><line x1="30" y1="53.10000000000001" x2="25" y2="53.10000000000001" style="visibility: inherit;" fill="rgb(0, 0, 0)" stroke="rgb(204, 204, 204)" stroke-width="1px"></line><line x1="30" y1="35.39999999999999" x2="25" y2="35.39999999999999" style="visibility: inherit;" fill="rgb(0, 0, 0)" stroke="rgb(204, 204, 204)" stroke-width="1px"></line><line x1="30" y1="17.699999999999996" x2="25" y2="17.699999999999996" style="visibility: inherit;" fill="rgb(0, 0, 0)" stroke="rgb(204, 204, 204)" stroke-width="1px"></line><line x1="30" y1="0" x2="25" y2="0" style="visibility: inherit;" fill="rgb(0, 0, 0)" stroke="rgb(204, 204, 204)" stroke-width="1px"></line></g><g transform="translate(20, 0)"><text x="0" y="177" dx="0em" dy="0.3em" style="text-anchor: end; visibility: hidden; font-family: Roboto, sans-serif; font-size: 12px; font-weight: 200;" fill="rgb(33, 33, 33)" stroke="none" stroke-width="1px">32</text><text x="0" y="159.3" dx="0em" dy="0.3em" style="text-anchor: end; visibility: inherit; font-family: Roboto, sans-serif; font-size: 12px; font-weight: 200;" fill="rgb(33, 33, 33)" stroke="none" stroke-width="1px">34</text><text x="0" y="141.6" dx="0em" dy="0.3em" style="text-anchor: end; visibility: hidden; font-family: Roboto, sans-serif; font-size: 12px; font-weight: 200;" fill="rgb(33, 33, 33)" stroke="none" stroke-width="1px">36</text><text x="0" y="123.89999999999999" dx="0em" dy="0.3em" style="text-anchor: end; visibility: inherit; font-family: Roboto, sans-serif; font-size: 12px; font-weight: 200;" fill="rgb(33, 33, 33)" stroke="none" stroke-width="1px">38</text><text x="0" y="106.2" dx="0em" dy="0.3em" style="text-anchor: end; visibility: hidden; font-family: Roboto, sans-serif; font-size: 12px; font-weight: 200;" fill="rgb(33, 33, 33)" stroke="none" stroke-width="1px">40</text><text x="0" y="88.5" dx="0em" dy="0.3em" style="text-anchor: end; visibility: inherit; font-family: Roboto, sans-serif; font-size: 12px; font-weight: 200;" fill="rgb(33, 33, 33)" stroke="none" stroke-width="1px">42</text><text x="0" y="70.8" dx="0em" dy="0.3em" style="text-anchor: end; visibility: hidden; font-family: Roboto, sans-serif; font-size: 12px; font-weight: 200;" fill="rgb(33, 33, 33)" stroke="none" stroke-width="1px">44</text><text x="0" y="53.10000000000001" dx="0em" dy="0.3em" style="text-anchor: end; visibility: inherit; font-family: Roboto, sans-serif; font-size: 12px; font-weight: 200;" fill="rgb(33, 33, 33)" stroke="none" stroke-width="1px">46</text><text x="0" y="35.39999999999999" dx="0em" dy="0.3em" style="text-anchor: end; visibility: hidden; font-family: Roboto, sans-serif; font-size: 12px; font-weight: 200;" fill="rgb(33, 33, 33)" stroke="none" stroke-width="1px">48</text><text x="0" y="17.699999999999996" dx="0em" dy="0.3em" style="text-anchor: end; visibility: inherit; font-family: Roboto, sans-serif; font-size: 12px; font-weight: 200;" fill="rgb(33, 33, 33)" stroke="none" stroke-width="1px">50</text><text x="0" y="0" dx="0em" dy="0.3em" style="text-anchor: end; visibility: hidden; font-family: Roboto, sans-serif; font-size: 12px; font-weight: 200;" fill="rgb(33, 33, 33)" stroke="none" stroke-width="1px">52</text></g><line x1="30" y1="0" x2="30" y2="177" fill="rgb(0, 0, 0)" stroke="rgb(204, 204, 204)" stroke-width="1px"></line></g></g><g transform="translate(30, 0)" clip-path="url(#clip_0)"><clipPath id="clip_0"><rect width="300" height="177"></rect></clipPath><g><g><g><line x1="0" y1="0" x2="0" y2="177" fill="rgb(0, 0, 0)" stroke="rgb(66, 66, 66)" stroke-width="1px" opacity="0.25"></line><line x1="25" y1="0" x2="25" y2="177" fill="rgb(0, 0, 0)" stroke="rgb(66, 66, 66)" stroke-width="1px" opacity="0.25"></line><line x1="50" y1="0" x2="50" y2="177" fill="rgb(0, 0, 0)" stroke="rgb(66, 66, 66)" stroke-width="1px" opacity="0.25"></line><line x1="75" y1="0" x2="75" y2="177" fill="rgb(0, 0, 0)" stroke="rgb(66, 66, 66)" stroke-width="1px" opacity="0.25"></line><line x1="100" y1="0" x2="100" y2="177" fill="rgb(0, 0, 0)" stroke="rgb(66, 66, 66)" stroke-width="1px" opacity="0.25"></line><line x1="125" y1="0" x2="125" y2="177" fill="rgb(0, 0, 0)" stroke="rgb(66, 66, 66)" stroke-width="1px" opacity="0.25"></line><line x1="150" y1="0" x2="150" y2="177" fill="rgb(0, 0, 0)" stroke="rgb(66, 66, 66)" stroke-width="1px" opacity="0.25"></line><line x1="175" y1="0" x2="175" y2="177" fill="rgb(0, 0, 0)" stroke="rgb(66, 66, 66)" stroke-width="1px" opacity="0.25"></line><line x1="200" y1="0" x2="200" y2="177" fill="rgb(0, 0, 0)" stroke="rgb(66, 66, 66)" stroke-width="1px" opacity="0.25"></line><line x1="225" y1="0" x2="225" y2="177" fill="rgb(0, 0, 0)" stroke="rgb(66, 66, 66)" stroke-width="1px" opacity="0.25"></line><line x1="250" y1="0" x2="250" y2="177" fill="rgb(0, 0, 0)" stroke="rgb(66, 66, 66)" stroke-width="1px" opacity="0.25"></line><line x1="275" y1="0" x2="275" y2="177" fill="rgb(0, 0, 0)" stroke="rgb(66, 66, 66)" stroke-width="1px" opacity="0.25"></line><line x1="300" y1="0" x2="300" y2="177" fill="rgb(0, 0, 0)" stroke="rgb(66, 66, 66)" stroke-width="1px" opacity="0.25"></line></g><g><line x1="0" y1="177" x2="300" y2="177" fill="rgb(0, 0, 0)" stroke="rgb(66, 66, 66)" stroke-width="1px" opacity="0.25"></line><line x1="0" y1="159.3" x2="300" y2="159.3" fill="rgb(0, 0, 0)" stroke="rgb(66, 66, 66)" stroke-width="1px" opacity="0.25"></line><line x1="0" y1="141.6" x2="300" y2="141.6" fill="rgb(0, 0, 0)" stroke="rgb(66, 66, 66)" stroke-width="1px" opacity="0.25"></line><line x1="0" y1="123.89999999999999" x2="300" y2="123.89999999999999" fill="rgb(0, 0, 0)" stroke="rgb(66, 66, 66)" stroke-width="1px" opacity="0.25"></line><line x1="0" y1="106.2" x2="300" y2="106.2" fill="rgb(0, 0, 0)" stroke="rgb(66, 66, 66)" stroke-width="1px" opacity="0.25"></line><line x1="0" y1="88.5" x2="300" y2="88.5" fill="rgb(0, 0, 0)" stroke="rgb(66, 66, 66)" stroke-width="1px" opacity="0.25"></line><line x1="0" y1="70.8" x2="300" y2="70.8" fill="rgb(0, 0, 0)" stroke="rgb(66, 66, 66)" stroke-width="1px" opacity="0.25"></line><line x1="0" y1="53.10000000000001" x2="300" y2="53.10000000000001" fill="rgb(0, 0, 0)" stroke="rgb(66, 66, 66)" stroke-width="1px" opacity="0.25"></line><line x1="0" y1="35.39999999999999" x2="300" y2="35.39999999999999" fill="rgb(0, 0, 0)" stroke="rgb(66, 66, 66)" stroke-width="1px" opacity="0.25"></line><line x1="0" y1="17.699999999999996" x2="300" y2="17.699999999999996" fill="rgb(0, 0, 0)" stroke="rgb(66, 66, 66)" stroke-width="1px" opacity="0.25"></line><line x1="0" y1="0" x2="300" y2="0" fill="rgb(0, 0, 0)" stroke="rgb(66, 66, 66)" stroke-width="1px" opacity="0.25"></line></g></g></g><g><g><line x1="0" y1="460.2" x2="300" y2="460.2" fill="rgb(0, 0, 0)" stroke="rgb(153, 153, 153)" stroke-width="1.5px"></line></g></g><g><g><line x1="25" y1="0" x2="25" y2="177" fill="rgb(0, 0, 0)" stroke="rgb(153, 153, 153)" stroke-width="1.5px"></line></g></g><g><g><g><g><g><path stroke="rgb(255, 112, 67)" stroke-width="2px" d="M28,184.31805238723754L28.5,150.19386234283448L29,134.87789726257324L29.5,140.3803499221802L30,125.17977676391602L30.5,139.88086967468263L31,144.18166637420654L31.5,146.04880084991456L32,142.61462516784667L32.5,135.55711612701415L33,128.82890281677246L33.5,123.62593574523926L34,121.17346916198731L34.5,118.81350517272949L35,121.45526447296142L35.5,118.9952018737793L36,111.56163940429688L36.5,107.60148181915282L37,105.34978637695313L37.5,104.95884475708009L38,105.82944946289062L38.5,103.89101371765138L39,97.89333457946778L39.49999999999999,95.57138442993164L40,95.52121696472169L40.5,96.623854637146L41,93.18080005645753L41.5,89.87339344024657L42.00000000000001,80.79085407257081L42.5,82.38227005004883L43,100.9711051940918L43.5,116.90599365234375L44,98.03188591003418L44.5,92.99491710662842L45,101.75879516601562L45.5,67.88086795806885L46,82.81875400543213L46.5,88.93482971191406L47,104.51098365783692L47.5,103.20389499664306L48,94.52499103546143L48.49999999999999,93.44166412353515L49,83.64658470153809L49.5,72.75443801879884L50,60.48336124420166L50.5,46.796724700927726L51.00000000000001,71.34596786499024L51.5,65.25747413635254L52,95.44046287536621L52.5,94.86843223571778L53,94.60908737182616L53.5,82.13953514099121L54,104.31000995635986L54.5,96.63310489654542L54.99999999999999,101.22812061309814L55.5,87.76895942687987L56,91.41217746734618L56.5,101.28601913452148L57,102.44871597290039L57.50000000000001,102.65701560974121L58,99.87592849731446L58.5,102.70563011169433L59,98.81177730560303L59.5,101.53857822418213L60,90.29144439697266L60.5,97.44834308624267L61,83.13812427520752L61.49999999999999,92.24378929138184L62,61.96411170959472L62.5,91.51906185150146L63,80.02088813781738L63.5,86.56318473815918L64,74.24251441955566L64.5,89.9859157562256L65,32.27604560852051L65.5,72.53857612609863L66,39.798025703430184L66.5,61.794872474670406L67,80.23911323547362L67.5,50.05686721801759L68,89.22314071655273L68.5,53.0954423904419L69,70.8130313873291L69.5,42.83383255004883L70,64.17468738555908L70.5,22.602840042114266L71,59.49989662170411L71.5,72.4378360748291L72,86.51612319946288L72.5,48.28507118225098L73,63.31525726318359L73.5,-2.4320755004882812L74,38.757540321350106L74.5,17.614553260803227L75,52.88690643310547L75.5,39.36241950988769L76,61.34461441040038L76.5,39.47362518310547L77,67.1223804473877L77.50000000000001,48.407248878478995L78,59.347031021118156L78.5,53.727295875549316L78.99999999999999,51.409565734863286L79.5,46.47472114562988L80,50.10352363586425L80.5,44.519304084777836L81,45.94610595703125L81.5,48.09520454406738L82,47.78981094360352L82.5,46.2416416168213L83,45.492438125610356L83.5,44.16370925903321L84.00000000000001,45.035428047180176L84.5,44.59961929321288L85,29.172752380371094L85.49999999999999,38.891669082641606L86,-12.388595581054688L86.5,-27.49129829406739L87,20.29402256011963L87.5,0.13990173339844536L88,6.317589569091801L88.5,-18.86252803802492L89,18.54403553009034L89.5,13.354302406311035L90,30.848602294921875L90.50000000000001,33.1441858291626L91,20.874155616760262L91.5,12.08516006469727L92,12.631127929687509L92.5,22.436402893066415L93,20.395471572875977L93.5,25.672677040100098L94,19.508223152160653L94.5,22.274253273010245L95,17.10707187652588L95.5,21.252673530578605L96,9.45403518676757L96.5,21.7404727935791L96.99999999999999,18.138408279418954L97.5,17.42607078552247L98,26.888309669494625L98.5,18.20903434753417L99,22.536231422424308L99.5,18.36524219512939L100,-2.913696670532219L100.5,20.85521621704101L101,32.9329828262329L101.5,30.753061294555664L102.00000000000001,22.782713699340825L102.5,26.414048194885254L103,2.292916488647457L103.49999999999999,11.704886627197261L104,33.56642303466798L104.5,39.61612644195556L105,27.16622257232666L105.5,13.358792495727535L106,40.230289649963375L106.5,27.73771305084228L107,35.70292911529542L107.5,14.89011554718018L108,51.962589454650875L108.50000000000001,30.116886520385734L109,37.56523590087891L109.5,31.310102462768555L109.99999999999999,39.95382843017579L110.5,40.045048141479484L111,60.655537605285645L111.5,65.40166339874268L112,-16.386125564575195L112.5,50.84266662597656L113,24.36187477111816L113.5,44.96615238189697L114,50.758705329895015L114.5,5.583004188537593L115.00000000000001,52.351134109497075L115.5,-1.7549160003661952L116,57.644713211059575L116.49999999999999,47.19563369750977L117,57.65669803619385L117.5,38.51581821441651L118,57.64876441955567L118.5,42.453829193115226L119,64.05058536529542L119.5,52.117480659484855L120,56.92906723022462L120.5,49.48389129638672L121,62.49988403320312L121.50000000000001,16.788883209228516L122,9.46544609069825L122.5,-22.793516921997053L124,-35.129581832885734L124.5,33.68586616516114L125,-33.315383148193376L125.5,27.62346897125245L126,24.15090808868409L126.5,31.460739898681645L127,41.19768447875976L127.5,40.26421852111816L128,41.03404941558837L128.5,43.9648286819458L129,40.538721656799325L129.5,41.248594665527335L130,37.11534919738769L130.5,32.35798130035401L131,65.33856582641602L131.5,-72.62115325927734L132,-11.169283103942886L132.5,14.225481033325195L133,10.24327812194825L133.5,44.40262928009032L134,30.21161727905274L134.5,62.58310260772704L135,51.53316135406494L135.5,63.94400482177735L136,62.93802223205567L136.5,76.03031272888184L137,62.23226795196534L137.5,66.51004028320312L138,71.43482437133788L138.5,60.93844699859619L139,68.026070022583L139.5,59.9236530303955L140,53.591681671142574L140.5,58.90085792541504L141,73.62267951965332L141.5,62.492220497131356L142,68.10422458648681L142.5,77.27160301208495L143,69.83122100830077L143.5,57.69407043457032L144,53.549684143066415L144.5,74.89266586303711L145,76.08429508209228L145.5,84.47812900543214L146,88.6723114013672L146.5,29.72550601959228L147,14.24664859771729L147.5,63.12322998046875L148,100.14266681671143L148.5,-22.228710937499983L149,48.86652088165283L149.5,77.59502449035644L150,73.76848926544189L150.5,-8.133206176757797L151,70.75803623199464L151.5,74.38521823883057L152,67.65059051513673L152.5,-3.260885238647461L153,65.39501266479492L153.5,71.97826023101807L154,-63.745360565185564L154.5,-50.9055278778076L155.00000000000003,30.81190509796142L155.5,38.95034408569336L156,62.521085357666024L156.49999999999997,77.34108123779298L157,86.90412769317628L157.5,78.7250415802002L157.99999999999997,68.30570468902589L158.5,93.33687286376953L159,87.18301963806152L159.5,93.98918495178224L160,75.12858123779297L160.5,16.334202575683598L161,67.697314453125L161.5,72.60494842529296L162,95.08179588317871L162.5,94.75162239074707L163,25.861429595947257L163.5,69.73064975738525L164,83.8116376876831L164.5,80.6997018814087L165,66.47952117919921L165.5,91.49033203124999L166,70.98932647705078L166.50000000000003,35.08998126983642L167,62.9485553741455L167.5,85.2332405090332L168.00000000000003,64.93942050933838L168.5,67.01620502471924L169,70.80756225585937L169.49999999999997,54.365766334533696L170,59.55536441802979L170.5,90.26585426330566L170.99999999999997,86.12646446228028L171.5,93.417120552063L172,86.75976963043213L172.5,100.74325847625732L173,42.23898010253907L173.5,54.93391456604003L174,82.13285064697266L174.5,94.26324920654297L175,67.36700592041016L175.5,91.04017524719238L176,84.1350929260254L176.5,100.93511695861817L177,102.04832153320312L177.5,102.13035850524902L178,107.54908618927003L178.5,107.68321495056152L179,111.62578353881837L179.50000000000003,107.3757957458496L180,105.52344818115235L180.5,94.99368209838867L181.00000000000003,86.69630069732666L181.5,59.209965133666984L182,63.189197158813485L182.49999999999997,83.01749954223634L183,92.49182453155517L183.5,91.09044399261474L184,109.36595191955566L184.5,97.29983253479004L185,91.50032501220703L185.5,11.549624061584481L186,97.24142761230469L186.5,61.052961158752446L187,50.56033115386963L187.5,81.77344093322755L188,83.63929252624511L188.5,101.9000473022461L189,106.31100311279296L189.5,92.84485359191895L190,73.81669864654542L190.5,53.98336601257324L191,110.9492654800415L191.5,74.26459350585937L192,64.57855911254883L192.50000000000003,74.20791034698486L193,81.71375312805175L193.5,116.58864898681641L193.99999999999997,103.98385391235352L194.5,122.1064287185669L195,125.12724609375L195.49999999999997,128.282799911499L196,136.63733711242676L196.5,126.45529975891112L197,132.50480060577394L197.5,112.4225549697876L198,108.62373676300048L198.5,113.26834602355957L199,116.22333126068115L199.5,135.8912057876587L200,133.76854133605957L200.5,162.4505573272705L201,95.08456420898438L201.5,44.963316535949716L202,108.97656326293945L202.5,93.59139003753661L203,106.44746131896973L203.5,125.44077587127686L204.00000000000003,139.1060085296631L204.5,155.05784454345704L205,163.69782314300537L205.50000000000003,137.08739261627198L206,168.40404453277588L206.5,99.62421340942383L206.99999999999997,167.8822826385498L207.5,25.819432067871098L208,72.72854404449463L208.49999999999997,97.07266101837159L209,36.68642749786376L209.5,102.36006202697753L210,71.65007858276367L210.5,144.55920524597167L211,134.29033699035645L211.5,124.64505100250244L212,10.47804565429687L212.5,-119.46190109252929L213,25.76058826446534L213.5,94.67586479187013L214,118.8222827911377L214.5,137.19039459228514L215,122.70907974243164L215.5,147.08992767333984L216,130.35381145477294L216.5,180.65516910552978L217.00000000000003,229.48617439270018L217.5,169.48997097015382L218,5.087980270385742L218.50000000000003,51.89172706604005L219,58.99072723388672L219.5,176.33401508331298L219.99999999999997,98.53069095611572L220.5,82.33108978271484L221,63.295676422119136L221.5,128.95219459533692L222,109.54278717041016L222.5,61.92505130767823L223,93.82112731933593L223.5,174.99397659301758L224,123.54889526367187L224.5,99.6620246887207L225,109.45980491638183L225.5,130.35445289611818L226,144.4905710220337L226.5,119.16450862884521L227,147.2685859680176L227.5,110.12653255462646L228,152.35319023132325L228.5,93.5171516418457L229,110.89177207946777L229.5,118.01129837036133L230.00000000000003,156.70270271301268L230.5,116.81052017211914L231,137.1969102859497L231.49999999999997,92.23217582702637L232,117.73466835021974L232.5,132.24076309204102L232.99999999999997,158.50363368988036L233.5,152.21592178344727L234,165.85235710144042L234.5,140.70157699584962L235,188.80326347351073L235.5,141.25358791351317L236,164.31583499908447L236.5,165.94982242584229L237,138.5108184814453L237.5,126.25996398925781L238,71.34130897521972L238.5,141.76063041687013L239,103.4262050628662L239.5,104.59413471221923L240,152.07794437408447L240.5,178.31421203613283L243.5,185.56388339996337L244,146.94752769470216L244.49999999999997,110.90932731628418L245,121.09173603057862L245.5,160.72102890014648L245.99999999999997,158.63360996246337L246.5,180.64071979522706L247,193.76869468688963L247.5,127.09555950164794L248,30.33436889648437L248.5,101.8398868560791L249,156.2103796005249L249.5,164.05588245391846L250,111.88755912780762L250.5,111.89856491088868L251,77.41997852325439L251.5,135.86325244903566L252,153.73772449493407L252.5,175.59207000732422L253,155.1825204849243L253.5,160.55000038146972L254,148.07102909088135L254.50000000000003,165.75479049682616L255,168.19932346343995L255.5,170.14305953979493L256,180.691056060791L257,179.42275772094726L257.5,167.294047164917L258,105.31906471252442L258.5,99.48390655517578L259,145.05939445495605L259.5,150.83530368804932L260,168.87442359924316L260.5,155.15382442474365L261,132.57785739898682L261.5,153.14878005981444L262,161.47171783447266L262.5,166.13452377319337L263,165.36567192077638L263.5,160.74246654510497L264,157.7182731628418L264.5,155.6355806350708L265,161.41597995758056L265.5,159.93472309112548L266,166.4087905883789L266.5,157.50180358886718L267,156.3789098739624L267.5,139.68371086120607L268,150.56937561035156L268.5,144.8412031173706L269,166.25244770050048L269.5,154.29807415008545L270,169.66768398284913L270.5,158.4837490081787L271,168.31805763244628L271.5,164.83364696502684L272,170.46057300567628L272.5,172.43503074645997L273,175.58170566558837L273.5,179.68622131347658L274,166.92660255432128L274.5,166.26544532775878" style="fill: none;" fill="none"></path></g></g></g></g></g></g><g transform="translate(30, 177)" clip-path="url(#clip_1)"><clipPath id="clip_1"><rect width="300" height="23"></rect></clipPath><g><g><line x1="0" y1="0" x2="0" y2="5" style="visibility: inherit;" fill="rgb(0, 0, 0)" stroke="rgb(204, 204, 204)" stroke-width="1px"></line><line x1="25" y1="0" x2="25" y2="5" style="visibility: inherit;" fill="rgb(0, 0, 0)" stroke="rgb(204, 204, 204)" stroke-width="1px"></line><line x1="50" y1="0" x2="50" y2="5" style="visibility: inherit;" fill="rgb(0, 0, 0)" stroke="rgb(204, 204, 204)" stroke-width="1px"></line><line x1="75" y1="0" x2="75" y2="5" style="visibility: inherit;" fill="rgb(0, 0, 0)" stroke="rgb(204, 204, 204)" stroke-width="1px"></line><line x1="100" y1="0" x2="100" y2="5" style="visibility: inherit;" fill="rgb(0, 0, 0)" stroke="rgb(204, 204, 204)" stroke-width="1px"></line><line x1="125" y1="0" x2="125" y2="5" style="visibility: inherit;" fill="rgb(0, 0, 0)" stroke="rgb(204, 204, 204)" stroke-width="1px"></line><line x1="150" y1="0" x2="150" y2="5" style="visibility: inherit;" fill="rgb(0, 0, 0)" stroke="rgb(204, 204, 204)" stroke-width="1px"></line><line x1="175" y1="0" x2="175" y2="5" style="visibility: inherit;" fill="rgb(0, 0, 0)" stroke="rgb(204, 204, 204)" stroke-width="1px"></line><line x1="200" y1="0" x2="200" y2="5" style="visibility: inherit;" fill="rgb(0, 0, 0)" stroke="rgb(204, 204, 204)" stroke-width="1px"></line><line x1="225" y1="0" x2="225" y2="5" style="visibility: inherit;" fill="rgb(0, 0, 0)" stroke="rgb(204, 204, 204)" stroke-width="1px"></line><line x1="250" y1="0" x2="250" y2="5" style="visibility: inherit;" fill="rgb(0, 0, 0)" stroke="rgb(204, 204, 204)" stroke-width="1px"></line><line x1="275" y1="0" x2="275" y2="5" style="visibility: inherit;" fill="rgb(0, 0, 0)" stroke="rgb(204, 204, 204)" stroke-width="1px"></line><line x1="300" y1="0" x2="300" y2="5" style="visibility: inherit;" fill="rgb(0, 0, 0)" stroke="rgb(204, 204, 204)" stroke-width="1px"></line></g><g transform="translate(0, 8)"><text x="0" y="0" dx="0em" dy="0.95em" style="text-anchor: middle; visibility: hidden; font-family: Roboto, sans-serif; font-size: 12px; font-weight: 200;" fill="rgb(33, 33, 33)" stroke="none" stroke-width="1px">-50</text><text x="25" y="0" dx="0em" dy="0.95em" style="text-anchor: middle; visibility: inherit; font-family: Roboto, sans-serif; font-size: 12px; font-weight: 200;" fill="rgb(33, 33, 33)" stroke="none" stroke-width="1px">0</text><text x="50" y="0" dx="0em" dy="0.95em" style="text-anchor: middle; visibility: inherit; font-family: Roboto, sans-serif; font-size: 12px; font-weight: 200;" fill="rgb(33, 33, 33)" stroke="none" stroke-width="1px">50</text><text x="75" y="0" dx="0em" dy="0.95em" style="text-anchor: middle; visibility: inherit; font-family: Roboto, sans-serif; font-size: 12px; font-weight: 200;" fill="rgb(33, 33, 33)" stroke="none" stroke-width="1px">100</text><text x="100" y="0" dx="0em" dy="0.95em" style="text-anchor: middle; visibility: inherit; font-family: Roboto, sans-serif; font-size: 12px; font-weight: 200;" fill="rgb(33, 33, 33)" stroke="none" stroke-width="1px">150</text><text x="125" y="0" dx="0em" dy="0.95em" style="text-anchor: middle; visibility: inherit; font-family: Roboto, sans-serif; font-size: 12px; font-weight: 200;" fill="rgb(33, 33, 33)" stroke="none" stroke-width="1px">200</text><text x="150" y="0" dx="0em" dy="0.95em" style="text-anchor: middle; visibility: inherit; font-family: Roboto, sans-serif; font-size: 12px; font-weight: 200;" fill="rgb(33, 33, 33)" stroke="none" stroke-width="1px">250</text><text x="175" y="0" dx="0em" dy="0.95em" style="text-anchor: middle; visibility: inherit; font-family: Roboto, sans-serif; font-size: 12px; font-weight: 200;" fill="rgb(33, 33, 33)" stroke="none" stroke-width="1px">300</text><text x="200" y="0" dx="0em" dy="0.95em" style="text-anchor: middle; visibility: inherit; font-family: Roboto, sans-serif; font-size: 12px; font-weight: 200;" fill="rgb(33, 33, 33)" stroke="none" stroke-width="1px">350</text><text x="225" y="0" dx="0em" dy="0.95em" style="text-anchor: middle; visibility: inherit; font-family: Roboto, sans-serif; font-size: 12px; font-weight: 200;" fill="rgb(33, 33, 33)" stroke="none" stroke-width="1px">400</text><text x="250" y="0" dx="0em" dy="0.95em" style="text-anchor: middle; visibility: inherit; font-family: Roboto, sans-serif; font-size: 12px; font-weight: 200;" fill="rgb(33, 33, 33)" stroke="none" stroke-width="1px">450</text><text x="275" y="0" dx="0em" dy="0.95em" style="text-anchor: middle; visibility: inherit; font-family: Roboto, sans-serif; font-size: 12px; font-weight: 200;" fill="rgb(33, 33, 33)" stroke="none" stroke-width="1px">500</text><text x="300" y="0" dx="0em" dy="0.95em" style="text-anchor: middle; visibility: hidden; font-family: Roboto, sans-serif; font-size: 12px; font-weight: 200;" fill="rgb(33, 33, 33)" stroke="none" stroke-width="1px">550</text></g><line x1="0" y1="0" x2="300" y2="0" fill="rgb(0, 0, 0)" stroke="rgb(204, 204, 204)" stroke-width="1px"></line></g></g></g></g></svg>