<svg viewBox="0 0 301 200" xmlns="http://www.w3.org/2000/svg"><g><g><g><g><g><line x1="51.5625" y1="177" x2="46.5625" y2="177" style="visibility: inherit;" fill="rgb(0, 0, 0)" stroke="rgb(204, 204, 204)" stroke-width="1px"></line><line x1="51.5625" y1="154.875" x2="46.5625" y2="154.875" style="visibility: inherit;" fill="rgb(0, 0, 0)" stroke="rgb(204, 204, 204)" stroke-width="1px"></line><line x1="51.5625" y1="132.75" x2="46.5625" y2="132.75" style="visibility: inherit;" fill="rgb(0, 0, 0)" stroke="rgb(204, 204, 204)" stroke-width="1px"></line><line x1="51.5625" y1="110.625" x2="46.5625" y2="110.625" style="visibility: inherit;" fill="rgb(0, 0, 0)" stroke="rgb(204, 204, 204)" stroke-width="1px"></line><line x1="51.5625" y1="88.5" x2="46.5625" y2="88.5" style="visibility: inherit;" fill="rgb(0, 0, 0)" stroke="rgb(204, 204, 204)" stroke-width="1px"></line><line x1="51.5625" y1="66.375" x2="46.5625" y2="66.375" style="visibility: inherit;" fill="rgb(0, 0, 0)" stroke="rgb(204, 204, 204)" stroke-width="1px"></line><line x1="51.5625" y1="44.25" x2="46.5625" y2="44.25" style="visibility: inherit;" fill="rgb(0, 0, 0)" stroke="rgb(204, 204, 204)" stroke-width="1px"></line><line x1="51.5625" y1="22.125" x2="46.5625" y2="22.125" style="visibility: inherit;" fill="rgb(0, 0, 0)" stroke="rgb(204, 204, 204)" stroke-width="1px"></line><line x1="51.5625" y1="0" x2="46.5625" y2="0" style="visibility: inherit;" fill="rgb(0, 0, 0)" stroke="rgb(204, 204, 204)" stroke-width="1px"></line></g><g transform="translate(41.5625, 0)"><text x="0" y="177" dx="0em" dy="0.3em" style="text-anchor: end; visibility: hidden; font-family: Roboto, sans-serif; font-size: 12px; font-weight: 200;" fill="rgb(33, 33, 33)" stroke="none" stroke-width="1px">0</text><text x="0" y="154.875" dx="0em" dy="0.3em" style="text-anchor: end; visibility: inherit; font-family: Roboto, sans-serif; font-size: 12px; font-weight: 200;" fill="rgb(33, 33, 33)" stroke="none" stroke-width="1px">1e+4</text><text x="0" y="132.75" dx="0em" dy="0.3em" style="text-anchor: end; visibility: hidden; font-family: Roboto, sans-serif; font-size: 12px; font-weight: 200;" fill="rgb(33, 33, 33)" stroke="none" stroke-width="1px">2e+4</text><text x="0" y="110.625" dx="0em" dy="0.3em" style="text-anchor: end; visibility: inherit; font-family: Roboto, sans-serif; font-size: 12px; font-weight: 200;" fill="rgb(33, 33, 33)" stroke="none" stroke-width="1px">3e+4</text><text x="0" y="88.5" dx="0em" dy="0.3em" style="text-anchor: end; visibility: hidden; font-family: Roboto, sans-serif; font-size: 12px; font-weight: 200;" fill="rgb(33, 33, 33)" stroke="none" stroke-width="1px">4e+4</text><text x="0" y="66.375" dx="0em" dy="0.3em" style="text-anchor: end; visibility: inherit; font-family: Roboto, sans-serif; font-size: 12px; font-weight: 200;" fill="rgb(33, 33, 33)" stroke="none" stroke-width="1px">5e+4</text><text x="0" y="44.25" dx="0em" dy="0.3em" style="text-anchor: end; visibility: hidden; font-family: Roboto, sans-serif; font-size: 12px; font-weight: 200;" fill="rgb(33, 33, 33)" stroke="none" stroke-width="1px">6e+4</text><text x="0" y="22.125" dx="0em" dy="0.3em" style="text-anchor: end; visibility: inherit; font-family: Roboto, sans-serif; font-size: 12px; font-weight: 200;" fill="rgb(33, 33, 33)" stroke="none" stroke-width="1px">7e+4</text><text x="0" y="0" dx="0em" dy="0.3em" style="text-anchor: end; visibility: hidden; font-family: Roboto, sans-serif; font-size: 12px; font-weight: 200;" fill="rgb(33, 33, 33)" stroke="none" stroke-width="1px">8e+4</text></g><line x1="51.5625" y1="0" x2="51.5625" y2="177" fill="rgb(0, 0, 0)" stroke="rgb(204, 204, 204)" stroke-width="1px"></line></g></g><g transform="translate(51, 0)" clip-path="url(#clip_0)"><clipPath id="clip_0"><rect width="278" height="177"></rect></clipPath><g><g><g><line x1="0" y1="0" x2="0" y2="177" fill="rgb(0, 0, 0)" stroke="rgb(66, 66, 66)" stroke-width="1px" opacity="0.25"></line><line x1="23.203125" y1="0" x2="23.203125" y2="177" fill="rgb(0, 0, 0)" stroke="rgb(66, 66, 66)" stroke-width="1px" opacity="0.25"></line><line x1="46.40625" y1="0" x2="46.40625" y2="177" fill="rgb(0, 0, 0)" stroke="rgb(66, 66, 66)" stroke-width="1px" opacity="0.25"></line><line x1="69.609375" y1="0" x2="69.609375" y2="177" fill="rgb(0, 0, 0)" stroke="rgb(66, 66, 66)" stroke-width="1px" opacity="0.25"></line><line x1="92.8125" y1="0" x2="92.8125" y2="177" fill="rgb(0, 0, 0)" stroke="rgb(66, 66, 66)" stroke-width="1px" opacity="0.25"></line><line x1="116.015625" y1="0" x2="116.015625" y2="177" fill="rgb(0, 0, 0)" stroke="rgb(66, 66, 66)" stroke-width="1px" opacity="0.25"></line><line x1="139.21875" y1="0" x2="139.21875" y2="177" fill="rgb(0, 0, 0)" stroke="rgb(66, 66, 66)" stroke-width="1px" opacity="0.25"></line><line x1="162.421875" y1="0" x2="162.421875" y2="177" fill="rgb(0, 0, 0)" stroke="rgb(66, 66, 66)" stroke-width="1px" opacity="0.25"></line><line x1="185.625" y1="0" x2="185.625" y2="177" fill="rgb(0, 0, 0)" stroke="rgb(66, 66, 66)" stroke-width="1px" opacity="0.25"></line><line x1="208.828125" y1="0" x2="208.828125" y2="177" fill="rgb(0, 0, 0)" stroke="rgb(66, 66, 66)" stroke-width="1px" opacity="0.25"></line><line x1="232.03125" y1="0" x2="232.03125" y2="177" fill="rgb(0, 0, 0)" stroke="rgb(66, 66, 66)" stroke-width="1px" opacity="0.25"></line><line x1="255.234375" y1="0" x2="255.234375" y2="177" fill="rgb(0, 0, 0)" stroke="rgb(66, 66, 66)" stroke-width="1px" opacity="0.25"></line><line x1="278.4375" y1="0" x2="278.4375" y2="177" fill="rgb(0, 0, 0)" stroke="rgb(66, 66, 66)" stroke-width="1px" opacity="0.25"></line></g><g><line x1="0" y1="177" x2="278.4375" y2="177" fill="rgb(0, 0, 0)" stroke="rgb(66, 66, 66)" stroke-width="1px" opacity="0.25"></line><line x1="0" y1="154.875" x2="278.4375" y2="154.875" fill="rgb(0, 0, 0)" stroke="rgb(66, 66, 66)" stroke-width="1px" opacity="0.25"></line><line x1="0" y1="132.75" x2="278.4375" y2="132.75" fill="rgb(0, 0, 0)" stroke="rgb(66, 66, 66)" stroke-width="1px" opacity="0.25"></line><line x1="0" y1="110.625" x2="278.4375" y2="110.625" fill="rgb(0, 0, 0)" stroke="rgb(66, 66, 66)" stroke-width="1px" opacity="0.25"></line><line x1="0" y1="88.5" x2="278.4375" y2="88.5" fill="rgb(0, 0, 0)" stroke="rgb(66, 66, 66)" stroke-width="1px" opacity="0.25"></line><line x1="0" y1="66.375" x2="278.4375" y2="66.375" fill="rgb(0, 0, 0)" stroke="rgb(66, 66, 66)" stroke-width="1px" opacity="0.25"></line><line x1="0" y1="44.25" x2="278.4375" y2="44.25" fill="rgb(0, 0, 0)" stroke="rgb(66, 66, 66)" stroke-width="1px" opacity="0.25"></line><line x1="0" y1="22.125" x2="278.4375" y2="22.125" fill="rgb(0, 0, 0)" stroke="rgb(66, 66, 66)" stroke-width="1px" opacity="0.25"></line><line x1="0" y1="0" x2="278.4375" y2="0" fill="rgb(0, 0, 0)" stroke="rgb(66, 66, 66)" stroke-width="1px" opacity="0.25"></line></g></g></g><g><g><line x1="0" y1="177" x2="278.4375" y2="177" fill="rgb(0, 0, 0)" stroke="rgb(153, 153, 153)" stroke-width="1.5px"></line></g></g><g><g><line x1="23.203125" y1="0" x2="23.203125" y2="177" fill="rgb(0, 0, 0)" stroke="rgb(153, 153, 153)" stroke-width="1.5px"></line></g></g><g><g><g><g><g><path stroke="rgb(255, 112, 67)" stroke-width="2px" d="M26.4515625,-0.45746894531250604L26.915625,1.3406021484375037L27.3796875,3.053561132812498L27.84375,4.699419140624996L28.3078125,6.271002832031258L28.771875,7.777490624999992L29.2359375,9.231483398437506L29.700000000000003,10.641381738281257L30.1640625,12.015344238281259L30.628125,13.356482226562495L31.092187499999998,14.6684255859375L31.55625,15.954147363281255L32.0203125,17.215842773437508L32.484375,18.454669921874995L32.9484375,19.680360351562495L33.4125,20.891565820312497L33.8765625,22.083498339843754L34.340625,23.259251953125002L34.8046875,24.4167697265625L35.268750000000004,25.55733076171874L35.7328125,26.683614257812508L36.196875,27.797573437499995L36.660937499999996,28.899191015624993L37.125,29.984041992187496L37.589062500000004,31.055704394531258L38.053124999999994,32.10716044921875L38.5171875,33.15676699218749L38.98125,34.19298618164063L39.4453125,35.21475498046875L39.909375000000004,36.22340434570313L40.373437499999994,37.224759375000005L40.8375,38.21229492187501L41.3015625,39.194039941406245L41.765625,40.165604003906246L42.229687500000004,41.120902734375L42.693749999999994,42.075743408203124L43.1578125,43.01243466796874L43.621875,43.94386259765624L44.0859375,44.869543212890626L44.550000000000004,45.77913134765625L45.014062499999994,46.68202148437501L45.478125,47.580650830078135L45.9421875,48.42362197265626L46.40625,49.329874072265625L46.8703125,50.186033789062506L47.334375,51.05573642578125L47.7984375,51.918110156249995L48.2625,52.769853515624995L48.7265625,53.60398330078124L49.190625,54.44215781249999L49.6546875,55.25250322265626L50.11875,56.06907993164064L50.5828125,56.88003032226563L51.04687499999999,57.67079165039063L51.5109375,58.47521689453124L51.975,59.263126171874994L52.4390625,60.04044829101563L52.903125,60.814235595703124L53.36718750000001,61.57820493164063L53.83125,62.33808632812501L54.2953125,63.08913500976561L54.759375,63.83436723632813L55.2234375,64.57433613281249L55.6875,65.3082638671875L56.1515625,66.03023891601562L56.615625,66.75884282226562L57.0796875,67.45430244140626L57.54375,68.176320703125L58.0078125,68.86839243164063L58.471875,69.57232177734375L58.9359375,70.240444921875L59.400000000000006,70.94044189453125L59.864062499999996,71.61407900390626L60.328125,72.30817309570313L60.7921875,72.95456015625L61.25625,73.61434321289062L61.720312500000006,74.26727270507813L62.184374999999996,74.94510146484375L62.6484375,75.56749672851564L63.1125,76.22610439453126L63.5765625,76.86335625L64.040625,77.47409267578124L64.5046875,78.10462060546875L64.96875,78.74443930664063L65.4328125,79.33534965820313L65.896875,79.96042412109375L66.3609375,80.58116000976563L66.825,81.19644243164063L67.2890625,81.77838178710937L67.753125,82.36661293945312L68.2171875,82.92040341796874L68.68125,83.52877177734375L69.1453125,84.10408227539062L69.609375,84.69526918945311L70.0734375,85.26463359375L70.53750000000001,85.83467211914062L71.0015625,86.39672490234375L71.465625,86.95902832031251L71.92968750000001,87.51357934570312L72.39375,88.06679077148438L72.8578125,88.60763466796875L73.32187499999999,89.1525837890625L73.7859375,89.68812978515625L74.25,90.22566357421876L74.7140625,90.7545029296875L75.17812500000001,91.27926298828125L75.6421875,91.80082529296874L76.10624999999999,92.31540439453126L76.5703125,92.8280994140625L77.034375,93.33220371093749L77.4984375,93.83735375976562L77.9625,94.329038671875L78.4265625,94.83730869140624L78.890625,95.30016196289063L79.3546875,95.79631508789063L79.81875000000001,96.30279609374999L80.2828125,96.78201840820311L80.74687499999999,97.24658291015623L81.2109375,97.7175169921875L81.675,98.19394775390624L82.1390625,98.67748271484375L82.603125,99.15947065429685L83.0671875,99.62065590820313L83.53125,100.07872983398438L83.99531250000001,100.54483271484375L84.45937500000001,100.96760170898438L84.92343749999999,101.43354902343748L85.38749999999999,101.88126914062501L85.8515625,102.33882451171874L86.315625,102.77048671874999L86.7796875,103.21916616210937L87.24375,103.65285073242187L87.7078125,104.09342343750001L88.171875,104.52191381835937L88.63593750000001,104.95022270507813L89.10000000000001,105.37453007812499L89.56406249999999,105.79041958007812L90.02812499999999,106.20642143554687L90.4921875,106.627634765625L90.95625,107.030033203125L91.4203125,107.45649257812501L91.884375,107.85478579101562L92.3484375,108.27282297363281L92.8125,108.65347236328125L93.27656250000001,109.04679609375L93.740625,109.45554250488281L94.20468749999999,109.85253500976563L94.66875,110.24433764648437L95.1328125,110.63746259765625L95.596875,111.00002307128906L96.0609375,111.3878846923828L96.525,111.7707638671875L96.9890625,112.14437387695314L97.453125,112.53176879882812L97.91718750000001,112.91663144531249L98.38125,113.26459028320312L98.84531249999999,113.62873234863281L99.309375,114.0145845703125L99.7734375,114.3806712158203L100.2375,114.731883984375L100.70156250000001,115.08336899414063L101.165625,115.45335344238279L101.6296875,115.78964912109375L102.09374999999999,116.15543759765626L102.5578125,116.51521948242187L103.021875,116.85370605468752L103.48593749999999,117.20926171875L103.95,117.54931259765625L104.4140625,117.87222092285158L104.878125,118.22504985351563L105.34218750000001,118.55984604492187L105.80625,118.89918391113282L106.2703125,119.24528891601562L106.73437500000001,119.56724223632813L107.1984375,119.8871818359375L107.6625,120.21408735351564L108.12656249999999,120.52890190429687L108.590625,120.87272958984374L109.0546875,121.17980039062499L109.51875,121.52151064453126L109.98281250000001,121.82202172851564L110.446875,122.14922109375L110.91093749999999,122.45812844238283L111.375,122.78174113769532L111.8390625,123.08241210937499L112.303125,123.39536418457031L112.7671875,123.6835077392578L113.23125,123.985526953125L113.6953125,124.26786701660156L114.159375,124.53679379882813L114.62343750000001,124.80568168945311L115.0875,125.1115166015625L115.55156249999999,125.43521572265625L116.015625,125.768387109375L116.4796875,126.07036311035156L116.94375,126.36234829101564L117.4078125,126.64792932128907L117.871875,126.93416718749998L118.3359375,127.22512822265627L118.80000000000001,127.50752014160156L119.26406250000001,127.79126030273437L119.72812499999999,128.0719323486328L120.19218749999999,128.35124318847656L120.65625,128.62659140625001L121.1203125,128.88336240234375L121.584375,129.16746987304688L122.0484375,129.38515048828125L122.5125,129.6682078857422L122.9765625,129.95238017578126L123.44062500000001,130.25368205566406L123.90468750000001,130.52002470703124L124.36874999999999,130.79229184570315L124.83281249999999,131.04159565429688L125.296875,131.29570473632813L125.7609375,131.54760996093748L126.225,131.81019741210937L126.6890625,132.07088349609376L127.153125,132.3261420410156L127.6171875,132.57653049316406L128.08125,132.82656459960938L128.5453125,133.06758881835938L129.009375,133.32133923339845L129.47343750000002,133.55880270996093L129.9375,133.79803359375L130.4015625,134.0651367919922L130.865625,134.32099599609376L131.3296875,134.5612639892578L131.79375,134.80610390625L132.2578125,135.05236552734374L132.721875,135.28730537109377L133.1859375,135.53095261230467L133.65,135.76688203125002L134.11406250000002,136.0040819091797L134.578125,136.24632473144533L135.04218749999998,136.47580246582032L135.50625,136.71154174804687L135.9703125,136.92392014160157L136.434375,137.12148515625L136.8984375,137.39160893554688L137.3625,137.61649313964844L137.8265625,137.77909892578126L138.290625,138.04589963378905L138.75468750000002,138.28712263183596L139.21875,138.51188583984376L139.6828125,138.68949946289064L140.146875,138.9397885253906L140.6109375,139.1619200683594L141.07500000000002,139.39781059570313L141.5390625,139.566366796875L142.003125,139.82245502929686L142.46718750000002,140.02272084960936L142.93125,140.14620168457031L143.39531250000002,140.38238173828125L143.85937500000003,140.58303215332032L144.32343749999998,140.85568820800782L144.7875,141.0571704711914L145.25156249999998,141.27227559814452L145.715625,141.48633713378905L146.1796875,141.68699187011717L146.64374999999998,141.8869249511719L147.1078125,142.09446998291017L147.571875,142.28876162109376L148.0359375,142.49763977050782L148.5,142.68987447509764L148.9640625,142.87204057617188L149.428125,143.0932387207031L149.8921875,143.2693096435547L150.35625000000002,143.4805839477539L150.8203125,143.66025234375L151.284375,143.83626708984374L151.74843750000002,144.04828681640626L152.21249999999998,144.22216900634766L152.6765625,144.42032603759765L153.140625,144.61010625L153.60468749999998,144.79541392822267L154.06875,144.97587095947264L154.5328125,145.1197893310547L154.996875,145.3273213989258L155.4609375,145.52247297363283L155.925,145.71602135009766L156.3890625,145.86900578613282L156.853125,146.03930346679687L157.3171875,146.25135128173827L157.78125,146.41768850097657L158.2453125,146.6067146484375L158.709375,146.7792766845703L159.1734375,146.96178632812502L159.63750000000002,147.13423385009767L160.1015625,147.29791779785157L160.565625,147.4600763305664L161.02968750000002,147.6356524658203L161.49374999999998,147.8165653930664L161.9578125,147.9796681274414L162.421875,148.15907076416016L162.88593749999998,148.32083605957033L163.35,148.4876853515625L163.8140625,148.66047641601563L164.278125,148.82665158691407L164.7421875,148.99330642089845L165.20625,149.15669436035157L165.6703125,149.3193649658203L166.134375,149.48102438964844L166.59843750000002,149.6424915161133L167.0625,149.79755449218752L167.5265625,149.9561630859375L167.99062500000002,150.09227720947266L168.4546875,150.2585020751953L168.91875000000002,150.41304433593749L169.38281249999997,150.58188142089844L169.84687499999998,150.74240650634766L170.3109375,150.90039067382813L170.77499999999998,151.05306181640626L171.2390625,151.19859635009766L171.703125,151.3314327758789L172.16718749999998,151.47114869384765L172.63125,151.63877365722655L173.0953125,151.7781503540039L173.559375,151.94411162109375L174.0234375,152.0920336669922L174.4875,152.24206450195314L174.9515625,152.38970998535154L175.415625,152.53366724853515L175.87968750000002,152.6692412109375L176.34375,152.80545256347656L176.8078125,152.93893286132814L177.27187500000002,153.09721951904297L177.7359375,153.23930782470703L178.20000000000002,153.38033525390625L178.66406250000003,153.52354061279297L179.12812499999998,153.65198228759766L179.5921875,153.79828168945312L180.05624999999998,153.94325661621093L180.5203125,154.07826665039065L180.984375,154.21852705078123L181.44843749999998,154.35610393066406L181.9125,154.4897397949219L182.3765625,154.625056640625L182.840625,154.75422645263671L183.3046875,154.88558283691407L183.76875,155.00887569580078L184.2328125,155.13792451171875L184.696875,155.26911236572266L185.16093750000002,155.39425689697265L185.625,155.53758541259765L186.0890625,155.66480200195312L186.55312500000002,155.80416357421873L187.01718749999998,155.8599427734375L187.48125,156.00429111328125L187.9453125,156.15152607421874L188.40937499999998,156.28252595214843L188.8734375,156.42236286621093L189.3375,156.54896583251954L189.8015625,156.67531384277345L190.265625,156.79736865234375L190.7296875,156.92757341308592L191.19375,157.04805959472657L191.6578125,157.16560297851564L192.121875,157.25385666503905L192.5859375,157.36011284179688L193.05,157.42879541015625L193.5140625,157.59493385009765L193.978125,157.7364258178711L194.44218750000002,157.81683420410155L194.90625,157.99648099365234L195.3703125,158.11303264160156L195.83437500000002,158.23552822265626L196.29843749999998,158.33041940917968L196.7625,158.4538699951172L197.2265625,158.55495574951172L197.69062499999998,158.65070903320313L198.1546875,158.77605234375L198.61875,158.88835076293944L199.0828125,159.0088272216797L199.546875,159.09246145019532L200.0109375,159.2064840637207L200.475,159.34084266357422L200.9390625,159.45390487060547L201.40312500000002,159.56696923828125L201.8671875,159.66868374023437L202.33125,159.7664140136719L202.79531250000002,159.8539860168457L203.259375,159.9663136047363L203.72343750000002,160.06907061767578L204.18749999999997,160.18808215942383L204.65156249999998,160.27966431884767L205.115625,160.37465381469727L205.57968749999998,160.46605015869142L206.04375,160.57495528564453L206.5078125,160.72337211914063L206.97187499999998,160.8048683898926L207.4359375,160.9136914123535L207.9,160.99561008911132L208.3640625,161.06045103149413L208.828125,161.2030546508789L209.2921875,161.30794962158203L209.75625,161.42272197875977L210.2203125,161.52071044921874L210.68437500000002,161.61532291259766L211.1484375,161.71644755859373L211.6125,161.80962103271486L212.07656250000002,161.86597064208985L212.540625,161.9801077697754L213.00468750000002,162.09369609375L213.46875000000003,162.19955255126953L213.93281249999998,162.29575308837892L214.396875,162.38529667968749L214.86093749999998,162.47648884277345L215.325,162.51793540649413L215.7890625,162.62322901611327L216.25312499999998,162.74989896240234L216.7171875,162.84465942993162L217.18125,162.93685845336913L217.6453125,163.02707940673827L218.109375,163.11485234985352L218.5734375,163.1884395812988L219.0375,163.284159375L219.5015625,163.35534829101564L219.96562500000002,163.45567133789064L220.4296875,163.4596728515625L220.89375,163.61884861450196L221.35781250000002,163.72542564697267L221.82187499999998,163.8064789855957L222.2859375,163.86283399658203L222.75,163.97318567504882L223.21406249999998,164.0656212890625L223.678125,164.14406672973632L224.1421875,164.22552843017579L224.60625,164.3027044921875L225.0703125,164.3816717285156L225.534375,164.4637902648926L225.9984375,164.5577005187988L226.4625,164.6161124633789L226.9265625,164.64349647216798L227.390625,164.79655653076173L227.8546875,164.88426573486328L228.31875,164.96063587646483L228.7828125,165.0325464477539L229.24687500000002,165.10293376464844L229.7109375,165.18123984375L230.175,165.2188177734375L230.63906250000002,165.32343294067383L231.10312499999998,165.41410979003908L231.5671875,165.48064467773438L232.03125,165.55927593383788L232.49531249999998,165.57089155883787L232.959375,165.71964869384766L233.4234375,165.8011352416992L233.8875,165.84619872436522L234.3515625,165.9375626586914L234.815625,166.00872564697266L235.2796875,166.06785384521484L235.74375,166.13685834960938L236.20781250000002,166.2315734436035L236.671875,166.31006857910157L237.1359375,166.39074704589842L237.60000000000002,166.45704642333985L238.0640625,166.52012968139647L238.52812500000002,166.5848820373535L238.99218749999997,166.65206079711913L239.45624999999998,166.6985492248535L239.9203125,166.78341177978515L240.38437499999998,166.8599807006836L240.8484375,166.93839697265625L241.3125,167.00241470947265L241.77656249999998,167.07600842285157L242.240625,167.11961995239258L242.7046875,167.1989901489258L243.16875,167.267143359375L243.6328125,167.33413954467773L244.096875,167.39888325805663L244.5609375,167.46442749023439L245.025,167.52165540161133L245.48906250000002,167.58746107177734L245.953125,167.64912154541017L246.4171875,167.71316953125L246.88125000000002,167.7722123840332L247.3453125,167.83139243774414L247.80937500000002,167.8864791503906L248.27343750000003,167.9365380432129L248.73749999999998,168.00001777954103L249.2015625,168.0590584716797L249.66562499999998,168.13483983764647L250.1296875,168.20233135070802L250.59375,168.26413388671875L251.05781249999998,168.32351271972655L251.521875,168.3801875061035L251.9859375,168.43713237304686L252.45,168.49437324829103L252.9140625,168.55285217285157L253.378125,168.60867782592774L253.8421875,168.6684034423828L254.30625,168.71866705627443L254.77031250000002,168.78123229980469" style="fill: none;" fill="none"></path></g></g></g></g></g></g><g transform="translate(51, 177)" clip-path="url(#clip_1)"><clipPath id="clip_1"><rect width="278" height="23"></rect></clipPath><g><g><line x1="0" y1="0" x2="0" y2="5" style="visibility: inherit;" fill="rgb(0, 0, 0)" stroke="rgb(204, 204, 204)" stroke-width="1px"></line><line x1="23.203125" y1="0" x2="23.203125" y2="5" style="visibility: inherit;" fill="rgb(0, 0, 0)" stroke="rgb(204, 204, 204)" stroke-width="1px"></line><line x1="46.40625" y1="0" x2="46.40625" y2="5" style="visibility: inherit;" fill="rgb(0, 0, 0)" stroke="rgb(204, 204, 204)" stroke-width="1px"></line><line x1="69.609375" y1="0" x2="69.609375" y2="5" style="visibility: inherit;" fill="rgb(0, 0, 0)" stroke="rgb(204, 204, 204)" stroke-width="1px"></line><line x1="92.8125" y1="0" x2="92.8125" y2="5" style="visibility: inherit;" fill="rgb(0, 0, 0)" stroke="rgb(204, 204, 204)" stroke-width="1px"></line><line x1="116.015625" y1="0" x2="116.015625" y2="5" style="visibility: inherit;" fill="rgb(0, 0, 0)" stroke="rgb(204, 204, 204)" stroke-width="1px"></line><line x1="139.21875" y1="0" x2="139.21875" y2="5" style="visibility: inherit;" fill="rgb(0, 0, 0)" stroke="rgb(204, 204, 204)" stroke-width="1px"></line><line x1="162.421875" y1="0" x2="162.421875" y2="5" style="visibility: inherit;" fill="rgb(0, 0, 0)" stroke="rgb(204, 204, 204)" stroke-width="1px"></line><line x1="185.625" y1="0" x2="185.625" y2="5" style="visibility: inherit;" fill="rgb(0, 0, 0)" stroke="rgb(204, 204, 204)" stroke-width="1px"></line><line x1="208.828125" y1="0" x2="208.828125" y2="5" style="visibility: inherit;" fill="rgb(0, 0, 0)" stroke="rgb(204, 204, 204)" stroke-width="1px"></line><line x1="232.03125" y1="0" x2="232.03125" y2="5" style="visibility: inherit;" fill="rgb(0, 0, 0)" stroke="rgb(204, 204, 204)" stroke-width="1px"></line><line x1="255.234375" y1="0" x2="255.234375" y2="5" style="visibility: inherit;" fill="rgb(0, 0, 0)" stroke="rgb(204, 204, 204)" stroke-width="1px"></line><line x1="278.4375" y1="0" x2="278.4375" y2="5" style="visibility: inherit;" fill="rgb(0, 0, 0)" stroke="rgb(204, 204, 204)" stroke-width="1px"></line></g><g transform="translate(0, 8)"><text x="0" y="0" dx="0em" dy="0.95em" style="text-anchor: middle; visibility: hidden; font-family: Roboto, sans-serif; font-size: 12px; font-weight: 200;" fill="rgb(33, 33, 33)" stroke="none" stroke-width="1px">-50</text><text x="23.203125" y="0" dx="0em" dy="0.95em" style="text-anchor: middle; visibility: inherit; font-family: Roboto, sans-serif; font-size: 12px; font-weight: 200;" fill="rgb(33, 33, 33)" stroke="none" stroke-width="1px">0</text><text x="46.40625" y="0" dx="0em" dy="0.95em" style="text-anchor: middle; visibility: hidden; font-family: Roboto, sans-serif; font-size: 12px; font-weight: 200;" fill="rgb(33, 33, 33)" stroke="none" stroke-width="1px">50</text><text x="69.609375" y="0" dx="0em" dy="0.95em" style="text-anchor: middle; visibility: inherit; font-family: Roboto, sans-serif; font-size: 12px; font-weight: 200;" fill="rgb(33, 33, 33)" stroke="none" stroke-width="1px">100</text><text x="92.8125" y="0" dx="0em" dy="0.95em" style="text-anchor: middle; visibility: hidden; font-family: Roboto, sans-serif; font-size: 12px; font-weight: 200;" fill="rgb(33, 33, 33)" stroke="none" stroke-width="1px">150</text><text x="116.015625" y="0" dx="0em" dy="0.95em" style="text-anchor: middle; visibility: inherit; font-family: Roboto, sans-serif; font-size: 12px; font-weight: 200;" fill="rgb(33, 33, 33)" stroke="none" stroke-width="1px">200</text><text x="139.21875" y="0" dx="0em" dy="0.95em" style="text-anchor: middle; visibility: hidden; font-family: Roboto, sans-serif; font-size: 12px; font-weight: 200;" fill="rgb(33, 33, 33)" stroke="none" stroke-width="1px">250</text><text x="162.421875" y="0" dx="0em" dy="0.95em" style="text-anchor: middle; visibility: inherit; font-family: Roboto, sans-serif; font-size: 12px; font-weight: 200;" fill="rgb(33, 33, 33)" stroke="none" stroke-width="1px">300</text><text x="185.625" y="0" dx="0em" dy="0.95em" style="text-anchor: middle; visibility: hidden; font-family: Roboto, sans-serif; font-size: 12px; font-weight: 200;" fill="rgb(33, 33, 33)" stroke="none" stroke-width="1px">350</text><text x="208.828125" y="0" dx="0em" dy="0.95em" style="text-anchor: middle; visibility: inherit; font-family: Roboto, sans-serif; font-size: 12px; font-weight: 200;" fill="rgb(33, 33, 33)" stroke="none" stroke-width="1px">400</text><text x="232.03125" y="0" dx="0em" dy="0.95em" style="text-anchor: middle; visibility: hidden; font-family: Roboto, sans-serif; font-size: 12px; font-weight: 200;" fill="rgb(33, 33, 33)" stroke="none" stroke-width="1px">450</text><text x="255.234375" y="0" dx="0em" dy="0.95em" style="text-anchor: middle; visibility: inherit; font-family: Roboto, sans-serif; font-size: 12px; font-weight: 200;" fill="rgb(33, 33, 33)" stroke="none" stroke-width="1px">500</text><text x="278.4375" y="0" dx="0em" dy="0.95em" style="text-anchor: middle; visibility: hidden; font-family: Roboto, sans-serif; font-size: 12px; font-weight: 200;" fill="rgb(33, 33, 33)" stroke="none" stroke-width="1px">550</text></g><line x1="0" y1="0" x2="278.4375" y2="0" fill="rgb(0, 0, 0)" stroke="rgb(204, 204, 204)" stroke-width="1px"></line></g></g></g></g></svg>