<svg viewBox="0 0 301 200" xmlns="http://www.w3.org/2000/svg"><g><g><g><g><g><line x1="51.5625" y1="177" x2="46.5625" y2="177" style="visibility: inherit;" fill="rgb(0, 0, 0)" stroke="rgb(204, 204, 204)" stroke-width="1px"></line><line x1="51.5625" y1="154.875" x2="46.5625" y2="154.875" style="visibility: inherit;" fill="rgb(0, 0, 0)" stroke="rgb(204, 204, 204)" stroke-width="1px"></line><line x1="51.5625" y1="132.75" x2="46.5625" y2="132.75" style="visibility: inherit;" fill="rgb(0, 0, 0)" stroke="rgb(204, 204, 204)" stroke-width="1px"></line><line x1="51.5625" y1="110.625" x2="46.5625" y2="110.625" style="visibility: inherit;" fill="rgb(0, 0, 0)" stroke="rgb(204, 204, 204)" stroke-width="1px"></line><line x1="51.5625" y1="88.5" x2="46.5625" y2="88.5" style="visibility: inherit;" fill="rgb(0, 0, 0)" stroke="rgb(204, 204, 204)" stroke-width="1px"></line><line x1="51.5625" y1="66.375" x2="46.5625" y2="66.375" style="visibility: inherit;" fill="rgb(0, 0, 0)" stroke="rgb(204, 204, 204)" stroke-width="1px"></line><line x1="51.5625" y1="44.25" x2="46.5625" y2="44.25" style="visibility: inherit;" fill="rgb(0, 0, 0)" stroke="rgb(204, 204, 204)" stroke-width="1px"></line><line x1="51.5625" y1="22.125" x2="46.5625" y2="22.125" style="visibility: inherit;" fill="rgb(0, 0, 0)" stroke="rgb(204, 204, 204)" stroke-width="1px"></line><line x1="51.5625" y1="0" x2="46.5625" y2="0" style="visibility: inherit;" fill="rgb(0, 0, 0)" stroke="rgb(204, 204, 204)" stroke-width="1px"></line></g><g transform="translate(41.5625, 0)"><text x="0" y="177" dx="0em" dy="0.3em" style="text-anchor: end; visibility: hidden; font-family: Roboto, sans-serif; font-size: 12px; font-weight: 200;" fill="rgb(33, 33, 33)" stroke="none" stroke-width="1px">0</text><text x="0" y="154.875" dx="0em" dy="0.3em" style="text-anchor: end; visibility: inherit; font-family: Roboto, sans-serif; font-size: 12px; font-weight: 200;" fill="rgb(33, 33, 33)" stroke="none" stroke-width="1px">1e+4</text><text x="0" y="132.75" dx="0em" dy="0.3em" style="text-anchor: end; visibility: hidden; font-family: Roboto, sans-serif; font-size: 12px; font-weight: 200;" fill="rgb(33, 33, 33)" stroke="none" stroke-width="1px">2e+4</text><text x="0" y="110.625" dx="0em" dy="0.3em" style="text-anchor: end; visibility: inherit; font-family: Roboto, sans-serif; font-size: 12px; font-weight: 200;" fill="rgb(33, 33, 33)" stroke="none" stroke-width="1px">3e+4</text><text x="0" y="88.5" dx="0em" dy="0.3em" style="text-anchor: end; visibility: hidden; font-family: Roboto, sans-serif; font-size: 12px; font-weight: 200;" fill="rgb(33, 33, 33)" stroke="none" stroke-width="1px">4e+4</text><text x="0" y="66.375" dx="0em" dy="0.3em" style="text-anchor: end; visibility: inherit; font-family: Roboto, sans-serif; font-size: 12px; font-weight: 200;" fill="rgb(33, 33, 33)" stroke="none" stroke-width="1px">5e+4</text><text x="0" y="44.25" dx="0em" dy="0.3em" style="text-anchor: end; visibility: hidden; font-family: Roboto, sans-serif; font-size: 12px; font-weight: 200;" fill="rgb(33, 33, 33)" stroke="none" stroke-width="1px">6e+4</text><text x="0" y="22.125" dx="0em" dy="0.3em" style="text-anchor: end; visibility: inherit; font-family: Roboto, sans-serif; font-size: 12px; font-weight: 200;" fill="rgb(33, 33, 33)" stroke="none" stroke-width="1px">7e+4</text><text x="0" y="0" dx="0em" dy="0.3em" style="text-anchor: end; visibility: hidden; font-family: Roboto, sans-serif; font-size: 12px; font-weight: 200;" fill="rgb(33, 33, 33)" stroke="none" stroke-width="1px">8e+4</text></g><line x1="51.5625" y1="0" x2="51.5625" y2="177" fill="rgb(0, 0, 0)" stroke="rgb(204, 204, 204)" stroke-width="1px"></line></g></g><g transform="translate(51, 0)" clip-path="url(#clip_0)"><clipPath id="clip_0"><rect width="278" height="177"></rect></clipPath><g><g><g><line x1="0" y1="0" x2="0" y2="177" fill="rgb(0, 0, 0)" stroke="rgb(66, 66, 66)" stroke-width="1px" opacity="0.25"></line><line x1="23.203125" y1="0" x2="23.203125" y2="177" fill="rgb(0, 0, 0)" stroke="rgb(66, 66, 66)" stroke-width="1px" opacity="0.25"></line><line x1="46.40625" y1="0" x2="46.40625" y2="177" fill="rgb(0, 0, 0)" stroke="rgb(66, 66, 66)" stroke-width="1px" opacity="0.25"></line><line x1="69.609375" y1="0" x2="69.609375" y2="177" fill="rgb(0, 0, 0)" stroke="rgb(66, 66, 66)" stroke-width="1px" opacity="0.25"></line><line x1="92.8125" y1="0" x2="92.8125" y2="177" fill="rgb(0, 0, 0)" stroke="rgb(66, 66, 66)" stroke-width="1px" opacity="0.25"></line><line x1="116.015625" y1="0" x2="116.015625" y2="177" fill="rgb(0, 0, 0)" stroke="rgb(66, 66, 66)" stroke-width="1px" opacity="0.25"></line><line x1="139.21875" y1="0" x2="139.21875" y2="177" fill="rgb(0, 0, 0)" stroke="rgb(66, 66, 66)" stroke-width="1px" opacity="0.25"></line><line x1="162.421875" y1="0" x2="162.421875" y2="177" fill="rgb(0, 0, 0)" stroke="rgb(66, 66, 66)" stroke-width="1px" opacity="0.25"></line><line x1="185.625" y1="0" x2="185.625" y2="177" fill="rgb(0, 0, 0)" stroke="rgb(66, 66, 66)" stroke-width="1px" opacity="0.25"></line><line x1="208.828125" y1="0" x2="208.828125" y2="177" fill="rgb(0, 0, 0)" stroke="rgb(66, 66, 66)" stroke-width="1px" opacity="0.25"></line><line x1="232.03125" y1="0" x2="232.03125" y2="177" fill="rgb(0, 0, 0)" stroke="rgb(66, 66, 66)" stroke-width="1px" opacity="0.25"></line><line x1="255.234375" y1="0" x2="255.234375" y2="177" fill="rgb(0, 0, 0)" stroke="rgb(66, 66, 66)" stroke-width="1px" opacity="0.25"></line><line x1="278.4375" y1="0" x2="278.4375" y2="177" fill="rgb(0, 0, 0)" stroke="rgb(66, 66, 66)" stroke-width="1px" opacity="0.25"></line></g><g><line x1="0" y1="177" x2="278.4375" y2="177" fill="rgb(0, 0, 0)" stroke="rgb(66, 66, 66)" stroke-width="1px" opacity="0.25"></line><line x1="0" y1="154.875" x2="278.4375" y2="154.875" fill="rgb(0, 0, 0)" stroke="rgb(66, 66, 66)" stroke-width="1px" opacity="0.25"></line><line x1="0" y1="132.75" x2="278.4375" y2="132.75" fill="rgb(0, 0, 0)" stroke="rgb(66, 66, 66)" stroke-width="1px" opacity="0.25"></line><line x1="0" y1="110.625" x2="278.4375" y2="110.625" fill="rgb(0, 0, 0)" stroke="rgb(66, 66, 66)" stroke-width="1px" opacity="0.25"></line><line x1="0" y1="88.5" x2="278.4375" y2="88.5" fill="rgb(0, 0, 0)" stroke="rgb(66, 66, 66)" stroke-width="1px" opacity="0.25"></line><line x1="0" y1="66.375" x2="278.4375" y2="66.375" fill="rgb(0, 0, 0)" stroke="rgb(66, 66, 66)" stroke-width="1px" opacity="0.25"></line><line x1="0" y1="44.25" x2="278.4375" y2="44.25" fill="rgb(0, 0, 0)" stroke="rgb(66, 66, 66)" stroke-width="1px" opacity="0.25"></line><line x1="0" y1="22.125" x2="278.4375" y2="22.125" fill="rgb(0, 0, 0)" stroke="rgb(66, 66, 66)" stroke-width="1px" opacity="0.25"></line><line x1="0" y1="0" x2="278.4375" y2="0" fill="rgb(0, 0, 0)" stroke="rgb(66, 66, 66)" stroke-width="1px" opacity="0.25"></line></g></g></g><g><g><line x1="0" y1="177" x2="278.4375" y2="177" fill="rgb(0, 0, 0)" stroke="rgb(153, 153, 153)" stroke-width="1.5px"></line></g></g><g><g><line x1="23.203125" y1="0" x2="23.203125" y2="177" fill="rgb(0, 0, 0)" stroke="rgb(153, 153, 153)" stroke-width="1.5px"></line></g></g><g><g><g><g><g><path stroke="rgb(255, 112, 67)" stroke-width="2px" d="M27.3796875,-0.8238278320312589L27.84375,0.8306900390624959L28.3078125,2.418798339843757L28.771875,3.938975976562493L29.2359375,5.40517207031249L29.700000000000003,6.824905664062498L30.1640625,8.207407031249998L30.628125,9.55787900390625L31.092187499999998,10.881144140624993L31.55625,12.181074316406256L32.0203125,13.457047265625002L32.484375,14.712157031250008L32.9484375,15.952539843749996L33.4125,17.1776771484375L33.8765625,18.382106835937492L34.340625,19.568940234375L34.8046875,20.737209374999992L35.268750000000004,21.888452636718743L35.7328125,23.024709667968754L36.196875,24.147605273437506L36.660937499999996,25.258141992187507L37.125,26.353104785156255L37.589062500000004,27.435553125000002L38.053124999999994,28.498590234375L38.5171875,29.55390087890626L38.98125,30.597630468749998L39.4453125,31.631663085937504L39.909375000000004,32.657122265625L40.373437499999994,33.671138671875L40.8375,34.66021259765624L41.3015625,35.64894082031249L41.765625,36.628075781250004L42.229687500000004,37.58885390625L42.693749999999994,38.55723750000001L43.1578125,39.50077368164063L43.621875,40.44916699218749L44.0859375,41.37812314453126L44.550000000000004,42.29416728515624L45.014062499999994,43.20155156249999L45.478125,44.107336962890635L45.9421875,44.952537890624995L46.40625,45.866412744140625L46.8703125,46.72928774414062L47.334375,47.61908437500001L47.7984375,48.47877890624999L48.2625,49.34702958984374L48.7265625,50.185653515625006L49.190625,51.02655908203126L49.6546875,51.8446482421875L50.11875,52.67704086914063L50.5828125,53.49241625976562L51.04687499999999,54.295631542968756L51.5109375,55.100687695312494L51.975,55.89786181640624L52.4390625,56.68673906249999L52.903125,57.46613540039061L53.36718750000001,58.23979306640625L53.83125,59.005767480468755L54.2953125,59.76550195312499L54.759375,60.516299999999994L55.2234375,61.264297851562496L55.6875,62.002685156249996L56.1515625,62.73592148437501L56.615625,63.463600634765626L57.0796875,64.17752080078124L57.54375,64.88609985351563L58.0078125,65.60242265625L58.471875,66.3128771484375L58.9359375,66.99455185546874L59.400000000000006,67.69781572265626L59.864062499999996,68.37535063476561L60.328125,69.05209907226562L60.7921875,69.71535644531251L61.25625,70.38182021484376L61.720312500000006,71.04397133789062L62.184374999999996,71.73372685546875L62.6484375,72.3581185546875L63.1125,73.03014814453125L63.5765625,73.66067607421876L64.040625,74.29711552734375L64.5046875,74.93282900390624L64.96875,75.56778193359375L65.4328125,76.16588291015624L65.896875,76.80407680664064L66.3609375,77.42783759765626L66.825,78.04830556640624L67.2890625,78.62989921875001L67.753125,79.24193203125L68.2171875,79.78214501953124L68.68125,80.3903578125L69.1453125,80.99028237304687L69.609375,81.5890142578125L70.0734375,82.17206850585937L70.53750000000001,82.75069775390625L71.0015625,83.32673422851563L71.465625,83.88743012695312L71.92968750000001,84.4566216796875L72.39375,85.00670449218751L72.8578125,85.5616271484375L73.32187499999999,86.10893569335938L73.7859375,86.65793818359376L74.25,87.20345771484375L74.7140625,87.741043359375L75.17812500000001,88.27410029296874L75.6421875,88.80429653320313L76.10624999999999,89.32824418945313L76.5703125,89.84788784179688L77.034375,90.36096313476563L77.4984375,90.87272475585937L77.9625,91.37517832031251L78.4265625,91.8867498046875L78.890625,92.36585976562499L79.3546875,92.84829711914062L79.81875000000001,93.35813144531251L80.2828125,93.82557392578124L80.74687499999999,94.33717133789062L81.2109375,94.79412172851562L81.675,95.2888833984375L82.1390625,95.77177880859377L82.603125,96.25883994140625L83.0671875,96.74014511718751L83.53125,97.20570351562499L83.99531250000001,97.67537578125L84.45937500000001,98.10689970703125L84.92343749999999,98.57394462890625L85.38749999999999,99.0424587890625L85.8515625,99.50366997070313L86.315625,99.94431181640627L86.7796875,100.398894140625L87.24375,100.83863715820311L87.7078125,101.28480161132813L88.171875,101.71832197265624L88.63593750000001,102.15539443359376L89.10000000000001,102.58408359375001L89.56406249999999,103.01330859375L90.02812499999999,103.43427993164063L90.4921875,103.86102451171874L90.95625,104.27811533203125L91.4203125,104.70853732910156L91.884375,105.12001047363282L92.3484375,105.53877363281248L92.8125,105.9294181640625L93.27656250000001,106.33847570800782L93.740625,106.75330649414062L94.20468749999999,107.15553208007812L94.66875,107.5522393798828L95.1328125,107.949326953125L95.596875,108.31907373046874L96.0609375,108.71133442382812L96.525,109.11235869140626L96.9890625,109.49137895507812L97.453125,109.87646630859375L97.91718750000001,110.2499337158203L98.38125,110.63155971679689L98.84531249999999,111.0024041015625L99.309375,111.38335166015625L99.7734375,111.74639179687499L100.2375,112.12542502441407L100.70156250000001,112.4817239501953L101.165625,112.84160090332031L101.6296875,113.18736020507812L102.09374999999999,113.56831640625L102.5578125,113.93069970703125L103.021875,114.2843928955078L103.48593749999999,114.64514707031249L103.95,114.97343540039063L104.4140625,115.31897863769531L104.878125,115.65778930664064L105.34218750000001,116.00922246093751L105.80625,116.36104453125L106.2703125,116.69960024414063L106.73437500000001,117.03597802734376L107.1984375,117.35785356445312L107.6625,117.69802543945313L108.12656249999999,118.0199009765625L108.590625,118.36535346679688L109.0546875,118.68603632812501L109.51875,119.02775090332031L109.98281250000001,119.33691320800781L110.446875,119.66654113769532L110.91093749999999,119.98339965820313L111.375,120.30904335937501L111.8390625,120.61692656249998L112.303125,120.93957561035157L112.7671875,121.22891616210937L113.23125,121.53677343749999L113.6953125,121.81630898437501L114.159375,122.07585424804688L114.62343750000001,122.34828559570313L115.0875,122.66219699707031L115.55156249999999,123.00930021972655L116.015625,123.33728173828125L116.4796875,123.65903195800782L116.94375,123.95608168945313L117.4078125,124.2538962890625L117.871875,124.54659448242188L118.3359375,124.84085698242188L118.80000000000001,125.1294802001953L119.26406250000001,125.41831516113281L119.72812499999999,125.70265598144532L120.19218749999999,125.98644367675782L120.65625,126.26349448242186L121.1203125,126.52569301757812L121.584375,126.80974863281251L122.0484375,127.02910590820312L122.5125,127.31287631835939L122.9765625,127.62426840820312L123.44062500000001,127.92080390625L123.90468750000001,128.20281123046874L124.36874999999999,128.47562285156252L124.83281249999999,128.7387029296875L125.296875,128.99250087890624L125.7609375,129.2578539550781L126.225,129.52867346191405L126.6890625,129.79364194335938L127.153125,130.05540834960937L127.6171875,130.3060387939453L128.08125,130.56651313476561L128.5453125,130.80936958007814L129.009375,131.0678431640625L129.47343750000002,131.312635546875L129.9375,131.55391904296877L130.4015625,131.82446630859377L130.865625,132.08797851562503L131.3296875,132.33286164550782L131.79375,132.58707443847655L132.2578125,132.83754067382813L132.721875,133.07530231933595L133.1859375,133.31725561523436L133.65,133.56125288085937L134.11406250000002,133.81267412109375L134.578125,134.0583610107422L135.04218749999998,134.29981735839843L135.50625,134.54004645996093L135.9703125,134.74267602539064L136.434375,134.93466225585937L136.8984375,135.20323037109375L137.3625,135.46293120117187L137.8265625,135.60618193359375L138.290625,135.85961689453126L138.75468750000002,136.13655966796875L139.21875,136.36853942871093L139.6828125,136.5354146484375L140.146875,136.78513330078127L140.6109375,137.03802377929688L141.07500000000002,137.26833984375L141.5390625,137.43269575195313L142.003125,137.67569047851563L142.46718750000002,137.9173283203125L142.93125,138.00492084960936L143.39531250000002,138.2331626953125L143.85937500000003,138.50368403320311L144.32343749999998,138.75117290039063L144.7875,138.96973505859376L145.25156249999998,139.19047946777343L145.715625,139.40684641113282L146.1796875,139.6106859375L146.64374999999998,139.81769729003906L147.1078125,140.03588781738281L147.571875,140.239381640625L148.0359375,140.44710600585938L148.5,140.6401768798828L148.9640625,140.80285396728516L149.428125,141.03351789550783L149.8921875,141.24277631835938L150.35625000000002,141.45273046875L150.8203125,141.63549938964846L151.284375,141.78834122314453L151.74843750000002,142.01566479492186L152.21249999999998,142.21280200195312L152.6765625,142.41470991210937L153.140625,142.60138959960938L153.60468749999998,142.79704244384766L154.06875,142.97694851074218L154.5328125,143.10574669189452L154.996875,143.32867983398438L155.4609375,143.54290773925783L155.925,143.73612985839844L156.3890625,143.89662901611328L156.853125,144.05970582275393L157.3171875,144.26959299316405L157.78125,144.443823046875L158.2453125,144.65351791992188L158.709375,144.8345302368164L159.1734375,145.02169390869142L159.63750000000002,145.1997375L160.1015625,145.37177666015626L160.565625,145.5246163330078L161.02968750000002,145.68884260253907L161.49374999999998,145.894946484375L161.9578125,146.07026982421877L162.421875,146.2439273071289L162.88593749999998,146.418202734375L163.35,146.5859983886719L163.8140625,146.7631107421875L164.278125,146.93480419921875L164.7421875,147.10391568603515L165.20625,147.27322595214844L165.6703125,147.43759914550782L166.134375,147.60449165039063L166.59843750000002,147.76734591064454L167.0625,147.92752961425782L167.5265625,148.08319973144532L167.99062500000002,148.2278419189453L168.4546875,148.3847219970703L168.91875000000002,148.55180463867188L169.38281249999997,148.73408957519533L169.84687499999998,148.903531640625L170.3109375,149.06712916259767L170.77499999999998,149.22647021484374L171.2390625,149.37395148925782L171.703125,149.51049125976562L172.16718749999998,149.62444581298828L172.63125,149.81140854492187L173.0953125,149.9513923828125L173.559375,150.11353795166016L174.0234375,150.28042613525392L174.4875,150.44008696289063L174.9515625,150.59817268066408L175.415625,150.7478167602539L175.87968750000002,150.8830147705078L176.34375,151.0139109375L176.8078125,151.14249953613282L177.27187500000002,151.31847106933594L177.7359375,151.4574134765625L178.20000000000002,151.59576818847657L178.66406250000003,151.7488347290039L179.12812499999998,151.8944103149414L179.5921875,152.05581046142578L180.05624999999998,152.20038350830077L180.5203125,152.34750395507814L180.984375,152.4908173461914L181.44843749999998,152.63198737792968L181.9125,152.77234068603514L182.3765625,152.9062963256836L182.840625,153.0448130859375L183.3046875,153.15863800048828L183.76875,153.3007716796875L184.2328125,153.41691064453124L184.696875,153.560221875L185.16093750000002,153.7065839355469L185.625,153.83917188720702L186.0890625,153.99131799316407L186.55312500000002,154.11126185302734L187.01718749999998,154.18287209472655L187.48125,154.3212052001953L187.9453125,154.47505821533204L188.40937499999998,154.61259404296874L188.8734375,154.7641070800781L189.3375,154.89373927001952L189.8015625,155.03225603027343L190.265625,155.15156682128907L190.7296875,155.28007763671874L191.19375,155.4097962524414L191.6578125,155.519874609375L192.121875,155.62506342773437L192.5859375,155.70240153808595L193.05,155.81134555664062L193.5140625,155.96758176269532L193.978125,156.1099487915039L194.44218750000002,156.19399138183593L194.90625,156.36017087402342L195.3703125,156.51316611328124L195.83437500000002,156.62793955078126L196.29843749999998,156.73659404296876L196.7625,156.80654490966796L197.2265625,156.88519020996094L197.69062499999998,157.03750916748047L198.1546875,157.17974007568358L198.61875,157.31166254882814L199.0828125,157.42986276855467L199.546875,157.49814345703126L200.0109375,157.6176487060547L200.475,157.77122731933594L200.9390625,157.90086166992188L201.40312500000002,158.0227241821289L201.8671875,158.11518032226562L202.33125,158.18014226074217L202.79531250000002,158.27503776855468L203.259375,158.39857045898438L203.72343750000002,158.53732489013672L204.18749999999997,158.62225334472657L204.65156249999998,158.73806821289062L205.115625,158.82515083007812L205.57968749999998,158.94384799804686L206.04375,159.0310645751953L206.5078125,159.1534283569336L206.97187499999998,159.27328795166014L207.4359375,159.3874942199707L207.9,159.48429649658203L208.3640625,159.5329542114258L208.828125,159.67843364868165L209.2921875,159.79339830322266L209.75625,159.91692667236327L210.2203125,160.01352044677736L210.68437500000002,160.12029841918945L211.1484375,160.20945525512695L211.6125,160.32222037353515L212.07656250000002,160.35534629516602L212.540625,160.47467545166015L213.00468750000002,160.59746920166015L213.46875000000003,160.71632841796875L213.93281249999998,160.80574453124999L214.396875,160.90616264648438L214.86093749999998,160.9840452392578L215.325,161.0361340576172L215.7890625,161.14688653564454L216.25312499999998,161.28180798339844L216.7171875,161.3790812805176L217.18125,161.4811512084961L217.6453125,161.56782114257814L218.109375,161.6747827697754L218.5734375,161.7316476928711L219.0375,161.83941632080078L219.5015625,161.90746149902344L219.96562500000002,162.00190543212892L220.4296875,162.01595718383788L220.89375,162.1603098449707L221.35781250000002,162.28678857421875L221.82187499999998,162.3557012512207L222.2859375,162.42273632812498L222.75,162.5521870239258L223.21406249999998,162.6540052368164L223.678125,162.74003129882814L224.1421875,162.82221573486328L224.60625,162.90061040039063L225.0703125,162.98409446411134L225.534375,163.06897862548828L225.9984375,163.1572485168457L226.4625,163.2064075012207L226.9265625,163.2421315979004L227.390625,163.3738282836914L227.8546875,163.48816743164062L228.31875,163.56531216430665L228.7828125,163.64332115478516L229.24687500000002,163.71842407836914L229.7109375,163.77969239501954L230.175,163.8127362121582L230.63906250000002,163.93222849731447L231.10312499999998,164.03688903808595L231.5671875,164.1069263305664L232.03125,164.16839450683594L232.49531249999998,164.2219828125L232.959375,164.33614262695312L233.4234375,164.43258947753907L233.8875,164.47958025512693L234.3515625,164.58076755981446L234.815625,164.6553497680664L235.2796875,164.71207100830077L235.74375,164.78929028320312L236.20781250000002,164.88688443603516L236.671875,164.97028315429688L237.1359375,165.0500357849121L237.60000000000002,165.11893333740235L238.0640625,165.18170114135742L238.52812500000002,165.2483505432129L238.99218749999997,165.3115385925293L239.45624999999998,165.35842673950197L239.9203125,165.44134903564452L240.38437499999998,165.53407957763673L240.8484375,165.6146262451172L241.3125,165.68256663208007L241.77656249999998,165.7555089111328L242.240625,165.81435406494143L242.7046875,165.89881149902342L243.16875,165.97454208984374L243.6328125,166.04430714111328L244.096875,166.1086543762207L244.5609375,166.175880670166L245.025,166.23686810302735L245.48906250000002,166.30655645141601L245.953125,166.37533300781251L246.4171875,166.44164967041016L246.88125000000002,166.50462381591797L247.3453125,166.5613807067871L247.80937500000002,166.61883548583984L248.27343750000003,166.6741026123047L248.73749999999998,166.74232280273438L249.2015625,166.80249783325195L249.66562499999998,166.88820736083986L250.1296875,166.95587334594725L250.59375,167.0252613647461L251.05781249999998,167.08599276123047L251.521875,167.14776774902342L251.9859375,167.20557147216797L252.45,167.26608464355468L252.9140625,167.32678146972657L253.378125,167.38508646240234L253.8421875,167.44713801269532L254.30625,167.4957568359375L254.77031250000002,167.55635427246094" style="fill: none;" fill="none"></path></g></g></g></g></g></g><g transform="translate(51, 177)" clip-path="url(#clip_1)"><clipPath id="clip_1"><rect width="278" height="23"></rect></clipPath><g><g><line x1="0" y1="0" x2="0" y2="5" style="visibility: inherit;" fill="rgb(0, 0, 0)" stroke="rgb(204, 204, 204)" stroke-width="1px"></line><line x1="23.203125" y1="0" x2="23.203125" y2="5" style="visibility: inherit;" fill="rgb(0, 0, 0)" stroke="rgb(204, 204, 204)" stroke-width="1px"></line><line x1="46.40625" y1="0" x2="46.40625" y2="5" style="visibility: inherit;" fill="rgb(0, 0, 0)" stroke="rgb(204, 204, 204)" stroke-width="1px"></line><line x1="69.609375" y1="0" x2="69.609375" y2="5" style="visibility: inherit;" fill="rgb(0, 0, 0)" stroke="rgb(204, 204, 204)" stroke-width="1px"></line><line x1="92.8125" y1="0" x2="92.8125" y2="5" style="visibility: inherit;" fill="rgb(0, 0, 0)" stroke="rgb(204, 204, 204)" stroke-width="1px"></line><line x1="116.015625" y1="0" x2="116.015625" y2="5" style="visibility: inherit;" fill="rgb(0, 0, 0)" stroke="rgb(204, 204, 204)" stroke-width="1px"></line><line x1="139.21875" y1="0" x2="139.21875" y2="5" style="visibility: inherit;" fill="rgb(0, 0, 0)" stroke="rgb(204, 204, 204)" stroke-width="1px"></line><line x1="162.421875" y1="0" x2="162.421875" y2="5" style="visibility: inherit;" fill="rgb(0, 0, 0)" stroke="rgb(204, 204, 204)" stroke-width="1px"></line><line x1="185.625" y1="0" x2="185.625" y2="5" style="visibility: inherit;" fill="rgb(0, 0, 0)" stroke="rgb(204, 204, 204)" stroke-width="1px"></line><line x1="208.828125" y1="0" x2="208.828125" y2="5" style="visibility: inherit;" fill="rgb(0, 0, 0)" stroke="rgb(204, 204, 204)" stroke-width="1px"></line><line x1="232.03125" y1="0" x2="232.03125" y2="5" style="visibility: inherit;" fill="rgb(0, 0, 0)" stroke="rgb(204, 204, 204)" stroke-width="1px"></line><line x1="255.234375" y1="0" x2="255.234375" y2="5" style="visibility: inherit;" fill="rgb(0, 0, 0)" stroke="rgb(204, 204, 204)" stroke-width="1px"></line><line x1="278.4375" y1="0" x2="278.4375" y2="5" style="visibility: inherit;" fill="rgb(0, 0, 0)" stroke="rgb(204, 204, 204)" stroke-width="1px"></line></g><g transform="translate(0, 8)"><text x="0" y="0" dx="0em" dy="0.95em" style="text-anchor: middle; visibility: hidden; font-family: Roboto, sans-serif; font-size: 12px; font-weight: 200;" fill="rgb(33, 33, 33)" stroke="none" stroke-width="1px">-50</text><text x="23.203125" y="0" dx="0em" dy="0.95em" style="text-anchor: middle; visibility: inherit; font-family: Roboto, sans-serif; font-size: 12px; font-weight: 200;" fill="rgb(33, 33, 33)" stroke="none" stroke-width="1px">0</text><text x="46.40625" y="0" dx="0em" dy="0.95em" style="text-anchor: middle; visibility: hidden; font-family: Roboto, sans-serif; font-size: 12px; font-weight: 200;" fill="rgb(33, 33, 33)" stroke="none" stroke-width="1px">50</text><text x="69.609375" y="0" dx="0em" dy="0.95em" style="text-anchor: middle; visibility: inherit; font-family: Roboto, sans-serif; font-size: 12px; font-weight: 200;" fill="rgb(33, 33, 33)" stroke="none" stroke-width="1px">100</text><text x="92.8125" y="0" dx="0em" dy="0.95em" style="text-anchor: middle; visibility: hidden; font-family: Roboto, sans-serif; font-size: 12px; font-weight: 200;" fill="rgb(33, 33, 33)" stroke="none" stroke-width="1px">150</text><text x="116.015625" y="0" dx="0em" dy="0.95em" style="text-anchor: middle; visibility: inherit; font-family: Roboto, sans-serif; font-size: 12px; font-weight: 200;" fill="rgb(33, 33, 33)" stroke="none" stroke-width="1px">200</text><text x="139.21875" y="0" dx="0em" dy="0.95em" style="text-anchor: middle; visibility: hidden; font-family: Roboto, sans-serif; font-size: 12px; font-weight: 200;" fill="rgb(33, 33, 33)" stroke="none" stroke-width="1px">250</text><text x="162.421875" y="0" dx="0em" dy="0.95em" style="text-anchor: middle; visibility: inherit; font-family: Roboto, sans-serif; font-size: 12px; font-weight: 200;" fill="rgb(33, 33, 33)" stroke="none" stroke-width="1px">300</text><text x="185.625" y="0" dx="0em" dy="0.95em" style="text-anchor: middle; visibility: hidden; font-family: Roboto, sans-serif; font-size: 12px; font-weight: 200;" fill="rgb(33, 33, 33)" stroke="none" stroke-width="1px">350</text><text x="208.828125" y="0" dx="0em" dy="0.95em" style="text-anchor: middle; visibility: inherit; font-family: Roboto, sans-serif; font-size: 12px; font-weight: 200;" fill="rgb(33, 33, 33)" stroke="none" stroke-width="1px">400</text><text x="232.03125" y="0" dx="0em" dy="0.95em" style="text-anchor: middle; visibility: hidden; font-family: Roboto, sans-serif; font-size: 12px; font-weight: 200;" fill="rgb(33, 33, 33)" stroke="none" stroke-width="1px">450</text><text x="255.234375" y="0" dx="0em" dy="0.95em" style="text-anchor: middle; visibility: inherit; font-family: Roboto, sans-serif; font-size: 12px; font-weight: 200;" fill="rgb(33, 33, 33)" stroke="none" stroke-width="1px">500</text><text x="278.4375" y="0" dx="0em" dy="0.95em" style="text-anchor: middle; visibility: hidden; font-family: Roboto, sans-serif; font-size: 12px; font-weight: 200;" fill="rgb(33, 33, 33)" stroke="none" stroke-width="1px">550</text></g><line x1="0" y1="0" x2="278.4375" y2="0" fill="rgb(0, 0, 0)" stroke="rgb(204, 204, 204)" stroke-width="1px"></line></g></g></g></g></svg>