<svg viewBox="0 0 301 200" xmlns="http://www.w3.org/2000/svg"><g><g><g><g><g><line x1="30" y1="177" x2="25" y2="177" style="visibility: inherit;" fill="rgb(0, 0, 0)" stroke="rgb(204, 204, 204)" stroke-width="1px"></line><line x1="30" y1="159.3" x2="25" y2="159.3" style="visibility: inherit;" fill="rgb(0, 0, 0)" stroke="rgb(204, 204, 204)" stroke-width="1px"></line><line x1="30" y1="141.6" x2="25" y2="141.6" style="visibility: inherit;" fill="rgb(0, 0, 0)" stroke="rgb(204, 204, 204)" stroke-width="1px"></line><line x1="30" y1="123.89999999999999" x2="25" y2="123.89999999999999" style="visibility: inherit;" fill="rgb(0, 0, 0)" stroke="rgb(204, 204, 204)" stroke-width="1px"></line><line x1="30" y1="106.2" x2="25" y2="106.2" style="visibility: inherit;" fill="rgb(0, 0, 0)" stroke="rgb(204, 204, 204)" stroke-width="1px"></line><line x1="30" y1="88.5" x2="25" y2="88.5" style="visibility: inherit;" fill="rgb(0, 0, 0)" stroke="rgb(204, 204, 204)" stroke-width="1px"></line><line x1="30" y1="70.8" x2="25" y2="70.8" style="visibility: inherit;" fill="rgb(0, 0, 0)" stroke="rgb(204, 204, 204)" stroke-width="1px"></line><line x1="30" y1="53.10000000000001" x2="25" y2="53.10000000000001" style="visibility: inherit;" fill="rgb(0, 0, 0)" stroke="rgb(204, 204, 204)" stroke-width="1px"></line><line x1="30" y1="35.39999999999999" x2="25" y2="35.39999999999999" style="visibility: inherit;" fill="rgb(0, 0, 0)" stroke="rgb(204, 204, 204)" stroke-width="1px"></line><line x1="30" y1="17.699999999999996" x2="25" y2="17.699999999999996" style="visibility: inherit;" fill="rgb(0, 0, 0)" stroke="rgb(204, 204, 204)" stroke-width="1px"></line><line x1="30" y1="0" x2="25" y2="0" style="visibility: inherit;" fill="rgb(0, 0, 0)" stroke="rgb(204, 204, 204)" stroke-width="1px"></line></g><g transform="translate(20, 0)"><text x="0" y="177" dx="0em" dy="0.3em" style="text-anchor: end; visibility: hidden; font-family: Roboto, sans-serif; font-size: 12px; font-weight: 200;" fill="rgb(33, 33, 33)" stroke="none" stroke-width="1px">0</text><text x="0" y="159.3" dx="0em" dy="0.3em" style="text-anchor: end; visibility: inherit; font-family: Roboto, sans-serif; font-size: 12px; font-weight: 200;" fill="rgb(33, 33, 33)" stroke="none" stroke-width="1px">1</text><text x="0" y="141.6" dx="0em" dy="0.3em" style="text-anchor: end; visibility: hidden; font-family: Roboto, sans-serif; font-size: 12px; font-weight: 200;" fill="rgb(33, 33, 33)" stroke="none" stroke-width="1px">2</text><text x="0" y="123.89999999999999" dx="0em" dy="0.3em" style="text-anchor: end; visibility: inherit; font-family: Roboto, sans-serif; font-size: 12px; font-weight: 200;" fill="rgb(33, 33, 33)" stroke="none" stroke-width="1px">3</text><text x="0" y="106.2" dx="0em" dy="0.3em" style="text-anchor: end; visibility: hidden; font-family: Roboto, sans-serif; font-size: 12px; font-weight: 200;" fill="rgb(33, 33, 33)" stroke="none" stroke-width="1px">4</text><text x="0" y="88.5" dx="0em" dy="0.3em" style="text-anchor: end; visibility: inherit; font-family: Roboto, sans-serif; font-size: 12px; font-weight: 200;" fill="rgb(33, 33, 33)" stroke="none" stroke-width="1px">5</text><text x="0" y="70.8" dx="0em" dy="0.3em" style="text-anchor: end; visibility: hidden; font-family: Roboto, sans-serif; font-size: 12px; font-weight: 200;" fill="rgb(33, 33, 33)" stroke="none" stroke-width="1px">6</text><text x="0" y="53.10000000000001" dx="0em" dy="0.3em" style="text-anchor: end; visibility: inherit; font-family: Roboto, sans-serif; font-size: 12px; font-weight: 200;" fill="rgb(33, 33, 33)" stroke="none" stroke-width="1px">7</text><text x="0" y="35.39999999999999" dx="0em" dy="0.3em" style="text-anchor: end; visibility: hidden; font-family: Roboto, sans-serif; font-size: 12px; font-weight: 200;" fill="rgb(33, 33, 33)" stroke="none" stroke-width="1px">8</text><text x="0" y="17.699999999999996" dx="0em" dy="0.3em" style="text-anchor: end; visibility: inherit; font-family: Roboto, sans-serif; font-size: 12px; font-weight: 200;" fill="rgb(33, 33, 33)" stroke="none" stroke-width="1px">9</text><text x="0" y="0" dx="0em" dy="0.3em" style="text-anchor: end; visibility: hidden; font-family: Roboto, sans-serif; font-size: 12px; font-weight: 200;" fill="rgb(33, 33, 33)" stroke="none" stroke-width="1px">10</text></g><line x1="30" y1="0" x2="30" y2="177" fill="rgb(0, 0, 0)" stroke="rgb(204, 204, 204)" stroke-width="1px"></line></g></g><g transform="translate(30, 0)" clip-path="url(#clip_0)"><clipPath id="clip_0"><rect width="300" height="177"></rect></clipPath><g><g><g><line x1="0" y1="0" x2="0" y2="177" fill="rgb(0, 0, 0)" stroke="rgb(66, 66, 66)" stroke-width="1px" opacity="0.25"></line><line x1="25" y1="0" x2="25" y2="177" fill="rgb(0, 0, 0)" stroke="rgb(66, 66, 66)" stroke-width="1px" opacity="0.25"></line><line x1="50" y1="0" x2="50" y2="177" fill="rgb(0, 0, 0)" stroke="rgb(66, 66, 66)" stroke-width="1px" opacity="0.25"></line><line x1="75" y1="0" x2="75" y2="177" fill="rgb(0, 0, 0)" stroke="rgb(66, 66, 66)" stroke-width="1px" opacity="0.25"></line><line x1="100" y1="0" x2="100" y2="177" fill="rgb(0, 0, 0)" stroke="rgb(66, 66, 66)" stroke-width="1px" opacity="0.25"></line><line x1="125" y1="0" x2="125" y2="177" fill="rgb(0, 0, 0)" stroke="rgb(66, 66, 66)" stroke-width="1px" opacity="0.25"></line><line x1="150" y1="0" x2="150" y2="177" fill="rgb(0, 0, 0)" stroke="rgb(66, 66, 66)" stroke-width="1px" opacity="0.25"></line><line x1="175" y1="0" x2="175" y2="177" fill="rgb(0, 0, 0)" stroke="rgb(66, 66, 66)" stroke-width="1px" opacity="0.25"></line><line x1="200" y1="0" x2="200" y2="177" fill="rgb(0, 0, 0)" stroke="rgb(66, 66, 66)" stroke-width="1px" opacity="0.25"></line><line x1="225" y1="0" x2="225" y2="177" fill="rgb(0, 0, 0)" stroke="rgb(66, 66, 66)" stroke-width="1px" opacity="0.25"></line><line x1="250" y1="0" x2="250" y2="177" fill="rgb(0, 0, 0)" stroke="rgb(66, 66, 66)" stroke-width="1px" opacity="0.25"></line><line x1="275" y1="0" x2="275" y2="177" fill="rgb(0, 0, 0)" stroke="rgb(66, 66, 66)" stroke-width="1px" opacity="0.25"></line><line x1="300" y1="0" x2="300" y2="177" fill="rgb(0, 0, 0)" stroke="rgb(66, 66, 66)" stroke-width="1px" opacity="0.25"></line></g><g><line x1="0" y1="177" x2="300" y2="177" fill="rgb(0, 0, 0)" stroke="rgb(66, 66, 66)" stroke-width="1px" opacity="0.25"></line><line x1="0" y1="159.3" x2="300" y2="159.3" fill="rgb(0, 0, 0)" stroke="rgb(66, 66, 66)" stroke-width="1px" opacity="0.25"></line><line x1="0" y1="141.6" x2="300" y2="141.6" fill="rgb(0, 0, 0)" stroke="rgb(66, 66, 66)" stroke-width="1px" opacity="0.25"></line><line x1="0" y1="123.89999999999999" x2="300" y2="123.89999999999999" fill="rgb(0, 0, 0)" stroke="rgb(66, 66, 66)" stroke-width="1px" opacity="0.25"></line><line x1="0" y1="106.2" x2="300" y2="106.2" fill="rgb(0, 0, 0)" stroke="rgb(66, 66, 66)" stroke-width="1px" opacity="0.25"></line><line x1="0" y1="88.5" x2="300" y2="88.5" fill="rgb(0, 0, 0)" stroke="rgb(66, 66, 66)" stroke-width="1px" opacity="0.25"></line><line x1="0" y1="70.8" x2="300" y2="70.8" fill="rgb(0, 0, 0)" stroke="rgb(66, 66, 66)" stroke-width="1px" opacity="0.25"></line><line x1="0" y1="53.10000000000001" x2="300" y2="53.10000000000001" fill="rgb(0, 0, 0)" stroke="rgb(66, 66, 66)" stroke-width="1px" opacity="0.25"></line><line x1="0" y1="35.39999999999999" x2="300" y2="35.39999999999999" fill="rgb(0, 0, 0)" stroke="rgb(66, 66, 66)" stroke-width="1px" opacity="0.25"></line><line x1="0" y1="17.699999999999996" x2="300" y2="17.699999999999996" fill="rgb(0, 0, 0)" stroke="rgb(66, 66, 66)" stroke-width="1px" opacity="0.25"></line><line x1="0" y1="0" x2="300" y2="0" fill="rgb(0, 0, 0)" stroke="rgb(66, 66, 66)" stroke-width="1px" opacity="0.25"></line></g></g></g><g><g><line x1="0" y1="177" x2="300" y2="177" fill="rgb(0, 0, 0)" stroke="rgb(153, 153, 153)" stroke-width="1.5px"></line></g></g><g><g><line x1="25" y1="0" x2="25" y2="177" fill="rgb(0, 0, 0)" stroke="rgb(153, 153, 153)" stroke-width="1.5px"></line></g></g><g><g><g><g><g><path stroke="rgb(204, 51, 17)" stroke-width="2px" d="M27,-512.644514465332L27.499999999999996,81.1281002998352L28,145.27195630073547L28.5,155.80412989854813L29,159.1072510957718L29.5,151.26043792963029L30,146.99941692352294L30.5,144.02612739801407L31,145.47733569145203L31.5,161.50485756397248L32,172.7636504843831L32.5,167.08521369695663L33,92.00319814682007L33.5,-6.419274902343758L34,136.5762018442154L34.5,143.67057266235352L35,34.731685638427734L35.5,27.473304176330558L36,-115.21707859039306L36.5,-69.01584777832032L37,61.67298173904419L37.5,68.32991065979003L38,133.18791875839233L38.5,152.7358775138855L39,112.48020451068878L39.49999999999999,108.64418692588806L40,165.08537682294846L40.5,173.92695500403642L41,157.5349517583847L41.5,104.20239973068237L42.00000000000001,88.85111317634583L42.5,151.90422559976577L43,163.5247880101204L43.5,116.12492065429687L44,70.9769196510315L44.5,145.9359873533249L45,168.22256727218627L45.5,140.63026728630066L46,72.8736532688141L46.5,108.27364482879638L47,165.16288045048714L47.5,175.30671722888945L48,167.44999970197676L48.49999999999999,127.4590077638626L49,60.68424210548402L49.5,114.15477154254914L50,164.83142935037614L50.5,167.19209175109864L51.00000000000001,125.93215792179107L51.5,69.07783126831055L52,140.6922254562378L52.5,168.86217291355132L53,155.81244964599608L53.5,97.07407050132751L54,90.63676772117616L54.5,159.58818123936652L54.99999999999999,174.04665845632553L55.5,172.0553924202919L56,157.99952409267425L56.5,106.4183305978775L57,143.58585176467895L57.50000000000001,171.98877747058867L58,167.87272009849548L58.5,173.73982715159656L59,171.0456165701151L59.5,158.75586572885513L60,95.06651101112367L60.5,124.66167783737183L61,135.5000658273697L61.49999999999999,95.74716467857361L62,126.29223861694335L62.5,134.30955491065978L63,111.1586665391922L63.5,153.94696097373964L64,172.66824531555176L64.5,167.56973823308945L65,136.4394102573395L65.5,108.36759910583497L66,145.2888215661049L66.5,161.49624452590942L67,134.35716505050658L67.5,125.29022283554077L68,150.22168486118318L68.5,153.9323259830475L69,136.40389888286592L69.5,139.47448282241822L70,151.30261058807372L70.5,148.4010253429413L71,144.01507730484008L71.5,146.25443766117095L72,148.54180694818496L72.5,148.66424417495728L73,148.69212366342543L73.5,147.81168633699417L74,148.34317113161086L74.5,148.78575510978698L75,149.33588812351226L75.5,149.0357505440712L76,149.32872676849365L76.5,148.95824797153472L77,149.80052375793457L77.50000000000001,149.28077058792115L78,150.3506441116333L78.5,149.2885691642761L78.99999999999999,150.74572134017944L79.5,149.19956495761872L80,151.25647745132446L80.5,149.21859508752823L81,151.6432497024536L81.5,149.32693115472793L82,151.58033148050308L82.5,149.71934766769408L83,150.98432486057283L83.5,150.646048951149L84.00000000000001,150.06739078760148L84.5,152.25496952533723L85,149.34103653430938L85.49999999999999,154.21506657600403L86,149.52521460056306L86.5,154.7821724653244L87,150.7848028421402L87.5,152.298484146595L88,151.62286072969437L88.5,149.25891094207765L89,152.6405327439308L89.5,148.55055713653564L90,155.3539562344551L90.50000000000001,152.2070639848709L91,154.252987575531L91.5,156.15607652664184L92,151.13345997333528L92.5,154.91784785985948L93,149.92380076646805L93.5,151.6031701683998L94,152.10123460292817L94.5,150.97388877868653L95,157.1891473531723L95.5,154.60715814828873L96,155.40241881608964L96.5,157.86429390907287L96.99999999999999,152.5111367225647L97.5,155.22642123699188L98,152.4313236951828L98.5,149.31960521936418L99,154.1145459651947L99.5,150.21390949487687L100,156.45847392082214L100.5,158.6656545996666L101,154.6163788676262L101.5,161.2229630827904L102.00000000000001,158.83638138771056L102.5,152.12788606882094L103,158.2747171998024L103.49999999999999,148.50309891700743L104,147.21605529785157L104.5,148.53191524744034L105,144.7580267429352L105.5,166.20109230279922L106,168.08704168796538L106.5,156.00485672950745L107,171.61428069770335L107.5,170.08421257138252L108,155.04763845205306L108.50000000000001,171.89992201924323L109,144.68234721422195L109.5,169.25631541013718L109.99999999999999,140.1373660326004L110.5,157.5444889783859L111,65.97080755233765L111.5,105.42539205551147L112,56.25620369911194L112.5,125.33185322284699L113,100.00841989517211L113.5,11.543412208557129L114,134.22851386070252L114.5,169.2777477800846L115.00000000000001,169.19891537725925L115.5,167.14554505348207L116,166.79161396622658L116.49999999999999,150.99675489664077L117,97.72272806167602L117.5,103.40721502304076L118,29.188028812408447L118.5,96.73958415985108L119,80.0089877128601L119.5,12.185950756072998L120,55.91878023147582L120.5,158.8478893518448L121,118.2299285888672L121.50000000000001,138.21551070213317L122,73.46907119750976L122.5,88.56021108627318L122.99999999999999,66.86983823776245L123.5,118.7625612258911L124,102.51444683074952L124.5,119.10975823402406L125,171.73406406641007L125.5,175.12223545387388L126,175.84764600768685L126.5,173.0859729140997L127,169.5314394146204L127.5,163.52602341771126L128,162.31609624028206L128.5,169.42601357102393L129,173.77903657257556L129.5,174.1696405917406L130,172.427485370636L130.5,168.7331804305315L131,163.8642993271351L131.5,162.41634255051613L132,165.69127408862113L132.5,168.30023073256015L133,168.0278581738472L133.5,166.16971548199655L134,164.8877896785736L134.5,164.8803350329399L135,165.08939638137818L135.5,164.7026874303818L136,164.05047662258147L136.5,163.8244571685791L137,164.00784398317336L137.5,164.06231058239936L138,163.75804688930512L138.5,163.34972727298737L139,163.12764086723328L139.5,163.07365534901618L140,163.0012315571308L140.5,162.84182494282723L141,162.6790887415409L141.5,162.58509648442268L142,162.52777715921403L142.5,162.44004950523376L143,162.31255987286568L143.5,162.19269896149635L144,162.1155160546303L144.5,162.06599214076996L145,162.0085894703865L145.5,161.9340757191181L146,161.86568098068238L146.5,161.827355915308L147,161.81853504180907L147.5,161.8234977722168L148,161.83472405076026L148.5,161.8614620268345L149,161.91702688336372L149.5,162.00433886647224L150,162.10929048657417L150.5,162.1988443493843L151,162.2313669025898L151.5,162.18943372964858L152,162.1000433921814L152.5,162.00824659466744L153,161.9392125248909L153.5,161.89187035560607L154,161.85533457398415L154.5,161.82501803040503L155.00000000000003,161.80289779901506L155.5,161.79003837704659L156,161.7825278162956L156.49999999999997,161.77438108921052L157,161.76268322467803L157.5,161.7492509365082L157.99999999999997,161.73734629154205L158.5,161.72765293121338L159,161.7175892651081L159.5,161.7044228374958L160,161.6871630012989L160.5,161.66670439839362L161,161.64543027877806L161.5,161.62509194612502L162,161.60696278810502L162.5,161.59122954010962L163,161.57712205052377L163.5,161.56335638165473L164,161.54736782312392L164.5,161.52717930078506L165,161.50257137417793L165.5,161.47567725777625L166,161.44968094825745L166.50000000000003,161.42740985155106L167,161.4103557407856L167.5,161.3992950975895L168.00000000000003,161.39457290768624L168.5,161.39637801647186L169,161.40432640314103L169.49999999999997,161.4176827311516L170,161.43578551411628L170.5,161.45812307596208L170.99999999999997,161.48483362197877L171.5,161.51747644543647L172,161.55754859447478L172.5,161.6057410955429L173,161.66135659217835L173.5,161.72283157110215L174,161.7886658191681L174.5,161.85776846408845L175,161.93048871159553L175.5,162.007519698143L176,162.08892155885695L176.5,162.17366250157357L177,162.26001232266427L177.5,162.3460023880005L178,162.43011982440947L178.5,162.5115870952606L179,162.59010457992554L179.50000000000003,162.6656691133976L180,162.73759177923202L180.5,162.80506550073625L181.00000000000003,162.867414021492L181.5,162.92448647618295L182,162.97683041095735L182.49999999999997,163.02514951229097L183,163.06941424012183L183.5,163.10917410850524L184,163.14366635084153L184.5,163.1718834400177L185,163.19223654270172L185.5,163.20269899964333L186,163.20044129490853L186.5,163.1797685265541L187,163.1309282541275L187.5,163.03654775619506L188,162.86539474725723L188.5,162.55680871009827L189,161.98698935508727L189.5,160.91779947280884L190,159.14972548484803L190.5,157.96194702386856L191,160.95881584882736L191.5,165.4441229403019L192,166.77488057613374L192.50000000000003,165.8739350616932L193,164.83417130112647L193.5,164.76037073135376L193.99999999999997,165.29367118477822L194.5,165.43034777641296L195,165.01374533772469L195.49999999999997,164.8656008720398L196,165.15503017902375L196.5,165.2162403523922L197,164.58004764318466L197.5,163.8976173520088L198,164.0262685418129L198.5,164.64743696451188L199,164.75993396043776L199.5,164.25446763038636L200,163.85660519599915L200.5,164.15896039009095L201,164.64857425689698L201.5,164.57089022397994L202,163.92388690710067L202.5,163.3793053150177L203,163.56017067432404L203.5,164.17792194485665L204.00000000000003,164.4991405785084L204.5,164.274873483181L205,163.77677528858186L205.50000000000003,163.90843534469604L206,165.84200963973998L206.5,165.54191426038741L206.99999999999997,156.06102926731108L207.5,149.88537125587465L208,144.48991270065306L208.49999999999997,123.95653545856476L209,-48.51923103332521L209.5,53.1256998538971L210,60.51014986038207L210.5,-209.82231731414797L217.5,-42.40666637420655L218,9.675129890441895L218.50000000000003,73.76701226234435L219,108.56172795295716L219.5,118.34475502967835L219.99999999999997,131.0780240535736L220.5,144.5978879570961L221,147.1248398065567L221.5,140.9909767627716L222,125.44363281726838L222.5,113.14409630298614L223,141.07285759449005L223.5,147.10740906000137L224,151.1243320941925L224.5,150.93682233095168L225,148.23513679504396L225.5,149.30718995332717L226,144.6177747488022L226.5,135.30128231048585L227,128.23103306293487L227.5,125.58527741432191L228,125.09289944171906L228.5,123.26663575172425L229,121.99723598957063L229.5,125.26854887008666L230.00000000000003,105.58985424041748L230.5,115.29920840263367L231,129.4223035812378L231.49999999999997,138.0528378009796L232,144.56046491861343L232.5,144.97278299331666L232.99999999999997,142.52311005592347L233.5,140.01091346740722L234,136.81271646022796L234.5,135.38247950077056L235,135.08834066390992L235.5,135.6063045501709L236,140.3114034175873L236.5,146.34295234680175L237,148.94745740890502L237.5,150.60332136154176L238,151.21961145401002L238.5,149.0011654615402L239,148.3331929206848L239.5,147.62418290376664L240,147.97643548250198L240.5,148.19751119613647L241,148.59213688373566L241.50000000000003,149.19762375354767L242,150.47949364185334L242.5,151.00586800575257L243.00000000000003,151.42920241355895L243.5,151.93316009044648L244,151.44526376724244L244.49999999999997,151.19462267160415L245,151.3745532989502L245.5,151.16519021987915L245.99999999999997,152.4322499871254L246.5,151.94476089477538L247,151.9085743188858L247.5,152.21925770044328L248,152.42640949487685L248.5,152.89786888360976L249,152.60586326122285L249.5,151.3093288421631L250,150.53355617523192L250.5,150.6208048582077L251,152.23671798706056L251.5,152.59368431568146L252,152.3537008523941L252.5,153.48819115161896L253,154.85876351594925L253.5,154.26023333072663L254,154.0026819705963L254.50000000000003,153.94424117803572L255,153.78605836629868L255.5,152.8683794617653L256,152.3516119480133L256.5,153.08351762294768L257,154.5639937877655L257.5,154.95799069404603L258,155.90827338695527L258.5,155.88232877254487L259,155.64380965232849L259.5,154.77711267471312L260,153.31292363405228L260.5,154.13540546894075L261,155.15391093492508L261.5,155.841504406929L262,155.46108326911926L262.5,155.28118640184402L263,155.71999558210373L263.5,157.8398178577423L264,157.31771836280822L264.5,157.61373510360718L265,155.46174159049988L265.5,151.41219577789306L266,146.76928718090056L266.5,151.79622713327407L267,154.6959661245346L267.5,155.6565456390381L268,159.17315497398377L268.5,160.95214295983314L269,161.1060625076294L269.5,160.73416789770127L270,160.35016291737557L270.5,160.0516088962555L271,158.7228673696518L271.5,157.34938530921937L272,156.5533101797104L272.5,156.8454571723938L273,157.26064274311065L273.5,154.61854795217513L274,153.09436937570572L274.5,155.0127685189247" style="fill: none;" fill="none"></path></g></g></g></g></g></g><g transform="translate(30, 177)" clip-path="url(#clip_1)"><clipPath id="clip_1"><rect width="300" height="23"></rect></clipPath><g><g><line x1="0" y1="0" x2="0" y2="5" style="visibility: inherit;" fill="rgb(0, 0, 0)" stroke="rgb(204, 204, 204)" stroke-width="1px"></line><line x1="25" y1="0" x2="25" y2="5" style="visibility: inherit;" fill="rgb(0, 0, 0)" stroke="rgb(204, 204, 204)" stroke-width="1px"></line><line x1="50" y1="0" x2="50" y2="5" style="visibility: inherit;" fill="rgb(0, 0, 0)" stroke="rgb(204, 204, 204)" stroke-width="1px"></line><line x1="75" y1="0" x2="75" y2="5" style="visibility: inherit;" fill="rgb(0, 0, 0)" stroke="rgb(204, 204, 204)" stroke-width="1px"></line><line x1="100" y1="0" x2="100" y2="5" style="visibility: inherit;" fill="rgb(0, 0, 0)" stroke="rgb(204, 204, 204)" stroke-width="1px"></line><line x1="125" y1="0" x2="125" y2="5" style="visibility: inherit;" fill="rgb(0, 0, 0)" stroke="rgb(204, 204, 204)" stroke-width="1px"></line><line x1="150" y1="0" x2="150" y2="5" style="visibility: inherit;" fill="rgb(0, 0, 0)" stroke="rgb(204, 204, 204)" stroke-width="1px"></line><line x1="175" y1="0" x2="175" y2="5" style="visibility: inherit;" fill="rgb(0, 0, 0)" stroke="rgb(204, 204, 204)" stroke-width="1px"></line><line x1="200" y1="0" x2="200" y2="5" style="visibility: inherit;" fill="rgb(0, 0, 0)" stroke="rgb(204, 204, 204)" stroke-width="1px"></line><line x1="225" y1="0" x2="225" y2="5" style="visibility: inherit;" fill="rgb(0, 0, 0)" stroke="rgb(204, 204, 204)" stroke-width="1px"></line><line x1="250" y1="0" x2="250" y2="5" style="visibility: inherit;" fill="rgb(0, 0, 0)" stroke="rgb(204, 204, 204)" stroke-width="1px"></line><line x1="275" y1="0" x2="275" y2="5" style="visibility: inherit;" fill="rgb(0, 0, 0)" stroke="rgb(204, 204, 204)" stroke-width="1px"></line><line x1="300" y1="0" x2="300" y2="5" style="visibility: inherit;" fill="rgb(0, 0, 0)" stroke="rgb(204, 204, 204)" stroke-width="1px"></line></g><g transform="translate(0, 8)"><text x="0" y="0" dx="0em" dy="0.95em" style="text-anchor: middle; visibility: hidden; font-family: Roboto, sans-serif; font-size: 12px; font-weight: 200;" fill="rgb(33, 33, 33)" stroke="none" stroke-width="1px">-50</text><text x="25" y="0" dx="0em" dy="0.95em" style="text-anchor: middle; visibility: inherit; font-family: Roboto, sans-serif; font-size: 12px; font-weight: 200;" fill="rgb(33, 33, 33)" stroke="none" stroke-width="1px">0</text><text x="50" y="0" dx="0em" dy="0.95em" style="text-anchor: middle; visibility: inherit; font-family: Roboto, sans-serif; font-size: 12px; font-weight: 200;" fill="rgb(33, 33, 33)" stroke="none" stroke-width="1px">50</text><text x="75" y="0" dx="0em" dy="0.95em" style="text-anchor: middle; visibility: inherit; font-family: Roboto, sans-serif; font-size: 12px; font-weight: 200;" fill="rgb(33, 33, 33)" stroke="none" stroke-width="1px">100</text><text x="100" y="0" dx="0em" dy="0.95em" style="text-anchor: middle; visibility: inherit; font-family: Roboto, sans-serif; font-size: 12px; font-weight: 200;" fill="rgb(33, 33, 33)" stroke="none" stroke-width="1px">150</text><text x="125" y="0" dx="0em" dy="0.95em" style="text-anchor: middle; visibility: inherit; font-family: Roboto, sans-serif; font-size: 12px; font-weight: 200;" fill="rgb(33, 33, 33)" stroke="none" stroke-width="1px">200</text><text x="150" y="0" dx="0em" dy="0.95em" style="text-anchor: middle; visibility: inherit; font-family: Roboto, sans-serif; font-size: 12px; font-weight: 200;" fill="rgb(33, 33, 33)" stroke="none" stroke-width="1px">250</text><text x="175" y="0" dx="0em" dy="0.95em" style="text-anchor: middle; visibility: inherit; font-family: Roboto, sans-serif; font-size: 12px; font-weight: 200;" fill="rgb(33, 33, 33)" stroke="none" stroke-width="1px">300</text><text x="200" y="0" dx="0em" dy="0.95em" style="text-anchor: middle; visibility: inherit; font-family: Roboto, sans-serif; font-size: 12px; font-weight: 200;" fill="rgb(33, 33, 33)" stroke="none" stroke-width="1px">350</text><text x="225" y="0" dx="0em" dy="0.95em" style="text-anchor: middle; visibility: inherit; font-family: Roboto, sans-serif; font-size: 12px; font-weight: 200;" fill="rgb(33, 33, 33)" stroke="none" stroke-width="1px">400</text><text x="250" y="0" dx="0em" dy="0.95em" style="text-anchor: middle; visibility: inherit; font-family: Roboto, sans-serif; font-size: 12px; font-weight: 200;" fill="rgb(33, 33, 33)" stroke="none" stroke-width="1px">450</text><text x="275" y="0" dx="0em" dy="0.95em" style="text-anchor: middle; visibility: inherit; font-family: Roboto, sans-serif; font-size: 12px; font-weight: 200;" fill="rgb(33, 33, 33)" stroke="none" stroke-width="1px">500</text><text x="300" y="0" dx="0em" dy="0.95em" style="text-anchor: middle; visibility: hidden; font-family: Roboto, sans-serif; font-size: 12px; font-weight: 200;" fill="rgb(33, 33, 33)" stroke="none" stroke-width="1px">550</text></g><line x1="0" y1="0" x2="300" y2="0" fill="rgb(0, 0, 0)" stroke="rgb(204, 204, 204)" stroke-width="1px"></line></g></g></g></g></svg>