<svg viewBox="0 0 301 200" xmlns="http://www.w3.org/2000/svg"><g><g><g><g><g><line x1="51.5625" y1="177" x2="46.5625" y2="177" style="visibility: inherit;" fill="rgb(0, 0, 0)" stroke="rgb(204, 204, 204)" stroke-width="1px"></line><line x1="51.5625" y1="154.875" x2="46.5625" y2="154.875" style="visibility: inherit;" fill="rgb(0, 0, 0)" stroke="rgb(204, 204, 204)" stroke-width="1px"></line><line x1="51.5625" y1="132.75" x2="46.5625" y2="132.75" style="visibility: inherit;" fill="rgb(0, 0, 0)" stroke="rgb(204, 204, 204)" stroke-width="1px"></line><line x1="51.5625" y1="110.62499999999999" x2="46.5625" y2="110.62499999999999" style="visibility: inherit;" fill="rgb(0, 0, 0)" stroke="rgb(204, 204, 204)" stroke-width="1px"></line><line x1="51.5625" y1="88.49999999999999" x2="46.5625" y2="88.49999999999999" style="visibility: inherit;" fill="rgb(0, 0, 0)" stroke="rgb(204, 204, 204)" stroke-width="1px"></line><line x1="51.5625" y1="66.375" x2="46.5625" y2="66.375" style="visibility: inherit;" fill="rgb(0, 0, 0)" stroke="rgb(204, 204, 204)" stroke-width="1px"></line><line x1="51.5625" y1="44.25" x2="46.5625" y2="44.25" style="visibility: inherit;" fill="rgb(0, 0, 0)" stroke="rgb(204, 204, 204)" stroke-width="1px"></line><line x1="51.5625" y1="22.125" x2="46.5625" y2="22.125" style="visibility: inherit;" fill="rgb(0, 0, 0)" stroke="rgb(204, 204, 204)" stroke-width="1px"></line><line x1="51.5625" y1="0" x2="46.5625" y2="0" style="visibility: inherit;" fill="rgb(0, 0, 0)" stroke="rgb(204, 204, 204)" stroke-width="1px"></line></g><g transform="translate(41.5625, 0)"><text x="0" y="177" dx="0em" dy="0.3em" style="text-anchor: end; visibility: hidden; font-family: Roboto, sans-serif; font-size: 12px; font-weight: 200;" fill="rgb(33, 33, 33)" stroke="none" stroke-width="1px">-0.2</text><text x="0" y="154.875" dx="0em" dy="0.3em" style="text-anchor: end; visibility: inherit; font-family: Roboto, sans-serif; font-size: 12px; font-weight: 200;" fill="rgb(33, 33, 33)" stroke="none" stroke-width="1px">0</text><text x="0" y="132.75" dx="0em" dy="0.3em" style="text-anchor: end; visibility: hidden; font-family: Roboto, sans-serif; font-size: 12px; font-weight: 200;" fill="rgb(33, 33, 33)" stroke="none" stroke-width="1px">0.2</text><text x="0" y="110.62499999999999" dx="0em" dy="0.3em" style="text-anchor: end; visibility: inherit; font-family: Roboto, sans-serif; font-size: 12px; font-weight: 200;" fill="rgb(33, 33, 33)" stroke="none" stroke-width="1px">0.4</text><text x="0" y="88.49999999999999" dx="0em" dy="0.3em" style="text-anchor: end; visibility: hidden; font-family: Roboto, sans-serif; font-size: 12px; font-weight: 200;" fill="rgb(33, 33, 33)" stroke="none" stroke-width="1px">0.6</text><text x="0" y="66.375" dx="0em" dy="0.3em" style="text-anchor: end; visibility: inherit; font-family: Roboto, sans-serif; font-size: 12px; font-weight: 200;" fill="rgb(33, 33, 33)" stroke="none" stroke-width="1px">0.8</text><text x="0" y="44.25" dx="0em" dy="0.3em" style="text-anchor: end; visibility: hidden; font-family: Roboto, sans-serif; font-size: 12px; font-weight: 200;" fill="rgb(33, 33, 33)" stroke="none" stroke-width="1px">1</text><text x="0" y="22.125" dx="0em" dy="0.3em" style="text-anchor: end; visibility: inherit; font-family: Roboto, sans-serif; font-size: 12px; font-weight: 200;" fill="rgb(33, 33, 33)" stroke="none" stroke-width="1px">1.2</text><text x="0" y="0" dx="0em" dy="0.3em" style="text-anchor: end; visibility: hidden; font-family: Roboto, sans-serif; font-size: 12px; font-weight: 200;" fill="rgb(33, 33, 33)" stroke="none" stroke-width="1px">1.4</text></g><line x1="51.5625" y1="0" x2="51.5625" y2="177" fill="rgb(0, 0, 0)" stroke="rgb(204, 204, 204)" stroke-width="1px"></line></g></g><g transform="translate(51, 0)" clip-path="url(#clip_0)"><clipPath id="clip_0"><rect width="278" height="177"></rect></clipPath><g><g><g><line x1="0" y1="0" x2="0" y2="177" fill="rgb(0, 0, 0)" stroke="rgb(66, 66, 66)" stroke-width="1px" opacity="0.25"></line><line x1="23.203125" y1="0" x2="23.203125" y2="177" fill="rgb(0, 0, 0)" stroke="rgb(66, 66, 66)" stroke-width="1px" opacity="0.25"></line><line x1="46.40625" y1="0" x2="46.40625" y2="177" fill="rgb(0, 0, 0)" stroke="rgb(66, 66, 66)" stroke-width="1px" opacity="0.25"></line><line x1="69.609375" y1="0" x2="69.609375" y2="177" fill="rgb(0, 0, 0)" stroke="rgb(66, 66, 66)" stroke-width="1px" opacity="0.25"></line><line x1="92.8125" y1="0" x2="92.8125" y2="177" fill="rgb(0, 0, 0)" stroke="rgb(66, 66, 66)" stroke-width="1px" opacity="0.25"></line><line x1="116.015625" y1="0" x2="116.015625" y2="177" fill="rgb(0, 0, 0)" stroke="rgb(66, 66, 66)" stroke-width="1px" opacity="0.25"></line><line x1="139.21875" y1="0" x2="139.21875" y2="177" fill="rgb(0, 0, 0)" stroke="rgb(66, 66, 66)" stroke-width="1px" opacity="0.25"></line><line x1="162.421875" y1="0" x2="162.421875" y2="177" fill="rgb(0, 0, 0)" stroke="rgb(66, 66, 66)" stroke-width="1px" opacity="0.25"></line><line x1="185.625" y1="0" x2="185.625" y2="177" fill="rgb(0, 0, 0)" stroke="rgb(66, 66, 66)" stroke-width="1px" opacity="0.25"></line><line x1="208.828125" y1="0" x2="208.828125" y2="177" fill="rgb(0, 0, 0)" stroke="rgb(66, 66, 66)" stroke-width="1px" opacity="0.25"></line><line x1="232.03125" y1="0" x2="232.03125" y2="177" fill="rgb(0, 0, 0)" stroke="rgb(66, 66, 66)" stroke-width="1px" opacity="0.25"></line><line x1="255.234375" y1="0" x2="255.234375" y2="177" fill="rgb(0, 0, 0)" stroke="rgb(66, 66, 66)" stroke-width="1px" opacity="0.25"></line><line x1="278.4375" y1="0" x2="278.4375" y2="177" fill="rgb(0, 0, 0)" stroke="rgb(66, 66, 66)" stroke-width="1px" opacity="0.25"></line></g><g><line x1="0" y1="177" x2="278.4375" y2="177" fill="rgb(0, 0, 0)" stroke="rgb(66, 66, 66)" stroke-width="1px" opacity="0.25"></line><line x1="0" y1="154.875" x2="278.4375" y2="154.875" fill="rgb(0, 0, 0)" stroke="rgb(66, 66, 66)" stroke-width="1px" opacity="0.25"></line><line x1="0" y1="132.75" x2="278.4375" y2="132.75" fill="rgb(0, 0, 0)" stroke="rgb(66, 66, 66)" stroke-width="1px" opacity="0.25"></line><line x1="0" y1="110.62499999999999" x2="278.4375" y2="110.62499999999999" fill="rgb(0, 0, 0)" stroke="rgb(66, 66, 66)" stroke-width="1px" opacity="0.25"></line><line x1="0" y1="88.49999999999999" x2="278.4375" y2="88.49999999999999" fill="rgb(0, 0, 0)" stroke="rgb(66, 66, 66)" stroke-width="1px" opacity="0.25"></line><line x1="0" y1="66.375" x2="278.4375" y2="66.375" fill="rgb(0, 0, 0)" stroke="rgb(66, 66, 66)" stroke-width="1px" opacity="0.25"></line><line x1="0" y1="44.25" x2="278.4375" y2="44.25" fill="rgb(0, 0, 0)" stroke="rgb(66, 66, 66)" stroke-width="1px" opacity="0.25"></line><line x1="0" y1="22.125" x2="278.4375" y2="22.125" fill="rgb(0, 0, 0)" stroke="rgb(66, 66, 66)" stroke-width="1px" opacity="0.25"></line><line x1="0" y1="0" x2="278.4375" y2="0" fill="rgb(0, 0, 0)" stroke="rgb(66, 66, 66)" stroke-width="1px" opacity="0.25"></line></g></g></g><g><g><line x1="0" y1="154.875" x2="278.4375" y2="154.875" fill="rgb(0, 0, 0)" stroke="rgb(153, 153, 153)" stroke-width="1.5px"></line></g></g><g><g><line x1="23.203125" y1="0" x2="23.203125" y2="177" fill="rgb(0, 0, 0)" stroke="rgb(153, 153, 153)" stroke-width="1.5px"></line></g></g><g><g><g><g><g><path stroke="rgb(204, 51, 17)" stroke-width="2px" d="M25.059375,-185.07277143001565L25.523437499999996,96.16035524010658L25.9875,123.74634868651628L26.4515625,126.76351984217763L26.915625,136.36519058793783L27.3796875,123.64897198230028L27.84375,101.61997190862894L28.3078125,112.06706538051367L28.771875,117.86281894147396L29.2359375,127.98477391898632L29.700000000000003,148.8455313043669L30.1640625,143.07337352726609L30.628125,29.121611148118973L31.092187499999998,-64.8309910744429L31.55625,44.25163525342941L32.0203125,90.8700202703476L32.484375,-28.219196543097496L33.8765625,-124.38387465476994L34.340625,1.249375820159912L34.8046875,22.35203120112419L35.268750000000004,94.53656177222729L35.7328125,126.95799960941076L36.196875,83.15656281262636L36.660937499999996,68.58631628751755L37.125,141.77505153883249L37.589062500000004,151.37121855234727L38.053124999999994,132.4553424976766L38.5171875,72.80430085211992L38.98125,45.606818564236164L39.4453125,124.75059210509062L39.909375000000004,138.8798905648291L40.373437499999994,85.7818500995636L40.8375,25.958767265081406L41.3015625,116.74894101172686L41.765625,145.37690162379295L42.229687500000004,112.99486070126295L42.693749999999994,33.76290875673294L43.1578125,62.44038771092892L43.621875,142.948814031668L44.0859375,153.2850755030522L44.550000000000004,143.90182308107615L45.014062499999994,97.61687810719013L45.478125,15.529978081583977L45.9421875,68.91363072395325L46.40625,142.75332789123058L46.8703125,143.44930460862815L47.334375,96.06907117366791L47.7984375,23.613233596086502L48.2625,106.8824119605124L48.7265625,146.56766860932112L49.190625,129.46728940308094L49.6546875,62.017028510570526L50.11875,37.7658509016037L50.5828125,135.24512935616076L51.04687499999999,151.35253429831937L51.5109375,148.75333853485063L51.975,131.56778232380748L52.4390625,65.13712502270937L52.903125,115.49606654047966L53.36718750000001,149.11589334206656L53.83125,146.6596623295918L54.2953125,150.8325290651992L54.759375,147.720931914635L55.2234375,132.90855496376753L55.6875,52.94390398263931L56.1515625,88.45606970787048L56.615625,101.29699287191033L57.0796875,48.724739134311676L57.54375,91.3919958025217L58.0078125,100.42875242605805L58.471875,73.14980748295784L58.9359375,125.74116335436702L59.400000000000006,149.60012163687497L59.864062499999996,143.2406573155895L60.328125,104.03781938552856L60.7921875,62.460874535143375L61.25625,116.9529355801642L61.720312500000006,135.92610031552613L62.184374999999996,100.81112149357796L62.6484375,86.73402915894985L63.1125,122.64341970160604L63.5765625,126.47495695576072L64.040625,102.67054311186075L64.5046875,106.84975964203477L64.96875,123.06245668977499L65.4328125,119.12636212259531L65.896875,112.62489450350404L66.3609375,115.8466602601111L66.825,118.9183882176876L67.2890625,119.1297875829041L67.753125,118.82011476159096L68.2171875,117.81429543346167L68.68125,118.26905413717031L69.1453125,119.12925678491592L69.609375,119.53661951422691L70.0734375,119.4036562666297L70.53750000000001,119.33150400593877L71.0015625,119.28556195646524L71.465625,119.79352903738618L71.92968750000001,119.80486042052507L72.39375,120.27440893650055L72.8578125,119.94424599409103L73.32187499999999,120.44738973677158L73.7859375,120.0661910623312L74.25,120.71338546648622L74.7140625,120.40319173783064L75.17812500000001,120.78318375349045L75.6421875,120.77035228908062L76.10624999999999,120.37182850018144L76.5703125,121.22294164448977L77.034375,119.6195591725409L77.4984375,121.9071468450129L77.9625,119.0753164999187L78.4265625,122.97442334890366L78.890625,119.55622936785221L79.3546875,124.19728630408645L79.81875000000001,121.37166728451848L80.2828125,123.93725133687258L80.74687499999999,123.10273139923811L81.2109375,120.87644924595952L81.675,122.75097058340907L82.1390625,118.40385374799371L82.603125,122.47003997862339L83.0671875,120.07263976335526L83.53125,124.86356965452433L83.99531250000001,125.16108027845621L84.45937500000001,124.2497627735138L84.92343749999999,127.69327845610678L85.38749999999999,122.28287599235773L85.8515625,124.17858309298754L86.315625,121.53145396336913L86.7796875,120.2883415594697L87.24375,123.15950370579958L87.7078125,122.55989319831133L88.171875,128.1966117694974L88.63593750000001,127.64766279794276L89.10000000000001,126.37293494492769L89.56406249999999,129.0595986340195L90.02812499999999,124.50944827124476L90.4921875,124.56546888872981L90.95625,123.31279882416129L91.4203125,119.46390018984675L91.884375,123.87045650929213L92.3484375,123.20116310566664L92.8125,127.39486613497138L93.27656250000001,131.36971225216985L93.740625,128.19553039222956L94.20468749999999,132.52862394042313L94.66875,131.61161436885595L95.1328125,123.87888993322849L95.596875,126.85557867586613L96.0609375,119.73788756132126L96.525,113.7081707753241L96.9890625,117.47026580572128L97.453125,119.88454605638981L97.91718750000001,140.21808339469135L98.38125,144.24747230205685L98.84531249999999,135.19125665724277L99.309375,144.21738743036985L99.7734375,145.92485988233238L100.2375,133.63250737264752L100.70156250000001,145.93540660757571L101.165625,130.25644424557686L101.6296875,141.1512097734958L102.09374999999999,125.11030829697847L102.5578125,120.30610515922308L103.021875,57.605048820376396L103.48593749999999,44.681456342339516L103.95,49.84256672859192L104.4140625,118.63371565192938L104.878125,107.50026411563158L105.34218750000001,26.994251936674118L105.80625,113.13457596302032L106.2703125,143.73295678943396L106.73437500000001,149.05293979402632L107.1984375,149.76803925074637L107.6625,149.12917647929862L108.12656249999999,135.80521189793944L108.590625,90.85129398107529L109.0546875,62.38685953617096L109.51875,26.62777054309845L109.98281250000001,79.0187716037035L110.446875,70.17332974076271L110.91093749999999,-20.20377767086029L111.375,76.11233941465616L111.8390625,136.37850669398904L112.303125,110.18914495781064L112.7671875,111.02842888981104L113.23125,57.11256719380617L113.6953125,51.05091351270676L114.159375,64.07524551451206L114.62343750000001,90.74320900440216L115.0875,101.69106257334352L115.55156249999999,97.01091121137142L116.015625,149.12213598797098L116.4796875,152.46495830314234L116.94375,153.6162189587485L117.4078125,151.5557217488531L117.871875,147.71127946861088L118.3359375,141.84445749688894L118.80000000000001,139.6298652626574L119.26406250000001,146.03420344367623L119.72812499999999,151.04339103866369L120.19218749999999,151.7773779197596L120.65625,150.14100973214954L121.1203125,146.3589347731322L121.584375,141.1998940045014L122.0484375,139.17670060135424L122.5125,142.1457702498883L122.9765625,145.06348354462534L123.44062500000001,145.0448586344719L123.90468750000001,143.19183626398444L124.36874999999999,141.73999991454184L124.83281249999999,141.60181687865406L125.296875,141.80144390277565L125.7609375,141.4309947118163L126.225,140.7348350174725L126.6890625,140.42482591420412L127.153125,140.56175201386213L127.6171875,140.61056235060096L128.08125,140.28421554900706L128.5453125,139.81014865636826L129.009375,139.50531565770507L129.47343750000002,139.3863658066839L129.9375,139.26433666795492L130.4015625,139.04749250225723L130.865625,138.81469802185893L131.3296875,138.65503662452102L131.79375,138.54674229584634L132.2578125,138.41320209391415L132.721875,138.23194612003863L133.1859375,138.0516775622964L133.65,137.9194231443107L134.11406250000002,137.82560377568007L134.578125,137.72750835120678L135.04218749999998,137.60691005922854L135.50625,137.48741457425058L135.9703125,137.40086977556348L136.434375,137.35157644562423L136.8984375,137.32083467021585L137.3625,137.29549483582377L137.8265625,137.28313647396863L138.290625,137.298366419971L138.75468750000002,137.3441172502935L139.21875,137.40479801036417L139.6828125,137.44742834195495L140.146875,137.4273635186255L140.6109375,137.31631134822965L141.07500000000002,137.13350748829544L141.5390625,136.92938763834536L142.003125,136.74063620343804L142.46718750000002,136.57333263382316L142.93125,136.41885393485427L143.39531250000002,136.27602311968803L143.85937500000003,136.1535241752863L144.32343749999998,136.05702114477754L144.7875,135.97981476411223L145.25156249999998,135.90718115866184L145.715625,135.82750541344285L146.1796875,135.73863301612437L146.64374999999998,135.64471309259534L147.1078125,135.54888427443802L147.571875,135.45004210621119L148.0359375,135.34599416144192L148.5,135.23609589971602L148.9640625,135.12174684740603L149.428125,135.0058284793049L149.8921875,134.8906815815717L150.35625000000002,134.77830406464636L150.8203125,134.66960421949625L151.284375,134.56405289657414L151.74843750000002,134.4600082486868L152.21249999999998,134.35352225974202L152.6765625,134.24078043736517L153.140625,134.120409630239L153.60468749999998,133.99494349211454L154.06875,133.86961582303047L154.5328125,133.7501664943993L154.996875,133.6409902498126L155.4609375,133.54509054869413L155.925,133.4637119639665L156.3890625,133.3968528471887L156.853125,133.3430114686489L157.3171875,133.30027728527784L157.78125,133.2675985917449L158.2453125,133.24483032524586L158.709375,133.232691206038L159.1734375,133.23366873152554L159.63750000000002,133.24972289800644L160.1015625,133.28143560513854L160.565625,133.32770404592156L161.02968750000002,133.3863473329693L161.49374999999998,133.45530491508543L161.9578125,133.5330536328256L162.421875,133.6196297518909L162.88593749999998,133.7158426567912L163.35,133.82191983237863L163.8140625,133.93676012009382L164.278125,134.05831121094525L164.7421875,134.18393065407872L165.20625,134.3111243583262L165.6703125,134.43814332783222L166.134375,134.56381716951728L166.59843750000002,134.68760189786553L167.0625,134.8080798536539L167.5265625,134.92377073690295L167.99062500000002,135.033317880705L168.4546875,135.13612290099263L168.91875000000002,135.23280726000667L169.38281249999997,135.32431386597455L169.84687499999998,135.41076305508614L170.3109375,135.49152512289584L170.77499999999998,135.5654461607337L171.2390625,135.6311414781958L171.703125,135.68638238310814L172.16718749999998,135.72828245535493L172.63125,135.75303214788437L173.0953125,135.75331732816994L173.559375,135.71660819649696L174.0234375,135.62193823233247L174.4875,135.43516327813268L174.9515625,135.10068801417947L175.415625,134.53345618396997L175.87968750000002,133.64252824522555L176.34375,132.55892228521407L176.8078125,132.3676767591387L177.27187500000002,134.75006297416985L177.7359375,139.9254175387323L178.20000000000002,142.55589906312525L178.66406250000003,141.0057200230658L179.12812499999998,139.13367958925664L179.5921875,138.91833220794797L180.05624999999998,140.3171860165894L180.5203125,140.6621981151402L180.984375,139.690280623734L181.44843749999998,139.2404309771955L181.9125,139.94427570328116L182.3765625,140.32402374967933L182.840625,139.11194984056056L183.3046875,137.65260978788137L183.76875,137.90466135554016L184.2328125,139.12622369080782L184.696875,139.0760187730193L185.16093750000002,137.74923315458L185.625,137.08558236435056L186.0890625,137.75571647286415L186.55312500000002,138.63599383458495L187.01718749999998,138.30210541561246L187.48125,137.05433781445026L187.9453125,136.19427693262696L188.40937499999998,136.49204801023006L188.8734375,137.43395068868995L189.3375,137.84275415539742L189.8015625,137.25885164178908L190.265625,136.18467476405203L190.7296875,135.94309079647064L191.19375,138.42925296351314L191.6578125,143.08789958897978L192.121875,135.8809149004519L192.5859375,113.80040764063597L193.05,93.61776034533978L193.5140625,110.48524451628327L193.978125,-144.5808370113373L194.44218750000002,33.70174500346184L194.90625,8.033185109496117L195.3703125,-69.81056195497517L199.0828125,-223.55985876917848L199.546875,7.757789969444275L200.0109375,63.1626817882061L200.475,75.87889380007982L200.9390625,-14.792644947767258L201.40312500000002,31.926149904727936L201.8671875,40.54245847463608L202.33125,97.7052938863635L202.79531250000002,120.84306501969695L203.259375,129.48565962910652L203.72343750000002,135.41187904961407L204.18749999999997,141.3615335309878L204.65156249999998,145.67858280334622L205.115625,148.09630953194574L205.57968749999998,146.99666218087077L206.04375,116.13523963093758L206.5078125,106.02990093827248L206.97187499999998,110.77173366397619L207.4359375,119.47567335516214L207.9,142.53228020109236L208.3640625,143.40173389948905L208.828125,105.5028745830059L209.2921875,113.17461989074945L209.75625,141.33301220554858L210.2203125,145.2156437113881L210.68437500000002,142.71646627876908L211.1484375,137.29880160838366L211.6125,122.72103489562869L212.07656250000002,118.80209070816636L212.540625,119.95506306365132L213.00468750000002,121.0280102044344L213.46875000000003,97.14012260735035L213.93281249999998,115.42013275623322L214.396875,135.47225155122578L214.86093749999998,140.15098690241575L215.325,140.7348317205906L215.7890625,134.2448224145919L216.25312499999998,123.3680182993412L216.7171875,120.8069806471467L217.18125,136.62416395917535L217.6453125,143.35131633281708L218.109375,135.26040545850992L218.5734375,129.34705871343613L219.0375,137.28056325763464L219.5015625,146.03471610881388L219.96562500000002,148.4960651183501L220.4296875,147.39226658083498L220.89375,136.7579019740224L221.35781250000002,111.50025225430727L221.82187499999998,108.7243930734694L222.2859375,141.1691068969667L222.75,148.54474440403283L223.21406249999998,143.1776341209188L223.678125,142.12264839280397L224.1421875,144.1912909615785L224.60625,141.9046593848616L225.0703125,128.8665876276791L225.534375,122.82705272734165L225.9984375,139.17799792438745L226.4625,148.43827201472595L226.9265625,147.79616263881326L227.390625,136.24777708388865L227.8546875,113.91720957309008L228.31875,125.8920748271048L228.7828125,146.96109624300152L229.24687500000002,149.67891134507954L229.7109375,141.67966038174927L230.175,130.88773778825998L230.63906250000002,134.06411372311413L231.10312499999998,142.4904213398695L231.5671875,143.77400296926498L232.03125,136.80399732850492L232.49531249999998,124.47966424003243L232.959375,131.49433933384717L233.4234375,145.40290165878832L233.8875,149.26417884835973L234.3515625,147.7833740338683L234.815625,139.15152725949883L235.2796875,119.21075900271535L235.74375,120.45924532413483L236.20781250000002,146.335904404521L236.671875,150.26713648298755L237.1359375,142.83374048955739L237.60000000000002,125.20817293971777L238.0640625,131.9466451574117L238.52812500000002,147.92824232205749L238.99218749999997,149.57098709139973L239.45624999999998,141.59707184135914L239.9203125,124.21903583407402L240.38437499999998,131.59666630625725L240.8484375,148.34707490354776L241.3125,150.13054707739502L241.77656249999998,144.43331094179302L242.240625,119.94832094013691L242.7046875,115.92234677821398L243.16875,146.6019050795585L243.6328125,149.75801879027858L244.096875,146.42939820606261L244.5609375,138.1212615519762L245.025,126.67654809728265L245.48906250000002,137.49246045202017L245.953125,148.7832647440955L246.4171875,142.68137097079307L246.88125000000002,110.57780777290463L247.3453125,124.20070517063141L247.80937500000002,147.62831508368254L248.27343750000003,148.06090555340052L248.73749999999998,147.3274663668126L249.2015625,147.55525453202426L249.66562499999998,144.12853811122477L250.1296875,137.26134408451617L250.59375,136.79677715711296L251.05781249999998,145.3325115814805L251.521875,148.58582396479324L251.9859375,143.34720841795206L252.45,126.37120737880468L252.9140625,124.54749758541584L253.378125,147.9374422710389L253.8421875,150.04693815205246L254.30625,141.31970928702503L254.77031250000002,121.27968427911401" style="fill: none;" fill="none"></path></g></g></g></g></g></g><g transform="translate(51, 177)" clip-path="url(#clip_1)"><clipPath id="clip_1"><rect width="278" height="23"></rect></clipPath><g><g><line x1="0" y1="0" x2="0" y2="5" style="visibility: inherit;" fill="rgb(0, 0, 0)" stroke="rgb(204, 204, 204)" stroke-width="1px"></line><line x1="23.203125" y1="0" x2="23.203125" y2="5" style="visibility: inherit;" fill="rgb(0, 0, 0)" stroke="rgb(204, 204, 204)" stroke-width="1px"></line><line x1="46.40625" y1="0" x2="46.40625" y2="5" style="visibility: inherit;" fill="rgb(0, 0, 0)" stroke="rgb(204, 204, 204)" stroke-width="1px"></line><line x1="69.609375" y1="0" x2="69.609375" y2="5" style="visibility: inherit;" fill="rgb(0, 0, 0)" stroke="rgb(204, 204, 204)" stroke-width="1px"></line><line x1="92.8125" y1="0" x2="92.8125" y2="5" style="visibility: inherit;" fill="rgb(0, 0, 0)" stroke="rgb(204, 204, 204)" stroke-width="1px"></line><line x1="116.015625" y1="0" x2="116.015625" y2="5" style="visibility: inherit;" fill="rgb(0, 0, 0)" stroke="rgb(204, 204, 204)" stroke-width="1px"></line><line x1="139.21875" y1="0" x2="139.21875" y2="5" style="visibility: inherit;" fill="rgb(0, 0, 0)" stroke="rgb(204, 204, 204)" stroke-width="1px"></line><line x1="162.421875" y1="0" x2="162.421875" y2="5" style="visibility: inherit;" fill="rgb(0, 0, 0)" stroke="rgb(204, 204, 204)" stroke-width="1px"></line><line x1="185.625" y1="0" x2="185.625" y2="5" style="visibility: inherit;" fill="rgb(0, 0, 0)" stroke="rgb(204, 204, 204)" stroke-width="1px"></line><line x1="208.828125" y1="0" x2="208.828125" y2="5" style="visibility: inherit;" fill="rgb(0, 0, 0)" stroke="rgb(204, 204, 204)" stroke-width="1px"></line><line x1="232.03125" y1="0" x2="232.03125" y2="5" style="visibility: inherit;" fill="rgb(0, 0, 0)" stroke="rgb(204, 204, 204)" stroke-width="1px"></line><line x1="255.234375" y1="0" x2="255.234375" y2="5" style="visibility: inherit;" fill="rgb(0, 0, 0)" stroke="rgb(204, 204, 204)" stroke-width="1px"></line><line x1="278.4375" y1="0" x2="278.4375" y2="5" style="visibility: inherit;" fill="rgb(0, 0, 0)" stroke="rgb(204, 204, 204)" stroke-width="1px"></line></g><g transform="translate(0, 8)"><text x="0" y="0" dx="0em" dy="0.95em" style="text-anchor: middle; visibility: hidden; font-family: Roboto, sans-serif; font-size: 12px; font-weight: 200;" fill="rgb(33, 33, 33)" stroke="none" stroke-width="1px">-50</text><text x="23.203125" y="0" dx="0em" dy="0.95em" style="text-anchor: middle; visibility: inherit; font-family: Roboto, sans-serif; font-size: 12px; font-weight: 200;" fill="rgb(33, 33, 33)" stroke="none" stroke-width="1px">0</text><text x="46.40625" y="0" dx="0em" dy="0.95em" style="text-anchor: middle; visibility: hidden; font-family: Roboto, sans-serif; font-size: 12px; font-weight: 200;" fill="rgb(33, 33, 33)" stroke="none" stroke-width="1px">50</text><text x="69.609375" y="0" dx="0em" dy="0.95em" style="text-anchor: middle; visibility: inherit; font-family: Roboto, sans-serif; font-size: 12px; font-weight: 200;" fill="rgb(33, 33, 33)" stroke="none" stroke-width="1px">100</text><text x="92.8125" y="0" dx="0em" dy="0.95em" style="text-anchor: middle; visibility: hidden; font-family: Roboto, sans-serif; font-size: 12px; font-weight: 200;" fill="rgb(33, 33, 33)" stroke="none" stroke-width="1px">150</text><text x="116.015625" y="0" dx="0em" dy="0.95em" style="text-anchor: middle; visibility: inherit; font-family: Roboto, sans-serif; font-size: 12px; font-weight: 200;" fill="rgb(33, 33, 33)" stroke="none" stroke-width="1px">200</text><text x="139.21875" y="0" dx="0em" dy="0.95em" style="text-anchor: middle; visibility: hidden; font-family: Roboto, sans-serif; font-size: 12px; font-weight: 200;" fill="rgb(33, 33, 33)" stroke="none" stroke-width="1px">250</text><text x="162.421875" y="0" dx="0em" dy="0.95em" style="text-anchor: middle; visibility: inherit; font-family: Roboto, sans-serif; font-size: 12px; font-weight: 200;" fill="rgb(33, 33, 33)" stroke="none" stroke-width="1px">300</text><text x="185.625" y="0" dx="0em" dy="0.95em" style="text-anchor: middle; visibility: hidden; font-family: Roboto, sans-serif; font-size: 12px; font-weight: 200;" fill="rgb(33, 33, 33)" stroke="none" stroke-width="1px">350</text><text x="208.828125" y="0" dx="0em" dy="0.95em" style="text-anchor: middle; visibility: inherit; font-family: Roboto, sans-serif; font-size: 12px; font-weight: 200;" fill="rgb(33, 33, 33)" stroke="none" stroke-width="1px">400</text><text x="232.03125" y="0" dx="0em" dy="0.95em" style="text-anchor: middle; visibility: hidden; font-family: Roboto, sans-serif; font-size: 12px; font-weight: 200;" fill="rgb(33, 33, 33)" stroke="none" stroke-width="1px">450</text><text x="255.234375" y="0" dx="0em" dy="0.95em" style="text-anchor: middle; visibility: inherit; font-family: Roboto, sans-serif; font-size: 12px; font-weight: 200;" fill="rgb(33, 33, 33)" stroke="none" stroke-width="1px">500</text><text x="278.4375" y="0" dx="0em" dy="0.95em" style="text-anchor: middle; visibility: hidden; font-family: Roboto, sans-serif; font-size: 12px; font-weight: 200;" fill="rgb(33, 33, 33)" stroke="none" stroke-width="1px">550</text></g><line x1="0" y1="0" x2="278.4375" y2="0" fill="rgb(0, 0, 0)" stroke="rgb(204, 204, 204)" stroke-width="1px"></line></g></g></g></g></svg>