<svg viewBox="0 0 312 200" xmlns="http://www.w3.org/2000/svg"><g><g><g><g><g><line x1="30.78125" y1="177" x2="25.78125" y2="177" style="visibility: inherit;" fill="rgb(0, 0, 0)" stroke="rgb(204, 204, 204)" stroke-width="1px"></line><line x1="30.78125" y1="163.3846153846154" x2="25.78125" y2="163.3846153846154" style="visibility: inherit;" fill="rgb(0, 0, 0)" stroke="rgb(204, 204, 204)" stroke-width="1px"></line><line x1="30.78125" y1="149.76923076923077" x2="25.78125" y2="149.76923076923077" style="visibility: inherit;" fill="rgb(0, 0, 0)" stroke="rgb(204, 204, 204)" stroke-width="1px"></line><line x1="30.78125" y1="136.15384615384613" x2="25.78125" y2="136.15384615384613" style="visibility: inherit;" fill="rgb(0, 0, 0)" stroke="rgb(204, 204, 204)" stroke-width="1px"></line><line x1="30.78125" y1="122.53846153846153" x2="25.78125" y2="122.53846153846153" style="visibility: inherit;" fill="rgb(0, 0, 0)" stroke="rgb(204, 204, 204)" stroke-width="1px"></line><line x1="30.78125" y1="108.92307692307693" x2="25.78125" y2="108.92307692307693" style="visibility: inherit;" fill="rgb(0, 0, 0)" stroke="rgb(204, 204, 204)" stroke-width="1px"></line><line x1="30.78125" y1="95.3076923076923" x2="25.78125" y2="95.3076923076923" style="visibility: inherit;" fill="rgb(0, 0, 0)" stroke="rgb(204, 204, 204)" stroke-width="1px"></line><line x1="30.78125" y1="81.6923076923077" x2="25.78125" y2="81.6923076923077" style="visibility: inherit;" fill="rgb(0, 0, 0)" stroke="rgb(204, 204, 204)" stroke-width="1px"></line><line x1="30.78125" y1="68.07692307692307" x2="25.78125" y2="68.07692307692307" style="visibility: inherit;" fill="rgb(0, 0, 0)" stroke="rgb(204, 204, 204)" stroke-width="1px"></line><line x1="30.78125" y1="54.46153846153847" x2="25.78125" y2="54.46153846153847" style="visibility: inherit;" fill="rgb(0, 0, 0)" stroke="rgb(204, 204, 204)" stroke-width="1px"></line><line x1="30.78125" y1="40.84615384615384" x2="25.78125" y2="40.84615384615384" style="visibility: inherit;" fill="rgb(0, 0, 0)" stroke="rgb(204, 204, 204)" stroke-width="1px"></line><line x1="30.78125" y1="27.230769230769234" x2="25.78125" y2="27.230769230769234" style="visibility: inherit;" fill="rgb(0, 0, 0)" stroke="rgb(204, 204, 204)" stroke-width="1px"></line><line x1="30.78125" y1="13.615384615384606" x2="25.78125" y2="13.615384615384606" style="visibility: inherit;" fill="rgb(0, 0, 0)" stroke="rgb(204, 204, 204)" stroke-width="1px"></line><line x1="30.78125" y1="0" x2="25.78125" y2="0" style="visibility: inherit;" fill="rgb(0, 0, 0)" stroke="rgb(204, 204, 204)" stroke-width="1px"></line></g><g transform="translate(20.78125, 0)"><text x="0" y="177" dx="0em" dy="0.3em" style="text-anchor: end; visibility: hidden; font-family: Roboto, sans-serif; font-size: 12px; font-weight: 200;" fill="rgb(33, 33, 33)" stroke="none" stroke-width="1px">0</text><text x="0" y="163.3846153846154" dx="0em" dy="0.3em" style="text-anchor: end; visibility: inherit; font-family: Roboto, sans-serif; font-size: 12px; font-weight: 200;" fill="rgb(33, 33, 33)" stroke="none" stroke-width="1px">1</text><text x="0" y="149.76923076923077" dx="0em" dy="0.3em" style="text-anchor: end; visibility: hidden; font-family: Roboto, sans-serif; font-size: 12px; font-weight: 200;" fill="rgb(33, 33, 33)" stroke="none" stroke-width="1px">2</text><text x="0" y="136.15384615384613" dx="0em" dy="0.3em" style="text-anchor: end; visibility: inherit; font-family: Roboto, sans-serif; font-size: 12px; font-weight: 200;" fill="rgb(33, 33, 33)" stroke="none" stroke-width="1px">3</text><text x="0" y="122.53846153846153" dx="0em" dy="0.3em" style="text-anchor: end; visibility: hidden; font-family: Roboto, sans-serif; font-size: 12px; font-weight: 200;" fill="rgb(33, 33, 33)" stroke="none" stroke-width="1px">4</text><text x="0" y="108.92307692307693" dx="0em" dy="0.3em" style="text-anchor: end; visibility: inherit; font-family: Roboto, sans-serif; font-size: 12px; font-weight: 200;" fill="rgb(33, 33, 33)" stroke="none" stroke-width="1px">5</text><text x="0" y="95.3076923076923" dx="0em" dy="0.3em" style="text-anchor: end; visibility: hidden; font-family: Roboto, sans-serif; font-size: 12px; font-weight: 200;" fill="rgb(33, 33, 33)" stroke="none" stroke-width="1px">6</text><text x="0" y="81.6923076923077" dx="0em" dy="0.3em" style="text-anchor: end; visibility: inherit; font-family: Roboto, sans-serif; font-size: 12px; font-weight: 200;" fill="rgb(33, 33, 33)" stroke="none" stroke-width="1px">7</text><text x="0" y="68.07692307692307" dx="0em" dy="0.3em" style="text-anchor: end; visibility: hidden; font-family: Roboto, sans-serif; font-size: 12px; font-weight: 200;" fill="rgb(33, 33, 33)" stroke="none" stroke-width="1px">8</text><text x="0" y="54.46153846153847" dx="0em" dy="0.3em" style="text-anchor: end; visibility: inherit; font-family: Roboto, sans-serif; font-size: 12px; font-weight: 200;" fill="rgb(33, 33, 33)" stroke="none" stroke-width="1px">9</text><text x="0" y="40.84615384615384" dx="0em" dy="0.3em" style="text-anchor: end; visibility: hidden; font-family: Roboto, sans-serif; font-size: 12px; font-weight: 200;" fill="rgb(33, 33, 33)" stroke="none" stroke-width="1px">10</text><text x="0" y="27.230769230769234" dx="0em" dy="0.3em" style="text-anchor: end; visibility: inherit; font-family: Roboto, sans-serif; font-size: 12px; font-weight: 200;" fill="rgb(33, 33, 33)" stroke="none" stroke-width="1px">11</text><text x="0" y="13.615384615384606" dx="0em" dy="0.3em" style="text-anchor: end; visibility: hidden; font-family: Roboto, sans-serif; font-size: 12px; font-weight: 200;" fill="rgb(33, 33, 33)" stroke="none" stroke-width="1px">12</text><text x="0" y="0" dx="0em" dy="0.3em" style="text-anchor: end; visibility: hidden; font-family: Roboto, sans-serif; font-size: 12px; font-weight: 200;" fill="rgb(33, 33, 33)" stroke="none" stroke-width="1px">13</text></g><line x1="30.78125" y1="0" x2="30.78125" y2="177" fill="rgb(0, 0, 0)" stroke="rgb(204, 204, 204)" stroke-width="1px"></line></g></g><g transform="translate(30, 0)" clip-path="url(#clip_0)"><clipPath id="clip_0"><rect width="299" height="177"></rect></clipPath><g><g><g><line x1="0" y1="0" x2="0" y2="177" fill="rgb(0, 0, 0)" stroke="rgb(66, 66, 66)" stroke-width="1px" opacity="0.25"></line><line x1="24.934895833333332" y1="0" x2="24.934895833333332" y2="177" fill="rgb(0, 0, 0)" stroke="rgb(66, 66, 66)" stroke-width="1px" opacity="0.25"></line><line x1="49.869791666666664" y1="0" x2="49.869791666666664" y2="177" fill="rgb(0, 0, 0)" stroke="rgb(66, 66, 66)" stroke-width="1px" opacity="0.25"></line><line x1="74.8046875" y1="0" x2="74.8046875" y2="177" fill="rgb(0, 0, 0)" stroke="rgb(66, 66, 66)" stroke-width="1px" opacity="0.25"></line><line x1="99.73958333333333" y1="0" x2="99.73958333333333" y2="177" fill="rgb(0, 0, 0)" stroke="rgb(66, 66, 66)" stroke-width="1px" opacity="0.25"></line><line x1="124.67447916666667" y1="0" x2="124.67447916666667" y2="177" fill="rgb(0, 0, 0)" stroke="rgb(66, 66, 66)" stroke-width="1px" opacity="0.25"></line><line x1="149.609375" y1="0" x2="149.609375" y2="177" fill="rgb(0, 0, 0)" stroke="rgb(66, 66, 66)" stroke-width="1px" opacity="0.25"></line><line x1="174.54427083333334" y1="0" x2="174.54427083333334" y2="177" fill="rgb(0, 0, 0)" stroke="rgb(66, 66, 66)" stroke-width="1px" opacity="0.25"></line><line x1="199.47916666666666" y1="0" x2="199.47916666666666" y2="177" fill="rgb(0, 0, 0)" stroke="rgb(66, 66, 66)" stroke-width="1px" opacity="0.25"></line><line x1="224.4140625" y1="0" x2="224.4140625" y2="177" fill="rgb(0, 0, 0)" stroke="rgb(66, 66, 66)" stroke-width="1px" opacity="0.25"></line><line x1="249.34895833333334" y1="0" x2="249.34895833333334" y2="177" fill="rgb(0, 0, 0)" stroke="rgb(66, 66, 66)" stroke-width="1px" opacity="0.25"></line><line x1="274.28385416666663" y1="0" x2="274.28385416666663" y2="177" fill="rgb(0, 0, 0)" stroke="rgb(66, 66, 66)" stroke-width="1px" opacity="0.25"></line><line x1="299.21875" y1="0" x2="299.21875" y2="177" fill="rgb(0, 0, 0)" stroke="rgb(66, 66, 66)" stroke-width="1px" opacity="0.25"></line></g><g><line x1="0" y1="177" x2="299.21875" y2="177" fill="rgb(0, 0, 0)" stroke="rgb(66, 66, 66)" stroke-width="1px" opacity="0.25"></line><line x1="0" y1="163.3846153846154" x2="299.21875" y2="163.3846153846154" fill="rgb(0, 0, 0)" stroke="rgb(66, 66, 66)" stroke-width="1px" opacity="0.25"></line><line x1="0" y1="149.76923076923077" x2="299.21875" y2="149.76923076923077" fill="rgb(0, 0, 0)" stroke="rgb(66, 66, 66)" stroke-width="1px" opacity="0.25"></line><line x1="0" y1="136.15384615384613" x2="299.21875" y2="136.15384615384613" fill="rgb(0, 0, 0)" stroke="rgb(66, 66, 66)" stroke-width="1px" opacity="0.25"></line><line x1="0" y1="122.53846153846153" x2="299.21875" y2="122.53846153846153" fill="rgb(0, 0, 0)" stroke="rgb(66, 66, 66)" stroke-width="1px" opacity="0.25"></line><line x1="0" y1="108.92307692307693" x2="299.21875" y2="108.92307692307693" fill="rgb(0, 0, 0)" stroke="rgb(66, 66, 66)" stroke-width="1px" opacity="0.25"></line><line x1="0" y1="95.3076923076923" x2="299.21875" y2="95.3076923076923" fill="rgb(0, 0, 0)" stroke="rgb(66, 66, 66)" stroke-width="1px" opacity="0.25"></line><line x1="0" y1="81.6923076923077" x2="299.21875" y2="81.6923076923077" fill="rgb(0, 0, 0)" stroke="rgb(66, 66, 66)" stroke-width="1px" opacity="0.25"></line><line x1="0" y1="68.07692307692307" x2="299.21875" y2="68.07692307692307" fill="rgb(0, 0, 0)" stroke="rgb(66, 66, 66)" stroke-width="1px" opacity="0.25"></line><line x1="0" y1="54.46153846153847" x2="299.21875" y2="54.46153846153847" fill="rgb(0, 0, 0)" stroke="rgb(66, 66, 66)" stroke-width="1px" opacity="0.25"></line><line x1="0" y1="40.84615384615384" x2="299.21875" y2="40.84615384615384" fill="rgb(0, 0, 0)" stroke="rgb(66, 66, 66)" stroke-width="1px" opacity="0.25"></line><line x1="0" y1="27.230769230769234" x2="299.21875" y2="27.230769230769234" fill="rgb(0, 0, 0)" stroke="rgb(66, 66, 66)" stroke-width="1px" opacity="0.25"></line><line x1="0" y1="13.615384615384606" x2="299.21875" y2="13.615384615384606" fill="rgb(0, 0, 0)" stroke="rgb(66, 66, 66)" stroke-width="1px" opacity="0.25"></line><line x1="0" y1="0" x2="299.21875" y2="0" fill="rgb(0, 0, 0)" stroke="rgb(66, 66, 66)" stroke-width="1px" opacity="0.25"></line></g></g></g><g><g><line x1="0" y1="177" x2="299.21875" y2="177" fill="rgb(0, 0, 0)" stroke="rgb(153, 153, 153)" stroke-width="1.5px"></line></g></g><g><g><line x1="24.934895833333332" y1="0" x2="24.934895833333332" y2="177" fill="rgb(0, 0, 0)" stroke="rgb(153, 153, 153)" stroke-width="1.5px"></line></g></g><g><g><g><g><g><path stroke="rgb(204, 51, 17)" stroke-width="2px" d="M26.9296875,-433.2282899709848L27.428385416666664,87.59448997790997L27.927083333333336,143.5198521247277L28.42578125,144.82164045480582L28.924479166666664,157.28419169095847L29.423177083333332,147.84439384020294L29.921875,126.56474601305449L30.420572916666668,140.81585223858173L30.919270833333332,139.36866188049316L31.41796875,152.64079422217148L31.916666666666668,171.31458212091374L32.415364583333336,166.99606649692242L32.9140625,91.75417217841515L33.412760416666664,-28.526610594529355L33.91145833333333,70.77082091111404L34.41015625,126.14654962833112L34.908854166666664,31.26537036895752L35.407552083333336,13.769720077514648L35.90625,-117.65187307504507L36.40494791666667,-86.40578490037186L36.903645833333336,49.08555881793682L37.40234375,67.36588404728816L37.90104166666667,131.88869294753442L38.39973958333333,152.86453259908234L38.8984375,115.3405872124892L39.397135416666664,110.98372672154353L39.895833333333336,165.17659101577905L40.39453125,173.70401422908674L40.893229166666664,158.24618490842673L41.391927083333336,108.00982156166664L41.89062500000001,92.29533962103037L42.389322916666664,152.0467760379498L42.888020833333336,163.88505974182715L43.38671875,119.6920201228215L43.885416666666664,76.3881461070134L44.384114583333336,146.66122995890106L44.8828125,168.54043716650742L45.38151041666667,142.63417289807248L45.88020833333333,78.87293925652138L46.37890625,109.98636333759015L46.87760416666667,165.8959669975134L47.37630208333333,175.33371053578762L47.875,167.8996823842709L48.373697916666664,129.83450625492978L48.872395833333336,66.77609561039851L49.37109375,115.11098626943735L49.869791666666664,165.63246477567233L50.368489583333336,167.5245836514693L50.86718750000001,128.31088829040527L51.365885416666664,74.46155625123245L51.864583333333336,141.40676384705765L52.36328125,169.2641394688533L52.861979166666664,156.59401086660532L53.360677083333336,101.19634459568904L53.859375,92.81353723085844L54.35807291666667,160.590906225718L54.85677083333333,174.0832818437081L55.35546875,172.09576540726883L55.85416666666667,158.7193582699849L56.35286458333333,109.4176100217379L56.8515625,145.1143532532912L57.35026041666667,172.14022036011403L57.84895833333333,168.5627512748425L58.34765625,173.57905712952982L58.846354166666664,171.17648922938568L59.345052083333336,159.44032568197983L59.84375,99.08430158174956L60.342447916666664,125.32559235279376L60.841145833333336,136.86659915630634L61.33984374999999,99.20587679056021L61.838541666666664,126.46734820879423L62.337239583333336,135.8339889599727L62.8359375,114.03226760717538L63.334635416666664,154.18290881010202L63.833333333333336,172.59093313033765L64.33203125,167.90026912780908L64.83072916666667,138.23058392451358L65.32942708333333,111.0086052967952L65.828125,145.7853865990272L66.32682291666667,161.89838994466342L66.82552083333333,136.33306668354916L67.32421875,127.08474199588483L67.82291666666666,151.08660391660837L68.32161458333333,154.99702480206122L68.8203125,138.16911462637094L69.31901041666667,140.75824587161725L69.81770833333333,152.41446216289813L70.31640625,149.70778094805206L70.81510416666667,145.3694105881911L71.31380208333334,147.5042156806359L71.8125,149.75014983690704L72.31119791666667,149.86805201493775L72.80989583333334,149.87379122697388L73.30859375,149.0340532889733L73.80729166666667,149.5048634455754L74.30598958333333,149.96510410308838L74.8046875,150.45999103326065L75.30338541666666,150.2025704934047L75.80208333333334,150.43371498584747L76.30078125,150.12119573813217L76.79947916666666,150.86723324885736L77.29817708333334,150.4408679008484L77.796875,151.37042223490204L78.29557291666666,150.46274864673615L78.79427083333333,151.7086121210685L79.29296875,150.39933165220114L79.79166666666667,152.14398556489212L80.29036458333333,150.44606825021597L80.7890625,152.44616741400498L81.28776041666667,150.56595220932593L81.78645833333333,152.3137013362004L82.28515625,150.9210205078125L82.78385416666667,151.70340041013864L83.28255208333333,151.73679528786587L83.78125000000001,150.8802032837501L84.27994791666667,153.1631599022792L84.77864583333333,150.38144043775705L85.27734374999999,154.90315395135147L85.77604166666667,150.79587776844318L86.27473958333333,155.3042333309467L86.7734375,152.016927590737L87.27213541666667,152.8534291065656L87.77083333333333,152.59998186735007L88.26953125,150.1214554309845L88.76822916666667,153.3274448468135L89.26692708333333,149.7791477900285L89.765625,155.81856314035562L90.26432291666667,153.35219032947833L90.76302083333334,154.82942552749927L91.26171875,156.88931085513187L91.76041666666666,152.1724479015057L92.25911458333334,155.43719120209033L92.7578125,151.1332025527954L93.25651041666666,152.19296525991882L93.75520833333334,152.90889138441818L94.25390625,151.9561302478497L94.75260416666666,157.70225822925568L95.25130208333334,155.61107342059796L95.75,156.04924667798556L96.24869791666666,158.44812044730554L96.74739583333333,153.599239386045L97.24609375,155.74670775120074L97.74479166666667,153.34746067340558L98.24348958333333,150.24998391591583L98.7421875,154.62028838120972L99.24088541666667,151.33775774332193L99.73958333333333,156.95393542143015L100.23828125,159.26208224663367L100.73697916666667,155.61082671238827L101.23567708333333,161.54245492128226L101.73437500000001,159.5954402226668L102.23307291666667,153.12161229206967L102.73177083333333,158.48731459104098L103.23046874999999,149.7686010140639L103.72916666666667,147.87999773025513L104.22786458333333,149.07882758287283L104.7265625,145.75253869937015L105.22526041666667,165.94499376186957L105.72395833333333,168.27805243547147L106.22265625,157.6142921447754L106.72135416666667,171.0473610162735L107.22005208333333,170.17123686350308L107.71875,155.88994783621567L108.21744791666667,171.24142542710672L108.71614583333334,147.79519178317142L109.21484375,167.84286158818466L109.71354166666666,142.3012953538161L110.21223958333334,155.3743926011599L110.7109375,77.38920362179095L111.20963541666666,102.56632177646344L111.70833333333334,67.83278582646297L112.20703125,131.13885905192447L112.70572916666666,108.98945441612831L113.20442708333334,27.071941082294163L113.703125,136.67001491326553L114.20182291666666,167.72822504777176L114.70052083333334,169.75597176185022L115.19921875,168.53095269661682L115.69791666666666,167.79507161103763L116.19661458333333,152.6363518513166L116.6953125,105.51062195117657L117.19401041666667,103.9839590879587L117.69270833333333,38.667941093444824L118.19140625,88.19857450631949L118.69010416666667,85.67272391686073L119.18880208333333,10.125138649573701L119.6875,69.80689947421735L120.18619791666667,158.20486290638263L120.68489583333333,124.69993059451764L121.18359375000001,136.77023363113403L121.68229166666667,80.75632271399864L122.18098958333333,86.1593104142409L122.67968749999999,68.17631402382484L123.17838541666667,116.35326598240779L123.67708333333333,109.28041428786057L124.17578125,121.80328405820406L124.67447916666667,171.23981208526172L125.17317708333333,174.9314145560448L125.671875,175.87721419964845L126.17057291666667,173.45897028537897L126.66927083333333,170.0545179110307L127.16796875,164.49157402148614L127.66666666666667,163.14455855809726L128.16536458333334,169.63301206552066L128.6640625,173.81748519493985L129.16276041666666,174.25357604026794L129.66145833333334,172.65549439650314L130.16015625,169.20031426961606L130.65885416666666,164.5958829017786L131.15755208333334,163.1053287065946L131.65625,166.08887009437268L132.15494791666666,168.60086931632114L132.65364583333334,168.432042993032L133.15234375,166.72650693930112L133.65104166666666,165.49989319764651L134.14973958333331,165.45515785767483L134.6484375,165.64539829125772L135.14713541666666,165.3039865906422L135.64583333333331,164.70807021397812L136.14453125,164.49090693547177L136.64322916666666,164.6533131645276L137.14192708333331,164.70508699233716L137.640625,164.4255536061067L138.13932291666666,164.0422656215154L138.63802083333334,163.82645355738126L139.13671875,163.76906630626092L139.63541666666666,163.69916267119922L140.13411458333334,163.54881024819153L140.6328125,163.3924792087995L141.13151041666666,163.299051459019L141.63020833333334,163.24184436981494L142.12890625,163.15832065618955L142.62760416666669,163.0371917944688L143.12630208333334,162.9213038591238L143.625,162.84469933693225L144.12369791666669,162.7951191021846L144.62239583333334,162.73921696956342L145.12109375,162.6668113561777L145.61979166666669,162.598818898201L146.11848958333334,162.55846262895145L146.6171875,162.54640151904178L147.11588541666666,162.54799863008353L147.61458333333334,162.55531547619748L148.11328125,162.57628242786114L148.61197916666666,162.62328845721024L149.11067708333334,162.6992551088333L149.609375,162.79115554002615L150.10807291666669,162.86846610215994L150.60677083333331,162.8919975207402L151.10546875,162.84372386565576L151.60416666666669,162.74729341727036L152.10286458333331,162.64521464934717L152.6015625,162.56265504543597L153.10026041666669,162.4997574366056L153.59895833333331,162.44663239442386L154.09765625,162.3994121184716L154.59635416666669,162.36118046137003L155.09505208333331,162.334190258613L155.59375,162.31496000289917L156.09244791666666,162.2967879955585L156.59114583333331,162.27534061211807L157.08984375,162.25113886136276L157.58854166666666,162.22689328743863L158.08723958333334,162.2034624998386L158.5859375,162.1787657095836L159.08463541666666,162.15049327336826L159.58333333333334,162.11790019732254L160.08203125,162.08197818352627L160.58072916666666,162.04505148300757L161.07942708333334,162.00883406859177L161.578125,161.97459031985355L162.07682291666666,161.94259291428787L162.57552083333334,161.9121763889606L163.07421875,161.88213317210858L163.57291666666666,161.84991827377905L164.07161458333334,161.81342331262735L164.5703125,161.77225550321432L165.06901041666666,161.7284079881815L165.56770833333334,161.68513504358438L166.06640625000003,161.6455124066426L166.56510416666666,161.61140337357153L167.06380208333334,161.58393436211807L167.56250000000003,161.56365721959335L168.06119791666666,161.55082676960873L168.55989583333334,161.54500802663657L169.05859374999997,161.54538782743307L169.55729166666666,161.55129259366257L170.05598958333334,161.56229870135968L170.55468749999997,161.57862851252924L171.05338541666666,161.60191646906046L171.55208333333334,161.63368826646072L172.05078125,161.6746483215919L172.54947916666666,161.72413279460025L173.04817708333334,161.78062410538013L173.546875,161.8426533662356L174.04557291666666,161.9091704441951L174.54427083333334,161.9804626244765L175.04296875,162.05721647005814L175.54166666666666,162.1395326119203L176.04036458333334,162.22642421722412L176.5390625,162.31622762863452L177.03776041666666,162.40698216511655L177.53645833333334,162.49709233870874L178.03515625,162.58563137054443L178.53385416666666,162.67210422112393L179.03255208333334,162.75631774388827L179.53125,162.8374052139429L180.02994791666669,162.9143927830916L180.52864583333334,162.98644943420703L181.02734375,163.05328788207126L181.52604166666669,163.11536258917587L182.02473958333331,163.17331304916968L182.5234375,163.22710517736581L183.02213541666669,163.27624555734488L183.52083333333331,163.31993887974667L184.01953125,163.35715286548322L184.51822916666669,163.3862749842497L185.01692708333331,163.4052301278481L185.515625,163.4111373286981L186.01432291666669,163.39830525563312L186.51302083333331,163.35694835736203L187.01171875,163.26981491308945L187.51041666666669,163.10629606246948L188.00911458333331,162.8084429685886L188.5078125,162.26242089271545L189.00651041666669,161.26228528756363L189.50520833333331,159.67192301383386L190.00390625,158.66623160472284L190.50260416666669,161.33841749338004L191.00130208333331,165.68517999007153L191.5,167.21620569320825L191.99869791666669,166.32622854984723L192.49739583333331,165.24542341782498L192.99609375,165.15516879008365L193.49479166666666,165.77740666041007L193.99348958333331,165.9389291222279L194.4921875,165.4777957705351L194.99088541666666,165.3006819990965L195.48958333333334,165.63542202802805L195.98828125,165.74117707289182L196.48697916666666,165.06445239598935L196.98567708333334,164.31382724872003L197.484375,164.45222081587863L197.98307291666666,165.11597545788837L198.48177083333334,165.18832182884216L198.98046875,164.58588959620548L199.47916666666666,164.17696830401053L199.97786458333334,164.5120524259714L200.4765625,165.01389993612582L200.97526041666666,164.89062779683334L201.47395833333334,164.19019316251462L201.97265625,163.62665642683322L202.47135416666666,163.7831018933883L202.97005208333334,164.36103940927066L203.46875000000003,164.63823069058932L203.96744791666666,164.34766360429617L204.46614583333334,163.7511174724652L204.96484375000003,163.70912757286658L205.46354166666666,165.32346355456573L205.96223958333334,165.6800210292523L206.46093749999997,157.2626842535459L206.95963541666666,149.4533403836764L207.45833333333334,141.54454388985266L207.95703124999997,128.06091119692874L208.45572916666666,-43.97129763089692L208.95442708333334,57.55049404731163L209.453125,54.68914626194881L209.95182291666666,-189.1347198486328L216.93359375,-41.10371721707856L217.43229166666669,21.353361643277672L217.93098958333334,88.6366763481727L218.4296875,115.17885699638954L218.92838541666669,127.24561522557185L219.42708333333331,137.30763552739072L219.92578125,147.38657806469845L220.42447916666669,151.4424772629371L220.92317708333331,147.08565572591928L221.421875,115.45907856867863L221.92057291666669,104.96650699468759L222.41927083333331,116.95577936906082L222.91796875,124.35003342995277L223.41666666666669,150.12501322306122L223.91536458333331,151.43827186180997L224.4140625,115.00932950239914L224.91276041666669,119.82982613490178L225.41145833333331,144.52689555975107L225.91015625,142.98325527631317L226.40885416666669,136.813962661303L226.90755208333331,131.1575049987206L227.40625,119.90533183171199L227.90494791666669,117.20835663722112L228.40364583333331,118.5576168207022L228.90234375,119.44685708559477L229.40104166666669,87.78021581356342L229.89973958333331,111.61848097581131L230.3984375,134.126284470925L230.89713541666666,142.0501626271468L231.39583333333331,145.28121889554535L231.89453125,139.44732609161963L232.39322916666666,128.09613853234512L232.89192708333334,122.83095684418312L233.390625,135.9569113254547L233.88932291666666,142.0352757343879L234.38802083333334,134.65121461794925L234.88671875,129.76842091633725L235.38541666666666,139.8054652580848L235.88411458333334,150.55206513404846L236.3828125,154.1906249339764L236.88151041666666,153.9700353328998L237.38020833333334,144.82796397575964L237.87890625,121.60050938679622L238.37760416666666,115.85648004825299L238.87630208333334,145.74952626228333L239.375,153.5431716992305L239.87369791666666,148.70261054772598L240.37239583333334,147.81437983879675L240.87109375000003,150.1332065325517L241.36979166666666,148.5934129494887L241.86848958333334,137.03132882485022L242.36718750000003,131.16952228546143L242.86588541666666,146.6849399163173L243.36458333333334,155.3575612581693L243.86328124999997,154.64087066283594L244.36197916666666,144.07092684965866L244.86067708333334,122.92282319068909L245.35937499999997,133.96427183884842L245.85807291666666,154.05613162884345L246.35677083333334,156.67228229229266L246.85546875,149.59351284687335L247.35416666666666,139.34119286903967L247.85286458333334,142.63650364142197L248.3515625,150.69561522740585L248.85026041666666,151.5122502400325L249.34895833333334,144.60081713016217L249.84765625,132.92512387495773L250.34635416666666,140.66013391201312L250.84505208333334,153.78830552101135L251.34375,156.81754960463596L251.84244791666666,156.15003672012915L252.34114583333334,149.23181588833148L252.83984375,131.2189288506141L253.33854166666666,130.9021717401651L253.83723958333334,154.84688337949606L254.3359375,158.282364991995L254.83463541666669,151.1813463614537L255.33333333333334,134.2773315723126L255.83203125,140.67572197547327L256.3307291666667,156.49136726672833L256.8294270833333,158.2496988773346L257.328125,151.644219655257L257.8268229166667,135.58047679754404L258.3255208333333,141.96768742341263L258.82421875,157.2753020800077L259.3229166666667,157.9515422674326L259.8216145833333,153.5263647024448L260.3203125,131.79124320470368L260.8190104166667,126.81622932507442L261.3177083333333,155.56897883231824L261.81640625,158.79502627482782L262.3151041666667,156.28286312176633L262.8138020833333,149.6489442861997L263.3125,138.23701132260834L263.8111979166667,148.37449187498825L264.3098958333333,158.17340111732483L264.80859375,150.94105905752915L265.3072916666667,119.30699300765991L265.8059895833333,134.1776030247028L266.3046875,155.78510983173663L266.8033854166667,157.63036713233362L267.3020833333333,159.12005784878363L267.80078125,160.2466249190844L268.29947916666663,157.22912382162534L268.7981770833333,150.6250501871109L269.296875,149.7054956509517L269.79557291666663,157.4266737974607L270.2942708333333,159.72853280947757L270.79296875,154.2517972084192L271.29166666666663,138.5592933984903L271.7903645833333,136.0360819376432L272.2890625,158.10331326264603L272.78776041666663,158.81510053231167L273.2864583333333,150.08775216799515L273.78515625,132.5529515559857" style="fill: none;" fill="none"></path></g></g></g></g></g></g><g transform="translate(30, 177)" clip-path="url(#clip_1)"><clipPath id="clip_1"><rect width="299" height="23"></rect></clipPath><g><g><line x1="0" y1="0" x2="0" y2="5" style="visibility: inherit;" fill="rgb(0, 0, 0)" stroke="rgb(204, 204, 204)" stroke-width="1px"></line><line x1="24.934895833333332" y1="0" x2="24.934895833333332" y2="5" style="visibility: inherit;" fill="rgb(0, 0, 0)" stroke="rgb(204, 204, 204)" stroke-width="1px"></line><line x1="49.869791666666664" y1="0" x2="49.869791666666664" y2="5" style="visibility: inherit;" fill="rgb(0, 0, 0)" stroke="rgb(204, 204, 204)" stroke-width="1px"></line><line x1="74.8046875" y1="0" x2="74.8046875" y2="5" style="visibility: inherit;" fill="rgb(0, 0, 0)" stroke="rgb(204, 204, 204)" stroke-width="1px"></line><line x1="99.73958333333333" y1="0" x2="99.73958333333333" y2="5" style="visibility: inherit;" fill="rgb(0, 0, 0)" stroke="rgb(204, 204, 204)" stroke-width="1px"></line><line x1="124.67447916666667" y1="0" x2="124.67447916666667" y2="5" style="visibility: inherit;" fill="rgb(0, 0, 0)" stroke="rgb(204, 204, 204)" stroke-width="1px"></line><line x1="149.609375" y1="0" x2="149.609375" y2="5" style="visibility: inherit;" fill="rgb(0, 0, 0)" stroke="rgb(204, 204, 204)" stroke-width="1px"></line><line x1="174.54427083333334" y1="0" x2="174.54427083333334" y2="5" style="visibility: inherit;" fill="rgb(0, 0, 0)" stroke="rgb(204, 204, 204)" stroke-width="1px"></line><line x1="199.47916666666666" y1="0" x2="199.47916666666666" y2="5" style="visibility: inherit;" fill="rgb(0, 0, 0)" stroke="rgb(204, 204, 204)" stroke-width="1px"></line><line x1="224.4140625" y1="0" x2="224.4140625" y2="5" style="visibility: inherit;" fill="rgb(0, 0, 0)" stroke="rgb(204, 204, 204)" stroke-width="1px"></line><line x1="249.34895833333334" y1="0" x2="249.34895833333334" y2="5" style="visibility: inherit;" fill="rgb(0, 0, 0)" stroke="rgb(204, 204, 204)" stroke-width="1px"></line><line x1="274.28385416666663" y1="0" x2="274.28385416666663" y2="5" style="visibility: inherit;" fill="rgb(0, 0, 0)" stroke="rgb(204, 204, 204)" stroke-width="1px"></line><line x1="299.21875" y1="0" x2="299.21875" y2="5" style="visibility: inherit;" fill="rgb(0, 0, 0)" stroke="rgb(204, 204, 204)" stroke-width="1px"></line></g><g transform="translate(0, 8)"><text x="0" y="0" dx="0em" dy="0.95em" style="text-anchor: middle; visibility: hidden; font-family: Roboto, sans-serif; font-size: 12px; font-weight: 200;" fill="rgb(33, 33, 33)" stroke="none" stroke-width="1px">-50</text><text x="24.934895833333332" y="0" dx="0em" dy="0.95em" style="text-anchor: middle; visibility: inherit; font-family: Roboto, sans-serif; font-size: 12px; font-weight: 200;" fill="rgb(33, 33, 33)" stroke="none" stroke-width="1px">0</text><text x="49.869791666666664" y="0" dx="0em" dy="0.95em" style="text-anchor: middle; visibility: inherit; font-family: Roboto, sans-serif; font-size: 12px; font-weight: 200;" fill="rgb(33, 33, 33)" stroke="none" stroke-width="1px">50</text><text x="74.8046875" y="0" dx="0em" dy="0.95em" style="text-anchor: middle; visibility: inherit; font-family: Roboto, sans-serif; font-size: 12px; font-weight: 200;" fill="rgb(33, 33, 33)" stroke="none" stroke-width="1px">100</text><text x="99.73958333333333" y="0" dx="0em" dy="0.95em" style="text-anchor: middle; visibility: inherit; font-family: Roboto, sans-serif; font-size: 12px; font-weight: 200;" fill="rgb(33, 33, 33)" stroke="none" stroke-width="1px">150</text><text x="124.67447916666667" y="0" dx="0em" dy="0.95em" style="text-anchor: middle; visibility: inherit; font-family: Roboto, sans-serif; font-size: 12px; font-weight: 200;" fill="rgb(33, 33, 33)" stroke="none" stroke-width="1px">200</text><text x="149.609375" y="0" dx="0em" dy="0.95em" style="text-anchor: middle; visibility: inherit; font-family: Roboto, sans-serif; font-size: 12px; font-weight: 200;" fill="rgb(33, 33, 33)" stroke="none" stroke-width="1px">250</text><text x="174.54427083333334" y="0" dx="0em" dy="0.95em" style="text-anchor: middle; visibility: inherit; font-family: Roboto, sans-serif; font-size: 12px; font-weight: 200;" fill="rgb(33, 33, 33)" stroke="none" stroke-width="1px">300</text><text x="199.47916666666666" y="0" dx="0em" dy="0.95em" style="text-anchor: middle; visibility: inherit; font-family: Roboto, sans-serif; font-size: 12px; font-weight: 200;" fill="rgb(33, 33, 33)" stroke="none" stroke-width="1px">350</text><text x="224.4140625" y="0" dx="0em" dy="0.95em" style="text-anchor: middle; visibility: inherit; font-family: Roboto, sans-serif; font-size: 12px; font-weight: 200;" fill="rgb(33, 33, 33)" stroke="none" stroke-width="1px">400</text><text x="249.34895833333334" y="0" dx="0em" dy="0.95em" style="text-anchor: middle; visibility: inherit; font-family: Roboto, sans-serif; font-size: 12px; font-weight: 200;" fill="rgb(33, 33, 33)" stroke="none" stroke-width="1px">450</text><text x="274.28385416666663" y="0" dx="0em" dy="0.95em" style="text-anchor: middle; visibility: inherit; font-family: Roboto, sans-serif; font-size: 12px; font-weight: 200;" fill="rgb(33, 33, 33)" stroke="none" stroke-width="1px">500</text><text x="299.21875" y="0" dx="0em" dy="0.95em" style="text-anchor: middle; visibility: hidden; font-family: Roboto, sans-serif; font-size: 12px; font-weight: 200;" fill="rgb(33, 33, 33)" stroke="none" stroke-width="1px">550</text></g><line x1="0" y1="0" x2="299.21875" y2="0" fill="rgb(0, 0, 0)" stroke="rgb(204, 204, 204)" stroke-width="1px"></line></g></g></g></g></svg>