<svg viewBox="0 0 301 200" xmlns="http://www.w3.org/2000/svg"><g><g><g><g><g><line x1="51.5625" y1="177" x2="46.5625" y2="177" style="visibility: inherit;" fill="rgb(0, 0, 0)" stroke="rgb(204, 204, 204)" stroke-width="1px"></line><line x1="51.5625" y1="154.875" x2="46.5625" y2="154.875" style="visibility: inherit;" fill="rgb(0, 0, 0)" stroke="rgb(204, 204, 204)" stroke-width="1px"></line><line x1="51.5625" y1="132.75" x2="46.5625" y2="132.75" style="visibility: inherit;" fill="rgb(0, 0, 0)" stroke="rgb(204, 204, 204)" stroke-width="1px"></line><line x1="51.5625" y1="110.625" x2="46.5625" y2="110.625" style="visibility: inherit;" fill="rgb(0, 0, 0)" stroke="rgb(204, 204, 204)" stroke-width="1px"></line><line x1="51.5625" y1="88.5" x2="46.5625" y2="88.5" style="visibility: inherit;" fill="rgb(0, 0, 0)" stroke="rgb(204, 204, 204)" stroke-width="1px"></line><line x1="51.5625" y1="66.375" x2="46.5625" y2="66.375" style="visibility: inherit;" fill="rgb(0, 0, 0)" stroke="rgb(204, 204, 204)" stroke-width="1px"></line><line x1="51.5625" y1="44.25" x2="46.5625" y2="44.25" style="visibility: inherit;" fill="rgb(0, 0, 0)" stroke="rgb(204, 204, 204)" stroke-width="1px"></line><line x1="51.5625" y1="22.125" x2="46.5625" y2="22.125" style="visibility: inherit;" fill="rgb(0, 0, 0)" stroke="rgb(204, 204, 204)" stroke-width="1px"></line><line x1="51.5625" y1="0" x2="46.5625" y2="0" style="visibility: inherit;" fill="rgb(0, 0, 0)" stroke="rgb(204, 204, 204)" stroke-width="1px"></line></g><g transform="translate(41.5625, 0)"><text x="0" y="177" dx="0em" dy="0.3em" style="text-anchor: end; visibility: hidden; font-family: Roboto, sans-serif; font-size: 12px; font-weight: 200;" fill="rgb(33, 33, 33)" stroke="none" stroke-width="1px">-0.5</text><text x="0" y="154.875" dx="0em" dy="0.3em" style="text-anchor: end; visibility: inherit; font-family: Roboto, sans-serif; font-size: 12px; font-weight: 200;" fill="rgb(33, 33, 33)" stroke="none" stroke-width="1px">0</text><text x="0" y="132.75" dx="0em" dy="0.3em" style="text-anchor: end; visibility: hidden; font-family: Roboto, sans-serif; font-size: 12px; font-weight: 200;" fill="rgb(33, 33, 33)" stroke="none" stroke-width="1px">0.5</text><text x="0" y="110.625" dx="0em" dy="0.3em" style="text-anchor: end; visibility: inherit; font-family: Roboto, sans-serif; font-size: 12px; font-weight: 200;" fill="rgb(33, 33, 33)" stroke="none" stroke-width="1px">1</text><text x="0" y="88.5" dx="0em" dy="0.3em" style="text-anchor: end; visibility: hidden; font-family: Roboto, sans-serif; font-size: 12px; font-weight: 200;" fill="rgb(33, 33, 33)" stroke="none" stroke-width="1px">1.5</text><text x="0" y="66.375" dx="0em" dy="0.3em" style="text-anchor: end; visibility: inherit; font-family: Roboto, sans-serif; font-size: 12px; font-weight: 200;" fill="rgb(33, 33, 33)" stroke="none" stroke-width="1px">2</text><text x="0" y="44.25" dx="0em" dy="0.3em" style="text-anchor: end; visibility: hidden; font-family: Roboto, sans-serif; font-size: 12px; font-weight: 200;" fill="rgb(33, 33, 33)" stroke="none" stroke-width="1px">2.5</text><text x="0" y="22.125" dx="0em" dy="0.3em" style="text-anchor: end; visibility: inherit; font-family: Roboto, sans-serif; font-size: 12px; font-weight: 200;" fill="rgb(33, 33, 33)" stroke="none" stroke-width="1px">3</text><text x="0" y="0" dx="0em" dy="0.3em" style="text-anchor: end; visibility: hidden; font-family: Roboto, sans-serif; font-size: 12px; font-weight: 200;" fill="rgb(33, 33, 33)" stroke="none" stroke-width="1px">3.5</text></g><line x1="51.5625" y1="0" x2="51.5625" y2="177" fill="rgb(0, 0, 0)" stroke="rgb(204, 204, 204)" stroke-width="1px"></line></g></g><g transform="translate(51, 0)" clip-path="url(#clip_0)"><clipPath id="clip_0"><rect width="278" height="177"></rect></clipPath><g><g><g><line x1="0" y1="0" x2="0" y2="177" fill="rgb(0, 0, 0)" stroke="rgb(66, 66, 66)" stroke-width="1px" opacity="0.25"></line><line x1="23.203125" y1="0" x2="23.203125" y2="177" fill="rgb(0, 0, 0)" stroke="rgb(66, 66, 66)" stroke-width="1px" opacity="0.25"></line><line x1="46.40625" y1="0" x2="46.40625" y2="177" fill="rgb(0, 0, 0)" stroke="rgb(66, 66, 66)" stroke-width="1px" opacity="0.25"></line><line x1="69.609375" y1="0" x2="69.609375" y2="177" fill="rgb(0, 0, 0)" stroke="rgb(66, 66, 66)" stroke-width="1px" opacity="0.25"></line><line x1="92.8125" y1="0" x2="92.8125" y2="177" fill="rgb(0, 0, 0)" stroke="rgb(66, 66, 66)" stroke-width="1px" opacity="0.25"></line><line x1="116.015625" y1="0" x2="116.015625" y2="177" fill="rgb(0, 0, 0)" stroke="rgb(66, 66, 66)" stroke-width="1px" opacity="0.25"></line><line x1="139.21875" y1="0" x2="139.21875" y2="177" fill="rgb(0, 0, 0)" stroke="rgb(66, 66, 66)" stroke-width="1px" opacity="0.25"></line><line x1="162.421875" y1="0" x2="162.421875" y2="177" fill="rgb(0, 0, 0)" stroke="rgb(66, 66, 66)" stroke-width="1px" opacity="0.25"></line><line x1="185.625" y1="0" x2="185.625" y2="177" fill="rgb(0, 0, 0)" stroke="rgb(66, 66, 66)" stroke-width="1px" opacity="0.25"></line><line x1="208.828125" y1="0" x2="208.828125" y2="177" fill="rgb(0, 0, 0)" stroke="rgb(66, 66, 66)" stroke-width="1px" opacity="0.25"></line><line x1="232.03125" y1="0" x2="232.03125" y2="177" fill="rgb(0, 0, 0)" stroke="rgb(66, 66, 66)" stroke-width="1px" opacity="0.25"></line><line x1="255.234375" y1="0" x2="255.234375" y2="177" fill="rgb(0, 0, 0)" stroke="rgb(66, 66, 66)" stroke-width="1px" opacity="0.25"></line><line x1="278.4375" y1="0" x2="278.4375" y2="177" fill="rgb(0, 0, 0)" stroke="rgb(66, 66, 66)" stroke-width="1px" opacity="0.25"></line></g><g><line x1="0" y1="177" x2="278.4375" y2="177" fill="rgb(0, 0, 0)" stroke="rgb(66, 66, 66)" stroke-width="1px" opacity="0.25"></line><line x1="0" y1="154.875" x2="278.4375" y2="154.875" fill="rgb(0, 0, 0)" stroke="rgb(66, 66, 66)" stroke-width="1px" opacity="0.25"></line><line x1="0" y1="132.75" x2="278.4375" y2="132.75" fill="rgb(0, 0, 0)" stroke="rgb(66, 66, 66)" stroke-width="1px" opacity="0.25"></line><line x1="0" y1="110.625" x2="278.4375" y2="110.625" fill="rgb(0, 0, 0)" stroke="rgb(66, 66, 66)" stroke-width="1px" opacity="0.25"></line><line x1="0" y1="88.5" x2="278.4375" y2="88.5" fill="rgb(0, 0, 0)" stroke="rgb(66, 66, 66)" stroke-width="1px" opacity="0.25"></line><line x1="0" y1="66.375" x2="278.4375" y2="66.375" fill="rgb(0, 0, 0)" stroke="rgb(66, 66, 66)" stroke-width="1px" opacity="0.25"></line><line x1="0" y1="44.25" x2="278.4375" y2="44.25" fill="rgb(0, 0, 0)" stroke="rgb(66, 66, 66)" stroke-width="1px" opacity="0.25"></line><line x1="0" y1="22.125" x2="278.4375" y2="22.125" fill="rgb(0, 0, 0)" stroke="rgb(66, 66, 66)" stroke-width="1px" opacity="0.25"></line><line x1="0" y1="0" x2="278.4375" y2="0" fill="rgb(0, 0, 0)" stroke="rgb(66, 66, 66)" stroke-width="1px" opacity="0.25"></line></g></g></g><g><g><line x1="0" y1="154.875" x2="278.4375" y2="154.875" fill="rgb(0, 0, 0)" stroke="rgb(153, 153, 153)" stroke-width="1.5px"></line></g></g><g><g><line x1="23.203125" y1="0" x2="23.203125" y2="177" fill="rgb(0, 0, 0)" stroke="rgb(153, 153, 153)" stroke-width="1.5px"></line></g></g><g><g><g><g><g><path stroke="rgb(51, 187, 238)" stroke-width="2px" d="M34.340625,-16.463330626487732L34.8046875,12.322309792041779L35.268750000000004,41.328171372413635L35.7328125,68.76502838730812L36.196875,93.61723020672798L36.660937499999996,121.27047345042229L37.125,139.11500769853592L37.589062500000004,148.24633472040296L38.053124999999994,152.05963659100235L38.5171875,153.31476464588195L38.98125,153.73275446193293L39.4453125,154.33135159034282L39.909375000000004,154.75367661035853L40.373437499999994,154.7642862648354L40.8375,154.75911478616763L41.3015625,154.77963060233742L41.765625,154.76873410883127L42.229687500000004,154.70894539228175L42.693749999999994,154.63296728557907L43.1578125,154.49167697969824L43.621875,154.30036609293893L44.0859375,154.06326843984425L44.550000000000004,153.78084368817508L45.014062499999994,153.49960746243596L45.478125,153.2500241054222L45.9421875,153.07058487832546L46.40625,152.99727936834097L46.8703125,153.04121922142804L47.334375,153.18689656443894L47.7984375,153.37699329201132L48.2625,153.54805069137365L48.7265625,153.66429165937006L49.190625,153.71695588622242L49.6546875,153.71133198263124L50.11875,153.6548389219679L50.5828125,153.55805961275473L51.04687499999999,153.43119452521205L51.5109375,153.28272538259625L51.975,153.12304024770856L52.4390625,152.96224488783628L52.903125,152.80956546217203L53.36718750000001,152.6723294556141L53.83125,152.5554729597643L54.2953125,152.46080975420773L54.759375,152.38652408123016L55.2234375,152.32870105840266L55.6875,152.2825109185651L56.1515625,152.2429918544367L56.615625,152.20553218759596L57.0796875,152.16613758075982L57.54375,152.12186259962618L58.0078125,152.070669606328L58.471875,152.01131979748607L58.9359375,151.94342644885182L59.400000000000006,151.86724836565554L59.864062499999996,151.78353426977992L60.328125,151.69334344938397L60.7921875,151.59792575240135L61.25625,151.49858245812356L61.720312500000006,151.39654132537544L62.184374999999996,151.2929338440299L62.6484375,151.18872336298227L63.1125,151.084690913558L63.5765625,150.9814279563725L64.040625,150.8793248422444L64.5046875,150.77866246551275L64.96875,150.67961885780096L65.4328125,150.58223061449826L65.896875,150.48654356226325L66.3609375,150.39259924180806L66.825,150.3003739155829L67.2890625,150.20993747748435L67.753125,150.12136905267835L68.2171875,150.0348034836352L68.68125,149.95038748160005L69.1453125,149.8683788627386L69.609375,149.7890337947756L70.0734375,149.71261965483427L70.53750000000001,149.63945722952485L71.0015625,149.56988510861993L71.465625,149.50422045215964L71.92968750000001,149.44281371869147L72.39375,149.38604800589383L72.8578125,149.3342154175043L73.32187499999999,149.28773004189134L73.7859375,149.2469073906541L74.25,149.21212528645992L74.7140625,149.18372133001685L75.17812500000001,149.16220785677433L75.6421875,149.14799302071333L76.10624999999999,149.1416089385748L76.5703125,149.14363454282284L77.034375,149.15481229126453L77.4984375,149.17594991996884L77.9625,149.20802660286427L78.4265625,149.252270758152L78.890625,149.3100677356124L79.3546875,149.3831111434847L79.81875000000001,149.47347867675126L80.2828125,149.583552332595L80.74687499999999,149.71618852950633L81.2109375,149.8746917322278L81.675,150.06277752667665L82.1390625,150.28451822139323L82.603125,150.54411338455975L83.0671875,150.8453689366579L83.53125,151.1907272078097L83.99531250000001,151.58007841184735L84.45937500000001,152.0085425041616L84.92343749999999,152.4643314834684L85.38749999999999,152.92696643806994L85.8515625,153.36812748201191L86.315625,153.75663039833307L86.7796875,154.0677777500823L87.24375,154.29256987385452L87.7078125,154.44021388934925L88.171875,154.53192914673127L88.63593750000001,154.5909098284319L89.10000000000001,154.63424760906491L89.56406249999999,154.6698742301669L90.02812499999999,154.69919550279155L90.4921875,154.7222536476329L90.95625,154.74033161537955L91.4203125,154.75499259168282L91.884375,154.7669592530583L92.3484375,154.77658766275272L92.8125,154.78441753063817L93.27656250000001,154.79087935737334L93.740625,154.79618358705193L94.20468749999999,154.80054978170665L94.66875,154.80415306758368L95.1328125,154.80710101575824L95.596875,154.8094927748025L96.0609375,154.8114301513997L96.525,154.81297835684381L96.9890625,154.81421582601615L97.453125,154.8152021243004L97.91718750000001,154.8159926547669L98.38125,154.81664151203586L98.84531249999999,154.81715736587648L99.309375,154.81760232130182L99.7734375,154.81789189571282L100.2375,154.81823583261576L100.70156250000001,154.8182322421053L101.165625,154.81869384163292L101.6296875,154.81792480271542L102.09374999999999,154.81945374200586L102.5578125,154.81554692148347L103.021875,154.82282340773963L103.48593749999999,154.80347491442808L103.95,154.83597333033686L104.4140625,154.72598849970382L104.878125,154.80577791522956L105.34218750000001,153.99768216675147L105.80625,153.31201125495136L106.2703125,146.3635546937585L106.73437500000001,134.65726069360971L107.1984375,112.00823713839054L107.6625,94.89547616243362L108.12656249999999,125.18546006083488L108.590625,142.20428363978863L109.0546875,150.9858286343515L109.51875,153.75295289140195L109.98281250000001,154.70125869149342L110.446875,154.18546036211774L110.91093749999999,154.73500887164846L111.375,154.28803888661787L111.8390625,154.74846811388852L112.303125,154.16439938591793L112.7671875,154.6193587873131L113.23125,153.45184949040413L113.6953125,153.8093727612868L114.159375,150.7924295850098L114.62343750000001,150.71761278435588L115.0875,145.10569138079882L115.55156249999999,147.65215681493282L116.015625,145.63416572660208L116.4796875,150.68804766610265L116.94375,149.7221492920071L117.4078125,152.80911049246788L117.871875,151.0386288575828L118.3359375,152.8904282497242L118.80000000000001,150.53693244606256L119.26406250000001,152.2565763266757L119.72812499999999,149.52231439948082L120.19218749999999,151.62962955795228L120.65625,148.9524457231164L121.1203125,151.53819680213928L121.584375,149.15700867399573L122.0484375,151.84746146947145L122.5125,149.6392244696617L122.9765625,152.1322527229786L123.44062500000001,149.92013859003782L123.90468750000001,152.20852839387953L124.36874999999999,149.90381144173443L124.83281249999999,152.11876006890088L125.296875,149.72354552149773L125.7609375,151.98691990412772L126.225,149.56575675308704L126.6890625,151.92145899496973L127.153125,149.5378123819828L127.6171875,151.9465911258012L128.08125,149.61315173842013L128.5453125,152.00903604738414L129.009375,149.69782258942723L129.47343750000002,152.04868863523006L129.9375,149.72897416725755L130.4015625,152.04638807103038L130.865625,149.70736640319228L131.3296875,152.02004730328918L131.79375,149.6708682719618L132.2578125,151.99783686921L132.721875,149.65416396036744L133.1859375,151.99463790468872L133.65,149.66486135311425L134.11406250000002,152.00587466731668L134.578125,149.68784325756133L135.04218749999998,152.0181687399745L135.50625,149.70508364215493L135.9703125,152.0226188711822L136.434375,149.70990632101893L136.8984375,152.01939913630486L137.3625,149.7072543092072L137.8265625,152.01408621110022L138.290625,149.7057265341282L138.75468750000002,152.01180674694479L139.21875,149.7100883089006L139.6828125,152.01348123326898L140.146875,149.71910264343023L140.6109375,152.0169020779431L141.07500000000002,149.72880899347365L141.5390625,152.01947166770697L142.003125,149.7363522592932L142.46718750000002,152.02018577232957L142.93125,149.74163782037795L143.39531250000002,152.01983366534114L143.85937500000003,149.74630620516837L144.32343749999998,152.01966948062181L144.7875,149.75207080319524L145.25156249999998,152.02046930417418L145.715625,149.75925009325147L146.1796875,152.02200664021075L146.64374999999998,149.76707359403372L147.1078125,152.0236867312342L147.571875,149.77488522604108L148.0359375,152.02506383880973L148.5,149.7822992540896L148.9640625,152.02614851295948L149.428125,149.78952074423432L149.8921875,152.02715604007244L150.35625000000002,149.79703334905207L150.8203125,152.0284170974046L151.284375,149.80504378303885L151.74843750000002,152.02985618636012L152.21249999999998,149.81340335682034L152.6765625,152.03139517083764L153.140625,149.822025032714L153.60468749999998,152.03286492079496L154.06875,149.83064407110214L154.5328125,152.03423576429486L154.996875,149.83938641287386L155.4609375,152.03552649356425L155.925,149.8482474423945L156.3890625,152.0367344710976L156.853125,149.8572670519352L157.3171875,152.03795036114752L157.78125,149.86660448089242L158.2453125,152.03913295269012L158.709375,149.87607147730887L159.1734375,152.04026213474572L159.63750000000002,149.8857389241457L160.1015625,152.04131351038814L160.565625,149.89556956663728L161.02968750000002,152.04224982485175L161.49374999999998,149.90545065142214L161.9578125,152.04302986711264L162.421875,149.9154820740223L162.88593749999998,152.04374265298247L163.35,149.92570405639708L163.8140625,152.0443977434188L164.278125,149.93613110482693L164.7421875,152.04498821496964L165.20625,149.94668969884515L165.6703125,152.04545703157783L166.134375,149.9573620352894L166.59843750000002,152.04587210901082L167.0625,149.9682941660285L167.5265625,152.04620212689042L167.99062500000002,149.97915838100016L168.4546875,152.04640125855803L168.91875000000002,149.99017623066902L169.38281249999997,152.04653906822205L169.84687499999998,150.00131771340966L170.3109375,152.0466828122735L170.77499999999998,150.01262173242867L171.2390625,152.04678897187114L171.703125,150.02391948737204L172.16718749999998,152.04680743440986L172.63125,150.0351905375719L173.0953125,152.04677974060178L173.559375,150.04643224552274L174.0234375,152.04671545140445L174.4875,150.05766604095697L174.9515625,152.04671644046903L175.415625,150.06885994412005L175.87968750000002,152.04674874991179L176.34375,150.07997867837548L176.8078125,152.0467790812254L177.27187500000002,150.090794429183L177.7359375,152.04680875316262L178.20000000000002,150.10143940150738L178.66406250000003,152.04694854095578L179.12812499999998,150.11183381080627L179.5921875,152.04714239761233L180.05624999999998,150.12194765545428L180.5203125,152.047446699813L180.984375,150.13173543848097L181.44843749999998,152.0478466115892L181.9125,150.14120836928487L182.3765625,152.04833191260695L182.840625,150.15031040087342L183.3046875,152.04895436391234L183.76875,150.159088678658L184.2328125,152.04962132312357L184.696875,150.16748847439885L185.16093750000002,152.0503347683698L185.625,150.1755803413689L186.0890625,152.05116854980588L186.55312500000002,150.18351923301816L187.01718749999998,152.05207881890237L187.48125,150.19126921333373L187.9453125,152.05306227877736L188.40937499999998,150.19897336699069L188.8734375,152.05416409671307L189.3375,150.20662246271968L189.8015625,152.05533580854535L190.265625,150.2143398039043L190.7296875,152.05659785494208L191.19375,150.22207362949848L191.6578125,152.05780385434628L192.121875,150.22969602048397L192.5859375,152.05904776789248L193.05,150.23748457431793L193.5140625,152.0603447612375L193.978125,150.2452803812921L194.44218750000002,152.06166384369135L194.90625,150.25317971035838L195.3703125,152.06299215741456L195.83437500000002,150.26108695194125L196.29843749999998,152.06429871171713L196.7625,150.2690944187343L197.2265625,152.06562010198832L197.69062499999998,150.2770662792027L198.1546875,152.0668758843094L198.61875,150.28501539118588L199.0828125,152.0681046321988L199.546875,150.2929974719882L200.0109375,152.0693257972598L200.475,150.3009538371116L200.9390625,152.0705126747489L201.40312500000002,150.30887987092137L201.8671875,152.07168108969927L202.33125,150.3167844749987L202.79531250000002,152.07286895625293L203.259375,150.32475864328444L203.72343750000002,152.07406308688223L204.18749999999997,150.33272292092443L204.65156249999998,152.07525688782334L205.115625,150.3405454326421L205.57968749999998,152.07636694796383L206.04375,150.3482868410647L206.5078125,152.07744535803795L206.97187499999998,150.3559580259025L207.4359375,152.07857717759907L207.9,150.3637261390686L208.3640625,152.07980427704751L208.828125,150.37147315219045L209.2921875,152.08102115616202L209.75625,150.37908433377743L210.2203125,152.08223407901824L210.68437500000002,150.3866688106209L211.1484375,152.08343183621764L211.6125,150.39412503875792L212.07656250000002,152.08463058248162L212.540625,150.40151269175112L213.00468750000002,152.08590416796505L213.46875000000003,150.40896727144718L213.93281249999998,152.08727567084134L214.396875,150.4163776729256L214.86093749999998,152.08867190033197L215.325,150.4237115867436L215.7890625,152.09006252512336L216.25312499999998,150.43096340820193L216.7171875,152.09152831882238L217.18125,150.4382069874555L217.6453125,152.09299543127418L218.109375,150.44529792107642L218.5734375,152.09446254372597L219.0375,150.4523595124483L219.5015625,152.0960470251739L219.96562500000002,150.45943066477776L220.4296875,152.09762227535248L220.89375,150.4664253294468L221.35781250000002,152.0992687381804L221.82187499999998,150.4734440613538L222.2859375,152.10101476684213L222.75,150.4804522432387L223.21406249999998,152.10278420336545L223.678125,150.48734866082668L224.1421875,152.10456221178174L224.60625,150.49426485970616L225.0703125,152.10641901567578L225.534375,150.50112435221672L225.9984375,152.10827450081706L226.4625,150.50794263370335L226.9265625,152.1101580094546L227.390625,150.51468640565872L227.8546875,152.11205734312534L228.31875,150.52140874788165L228.7828125,152.11402360349894L229.24687500000002,150.52817197144032L229.7109375,152.11604393273592L230.175,150.534873213619L230.63906250000002,152.11802371032536L231.10312499999998,150.5414504930377L231.5671875,152.11998304724693L232.03125,150.54799150675535L232.49531249999998,152.12200337648392L232.959375,150.55461823940277L233.4234375,152.12412228249013L233.8875,150.56127794086933L234.3515625,152.12625272758305L234.815625,150.56783280149102L235.2796875,152.12831130065024L235.74375,150.57422215864062L236.20781250000002,152.13032569549978L236.671875,150.58060360327363L237.1359375,152.1323977857828L237.60000000000002,150.58697251975536L238.0640625,152.13445635885L238.52812500000002,150.59333616122603L238.99218749999997,152.13655531872064L239.45624999999998,150.59972386993468L239.9203125,152.13868724741042L240.38437499999998,150.60600014403462L240.8484375,152.14069801568985L241.3125,150.6121712476015L241.77656249999998,152.1427661497146L242.240625,150.6184649951756L242.7046875,152.14489511121064L243.16875,150.62470632232726L243.6328125,152.14699918124825L244.096875,150.63088896498084L244.5609375,152.14904110506177L245.025,150.63695127144456L245.48906250000002,152.1510747866705L245.953125,150.64301753416657L246.4171875,152.15307879634202L246.88125000000002,150.64901983737946L247.3453125,152.15512813813984L247.80937500000002,150.65513027831912L248.27343750000003,152.15722066909075L248.73749999999998,150.66116983629763L249.2015625,152.15928748436272L249.66562499999998,150.6671922504902L250.1296875,152.16132858395576L250.59375,150.67313059419394L251.05781249999998,152.16335023194551L251.521875,150.67914674431086L251.9859375,152.1654783692211L252.45,150.68520509451628L252.9140625,152.16756183374673L253.378125,150.6910949740559L253.8421875,152.16953913867474L254.30625,150.69694858789444L254.77031250000002,152.17156902886927" style="fill: none;" fill="none"></path></g></g></g></g></g></g><g transform="translate(51, 177)" clip-path="url(#clip_1)"><clipPath id="clip_1"><rect width="278" height="23"></rect></clipPath><g><g><line x1="0" y1="0" x2="0" y2="5" style="visibility: inherit;" fill="rgb(0, 0, 0)" stroke="rgb(204, 204, 204)" stroke-width="1px"></line><line x1="23.203125" y1="0" x2="23.203125" y2="5" style="visibility: inherit;" fill="rgb(0, 0, 0)" stroke="rgb(204, 204, 204)" stroke-width="1px"></line><line x1="46.40625" y1="0" x2="46.40625" y2="5" style="visibility: inherit;" fill="rgb(0, 0, 0)" stroke="rgb(204, 204, 204)" stroke-width="1px"></line><line x1="69.609375" y1="0" x2="69.609375" y2="5" style="visibility: inherit;" fill="rgb(0, 0, 0)" stroke="rgb(204, 204, 204)" stroke-width="1px"></line><line x1="92.8125" y1="0" x2="92.8125" y2="5" style="visibility: inherit;" fill="rgb(0, 0, 0)" stroke="rgb(204, 204, 204)" stroke-width="1px"></line><line x1="116.015625" y1="0" x2="116.015625" y2="5" style="visibility: inherit;" fill="rgb(0, 0, 0)" stroke="rgb(204, 204, 204)" stroke-width="1px"></line><line x1="139.21875" y1="0" x2="139.21875" y2="5" style="visibility: inherit;" fill="rgb(0, 0, 0)" stroke="rgb(204, 204, 204)" stroke-width="1px"></line><line x1="162.421875" y1="0" x2="162.421875" y2="5" style="visibility: inherit;" fill="rgb(0, 0, 0)" stroke="rgb(204, 204, 204)" stroke-width="1px"></line><line x1="185.625" y1="0" x2="185.625" y2="5" style="visibility: inherit;" fill="rgb(0, 0, 0)" stroke="rgb(204, 204, 204)" stroke-width="1px"></line><line x1="208.828125" y1="0" x2="208.828125" y2="5" style="visibility: inherit;" fill="rgb(0, 0, 0)" stroke="rgb(204, 204, 204)" stroke-width="1px"></line><line x1="232.03125" y1="0" x2="232.03125" y2="5" style="visibility: inherit;" fill="rgb(0, 0, 0)" stroke="rgb(204, 204, 204)" stroke-width="1px"></line><line x1="255.234375" y1="0" x2="255.234375" y2="5" style="visibility: inherit;" fill="rgb(0, 0, 0)" stroke="rgb(204, 204, 204)" stroke-width="1px"></line><line x1="278.4375" y1="0" x2="278.4375" y2="5" style="visibility: inherit;" fill="rgb(0, 0, 0)" stroke="rgb(204, 204, 204)" stroke-width="1px"></line></g><g transform="translate(0, 8)"><text x="0" y="0" dx="0em" dy="0.95em" style="text-anchor: middle; visibility: hidden; font-family: Roboto, sans-serif; font-size: 12px; font-weight: 200;" fill="rgb(33, 33, 33)" stroke="none" stroke-width="1px">-50</text><text x="23.203125" y="0" dx="0em" dy="0.95em" style="text-anchor: middle; visibility: inherit; font-family: Roboto, sans-serif; font-size: 12px; font-weight: 200;" fill="rgb(33, 33, 33)" stroke="none" stroke-width="1px">0</text><text x="46.40625" y="0" dx="0em" dy="0.95em" style="text-anchor: middle; visibility: hidden; font-family: Roboto, sans-serif; font-size: 12px; font-weight: 200;" fill="rgb(33, 33, 33)" stroke="none" stroke-width="1px">50</text><text x="69.609375" y="0" dx="0em" dy="0.95em" style="text-anchor: middle; visibility: inherit; font-family: Roboto, sans-serif; font-size: 12px; font-weight: 200;" fill="rgb(33, 33, 33)" stroke="none" stroke-width="1px">100</text><text x="92.8125" y="0" dx="0em" dy="0.95em" style="text-anchor: middle; visibility: hidden; font-family: Roboto, sans-serif; font-size: 12px; font-weight: 200;" fill="rgb(33, 33, 33)" stroke="none" stroke-width="1px">150</text><text x="116.015625" y="0" dx="0em" dy="0.95em" style="text-anchor: middle; visibility: inherit; font-family: Roboto, sans-serif; font-size: 12px; font-weight: 200;" fill="rgb(33, 33, 33)" stroke="none" stroke-width="1px">200</text><text x="139.21875" y="0" dx="0em" dy="0.95em" style="text-anchor: middle; visibility: hidden; font-family: Roboto, sans-serif; font-size: 12px; font-weight: 200;" fill="rgb(33, 33, 33)" stroke="none" stroke-width="1px">250</text><text x="162.421875" y="0" dx="0em" dy="0.95em" style="text-anchor: middle; visibility: inherit; font-family: Roboto, sans-serif; font-size: 12px; font-weight: 200;" fill="rgb(33, 33, 33)" stroke="none" stroke-width="1px">300</text><text x="185.625" y="0" dx="0em" dy="0.95em" style="text-anchor: middle; visibility: hidden; font-family: Roboto, sans-serif; font-size: 12px; font-weight: 200;" fill="rgb(33, 33, 33)" stroke="none" stroke-width="1px">350</text><text x="208.828125" y="0" dx="0em" dy="0.95em" style="text-anchor: middle; visibility: inherit; font-family: Roboto, sans-serif; font-size: 12px; font-weight: 200;" fill="rgb(33, 33, 33)" stroke="none" stroke-width="1px">400</text><text x="232.03125" y="0" dx="0em" dy="0.95em" style="text-anchor: middle; visibility: hidden; font-family: Roboto, sans-serif; font-size: 12px; font-weight: 200;" fill="rgb(33, 33, 33)" stroke="none" stroke-width="1px">450</text><text x="255.234375" y="0" dx="0em" dy="0.95em" style="text-anchor: middle; visibility: inherit; font-family: Roboto, sans-serif; font-size: 12px; font-weight: 200;" fill="rgb(33, 33, 33)" stroke="none" stroke-width="1px">500</text><text x="278.4375" y="0" dx="0em" dy="0.95em" style="text-anchor: middle; visibility: hidden; font-family: Roboto, sans-serif; font-size: 12px; font-weight: 200;" fill="rgb(33, 33, 33)" stroke="none" stroke-width="1px">550</text></g><line x1="0" y1="0" x2="278.4375" y2="0" fill="rgb(0, 0, 0)" stroke="rgb(204, 204, 204)" stroke-width="1px"></line></g></g></g></g></svg>