<svg viewBox="0 0 301 200" xmlns="http://www.w3.org/2000/svg"><g><g><g><g><g><line x1="51.5625" y1="177" x2="46.5625" y2="177" style="visibility: inherit;" fill="rgb(0, 0, 0)" stroke="rgb(204, 204, 204)" stroke-width="1px"></line><line x1="51.5625" y1="151.71428571428572" x2="46.5625" y2="151.71428571428572" style="visibility: inherit;" fill="rgb(0, 0, 0)" stroke="rgb(204, 204, 204)" stroke-width="1px"></line><line x1="51.5625" y1="126.42857142857143" x2="46.5625" y2="126.42857142857143" style="visibility: inherit;" fill="rgb(0, 0, 0)" stroke="rgb(204, 204, 204)" stroke-width="1px"></line><line x1="51.5625" y1="101.14285714285714" x2="46.5625" y2="101.14285714285714" style="visibility: inherit;" fill="rgb(0, 0, 0)" stroke="rgb(204, 204, 204)" stroke-width="1px"></line><line x1="51.5625" y1="75.85714285714286" x2="46.5625" y2="75.85714285714286" style="visibility: inherit;" fill="rgb(0, 0, 0)" stroke="rgb(204, 204, 204)" stroke-width="1px"></line><line x1="51.5625" y1="50.57142857142857" x2="46.5625" y2="50.57142857142857" style="visibility: inherit;" fill="rgb(0, 0, 0)" stroke="rgb(204, 204, 204)" stroke-width="1px"></line><line x1="51.5625" y1="25.285714285714295" x2="46.5625" y2="25.285714285714295" style="visibility: inherit;" fill="rgb(0, 0, 0)" stroke="rgb(204, 204, 204)" stroke-width="1px"></line><line x1="51.5625" y1="0" x2="46.5625" y2="0" style="visibility: inherit;" fill="rgb(0, 0, 0)" stroke="rgb(204, 204, 204)" stroke-width="1px"></line></g><g transform="translate(41.5625, 0)"><text x="0" y="177" dx="0em" dy="0.3em" style="text-anchor: end; visibility: hidden; font-family: Roboto, sans-serif; font-size: 12px; font-weight: 200;" fill="rgb(33, 33, 33)" stroke="none" stroke-width="1px">-0.5</text><text x="0" y="151.71428571428572" dx="0em" dy="0.3em" style="text-anchor: end; visibility: inherit; font-family: Roboto, sans-serif; font-size: 12px; font-weight: 200;" fill="rgb(33, 33, 33)" stroke="none" stroke-width="1px">0</text><text x="0" y="126.42857142857143" dx="0em" dy="0.3em" style="text-anchor: end; visibility: inherit; font-family: Roboto, sans-serif; font-size: 12px; font-weight: 200;" fill="rgb(33, 33, 33)" stroke="none" stroke-width="1px">0.5</text><text x="0" y="101.14285714285714" dx="0em" dy="0.3em" style="text-anchor: end; visibility: inherit; font-family: Roboto, sans-serif; font-size: 12px; font-weight: 200;" fill="rgb(33, 33, 33)" stroke="none" stroke-width="1px">1</text><text x="0" y="75.85714285714286" dx="0em" dy="0.3em" style="text-anchor: end; visibility: inherit; font-family: Roboto, sans-serif; font-size: 12px; font-weight: 200;" fill="rgb(33, 33, 33)" stroke="none" stroke-width="1px">1.5</text><text x="0" y="50.57142857142857" dx="0em" dy="0.3em" style="text-anchor: end; visibility: inherit; font-family: Roboto, sans-serif; font-size: 12px; font-weight: 200;" fill="rgb(33, 33, 33)" stroke="none" stroke-width="1px">2</text><text x="0" y="25.285714285714295" dx="0em" dy="0.3em" style="text-anchor: end; visibility: inherit; font-family: Roboto, sans-serif; font-size: 12px; font-weight: 200;" fill="rgb(33, 33, 33)" stroke="none" stroke-width="1px">2.5</text><text x="0" y="0" dx="0em" dy="0.3em" style="text-anchor: end; visibility: hidden; font-family: Roboto, sans-serif; font-size: 12px; font-weight: 200;" fill="rgb(33, 33, 33)" stroke="none" stroke-width="1px">3</text></g><line x1="51.5625" y1="0" x2="51.5625" y2="177" fill="rgb(0, 0, 0)" stroke="rgb(204, 204, 204)" stroke-width="1px"></line></g></g><g transform="translate(51, 0)" clip-path="url(#clip_0)"><clipPath id="clip_0"><rect width="278" height="177"></rect></clipPath><g><g><g><line x1="0" y1="0" x2="0" y2="177" fill="rgb(0, 0, 0)" stroke="rgb(66, 66, 66)" stroke-width="1px" opacity="0.25"></line><line x1="23.203125" y1="0" x2="23.203125" y2="177" fill="rgb(0, 0, 0)" stroke="rgb(66, 66, 66)" stroke-width="1px" opacity="0.25"></line><line x1="46.40625" y1="0" x2="46.40625" y2="177" fill="rgb(0, 0, 0)" stroke="rgb(66, 66, 66)" stroke-width="1px" opacity="0.25"></line><line x1="69.609375" y1="0" x2="69.609375" y2="177" fill="rgb(0, 0, 0)" stroke="rgb(66, 66, 66)" stroke-width="1px" opacity="0.25"></line><line x1="92.8125" y1="0" x2="92.8125" y2="177" fill="rgb(0, 0, 0)" stroke="rgb(66, 66, 66)" stroke-width="1px" opacity="0.25"></line><line x1="116.015625" y1="0" x2="116.015625" y2="177" fill="rgb(0, 0, 0)" stroke="rgb(66, 66, 66)" stroke-width="1px" opacity="0.25"></line><line x1="139.21875" y1="0" x2="139.21875" y2="177" fill="rgb(0, 0, 0)" stroke="rgb(66, 66, 66)" stroke-width="1px" opacity="0.25"></line><line x1="162.421875" y1="0" x2="162.421875" y2="177" fill="rgb(0, 0, 0)" stroke="rgb(66, 66, 66)" stroke-width="1px" opacity="0.25"></line><line x1="185.625" y1="0" x2="185.625" y2="177" fill="rgb(0, 0, 0)" stroke="rgb(66, 66, 66)" stroke-width="1px" opacity="0.25"></line><line x1="208.828125" y1="0" x2="208.828125" y2="177" fill="rgb(0, 0, 0)" stroke="rgb(66, 66, 66)" stroke-width="1px" opacity="0.25"></line><line x1="232.03125" y1="0" x2="232.03125" y2="177" fill="rgb(0, 0, 0)" stroke="rgb(66, 66, 66)" stroke-width="1px" opacity="0.25"></line><line x1="255.234375" y1="0" x2="255.234375" y2="177" fill="rgb(0, 0, 0)" stroke="rgb(66, 66, 66)" stroke-width="1px" opacity="0.25"></line><line x1="278.4375" y1="0" x2="278.4375" y2="177" fill="rgb(0, 0, 0)" stroke="rgb(66, 66, 66)" stroke-width="1px" opacity="0.25"></line></g><g><line x1="0" y1="177" x2="278.4375" y2="177" fill="rgb(0, 0, 0)" stroke="rgb(66, 66, 66)" stroke-width="1px" opacity="0.25"></line><line x1="0" y1="151.71428571428572" x2="278.4375" y2="151.71428571428572" fill="rgb(0, 0, 0)" stroke="rgb(66, 66, 66)" stroke-width="1px" opacity="0.25"></line><line x1="0" y1="126.42857142857143" x2="278.4375" y2="126.42857142857143" fill="rgb(0, 0, 0)" stroke="rgb(66, 66, 66)" stroke-width="1px" opacity="0.25"></line><line x1="0" y1="101.14285714285714" x2="278.4375" y2="101.14285714285714" fill="rgb(0, 0, 0)" stroke="rgb(66, 66, 66)" stroke-width="1px" opacity="0.25"></line><line x1="0" y1="75.85714285714286" x2="278.4375" y2="75.85714285714286" fill="rgb(0, 0, 0)" stroke="rgb(66, 66, 66)" stroke-width="1px" opacity="0.25"></line><line x1="0" y1="50.57142857142857" x2="278.4375" y2="50.57142857142857" fill="rgb(0, 0, 0)" stroke="rgb(66, 66, 66)" stroke-width="1px" opacity="0.25"></line><line x1="0" y1="25.285714285714295" x2="278.4375" y2="25.285714285714295" fill="rgb(0, 0, 0)" stroke="rgb(66, 66, 66)" stroke-width="1px" opacity="0.25"></line><line x1="0" y1="0" x2="278.4375" y2="0" fill="rgb(0, 0, 0)" stroke="rgb(66, 66, 66)" stroke-width="1px" opacity="0.25"></line></g></g></g><g><g><line x1="0" y1="151.71428571428572" x2="278.4375" y2="151.71428571428572" fill="rgb(0, 0, 0)" stroke="rgb(153, 153, 153)" stroke-width="1.5px"></line></g></g><g><g><line x1="23.203125" y1="0" x2="23.203125" y2="177" fill="rgb(0, 0, 0)" stroke="rgb(153, 153, 153)" stroke-width="1.5px"></line></g></g><g><g><g><g><g><path stroke="rgb(51, 187, 238)" stroke-width="2px" d="M34.340625,-8.81189693723405L34.8046875,12.920750754220153L35.268750000000004,35.499076162065776L35.7328125,58.78645951407296L36.196875,81.42092309679303L36.660937499999996,113.14411921160561L37.125,134.94782280921936L37.589062500000004,144.1480185857841L38.053124999999994,148.5513186220612L38.5171875,150.68816023107087L38.98125,150.78943855954068L39.4453125,151.39710914263767L39.909375000000004,151.6144986597023L40.373437499999994,151.57981443757723L40.8375,151.60353969469932L41.3015625,151.63399359344373L41.765625,151.65255014039576L42.229687500000004,151.64038823149167L42.693749999999994,151.6479778185021L43.1578125,151.64294077755352L43.621875,151.6282257691824L44.0859375,151.613903454771L44.550000000000004,151.59302241767625L45.014062499999994,151.56925653825914L45.478125,151.54900493479465L45.9421875,151.53410792676732L46.40625,151.52632049151828L46.8703125,151.5285864855562L47.334375,151.54036497298097L47.7984375,151.55797768151388L48.2625,151.57445171768111L48.7265625,151.58389915652307L49.190625,151.58719454306578L49.6546875,151.58630113516534L50.11875,151.58120134160188L50.5828125,151.5718464391705L51.04687499999999,151.5591925942738L51.5109375,151.5441961146093L51.975,151.5274825952947L52.4390625,151.5098626924945L52.903125,151.49246796672898L53.36718750000001,151.47623553313315L53.83125,151.4618356713493L54.2953125,151.44961375330706L54.759375,151.43957863348936L55.2234375,151.43142539741737L55.6875,151.4246327138639L56.1515625,151.4186469892572L56.615625,151.4129576072363L57.0796875,151.40710064941752L57.54375,151.40069963543544L58.0078125,151.39348471550537L58.471875,151.38528939709067L58.9359375,151.37603337756758L59.400000000000006,151.36570511784936L59.864062499999996,151.35435461279536L60.328125,151.34207650646567L60.7921875,151.32899403159638L61.25625,151.31524148902724L61.720312500000006,151.30094696262051L62.184374999999996,151.2862379710589L62.6484375,151.2712311768638L63.1125,151.25601215767009L63.5765625,151.24065834310437L64.040625,151.22521683147977L64.5046875,151.2097294931965L64.96875,151.1942223265235L65.4328125,151.1787041388452L65.896875,151.16318712862474L66.3609375,151.14767967936183L66.825,151.13218659508442L67.2890625,151.1167223820729L67.753125,151.10130503188287L68.2171875,151.0859582820641L68.68125,151.07071175745557L69.1453125,151.0556088356035L69.609375,151.04069016235215L70.0734375,151.02601041884293L70.53750000000001,151.0116223080882L71.0015625,150.99758880053247L71.465625,150.98396872196878L71.92968750000001,150.97083093013083L72.39375,150.958243340786L72.8578125,150.94627302193214L73.32187499999999,150.93499175139834L73.7859375,150.9244719192918L74.25,150.91478770545552L74.7140625,150.90601065222705L75.17812500000001,150.89823773503304L75.6421875,150.89155881745475L76.10624999999999,150.8860683787082L76.5703125,150.881884918149L77.034375,150.87913965167743L77.4984375,150.87798103317618L77.9625,150.87859076793706L78.4265625,150.88118192872832L78.890625,150.88599933258126L79.3546875,150.89334224217703L79.81875000000001,150.9035662497793L80.2828125,150.91709024778436L80.74687499999999,150.93441253634435L81.2109375,150.95610653742085L81.675,150.98282654077877L82.1390625,151.01528589746783L82.603125,151.05422381551136L83.0671875,151.1003050405L83.53125,151.15394578022617L83.99531250000001,151.21508523076773L84.45937500000001,151.28280045358198L84.92343749999999,151.3548908506387L85.38749999999999,151.42760096729864L85.8515625,151.49585600742805L86.315625,151.55430743949753L86.7796875,151.5991371916607L87.24375,151.62962503651423L87.7078125,151.64821100225006L88.171875,151.65889242866876L88.63593750000001,151.6653262083585L89.10000000000001,151.66979454012056L89.56406249999999,151.67320522333364L90.02812499999999,151.67575148177067L90.4921875,151.67756031014557L90.95625,151.67884225557958L91.4203125,151.67973480687942L91.884375,151.68029017841243L92.3484375,151.68056968335128L92.8125,151.68062130015875L93.27656250000001,151.680452688198L93.740625,151.68011549960022L94.20468749999999,151.67975210667854L94.66875,151.6795438114454L95.1328125,151.67966768295238L95.596875,151.68021839175242L96.0609375,151.68110703977956L96.525,151.68212323592576L96.9890625,151.6831312693456L97.453125,151.68407661491074L97.91718750000001,151.68496032644595L98.38125,151.6857918795431L98.84531249999999,151.6865758986678L99.309375,151.6873185242626L99.7734375,151.68799880052185L100.2375,151.68866010499187L100.70156250000001,151.68919631928605L101.165625,151.6897964415756L101.6296875,151.6900423109598L102.09374999999999,151.69076921160533L102.5578125,151.69015392807444L103.021875,151.69208770238663L103.48593749999999,151.6878396347165L103.95,151.69557278915974L104.4140625,151.6715061752392L104.878125,151.6905965197532L105.34218750000001,151.52900292884027L105.80625,151.38715896462756L106.2703125,150.31798199670655L106.73437500000001,147.63285931731974L107.1984375,137.02158037253787L107.6625,90.9669086592538L108.12656249999999,139.07524843301093L108.590625,148.77345461291927L109.0546875,150.7098442944033L109.51875,151.33081937381732L109.98281250000001,151.6001927943767L110.446875,151.52284841565415L110.91093749999999,151.63290014134589L111.375,151.59499131555538L111.8390625,151.6490627929036L112.303125,151.57876738320505L112.7671875,151.62926356873606L113.23125,151.47370597693538L113.6953125,151.48892158150142L114.159375,151.05595755151342L114.62343750000001,150.95168499488915L115.0875,150.1535139339311L115.55156249999999,150.30254128575325L116.015625,150.16767743283083L116.4796875,150.70422942191362L116.94375,150.79884908507978L117.4078125,151.13591984286904L117.871875,151.05839959904552L118.3359375,151.23184210407948L118.80000000000001,150.98807253928055L119.26406250000001,151.16116938979496L119.72812499999999,150.8222946253206L120.19218749999999,151.04463954429542L120.65625,150.71901320559638L121.1203125,151.01041310599874L121.584375,150.74357478746344L122.0484375,151.0591500635658L122.5125,150.82324403311526L122.9765625,151.118575135512L123.44062500000001,150.8730199794684L123.90468750000001,151.14487662326013L124.36874999999999,150.8719073289207L124.83281249999999,151.1367289918874L125.296875,150.84119169307607L125.7609375,151.11530882040304L126.225,150.8124213117574L126.6890625,151.10286926105618L127.153125,150.80490055893148L127.6171875,151.10727799284672L128.08125,150.81555061787367L128.5453125,151.12072837618845L129.009375,150.8287157267332L129.47343750000002,151.13173807784915L129.9375,150.83308343589306L130.4015625,151.13525377852577L130.865625,150.8281574233302L131.3296875,151.13352983897286L131.79375,150.82018207758665L132.2578125,151.13165631517768L132.721875,150.81526275298427L133.1859375,151.13288859544056L133.65,150.81502905115485L134.11406250000002,151.13691696125483L134.578125,150.81709129789044L135.04218749999998,151.14144744218459L135.50625,150.81831283973796L135.9703125,151.14467541926672L136.434375,150.81740139318364L136.8984375,151.14638786683125L137.3625,150.81511411070824L137.8265625,151.14747734500895L138.290625,150.81294099454368L138.75468750000002,151.1489147384252L139.21875,150.81178491935134L139.6828125,151.15096638804036L140.146875,150.81150289465273L140.6109375,151.15329544671943L141.07500000000002,150.81142687797546L141.5390625,151.15544209363205L142.003125,150.8110468887857L142.46718750000002,151.15717681869864L142.93125,150.81031874886583L143.39531250000002,151.15861482439297L143.85937500000003,150.80952749720643L144.32343749999998,151.15997459978928L144.7875,150.80898219293783L145.25156249999998,151.16141095704268L145.715625,150.80876921436618L146.1796875,151.16290482133627L146.64374999999998,150.8087725112481L147.1078125,151.1643562029515L147.571875,150.8088760333402L148.0359375,151.16569120463515L148.5,150.8090110171054L148.9640625,151.16690615271884L149.428125,150.80921269208193L149.8921875,151.16804145755512L150.35625000000002,150.80956932050842L150.8203125,151.16916117284978L151.284375,150.81012705873167L151.74843750000002,151.17025634992336L152.21249999999998,150.81086235759514L152.6765625,151.1713247280568L153.140625,150.81175882688592L153.60468749999998,151.17233583464156L154.06875,150.81276729596513L154.5328125,151.17329160070847L154.996875,150.81390952425343L155.4609375,151.17419683028544L155.925,150.815178917987L156.3890625,151.1750531718135L156.853125,150.81658103476678L157.3171875,151.17588210212332L157.78125,150.81813867017627L158.2453125,151.17667999464487L158.709375,150.81981489913804L159.1734375,151.17744595451015L159.63750000000002,150.82161857613494L160.1015625,151.17818097078373L160.565625,150.82353623104947L161.02968750000002,151.17887962715966L161.49374999999998,150.82554365534867L161.9578125,151.17953702541334L162.421875,150.82764697181327L162.88593749999998,151.18017205196833L163.35,150.82985381036997L163.8140625,151.18078734433013L164.278125,150.83215371519327L164.7421875,151.18138572839754L165.20625,150.83453180321624L165.6703125,151.18195477021592L166.134375,150.83697677084376L166.59843750000002,151.18251250843917L167.0625,150.83949992167098L167.5265625,151.1830504653709L167.99062500000002,150.8420480346041L168.4546875,151.18356294211532L168.91875000000002,150.84464305745703L169.38281249999997,151.18406025320292L169.84687499999998,150.84727236788189L170.3109375,151.1845553506698L170.77499999999998,150.849936625255L171.2390625,151.1850397568196L171.703125,150.85259777413947L172.16718749999998,151.18550522944759L172.63125,150.8552418734346L173.0953125,151.1859561015985L173.559375,150.85786110482047L174.0234375,151.18639260876392L174.4875,150.86044699060065L174.9515625,151.18683189472983L175.415625,150.86298916914632L175.87968750000002,151.18726411594878L176.34375,150.8654739819467L176.8078125,151.18768427999956L177.27187500000002,150.8678525409528L177.7359375,151.18808593441332L178.20000000000002,150.87013680913617L178.66406250000003,151.188489378563L179.12812499999998,150.87231491772192L179.5921875,151.18887982357825L180.05624999999998,150.874374526952L180.5203125,151.18926720720316L180.984375,150.8763065939503L181.44843749999998,151.18964554795195L181.9125,150.87811582854818L182.3765625,151.19001145474613L182.840625,150.8797960137682L183.3046875,151.19037298139716L183.76875,150.8813643875931L184.2328125,151.19071194795626L184.696875,150.8828200080565L185.16093750000002,151.1910301441593L185.625,150.88418915601713L186.0890625,151.19134118141872L186.55312500000002,150.88550593065364L187.01718749999998,151.19163785369267L187.48125,150.88678163556116L187.9453125,151.19192166812718L188.40937499999998,150.8880480150027L188.8734375,151.19220260956456L189.3375,150.88931552480375L189.8015625,151.1924732835697L190.265625,150.8906079967107L190.7296875,151.19273877676045L191.19375,150.8919225106282L191.6578125,151.1929772826178L192.121875,150.89324342991625L192.5859375,151.193206745599L193.05,150.8946170051183L193.5140625,151.1934303683894L193.978125,150.89601394108365L194.44218750000002,151.1936431585678L194.90625,150.89745741018226L195.3703125,151.19384756524647L195.83437500000002,150.89892424004418L196.29843749999998,151.19403647658015L196.7625,150.90042856016328L197.2265625,151.19421822897027L197.69062499999998,150.9019527557705L198.1546875,151.19437732707178L198.61875,150.90348900854588L199.0828125,151.1945253099714L199.546875,150.90504871628116L200.0109375,151.1946608589164L200.475,150.90661935082505L200.9390625,151.19478519846285L201.40312500000002,150.9081959197564L201.8671875,151.1948978576277L202.33125,150.9097811547773L202.79531250000002,151.19500773799206L203.259375,150.91138946797167L203.72343750000002,151.1951121549521L204.18749999999997,150.91300578787923L204.65156249999998,151.1952119091792L205.115625,150.9146038336413L205.57968749999998,151.195291316935L206.04375,150.9161924597408L206.5078125,151.19535942109567L206.97187499999998,150.91777279653718L207.4359375,151.19543105762983L207.9,150.91937131328243L208.3640625,151.19551795401742L208.828125,150.92096983002764L209.2921875,151.1955993870007L209.75625,150.9225457395826L210.2203125,151.19567705211895L210.68437500000002,150.9241181638624L211.1484375,151.19574671052396L211.6125,150.92566628541266L212.07656250000002,151.19581754638682L212.540625,150.92720041876393L213.00468750000002,151.19589596507805L213.46875000000003,150.92874335949975L213.93281249999998,151.1959938824709L214.396875,150.93027744575272L214.86093749999998,151.1960952851389L215.325,150.93179909805102L215.7890625,151.19619287284357L216.25312499999998,150.9333014871393L216.7171875,151.19630473133708L217.18125,150.93479619920254L217.6453125,151.1964169666171L218.109375,150.936267173716L218.5734375,151.1965281186359L219.0375,150.93772519619336L219.5015625,151.19666018230575L219.96562500000002,150.93918472581674L220.4296875,151.1967916336975L220.89375,150.94062744134237L221.35781250000002,151.19693749717305L221.82187499999998,150.9420697800815L222.2859375,151.1971003631396L222.75,150.9435094342168L223.21406249999998,151.19726935188686L223.678125,150.94492860058588L224.1421875,151.19743857612568L224.60625,150.94634644820223L225.0703125,151.19762310731625L225.534375,150.94775595941712L225.9984375,151.19781079409378L226.4625,150.94915364895547L226.9265625,151.19800229583467L227.390625,150.95053857485098L227.8546875,151.19819539891822L228.31875,150.95191671858942L228.7828125,151.19840225470918L229.24687500000002,150.95330253935288L229.7109375,151.19861857726107L230.175,150.9546756435718L230.63906250000002,151.19882981319512L231.10312499999998,150.9560296258756L231.5671875,151.19903374889066L232.03125,150.95737362333705L232.49531249999998,151.1992494591645L232.959375,150.95873203288232L233.4234375,151.19948151255292L233.8875,150.96009675360153L234.3515625,151.19971705121654L234.815625,150.96144395374824L235.2796875,151.19993709453513L235.74375,150.9627658621009L236.20781250000002,151.20014734140466L236.671875,150.96408178896775L237.1359375,151.20036710213338L237.60000000000002,150.9653987048992L238.0640625,151.200581729146L238.52812500000002,150.96671265363693L238.99218749999997,151.20080327961062L239.45624999999998,150.96803460908788L239.9203125,151.2010286450386L240.38437499999998,150.96933796070516L240.8484375,151.2012280121978L241.3125,150.97062106004785L241.77656249999998,151.201435809955L242.240625,150.97192671948244L242.7046875,151.20165283898157L243.16875,150.97322691551278L243.6328125,151.20186270906459L244.096875,150.97451802156866L244.5609375,151.20205562375486L245.025,150.9757872740073L245.48906250000002,151.20224519446492L245.953125,150.9770590226565L246.4171875,151.20242355577648L246.88125000000002,150.9783205509718L247.3453125,151.20260879344175L247.80937500000002,150.97960035343255L248.27343750000003,151.20279671571086L248.73749999999998,150.98087012395263L249.2015625,151.20297663126672L249.66562499999998,150.9821377750486L250.1296875,151.2031460438988L250.59375,150.983392097322L251.05781249999998,151.20330679044127L251.521875,150.9846605961876L251.9859375,151.20348265554225L252.45,150.98593667788165L252.9140625,151.20364580409867L253.378125,150.98718351152326L253.8421875,151.2037837079593L254.30625,150.98842671859478L254.77031250000002,151.20392509709512" style="fill: none;" fill="none"></path></g></g></g></g></g></g><g transform="translate(51, 177)" clip-path="url(#clip_1)"><clipPath id="clip_1"><rect width="278" height="23"></rect></clipPath><g><g><line x1="0" y1="0" x2="0" y2="5" style="visibility: inherit;" fill="rgb(0, 0, 0)" stroke="rgb(204, 204, 204)" stroke-width="1px"></line><line x1="23.203125" y1="0" x2="23.203125" y2="5" style="visibility: inherit;" fill="rgb(0, 0, 0)" stroke="rgb(204, 204, 204)" stroke-width="1px"></line><line x1="46.40625" y1="0" x2="46.40625" y2="5" style="visibility: inherit;" fill="rgb(0, 0, 0)" stroke="rgb(204, 204, 204)" stroke-width="1px"></line><line x1="69.609375" y1="0" x2="69.609375" y2="5" style="visibility: inherit;" fill="rgb(0, 0, 0)" stroke="rgb(204, 204, 204)" stroke-width="1px"></line><line x1="92.8125" y1="0" x2="92.8125" y2="5" style="visibility: inherit;" fill="rgb(0, 0, 0)" stroke="rgb(204, 204, 204)" stroke-width="1px"></line><line x1="116.015625" y1="0" x2="116.015625" y2="5" style="visibility: inherit;" fill="rgb(0, 0, 0)" stroke="rgb(204, 204, 204)" stroke-width="1px"></line><line x1="139.21875" y1="0" x2="139.21875" y2="5" style="visibility: inherit;" fill="rgb(0, 0, 0)" stroke="rgb(204, 204, 204)" stroke-width="1px"></line><line x1="162.421875" y1="0" x2="162.421875" y2="5" style="visibility: inherit;" fill="rgb(0, 0, 0)" stroke="rgb(204, 204, 204)" stroke-width="1px"></line><line x1="185.625" y1="0" x2="185.625" y2="5" style="visibility: inherit;" fill="rgb(0, 0, 0)" stroke="rgb(204, 204, 204)" stroke-width="1px"></line><line x1="208.828125" y1="0" x2="208.828125" y2="5" style="visibility: inherit;" fill="rgb(0, 0, 0)" stroke="rgb(204, 204, 204)" stroke-width="1px"></line><line x1="232.03125" y1="0" x2="232.03125" y2="5" style="visibility: inherit;" fill="rgb(0, 0, 0)" stroke="rgb(204, 204, 204)" stroke-width="1px"></line><line x1="255.234375" y1="0" x2="255.234375" y2="5" style="visibility: inherit;" fill="rgb(0, 0, 0)" stroke="rgb(204, 204, 204)" stroke-width="1px"></line><line x1="278.4375" y1="0" x2="278.4375" y2="5" style="visibility: inherit;" fill="rgb(0, 0, 0)" stroke="rgb(204, 204, 204)" stroke-width="1px"></line></g><g transform="translate(0, 8)"><text x="0" y="0" dx="0em" dy="0.95em" style="text-anchor: middle; visibility: hidden; font-family: Roboto, sans-serif; font-size: 12px; font-weight: 200;" fill="rgb(33, 33, 33)" stroke="none" stroke-width="1px">-50</text><text x="23.203125" y="0" dx="0em" dy="0.95em" style="text-anchor: middle; visibility: inherit; font-family: Roboto, sans-serif; font-size: 12px; font-weight: 200;" fill="rgb(33, 33, 33)" stroke="none" stroke-width="1px">0</text><text x="46.40625" y="0" dx="0em" dy="0.95em" style="text-anchor: middle; visibility: hidden; font-family: Roboto, sans-serif; font-size: 12px; font-weight: 200;" fill="rgb(33, 33, 33)" stroke="none" stroke-width="1px">50</text><text x="69.609375" y="0" dx="0em" dy="0.95em" style="text-anchor: middle; visibility: inherit; font-family: Roboto, sans-serif; font-size: 12px; font-weight: 200;" fill="rgb(33, 33, 33)" stroke="none" stroke-width="1px">100</text><text x="92.8125" y="0" dx="0em" dy="0.95em" style="text-anchor: middle; visibility: hidden; font-family: Roboto, sans-serif; font-size: 12px; font-weight: 200;" fill="rgb(33, 33, 33)" stroke="none" stroke-width="1px">150</text><text x="116.015625" y="0" dx="0em" dy="0.95em" style="text-anchor: middle; visibility: inherit; font-family: Roboto, sans-serif; font-size: 12px; font-weight: 200;" fill="rgb(33, 33, 33)" stroke="none" stroke-width="1px">200</text><text x="139.21875" y="0" dx="0em" dy="0.95em" style="text-anchor: middle; visibility: hidden; font-family: Roboto, sans-serif; font-size: 12px; font-weight: 200;" fill="rgb(33, 33, 33)" stroke="none" stroke-width="1px">250</text><text x="162.421875" y="0" dx="0em" dy="0.95em" style="text-anchor: middle; visibility: inherit; font-family: Roboto, sans-serif; font-size: 12px; font-weight: 200;" fill="rgb(33, 33, 33)" stroke="none" stroke-width="1px">300</text><text x="185.625" y="0" dx="0em" dy="0.95em" style="text-anchor: middle; visibility: hidden; font-family: Roboto, sans-serif; font-size: 12px; font-weight: 200;" fill="rgb(33, 33, 33)" stroke="none" stroke-width="1px">350</text><text x="208.828125" y="0" dx="0em" dy="0.95em" style="text-anchor: middle; visibility: inherit; font-family: Roboto, sans-serif; font-size: 12px; font-weight: 200;" fill="rgb(33, 33, 33)" stroke="none" stroke-width="1px">400</text><text x="232.03125" y="0" dx="0em" dy="0.95em" style="text-anchor: middle; visibility: hidden; font-family: Roboto, sans-serif; font-size: 12px; font-weight: 200;" fill="rgb(33, 33, 33)" stroke="none" stroke-width="1px">450</text><text x="255.234375" y="0" dx="0em" dy="0.95em" style="text-anchor: middle; visibility: inherit; font-family: Roboto, sans-serif; font-size: 12px; font-weight: 200;" fill="rgb(33, 33, 33)" stroke="none" stroke-width="1px">500</text><text x="278.4375" y="0" dx="0em" dy="0.95em" style="text-anchor: middle; visibility: hidden; font-family: Roboto, sans-serif; font-size: 12px; font-weight: 200;" fill="rgb(33, 33, 33)" stroke="none" stroke-width="1px">550</text></g><line x1="0" y1="0" x2="278.4375" y2="0" fill="rgb(0, 0, 0)" stroke="rgb(204, 204, 204)" stroke-width="1px"></line></g></g></g></g></svg>