<svg viewBox="0 0 301 200" xmlns="http://www.w3.org/2000/svg"><g><g><g><g><g><line x1="51.5625" y1="177" x2="46.5625" y2="177" style="visibility: inherit;" fill="rgb(0, 0, 0)" stroke="rgb(204, 204, 204)" stroke-width="1px"></line><line x1="51.5625" y1="157.33333333333331" x2="46.5625" y2="157.33333333333331" style="visibility: inherit;" fill="rgb(0, 0, 0)" stroke="rgb(204, 204, 204)" stroke-width="1px"></line><line x1="51.5625" y1="137.66666666666666" x2="46.5625" y2="137.66666666666666" style="visibility: inherit;" fill="rgb(0, 0, 0)" stroke="rgb(204, 204, 204)" stroke-width="1px"></line><line x1="51.5625" y1="118.00000000000001" x2="46.5625" y2="118.00000000000001" style="visibility: inherit;" fill="rgb(0, 0, 0)" stroke="rgb(204, 204, 204)" stroke-width="1px"></line><line x1="51.5625" y1="98.33333333333334" x2="46.5625" y2="98.33333333333334" style="visibility: inherit;" fill="rgb(0, 0, 0)" stroke="rgb(204, 204, 204)" stroke-width="1px"></line><line x1="51.5625" y1="78.66666666666666" x2="46.5625" y2="78.66666666666666" style="visibility: inherit;" fill="rgb(0, 0, 0)" stroke="rgb(204, 204, 204)" stroke-width="1px"></line><line x1="51.5625" y1="59.00000000000001" x2="46.5625" y2="59.00000000000001" style="visibility: inherit;" fill="rgb(0, 0, 0)" stroke="rgb(204, 204, 204)" stroke-width="1px"></line><line x1="51.5625" y1="39.33333333333333" x2="46.5625" y2="39.33333333333333" style="visibility: inherit;" fill="rgb(0, 0, 0)" stroke="rgb(204, 204, 204)" stroke-width="1px"></line><line x1="51.5625" y1="19.666666666666675" x2="46.5625" y2="19.666666666666675" style="visibility: inherit;" fill="rgb(0, 0, 0)" stroke="rgb(204, 204, 204)" stroke-width="1px"></line><line x1="51.5625" y1="0" x2="46.5625" y2="0" style="visibility: inherit;" fill="rgb(0, 0, 0)" stroke="rgb(204, 204, 204)" stroke-width="1px"></line></g><g transform="translate(41.5625, 0)"><text x="0" y="177" dx="0em" dy="0.3em" style="text-anchor: end; visibility: hidden; font-family: Roboto, sans-serif; font-size: 12px; font-weight: 200;" fill="rgb(33, 33, 33)" stroke="none" stroke-width="1px">-100</text><text x="0" y="157.33333333333331" dx="0em" dy="0.3em" style="text-anchor: end; visibility: inherit; font-family: Roboto, sans-serif; font-size: 12px; font-weight: 200;" fill="rgb(33, 33, 33)" stroke="none" stroke-width="1px">0</text><text x="0" y="137.66666666666666" dx="0em" dy="0.3em" style="text-anchor: end; visibility: hidden; font-family: Roboto, sans-serif; font-size: 12px; font-weight: 200;" fill="rgb(33, 33, 33)" stroke="none" stroke-width="1px">100</text><text x="0" y="118.00000000000001" dx="0em" dy="0.3em" style="text-anchor: end; visibility: inherit; font-family: Roboto, sans-serif; font-size: 12px; font-weight: 200;" fill="rgb(33, 33, 33)" stroke="none" stroke-width="1px">200</text><text x="0" y="98.33333333333334" dx="0em" dy="0.3em" style="text-anchor: end; visibility: hidden; font-family: Roboto, sans-serif; font-size: 12px; font-weight: 200;" fill="rgb(33, 33, 33)" stroke="none" stroke-width="1px">300</text><text x="0" y="78.66666666666666" dx="0em" dy="0.3em" style="text-anchor: end; visibility: inherit; font-family: Roboto, sans-serif; font-size: 12px; font-weight: 200;" fill="rgb(33, 33, 33)" stroke="none" stroke-width="1px">400</text><text x="0" y="59.00000000000001" dx="0em" dy="0.3em" style="text-anchor: end; visibility: hidden; font-family: Roboto, sans-serif; font-size: 12px; font-weight: 200;" fill="rgb(33, 33, 33)" stroke="none" stroke-width="1px">500</text><text x="0" y="39.33333333333333" dx="0em" dy="0.3em" style="text-anchor: end; visibility: inherit; font-family: Roboto, sans-serif; font-size: 12px; font-weight: 200;" fill="rgb(33, 33, 33)" stroke="none" stroke-width="1px">600</text><text x="0" y="19.666666666666675" dx="0em" dy="0.3em" style="text-anchor: end; visibility: hidden; font-family: Roboto, sans-serif; font-size: 12px; font-weight: 200;" fill="rgb(33, 33, 33)" stroke="none" stroke-width="1px">700</text><text x="0" y="0" dx="0em" dy="0.3em" style="text-anchor: end; visibility: hidden; font-family: Roboto, sans-serif; font-size: 12px; font-weight: 200;" fill="rgb(33, 33, 33)" stroke="none" stroke-width="1px">800</text></g><line x1="51.5625" y1="0" x2="51.5625" y2="177" fill="rgb(0, 0, 0)" stroke="rgb(204, 204, 204)" stroke-width="1px"></line></g></g><g transform="translate(51, 0)" clip-path="url(#clip_0)"><clipPath id="clip_0"><rect width="278" height="177"></rect></clipPath><g><g><g><line x1="0" y1="0" x2="0" y2="177" fill="rgb(0, 0, 0)" stroke="rgb(66, 66, 66)" stroke-width="1px" opacity="0.25"></line><line x1="23.203125" y1="0" x2="23.203125" y2="177" fill="rgb(0, 0, 0)" stroke="rgb(66, 66, 66)" stroke-width="1px" opacity="0.25"></line><line x1="46.40625" y1="0" x2="46.40625" y2="177" fill="rgb(0, 0, 0)" stroke="rgb(66, 66, 66)" stroke-width="1px" opacity="0.25"></line><line x1="69.609375" y1="0" x2="69.609375" y2="177" fill="rgb(0, 0, 0)" stroke="rgb(66, 66, 66)" stroke-width="1px" opacity="0.25"></line><line x1="92.8125" y1="0" x2="92.8125" y2="177" fill="rgb(0, 0, 0)" stroke="rgb(66, 66, 66)" stroke-width="1px" opacity="0.25"></line><line x1="116.015625" y1="0" x2="116.015625" y2="177" fill="rgb(0, 0, 0)" stroke="rgb(66, 66, 66)" stroke-width="1px" opacity="0.25"></line><line x1="139.21875" y1="0" x2="139.21875" y2="177" fill="rgb(0, 0, 0)" stroke="rgb(66, 66, 66)" stroke-width="1px" opacity="0.25"></line><line x1="162.421875" y1="0" x2="162.421875" y2="177" fill="rgb(0, 0, 0)" stroke="rgb(66, 66, 66)" stroke-width="1px" opacity="0.25"></line><line x1="185.625" y1="0" x2="185.625" y2="177" fill="rgb(0, 0, 0)" stroke="rgb(66, 66, 66)" stroke-width="1px" opacity="0.25"></line><line x1="208.828125" y1="0" x2="208.828125" y2="177" fill="rgb(0, 0, 0)" stroke="rgb(66, 66, 66)" stroke-width="1px" opacity="0.25"></line><line x1="232.03125" y1="0" x2="232.03125" y2="177" fill="rgb(0, 0, 0)" stroke="rgb(66, 66, 66)" stroke-width="1px" opacity="0.25"></line><line x1="255.234375" y1="0" x2="255.234375" y2="177" fill="rgb(0, 0, 0)" stroke="rgb(66, 66, 66)" stroke-width="1px" opacity="0.25"></line><line x1="278.4375" y1="0" x2="278.4375" y2="177" fill="rgb(0, 0, 0)" stroke="rgb(66, 66, 66)" stroke-width="1px" opacity="0.25"></line></g><g><line x1="0" y1="177" x2="278.4375" y2="177" fill="rgb(0, 0, 0)" stroke="rgb(66, 66, 66)" stroke-width="1px" opacity="0.25"></line><line x1="0" y1="157.33333333333331" x2="278.4375" y2="157.33333333333331" fill="rgb(0, 0, 0)" stroke="rgb(66, 66, 66)" stroke-width="1px" opacity="0.25"></line><line x1="0" y1="137.66666666666666" x2="278.4375" y2="137.66666666666666" fill="rgb(0, 0, 0)" stroke="rgb(66, 66, 66)" stroke-width="1px" opacity="0.25"></line><line x1="0" y1="118.00000000000001" x2="278.4375" y2="118.00000000000001" fill="rgb(0, 0, 0)" stroke="rgb(66, 66, 66)" stroke-width="1px" opacity="0.25"></line><line x1="0" y1="98.33333333333334" x2="278.4375" y2="98.33333333333334" fill="rgb(0, 0, 0)" stroke="rgb(66, 66, 66)" stroke-width="1px" opacity="0.25"></line><line x1="0" y1="78.66666666666666" x2="278.4375" y2="78.66666666666666" fill="rgb(0, 0, 0)" stroke="rgb(66, 66, 66)" stroke-width="1px" opacity="0.25"></line><line x1="0" y1="59.00000000000001" x2="278.4375" y2="59.00000000000001" fill="rgb(0, 0, 0)" stroke="rgb(66, 66, 66)" stroke-width="1px" opacity="0.25"></line><line x1="0" y1="39.33333333333333" x2="278.4375" y2="39.33333333333333" fill="rgb(0, 0, 0)" stroke="rgb(66, 66, 66)" stroke-width="1px" opacity="0.25"></line><line x1="0" y1="19.666666666666675" x2="278.4375" y2="19.666666666666675" fill="rgb(0, 0, 0)" stroke="rgb(66, 66, 66)" stroke-width="1px" opacity="0.25"></line><line x1="0" y1="0" x2="278.4375" y2="0" fill="rgb(0, 0, 0)" stroke="rgb(66, 66, 66)" stroke-width="1px" opacity="0.25"></line></g></g></g><g><g><line x1="0" y1="157.33333333333331" x2="278.4375" y2="157.33333333333331" fill="rgb(0, 0, 0)" stroke="rgb(153, 153, 153)" stroke-width="1.5px"></line></g></g><g><g><line x1="23.203125" y1="0" x2="23.203125" y2="177" fill="rgb(0, 0, 0)" stroke="rgb(153, 153, 153)" stroke-width="1.5px"></line></g></g><g><g><g><g><g><path stroke="rgb(0, 153, 136)" stroke-width="2px" d="M23.203125,12.270360310872388L23.6671875,12.27002271016438L24.13125,12.269796877491244L24.5953125,12.269686212726691L25.059375,12.269629766785016L25.523437499999996,12.269593809396186L25.9875,12.269568399853963L26.4515625,12.269558500596016L26.915625,12.269552668537008L27.3796875,12.269554037786952L27.84375,12.269554854018867L28.3078125,12.269555341858652L28.771875,12.269555633881989L29.2359375,12.269560614049567L29.700000000000003,12.269573207033051L30.1640625,12.269595167394272L30.628125,12.269637153116264L31.092187499999998,12.269691151520496L31.55625,12.269761960852124L32.0203125,12.269862062983654L32.484375,12.269989343446957L32.9484375,12.270156938352217L33.4125,12.27040153798989L33.8765625,12.270754759103037L34.340625,12.271283586131949L34.8046875,12.272229870090262L35.268750000000004,12.275011101984033L35.7328125,12.28240315010482L36.196875,12.30532389720612L36.660937499999996,12.367004247792917L37.125,12.498197357744433L37.589062500000004,12.72014475067008L38.053124999999994,13.144352007377533L38.5171875,14.45245466638435L38.98125,19.24847125467339L39.4453125,29.824313656158587L39.909375000000004,47.71666358111744L40.373437499999994,64.35417891520136L40.8375,76.4465310577022L41.3015625,91.16983804720634L41.765625,102.77681982982067L42.229687500000004,112.25624400206355L42.693749999999994,119.02899459248405L43.1578125,123.60173000823576L43.621875,126.26630127019239L44.0859375,126.9581062829919L44.550000000000004,126.79468872096089L45.014062499999994,126.80585156265491L45.478125,126.63555406910108L45.9421875,125.26912123946391L46.40625,123.90248283481756L46.8703125,125.14102265987852L47.334375,124.09085000543048L47.7984375,123.86442683268513L48.2625,123.06808670263791L48.7265625,119.71328360117134L49.190625,119.15771206337195L49.6546875,120.8426440023463L50.11875,122.85127837731942L50.5828125,122.36476676190595L51.04687499999999,122.51355445411623L51.5109375,124.20479134353099L51.975,121.55305054667843L52.4390625,123.34713346928311L52.903125,123.66368934263758L53.36718750000001,123.61385134158515L53.83125,123.16967856211254L54.2953125,124.29621684592638L54.759375,124.14109231051808L55.2234375,123.92770569962465L55.6875,124.15532782651307L56.1515625,124.51526733392868L56.615625,124.98767433671789L57.0796875,125.21529348549429L57.54375,125.46383917723406L58.0078125,125.62269789517507L58.471875,125.75763934664279L58.9359375,125.0284201354922L59.400000000000006,124.60490519001927L59.864062499999996,125.04230810424595L60.328125,125.57286423266476L60.7921875,126.08083407914962L61.25625,126.16758894846635L61.720312500000006,125.90830259596783L62.184374999999996,125.61967349280205L62.6484375,125.56303879620208L63.1125,125.80983853651031L63.5765625,126.23673155208195L64.040625,126.53245397031169L64.5046875,126.61425729429638L64.96875,126.62045649653226L65.4328125,126.86042929342717L65.896875,127.2043542150537L66.3609375,127.46776698866763L66.825,127.65186242301829L67.2890625,127.8629180926456L67.753125,128.1169875092332L68.2171875,128.49992551742145L68.68125,128.91004812458047L69.1453125,129.25239280703994L69.609375,129.6053680369258L70.0734375,130.02791444601613L70.53750000000001,130.48689677958888L71.0015625,131.03745386365176L71.465625,131.55352071906995L71.92968750000001,132.12058362284822L72.39375,132.71681512935672L72.8578125,133.38828622116873L73.32187499999999,134.0537826152696L73.7859375,134.72223014045082L74.25,135.37865923091763L74.7140625,136.06882147442298L75.17812500000001,136.74558957654833L75.6421875,137.39522469726361L76.10624999999999,137.94119636214072L76.5703125,138.46032650055267L77.034375,138.9987466815816L77.4984375,139.55524082714558L77.9625,140.16210234133942L78.4265625,140.60350010312723L78.890625,141.1161304777292L79.3546875,141.43762685434584L79.81875000000001,141.89425175144214L80.2828125,142.2762403107123L80.74687499999999,142.643741704331L81.2109375,142.9216166554925L81.675,143.3075558188977L82.1390625,143.76718194918368L82.603125,144.085145412186L83.0671875,144.41766987365438L83.53125,144.54122919266592L83.99531250000001,144.77557057427467L84.45937500000001,144.77479572896422L84.92343749999999,144.76184799808817L85.38749999999999,144.41725228233273L85.8515625,144.37424950172385L86.315625,143.80138404144773L86.7796875,144.18245327337937L87.24375,144.35103279573335L87.7078125,144.31702139049338L88.171875,144.76086083437744L88.63593750000001,145.47775761492497L89.10000000000001,145.3149824142105L89.56406249999999,144.06875077054778L90.02812499999999,142.9195394231034L90.4921875,140.8580225430222L90.95625,140.03233108359328L91.4203125,140.2393171377048L91.884375,140.71767802066L92.3484375,141.43108034348325L92.8125,141.72649297334254L93.27656250000001,142.47392984162272L93.740625,142.63701703379851L94.20468749999999,142.8598284250317L94.66875,143.45780475969022L95.1328125,143.5930688828324L95.596875,144.03544030837782L96.0609375,144.49168108566144L96.525,145.07272982245806L96.9890625,145.35591734293774L97.453125,145.6979531004648L97.91718750000001,145.6363295537603L98.38125,146.22505737581088L98.84531249999999,146.4848257869774L99.309375,146.9849591318544L99.7734375,146.98511767068166L100.2375,147.17906222024754L100.70156250000001,146.90452514139332L101.165625,147.29493909403197L101.6296875,147.46236173115875L102.09374999999999,147.90098199027403L102.5578125,147.9811325494704L103.021875,147.95770255010868L103.48593749999999,147.80886534516938L103.95,148.12284492324747L104.4140625,148.21642658895826L104.878125,148.56370113261485L105.34218750000001,148.64664164412784L105.80625,148.64146466176967L106.2703125,148.50844791937627L106.73437500000001,148.73947809915992L107.1984375,148.95168325842175L107.6625,149.20420730205825L108.12656249999999,149.35276284559043L108.590625,149.3107558518855L109.0546875,149.3991553442205L109.51875,149.42079337234446L109.98281250000001,149.4648735657244L110.446875,149.5376350972797L110.91093749999999,149.70804082602731L111.375,149.82726212785923L111.8390625,150.01838478322597L112.303125,150.10400761045477L112.7671875,150.13733482343434L113.23125,150.23336393218722L113.6953125,150.2933674091984L114.159375,150.50903519059554L114.62343750000001,150.5715158968687L115.0875,150.66976284520945L115.55156249999999,150.73054606161784L116.015625,150.69911113509897L116.4796875,150.6685010743699L116.94375,150.60730206063758L117.4078125,150.72712494976145L117.871875,150.94083363735768L118.3359375,151.07969387239672L118.80000000000001,151.2133044164963L119.26406250000001,151.28048301865184L119.72812499999999,151.3862520075412L120.19218749999999,151.4570268825236L120.65625,151.45644171545163L121.1203125,151.418977344131L121.584375,151.51954982810946L122.0484375,151.58780998007694L122.5125,151.70826638660574L122.9765625,151.7739403617486L123.44062500000001,151.86169547010093L123.90468750000001,151.94392100673096L124.36874999999999,151.9545515328716L124.83281249999999,151.9913028089645L125.296875,152.0415490854845L125.7609375,152.10889864888185L126.225,152.14614544339813L126.6890625,152.24010733287236L127.153125,152.24006328583184L127.6171875,152.30486489614103L128.08125,152.34952138519438L128.5453125,152.3962505254119L129.009375,152.50064293660535L129.47343750000002,152.57497917372672L129.9375,152.6019781149945L130.4015625,152.70700652791191L130.865625,152.7171159930614L131.3296875,152.79420550892277L131.79375,152.72498882303353L132.2578125,152.68828740189304L132.721875,152.7518465281516L133.1859375,152.79326753399707L133.65,152.80802362566357L134.11406250000002,152.9358201619297L134.578125,152.97637825896203L135.04218749999998,153.06810887167768L135.50625,153.11562549553264L135.9703125,153.1871297452566L136.434375,153.17809505194725L136.8984375,153.2553667535601L137.3625,153.22297863266178L137.8265625,153.25790817670807L138.290625,153.22809810884468L138.75468750000002,153.1931344237785L139.21875,153.217904109569L139.6828125,153.2398547856877L140.146875,153.29788797415512L140.6109375,153.36241794989834L141.07500000000002,153.4605337040007L141.5390625,153.5955735284714L142.003125,153.5864272749401L142.46718750000002,153.6616296931094L142.93125,153.64092245697893L143.39531250000002,153.69217516048698L143.85937500000003,153.64372280564277L144.32343749999998,153.61658006806994L144.7875,153.64925733140998L145.25156249999998,153.62768030420082L145.715625,153.57335234349054L146.1796875,153.53459352889706L146.64374999999998,153.7032088761273L147.1078125,153.84072822789804L147.571875,153.8515787620969L148.0359375,153.97936846087143L148.5,153.97688106594342L148.9640625,154.0501667356761L149.428125,154.0100087913039L149.8921875,154.04855486076053L150.35625000000002,153.99672374185508L150.8203125,153.99414137707106L151.284375,154.02575605121822L151.74843750000002,153.9422631908709L152.21249999999998,153.88782908049748L152.6765625,153.8508551275384L153.140625,154.0174736516268L153.60468749999998,154.05148921620395L154.06875,154.0954009658389L154.5328125,154.1346138285573L154.996875,154.11317905864968L155.4609375,154.19897817747903L155.925,154.13735165868468L156.3890625,154.1627233960287L156.853125,154.21560992364422L157.3171875,154.20922814570469L157.78125,154.17509161306978L158.2453125,154.14857354287443L158.709375,154.25925658935788L159.1734375,154.257273540305L159.63750000000002,154.2720714300912L160.1015625,154.26502966479705L160.565625,154.33354998093594L161.02968750000002,154.359749447078L161.49374999999998,154.33059238980442L161.9578125,154.31021437019245L162.421875,154.4073779901473L162.88593749999998,154.3867959817613L163.35,154.36226734354287L163.8140625,154.34823586516097L164.278125,154.4485663436205L164.7421875,154.39027233384158L165.20625,154.35771539971492L165.6703125,154.36458491558986L166.134375,154.55754035517668L166.59843750000002,154.62722422022676L167.0625,154.6119573628449L167.5265625,154.644532498253L167.99062500000002,154.62584362411457L168.4546875,154.6552819262184L168.91875000000002,154.54189528971338L169.38281249999997,154.61901780813588L169.84687499999998,154.67123481716504L170.3109375,154.6212494657385L170.77499999999998,154.54002082049533L171.2390625,154.5665829955321L171.703125,154.68301097743398L172.16718749999998,154.6992549736064L172.63125,154.63681138667033L173.0953125,154.69644992633204L173.559375,154.73101333628222L174.0234375,154.8670123151747L174.4875,154.79238539940957L174.9515625,154.87982516563045L175.415625,154.83920035653972L175.87968750000002,154.9129328370114L176.34375,154.80999612188458L176.8078125,154.85139166523686L177.27187500000002,154.8493592758755L177.7359375,154.89097386986694L178.20000000000002,154.77335134055622L178.66406250000003,154.78869442732974L179.12812499999998,154.80388413940975L179.5921875,154.94929307418133L180.05624999999998,154.8809837322855L180.5203125,154.959736920839L180.984375,154.91786517292982L181.44843749999998,155.01641861751116L181.9125,154.96476048498016L182.3765625,155.0334068789601L182.840625,154.97713254188614L183.3046875,155.0588470376439L183.76875,154.9851281688754L184.2328125,155.01889168887203L184.696875,154.9805131342542L185.16093750000002,155.03617322428218L185.625,154.98056917911683L186.0890625,154.96081761220643L186.55312500000002,154.92672208638717L187.01718749999998,154.9038306697909L187.48125,154.90093392789586L187.9453125,154.9701887352877L188.40937499999998,155.01705507975498L188.8734375,155.16780286698548L189.3375,155.16088201850062L189.8015625,155.26625513145967L190.265625,155.2121436224956L190.7296875,155.26906843312057L191.19375,155.2021434168466L191.6578125,155.21288861587337L192.121875,155.1721262524606L192.5859375,155.22133188347507L193.05,155.15736972487264L193.5140625,155.1749853076714L193.978125,155.16049695751136L194.44218750000002,155.15790536749998L194.90625,155.13423876747672L195.3703125,155.00510257139914L195.83437500000002,155.04260645454195L196.29843749999998,155.12041243178686L196.7625,155.19349766888047L197.2265625,155.31008090749077L197.69062499999998,155.30246978879785L198.1546875,155.37641583832593L198.61875,155.35422713895136L199.0828125,155.38877077026862L199.546875,155.3564812592091L200.0109375,155.35547475660374L200.475,155.3187450285228L200.9390625,155.33538738017114L201.40312500000002,155.32227775179246L201.8671875,155.3735978051994L202.33125,155.3423133945251L202.79531250000002,155.3417683849206L203.259375,155.3473555433832L203.72343750000002,155.32628550315394L204.18749999999997,155.31798810003895L204.65156249999998,155.19904526201105L205.115625,155.20547153993778L205.57968749999998,155.15895713101426L206.04375,155.23497916370988L206.5078125,155.3392989708008L206.97187499999998,155.40922879399986L207.4359375,155.48969717579362L207.9,155.48265662716196L208.3640625,155.5018959223014L208.828125,155.50424190569612L209.2921875,155.50771861296113L209.75625,155.49911964993404L210.2203125,155.5044709074938L210.68437500000002,155.47877628941004L211.1484375,155.5202186799367L211.6125,155.469711005071L212.07656250000002,155.49718406052142L212.540625,155.48017752844544L213.00468750000002,155.4960573901243L213.46875000000003,155.49758139452382L213.93281249999998,155.47907220300658L214.396875,155.46242516003028L214.86093749999998,155.3953580323178L215.325,155.4111236125222L215.7890625,155.2566870446597L216.25312499999998,155.30189110507138L216.7171875,155.22700336116296L217.18125,155.36455845183775L217.6453125,155.49490334375687L218.109375,155.60110510490728L218.5734375,155.66354117828047L219.0375,155.61628372516694L219.5015625,155.5796657632577L219.96562500000002,155.66790642524487L220.4296875,155.68680172791915L220.89375,155.69566842256486L221.35781250000002,155.70749513033132L221.82187499999998,155.6227687889125L222.2859375,155.57560863052524L222.75,155.56876601017348L223.21406249999998,155.6449736207932L223.678125,155.65703234447298L224.1421875,155.7100260536666L224.60625,155.70166647550238L225.0703125,155.71712928746206L225.534375,155.70754747375287L225.9984375,155.69464897782268L226.4625,155.72004824060596L226.9265625,155.70915930401324L227.390625,155.71967200198395L227.8546875,155.69838443898334L228.31875,155.68518802473847L228.7828125,155.61767487360976L229.24687500000002,155.61707626307373L229.7109375,155.40477932463705L230.175,155.45524321276318L230.63906250000002,155.35946009086592L231.10312499999998,155.5419902234496L231.5671875,155.65094330945936L232.03125,155.78410935941932L232.49531249999998,155.81526413605766L232.959375,155.78718805062468L233.4234375,155.7733329414588L233.8875,155.77282235347798L234.3515625,155.7873191165342L234.815625,155.86389487263048L235.2796875,155.8731346893101L235.74375,155.84310679307316L236.20781250000002,155.8225626638973L236.671875,155.7785020949509L237.1359375,155.8162469116489L237.60000000000002,155.8676469538792L238.0640625,155.93099053769413L238.52812500000002,155.90847373367808L238.99218749999997,155.94345684203384L239.45624999999998,155.90610195251034L239.9203125,155.83650256783798L240.38437499999998,155.82681279113513L240.8484375,155.7367262486455L241.3125,155.78853397662465L241.77656249999998,155.76187613853827L242.240625,155.84679966510743L242.7046875,155.85421956957225L243.16875,155.9209622188857L243.6328125,155.91595199309492L244.096875,155.95660078010582L244.5609375,155.91038997945162L245.025,155.94306007816576L245.48906250000002,155.91082377374678L245.953125,155.96530573809451L246.4171875,155.95738522762642L246.88125000000002,155.99693873799592L247.3453125,155.99237259020458L247.80937500000002,156.00616577086876L248.27343750000003,155.96328699456473L248.73749999999998,155.93241641950698L249.2015625,155.82985835619027L249.66562499999998,155.80690456462256L250.1296875,155.54030510754794L250.59375,155.6278699211165L251.05781249999998,155.66233861882796L251.521875,155.87217286276405L251.9859375,155.92081686310522L252.45,155.98471334250303L252.9140625,156.00384583857573L253.378125,155.97063041599742L253.8421875,156.07849991046677L254.30625,155.9727234966951L254.77031250000002,155.8944210726061" style="fill: none;" fill="none"></path></g></g></g></g><g opacity="0.2"><g><g><g><path stroke="rgb(0, 153, 136)" stroke-width="2px" d="M23.203125,12.270360310872388L23.6671875,12.269820149739582L24.13125,12.269580078125003L24.5953125,12.269556070963533L25.059375,12.269556070963533L25.523437499999996,12.269544067382808L25.9875,12.269532063802083L26.4515625,12.269544067382808L26.915625,12.269544067382808L27.3796875,12.269556070963533L27.84375,12.269556070963533L28.3078125,12.269556070963533L28.771875,12.269556070963533L29.2359375,12.269568074544278L29.700000000000003,12.269592081705728L30.1640625,12.269628092447922L30.628125,12.269700113932293L31.092187499999998,12.269772135416662L31.55625,12.269868164062503L32.0203125,12.270012207031243L32.484375,12.270180257161453L32.9484375,12.270408325195307L33.4125,12.270768432617196L33.8765625,12.271284586588552L34.340625,12.272076822916661L34.8046875,12.273649291992193L35.268750000000004,12.279182942708333L35.7328125,12.2934912109375L36.196875,12.339704996744787L36.660937499999996,12.459524739583326L37.125,12.69498697916667L37.589062500000004,13.053065795898432L38.053124999999994,13.780662841796874L38.5171875,16.414608561197927L38.98125,26.442495930989583L39.4453125,45.688076985677085L39.909375000000004,74.55518819173176L40.373437499999994,89.31045176188151L40.8375,94.58505920410155L41.3015625,113.25479848225912L41.765625,120.18729248046876L42.229687500000004,126.47538024902342L42.693749999999994,129.1881204732259L43.1578125,130.46083312988281L43.621875,130.26315816243488L44.0859375,127.99581380208332L44.550000000000004,126.54956237792969L45.014062499999994,126.82259582519531L45.478125,126.38010782877605L45.9421875,123.2194719950358L46.40625,121.85252522786459L46.8703125,126.99883239746094L47.334375,122.51559102376302L47.7984375,123.52479207356771L48.2625,121.87357650756836L48.7265625,114.6810789489746L49.190625,118.32435475667319L49.6546875,123.37004191080729L50.11875,125.86422993977865L50.5828125,121.63499933878579L51.04687499999999,122.73673599243166L51.5109375,126.74164667765298L51.975,117.57543935139975L52.4390625,126.0382578531901L52.903125,124.13852315266926L53.36718750000001,123.53909434000653L53.83125,122.50341939290365L54.2953125,125.98602427164715L54.759375,123.9084055074056L55.2234375,123.6076257832845L55.6875,124.4967610168457L56.1515625,125.05517659505209L56.615625,125.6962848409017L57.0796875,125.55672220865885L57.54375,125.83665771484374L58.0078125,125.86098597208658L58.471875,125.96005152384441L58.9359375,123.93459131876628L59.400000000000006,123.9696327718099L59.864062499999996,125.69841247558594L60.328125,126.36869842529295L60.7921875,126.84278884887694L61.25625,126.29772125244139L61.720312500000006,125.51937306722004L62.184374999999996,125.1867298380534L62.6484375,125.47808675130207L63.1125,126.18003814697265L63.5765625,126.87707107543947L64.040625,126.97603759765624L64.5046875,126.73696228027345L64.96875,126.62975529988607L65.4328125,127.22038848876953L65.896875,127.7202415974935L66.3609375,127.86288614908855L66.825,127.92800557454427L67.2890625,128.17950159708658L67.753125,128.4980916341146L68.2171875,129.07433252970378L68.68125,129.52523203531902L69.1453125,129.76590983072916L69.609375,130.13483088175454L70.0734375,130.6617340596517L70.53750000000001,131.1753702799479L71.0015625,131.8632894897461L71.465625,132.32762100219728L71.92968750000001,132.9711779785156L72.39375,133.61116238911947L72.8578125,134.3954928588867L73.32187499999999,135.05202720642092L73.7859375,135.72490142822264L74.25,136.36330286661783L74.7140625,137.104064839681L75.17812500000001,137.7607417297363L75.6421875,138.3696773783366L76.10624999999999,138.76015385945638L76.5703125,139.23902170817058L77.034375,139.80637695312498L77.4984375,140.38998204549154L77.9625,141.0723946126302L78.4265625,141.26559674580892L78.890625,141.88507603963217L79.3546875,141.91987141927083L79.81875000000001,142.57918909708658L80.2828125,142.84922314961753L80.74687499999999,143.1949937947591L81.2109375,143.3384290822347L81.675,143.88646456400554L82.1390625,144.45662114461263L82.603125,144.56209060668945L83.0671875,144.91645656585692L83.53125,144.72656817118326L83.99531250000001,145.12708264668782L84.45937500000001,144.77363346099855L84.92343749999999,144.7424264017741L85.38749999999999,143.90035870869954L85.8515625,144.30974533081056L86.315625,142.94208585103354L86.7796875,144.75405712127684L87.24375,144.60390207926432L87.7078125,144.26600428263347L88.171875,145.42662000020346L88.63593750000001,146.55310278574626L89.10000000000001,145.07081961313884L89.56406249999999,142.19940330505372L90.02812499999999,141.19572240193685L90.4921875,137.7657472229004L90.95625,138.79379389444986L91.4203125,140.54979621887207L91.884375,141.43521934509278L92.3484375,142.50118382771808L92.8125,142.16961191813152L93.27656250000001,143.59508514404297L93.740625,142.88164782206218L94.20468749999999,143.1940455118815L94.66875,144.35476926167806L95.1328125,143.79596506754558L95.596875,144.69899744669596L96.0609375,145.17604225158692L96.525,145.94430292765298L96.9890625,145.78069862365723L97.453125,146.21100673675537L97.91718750000001,145.5438942337036L98.38125,147.10814910888672L98.84531249999999,146.8744784037272L99.309375,147.73515914916993L99.7734375,146.98535547892251L100.2375,147.46997904459636L100.70156250000001,146.492719523112L101.165625,147.8805600229899L101.6296875,147.71349568684897L102.09374999999999,148.55891237894693L102.5578125,148.10135838826497L103.021875,147.9225575510661L103.48593749999999,147.5856095377604L103.95,148.5938142903646L104.4140625,148.35679908752442L104.878125,149.08461294809976L105.34218750000001,148.7710524113973L105.80625,148.6336991882324L106.2703125,148.30892280578612L106.73437500000001,149.08602336883544L107.1984375,149.26999099731447L107.6625,149.582993367513L108.12656249999999,149.5755961608887L108.590625,149.24774536132813L109.0546875,149.53175458272298L109.51875,149.45325041453043L109.98281250000001,149.5309938557943L110.446875,149.64677739461263L110.91093749999999,149.96364941914877L111.375,150.00609408060708L111.8390625,150.30506876627604L112.303125,150.232441851298L112.7671875,150.18732564290363L113.23125,150.37740759531655L113.6953125,150.38337262471518L114.159375,150.83253686269126L114.62343750000001,150.66523695627848L115.0875,150.81713326772052L115.55156249999999,150.82172088623048L116.015625,150.65195874532063L116.4796875,150.62258598327637L116.94375,150.51550354003905L117.4078125,150.90685928344726L117.871875,151.26139666875204L118.3359375,151.28798422495524L118.80000000000001,151.41372023264566L119.26406250000001,151.38125092188517L119.72812499999999,151.54490549087527L120.19218749999999,151.56318919499716L120.65625,151.45556396484375L121.1203125,151.36278078715006L121.584375,151.67040855407717L122.0484375,151.69020020802816L122.5125,151.88895099639893L122.9765625,151.87245132446287L123.44062500000001,151.9933281326294L123.90468750000001,152.06725931167603L124.36874999999999,151.9704973220825L124.83281249999999,152.04642972310384L125.296875,152.1169185002645L125.7609375,152.20992299397787L126.225,152.20201563517253L126.6890625,152.38105016708374L127.153125,152.239997215271L127.6171875,152.4020673116048L128.08125,152.41650611877444L128.5453125,152.46634423573812L129.009375,152.6572315533956L129.47343750000002,152.68648352940878L129.9375,152.64247652689616L130.4015625,152.86454914728802L130.865625,152.73228019078573L131.3296875,152.90983978271484L131.79375,152.62116379419962L132.2578125,152.6332352701823L132.721875,152.84718521753948L133.1859375,152.8553990427653L133.65,152.83015776316327L134.11406250000002,153.12751496632893L134.578125,153.0372154045105L135.04218749999998,153.20570479075113L135.50625,153.1869004313151L135.9703125,153.29438611984253L136.434375,153.16454301198326L136.8984375,153.3712743059794L137.3625,153.1743964513143L137.8265625,153.3103024927775L138.290625,153.18338300704954L138.75468750000002,153.1406888961792L139.21875,153.2550586382548L139.6828125,153.27278079986573L140.146875,153.3849377568563L140.6109375,153.45921291351317L141.07500000000002,153.60770733515423L141.5390625,153.7981332651774L142.003125,153.57270789464314L142.46718750000002,153.77443332036336L142.93125,153.6098616027832L143.39531250000002,153.7690542157491L143.85937500000003,153.57104427337646L144.32343749999998,153.5758659617106L144.7875,153.69827322642007L145.25156249999998,153.59531476338705L145.715625,153.49186040242512L146.1796875,153.47645530700683L146.64374999999998,153.95613189697266L147.1078125,154.0470072555542L147.571875,153.86785456339518L148.0359375,154.17105300903322L148.5,153.97314997355144L148.9640625,154.16009524027507L149.428125,153.9497718747457L149.8921875,154.10637396494548L150.35625000000002,153.9189770634969L150.8203125,153.99026782989503L151.284375,154.07317806243896L151.74843750000002,153.81702390034994L152.21249999999998,153.80617791493734L152.6765625,153.79539419809976L153.140625,154.2674014377594L153.60468749999998,154.10251256306967L154.06875,154.16126859029134L154.5328125,154.1934331226349L154.996875,154.08102690378826L155.4609375,154.32767685572307L155.925,154.04491188049315L156.3890625,154.2007810020447L156.853125,154.29493971506756L157.3171875,154.19965547879536L157.78125,154.1238868141174L158.2453125,154.1087964375814L158.709375,154.42528115908306L159.1734375,154.25429896672566L159.63750000000002,154.2942682647705L160.1015625,154.25446701685587L160.565625,154.43633045514426L161.02968750000002,154.3990486462911L161.49374999999998,154.28685680389404L161.9578125,154.27964734077452L162.421875,154.55312342007954L162.88593749999998,154.35592296918233L163.35,154.3254743862152L163.8140625,154.3271886475881L164.278125,154.5990620613098L164.7421875,154.30283131917318L165.20625,154.308879998525L165.6703125,154.37488918940227L166.134375,154.84697351455688L166.59843750000002,154.73175001780191L167.0625,154.58905707677206L167.5265625,154.69339520136515L167.99062500000002,154.5978103129069L168.4546875,154.69943937937418L168.91875000000002,154.37181533495587L169.38281249999997,154.73470158576964L169.84687499999998,154.74956033070882L170.3109375,154.54627143859864L170.77499999999998,154.41817785263063L171.2390625,154.60642625808714L171.703125,154.85765295028688L172.16718749999998,154.723620967865L172.63125,154.54314600626628L173.0953125,154.7859077358246L173.559375,154.7828584512075L174.0234375,155.0710107835134L174.4875,154.68044502576194L174.9515625,155.01098481496174L175.415625,154.77826314290365L175.87968750000002,155.0235315577189L176.34375,154.65559104919433L176.8078125,154.9134849802653L177.27187500000002,154.8463106918335L177.7359375,154.95339576085408L178.20000000000002,154.59691754659016L178.66406250000003,154.81170905749005L179.12812499999998,154.8266687075297L179.5921875,155.16740647633873L180.05624999999998,154.77851971944173L180.5203125,155.07786670366923L180.984375,154.8550575510661L181.44843749999998,155.16424878438312L181.9125,154.88727328618367L182.3765625,155.13637646993L182.840625,154.89272103627525L183.3046875,155.1814187812805L183.76875,154.87454986572266L184.2328125,155.069536968867L184.696875,154.9229453023275L185.16093750000002,155.11966335932414L185.625,154.89716311136883L186.0890625,154.9311902618408L186.55312500000002,154.87557879765828L187.01718749999998,154.86949354489644L187.48125,154.89658881505332L187.9453125,155.07407094637554L188.40937499999998,155.0873545964559L188.8734375,155.3939245478312L189.3375,155.15050074577331L189.8015625,155.42431480089823L190.265625,155.1309763590495L190.7296875,155.35445564905802L191.19375,155.1017558924357L191.6578125,155.22900641441345L192.121875,155.11098270734152L192.5859375,155.29514032999674L193.05,155.061426486969L193.5140625,155.2014086818695L193.978125,155.13876443227133L194.44218750000002,155.1540179824829L194.90625,155.0987388674418L195.3703125,154.81139827728273L195.83437500000002,155.09886227925617L196.29843749999998,155.23712139765422L196.7625,155.30312552452088L197.2265625,155.48495576540628L197.69062499999998,155.29105311075847L198.1546875,155.487334912618L198.61875,155.32094408988954L199.0828125,155.4405862172445L199.546875,155.30804699261984L200.0109375,155.3539650026957L200.475,155.26365043640135L200.9390625,155.36035090764364L201.40312500000002,155.30261330922445L201.8671875,155.45057788530985L202.33125,155.2953867785136L202.79531250000002,155.34095087051392L203.259375,155.35573628107707L203.72343750000002,155.29468044281006L204.18749999999997,155.3055419953664L204.65156249999998,155.0206310049693L205.115625,155.2151109568278L205.57968749999998,155.08918551762898L206.04375,155.34901221275328L206.5078125,155.49577868143717L206.97187499999998,155.51412352879842L207.4359375,155.6103997484843L207.9,155.4720958042145L208.3640625,155.53075486501058L208.828125,155.50776088078817L209.2921875,155.51293367385864L209.75625,155.48622120539346L210.2203125,155.5124977938334L210.68437500000002,155.44023436228434L211.1484375,155.58238226572672L211.6125,155.39394949277244L212.07656250000002,155.5383936436971L212.540625,155.4546677303314L213.00468750000002,155.5198771826426L213.46875000000003,155.49986740112305L213.93281249999998,155.45130841573078L214.396875,155.4374545955658L214.86093749999998,155.2947573407491L215.325,155.43477198282878L215.7890625,155.025032192866L216.25312499999998,155.3696971956889L216.7171875,155.11467174530029L217.18125,155.57089108784993L217.6453125,155.69042068163554L218.109375,155.7604077466329L218.5734375,155.75719528834026L219.0375,155.54539754549663L219.5015625,155.52473882039388L219.96562500000002,155.8002674182256L220.4296875,155.71514468193055L220.89375,155.70896846453348L221.35781250000002,155.725235191981L221.82187499999998,155.49567927678427L222.2859375,155.50486839294433L222.75,155.5585020796458L223.21406249999998,155.75928503672282L223.678125,155.6751204299927L224.1421875,155.78951661745708L224.60625,155.689127108256L225.0703125,155.74032350540162L225.534375,155.69317475318908L225.9984375,155.6753012339274L226.4625,155.75814713478087L226.9265625,155.69282589912413L227.390625,155.73544104894003L227.8546875,155.66645309448242L228.31875,155.66539340337118L228.7828125,155.51640514691672L229.24687500000002,155.6161783472697L229.7109375,155.086333916982L230.175,155.5309390449524L230.63906250000002,155.21578540802003L231.10312499999998,155.81578542232515L231.5671875,155.814372938474L232.03125,155.98385843435923L232.49531249999998,155.86199630101524L232.959375,155.74507392247517L233.4234375,155.75255027770996L233.8875,155.77205647150677L234.3515625,155.80906426111858L234.815625,155.9787585067749L235.2796875,155.88699441432954L235.74375,155.79806494871775L236.20781250000002,155.79174647013346L236.671875,155.71241124153138L237.1359375,155.87286413669585L237.60000000000002,155.9447470172246L238.0640625,156.02600591341655L238.52812500000002,155.87469852765403L238.99218749999997,155.99593150456747L239.45624999999998,155.8500696182251L239.9203125,155.73210349082947L240.38437499999998,155.81227812608083L240.8484375,155.6015964349111L241.3125,155.86624556859334L241.77656249999998,155.7218893814087L242.240625,155.97418495496115L242.7046875,155.86534942626955L243.16875,156.02107619285582L243.6328125,155.90843665440877L244.096875,156.01757396062214L244.5609375,155.84107377847036L245.025,155.99206522623697L245.48906250000002,155.86246931711833L245.953125,156.0470286846161L246.4171875,155.94550446192423L246.88125000000002,156.05626900355023L247.3453125,155.98552336851756L247.80937500000002,156.02685554186505L248.27343750000003,155.89896883010863L248.73749999999998,155.88611055692036L249.2015625,155.67602126121523L249.66562499999998,155.772473877271L250.1296875,155.14040592193604L250.59375,155.75921714146932L251.05781249999998,155.71404166539511L251.521875,156.1869242286682L251.9859375,155.99378286361696L252.45,156.08055806159973L252.9140625,156.03254458268484L253.378125,155.9208072821299L253.8421875,156.2403041521708L254.30625,155.8140588760376L254.77031250000002,155.77696743647257" style="fill: none;" fill="none"></path></g></g></g></g></g></g><g transform="translate(51, 177)" clip-path="url(#clip_1)"><clipPath id="clip_1"><rect width="278" height="23"></rect></clipPath><g><g><line x1="0" y1="0" x2="0" y2="5" style="visibility: inherit;" fill="rgb(0, 0, 0)" stroke="rgb(204, 204, 204)" stroke-width="1px"></line><line x1="23.203125" y1="0" x2="23.203125" y2="5" style="visibility: inherit;" fill="rgb(0, 0, 0)" stroke="rgb(204, 204, 204)" stroke-width="1px"></line><line x1="46.40625" y1="0" x2="46.40625" y2="5" style="visibility: inherit;" fill="rgb(0, 0, 0)" stroke="rgb(204, 204, 204)" stroke-width="1px"></line><line x1="69.609375" y1="0" x2="69.609375" y2="5" style="visibility: inherit;" fill="rgb(0, 0, 0)" stroke="rgb(204, 204, 204)" stroke-width="1px"></line><line x1="92.8125" y1="0" x2="92.8125" y2="5" style="visibility: inherit;" fill="rgb(0, 0, 0)" stroke="rgb(204, 204, 204)" stroke-width="1px"></line><line x1="116.015625" y1="0" x2="116.015625" y2="5" style="visibility: inherit;" fill="rgb(0, 0, 0)" stroke="rgb(204, 204, 204)" stroke-width="1px"></line><line x1="139.21875" y1="0" x2="139.21875" y2="5" style="visibility: inherit;" fill="rgb(0, 0, 0)" stroke="rgb(204, 204, 204)" stroke-width="1px"></line><line x1="162.421875" y1="0" x2="162.421875" y2="5" style="visibility: inherit;" fill="rgb(0, 0, 0)" stroke="rgb(204, 204, 204)" stroke-width="1px"></line><line x1="185.625" y1="0" x2="185.625" y2="5" style="visibility: inherit;" fill="rgb(0, 0, 0)" stroke="rgb(204, 204, 204)" stroke-width="1px"></line><line x1="208.828125" y1="0" x2="208.828125" y2="5" style="visibility: inherit;" fill="rgb(0, 0, 0)" stroke="rgb(204, 204, 204)" stroke-width="1px"></line><line x1="232.03125" y1="0" x2="232.03125" y2="5" style="visibility: inherit;" fill="rgb(0, 0, 0)" stroke="rgb(204, 204, 204)" stroke-width="1px"></line><line x1="255.234375" y1="0" x2="255.234375" y2="5" style="visibility: inherit;" fill="rgb(0, 0, 0)" stroke="rgb(204, 204, 204)" stroke-width="1px"></line><line x1="278.4375" y1="0" x2="278.4375" y2="5" style="visibility: inherit;" fill="rgb(0, 0, 0)" stroke="rgb(204, 204, 204)" stroke-width="1px"></line></g><g transform="translate(0, 8)"><text x="0" y="0" dx="0em" dy="0.95em" style="text-anchor: middle; visibility: hidden; font-family: Roboto, sans-serif; font-size: 12px; font-weight: 200;" fill="rgb(33, 33, 33)" stroke="none" stroke-width="1px">-50</text><text x="23.203125" y="0" dx="0em" dy="0.95em" style="text-anchor: middle; visibility: inherit; font-family: Roboto, sans-serif; font-size: 12px; font-weight: 200;" fill="rgb(33, 33, 33)" stroke="none" stroke-width="1px">0</text><text x="46.40625" y="0" dx="0em" dy="0.95em" style="text-anchor: middle; visibility: hidden; font-family: Roboto, sans-serif; font-size: 12px; font-weight: 200;" fill="rgb(33, 33, 33)" stroke="none" stroke-width="1px">50</text><text x="69.609375" y="0" dx="0em" dy="0.95em" style="text-anchor: middle; visibility: inherit; font-family: Roboto, sans-serif; font-size: 12px; font-weight: 200;" fill="rgb(33, 33, 33)" stroke="none" stroke-width="1px">100</text><text x="92.8125" y="0" dx="0em" dy="0.95em" style="text-anchor: middle; visibility: hidden; font-family: Roboto, sans-serif; font-size: 12px; font-weight: 200;" fill="rgb(33, 33, 33)" stroke="none" stroke-width="1px">150</text><text x="116.015625" y="0" dx="0em" dy="0.95em" style="text-anchor: middle; visibility: inherit; font-family: Roboto, sans-serif; font-size: 12px; font-weight: 200;" fill="rgb(33, 33, 33)" stroke="none" stroke-width="1px">200</text><text x="139.21875" y="0" dx="0em" dy="0.95em" style="text-anchor: middle; visibility: hidden; font-family: Roboto, sans-serif; font-size: 12px; font-weight: 200;" fill="rgb(33, 33, 33)" stroke="none" stroke-width="1px">250</text><text x="162.421875" y="0" dx="0em" dy="0.95em" style="text-anchor: middle; visibility: inherit; font-family: Roboto, sans-serif; font-size: 12px; font-weight: 200;" fill="rgb(33, 33, 33)" stroke="none" stroke-width="1px">300</text><text x="185.625" y="0" dx="0em" dy="0.95em" style="text-anchor: middle; visibility: hidden; font-family: Roboto, sans-serif; font-size: 12px; font-weight: 200;" fill="rgb(33, 33, 33)" stroke="none" stroke-width="1px">350</text><text x="208.828125" y="0" dx="0em" dy="0.95em" style="text-anchor: middle; visibility: inherit; font-family: Roboto, sans-serif; font-size: 12px; font-weight: 200;" fill="rgb(33, 33, 33)" stroke="none" stroke-width="1px">400</text><text x="232.03125" y="0" dx="0em" dy="0.95em" style="text-anchor: middle; visibility: hidden; font-family: Roboto, sans-serif; font-size: 12px; font-weight: 200;" fill="rgb(33, 33, 33)" stroke="none" stroke-width="1px">450</text><text x="255.234375" y="0" dx="0em" dy="0.95em" style="text-anchor: middle; visibility: inherit; font-family: Roboto, sans-serif; font-size: 12px; font-weight: 200;" fill="rgb(33, 33, 33)" stroke="none" stroke-width="1px">500</text><text x="278.4375" y="0" dx="0em" dy="0.95em" style="text-anchor: middle; visibility: hidden; font-family: Roboto, sans-serif; font-size: 12px; font-weight: 200;" fill="rgb(33, 33, 33)" stroke="none" stroke-width="1px">550</text></g><line x1="0" y1="0" x2="278.4375" y2="0" fill="rgb(0, 0, 0)" stroke="rgb(204, 204, 204)" stroke-width="1px"></line></g></g></g></g></svg>