<svg viewBox="0 0 301 200" xmlns="http://www.w3.org/2000/svg"><g><g><g><g><g><line x1="72.34375" y1="177" x2="67.34375" y2="177" style="visibility: inherit;" fill="rgb(0, 0, 0)" stroke="rgb(204, 204, 204)" stroke-width="1px"></line><line x1="72.34375" y1="160.9090909090909" x2="67.34375" y2="160.9090909090909" style="visibility: inherit;" fill="rgb(0, 0, 0)" stroke="rgb(204, 204, 204)" stroke-width="1px"></line><line x1="72.34375" y1="144.8181818181818" x2="67.34375" y2="144.8181818181818" style="visibility: inherit;" fill="rgb(0, 0, 0)" stroke="rgb(204, 204, 204)" stroke-width="1px"></line><line x1="72.34375" y1="128.72727272727272" x2="67.34375" y2="128.72727272727272" style="visibility: inherit;" fill="rgb(0, 0, 0)" stroke="rgb(204, 204, 204)" stroke-width="1px"></line><line x1="72.34375" y1="112.63636363636364" x2="67.34375" y2="112.63636363636364" style="visibility: inherit;" fill="rgb(0, 0, 0)" stroke="rgb(204, 204, 204)" stroke-width="1px"></line><line x1="72.34375" y1="96.54545454545453" x2="67.34375" y2="96.54545454545453" style="visibility: inherit;" fill="rgb(0, 0, 0)" stroke="rgb(204, 204, 204)" stroke-width="1px"></line><line x1="72.34375" y1="80.45454545454547" x2="67.34375" y2="80.45454545454547" style="visibility: inherit;" fill="rgb(0, 0, 0)" stroke="rgb(204, 204, 204)" stroke-width="1px"></line><line x1="72.34375" y1="64.36363636363636" x2="67.34375" y2="64.36363636363636" style="visibility: inherit;" fill="rgb(0, 0, 0)" stroke="rgb(204, 204, 204)" stroke-width="1px"></line><line x1="72.34375" y1="48.272727272727266" x2="67.34375" y2="48.272727272727266" style="visibility: inherit;" fill="rgb(0, 0, 0)" stroke="rgb(204, 204, 204)" stroke-width="1px"></line><line x1="72.34375" y1="32.18181818181817" x2="67.34375" y2="32.18181818181817" style="visibility: inherit;" fill="rgb(0, 0, 0)" stroke="rgb(204, 204, 204)" stroke-width="1px"></line><line x1="72.34375" y1="16.090909090909097" x2="67.34375" y2="16.090909090909097" style="visibility: inherit;" fill="rgb(0, 0, 0)" stroke="rgb(204, 204, 204)" stroke-width="1px"></line><line x1="72.34375" y1="0" x2="67.34375" y2="0" style="visibility: inherit;" fill="rgb(0, 0, 0)" stroke="rgb(204, 204, 204)" stroke-width="1px"></line></g><g transform="translate(62.34375, 0)"><text x="0" y="177" dx="0em" dy="0.3em" style="text-anchor: end; visibility: hidden; font-family: Roboto, sans-serif; font-size: 12px; font-weight: 200;" fill="rgb(33, 33, 33)" stroke="none" stroke-width="1px">1.8e+3</text><text x="0" y="160.9090909090909" dx="0em" dy="0.3em" style="text-anchor: end; visibility: inherit; font-family: Roboto, sans-serif; font-size: 12px; font-weight: 200;" fill="rgb(33, 33, 33)" stroke="none" stroke-width="1px">2e+3</text><text x="0" y="144.8181818181818" dx="0em" dy="0.3em" style="text-anchor: end; visibility: hidden; font-family: Roboto, sans-serif; font-size: 12px; font-weight: 200;" fill="rgb(33, 33, 33)" stroke="none" stroke-width="1px">2.2e+3</text><text x="0" y="128.72727272727272" dx="0em" dy="0.3em" style="text-anchor: end; visibility: inherit; font-family: Roboto, sans-serif; font-size: 12px; font-weight: 200;" fill="rgb(33, 33, 33)" stroke="none" stroke-width="1px">2.4e+3</text><text x="0" y="112.63636363636364" dx="0em" dy="0.3em" style="text-anchor: end; visibility: hidden; font-family: Roboto, sans-serif; font-size: 12px; font-weight: 200;" fill="rgb(33, 33, 33)" stroke="none" stroke-width="1px">2.6e+3</text><text x="0" y="96.54545454545453" dx="0em" dy="0.3em" style="text-anchor: end; visibility: inherit; font-family: Roboto, sans-serif; font-size: 12px; font-weight: 200;" fill="rgb(33, 33, 33)" stroke="none" stroke-width="1px">2.8e+3</text><text x="0" y="80.45454545454547" dx="0em" dy="0.3em" style="text-anchor: end; visibility: hidden; font-family: Roboto, sans-serif; font-size: 12px; font-weight: 200;" fill="rgb(33, 33, 33)" stroke="none" stroke-width="1px">3e+3</text><text x="0" y="64.36363636363636" dx="0em" dy="0.3em" style="text-anchor: end; visibility: inherit; font-family: Roboto, sans-serif; font-size: 12px; font-weight: 200;" fill="rgb(33, 33, 33)" stroke="none" stroke-width="1px">3.2e+3</text><text x="0" y="48.272727272727266" dx="0em" dy="0.3em" style="text-anchor: end; visibility: hidden; font-family: Roboto, sans-serif; font-size: 12px; font-weight: 200;" fill="rgb(33, 33, 33)" stroke="none" stroke-width="1px">3.4e+3</text><text x="0" y="32.18181818181817" dx="0em" dy="0.3em" style="text-anchor: end; visibility: inherit; font-family: Roboto, sans-serif; font-size: 12px; font-weight: 200;" fill="rgb(33, 33, 33)" stroke="none" stroke-width="1px">3.6e+3</text><text x="0" y="16.090909090909097" dx="0em" dy="0.3em" style="text-anchor: end; visibility: hidden; font-family: Roboto, sans-serif; font-size: 12px; font-weight: 200;" fill="rgb(33, 33, 33)" stroke="none" stroke-width="1px">3.8e+3</text><text x="0" y="0" dx="0em" dy="0.3em" style="text-anchor: end; visibility: hidden; font-family: Roboto, sans-serif; font-size: 12px; font-weight: 200;" fill="rgb(33, 33, 33)" stroke="none" stroke-width="1px">4e+3</text></g><line x1="72.34375" y1="0" x2="72.34375" y2="177" fill="rgb(0, 0, 0)" stroke="rgb(204, 204, 204)" stroke-width="1px"></line></g></g><g transform="translate(72, 0)" clip-path="url(#clip_0)"><clipPath id="clip_0"><rect width="257" height="177"></rect></clipPath><g><g><g><line x1="0" y1="0" x2="0" y2="177" fill="rgb(0, 0, 0)" stroke="rgb(66, 66, 66)" stroke-width="1px" opacity="0.25"></line><line x1="21.471354166666664" y1="0" x2="21.471354166666664" y2="177" fill="rgb(0, 0, 0)" stroke="rgb(66, 66, 66)" stroke-width="1px" opacity="0.25"></line><line x1="42.94270833333333" y1="0" x2="42.94270833333333" y2="177" fill="rgb(0, 0, 0)" stroke="rgb(66, 66, 66)" stroke-width="1px" opacity="0.25"></line><line x1="64.4140625" y1="0" x2="64.4140625" y2="177" fill="rgb(0, 0, 0)" stroke="rgb(66, 66, 66)" stroke-width="1px" opacity="0.25"></line><line x1="85.88541666666666" y1="0" x2="85.88541666666666" y2="177" fill="rgb(0, 0, 0)" stroke="rgb(66, 66, 66)" stroke-width="1px" opacity="0.25"></line><line x1="107.35677083333334" y1="0" x2="107.35677083333334" y2="177" fill="rgb(0, 0, 0)" stroke="rgb(66, 66, 66)" stroke-width="1px" opacity="0.25"></line><line x1="128.828125" y1="0" x2="128.828125" y2="177" fill="rgb(0, 0, 0)" stroke="rgb(66, 66, 66)" stroke-width="1px" opacity="0.25"></line><line x1="150.29947916666669" y1="0" x2="150.29947916666669" y2="177" fill="rgb(0, 0, 0)" stroke="rgb(66, 66, 66)" stroke-width="1px" opacity="0.25"></line><line x1="171.77083333333331" y1="0" x2="171.77083333333331" y2="177" fill="rgb(0, 0, 0)" stroke="rgb(66, 66, 66)" stroke-width="1px" opacity="0.25"></line><line x1="193.2421875" y1="0" x2="193.2421875" y2="177" fill="rgb(0, 0, 0)" stroke="rgb(66, 66, 66)" stroke-width="1px" opacity="0.25"></line><line x1="214.71354166666669" y1="0" x2="214.71354166666669" y2="177" fill="rgb(0, 0, 0)" stroke="rgb(66, 66, 66)" stroke-width="1px" opacity="0.25"></line><line x1="236.18489583333331" y1="0" x2="236.18489583333331" y2="177" fill="rgb(0, 0, 0)" stroke="rgb(66, 66, 66)" stroke-width="1px" opacity="0.25"></line><line x1="257.65625" y1="0" x2="257.65625" y2="177" fill="rgb(0, 0, 0)" stroke="rgb(66, 66, 66)" stroke-width="1px" opacity="0.25"></line></g><g><line x1="0" y1="177" x2="257.65625" y2="177" fill="rgb(0, 0, 0)" stroke="rgb(66, 66, 66)" stroke-width="1px" opacity="0.25"></line><line x1="0" y1="160.9090909090909" x2="257.65625" y2="160.9090909090909" fill="rgb(0, 0, 0)" stroke="rgb(66, 66, 66)" stroke-width="1px" opacity="0.25"></line><line x1="0" y1="144.8181818181818" x2="257.65625" y2="144.8181818181818" fill="rgb(0, 0, 0)" stroke="rgb(66, 66, 66)" stroke-width="1px" opacity="0.25"></line><line x1="0" y1="128.72727272727272" x2="257.65625" y2="128.72727272727272" fill="rgb(0, 0, 0)" stroke="rgb(66, 66, 66)" stroke-width="1px" opacity="0.25"></line><line x1="0" y1="112.63636363636364" x2="257.65625" y2="112.63636363636364" fill="rgb(0, 0, 0)" stroke="rgb(66, 66, 66)" stroke-width="1px" opacity="0.25"></line><line x1="0" y1="96.54545454545453" x2="257.65625" y2="96.54545454545453" fill="rgb(0, 0, 0)" stroke="rgb(66, 66, 66)" stroke-width="1px" opacity="0.25"></line><line x1="0" y1="80.45454545454547" x2="257.65625" y2="80.45454545454547" fill="rgb(0, 0, 0)" stroke="rgb(66, 66, 66)" stroke-width="1px" opacity="0.25"></line><line x1="0" y1="64.36363636363636" x2="257.65625" y2="64.36363636363636" fill="rgb(0, 0, 0)" stroke="rgb(66, 66, 66)" stroke-width="1px" opacity="0.25"></line><line x1="0" y1="48.272727272727266" x2="257.65625" y2="48.272727272727266" fill="rgb(0, 0, 0)" stroke="rgb(66, 66, 66)" stroke-width="1px" opacity="0.25"></line><line x1="0" y1="32.18181818181817" x2="257.65625" y2="32.18181818181817" fill="rgb(0, 0, 0)" stroke="rgb(66, 66, 66)" stroke-width="1px" opacity="0.25"></line><line x1="0" y1="16.090909090909097" x2="257.65625" y2="16.090909090909097" fill="rgb(0, 0, 0)" stroke="rgb(66, 66, 66)" stroke-width="1px" opacity="0.25"></line><line x1="0" y1="0" x2="257.65625" y2="0" fill="rgb(0, 0, 0)" stroke="rgb(66, 66, 66)" stroke-width="1px" opacity="0.25"></line></g></g></g><g><g><line x1="0" y1="321.81818181818187" x2="257.65625" y2="321.81818181818187" fill="rgb(0, 0, 0)" stroke="rgb(153, 153, 153)" stroke-width="1.5px"></line></g></g><g><g><line x1="21.471354166666664" y1="0" x2="21.471354166666664" y2="177" fill="rgb(0, 0, 0)" stroke="rgb(153, 153, 153)" stroke-width="1.5px"></line></g></g><g><g><g><g><g><path stroke="rgb(51, 187, 238)" stroke-width="2px" d="M21.471354166666664,19.402666459517047L22.544921875,19.402089469216083L23.618489583333332,19.40120131002505L24.692057291666668,19.400087334535957L25.765625,19.398326427875325L26.839192708333336,19.394955317822475L27.912760416666668,19.388162062437168L28.986328125,19.376122893191997L30.059895833333332,19.355799354711387L31.133463541666668,19.32792773865215L32.20703125,19.28699414584437L33.280598958333336,19.301521434114758L34.354166666666664,19.46947254831129L35.427734375,19.818582994253614L36.501302083333336,20.335262271518047L37.57486979166667,21.555772545199456L38.6484375,24.08432583070048L39.722005208333336,25.95740424735925L40.795572916666664,28.20185737033L41.869140625,30.346644410388212L42.94270833333333,32.727334414635926L44.016276041666664,31.696334876885416L45.08984375,32.21462897167117L46.163411458333336,35.412944704035475L47.236979166666664,31.909162667175988L48.310546875,32.1831257309888L49.384114583333336,33.93027522039186L50.457682291666664,36.399506625493494L51.53125,32.18893830811762L52.604817708333336,31.596839150137676L53.67838541666667,34.261406933011116L54.751953125,38.37924696444923L55.825520833333336,31.88875179274129L56.899088541666664,29.2163661890636L57.97265625,26.391447860898545L59.04622395833333,24.526905939850113L60.119791666666664,24.18620925782431L61.193359375,23.825619862659625L62.266927083333336,26.819677588328776L63.340494791666664,28.543247428880765L64.4140625,31.825418186523464L65.48763020833333,33.39456927204418L66.56119791666667,33.25603621872629L67.634765625,34.370762001315256L68.70833333333333,35.09677991038166L69.78190104166666,36.240304230036124L70.85546875,38.286179208907896L71.92903645833333,37.313311662396714L73.00260416666667,34.664234955498934L74.076171875,34.19170073004267L75.14973958333334,35.7778134067833L76.22330729166667,36.18643640167059L77.296875,35.21322667587281L78.37044270833333,34.95899162519673L79.44401041666667,35.621013583073015L80.517578125,39.05768006035646L81.59114583333333,42.0281091903339L82.66471354166667,37.38925325390138L83.73828125,36.193447726488465L84.81184895833333,38.62291567069436L85.88541666666666,40.37372125966099L86.958984375,41.88445332575404L88.03255208333333,42.33635581114842L89.10611979166667,37.987882156788466L90.1796875,41.046891403448114L91.25325520833334,39.03037059313421L92.32682291666667,40.48366855616464L93.400390625,41.40413219726414L94.47395833333333,44.369921035332936L95.54752604166667,42.85335074797532L96.62109375,45.86141922896983L97.69466145833333,47.272693023532476L98.76822916666667,48.419794747003L99.841796875,44.99252293307397L100.91536458333333,44.373617009134186L101.98893229166666,47.778137268690756L103.0625,45.616070171938894L104.13606770833333,44.07500707120308L105.20963541666667,46.93799478782128L106.283203125,51.0064351006757L107.35677083333334,50.30400505898496L108.43033854166667,49.76682291287677L109.50390625,47.51192316001301L110.57747395833333,49.591281071078825L111.65104166666667,53.781316538598986L112.724609375,54.78695651584407L113.79817708333333,57.548580825344494L114.87174479166667,59.322921621982275L115.9453125,59.569686788885356L117.01888020833333,60.73134745152724L118.09244791666666,61.502080754297L119.166015625,63.714242104921944L120.23958333333333,65.01580760315206L121.31315104166667,66.15949161977477L122.38671875,66.81212168528815L123.46028645833334,68.82727873738028L124.53385416666667,69.1340013866043L125.607421875,69.95306018920688L126.68098958333333,67.67106072289914L127.75455729166667,69.06692820398096L128.828125,71.46477974731755L129.90169270833334,72.36864079760929L130.97526041666666,74.20167147252866L132.048828125,72.35987055929843L133.12239583333334,73.77001595241143L134.19596354166669,75.51659697379063L135.26953125,77.93045006104992L136.34309895833334,75.65513069891688L137.41666666666666,76.87077004754613L138.490234375,80.13165121531745L139.56380208333331,79.72285556406263L140.63736979166666,80.7970877169887L141.7109375,78.05624273140062L142.78450520833334,80.19884276241993L143.85807291666666,83.88632452286392L144.931640625,88.05879316009623L146.00520833333334,90.46759882752077L147.07877604166666,93.5393840035437L148.15234375,94.7220600008478L149.22591145833334,97.2770917355939L150.29947916666669,100.62271082970862L151.373046875,102.39445417893312L152.44661458333334,104.09264325487405L153.52018229166666,108.84358692948693L154.59375,115.18448188070352L155.66731770833331,112.86082598033971L156.74088541666666,111.29844001291973L157.814453125,110.09895760682855L158.88802083333334,104.71305380770512L159.96158854166666,107.47232669158329L161.03515625,114.39837812610052L162.10872395833334,122.25187746159781L163.18229166666666,127.98870398050983L164.255859375,131.06543883006725L165.32942708333334,131.8076025203415L166.40299479166669,132.5881620537532L167.4765625,125.5830169055474L168.55013020833334,129.99708304815798L169.62369791666666,132.3671845767641L170.697265625,129.58068707773455L171.77083333333331,132.2356874597089L172.84440104166666,136.21027580146455L173.91796875,139.10247385268272L174.99153645833334,140.99289553320057L176.06510416666666,146.72571508092886L177.138671875,152.78029346173201L178.21223958333334,155.06586291120112L179.28580729166666,153.3801361327292L180.359375,156.43153675776253L181.43294270833334,150.398416727953L182.50651041666669,155.30804255719084L183.580078125,157.33035072518808L184.65364583333334,140.9653170579822L185.72721354166666,125.48741169253077L186.80078125,120.35118019200993L187.87434895833331,127.78127549801847L188.94791666666666,137.30773333858383L190.021484375,141.09117471550826L191.09505208333334,144.79499611126516L192.16861979166666,152.91953732851334L193.2421875,156.29070881401142L194.31575520833334,148.59484046063696L195.38932291666666,153.69742278668048L196.462890625,151.38027939999125L197.53645833333334,154.5476962266425L198.61002604166669,155.7067466866247L199.68359375,159.39824845142795L200.75716145833334,157.99736588548745L201.83072916666666,162.02760874027686L202.904296875,158.65516032584225L203.97786458333331,151.3694140222099L205.05143229166666,135.12997795878047L206.125,132.57237646809497L207.19856770833334,145.4187434412263L208.27213541666666,154.7363537973352L209.345703125,159.10532302058863L210.41927083333334,152.24353356732476L211.49283854166666,160.33645856369031L212.56640625,170.4736105563605L213.63997395833334,173.87588148829073L214.71354166666669,172.48630159805256L215.787109375,172.48535249203468L216.86067708333334,176.59282040413416L217.93424479166666,172.3962186984464L219.0078125,159.3879906295792L220.08138020833331,134.95445848463672L221.15494791666666,130.50221393133603L222.228515625,137.27166598309137L223.30208333333334,139.3385830415594L224.37565104166666,150.56129599858622L225.44921875,153.8942657028449L226.52278645833334,151.27304956730353L227.59635416666666,157.61888567077986L228.669921875,164.11365950527332L229.74348958333334,154.43889088249637L230.81705729166669,152.93036529121662L231.890625,125.05863052948848L232.96419270833334,116.11322643559079L234.03776041666666,121.99220947641132L235.111328125,128.48211794436952" style="fill: none;" fill="none"></path></g></g></g></g><g opacity="0.2"><g><g><g><path stroke="rgb(51, 187, 238)" stroke-width="2px" d="M21.471354166666664,19.402666459517047L22.544921875,19.401743275035507L23.618489583333332,19.4003486772017L24.692057291666668,19.398777299360788L25.765625,19.3960273881392L26.839192708333336,19.39029185901989L27.912760416666668,19.378447598544042L28.986328125,19.35856966885654L30.059895833333332,19.325826083096583L31.133463541666668,19.28654163707387L32.20703125,19.22596502130682L33.280598958333336,19.323233309659084L34.354166666666664,19.720850830078117L35.427734375,20.34156471946022L36.501302083333336,21.1096738503196L37.57486979166667,23.385677157315342L38.6484375,27.87608575994318L39.722005208333336,28.766546297940344L40.795572916666664,31.56819513494318L41.869140625,33.56362892844461L42.94270833333333,36.29823885830965L44.016276041666664,30.149869495738628L45.08984375,32.99205988103692L46.163411458333336,40.21038041548295L47.236979166666664,26.653514515269883L48.310546875,32.59406915838069L49.384114583333336,36.55099498401988L50.457682291666664,40.10334994229404L51.53125,25.873089710582388L52.604817708333336,30.708690740411935L53.67838541666667,38.2582577237216L54.751953125,44.556006192294035L55.825520833333336,22.153009810014208L56.899088541666664,25.20778797496448L57.97265625,22.15407049005681L59.04622395833333,21.730093106356524L60.119791666666664,23.675164240056823L61.193359375,23.284735773259936L62.266927083333336,31.310764160156257L63.340494791666664,31.12860218394887L64.4140625,36.748674316406245L65.48763020833333,35.74829589843751L66.56119791666667,33.04823663884943L67.634765625,36.04285067471591L68.70833333333333,36.185806773792606L69.78190104166666,37.95559070933948L70.85546875,41.354991677024145L71.92903645833333,35.85401034268466L73.00260416666667,30.69061989524148L74.076171875,33.48289939186789L75.14973958333334,38.156982421875L76.22330729166667,36.79937089399858L77.296875,33.7534120871804L78.37044270833333,34.57763904918325L79.44401041666667,36.61404651988637L80.517578125,44.21267977627841L81.59114583333333,46.4837528852983L82.66471354166667,30.43096934925426L83.73828125,34.39973943536932L84.81184895833333,42.26711758700284L85.88541666666666,42.999929643110804L86.958984375,44.15055142489347L88.03255208333333,43.014209539240056L89.10611979166667,31.46517167524858L90.1796875,45.6354052734375L91.25325520833334,36.00558937766335L92.32682291666667,42.663615500710236L93.400390625,42.78482765891335L94.47395833333333,48.81860429243608L95.54752604166667,40.57849531693891L96.62109375,50.37352195046165L97.69466145833333,49.38960371537642L98.76822916666667,50.1404473322088L99.841796875,39.85161521218039L100.91536458333333,43.44525812322443L101.98893229166666,52.884917658025564L103.0625,42.37296952681108L104.13606770833333,41.76341242009942L105.20963541666667,51.23247636274858L106.283203125,57.10909556995739L107.35677083333334,49.25035999644886L108.43033854166667,48.96104969371449L109.50390625,44.12957353071734L110.57747395833333,52.71031793767756L111.65104166666667,60.06636973987926L112.724609375,56.295416481711655L113.79817708333333,61.69101728959517L114.87174479166667,61.98443281693892L115.9453125,59.939834539240046L117.01888020833333,62.47383844549006L118.09244791666666,62.658180708451695L119.166015625,67.03248413085939L120.23958333333333,66.96815585049715L121.31315104166667,67.8750176447088L122.38671875,67.79106678355824L123.46028645833334,71.85001431551848L124.53385416666667,69.59408536044033L125.607421875,71.18164839311079L126.68098958333333,64.24806152343751L127.75455729166667,71.1607294256037L128.828125,75.06155706232245L129.90169270833334,73.72443237304687L130.97526041666666,76.95121748490766L132.048828125,69.59716918945313L133.12239583333334,75.88523404208095L134.19596354166669,78.13646850585938L135.26953125,81.55122969193893L136.34309895833334,72.24215165571734L137.41666666666666,78.69422907049005L138.490234375,85.02297296697444L139.56380208333331,79.1096620871804L140.63736979166666,82.40843594637785L141.7109375,73.94497525301847L142.78450520833334,83.41274280894888L143.85807291666666,89.41754716352983L144.931640625,94.3174961159446L146.00520833333334,94.08080732865767L147.07877604166666,98.14706176757812L148.15234375,96.49607399680399L149.22591145833334,101.10963933771306L150.29947916666669,105.64113947088067L151.373046875,105.0520692027699L152.44661458333334,106.63992686878551L153.52018229166666,115.97000244140625L154.59375,124.6958243075284L155.66731770833331,109.37534212979403L156.74088541666666,108.95486106178979L157.814453125,108.29973399769176L158.88802083333334,96.63419810901989L159.96158854166666,111.61123601740057L161.03515625,124.78745527787643L162.10872395833334,134.03212646484374L163.18229166666666,136.59394375887783L164.255859375,135.6805411044034L165.32942708333334,132.92084805575283L166.40299479166669,133.75900135387073L167.4765625,115.07529918323864L168.55013020833334,136.61818226207387L169.62369791666666,135.9223368696733L170.697265625,125.40094082919035L171.77083333333331,136.21818803267044L172.84440104166666,142.172158314098L173.91796875,143.44077092950994L174.99153645833334,143.82852805397727L176.06510416666666,155.3249444025213L177.138671875,161.8621610329368L178.21223958333334,158.49421708540484L179.28580729166666,150.85154596502133L180.359375,161.0086376953125L181.43294270833334,141.34873668323863L182.50651041666669,162.67248130104758L183.580078125,160.36381297718395L184.65364583333334,116.41776655717328L185.72721354166666,102.2705536443537L186.80078125,112.6468329412287L187.87434895833331,138.92641845703125L188.94791666666666,151.59742009943182L190.021484375,146.76633678089487L191.09505208333334,150.35072820490058L192.16861979166666,165.10634915438564L193.2421875,161.34746604225853L194.31575520833334,137.0510379305753L195.38932291666666,161.35129627574574L196.462890625,147.9045643199574L197.53645833333334,159.29882146661933L198.61002604166669,157.445322376598L199.68359375,164.9355010986328L200.75716145833334,155.89604203657672L201.83072916666666,168.07297302246093L202.904296875,153.59648770419034L203.97786458333331,140.44079456676135L205.05143229166666,110.77082386363635L206.125,128.73597423206675L207.19856770833334,164.6882939009233L208.27213541666666,168.71276933149858L209.345703125,165.65877685546874L210.41927083333334,141.95084938742897L211.49283854166666,172.47584605823863L212.56640625,185.6793385453658L213.63997395833334,178.97928788618609L214.71354166666669,170.4019317626953L215.787109375,172.4839288330078L216.86067708333334,182.7540222722834L217.93424479166666,166.1013161399148L219.0078125,139.8756485262784L220.08138020833331,98.30416026722301L221.15494791666666,123.82384710138493L222.228515625,147.42584406072444L223.30208333333334,142.43895862926135L224.37565104166666,167.39536543412643L225.44921875,158.89372025923296L226.52278645833334,147.34122536399147L227.59635416666666,167.1376398259943L228.669921875,173.8558202570135L229.74348958333334,139.92673794833095L230.81705729166669,150.66757690429688L231.890625,83.25102838689631L232.96419270833334,102.69512029474431L234.03776041666666,130.81068403764203L235.111328125,138.2169806463068" style="fill: none;" fill="none"></path></g></g></g></g></g></g><g transform="translate(72, 177)" clip-path="url(#clip_1)"><clipPath id="clip_1"><rect width="257" height="23"></rect></clipPath><g><g><line x1="0" y1="0" x2="0" y2="5" style="visibility: inherit;" fill="rgb(0, 0, 0)" stroke="rgb(204, 204, 204)" stroke-width="1px"></line><line x1="21.471354166666664" y1="0" x2="21.471354166666664" y2="5" style="visibility: inherit;" fill="rgb(0, 0, 0)" stroke="rgb(204, 204, 204)" stroke-width="1px"></line><line x1="42.94270833333333" y1="0" x2="42.94270833333333" y2="5" style="visibility: inherit;" fill="rgb(0, 0, 0)" stroke="rgb(204, 204, 204)" stroke-width="1px"></line><line x1="64.4140625" y1="0" x2="64.4140625" y2="5" style="visibility: inherit;" fill="rgb(0, 0, 0)" stroke="rgb(204, 204, 204)" stroke-width="1px"></line><line x1="85.88541666666666" y1="0" x2="85.88541666666666" y2="5" style="visibility: inherit;" fill="rgb(0, 0, 0)" stroke="rgb(204, 204, 204)" stroke-width="1px"></line><line x1="107.35677083333334" y1="0" x2="107.35677083333334" y2="5" style="visibility: inherit;" fill="rgb(0, 0, 0)" stroke="rgb(204, 204, 204)" stroke-width="1px"></line><line x1="128.828125" y1="0" x2="128.828125" y2="5" style="visibility: inherit;" fill="rgb(0, 0, 0)" stroke="rgb(204, 204, 204)" stroke-width="1px"></line><line x1="150.29947916666669" y1="0" x2="150.29947916666669" y2="5" style="visibility: inherit;" fill="rgb(0, 0, 0)" stroke="rgb(204, 204, 204)" stroke-width="1px"></line><line x1="171.77083333333331" y1="0" x2="171.77083333333331" y2="5" style="visibility: inherit;" fill="rgb(0, 0, 0)" stroke="rgb(204, 204, 204)" stroke-width="1px"></line><line x1="193.2421875" y1="0" x2="193.2421875" y2="5" style="visibility: inherit;" fill="rgb(0, 0, 0)" stroke="rgb(204, 204, 204)" stroke-width="1px"></line><line x1="214.71354166666669" y1="0" x2="214.71354166666669" y2="5" style="visibility: inherit;" fill="rgb(0, 0, 0)" stroke="rgb(204, 204, 204)" stroke-width="1px"></line><line x1="236.18489583333331" y1="0" x2="236.18489583333331" y2="5" style="visibility: inherit;" fill="rgb(0, 0, 0)" stroke="rgb(204, 204, 204)" stroke-width="1px"></line><line x1="257.65625" y1="0" x2="257.65625" y2="5" style="visibility: inherit;" fill="rgb(0, 0, 0)" stroke="rgb(204, 204, 204)" stroke-width="1px"></line></g><g transform="translate(0, 8)"><text x="0" y="0" dx="0em" dy="0.95em" style="text-anchor: middle; visibility: hidden; font-family: Roboto, sans-serif; font-size: 12px; font-weight: 200;" fill="rgb(33, 33, 33)" stroke="none" stroke-width="1px">-20</text><text x="21.471354166666664" y="0" dx="0em" dy="0.95em" style="text-anchor: middle; visibility: inherit; font-family: Roboto, sans-serif; font-size: 12px; font-weight: 200;" fill="rgb(33, 33, 33)" stroke="none" stroke-width="1px">0</text><text x="42.94270833333333" y="0" dx="0em" dy="0.95em" style="text-anchor: middle; visibility: hidden; font-family: Roboto, sans-serif; font-size: 12px; font-weight: 200;" fill="rgb(33, 33, 33)" stroke="none" stroke-width="1px">20</text><text x="64.4140625" y="0" dx="0em" dy="0.95em" style="text-anchor: middle; visibility: inherit; font-family: Roboto, sans-serif; font-size: 12px; font-weight: 200;" fill="rgb(33, 33, 33)" stroke="none" stroke-width="1px">40</text><text x="85.88541666666666" y="0" dx="0em" dy="0.95em" style="text-anchor: middle; visibility: hidden; font-family: Roboto, sans-serif; font-size: 12px; font-weight: 200;" fill="rgb(33, 33, 33)" stroke="none" stroke-width="1px">60</text><text x="107.35677083333334" y="0" dx="0em" dy="0.95em" style="text-anchor: middle; visibility: inherit; font-family: Roboto, sans-serif; font-size: 12px; font-weight: 200;" fill="rgb(33, 33, 33)" stroke="none" stroke-width="1px">80</text><text x="128.828125" y="0" dx="0em" dy="0.95em" style="text-anchor: middle; visibility: hidden; font-family: Roboto, sans-serif; font-size: 12px; font-weight: 200;" fill="rgb(33, 33, 33)" stroke="none" stroke-width="1px">100</text><text x="150.29947916666669" y="0" dx="0em" dy="0.95em" style="text-anchor: middle; visibility: inherit; font-family: Roboto, sans-serif; font-size: 12px; font-weight: 200;" fill="rgb(33, 33, 33)" stroke="none" stroke-width="1px">120</text><text x="171.77083333333331" y="0" dx="0em" dy="0.95em" style="text-anchor: middle; visibility: hidden; font-family: Roboto, sans-serif; font-size: 12px; font-weight: 200;" fill="rgb(33, 33, 33)" stroke="none" stroke-width="1px">140</text><text x="193.2421875" y="0" dx="0em" dy="0.95em" style="text-anchor: middle; visibility: inherit; font-family: Roboto, sans-serif; font-size: 12px; font-weight: 200;" fill="rgb(33, 33, 33)" stroke="none" stroke-width="1px">160</text><text x="214.71354166666669" y="0" dx="0em" dy="0.95em" style="text-anchor: middle; visibility: hidden; font-family: Roboto, sans-serif; font-size: 12px; font-weight: 200;" fill="rgb(33, 33, 33)" stroke="none" stroke-width="1px">180</text><text x="236.18489583333331" y="0" dx="0em" dy="0.95em" style="text-anchor: middle; visibility: inherit; font-family: Roboto, sans-serif; font-size: 12px; font-weight: 200;" fill="rgb(33, 33, 33)" stroke="none" stroke-width="1px">200</text><text x="257.65625" y="0" dx="0em" dy="0.95em" style="text-anchor: middle; visibility: hidden; font-family: Roboto, sans-serif; font-size: 12px; font-weight: 200;" fill="rgb(33, 33, 33)" stroke="none" stroke-width="1px">220</text></g><line x1="0" y1="0" x2="257.65625" y2="0" fill="rgb(0, 0, 0)" stroke="rgb(204, 204, 204)" stroke-width="1px"></line></g></g></g></g></svg>