<svg viewBox="0 0 301 200" xmlns="http://www.w3.org/2000/svg"><g><g><g><g><g><line x1="41.171875" y1="177" x2="36.171875" y2="177" style="visibility: inherit;" fill="rgb(0, 0, 0)" stroke="rgb(204, 204, 204)" stroke-width="1px"></line><line x1="41.171875" y1="163.3846153846154" x2="36.171875" y2="163.3846153846154" style="visibility: inherit;" fill="rgb(0, 0, 0)" stroke="rgb(204, 204, 204)" stroke-width="1px"></line><line x1="41.171875" y1="149.76923076923077" x2="36.171875" y2="149.76923076923077" style="visibility: inherit;" fill="rgb(0, 0, 0)" stroke="rgb(204, 204, 204)" stroke-width="1px"></line><line x1="41.171875" y1="136.15384615384613" x2="36.171875" y2="136.15384615384613" style="visibility: inherit;" fill="rgb(0, 0, 0)" stroke="rgb(204, 204, 204)" stroke-width="1px"></line><line x1="41.171875" y1="122.53846153846153" x2="36.171875" y2="122.53846153846153" style="visibility: inherit;" fill="rgb(0, 0, 0)" stroke="rgb(204, 204, 204)" stroke-width="1px"></line><line x1="41.171875" y1="108.92307692307693" x2="36.171875" y2="108.92307692307693" style="visibility: inherit;" fill="rgb(0, 0, 0)" stroke="rgb(204, 204, 204)" stroke-width="1px"></line><line x1="41.171875" y1="95.3076923076923" x2="36.171875" y2="95.3076923076923" style="visibility: inherit;" fill="rgb(0, 0, 0)" stroke="rgb(204, 204, 204)" stroke-width="1px"></line><line x1="41.171875" y1="81.6923076923077" x2="36.171875" y2="81.6923076923077" style="visibility: inherit;" fill="rgb(0, 0, 0)" stroke="rgb(204, 204, 204)" stroke-width="1px"></line><line x1="41.171875" y1="68.07692307692307" x2="36.171875" y2="68.07692307692307" style="visibility: inherit;" fill="rgb(0, 0, 0)" stroke="rgb(204, 204, 204)" stroke-width="1px"></line><line x1="41.171875" y1="54.46153846153847" x2="36.171875" y2="54.46153846153847" style="visibility: inherit;" fill="rgb(0, 0, 0)" stroke="rgb(204, 204, 204)" stroke-width="1px"></line><line x1="41.171875" y1="40.84615384615384" x2="36.171875" y2="40.84615384615384" style="visibility: inherit;" fill="rgb(0, 0, 0)" stroke="rgb(204, 204, 204)" stroke-width="1px"></line><line x1="41.171875" y1="27.230769230769234" x2="36.171875" y2="27.230769230769234" style="visibility: inherit;" fill="rgb(0, 0, 0)" stroke="rgb(204, 204, 204)" stroke-width="1px"></line><line x1="41.171875" y1="13.615384615384606" x2="36.171875" y2="13.615384615384606" style="visibility: inherit;" fill="rgb(0, 0, 0)" stroke="rgb(204, 204, 204)" stroke-width="1px"></line><line x1="41.171875" y1="0" x2="36.171875" y2="0" style="visibility: inherit;" fill="rgb(0, 0, 0)" stroke="rgb(204, 204, 204)" stroke-width="1px"></line></g><g transform="translate(31.171875, 0)"><text x="0" y="177" dx="0em" dy="0.3em" style="text-anchor: end; visibility: hidden; font-family: Roboto, sans-serif; font-size: 12px; font-weight: 200;" fill="rgb(33, 33, 33)" stroke="none" stroke-width="1px">0</text><text x="0" y="163.3846153846154" dx="0em" dy="0.3em" style="text-anchor: end; visibility: inherit; font-family: Roboto, sans-serif; font-size: 12px; font-weight: 200;" fill="rgb(33, 33, 33)" stroke="none" stroke-width="1px">50</text><text x="0" y="149.76923076923077" dx="0em" dy="0.3em" style="text-anchor: end; visibility: hidden; font-family: Roboto, sans-serif; font-size: 12px; font-weight: 200;" fill="rgb(33, 33, 33)" stroke="none" stroke-width="1px">100</text><text x="0" y="136.15384615384613" dx="0em" dy="0.3em" style="text-anchor: end; visibility: inherit; font-family: Roboto, sans-serif; font-size: 12px; font-weight: 200;" fill="rgb(33, 33, 33)" stroke="none" stroke-width="1px">150</text><text x="0" y="122.53846153846153" dx="0em" dy="0.3em" style="text-anchor: end; visibility: hidden; font-family: Roboto, sans-serif; font-size: 12px; font-weight: 200;" fill="rgb(33, 33, 33)" stroke="none" stroke-width="1px">200</text><text x="0" y="108.92307692307693" dx="0em" dy="0.3em" style="text-anchor: end; visibility: inherit; font-family: Roboto, sans-serif; font-size: 12px; font-weight: 200;" fill="rgb(33, 33, 33)" stroke="none" stroke-width="1px">250</text><text x="0" y="95.3076923076923" dx="0em" dy="0.3em" style="text-anchor: end; visibility: hidden; font-family: Roboto, sans-serif; font-size: 12px; font-weight: 200;" fill="rgb(33, 33, 33)" stroke="none" stroke-width="1px">300</text><text x="0" y="81.6923076923077" dx="0em" dy="0.3em" style="text-anchor: end; visibility: inherit; font-family: Roboto, sans-serif; font-size: 12px; font-weight: 200;" fill="rgb(33, 33, 33)" stroke="none" stroke-width="1px">350</text><text x="0" y="68.07692307692307" dx="0em" dy="0.3em" style="text-anchor: end; visibility: hidden; font-family: Roboto, sans-serif; font-size: 12px; font-weight: 200;" fill="rgb(33, 33, 33)" stroke="none" stroke-width="1px">400</text><text x="0" y="54.46153846153847" dx="0em" dy="0.3em" style="text-anchor: end; visibility: inherit; font-family: Roboto, sans-serif; font-size: 12px; font-weight: 200;" fill="rgb(33, 33, 33)" stroke="none" stroke-width="1px">450</text><text x="0" y="40.84615384615384" dx="0em" dy="0.3em" style="text-anchor: end; visibility: hidden; font-family: Roboto, sans-serif; font-size: 12px; font-weight: 200;" fill="rgb(33, 33, 33)" stroke="none" stroke-width="1px">500</text><text x="0" y="27.230769230769234" dx="0em" dy="0.3em" style="text-anchor: end; visibility: inherit; font-family: Roboto, sans-serif; font-size: 12px; font-weight: 200;" fill="rgb(33, 33, 33)" stroke="none" stroke-width="1px">550</text><text x="0" y="13.615384615384606" dx="0em" dy="0.3em" style="text-anchor: end; visibility: hidden; font-family: Roboto, sans-serif; font-size: 12px; font-weight: 200;" fill="rgb(33, 33, 33)" stroke="none" stroke-width="1px">600</text><text x="0" y="0" dx="0em" dy="0.3em" style="text-anchor: end; visibility: hidden; font-family: Roboto, sans-serif; font-size: 12px; font-weight: 200;" fill="rgb(33, 33, 33)" stroke="none" stroke-width="1px">650</text></g><line x1="41.171875" y1="0" x2="41.171875" y2="177" fill="rgb(0, 0, 0)" stroke="rgb(204, 204, 204)" stroke-width="1px"></line></g></g><g transform="translate(41, 0)" clip-path="url(#clip_0)"><clipPath id="clip_0"><rect width="288" height="177"></rect></clipPath><g><g><g><line x1="0" y1="0" x2="0" y2="177" fill="rgb(0, 0, 0)" stroke="rgb(66, 66, 66)" stroke-width="1px" opacity="0.25"></line><line x1="24.069010416666664" y1="0" x2="24.069010416666664" y2="177" fill="rgb(0, 0, 0)" stroke="rgb(66, 66, 66)" stroke-width="1px" opacity="0.25"></line><line x1="48.13802083333333" y1="0" x2="48.13802083333333" y2="177" fill="rgb(0, 0, 0)" stroke="rgb(66, 66, 66)" stroke-width="1px" opacity="0.25"></line><line x1="72.20703125" y1="0" x2="72.20703125" y2="177" fill="rgb(0, 0, 0)" stroke="rgb(66, 66, 66)" stroke-width="1px" opacity="0.25"></line><line x1="96.27604166666666" y1="0" x2="96.27604166666666" y2="177" fill="rgb(0, 0, 0)" stroke="rgb(66, 66, 66)" stroke-width="1px" opacity="0.25"></line><line x1="120.34505208333334" y1="0" x2="120.34505208333334" y2="177" fill="rgb(0, 0, 0)" stroke="rgb(66, 66, 66)" stroke-width="1px" opacity="0.25"></line><line x1="144.4140625" y1="0" x2="144.4140625" y2="177" fill="rgb(0, 0, 0)" stroke="rgb(66, 66, 66)" stroke-width="1px" opacity="0.25"></line><line x1="168.48307291666669" y1="0" x2="168.48307291666669" y2="177" fill="rgb(0, 0, 0)" stroke="rgb(66, 66, 66)" stroke-width="1px" opacity="0.25"></line><line x1="192.55208333333331" y1="0" x2="192.55208333333331" y2="177" fill="rgb(0, 0, 0)" stroke="rgb(66, 66, 66)" stroke-width="1px" opacity="0.25"></line><line x1="216.62109375" y1="0" x2="216.62109375" y2="177" fill="rgb(0, 0, 0)" stroke="rgb(66, 66, 66)" stroke-width="1px" opacity="0.25"></line><line x1="240.69010416666669" y1="0" x2="240.69010416666669" y2="177" fill="rgb(0, 0, 0)" stroke="rgb(66, 66, 66)" stroke-width="1px" opacity="0.25"></line><line x1="264.7591145833333" y1="0" x2="264.7591145833333" y2="177" fill="rgb(0, 0, 0)" stroke="rgb(66, 66, 66)" stroke-width="1px" opacity="0.25"></line><line x1="288.828125" y1="0" x2="288.828125" y2="177" fill="rgb(0, 0, 0)" stroke="rgb(66, 66, 66)" stroke-width="1px" opacity="0.25"></line></g><g><line x1="0" y1="177" x2="288.828125" y2="177" fill="rgb(0, 0, 0)" stroke="rgb(66, 66, 66)" stroke-width="1px" opacity="0.25"></line><line x1="0" y1="163.3846153846154" x2="288.828125" y2="163.3846153846154" fill="rgb(0, 0, 0)" stroke="rgb(66, 66, 66)" stroke-width="1px" opacity="0.25"></line><line x1="0" y1="149.76923076923077" x2="288.828125" y2="149.76923076923077" fill="rgb(0, 0, 0)" stroke="rgb(66, 66, 66)" stroke-width="1px" opacity="0.25"></line><line x1="0" y1="136.15384615384613" x2="288.828125" y2="136.15384615384613" fill="rgb(0, 0, 0)" stroke="rgb(66, 66, 66)" stroke-width="1px" opacity="0.25"></line><line x1="0" y1="122.53846153846153" x2="288.828125" y2="122.53846153846153" fill="rgb(0, 0, 0)" stroke="rgb(66, 66, 66)" stroke-width="1px" opacity="0.25"></line><line x1="0" y1="108.92307692307693" x2="288.828125" y2="108.92307692307693" fill="rgb(0, 0, 0)" stroke="rgb(66, 66, 66)" stroke-width="1px" opacity="0.25"></line><line x1="0" y1="95.3076923076923" x2="288.828125" y2="95.3076923076923" fill="rgb(0, 0, 0)" stroke="rgb(66, 66, 66)" stroke-width="1px" opacity="0.25"></line><line x1="0" y1="81.6923076923077" x2="288.828125" y2="81.6923076923077" fill="rgb(0, 0, 0)" stroke="rgb(66, 66, 66)" stroke-width="1px" opacity="0.25"></line><line x1="0" y1="68.07692307692307" x2="288.828125" y2="68.07692307692307" fill="rgb(0, 0, 0)" stroke="rgb(66, 66, 66)" stroke-width="1px" opacity="0.25"></line><line x1="0" y1="54.46153846153847" x2="288.828125" y2="54.46153846153847" fill="rgb(0, 0, 0)" stroke="rgb(66, 66, 66)" stroke-width="1px" opacity="0.25"></line><line x1="0" y1="40.84615384615384" x2="288.828125" y2="40.84615384615384" fill="rgb(0, 0, 0)" stroke="rgb(66, 66, 66)" stroke-width="1px" opacity="0.25"></line><line x1="0" y1="27.230769230769234" x2="288.828125" y2="27.230769230769234" fill="rgb(0, 0, 0)" stroke="rgb(66, 66, 66)" stroke-width="1px" opacity="0.25"></line><line x1="0" y1="13.615384615384606" x2="288.828125" y2="13.615384615384606" fill="rgb(0, 0, 0)" stroke="rgb(66, 66, 66)" stroke-width="1px" opacity="0.25"></line><line x1="0" y1="0" x2="288.828125" y2="0" fill="rgb(0, 0, 0)" stroke="rgb(66, 66, 66)" stroke-width="1px" opacity="0.25"></line></g></g></g><g><g><line x1="0" y1="177" x2="288.828125" y2="177" fill="rgb(0, 0, 0)" stroke="rgb(153, 153, 153)" stroke-width="1.5px"></line></g></g><g><g><line x1="24.069010416666664" y1="0" x2="24.069010416666664" y2="177" fill="rgb(0, 0, 0)" stroke="rgb(153, 153, 153)" stroke-width="1.5px"></line></g></g><g><g><g><g><g><path stroke="rgb(51, 187, 238)" stroke-width="2px" d="M24.069010416666664,4.071186147836535L25.2724609375,4.198175952617944L26.475911458333332,4.385225824329144L27.679361979166668,4.547832519393177L28.8828125,4.7423481055114705L30.086263020833336,5.074530710060985L31.289713541666668,5.623870693622555L32.4931640625,6.520042211972099L33.696614583333336,8.146231021577744L34.900065104166664,11.261536498693658L36.103515625,16.920501812741982L37.306966145833336,26.53835097157611L38.510416666666664,40.99045414792742L39.7138671875,58.10375979148936L40.917317708333336,70.19160216354956L42.12076822916667,80.39771378906757L43.32421875,90.76414432576314L44.527669270833336,99.47721802429228L45.731119791666664,107.03043848201817L46.9345703125,112.17399972994396L48.13802083333333,115.7925535494332L49.341471354166664,115.09703198011957L50.544921875,118.17733075683547L51.748372395833336,122.59063044434853L52.951822916666664,109.28917054708056L54.1552734375,109.83054030476107L55.358723958333336,114.87493703993383L56.562174479166664,120.35930477832714L57.765625,106.36174571581428L58.969075520833336,103.76154711757316L60.17252604166667,110.57278850206647L61.3759765625,118.37393196654757L62.579427083333336,85.39275010801705L63.782877604166664,67.10037480738877L64.986328125,68.12135718864333L66.18977864583333,76.98792458718161L67.39322916666667,87.81440387655189L68.5966796875,96.60189926022848L69.80013020833333,104.38836123439211L71.00358072916666,109.78437509933578L72.20703125,113.7903468364022L73.41048177083333,115.0247502730333L74.61393229166667,114.98813038090677L75.8173828125,116.32843983672397L77.02083333333333,117.89912246777759L78.22428385416666,120.14544279420811L79.427734375,122.12921738370547L80.63118489583333,122.75566028487978L81.83463541666667,121.17646349737896L83.0380859375,121.46016544255525L84.24153645833334,122.2485918849781L85.44498697916667,122.73290138436867L86.6484375,121.43633910661053L87.85188802083333,119.95974403450263L89.05533854166667,120.8215689173217L90.2587890625,123.19942088953154L91.46223958333333,125.61663966938653L92.66569010416667,123.38491022140325L93.869140625,122.48035988547109L95.07259114583333,123.02779119232537L96.27604166666666,124.19191082754969L97.4794921875,124.66311105857909L98.68294270833333,125.13502886659278L99.88639322916667,124.18258672162334L101.08984375,125.68457897295296L102.29329427083334,124.86068747541842L103.49674479166667,126.21534407892592L104.7001953125,128.69716281191384L105.90364583333333,131.78737807514412L107.10709635416667,129.381660252914L108.310546875,129.8022292309251L109.51399739583333,132.29382272109711L110.71744791666667,134.4435671264984L111.9208984375,133.2260140458059L113.12434895833333,133.43603901642584L114.32779947916666,135.65704319088016L115.53125,134.7696216664812L116.73470052083333,130.65122015283345L117.93815104166667,133.363203151646L119.1416015625,137.0379842501372L120.34505208333334,136.87654493522356L121.54850260416667,135.70857173652476L122.751953125,130.1003740646763L123.95540364583333,133.12844196810266L125.15885416666667,136.97764977558816L126.3623046875,137.32594412278976L127.56575520833333,138.8994757848217L128.76920572916669,139.9943346408149L129.97265625,140.30917837425758L131.17610677083334,140.8516940362733L132.37955729166666,140.29889145932407L133.5830078125,140.84290584539613L134.78645833333334,141.28700312262228L135.98990885416666,141.45292337485043L137.193359375,142.11789625560436L138.39680989583334,142.53887534538484L139.60026041666666,142.61404396662095L140.8037109375,143.19994781739746L142.00716145833331,141.14822183609652L143.21061197916666,142.03539738200647L144.4140625,143.33671598704643L145.61751302083334,143.38932340608002L146.82096354166666,144.01233105724478L148.0244140625,142.40669107725552L149.22786458333334,143.76898331184307L150.43131510416669,144.65269127072216L151.634765625,145.11946705735517L152.83821614583334,143.47628964697319L154.04166666666666,144.69093317445194L155.2451171875,146.25642473058014L156.44856770833331,145.7699277894448L157.65201822916666,145.68419001576424L158.85546875,143.90141291645975L160.05891927083334,145.16743746686052L161.26236979166666,146.82367064755923L162.4658203125,148.58316541531588L163.66927083333334,150.05941760668654L164.87272135416666,151.43318206754256L166.076171875,152.25578452692127L167.27962239583334,153.57926535632706L168.48307291666669,154.19985160505976L169.6865234375,154.89088097129905L170.88997395833334,155.9125241929432L172.09342447916666,156.52613920589513L173.296875,157.1186063844896L174.50032552083331,156.07970643323281L175.70377604166666,154.27176733669L176.9072265625,152.07852924591424L178.11067708333334,148.8114346298803L179.31412760416666,148.51878076083833L180.517578125,153.25545117698076L181.72102864583334,153.37142805482125L182.92447916666666,155.06283717957245L184.1279296875,156.36362733779154L185.33138020833334,156.54157911263587L186.53483072916669,155.2804461248081L187.73828125,151.97900158507866L188.94173177083334,153.4210503651097L190.14518229166666,154.48817025812832L191.3486328125,153.92650721985595L192.55208333333331,155.04871647039766L193.75553385416666,157.76385608885667L194.958984375,158.885391578776L196.16243489583334,159.44840961110273L197.36588541666666,159.8479168040715L198.5693359375,161.7970719654244L199.77278645833334,162.07220822489018L200.97623697916666,160.9958966512427L202.1796875,161.64890471343944L203.38313802083334,160.0403449549041L204.58658854166669,161.56820397282976L205.7900390625,161.96662064936044L206.99348958333334,156.63253074392065L208.19694010416666,145.87738569019254L209.400390625,148.53866930567952L210.60384114583331,150.64153472268055L211.80729166666666,154.09603393644787L213.0107421875,154.46098163365357L214.21419270833334,156.94144328223166L215.41764322916666,160.1471667482415L216.62109375,161.17862443906284L217.82454427083334,158.85386062816877L219.02799479166666,160.4858006509585L220.2314453125,159.89488619454895L221.43489583333334,160.70850162076334L222.63834635416669,160.28234802164295L223.841796875,161.20015509218874L225.04524739583334,160.22389314639648L226.24869791666666,161.70629702957092L227.4521484375,159.19176232043185L228.65559895833331,154.45776014635317L229.85904947916666,153.04616813990776L231.0625,150.13175201732054L232.26595052083334,154.52349828586935L233.46940104166666,156.0945337390246L234.6728515625,159.03379955860032L235.87630208333334,157.64825164020826L237.07975260416666,159.47484848497007L238.283203125,161.77802600382384L239.48665364583334,162.99423227052597L240.69010416666669,163.34942242834623L241.8935546875,162.550700040917L243.09700520833334,163.70141529197807L244.30045572916666,162.585870126678L245.50390625,156.0318128287111L246.70735677083331,153.0935092811359L247.91080729166666,142.1979414404514L249.1142578125,147.50014911813952L250.31770833333334,150.62979360061627L251.52115885416666,155.93949113886663L252.724609375,157.62547790053L253.92805989583334,156.71062765922574L255.13151041666666,160.78686882059554L256.3349609375,161.70952034020888L257.53841145833337,157.52222668354239L258.7418619791667,157.53592067527717L259.9453125,149.24333219032258L261.1487630208333,149.48630572006795L262.3522135416667,153.0465763350606L263.5556640625,154.7602055525763" style="fill: none;" fill="none"></path></g></g></g></g><g opacity="0.2"><g><g><g><path stroke="rgb(51, 187, 238)" stroke-width="2px" d="M24.069010416666664,4.071186147836535L25.2724609375,4.274369835486786L26.475911458333332,4.564793701171885L27.679361979166668,4.73905799278847L28.8828125,4.996307654747603L30.086263020833336,5.534058837890627L31.289713541666668,6.409435659555291L32.4931640625,7.826668888972364L33.696614583333336,10.544543644831737L34.900065104166664,15.887402062049276L36.103515625,25.357623384915858L37.306966145833336,40.9127847994291L38.510416666666664,62.62142028808593L39.7138671875,83.74019150954027L40.917317708333336,88.30915691669172L42.12076822916667,95.69968308668871L43.32421875,106.30940340482272L44.527669270833336,112.54461632361779L45.731119791666664,118.35911851149339L46.9345703125,119.88887145996094L48.13802083333333,121.22018582857574L49.341471354166664,114.05377251258264L50.544921875,122.79771810678335L51.748372395833336,129.2105276958759L52.951822916666664,89.33707524226261L54.1552734375,110.64259263258714L55.358723958333336,122.44151923546423L56.562174479166664,128.5858479661208L57.765625,85.36542001577524L58.969075520833336,99.86125065730168L60.17252604166667,120.7896483201247L61.3759765625,130.07564561110274L62.579427083333336,35.92098125751201L63.782877604166664,39.6618131666917L64.986328125,69.65283071664663L66.18977864583333,90.28777545635518L67.39322916666667,104.05412264310398L68.5966796875,109.78314225416916L69.80013020833333,116.06805415226863L71.00358072916666,117.87839587871845L72.20703125,119.79930443396935L73.41048177083333,116.8763554264949L74.61393229166667,114.93320054274338L75.8173828125,118.33890401986929L77.02083333333333,120.25514641394982L78.22428385416666,123.51492328350359L79.427734375,125.10487926776592L80.63118489583333,123.69532463660606L81.83463541666667,118.80766831618088L83.0380859375,121.885718360314L84.24153645833334,123.43123154860277L85.44498697916667,123.45936563345103L86.6484375,119.49149568997898L87.85188802083333,117.74485142634465L89.05533854166667,122.11430624154897L90.2587890625,126.76619884784405L91.46223958333333,129.2424678391677L92.66569010416667,120.0373160494291L93.869140625,121.12353438157301L95.07259114583333,123.84893815260666L96.27604166666666,125.9380902803861L97.4794921875,125.36991140512319L98.68294270833333,125.84290557861328L99.88639322916667,122.75392350416915L101.08984375,127.93756734994741L102.29329427083334,123.62485022911657L103.49674479166667,128.2473289841872L104.7001953125,132.41989091139573L105.90364583333333,136.42270096998948L107.10709635416667,125.77308351956881L108.310546875,130.4330826979417L109.51399739583333,136.03121295635515L110.71744791666667,137.66818373460035L111.9208984375,131.39968442476712L113.12434895833333,133.75107647235578L114.32779947916666,138.9885494525616L115.53125,133.4384893798828L116.73470052083333,124.47361788236178L117.93815104166667,137.4311776498648L119.1416015625,142.55015589787408L120.34505208333334,136.63438596285306L121.54850260416667,133.95661193847656L122.751953125,121.68807755690354L123.95540364583333,137.67054382324218L125.15885416666667,142.7514614868164L126.3623046875,137.84838564359225L127.56575520833333,141.25977327786958L128.76920572916669,141.6366229248047L129.97265625,140.7814439744216L131.17610677083334,141.66546752929688L132.37955729166666,139.46968759390023L133.5830078125,141.6589274245042L134.78645833333334,141.95314903846153L135.98990885416666,141.70180375319262L137.193359375,143.11535557673528L138.39680989583334,143.1703439800556L139.60026041666666,142.72679689847507L140.8037109375,144.0788035935622L142.00716145833331,138.07063286414513L143.21061197916666,143.3661607008714L144.4140625,145.28869389460635L145.61751302083334,143.4682345346304L146.82096354166666,144.94684253399188L148.0244140625,139.99823110727164L149.22786458333334,145.81242166372445L150.43131510416669,145.97825320904073L151.634765625,145.8196307373047L152.83821614583334,141.01152353140026L154.04166666666666,146.51289846567008L155.2451171875,148.60466206477238L156.44856770833331,145.04018237774187L157.65201822916666,145.55558335524339L158.85546875,141.227247267503L160.05891927083334,147.0664742924617L161.26236979166666,149.30802041860727L162.4658203125,151.22240756695086L163.66927083333334,152.2737958937425L164.87272135416666,153.49382875882662L166.076171875,153.48968821598933L167.27962239583334,155.56448660043569L168.48307291666669,155.1307309781588L169.6865234375,155.92742502065806L170.88997395833334,157.4449890254094L172.09342447916666,157.44656172532302L173.296875,158.00730715238132L174.50032552083331,154.52135650634764L175.70377604166666,151.55985869187575L176.9072265625,148.7886721097506L178.11067708333334,143.91079270582932L179.31412760416666,148.07979995727538L180.517578125,160.3604568011944L181.72102864583334,153.54539337158204L182.92447916666666,157.59995086669923L184.1279296875,158.3148125751202L185.33138020833334,156.80850677490236L186.53483072916669,153.3887466430664L187.73828125,147.02683477548453L188.94173177083334,155.58412353515624L190.14518229166666,156.08885009765626L191.3486328125,153.08401266244744L192.55208333333331,156.7320303462102L193.75553385416666,161.83656551654522L194.958984375,160.56769481365498L196.16243489583334,160.29293665959284L197.36588541666666,160.44717759352463L198.5693359375,164.7208047074538L199.77278645833334,162.48491261408878L200.97623697916666,159.38142929077148L202.1796875,162.62841680673452L203.38313802083334,157.6275053171011L204.58658854166669,163.8599924997183L205.7900390625,162.5642456641564L206.99348958333334,148.63139588576098L208.19694010416666,129.74466810960035L209.400390625,152.53059472891002L210.60384114583331,153.79583284818207L211.80729166666666,159.27778275709886L213.0107421875,155.00840317946214L214.21419270833334,160.6621357550988L215.41764322916666,164.95575194725623L216.62109375,162.72581097529485L217.82454427083334,155.36671491182767L219.02799479166666,162.9337106851431L220.2314453125,159.00851450993463L221.43489583333334,161.9289247600849L222.63834635416669,159.64311762296236L223.841796875,162.57686569800742L225.04524739583334,158.7595002277081L226.24869791666666,163.92990285433257L227.4521484375,155.41996025672324L228.65559895833331,147.35675688523511L229.85904947916666,150.92878013023963L231.0625,145.76012783343975L232.26595052083334,161.11111768869253L233.46940104166666,158.4510869187575L234.6728515625,163.44269828796388L235.87630208333334,155.5699297626202L237.07975260416666,162.21474375211275L238.283203125,165.2327922821045L239.48665364583334,164.81854167057918L240.69010416666669,163.88220766507663L241.8935546875,161.35261645977315L243.09700520833334,165.4274881685697L244.30045572916666,160.91255237872784L245.50390625,146.2007268817608L246.70735677083331,148.68605395977312L247.91080729166666,125.85458967942458L249.1142578125,155.45346063467173L250.31770833333334,155.32426032433142L251.52115885416666,163.9040374462421L252.724609375,160.15445804302507L253.92805989583334,155.33835229726938L255.13151041666666,166.90123056265026L256.3349609375,163.0934976196289L257.53841145833337,151.24128619854267L258.7418619791667,157.55646166287937L259.9453125,136.80444946289063L261.1487630208333,149.850766014686L262.3522135416667,158.3869822575496L263.5556640625,157.33064937884993" style="fill: none;" fill="none"></path></g></g></g></g></g></g><g transform="translate(41, 177)" clip-path="url(#clip_1)"><clipPath id="clip_1"><rect width="288" height="23"></rect></clipPath><g><g><line x1="0" y1="0" x2="0" y2="5" style="visibility: inherit;" fill="rgb(0, 0, 0)" stroke="rgb(204, 204, 204)" stroke-width="1px"></line><line x1="24.069010416666664" y1="0" x2="24.069010416666664" y2="5" style="visibility: inherit;" fill="rgb(0, 0, 0)" stroke="rgb(204, 204, 204)" stroke-width="1px"></line><line x1="48.13802083333333" y1="0" x2="48.13802083333333" y2="5" style="visibility: inherit;" fill="rgb(0, 0, 0)" stroke="rgb(204, 204, 204)" stroke-width="1px"></line><line x1="72.20703125" y1="0" x2="72.20703125" y2="5" style="visibility: inherit;" fill="rgb(0, 0, 0)" stroke="rgb(204, 204, 204)" stroke-width="1px"></line><line x1="96.27604166666666" y1="0" x2="96.27604166666666" y2="5" style="visibility: inherit;" fill="rgb(0, 0, 0)" stroke="rgb(204, 204, 204)" stroke-width="1px"></line><line x1="120.34505208333334" y1="0" x2="120.34505208333334" y2="5" style="visibility: inherit;" fill="rgb(0, 0, 0)" stroke="rgb(204, 204, 204)" stroke-width="1px"></line><line x1="144.4140625" y1="0" x2="144.4140625" y2="5" style="visibility: inherit;" fill="rgb(0, 0, 0)" stroke="rgb(204, 204, 204)" stroke-width="1px"></line><line x1="168.48307291666669" y1="0" x2="168.48307291666669" y2="5" style="visibility: inherit;" fill="rgb(0, 0, 0)" stroke="rgb(204, 204, 204)" stroke-width="1px"></line><line x1="192.55208333333331" y1="0" x2="192.55208333333331" y2="5" style="visibility: inherit;" fill="rgb(0, 0, 0)" stroke="rgb(204, 204, 204)" stroke-width="1px"></line><line x1="216.62109375" y1="0" x2="216.62109375" y2="5" style="visibility: inherit;" fill="rgb(0, 0, 0)" stroke="rgb(204, 204, 204)" stroke-width="1px"></line><line x1="240.69010416666669" y1="0" x2="240.69010416666669" y2="5" style="visibility: inherit;" fill="rgb(0, 0, 0)" stroke="rgb(204, 204, 204)" stroke-width="1px"></line><line x1="264.7591145833333" y1="0" x2="264.7591145833333" y2="5" style="visibility: inherit;" fill="rgb(0, 0, 0)" stroke="rgb(204, 204, 204)" stroke-width="1px"></line><line x1="288.828125" y1="0" x2="288.828125" y2="5" style="visibility: inherit;" fill="rgb(0, 0, 0)" stroke="rgb(204, 204, 204)" stroke-width="1px"></line></g><g transform="translate(0, 8)"><text x="0" y="0" dx="0em" dy="0.95em" style="text-anchor: middle; visibility: hidden; font-family: Roboto, sans-serif; font-size: 12px; font-weight: 200;" fill="rgb(33, 33, 33)" stroke="none" stroke-width="1px">-20</text><text x="24.069010416666664" y="0" dx="0em" dy="0.95em" style="text-anchor: middle; visibility: inherit; font-family: Roboto, sans-serif; font-size: 12px; font-weight: 200;" fill="rgb(33, 33, 33)" stroke="none" stroke-width="1px">0</text><text x="48.13802083333333" y="0" dx="0em" dy="0.95em" style="text-anchor: middle; visibility: hidden; font-family: Roboto, sans-serif; font-size: 12px; font-weight: 200;" fill="rgb(33, 33, 33)" stroke="none" stroke-width="1px">20</text><text x="72.20703125" y="0" dx="0em" dy="0.95em" style="text-anchor: middle; visibility: inherit; font-family: Roboto, sans-serif; font-size: 12px; font-weight: 200;" fill="rgb(33, 33, 33)" stroke="none" stroke-width="1px">40</text><text x="96.27604166666666" y="0" dx="0em" dy="0.95em" style="text-anchor: middle; visibility: hidden; font-family: Roboto, sans-serif; font-size: 12px; font-weight: 200;" fill="rgb(33, 33, 33)" stroke="none" stroke-width="1px">60</text><text x="120.34505208333334" y="0" dx="0em" dy="0.95em" style="text-anchor: middle; visibility: inherit; font-family: Roboto, sans-serif; font-size: 12px; font-weight: 200;" fill="rgb(33, 33, 33)" stroke="none" stroke-width="1px">80</text><text x="144.4140625" y="0" dx="0em" dy="0.95em" style="text-anchor: middle; visibility: hidden; font-family: Roboto, sans-serif; font-size: 12px; font-weight: 200;" fill="rgb(33, 33, 33)" stroke="none" stroke-width="1px">100</text><text x="168.48307291666669" y="0" dx="0em" dy="0.95em" style="text-anchor: middle; visibility: inherit; font-family: Roboto, sans-serif; font-size: 12px; font-weight: 200;" fill="rgb(33, 33, 33)" stroke="none" stroke-width="1px">120</text><text x="192.55208333333331" y="0" dx="0em" dy="0.95em" style="text-anchor: middle; visibility: hidden; font-family: Roboto, sans-serif; font-size: 12px; font-weight: 200;" fill="rgb(33, 33, 33)" stroke="none" stroke-width="1px">140</text><text x="216.62109375" y="0" dx="0em" dy="0.95em" style="text-anchor: middle; visibility: inherit; font-family: Roboto, sans-serif; font-size: 12px; font-weight: 200;" fill="rgb(33, 33, 33)" stroke="none" stroke-width="1px">160</text><text x="240.69010416666669" y="0" dx="0em" dy="0.95em" style="text-anchor: middle; visibility: hidden; font-family: Roboto, sans-serif; font-size: 12px; font-weight: 200;" fill="rgb(33, 33, 33)" stroke="none" stroke-width="1px">180</text><text x="264.7591145833333" y="0" dx="0em" dy="0.95em" style="text-anchor: middle; visibility: inherit; font-family: Roboto, sans-serif; font-size: 12px; font-weight: 200;" fill="rgb(33, 33, 33)" stroke="none" stroke-width="1px">200</text><text x="288.828125" y="0" dx="0em" dy="0.95em" style="text-anchor: middle; visibility: hidden; font-family: Roboto, sans-serif; font-size: 12px; font-weight: 200;" fill="rgb(33, 33, 33)" stroke="none" stroke-width="1px">220</text></g><line x1="0" y1="0" x2="288.828125" y2="0" fill="rgb(0, 0, 0)" stroke="rgb(204, 204, 204)" stroke-width="1px"></line></g></g></g></g></svg>