<svg viewBox="0 0 301 200" xmlns="http://www.w3.org/2000/svg"><g><g><g><g><g><line x1="41.171875" y1="177" x2="36.171875" y2="177" style="visibility: inherit;" fill="rgb(0, 0, 0)" stroke="rgb(204, 204, 204)" stroke-width="1px"></line><line x1="41.171875" y1="159.3" x2="36.171875" y2="159.3" style="visibility: inherit;" fill="rgb(0, 0, 0)" stroke="rgb(204, 204, 204)" stroke-width="1px"></line><line x1="41.171875" y1="141.6" x2="36.171875" y2="141.6" style="visibility: inherit;" fill="rgb(0, 0, 0)" stroke="rgb(204, 204, 204)" stroke-width="1px"></line><line x1="41.171875" y1="123.89999999999999" x2="36.171875" y2="123.89999999999999" style="visibility: inherit;" fill="rgb(0, 0, 0)" stroke="rgb(204, 204, 204)" stroke-width="1px"></line><line x1="41.171875" y1="106.2" x2="36.171875" y2="106.2" style="visibility: inherit;" fill="rgb(0, 0, 0)" stroke="rgb(204, 204, 204)" stroke-width="1px"></line><line x1="41.171875" y1="88.5" x2="36.171875" y2="88.5" style="visibility: inherit;" fill="rgb(0, 0, 0)" stroke="rgb(204, 204, 204)" stroke-width="1px"></line><line x1="41.171875" y1="70.8" x2="36.171875" y2="70.8" style="visibility: inherit;" fill="rgb(0, 0, 0)" stroke="rgb(204, 204, 204)" stroke-width="1px"></line><line x1="41.171875" y1="53.10000000000001" x2="36.171875" y2="53.10000000000001" style="visibility: inherit;" fill="rgb(0, 0, 0)" stroke="rgb(204, 204, 204)" stroke-width="1px"></line><line x1="41.171875" y1="35.39999999999999" x2="36.171875" y2="35.39999999999999" style="visibility: inherit;" fill="rgb(0, 0, 0)" stroke="rgb(204, 204, 204)" stroke-width="1px"></line><line x1="41.171875" y1="17.699999999999996" x2="36.171875" y2="17.699999999999996" style="visibility: inherit;" fill="rgb(0, 0, 0)" stroke="rgb(204, 204, 204)" stroke-width="1px"></line><line x1="41.171875" y1="0" x2="36.171875" y2="0" style="visibility: inherit;" fill="rgb(0, 0, 0)" stroke="rgb(204, 204, 204)" stroke-width="1px"></line></g><g transform="translate(31.171875, 0)"><text x="0" y="177" dx="0em" dy="0.3em" style="text-anchor: end; visibility: hidden; font-family: Roboto, sans-serif; font-size: 12px; font-weight: 200;" fill="rgb(33, 33, 33)" stroke="none" stroke-width="1px">10</text><text x="0" y="159.3" dx="0em" dy="0.3em" style="text-anchor: end; visibility: inherit; font-family: Roboto, sans-serif; font-size: 12px; font-weight: 200;" fill="rgb(33, 33, 33)" stroke="none" stroke-width="1px">20</text><text x="0" y="141.6" dx="0em" dy="0.3em" style="text-anchor: end; visibility: hidden; font-family: Roboto, sans-serif; font-size: 12px; font-weight: 200;" fill="rgb(33, 33, 33)" stroke="none" stroke-width="1px">30</text><text x="0" y="123.89999999999999" dx="0em" dy="0.3em" style="text-anchor: end; visibility: inherit; font-family: Roboto, sans-serif; font-size: 12px; font-weight: 200;" fill="rgb(33, 33, 33)" stroke="none" stroke-width="1px">40</text><text x="0" y="106.2" dx="0em" dy="0.3em" style="text-anchor: end; visibility: hidden; font-family: Roboto, sans-serif; font-size: 12px; font-weight: 200;" fill="rgb(33, 33, 33)" stroke="none" stroke-width="1px">50</text><text x="0" y="88.5" dx="0em" dy="0.3em" style="text-anchor: end; visibility: inherit; font-family: Roboto, sans-serif; font-size: 12px; font-weight: 200;" fill="rgb(33, 33, 33)" stroke="none" stroke-width="1px">60</text><text x="0" y="70.8" dx="0em" dy="0.3em" style="text-anchor: end; visibility: hidden; font-family: Roboto, sans-serif; font-size: 12px; font-weight: 200;" fill="rgb(33, 33, 33)" stroke="none" stroke-width="1px">70</text><text x="0" y="53.10000000000001" dx="0em" dy="0.3em" style="text-anchor: end; visibility: inherit; font-family: Roboto, sans-serif; font-size: 12px; font-weight: 200;" fill="rgb(33, 33, 33)" stroke="none" stroke-width="1px">80</text><text x="0" y="35.39999999999999" dx="0em" dy="0.3em" style="text-anchor: end; visibility: hidden; font-family: Roboto, sans-serif; font-size: 12px; font-weight: 200;" fill="rgb(33, 33, 33)" stroke="none" stroke-width="1px">90</text><text x="0" y="17.699999999999996" dx="0em" dy="0.3em" style="text-anchor: end; visibility: inherit; font-family: Roboto, sans-serif; font-size: 12px; font-weight: 200;" fill="rgb(33, 33, 33)" stroke="none" stroke-width="1px">100</text><text x="0" y="0" dx="0em" dy="0.3em" style="text-anchor: end; visibility: hidden; font-family: Roboto, sans-serif; font-size: 12px; font-weight: 200;" fill="rgb(33, 33, 33)" stroke="none" stroke-width="1px">110</text></g><line x1="41.171875" y1="0" x2="41.171875" y2="177" fill="rgb(0, 0, 0)" stroke="rgb(204, 204, 204)" stroke-width="1px"></line></g></g><g transform="translate(41, 0)" clip-path="url(#clip_0)"><clipPath id="clip_0"><rect width="288" height="177"></rect></clipPath><g><g><g><line x1="0" y1="0" x2="0" y2="177" fill="rgb(0, 0, 0)" stroke="rgb(66, 66, 66)" stroke-width="1px" opacity="0.25"></line><line x1="24.069010416666664" y1="0" x2="24.069010416666664" y2="177" fill="rgb(0, 0, 0)" stroke="rgb(66, 66, 66)" stroke-width="1px" opacity="0.25"></line><line x1="48.13802083333333" y1="0" x2="48.13802083333333" y2="177" fill="rgb(0, 0, 0)" stroke="rgb(66, 66, 66)" stroke-width="1px" opacity="0.25"></line><line x1="72.20703125" y1="0" x2="72.20703125" y2="177" fill="rgb(0, 0, 0)" stroke="rgb(66, 66, 66)" stroke-width="1px" opacity="0.25"></line><line x1="96.27604166666666" y1="0" x2="96.27604166666666" y2="177" fill="rgb(0, 0, 0)" stroke="rgb(66, 66, 66)" stroke-width="1px" opacity="0.25"></line><line x1="120.34505208333334" y1="0" x2="120.34505208333334" y2="177" fill="rgb(0, 0, 0)" stroke="rgb(66, 66, 66)" stroke-width="1px" opacity="0.25"></line><line x1="144.4140625" y1="0" x2="144.4140625" y2="177" fill="rgb(0, 0, 0)" stroke="rgb(66, 66, 66)" stroke-width="1px" opacity="0.25"></line><line x1="168.48307291666669" y1="0" x2="168.48307291666669" y2="177" fill="rgb(0, 0, 0)" stroke="rgb(66, 66, 66)" stroke-width="1px" opacity="0.25"></line><line x1="192.55208333333331" y1="0" x2="192.55208333333331" y2="177" fill="rgb(0, 0, 0)" stroke="rgb(66, 66, 66)" stroke-width="1px" opacity="0.25"></line><line x1="216.62109375" y1="0" x2="216.62109375" y2="177" fill="rgb(0, 0, 0)" stroke="rgb(66, 66, 66)" stroke-width="1px" opacity="0.25"></line><line x1="240.69010416666669" y1="0" x2="240.69010416666669" y2="177" fill="rgb(0, 0, 0)" stroke="rgb(66, 66, 66)" stroke-width="1px" opacity="0.25"></line><line x1="264.7591145833333" y1="0" x2="264.7591145833333" y2="177" fill="rgb(0, 0, 0)" stroke="rgb(66, 66, 66)" stroke-width="1px" opacity="0.25"></line><line x1="288.828125" y1="0" x2="288.828125" y2="177" fill="rgb(0, 0, 0)" stroke="rgb(66, 66, 66)" stroke-width="1px" opacity="0.25"></line></g><g><line x1="0" y1="177" x2="288.828125" y2="177" fill="rgb(0, 0, 0)" stroke="rgb(66, 66, 66)" stroke-width="1px" opacity="0.25"></line><line x1="0" y1="159.3" x2="288.828125" y2="159.3" fill="rgb(0, 0, 0)" stroke="rgb(66, 66, 66)" stroke-width="1px" opacity="0.25"></line><line x1="0" y1="141.6" x2="288.828125" y2="141.6" fill="rgb(0, 0, 0)" stroke="rgb(66, 66, 66)" stroke-width="1px" opacity="0.25"></line><line x1="0" y1="123.89999999999999" x2="288.828125" y2="123.89999999999999" fill="rgb(0, 0, 0)" stroke="rgb(66, 66, 66)" stroke-width="1px" opacity="0.25"></line><line x1="0" y1="106.2" x2="288.828125" y2="106.2" fill="rgb(0, 0, 0)" stroke="rgb(66, 66, 66)" stroke-width="1px" opacity="0.25"></line><line x1="0" y1="88.5" x2="288.828125" y2="88.5" fill="rgb(0, 0, 0)" stroke="rgb(66, 66, 66)" stroke-width="1px" opacity="0.25"></line><line x1="0" y1="70.8" x2="288.828125" y2="70.8" fill="rgb(0, 0, 0)" stroke="rgb(66, 66, 66)" stroke-width="1px" opacity="0.25"></line><line x1="0" y1="53.10000000000001" x2="288.828125" y2="53.10000000000001" fill="rgb(0, 0, 0)" stroke="rgb(66, 66, 66)" stroke-width="1px" opacity="0.25"></line><line x1="0" y1="35.39999999999999" x2="288.828125" y2="35.39999999999999" fill="rgb(0, 0, 0)" stroke="rgb(66, 66, 66)" stroke-width="1px" opacity="0.25"></line><line x1="0" y1="17.699999999999996" x2="288.828125" y2="17.699999999999996" fill="rgb(0, 0, 0)" stroke="rgb(66, 66, 66)" stroke-width="1px" opacity="0.25"></line><line x1="0" y1="0" x2="288.828125" y2="0" fill="rgb(0, 0, 0)" stroke="rgb(66, 66, 66)" stroke-width="1px" opacity="0.25"></line></g></g></g><g><g><line x1="0" y1="194.70000000000002" x2="288.828125" y2="194.70000000000002" fill="rgb(0, 0, 0)" stroke="rgb(153, 153, 153)" stroke-width="1.5px"></line></g></g><g><g><line x1="24.069010416666664" y1="0" x2="24.069010416666664" y2="177" fill="rgb(0, 0, 0)" stroke="rgb(153, 153, 153)" stroke-width="1.5px"></line></g></g><g><g><g><g><g><path stroke="rgb(51, 187, 238)" stroke-width="2px" d="M24.069010416666664,46.31229469299316L25.2724609375,86.77145652294158L26.475911458333332,93.07706996528471L27.679361979166668,92.10227223788992L28.8828125,99.19179115369532L30.086263020833336,104.78615129034449L31.289713541666668,106.21274964309347L32.4931640625,107.77857551752619L33.696614583333336,110.94583170146323L34.900065104166664,114.7358553741405L36.103515625,115.12504920115074L37.306966145833336,128.6197809036572L38.510416666666664,125.73028200350699L39.7138671875,99.65262465511826L40.917317708333336,65.47717684807327L42.12076822916667,79.61184487780056L43.32421875,113.13308961603335L44.527669270833336,99.16331463855052L45.731119791666664,93.56884879138047L46.9345703125,91.8761256820879L48.13802083333333,91.69813445632816L49.341471354166664,30.828054283910802L50.544921875,70.57535876235502L51.748372395833336,107.81286293246109L52.951822916666664,47.92636915572337L54.1552734375,95.90822424548972L55.358723958333336,119.26250415787706L56.562174479166664,135.8069218800214L57.765625,49.98471147207908L58.969075520833336,90.40467022303785L60.17252604166667,103.09624334670714L61.3759765625,121.04144858520918L62.579427083333336,-5.17173599689606L63.782877604166664,12.128654789873005L64.986328125,46.68094610767266L66.18977864583333,87.45386116834369L67.39322916666667,120.90375692953097L68.5966796875,141.16179051452627L69.80013020833333,153.02059961513496L71.00358072916666,150.2365579007354L72.20703125,148.99703156409308L73.41048177083333,153.8998442536204L74.61393229166667,152.4431753124328L75.8173828125,152.06076379182457L77.02083333333333,156.08613506384324L78.22428385416666,155.42066764104766L79.427734375,161.93085494201944L80.63118489583333,147.8931500651162L81.83463541666667,105.80987029362977L83.0380859375,86.33194005932118L84.24153645833334,116.61421379465071L85.44498697916667,117.17810083233404L86.6484375,79.53703130621946L87.85188802083333,57.963484805437595L89.05533854166667,61.549827028284334L90.2587890625,106.41805481302634L91.46223958333333,134.39053463953113L92.66569010416667,123.15895699892711L93.869140625,116.69822580763213L95.07259114583333,134.10543211238775L96.27604166666666,142.41087850724L97.4794921875,152.23947543045503L98.68294270833333,154.23346975076572L99.88639322916667,135.05660214464876L101.08984375,120.70538807511927L102.29329427083334,99.12748665976876L103.49674479166667,104.61439266114446L104.7001953125,129.1275131372751L105.90364583333333,144.17689419675716L107.10709635416667,140.56117921214607L108.310546875,149.07168920148197L109.51399739583333,151.42933665626515L110.71744791666667,160.7426102220611L111.9208984375,131.88084945843198L113.12434895833333,123.69576251319396L114.32779947916666,141.72008843595592L115.53125,126.01079132756475L116.73470052083333,117.73034116006426L117.93815104166667,107.89710441527683L119.1416015625,131.8268566928978L120.34505208333334,102.26065951744766L121.54850260416667,103.51477566957503L122.751953125,91.2058115687372L123.95540364583333,113.21352261629116L125.15885416666667,131.8150598206902L126.3623046875,129.7241672095528L127.56575520833333,140.1443394675774L128.76920572916669,151.403113312657L129.97265625,135.79319699760399L131.17610677083334,143.8189529428251L132.37955729166666,133.26596342524095L133.5830078125,142.63511438632133L134.78645833333334,149.92707217183187L135.98990885416666,149.32640942553564L137.193359375,151.27347885692052L138.39680989583334,152.4024062381025L139.60026041666666,144.57008848773455L140.8037109375,150.45343752257236L142.00716145833331,113.14997151012544L143.21061197916666,124.3772415425499L144.4140625,136.17366965544934L145.61751302083334,131.44792409856746L146.82096354166666,139.54960941672104L148.0244140625,107.71477810120447L149.22786458333334,121.68898798499026L150.43131510416669,121.96358328171684L151.634765625,132.4640442027337L152.83821614583334,98.94413764224568L154.04166666666666,107.49180381337473L155.2451171875,125.86597958874506L156.44856770833331,106.81549748225095L157.65201822916666,102.80147202755856L158.85546875,57.56606534544138L160.05891927083334,75.67371701183025L161.26236979166666,93.71432435382667L162.4658203125,113.42130503862657L163.66927083333334,119.12508565073944L164.87272135416666,128.11138909796318L166.076171875,125.34732683646347L167.27962239583334,126.9633840779523L168.48307291666669,134.4135908105409L169.6865234375,132.21251149621224L170.88997395833334,124.05040176467071L172.09342447916666,127.5313159794567L173.296875,139.97779183071603L174.50032552083331,110.76578984452338L175.70377604166666,90.6777981559816L176.9072265625,47.588765075229574L178.11067708333334,4.058593761934611L179.31412760416666,-6.630184380046275L180.517578125,50.10033184633748L181.72102864583334,85.43772775617896L182.92447916666666,106.0001621358851L184.1279296875,108.48182382877228L185.33138020833334,105.7838806589577L186.53483072916669,74.26681524229845L187.73828125,-9.235746425910012L188.94173177083334,34.50496689359948L190.14518229166666,67.56807033086184L191.3486328125,43.897025365021L192.55208333333331,70.0085088896669L193.75553385416666,95.91207365655406L194.958984375,108.71485555257502L196.16243489583334,121.93436465600789L197.36588541666666,113.41166008388794L198.5693359375,136.56942756507274L199.77278645833334,146.24813243778632L200.97623697916666,144.4774645380502L202.1796875,151.25737024809868L203.38313802083334,122.91341213909358L204.58658854166669,137.03904185895664L205.7900390625,141.70883596589888L206.99348958333334,74.52298648554519L208.19694010416666,-11.982136392364284L209.400390625,31.08158275808729L210.60384114583331,45.053775948797686L211.80729166666666,93.84678928143681L213.0107421875,104.09773866895974L214.21419270833334,110.83727839424695L215.41764322916666,129.48515782329133L216.62109375,137.79868744452412L217.82454427083334,85.08511175870665L219.02799479166666,97.45280703019957L220.2314453125,106.68678022642052L221.43489583333334,114.90271457445097L222.63834635416669,88.6032130952565L223.841796875,117.5184172751837L225.04524739583334,111.87877486767368L226.24869791666666,123.0726879247546L227.4521484375,104.39721685031175L228.65559895833331,26.795462800616715L229.85904947916666,-37.60705782988387L231.0625,-57.33637300359438L232.26595052083334,26.11730421145423L233.46940104166666,59.75318375062743L234.6728515625,104.03461282224535L235.87630208333334,101.58521814805913L237.07975260416666,129.67413706101564L238.283203125,145.89979551480764L239.48665364583334,147.18085186485382L240.69010416666669,154.40027762892205L241.8935546875,151.8946801500461L243.09700520833334,155.53173537426838L244.30045572916666,143.00171721943408L245.50390625,79.30653258996121L246.70735677083331,-47.91357623459748L249.1142578125,-87.03411589294143L250.31770833333334,13.865225563112093L251.52115885416666,78.0568044891734L252.724609375,82.3761018585431L253.92805989583334,99.09252929444715L255.13151041666666,131.0000385460592L256.3349609375,138.3974823637805L257.53841145833337,78.6656473772527L258.7418619791667,89.06362904219633L259.9453125,109.02850795357708L261.1487630208333,117.54508751445583L262.3522135416667,128.1007466843937L263.5556640625,124.04739321632472" style="fill: none;" fill="none"></path></g></g></g></g><g opacity="0.2"><g><g><g><path stroke="rgb(51, 187, 238)" stroke-width="2px" d="M24.069010416666664,46.31229469299316L25.2724609375,111.04695362091064L26.475911458333332,99.13045886993409L27.679361979166668,90.95591011047362L28.8828125,108.44786705017091L30.086263020833336,112.5251653289795L31.289713541666668,108.25280811309814L32.4931640625,110.06156467437744L33.696614583333336,115.61691936492919L34.900065104166664,120.36359882354736L36.103515625,115.70530998229981L37.306966145833336,148.7884407234192L38.510416666666664,121.40546836853026L39.7138671875,60.58722747802734L40.917317708333336,14.25417709350586L42.12076822916667,100.8038780593872L43.32421875,163.40077165603637L44.527669270833336,78.21219909667968L45.731119791666664,85.17800228118895L46.9345703125,89.33719573974608L48.13802083333333,91.43115737915039L49.341471354166664,-60.47506301879884L50.544921875,130.19553073883054L51.748372395833336,163.66867807388306L52.951822916666664,-41.9029458618164L54.1552734375,167.8808022594452L55.358723958333336,154.2938642692566L56.562174479166664,160.62352306365966L57.765625,-78.74852508544922L58.969075520833336,151.03458600997925L60.17252604166667,122.13359882354736L61.3759765625,147.95925287246703L62.579427083333336,-194.49149780273436L63.782877604166664,38.07923973083495L64.986328125,98.50938159942625L66.18977864583333,148.6132327079773L67.39322916666667,171.07860005378723L68.5966796875,171.54884070396423L69.80013020833333,170.80881319999696L71.00358072916666,146.06049533843995L72.20703125,147.137742061615L73.41048177083333,161.25406328201294L74.61393229166667,150.25817190170287L75.8173828125,151.4871465110779L77.02083333333333,162.1241919708252L78.22428385416666,154.42246650695802L79.427734375,171.69613589286803L80.63118489583333,126.83659275054933L81.83463541666667,42.68495063781739L83.0380859375,57.115044708251965L84.24153645833334,162.03762439727782L85.44498697916667,118.02393138885498L86.6484375,23.07542701721191L87.85188802083333,25.60316505432128L89.05533854166667,66.92934036254883L90.2587890625,173.72039649009704L91.46223958333333,176.34925437927245L92.66569010416667,106.31159053802489L93.869140625,107.0071290206909L95.07259114583333,160.21624156951904L96.27604166666666,154.8690480995178L97.4794921875,166.9823708152771L98.68294270833333,157.2244612312317L99.88639322916667,106.29130073547363L101.08984375,99.1785669708252L102.29329427083334,66.76063453674317L103.49674479166667,112.84475166320799L104.7001953125,165.89719385147094L105.90364583333333,166.7509657859802L107.10709635416667,135.1376067352295L108.310546875,161.83745418548583L109.51399739583333,154.96580783843993L110.71744791666667,174.712520570755L111.9208984375,88.58820831298829L113.12434895833333,111.41813209533692L114.32779947916666,168.75657732009887L115.53125,102.44684566497804L116.73470052083333,105.30966590881347L117.93815104166667,93.14724929809572L119.1416015625,167.72148510932922L120.34505208333334,57.91136375427245L121.54850260416667,105.39594989776612L122.751953125,72.74236541748047L123.95540364583333,146.22508918762207L125.15885416666667,159.7173656272888L126.3623046875,126.5878282928467L127.56575520833333,155.77459785461426L128.76920572916669,168.29127408027648L129.97265625,112.3783225250244L131.17610677083334,155.85758686065674L132.37955729166666,117.43647914886475L133.5830078125,156.6888408279419L134.78645833333334,160.86500885009767L135.98990885416666,148.4254153060913L137.193359375,154.1940830039978L138.39680989583334,154.09579730987548L139.60026041666666,132.8216118621826L140.8037109375,159.2784610748291L142.00716145833331,57.194772491455076L143.21061197916666,141.21814659118652L144.4140625,153.86831182479858L145.61751302083334,124.35930576324462L146.82096354166666,151.7021373939514L148.0244140625,59.962531127929694L149.22786458333334,142.65030281066893L150.43131510416669,122.37547622680663L151.634765625,148.21473558425905L152.83821614583334,48.66427780151367L154.04166666666666,120.31330307006837L155.2451171875,153.42724325180055L156.44856770833331,78.23977432250977L157.65201822916666,96.78043384552002L158.85546875,-10.287044677734388L160.05891927083334,102.83519451141356L161.26236979166666,120.77523536682129L162.4658203125,142.9817760658264L163.66927083333334,127.68075656890869L164.87272135416666,141.59084426879883L166.076171875,121.20123344421387L167.27962239583334,129.38746994018555L168.48307291666669,145.5889009094238L169.6865234375,128.91089252471923L170.88997395833334,111.8072371673584L172.09342447916666,132.75268730163575L173.296875,158.64750560760498L174.50032552083331,66.94778686523438L175.70377604166666,60.54581062316894L176.9072265625,-17.044784545898438L179.31412760416666,-22.663351593017584L180.517578125,135.1961061859131L181.72102864583334,138.44382162094115L182.92447916666666,136.84381370544435L184.1279296875,112.20431636810302L185.33138020833334,101.73696590423584L186.53483072916669,26.991217117309567L187.73828125,-134.48958892822267L188.94173177083334,100.11603687286377L190.14518229166666,117.16272548675538L191.3486328125,8.39045791625977L192.55208333333331,109.17573417663576L193.75553385416666,134.76742080688476L194.958984375,127.91902839660645L196.16243489583334,141.76362831115722L197.36588541666666,100.62760322570803L198.5693359375,171.30607878684998L199.77278645833334,160.7661897468567L200.97623697916666,141.82146268844605L202.1796875,161.42722881317138L203.38313802083334,80.39747497558594L204.58658854166669,158.2274864387512L205.7900390625,148.71352712631224L206.99348958333334,-26.255787734985343L208.19694010416666,-141.73982070922852L209.400390625,95.67716148376465L210.60384114583331,66.01206573486328L211.80729166666666,167.0363092803955L213.0107421875,119.47416275024416L214.21419270833334,120.94658798217773L215.41764322916666,157.45697696685792L216.62109375,150.2689818763733L217.82454427083334,6.01474822998046L219.02799479166666,116.00434993743896L220.2314453125,120.53774002075195L221.43489583333334,127.22661609649658L222.63834635416669,49.153960876464836L223.841796875,160.89122354507447L225.04524739583334,103.41931125640869L226.24869791666666,139.86355751037598L227.4521484375,76.38401023864745L228.65559895833331,-89.6071682739258L231.0625,-86.93034576416018L232.26595052083334,151.2978200340271L233.46940104166666,110.2070030593872L234.6728515625,170.45675642967225L235.87630208333334,97.91112613677979L237.07975260416666,171.80751543045045L238.283203125,170.2382831954956L239.48665364583334,149.1024363899231L240.69010416666669,165.22941627502442L241.8935546875,148.13628393173218L243.09700520833334,160.9873182106018L244.30045572916666,124.20668998718263L245.50390625,-16.236244354248058L247.91080729166666,-302.7622595214844L249.1142578125,7.194284591674798L250.31770833333334,165.21423774719239L251.52115885416666,174.34417287826537L252.724609375,88.85504791259766L253.92805989583334,124.16717044830321L255.13151041666666,178.86130242347716L256.3349609375,149.49364809036254L257.53841145833337,-10.932105102539065L258.7418619791667,104.6606015396118L259.9453125,138.9758263206482L261.1487630208333,130.31995685577394L262.3522135416667,143.93423543930052L263.5556640625,117.9673630142212" style="fill: none;" fill="none"></path></g></g></g></g></g></g><g transform="translate(41, 177)" clip-path="url(#clip_1)"><clipPath id="clip_1"><rect width="288" height="23"></rect></clipPath><g><g><line x1="0" y1="0" x2="0" y2="5" style="visibility: inherit;" fill="rgb(0, 0, 0)" stroke="rgb(204, 204, 204)" stroke-width="1px"></line><line x1="24.069010416666664" y1="0" x2="24.069010416666664" y2="5" style="visibility: inherit;" fill="rgb(0, 0, 0)" stroke="rgb(204, 204, 204)" stroke-width="1px"></line><line x1="48.13802083333333" y1="0" x2="48.13802083333333" y2="5" style="visibility: inherit;" fill="rgb(0, 0, 0)" stroke="rgb(204, 204, 204)" stroke-width="1px"></line><line x1="72.20703125" y1="0" x2="72.20703125" y2="5" style="visibility: inherit;" fill="rgb(0, 0, 0)" stroke="rgb(204, 204, 204)" stroke-width="1px"></line><line x1="96.27604166666666" y1="0" x2="96.27604166666666" y2="5" style="visibility: inherit;" fill="rgb(0, 0, 0)" stroke="rgb(204, 204, 204)" stroke-width="1px"></line><line x1="120.34505208333334" y1="0" x2="120.34505208333334" y2="5" style="visibility: inherit;" fill="rgb(0, 0, 0)" stroke="rgb(204, 204, 204)" stroke-width="1px"></line><line x1="144.4140625" y1="0" x2="144.4140625" y2="5" style="visibility: inherit;" fill="rgb(0, 0, 0)" stroke="rgb(204, 204, 204)" stroke-width="1px"></line><line x1="168.48307291666669" y1="0" x2="168.48307291666669" y2="5" style="visibility: inherit;" fill="rgb(0, 0, 0)" stroke="rgb(204, 204, 204)" stroke-width="1px"></line><line x1="192.55208333333331" y1="0" x2="192.55208333333331" y2="5" style="visibility: inherit;" fill="rgb(0, 0, 0)" stroke="rgb(204, 204, 204)" stroke-width="1px"></line><line x1="216.62109375" y1="0" x2="216.62109375" y2="5" style="visibility: inherit;" fill="rgb(0, 0, 0)" stroke="rgb(204, 204, 204)" stroke-width="1px"></line><line x1="240.69010416666669" y1="0" x2="240.69010416666669" y2="5" style="visibility: inherit;" fill="rgb(0, 0, 0)" stroke="rgb(204, 204, 204)" stroke-width="1px"></line><line x1="264.7591145833333" y1="0" x2="264.7591145833333" y2="5" style="visibility: inherit;" fill="rgb(0, 0, 0)" stroke="rgb(204, 204, 204)" stroke-width="1px"></line><line x1="288.828125" y1="0" x2="288.828125" y2="5" style="visibility: inherit;" fill="rgb(0, 0, 0)" stroke="rgb(204, 204, 204)" stroke-width="1px"></line></g><g transform="translate(0, 8)"><text x="0" y="0" dx="0em" dy="0.95em" style="text-anchor: middle; visibility: hidden; font-family: Roboto, sans-serif; font-size: 12px; font-weight: 200;" fill="rgb(33, 33, 33)" stroke="none" stroke-width="1px">-20</text><text x="24.069010416666664" y="0" dx="0em" dy="0.95em" style="text-anchor: middle; visibility: inherit; font-family: Roboto, sans-serif; font-size: 12px; font-weight: 200;" fill="rgb(33, 33, 33)" stroke="none" stroke-width="1px">0</text><text x="48.13802083333333" y="0" dx="0em" dy="0.95em" style="text-anchor: middle; visibility: hidden; font-family: Roboto, sans-serif; font-size: 12px; font-weight: 200;" fill="rgb(33, 33, 33)" stroke="none" stroke-width="1px">20</text><text x="72.20703125" y="0" dx="0em" dy="0.95em" style="text-anchor: middle; visibility: inherit; font-family: Roboto, sans-serif; font-size: 12px; font-weight: 200;" fill="rgb(33, 33, 33)" stroke="none" stroke-width="1px">40</text><text x="96.27604166666666" y="0" dx="0em" dy="0.95em" style="text-anchor: middle; visibility: hidden; font-family: Roboto, sans-serif; font-size: 12px; font-weight: 200;" fill="rgb(33, 33, 33)" stroke="none" stroke-width="1px">60</text><text x="120.34505208333334" y="0" dx="0em" dy="0.95em" style="text-anchor: middle; visibility: inherit; font-family: Roboto, sans-serif; font-size: 12px; font-weight: 200;" fill="rgb(33, 33, 33)" stroke="none" stroke-width="1px">80</text><text x="144.4140625" y="0" dx="0em" dy="0.95em" style="text-anchor: middle; visibility: hidden; font-family: Roboto, sans-serif; font-size: 12px; font-weight: 200;" fill="rgb(33, 33, 33)" stroke="none" stroke-width="1px">100</text><text x="168.48307291666669" y="0" dx="0em" dy="0.95em" style="text-anchor: middle; visibility: inherit; font-family: Roboto, sans-serif; font-size: 12px; font-weight: 200;" fill="rgb(33, 33, 33)" stroke="none" stroke-width="1px">120</text><text x="192.55208333333331" y="0" dx="0em" dy="0.95em" style="text-anchor: middle; visibility: hidden; font-family: Roboto, sans-serif; font-size: 12px; font-weight: 200;" fill="rgb(33, 33, 33)" stroke="none" stroke-width="1px">140</text><text x="216.62109375" y="0" dx="0em" dy="0.95em" style="text-anchor: middle; visibility: inherit; font-family: Roboto, sans-serif; font-size: 12px; font-weight: 200;" fill="rgb(33, 33, 33)" stroke="none" stroke-width="1px">160</text><text x="240.69010416666669" y="0" dx="0em" dy="0.95em" style="text-anchor: middle; visibility: hidden; font-family: Roboto, sans-serif; font-size: 12px; font-weight: 200;" fill="rgb(33, 33, 33)" stroke="none" stroke-width="1px">180</text><text x="264.7591145833333" y="0" dx="0em" dy="0.95em" style="text-anchor: middle; visibility: inherit; font-family: Roboto, sans-serif; font-size: 12px; font-weight: 200;" fill="rgb(33, 33, 33)" stroke="none" stroke-width="1px">200</text><text x="288.828125" y="0" dx="0em" dy="0.95em" style="text-anchor: middle; visibility: hidden; font-family: Roboto, sans-serif; font-size: 12px; font-weight: 200;" fill="rgb(33, 33, 33)" stroke="none" stroke-width="1px">220</text></g><line x1="0" y1="0" x2="288.828125" y2="0" fill="rgb(0, 0, 0)" stroke="rgb(204, 204, 204)" stroke-width="1px"></line></g></g></g></g></svg>