<svg viewBox="0 0 301 200" xmlns="http://www.w3.org/2000/svg"><g><g><g><g><g><line x1="72.34375" y1="177" x2="67.34375" y2="177" style="visibility: inherit;" fill="rgb(0, 0, 0)" stroke="rgb(204, 204, 204)" stroke-width="1px"></line><line x1="72.34375" y1="163.3846153846154" x2="67.34375" y2="163.3846153846154" style="visibility: inherit;" fill="rgb(0, 0, 0)" stroke="rgb(204, 204, 204)" stroke-width="1px"></line><line x1="72.34375" y1="149.76923076923077" x2="67.34375" y2="149.76923076923077" style="visibility: inherit;" fill="rgb(0, 0, 0)" stroke="rgb(204, 204, 204)" stroke-width="1px"></line><line x1="72.34375" y1="136.15384615384613" x2="67.34375" y2="136.15384615384613" style="visibility: inherit;" fill="rgb(0, 0, 0)" stroke="rgb(204, 204, 204)" stroke-width="1px"></line><line x1="72.34375" y1="122.53846153846153" x2="67.34375" y2="122.53846153846153" style="visibility: inherit;" fill="rgb(0, 0, 0)" stroke="rgb(204, 204, 204)" stroke-width="1px"></line><line x1="72.34375" y1="108.92307692307693" x2="67.34375" y2="108.92307692307693" style="visibility: inherit;" fill="rgb(0, 0, 0)" stroke="rgb(204, 204, 204)" stroke-width="1px"></line><line x1="72.34375" y1="95.3076923076923" x2="67.34375" y2="95.3076923076923" style="visibility: inherit;" fill="rgb(0, 0, 0)" stroke="rgb(204, 204, 204)" stroke-width="1px"></line><line x1="72.34375" y1="81.6923076923077" x2="67.34375" y2="81.6923076923077" style="visibility: inherit;" fill="rgb(0, 0, 0)" stroke="rgb(204, 204, 204)" stroke-width="1px"></line><line x1="72.34375" y1="68.07692307692307" x2="67.34375" y2="68.07692307692307" style="visibility: inherit;" fill="rgb(0, 0, 0)" stroke="rgb(204, 204, 204)" stroke-width="1px"></line><line x1="72.34375" y1="54.46153846153847" x2="67.34375" y2="54.46153846153847" style="visibility: inherit;" fill="rgb(0, 0, 0)" stroke="rgb(204, 204, 204)" stroke-width="1px"></line><line x1="72.34375" y1="40.84615384615384" x2="67.34375" y2="40.84615384615384" style="visibility: inherit;" fill="rgb(0, 0, 0)" stroke="rgb(204, 204, 204)" stroke-width="1px"></line><line x1="72.34375" y1="27.230769230769234" x2="67.34375" y2="27.230769230769234" style="visibility: inherit;" fill="rgb(0, 0, 0)" stroke="rgb(204, 204, 204)" stroke-width="1px"></line><line x1="72.34375" y1="13.615384615384606" x2="67.34375" y2="13.615384615384606" style="visibility: inherit;" fill="rgb(0, 0, 0)" stroke="rgb(204, 204, 204)" stroke-width="1px"></line><line x1="72.34375" y1="0" x2="67.34375" y2="0" style="visibility: inherit;" fill="rgb(0, 0, 0)" stroke="rgb(204, 204, 204)" stroke-width="1px"></line></g><g transform="translate(62.34375, 0)"><text x="0" y="177" dx="0em" dy="0.3em" style="text-anchor: end; visibility: hidden; font-family: Roboto, sans-serif; font-size: 12px; font-weight: 200;" fill="rgb(33, 33, 33)" stroke="none" stroke-width="1px">2e+3</text><text x="0" y="163.3846153846154" dx="0em" dy="0.3em" style="text-anchor: end; visibility: inherit; font-family: Roboto, sans-serif; font-size: 12px; font-weight: 200;" fill="rgb(33, 33, 33)" stroke="none" stroke-width="1px">2.2e+3</text><text x="0" y="149.76923076923077" dx="0em" dy="0.3em" style="text-anchor: end; visibility: hidden; font-family: Roboto, sans-serif; font-size: 12px; font-weight: 200;" fill="rgb(33, 33, 33)" stroke="none" stroke-width="1px">2.4e+3</text><text x="0" y="136.15384615384613" dx="0em" dy="0.3em" style="text-anchor: end; visibility: inherit; font-family: Roboto, sans-serif; font-size: 12px; font-weight: 200;" fill="rgb(33, 33, 33)" stroke="none" stroke-width="1px">2.6e+3</text><text x="0" y="122.53846153846153" dx="0em" dy="0.3em" style="text-anchor: end; visibility: hidden; font-family: Roboto, sans-serif; font-size: 12px; font-weight: 200;" fill="rgb(33, 33, 33)" stroke="none" stroke-width="1px">2.8e+3</text><text x="0" y="108.92307692307693" dx="0em" dy="0.3em" style="text-anchor: end; visibility: inherit; font-family: Roboto, sans-serif; font-size: 12px; font-weight: 200;" fill="rgb(33, 33, 33)" stroke="none" stroke-width="1px">3e+3</text><text x="0" y="95.3076923076923" dx="0em" dy="0.3em" style="text-anchor: end; visibility: hidden; font-family: Roboto, sans-serif; font-size: 12px; font-weight: 200;" fill="rgb(33, 33, 33)" stroke="none" stroke-width="1px">3.2e+3</text><text x="0" y="81.6923076923077" dx="0em" dy="0.3em" style="text-anchor: end; visibility: inherit; font-family: Roboto, sans-serif; font-size: 12px; font-weight: 200;" fill="rgb(33, 33, 33)" stroke="none" stroke-width="1px">3.4e+3</text><text x="0" y="68.07692307692307" dx="0em" dy="0.3em" style="text-anchor: end; visibility: hidden; font-family: Roboto, sans-serif; font-size: 12px; font-weight: 200;" fill="rgb(33, 33, 33)" stroke="none" stroke-width="1px">3.6e+3</text><text x="0" y="54.46153846153847" dx="0em" dy="0.3em" style="text-anchor: end; visibility: inherit; font-family: Roboto, sans-serif; font-size: 12px; font-weight: 200;" fill="rgb(33, 33, 33)" stroke="none" stroke-width="1px">3.8e+3</text><text x="0" y="40.84615384615384" dx="0em" dy="0.3em" style="text-anchor: end; visibility: hidden; font-family: Roboto, sans-serif; font-size: 12px; font-weight: 200;" fill="rgb(33, 33, 33)" stroke="none" stroke-width="1px">4e+3</text><text x="0" y="27.230769230769234" dx="0em" dy="0.3em" style="text-anchor: end; visibility: inherit; font-family: Roboto, sans-serif; font-size: 12px; font-weight: 200;" fill="rgb(33, 33, 33)" stroke="none" stroke-width="1px">4.2e+3</text><text x="0" y="13.615384615384606" dx="0em" dy="0.3em" style="text-anchor: end; visibility: hidden; font-family: Roboto, sans-serif; font-size: 12px; font-weight: 200;" fill="rgb(33, 33, 33)" stroke="none" stroke-width="1px">4.4e+3</text><text x="0" y="0" dx="0em" dy="0.3em" style="text-anchor: end; visibility: hidden; font-family: Roboto, sans-serif; font-size: 12px; font-weight: 200;" fill="rgb(33, 33, 33)" stroke="none" stroke-width="1px">4.6e+3</text></g><line x1="72.34375" y1="0" x2="72.34375" y2="177" fill="rgb(0, 0, 0)" stroke="rgb(204, 204, 204)" stroke-width="1px"></line></g></g><g transform="translate(72, 0)" clip-path="url(#clip_0)"><clipPath id="clip_0"><rect width="257" height="177"></rect></clipPath><g><g><g><line x1="0" y1="0" x2="0" y2="177" fill="rgb(0, 0, 0)" stroke="rgb(66, 66, 66)" stroke-width="1px" opacity="0.25"></line><line x1="21.471354166666664" y1="0" x2="21.471354166666664" y2="177" fill="rgb(0, 0, 0)" stroke="rgb(66, 66, 66)" stroke-width="1px" opacity="0.25"></line><line x1="42.94270833333333" y1="0" x2="42.94270833333333" y2="177" fill="rgb(0, 0, 0)" stroke="rgb(66, 66, 66)" stroke-width="1px" opacity="0.25"></line><line x1="64.4140625" y1="0" x2="64.4140625" y2="177" fill="rgb(0, 0, 0)" stroke="rgb(66, 66, 66)" stroke-width="1px" opacity="0.25"></line><line x1="85.88541666666666" y1="0" x2="85.88541666666666" y2="177" fill="rgb(0, 0, 0)" stroke="rgb(66, 66, 66)" stroke-width="1px" opacity="0.25"></line><line x1="107.35677083333334" y1="0" x2="107.35677083333334" y2="177" fill="rgb(0, 0, 0)" stroke="rgb(66, 66, 66)" stroke-width="1px" opacity="0.25"></line><line x1="128.828125" y1="0" x2="128.828125" y2="177" fill="rgb(0, 0, 0)" stroke="rgb(66, 66, 66)" stroke-width="1px" opacity="0.25"></line><line x1="150.29947916666669" y1="0" x2="150.29947916666669" y2="177" fill="rgb(0, 0, 0)" stroke="rgb(66, 66, 66)" stroke-width="1px" opacity="0.25"></line><line x1="171.77083333333331" y1="0" x2="171.77083333333331" y2="177" fill="rgb(0, 0, 0)" stroke="rgb(66, 66, 66)" stroke-width="1px" opacity="0.25"></line><line x1="193.2421875" y1="0" x2="193.2421875" y2="177" fill="rgb(0, 0, 0)" stroke="rgb(66, 66, 66)" stroke-width="1px" opacity="0.25"></line><line x1="214.71354166666669" y1="0" x2="214.71354166666669" y2="177" fill="rgb(0, 0, 0)" stroke="rgb(66, 66, 66)" stroke-width="1px" opacity="0.25"></line><line x1="236.18489583333331" y1="0" x2="236.18489583333331" y2="177" fill="rgb(0, 0, 0)" stroke="rgb(66, 66, 66)" stroke-width="1px" opacity="0.25"></line><line x1="257.65625" y1="0" x2="257.65625" y2="177" fill="rgb(0, 0, 0)" stroke="rgb(66, 66, 66)" stroke-width="1px" opacity="0.25"></line></g><g><line x1="0" y1="177" x2="257.65625" y2="177" fill="rgb(0, 0, 0)" stroke="rgb(66, 66, 66)" stroke-width="1px" opacity="0.25"></line><line x1="0" y1="163.3846153846154" x2="257.65625" y2="163.3846153846154" fill="rgb(0, 0, 0)" stroke="rgb(66, 66, 66)" stroke-width="1px" opacity="0.25"></line><line x1="0" y1="149.76923076923077" x2="257.65625" y2="149.76923076923077" fill="rgb(0, 0, 0)" stroke="rgb(66, 66, 66)" stroke-width="1px" opacity="0.25"></line><line x1="0" y1="136.15384615384613" x2="257.65625" y2="136.15384615384613" fill="rgb(0, 0, 0)" stroke="rgb(66, 66, 66)" stroke-width="1px" opacity="0.25"></line><line x1="0" y1="122.53846153846153" x2="257.65625" y2="122.53846153846153" fill="rgb(0, 0, 0)" stroke="rgb(66, 66, 66)" stroke-width="1px" opacity="0.25"></line><line x1="0" y1="108.92307692307693" x2="257.65625" y2="108.92307692307693" fill="rgb(0, 0, 0)" stroke="rgb(66, 66, 66)" stroke-width="1px" opacity="0.25"></line><line x1="0" y1="95.3076923076923" x2="257.65625" y2="95.3076923076923" fill="rgb(0, 0, 0)" stroke="rgb(66, 66, 66)" stroke-width="1px" opacity="0.25"></line><line x1="0" y1="81.6923076923077" x2="257.65625" y2="81.6923076923077" fill="rgb(0, 0, 0)" stroke="rgb(66, 66, 66)" stroke-width="1px" opacity="0.25"></line><line x1="0" y1="68.07692307692307" x2="257.65625" y2="68.07692307692307" fill="rgb(0, 0, 0)" stroke="rgb(66, 66, 66)" stroke-width="1px" opacity="0.25"></line><line x1="0" y1="54.46153846153847" x2="257.65625" y2="54.46153846153847" fill="rgb(0, 0, 0)" stroke="rgb(66, 66, 66)" stroke-width="1px" opacity="0.25"></line><line x1="0" y1="40.84615384615384" x2="257.65625" y2="40.84615384615384" fill="rgb(0, 0, 0)" stroke="rgb(66, 66, 66)" stroke-width="1px" opacity="0.25"></line><line x1="0" y1="27.230769230769234" x2="257.65625" y2="27.230769230769234" fill="rgb(0, 0, 0)" stroke="rgb(66, 66, 66)" stroke-width="1px" opacity="0.25"></line><line x1="0" y1="13.615384615384606" x2="257.65625" y2="13.615384615384606" fill="rgb(0, 0, 0)" stroke="rgb(66, 66, 66)" stroke-width="1px" opacity="0.25"></line><line x1="0" y1="0" x2="257.65625" y2="0" fill="rgb(0, 0, 0)" stroke="rgb(66, 66, 66)" stroke-width="1px" opacity="0.25"></line></g></g></g><g><g><line x1="0" y1="313.15384615384613" x2="257.65625" y2="313.15384615384613" fill="rgb(0, 0, 0)" stroke="rgb(153, 153, 153)" stroke-width="1.5px"></line></g></g><g><g><line x1="21.471354166666664" y1="0" x2="21.471354166666664" y2="177" fill="rgb(0, 0, 0)" stroke="rgb(153, 153, 153)" stroke-width="1.5px"></line></g></g><g><g><g><g><g><path stroke="rgb(51, 187, 238)" stroke-width="2px" d="M21.471354166666664,8.324365046574517L22.544921875,9.911732412484984L23.618489583333332,10.200286150442787L24.692057291666668,10.202508971615652L25.765625,10.522309847908016L26.839192708333336,10.817663368515701L27.912760416666668,11.004132414109183L28.986328125,11.278223755489954L30.059895833333332,11.789381367634505L31.133463541666668,12.690383703145818L32.20703125,14.0854690595035L33.280598958333336,17.02124364262051L34.354166666666664,20.665252283589194L35.427734375,24.23600575116416L36.501302083333336,26.380710115698616L37.57486979166667,30.50862395264679L38.6484375,36.52905610992489L39.722005208333336,39.75493894573079L40.795572916666664,43.32722311536148L41.869140625,46.36281981788179L42.94270833333333,49.27505013465536L44.016276041666664,45.88762446727518L45.08984375,48.62498771191199L46.163411458333336,53.86680333476037L47.236979166666664,45.27336751538414L48.310546875,47.48598304256273L49.384114583333336,51.12368684797125L50.457682291666664,55.220452830712865L51.53125,44.85741428935329L52.604817708333336,45.260966691673005L53.67838541666667,49.70654946736553L54.751953125,55.83136240945896L55.825520833333336,37.23974985115852L56.899088541666664,31.070806013995675L57.97265625,30.26467695391449L59.04622395833333,32.47180642047456L60.119791666666664,36.17669554137883L61.193359375,38.8476070658146L62.266927083333336,43.783775864067835L63.340494791666664,46.484105628721025L64.4140625,50.2151468237347L65.48763020833333,52.04005132378486L66.56119791666667,51.85764092042018L67.634765625,53.12124106539167L68.70833333333333,54.28305608767306L69.78190104166666,55.78663725095483L70.85546875,58.26410190445168L71.92903645833333,57.05760653777611L73.00260416666667,52.80269095085359L74.076171875,51.72462414832796L75.14973958333334,54.428531550307994L76.22330729166667,54.9170495191285L77.296875,52.32169767271054L78.37044270833333,50.90768078812005L79.44401041666667,51.82123970784856L80.517578125,57.04934441064863L81.59114583333333,61.242948555945425L82.66471354166667,56.32786337184782L83.73828125,54.84140905375758L84.81184895833333,57.70347351218259L85.88541666666666,59.79540118964136L86.958984375,61.56953796438581L88.03255208333333,62.14657862298242L89.10611979166667,57.491409538573116L90.1796875,59.90333400439387L91.25325520833334,57.16116514121801L92.32682291666667,58.940571831125034L93.400390625,61.282690304203896L94.47395833333333,65.14358375884443L95.54752604166667,63.1198303935278L96.62109375,66.09758111622484L97.69466145833333,68.00532071751137L98.76822916666667,69.87159315917268L99.841796875,65.55713618396516L100.91536458333333,64.77114424042718L101.98893229166666,68.90037900218897L103.0625,66.24488661856098L104.13606770833333,63.59282883111257L105.20963541666667,66.31515143779013L106.283203125,71.59673678364767L107.35677083333334,69.82485239170302L108.43033854166667,69.1265582198776L109.50390625,65.34309253409005L110.57747395833333,68.70601285969678L111.65104166666667,73.92918426329405L112.724609375,74.78676499006778L113.79817708333333,77.91768775005028L114.87174479166667,80.12578955808306L115.9453125,79.81292197703733L117.01888020833333,81.2401868175325L118.09244791666666,81.34825801149304L119.166015625,83.71644087210016L120.23958333333333,85.20925019032744L121.31315104166667,86.19536374099934L122.38671875,86.98870975601791L123.46028645833334,88.84251052157948L124.53385416666667,88.81959499233469L125.607421875,89.88540340465563L126.68098958333333,86.00679458936791L127.75455729166667,87.84152262952219L128.828125,90.64952126250903L129.90169270833334,91.24572789422416L130.97526041666666,93.26409666742393L132.048828125,90.0798218075457L133.12239583333334,92.15105883723177L134.19596354166669,93.86042049614916L135.26953125,96.42347236229287L136.34309895833334,92.79818742128198L137.41666666666666,94.4592242015673L138.490234375,98.31651303656534L139.56380208333331,97.11626227656662L140.63736979166666,97.84940122110824L141.7109375,93.34470608723225L142.78450520833334,96.17063930738742L143.85807291666666,100.39875385186033L144.931640625,105.12712776183734L146.00520833333334,107.75379175626104L147.07877604166666,111.04205773104026L148.15234375,112.14213022155684L149.22591145833334,114.69710550673217L150.29947916666669,117.9697086916595L151.373046875,119.55698604732744L152.44661458333334,120.93538502533157L153.52018229166666,125.24270419729027L154.59375,131.23490414397514L155.66731770833331,127.88546716336823L156.74088541666666,125.33885489237188L157.814453125,122.11832502977407L158.88802083333334,115.07001969484763L159.96158854166666,116.92050516877156L161.03515625,126.14712799609468L162.10872395833334,134.18052090072172L163.18229166666666,140.24847844337776L164.255859375,143.27251194583437L165.32942708333334,143.84121078078186L166.40299479166669,142.97419765987536L167.4765625,133.0097660042786L168.55013020833334,138.78759938622096L169.62369791666666,142.33150423059075L170.697265625,138.92286753234484L171.77083333333331,142.45424256718334L172.84440104166666,147.49243075665618L173.91796875,150.71247422923406L174.99153645833334,152.96125744919908L176.06510416666666,157.58418971591368L177.138671875,164.08525701239074L178.21223958333334,166.4602463423503L179.28580729166666,164.69668705571067L180.359375,167.70266401377498L181.43294270833334,161.10541827004383L182.50651041666669,166.18497044444817L183.580078125,168.17536541720978L184.65364583333334,150.41043195315038L185.72721354166666,131.2978404519383L186.80078125,129.2734190397928L187.87434895833331,136.6235278736954L188.94791666666666,147.4246600310081L190.021484375,151.11154616884522L191.09505208333334,155.1248775585788L192.16861979166666,163.51814428980472L193.2421875,166.9482833962987L194.31575520833334,157.82775714715424L195.38932291666666,163.02899878949447L196.462890625,161.27576184130487L197.53645833333334,164.4752833517781L198.61002604166669,164.33796294225678L199.68359375,168.80312245435647L200.75716145833334,167.1567806616163L201.83072916666666,171.3681179011765L202.904296875,167.16758396937178L203.97786458333331,156.8345391887144L205.05143229166666,140.26355873708684L206.125,136.61200280535306L207.19856770833334,151.78969950472626L208.27213541666666,161.36028103471676L209.345703125,167.49505286061373L210.41927083333334,161.2483260748418L211.49283854166666,169.6331766282284L212.56640625,179.41062410719545L217.93424479166666,181.12794922192165L219.0078125,166.0326542236578L220.08138020833331,139.7304690741586L221.15494791666666,129.3185391443149L222.228515625,138.788208672887L223.30208333333334,145.20029494531875L224.37565104166666,158.49277436052054L225.44921875,161.900599637346L226.52278645833334,160.09686778270807L227.59635416666666,167.71269547055633L228.669921875,173.72345500393837L229.74348958333334,162.19291047982696L230.81705729166669,161.31981453459088L231.890625,136.43076747676415L232.96419270833334,129.24987807920752L234.03776041666666,135.5204716942793L235.111328125,141.2844423089354" style="fill: none;" fill="none"></path></g></g></g></g><g opacity="0.2"><g><g><g><path stroke="rgb(51, 187, 238)" stroke-width="2px" d="M21.471354166666664,8.324365046574517L22.544921875,10.864152832031245L23.618489583333332,10.477297738882218L24.692057291666668,10.205123009314907L25.765625,10.939841871995188L26.839192708333336,11.22624361478366L27.912760416666668,11.270786132812507L28.986328125,11.67785156249999L30.059895833333332,12.543239558293271L31.133463541666668,14.02826716496395L32.20703125,16.16544377253606L33.280598958333336,21.408929161658655L34.354166666666664,26.119366924579328L35.427734375,29.585140474759623L36.501302083333336,29.595245643028854L37.57486979166667,36.697583383413466L38.6484375,45.557156700721166L39.722005208333336,44.59294414813702L40.795572916666664,48.68510516826923L41.869140625,50.91593740609975L42.94270833333333,53.643235896183896L44.016276041666664,40.80659743088942L45.08984375,52.730978534405054L46.163411458333336,61.72946467472956L47.236979166666664,32.38327486478366L48.310546875,50.804896897536054L49.384114583333336,56.58023324819712L50.457682291666664,61.36559551532452L51.53125,29.312866023137026L52.604817708333336,45.86629507211538L53.67838541666667,56.37492215670071L54.751953125,65.01858060396634L55.825520833333336,9.35233323317307L56.899088541666664,21.8173907001202L57.97265625,29.055483398437506L59.04622395833333,35.782500563401435L60.119791666666664,41.73402916541466L61.193359375,42.85397432767427L62.266927083333336,51.18802903395432L63.340494791666664,50.53460026667668L64.4140625,55.81170860877404L65.48763020833333,54.77740807166467L66.56119791666667,51.58402531550482L67.634765625,55.01664128230169L68.70833333333333,56.02577862079326L69.78190104166666,58.04200899564304L70.85546875,61.98029888446514L71.92903645833333,55.24786348783052L73.00260416666667,46.42031757061299L74.076171875,50.1075239445613L75.14973958333334,58.4843926532452L76.22330729166667,55.64982647235577L77.296875,48.42866990309495L78.37044270833333,48.78665546123798L79.44401041666667,53.19157808743989L80.517578125,64.89150146484376L81.59114583333333,67.53335477388822L82.66471354166667,48.95523559570314L83.73828125,52.611727576622584L84.81184895833333,61.99657019981971L85.88541666666666,62.93329270582933L86.958984375,64.2307431265024L88.03255208333333,63.012139610877405L89.10611979166667,50.50865591195914L90.1796875,63.521220703125L91.25325520833334,53.04791184645432L92.32682291666667,61.60968186598558L93.400390625,64.79586801382212L94.47395833333333,70.93492394080528L95.54752604166667,60.084200345552894L96.62109375,70.56420720027043L97.69466145833333,70.86693011944111L98.76822916666667,72.67100182166466L99.841796875,59.085450721153855L100.91536458333333,63.59215632512019L101.98893229166666,75.09423114483172L103.0625,62.26164804311899L104.13606770833333,59.61474214993991L105.20963541666667,70.39863534780649L106.283203125,79.51911480243389L107.35677083333334,67.16702580378605L108.43033854166667,68.07911696213942L109.50390625,59.66789400540866L110.57747395833333,73.75039334810697L111.65104166666667,81.76394136868991L112.724609375,76.07313608022837L113.79817708333333,82.61407189002404L114.87174479166667,83.4379422701322L115.9453125,79.34362060546876L117.01888020833333,83.38108407827524L118.09244791666666,81.5103648024339L119.166015625,87.26871516301082L120.23958333333333,87.44846416766828L121.31315104166667,87.67453406700722L122.38671875,88.17872877854568L123.46028645833334,91.62321166992187L124.53385416666667,88.78522169846754L125.607421875,91.48411602313702L126.68098958333333,80.18888136643629L127.75455729166667,90.59361468975361L128.828125,94.86151921198919L129.90169270833334,92.14003784179685L130.97526041666666,96.29164982722355L132.048828125,85.30340951772837L133.12239583333334,95.25791438176081L134.19596354166669,96.42446298452525L135.26953125,100.26805016150843L136.34309895833334,87.36026000976562L137.41666666666666,96.9507793719952L138.490234375,104.1024462890625L139.56380208333331,95.31588613656851L140.63736979166666,98.94910963792066L141.7109375,86.58766338641827L142.78450520833334,100.40953913762019L143.85807291666666,106.74092566856972L144.931640625,112.21968862680288L146.00520833333334,111.69378774789662L147.07877604166666,115.97445669320913L148.15234375,113.79223895733173L149.22591145833334,118.52956843449518L150.29947916666669,122.87861346905048L151.373046875,121.93790208082932L152.44661458333334,123.00298349233775L153.52018229166666,131.70368295522835L154.59375,140.2232040640024L155.66731770833331,122.86131169245793L156.74088541666666,121.5189364858774L157.814453125,117.28753023587741L158.88802083333334,104.49756169245795L159.96158854166666,119.69623337965744L161.03515625,139.98706223707933L162.10872395833334,146.23061025766225L163.18229166666666,149.3504147573618L164.255859375,147.80856219951923L165.32942708333334,144.6942590332031L166.40299479166669,141.67367797851563L167.4765625,118.06311852088342L168.55013020833334,147.45434945913462L169.62369791666666,147.64736149714545L170.697265625,133.80991248497597L171.77083333333331,147.7513051194411L172.84440104166666,155.04971304086538L173.91796875,155.54253943810096L174.99153645833334,156.33443227914665L176.06510416666666,164.51858811598558L177.138671875,173.8368579571064L178.21223958333334,170.02273033728966L179.28580729166666,162.0513481257512L180.359375,172.2116294508714L181.43294270833334,151.20954965444713L182.50651041666669,173.80429870605468L183.580078125,171.16095787635217L184.65364583333334,123.7630317570613L185.72721354166666,102.6289532001202L186.80078125,126.2367869215745L187.87434895833331,147.64869112454926L188.94791666666666,163.62635826697715L190.021484375,156.64187537560096L191.09505208333334,161.1448746431791L192.16861979166666,176.10804438664363L193.2421875,172.09349205603965L194.31575520833334,144.1469677734375L195.38932291666666,170.83086125300483L196.462890625,158.64590641902043L197.53645833333334,169.27456561748798L198.61002604166669,164.13198232797475L199.68359375,175.50086172250602L200.75716145833334,164.68726797250602L201.83072916666666,177.68512376051683L202.904296875,160.86678307166466L203.97786458333331,141.33497201772838L205.05143229166666,115.40708805964543L206.125,131.1346689077524L207.19856770833334,174.55624455378606L208.27213541666666,175.71615332970254L209.345703125,176.69721059945914L210.41927083333334,151.8782358961839L211.49283854166666,182.2104524583083L216.86067708333334,191.29439208984374L217.93424479166666,174.66028789813703L219.0078125,143.38971172626202L220.08138020833331,100.27719134990984L221.15494791666666,113.70064424954927L222.228515625,152.9927129657452L223.30208333333334,154.81842435396635L224.37565104166666,178.4314934833233L225.44921875,167.01233755258414L226.52278645833334,157.3912700007512L227.59635416666666,179.13643700232873L228.669921875,182.73959430401143L229.74348958333334,144.89709369365985L230.81705729166669,160.0101706167368L231.890625,99.09719689002404L232.96419270833334,118.4785439828726L234.03776041666666,144.92636211688702L235.111328125,149.93039823091948" style="fill: none;" fill="none"></path></g></g></g></g></g><g><g><span fill="rgb(0, 0, 0)" stroke="none" stroke-width="1px">Alt + Scroll to Zoom</span></g></g></g><g transform="translate(72, 177)" clip-path="url(#clip_1)"><clipPath id="clip_1"><rect width="257" height="23"></rect></clipPath><g><g><line x1="0" y1="0" x2="0" y2="5" style="visibility: inherit;" fill="rgb(0, 0, 0)" stroke="rgb(204, 204, 204)" stroke-width="1px"></line><line x1="21.471354166666664" y1="0" x2="21.471354166666664" y2="5" style="visibility: inherit;" fill="rgb(0, 0, 0)" stroke="rgb(204, 204, 204)" stroke-width="1px"></line><line x1="42.94270833333333" y1="0" x2="42.94270833333333" y2="5" style="visibility: inherit;" fill="rgb(0, 0, 0)" stroke="rgb(204, 204, 204)" stroke-width="1px"></line><line x1="64.4140625" y1="0" x2="64.4140625" y2="5" style="visibility: inherit;" fill="rgb(0, 0, 0)" stroke="rgb(204, 204, 204)" stroke-width="1px"></line><line x1="85.88541666666666" y1="0" x2="85.88541666666666" y2="5" style="visibility: inherit;" fill="rgb(0, 0, 0)" stroke="rgb(204, 204, 204)" stroke-width="1px"></line><line x1="107.35677083333334" y1="0" x2="107.35677083333334" y2="5" style="visibility: inherit;" fill="rgb(0, 0, 0)" stroke="rgb(204, 204, 204)" stroke-width="1px"></line><line x1="128.828125" y1="0" x2="128.828125" y2="5" style="visibility: inherit;" fill="rgb(0, 0, 0)" stroke="rgb(204, 204, 204)" stroke-width="1px"></line><line x1="150.29947916666669" y1="0" x2="150.29947916666669" y2="5" style="visibility: inherit;" fill="rgb(0, 0, 0)" stroke="rgb(204, 204, 204)" stroke-width="1px"></line><line x1="171.77083333333331" y1="0" x2="171.77083333333331" y2="5" style="visibility: inherit;" fill="rgb(0, 0, 0)" stroke="rgb(204, 204, 204)" stroke-width="1px"></line><line x1="193.2421875" y1="0" x2="193.2421875" y2="5" style="visibility: inherit;" fill="rgb(0, 0, 0)" stroke="rgb(204, 204, 204)" stroke-width="1px"></line><line x1="214.71354166666669" y1="0" x2="214.71354166666669" y2="5" style="visibility: inherit;" fill="rgb(0, 0, 0)" stroke="rgb(204, 204, 204)" stroke-width="1px"></line><line x1="236.18489583333331" y1="0" x2="236.18489583333331" y2="5" style="visibility: inherit;" fill="rgb(0, 0, 0)" stroke="rgb(204, 204, 204)" stroke-width="1px"></line><line x1="257.65625" y1="0" x2="257.65625" y2="5" style="visibility: inherit;" fill="rgb(0, 0, 0)" stroke="rgb(204, 204, 204)" stroke-width="1px"></line></g><g transform="translate(0, 8)"><text x="0" y="0" dx="0em" dy="0.95em" style="text-anchor: middle; visibility: hidden; font-family: Roboto, sans-serif; font-size: 12px; font-weight: 200;" fill="rgb(33, 33, 33)" stroke="none" stroke-width="1px">-20</text><text x="21.471354166666664" y="0" dx="0em" dy="0.95em" style="text-anchor: middle; visibility: inherit; font-family: Roboto, sans-serif; font-size: 12px; font-weight: 200;" fill="rgb(33, 33, 33)" stroke="none" stroke-width="1px">0</text><text x="42.94270833333333" y="0" dx="0em" dy="0.95em" style="text-anchor: middle; visibility: hidden; font-family: Roboto, sans-serif; font-size: 12px; font-weight: 200;" fill="rgb(33, 33, 33)" stroke="none" stroke-width="1px">20</text><text x="64.4140625" y="0" dx="0em" dy="0.95em" style="text-anchor: middle; visibility: inherit; font-family: Roboto, sans-serif; font-size: 12px; font-weight: 200;" fill="rgb(33, 33, 33)" stroke="none" stroke-width="1px">40</text><text x="85.88541666666666" y="0" dx="0em" dy="0.95em" style="text-anchor: middle; visibility: hidden; font-family: Roboto, sans-serif; font-size: 12px; font-weight: 200;" fill="rgb(33, 33, 33)" stroke="none" stroke-width="1px">60</text><text x="107.35677083333334" y="0" dx="0em" dy="0.95em" style="text-anchor: middle; visibility: inherit; font-family: Roboto, sans-serif; font-size: 12px; font-weight: 200;" fill="rgb(33, 33, 33)" stroke="none" stroke-width="1px">80</text><text x="128.828125" y="0" dx="0em" dy="0.95em" style="text-anchor: middle; visibility: hidden; font-family: Roboto, sans-serif; font-size: 12px; font-weight: 200;" fill="rgb(33, 33, 33)" stroke="none" stroke-width="1px">100</text><text x="150.29947916666669" y="0" dx="0em" dy="0.95em" style="text-anchor: middle; visibility: inherit; font-family: Roboto, sans-serif; font-size: 12px; font-weight: 200;" fill="rgb(33, 33, 33)" stroke="none" stroke-width="1px">120</text><text x="171.77083333333331" y="0" dx="0em" dy="0.95em" style="text-anchor: middle; visibility: hidden; font-family: Roboto, sans-serif; font-size: 12px; font-weight: 200;" fill="rgb(33, 33, 33)" stroke="none" stroke-width="1px">140</text><text x="193.2421875" y="0" dx="0em" dy="0.95em" style="text-anchor: middle; visibility: inherit; font-family: Roboto, sans-serif; font-size: 12px; font-weight: 200;" fill="rgb(33, 33, 33)" stroke="none" stroke-width="1px">160</text><text x="214.71354166666669" y="0" dx="0em" dy="0.95em" style="text-anchor: middle; visibility: hidden; font-family: Roboto, sans-serif; font-size: 12px; font-weight: 200;" fill="rgb(33, 33, 33)" stroke="none" stroke-width="1px">180</text><text x="236.18489583333331" y="0" dx="0em" dy="0.95em" style="text-anchor: middle; visibility: inherit; font-family: Roboto, sans-serif; font-size: 12px; font-weight: 200;" fill="rgb(33, 33, 33)" stroke="none" stroke-width="1px">200</text><text x="257.65625" y="0" dx="0em" dy="0.95em" style="text-anchor: middle; visibility: hidden; font-family: Roboto, sans-serif; font-size: 12px; font-weight: 200;" fill="rgb(33, 33, 33)" stroke="none" stroke-width="1px">220</text></g><line x1="0" y1="0" x2="257.65625" y2="0" fill="rgb(0, 0, 0)" stroke="rgb(204, 204, 204)" stroke-width="1px"></line></g></g></g></g></svg>