<svg viewBox="0 0 330 200" xmlns="http://www.w3.org/2000/svg"><g><g><g><g><g><line x1="41.171875" y1="177" x2="36.171875" y2="177" style="visibility: inherit;" fill="rgb(0, 0, 0)" stroke="rgb(204, 204, 204)" stroke-width="1px"></line><line x1="41.171875" y1="157.33333333333331" x2="36.171875" y2="157.33333333333331" style="visibility: inherit;" fill="rgb(0, 0, 0)" stroke="rgb(204, 204, 204)" stroke-width="1px"></line><line x1="41.171875" y1="137.66666666666666" x2="36.171875" y2="137.66666666666666" style="visibility: inherit;" fill="rgb(0, 0, 0)" stroke="rgb(204, 204, 204)" stroke-width="1px"></line><line x1="41.171875" y1="118.00000000000001" x2="36.171875" y2="118.00000000000001" style="visibility: inherit;" fill="rgb(0, 0, 0)" stroke="rgb(204, 204, 204)" stroke-width="1px"></line><line x1="41.171875" y1="98.33333333333334" x2="36.171875" y2="98.33333333333334" style="visibility: inherit;" fill="rgb(0, 0, 0)" stroke="rgb(204, 204, 204)" stroke-width="1px"></line><line x1="41.171875" y1="78.66666666666666" x2="36.171875" y2="78.66666666666666" style="visibility: inherit;" fill="rgb(0, 0, 0)" stroke="rgb(204, 204, 204)" stroke-width="1px"></line><line x1="41.171875" y1="59.00000000000001" x2="36.171875" y2="59.00000000000001" style="visibility: inherit;" fill="rgb(0, 0, 0)" stroke="rgb(204, 204, 204)" stroke-width="1px"></line><line x1="41.171875" y1="39.33333333333333" x2="36.171875" y2="39.33333333333333" style="visibility: inherit;" fill="rgb(0, 0, 0)" stroke="rgb(204, 204, 204)" stroke-width="1px"></line><line x1="41.171875" y1="19.666666666666675" x2="36.171875" y2="19.666666666666675" style="visibility: inherit;" fill="rgb(0, 0, 0)" stroke="rgb(204, 204, 204)" stroke-width="1px"></line><line x1="41.171875" y1="0" x2="36.171875" y2="0" style="visibility: inherit;" fill="rgb(0, 0, 0)" stroke="rgb(204, 204, 204)" stroke-width="1px"></line></g><g transform="translate(31.171875, 0)"><text x="0" y="177" dx="0em" dy="0.3em" style="text-anchor: end; visibility: hidden; font-family: Roboto, sans-serif; font-size: 12px; font-weight: 200;" fill="rgb(33, 33, 33)" stroke="none" stroke-width="1px">-50</text><text x="0" y="157.33333333333331" dx="0em" dy="0.3em" style="text-anchor: end; visibility: inherit; font-family: Roboto, sans-serif; font-size: 12px; font-weight: 200;" fill="rgb(33, 33, 33)" stroke="none" stroke-width="1px">0</text><text x="0" y="137.66666666666666" dx="0em" dy="0.3em" style="text-anchor: end; visibility: hidden; font-family: Roboto, sans-serif; font-size: 12px; font-weight: 200;" fill="rgb(33, 33, 33)" stroke="none" stroke-width="1px">50</text><text x="0" y="118.00000000000001" dx="0em" dy="0.3em" style="text-anchor: end; visibility: inherit; font-family: Roboto, sans-serif; font-size: 12px; font-weight: 200;" fill="rgb(33, 33, 33)" stroke="none" stroke-width="1px">100</text><text x="0" y="98.33333333333334" dx="0em" dy="0.3em" style="text-anchor: end; visibility: hidden; font-family: Roboto, sans-serif; font-size: 12px; font-weight: 200;" fill="rgb(33, 33, 33)" stroke="none" stroke-width="1px">150</text><text x="0" y="78.66666666666666" dx="0em" dy="0.3em" style="text-anchor: end; visibility: inherit; font-family: Roboto, sans-serif; font-size: 12px; font-weight: 200;" fill="rgb(33, 33, 33)" stroke="none" stroke-width="1px">200</text><text x="0" y="59.00000000000001" dx="0em" dy="0.3em" style="text-anchor: end; visibility: hidden; font-family: Roboto, sans-serif; font-size: 12px; font-weight: 200;" fill="rgb(33, 33, 33)" stroke="none" stroke-width="1px">250</text><text x="0" y="39.33333333333333" dx="0em" dy="0.3em" style="text-anchor: end; visibility: inherit; font-family: Roboto, sans-serif; font-size: 12px; font-weight: 200;" fill="rgb(33, 33, 33)" stroke="none" stroke-width="1px">300</text><text x="0" y="19.666666666666675" dx="0em" dy="0.3em" style="text-anchor: end; visibility: hidden; font-family: Roboto, sans-serif; font-size: 12px; font-weight: 200;" fill="rgb(33, 33, 33)" stroke="none" stroke-width="1px">350</text><text x="0" y="0" dx="0em" dy="0.3em" style="text-anchor: end; visibility: hidden; font-family: Roboto, sans-serif; font-size: 12px; font-weight: 200;" fill="rgb(33, 33, 33)" stroke="none" stroke-width="1px">400</text></g><line x1="41.171875" y1="0" x2="41.171875" y2="177" fill="rgb(0, 0, 0)" stroke="rgb(204, 204, 204)" stroke-width="1px"></line></g></g><g transform="translate(41, 0)" clip-path="url(#clip_0)"><clipPath id="clip_0"><rect width="288" height="177"></rect></clipPath><g><g><g><line x1="0" y1="0" x2="0" y2="177" fill="rgb(0, 0, 0)" stroke="rgb(66, 66, 66)" stroke-width="1px" opacity="0.25"></line><line x1="24.069010416666664" y1="0" x2="24.069010416666664" y2="177" fill="rgb(0, 0, 0)" stroke="rgb(66, 66, 66)" stroke-width="1px" opacity="0.25"></line><line x1="48.13802083333333" y1="0" x2="48.13802083333333" y2="177" fill="rgb(0, 0, 0)" stroke="rgb(66, 66, 66)" stroke-width="1px" opacity="0.25"></line><line x1="72.20703125" y1="0" x2="72.20703125" y2="177" fill="rgb(0, 0, 0)" stroke="rgb(66, 66, 66)" stroke-width="1px" opacity="0.25"></line><line x1="96.27604166666666" y1="0" x2="96.27604166666666" y2="177" fill="rgb(0, 0, 0)" stroke="rgb(66, 66, 66)" stroke-width="1px" opacity="0.25"></line><line x1="120.34505208333334" y1="0" x2="120.34505208333334" y2="177" fill="rgb(0, 0, 0)" stroke="rgb(66, 66, 66)" stroke-width="1px" opacity="0.25"></line><line x1="144.4140625" y1="0" x2="144.4140625" y2="177" fill="rgb(0, 0, 0)" stroke="rgb(66, 66, 66)" stroke-width="1px" opacity="0.25"></line><line x1="168.48307291666669" y1="0" x2="168.48307291666669" y2="177" fill="rgb(0, 0, 0)" stroke="rgb(66, 66, 66)" stroke-width="1px" opacity="0.25"></line><line x1="192.55208333333331" y1="0" x2="192.55208333333331" y2="177" fill="rgb(0, 0, 0)" stroke="rgb(66, 66, 66)" stroke-width="1px" opacity="0.25"></line><line x1="216.62109375" y1="0" x2="216.62109375" y2="177" fill="rgb(0, 0, 0)" stroke="rgb(66, 66, 66)" stroke-width="1px" opacity="0.25"></line><line x1="240.69010416666669" y1="0" x2="240.69010416666669" y2="177" fill="rgb(0, 0, 0)" stroke="rgb(66, 66, 66)" stroke-width="1px" opacity="0.25"></line><line x1="264.7591145833333" y1="0" x2="264.7591145833333" y2="177" fill="rgb(0, 0, 0)" stroke="rgb(66, 66, 66)" stroke-width="1px" opacity="0.25"></line><line x1="288.828125" y1="0" x2="288.828125" y2="177" fill="rgb(0, 0, 0)" stroke="rgb(66, 66, 66)" stroke-width="1px" opacity="0.25"></line></g><g><line x1="0" y1="177" x2="288.828125" y2="177" fill="rgb(0, 0, 0)" stroke="rgb(66, 66, 66)" stroke-width="1px" opacity="0.25"></line><line x1="0" y1="157.33333333333331" x2="288.828125" y2="157.33333333333331" fill="rgb(0, 0, 0)" stroke="rgb(66, 66, 66)" stroke-width="1px" opacity="0.25"></line><line x1="0" y1="137.66666666666666" x2="288.828125" y2="137.66666666666666" fill="rgb(0, 0, 0)" stroke="rgb(66, 66, 66)" stroke-width="1px" opacity="0.25"></line><line x1="0" y1="118.00000000000001" x2="288.828125" y2="118.00000000000001" fill="rgb(0, 0, 0)" stroke="rgb(66, 66, 66)" stroke-width="1px" opacity="0.25"></line><line x1="0" y1="98.33333333333334" x2="288.828125" y2="98.33333333333334" fill="rgb(0, 0, 0)" stroke="rgb(66, 66, 66)" stroke-width="1px" opacity="0.25"></line><line x1="0" y1="78.66666666666666" x2="288.828125" y2="78.66666666666666" fill="rgb(0, 0, 0)" stroke="rgb(66, 66, 66)" stroke-width="1px" opacity="0.25"></line><line x1="0" y1="59.00000000000001" x2="288.828125" y2="59.00000000000001" fill="rgb(0, 0, 0)" stroke="rgb(66, 66, 66)" stroke-width="1px" opacity="0.25"></line><line x1="0" y1="39.33333333333333" x2="288.828125" y2="39.33333333333333" fill="rgb(0, 0, 0)" stroke="rgb(66, 66, 66)" stroke-width="1px" opacity="0.25"></line><line x1="0" y1="19.666666666666675" x2="288.828125" y2="19.666666666666675" fill="rgb(0, 0, 0)" stroke="rgb(66, 66, 66)" stroke-width="1px" opacity="0.25"></line><line x1="0" y1="0" x2="288.828125" y2="0" fill="rgb(0, 0, 0)" stroke="rgb(66, 66, 66)" stroke-width="1px" opacity="0.25"></line></g></g></g><g><g><line x1="0" y1="157.33333333333331" x2="288.828125" y2="157.33333333333331" fill="rgb(0, 0, 0)" stroke="rgb(153, 153, 153)" stroke-width="1.5px"></line></g></g><g><g><line x1="24.069010416666664" y1="0" x2="24.069010416666664" y2="177" fill="rgb(0, 0, 0)" stroke="rgb(153, 153, 153)" stroke-width="1.5px"></line></g></g><g><g><g><g><g><path stroke="rgb(0, 119, 187)" stroke-width="2px" d="M34.900065104166664,-1.9820708718173763L36.103515625,14.758755152046096L37.306966145833336,29.334495302316707L38.510416666666664,41.817667452406106L39.7138671875,52.93627978765302L40.917317708333336,63.207645939401935L42.12076822916667,72.88801385501472L43.32421875,82.65932575439784L44.527669270833336,92.05153626360762L45.731119791666664,100.67197659410805L46.9345703125,108.2050160231316L48.13802083333333,114.48545687653224L49.341471354166664,119.67504032842258L50.544921875,124.05902484246725L51.748372395833336,127.96275847610113L52.951822916666664,131.22214941893478L54.1552734375,134.04452028571546L55.358723958333336,136.46051461162412L56.562174479166664,138.60420390257485L57.765625,140.4209240831116L58.969075520833336,141.94142346887102L60.17252604166667,143.29815011903216L61.3759765625,144.4496696939079L62.579427083333336,145.42124251622235L63.782877604166664,146.29710026606963L64.986328125,147.07119465679503L66.18977864583333,147.7720206953486L67.39322916666667,148.4223377721859L68.5966796875,149.0492374282126L69.80013020833333,149.56892924295678L71.00358072916666,150.035694353649L72.20703125,150.46616218748582L73.41048177083333,150.865643558513L74.61393229166667,151.22194806809236L75.8173828125,151.53428167202523L77.02083333333333,151.8395214365151L78.22428385416666,152.1174251625449L79.427734375,152.36552316699422L80.63118489583333,152.59722108098785L81.83463541666667,152.82894783465133L83.0380859375,153.0405459824901L84.24153645833334,153.22722163500686L85.44498697916667,153.39796039697953L86.6484375,153.53648581765574L87.85188802083333,153.6530074853649L89.05533854166667,153.7257957937092L90.2587890625,153.77904073407873L91.46223958333333,153.71152017663294L92.66569010416667,153.43668414221426L93.869140625,153.27020195007057L95.07259114583333,153.46687069956303L96.27604166666666,153.7295871185293L97.4794921875,153.96557101832016L98.68294270833333,154.15663359101328L99.88639322916667,154.28108091093526L101.08984375,154.29756877234038L102.29329427083334,154.08556712196543L103.49674479166667,153.8964049984193L104.7001953125,153.8964405917233L105.90364583333333,154.1154972120388L107.10709635416667,154.33516883096675L108.310546875,154.51914551600763L109.51399739583333,154.4815240756568L110.71744791666667,154.25681016174337L111.9208984375,153.9896223799033L113.12434895833333,154.01484245616055L114.32779947916666,154.12438198914842L115.53125,154.36560053494006L116.73470052083333,154.55755562456307L117.93815104166667,154.72288031382476L119.1416015625,154.85822263536718L120.34505208333334,154.97064041410607L121.54850260416667,155.0751733681841L122.751953125,155.155737288631L123.95540364583333,155.22048221006216L125.15885416666667,155.2841553436968L126.3623046875,155.0462385306708L127.56575520833333,154.34035868338458L128.76920572916669,154.0631290665371L129.97265625,154.1056900619926L131.17610677083334,154.23474051297475L132.37955729166666,154.3684097349292L133.5830078125,154.53354282861827L134.78645833333334,154.70003464416192L135.98990885416666,154.84151898977476L137.193359375,154.96132516263316L138.39680989583334,155.06809674858087L139.60026041666666,155.16071636874895L140.8037109375,155.22843899051003L142.00716145833331,155.28607150943867L143.21061197916666,155.31455897850867L144.4140625,155.31227708047476L145.61751302083334,155.28237460501498L146.82096354166666,155.26150154523555L148.0244140625,155.29225136812033L149.22786458333334,155.32863926284813L150.43131510416669,155.31951926632703L151.634765625,155.23908123066414L152.83821614583334,155.16691177779668L154.04166666666666,155.14628554527502L155.2451171875,155.11410112173084L156.44856770833331,155.13493719357683L157.65201822916666,155.20622802379788L158.85546875,155.2919228252752L160.05891927083334,155.31524922662877L161.26236979166666,155.21976558415435L162.4658203125,155.16878080460432L163.66927083333334,155.18722013783258L164.87272135416666,155.2409999052195L166.076171875,155.27940429620992L167.27962239583334,155.26741988205742L168.48307291666669,155.27653699825504L169.6865234375,155.2845226933378L170.88997395833334,155.30921882306444L172.09342447916666,155.36234420328285L173.296875,155.42550526413686L174.50032552083331,155.49353276383897L175.70377604166666,155.4183097484828L176.9072265625,155.2061790482474L178.11067708333334,154.97522532623645L179.31412760416666,154.9924931809205L180.517578125,155.0480148904859L181.72102864583334,155.14657878088985L182.92447916666666,155.2816360871476L184.1279296875,155.4027699327756L185.33138020833334,155.51306241005395L186.53483072916669,155.60545371673348L187.73828125,155.67720819398866L188.94173177083334,155.73020667222204L190.14518229166666,155.7794034864926L191.3486328125,155.82071246733807L192.55208333333331,155.85497348247296L193.75553385416666,155.87934096585707L194.958984375,155.89881334072945L196.16243489583334,155.92104990120689L197.36588541666666,155.94949440516606L198.5693359375,155.9616878413215L199.77278645833334,155.8378207454118L200.97623697916666,154.68446718174414L202.1796875,154.23501965179958L203.38313802083334,154.19421860616356L204.58658854166669,154.25028913260073L205.7900390625,154.41162126398427L206.99348958333334,154.58533041041895L208.19694010416666,154.76473642501315L209.400390625,154.93754679834694L210.60384114583331,155.0807050720603L211.80729166666666,155.18218391003714L213.0107421875,155.27282156250382L214.21419270833334,155.36047110268376L215.41764322916666,155.4434469161167L216.62109375,155.51466277196414L217.82454427083334,155.576137227184L219.02799479166666,155.63239560459044L220.2314453125,155.67857763807368L221.43489583333334,155.7138160666648L222.63834635416669,155.74383989799958L223.841796875,155.7798577298459L225.04524739583334,155.81088771377424L226.24869791666666,155.84812562104713L227.4521484375,155.87737522576245L228.65559895833331,155.9013883541464L229.85904947916666,155.9133995662395L231.0625,155.90494150811017L232.26595052083334,155.80426126615353L233.46940104166666,155.6603888481626L234.6728515625,155.5948027834357L235.87630208333334,155.59955019957192L237.07975260416666,155.63366317562085L238.283203125,155.678660428515L239.48665364583334,155.72243997366684L240.69010416666669,155.76067958453172L241.8935546875,155.80039430391116L243.09700520833334,155.82319124021922L244.30045572916666,155.77979781475938L245.50390625,155.33358789448306L246.70735677083331,155.01566686887165L247.91080729166666,155.02422996039363L249.1142578125,155.19537786194783L250.31770833333334,155.3321319397436L251.52115885416666,155.3899445055413L252.724609375,155.4062684420638L253.92805989583334,155.40830076352114L255.13151041666666,155.42088574680898L256.3349609375,155.4552880716714L257.53841145833337,155.494033942246L258.7418619791667,155.53447329300062L259.9453125,155.57643633328328L261.1487630208333,155.61177571369677L262.3522135416667,155.63462960922797L263.5556640625,155.6386591081068" style="fill: none;" fill="none"></path></g></g></g></g><g opacity="0.2"><g><g><g><path stroke="rgb(0, 119, 187)" stroke-width="2px" d="M32.4931640625,-21.654363606770836L33.696614583333336,4.208119303385424L34.900065104166664,24.755896809895823L36.103515625,39.71815612792969L37.306966145833336,51.118784993489584L38.510416666666664,60.50166595458983L39.7138671875,69.59241577148437L40.917317708333336,78.60262156168619L42.12076822916667,87.40173838297525L43.32421875,97.3121587117513L44.527669270833336,106.13746734619141L45.731119791666664,113.60132385253907L46.9345703125,119.50388661702475L48.13802083333333,123.90577372233074L49.341471354166664,127.45924474080402L50.544921875,130.63491505940755L51.748372395833336,133.81831268310546L52.951822916666664,136.11121266682943L54.1552734375,138.278064549764L55.358723958333336,140.08449991861977L56.562174479166664,141.81973454793294L57.765625,143.1460026804606L58.969075520833336,144.2221717071533L60.17252604166667,145.3332396443685L61.3759765625,146.17694882710774L62.579427083333336,146.8786016337077L63.782877604166664,147.61088682810464L64.986328125,148.23233620961508L66.18977864583333,148.82325973510743L67.39322916666667,149.39781337738037L68.5966796875,149.98958690643312L69.80013020833333,150.34846696217855L71.00358072916666,150.73584201812744L72.20703125,151.11186393737793L73.41048177083333,151.46486561457314L74.61393229166667,151.7564048322042L75.8173828125,152.0027820777893L77.02083333333333,152.29738108317056L78.22428385416666,152.53428075154622L79.427734375,152.73767017364503L80.63118489583333,152.94476795196533L81.83463541666667,153.17653796513875L83.0380859375,153.35794320424398L84.24153645833334,153.5072351137797L85.44498697916667,153.65406853993733L86.6484375,153.74427394866944L87.85188802083333,153.8277899869283L89.05533854166667,153.83497825622558L90.2587890625,153.85890814463298L91.46223958333333,153.6102393404643L92.66569010416667,153.02443009058635L93.869140625,153.02047866185507L95.07259114583333,153.7618738238017L96.27604166666666,154.12366174697877L97.4794921875,154.3195468680064L98.68294270833333,154.4432274500529L99.88639322916667,154.46775189081828L101.08984375,154.32230056444803L102.29329427083334,153.767564646403L103.49674479166667,153.61266181310017L104.7001953125,153.8964939816793L105.90364583333333,154.444082142512L107.10709635416667,154.6646762593587L108.310546875,154.79511054356894L109.51399739583333,154.42509191513062L110.71744791666667,153.9197392908732L111.9208984375,153.58884070714316L113.12434895833333,154.05267257054646L114.32779947916666,154.28869128863016L115.53125,154.72742835362754L116.73470052083333,154.8454882589976L117.93815104166667,154.97086734771727L119.1416015625,155.06123611768086L120.34505208333334,155.13926708221436L121.54850260416667,155.23197279930113L122.751953125,155.27658316930135L123.95540364583333,155.31759959220886L125.15885416666667,155.37966504414877L126.3623046875,154.68936331113179L127.56575520833333,153.28153891245523L128.76920572916669,153.64728464126588L129.97265625,154.16953155517578L131.17610677083334,154.42831618944805L132.37955729166666,154.5689135678609L133.5830078125,154.7812424691518L134.78645833333334,154.94977236747744L135.98990885416666,155.05374550819397L137.193359375,155.14103442192078L138.39680989583334,155.22825412750245L139.60026041666666,155.29964579900107L140.8037109375,155.33002292315163L142.00716145833331,155.37252028783163L143.21061197916666,155.35729018211364L144.4140625,155.30885423342386L145.61751302083334,155.23752089182537L146.82096354166666,155.23019195556643L148.0244140625,155.3383761024475L149.22786458333334,155.38322110493976L150.43131510416669,155.3058392715454L151.634765625,155.1184241771698L152.83821614583334,155.05865759849547L154.04166666666666,155.1153461964925L155.2451171875,155.06582448641458L156.44856770833331,155.16619130134583L157.65201822916666,155.31316426912943L158.85546875,155.42046502749125L160.05891927083334,155.35023882865906L161.26236979166666,155.0765401204427L162.4658203125,155.09230363527934L163.66927083333334,155.21487913767496L164.87272135416666,155.32166955629984L166.076171875,155.33701088269552L167.27962239583334,155.24944326082866L168.48307291666669,155.2902126725515L169.6865234375,155.29650123596193L170.88997395833334,155.34626301765442L172.09342447916666,155.44203227361044L173.296875,155.5202468554179L174.50032552083331,155.59557401339214L175.70377604166666,155.30547522544862L176.9072265625,154.88798299789428L178.11067708333334,154.62879474322L179.31412760416666,155.01839496294656L180.517578125,155.131297454834L181.72102864583334,155.29442461649575L182.92447916666666,155.4842220465342L184.1279296875,155.58447070121764L185.33138020833334,155.67850112597148L186.53483072916669,155.74404067675272L187.73828125,155.78483990987144L188.94173177083334,155.80970438957215L190.14518229166666,155.85319870789846L191.3486328125,155.88267593860627L192.55208333333331,155.90636500517527L193.75553385416666,155.91589219093322L194.958984375,155.92802190303803L196.16243489583334,155.954404741923L197.36588541666666,155.99216116110483L198.5693359375,155.9799779955546L199.77278645833334,155.65202010154724L200.97623697916666,152.95443683624268L202.1796875,153.56084835688273L203.38313802083334,154.13301703770955L204.58658854166669,154.33439492225648L205.7900390625,154.65361946105955L206.99348958333334,154.845894130071L208.19694010416666,155.0338454469045L209.400390625,155.19676235834757L210.60384114583331,155.2954424826304L211.80729166666666,155.33440216700237L213.0107421875,155.40877804120382L214.21419270833334,155.4919454129537L215.41764322916666,155.56791063626608L216.62109375,155.6214865557353L217.82454427083334,155.66834891001383L219.02799479166666,155.71678317070007L220.2314453125,155.74785068829854L221.43489583333334,155.7666737095515L222.63834635416669,155.78887564500172L223.841796875,155.83388447761536L225.04524739583334,155.85743268966675L226.24869791666666,155.9039824819565L227.4521484375,155.92124963283538L228.65559895833331,155.9374080467224L229.85904947916666,155.93141638437905L231.0625,155.89225442091623L232.26595052083334,155.65324090321857L233.46940104166666,155.44458022117615L234.6728515625,155.49642368634542L235.87630208333334,155.60667132377623L237.07975260416666,155.6848326396942L238.283203125,155.74615630785624L239.48665364583334,155.78810929139456L240.69010416666669,155.81803900082906L241.8935546875,155.85996638298036L243.09700520833334,155.8573866446813L244.30045572916666,155.71470767656962L245.50390625,154.6642730140686L246.70735677083331,154.53878533045452L247.91080729166666,155.0370745976766L249.1142578125,155.45209971427917L250.31770833333334,155.53726305643718L251.52115885416666,155.47666335423787L252.724609375,155.43075434684755L253.92805989583334,155.41134924570719L255.13151041666666,155.43976322174072L256.3349609375,155.50689155896507L257.53841145833337,155.55215274810791L258.7418619791667,155.5951323191325L259.9453125,155.63938089370728L261.1487630208333,155.66478478431702L262.3522135416667,155.6689104525248L263.5556640625,155.64470335642497" style="fill: none;" fill="none"></path></g></g></g></g></g></g><g transform="translate(41, 177)" clip-path="url(#clip_1)"><clipPath id="clip_1"><rect width="288" height="23"></rect></clipPath><g><g><line x1="0" y1="0" x2="0" y2="5" style="visibility: inherit;" fill="rgb(0, 0, 0)" stroke="rgb(204, 204, 204)" stroke-width="1px"></line><line x1="24.069010416666664" y1="0" x2="24.069010416666664" y2="5" style="visibility: inherit;" fill="rgb(0, 0, 0)" stroke="rgb(204, 204, 204)" stroke-width="1px"></line><line x1="48.13802083333333" y1="0" x2="48.13802083333333" y2="5" style="visibility: inherit;" fill="rgb(0, 0, 0)" stroke="rgb(204, 204, 204)" stroke-width="1px"></line><line x1="72.20703125" y1="0" x2="72.20703125" y2="5" style="visibility: inherit;" fill="rgb(0, 0, 0)" stroke="rgb(204, 204, 204)" stroke-width="1px"></line><line x1="96.27604166666666" y1="0" x2="96.27604166666666" y2="5" style="visibility: inherit;" fill="rgb(0, 0, 0)" stroke="rgb(204, 204, 204)" stroke-width="1px"></line><line x1="120.34505208333334" y1="0" x2="120.34505208333334" y2="5" style="visibility: inherit;" fill="rgb(0, 0, 0)" stroke="rgb(204, 204, 204)" stroke-width="1px"></line><line x1="144.4140625" y1="0" x2="144.4140625" y2="5" style="visibility: inherit;" fill="rgb(0, 0, 0)" stroke="rgb(204, 204, 204)" stroke-width="1px"></line><line x1="168.48307291666669" y1="0" x2="168.48307291666669" y2="5" style="visibility: inherit;" fill="rgb(0, 0, 0)" stroke="rgb(204, 204, 204)" stroke-width="1px"></line><line x1="192.55208333333331" y1="0" x2="192.55208333333331" y2="5" style="visibility: inherit;" fill="rgb(0, 0, 0)" stroke="rgb(204, 204, 204)" stroke-width="1px"></line><line x1="216.62109375" y1="0" x2="216.62109375" y2="5" style="visibility: inherit;" fill="rgb(0, 0, 0)" stroke="rgb(204, 204, 204)" stroke-width="1px"></line><line x1="240.69010416666669" y1="0" x2="240.69010416666669" y2="5" style="visibility: inherit;" fill="rgb(0, 0, 0)" stroke="rgb(204, 204, 204)" stroke-width="1px"></line><line x1="264.7591145833333" y1="0" x2="264.7591145833333" y2="5" style="visibility: inherit;" fill="rgb(0, 0, 0)" stroke="rgb(204, 204, 204)" stroke-width="1px"></line><line x1="288.828125" y1="0" x2="288.828125" y2="5" style="visibility: inherit;" fill="rgb(0, 0, 0)" stroke="rgb(204, 204, 204)" stroke-width="1px"></line></g><g transform="translate(0, 8)"><text x="0" y="0" dx="0em" dy="0.95em" style="text-anchor: middle; visibility: hidden; font-family: Roboto, sans-serif; font-size: 12px; font-weight: 200;" fill="rgb(33, 33, 33)" stroke="none" stroke-width="1px">-20</text><text x="24.069010416666664" y="0" dx="0em" dy="0.95em" style="text-anchor: middle; visibility: inherit; font-family: Roboto, sans-serif; font-size: 12px; font-weight: 200;" fill="rgb(33, 33, 33)" stroke="none" stroke-width="1px">0</text><text x="48.13802083333333" y="0" dx="0em" dy="0.95em" style="text-anchor: middle; visibility: hidden; font-family: Roboto, sans-serif; font-size: 12px; font-weight: 200;" fill="rgb(33, 33, 33)" stroke="none" stroke-width="1px">20</text><text x="72.20703125" y="0" dx="0em" dy="0.95em" style="text-anchor: middle; visibility: inherit; font-family: Roboto, sans-serif; font-size: 12px; font-weight: 200;" fill="rgb(33, 33, 33)" stroke="none" stroke-width="1px">40</text><text x="96.27604166666666" y="0" dx="0em" dy="0.95em" style="text-anchor: middle; visibility: hidden; font-family: Roboto, sans-serif; font-size: 12px; font-weight: 200;" fill="rgb(33, 33, 33)" stroke="none" stroke-width="1px">60</text><text x="120.34505208333334" y="0" dx="0em" dy="0.95em" style="text-anchor: middle; visibility: inherit; font-family: Roboto, sans-serif; font-size: 12px; font-weight: 200;" fill="rgb(33, 33, 33)" stroke="none" stroke-width="1px">80</text><text x="144.4140625" y="0" dx="0em" dy="0.95em" style="text-anchor: middle; visibility: hidden; font-family: Roboto, sans-serif; font-size: 12px; font-weight: 200;" fill="rgb(33, 33, 33)" stroke="none" stroke-width="1px">100</text><text x="168.48307291666669" y="0" dx="0em" dy="0.95em" style="text-anchor: middle; visibility: inherit; font-family: Roboto, sans-serif; font-size: 12px; font-weight: 200;" fill="rgb(33, 33, 33)" stroke="none" stroke-width="1px">120</text><text x="192.55208333333331" y="0" dx="0em" dy="0.95em" style="text-anchor: middle; visibility: hidden; font-family: Roboto, sans-serif; font-size: 12px; font-weight: 200;" fill="rgb(33, 33, 33)" stroke="none" stroke-width="1px">140</text><text x="216.62109375" y="0" dx="0em" dy="0.95em" style="text-anchor: middle; visibility: inherit; font-family: Roboto, sans-serif; font-size: 12px; font-weight: 200;" fill="rgb(33, 33, 33)" stroke="none" stroke-width="1px">160</text><text x="240.69010416666669" y="0" dx="0em" dy="0.95em" style="text-anchor: middle; visibility: hidden; font-family: Roboto, sans-serif; font-size: 12px; font-weight: 200;" fill="rgb(33, 33, 33)" stroke="none" stroke-width="1px">180</text><text x="264.7591145833333" y="0" dx="0em" dy="0.95em" style="text-anchor: middle; visibility: inherit; font-family: Roboto, sans-serif; font-size: 12px; font-weight: 200;" fill="rgb(33, 33, 33)" stroke="none" stroke-width="1px">200</text><text x="288.828125" y="0" dx="0em" dy="0.95em" style="text-anchor: middle; visibility: hidden; font-family: Roboto, sans-serif; font-size: 12px; font-weight: 200;" fill="rgb(33, 33, 33)" stroke="none" stroke-width="1px">220</text></g><line x1="0" y1="0" x2="288.828125" y2="0" fill="rgb(0, 0, 0)" stroke="rgb(204, 204, 204)" stroke-width="1px"></line></g></g></g></g></svg>