<svg viewBox="0 0 330 200" xmlns="http://www.w3.org/2000/svg"><g><g><g><g><g><line x1="72.34375" y1="177" x2="67.34375" y2="177" style="visibility: inherit;" fill="rgb(0, 0, 0)" stroke="rgb(204, 204, 204)" stroke-width="1px"></line><line x1="72.34375" y1="154.875" x2="67.34375" y2="154.875" style="visibility: inherit;" fill="rgb(0, 0, 0)" stroke="rgb(204, 204, 204)" stroke-width="1px"></line><line x1="72.34375" y1="132.75" x2="67.34375" y2="132.75" style="visibility: inherit;" fill="rgb(0, 0, 0)" stroke="rgb(204, 204, 204)" stroke-width="1px"></line><line x1="72.34375" y1="110.625" x2="67.34375" y2="110.625" style="visibility: inherit;" fill="rgb(0, 0, 0)" stroke="rgb(204, 204, 204)" stroke-width="1px"></line><line x1="72.34375" y1="88.5" x2="67.34375" y2="88.5" style="visibility: inherit;" fill="rgb(0, 0, 0)" stroke="rgb(204, 204, 204)" stroke-width="1px"></line><line x1="72.34375" y1="66.375" x2="67.34375" y2="66.375" style="visibility: inherit;" fill="rgb(0, 0, 0)" stroke="rgb(204, 204, 204)" stroke-width="1px"></line><line x1="72.34375" y1="44.25" x2="67.34375" y2="44.25" style="visibility: inherit;" fill="rgb(0, 0, 0)" stroke="rgb(204, 204, 204)" stroke-width="1px"></line><line x1="72.34375" y1="22.125" x2="67.34375" y2="22.125" style="visibility: inherit;" fill="rgb(0, 0, 0)" stroke="rgb(204, 204, 204)" stroke-width="1px"></line><line x1="72.34375" y1="0" x2="67.34375" y2="0" style="visibility: inherit;" fill="rgb(0, 0, 0)" stroke="rgb(204, 204, 204)" stroke-width="1px"></line></g><g transform="translate(62.34375, 0)"><text x="0" y="177" dx="0em" dy="0.3em" style="text-anchor: end; visibility: hidden; font-family: Roboto, sans-serif; font-size: 12px; font-weight: 200;" fill="rgb(33, 33, 33)" stroke="none" stroke-width="1px">-500</text><text x="0" y="154.875" dx="0em" dy="0.3em" style="text-anchor: end; visibility: inherit; font-family: Roboto, sans-serif; font-size: 12px; font-weight: 200;" fill="rgb(33, 33, 33)" stroke="none" stroke-width="1px">0</text><text x="0" y="132.75" dx="0em" dy="0.3em" style="text-anchor: end; visibility: hidden; font-family: Roboto, sans-serif; font-size: 12px; font-weight: 200;" fill="rgb(33, 33, 33)" stroke="none" stroke-width="1px">500</text><text x="0" y="110.625" dx="0em" dy="0.3em" style="text-anchor: end; visibility: inherit; font-family: Roboto, sans-serif; font-size: 12px; font-weight: 200;" fill="rgb(33, 33, 33)" stroke="none" stroke-width="1px">1e+3</text><text x="0" y="88.5" dx="0em" dy="0.3em" style="text-anchor: end; visibility: hidden; font-family: Roboto, sans-serif; font-size: 12px; font-weight: 200;" fill="rgb(33, 33, 33)" stroke="none" stroke-width="1px">1.5e+3</text><text x="0" y="66.375" dx="0em" dy="0.3em" style="text-anchor: end; visibility: inherit; font-family: Roboto, sans-serif; font-size: 12px; font-weight: 200;" fill="rgb(33, 33, 33)" stroke="none" stroke-width="1px">2e+3</text><text x="0" y="44.25" dx="0em" dy="0.3em" style="text-anchor: end; visibility: hidden; font-family: Roboto, sans-serif; font-size: 12px; font-weight: 200;" fill="rgb(33, 33, 33)" stroke="none" stroke-width="1px">2.5e+3</text><text x="0" y="22.125" dx="0em" dy="0.3em" style="text-anchor: end; visibility: inherit; font-family: Roboto, sans-serif; font-size: 12px; font-weight: 200;" fill="rgb(33, 33, 33)" stroke="none" stroke-width="1px">3e+3</text><text x="0" y="0" dx="0em" dy="0.3em" style="text-anchor: end; visibility: hidden; font-family: Roboto, sans-serif; font-size: 12px; font-weight: 200;" fill="rgb(33, 33, 33)" stroke="none" stroke-width="1px">3.5e+3</text></g><line x1="72.34375" y1="0" x2="72.34375" y2="177" fill="rgb(0, 0, 0)" stroke="rgb(204, 204, 204)" stroke-width="1px"></line></g></g><g transform="translate(72, 0)" clip-path="url(#clip_0)"><clipPath id="clip_0"><rect width="257" height="177"></rect></clipPath><g><g><g><line x1="0" y1="0" x2="0" y2="177" fill="rgb(0, 0, 0)" stroke="rgb(66, 66, 66)" stroke-width="1px" opacity="0.25"></line><line x1="21.471354166666664" y1="0" x2="21.471354166666664" y2="177" fill="rgb(0, 0, 0)" stroke="rgb(66, 66, 66)" stroke-width="1px" opacity="0.25"></line><line x1="42.94270833333333" y1="0" x2="42.94270833333333" y2="177" fill="rgb(0, 0, 0)" stroke="rgb(66, 66, 66)" stroke-width="1px" opacity="0.25"></line><line x1="64.4140625" y1="0" x2="64.4140625" y2="177" fill="rgb(0, 0, 0)" stroke="rgb(66, 66, 66)" stroke-width="1px" opacity="0.25"></line><line x1="85.88541666666666" y1="0" x2="85.88541666666666" y2="177" fill="rgb(0, 0, 0)" stroke="rgb(66, 66, 66)" stroke-width="1px" opacity="0.25"></line><line x1="107.35677083333334" y1="0" x2="107.35677083333334" y2="177" fill="rgb(0, 0, 0)" stroke="rgb(66, 66, 66)" stroke-width="1px" opacity="0.25"></line><line x1="128.828125" y1="0" x2="128.828125" y2="177" fill="rgb(0, 0, 0)" stroke="rgb(66, 66, 66)" stroke-width="1px" opacity="0.25"></line><line x1="150.29947916666669" y1="0" x2="150.29947916666669" y2="177" fill="rgb(0, 0, 0)" stroke="rgb(66, 66, 66)" stroke-width="1px" opacity="0.25"></line><line x1="171.77083333333331" y1="0" x2="171.77083333333331" y2="177" fill="rgb(0, 0, 0)" stroke="rgb(66, 66, 66)" stroke-width="1px" opacity="0.25"></line><line x1="193.2421875" y1="0" x2="193.2421875" y2="177" fill="rgb(0, 0, 0)" stroke="rgb(66, 66, 66)" stroke-width="1px" opacity="0.25"></line><line x1="214.71354166666669" y1="0" x2="214.71354166666669" y2="177" fill="rgb(0, 0, 0)" stroke="rgb(66, 66, 66)" stroke-width="1px" opacity="0.25"></line><line x1="236.18489583333331" y1="0" x2="236.18489583333331" y2="177" fill="rgb(0, 0, 0)" stroke="rgb(66, 66, 66)" stroke-width="1px" opacity="0.25"></line><line x1="257.65625" y1="0" x2="257.65625" y2="177" fill="rgb(0, 0, 0)" stroke="rgb(66, 66, 66)" stroke-width="1px" opacity="0.25"></line></g><g><line x1="0" y1="177" x2="257.65625" y2="177" fill="rgb(0, 0, 0)" stroke="rgb(66, 66, 66)" stroke-width="1px" opacity="0.25"></line><line x1="0" y1="154.875" x2="257.65625" y2="154.875" fill="rgb(0, 0, 0)" stroke="rgb(66, 66, 66)" stroke-width="1px" opacity="0.25"></line><line x1="0" y1="132.75" x2="257.65625" y2="132.75" fill="rgb(0, 0, 0)" stroke="rgb(66, 66, 66)" stroke-width="1px" opacity="0.25"></line><line x1="0" y1="110.625" x2="257.65625" y2="110.625" fill="rgb(0, 0, 0)" stroke="rgb(66, 66, 66)" stroke-width="1px" opacity="0.25"></line><line x1="0" y1="88.5" x2="257.65625" y2="88.5" fill="rgb(0, 0, 0)" stroke="rgb(66, 66, 66)" stroke-width="1px" opacity="0.25"></line><line x1="0" y1="66.375" x2="257.65625" y2="66.375" fill="rgb(0, 0, 0)" stroke="rgb(66, 66, 66)" stroke-width="1px" opacity="0.25"></line><line x1="0" y1="44.25" x2="257.65625" y2="44.25" fill="rgb(0, 0, 0)" stroke="rgb(66, 66, 66)" stroke-width="1px" opacity="0.25"></line><line x1="0" y1="22.125" x2="257.65625" y2="22.125" fill="rgb(0, 0, 0)" stroke="rgb(66, 66, 66)" stroke-width="1px" opacity="0.25"></line><line x1="0" y1="0" x2="257.65625" y2="0" fill="rgb(0, 0, 0)" stroke="rgb(66, 66, 66)" stroke-width="1px" opacity="0.25"></line></g></g></g><g><g><line x1="0" y1="154.875" x2="257.65625" y2="154.875" fill="rgb(0, 0, 0)" stroke="rgb(153, 153, 153)" stroke-width="1.5px"></line></g></g><g><g><line x1="21.471354166666664" y1="0" x2="21.471354166666664" y2="177" fill="rgb(0, 0, 0)" stroke="rgb(153, 153, 153)" stroke-width="1.5px"></line></g></g><g><g><g><g><g><path stroke="rgb(0, 119, 187)" stroke-width="2px" d="M31.133463541666668,-3.902332290031624L32.20703125,16.281110106694246L33.280598958333336,33.71271225927201L34.354166666666664,49.4157509816264L35.427734375,63.99371270703904L36.501302083333336,77.45851171995369L37.57486979166667,89.57763921566593L38.6484375,100.3651244133773L39.722005208333336,110.08771840970059L40.795572916666664,118.14706015625129L41.869140625,124.29769187574286L42.94270833333333,129.211392320126L44.016276041666664,133.70404773562086L45.08984375,137.50990447374062L46.163411458333336,140.3646086111287L47.236979166666664,142.55499996763135L48.310546875,144.1879739422815L49.384114583333336,145.40684669075426L50.457682291666664,146.38359109259815L51.53125,147.1872051515459L52.604817708333336,147.8286531765826L53.67838541666667,148.3632397322916L54.751953125,148.8523293397257L55.825520833333336,149.3443837273381L56.899088541666664,149.9110538038166L57.97265625,150.51975791912733L59.04622395833333,151.11520502617276L60.119791666666664,151.64372455515309L61.193359375,152.06204754516153L62.266927083333336,152.38713611868727L63.340494791666664,152.6383354336026L64.4140625,152.8277036864609L65.48763020833333,152.97488890048498L66.56119791666667,153.08183086153156L67.634765625,153.18698414010612L68.70833333333333,153.31369902003416L69.78190104166666,153.4346687465541L70.85546875,153.54287252116802L71.92903645833333,153.6568686611714L73.00260416666667,153.73645564799784L74.076171875,153.8144057507836L75.14973958333334,153.86949986431168L76.22330729166667,153.8976756052326L77.296875,153.89013882604542L78.37044270833333,153.84327116412697L79.44401041666667,153.72576038142898L80.517578125,153.48006696265247L81.59114583333333,152.7339450893955L82.66471354166667,152.13258315928908L83.73828125,152.57725198679051L84.81184895833333,153.15789878500036L85.88541666666666,153.5377401090892L86.958984375,153.80151605909063L88.03255208333333,153.92681627035734L89.10611979166667,153.84599546499607L90.1796875,153.33077773401473L91.25325520833334,152.62330702355703L92.32682291666667,152.9495410123062L93.400390625,153.1507622855301L94.47395833333333,153.58055823458403L95.54752604166667,153.814282161362L96.62109375,153.74308323705614L97.69466145833333,153.0521218073155L98.76822916666667,152.61214954389246L99.841796875,152.62021577461428L100.91536458333333,152.9915494738094L101.98893229166666,153.24010160525276L103.0625,153.58190940675516L104.13606770833333,153.89163599286903L105.20963541666667,154.085010973468L106.283203125,154.19809544278058L107.35677083333334,154.25522206907794L108.43033854166667,154.30673863781288L109.50390625,154.37192722142217L110.57747395833333,154.40230000741767L111.65104166666667,154.21936033034018L112.724609375,152.40466220726782L113.79817708333333,150.66622003249057L114.87174479166667,151.2481610977872L115.9453125,152.0959804832115L117.01888020833333,152.53898575239026L118.09244791666666,152.95686354978469L119.166015625,153.40455343584767L120.23958333333333,153.7336746814999L121.31315104166667,153.97514900541026L122.38671875,154.1423365153296L123.46028645833334,154.25283809760947L124.53385416666667,154.32207889082275L125.607421875,154.35091776410488L126.68098958333333,154.31954104094353L127.75455729166667,154.17050617821602L128.828125,153.9428299045538L129.90169270833334,153.95810975360723L130.97526041666666,154.12517211313158L132.048828125,154.19950441371864L133.12239583333334,154.15314141890684L134.19596354166669,153.88149988315868L135.26953125,153.47607950448017L136.34309895833334,153.57357752980602L137.41666666666666,153.51558911126742L138.490234375,153.39842466083698L139.56380208333331,153.78602166318615L140.63736979166666,154.04894019498659L141.7109375,154.10679879249471L142.78450520833334,153.68559602773988L143.85807291666666,153.31901569426537L144.931640625,153.6422019101887L146.00520833333334,153.9134443903988L147.07877604166666,154.03333069216166L148.15234375,153.8039998225388L149.22591145833334,153.63567983889683L150.29947916666669,153.8704400915629L151.373046875,153.88433450858153L152.44661458333334,153.95338581028196L153.52018229166666,154.11524799722798L154.59375,154.25750833078843L155.66731770833331,154.13380169704328L156.74088541666666,153.17481785217984L157.814453125,152.3782312912945L158.88802083333334,152.35601647596383L159.96158854166666,152.89702619379057L161.03515625,153.47277567253883L162.10872395833334,153.81767556015478L163.18229166666666,154.07960269756214L164.255859375,154.24092711650786L165.32942708333334,154.34657559964333L166.40299479166669,154.42763141053481L167.4765625,154.4811482069109L168.55013020833334,154.51296318795764L169.62369791666666,154.53373041502527L170.697265625,154.5467285069936L171.77083333333331,154.54790243780096L172.84440104166666,154.53391867568183L173.91796875,154.53154540830903L174.99153645833334,154.5612960121039L176.06510416666666,154.58123842688818L177.138671875,154.5173573022152L178.21223958333334,153.17007700111063L179.28580729166666,149.1997517975902L180.359375,150.19559300589177L181.43294270833334,151.2943089922405L182.50651041666669,152.18909610205512L183.580078125,152.85283273848069L184.65364583333334,153.35165903639896L185.72721354166666,153.69244091191354L186.80078125,153.82809263114012L187.87434895833331,153.87547714335847L188.94791666666666,153.94836226791813L190.021484375,154.07252610365555L191.09505208333334,154.20503661355974L192.16861979166666,154.31486667085647L193.2421875,154.39995160847283L194.31575520833334,154.457583016523L195.38932291666666,154.49258111923234L196.462890625,154.51199032884418L197.53645833333334,154.52248691500174L198.61002604166669,154.52919645259945L199.68359375,154.53610273631912L200.75716145833334,154.5429480380565L201.83072916666666,154.55191471121015L202.904296875,154.56008100970567L203.97786458333331,154.5617583225249L205.05143229166666,154.531411833744L206.125,154.35756736391826L207.19856770833334,153.8421981949928L208.27213541666666,153.64910174933212L209.345703125,153.70543830465755L210.41927083333334,154.00447466425587L211.49283854166666,154.15915233996205L212.56640625,154.2615988297623L213.63997395833334,154.3243428036786L214.71354166666669,154.37592391045195L215.787109375,154.4082066881138L216.86067708333334,154.34624434358346L217.93424479166666,153.7179175808815L219.0078125,152.3253467521422L220.08138020833331,152.5302456813665L221.15494791666666,153.101557670737L222.228515625,153.4855764101891L223.30208333333334,153.64785736649918L224.37565104166666,153.76651517597253L225.44921875,153.79944315900454L226.52278645833334,153.87009956868914L227.59635416666666,153.90740675087233L228.669921875,153.9992770507065L229.74348958333334,154.06192718623444L230.81705729166669,154.14625405124644L231.890625,154.21697470037827L232.96419270833334,154.25301354012902L234.03776041666666,154.2663880939604L235.111328125,154.25744536915548" style="fill: none;" fill="none"></path></g></g></g></g><g opacity="0.2"><g><g><g><path stroke="rgb(0, 119, 187)" stroke-width="2px" d="M28.986328125,-4.998759155273428L30.059895833333332,16.414481323242196L31.133463541666668,32.866849548339836L32.20703125,46.37321136474609L33.280598958333336,59.7652534790039L34.354166666666664,72.91903591918945L35.427734375,85.8320955505371L36.501302083333336,97.63988287353516L37.57486979166667,107.74778311157226L38.6484375,116.54178730773924L39.722005208333336,124.66914083862305L40.795572916666664,130.23484501647948L41.869140625,133.52307726287842L42.94270833333333,136.58167350769043L44.016276041666664,140.44288302612304L45.08984375,143.21861444091797L46.163411458333336,144.6466310005188L47.236979166666664,145.840571434021L48.310546875,146.63742794036867L49.384114583333336,147.23515269470215L50.457682291666664,147.8487061958313L51.53125,148.39262549972534L52.604817708333336,148.79082485961914L53.67838541666667,149.1651193885803L54.751953125,149.58596365356445L55.825520833333336,150.08246525001528L56.899088541666664,150.76105887794495L57.97265625,151.43281406593323L59.04622395833333,152.00837567138672L60.119791666666664,152.43650384044648L61.193359375,152.6895320262909L62.266927083333336,152.87476897716522L63.340494791666664,153.0151344051361L64.4140625,153.11175606536864L65.48763020833333,153.195666721344L66.56119791666667,153.24224380302428L67.634765625,153.34471405792237L68.70833333333333,153.50377133989335L69.78190104166666,153.61612333631516L70.85546875,153.70517818307877L71.92903645833333,153.82786287117005L73.00260416666667,153.85583612823487L74.076171875,153.93133090496062L75.14973958333334,153.95214103460313L76.22330729166667,153.93993921661377L77.296875,153.87883365726472L78.37044270833333,153.7729696712494L79.44401041666667,153.5494942073822L80.517578125,153.1115268344879L81.59114583333333,151.6147622795105L82.66471354166667,151.23054026412964L83.73828125,153.2442552280426L84.81184895833333,154.02886898231506L85.88541666666666,154.1075020952225L86.958984375,154.1971799840927L88.03255208333333,154.11476658725738L89.10611979166667,153.7247642569542L90.1796875,152.55795113754272L91.25325520833334,151.56210095787048L92.32682291666667,153.43889199543L93.400390625,153.4525941953659L94.47395833333333,154.22525215816498L95.54752604166667,154.16486805152894L96.62109375,153.63628485059738L97.69466145833333,152.01567966270446L98.76822916666667,151.95219114875792L99.841796875,152.63231512069703L100.91536458333333,153.5485500226021L101.98893229166666,153.61292980241774L103.0625,154.09462110900878L104.13606770833333,154.3562258720398L105.20963541666667,154.37507344436645L106.283203125,154.36772214674951L107.35677083333334,154.34091200852393L108.43033854166667,154.3840134909153L109.50390625,154.46971009683608L110.57747395833333,154.4478591864109L111.65104166666667,153.94495081472397L112.724609375,149.6826150226593L113.79817708333333,148.0585567703247L114.87174479166667,152.12107269573212L115.9453125,153.36770956134797L117.01888020833333,153.20349365615843L118.09244791666666,153.5836802458763L119.166015625,154.07608826494217L120.23958333333333,154.22735654997825L121.31315104166667,154.33736049127577L122.38671875,154.3931177802086L123.46028645833334,154.4185904710293L124.53385416666667,154.4259400806427L125.607421875,154.39417607402802L126.68098958333333,154.27247595620153L127.75455729166667,153.94695388412475L128.828125,153.60131549406051L129.90169270833334,153.98102952718736L130.97526041666666,154.37576565241815L132.048828125,154.31100286459923L133.12239583333334,154.08359692668915L134.19596354166669,153.47403757953643L135.26953125,152.8679489364624L136.34309895833334,153.7198245677948L137.41666666666666,153.42860648345948L138.490234375,153.22267798519135L139.56380208333331,154.3674171667099L140.63736979166666,154.4433179926872L141.7109375,154.19358668875694L142.78450520833334,153.0537918806076L143.85807291666666,152.76914519405364L144.931640625,154.12698123407364L146.00520833333334,154.32030811071397L147.07877604166666,154.2131601448059L148.15234375,153.46000351810457L149.22591145833334,153.38319986343384L150.29947916666669,154.22258047056198L151.373046875,153.9051761341095L152.44661458333334,154.05696276283263L153.52018229166666,154.35804127764703L154.59375,154.47089883112906L155.66731770833331,153.94824174642562L156.74088541666666,151.73634208488465L157.814453125,151.18335144996644L158.88802083333334,152.32269425296784L159.96158854166666,153.7085407705307L161.03515625,154.33639989066123L162.10872395833334,154.33502539157868L163.18229166666666,154.47249340367318L164.255859375,154.48291374492646L165.32942708333334,154.50504832434655L166.40299479166669,154.54921512687207L167.4765625,154.56142340147497L168.55013020833334,154.5606856595278L169.62369791666666,154.5648812556267L170.697265625,154.5662256449461L171.77083333333331,154.54966333401202L172.84440104166666,154.51294303250313L173.91796875,154.52798550724984L174.99153645833334,154.60592191779614L176.06510416666666,154.61115204906463L177.138671875,154.42153561520576L178.21223958333334,151.14915654945372L179.28580729166666,143.24426399230956L180.359375,151.6893548183441L181.43294270833334,152.9423829717636L182.50651041666669,153.53127676677704L183.580078125,153.84843769311905L184.65364583333334,154.09989848327638L185.72721354166666,154.2036137251854L186.80078125,154.03157020998L187.87434895833331,153.94655391168595L188.94791666666666,154.05768995475768L190.021484375,154.25877185726165L191.09505208333334,154.40380237841606L192.16861979166666,154.4796117568016L193.2421875,154.52757901489736L194.31575520833334,154.54403012859822L195.38932291666666,154.54507827329635L196.462890625,154.54110414326192L197.53645833333334,154.5382317942381L198.61002604166669,154.539260758996L199.68359375,154.54646216189863L200.75716145833334,154.55321599066258L201.83072916666666,154.56536472094058L202.904296875,154.57233045744897L203.97786458333331,154.56427429175378L205.05143229166666,154.48589210057258L206.125,154.09680065917968L207.19856770833334,153.0691444416046L208.27213541666666,153.35945708084105L209.345703125,153.7899431376457L210.41927083333334,154.45302920365333L211.49283854166666,154.39116885352135L212.56640625,154.41526856446265L213.63997395833334,154.41845876455307L214.71354166666669,154.45329557061194L215.787109375,154.45663085460663L216.86067708333334,154.25330082678795L217.93424479166666,152.7754274368286L219.0078125,150.23649050903322L220.08138020833331,152.83759407520293L221.15494791666666,153.95852565479277L222.228515625,154.06160451936722L223.30208333333334,153.89127880096436L224.37565104166666,153.9445018901825L225.44921875,153.84883513355257L226.52278645833334,153.9760841832161L227.59635416666666,153.96336752414703L228.669921875,154.13708250045775L229.74348958333334,154.15590238952637L230.81705729166669,154.27274434876443L231.890625,154.32305567407607L232.96419270833334,154.3070717997551L234.03776041666666,154.2864499247074L235.111328125,154.2440312819481" style="fill: none;" fill="none"></path></g></g></g></g></g></g><g transform="translate(72, 177)" clip-path="url(#clip_1)"><clipPath id="clip_1"><rect width="257" height="23"></rect></clipPath><g><g><line x1="0" y1="0" x2="0" y2="5" style="visibility: inherit;" fill="rgb(0, 0, 0)" stroke="rgb(204, 204, 204)" stroke-width="1px"></line><line x1="21.471354166666664" y1="0" x2="21.471354166666664" y2="5" style="visibility: inherit;" fill="rgb(0, 0, 0)" stroke="rgb(204, 204, 204)" stroke-width="1px"></line><line x1="42.94270833333333" y1="0" x2="42.94270833333333" y2="5" style="visibility: inherit;" fill="rgb(0, 0, 0)" stroke="rgb(204, 204, 204)" stroke-width="1px"></line><line x1="64.4140625" y1="0" x2="64.4140625" y2="5" style="visibility: inherit;" fill="rgb(0, 0, 0)" stroke="rgb(204, 204, 204)" stroke-width="1px"></line><line x1="85.88541666666666" y1="0" x2="85.88541666666666" y2="5" style="visibility: inherit;" fill="rgb(0, 0, 0)" stroke="rgb(204, 204, 204)" stroke-width="1px"></line><line x1="107.35677083333334" y1="0" x2="107.35677083333334" y2="5" style="visibility: inherit;" fill="rgb(0, 0, 0)" stroke="rgb(204, 204, 204)" stroke-width="1px"></line><line x1="128.828125" y1="0" x2="128.828125" y2="5" style="visibility: inherit;" fill="rgb(0, 0, 0)" stroke="rgb(204, 204, 204)" stroke-width="1px"></line><line x1="150.29947916666669" y1="0" x2="150.29947916666669" y2="5" style="visibility: inherit;" fill="rgb(0, 0, 0)" stroke="rgb(204, 204, 204)" stroke-width="1px"></line><line x1="171.77083333333331" y1="0" x2="171.77083333333331" y2="5" style="visibility: inherit;" fill="rgb(0, 0, 0)" stroke="rgb(204, 204, 204)" stroke-width="1px"></line><line x1="193.2421875" y1="0" x2="193.2421875" y2="5" style="visibility: inherit;" fill="rgb(0, 0, 0)" stroke="rgb(204, 204, 204)" stroke-width="1px"></line><line x1="214.71354166666669" y1="0" x2="214.71354166666669" y2="5" style="visibility: inherit;" fill="rgb(0, 0, 0)" stroke="rgb(204, 204, 204)" stroke-width="1px"></line><line x1="236.18489583333331" y1="0" x2="236.18489583333331" y2="5" style="visibility: inherit;" fill="rgb(0, 0, 0)" stroke="rgb(204, 204, 204)" stroke-width="1px"></line><line x1="257.65625" y1="0" x2="257.65625" y2="5" style="visibility: inherit;" fill="rgb(0, 0, 0)" stroke="rgb(204, 204, 204)" stroke-width="1px"></line></g><g transform="translate(0, 8)"><text x="0" y="0" dx="0em" dy="0.95em" style="text-anchor: middle; visibility: hidden; font-family: Roboto, sans-serif; font-size: 12px; font-weight: 200;" fill="rgb(33, 33, 33)" stroke="none" stroke-width="1px">-20</text><text x="21.471354166666664" y="0" dx="0em" dy="0.95em" style="text-anchor: middle; visibility: inherit; font-family: Roboto, sans-serif; font-size: 12px; font-weight: 200;" fill="rgb(33, 33, 33)" stroke="none" stroke-width="1px">0</text><text x="42.94270833333333" y="0" dx="0em" dy="0.95em" style="text-anchor: middle; visibility: hidden; font-family: Roboto, sans-serif; font-size: 12px; font-weight: 200;" fill="rgb(33, 33, 33)" stroke="none" stroke-width="1px">20</text><text x="64.4140625" y="0" dx="0em" dy="0.95em" style="text-anchor: middle; visibility: inherit; font-family: Roboto, sans-serif; font-size: 12px; font-weight: 200;" fill="rgb(33, 33, 33)" stroke="none" stroke-width="1px">40</text><text x="85.88541666666666" y="0" dx="0em" dy="0.95em" style="text-anchor: middle; visibility: hidden; font-family: Roboto, sans-serif; font-size: 12px; font-weight: 200;" fill="rgb(33, 33, 33)" stroke="none" stroke-width="1px">60</text><text x="107.35677083333334" y="0" dx="0em" dy="0.95em" style="text-anchor: middle; visibility: inherit; font-family: Roboto, sans-serif; font-size: 12px; font-weight: 200;" fill="rgb(33, 33, 33)" stroke="none" stroke-width="1px">80</text><text x="128.828125" y="0" dx="0em" dy="0.95em" style="text-anchor: middle; visibility: hidden; font-family: Roboto, sans-serif; font-size: 12px; font-weight: 200;" fill="rgb(33, 33, 33)" stroke="none" stroke-width="1px">100</text><text x="150.29947916666669" y="0" dx="0em" dy="0.95em" style="text-anchor: middle; visibility: inherit; font-family: Roboto, sans-serif; font-size: 12px; font-weight: 200;" fill="rgb(33, 33, 33)" stroke="none" stroke-width="1px">120</text><text x="171.77083333333331" y="0" dx="0em" dy="0.95em" style="text-anchor: middle; visibility: hidden; font-family: Roboto, sans-serif; font-size: 12px; font-weight: 200;" fill="rgb(33, 33, 33)" stroke="none" stroke-width="1px">140</text><text x="193.2421875" y="0" dx="0em" dy="0.95em" style="text-anchor: middle; visibility: inherit; font-family: Roboto, sans-serif; font-size: 12px; font-weight: 200;" fill="rgb(33, 33, 33)" stroke="none" stroke-width="1px">160</text><text x="214.71354166666669" y="0" dx="0em" dy="0.95em" style="text-anchor: middle; visibility: hidden; font-family: Roboto, sans-serif; font-size: 12px; font-weight: 200;" fill="rgb(33, 33, 33)" stroke="none" stroke-width="1px">180</text><text x="236.18489583333331" y="0" dx="0em" dy="0.95em" style="text-anchor: middle; visibility: inherit; font-family: Roboto, sans-serif; font-size: 12px; font-weight: 200;" fill="rgb(33, 33, 33)" stroke="none" stroke-width="1px">200</text><text x="257.65625" y="0" dx="0em" dy="0.95em" style="text-anchor: middle; visibility: hidden; font-family: Roboto, sans-serif; font-size: 12px; font-weight: 200;" fill="rgb(33, 33, 33)" stroke="none" stroke-width="1px">220</text></g><line x1="0" y1="0" x2="257.65625" y2="0" fill="rgb(0, 0, 0)" stroke="rgb(204, 204, 204)" stroke-width="1px"></line></g></g></g></g></svg>