<svg viewBox="0 0 318 200" xmlns="http://www.w3.org/2000/svg"><g><g><g><g><g><line x1="40" y1="177" x2="35" y2="177" style="visibility: inherit;" fill="rgb(0, 0, 0)" stroke="rgb(204, 204, 204)" stroke-width="1px"></line><line x1="40" y1="159.3" x2="35" y2="159.3" style="visibility: inherit;" fill="rgb(0, 0, 0)" stroke="rgb(204, 204, 204)" stroke-width="1px"></line><line x1="40" y1="141.6" x2="35" y2="141.6" style="visibility: inherit;" fill="rgb(0, 0, 0)" stroke="rgb(204, 204, 204)" stroke-width="1px"></line><line x1="40" y1="123.89999999999999" x2="35" y2="123.89999999999999" style="visibility: inherit;" fill="rgb(0, 0, 0)" stroke="rgb(204, 204, 204)" stroke-width="1px"></line><line x1="40" y1="106.2" x2="35" y2="106.2" style="visibility: inherit;" fill="rgb(0, 0, 0)" stroke="rgb(204, 204, 204)" stroke-width="1px"></line><line x1="40" y1="88.5" x2="35" y2="88.5" style="visibility: inherit;" fill="rgb(0, 0, 0)" stroke="rgb(204, 204, 204)" stroke-width="1px"></line><line x1="40" y1="70.8" x2="35" y2="70.8" style="visibility: inherit;" fill="rgb(0, 0, 0)" stroke="rgb(204, 204, 204)" stroke-width="1px"></line><line x1="40" y1="53.10000000000001" x2="35" y2="53.10000000000001" style="visibility: inherit;" fill="rgb(0, 0, 0)" stroke="rgb(204, 204, 204)" stroke-width="1px"></line><line x1="40" y1="35.39999999999999" x2="35" y2="35.39999999999999" style="visibility: inherit;" fill="rgb(0, 0, 0)" stroke="rgb(204, 204, 204)" stroke-width="1px"></line><line x1="40" y1="17.699999999999996" x2="35" y2="17.699999999999996" style="visibility: inherit;" fill="rgb(0, 0, 0)" stroke="rgb(204, 204, 204)" stroke-width="1px"></line><line x1="40" y1="0" x2="35" y2="0" style="visibility: inherit;" fill="rgb(0, 0, 0)" stroke="rgb(204, 204, 204)" stroke-width="1px"></line></g><g transform="translate(30, 0)"><text x="0" y="177" dx="0em" dy="0.3em" style="text-anchor: end; visibility: hidden; font-family: Roboto, sans-serif; font-size: 12px; font-weight: 200;" fill="rgb(33, 33, 33)" stroke="none" stroke-width="1px">-10</text><text x="0" y="159.3" dx="0em" dy="0.3em" style="text-anchor: end; visibility: inherit; font-family: Roboto, sans-serif; font-size: 12px; font-weight: 200;" fill="rgb(33, 33, 33)" stroke="none" stroke-width="1px">0</text><text x="0" y="141.6" dx="0em" dy="0.3em" style="text-anchor: end; visibility: hidden; font-family: Roboto, sans-serif; font-size: 12px; font-weight: 200;" fill="rgb(33, 33, 33)" stroke="none" stroke-width="1px">10</text><text x="0" y="123.89999999999999" dx="0em" dy="0.3em" style="text-anchor: end; visibility: inherit; font-family: Roboto, sans-serif; font-size: 12px; font-weight: 200;" fill="rgb(33, 33, 33)" stroke="none" stroke-width="1px">20</text><text x="0" y="106.2" dx="0em" dy="0.3em" style="text-anchor: end; visibility: hidden; font-family: Roboto, sans-serif; font-size: 12px; font-weight: 200;" fill="rgb(33, 33, 33)" stroke="none" stroke-width="1px">30</text><text x="0" y="88.5" dx="0em" dy="0.3em" style="text-anchor: end; visibility: inherit; font-family: Roboto, sans-serif; font-size: 12px; font-weight: 200;" fill="rgb(33, 33, 33)" stroke="none" stroke-width="1px">40</text><text x="0" y="70.8" dx="0em" dy="0.3em" style="text-anchor: end; visibility: hidden; font-family: Roboto, sans-serif; font-size: 12px; font-weight: 200;" fill="rgb(33, 33, 33)" stroke="none" stroke-width="1px">50</text><text x="0" y="53.10000000000001" dx="0em" dy="0.3em" style="text-anchor: end; visibility: inherit; font-family: Roboto, sans-serif; font-size: 12px; font-weight: 200;" fill="rgb(33, 33, 33)" stroke="none" stroke-width="1px">60</text><text x="0" y="35.39999999999999" dx="0em" dy="0.3em" style="text-anchor: end; visibility: hidden; font-family: Roboto, sans-serif; font-size: 12px; font-weight: 200;" fill="rgb(33, 33, 33)" stroke="none" stroke-width="1px">70</text><text x="0" y="17.699999999999996" dx="0em" dy="0.3em" style="text-anchor: end; visibility: inherit; font-family: Roboto, sans-serif; font-size: 12px; font-weight: 200;" fill="rgb(33, 33, 33)" stroke="none" stroke-width="1px">80</text><text x="0" y="0" dx="0em" dy="0.3em" style="text-anchor: end; visibility: hidden; font-family: Roboto, sans-serif; font-size: 12px; font-weight: 200;" fill="rgb(33, 33, 33)" stroke="none" stroke-width="1px">90</text></g><line x1="40" y1="0" x2="40" y2="177" fill="rgb(0, 0, 0)" stroke="rgb(204, 204, 204)" stroke-width="1px"></line></g></g><g transform="translate(40, 0)" clip-path="url(#clip_0)"><clipPath id="clip_0"><rect width="278" height="177"></rect></clipPath><g><g><g><line x1="0" y1="0" x2="0" y2="177" fill="rgb(0, 0, 0)" stroke="rgb(66, 66, 66)" stroke-width="1px" opacity="0.25"></line><line x1="23.166666666666664" y1="0" x2="23.166666666666664" y2="177" fill="rgb(0, 0, 0)" stroke="rgb(66, 66, 66)" stroke-width="1px" opacity="0.25"></line><line x1="46.33333333333333" y1="0" x2="46.33333333333333" y2="177" fill="rgb(0, 0, 0)" stroke="rgb(66, 66, 66)" stroke-width="1px" opacity="0.25"></line><line x1="69.5" y1="0" x2="69.5" y2="177" fill="rgb(0, 0, 0)" stroke="rgb(66, 66, 66)" stroke-width="1px" opacity="0.25"></line><line x1="92.66666666666666" y1="0" x2="92.66666666666666" y2="177" fill="rgb(0, 0, 0)" stroke="rgb(66, 66, 66)" stroke-width="1px" opacity="0.25"></line><line x1="115.83333333333334" y1="0" x2="115.83333333333334" y2="177" fill="rgb(0, 0, 0)" stroke="rgb(66, 66, 66)" stroke-width="1px" opacity="0.25"></line><line x1="139" y1="0" x2="139" y2="177" fill="rgb(0, 0, 0)" stroke="rgb(66, 66, 66)" stroke-width="1px" opacity="0.25"></line><line x1="162.16666666666669" y1="0" x2="162.16666666666669" y2="177" fill="rgb(0, 0, 0)" stroke="rgb(66, 66, 66)" stroke-width="1px" opacity="0.25"></line><line x1="185.33333333333331" y1="0" x2="185.33333333333331" y2="177" fill="rgb(0, 0, 0)" stroke="rgb(66, 66, 66)" stroke-width="1px" opacity="0.25"></line><line x1="208.5" y1="0" x2="208.5" y2="177" fill="rgb(0, 0, 0)" stroke="rgb(66, 66, 66)" stroke-width="1px" opacity="0.25"></line><line x1="231.66666666666669" y1="0" x2="231.66666666666669" y2="177" fill="rgb(0, 0, 0)" stroke="rgb(66, 66, 66)" stroke-width="1px" opacity="0.25"></line><line x1="254.83333333333331" y1="0" x2="254.83333333333331" y2="177" fill="rgb(0, 0, 0)" stroke="rgb(66, 66, 66)" stroke-width="1px" opacity="0.25"></line><line x1="278" y1="0" x2="278" y2="177" fill="rgb(0, 0, 0)" stroke="rgb(66, 66, 66)" stroke-width="1px" opacity="0.25"></line></g><g><line x1="0" y1="177" x2="278" y2="177" fill="rgb(0, 0, 0)" stroke="rgb(66, 66, 66)" stroke-width="1px" opacity="0.25"></line><line x1="0" y1="159.3" x2="278" y2="159.3" fill="rgb(0, 0, 0)" stroke="rgb(66, 66, 66)" stroke-width="1px" opacity="0.25"></line><line x1="0" y1="141.6" x2="278" y2="141.6" fill="rgb(0, 0, 0)" stroke="rgb(66, 66, 66)" stroke-width="1px" opacity="0.25"></line><line x1="0" y1="123.89999999999999" x2="278" y2="123.89999999999999" fill="rgb(0, 0, 0)" stroke="rgb(66, 66, 66)" stroke-width="1px" opacity="0.25"></line><line x1="0" y1="106.2" x2="278" y2="106.2" fill="rgb(0, 0, 0)" stroke="rgb(66, 66, 66)" stroke-width="1px" opacity="0.25"></line><line x1="0" y1="88.5" x2="278" y2="88.5" fill="rgb(0, 0, 0)" stroke="rgb(66, 66, 66)" stroke-width="1px" opacity="0.25"></line><line x1="0" y1="70.8" x2="278" y2="70.8" fill="rgb(0, 0, 0)" stroke="rgb(66, 66, 66)" stroke-width="1px" opacity="0.25"></line><line x1="0" y1="53.10000000000001" x2="278" y2="53.10000000000001" fill="rgb(0, 0, 0)" stroke="rgb(66, 66, 66)" stroke-width="1px" opacity="0.25"></line><line x1="0" y1="35.39999999999999" x2="278" y2="35.39999999999999" fill="rgb(0, 0, 0)" stroke="rgb(66, 66, 66)" stroke-width="1px" opacity="0.25"></line><line x1="0" y1="17.699999999999996" x2="278" y2="17.699999999999996" fill="rgb(0, 0, 0)" stroke="rgb(66, 66, 66)" stroke-width="1px" opacity="0.25"></line><line x1="0" y1="0" x2="278" y2="0" fill="rgb(0, 0, 0)" stroke="rgb(66, 66, 66)" stroke-width="1px" opacity="0.25"></line></g></g></g><g><g><line x1="0" y1="159.3" x2="278" y2="159.3" fill="rgb(0, 0, 0)" stroke="rgb(153, 153, 153)" stroke-width="1.5px"></line></g></g><g><g><line x1="23.166666666666664" y1="0" x2="23.166666666666664" y2="177" fill="rgb(0, 0, 0)" stroke="rgb(153, 153, 153)" stroke-width="1.5px"></line></g></g><g><g><g><g><g><path stroke="rgb(51, 187, 238)" stroke-width="2px" d="M30.116666666666667,-16.865140457153323L31.275000000000002,5.707234497070322L32.43333333333334,25.063287506103517L33.59166666666667,44.45730033874511L34.75,62.508654899597175L35.90833333333334,75.47907829284668L37.06666666666666,84.86196750640869L38.225,91.2384413909912L39.38333333333333,98.22002403259276L40.54166666666667,100.53140727996825L41.699999999999996,105.02261415481568L42.858333333333334,108.51731489181519L44.016666666666666,112.45436708450316L45.175000000000004,115.9412557411194L46.33333333333333,118.19786664962768L47.49166666666667,123.88587816238405L48.65,125.11168270111084L49.80833333333334,125.46152143478393L50.96666666666666,129.39843183517456L52.125,133.17608247756957L53.28333333333334,135.43915675163268L54.44166666666666,135.04109850883484L55.6,135.81995684623718L56.75833333333333,137.42753883361817L57.91666666666667,139.51623390197753L59.074999999999996,138.61262535095216L60.233333333333334,139.8096072292328L61.391666666666666,141.60992039680482L62.550000000000004,141.87571681022644L63.70833333333333,142.09429301261903L64.86666666666667,143.1292636871338L66.02499999999999,143.26893078804017L67.18333333333334,144.3629393863678L68.34166666666667,144.55509664535523L69.5,145.13006441116332L70.65833333333333,145.8227695798874L71.81666666666668,145.84806684494018L72.97500000000001,146.50812940120696L74.13333333333333,146.6198600435257L75.29166666666666,147.16863252639772L76.45,147.6567997741699L77.60833333333333,147.22547435760498L78.76666666666667,148.36557389259337L79.925,148.1797415828705L81.08333333333334,148.67105189323425L82.24166666666667,148.8037686395645L83.39999999999999,149.06143731594085L84.55833333333332,149.30904717922212L85.71666666666667,149.56408172607422L86.875,149.60140686035157L88.03333333333333,150.09967005729675L89.19166666666668,150.2369511651993L90.35000000000001,150.35736236572265L91.50833333333333,150.5730714941025L92.66666666666666,150.63837866306304L93.825,151.16234762191772L94.98333333333333,151.13905232906342L96.14166666666667,151.17246720314026L97.3,151.3313260602951L98.45833333333334,151.75247450351716L99.61666666666667,151.74704588413238L100.77499999999999,152.12978887081147L101.93333333333332,151.72231578826904L103.09166666666667,152.23513463973998L104.25,151.85425183296203L105.40833333333333,152.33141751766206L106.56666666666668,151.91132070064546L107.72500000000001,152.34837899923323L108.88333333333333,152.30368446350099L110.04166666666666,152.3748456287384L111.2,152.45708684921266L112.35833333333333,152.59360624551772L113.51666666666667,152.46738746881485L114.675,152.70346573591232L115.83333333333334,152.51822844743728L116.99166666666667,152.97697801351546L118.14999999999999,152.82925322771072L119.30833333333332,152.94678047418594L120.46666666666667,152.82475512027742L121.625,153.002991836071L122.78333333333333,153.0665143632889L123.94166666666668,153.16707801818848L125.10000000000001,153.05419657945632L126.25833333333333,153.1970080089569L127.41666666666666,153.3065974187851L128.57500000000002,153.33643288135528L129.73333333333335,153.36788882732392L130.89166666666665,153.4058157348633L132.04999999999998,153.39977774620056L133.20833333333334,153.5533413362503L134.36666666666667,153.47697816610335L135.525,153.27986957073213L136.68333333333334,153.7285945057869L137.84166666666667,153.5118510532379L139,153.3430173611641L140.15833333333333,153.69716936588287L141.31666666666666,153.6225832414627L142.475,153.55896534204484L143.63333333333335,153.60242046117781L144.79166666666669,153.92588793754578L145.95000000000002,153.72698794841767L147.10833333333335,153.7259088921547L148.26666666666665,153.95993201494215L149.42499999999998,153.5774789428711L150.58333333333331,153.83166948795318L151.74166666666665,153.8579939031601L152.9,153.69836658239365L154.05833333333334,154.10929627418517L155.21666666666667,153.62318501472473L156.375,154.1055657863617L157.53333333333333,154.07068023920058L158.69166666666666,153.80675793170929L159.85,154.07779222011567L161.00833333333335,153.96527665615082L162.16666666666669,154.0385364317894L163.32500000000002,153.84993031024933L164.48333333333335,154.32369466781617L165.64166666666665,153.95551535367966L166.79999999999998,154.2905511403084L167.95833333333331,153.9095906853676L169.11666666666665,154.31743090867997L170.275,154.01639151334763L171.43333333333334,154.06061762809753L172.59166666666667,154.40616672277451L173.75,154.3840842604637L174.90833333333333,154.4867790198326L176.06666666666666,154.43141672372818L177.225,154.6711756825447L178.38333333333335,154.39963203907013L179.54166666666669,154.57972218275071L180.70000000000002,154.24518520116806L181.85833333333335,154.2904207420349L183.01666666666665,154.26614092111586L184.17499999999998,154.71619431495665L185.33333333333331,154.55561158418655L186.49166666666665,154.68092305898668L187.65,154.302508957386L188.80833333333334,154.66892852783204L189.96666666666667,154.76284440279008L191.125,154.39451907634734L192.28333333333333,154.74830984830857L193.44166666666666,155.04084001779557L194.6,154.51563839435576L195.75833333333335,155.216713950634L196.91666666666669,154.33908546209335L198.07500000000002,154.8300834918022L199.23333333333335,154.6960817527771L200.39166666666665,154.8243577837944L201.54999999999998,154.70701073169707L202.70833333333331,154.98600395679475L203.86666666666665,154.77888676643371L205.025,155.0492593574524L206.18333333333334,154.9441119289398L207.34166666666667,154.9017075920105L208.5,154.921075322628L209.65833333333333,154.9043514275551L210.81666666666666,155.0271600151062L211.975,155.32433894634246L213.13333333333335,154.57645758390427L214.29166666666669,155.747511305809L215.45000000000002,154.41150545597077L216.60833333333335,155.06956308603287L217.76666666666665,155.31366190195084L218.92499999999998,155.16414741039276L220.08333333333331,155.24572904348375L221.24166666666665,155.47077705144883L222.4,155.06055758714675L223.55833333333334,155.51443008899687L224.71666666666667,154.19362850904466L225.875,155.38021988153457L227.03333333333333,155.09206501722335L228.19166666666666,155.75128779172897L229.35,154.95224726200104L230.50833333333335,155.85909846782684L231.66666666666669,154.699054749012L232.82500000000002,155.68017431259156L233.98333333333335,155.4335194373131L235.14166666666665,156.01844304800034L236.29999999999998,154.76591910123824L237.45833333333331,155.48712874174117L238.61666666666665,155.6570997262001L239.775,155.93435198664665L240.93333333333334,155.45283399581908L242.09166666666667,155.54519184350968L243.25,154.05235991477966L244.40833333333333,155.15642015218734L245.56666666666666,155.54703303337098L246.725,155.62455248594284L247.88333333333335,155.29559731006623L249.04166666666669,155.70797108888627L250.20000000000002,154.9185985994339L251.35833333333335,155.90290996670723L252.51666666666665,155.20164092302323L253.67499999999998,155.88728031992912" style="fill: none;" fill="none"></path></g></g></g></g></g></g><g transform="translate(40, 177)" clip-path="url(#clip_1)"><clipPath id="clip_1"><rect width="278" height="23"></rect></clipPath><g><g><line x1="0" y1="0" x2="0" y2="5" style="visibility: inherit;" fill="rgb(0, 0, 0)" stroke="rgb(204, 204, 204)" stroke-width="1px"></line><line x1="23.166666666666664" y1="0" x2="23.166666666666664" y2="5" style="visibility: inherit;" fill="rgb(0, 0, 0)" stroke="rgb(204, 204, 204)" stroke-width="1px"></line><line x1="46.33333333333333" y1="0" x2="46.33333333333333" y2="5" style="visibility: inherit;" fill="rgb(0, 0, 0)" stroke="rgb(204, 204, 204)" stroke-width="1px"></line><line x1="69.5" y1="0" x2="69.5" y2="5" style="visibility: inherit;" fill="rgb(0, 0, 0)" stroke="rgb(204, 204, 204)" stroke-width="1px"></line><line x1="92.66666666666666" y1="0" x2="92.66666666666666" y2="5" style="visibility: inherit;" fill="rgb(0, 0, 0)" stroke="rgb(204, 204, 204)" stroke-width="1px"></line><line x1="115.83333333333334" y1="0" x2="115.83333333333334" y2="5" style="visibility: inherit;" fill="rgb(0, 0, 0)" stroke="rgb(204, 204, 204)" stroke-width="1px"></line><line x1="139" y1="0" x2="139" y2="5" style="visibility: inherit;" fill="rgb(0, 0, 0)" stroke="rgb(204, 204, 204)" stroke-width="1px"></line><line x1="162.16666666666669" y1="0" x2="162.16666666666669" y2="5" style="visibility: inherit;" fill="rgb(0, 0, 0)" stroke="rgb(204, 204, 204)" stroke-width="1px"></line><line x1="185.33333333333331" y1="0" x2="185.33333333333331" y2="5" style="visibility: inherit;" fill="rgb(0, 0, 0)" stroke="rgb(204, 204, 204)" stroke-width="1px"></line><line x1="208.5" y1="0" x2="208.5" y2="5" style="visibility: inherit;" fill="rgb(0, 0, 0)" stroke="rgb(204, 204, 204)" stroke-width="1px"></line><line x1="231.66666666666669" y1="0" x2="231.66666666666669" y2="5" style="visibility: inherit;" fill="rgb(0, 0, 0)" stroke="rgb(204, 204, 204)" stroke-width="1px"></line><line x1="254.83333333333331" y1="0" x2="254.83333333333331" y2="5" style="visibility: inherit;" fill="rgb(0, 0, 0)" stroke="rgb(204, 204, 204)" stroke-width="1px"></line><line x1="278" y1="0" x2="278" y2="5" style="visibility: inherit;" fill="rgb(0, 0, 0)" stroke="rgb(204, 204, 204)" stroke-width="1px"></line></g><g transform="translate(0, 8)"><text x="0" y="0" dx="0em" dy="0.95em" style="text-anchor: middle; visibility: hidden; font-family: Roboto, sans-serif; font-size: 12px; font-weight: 200;" fill="rgb(33, 33, 33)" stroke="none" stroke-width="1px">-20</text><text x="23.166666666666664" y="0" dx="0em" dy="0.95em" style="text-anchor: middle; visibility: inherit; font-family: Roboto, sans-serif; font-size: 12px; font-weight: 200;" fill="rgb(33, 33, 33)" stroke="none" stroke-width="1px">0</text><text x="46.33333333333333" y="0" dx="0em" dy="0.95em" style="text-anchor: middle; visibility: hidden; font-family: Roboto, sans-serif; font-size: 12px; font-weight: 200;" fill="rgb(33, 33, 33)" stroke="none" stroke-width="1px">20</text><text x="69.5" y="0" dx="0em" dy="0.95em" style="text-anchor: middle; visibility: inherit; font-family: Roboto, sans-serif; font-size: 12px; font-weight: 200;" fill="rgb(33, 33, 33)" stroke="none" stroke-width="1px">40</text><text x="92.66666666666666" y="0" dx="0em" dy="0.95em" style="text-anchor: middle; visibility: hidden; font-family: Roboto, sans-serif; font-size: 12px; font-weight: 200;" fill="rgb(33, 33, 33)" stroke="none" stroke-width="1px">60</text><text x="115.83333333333334" y="0" dx="0em" dy="0.95em" style="text-anchor: middle; visibility: inherit; font-family: Roboto, sans-serif; font-size: 12px; font-weight: 200;" fill="rgb(33, 33, 33)" stroke="none" stroke-width="1px">80</text><text x="139" y="0" dx="0em" dy="0.95em" style="text-anchor: middle; visibility: hidden; font-family: Roboto, sans-serif; font-size: 12px; font-weight: 200;" fill="rgb(33, 33, 33)" stroke="none" stroke-width="1px">100</text><text x="162.16666666666669" y="0" dx="0em" dy="0.95em" style="text-anchor: middle; visibility: inherit; font-family: Roboto, sans-serif; font-size: 12px; font-weight: 200;" fill="rgb(33, 33, 33)" stroke="none" stroke-width="1px">120</text><text x="185.33333333333331" y="0" dx="0em" dy="0.95em" style="text-anchor: middle; visibility: hidden; font-family: Roboto, sans-serif; font-size: 12px; font-weight: 200;" fill="rgb(33, 33, 33)" stroke="none" stroke-width="1px">140</text><text x="208.5" y="0" dx="0em" dy="0.95em" style="text-anchor: middle; visibility: inherit; font-family: Roboto, sans-serif; font-size: 12px; font-weight: 200;" fill="rgb(33, 33, 33)" stroke="none" stroke-width="1px">160</text><text x="231.66666666666669" y="0" dx="0em" dy="0.95em" style="text-anchor: middle; visibility: hidden; font-family: Roboto, sans-serif; font-size: 12px; font-weight: 200;" fill="rgb(33, 33, 33)" stroke="none" stroke-width="1px">180</text><text x="254.83333333333331" y="0" dx="0em" dy="0.95em" style="text-anchor: middle; visibility: inherit; font-family: Roboto, sans-serif; font-size: 12px; font-weight: 200;" fill="rgb(33, 33, 33)" stroke="none" stroke-width="1px">200</text><text x="278" y="0" dx="0em" dy="0.95em" style="text-anchor: middle; visibility: hidden; font-family: Roboto, sans-serif; font-size: 12px; font-weight: 200;" fill="rgb(33, 33, 33)" stroke="none" stroke-width="1px">220</text></g><line x1="0" y1="0" x2="278" y2="0" fill="rgb(0, 0, 0)" stroke="rgb(204, 204, 204)" stroke-width="1px"></line></g></g></g></g></svg>