<svg viewBox="0 0 318 200" xmlns="http://www.w3.org/2000/svg"><g><g><g><g><g><line x1="41.171875" y1="177" x2="36.171875" y2="177" style="visibility: inherit;" fill="rgb(0, 0, 0)" stroke="rgb(204, 204, 204)" stroke-width="1px"></line><line x1="41.171875" y1="160.9090909090909" x2="36.171875" y2="160.9090909090909" style="visibility: inherit;" fill="rgb(0, 0, 0)" stroke="rgb(204, 204, 204)" stroke-width="1px"></line><line x1="41.171875" y1="144.8181818181818" x2="36.171875" y2="144.8181818181818" style="visibility: inherit;" fill="rgb(0, 0, 0)" stroke="rgb(204, 204, 204)" stroke-width="1px"></line><line x1="41.171875" y1="128.72727272727272" x2="36.171875" y2="128.72727272727272" style="visibility: inherit;" fill="rgb(0, 0, 0)" stroke="rgb(204, 204, 204)" stroke-width="1px"></line><line x1="41.171875" y1="112.63636363636364" x2="36.171875" y2="112.63636363636364" style="visibility: inherit;" fill="rgb(0, 0, 0)" stroke="rgb(204, 204, 204)" stroke-width="1px"></line><line x1="41.171875" y1="96.54545454545453" x2="36.171875" y2="96.54545454545453" style="visibility: inherit;" fill="rgb(0, 0, 0)" stroke="rgb(204, 204, 204)" stroke-width="1px"></line><line x1="41.171875" y1="80.45454545454547" x2="36.171875" y2="80.45454545454547" style="visibility: inherit;" fill="rgb(0, 0, 0)" stroke="rgb(204, 204, 204)" stroke-width="1px"></line><line x1="41.171875" y1="64.36363636363636" x2="36.171875" y2="64.36363636363636" style="visibility: inherit;" fill="rgb(0, 0, 0)" stroke="rgb(204, 204, 204)" stroke-width="1px"></line><line x1="41.171875" y1="48.272727272727266" x2="36.171875" y2="48.272727272727266" style="visibility: inherit;" fill="rgb(0, 0, 0)" stroke="rgb(204, 204, 204)" stroke-width="1px"></line><line x1="41.171875" y1="32.18181818181817" x2="36.171875" y2="32.18181818181817" style="visibility: inherit;" fill="rgb(0, 0, 0)" stroke="rgb(204, 204, 204)" stroke-width="1px"></line><line x1="41.171875" y1="16.090909090909097" x2="36.171875" y2="16.090909090909097" style="visibility: inherit;" fill="rgb(0, 0, 0)" stroke="rgb(204, 204, 204)" stroke-width="1px"></line><line x1="41.171875" y1="0" x2="36.171875" y2="0" style="visibility: inherit;" fill="rgb(0, 0, 0)" stroke="rgb(204, 204, 204)" stroke-width="1px"></line></g><g transform="translate(31.171875, 0)"><text x="0" y="177" dx="0em" dy="0.3em" style="text-anchor: end; visibility: hidden; font-family: Roboto, sans-serif; font-size: 12px; font-weight: 200;" fill="rgb(33, 33, 33)" stroke="none" stroke-width="1px">0.5</text><text x="0" y="160.9090909090909" dx="0em" dy="0.3em" style="text-anchor: end; visibility: inherit; font-family: Roboto, sans-serif; font-size: 12px; font-weight: 200;" fill="rgb(33, 33, 33)" stroke="none" stroke-width="1px">1</text><text x="0" y="144.8181818181818" dx="0em" dy="0.3em" style="text-anchor: end; visibility: hidden; font-family: Roboto, sans-serif; font-size: 12px; font-weight: 200;" fill="rgb(33, 33, 33)" stroke="none" stroke-width="1px">1.5</text><text x="0" y="128.72727272727272" dx="0em" dy="0.3em" style="text-anchor: end; visibility: inherit; font-family: Roboto, sans-serif; font-size: 12px; font-weight: 200;" fill="rgb(33, 33, 33)" stroke="none" stroke-width="1px">2</text><text x="0" y="112.63636363636364" dx="0em" dy="0.3em" style="text-anchor: end; visibility: hidden; font-family: Roboto, sans-serif; font-size: 12px; font-weight: 200;" fill="rgb(33, 33, 33)" stroke="none" stroke-width="1px">2.5</text><text x="0" y="96.54545454545453" dx="0em" dy="0.3em" style="text-anchor: end; visibility: inherit; font-family: Roboto, sans-serif; font-size: 12px; font-weight: 200;" fill="rgb(33, 33, 33)" stroke="none" stroke-width="1px">3</text><text x="0" y="80.45454545454547" dx="0em" dy="0.3em" style="text-anchor: end; visibility: hidden; font-family: Roboto, sans-serif; font-size: 12px; font-weight: 200;" fill="rgb(33, 33, 33)" stroke="none" stroke-width="1px">3.5</text><text x="0" y="64.36363636363636" dx="0em" dy="0.3em" style="text-anchor: end; visibility: inherit; font-family: Roboto, sans-serif; font-size: 12px; font-weight: 200;" fill="rgb(33, 33, 33)" stroke="none" stroke-width="1px">4</text><text x="0" y="48.272727272727266" dx="0em" dy="0.3em" style="text-anchor: end; visibility: hidden; font-family: Roboto, sans-serif; font-size: 12px; font-weight: 200;" fill="rgb(33, 33, 33)" stroke="none" stroke-width="1px">4.5</text><text x="0" y="32.18181818181817" dx="0em" dy="0.3em" style="text-anchor: end; visibility: inherit; font-family: Roboto, sans-serif; font-size: 12px; font-weight: 200;" fill="rgb(33, 33, 33)" stroke="none" stroke-width="1px">5</text><text x="0" y="16.090909090909097" dx="0em" dy="0.3em" style="text-anchor: end; visibility: hidden; font-family: Roboto, sans-serif; font-size: 12px; font-weight: 200;" fill="rgb(33, 33, 33)" stroke="none" stroke-width="1px">5.5</text><text x="0" y="0" dx="0em" dy="0.3em" style="text-anchor: end; visibility: hidden; font-family: Roboto, sans-serif; font-size: 12px; font-weight: 200;" fill="rgb(33, 33, 33)" stroke="none" stroke-width="1px">6</text></g><line x1="41.171875" y1="0" x2="41.171875" y2="177" fill="rgb(0, 0, 0)" stroke="rgb(204, 204, 204)" stroke-width="1px"></line></g></g><g transform="translate(41, 0)" clip-path="url(#clip_0)"><clipPath id="clip_0"><rect width="276" height="177"></rect></clipPath><g><g><g><line x1="0" y1="0" x2="0" y2="177" fill="rgb(0, 0, 0)" stroke="rgb(66, 66, 66)" stroke-width="1px" opacity="0.25"></line><line x1="23.069010416666664" y1="0" x2="23.069010416666664" y2="177" fill="rgb(0, 0, 0)" stroke="rgb(66, 66, 66)" stroke-width="1px" opacity="0.25"></line><line x1="46.13802083333333" y1="0" x2="46.13802083333333" y2="177" fill="rgb(0, 0, 0)" stroke="rgb(66, 66, 66)" stroke-width="1px" opacity="0.25"></line><line x1="69.20703125" y1="0" x2="69.20703125" y2="177" fill="rgb(0, 0, 0)" stroke="rgb(66, 66, 66)" stroke-width="1px" opacity="0.25"></line><line x1="92.27604166666666" y1="0" x2="92.27604166666666" y2="177" fill="rgb(0, 0, 0)" stroke="rgb(66, 66, 66)" stroke-width="1px" opacity="0.25"></line><line x1="115.34505208333334" y1="0" x2="115.34505208333334" y2="177" fill="rgb(0, 0, 0)" stroke="rgb(66, 66, 66)" stroke-width="1px" opacity="0.25"></line><line x1="138.4140625" y1="0" x2="138.4140625" y2="177" fill="rgb(0, 0, 0)" stroke="rgb(66, 66, 66)" stroke-width="1px" opacity="0.25"></line><line x1="161.48307291666669" y1="0" x2="161.48307291666669" y2="177" fill="rgb(0, 0, 0)" stroke="rgb(66, 66, 66)" stroke-width="1px" opacity="0.25"></line><line x1="184.55208333333331" y1="0" x2="184.55208333333331" y2="177" fill="rgb(0, 0, 0)" stroke="rgb(66, 66, 66)" stroke-width="1px" opacity="0.25"></line><line x1="207.62109375" y1="0" x2="207.62109375" y2="177" fill="rgb(0, 0, 0)" stroke="rgb(66, 66, 66)" stroke-width="1px" opacity="0.25"></line><line x1="230.69010416666669" y1="0" x2="230.69010416666669" y2="177" fill="rgb(0, 0, 0)" stroke="rgb(66, 66, 66)" stroke-width="1px" opacity="0.25"></line><line x1="253.75911458333331" y1="0" x2="253.75911458333331" y2="177" fill="rgb(0, 0, 0)" stroke="rgb(66, 66, 66)" stroke-width="1px" opacity="0.25"></line><line x1="276.828125" y1="0" x2="276.828125" y2="177" fill="rgb(0, 0, 0)" stroke="rgb(66, 66, 66)" stroke-width="1px" opacity="0.25"></line></g><g><line x1="0" y1="177" x2="276.828125" y2="177" fill="rgb(0, 0, 0)" stroke="rgb(66, 66, 66)" stroke-width="1px" opacity="0.25"></line><line x1="0" y1="160.9090909090909" x2="276.828125" y2="160.9090909090909" fill="rgb(0, 0, 0)" stroke="rgb(66, 66, 66)" stroke-width="1px" opacity="0.25"></line><line x1="0" y1="144.8181818181818" x2="276.828125" y2="144.8181818181818" fill="rgb(0, 0, 0)" stroke="rgb(66, 66, 66)" stroke-width="1px" opacity="0.25"></line><line x1="0" y1="128.72727272727272" x2="276.828125" y2="128.72727272727272" fill="rgb(0, 0, 0)" stroke="rgb(66, 66, 66)" stroke-width="1px" opacity="0.25"></line><line x1="0" y1="112.63636363636364" x2="276.828125" y2="112.63636363636364" fill="rgb(0, 0, 0)" stroke="rgb(66, 66, 66)" stroke-width="1px" opacity="0.25"></line><line x1="0" y1="96.54545454545453" x2="276.828125" y2="96.54545454545453" fill="rgb(0, 0, 0)" stroke="rgb(66, 66, 66)" stroke-width="1px" opacity="0.25"></line><line x1="0" y1="80.45454545454547" x2="276.828125" y2="80.45454545454547" fill="rgb(0, 0, 0)" stroke="rgb(66, 66, 66)" stroke-width="1px" opacity="0.25"></line><line x1="0" y1="64.36363636363636" x2="276.828125" y2="64.36363636363636" fill="rgb(0, 0, 0)" stroke="rgb(66, 66, 66)" stroke-width="1px" opacity="0.25"></line><line x1="0" y1="48.272727272727266" x2="276.828125" y2="48.272727272727266" fill="rgb(0, 0, 0)" stroke="rgb(66, 66, 66)" stroke-width="1px" opacity="0.25"></line><line x1="0" y1="32.18181818181817" x2="276.828125" y2="32.18181818181817" fill="rgb(0, 0, 0)" stroke="rgb(66, 66, 66)" stroke-width="1px" opacity="0.25"></line><line x1="0" y1="16.090909090909097" x2="276.828125" y2="16.090909090909097" fill="rgb(0, 0, 0)" stroke="rgb(66, 66, 66)" stroke-width="1px" opacity="0.25"></line><line x1="0" y1="0" x2="276.828125" y2="0" fill="rgb(0, 0, 0)" stroke="rgb(66, 66, 66)" stroke-width="1px" opacity="0.25"></line></g></g></g><g><g><line x1="0" y1="193.09090909090907" x2="276.828125" y2="193.09090909090907" fill="rgb(0, 0, 0)" stroke="rgb(153, 153, 153)" stroke-width="1.5px"></line></g></g><g><g><line x1="23.069010416666664" y1="0" x2="23.069010416666664" y2="177" fill="rgb(0, 0, 0)" stroke="rgb(153, 153, 153)" stroke-width="1.5px"></line></g></g><g><g><g><g><g><path stroke="rgb(51, 187, 238)" stroke-width="2px" d="M27.6828125,-131.0165431282737L28.836263020833336,52.74193148179487L29.989713541666667,45.0258371179754L31.143164062500002,44.73428821563721L32.29661458333334,58.239590211348094L33.45006510416667,63.829506007107824L34.603515625,40.554637995633215L35.75696614583334,26.392441749572754L36.91041666666666,36.33912537314676L38.0638671875,15.624513712796304L39.21731770833333,73.3090806874362L40.37076822916667,38.57632853768088L41.524218749999996,29.537023544311523L42.677669270833334,47.55098299546675L43.831119791666666,55.84854854236949L44.984570312500004,62.985181981867L46.13802083333333,62.71674338254061L47.29147135416667,112.27042748711325L48.444921875,93.48876402594827L49.59837239583334,77.63085313276812L50.75182291666666,83.3341260389848L51.9052734375,129.6945179375735L53.05872395833334,149.63786159862173L54.21217447916666,121.68088609522039L55.365625,127.83947493813254L56.51907552083333,137.26747343756935L57.67252604166667,147.6055437001315L58.825976562499996,85.91728552904996L59.979427083333334,80.03882854635064L61.132877604166666,152.00054864449933L62.286328125000004,124.92275060306896L63.43977864583333,111.79840031537144L64.59322916666667,134.55058186704463L65.74667968749999,126.98466227271341L66.90013020833334,138.4119053103707L68.05358072916667,118.11277653954245L69.20703125,123.39519179951061L70.36048177083333,136.05367996475914L71.51393229166668,123.06902347911488L72.66738281250001,140.37216463955966L73.82083333333333,123.8980173631148L74.97428385416666,138.04263919050044L76.127734375,141.28608811985362L77.28118489583333,121.60672903060913L78.43463541666667,152.16204071044922L79.5880859375,131.3636235107075L80.74153645833334,142.87183317271146L81.89498697916667,138.96022640575063L83.04843749999999,142.2274493304166L84.20188802083332,142.93171509829435L85.35533854166667,144.36231344396418L86.5087890625,135.5064215443351L87.66223958333333,148.25259765711698L88.81569010416668,142.69654935056514L89.96914062500001,138.64077173579824L91.12259114583333,147.89964762600985L92.27604166666666,142.06383575092661L93.4294921875,152.2109813039953L94.58294270833333,146.58634634451434L95.73639322916667,155.45760291272944L96.88984375,142.69868620959195L98.04329427083334,160.29510263963178L99.19674479166667,144.15082961862737L100.35019531249999,164.82731733538887L101.50364583333332,139.29355339570478L102.65709635416667,165.91634241017428L103.810546875,138.84071575511587L104.96399739583333,166.92973725362256L106.11744791666668,141.19348961656743L107.27089843750001,161.3469091545452L108.42434895833333,151.92798367413607L109.57779947916666,154.57261334766042L110.73125,156.20886807008222L111.88470052083333,156.05288503386757L113.03815104166667,151.6318886713548L114.1916015625,158.1001264182004L115.34505208333334,150.9465285431255L116.49850260416667,163.06234467029572L117.65195312499999,153.3635884848508L118.80540364583332,157.7884365645322L119.95885416666667,152.38981760631907L121.1123046875,159.82224297523499L122.26575520833333,158.0858359336853L123.41920572916668,158.3581569411538L124.57265625000001,155.00519878214055L125.72610677083333,158.70656470818952L126.87955729166666,161.14993448690936L128.03300781250002,157.75388620116493L129.18645833333335,159.99055994640696L130.33990885416665,155.64198660850525L131.49335937499998,160.7558316967704L132.64680989583334,162.11271224238655L133.80026041666667,158.2160922614011L134.9537109375,153.54648750478572L136.10716145833334,167.5646299123764L137.26061197916667,153.25533758510244L138.4140625,160.21290837634695L139.56751302083333,163.45813930034637L140.72096354166666,159.06610946221784L141.8744140625,161.16377995230934L143.02786458333335,157.84806912595576L144.18131510416669,164.59023340181872L145.33476562500002,159.76533807407725L146.48821614583335,163.92139460823753L147.64166666666665,164.4098817326806L148.79511718749998,156.32351420142433L149.94856770833331,164.6773286299272L151.10201822916665,163.0543535080823L152.25546875,159.5890030860901L153.40891927083334,169.0595642111518L154.56236979166667,154.9329714124853L155.7158203125,171.08411345698616L156.86927083333333,160.50903023372996L158.02272135416666,164.7034830938686L159.176171875,162.57728534395045L160.32962239583335,161.2614405480298L161.48307291666669,163.66132697192106L162.63652343750002,159.08417110009626L163.78997395833335,170.21457487886602L164.94342447916665,156.66671984845942L166.09687499999998,172.25754829970273L167.25032552083331,157.33163978836754L168.40377604166665,172.8926116769964L169.5572265625,155.6847659891302L170.71067708333334,169.77549638531426L171.86412760416667,164.37379682064056L173.017578125,164.8775431134484L174.17102864583333,165.48625253547323L175.32447916666666,164.32797327908602L176.4779296875,169.02464747428894L177.63138020833335,163.88020540367472L178.78483072916669,168.75308990478516L179.93828125000002,160.59445088559931L181.09173177083335,166.12040861086413L182.24518229166665,158.79127179492605L183.39863281249998,170.35442597215825L184.55208333333331,161.3861379731785L185.70553385416665,170.10230346159503L186.858984375,155.99922186678106L188.01243489583334,176.1206978559494L189.16588541666667,164.486388574947L190.3193359375,161.91178035736084L191.47278645833333,165.44661514325574L192.62623697916666,172.62013913284648L193.7796875,156.5946497700431L194.93313802083335,177.4438250444152L196.08658854166669,151.13993922146884L197.24003906250002,178.5813936482776L198.39348958333335,157.14310130206022L199.54694010416665,165.62621104717255L200.70039062499998,161.68244397640228L201.85384114583331,165.698906454173L203.00729166666665,163.2247497927059L204.1607421875,168.10489654541016L205.31419270833334,166.50579516454175L206.46764322916667,162.4670203490691L207.62109375,164.80172681808472L208.77454427083333,164.50019375844434L209.92799479166666,164.4336250370199L211.0814453125,174.70378576625478L212.23489583333335,157.7253781231967L213.38834635416669,179.55219325694173L214.54179687500002,150.42872578447515L215.69524739583335,172.9380170540376L216.84869791666665,166.37330415032127L218.00214843749998,164.0665629126809L219.15559895833331,164.5445191968571L220.30904947916665,170.68099711158058L221.4625,161.27684166214684L222.61595052083334,172.48209880698812L223.76940104166667,152.7028233354742L224.9228515625,174.9437987696041L226.07630208333333,162.50840904495934L227.22975260416666,178.86621355468577L228.383203125,153.8953940001401L229.53665364583335,179.24423619292L230.69010416666669,150.9285474690524L231.84355468750002,175.5240499864925L232.99700520833335,161.35565608197993L234.15045572916665,179.55284544012764L235.30390624999998,148.2658254666762L236.45735677083331,177.1611611788923L237.61080729166665,160.2664986523715L238.7642578125,173.42391654578122L239.91770833333334,162.3557195338336L241.07115885416667,178.97241007739848L242.224609375,143.53546792810613L243.37805989583333,168.47830594669688L244.53151041666666,171.308188254183L245.6849609375,170.73607206344604L246.83841145833335,161.93731141090393L247.99186197916669,175.23670191114599L249.14531250000002,154.5841262990778L250.29876302083335,180.37625068967992L251.45221354166665,155.46360683441162L252.60566406249998,180.47347969358617" style="fill: none;" fill="none"></path></g></g></g></g></g></g><g transform="translate(41, 177)" clip-path="url(#clip_1)"><clipPath id="clip_1"><rect width="276" height="23"></rect></clipPath><g><g><line x1="0" y1="0" x2="0" y2="5" style="visibility: inherit;" fill="rgb(0, 0, 0)" stroke="rgb(204, 204, 204)" stroke-width="1px"></line><line x1="23.069010416666664" y1="0" x2="23.069010416666664" y2="5" style="visibility: inherit;" fill="rgb(0, 0, 0)" stroke="rgb(204, 204, 204)" stroke-width="1px"></line><line x1="46.13802083333333" y1="0" x2="46.13802083333333" y2="5" style="visibility: inherit;" fill="rgb(0, 0, 0)" stroke="rgb(204, 204, 204)" stroke-width="1px"></line><line x1="69.20703125" y1="0" x2="69.20703125" y2="5" style="visibility: inherit;" fill="rgb(0, 0, 0)" stroke="rgb(204, 204, 204)" stroke-width="1px"></line><line x1="92.27604166666666" y1="0" x2="92.27604166666666" y2="5" style="visibility: inherit;" fill="rgb(0, 0, 0)" stroke="rgb(204, 204, 204)" stroke-width="1px"></line><line x1="115.34505208333334" y1="0" x2="115.34505208333334" y2="5" style="visibility: inherit;" fill="rgb(0, 0, 0)" stroke="rgb(204, 204, 204)" stroke-width="1px"></line><line x1="138.4140625" y1="0" x2="138.4140625" y2="5" style="visibility: inherit;" fill="rgb(0, 0, 0)" stroke="rgb(204, 204, 204)" stroke-width="1px"></line><line x1="161.48307291666669" y1="0" x2="161.48307291666669" y2="5" style="visibility: inherit;" fill="rgb(0, 0, 0)" stroke="rgb(204, 204, 204)" stroke-width="1px"></line><line x1="184.55208333333331" y1="0" x2="184.55208333333331" y2="5" style="visibility: inherit;" fill="rgb(0, 0, 0)" stroke="rgb(204, 204, 204)" stroke-width="1px"></line><line x1="207.62109375" y1="0" x2="207.62109375" y2="5" style="visibility: inherit;" fill="rgb(0, 0, 0)" stroke="rgb(204, 204, 204)" stroke-width="1px"></line><line x1="230.69010416666669" y1="0" x2="230.69010416666669" y2="5" style="visibility: inherit;" fill="rgb(0, 0, 0)" stroke="rgb(204, 204, 204)" stroke-width="1px"></line><line x1="253.75911458333331" y1="0" x2="253.75911458333331" y2="5" style="visibility: inherit;" fill="rgb(0, 0, 0)" stroke="rgb(204, 204, 204)" stroke-width="1px"></line><line x1="276.828125" y1="0" x2="276.828125" y2="5" style="visibility: inherit;" fill="rgb(0, 0, 0)" stroke="rgb(204, 204, 204)" stroke-width="1px"></line></g><g transform="translate(0, 8)"><text x="0" y="0" dx="0em" dy="0.95em" style="text-anchor: middle; visibility: hidden; font-family: Roboto, sans-serif; font-size: 12px; font-weight: 200;" fill="rgb(33, 33, 33)" stroke="none" stroke-width="1px">-20</text><text x="23.069010416666664" y="0" dx="0em" dy="0.95em" style="text-anchor: middle; visibility: inherit; font-family: Roboto, sans-serif; font-size: 12px; font-weight: 200;" fill="rgb(33, 33, 33)" stroke="none" stroke-width="1px">0</text><text x="46.13802083333333" y="0" dx="0em" dy="0.95em" style="text-anchor: middle; visibility: hidden; font-family: Roboto, sans-serif; font-size: 12px; font-weight: 200;" fill="rgb(33, 33, 33)" stroke="none" stroke-width="1px">20</text><text x="69.20703125" y="0" dx="0em" dy="0.95em" style="text-anchor: middle; visibility: inherit; font-family: Roboto, sans-serif; font-size: 12px; font-weight: 200;" fill="rgb(33, 33, 33)" stroke="none" stroke-width="1px">40</text><text x="92.27604166666666" y="0" dx="0em" dy="0.95em" style="text-anchor: middle; visibility: hidden; font-family: Roboto, sans-serif; font-size: 12px; font-weight: 200;" fill="rgb(33, 33, 33)" stroke="none" stroke-width="1px">60</text><text x="115.34505208333334" y="0" dx="0em" dy="0.95em" style="text-anchor: middle; visibility: inherit; font-family: Roboto, sans-serif; font-size: 12px; font-weight: 200;" fill="rgb(33, 33, 33)" stroke="none" stroke-width="1px">80</text><text x="138.4140625" y="0" dx="0em" dy="0.95em" style="text-anchor: middle; visibility: hidden; font-family: Roboto, sans-serif; font-size: 12px; font-weight: 200;" fill="rgb(33, 33, 33)" stroke="none" stroke-width="1px">100</text><text x="161.48307291666669" y="0" dx="0em" dy="0.95em" style="text-anchor: middle; visibility: inherit; font-family: Roboto, sans-serif; font-size: 12px; font-weight: 200;" fill="rgb(33, 33, 33)" stroke="none" stroke-width="1px">120</text><text x="184.55208333333331" y="0" dx="0em" dy="0.95em" style="text-anchor: middle; visibility: hidden; font-family: Roboto, sans-serif; font-size: 12px; font-weight: 200;" fill="rgb(33, 33, 33)" stroke="none" stroke-width="1px">140</text><text x="207.62109375" y="0" dx="0em" dy="0.95em" style="text-anchor: middle; visibility: inherit; font-family: Roboto, sans-serif; font-size: 12px; font-weight: 200;" fill="rgb(33, 33, 33)" stroke="none" stroke-width="1px">160</text><text x="230.69010416666669" y="0" dx="0em" dy="0.95em" style="text-anchor: middle; visibility: hidden; font-family: Roboto, sans-serif; font-size: 12px; font-weight: 200;" fill="rgb(33, 33, 33)" stroke="none" stroke-width="1px">180</text><text x="253.75911458333331" y="0" dx="0em" dy="0.95em" style="text-anchor: middle; visibility: inherit; font-family: Roboto, sans-serif; font-size: 12px; font-weight: 200;" fill="rgb(33, 33, 33)" stroke="none" stroke-width="1px">200</text><text x="276.828125" y="0" dx="0em" dy="0.95em" style="text-anchor: middle; visibility: hidden; font-family: Roboto, sans-serif; font-size: 12px; font-weight: 200;" fill="rgb(33, 33, 33)" stroke="none" stroke-width="1px">220</text></g><line x1="0" y1="0" x2="276.828125" y2="0" fill="rgb(0, 0, 0)" stroke="rgb(204, 204, 204)" stroke-width="1px"></line></g></g></g></g></svg>