<svg viewBox="0 0 318 200" xmlns="http://www.w3.org/2000/svg"><g><g><g><g><g><line x1="41.171875" y1="177" x2="36.171875" y2="177" style="visibility: inherit;" fill="rgb(0, 0, 0)" stroke="rgb(204, 204, 204)" stroke-width="1px"></line><line x1="41.171875" y1="160.9090909090909" x2="36.171875" y2="160.9090909090909" style="visibility: inherit;" fill="rgb(0, 0, 0)" stroke="rgb(204, 204, 204)" stroke-width="1px"></line><line x1="41.171875" y1="144.8181818181818" x2="36.171875" y2="144.8181818181818" style="visibility: inherit;" fill="rgb(0, 0, 0)" stroke="rgb(204, 204, 204)" stroke-width="1px"></line><line x1="41.171875" y1="128.72727272727272" x2="36.171875" y2="128.72727272727272" style="visibility: inherit;" fill="rgb(0, 0, 0)" stroke="rgb(204, 204, 204)" stroke-width="1px"></line><line x1="41.171875" y1="112.63636363636364" x2="36.171875" y2="112.63636363636364" style="visibility: inherit;" fill="rgb(0, 0, 0)" stroke="rgb(204, 204, 204)" stroke-width="1px"></line><line x1="41.171875" y1="96.54545454545453" x2="36.171875" y2="96.54545454545453" style="visibility: inherit;" fill="rgb(0, 0, 0)" stroke="rgb(204, 204, 204)" stroke-width="1px"></line><line x1="41.171875" y1="80.45454545454547" x2="36.171875" y2="80.45454545454547" style="visibility: inherit;" fill="rgb(0, 0, 0)" stroke="rgb(204, 204, 204)" stroke-width="1px"></line><line x1="41.171875" y1="64.36363636363636" x2="36.171875" y2="64.36363636363636" style="visibility: inherit;" fill="rgb(0, 0, 0)" stroke="rgb(204, 204, 204)" stroke-width="1px"></line><line x1="41.171875" y1="48.272727272727266" x2="36.171875" y2="48.272727272727266" style="visibility: inherit;" fill="rgb(0, 0, 0)" stroke="rgb(204, 204, 204)" stroke-width="1px"></line><line x1="41.171875" y1="32.18181818181817" x2="36.171875" y2="32.18181818181817" style="visibility: inherit;" fill="rgb(0, 0, 0)" stroke="rgb(204, 204, 204)" stroke-width="1px"></line><line x1="41.171875" y1="16.090909090909097" x2="36.171875" y2="16.090909090909097" style="visibility: inherit;" fill="rgb(0, 0, 0)" stroke="rgb(204, 204, 204)" stroke-width="1px"></line><line x1="41.171875" y1="0" x2="36.171875" y2="0" style="visibility: inherit;" fill="rgb(0, 0, 0)" stroke="rgb(204, 204, 204)" stroke-width="1px"></line></g><g transform="translate(31.171875, 0)"><text x="0" y="177" dx="0em" dy="0.3em" style="text-anchor: end; visibility: hidden; font-family: Roboto, sans-serif; font-size: 12px; font-weight: 200;" fill="rgb(33, 33, 33)" stroke="none" stroke-width="1px">-10</text><text x="0" y="160.9090909090909" dx="0em" dy="0.3em" style="text-anchor: end; visibility: inherit; font-family: Roboto, sans-serif; font-size: 12px; font-weight: 200;" fill="rgb(33, 33, 33)" stroke="none" stroke-width="1px">0</text><text x="0" y="144.8181818181818" dx="0em" dy="0.3em" style="text-anchor: end; visibility: hidden; font-family: Roboto, sans-serif; font-size: 12px; font-weight: 200;" fill="rgb(33, 33, 33)" stroke="none" stroke-width="1px">10</text><text x="0" y="128.72727272727272" dx="0em" dy="0.3em" style="text-anchor: end; visibility: inherit; font-family: Roboto, sans-serif; font-size: 12px; font-weight: 200;" fill="rgb(33, 33, 33)" stroke="none" stroke-width="1px">20</text><text x="0" y="112.63636363636364" dx="0em" dy="0.3em" style="text-anchor: end; visibility: hidden; font-family: Roboto, sans-serif; font-size: 12px; font-weight: 200;" fill="rgb(33, 33, 33)" stroke="none" stroke-width="1px">30</text><text x="0" y="96.54545454545453" dx="0em" dy="0.3em" style="text-anchor: end; visibility: inherit; font-family: Roboto, sans-serif; font-size: 12px; font-weight: 200;" fill="rgb(33, 33, 33)" stroke="none" stroke-width="1px">40</text><text x="0" y="80.45454545454547" dx="0em" dy="0.3em" style="text-anchor: end; visibility: hidden; font-family: Roboto, sans-serif; font-size: 12px; font-weight: 200;" fill="rgb(33, 33, 33)" stroke="none" stroke-width="1px">50</text><text x="0" y="64.36363636363636" dx="0em" dy="0.3em" style="text-anchor: end; visibility: inherit; font-family: Roboto, sans-serif; font-size: 12px; font-weight: 200;" fill="rgb(33, 33, 33)" stroke="none" stroke-width="1px">60</text><text x="0" y="48.272727272727266" dx="0em" dy="0.3em" style="text-anchor: end; visibility: hidden; font-family: Roboto, sans-serif; font-size: 12px; font-weight: 200;" fill="rgb(33, 33, 33)" stroke="none" stroke-width="1px">70</text><text x="0" y="32.18181818181817" dx="0em" dy="0.3em" style="text-anchor: end; visibility: inherit; font-family: Roboto, sans-serif; font-size: 12px; font-weight: 200;" fill="rgb(33, 33, 33)" stroke="none" stroke-width="1px">80</text><text x="0" y="16.090909090909097" dx="0em" dy="0.3em" style="text-anchor: end; visibility: hidden; font-family: Roboto, sans-serif; font-size: 12px; font-weight: 200;" fill="rgb(33, 33, 33)" stroke="none" stroke-width="1px">90</text><text x="0" y="0" dx="0em" dy="0.3em" style="text-anchor: end; visibility: hidden; font-family: Roboto, sans-serif; font-size: 12px; font-weight: 200;" fill="rgb(33, 33, 33)" stroke="none" stroke-width="1px">100</text></g><line x1="41.171875" y1="0" x2="41.171875" y2="177" fill="rgb(0, 0, 0)" stroke="rgb(204, 204, 204)" stroke-width="1px"></line></g></g><g transform="translate(41, 0)" clip-path="url(#clip_0)"><clipPath id="clip_0"><rect width="276" height="177"></rect></clipPath><g><g><g><line x1="0" y1="0" x2="0" y2="177" fill="rgb(0, 0, 0)" stroke="rgb(66, 66, 66)" stroke-width="1px" opacity="0.25"></line><line x1="23.069010416666664" y1="0" x2="23.069010416666664" y2="177" fill="rgb(0, 0, 0)" stroke="rgb(66, 66, 66)" stroke-width="1px" opacity="0.25"></line><line x1="46.13802083333333" y1="0" x2="46.13802083333333" y2="177" fill="rgb(0, 0, 0)" stroke="rgb(66, 66, 66)" stroke-width="1px" opacity="0.25"></line><line x1="69.20703125" y1="0" x2="69.20703125" y2="177" fill="rgb(0, 0, 0)" stroke="rgb(66, 66, 66)" stroke-width="1px" opacity="0.25"></line><line x1="92.27604166666666" y1="0" x2="92.27604166666666" y2="177" fill="rgb(0, 0, 0)" stroke="rgb(66, 66, 66)" stroke-width="1px" opacity="0.25"></line><line x1="115.34505208333334" y1="0" x2="115.34505208333334" y2="177" fill="rgb(0, 0, 0)" stroke="rgb(66, 66, 66)" stroke-width="1px" opacity="0.25"></line><line x1="138.4140625" y1="0" x2="138.4140625" y2="177" fill="rgb(0, 0, 0)" stroke="rgb(66, 66, 66)" stroke-width="1px" opacity="0.25"></line><line x1="161.48307291666669" y1="0" x2="161.48307291666669" y2="177" fill="rgb(0, 0, 0)" stroke="rgb(66, 66, 66)" stroke-width="1px" opacity="0.25"></line><line x1="184.55208333333331" y1="0" x2="184.55208333333331" y2="177" fill="rgb(0, 0, 0)" stroke="rgb(66, 66, 66)" stroke-width="1px" opacity="0.25"></line><line x1="207.62109375" y1="0" x2="207.62109375" y2="177" fill="rgb(0, 0, 0)" stroke="rgb(66, 66, 66)" stroke-width="1px" opacity="0.25"></line><line x1="230.69010416666669" y1="0" x2="230.69010416666669" y2="177" fill="rgb(0, 0, 0)" stroke="rgb(66, 66, 66)" stroke-width="1px" opacity="0.25"></line><line x1="253.75911458333331" y1="0" x2="253.75911458333331" y2="177" fill="rgb(0, 0, 0)" stroke="rgb(66, 66, 66)" stroke-width="1px" opacity="0.25"></line><line x1="276.828125" y1="0" x2="276.828125" y2="177" fill="rgb(0, 0, 0)" stroke="rgb(66, 66, 66)" stroke-width="1px" opacity="0.25"></line></g><g><line x1="0" y1="177" x2="276.828125" y2="177" fill="rgb(0, 0, 0)" stroke="rgb(66, 66, 66)" stroke-width="1px" opacity="0.25"></line><line x1="0" y1="160.9090909090909" x2="276.828125" y2="160.9090909090909" fill="rgb(0, 0, 0)" stroke="rgb(66, 66, 66)" stroke-width="1px" opacity="0.25"></line><line x1="0" y1="144.8181818181818" x2="276.828125" y2="144.8181818181818" fill="rgb(0, 0, 0)" stroke="rgb(66, 66, 66)" stroke-width="1px" opacity="0.25"></line><line x1="0" y1="128.72727272727272" x2="276.828125" y2="128.72727272727272" fill="rgb(0, 0, 0)" stroke="rgb(66, 66, 66)" stroke-width="1px" opacity="0.25"></line><line x1="0" y1="112.63636363636364" x2="276.828125" y2="112.63636363636364" fill="rgb(0, 0, 0)" stroke="rgb(66, 66, 66)" stroke-width="1px" opacity="0.25"></line><line x1="0" y1="96.54545454545453" x2="276.828125" y2="96.54545454545453" fill="rgb(0, 0, 0)" stroke="rgb(66, 66, 66)" stroke-width="1px" opacity="0.25"></line><line x1="0" y1="80.45454545454547" x2="276.828125" y2="80.45454545454547" fill="rgb(0, 0, 0)" stroke="rgb(66, 66, 66)" stroke-width="1px" opacity="0.25"></line><line x1="0" y1="64.36363636363636" x2="276.828125" y2="64.36363636363636" fill="rgb(0, 0, 0)" stroke="rgb(66, 66, 66)" stroke-width="1px" opacity="0.25"></line><line x1="0" y1="48.272727272727266" x2="276.828125" y2="48.272727272727266" fill="rgb(0, 0, 0)" stroke="rgb(66, 66, 66)" stroke-width="1px" opacity="0.25"></line><line x1="0" y1="32.18181818181817" x2="276.828125" y2="32.18181818181817" fill="rgb(0, 0, 0)" stroke="rgb(66, 66, 66)" stroke-width="1px" opacity="0.25"></line><line x1="0" y1="16.090909090909097" x2="276.828125" y2="16.090909090909097" fill="rgb(0, 0, 0)" stroke="rgb(66, 66, 66)" stroke-width="1px" opacity="0.25"></line><line x1="0" y1="0" x2="276.828125" y2="0" fill="rgb(0, 0, 0)" stroke="rgb(66, 66, 66)" stroke-width="1px" opacity="0.25"></line></g></g></g><g><g><line x1="0" y1="160.9090909090909" x2="276.828125" y2="160.9090909090909" fill="rgb(0, 0, 0)" stroke="rgb(153, 153, 153)" stroke-width="1.5px"></line></g></g><g><g><line x1="23.069010416666664" y1="0" x2="23.069010416666664" y2="177" fill="rgb(0, 0, 0)" stroke="rgb(153, 153, 153)" stroke-width="1.5px"></line></g></g><g><g><g><g><g><path stroke="rgb(51, 187, 238)" stroke-width="2px" d="M29.989713541666667,-6.644301119717678L31.143164062500002,13.861467673561782L32.29661458333334,32.133142297918155L33.45006510416667,50.04355961192738L34.603515625,65.29014160849832L35.75696614583334,76.37333346280185L36.91041666666666,85.40056155811658L38.0638671875,90.16162157925693L39.21731770833333,99.39274822581898L40.37076822916667,99.7573631286621L41.524218749999996,103.38832012523305L42.677669270833334,107.46601493141868L43.831119791666666,111.46003079847856L44.984570312500004,114.98676431829278L46.13802083333333,117.02480454878375L47.29147135416667,124.6734094619751L48.444921875,124.84869174957275L49.59837239583334,124.37383487007834L50.75182291666666,128.23800950483843L51.9052734375,133.99025599739767L53.05872395833334,137.0447597850453L54.21217447916666,135.28504371643066L55.365625,136.3010254253041L56.51907552083333,138.2338616024364L57.67252604166667,140.64957881407304L58.825976562499996,136.74370435367933L59.979427083333334,137.5379483829845L61.132877604166666,142.77268368114125L62.286328125000004,141.66042285399004L63.43977864583333,141.20291251269254L64.59322916666667,143.28140498074617L65.74667968749999,143.03007966821843L66.90013020833334,144.59599451585248L68.05358072916667,143.75572783730246L69.20703125,144.54254772012885L70.36048177083333,145.80520198995416L71.51393229166668,145.17896495298905L72.66738281250001,146.64418118216776L73.82083333333333,145.92204712954435L74.97428385416666,147.12816095352173L76.127734375,147.73412199887363L77.28118489583333,146.35804002935237L78.43463541666667,148.9222608869726L79.5880859375,147.7134009881453L80.74153645833334,148.73545720793982L81.89498697916667,148.66052903262053L83.04843749999999,149.05813443010504L84.20188802083332,149.3184468269348L85.35533854166667,149.62182633226567L86.5087890625,149.21296348571778L87.66223958333333,150.3032388340343L88.81569010416668,150.15023742589082L89.96914062500001,150.05691308108243L91.12259114583333,150.71595569957384L92.27604166666666,150.48353602669457L93.4294921875,151.46722852967002L94.58294270833333,151.16481962637468L95.73639322916667,151.63876038031145L96.88984375,151.1452295780182L98.04329427083334,152.40791300426832L99.19674479166667,151.59576462832365L100.35019531249999,152.97753747159786L101.50364583333332,151.33041967912155L102.65709635416667,153.12775827754626L103.810546875,151.42771850499238L104.96399739583333,153.2659581964666L106.11744791666668,151.5972377950495L107.27089843750001,153.00223603248597L108.42434895833333,152.49065817052667L109.57779947916666,152.68758143078196L110.73125,152.84415910460731L111.88470052083333,152.96046715216204L113.03815104166667,152.6246733752164L114.1916015625,153.16270301992242L115.34505208333334,152.63662444027986L116.49850260416667,153.65946174534884L117.65195312499999,153.04022838852623L118.80540364583332,153.3683125929399L119.95885416666667,152.98744988874955L121.1123046875,153.52110453518955L122.26575520833333,153.49203251058404L123.41920572916668,153.59706929813734L124.57265625000001,153.32680151679298L125.72610677083333,153.6416993444616L126.87955729166666,153.86349456960505L128.03300781250002,153.72081453583456L129.18645833333335,153.86124492125077L130.33990885416665,153.678296028484L131.49335937499998,153.92849881865763L132.64680989583334,154.13594524643636L133.80026041666667,153.87169366316363L134.9537109375,153.45902436863292L136.10716145833334,154.56786238496954L137.26061197916667,153.6553583621979L138.4140625,153.84975191896612L139.56751302083333,154.3339703126387L140.72096354166666,154.0465631571683L141.8744140625,154.09361241947522L143.02786458333335,153.96733134009622L144.18131510416669,154.59850041649557L145.33476562500002,154.1764381495389L146.48821614583335,154.3832592487335L147.64166666666665,154.62043218612672L148.79511718749998,153.8684289108623L149.94856770833331,154.51720271327278L151.10201822916665,154.45998514782298L152.25546875,154.14160159284418L153.40891927083334,154.98870276754553L154.56236979166667,153.84045332128352L155.7158203125,155.0865383018147L156.86927083333333,154.52606933550402L158.02272135416666,154.49586366306653L159.176171875,154.63594839139418L160.32962239583335,154.4678688916293L161.48307291666669,154.6544634884054L162.63652343750002,154.25414462523028L163.78997395833335,155.2413604519584L164.94342447916665,154.2292588494041L166.09687499999998,155.313378739357L167.25032552083331,154.2207559152083L168.40377604166665,155.3695673899217L169.5572265625,154.23550292795355L170.71067708333334,154.98024548617278L171.86412760416667,155.0242962403731L173.017578125,155.02940820563924L174.17102864583333,155.15320331616834L175.32447916666666,155.04495932188902L176.4779296875,155.49775591330095L177.63138020833335,154.9936754725196L178.78483072916669,155.4010382977399L179.93828125000002,154.68898239352484L181.09173177083335,155.00640301921152L182.24518229166665,154.6178733262149L183.39863281249998,155.60517086765984L184.55208333333331,155.01077187928286L185.70553385416665,155.5605001557957L186.858984375,154.5113326809623L188.01243489583334,155.85051527673548L189.16588541666667,155.3541781685569L190.3193359375,154.890606360002L191.47278645833333,155.38897597789764L192.62623697916666,156.01358946236698L193.7796875,154.73485772609712L194.93313802083335,156.41465833620592L196.08658854166669,154.30161972479388L197.24003906250002,156.12005453109742L198.39348958333335,154.92632029490036L199.54694010416665,155.46709025989878L200.70039062499998,155.1632223844528L201.85384114583331,155.6176766720685L203.00729166666665,155.30568029230292L204.1607421875,155.79548060677268L205.31419270833334,155.6199370622635L206.46764322916667,155.3794487324628L207.62109375,155.51379117965698L208.77454427083333,155.48351108160887L209.92799479166666,155.59182681603866L211.0814453125,156.37549780498853L212.23489583333335,154.84668489152736L213.38834635416669,157.00261989290064L214.54179687500002,154.33189560283313L215.69524739583335,156.0555946631865L216.84869791666665,155.94926693656228L218.00214843749998,155.69800760962747L219.15559895833331,155.79607025710018L220.30904947916665,156.3074835387143L221.4625,155.4643487886949L222.61595052083334,156.43722349080173L223.76940104166667,154.24753072045067L224.9228515625,156.43829882578416L226.07630208333333,155.554570276087L227.22975260416666,156.9717539808967L228.383203125,154.99681285728107L229.53665364583335,157.08866472244262L230.69010416666669,154.61829571073704L231.84355468750002,156.73999684940685L232.99700520833335,155.80734612074767L234.15045572916665,157.24895408587022L235.30390624999998,154.54594480991364L236.45735677083331,156.646356771209L237.61080729166665,155.95614286552777L238.7642578125,156.866061557423L239.91770833333334,155.8749076951634L241.07115885416667,156.78970395001497L242.224609375,153.66073618802156L243.37805989583333,155.9115703647787L244.53151041666666,156.40816681168297L245.6849609375,156.45003275221043L246.83841145833335,155.71104513515127L247.99186197916669,156.750900201364L249.14531250000002,155.00065958716652L250.29876302083335,157.1850938428532L251.45221354166665,155.30194443355907L252.60566406249998,157.1757469068874" style="fill: none;" fill="none"></path></g></g></g></g></g><g><g opacity="0.555189"><span fill="rgb(0, 0, 0)" stroke="none" stroke-width="1px">Alt + Scroll to Zoom</span></g></g></g><g transform="translate(41, 177)" clip-path="url(#clip_1)"><clipPath id="clip_1"><rect width="276" height="23"></rect></clipPath><g><g><line x1="0" y1="0" x2="0" y2="5" style="visibility: inherit;" fill="rgb(0, 0, 0)" stroke="rgb(204, 204, 204)" stroke-width="1px"></line><line x1="23.069010416666664" y1="0" x2="23.069010416666664" y2="5" style="visibility: inherit;" fill="rgb(0, 0, 0)" stroke="rgb(204, 204, 204)" stroke-width="1px"></line><line x1="46.13802083333333" y1="0" x2="46.13802083333333" y2="5" style="visibility: inherit;" fill="rgb(0, 0, 0)" stroke="rgb(204, 204, 204)" stroke-width="1px"></line><line x1="69.20703125" y1="0" x2="69.20703125" y2="5" style="visibility: inherit;" fill="rgb(0, 0, 0)" stroke="rgb(204, 204, 204)" stroke-width="1px"></line><line x1="92.27604166666666" y1="0" x2="92.27604166666666" y2="5" style="visibility: inherit;" fill="rgb(0, 0, 0)" stroke="rgb(204, 204, 204)" stroke-width="1px"></line><line x1="115.34505208333334" y1="0" x2="115.34505208333334" y2="5" style="visibility: inherit;" fill="rgb(0, 0, 0)" stroke="rgb(204, 204, 204)" stroke-width="1px"></line><line x1="138.4140625" y1="0" x2="138.4140625" y2="5" style="visibility: inherit;" fill="rgb(0, 0, 0)" stroke="rgb(204, 204, 204)" stroke-width="1px"></line><line x1="161.48307291666669" y1="0" x2="161.48307291666669" y2="5" style="visibility: inherit;" fill="rgb(0, 0, 0)" stroke="rgb(204, 204, 204)" stroke-width="1px"></line><line x1="184.55208333333331" y1="0" x2="184.55208333333331" y2="5" style="visibility: inherit;" fill="rgb(0, 0, 0)" stroke="rgb(204, 204, 204)" stroke-width="1px"></line><line x1="207.62109375" y1="0" x2="207.62109375" y2="5" style="visibility: inherit;" fill="rgb(0, 0, 0)" stroke="rgb(204, 204, 204)" stroke-width="1px"></line><line x1="230.69010416666669" y1="0" x2="230.69010416666669" y2="5" style="visibility: inherit;" fill="rgb(0, 0, 0)" stroke="rgb(204, 204, 204)" stroke-width="1px"></line><line x1="253.75911458333331" y1="0" x2="253.75911458333331" y2="5" style="visibility: inherit;" fill="rgb(0, 0, 0)" stroke="rgb(204, 204, 204)" stroke-width="1px"></line><line x1="276.828125" y1="0" x2="276.828125" y2="5" style="visibility: inherit;" fill="rgb(0, 0, 0)" stroke="rgb(204, 204, 204)" stroke-width="1px"></line></g><g transform="translate(0, 8)"><text x="0" y="0" dx="0em" dy="0.95em" style="text-anchor: middle; visibility: hidden; font-family: Roboto, sans-serif; font-size: 12px; font-weight: 200;" fill="rgb(33, 33, 33)" stroke="none" stroke-width="1px">-20</text><text x="23.069010416666664" y="0" dx="0em" dy="0.95em" style="text-anchor: middle; visibility: inherit; font-family: Roboto, sans-serif; font-size: 12px; font-weight: 200;" fill="rgb(33, 33, 33)" stroke="none" stroke-width="1px">0</text><text x="46.13802083333333" y="0" dx="0em" dy="0.95em" style="text-anchor: middle; visibility: hidden; font-family: Roboto, sans-serif; font-size: 12px; font-weight: 200;" fill="rgb(33, 33, 33)" stroke="none" stroke-width="1px">20</text><text x="69.20703125" y="0" dx="0em" dy="0.95em" style="text-anchor: middle; visibility: inherit; font-family: Roboto, sans-serif; font-size: 12px; font-weight: 200;" fill="rgb(33, 33, 33)" stroke="none" stroke-width="1px">40</text><text x="92.27604166666666" y="0" dx="0em" dy="0.95em" style="text-anchor: middle; visibility: hidden; font-family: Roboto, sans-serif; font-size: 12px; font-weight: 200;" fill="rgb(33, 33, 33)" stroke="none" stroke-width="1px">60</text><text x="115.34505208333334" y="0" dx="0em" dy="0.95em" style="text-anchor: middle; visibility: inherit; font-family: Roboto, sans-serif; font-size: 12px; font-weight: 200;" fill="rgb(33, 33, 33)" stroke="none" stroke-width="1px">80</text><text x="138.4140625" y="0" dx="0em" dy="0.95em" style="text-anchor: middle; visibility: hidden; font-family: Roboto, sans-serif; font-size: 12px; font-weight: 200;" fill="rgb(33, 33, 33)" stroke="none" stroke-width="1px">100</text><text x="161.48307291666669" y="0" dx="0em" dy="0.95em" style="text-anchor: middle; visibility: inherit; font-family: Roboto, sans-serif; font-size: 12px; font-weight: 200;" fill="rgb(33, 33, 33)" stroke="none" stroke-width="1px">120</text><text x="184.55208333333331" y="0" dx="0em" dy="0.95em" style="text-anchor: middle; visibility: hidden; font-family: Roboto, sans-serif; font-size: 12px; font-weight: 200;" fill="rgb(33, 33, 33)" stroke="none" stroke-width="1px">140</text><text x="207.62109375" y="0" dx="0em" dy="0.95em" style="text-anchor: middle; visibility: inherit; font-family: Roboto, sans-serif; font-size: 12px; font-weight: 200;" fill="rgb(33, 33, 33)" stroke="none" stroke-width="1px">160</text><text x="230.69010416666669" y="0" dx="0em" dy="0.95em" style="text-anchor: middle; visibility: hidden; font-family: Roboto, sans-serif; font-size: 12px; font-weight: 200;" fill="rgb(33, 33, 33)" stroke="none" stroke-width="1px">180</text><text x="253.75911458333331" y="0" dx="0em" dy="0.95em" style="text-anchor: middle; visibility: inherit; font-family: Roboto, sans-serif; font-size: 12px; font-weight: 200;" fill="rgb(33, 33, 33)" stroke="none" stroke-width="1px">200</text><text x="276.828125" y="0" dx="0em" dy="0.95em" style="text-anchor: middle; visibility: hidden; font-family: Roboto, sans-serif; font-size: 12px; font-weight: 200;" fill="rgb(33, 33, 33)" stroke="none" stroke-width="1px">220</text></g><line x1="0" y1="0" x2="276.828125" y2="0" fill="rgb(0, 0, 0)" stroke="rgb(204, 204, 204)" stroke-width="1px"></line></g></g></g></g></svg>