<svg viewBox="0 0 330 200" xmlns="http://www.w3.org/2000/svg"><g><g><g><g><g><line x1="70" y1="177" x2="65" y2="177" style="visibility: inherit;" fill="rgb(0, 0, 0)" stroke="rgb(204, 204, 204)" stroke-width="1px"></line><line x1="70" y1="151.71428571428572" x2="65" y2="151.71428571428572" style="visibility: inherit;" fill="rgb(0, 0, 0)" stroke="rgb(204, 204, 204)" stroke-width="1px"></line><line x1="70" y1="126.42857142857143" x2="65" y2="126.42857142857143" style="visibility: inherit;" fill="rgb(0, 0, 0)" stroke="rgb(204, 204, 204)" stroke-width="1px"></line><line x1="70" y1="101.14285714285714" x2="65" y2="101.14285714285714" style="visibility: inherit;" fill="rgb(0, 0, 0)" stroke="rgb(204, 204, 204)" stroke-width="1px"></line><line x1="70" y1="75.85714285714286" x2="65" y2="75.85714285714286" style="visibility: inherit;" fill="rgb(0, 0, 0)" stroke="rgb(204, 204, 204)" stroke-width="1px"></line><line x1="70" y1="50.57142857142857" x2="65" y2="50.57142857142857" style="visibility: inherit;" fill="rgb(0, 0, 0)" stroke="rgb(204, 204, 204)" stroke-width="1px"></line><line x1="70" y1="25.285714285714295" x2="65" y2="25.285714285714295" style="visibility: inherit;" fill="rgb(0, 0, 0)" stroke="rgb(204, 204, 204)" stroke-width="1px"></line><line x1="70" y1="0" x2="65" y2="0" style="visibility: inherit;" fill="rgb(0, 0, 0)" stroke="rgb(204, 204, 204)" stroke-width="1px"></line></g><g transform="translate(60, 0)"><text x="0" y="177" dx="0em" dy="0.3em" style="text-anchor: end; visibility: hidden; font-family: Roboto, sans-serif; font-size: 12px; font-weight: 200;" fill="rgb(33, 33, 33)" stroke="none" stroke-width="1px">0</text><text x="0" y="151.71428571428572" dx="0em" dy="0.3em" style="text-anchor: end; visibility: inherit; font-family: Roboto, sans-serif; font-size: 12px; font-weight: 200;" fill="rgb(33, 33, 33)" stroke="none" stroke-width="1px">5e-4</text><text x="0" y="126.42857142857143" dx="0em" dy="0.3em" style="text-anchor: end; visibility: inherit; font-family: Roboto, sans-serif; font-size: 12px; font-weight: 200;" fill="rgb(33, 33, 33)" stroke="none" stroke-width="1px">1e-3</text><text x="0" y="101.14285714285714" dx="0em" dy="0.3em" style="text-anchor: end; visibility: inherit; font-family: Roboto, sans-serif; font-size: 12px; font-weight: 200;" fill="rgb(33, 33, 33)" stroke="none" stroke-width="1px">1.5e-3</text><text x="0" y="75.85714285714286" dx="0em" dy="0.3em" style="text-anchor: end; visibility: inherit; font-family: Roboto, sans-serif; font-size: 12px; font-weight: 200;" fill="rgb(33, 33, 33)" stroke="none" stroke-width="1px">2e-3</text><text x="0" y="50.57142857142857" dx="0em" dy="0.3em" style="text-anchor: end; visibility: inherit; font-family: Roboto, sans-serif; font-size: 12px; font-weight: 200;" fill="rgb(33, 33, 33)" stroke="none" stroke-width="1px">2.5e-3</text><text x="0" y="25.285714285714295" dx="0em" dy="0.3em" style="text-anchor: end; visibility: inherit; font-family: Roboto, sans-serif; font-size: 12px; font-weight: 200;" fill="rgb(33, 33, 33)" stroke="none" stroke-width="1px">3e-3</text><text x="0" y="0" dx="0em" dy="0.3em" style="text-anchor: end; visibility: hidden; font-family: Roboto, sans-serif; font-size: 12px; font-weight: 200;" fill="rgb(33, 33, 33)" stroke="none" stroke-width="1px">3.5e-3</text></g><line x1="70" y1="0" x2="70" y2="177" fill="rgb(0, 0, 0)" stroke="rgb(204, 204, 204)" stroke-width="1px"></line></g></g><g transform="translate(70, 0)" clip-path="url(#clip_0)"><clipPath id="clip_0"><rect width="260" height="177"></rect></clipPath><g><g><g><line x1="0" y1="0" x2="0" y2="177" fill="rgb(0, 0, 0)" stroke="rgb(66, 66, 66)" stroke-width="1px" opacity="0.25"></line><line x1="21.666666666666664" y1="0" x2="21.666666666666664" y2="177" fill="rgb(0, 0, 0)" stroke="rgb(66, 66, 66)" stroke-width="1px" opacity="0.25"></line><line x1="43.33333333333333" y1="0" x2="43.33333333333333" y2="177" fill="rgb(0, 0, 0)" stroke="rgb(66, 66, 66)" stroke-width="1px" opacity="0.25"></line><line x1="65" y1="0" x2="65" y2="177" fill="rgb(0, 0, 0)" stroke="rgb(66, 66, 66)" stroke-width="1px" opacity="0.25"></line><line x1="86.66666666666666" y1="0" x2="86.66666666666666" y2="177" fill="rgb(0, 0, 0)" stroke="rgb(66, 66, 66)" stroke-width="1px" opacity="0.25"></line><line x1="108.33333333333334" y1="0" x2="108.33333333333334" y2="177" fill="rgb(0, 0, 0)" stroke="rgb(66, 66, 66)" stroke-width="1px" opacity="0.25"></line><line x1="130" y1="0" x2="130" y2="177" fill="rgb(0, 0, 0)" stroke="rgb(66, 66, 66)" stroke-width="1px" opacity="0.25"></line><line x1="151.66666666666669" y1="0" x2="151.66666666666669" y2="177" fill="rgb(0, 0, 0)" stroke="rgb(66, 66, 66)" stroke-width="1px" opacity="0.25"></line><line x1="173.33333333333331" y1="0" x2="173.33333333333331" y2="177" fill="rgb(0, 0, 0)" stroke="rgb(66, 66, 66)" stroke-width="1px" opacity="0.25"></line><line x1="195" y1="0" x2="195" y2="177" fill="rgb(0, 0, 0)" stroke="rgb(66, 66, 66)" stroke-width="1px" opacity="0.25"></line><line x1="216.66666666666669" y1="0" x2="216.66666666666669" y2="177" fill="rgb(0, 0, 0)" stroke="rgb(66, 66, 66)" stroke-width="1px" opacity="0.25"></line><line x1="238.33333333333331" y1="0" x2="238.33333333333331" y2="177" fill="rgb(0, 0, 0)" stroke="rgb(66, 66, 66)" stroke-width="1px" opacity="0.25"></line><line x1="260" y1="0" x2="260" y2="177" fill="rgb(0, 0, 0)" stroke="rgb(66, 66, 66)" stroke-width="1px" opacity="0.25"></line></g><g><line x1="0" y1="177" x2="260" y2="177" fill="rgb(0, 0, 0)" stroke="rgb(66, 66, 66)" stroke-width="1px" opacity="0.25"></line><line x1="0" y1="151.71428571428572" x2="260" y2="151.71428571428572" fill="rgb(0, 0, 0)" stroke="rgb(66, 66, 66)" stroke-width="1px" opacity="0.25"></line><line x1="0" y1="126.42857142857143" x2="260" y2="126.42857142857143" fill="rgb(0, 0, 0)" stroke="rgb(66, 66, 66)" stroke-width="1px" opacity="0.25"></line><line x1="0" y1="101.14285714285714" x2="260" y2="101.14285714285714" fill="rgb(0, 0, 0)" stroke="rgb(66, 66, 66)" stroke-width="1px" opacity="0.25"></line><line x1="0" y1="75.85714285714286" x2="260" y2="75.85714285714286" fill="rgb(0, 0, 0)" stroke="rgb(66, 66, 66)" stroke-width="1px" opacity="0.25"></line><line x1="0" y1="50.57142857142857" x2="260" y2="50.57142857142857" fill="rgb(0, 0, 0)" stroke="rgb(66, 66, 66)" stroke-width="1px" opacity="0.25"></line><line x1="0" y1="25.285714285714295" x2="260" y2="25.285714285714295" fill="rgb(0, 0, 0)" stroke="rgb(66, 66, 66)" stroke-width="1px" opacity="0.25"></line><line x1="0" y1="0" x2="260" y2="0" fill="rgb(0, 0, 0)" stroke="rgb(66, 66, 66)" stroke-width="1px" opacity="0.25"></line></g></g></g><g><g><line x1="0" y1="177" x2="260" y2="177" fill="rgb(0, 0, 0)" stroke="rgb(153, 153, 153)" stroke-width="1.5px"></line></g></g><g><g><line x1="21.666666666666664" y1="0" x2="21.666666666666664" y2="177" fill="rgb(0, 0, 0)" stroke="rgb(153, 153, 153)" stroke-width="1.5px"></line></g></g><g><g><g><g><g><path stroke="rgb(238, 51, 119)" stroke-width="2px" d="M30.333333333333332,-1.1939006011400848L31.416666666666668,16.419914742133443L32.5,28.528997000839027L33.583333333333336,37.443341811852804L34.666666666666664,44.373010808868074L35.75,49.89985655141729L36.833333333333336,54.56486203787583L37.91666666666667,58.664640669311794L39,62.524182580411434L40.083333333333336,66.3682055973581L41.166666666666664,70.09510688430497L42.25,73.71286960531559L43.33333333333333,77.28654830530286L44.416666666666664,80.91829333800291L45.5,84.53397784594979L46.583333333333336,88.03824540706617L47.666666666666664,91.46614894084632L48.75,94.87778589475369L49.833333333333336,98.26076941245368L50.916666666666664,101.51448572267378L52,104.59347906602281L53.083333333333336,107.50322462139385L54.16666666666667,110.23773501573929L55.25,112.73813735773521L56.333333333333336,115.05280750218247L57.416666666666664,117.162576435666L58.5,119.06023811628776L59.58333333333333,120.7644140395735L60.666666666666664,122.33234043046832L61.75,123.79041589344186L62.833333333333336,125.08348241661275L63.916666666666664,126.31117648125759L65,127.42344435517276L66.08333333333333,128.43428012462599L67.16666666666667,129.42473704274744L68.25,130.33608645679695L69.33333333333333,131.1691319817411L70.41666666666666,132.0136165094695L71.5,132.75959197179014L72.58333333333333,133.4771642076916L73.66666666666667,134.0966983613159L74.75,134.6344315760902L75.83333333333334,135.1074664269441L76.91666666666667,135.59075399182206L78,136.2138028570584L79.08333333333333,136.92015686351806L80.16666666666667,137.65338045757795L81.25,138.2278503565384L82.33333333333333,138.83666964394172L83.41666666666667,139.14521363643664L84.5,139.35107741917352L85.58333333333333,139.9051566922239L86.66666666666666,140.4334584698081L87.75,141.10195720714648L88.83333333333333,141.63472154989307L89.91666666666667,142.02099247715836L91,142.16969656970883L92.08333333333334,142.0648586684838L93.16666666666667,142.31428839080036L94.25,143.60515895512486L95.33333333333333,143.80826159925866L96.41666666666667,144.01015440547573L97.5,144.30563744703042L98.58333333333333,144.47986882525896L99.66666666666667,145.0726570243548L100.75,145.86343475697296L101.83333333333333,146.1437609726563L102.91666666666666,146.5733270242012L104,146.76893809291403L105.08333333333333,146.74672535101752L106.16666666666667,146.89001608121077L107.25,147.8717921915065L108.33333333333334,147.77445175299155L109.41666666666667,148.05597308836877L110.5,148.51241461480302L111.58333333333333,148.71802230046262L112.66666666666667,149.00901039676475L113.75,149.36349585000426L114.83333333333333,149.60284947697073L115.91666666666667,149.54793873123293L117,150.67630539728063L118.08333333333333,150.97971273000752L119.16666666666666,151.1731572763196L120.25,151.06296782927322L121.33333333333333,150.80439809057862L122.41666666666667,151.50606875853347L123.5,152.36925131654633L124.58333333333334,152.85654665350114L125.66666666666667,153.05358833347316L126.75,153.26172902528197L127.83333333333333,153.15717812940213L128.91666666666666,152.85933428490534L130,153.15521619029875L131.08333333333334,154.2539609610768L132.16666666666666,154.79351482001533L133.25,155.0604724739013L134.33333333333334,155.25657954672351L135.41666666666669,155.27635642274151L136.5,155.51255446273302L137.58333333333334,155.60057973801824L138.66666666666666,155.63049305409993L139.75,156.5127798653474L140.83333333333331,156.7401307815952L141.91666666666666,156.9126327686411L143,156.86213160246345L144.08333333333334,157.1005476786356L145.16666666666666,157.35388656093608L146.25,157.35992250411903L147.33333333333334,158.08053405303508L148.41666666666666,158.45948266444196L149.5,158.50030659910826L150.58333333333334,158.40617178952587L151.66666666666669,158.70202867394048L152.75,158.82518634712324L153.83333333333334,159.0599346421659L154.91666666666666,159.2402917447367L156,158.9793273511875L157.08333333333331,159.74211543944796L158.16666666666666,160.14957913576757L159.25,160.4537076614132L160.33333333333334,160.48690608483074L161.41666666666666,160.20704496498885L162.5,160.24992209174005L163.58333333333334,161.18496784454746L164.66666666666666,161.2296847491525L165.75,161.12948308811923L166.83333333333334,161.2658503662928L167.91666666666669,161.36352196482142L169,161.55394633180862L170.08333333333334,161.69450683166673L171.16666666666666,161.83339534141123L172.25,162.02805414110688L173.33333333333331,162.0902283298118L174.41666666666666,162.35310167686214L175.5,162.2754527486728L176.58333333333334,162.5039855382139L177.66666666666666,162.90249761140774L178.75,162.7764713565952L179.83333333333334,163.2767628843098L180.91666666666666,163.04970927616316L182,163.5945101815409L183.08333333333334,163.30692346653504L184.16666666666669,163.8974951012725L185.25,163.61144055326338L186.33333333333334,164.16816174731193L187.41666666666666,163.86680760666994L188.5,164.44006913953592L189.58333333333331,164.16038463836801L190.66666666666666,164.70044921963876L191.75,164.46167843429637L192.83333333333334,164.9706279565913L193.91666666666666,164.5266034588484L195,164.9101846308913L196.08333333333334,165.2624292347048L197.16666666666666,165.1034908259088L198.25,165.4966984515943L199.33333333333334,165.1559465720784L200.41666666666669,165.71044016310145L201.5,165.28704767012303L202.58333333333334,165.9817580905011L203.66666666666666,165.30214194354733L204.75,164.7580703261109L205.83333333333331,165.1458277938821L206.91666666666666,165.97565370758196L208,166.31426850114283L209.08333333333334,166.7847269270902L210.16666666666666,166.52128619254964L211.25,166.69983295371222L212.33333333333334,166.35203619683827L213.41666666666666,166.8946941289718L214.5,166.0057774942501L215.58333333333334,164.9094950821517L216.66666666666669,166.22857312053176L217.75,166.96152737111387L218.83333333333334,167.4731342685409L219.91666666666666,167.43033441245953L221,167.6581025903246L222.08333333333331,167.16237371168765L223.16666666666666,167.21152153727598L224.25,167.7760036502233L225.33333333333334,167.738657631612L226.41666666666666,167.87781990030115L227.5,167.18715772711275L228.58333333333334,166.5090995040456L229.66666666666666,167.36479858166004L230.75,167.53669344201418L231.83333333333334,168.07856394922626L232.91666666666669,166.85697721114514L234,166.9684390485553L235.08333333333334,165.6985132512304L236.16666666666666,165.35250034296354L237.25,165.20959302247502" style="fill: none;" fill="none"></path></g></g></g></g></g></g><g transform="translate(70, 177)" clip-path="url(#clip_1)"><clipPath id="clip_1"><rect width="260" height="23"></rect></clipPath><g><g><line x1="0" y1="0" x2="0" y2="5" style="visibility: inherit;" fill="rgb(0, 0, 0)" stroke="rgb(204, 204, 204)" stroke-width="1px"></line><line x1="21.666666666666664" y1="0" x2="21.666666666666664" y2="5" style="visibility: inherit;" fill="rgb(0, 0, 0)" stroke="rgb(204, 204, 204)" stroke-width="1px"></line><line x1="43.33333333333333" y1="0" x2="43.33333333333333" y2="5" style="visibility: inherit;" fill="rgb(0, 0, 0)" stroke="rgb(204, 204, 204)" stroke-width="1px"></line><line x1="65" y1="0" x2="65" y2="5" style="visibility: inherit;" fill="rgb(0, 0, 0)" stroke="rgb(204, 204, 204)" stroke-width="1px"></line><line x1="86.66666666666666" y1="0" x2="86.66666666666666" y2="5" style="visibility: inherit;" fill="rgb(0, 0, 0)" stroke="rgb(204, 204, 204)" stroke-width="1px"></line><line x1="108.33333333333334" y1="0" x2="108.33333333333334" y2="5" style="visibility: inherit;" fill="rgb(0, 0, 0)" stroke="rgb(204, 204, 204)" stroke-width="1px"></line><line x1="130" y1="0" x2="130" y2="5" style="visibility: inherit;" fill="rgb(0, 0, 0)" stroke="rgb(204, 204, 204)" stroke-width="1px"></line><line x1="151.66666666666669" y1="0" x2="151.66666666666669" y2="5" style="visibility: inherit;" fill="rgb(0, 0, 0)" stroke="rgb(204, 204, 204)" stroke-width="1px"></line><line x1="173.33333333333331" y1="0" x2="173.33333333333331" y2="5" style="visibility: inherit;" fill="rgb(0, 0, 0)" stroke="rgb(204, 204, 204)" stroke-width="1px"></line><line x1="195" y1="0" x2="195" y2="5" style="visibility: inherit;" fill="rgb(0, 0, 0)" stroke="rgb(204, 204, 204)" stroke-width="1px"></line><line x1="216.66666666666669" y1="0" x2="216.66666666666669" y2="5" style="visibility: inherit;" fill="rgb(0, 0, 0)" stroke="rgb(204, 204, 204)" stroke-width="1px"></line><line x1="238.33333333333331" y1="0" x2="238.33333333333331" y2="5" style="visibility: inherit;" fill="rgb(0, 0, 0)" stroke="rgb(204, 204, 204)" stroke-width="1px"></line><line x1="260" y1="0" x2="260" y2="5" style="visibility: inherit;" fill="rgb(0, 0, 0)" stroke="rgb(204, 204, 204)" stroke-width="1px"></line></g><g transform="translate(0, 8)"><text x="0" y="0" dx="0em" dy="0.95em" style="text-anchor: middle; visibility: hidden; font-family: Roboto, sans-serif; font-size: 12px; font-weight: 200;" fill="rgb(33, 33, 33)" stroke="none" stroke-width="1px">-20</text><text x="21.666666666666664" y="0" dx="0em" dy="0.95em" style="text-anchor: middle; visibility: inherit; font-family: Roboto, sans-serif; font-size: 12px; font-weight: 200;" fill="rgb(33, 33, 33)" stroke="none" stroke-width="1px">0</text><text x="43.33333333333333" y="0" dx="0em" dy="0.95em" style="text-anchor: middle; visibility: hidden; font-family: Roboto, sans-serif; font-size: 12px; font-weight: 200;" fill="rgb(33, 33, 33)" stroke="none" stroke-width="1px">20</text><text x="65" y="0" dx="0em" dy="0.95em" style="text-anchor: middle; visibility: inherit; font-family: Roboto, sans-serif; font-size: 12px; font-weight: 200;" fill="rgb(33, 33, 33)" stroke="none" stroke-width="1px">40</text><text x="86.66666666666666" y="0" dx="0em" dy="0.95em" style="text-anchor: middle; visibility: hidden; font-family: Roboto, sans-serif; font-size: 12px; font-weight: 200;" fill="rgb(33, 33, 33)" stroke="none" stroke-width="1px">60</text><text x="108.33333333333334" y="0" dx="0em" dy="0.95em" style="text-anchor: middle; visibility: inherit; font-family: Roboto, sans-serif; font-size: 12px; font-weight: 200;" fill="rgb(33, 33, 33)" stroke="none" stroke-width="1px">80</text><text x="130" y="0" dx="0em" dy="0.95em" style="text-anchor: middle; visibility: hidden; font-family: Roboto, sans-serif; font-size: 12px; font-weight: 200;" fill="rgb(33, 33, 33)" stroke="none" stroke-width="1px">100</text><text x="151.66666666666669" y="0" dx="0em" dy="0.95em" style="text-anchor: middle; visibility: inherit; font-family: Roboto, sans-serif; font-size: 12px; font-weight: 200;" fill="rgb(33, 33, 33)" stroke="none" stroke-width="1px">120</text><text x="173.33333333333331" y="0" dx="0em" dy="0.95em" style="text-anchor: middle; visibility: hidden; font-family: Roboto, sans-serif; font-size: 12px; font-weight: 200;" fill="rgb(33, 33, 33)" stroke="none" stroke-width="1px">140</text><text x="195" y="0" dx="0em" dy="0.95em" style="text-anchor: middle; visibility: inherit; font-family: Roboto, sans-serif; font-size: 12px; font-weight: 200;" fill="rgb(33, 33, 33)" stroke="none" stroke-width="1px">160</text><text x="216.66666666666669" y="0" dx="0em" dy="0.95em" style="text-anchor: middle; visibility: hidden; font-family: Roboto, sans-serif; font-size: 12px; font-weight: 200;" fill="rgb(33, 33, 33)" stroke="none" stroke-width="1px">180</text><text x="238.33333333333331" y="0" dx="0em" dy="0.95em" style="text-anchor: middle; visibility: inherit; font-family: Roboto, sans-serif; font-size: 12px; font-weight: 200;" fill="rgb(33, 33, 33)" stroke="none" stroke-width="1px">200</text><text x="260" y="0" dx="0em" dy="0.95em" style="text-anchor: middle; visibility: hidden; font-family: Roboto, sans-serif; font-size: 12px; font-weight: 200;" fill="rgb(33, 33, 33)" stroke="none" stroke-width="1px">220</text></g><line x1="0" y1="0" x2="260" y2="0" fill="rgb(0, 0, 0)" stroke="rgb(204, 204, 204)" stroke-width="1px"></line></g></g></g></g></svg>