<svg viewBox="0 0 301 200" xmlns="http://www.w3.org/2000/svg"><g><g><g><g><g><line x1="51.5625" y1="177" x2="46.5625" y2="177" style="visibility: inherit;" fill="rgb(0, 0, 0)" stroke="rgb(204, 204, 204)" stroke-width="1px"></line><line x1="51.5625" y1="163.3846153846154" x2="46.5625" y2="163.3846153846154" style="visibility: inherit;" fill="rgb(0, 0, 0)" stroke="rgb(204, 204, 204)" stroke-width="1px"></line><line x1="51.5625" y1="149.76923076923077" x2="46.5625" y2="149.76923076923077" style="visibility: inherit;" fill="rgb(0, 0, 0)" stroke="rgb(204, 204, 204)" stroke-width="1px"></line><line x1="51.5625" y1="136.15384615384613" x2="46.5625" y2="136.15384615384613" style="visibility: inherit;" fill="rgb(0, 0, 0)" stroke="rgb(204, 204, 204)" stroke-width="1px"></line><line x1="51.5625" y1="122.53846153846153" x2="46.5625" y2="122.53846153846153" style="visibility: inherit;" fill="rgb(0, 0, 0)" stroke="rgb(204, 204, 204)" stroke-width="1px"></line><line x1="51.5625" y1="108.9230769230769" x2="46.5625" y2="108.9230769230769" style="visibility: inherit;" fill="rgb(0, 0, 0)" stroke="rgb(204, 204, 204)" stroke-width="1px"></line><line x1="51.5625" y1="95.3076923076923" x2="46.5625" y2="95.3076923076923" style="visibility: inherit;" fill="rgb(0, 0, 0)" stroke="rgb(204, 204, 204)" stroke-width="1px"></line><line x1="51.5625" y1="81.69230769230768" x2="46.5625" y2="81.69230769230768" style="visibility: inherit;" fill="rgb(0, 0, 0)" stroke="rgb(204, 204, 204)" stroke-width="1px"></line><line x1="51.5625" y1="68.07692307692305" x2="46.5625" y2="68.07692307692305" style="visibility: inherit;" fill="rgb(0, 0, 0)" stroke="rgb(204, 204, 204)" stroke-width="1px"></line><line x1="51.5625" y1="54.461538461538446" x2="46.5625" y2="54.461538461538446" style="visibility: inherit;" fill="rgb(0, 0, 0)" stroke="rgb(204, 204, 204)" stroke-width="1px"></line><line x1="51.5625" y1="40.84615384615382" x2="46.5625" y2="40.84615384615382" style="visibility: inherit;" fill="rgb(0, 0, 0)" stroke="rgb(204, 204, 204)" stroke-width="1px"></line><line x1="51.5625" y1="27.230769230769234" x2="46.5625" y2="27.230769230769234" style="visibility: inherit;" fill="rgb(0, 0, 0)" stroke="rgb(204, 204, 204)" stroke-width="1px"></line><line x1="51.5625" y1="13.615384615384606" x2="46.5625" y2="13.615384615384606" style="visibility: inherit;" fill="rgb(0, 0, 0)" stroke="rgb(204, 204, 204)" stroke-width="1px"></line><line x1="51.5625" y1="0" x2="46.5625" y2="0" style="visibility: inherit;" fill="rgb(0, 0, 0)" stroke="rgb(204, 204, 204)" stroke-width="1px"></line></g><g transform="translate(41.5625, 0)"><text x="0" y="177" dx="0em" dy="0.3em" style="text-anchor: end; visibility: hidden; font-family: Roboto, sans-serif; font-size: 12px; font-weight: 200;" fill="rgb(33, 33, 33)" stroke="none" stroke-width="1px">0.05</text><text x="0" y="163.3846153846154" dx="0em" dy="0.3em" style="text-anchor: end; visibility: inherit; font-family: Roboto, sans-serif; font-size: 12px; font-weight: 200;" fill="rgb(33, 33, 33)" stroke="none" stroke-width="1px">0.1</text><text x="0" y="149.76923076923077" dx="0em" dy="0.3em" style="text-anchor: end; visibility: hidden; font-family: Roboto, sans-serif; font-size: 12px; font-weight: 200;" fill="rgb(33, 33, 33)" stroke="none" stroke-width="1px">0.15</text><text x="0" y="136.15384615384613" dx="0em" dy="0.3em" style="text-anchor: end; visibility: inherit; font-family: Roboto, sans-serif; font-size: 12px; font-weight: 200;" fill="rgb(33, 33, 33)" stroke="none" stroke-width="1px">0.2</text><text x="0" y="122.53846153846153" dx="0em" dy="0.3em" style="text-anchor: end; visibility: hidden; font-family: Roboto, sans-serif; font-size: 12px; font-weight: 200;" fill="rgb(33, 33, 33)" stroke="none" stroke-width="1px">0.25</text><text x="0" y="108.9230769230769" dx="0em" dy="0.3em" style="text-anchor: end; visibility: inherit; font-family: Roboto, sans-serif; font-size: 12px; font-weight: 200;" fill="rgb(33, 33, 33)" stroke="none" stroke-width="1px">0.3</text><text x="0" y="95.3076923076923" dx="0em" dy="0.3em" style="text-anchor: end; visibility: hidden; font-family: Roboto, sans-serif; font-size: 12px; font-weight: 200;" fill="rgb(33, 33, 33)" stroke="none" stroke-width="1px">0.35</text><text x="0" y="81.69230769230768" dx="0em" dy="0.3em" style="text-anchor: end; visibility: inherit; font-family: Roboto, sans-serif; font-size: 12px; font-weight: 200;" fill="rgb(33, 33, 33)" stroke="none" stroke-width="1px">0.4</text><text x="0" y="68.07692307692305" dx="0em" dy="0.3em" style="text-anchor: end; visibility: hidden; font-family: Roboto, sans-serif; font-size: 12px; font-weight: 200;" fill="rgb(33, 33, 33)" stroke="none" stroke-width="1px">0.45</text><text x="0" y="54.461538461538446" dx="0em" dy="0.3em" style="text-anchor: end; visibility: inherit; font-family: Roboto, sans-serif; font-size: 12px; font-weight: 200;" fill="rgb(33, 33, 33)" stroke="none" stroke-width="1px">0.5</text><text x="0" y="40.84615384615382" dx="0em" dy="0.3em" style="text-anchor: end; visibility: hidden; font-family: Roboto, sans-serif; font-size: 12px; font-weight: 200;" fill="rgb(33, 33, 33)" stroke="none" stroke-width="1px">0.55</text><text x="0" y="27.230769230769234" dx="0em" dy="0.3em" style="text-anchor: end; visibility: inherit; font-family: Roboto, sans-serif; font-size: 12px; font-weight: 200;" fill="rgb(33, 33, 33)" stroke="none" stroke-width="1px">0.6</text><text x="0" y="13.615384615384606" dx="0em" dy="0.3em" style="text-anchor: end; visibility: hidden; font-family: Roboto, sans-serif; font-size: 12px; font-weight: 200;" fill="rgb(33, 33, 33)" stroke="none" stroke-width="1px">0.65</text><text x="0" y="0" dx="0em" dy="0.3em" style="text-anchor: end; visibility: hidden; font-family: Roboto, sans-serif; font-size: 12px; font-weight: 200;" fill="rgb(33, 33, 33)" stroke="none" stroke-width="1px">0.7</text></g><line x1="51.5625" y1="0" x2="51.5625" y2="177" fill="rgb(0, 0, 0)" stroke="rgb(204, 204, 204)" stroke-width="1px"></line></g></g><g transform="translate(51, 0)" clip-path="url(#clip_0)"><clipPath id="clip_0"><rect width="249" height="177"></rect></clipPath><g><g><g><line x1="0" y1="0" x2="0" y2="177" fill="rgb(0, 0, 0)" stroke="rgb(66, 66, 66)" stroke-width="1px" opacity="0.25"></line><line x1="20.786458333333332" y1="0" x2="20.786458333333332" y2="177" fill="rgb(0, 0, 0)" stroke="rgb(66, 66, 66)" stroke-width="1px" opacity="0.25"></line><line x1="41.572916666666664" y1="0" x2="41.572916666666664" y2="177" fill="rgb(0, 0, 0)" stroke="rgb(66, 66, 66)" stroke-width="1px" opacity="0.25"></line><line x1="62.359375" y1="0" x2="62.359375" y2="177" fill="rgb(0, 0, 0)" stroke="rgb(66, 66, 66)" stroke-width="1px" opacity="0.25"></line><line x1="83.14583333333333" y1="0" x2="83.14583333333333" y2="177" fill="rgb(0, 0, 0)" stroke="rgb(66, 66, 66)" stroke-width="1px" opacity="0.25"></line><line x1="103.93229166666667" y1="0" x2="103.93229166666667" y2="177" fill="rgb(0, 0, 0)" stroke="rgb(66, 66, 66)" stroke-width="1px" opacity="0.25"></line><line x1="124.71875" y1="0" x2="124.71875" y2="177" fill="rgb(0, 0, 0)" stroke="rgb(66, 66, 66)" stroke-width="1px" opacity="0.25"></line><line x1="145.50520833333334" y1="0" x2="145.50520833333334" y2="177" fill="rgb(0, 0, 0)" stroke="rgb(66, 66, 66)" stroke-width="1px" opacity="0.25"></line><line x1="166.29166666666666" y1="0" x2="166.29166666666666" y2="177" fill="rgb(0, 0, 0)" stroke="rgb(66, 66, 66)" stroke-width="1px" opacity="0.25"></line><line x1="187.078125" y1="0" x2="187.078125" y2="177" fill="rgb(0, 0, 0)" stroke="rgb(66, 66, 66)" stroke-width="1px" opacity="0.25"></line><line x1="207.86458333333334" y1="0" x2="207.86458333333334" y2="177" fill="rgb(0, 0, 0)" stroke="rgb(66, 66, 66)" stroke-width="1px" opacity="0.25"></line><line x1="228.65104166666666" y1="0" x2="228.65104166666666" y2="177" fill="rgb(0, 0, 0)" stroke="rgb(66, 66, 66)" stroke-width="1px" opacity="0.25"></line><line x1="249.4375" y1="0" x2="249.4375" y2="177" fill="rgb(0, 0, 0)" stroke="rgb(66, 66, 66)" stroke-width="1px" opacity="0.25"></line></g><g><line x1="0" y1="177" x2="249.4375" y2="177" fill="rgb(0, 0, 0)" stroke="rgb(66, 66, 66)" stroke-width="1px" opacity="0.25"></line><line x1="0" y1="163.3846153846154" x2="249.4375" y2="163.3846153846154" fill="rgb(0, 0, 0)" stroke="rgb(66, 66, 66)" stroke-width="1px" opacity="0.25"></line><line x1="0" y1="149.76923076923077" x2="249.4375" y2="149.76923076923077" fill="rgb(0, 0, 0)" stroke="rgb(66, 66, 66)" stroke-width="1px" opacity="0.25"></line><line x1="0" y1="136.15384615384613" x2="249.4375" y2="136.15384615384613" fill="rgb(0, 0, 0)" stroke="rgb(66, 66, 66)" stroke-width="1px" opacity="0.25"></line><line x1="0" y1="122.53846153846153" x2="249.4375" y2="122.53846153846153" fill="rgb(0, 0, 0)" stroke="rgb(66, 66, 66)" stroke-width="1px" opacity="0.25"></line><line x1="0" y1="108.9230769230769" x2="249.4375" y2="108.9230769230769" fill="rgb(0, 0, 0)" stroke="rgb(66, 66, 66)" stroke-width="1px" opacity="0.25"></line><line x1="0" y1="95.3076923076923" x2="249.4375" y2="95.3076923076923" fill="rgb(0, 0, 0)" stroke="rgb(66, 66, 66)" stroke-width="1px" opacity="0.25"></line><line x1="0" y1="81.69230769230768" x2="249.4375" y2="81.69230769230768" fill="rgb(0, 0, 0)" stroke="rgb(66, 66, 66)" stroke-width="1px" opacity="0.25"></line><line x1="0" y1="68.07692307692305" x2="249.4375" y2="68.07692307692305" fill="rgb(0, 0, 0)" stroke="rgb(66, 66, 66)" stroke-width="1px" opacity="0.25"></line><line x1="0" y1="54.461538461538446" x2="249.4375" y2="54.461538461538446" fill="rgb(0, 0, 0)" stroke="rgb(66, 66, 66)" stroke-width="1px" opacity="0.25"></line><line x1="0" y1="40.84615384615382" x2="249.4375" y2="40.84615384615382" fill="rgb(0, 0, 0)" stroke="rgb(66, 66, 66)" stroke-width="1px" opacity="0.25"></line><line x1="0" y1="27.230769230769234" x2="249.4375" y2="27.230769230769234" fill="rgb(0, 0, 0)" stroke="rgb(66, 66, 66)" stroke-width="1px" opacity="0.25"></line><line x1="0" y1="13.615384615384606" x2="249.4375" y2="13.615384615384606" fill="rgb(0, 0, 0)" stroke="rgb(66, 66, 66)" stroke-width="1px" opacity="0.25"></line><line x1="0" y1="0" x2="249.4375" y2="0" fill="rgb(0, 0, 0)" stroke="rgb(66, 66, 66)" stroke-width="1px" opacity="0.25"></line></g></g></g><g><g><line x1="0" y1="190.6153846153846" x2="249.4375" y2="190.6153846153846" fill="rgb(0, 0, 0)" stroke="rgb(153, 153, 153)" stroke-width="1.5px"></line></g></g><g><g><line x1="20.786458333333332" y1="0" x2="20.786458333333332" y2="177" fill="rgb(0, 0, 0)" stroke="rgb(153, 153, 153)" stroke-width="1.5px"></line></g></g><g><g><g><g><g><path stroke="rgb(0, 119, 187)" stroke-width="2px" d="M24.112291666666668,-62.39972569392279L24.528020833333333,7.240824277584355L24.94375,89.54452522901387L25.359479166666667,-12.933869416897119L25.77520833333333,151.9202325802583L26.1909375,142.0137536892524L26.60666666666667,65.98126992812522L27.022395833333334,-79.88510513305668L27.438125,114.96591534981361L27.853854166666665,131.27004938859204L28.269583333333333,18.068604139181268L28.685312500000002,-113.50026732224688L29.101041666666667,-80.0839000115028L29.516770833333332,105.68044322270612L29.932499999999997,36.98997143598702L30.34822916666667,-63.174714088439984L30.763958333333335,-10.430998398707484L31.1796875,67.0729456406373L31.59541666666667,7.307256955366864L32.01114583333333,-38.47717721645651L32.426875,90.04004353743332L32.84260416666666,80.67218385292932L33.25833333333333,-9.303038725486196L33.674062500000005,-20.180014151793277L34.08979166666666,99.09963969083933L34.505520833333335,80.76181034858408L34.92125,0.16685590377220438L35.336979166666666,-4.1003521222334856L35.75270833333334,101.59700846672058L36.168437499999996,89.90833056890047L36.58416666666667,17.154939761528595L36.99989583333333,1.7984574024493831L37.415625,97.89984248234674L37.83135416666667,101.5984367774083L38.24708333333333,38.175826384471016L38.6628125,7.08103201939508L39.078541666666666,86.4148611655602L39.49427083333333,109.40739273107968L39.910000000000004,61.1742172699708L40.32572916666666,19.795090913772583L40.741458333333334,68.4564511959369L41.1571875,110.44493059928598L41.572916666666664,84.43902867573956L41.98864583333334,40.3160201036013L42.404375,52.00072145462034L42.82010416666667,103.74216881165135L43.23583333333333,102.88003723437967L43.6515625,64.40478823735162L44.06729166666667,47.845132662699754L44.483020833333335,88.67439186573027L44.89875,110.06593322753906L45.314479166666665,87.01656950437105L45.73020833333333,58.77107642247125L46.1459375,73.21938041540292L46.56166666666667,105.89498198032379L46.97739583333333,103.1469852557549L47.393125,77.03044606172121L47.80885416666667,68.56560334792502L48.224583333333335,94.35092053963587L48.6403125,108.67935193501985L49.056041666666665,94.35867074819711L49.47177083333333,76.49636336473317L49.8875,84.36871683597563L50.30322916666667,104.49083084326523L50.71895833333333,104.7739772063035L51.1346875,89.62008773363551L51.55041666666666,83.74331152439116L51.966145833333336,97.12454570256746L52.381875,107.10706590689144L52.797604166666666,100.89998473570894L53.21333333333334,91.05278073824367L53.629062499999996,93.78746008872986L54.04479166666667,104.4549120756296L54.460520833333334,106.57980014727663L54.87625,99.75893491965073L55.29197916666667,96.14539003372192L55.70770833333333,101.6313203848325L56.1234375,107.24839562636154L56.53916666666667,105.6085975720332L56.95489583333333,101.2864158153534L57.370625000000004,101.82220274668472L57.78635416666666,106.35510090681223L58.202083333333334,108.22144039777608L58.6178125,106.1413899201613L59.033541666666665,104.70556437052211L59.44927083333334,106.65105337363022L59.864999999999995,109.21801983393155L60.28072916666667,109.3810501373731L60.69645833333334,108.25532219960138L61.1121875,108.48096282665544L61.52791666666667,110.1301179390687L61.94364583333333,111.20448349989377L62.359375,111.02869578508229L62.775104166666665,110.84433009074282L63.19083333333334,111.55885062767908L63.6065625,112.56649135626279L64.02229166666666,113.02473562497357L64.43802083333334,113.10201859474182L64.85375,113.44122615227333L65.26947916666667,114.12999651982233L65.68520833333332,114.7522287093676L66.1009375,115.12205567726723L66.51666666666667,115.45759507325978L66.93239583333333,115.94511159566731L67.34812500000001,116.49762436976799L67.76385416666666,116.96753047062799L68.17958333333333,117.36695430828973L68.5953125,117.78886592388153L69.01104166666667,118.25313993600697L69.42677083333334,118.71098655003766L69.8425,119.13823809990517L70.25822916666667,119.55641663074493L70.67395833333333,119.98604599329141L71.0896875,120.42090978989235L71.50541666666668,120.84838045560396L71.92114583333333,121.26843364422136L72.33687499999999,121.68787817771616L72.75260416666667,122.10751748085022L73.16833333333334,122.52175192649545L73.5840625,122.92902741523889L73.99979166666667,123.33135656668588L74.41552083333333,123.72775741723866L74.83125,124.11817721678659L75.24697916666668,124.50169486724413L75.66270833333334,124.87637890302217L76.07843749999999,125.2423672859485L76.49416666666666,125.60021186333435L76.90989583333334,125.94925934534805L77.325625,126.28938394326428L77.74135416666667,126.61866636459642L78.15708333333333,126.93813320765129L78.5728125,127.24754101037979L78.98854166666666,127.54654081051164L79.40427083333334,127.83462539544472L79.82000000000001,128.11106437903183L80.23572916666666,128.37610122332205L80.65145833333332,128.63045414136005L81.0671875,128.87318986195783L81.48291666666667,129.1052660025083L81.89864583333333,129.327092390794L82.314375,129.53885568105255L82.73010416666666,129.74075875832483L83.14583333333333,129.93253381435687L83.56156250000001,130.1146271962386L83.97729166666667,130.28815477169476L84.39302083333332,130.45398488870035L84.80875,130.6123934709109L85.22447916666667,130.76376194220322L85.64020833333333,130.9086786691959L86.0559375,131.04764274908945L86.47166666666666,131.1812668947073L86.88739583333333,131.3104235117252L87.303125,131.43540069690118L87.71885416666667,131.55643379688263L88.13458333333334,131.67413146679218L88.55031249999999,131.78919568887125L88.96604166666667,131.90180905965659L89.38177083333333,132.01307933147135L89.7975,132.12269000365183L90.21322916666668,132.23075063412006L90.62895833333333,132.3376791660602L91.0446875,132.44390165805817L91.46041666666666,132.55026211188388L91.87614583333334,132.65603825679193L92.291875,132.7609663422291L92.70760416666666,132.8654764844821L93.12333333333333,132.9703153005013L93.5390625,133.0751744050246L93.95479166666667,133.18062999156805L94.37052083333334,133.28672669484064L94.78625,133.39329003370725L95.20197916666666,133.5007988168643L95.61770833333334,133.60848613885733L96.0334375,133.71612882614136L96.44916666666667,133.82403932167932L96.86489583333332,133.93268426106525L97.280625,134.04232739485226L97.69635416666667,134.1528185881101L98.11208333333333,134.26419436014615L98.52781250000001,134.37604894087863L98.94354166666666,134.4883823303076L99.35927083333333,134.60074006594144L99.775,134.71416903459107L100.19072916666667,134.8289857369203L100.60645833333334,134.94438674816718L101.0221875,135.06011237547946L101.43791666666667,135.17552555982883L101.85364583333333,135.29136886046481L102.269375,135.40777618151444L102.68510416666668,135.5248651963014L103.10083333333333,135.64248576989542L103.51656249999999,135.76025647841965L103.93229166666667,135.8779298021243L104.34802083333334,135.99544081779626L104.76375,136.11257446729218L105.17947916666667,136.23036952202136L105.59520833333333,136.34837963489386L106.0109375,136.4667062484301L106.42666666666668,136.58521545850311L106.84239583333334,136.7034487449206L107.25812499999999,136.82199853200177L107.67385416666666,136.94018718371024L108.08958333333334,137.0581486041729L108.5053125,137.1758300432792L108.92104166666667,137.29345467457404L109.33677083333333,137.4109940941517L109.7525,137.5284442443114L110.16822916666666,137.64519241222968L110.58395833333334,137.7620704265741L110.99968750000001,137.87968694246732L111.41541666666666,137.99773357464716L111.83114583333332,138.11659174699048L112.246875,138.23560411196488L112.66260416666667,138.35486805438995L113.07833333333333,138.47409141980683L113.4940625,138.59363534358832L113.90979166666666,138.713418671718L114.32552083333333,138.8325974024259L114.74125000000001,138.95095241986786L115.15697916666667,139.0687555899987L115.57270833333332,139.18637210589188L115.9884375,139.30393992937528L116.40416666666667,139.42133732942435L116.81989583333333,139.53773653507233L117.235625,139.65255323740152L117.65135416666666,139.76581989801846L118.06708333333333,139.87671280365723L118.4828125,139.98508181938757L118.89854166666667,140.09100404152503L119.31427083333334,140.19516522150772L119.72999999999999,140.29817401445828L120.14572916666667,140.40057820998703L120.56145833333333,140.50322180986404L120.9771875,140.60591004445L121.39291666666668,140.70826554756897L121.80864583333333,140.81038570404053L122.224375,140.91215689824176L122.64010416666666,141.01370086119724L123.05583333333334,141.11536249747644L123.4715625,141.2162085358913L123.88729166666666,141.31607261070837L124.30302083333333,141.41526716489057L124.71875,141.5129928313769L125.13447916666668,141.61001245792096L125.55020833333333,141.70652487186285L125.9659375,141.80257876561237L126.38166666666667,141.89801183113684L126.79739583333333,141.99228033652673L127.213125,142.08559528222452L127.62885416666668,142.17748191723456L128.04458333333332,142.26809443418796L128.46031250000001,142.35700677449887L128.87604166666668,142.4444583425155L129.29177083333332,142.5305465230575L129.7075,142.61523479681748L130.12322916666665,142.69881531825433L130.53895833333334,142.78153560711786L130.9546875,142.86368781786697L131.37041666666664,142.94512587327222L131.78614583333334,143.02615004319412L132.201875,143.10584328724786L132.61760416666667,143.18490352997412L133.03333333333333,143.26336729068024L133.4490625,143.34088154939505L133.86479166666666,143.41780338379053L134.28052083333333,143.4943275635059L134.69625000000002,143.57066508898367L135.11197916666666,143.646479171056L135.52770833333332,143.72245961886185L135.94343750000002,143.79849281677832L136.35916666666665,143.8742947257482L136.77489583333335,143.95085542477094L137.190625,144.02795174030157L137.60635416666665,144.10576221117606L138.02208333333334,144.1839094712184L138.4378125,144.26258017466617L138.85354166666667,144.3423586304371L139.26927083333334,144.4224089521628L139.685,144.5031125637201L140.10072916666667,144.58494015840384L140.51645833333333,144.66800129413605L140.9321875,144.7525434906666L141.34791666666666,144.83836792065546L141.76364583333333,144.92452913981217L142.179375,145.01176970738632L142.59510416666666,145.10028845071793L143.01083333333335,145.19025985094217L143.4265625,145.28159869634186L143.84229166666665,145.37346098514703L144.25802083333335,145.46629712214838L144.67374999999998,145.55906022053497L145.08947916666668,145.6522899545156L145.50520833333334,145.74569011193054L145.92093749999998,145.83908621164468L146.33666666666667,145.9330382163708L146.75239583333334,146.02677922065442L147.168125,146.11964376156146L147.58385416666667,146.21099478006363L147.99958333333333,146.3004386791816L148.4153125,146.38826761337427L148.83104166666666,146.4745789674612L149.24677083333336,146.55876814402066L149.6625,146.64090412396652L150.07822916666666,146.72121413854452L150.49395833333335,146.80074507456558L150.9096875,146.87981343269348L151.32541666666668,146.9587032519854L151.74114583333332,147.03809622617868L152.15687499999999,147.11852797178122L152.57260416666668,147.19968198812924L152.98833333333332,147.2817043524522L153.4040625,147.36495214242203L153.81979166666667,147.44910074197327L154.2355208333333,147.53462084440085L154.65125,147.62096466009433L155.06697916666667,147.7086556324592L155.48270833333333,147.79712162568018L155.8984375,147.88640727446628L156.31416666666667,147.97628534757172L156.72989583333333,148.0665935369638L157.145625,148.1566663797085L157.5613541666667,148.24642272178943L157.97708333333333,148.33651585303818L158.3928125,148.42711213918832L158.80854166666668,148.51811013771936L159.22427083333332,148.6093597137011L159.64000000000001,148.70075942461307L160.05572916666668,148.792293039652L160.47145833333332,148.88373332757217L160.8871875,148.97495044194733L161.30291666666665,149.06647594158466L161.71864583333334,149.1579649219146L162.134375,149.24960809487564L162.55010416666664,149.3408901324639L162.96583333333334,149.43144989930664L163.3815625,149.52162012687097L163.79729166666667,149.61179846983688L164.21302083333333,149.70184696637665L164.62875,149.79237427161289L165.04447916666666,149.88302330787366L165.46020833333333,149.97366422873276L165.87593750000002,150.06444716912048L166.29166666666666,150.15453624266846L166.70739583333332,150.24351756389325L167.12312500000002,150.33186994149133L167.53885416666665,150.41978002970035L167.95458333333335,150.50779967583142L168.3703125,150.59586801437231L168.78604166666665,150.6840946032451L169.20177083333334,150.7717328254993L169.6175,150.85916816271268L170.03322916666667,150.94574732505356L170.44895833333334,151.03192071731274L170.8646875,151.11728662710922L171.28041666666667,151.2018572275455L171.69614583333333,151.2860382887033L172.111875,151.36970807955814L172.52760416666666,151.45310194675739L172.94333333333333,151.5361143900798L173.3590625,151.61827065852972L173.77479166666666,151.6993638093655L174.19052083333335,151.78043667169717L174.60625,151.86120926416837L175.02197916666665,151.94168970218072L175.43770833333335,152.02076211800943L175.85343749999998,152.09864156979782L176.26916666666668,152.17521038422217L176.68489583333334,152.25098388928635L177.10062499999998,152.32558877651508L177.51635416666667,152.399722970449L177.93208333333334,152.47260739253116L178.3478125,152.5448060631752L178.76354166666667,152.61604711642633L179.17927083333333,152.6866511106491L179.595,152.75598098681522L180.01072916666666,152.8244100533999L180.42645833333336,152.89135400148538L180.8421875,152.95730787057144L181.25791666666666,153.02254758431363L181.67364583333335,153.08692706548248L182.089375,153.15094135357785L182.50510416666668,153.214736525829L182.92083333333332,153.27814215880173L183.33656249999999,153.34103246377063L183.75229166666668,153.40369147979294L184.16802083333332,153.46568909058203L184.58375,153.52748787403107L184.99947916666667,153.58862525224686L185.4152083333333,153.64885370547955L185.8309375,153.7080717912087L186.24666666666667,153.76683541444632L186.66239583333333,153.8259155383477L187.078125,153.8853324514169L187.49385416666667,153.9444450369248L187.90958333333333,154.00342371830573L188.3253125,154.0622928417646L188.7410416666667,154.1211700806251L189.15677083333333,154.17966589560876L189.5725,154.23749218995755L189.98822916666668,154.2946124443641L190.40395833333332,154.35053567702954L190.81968750000001,154.40599633180176L191.23541666666668,154.46088079305795L191.65114583333332,154.51540411894138L192.066875,154.57008163745587L192.48260416666665,154.625144637548L192.89833333333334,154.68044298428757L193.3140625,154.73639867855954L193.72979166666664,154.79259783488052L194.14552083333334,154.84837093261572L194.56125,154.90331625938416L194.97697916666667,154.95673994834607L195.39270833333333,155.00899907717337L195.8084375,155.06057651226337L196.22416666666666,155.11144384971033L196.63989583333333,155.16276970734964L197.05562500000002,155.21483812423853L197.47135416666666,155.26812790907346L197.88708333333332,155.32221706096942L198.30281250000002,155.376870233279L198.71854166666665,155.4313895014616L199.13427083333335,155.48510128718155L199.55,155.5373401275048L199.96572916666665,155.58757852132504L200.38145833333334,155.63636425825266L200.7971875,155.6838271847138L201.21291666666667,155.73063682134335L201.62864583333334,155.77822959423065L202.044375,155.82688142703128L202.46010416666667,155.87625553057742L202.87583333333333,155.92655478990994L203.2915625,155.9765618947836L203.70729166666666,156.0252705353957L204.12302083333333,156.07147963230426L204.53875,156.11353770127664L204.95447916666666,156.15172878137002L205.37020833333335,156.18657631598984L205.7859375,156.2187011333612L206.20166666666665,156.24993731425357L206.61739583333335,156.28234211298135L207.03312499999998,156.31659722328186L207.44885416666668,156.35293799180252L207.86458333333334,156.39186351574384L208.28031249999998,156.43158840674622L208.69604166666667,156.47016496841724L209.11177083333334,156.5058483894055L209.5275,156.53780684104333L209.94322916666667,156.56537080269592L210.35895833333333,156.58858490907227L210.7746875,156.60847170077835L211.19041666666666,156.62734000957929L211.60614583333336,156.6483000631516L212.021875,156.67257120059085L212.43760416666666,156.70097104861188L212.85333333333335,156.73321151045653L213.2690625,156.7681584587464L213.68479166666668,156.8035801580319L214.10052083333332,156.83782512408035L214.51624999999999,156.8683106303215L214.93197916666668,156.89478712815506L215.34770833333332,156.91792008051505L215.7634375,156.9377277470552L216.17916666666667,156.95466256141663L216.5948958333333,156.9675051845037L217.010625,156.97564899004422L217.42635416666667,156.97909397803818L217.84208333333333,156.97843257280496L218.2578125,156.97699006016438L218.67354166666667,156.97926440147253L219.08927083333333,156.98876347908606L219.505,157.00711240218234L219.9207291666667,157.0333535533685L220.33645833333333,157.06417584877747L220.7521875,157.0953795680633L221.16791666666668,157.12256413468947L221.58364583333332,157.1441612472901L221.99937500000001,157.15933704834717L222.41510416666668,157.1689213376779L222.83083333333332,157.1745453110108L223.2465625,157.17693732564265L223.66229166666665,157.17586609262688L224.07802083333334,157.17049369674461L224.49375,157.16072478202673L224.90947916666664,157.14767318734755L225.32520833333334,157.13470477553514L225.7409375,157.12553437168782L226.15666666666667,157.12400867618047L226.57239583333333,157.13181772140356L226.988125,157.1491765655004L227.40385416666666,157.1747725422566L227.81958333333333,157.2056232415713L228.23531250000002,157.23907898481076" style="fill: none;" fill="none"></path></g></g></g></g></g></g><g transform="translate(51, 177)" clip-path="url(#clip_1)"><clipPath id="clip_1"><rect width="249" height="23"></rect></clipPath><g><g><line x1="0" y1="0" x2="0" y2="5" style="visibility: inherit;" fill="rgb(0, 0, 0)" stroke="rgb(204, 204, 204)" stroke-width="1px"></line><line x1="20.786458333333332" y1="0" x2="20.786458333333332" y2="5" style="visibility: inherit;" fill="rgb(0, 0, 0)" stroke="rgb(204, 204, 204)" stroke-width="1px"></line><line x1="41.572916666666664" y1="0" x2="41.572916666666664" y2="5" style="visibility: inherit;" fill="rgb(0, 0, 0)" stroke="rgb(204, 204, 204)" stroke-width="1px"></line><line x1="62.359375" y1="0" x2="62.359375" y2="5" style="visibility: inherit;" fill="rgb(0, 0, 0)" stroke="rgb(204, 204, 204)" stroke-width="1px"></line><line x1="83.14583333333333" y1="0" x2="83.14583333333333" y2="5" style="visibility: inherit;" fill="rgb(0, 0, 0)" stroke="rgb(204, 204, 204)" stroke-width="1px"></line><line x1="103.93229166666667" y1="0" x2="103.93229166666667" y2="5" style="visibility: inherit;" fill="rgb(0, 0, 0)" stroke="rgb(204, 204, 204)" stroke-width="1px"></line><line x1="124.71875" y1="0" x2="124.71875" y2="5" style="visibility: inherit;" fill="rgb(0, 0, 0)" stroke="rgb(204, 204, 204)" stroke-width="1px"></line><line x1="145.50520833333334" y1="0" x2="145.50520833333334" y2="5" style="visibility: inherit;" fill="rgb(0, 0, 0)" stroke="rgb(204, 204, 204)" stroke-width="1px"></line><line x1="166.29166666666666" y1="0" x2="166.29166666666666" y2="5" style="visibility: inherit;" fill="rgb(0, 0, 0)" stroke="rgb(204, 204, 204)" stroke-width="1px"></line><line x1="187.078125" y1="0" x2="187.078125" y2="5" style="visibility: inherit;" fill="rgb(0, 0, 0)" stroke="rgb(204, 204, 204)" stroke-width="1px"></line><line x1="207.86458333333334" y1="0" x2="207.86458333333334" y2="5" style="visibility: inherit;" fill="rgb(0, 0, 0)" stroke="rgb(204, 204, 204)" stroke-width="1px"></line><line x1="228.65104166666666" y1="0" x2="228.65104166666666" y2="5" style="visibility: inherit;" fill="rgb(0, 0, 0)" stroke="rgb(204, 204, 204)" stroke-width="1px"></line><line x1="249.4375" y1="0" x2="249.4375" y2="5" style="visibility: inherit;" fill="rgb(0, 0, 0)" stroke="rgb(204, 204, 204)" stroke-width="1px"></line></g><g transform="translate(0, 8)"><text x="0" y="0" dx="0em" dy="0.95em" style="text-anchor: middle; visibility: hidden; font-family: Roboto, sans-serif; font-size: 12px; font-weight: 200;" fill="rgb(33, 33, 33)" stroke="none" stroke-width="1px">-50</text><text x="20.786458333333332" y="0" dx="0em" dy="0.95em" style="text-anchor: middle; visibility: inherit; font-family: Roboto, sans-serif; font-size: 12px; font-weight: 200;" fill="rgb(33, 33, 33)" stroke="none" stroke-width="1px">0</text><text x="41.572916666666664" y="0" dx="0em" dy="0.95em" style="text-anchor: middle; visibility: hidden; font-family: Roboto, sans-serif; font-size: 12px; font-weight: 200;" fill="rgb(33, 33, 33)" stroke="none" stroke-width="1px">50</text><text x="62.359375" y="0" dx="0em" dy="0.95em" style="text-anchor: middle; visibility: inherit; font-family: Roboto, sans-serif; font-size: 12px; font-weight: 200;" fill="rgb(33, 33, 33)" stroke="none" stroke-width="1px">100</text><text x="83.14583333333333" y="0" dx="0em" dy="0.95em" style="text-anchor: middle; visibility: hidden; font-family: Roboto, sans-serif; font-size: 12px; font-weight: 200;" fill="rgb(33, 33, 33)" stroke="none" stroke-width="1px">150</text><text x="103.93229166666667" y="0" dx="0em" dy="0.95em" style="text-anchor: middle; visibility: inherit; font-family: Roboto, sans-serif; font-size: 12px; font-weight: 200;" fill="rgb(33, 33, 33)" stroke="none" stroke-width="1px">200</text><text x="124.71875" y="0" dx="0em" dy="0.95em" style="text-anchor: middle; visibility: hidden; font-family: Roboto, sans-serif; font-size: 12px; font-weight: 200;" fill="rgb(33, 33, 33)" stroke="none" stroke-width="1px">250</text><text x="145.50520833333334" y="0" dx="0em" dy="0.95em" style="text-anchor: middle; visibility: inherit; font-family: Roboto, sans-serif; font-size: 12px; font-weight: 200;" fill="rgb(33, 33, 33)" stroke="none" stroke-width="1px">300</text><text x="166.29166666666666" y="0" dx="0em" dy="0.95em" style="text-anchor: middle; visibility: hidden; font-family: Roboto, sans-serif; font-size: 12px; font-weight: 200;" fill="rgb(33, 33, 33)" stroke="none" stroke-width="1px">350</text><text x="187.078125" y="0" dx="0em" dy="0.95em" style="text-anchor: middle; visibility: inherit; font-family: Roboto, sans-serif; font-size: 12px; font-weight: 200;" fill="rgb(33, 33, 33)" stroke="none" stroke-width="1px">400</text><text x="207.86458333333334" y="0" dx="0em" dy="0.95em" style="text-anchor: middle; visibility: hidden; font-family: Roboto, sans-serif; font-size: 12px; font-weight: 200;" fill="rgb(33, 33, 33)" stroke="none" stroke-width="1px">450</text><text x="228.65104166666666" y="0" dx="0em" dy="0.95em" style="text-anchor: middle; visibility: inherit; font-family: Roboto, sans-serif; font-size: 12px; font-weight: 200;" fill="rgb(33, 33, 33)" stroke="none" stroke-width="1px">500</text><text x="249.4375" y="0" dx="0em" dy="0.95em" style="text-anchor: middle; visibility: hidden; font-family: Roboto, sans-serif; font-size: 12px; font-weight: 200;" fill="rgb(33, 33, 33)" stroke="none" stroke-width="1px">550</text></g><line x1="0" y1="0" x2="249.4375" y2="0" fill="rgb(0, 0, 0)" stroke="rgb(204, 204, 204)" stroke-width="1px"></line></g></g></g></g></svg>