<svg viewBox="0 0 301 200" xmlns="http://www.w3.org/2000/svg"><g><g><g><g><g><line x1="30.78125" y1="177" x2="25.78125" y2="177" style="visibility: inherit;" fill="rgb(0, 0, 0)" stroke="rgb(204, 204, 204)" stroke-width="1px"></line><line x1="30.78125" y1="163.3846153846154" x2="25.78125" y2="163.3846153846154" style="visibility: inherit;" fill="rgb(0, 0, 0)" stroke="rgb(204, 204, 204)" stroke-width="1px"></line><line x1="30.78125" y1="149.76923076923077" x2="25.78125" y2="149.76923076923077" style="visibility: inherit;" fill="rgb(0, 0, 0)" stroke="rgb(204, 204, 204)" stroke-width="1px"></line><line x1="30.78125" y1="136.15384615384613" x2="25.78125" y2="136.15384615384613" style="visibility: inherit;" fill="rgb(0, 0, 0)" stroke="rgb(204, 204, 204)" stroke-width="1px"></line><line x1="30.78125" y1="122.53846153846153" x2="25.78125" y2="122.53846153846153" style="visibility: inherit;" fill="rgb(0, 0, 0)" stroke="rgb(204, 204, 204)" stroke-width="1px"></line><line x1="30.78125" y1="108.92307692307693" x2="25.78125" y2="108.92307692307693" style="visibility: inherit;" fill="rgb(0, 0, 0)" stroke="rgb(204, 204, 204)" stroke-width="1px"></line><line x1="30.78125" y1="95.3076923076923" x2="25.78125" y2="95.3076923076923" style="visibility: inherit;" fill="rgb(0, 0, 0)" stroke="rgb(204, 204, 204)" stroke-width="1px"></line><line x1="30.78125" y1="81.6923076923077" x2="25.78125" y2="81.6923076923077" style="visibility: inherit;" fill="rgb(0, 0, 0)" stroke="rgb(204, 204, 204)" stroke-width="1px"></line><line x1="30.78125" y1="68.07692307692307" x2="25.78125" y2="68.07692307692307" style="visibility: inherit;" fill="rgb(0, 0, 0)" stroke="rgb(204, 204, 204)" stroke-width="1px"></line><line x1="30.78125" y1="54.46153846153847" x2="25.78125" y2="54.46153846153847" style="visibility: inherit;" fill="rgb(0, 0, 0)" stroke="rgb(204, 204, 204)" stroke-width="1px"></line><line x1="30.78125" y1="40.84615384615384" x2="25.78125" y2="40.84615384615384" style="visibility: inherit;" fill="rgb(0, 0, 0)" stroke="rgb(204, 204, 204)" stroke-width="1px"></line><line x1="30.78125" y1="27.230769230769234" x2="25.78125" y2="27.230769230769234" style="visibility: inherit;" fill="rgb(0, 0, 0)" stroke="rgb(204, 204, 204)" stroke-width="1px"></line><line x1="30.78125" y1="13.615384615384606" x2="25.78125" y2="13.615384615384606" style="visibility: inherit;" fill="rgb(0, 0, 0)" stroke="rgb(204, 204, 204)" stroke-width="1px"></line><line x1="30.78125" y1="0" x2="25.78125" y2="0" style="visibility: inherit;" fill="rgb(0, 0, 0)" stroke="rgb(204, 204, 204)" stroke-width="1px"></line></g><g transform="translate(20.78125, 0)"><text x="0" y="177" dx="0em" dy="0.3em" style="text-anchor: end; visibility: hidden; font-family: Roboto, sans-serif; font-size: 12px; font-weight: 200;" fill="rgb(33, 33, 33)" stroke="none" stroke-width="1px">-5</text><text x="0" y="163.3846153846154" dx="0em" dy="0.3em" style="text-anchor: end; visibility: inherit; font-family: Roboto, sans-serif; font-size: 12px; font-weight: 200;" fill="rgb(33, 33, 33)" stroke="none" stroke-width="1px">0</text><text x="0" y="149.76923076923077" dx="0em" dy="0.3em" style="text-anchor: end; visibility: hidden; font-family: Roboto, sans-serif; font-size: 12px; font-weight: 200;" fill="rgb(33, 33, 33)" stroke="none" stroke-width="1px">5</text><text x="0" y="136.15384615384613" dx="0em" dy="0.3em" style="text-anchor: end; visibility: inherit; font-family: Roboto, sans-serif; font-size: 12px; font-weight: 200;" fill="rgb(33, 33, 33)" stroke="none" stroke-width="1px">10</text><text x="0" y="122.53846153846153" dx="0em" dy="0.3em" style="text-anchor: end; visibility: hidden; font-family: Roboto, sans-serif; font-size: 12px; font-weight: 200;" fill="rgb(33, 33, 33)" stroke="none" stroke-width="1px">15</text><text x="0" y="108.92307692307693" dx="0em" dy="0.3em" style="text-anchor: end; visibility: inherit; font-family: Roboto, sans-serif; font-size: 12px; font-weight: 200;" fill="rgb(33, 33, 33)" stroke="none" stroke-width="1px">20</text><text x="0" y="95.3076923076923" dx="0em" dy="0.3em" style="text-anchor: end; visibility: hidden; font-family: Roboto, sans-serif; font-size: 12px; font-weight: 200;" fill="rgb(33, 33, 33)" stroke="none" stroke-width="1px">25</text><text x="0" y="81.6923076923077" dx="0em" dy="0.3em" style="text-anchor: end; visibility: inherit; font-family: Roboto, sans-serif; font-size: 12px; font-weight: 200;" fill="rgb(33, 33, 33)" stroke="none" stroke-width="1px">30</text><text x="0" y="68.07692307692307" dx="0em" dy="0.3em" style="text-anchor: end; visibility: hidden; font-family: Roboto, sans-serif; font-size: 12px; font-weight: 200;" fill="rgb(33, 33, 33)" stroke="none" stroke-width="1px">35</text><text x="0" y="54.46153846153847" dx="0em" dy="0.3em" style="text-anchor: end; visibility: inherit; font-family: Roboto, sans-serif; font-size: 12px; font-weight: 200;" fill="rgb(33, 33, 33)" stroke="none" stroke-width="1px">40</text><text x="0" y="40.84615384615384" dx="0em" dy="0.3em" style="text-anchor: end; visibility: hidden; font-family: Roboto, sans-serif; font-size: 12px; font-weight: 200;" fill="rgb(33, 33, 33)" stroke="none" stroke-width="1px">45</text><text x="0" y="27.230769230769234" dx="0em" dy="0.3em" style="text-anchor: end; visibility: inherit; font-family: Roboto, sans-serif; font-size: 12px; font-weight: 200;" fill="rgb(33, 33, 33)" stroke="none" stroke-width="1px">50</text><text x="0" y="13.615384615384606" dx="0em" dy="0.3em" style="text-anchor: end; visibility: hidden; font-family: Roboto, sans-serif; font-size: 12px; font-weight: 200;" fill="rgb(33, 33, 33)" stroke="none" stroke-width="1px">55</text><text x="0" y="0" dx="0em" dy="0.3em" style="text-anchor: end; visibility: hidden; font-family: Roboto, sans-serif; font-size: 12px; font-weight: 200;" fill="rgb(33, 33, 33)" stroke="none" stroke-width="1px">60</text></g><line x1="30.78125" y1="0" x2="30.78125" y2="177" fill="rgb(0, 0, 0)" stroke="rgb(204, 204, 204)" stroke-width="1px"></line></g></g><g transform="translate(30, 0)" clip-path="url(#clip_0)"><clipPath id="clip_0"><rect width="299" height="177"></rect></clipPath><g><g><g><line x1="0" y1="0" x2="0" y2="177" fill="rgb(0, 0, 0)" stroke="rgb(66, 66, 66)" stroke-width="1px" opacity="0.25"></line><line x1="24.934895833333332" y1="0" x2="24.934895833333332" y2="177" fill="rgb(0, 0, 0)" stroke="rgb(66, 66, 66)" stroke-width="1px" opacity="0.25"></line><line x1="49.869791666666664" y1="0" x2="49.869791666666664" y2="177" fill="rgb(0, 0, 0)" stroke="rgb(66, 66, 66)" stroke-width="1px" opacity="0.25"></line><line x1="74.8046875" y1="0" x2="74.8046875" y2="177" fill="rgb(0, 0, 0)" stroke="rgb(66, 66, 66)" stroke-width="1px" opacity="0.25"></line><line x1="99.73958333333333" y1="0" x2="99.73958333333333" y2="177" fill="rgb(0, 0, 0)" stroke="rgb(66, 66, 66)" stroke-width="1px" opacity="0.25"></line><line x1="124.67447916666667" y1="0" x2="124.67447916666667" y2="177" fill="rgb(0, 0, 0)" stroke="rgb(66, 66, 66)" stroke-width="1px" opacity="0.25"></line><line x1="149.609375" y1="0" x2="149.609375" y2="177" fill="rgb(0, 0, 0)" stroke="rgb(66, 66, 66)" stroke-width="1px" opacity="0.25"></line><line x1="174.54427083333334" y1="0" x2="174.54427083333334" y2="177" fill="rgb(0, 0, 0)" stroke="rgb(66, 66, 66)" stroke-width="1px" opacity="0.25"></line><line x1="199.47916666666666" y1="0" x2="199.47916666666666" y2="177" fill="rgb(0, 0, 0)" stroke="rgb(66, 66, 66)" stroke-width="1px" opacity="0.25"></line><line x1="224.4140625" y1="0" x2="224.4140625" y2="177" fill="rgb(0, 0, 0)" stroke="rgb(66, 66, 66)" stroke-width="1px" opacity="0.25"></line><line x1="249.34895833333334" y1="0" x2="249.34895833333334" y2="177" fill="rgb(0, 0, 0)" stroke="rgb(66, 66, 66)" stroke-width="1px" opacity="0.25"></line><line x1="274.28385416666663" y1="0" x2="274.28385416666663" y2="177" fill="rgb(0, 0, 0)" stroke="rgb(66, 66, 66)" stroke-width="1px" opacity="0.25"></line><line x1="299.21875" y1="0" x2="299.21875" y2="177" fill="rgb(0, 0, 0)" stroke="rgb(66, 66, 66)" stroke-width="1px" opacity="0.25"></line></g><g><line x1="0" y1="177" x2="299.21875" y2="177" fill="rgb(0, 0, 0)" stroke="rgb(66, 66, 66)" stroke-width="1px" opacity="0.25"></line><line x1="0" y1="163.3846153846154" x2="299.21875" y2="163.3846153846154" fill="rgb(0, 0, 0)" stroke="rgb(66, 66, 66)" stroke-width="1px" opacity="0.25"></line><line x1="0" y1="149.76923076923077" x2="299.21875" y2="149.76923076923077" fill="rgb(0, 0, 0)" stroke="rgb(66, 66, 66)" stroke-width="1px" opacity="0.25"></line><line x1="0" y1="136.15384615384613" x2="299.21875" y2="136.15384615384613" fill="rgb(0, 0, 0)" stroke="rgb(66, 66, 66)" stroke-width="1px" opacity="0.25"></line><line x1="0" y1="122.53846153846153" x2="299.21875" y2="122.53846153846153" fill="rgb(0, 0, 0)" stroke="rgb(66, 66, 66)" stroke-width="1px" opacity="0.25"></line><line x1="0" y1="108.92307692307693" x2="299.21875" y2="108.92307692307693" fill="rgb(0, 0, 0)" stroke="rgb(66, 66, 66)" stroke-width="1px" opacity="0.25"></line><line x1="0" y1="95.3076923076923" x2="299.21875" y2="95.3076923076923" fill="rgb(0, 0, 0)" stroke="rgb(66, 66, 66)" stroke-width="1px" opacity="0.25"></line><line x1="0" y1="81.6923076923077" x2="299.21875" y2="81.6923076923077" fill="rgb(0, 0, 0)" stroke="rgb(66, 66, 66)" stroke-width="1px" opacity="0.25"></line><line x1="0" y1="68.07692307692307" x2="299.21875" y2="68.07692307692307" fill="rgb(0, 0, 0)" stroke="rgb(66, 66, 66)" stroke-width="1px" opacity="0.25"></line><line x1="0" y1="54.46153846153847" x2="299.21875" y2="54.46153846153847" fill="rgb(0, 0, 0)" stroke="rgb(66, 66, 66)" stroke-width="1px" opacity="0.25"></line><line x1="0" y1="40.84615384615384" x2="299.21875" y2="40.84615384615384" fill="rgb(0, 0, 0)" stroke="rgb(66, 66, 66)" stroke-width="1px" opacity="0.25"></line><line x1="0" y1="27.230769230769234" x2="299.21875" y2="27.230769230769234" fill="rgb(0, 0, 0)" stroke="rgb(66, 66, 66)" stroke-width="1px" opacity="0.25"></line><line x1="0" y1="13.615384615384606" x2="299.21875" y2="13.615384615384606" fill="rgb(0, 0, 0)" stroke="rgb(66, 66, 66)" stroke-width="1px" opacity="0.25"></line><line x1="0" y1="0" x2="299.21875" y2="0" fill="rgb(0, 0, 0)" stroke="rgb(66, 66, 66)" stroke-width="1px" opacity="0.25"></line></g></g></g><g><g><line x1="0" y1="163.3846153846154" x2="299.21875" y2="163.3846153846154" fill="rgb(0, 0, 0)" stroke="rgb(153, 153, 153)" stroke-width="1.5px"></line></g></g><g><g><line x1="24.934895833333332" y1="0" x2="24.934895833333332" y2="177" fill="rgb(0, 0, 0)" stroke="rgb(153, 153, 153)" stroke-width="1.5px"></line></g></g><g><g><g><g><g><path stroke="rgb(204, 51, 17)" stroke-width="2px" d="M36.40494791666667,-10.914578951322106L36.903645833333336,2.7500849797175384L37.40234375,16.00894247201773L37.90104166666667,26.114630126953116L38.39973958333333,33.37749129075271L38.8984375,42.81344146728515L39.397135416666664,53.57679607684796L39.895833333333336,62.184388380784256L40.39453125,68.21675209632286L40.893229166666664,74.65243958693284L41.391927083333336,77.2319738828219L41.89062500000001,82.48452670757587L42.389322916666664,88.33156321598933L42.888020833333336,91.97760931161733L43.38671875,97.10574329082783L43.885416666666664,99.74180233295147L44.384114583333336,103.39523928715633L44.8828125,106.21235099205605L45.38151041666667,110.04608749976524L45.88020833333333,113.9193388718825L46.37890625,114.04426152155949L46.87760416666667,114.11768188476562L47.37630208333333,115.51502160292405L47.875,119.91772956848145L48.373697916666664,121.63038834791915L48.872395833333336,122.97649586017315L49.37109375,124.38456608698918L49.869791666666664,125.86209636101356L50.368489583333336,128.57379094637358L50.86718750000001,130.1158211341271L51.365885416666664,130.8598229775062L51.864583333333336,132.32263905451848L52.36328125,133.55252882150504L52.861979166666664,134.09014496436487L53.360677083333336,134.44233521681565L53.859375,134.48910589951734L54.35807291666667,134.14634249760556L54.85677083333333,135.87293120164136L55.35546875,137.5151924426739L55.85416666666667,137.86801634568434L56.35286458333333,138.87268488957332L56.8515625,140.09904802762543L57.35026041666667,140.81026364839994L57.84895833333333,140.78198309678297L58.34765625,141.14321845127986L58.846354166666664,141.92099075317384L59.345052083333336,142.91108793111948L59.84375,142.877726488847L60.342447916666664,143.56401808812066L60.841145833333336,144.14543662438027L61.33984374999999,144.77233516986553L61.838541666666664,145.43902904803937L62.337239583333336,146.10693439336922L62.8359375,146.46840476989746L63.334635416666664,145.666613476093L63.833333333333336,146.4702382014348L64.33203125,147.4361320055448L64.83072916666667,147.97242241639358L65.32942708333333,146.30079380915717L65.828125,145.07684191923875L66.32682291666667,146.4223014978262L66.82552083333333,145.6778711612408L67.32421875,147.12006243192232L67.82291666666666,146.94128467853253L68.32161458333333,145.0305594590994L68.8203125,146.88785806802605L69.31901041666667,148.24121490625237L69.81770833333333,149.2219462614793L70.31640625,147.62761263480553L70.81510416666667,149.61828689575196L71.31380208333334,151.47442987148577L71.8125,151.04232563605674L72.31119791666667,151.43330620985765L72.80989583333334,151.57931721760676L73.30859375,152.69688982596765L73.80729166666667,152.9172619342804L74.30598958333333,153.216692337623L74.8046875,154.84636107224685L75.30338541666666,154.26002784875723L75.80208333333334,153.39630954815792L76.30078125,153.47406418506915L76.79947916666666,153.96787014374365L77.29817708333334,154.4529965180617L77.796875,154.3635608966534L78.29557291666666,155.0990422175481L78.79427083333333,155.16637602952812L79.29296875,155.5008552294511L79.79166666666667,155.79416856765747L80.29036458333333,156.02312027857855L80.7890625,156.01894701444186L81.28776041666667,156.51192779907814L81.78645833333333,156.6244598535391L82.28515625,156.22459908265333L82.78385416666667,156.94237000025237L83.28255208333333,156.35543299088113L83.78125000000001,157.34386358994703L84.27994791666667,156.95651871607853L84.77864583333333,156.77660610492413L85.27734374999999,157.55147763765774L85.77604166666667,157.5564747773684L86.27473958333333,157.77966585159302L86.7734375,157.92781153458816L87.27213541666667,158.19712016399092L87.77083333333333,158.12757279506096L88.26953125,158.45125818619363L88.76822916666667,158.26107342426593L89.26692708333333,158.00239434792445L89.765625,158.4656367301941L90.26432291666667,158.2461680283913L90.76302083333334,158.6486286493448L91.26171875,158.12543779519888L91.76041666666666,158.79859964847566L92.25911458333334,158.71891029981467L92.7578125,159.04257166935847L93.25651041666666,158.88594344395858L93.75520833333334,159.04039024939902L94.25390625,158.6899899299328L94.75260416666666,159.2950333741995L95.25130208333334,159.13125158456654L95.75,159.1292561696126L96.24869791666666,158.84209820123817L96.74739583333333,158.03685396634614L97.24609375,156.44332928290734L97.74479166666667,156.98591724542473L98.24348958333333,158.314115689351L98.7421875,158.50877236219554L99.24088541666667,158.4482126382681L99.73958333333333,158.93017075978793L100.23828125,158.92116201474116L100.73697916666667,158.78096488072322L101.23567708333333,158.26336488907154L101.73437500000001,158.4982736294086L102.23307291666667,158.2706336920078L102.73177083333333,158.66936609745025L103.23046874999999,158.3067170399886L103.72916666666667,158.67395389630244L104.22786458333333,157.11875143784744L104.7265625,157.81316752800575L105.22526041666667,157.75735563865075L105.72395833333333,158.33757244623624L106.22265625,157.76361293792723L106.72135416666667,157.83027089925912L107.22005208333333,157.75187611946694L107.71875,158.12484115087068L108.21744791666667,158.18005964205815L108.71614583333334,158.32191004569714L109.21484375,158.3089406600365L109.71354166666666,157.9845975967554L110.21223958333334,158.7196452305867L110.7109375,158.5088178084447L111.20963541666666,158.3263056718386L111.70833333333334,157.78075656157273L112.20703125,157.21649593206553L112.70572916666666,156.85006801898663L113.20442708333334,157.64582924476036L113.703125,157.9663480061751L114.20182291666666,157.62242118028496L114.70052083333334,158.27057298880356L115.19921875,157.82156404715317L115.69791666666666,158.40187499339766L116.19661458333333,158.228558580692L116.6953125,158.05380833882552L117.19401041666667,157.9196260158832L117.69270833333333,157.39251315043524L118.19140625,158.28852166029122L118.69010416666667,158.08812155540173L119.18880208333333,158.02290586324838L119.6875,157.63374184094943L120.18619791666667,159.05876124638777L120.68489583333333,158.88522506860585L121.18359375000001,158.97046080736015L121.68229166666667,159.16504703851848L122.18098958333333,159.19030346687023L122.67968749999999,159.54627257493826L123.17838541666667,159.369890163495L123.67708333333333,158.74498054064236L124.17578125,153.8675890995906L124.67447916666667,153.46025047302246L125.17317708333333,155.06964498666616L125.671875,156.05618502176725L126.17057291666667,155.58751733119672L126.66927083333333,156.16478792337273L127.16796875,156.83389499737666L127.66666666666667,157.1104854143583L128.16536458333334,157.4989015212426L128.6640625,157.3937700638404L129.16276041666666,157.99173882557795L129.66145833333334,158.47791500825147L130.16015625,159.23793860215406L130.65885416666666,158.8734249500128L131.15755208333334,159.485301562456L131.65625,159.68202117039607L132.15494791666666,159.904474067688L132.65364583333334,159.89358612023867L133.15234375,159.84438471243934L133.65104166666666,159.81493943837972L134.14973958333331,159.4982952943215L134.6484375,158.98033790038184L135.14713541666666,157.5287188053131L135.64583333333331,157.59425619198726L136.14453125,157.86641624890842L136.64322916666666,159.0531648654204L137.14192708333331,159.00526938805214L137.640625,158.58342237105737L138.13932291666666,158.96285797449258L138.63802083333334,159.5931731040661L139.13671875,159.56435336516452L139.63541666666666,159.17888249984154L140.13411458333334,158.5997615960928L140.6328125,159.638927089251L141.13151041666666,159.69617767700782L141.63020833333334,159.93461531859177L142.12890625,159.22792679346526L142.62760416666669,158.87751381397248L143.12630208333334,158.37856301527756L143.625,158.80375714852258L144.12369791666669,158.91425483410174L144.62239583333334,159.28728965795958L145.12109375,159.06188762371357L145.61979166666669,159.2479737831996L146.11848958333334,159.32089293920077L146.6171875,159.89260772741758L147.11588541666666,159.89100574713487L147.61458333333334,159.58118146199448L148.11328125,159.29159536545092L148.61197916666666,158.56422327848583L149.11067708333334,158.07071791428785L149.609375,159.22770994993357L150.10807291666669,159.51536717781653L150.60677083333331,159.76064318143403L151.10546875,159.23249089534465L151.60416666666669,159.56836691819706L152.10286458333331,159.33496277332307L152.6015625,160.09248098043295L153.10026041666669,159.6233773304866L153.59895833333331,160.39123683159167L154.09765625,159.88193922042848L154.59635416666669,159.97315763326793L155.09505208333331,159.5451617387625L155.59375,159.87368910312654L156.09244791666666,159.70200388614947L156.59114583333331,160.3487955533541L157.08984375,159.3845176880176L157.58854166666666,159.5813632469911L158.08723958333334,159.88533015984754L158.5859375,160.8140005643551L159.08463541666666,160.5177679538727L159.58333333333334,159.95836163300734L160.08203125,159.48609232719127L160.58072916666666,159.7234506203578L161.07942708333334,158.4067455328428L161.578125,159.15945033293505L162.07682291666666,159.0193862915039L162.57552083333334,160.05631712766794L163.07421875,159.99031196924358L163.57291666666666,159.67102480118092L164.07161458333334,160.19436692641332L164.5703125,160.49921549650338L165.06901041666666,160.88489655072874L165.56770833333334,161.07399579653372L166.06640625000003,160.97254824454967L166.56510416666666,161.13456574586723L167.06380208333334,160.9343432059655L167.56250000000003,161.00148565677495L168.06119791666666,160.3946121894396L168.55989583333334,159.32842403191788L169.05859374999997,157.65668700291562L169.55729166666666,158.06033604328448L170.05598958333334,158.44511872254884L170.55468749999997,159.93952870735757L171.05338541666666,160.53723420546604L171.55208333333334,160.5314342902257L172.05078125,160.85385530178363L172.54947916666666,161.08092894645836L173.04817708333334,160.56587540553167L173.546875,160.55551755611714L174.04557291666666,159.66095423698425L174.54427083333334,159.90561217161326L175.04296875,158.84859701486732L175.54166666666666,159.74901673243596L176.04036458333334,159.5128264078727L176.5390625,160.17794817044185L177.03776041666666,160.20323511270377L177.53645833333334,160.40143399605384L178.03515625,160.19226341430956L178.53385416666666,160.64257990947135L179.03255208333334,160.21823691954978L179.53125,159.77174115547768L180.02994791666669,158.72631933689118L180.52864583333334,158.463144328044L181.02734375,158.7023143034715L181.52604166666669,160.31122448994563L182.02473958333331,160.53194523591262L182.5234375,160.5659792826726L183.02213541666669,161.13306926580577L183.52083333333331,160.7794469695825L184.01953125,160.87409413961262L184.51822916666669,160.21206824045916L185.01692708333331,159.54774438417874L185.515625,158.38991581293254L186.01432291666669,159.05607829460732L186.51302083333331,158.9778136858573L187.01171875,160.77389035408314L187.51041666666669,160.77007611531477L188.00911458333331,161.36400860089523L188.5078125,161.4237533761905L189.00651041666669,161.67694205870995L189.50520833333331,161.66502507833334L190.00390625,160.7731565594673L190.50260416666669,157.0335741299849L191.00130208333331,157.16248760956984L191.5,159.6500159740448L191.99869791666669,160.12459394931793L192.49739583333331,161.28221557782248L192.99609375,161.0304173882191L193.49479166666666,161.23911938667297L193.99348958333331,161.43156737180857L194.4921875,161.5958961395117L194.99088541666666,161.72886342452122L195.48958333333334,161.73776309857L195.98828125,161.8505490027941L196.48697916666666,161.98970541770643L196.98567708333334,161.85994079479804L197.484375,161.11390133637647L197.98307291666666,157.21172147897573L198.48177083333334,151.33722504835862L198.98046875,152.40646102611834L199.47916666666666,152.5595902149494L199.97786458333334,155.78420869753913L200.4765625,156.93548229657688L200.97526041666666,158.62738317709702L201.47395833333334,158.7371576180825L201.97265625,159.3704773939573L202.47135416666666,160.15873933938832L202.97005208333334,159.7824742610638L203.46875000000003,160.443793795659L203.96744791666666,160.04197558989893L204.46614583333334,160.487880552732L204.96484375000003,160.49994393495413L205.46354166666666,160.72728003171773L205.96223958333334,160.8183023764537L206.46093749999997,161.2143226146698L206.95963541666666,161.15857110390297L207.45833333333334,161.08403406143188L207.95703124999997,161.08647030500265L208.45572916666666,161.2167476589863L208.95442708333334,161.25281136769516L209.453125,161.40626241335502L209.95182291666666,161.57366837905002L210.45052083333334,161.69093252420424L210.94921875,161.26193291682463L211.44791666666666,161.23266877852953L211.94661458333334,161.29883251190185L212.4453125,161.2197612322294L212.94401041666666,161.39369084468254L213.44270833333334,161.44396673165835L213.94140625,161.65979405274757L214.44010416666666,161.75045948211962L214.93880208333334,161.84616392667476L215.4375,161.89868242373834L215.93619791666666,161.97025344921994L216.43489583333334,161.68696636511729L216.93359375,160.8682614381497L217.43229166666669,158.2656436938506L217.93098958333334,154.1628923342778L218.4296875,154.74239563575156L218.92838541666669,157.84888763060937L219.42708333333331,159.7020892601747L219.92578125,160.3908820262322L220.42447916666669,160.9971099945215L220.92317708333331,161.41137170791626L221.421875,161.57273072554514L221.92057291666669,161.46913681213672L222.41927083333331,161.40627296337715L222.91796875,161.52921853890786L223.41666666666669,161.69392337432274L223.91536458333331,161.84411430083787L224.4140625,161.893915112202L224.91276041666669,161.57852528462044L225.41145833333331,160.6405039897332L225.91015625,160.3948504576316L226.40885416666669,160.9329593676787L226.90755208333331,161.57134412802182L227.40625,160.93687017972653L227.90494791666669,159.59951740044815L228.40364583333331,159.8991208241536L228.90234375,160.81318707649524L229.40104166666669,160.6988670367461L229.89973958333331,160.88220304892613L230.3984375,160.95263597048245L230.89713541666666,161.2435013789397L231.39583333333331,161.5794335603714L231.89453125,161.8460847203548L232.39322916666666,161.72454505700333L232.89192708333334,161.93936525674968L233.390625,162.01021660841428L233.88932291666666,162.2219264993301L234.38802083333334,162.25602863430976L234.88671875,162.3683242871211L235.38541666666666,162.10598143155758L235.88411458333334,161.43750395041246L236.3828125,160.24145216208237L236.88151041666666,156.25876102814308L237.38020833333334,157.99664474817422L237.87890625,159.9056069777562L238.37760416666666,160.52019965281852L238.87630208333334,160.67816172563113L239.375,161.40979618384287L239.87369791666666,161.80225781844214L240.37239583333334,161.9123162984848L240.87109375000003,161.9502845296493L241.36979166666666,162.1548094497277L241.86848958333334,161.97156749505262L242.36718750000003,161.92416575871982L242.86588541666666,161.2685583307193L243.36458333333334,160.71132498979568L243.86328124999997,160.93599111942143L244.36197916666666,160.8022915005684L244.86067708333334,160.779251063787L245.35937499999997,159.92110771949476L245.85807291666666,160.47764475895806L246.35677083333334,161.2179657807717L246.85546875,161.63369037646513L247.35416666666666,162.04790209898582L247.85286458333334,162.21983645879305L248.3515625,162.39733343949683L248.85026041666666,162.02037676664497L249.34895833333334,161.85526112959937L249.84765625,161.10091490837243L250.34635416666666,159.76371340018054L250.84505208333334,160.18737372251655L251.34375,160.8684179030932L251.84244791666666,160.79320695767035L252.34114583333334,160.82069658224398L252.83984375,161.17764262236082L253.33854166666666,161.8283720447467L253.83723958333334,162.08196617273182L254.3359375,162.4612560235537L254.83463541666669,162.49964739175942L255.33333333333334,162.46434036309904L255.83203125,162.4656493773827L256.3307291666667,162.33404913177856L256.8294270833333,162.10040866640898L257.328125,161.16190166473388L257.8268229166667,158.8803519322322L258.3255208333333,159.8402117729187L258.82421875,160.38970983762007L259.3229166666667,159.4006316295037L259.8216145833333,159.91035481232862L260.3203125,160.9061405622042L260.8190104166667,161.46367904222927L261.3177083333333,161.56469517946243L261.81640625,161.71956560886824L262.3151041666667,161.32983464461105L262.8138020833333,161.54838127448008L263.3125,162.1991149168748L263.8111979166667,162.35688108389195L264.3098958333333,162.4503820345952L264.80859375,162.17349597353203L265.3072916666667,161.57645326027503L265.8059895833333,160.80839412028973L266.3046875,161.8359930561139L266.8033854166667,162.40732073967274L267.3020833333333,162.63792718098713L267.80078125,162.2911968084482L268.29947916666663,161.09650905682489L268.7981770833333,160.0322591818296L269.296875,157.16979212027329L269.79557291666663,159.50928809275993L270.2942708333333,160.8281919671939L270.79296875,161.22290189266204L271.29166666666663,161.43913368536877L271.7903645833333,161.51599497886804L272.2890625,161.8717324733734L272.78776041666663,162.12203629291974L273.2864583333333,162.44099754645273L273.78515625,162.3171587086641" style="fill: none;" fill="none"></path></g></g></g></g></g></g><g transform="translate(30, 177)" clip-path="url(#clip_1)"><clipPath id="clip_1"><rect width="299" height="23"></rect></clipPath><g><g><line x1="0" y1="0" x2="0" y2="5" style="visibility: inherit;" fill="rgb(0, 0, 0)" stroke="rgb(204, 204, 204)" stroke-width="1px"></line><line x1="24.934895833333332" y1="0" x2="24.934895833333332" y2="5" style="visibility: inherit;" fill="rgb(0, 0, 0)" stroke="rgb(204, 204, 204)" stroke-width="1px"></line><line x1="49.869791666666664" y1="0" x2="49.869791666666664" y2="5" style="visibility: inherit;" fill="rgb(0, 0, 0)" stroke="rgb(204, 204, 204)" stroke-width="1px"></line><line x1="74.8046875" y1="0" x2="74.8046875" y2="5" style="visibility: inherit;" fill="rgb(0, 0, 0)" stroke="rgb(204, 204, 204)" stroke-width="1px"></line><line x1="99.73958333333333" y1="0" x2="99.73958333333333" y2="5" style="visibility: inherit;" fill="rgb(0, 0, 0)" stroke="rgb(204, 204, 204)" stroke-width="1px"></line><line x1="124.67447916666667" y1="0" x2="124.67447916666667" y2="5" style="visibility: inherit;" fill="rgb(0, 0, 0)" stroke="rgb(204, 204, 204)" stroke-width="1px"></line><line x1="149.609375" y1="0" x2="149.609375" y2="5" style="visibility: inherit;" fill="rgb(0, 0, 0)" stroke="rgb(204, 204, 204)" stroke-width="1px"></line><line x1="174.54427083333334" y1="0" x2="174.54427083333334" y2="5" style="visibility: inherit;" fill="rgb(0, 0, 0)" stroke="rgb(204, 204, 204)" stroke-width="1px"></line><line x1="199.47916666666666" y1="0" x2="199.47916666666666" y2="5" style="visibility: inherit;" fill="rgb(0, 0, 0)" stroke="rgb(204, 204, 204)" stroke-width="1px"></line><line x1="224.4140625" y1="0" x2="224.4140625" y2="5" style="visibility: inherit;" fill="rgb(0, 0, 0)" stroke="rgb(204, 204, 204)" stroke-width="1px"></line><line x1="249.34895833333334" y1="0" x2="249.34895833333334" y2="5" style="visibility: inherit;" fill="rgb(0, 0, 0)" stroke="rgb(204, 204, 204)" stroke-width="1px"></line><line x1="274.28385416666663" y1="0" x2="274.28385416666663" y2="5" style="visibility: inherit;" fill="rgb(0, 0, 0)" stroke="rgb(204, 204, 204)" stroke-width="1px"></line><line x1="299.21875" y1="0" x2="299.21875" y2="5" style="visibility: inherit;" fill="rgb(0, 0, 0)" stroke="rgb(204, 204, 204)" stroke-width="1px"></line></g><g transform="translate(0, 8)"><text x="0" y="0" dx="0em" dy="0.95em" style="text-anchor: middle; visibility: hidden; font-family: Roboto, sans-serif; font-size: 12px; font-weight: 200;" fill="rgb(33, 33, 33)" stroke="none" stroke-width="1px">-50</text><text x="24.934895833333332" y="0" dx="0em" dy="0.95em" style="text-anchor: middle; visibility: inherit; font-family: Roboto, sans-serif; font-size: 12px; font-weight: 200;" fill="rgb(33, 33, 33)" stroke="none" stroke-width="1px">0</text><text x="49.869791666666664" y="0" dx="0em" dy="0.95em" style="text-anchor: middle; visibility: inherit; font-family: Roboto, sans-serif; font-size: 12px; font-weight: 200;" fill="rgb(33, 33, 33)" stroke="none" stroke-width="1px">50</text><text x="74.8046875" y="0" dx="0em" dy="0.95em" style="text-anchor: middle; visibility: inherit; font-family: Roboto, sans-serif; font-size: 12px; font-weight: 200;" fill="rgb(33, 33, 33)" stroke="none" stroke-width="1px">100</text><text x="99.73958333333333" y="0" dx="0em" dy="0.95em" style="text-anchor: middle; visibility: inherit; font-family: Roboto, sans-serif; font-size: 12px; font-weight: 200;" fill="rgb(33, 33, 33)" stroke="none" stroke-width="1px">150</text><text x="124.67447916666667" y="0" dx="0em" dy="0.95em" style="text-anchor: middle; visibility: inherit; font-family: Roboto, sans-serif; font-size: 12px; font-weight: 200;" fill="rgb(33, 33, 33)" stroke="none" stroke-width="1px">200</text><text x="149.609375" y="0" dx="0em" dy="0.95em" style="text-anchor: middle; visibility: inherit; font-family: Roboto, sans-serif; font-size: 12px; font-weight: 200;" fill="rgb(33, 33, 33)" stroke="none" stroke-width="1px">250</text><text x="174.54427083333334" y="0" dx="0em" dy="0.95em" style="text-anchor: middle; visibility: inherit; font-family: Roboto, sans-serif; font-size: 12px; font-weight: 200;" fill="rgb(33, 33, 33)" stroke="none" stroke-width="1px">300</text><text x="199.47916666666666" y="0" dx="0em" dy="0.95em" style="text-anchor: middle; visibility: inherit; font-family: Roboto, sans-serif; font-size: 12px; font-weight: 200;" fill="rgb(33, 33, 33)" stroke="none" stroke-width="1px">350</text><text x="224.4140625" y="0" dx="0em" dy="0.95em" style="text-anchor: middle; visibility: inherit; font-family: Roboto, sans-serif; font-size: 12px; font-weight: 200;" fill="rgb(33, 33, 33)" stroke="none" stroke-width="1px">400</text><text x="249.34895833333334" y="0" dx="0em" dy="0.95em" style="text-anchor: middle; visibility: inherit; font-family: Roboto, sans-serif; font-size: 12px; font-weight: 200;" fill="rgb(33, 33, 33)" stroke="none" stroke-width="1px">450</text><text x="274.28385416666663" y="0" dx="0em" dy="0.95em" style="text-anchor: middle; visibility: inherit; font-family: Roboto, sans-serif; font-size: 12px; font-weight: 200;" fill="rgb(33, 33, 33)" stroke="none" stroke-width="1px">500</text><text x="299.21875" y="0" dx="0em" dy="0.95em" style="text-anchor: middle; visibility: hidden; font-family: Roboto, sans-serif; font-size: 12px; font-weight: 200;" fill="rgb(33, 33, 33)" stroke="none" stroke-width="1px">550</text></g><line x1="0" y1="0" x2="299.21875" y2="0" fill="rgb(0, 0, 0)" stroke="rgb(204, 204, 204)" stroke-width="1px"></line></g></g></g></g></svg>