<svg viewBox="0 0 301 200" xmlns="http://www.w3.org/2000/svg"><g><g><g><g><g><line x1="41.171875" y1="177" x2="36.171875" y2="177" style="visibility: inherit;" fill="rgb(0, 0, 0)" stroke="rgb(204, 204, 204)" stroke-width="1px"></line><line x1="41.171875" y1="154.875" x2="36.171875" y2="154.875" style="visibility: inherit;" fill="rgb(0, 0, 0)" stroke="rgb(204, 204, 204)" stroke-width="1px"></line><line x1="41.171875" y1="132.75" x2="36.171875" y2="132.75" style="visibility: inherit;" fill="rgb(0, 0, 0)" stroke="rgb(204, 204, 204)" stroke-width="1px"></line><line x1="41.171875" y1="110.625" x2="36.171875" y2="110.625" style="visibility: inherit;" fill="rgb(0, 0, 0)" stroke="rgb(204, 204, 204)" stroke-width="1px"></line><line x1="41.171875" y1="88.5" x2="36.171875" y2="88.5" style="visibility: inherit;" fill="rgb(0, 0, 0)" stroke="rgb(204, 204, 204)" stroke-width="1px"></line><line x1="41.171875" y1="66.375" x2="36.171875" y2="66.375" style="visibility: inherit;" fill="rgb(0, 0, 0)" stroke="rgb(204, 204, 204)" stroke-width="1px"></line><line x1="41.171875" y1="44.25" x2="36.171875" y2="44.25" style="visibility: inherit;" fill="rgb(0, 0, 0)" stroke="rgb(204, 204, 204)" stroke-width="1px"></line><line x1="41.171875" y1="22.125" x2="36.171875" y2="22.125" style="visibility: inherit;" fill="rgb(0, 0, 0)" stroke="rgb(204, 204, 204)" stroke-width="1px"></line><line x1="41.171875" y1="0" x2="36.171875" y2="0" style="visibility: inherit;" fill="rgb(0, 0, 0)" stroke="rgb(204, 204, 204)" stroke-width="1px"></line></g><g transform="translate(31.171875, 0)"><text x="0" y="177" dx="0em" dy="0.3em" style="text-anchor: end; visibility: hidden; font-family: Roboto, sans-serif; font-size: 12px; font-weight: 200;" fill="rgb(33, 33, 33)" stroke="none" stroke-width="1px">-50</text><text x="0" y="154.875" dx="0em" dy="0.3em" style="text-anchor: end; visibility: inherit; font-family: Roboto, sans-serif; font-size: 12px; font-weight: 200;" fill="rgb(33, 33, 33)" stroke="none" stroke-width="1px">0</text><text x="0" y="132.75" dx="0em" dy="0.3em" style="text-anchor: end; visibility: hidden; font-family: Roboto, sans-serif; font-size: 12px; font-weight: 200;" fill="rgb(33, 33, 33)" stroke="none" stroke-width="1px">50</text><text x="0" y="110.625" dx="0em" dy="0.3em" style="text-anchor: end; visibility: inherit; font-family: Roboto, sans-serif; font-size: 12px; font-weight: 200;" fill="rgb(33, 33, 33)" stroke="none" stroke-width="1px">100</text><text x="0" y="88.5" dx="0em" dy="0.3em" style="text-anchor: end; visibility: hidden; font-family: Roboto, sans-serif; font-size: 12px; font-weight: 200;" fill="rgb(33, 33, 33)" stroke="none" stroke-width="1px">150</text><text x="0" y="66.375" dx="0em" dy="0.3em" style="text-anchor: end; visibility: inherit; font-family: Roboto, sans-serif; font-size: 12px; font-weight: 200;" fill="rgb(33, 33, 33)" stroke="none" stroke-width="1px">200</text><text x="0" y="44.25" dx="0em" dy="0.3em" style="text-anchor: end; visibility: hidden; font-family: Roboto, sans-serif; font-size: 12px; font-weight: 200;" fill="rgb(33, 33, 33)" stroke="none" stroke-width="1px">250</text><text x="0" y="22.125" dx="0em" dy="0.3em" style="text-anchor: end; visibility: inherit; font-family: Roboto, sans-serif; font-size: 12px; font-weight: 200;" fill="rgb(33, 33, 33)" stroke="none" stroke-width="1px">300</text><text x="0" y="0" dx="0em" dy="0.3em" style="text-anchor: end; visibility: hidden; font-family: Roboto, sans-serif; font-size: 12px; font-weight: 200;" fill="rgb(33, 33, 33)" stroke="none" stroke-width="1px">350</text></g><line x1="41.171875" y1="0" x2="41.171875" y2="177" fill="rgb(0, 0, 0)" stroke="rgb(204, 204, 204)" stroke-width="1px"></line></g></g><g transform="translate(41, 0)" clip-path="url(#clip_0)"><clipPath id="clip_0"><rect width="288" height="177"></rect></clipPath><g><g><g><line x1="0" y1="0" x2="0" y2="177" fill="rgb(0, 0, 0)" stroke="rgb(66, 66, 66)" stroke-width="1px" opacity="0.25"></line><line x1="24.069010416666664" y1="0" x2="24.069010416666664" y2="177" fill="rgb(0, 0, 0)" stroke="rgb(66, 66, 66)" stroke-width="1px" opacity="0.25"></line><line x1="48.13802083333333" y1="0" x2="48.13802083333333" y2="177" fill="rgb(0, 0, 0)" stroke="rgb(66, 66, 66)" stroke-width="1px" opacity="0.25"></line><line x1="72.20703125" y1="0" x2="72.20703125" y2="177" fill="rgb(0, 0, 0)" stroke="rgb(66, 66, 66)" stroke-width="1px" opacity="0.25"></line><line x1="96.27604166666666" y1="0" x2="96.27604166666666" y2="177" fill="rgb(0, 0, 0)" stroke="rgb(66, 66, 66)" stroke-width="1px" opacity="0.25"></line><line x1="120.34505208333334" y1="0" x2="120.34505208333334" y2="177" fill="rgb(0, 0, 0)" stroke="rgb(66, 66, 66)" stroke-width="1px" opacity="0.25"></line><line x1="144.4140625" y1="0" x2="144.4140625" y2="177" fill="rgb(0, 0, 0)" stroke="rgb(66, 66, 66)" stroke-width="1px" opacity="0.25"></line><line x1="168.48307291666669" y1="0" x2="168.48307291666669" y2="177" fill="rgb(0, 0, 0)" stroke="rgb(66, 66, 66)" stroke-width="1px" opacity="0.25"></line><line x1="192.55208333333331" y1="0" x2="192.55208333333331" y2="177" fill="rgb(0, 0, 0)" stroke="rgb(66, 66, 66)" stroke-width="1px" opacity="0.25"></line><line x1="216.62109375" y1="0" x2="216.62109375" y2="177" fill="rgb(0, 0, 0)" stroke="rgb(66, 66, 66)" stroke-width="1px" opacity="0.25"></line><line x1="240.69010416666669" y1="0" x2="240.69010416666669" y2="177" fill="rgb(0, 0, 0)" stroke="rgb(66, 66, 66)" stroke-width="1px" opacity="0.25"></line><line x1="264.7591145833333" y1="0" x2="264.7591145833333" y2="177" fill="rgb(0, 0, 0)" stroke="rgb(66, 66, 66)" stroke-width="1px" opacity="0.25"></line><line x1="288.828125" y1="0" x2="288.828125" y2="177" fill="rgb(0, 0, 0)" stroke="rgb(66, 66, 66)" stroke-width="1px" opacity="0.25"></line></g><g><line x1="0" y1="177" x2="288.828125" y2="177" fill="rgb(0, 0, 0)" stroke="rgb(66, 66, 66)" stroke-width="1px" opacity="0.25"></line><line x1="0" y1="154.875" x2="288.828125" y2="154.875" fill="rgb(0, 0, 0)" stroke="rgb(66, 66, 66)" stroke-width="1px" opacity="0.25"></line><line x1="0" y1="132.75" x2="288.828125" y2="132.75" fill="rgb(0, 0, 0)" stroke="rgb(66, 66, 66)" stroke-width="1px" opacity="0.25"></line><line x1="0" y1="110.625" x2="288.828125" y2="110.625" fill="rgb(0, 0, 0)" stroke="rgb(66, 66, 66)" stroke-width="1px" opacity="0.25"></line><line x1="0" y1="88.5" x2="288.828125" y2="88.5" fill="rgb(0, 0, 0)" stroke="rgb(66, 66, 66)" stroke-width="1px" opacity="0.25"></line><line x1="0" y1="66.375" x2="288.828125" y2="66.375" fill="rgb(0, 0, 0)" stroke="rgb(66, 66, 66)" stroke-width="1px" opacity="0.25"></line><line x1="0" y1="44.25" x2="288.828125" y2="44.25" fill="rgb(0, 0, 0)" stroke="rgb(66, 66, 66)" stroke-width="1px" opacity="0.25"></line><line x1="0" y1="22.125" x2="288.828125" y2="22.125" fill="rgb(0, 0, 0)" stroke="rgb(66, 66, 66)" stroke-width="1px" opacity="0.25"></line><line x1="0" y1="0" x2="288.828125" y2="0" fill="rgb(0, 0, 0)" stroke="rgb(66, 66, 66)" stroke-width="1px" opacity="0.25"></line></g></g></g><g><g><line x1="0" y1="154.875" x2="288.828125" y2="154.875" fill="rgb(0, 0, 0)" stroke="rgb(153, 153, 153)" stroke-width="1.5px"></line></g></g><g><g><line x1="24.069010416666664" y1="0" x2="24.069010416666664" y2="177" fill="rgb(0, 0, 0)" stroke="rgb(153, 153, 153)" stroke-width="1.5px"></line></g></g><g><g><g><g><g><path stroke="rgb(204, 51, 17)" stroke-width="2px" d="M35.14075520833334,-13.938263854980466L35.622135416666666,7.422259597778322L36.103515625,21.434471511840812L36.584895833333334,38.134106597900384L37.06627604166666,58.79484455108642L37.54765625,75.34192462921142L38.02903645833333,91.15771430969238L38.510416666666664,104.23926235198975L38.991796875000006,112.19110267639162L39.47317708333333,116.02616907119751L39.95455729166667,119.58784978866579L40.4359375,123.9127106666565L40.917317708333336,126.63889377593996L41.39869791666667,128.3119635486603L41.880078125,130.27131534576415L42.36145833333333,131.3985877418518L42.84283854166667,131.98529726028443L43.32421875,133.8449690723419L43.805598958333334,135.213872423172L44.28697916666666,134.88846416473388L44.768359375,134.73379915237427L45.24973958333334,132.09415829658508L45.731119791666664,126.32458076477052L46.2125,123.46747272491457L46.69388020833333,126.19459098815918L47.17526041666667,127.44515347480774L47.656640625,123.51286989212036L48.13802083333333,122.40200151443483L48.61940104166667,123.11872444152833L49.100781250000004,125.02602327346801L49.58216145833333,125.7550686264038L50.063541666666666,127.0481873703003L50.544921875,127.08523904800415L51.026302083333334,127.42230465888977L51.50768229166667,126.05375747680664L51.989062499999996,125.53193819046021L52.47044270833334,125.18238304138184L52.951822916666664,125.02719474792481L53.433203125,126.03962551116942L53.91458333333333,129.1130984687805L54.39596354166667,129.11356773376465L54.87734375,129.05327562332153L55.358723958333336,127.16311677932738L55.84010416666666,124.8391950416565L56.321484375000004,125.25309013366699L56.80286458333333,124.24538578033449L57.284244791666666,125.31518503189086L57.765625,125.44910110473634L58.247005208333334,126.37932271957398L58.72838541666667,126.18384853363038L59.209765624999996,127.76866272926331L59.69114583333333,129.10016836166383L60.17252604166667,130.60448842048646L60.65390625,130.90225224494935L61.13528645833333,133.03629552841187L61.61666666666667,133.63728218078614L62.098046875,135.0094062423706L62.579427083333336,134.71271936416625L63.06080729166666,134.6525217819214L63.5421875,134.64912551879883L64.02356770833333,134.2720255279541L64.50494791666667,134.0218161392212L64.986328125,134.0808895111084L65.46770833333333,133.27688667297363L65.94908854166667,132.3767165851593L66.43046875,133.8094923019409L66.91184895833334,134.3747034072876L67.39322916666667,134.19283790588378L67.87460937499999,135.53917602539062L68.35598958333333,136.9434801864624L68.83736979166667,137.67926404953002L69.31875,138.60321135520934L69.80013020833333,140.68356431007385L70.28151041666668,140.86149169921876L70.762890625,143.09630795001985L71.24427083333333,146.7093596792221L71.72565104166667,149.6051474761963L72.20703125,151.32190320253372L72.68841145833333,152.04755482435226L73.16979166666667,152.46015521764755L73.651171875,152.8304266011715L74.13255208333332,153.0004556107521L74.61393229166667,153.34484504699708L75.0953125,152.95774637818337L75.57669270833333,153.255272616148L76.05807291666666,153.415044683218L76.53945312500001,153.368204061985L77.02083333333333,153.5628292876482L77.50221354166666,153.49038070321083L77.98359375000001,153.68618890285492L78.46497395833333,153.27347646832467L78.94635416666667,153.4337084108591L79.427734375,152.94614747285843L79.90911458333333,153.60377297401428L80.39049479166667,152.63441900610923L80.871875,153.8965489590168L81.35325520833334,153.5542904162407L81.83463541666667,153.8135260874033L82.31601562499999,153.9102499562502L82.79739583333334,153.63975635647773L83.27877604166666,153.50742057144643L83.76015625,153.5108570301533L84.24153645833334,153.80941843628884L84.72291666666666,154.08807284742593L85.204296875,153.85464026212694L85.68567708333335,153.37010317146778L86.16705729166667,152.91746576070787L86.6484375,152.8091016304493L87.12981770833333,151.9278639793396L87.61119791666667,151.87243669509888L88.092578125,152.03471565842628L88.57395833333332,151.67119987607003L89.05533854166667,152.2294983959198L89.53671875,151.4278220486641L90.01809895833333,151.8335343325138L90.49947916666667,152.19669626712798L90.980859375,153.0196722650528L91.46223958333333,152.65083294153214L91.94361979166668,152.57130603075026L92.425,150.23194117069244L92.90638020833333,147.5026580429077L93.38776041666667,141.21472416400908L93.869140625,136.1411839199066L94.35052083333333,148.44611909151078L94.83190104166665,149.45401883125305L95.31328125,150.20659242153167L95.79466145833334,148.82128083229065L96.27604166666666,149.34022755861284L96.757421875,149.13393664598465L97.23880208333334,146.07316127300263L97.72018229166666,143.410262260437L98.20156250000001,147.40577761173247L98.68294270833333,147.3474022293091L99.16432291666666,146.56212947845458L99.645703125,145.9880504465103L100.12708333333333,144.58246762275695L100.60846354166667,147.120067820549L101.08984375,147.43376724243163L101.57122395833333,146.7588088989258L102.05260416666667,145.00867332458498L102.53398437499999,144.67239010334015L103.01536458333334,143.9286903476715L103.49674479166667,146.2925283050537L103.97812499999999,145.62130888938904L104.45950520833334,147.82080282211305L104.94088541666667,143.83858471870423L105.422265625,145.83934155464172L105.90364583333333,147.3915266418457L106.38502604166668,148.1619044494629L106.86640625,145.29435948371886L107.34778645833333,143.00991339683532L107.82916666666667,140.8386563873291L108.310546875,139.81426274299622L108.79192708333333,142.02059393405915L109.27330729166667,145.2649004459381L109.7546875,145.6201028108597L110.23606770833332,148.44373014450073L110.71744791666667,144.43609323978424L111.198828125,146.1027410030365L111.68020833333333,147.17662353515624L112.16158854166666,148.23492832660676L112.64296875000001,142.20469688415528L113.12434895833333,143.30553176879883L113.60572916666666,139.9061441516876L114.08710937500001,145.33995752334596L114.56848958333333,140.8538526391983L115.04986979166667,146.4152647304535L115.53125,146.0027799654007L116.01263020833333,151.0357195043564L116.49401041666667,147.5166271162033L116.975390625,149.8955347251892L117.45677083333334,149.5080349445343L117.93815104166667,151.86594252347945L118.41953124999999,148.9998631668091L118.90091145833334,145.63316795825958L119.38229166666666,131.7153517341614L119.863671875,112.43697052001953L120.34505208333334,142.20223915100098L120.82643229166666,140.6118832397461L121.3078125,138.06225179672242L121.78919270833335,139.52190559387208L122.27057291666667,135.97444630622863L122.751953125,135.68220394134522L123.23333333333333,139.38690919876097L123.71471354166667,141.5128112411499L124.19609375,142.93961480140686L124.67747395833332,143.94319283008576L125.15885416666667,147.0254645061493L125.640234375,152.8045670199394L126.12161458333333,152.67485238790513L126.60299479166667,153.95125820875168L127.084375,152.70698522329332L127.56575520833333,152.37951802253724L128.04713541666666,153.59368261635305L128.528515625,151.49166719555856L129.00989583333333,152.17401245355606L129.49127604166665,145.4622078037262L129.97265625,141.27276785373687L130.45403645833332,131.29320568084717L130.93541666666667,146.90690926551818L131.41679687500002,145.4799402809143L131.89817708333334,151.28512455940248L132.37955729166666,145.89117592334748L132.8609375,149.79717560291292L133.34231770833333,145.29078429222108L133.82369791666667,151.68501365303993L134.305078125,141.27934684753419L134.78645833333334,143.0522569656372L135.26783854166666,144.1307831954956L135.74921874999998,151.3089823794365L136.23059895833333,145.8526691865921L136.71197916666665,151.36309470891953L137.193359375,138.96292828559876L137.67473958333335,145.1486847782135L138.15611979166667,140.99902516365051L138.6375,148.4413099694252L139.11888020833334,141.18578081130983L139.60026041666666,149.04039719581604L140.081640625,143.9542019891739L140.56302083333335,149.63066840171814L141.04440104166667,145.02446628570556L141.52578125,151.34244747161864L142.00716145833331,143.29121918678283L142.48854166666666,149.85616795063018L142.969921875,138.9239337158203L143.45130208333333,145.21692654132843L143.93268229166668,137.21112665176392L144.4140625,150.21606043338775L144.89544270833335,141.1826419687271L145.37682291666667,150.52791528940202L145.858203125,136.67552144050597L146.33958333333334,149.9732166481018L146.82096354166666,138.26801436424256L147.30234375,151.61766758680344L147.78372395833335,142.50696852207184L148.26510416666665,151.65102211475372L148.746484375,140.8200790643692L149.22786458333334,150.22882680416106L149.70924479166666,139.12988027572632L150.190625,151.46498935461045L150.67200520833333,144.9830232667923L151.15338541666665,152.671274664402L151.634765625,134.74999048233033L152.11614583333332,148.49307048797607L152.59752604166667,146.58826146125793L153.07890625000002,153.35714616179467L153.5602864583333,142.63910290718078L154.04166666666666,148.96322420597076L154.523046875,137.32934091567992L155.00442708333333,148.2838998413086L155.48580729166667,122.70360385894776L155.96718750000002,149.20805392742156L156.44856770833331,140.39068894386293L156.92994791666666,150.80626158714296L157.411328125,142.70648800849915L157.89270833333333,147.78210702896118L158.37408854166668,147.62497162342072L158.85546875,149.9668098306656L159.33684895833332,150.46166157245636L159.81822916666667,151.4263423025608L160.29960937500002,150.64360978603364L160.78098958333334,153.55911989986896L161.26236979166666,149.1930112838745L161.74375,153.35063553214073L162.22513020833333,141.30607553958893L162.70651041666667,141.96184381484986L163.187890625,123.81288888931275L163.66927083333334,143.83425498962401L164.15065104166666,146.44823228359223L164.63203124999998,150.5756410574913L165.11341145833333,149.0859163212776L165.59479166666668,150.38106826543807L166.076171875,147.66034373760223L166.55755208333332,153.14097325444223L167.03893229166667,145.29297869682313L167.5203125,152.09596803188325L168.00169270833334,136.89147448539734L168.48307291666669,150.2200960278511L168.96445312499998,135.3072257709503L169.44583333333333,151.20382862091066L169.92721354166667,143.3484273147583L170.40859375,151.73893587112426L170.88997395833334,144.53875339508056L171.3713541666667,152.26789203643798L171.85273437499998,149.43079949855806L172.33411458333333,151.89842224359512L172.81549479166668,141.98566323280335L173.296875,145.94827348709106L173.77825520833335,132.24478391647338L174.25963541666667,145.52501166343689L174.741015625,141.89397256851197L175.22239583333334,152.07024201393128L175.70377604166666,149.04693567752838L176.18515625,149.167720348835L176.66653645833335,152.61154212713242L177.14791666666665,146.73017191886902L177.629296875,152.44790368795395L178.11067708333334,140.47518196105958L178.59205729166666,144.04232252597808L179.0734375,129.98680066108705L179.55481770833333,146.4582607126236L180.03619791666665,141.25235229492188L180.517578125,152.93791887760162L180.99895833333335,146.74630838871002L181.48033854166667,152.55672379016877L181.96171875,152.17518941402435L182.44309895833334,151.58333401679994L182.92447916666666,153.73816421985626L183.405859375,138.46561374664307L183.88723958333335,127.58580299377441L184.36861979166665,138.33842436790465L184.85,152.25095629692078L185.33138020833334,148.57917765855788L185.81276041666666,153.50300359368325L186.294140625,146.44409836292266L186.77552083333333,151.96813995480537L187.25690104166665,153.11048907101153L187.73828125,152.9083737516403L188.21966145833332,153.56909737229347L188.70104166666667,153.72235838770865L189.18242187500002,153.80332664251327L189.6638020833333,154.32202961057425L190.14518229166666,151.17987500667573L190.6265625,144.35166943073273L191.10794270833333,89.18674736022949L191.58932291666667,119.89110975265503L192.07070312500002,116.3143078994751L192.55208333333331,135.44951265335084L193.03346354166666,138.70812077522277L193.51484375,135.16442573547363L193.99622395833333,142.0188949584961L194.47760416666668,150.55730174303054L194.958984375,150.25267660617828L195.44036458333332,148.69136026382446L195.92174479166667,149.9769108438492L196.40312500000002,152.89771527528762L196.88450520833334,153.51803273320198L197.36588541666666,150.24233083248137L197.847265625,151.14094626903534L198.32864583333333,147.7711324739456L198.81002604166667,151.39564870119094L199.29140625,153.43987764179707L199.77278645833334,153.82941368222237L200.25416666666666,151.9562401628494L200.73554687499998,151.7177187216282L201.21692708333333,150.87455483436585L201.69830729166668,150.51687616825103L202.1796875,151.87241137504577L202.66106770833332,152.80760373830796L203.14244791666667,153.10392811775208L203.623828125,150.0577510213852L204.10520833333334,152.81742644190788L204.58658854166669,153.32237518787383L205.06796874999998,149.3813726449013L205.54934895833333,152.19485676527023L206.03072916666667,152.15969375252723L206.512109375,153.03558528542519L206.99348958333334,154.1189015418291L207.4748697916667,153.25279494345187L207.95624999999998,154.08454834878444L208.43763020833333,154.41576660990714L208.91901041666668,149.03010248422623L209.400390625,144.6710962486267L209.88177083333335,110.96411315917967L210.36315104166667,130.48997594833375L210.84453125,133.30901613235474L211.32591145833334,142.51572335243225L211.80729166666666,148.37121351242067L212.288671875,152.85255421757697L212.77005208333335,153.77659795045852L213.25143229166665,152.20360357761382L213.7328125,152.57748032569884L214.21419270833334,151.4687291264534L214.69557291666666,151.27173911333085L215.176953125,151.98237256765364L215.65833333333333,152.78627834558486L216.13971354166665,153.42288366615773L216.62109375,151.8393056166172L217.10247395833335,151.37245532155038L217.58385416666667,139.73367745399474L218.065234375,148.8617642211914L218.54661458333334,150.67311946392059L219.02799479166666,153.21475863218308L219.509375,139.52117468833924L219.99075520833335,146.30849091053008L220.47213541666665,142.024645986557L220.953515625,149.80168383836747L221.43489583333334,141.79123138904572L221.91627604166666,151.58252208709717L222.39765625,145.2378130531311L222.87903645833333,152.29191232681274L223.36041666666665,150.21943264245988L223.841796875,153.15038113117217L224.32317708333332,149.7606573343277L224.80455729166667,153.71255572915078L225.28593750000002,152.48382060527803L225.7673177083333,153.2139645320177L226.24869791666666,154.01303618431092L226.730078125,154.5140650959313L227.21145833333333,149.90367765426635L227.69283854166667,148.71810752391815L228.17421875000002,128.1025785255432L228.65559895833331,133.04299015045166L229.13697916666666,139.38385560035707L229.618359375,150.53076252937316L230.09973958333333,141.53732189655304L230.58111979166668,152.78146690249443L231.0625,152.07381572842598L231.54388020833332,151.73996639728546L232.02526041666667,154.12300650268793L232.50664062500002,151.95234593868256L232.98802083333334,154.06066642194986L233.46940104166666,150.60619223356247L233.95078125,151.88153039216996L234.43216145833333,142.88957562446595L234.91354166666667,146.5194348049164L235.394921875,144.3302385377884L235.87630208333334,149.1945709991455L236.35768229166666,141.36452350616455L236.83906249999998,146.845707321167L237.32044270833333,142.53684196472167L237.80182291666668,152.1978614115715L238.283203125,149.9109314274788L238.76458333333332,154.12078419327736L239.24596354166667,151.81136810302735L239.72734375,154.113049813807L240.20872395833334,149.73890023469926L240.69010416666669,151.1537084197998L241.17148437499998,140.52888410568238L241.65286458333333,143.27275749206544L242.13424479166667,142.17592992782593L242.615625,148.11283840656282L243.09700520833334,141.87888350486756L243.5783854166667,150.0342523241043L244.05976562499998,146.97638917922973L244.54114583333333,153.24285756111144L245.02252604166668,151.59591217517854L245.50390625,153.87724769353866L245.98528645833335,153.90309651374818L246.46666666666667,152.97226489663123L246.948046875,154.35618789196013L247.42942708333334,150.6344865489006L247.91080729166666,151.46430381417275L248.3921875,139.52540313720704L248.87356770833335,139.67741291999818L249.35494791666665,140.54045536994934L249.836328125,142.82644260406494L250.31770833333334,131.52660424232482L250.79908854166666,147.87281021118164L251.28046875,148.4653399658203L251.76184895833333,153.07492399692535L252.24322916666665,148.74473324775695L252.724609375,152.19662916898727L253.20598958333335,144.55999691963197L253.68736979166667,152.31615332365035L254.16875,153.9536083316803L254.65013020833334,153.70412467896938L255.13151041666666,153.46221330463885L255.612890625,153.60873169541358L256.0942708333333,146.54103787422181L256.5756510416667,149.28958196640014L257.05703125,150.9791199016571L257.53841145833337,153.34870002508163L258.01979166666666,154.24025248557328L258.501171875,149.86241525173187L258.9825520833333,145.5929099178314L259.46393229166665,127.85152513504026L259.9453125,137.29059785842895L260.4266927083333,146.4384055709839L260.90807291666664,152.9457292699814L261.389453125,147.3867208957672L261.87083333333334,153.54780436813832L262.3522135416667,149.76470347881317L262.83359375000003,153.21473426163197L263.3149739583333,153.08944947838782L263.7963541666667,154.41173017144203L264.277734375,153.2664906656742" style="fill: none;" fill="none"></path></g></g></g></g></g></g><g transform="translate(41, 177)" clip-path="url(#clip_1)"><clipPath id="clip_1"><rect width="288" height="23"></rect></clipPath><g><g><line x1="0" y1="0" x2="0" y2="5" style="visibility: inherit;" fill="rgb(0, 0, 0)" stroke="rgb(204, 204, 204)" stroke-width="1px"></line><line x1="24.069010416666664" y1="0" x2="24.069010416666664" y2="5" style="visibility: inherit;" fill="rgb(0, 0, 0)" stroke="rgb(204, 204, 204)" stroke-width="1px"></line><line x1="48.13802083333333" y1="0" x2="48.13802083333333" y2="5" style="visibility: inherit;" fill="rgb(0, 0, 0)" stroke="rgb(204, 204, 204)" stroke-width="1px"></line><line x1="72.20703125" y1="0" x2="72.20703125" y2="5" style="visibility: inherit;" fill="rgb(0, 0, 0)" stroke="rgb(204, 204, 204)" stroke-width="1px"></line><line x1="96.27604166666666" y1="0" x2="96.27604166666666" y2="5" style="visibility: inherit;" fill="rgb(0, 0, 0)" stroke="rgb(204, 204, 204)" stroke-width="1px"></line><line x1="120.34505208333334" y1="0" x2="120.34505208333334" y2="5" style="visibility: inherit;" fill="rgb(0, 0, 0)" stroke="rgb(204, 204, 204)" stroke-width="1px"></line><line x1="144.4140625" y1="0" x2="144.4140625" y2="5" style="visibility: inherit;" fill="rgb(0, 0, 0)" stroke="rgb(204, 204, 204)" stroke-width="1px"></line><line x1="168.48307291666669" y1="0" x2="168.48307291666669" y2="5" style="visibility: inherit;" fill="rgb(0, 0, 0)" stroke="rgb(204, 204, 204)" stroke-width="1px"></line><line x1="192.55208333333331" y1="0" x2="192.55208333333331" y2="5" style="visibility: inherit;" fill="rgb(0, 0, 0)" stroke="rgb(204, 204, 204)" stroke-width="1px"></line><line x1="216.62109375" y1="0" x2="216.62109375" y2="5" style="visibility: inherit;" fill="rgb(0, 0, 0)" stroke="rgb(204, 204, 204)" stroke-width="1px"></line><line x1="240.69010416666669" y1="0" x2="240.69010416666669" y2="5" style="visibility: inherit;" fill="rgb(0, 0, 0)" stroke="rgb(204, 204, 204)" stroke-width="1px"></line><line x1="264.7591145833333" y1="0" x2="264.7591145833333" y2="5" style="visibility: inherit;" fill="rgb(0, 0, 0)" stroke="rgb(204, 204, 204)" stroke-width="1px"></line><line x1="288.828125" y1="0" x2="288.828125" y2="5" style="visibility: inherit;" fill="rgb(0, 0, 0)" stroke="rgb(204, 204, 204)" stroke-width="1px"></line></g><g transform="translate(0, 8)"><text x="0" y="0" dx="0em" dy="0.95em" style="text-anchor: middle; visibility: hidden; font-family: Roboto, sans-serif; font-size: 12px; font-weight: 200;" fill="rgb(33, 33, 33)" stroke="none" stroke-width="1px">-50</text><text x="24.069010416666664" y="0" dx="0em" dy="0.95em" style="text-anchor: middle; visibility: inherit; font-family: Roboto, sans-serif; font-size: 12px; font-weight: 200;" fill="rgb(33, 33, 33)" stroke="none" stroke-width="1px">0</text><text x="48.13802083333333" y="0" dx="0em" dy="0.95em" style="text-anchor: middle; visibility: hidden; font-family: Roboto, sans-serif; font-size: 12px; font-weight: 200;" fill="rgb(33, 33, 33)" stroke="none" stroke-width="1px">50</text><text x="72.20703125" y="0" dx="0em" dy="0.95em" style="text-anchor: middle; visibility: inherit; font-family: Roboto, sans-serif; font-size: 12px; font-weight: 200;" fill="rgb(33, 33, 33)" stroke="none" stroke-width="1px">100</text><text x="96.27604166666666" y="0" dx="0em" dy="0.95em" style="text-anchor: middle; visibility: hidden; font-family: Roboto, sans-serif; font-size: 12px; font-weight: 200;" fill="rgb(33, 33, 33)" stroke="none" stroke-width="1px">150</text><text x="120.34505208333334" y="0" dx="0em" dy="0.95em" style="text-anchor: middle; visibility: inherit; font-family: Roboto, sans-serif; font-size: 12px; font-weight: 200;" fill="rgb(33, 33, 33)" stroke="none" stroke-width="1px">200</text><text x="144.4140625" y="0" dx="0em" dy="0.95em" style="text-anchor: middle; visibility: hidden; font-family: Roboto, sans-serif; font-size: 12px; font-weight: 200;" fill="rgb(33, 33, 33)" stroke="none" stroke-width="1px">250</text><text x="168.48307291666669" y="0" dx="0em" dy="0.95em" style="text-anchor: middle; visibility: inherit; font-family: Roboto, sans-serif; font-size: 12px; font-weight: 200;" fill="rgb(33, 33, 33)" stroke="none" stroke-width="1px">300</text><text x="192.55208333333331" y="0" dx="0em" dy="0.95em" style="text-anchor: middle; visibility: hidden; font-family: Roboto, sans-serif; font-size: 12px; font-weight: 200;" fill="rgb(33, 33, 33)" stroke="none" stroke-width="1px">350</text><text x="216.62109375" y="0" dx="0em" dy="0.95em" style="text-anchor: middle; visibility: inherit; font-family: Roboto, sans-serif; font-size: 12px; font-weight: 200;" fill="rgb(33, 33, 33)" stroke="none" stroke-width="1px">400</text><text x="240.69010416666669" y="0" dx="0em" dy="0.95em" style="text-anchor: middle; visibility: hidden; font-family: Roboto, sans-serif; font-size: 12px; font-weight: 200;" fill="rgb(33, 33, 33)" stroke="none" stroke-width="1px">450</text><text x="264.7591145833333" y="0" dx="0em" dy="0.95em" style="text-anchor: middle; visibility: inherit; font-family: Roboto, sans-serif; font-size: 12px; font-weight: 200;" fill="rgb(33, 33, 33)" stroke="none" stroke-width="1px">500</text><text x="288.828125" y="0" dx="0em" dy="0.95em" style="text-anchor: middle; visibility: hidden; font-family: Roboto, sans-serif; font-size: 12px; font-weight: 200;" fill="rgb(33, 33, 33)" stroke="none" stroke-width="1px">550</text></g><line x1="0" y1="0" x2="288.828125" y2="0" fill="rgb(0, 0, 0)" stroke="rgb(204, 204, 204)" stroke-width="1px"></line></g></g></g></g></svg>