<svg viewBox="0 0 301 200" xmlns="http://www.w3.org/2000/svg"><g><g><g><g><g><line x1="41.171875" y1="177" x2="36.171875" y2="177" style="visibility: inherit;" fill="rgb(0, 0, 0)" stroke="rgb(204, 204, 204)" stroke-width="1px"></line><line x1="41.171875" y1="157.33333333333331" x2="36.171875" y2="157.33333333333331" style="visibility: inherit;" fill="rgb(0, 0, 0)" stroke="rgb(204, 204, 204)" stroke-width="1px"></line><line x1="41.171875" y1="137.66666666666666" x2="36.171875" y2="137.66666666666666" style="visibility: inherit;" fill="rgb(0, 0, 0)" stroke="rgb(204, 204, 204)" stroke-width="1px"></line><line x1="41.171875" y1="118.00000000000001" x2="36.171875" y2="118.00000000000001" style="visibility: inherit;" fill="rgb(0, 0, 0)" stroke="rgb(204, 204, 204)" stroke-width="1px"></line><line x1="41.171875" y1="98.33333333333334" x2="36.171875" y2="98.33333333333334" style="visibility: inherit;" fill="rgb(0, 0, 0)" stroke="rgb(204, 204, 204)" stroke-width="1px"></line><line x1="41.171875" y1="78.66666666666666" x2="36.171875" y2="78.66666666666666" style="visibility: inherit;" fill="rgb(0, 0, 0)" stroke="rgb(204, 204, 204)" stroke-width="1px"></line><line x1="41.171875" y1="59.00000000000001" x2="36.171875" y2="59.00000000000001" style="visibility: inherit;" fill="rgb(0, 0, 0)" stroke="rgb(204, 204, 204)" stroke-width="1px"></line><line x1="41.171875" y1="39.33333333333333" x2="36.171875" y2="39.33333333333333" style="visibility: inherit;" fill="rgb(0, 0, 0)" stroke="rgb(204, 204, 204)" stroke-width="1px"></line><line x1="41.171875" y1="19.666666666666675" x2="36.171875" y2="19.666666666666675" style="visibility: inherit;" fill="rgb(0, 0, 0)" stroke="rgb(204, 204, 204)" stroke-width="1px"></line><line x1="41.171875" y1="0" x2="36.171875" y2="0" style="visibility: inherit;" fill="rgb(0, 0, 0)" stroke="rgb(204, 204, 204)" stroke-width="1px"></line></g><g transform="translate(31.171875, 0)"><text x="0" y="177" dx="0em" dy="0.3em" style="text-anchor: end; visibility: hidden; font-family: Roboto, sans-serif; font-size: 12px; font-weight: 200;" fill="rgb(33, 33, 33)" stroke="none" stroke-width="1px">-50</text><text x="0" y="157.33333333333331" dx="0em" dy="0.3em" style="text-anchor: end; visibility: inherit; font-family: Roboto, sans-serif; font-size: 12px; font-weight: 200;" fill="rgb(33, 33, 33)" stroke="none" stroke-width="1px">0</text><text x="0" y="137.66666666666666" dx="0em" dy="0.3em" style="text-anchor: end; visibility: hidden; font-family: Roboto, sans-serif; font-size: 12px; font-weight: 200;" fill="rgb(33, 33, 33)" stroke="none" stroke-width="1px">50</text><text x="0" y="118.00000000000001" dx="0em" dy="0.3em" style="text-anchor: end; visibility: inherit; font-family: Roboto, sans-serif; font-size: 12px; font-weight: 200;" fill="rgb(33, 33, 33)" stroke="none" stroke-width="1px">100</text><text x="0" y="98.33333333333334" dx="0em" dy="0.3em" style="text-anchor: end; visibility: hidden; font-family: Roboto, sans-serif; font-size: 12px; font-weight: 200;" fill="rgb(33, 33, 33)" stroke="none" stroke-width="1px">150</text><text x="0" y="78.66666666666666" dx="0em" dy="0.3em" style="text-anchor: end; visibility: inherit; font-family: Roboto, sans-serif; font-size: 12px; font-weight: 200;" fill="rgb(33, 33, 33)" stroke="none" stroke-width="1px">200</text><text x="0" y="59.00000000000001" dx="0em" dy="0.3em" style="text-anchor: end; visibility: hidden; font-family: Roboto, sans-serif; font-size: 12px; font-weight: 200;" fill="rgb(33, 33, 33)" stroke="none" stroke-width="1px">250</text><text x="0" y="39.33333333333333" dx="0em" dy="0.3em" style="text-anchor: end; visibility: inherit; font-family: Roboto, sans-serif; font-size: 12px; font-weight: 200;" fill="rgb(33, 33, 33)" stroke="none" stroke-width="1px">300</text><text x="0" y="19.666666666666675" dx="0em" dy="0.3em" style="text-anchor: end; visibility: hidden; font-family: Roboto, sans-serif; font-size: 12px; font-weight: 200;" fill="rgb(33, 33, 33)" stroke="none" stroke-width="1px">350</text><text x="0" y="0" dx="0em" dy="0.3em" style="text-anchor: end; visibility: hidden; font-family: Roboto, sans-serif; font-size: 12px; font-weight: 200;" fill="rgb(33, 33, 33)" stroke="none" stroke-width="1px">400</text></g><line x1="41.171875" y1="0" x2="41.171875" y2="177" fill="rgb(0, 0, 0)" stroke="rgb(204, 204, 204)" stroke-width="1px"></line></g></g><g transform="translate(41, 0)" clip-path="url(#clip_0)"><clipPath id="clip_0"><rect width="288" height="177"></rect></clipPath><g><g><g><line x1="0" y1="0" x2="0" y2="177" fill="rgb(0, 0, 0)" stroke="rgb(66, 66, 66)" stroke-width="1px" opacity="0.25"></line><line x1="24.069010416666664" y1="0" x2="24.069010416666664" y2="177" fill="rgb(0, 0, 0)" stroke="rgb(66, 66, 66)" stroke-width="1px" opacity="0.25"></line><line x1="48.13802083333333" y1="0" x2="48.13802083333333" y2="177" fill="rgb(0, 0, 0)" stroke="rgb(66, 66, 66)" stroke-width="1px" opacity="0.25"></line><line x1="72.20703125" y1="0" x2="72.20703125" y2="177" fill="rgb(0, 0, 0)" stroke="rgb(66, 66, 66)" stroke-width="1px" opacity="0.25"></line><line x1="96.27604166666666" y1="0" x2="96.27604166666666" y2="177" fill="rgb(0, 0, 0)" stroke="rgb(66, 66, 66)" stroke-width="1px" opacity="0.25"></line><line x1="120.34505208333334" y1="0" x2="120.34505208333334" y2="177" fill="rgb(0, 0, 0)" stroke="rgb(66, 66, 66)" stroke-width="1px" opacity="0.25"></line><line x1="144.4140625" y1="0" x2="144.4140625" y2="177" fill="rgb(0, 0, 0)" stroke="rgb(66, 66, 66)" stroke-width="1px" opacity="0.25"></line><line x1="168.48307291666669" y1="0" x2="168.48307291666669" y2="177" fill="rgb(0, 0, 0)" stroke="rgb(66, 66, 66)" stroke-width="1px" opacity="0.25"></line><line x1="192.55208333333331" y1="0" x2="192.55208333333331" y2="177" fill="rgb(0, 0, 0)" stroke="rgb(66, 66, 66)" stroke-width="1px" opacity="0.25"></line><line x1="216.62109375" y1="0" x2="216.62109375" y2="177" fill="rgb(0, 0, 0)" stroke="rgb(66, 66, 66)" stroke-width="1px" opacity="0.25"></line><line x1="240.69010416666669" y1="0" x2="240.69010416666669" y2="177" fill="rgb(0, 0, 0)" stroke="rgb(66, 66, 66)" stroke-width="1px" opacity="0.25"></line><line x1="264.7591145833333" y1="0" x2="264.7591145833333" y2="177" fill="rgb(0, 0, 0)" stroke="rgb(66, 66, 66)" stroke-width="1px" opacity="0.25"></line><line x1="288.828125" y1="0" x2="288.828125" y2="177" fill="rgb(0, 0, 0)" stroke="rgb(66, 66, 66)" stroke-width="1px" opacity="0.25"></line></g><g><line x1="0" y1="177" x2="288.828125" y2="177" fill="rgb(0, 0, 0)" stroke="rgb(66, 66, 66)" stroke-width="1px" opacity="0.25"></line><line x1="0" y1="157.33333333333331" x2="288.828125" y2="157.33333333333331" fill="rgb(0, 0, 0)" stroke="rgb(66, 66, 66)" stroke-width="1px" opacity="0.25"></line><line x1="0" y1="137.66666666666666" x2="288.828125" y2="137.66666666666666" fill="rgb(0, 0, 0)" stroke="rgb(66, 66, 66)" stroke-width="1px" opacity="0.25"></line><line x1="0" y1="118.00000000000001" x2="288.828125" y2="118.00000000000001" fill="rgb(0, 0, 0)" stroke="rgb(66, 66, 66)" stroke-width="1px" opacity="0.25"></line><line x1="0" y1="98.33333333333334" x2="288.828125" y2="98.33333333333334" fill="rgb(0, 0, 0)" stroke="rgb(66, 66, 66)" stroke-width="1px" opacity="0.25"></line><line x1="0" y1="78.66666666666666" x2="288.828125" y2="78.66666666666666" fill="rgb(0, 0, 0)" stroke="rgb(66, 66, 66)" stroke-width="1px" opacity="0.25"></line><line x1="0" y1="59.00000000000001" x2="288.828125" y2="59.00000000000001" fill="rgb(0, 0, 0)" stroke="rgb(66, 66, 66)" stroke-width="1px" opacity="0.25"></line><line x1="0" y1="39.33333333333333" x2="288.828125" y2="39.33333333333333" fill="rgb(0, 0, 0)" stroke="rgb(66, 66, 66)" stroke-width="1px" opacity="0.25"></line><line x1="0" y1="19.666666666666675" x2="288.828125" y2="19.666666666666675" fill="rgb(0, 0, 0)" stroke="rgb(66, 66, 66)" stroke-width="1px" opacity="0.25"></line><line x1="0" y1="0" x2="288.828125" y2="0" fill="rgb(0, 0, 0)" stroke="rgb(66, 66, 66)" stroke-width="1px" opacity="0.25"></line></g></g></g><g><g><line x1="0" y1="157.33333333333331" x2="288.828125" y2="157.33333333333331" fill="rgb(0, 0, 0)" stroke="rgb(153, 153, 153)" stroke-width="1.5px"></line></g></g><g><g><line x1="24.069010416666664" y1="0" x2="24.069010416666664" y2="177" fill="rgb(0, 0, 0)" stroke="rgb(153, 153, 153)" stroke-width="1.5px"></line></g></g><g><g><g><g><g><path stroke="rgb(204, 51, 17)" stroke-width="2px" d="M35.622135416666666,-7.687993367513038L36.103515625,7.433697509765629L36.584895833333334,24.127797444661457L37.06627604166666,43.04222371419271L37.54765625,59.63781026204427L38.02903645833333,75.82255025227865L38.510416666666664,88.68651763916014L38.991796875000006,96.67182169596354L39.47317708333333,101.24638631184897L39.95455729166667,104.85781361897786L40.4359375,109.9096286010742L40.917317708333336,112.90935343424479L41.39869791666667,114.95589192708333L41.880078125,118.19029576619465L42.36145833333333,119.49936726888022L42.84283854166667,120.53567240397135L43.32421875,122.69233474731446L43.805598958333334,123.99845937093099L44.28697916666666,124.92406748453776L44.768359375,124.69710678100587L45.24973958333334,121.04587259928387L45.731119791666664,116.82319895426433L46.2125,114.85987828572593L46.69388020833333,118.42328526814778L47.17526041666667,119.40403483072916L47.656640625,116.6586898803711L48.13802083333333,115.97826390584311L48.61940104166667,117.24319224039712L49.100781250000004,119.11914184570313L49.58216145833333,120.07493896484375L50.063541666666666,121.47210774739584L50.544921875,121.63906555175781L51.026302083333334,121.69608556111652L51.50768229166667,121.04632273356118L51.989062499999996,120.7184809366862L52.47044270833334,120.57062683105468L52.951822916666664,120.74631123860676L53.433203125,121.90917312622071L53.91458333333333,124.9230951944987L54.39596354166667,125.58846567789713L54.87734375,125.5742024230957L55.358723958333336,123.83319407145181L55.84010416666666,122.30015375773112L56.321484375000004,122.48330139160157L56.80286458333333,121.80764684041341L57.284244791666666,122.75003896077475L57.765625,123.34565663655599L58.247005208333334,124.26785873413087L58.72838541666667,124.21178100585938L59.209765624999996,125.75018391927084L59.69114583333333,127.24969523111979L60.17252604166667,128.73624567667642L60.65390625,129.23824142456053L61.13528645833333,131.0719024149577L61.61666666666667,131.886318359375L62.098046875,132.92616004943847L62.579427083333336,133.47536738077798L63.06080729166666,132.947832514445L63.5421875,132.43793090820313L64.02356770833333,132.37155410766601L64.50494791666667,132.70578180948894L64.986328125,132.37331263224286L65.46770833333333,132.25273966471354L65.94908854166667,130.4495317586263L66.43046875,133.0642537434896L66.91184895833334,133.05560216267904L67.39322916666667,133.85183568318686L67.87460937499999,134.33631220499674L68.35598958333333,135.51317927042643L68.83736979166667,137.32817169189454L69.31875,138.4131243387858L69.80013020833333,140.22108866373696L70.28151041666668,140.5140180460612L70.762890625,142.77256828308106L71.24427083333333,146.00367563883464L71.72565104166667,148.92841785430906L72.20703125,149.83380968729654L72.68841145833333,151.1511028925578L73.16979166666667,150.91351601918538L73.651171875,151.55100518544515L74.13255208333332,151.50999420166016L74.61393229166667,152.0508725484212L75.0953125,151.880363184611L75.57669270833333,151.98713803609212L76.05807291666666,152.41090082168577L76.53945312500001,152.54023377736408L77.02083333333333,152.7793796157837L77.50221354166666,152.5636722691854L77.98359375000001,152.97138514200847L78.46497395833333,152.44782983779908L78.94635416666667,152.70747028986614L79.427734375,152.16404605865478L79.90911458333333,152.6530936940511L80.39049479166667,152.12075289408367L80.871875,152.6195039240519L81.35325520833334,152.69245868682862L81.83463541666667,153.40999523162841L82.31601562499999,153.4871748797099L82.79739583333334,153.52501954396567L83.27877604166666,153.40101017634075L83.76015625,153.41956283569337L84.24153645833334,153.79520589192708L84.72291666666666,154.0150297164917L85.204296875,153.7412119102478L85.68567708333335,153.46723430633546L86.16705729166667,152.7739382425944L86.6484375,152.97620007832845L87.12981770833333,152.1944631322225L87.61119791666667,152.10097436904908L88.092578125,152.13403823216757L88.57395833333332,152.06735796610513L89.05533854166667,152.6277556355794L89.53671875,151.9855175526937L90.01809895833333,152.22356093724568L90.49947916666667,152.55127069473266L90.980859375,153.21043120066324L91.46223958333333,152.96595877329509L91.94361979166668,153.10592014948526L92.425,150.96148307800294L92.90638020833333,148.54626660664877L93.38776041666667,142.64233243306478L93.869140625,137.9712845357259L94.35052083333333,148.590964940389L94.83190104166665,149.91815284729003L95.31328125,150.62811363220214L95.79466145833334,149.60729311625164L96.27604166666666,150.1990418879191L96.757421875,150.01299613952636L97.23880208333334,147.26554381052654L97.72018229166666,144.87827392578126L98.20156250000001,148.38963713328044L98.68294270833333,148.35843907674155L99.16432291666666,147.71670139312744L99.645703125,147.20677427927654L100.12708333333333,145.70496053059895L100.60846354166667,147.46734575907388L101.08984375,147.65321145375572L101.57122395833333,147.32880268096923L102.05260416666667,146.09860895792644L102.53398437499999,145.48907763163248L103.01536458333334,145.0520655186971L103.49674479166667,147.3322994740804L103.97812499999999,146.6604823176066L104.45950520833334,148.7848310216268L104.94088541666667,145.16393664042155L105.422265625,146.92716962178548L105.90364583333333,148.13589569091798L106.38502604166668,148.9332815551758L106.86640625,146.69249061584472L107.34778645833333,144.60858797709147L107.82916666666667,142.22274726867676L108.310546875,141.28902023315428L108.79192708333333,143.0995233154297L109.27330729166667,146.17338901519776L109.7546875,146.59753178914386L110.23606770833332,148.99905067443848L110.71744791666667,145.60703606923423L111.198828125,146.90014956156412L111.68020833333333,148.04906028747558L112.16158854166666,148.9090980911255L112.64296875000001,143.7577111562093L113.12434895833333,144.6136849975586L113.60572916666666,141.5787326558431L114.08710937500001,146.58480799357096L114.56848958333333,142.40818908691406L115.04986979166667,147.40578539530435L115.53125,146.77171649932862L116.01263020833333,151.26543249766033L116.49401041666667,148.28125680287678L116.975390625,150.61517077128093L117.45677083333334,150.42830052693685L117.93815104166667,152.1413375345866L118.41953124999999,149.9270917638143L118.90091145833334,146.97165789286296L119.38229166666666,134.45299901326496L119.863671875,116.35417104085288L120.34505208333334,142.70172014872233L120.82643229166666,141.51295003255208L121.3078125,139.834609375L121.78919270833335,140.87008926391601L122.27057291666667,137.8327001953125L122.751953125,137.68746887207033L123.23333333333333,141.03359303792317L123.71471354166667,142.92782559712728L124.19609375,144.25907971700033L124.67747395833332,145.32534879048666L125.15885416666667,148.136262550354L125.640234375,153.44205229441326L126.12161458333333,153.19707384109498L126.60299479166667,154.4157349363963L127.084375,153.4323519007365L127.56575520833333,153.26142428716022L128.04713541666666,154.27586096127828L128.528515625,152.34381393432616L129.00989583333333,153.13219111124673L129.49127604166665,146.87264485677082L129.97265625,143.11596972147623L130.45403645833332,133.79775955200193L130.93541666666667,147.88727302551268L131.41679687500002,146.7189660135905L131.89817708333334,151.92987645467122L132.37955729166666,147.2101150258382L132.8609375,150.47232816060384L133.34231770833333,146.7863076019287L133.82369791666667,152.54459970474244L134.305078125,143.40204205830892L134.78645833333334,144.87480489095054L135.26783854166666,145.81950469970704L135.74921874999998,152.40017749786378L136.23059895833333,147.47804545084637L136.71197916666665,152.4246599260966L137.193359375,141.2046440633138L137.67473958333335,146.77269104003906L138.15611979166667,142.89119967142742L138.6375,149.64919761657714L139.11888020833334,143.26028427124024L139.60026041666666,150.1050576019287L140.081640625,145.67711822509764L140.56302083333335,150.73351407368978L141.04440104166667,146.81009419759116L141.52578125,152.4910911178589L142.00716145833331,145.36332061767578L142.48854166666666,151.15075441360474L142.969921875,141.31888814290366L143.45130208333333,146.8442458852132L143.93268229166668,139.61309079488117L144.4140625,151.37798482259115L144.89544270833335,143.46979927062986L145.37682291666667,151.79810602188113L145.858203125,139.45048278808594L146.33958333333334,151.25493386586507L146.82096354166666,140.84369789123537L147.30234375,152.78673105875652L147.78372395833335,144.64108317057293L148.26510416666665,152.85535552978516L148.746484375,143.30857167561848L149.22786458333334,151.5949202855428L149.70924479166666,141.6948102823893L150.190625,152.62263235727946L150.67200520833333,146.7826187515259L151.15338541666665,153.73369504292805L151.634765625,137.79792882283527L152.11614583333332,150.07502314249675L152.59752604166667,148.51210141499837L153.07890625000002,154.65865815162658L153.5602864583333,145.0389516067505L154.04166666666666,150.61381586710613L154.523046875,140.21592712402344L155.00442708333333,149.8450870513916L155.48580729166667,127.0225274658203L155.96718750000002,150.57012283325196L156.44856770833331,142.56102767944336L156.92994791666666,151.94044635772704L157.411328125,144.89229410807292L157.89270833333333,149.19076436360677L158.37408854166668,149.30722385406494L158.85546875,151.56940029780068L159.33684895833332,152.08878135681152L159.81822916666667,153.06370355606077L160.29960937500002,152.27738799413044L160.78098958333334,154.77924781163534L161.26236979166666,150.92270701090496L161.74375,154.71017658233643L162.22513020833333,143.94593780517576L162.70651041666667,144.12759099324543L163.187890625,127.76311538696291L163.66927083333334,145.49178443908693L164.15065104166666,148.06183959960939L164.63203124999998,151.8857362874349L165.11341145833333,150.82787872314455L165.59479166666668,151.96735350926716L166.076171875,149.64177640279132L166.55755208333332,154.35294364293418L167.03893229166667,147.34713439941407L167.5203125,153.39642630894977L168.00169270833334,139.81763931274415L168.48307291666669,151.54564971288045L168.96445312499998,138.22914545694985L169.44583333333333,152.44961274464924L169.92721354166667,145.45392664591472L170.40859375,153.02805854797361L170.88997395833334,146.74145247141522L171.3713541666667,153.51062162399293L171.85273437499998,151.0104621887207L172.33411458333333,153.132927831014L172.81549479166668,144.48742233276369L173.296875,147.94161548614503L173.77825520833335,135.47367548624675L174.25963541666667,147.18665027618408L174.741015625,143.9573562113444L175.22239583333334,153.35610140482586L175.70377604166666,150.6606590906779L176.18515625,150.93744515736898L176.66653645833335,154.16067628860475L177.14791666666665,148.66640594482422L177.629296875,153.8633929824829L178.11067708333334,143.15728604634603L178.59205729166666,146.25158109029135L179.0734375,133.53139259338377L179.55481770833333,148.09347053527833L180.03619791666665,143.63577428181966L180.517578125,154.33892402331034L180.99895833333335,148.89839764912924L181.48033854166667,154.08799423217772L181.96171875,153.7893751525879L182.44309895833334,153.3677021153768L182.92447916666666,155.30099413871764L183.405859375,141.613861134847L183.88723958333335,131.2314810180664L184.36861979166665,140.65471951802573L184.85,153.42710521062216L185.33138020833334,150.42686459859212L185.81276041666666,155.04822967529296L186.294140625,148.7468719482422L186.77552083333333,153.61572535196942L187.25690104166665,154.73833116849264L187.73828125,154.5494295056661L188.21966145833332,155.18401005427043L188.70104166666667,155.2642584927877L189.18242187500002,155.43404576619466L189.6638020833333,155.88626622835795L190.14518229166666,153.1901747830709L190.6265625,146.86762811024983L191.10794270833333,97.12670939127605L191.58932291666667,123.08565907796225L192.07070312500002,119.9479200744629L192.55208333333331,136.92122029622394L193.03346354166666,140.3553847249349L193.51484375,137.45883066813153L193.99622395833333,143.9397634633382L194.47760416666668,151.47388217926024L194.958984375,151.521448618571L195.44036458333332,150.3646425374349L195.92174479166667,151.31760756174725L196.40312500000002,154.17440275828042L196.88450520833334,154.57865878740947L197.36588541666666,151.8460303179423L197.847265625,152.77021188100179L198.32864583333333,149.9096363067627L198.81002604166667,153.1308264541626L199.29140625,155.06587231318156L199.77278645833334,155.3962491162618L200.25416666666666,153.7573739814758L200.73554687499998,153.43922245025635L201.21692708333333,152.74173038482667L201.69830729166668,152.4240488688151L202.1796875,153.63850964864093L202.66106770833332,154.61283316930135L203.14244791666667,154.82912175178527L203.623828125,152.0786165746053L204.10520833333334,154.49123014450075L204.58658854166669,154.97574849128722L205.06796874999998,151.36746218363444L205.54934895833333,153.79987153371175L206.03072916666667,153.9825262705485L206.512109375,154.79959950764973L206.99348958333334,155.84221477508544L207.4748697916667,155.15891488075258L207.95624999999998,155.86848554929097L208.43763020833333,156.17704800128936L208.91901041666668,151.32405273437502L209.400390625,147.27012017567952L209.88177083333335,116.85332794189453L210.36315104166667,133.31786539713542L210.84453125,135.58547533671063L211.32591145833334,144.37532539367675L211.80729166666666,149.98225947062176L212.288671875,154.3947262318929L212.77005208333335,155.3813967482249L213.25143229166665,154.04487887064616L213.7328125,154.36591088612875L214.21419270833334,153.36181173324584L214.69557291666666,153.25818294525146L215.176953125,153.8540707015991L215.65833333333333,154.6164004834493L216.13971354166665,155.18970781644185L216.62109375,153.77005989074706L217.10247395833335,153.3255549176534L217.58385416666667,142.668189646403L218.065234375,150.87170679728192L218.54661458333334,152.51238659540812L219.02799479166666,155.00524954160053L219.509375,142.5502454630534L219.99075520833335,148.40532881418864L220.47213541666665,144.6701648457845L220.953515625,151.75382143656412L221.43489583333334,144.6477631632487L221.91627604166666,153.4248099009196L222.39765625,147.70987060546875L222.87903645833333,154.02031054178875L223.36041666666665,152.34697012583413L223.841796875,155.0909431044261L224.32317708333332,152.07650807062785L224.80455729166667,155.62506249745687L225.28593750000002,154.57438044865927L225.7673177083333,155.29889163653056L226.24869791666666,156.02175880273182L226.730078125,156.46012281894684L227.21145833333333,152.32541019439697L227.69283854166667,151.16367964426675L228.17421875000002,132.64775650024413L228.65559895833331,136.22625648498536L229.13697916666666,142.10929092407227L229.618359375,152.24854451497396L230.09973958333333,144.52580978393556L230.58111979166668,154.51117184321086L231.0625,153.99107694625854L231.54388020833332,153.8585645421346L232.02526041666667,156.01048068841297L232.50664062500002,154.07091163635255L232.98802083333334,156.03361796538036L233.46940104166666,152.91324617385865L233.95078125,154.04163565317788L234.43216145833333,146.00062747955323L234.91354166666667,149.1168898264567L235.394921875,147.2026270421346L235.87630208333334,151.46949712117515L236.35768229166666,144.54451736450196L236.83906249999998,149.23897074381512L237.32044270833333,145.54071328481038L237.80182291666668,154.24121712684632L238.283203125,152.28082702000935L238.76458333333332,156.1015319744746L239.24596354166667,154.10887521107992L239.72734375,156.19308290958404L240.20872395833334,152.1590581957499L240.69010416666669,153.2232982889811L241.17148437499998,143.73705149332685L241.65286458333333,145.98614590962728L242.13424479166667,145.00802363077798L242.615625,150.46990868886311L243.09700520833334,144.9613484573364L243.5783854166667,152.22447733561197L244.05976562499998,149.5847751490275L244.54114583333333,155.32582429567972L245.02252604166668,153.85527818679807L245.50390625,155.99907644271852L245.98528645833335,156.01846879005433L246.46666666666667,155.216501121521L246.948046875,156.45324392318724L247.42942708333334,153.12760161717733L247.91080729166666,153.77626199086507L248.3921875,142.9913365427653L248.87356770833335,142.53482836405436L249.35494791666665,143.49262557983397L249.836328125,145.57982920328777L250.31770833333334,135.2407219950358L250.79908854166666,150.04183924357096L251.28046875,150.64521348317464L251.76184895833333,154.7820084476471L252.24322916666665,151.01929082234702L252.724609375,154.2015391031901L253.20598958333335,147.39711505889892L253.68736979166667,154.36207686742148L254.16875,155.99303085803984L254.65013020833334,155.76383823871612L255.13151041666666,155.5180430730184L255.612890625,155.6344425455729L256.0942708333333,148.99958183288572L256.5756510416667,151.4825870259603L257.05703125,153.21570302327473L257.53841145833337,155.428627837499L258.01979166666666,156.30593260447185L258.501171875,152.40753194173178L258.9825520833333,148.37707763671875L259.46393229166665,132.36422892252602L259.9453125,140.1386270650228L260.4266927083333,148.74066159566243L260.90807291666664,154.5353243605296L261.389453125,149.8749279530843L261.87083333333334,155.36211093266806L262.3522135416667,152.08369071324665L262.83359375000003,155.1670923201243L263.3149739583333,155.04054250717164L263.7963541666667,156.3609523296356L264.277734375,155.33752084732055" style="fill: none;" fill="none"></path></g></g></g></g></g></g><g transform="translate(41, 177)" clip-path="url(#clip_1)"><clipPath id="clip_1"><rect width="288" height="23"></rect></clipPath><g><g><line x1="0" y1="0" x2="0" y2="5" style="visibility: inherit;" fill="rgb(0, 0, 0)" stroke="rgb(204, 204, 204)" stroke-width="1px"></line><line x1="24.069010416666664" y1="0" x2="24.069010416666664" y2="5" style="visibility: inherit;" fill="rgb(0, 0, 0)" stroke="rgb(204, 204, 204)" stroke-width="1px"></line><line x1="48.13802083333333" y1="0" x2="48.13802083333333" y2="5" style="visibility: inherit;" fill="rgb(0, 0, 0)" stroke="rgb(204, 204, 204)" stroke-width="1px"></line><line x1="72.20703125" y1="0" x2="72.20703125" y2="5" style="visibility: inherit;" fill="rgb(0, 0, 0)" stroke="rgb(204, 204, 204)" stroke-width="1px"></line><line x1="96.27604166666666" y1="0" x2="96.27604166666666" y2="5" style="visibility: inherit;" fill="rgb(0, 0, 0)" stroke="rgb(204, 204, 204)" stroke-width="1px"></line><line x1="120.34505208333334" y1="0" x2="120.34505208333334" y2="5" style="visibility: inherit;" fill="rgb(0, 0, 0)" stroke="rgb(204, 204, 204)" stroke-width="1px"></line><line x1="144.4140625" y1="0" x2="144.4140625" y2="5" style="visibility: inherit;" fill="rgb(0, 0, 0)" stroke="rgb(204, 204, 204)" stroke-width="1px"></line><line x1="168.48307291666669" y1="0" x2="168.48307291666669" y2="5" style="visibility: inherit;" fill="rgb(0, 0, 0)" stroke="rgb(204, 204, 204)" stroke-width="1px"></line><line x1="192.55208333333331" y1="0" x2="192.55208333333331" y2="5" style="visibility: inherit;" fill="rgb(0, 0, 0)" stroke="rgb(204, 204, 204)" stroke-width="1px"></line><line x1="216.62109375" y1="0" x2="216.62109375" y2="5" style="visibility: inherit;" fill="rgb(0, 0, 0)" stroke="rgb(204, 204, 204)" stroke-width="1px"></line><line x1="240.69010416666669" y1="0" x2="240.69010416666669" y2="5" style="visibility: inherit;" fill="rgb(0, 0, 0)" stroke="rgb(204, 204, 204)" stroke-width="1px"></line><line x1="264.7591145833333" y1="0" x2="264.7591145833333" y2="5" style="visibility: inherit;" fill="rgb(0, 0, 0)" stroke="rgb(204, 204, 204)" stroke-width="1px"></line><line x1="288.828125" y1="0" x2="288.828125" y2="5" style="visibility: inherit;" fill="rgb(0, 0, 0)" stroke="rgb(204, 204, 204)" stroke-width="1px"></line></g><g transform="translate(0, 8)"><text x="0" y="0" dx="0em" dy="0.95em" style="text-anchor: middle; visibility: hidden; font-family: Roboto, sans-serif; font-size: 12px; font-weight: 200;" fill="rgb(33, 33, 33)" stroke="none" stroke-width="1px">-50</text><text x="24.069010416666664" y="0" dx="0em" dy="0.95em" style="text-anchor: middle; visibility: inherit; font-family: Roboto, sans-serif; font-size: 12px; font-weight: 200;" fill="rgb(33, 33, 33)" stroke="none" stroke-width="1px">0</text><text x="48.13802083333333" y="0" dx="0em" dy="0.95em" style="text-anchor: middle; visibility: hidden; font-family: Roboto, sans-serif; font-size: 12px; font-weight: 200;" fill="rgb(33, 33, 33)" stroke="none" stroke-width="1px">50</text><text x="72.20703125" y="0" dx="0em" dy="0.95em" style="text-anchor: middle; visibility: inherit; font-family: Roboto, sans-serif; font-size: 12px; font-weight: 200;" fill="rgb(33, 33, 33)" stroke="none" stroke-width="1px">100</text><text x="96.27604166666666" y="0" dx="0em" dy="0.95em" style="text-anchor: middle; visibility: hidden; font-family: Roboto, sans-serif; font-size: 12px; font-weight: 200;" fill="rgb(33, 33, 33)" stroke="none" stroke-width="1px">150</text><text x="120.34505208333334" y="0" dx="0em" dy="0.95em" style="text-anchor: middle; visibility: inherit; font-family: Roboto, sans-serif; font-size: 12px; font-weight: 200;" fill="rgb(33, 33, 33)" stroke="none" stroke-width="1px">200</text><text x="144.4140625" y="0" dx="0em" dy="0.95em" style="text-anchor: middle; visibility: hidden; font-family: Roboto, sans-serif; font-size: 12px; font-weight: 200;" fill="rgb(33, 33, 33)" stroke="none" stroke-width="1px">250</text><text x="168.48307291666669" y="0" dx="0em" dy="0.95em" style="text-anchor: middle; visibility: inherit; font-family: Roboto, sans-serif; font-size: 12px; font-weight: 200;" fill="rgb(33, 33, 33)" stroke="none" stroke-width="1px">300</text><text x="192.55208333333331" y="0" dx="0em" dy="0.95em" style="text-anchor: middle; visibility: hidden; font-family: Roboto, sans-serif; font-size: 12px; font-weight: 200;" fill="rgb(33, 33, 33)" stroke="none" stroke-width="1px">350</text><text x="216.62109375" y="0" dx="0em" dy="0.95em" style="text-anchor: middle; visibility: inherit; font-family: Roboto, sans-serif; font-size: 12px; font-weight: 200;" fill="rgb(33, 33, 33)" stroke="none" stroke-width="1px">400</text><text x="240.69010416666669" y="0" dx="0em" dy="0.95em" style="text-anchor: middle; visibility: hidden; font-family: Roboto, sans-serif; font-size: 12px; font-weight: 200;" fill="rgb(33, 33, 33)" stroke="none" stroke-width="1px">450</text><text x="264.7591145833333" y="0" dx="0em" dy="0.95em" style="text-anchor: middle; visibility: inherit; font-family: Roboto, sans-serif; font-size: 12px; font-weight: 200;" fill="rgb(33, 33, 33)" stroke="none" stroke-width="1px">500</text><text x="288.828125" y="0" dx="0em" dy="0.95em" style="text-anchor: middle; visibility: hidden; font-family: Roboto, sans-serif; font-size: 12px; font-weight: 200;" fill="rgb(33, 33, 33)" stroke="none" stroke-width="1px">550</text></g><line x1="0" y1="0" x2="288.828125" y2="0" fill="rgb(0, 0, 0)" stroke="rgb(204, 204, 204)" stroke-width="1px"></line></g></g></g></g></svg>