<svg viewBox="0 0 301 200" xmlns="http://www.w3.org/2000/svg"><g><g><g><g><g><line x1="61.953125" y1="177" x2="56.953125" y2="177" style="visibility: inherit;" fill="rgb(0, 0, 0)" stroke="rgb(204, 204, 204)" stroke-width="1px"></line><line x1="61.953125" y1="160.9090909090909" x2="56.953125" y2="160.9090909090909" style="visibility: inherit;" fill="rgb(0, 0, 0)" stroke="rgb(204, 204, 204)" stroke-width="1px"></line><line x1="61.953125" y1="144.8181818181818" x2="56.953125" y2="144.8181818181818" style="visibility: inherit;" fill="rgb(0, 0, 0)" stroke="rgb(204, 204, 204)" stroke-width="1px"></line><line x1="61.953125" y1="128.72727272727272" x2="56.953125" y2="128.72727272727272" style="visibility: inherit;" fill="rgb(0, 0, 0)" stroke="rgb(204, 204, 204)" stroke-width="1px"></line><line x1="61.953125" y1="112.63636363636364" x2="56.953125" y2="112.63636363636364" style="visibility: inherit;" fill="rgb(0, 0, 0)" stroke="rgb(204, 204, 204)" stroke-width="1px"></line><line x1="61.953125" y1="96.54545454545453" x2="56.953125" y2="96.54545454545453" style="visibility: inherit;" fill="rgb(0, 0, 0)" stroke="rgb(204, 204, 204)" stroke-width="1px"></line><line x1="61.953125" y1="80.45454545454544" x2="56.953125" y2="80.45454545454544" style="visibility: inherit;" fill="rgb(0, 0, 0)" stroke="rgb(204, 204, 204)" stroke-width="1px"></line><line x1="61.953125" y1="64.36363636363635" x2="56.953125" y2="64.36363636363635" style="visibility: inherit;" fill="rgb(0, 0, 0)" stroke="rgb(204, 204, 204)" stroke-width="1px"></line><line x1="61.953125" y1="48.272727272727266" x2="56.953125" y2="48.272727272727266" style="visibility: inherit;" fill="rgb(0, 0, 0)" stroke="rgb(204, 204, 204)" stroke-width="1px"></line><line x1="61.953125" y1="32.18181818181815" x2="56.953125" y2="32.18181818181815" style="visibility: inherit;" fill="rgb(0, 0, 0)" stroke="rgb(204, 204, 204)" stroke-width="1px"></line><line x1="61.953125" y1="16.090909090909115" x2="56.953125" y2="16.090909090909115" style="visibility: inherit;" fill="rgb(0, 0, 0)" stroke="rgb(204, 204, 204)" stroke-width="1px"></line><line x1="61.953125" y1="0" x2="56.953125" y2="0" style="visibility: inherit;" fill="rgb(0, 0, 0)" stroke="rgb(204, 204, 204)" stroke-width="1px"></line></g><g transform="translate(51.953125, 0)"><text x="0" y="177" dx="0em" dy="0.3em" style="text-anchor: end; visibility: hidden; font-family: Roboto, sans-serif; font-size: 12px; font-weight: 200;" fill="rgb(33, 33, 33)" stroke="none" stroke-width="1px">-1e-3</text><text x="0" y="160.9090909090909" dx="0em" dy="0.3em" style="text-anchor: end; visibility: inherit; font-family: Roboto, sans-serif; font-size: 12px; font-weight: 200;" fill="rgb(33, 33, 33)" stroke="none" stroke-width="1px">0</text><text x="0" y="144.8181818181818" dx="0em" dy="0.3em" style="text-anchor: end; visibility: hidden; font-family: Roboto, sans-serif; font-size: 12px; font-weight: 200;" fill="rgb(33, 33, 33)" stroke="none" stroke-width="1px">1e-3</text><text x="0" y="128.72727272727272" dx="0em" dy="0.3em" style="text-anchor: end; visibility: inherit; font-family: Roboto, sans-serif; font-size: 12px; font-weight: 200;" fill="rgb(33, 33, 33)" stroke="none" stroke-width="1px">2e-3</text><text x="0" y="112.63636363636364" dx="0em" dy="0.3em" style="text-anchor: end; visibility: hidden; font-family: Roboto, sans-serif; font-size: 12px; font-weight: 200;" fill="rgb(33, 33, 33)" stroke="none" stroke-width="1px">3e-3</text><text x="0" y="96.54545454545453" dx="0em" dy="0.3em" style="text-anchor: end; visibility: inherit; font-family: Roboto, sans-serif; font-size: 12px; font-weight: 200;" fill="rgb(33, 33, 33)" stroke="none" stroke-width="1px">4e-3</text><text x="0" y="80.45454545454544" dx="0em" dy="0.3em" style="text-anchor: end; visibility: hidden; font-family: Roboto, sans-serif; font-size: 12px; font-weight: 200;" fill="rgb(33, 33, 33)" stroke="none" stroke-width="1px">5e-3</text><text x="0" y="64.36363636363635" dx="0em" dy="0.3em" style="text-anchor: end; visibility: inherit; font-family: Roboto, sans-serif; font-size: 12px; font-weight: 200;" fill="rgb(33, 33, 33)" stroke="none" stroke-width="1px">6e-3</text><text x="0" y="48.272727272727266" dx="0em" dy="0.3em" style="text-anchor: end; visibility: hidden; font-family: Roboto, sans-serif; font-size: 12px; font-weight: 200;" fill="rgb(33, 33, 33)" stroke="none" stroke-width="1px">7e-3</text><text x="0" y="32.18181818181815" dx="0em" dy="0.3em" style="text-anchor: end; visibility: inherit; font-family: Roboto, sans-serif; font-size: 12px; font-weight: 200;" fill="rgb(33, 33, 33)" stroke="none" stroke-width="1px">8e-3</text><text x="0" y="16.090909090909115" dx="0em" dy="0.3em" style="text-anchor: end; visibility: hidden; font-family: Roboto, sans-serif; font-size: 12px; font-weight: 200;" fill="rgb(33, 33, 33)" stroke="none" stroke-width="1px">9e-3</text><text x="0" y="0" dx="0em" dy="0.3em" style="text-anchor: end; visibility: hidden; font-family: Roboto, sans-serif; font-size: 12px; font-weight: 200;" fill="rgb(33, 33, 33)" stroke="none" stroke-width="1px">0.01</text></g><line x1="61.953125" y1="0" x2="61.953125" y2="177" fill="rgb(0, 0, 0)" stroke="rgb(204, 204, 204)" stroke-width="1px"></line></g></g><g transform="translate(61, 0)" clip-path="url(#clip_0)"><clipPath id="clip_0"><rect width="239" height="177"></rect></clipPath><g><g><g><line x1="0" y1="0" x2="0" y2="177" fill="rgb(0, 0, 0)" stroke="rgb(66, 66, 66)" stroke-width="1px" opacity="0.25"></line><line x1="23.9046875" y1="0" x2="23.9046875" y2="177" fill="rgb(0, 0, 0)" stroke="rgb(66, 66, 66)" stroke-width="1px" opacity="0.25"></line><line x1="47.809375" y1="0" x2="47.809375" y2="177" fill="rgb(0, 0, 0)" stroke="rgb(66, 66, 66)" stroke-width="1px" opacity="0.25"></line><line x1="71.7140625" y1="0" x2="71.7140625" y2="177" fill="rgb(0, 0, 0)" stroke="rgb(66, 66, 66)" stroke-width="1px" opacity="0.25"></line><line x1="95.61875" y1="0" x2="95.61875" y2="177" fill="rgb(0, 0, 0)" stroke="rgb(66, 66, 66)" stroke-width="1px" opacity="0.25"></line><line x1="119.5234375" y1="0" x2="119.5234375" y2="177" fill="rgb(0, 0, 0)" stroke="rgb(66, 66, 66)" stroke-width="1px" opacity="0.25"></line><line x1="143.428125" y1="0" x2="143.428125" y2="177" fill="rgb(0, 0, 0)" stroke="rgb(66, 66, 66)" stroke-width="1px" opacity="0.25"></line><line x1="167.3328125" y1="0" x2="167.3328125" y2="177" fill="rgb(0, 0, 0)" stroke="rgb(66, 66, 66)" stroke-width="1px" opacity="0.25"></line><line x1="191.2375" y1="0" x2="191.2375" y2="177" fill="rgb(0, 0, 0)" stroke="rgb(66, 66, 66)" stroke-width="1px" opacity="0.25"></line><line x1="215.1421875" y1="0" x2="215.1421875" y2="177" fill="rgb(0, 0, 0)" stroke="rgb(66, 66, 66)" stroke-width="1px" opacity="0.25"></line><line x1="239.046875" y1="0" x2="239.046875" y2="177" fill="rgb(0, 0, 0)" stroke="rgb(66, 66, 66)" stroke-width="1px" opacity="0.25"></line></g><g><line x1="0" y1="177" x2="239.046875" y2="177" fill="rgb(0, 0, 0)" stroke="rgb(66, 66, 66)" stroke-width="1px" opacity="0.25"></line><line x1="0" y1="160.9090909090909" x2="239.046875" y2="160.9090909090909" fill="rgb(0, 0, 0)" stroke="rgb(66, 66, 66)" stroke-width="1px" opacity="0.25"></line><line x1="0" y1="144.8181818181818" x2="239.046875" y2="144.8181818181818" fill="rgb(0, 0, 0)" stroke="rgb(66, 66, 66)" stroke-width="1px" opacity="0.25"></line><line x1="0" y1="128.72727272727272" x2="239.046875" y2="128.72727272727272" fill="rgb(0, 0, 0)" stroke="rgb(66, 66, 66)" stroke-width="1px" opacity="0.25"></line><line x1="0" y1="112.63636363636364" x2="239.046875" y2="112.63636363636364" fill="rgb(0, 0, 0)" stroke="rgb(66, 66, 66)" stroke-width="1px" opacity="0.25"></line><line x1="0" y1="96.54545454545453" x2="239.046875" y2="96.54545454545453" fill="rgb(0, 0, 0)" stroke="rgb(66, 66, 66)" stroke-width="1px" opacity="0.25"></line><line x1="0" y1="80.45454545454544" x2="239.046875" y2="80.45454545454544" fill="rgb(0, 0, 0)" stroke="rgb(66, 66, 66)" stroke-width="1px" opacity="0.25"></line><line x1="0" y1="64.36363636363635" x2="239.046875" y2="64.36363636363635" fill="rgb(0, 0, 0)" stroke="rgb(66, 66, 66)" stroke-width="1px" opacity="0.25"></line><line x1="0" y1="48.272727272727266" x2="239.046875" y2="48.272727272727266" fill="rgb(0, 0, 0)" stroke="rgb(66, 66, 66)" stroke-width="1px" opacity="0.25"></line><line x1="0" y1="32.18181818181815" x2="239.046875" y2="32.18181818181815" fill="rgb(0, 0, 0)" stroke="rgb(66, 66, 66)" stroke-width="1px" opacity="0.25"></line><line x1="0" y1="16.090909090909115" x2="239.046875" y2="16.090909090909115" fill="rgb(0, 0, 0)" stroke="rgb(66, 66, 66)" stroke-width="1px" opacity="0.25"></line><line x1="0" y1="0" x2="239.046875" y2="0" fill="rgb(0, 0, 0)" stroke="rgb(66, 66, 66)" stroke-width="1px" opacity="0.25"></line></g></g></g><g><g><line x1="0" y1="160.9090909090909" x2="239.046875" y2="160.9090909090909" fill="rgb(0, 0, 0)" stroke="rgb(153, 153, 153)" stroke-width="1.5px"></line></g></g><g><g><line x1="23.9046875" y1="0" x2="23.9046875" y2="177" fill="rgb(0, 0, 0)" stroke="rgb(153, 153, 153)" stroke-width="1.5px"></line></g></g><g><g><g><g><g><path stroke="rgb(204, 51, 17)" stroke-width="2px" d="M31.5541875,-2.955411266196876L32.032281250000004,3.0646651373667884L32.510375,8.148337162353753L32.98846875,13.799657323820993L33.4665625,19.332979084415836L33.944656249999994,23.521277924830233L34.42275,27.71739936687728L34.90084375,31.970317092808795L35.3789375,36.0043967887759L35.85703125,40.1838989488103L36.335125,44.241071804003255L36.81321875,48.31529853018845L37.2913125,52.35188835215838L37.76940625,56.41247797588055L38.2475,60.48621766269207L38.72559375,64.5872615260834L39.2036875,68.70962272821501L39.68178125,72.84843087535013L40.159875,77.00268941000104L40.637968750000006,81.16306216201998L41.1160625,85.32132191244851L41.59415625,89.46678376671942L42.07225,93.58640256253155L42.550343749999996,97.66445816748522L43.028437499999995,101.68409152633764L43.50653125,105.62762685628101L43.984625,109.47753823277624L44.46271875,113.21516830135474L44.9408125,116.82126776738599L45.41890625,120.27752395041965L45.897,123.5674374550581L46.375093750000005,126.67520572685383L46.853187500000004,129.58233438220552L47.33128125,132.2719606194137L47.809375,134.75394511256707L48.28746875,137.09744745272803L48.765562499999994,139.4044667973437L49.24365625,141.69703605838797L49.72175,143.85485276410526L50.19984375,145.70931231285527L50.6779375,147.1490522152321L51.15603125,148.2204676546495L51.634125,149.13564367283306L52.11221875,149.96732428331268L52.5903125,150.59970182578334L53.06840625,151.0706314355643L53.5465,151.47325658302924L54.02459375,151.76772995449772L54.5026875,151.99495161798868L54.98078125,152.1668502917005L55.458875000000006,152.29882484936917L55.936968750000005,152.3976432650604L56.4150625,152.47601351997054L56.89315625,152.53527216253462L57.371249999999996,152.57988122270697L57.849343749999996,152.60993717174807L58.3274375,152.62512624390763L58.80553125,152.62562077619475L59.283625,152.6088319670155L59.76171875,152.57383725140244L60.2398125,152.52051486951214L60.71790625,152.4472519717264L61.196,152.35481002537364L61.674093750000004,152.24497140723872L62.152187500000004,152.12004861773246L62.63028125,151.983978246254L63.108375,151.84234719638798L63.58646875,151.70129122762856L64.06456250000001,151.56724487939343L64.54265625000001,151.44632236905056L65.02075,151.34312434545294L65.49884375,151.26072758618236L65.9769375,151.1999844101427L66.45503125,151.15993947087026L66.933125,151.13851348488507L67.41121874999999,151.13276548366147L67.88931249999999,151.13972827347672L68.36740624999999,151.1565489275381L68.8455,151.18115190882236L69.32359375,151.21249757558954L69.8016875,151.25009795185179L70.27978125,151.29405512855473L70.757875,151.34529354389417L71.23596875,151.40496429669756L71.7140625,151.47490877044302L72.19215625,151.55769984428346L72.67025,151.65678519501606L73.14834375,151.77680293606088L73.6264375,151.9239984107712L74.10453125,152.10678241448477L74.582625,152.33595036224207L75.06071875,152.62518525060096L75.5388125,152.99101270015606L76.01690625,153.45056151103398L76.495,154.01671293805438L76.97309375,154.68645248847844L77.4511875,155.4188964850354L77.92928125,156.111810680119L78.407375,156.62562410675244L78.88546875,156.89901616625403L79.3635625,157.0208038739458L79.84165625,157.11344929972918L80.31975,157.1769723466555L80.79784375,157.1568110239671L81.27593750000001,157.040722379408L81.75403125000001,156.65497993669388L82.232125,155.35367067352954L82.71021875,150.58582588670436L83.1883125,146.47816297090188L83.66640625,155.59759497769517L84.1445,143.41108309232038L84.62259375,154.04591282173485L85.10068749999999,142.63151288498193L85.57878124999999,151.69313612796196L86.05687499999999,156.91165998937902L86.53496874999999,151.6416626224633L87.0130625,156.4477919822093L87.49115625,151.74727898387408L87.96925,154.72136759188618L88.44734375,151.5825257397426L88.9254375,131.44100588492373L89.40353125,144.73684547850013L89.881625,155.84891619234853L90.35971875,157.89276217232162L90.8378125,157.4244363499615L91.31590625,157.8103616665943L91.794,153.13047642480922L92.27209375,157.03207977206065L92.75018750000001,156.96107294368133L93.22828125000001,154.208340452857L93.70637500000001,154.77874972794035L94.18446875000001,156.37113994601268L94.6625625,98.43904558738524L95.14065625,134.4432833016088L95.61875,142.91215246500954L96.09684375,155.18377354432067L96.5749375,157.6571910617217L97.05303125,157.77878629519944L97.53112499999999,157.61507269280793L98.00921874999999,158.39171879067592L98.4873125,158.50055710486643L98.96540625,158.4639242510523L99.4435,158.397963197415L99.92159375,158.44006517558063L100.3996875,158.4367746158122L100.87778125,158.06334607387808L101.355875,157.72156947154807L101.83396875,157.63915913137183L102.3120625,156.41499503177L102.79015625,154.663579901892L103.26825,155.00891704302788L103.74634375,156.41993192511356L104.2244375,155.73232692751017L104.70253125,150.69988957140595L105.180625,150.6250316196714L105.65871875,157.86103975250046L106.1368125,158.09961973615415L106.61490625,153.66650868133135L107.093,127.00809713876382L107.57109375,151.1702206847258L108.0491875,157.81880360435355L108.52728125,156.17582919594662L109.005375,157.8502508937593L109.48346875,157.9906964242268L109.9615625,153.2150957695293L110.43965625,157.6211007416714L110.91775000000001,158.72283836271063L111.39584375000001,152.516812433658L111.87393750000001,148.53851373180407L112.35203125,157.6873675998385L112.830125,158.51116121646058L113.30821875,149.56382527481765L113.7863125,146.0866779124957L114.26440625,156.66165331272748L114.74249999999999,157.98691507862796L115.22059374999999,147.97848869813606L115.69868749999999,155.8243211722848L116.17678124999999,158.64379491635853L116.654875,153.46622731981122L117.13296875,148.57760426122695L117.6110625,157.7269653058399L118.08915625,158.48213109410028L118.56725,148.46224711234257L119.04534375,151.23465505724943L119.5234375,158.00284782244654L120.00153125,157.3360691435995L120.479625,146.2516315920617L120.95771875,155.57945463425395L121.4358125,158.6025932585736L121.91390625,153.9727337509182L122.392,147.23960782062602L122.87009375000001,157.46899413050744L123.34818750000001,158.60625354678962L123.82628125000001,149.97533233455297L124.30437500000001,150.81432040886614L124.78246875,158.1479743164329L125.2605625,157.7523798633113L125.73865625,147.49529506228015L126.21675,154.39371747292833L126.69484375,158.54317585990594L127.1729375,155.95188474547203L127.65103125,146.46666509522632L128.12912500000002,156.42303726942785L128.60721875000002,158.7011957846963L129.08531250000001,153.64659392232582L129.56340625,147.13467144111002L130.0415,157.4276941282336L130.51959375,158.7198805351297L130.9976875,151.35981481014326L131.47578125,149.5761117796329L131.953875,157.97043160567145L132.43196875,158.44370040936735L132.9100625,149.7322734618898L133.38815625,151.83948958652434L133.86625,158.23676861886105L134.34434375,158.0583202021874L134.82243749999998,148.62174876076594L135.30053124999998,152.95143138490278L135.77862499999998,158.29433479960161L136.25671874999998,157.90397648805413L136.73481249999998,147.8941081900319L137.21290625,153.3136898661244L137.691,158.25861748614855L138.16909375,157.9256223442181L138.6471875,147.74292367552832L139.12528125,153.48298615733668L139.603375,158.25238478708673L140.08146875,158.00555323250592L140.5595625,148.03668709344822L141.03765625,153.45123212678698L141.51575,158.25109085459687L141.99384375,158.20999924897808L142.4719375,148.5537187264047L142.95003125,152.84386686599728L143.428125,158.18596455834765L143.90621875,158.55193554402584L144.3843125,149.52951522417027L144.86240625,151.4259997145696L145.3405,158.06959820768415L145.81859375,158.84928619425574L146.2966875,151.25569328496402L146.77478125,149.43448634945196L147.252875,157.95984927035698L147.73096875,158.93568135946143L148.2090625,153.44714193266225L148.68715625,147.69603114998475L149.16525,157.80502788299188L149.64334375,158.83962220914492L150.1214375,155.55212610570544L150.59953125,146.8077818528664L151.077625,157.27835755350745L151.55571875,158.6431411596608L152.0338125,157.38995747460814L152.51190625,147.05032652434468L152.99,155.56867139519784L153.46809375,158.4103752085304L153.9461875,158.75259482936764L154.42428125,149.47278824973512L154.902375,151.18164363126695L155.38046875,158.2867950554514L155.8585625,158.99116392488148L156.33665625,154.2969333832364L156.81475,146.1738017635335L157.29284375,157.89722607550422L157.7709375,158.51354068478528L158.24903125,157.8969893462702L158.727125,147.18777371866798L159.20521875,154.83776250928216L159.6833125,158.5139469411859L160.16140625,159.09807492124276L160.6395,152.59643868818372L161.11759375,148.0305204256861L161.5956875,158.4783410848203L162.07378125000002,158.53932543901135L162.55187500000002,157.8162464134882L163.02996875000002,146.38535387179053L163.50806250000002,154.4706603278279L163.98615625000002,158.4139671239113L164.46425,159.02630721091884L164.94234375,153.70529574775983L165.4204375,146.35271474084055L165.89853125,158.4609526084122L166.376625,158.30784101023298L166.85471875,158.56784580910409L167.3328125,148.86375206924805L167.81090625,151.50084830016237L168.289,158.8649536421078L168.76709375,158.69943986726204L169.2451875,156.62960940008898L169.72328124999999,145.9016469713639L170.20137499999998,156.44597354577854L170.67946874999998,158.3089110919338L171.15756249999998,158.9016850745644L171.63565624999998,153.30308411545545L172.11374999999998,146.245493022725L172.59184374999998,158.90572188168088L173.06993749999998,158.06058423281436L173.54803125,158.44167123474605L174.026125,149.54170619433916L174.50421875,150.3518034676513L174.9823125,159.06595619654664L175.46040625,158.37693456999577L175.9385,157.26607081453866L176.41659375,146.82499588488346L176.8946875,155.14329963575372L177.37278125,158.51544528972062L177.850875,158.55949753276283L178.32896875,155.3442857994444L178.8070625,145.64706212459978L179.28515625,158.33037922555707L179.76325,158.02074324127963L180.24134375,158.32951988204678L180.7194375,152.45249982097778L181.19753125,147.20786971251735L181.675625,159.34018535497174L182.15371875,157.99300986125175L182.6318125,157.72034789250358L183.10990625,149.33166859121147L183.588,151.61224169783634L184.06609375,158.9877709229371L184.5441875,158.10520617143166L185.02228125,156.93779339823365L185.50037500000002,146.9003109043379L185.97846875000002,156.00868477581324L186.45656250000002,158.4452755602648L186.93465625000002,157.90494986434086L187.41275000000002,155.52409792636436L187.89084375000002,145.831487076357L188.36893750000002,158.63533565123691L188.84703125000001,158.0212682135276L189.325125,157.40637678949332L189.80321875,153.14860927533698L190.2813125,147.29411595606837L190.75940625,159.3661137623977L191.2375,157.8781727673909L191.71559375,156.91183326300234L192.1936875,150.40166880660266L192.67178125,151.28205897413534L193.149875,159.08150762131712L193.62796875,157.64808389374096L194.1060625,156.69836296890438L194.58415624999998,148.12867384530944L195.06224999999998,155.19059631031598L195.54034374999998,158.65032054150518L196.01843749999998,157.05129628519487L196.49653124999998,156.13621556750414L196.974625,146.85785793000832L197.45271875,157.66982856270096L197.9308125,158.24768274974883L198.40890625,156.15143461131746L198.887,154.84413101740012L199.36509375,147.23724755289203L199.8431875,158.84061361525463L200.32128125,158.02622735145798L200.799375,155.26105451693928L201.27746875,153.1009028320709L201.7555625,149.49806933968583L202.23365625,159.16035461284494L202.71175,157.86561206877442L203.18984375,155.0320926243016L203.6679375,151.41612592788243L204.14603125,152.22647046733817L204.624125,159.09510351275622L205.10221875,157.33091565822676L205.5803125,155.3059895188463L206.05840625,150.00925837338647L206.5365,154.27204801277682L207.01459375,158.77191437006167L207.4926875,156.19524333467282L207.97078125,155.4044698168185L208.448875,149.08669621577826L208.92696875,155.73755136140707L209.4050625,158.42150265329772L209.88315625,154.47948651155457L210.36125,155.1339466065507L210.83934375,149.28426467432556L211.3174375,156.84623842550948L211.79553125,158.39310591627674L212.273625,152.74872185112062L212.75171875,154.54476243191905L213.2298125,150.60983786444095L213.70790625,157.7889586276565L214.186,158.72720696540043L214.66409375,152.08750408481467" style="fill: none;" fill="none"></path></g></g></g></g></g></g><g transform="translate(61, 177)" clip-path="url(#clip_1)"><clipPath id="clip_1"><rect width="239" height="23"></rect></clipPath><g><g><line x1="0" y1="0" x2="0" y2="5" style="visibility: inherit;" fill="rgb(0, 0, 0)" stroke="rgb(204, 204, 204)" stroke-width="1px"></line><line x1="23.9046875" y1="0" x2="23.9046875" y2="5" style="visibility: inherit;" fill="rgb(0, 0, 0)" stroke="rgb(204, 204, 204)" stroke-width="1px"></line><line x1="47.809375" y1="0" x2="47.809375" y2="5" style="visibility: inherit;" fill="rgb(0, 0, 0)" stroke="rgb(204, 204, 204)" stroke-width="1px"></line><line x1="71.7140625" y1="0" x2="71.7140625" y2="5" style="visibility: inherit;" fill="rgb(0, 0, 0)" stroke="rgb(204, 204, 204)" stroke-width="1px"></line><line x1="95.61875" y1="0" x2="95.61875" y2="5" style="visibility: inherit;" fill="rgb(0, 0, 0)" stroke="rgb(204, 204, 204)" stroke-width="1px"></line><line x1="119.5234375" y1="0" x2="119.5234375" y2="5" style="visibility: inherit;" fill="rgb(0, 0, 0)" stroke="rgb(204, 204, 204)" stroke-width="1px"></line><line x1="143.428125" y1="0" x2="143.428125" y2="5" style="visibility: inherit;" fill="rgb(0, 0, 0)" stroke="rgb(204, 204, 204)" stroke-width="1px"></line><line x1="167.3328125" y1="0" x2="167.3328125" y2="5" style="visibility: inherit;" fill="rgb(0, 0, 0)" stroke="rgb(204, 204, 204)" stroke-width="1px"></line><line x1="191.2375" y1="0" x2="191.2375" y2="5" style="visibility: inherit;" fill="rgb(0, 0, 0)" stroke="rgb(204, 204, 204)" stroke-width="1px"></line><line x1="215.1421875" y1="0" x2="215.1421875" y2="5" style="visibility: inherit;" fill="rgb(0, 0, 0)" stroke="rgb(204, 204, 204)" stroke-width="1px"></line><line x1="239.046875" y1="0" x2="239.046875" y2="5" style="visibility: inherit;" fill="rgb(0, 0, 0)" stroke="rgb(204, 204, 204)" stroke-width="1px"></line></g><g transform="translate(0, 8)"><text x="0" y="0" dx="0em" dy="0.95em" style="text-anchor: middle; visibility: hidden; font-family: Roboto, sans-serif; font-size: 12px; font-weight: 200;" fill="rgb(33, 33, 33)" stroke="none" stroke-width="1px">-50</text><text x="23.9046875" y="0" dx="0em" dy="0.95em" style="text-anchor: middle; visibility: inherit; font-family: Roboto, sans-serif; font-size: 12px; font-weight: 200;" fill="rgb(33, 33, 33)" stroke="none" stroke-width="1px">0</text><text x="47.809375" y="0" dx="0em" dy="0.95em" style="text-anchor: middle; visibility: hidden; font-family: Roboto, sans-serif; font-size: 12px; font-weight: 200;" fill="rgb(33, 33, 33)" stroke="none" stroke-width="1px">50</text><text x="71.7140625" y="0" dx="0em" dy="0.95em" style="text-anchor: middle; visibility: inherit; font-family: Roboto, sans-serif; font-size: 12px; font-weight: 200;" fill="rgb(33, 33, 33)" stroke="none" stroke-width="1px">100</text><text x="95.61875" y="0" dx="0em" dy="0.95em" style="text-anchor: middle; visibility: hidden; font-family: Roboto, sans-serif; font-size: 12px; font-weight: 200;" fill="rgb(33, 33, 33)" stroke="none" stroke-width="1px">150</text><text x="119.5234375" y="0" dx="0em" dy="0.95em" style="text-anchor: middle; visibility: inherit; font-family: Roboto, sans-serif; font-size: 12px; font-weight: 200;" fill="rgb(33, 33, 33)" stroke="none" stroke-width="1px">200</text><text x="143.428125" y="0" dx="0em" dy="0.95em" style="text-anchor: middle; visibility: hidden; font-family: Roboto, sans-serif; font-size: 12px; font-weight: 200;" fill="rgb(33, 33, 33)" stroke="none" stroke-width="1px">250</text><text x="167.3328125" y="0" dx="0em" dy="0.95em" style="text-anchor: middle; visibility: inherit; font-family: Roboto, sans-serif; font-size: 12px; font-weight: 200;" fill="rgb(33, 33, 33)" stroke="none" stroke-width="1px">300</text><text x="191.2375" y="0" dx="0em" dy="0.95em" style="text-anchor: middle; visibility: hidden; font-family: Roboto, sans-serif; font-size: 12px; font-weight: 200;" fill="rgb(33, 33, 33)" stroke="none" stroke-width="1px">350</text><text x="215.1421875" y="0" dx="0em" dy="0.95em" style="text-anchor: middle; visibility: inherit; font-family: Roboto, sans-serif; font-size: 12px; font-weight: 200;" fill="rgb(33, 33, 33)" stroke="none" stroke-width="1px">400</text><text x="239.046875" y="0" dx="0em" dy="0.95em" style="text-anchor: middle; visibility: hidden; font-family: Roboto, sans-serif; font-size: 12px; font-weight: 200;" fill="rgb(33, 33, 33)" stroke="none" stroke-width="1px">450</text></g><line x1="0" y1="0" x2="239.046875" y2="0" fill="rgb(0, 0, 0)" stroke="rgb(204, 204, 204)" stroke-width="1px"></line></g></g></g></g></svg>