<svg viewBox="0 0 301 200" xmlns="http://www.w3.org/2000/svg"><g><g><g><g><g><line x1="61.953125" y1="177" x2="56.953125" y2="177" style="visibility: inherit;" fill="rgb(0, 0, 0)" stroke="rgb(204, 204, 204)" stroke-width="1px"></line><line x1="61.953125" y1="163.3846153846154" x2="56.953125" y2="163.3846153846154" style="visibility: inherit;" fill="rgb(0, 0, 0)" stroke="rgb(204, 204, 204)" stroke-width="1px"></line><line x1="61.953125" y1="149.76923076923077" x2="56.953125" y2="149.76923076923077" style="visibility: inherit;" fill="rgb(0, 0, 0)" stroke="rgb(204, 204, 204)" stroke-width="1px"></line><line x1="61.953125" y1="136.15384615384616" x2="56.953125" y2="136.15384615384616" style="visibility: inherit;" fill="rgb(0, 0, 0)" stroke="rgb(204, 204, 204)" stroke-width="1px"></line><line x1="61.953125" y1="122.53846153846153" x2="56.953125" y2="122.53846153846153" style="visibility: inherit;" fill="rgb(0, 0, 0)" stroke="rgb(204, 204, 204)" stroke-width="1px"></line><line x1="61.953125" y1="108.92307692307693" x2="56.953125" y2="108.92307692307693" style="visibility: inherit;" fill="rgb(0, 0, 0)" stroke="rgb(204, 204, 204)" stroke-width="1px"></line><line x1="61.953125" y1="95.3076923076923" x2="56.953125" y2="95.3076923076923" style="visibility: inherit;" fill="rgb(0, 0, 0)" stroke="rgb(204, 204, 204)" stroke-width="1px"></line><line x1="61.953125" y1="81.6923076923077" x2="56.953125" y2="81.6923076923077" style="visibility: inherit;" fill="rgb(0, 0, 0)" stroke="rgb(204, 204, 204)" stroke-width="1px"></line><line x1="61.953125" y1="68.07692307692307" x2="56.953125" y2="68.07692307692307" style="visibility: inherit;" fill="rgb(0, 0, 0)" stroke="rgb(204, 204, 204)" stroke-width="1px"></line><line x1="61.953125" y1="54.46153846153847" x2="56.953125" y2="54.46153846153847" style="visibility: inherit;" fill="rgb(0, 0, 0)" stroke="rgb(204, 204, 204)" stroke-width="1px"></line><line x1="61.953125" y1="40.84615384615386" x2="56.953125" y2="40.84615384615386" style="visibility: inherit;" fill="rgb(0, 0, 0)" stroke="rgb(204, 204, 204)" stroke-width="1px"></line><line x1="61.953125" y1="27.230769230769234" x2="56.953125" y2="27.230769230769234" style="visibility: inherit;" fill="rgb(0, 0, 0)" stroke="rgb(204, 204, 204)" stroke-width="1px"></line><line x1="61.953125" y1="13.615384615384626" x2="56.953125" y2="13.615384615384626" style="visibility: inherit;" fill="rgb(0, 0, 0)" stroke="rgb(204, 204, 204)" stroke-width="1px"></line><line x1="61.953125" y1="0" x2="56.953125" y2="0" style="visibility: inherit;" fill="rgb(0, 0, 0)" stroke="rgb(204, 204, 204)" stroke-width="1px"></line></g><g transform="translate(51.953125, 0)"><text x="0" y="177" dx="0em" dy="0.3em" style="text-anchor: end; visibility: hidden; font-family: Roboto, sans-serif; font-size: 12px; font-weight: 200;" fill="rgb(33, 33, 33)" stroke="none" stroke-width="1px">-5e-3</text><text x="0" y="163.3846153846154" dx="0em" dy="0.3em" style="text-anchor: end; visibility: inherit; font-family: Roboto, sans-serif; font-size: 12px; font-weight: 200;" fill="rgb(33, 33, 33)" stroke="none" stroke-width="1px">0</text><text x="0" y="149.76923076923077" dx="0em" dy="0.3em" style="text-anchor: end; visibility: hidden; font-family: Roboto, sans-serif; font-size: 12px; font-weight: 200;" fill="rgb(33, 33, 33)" stroke="none" stroke-width="1px">5e-3</text><text x="0" y="136.15384615384616" dx="0em" dy="0.3em" style="text-anchor: end; visibility: inherit; font-family: Roboto, sans-serif; font-size: 12px; font-weight: 200;" fill="rgb(33, 33, 33)" stroke="none" stroke-width="1px">0.01</text><text x="0" y="122.53846153846153" dx="0em" dy="0.3em" style="text-anchor: end; visibility: hidden; font-family: Roboto, sans-serif; font-size: 12px; font-weight: 200;" fill="rgb(33, 33, 33)" stroke="none" stroke-width="1px">0.015</text><text x="0" y="108.92307692307693" dx="0em" dy="0.3em" style="text-anchor: end; visibility: inherit; font-family: Roboto, sans-serif; font-size: 12px; font-weight: 200;" fill="rgb(33, 33, 33)" stroke="none" stroke-width="1px">0.02</text><text x="0" y="95.3076923076923" dx="0em" dy="0.3em" style="text-anchor: end; visibility: hidden; font-family: Roboto, sans-serif; font-size: 12px; font-weight: 200;" fill="rgb(33, 33, 33)" stroke="none" stroke-width="1px">0.025</text><text x="0" y="81.6923076923077" dx="0em" dy="0.3em" style="text-anchor: end; visibility: inherit; font-family: Roboto, sans-serif; font-size: 12px; font-weight: 200;" fill="rgb(33, 33, 33)" stroke="none" stroke-width="1px">0.03</text><text x="0" y="68.07692307692307" dx="0em" dy="0.3em" style="text-anchor: end; visibility: hidden; font-family: Roboto, sans-serif; font-size: 12px; font-weight: 200;" fill="rgb(33, 33, 33)" stroke="none" stroke-width="1px">0.035</text><text x="0" y="54.46153846153847" dx="0em" dy="0.3em" style="text-anchor: end; visibility: inherit; font-family: Roboto, sans-serif; font-size: 12px; font-weight: 200;" fill="rgb(33, 33, 33)" stroke="none" stroke-width="1px">0.04</text><text x="0" y="40.84615384615386" dx="0em" dy="0.3em" style="text-anchor: end; visibility: hidden; font-family: Roboto, sans-serif; font-size: 12px; font-weight: 200;" fill="rgb(33, 33, 33)" stroke="none" stroke-width="1px">0.045</text><text x="0" y="27.230769230769234" dx="0em" dy="0.3em" style="text-anchor: end; visibility: inherit; font-family: Roboto, sans-serif; font-size: 12px; font-weight: 200;" fill="rgb(33, 33, 33)" stroke="none" stroke-width="1px">0.05</text><text x="0" y="13.615384615384626" dx="0em" dy="0.3em" style="text-anchor: end; visibility: hidden; font-family: Roboto, sans-serif; font-size: 12px; font-weight: 200;" fill="rgb(33, 33, 33)" stroke="none" stroke-width="1px">0.055</text><text x="0" y="0" dx="0em" dy="0.3em" style="text-anchor: end; visibility: hidden; font-family: Roboto, sans-serif; font-size: 12px; font-weight: 200;" fill="rgb(33, 33, 33)" stroke="none" stroke-width="1px">0.06</text></g><line x1="61.953125" y1="0" x2="61.953125" y2="177" fill="rgb(0, 0, 0)" stroke="rgb(204, 204, 204)" stroke-width="1px"></line></g></g><g transform="translate(61, 0)" clip-path="url(#clip_0)"><clipPath id="clip_0"><rect width="239" height="177"></rect></clipPath><g><g><g><line x1="0" y1="0" x2="0" y2="177" fill="rgb(0, 0, 0)" stroke="rgb(66, 66, 66)" stroke-width="1px" opacity="0.25"></line><line x1="23.9046875" y1="0" x2="23.9046875" y2="177" fill="rgb(0, 0, 0)" stroke="rgb(66, 66, 66)" stroke-width="1px" opacity="0.25"></line><line x1="47.809375" y1="0" x2="47.809375" y2="177" fill="rgb(0, 0, 0)" stroke="rgb(66, 66, 66)" stroke-width="1px" opacity="0.25"></line><line x1="71.7140625" y1="0" x2="71.7140625" y2="177" fill="rgb(0, 0, 0)" stroke="rgb(66, 66, 66)" stroke-width="1px" opacity="0.25"></line><line x1="95.61875" y1="0" x2="95.61875" y2="177" fill="rgb(0, 0, 0)" stroke="rgb(66, 66, 66)" stroke-width="1px" opacity="0.25"></line><line x1="119.5234375" y1="0" x2="119.5234375" y2="177" fill="rgb(0, 0, 0)" stroke="rgb(66, 66, 66)" stroke-width="1px" opacity="0.25"></line><line x1="143.428125" y1="0" x2="143.428125" y2="177" fill="rgb(0, 0, 0)" stroke="rgb(66, 66, 66)" stroke-width="1px" opacity="0.25"></line><line x1="167.3328125" y1="0" x2="167.3328125" y2="177" fill="rgb(0, 0, 0)" stroke="rgb(66, 66, 66)" stroke-width="1px" opacity="0.25"></line><line x1="191.2375" y1="0" x2="191.2375" y2="177" fill="rgb(0, 0, 0)" stroke="rgb(66, 66, 66)" stroke-width="1px" opacity="0.25"></line><line x1="215.1421875" y1="0" x2="215.1421875" y2="177" fill="rgb(0, 0, 0)" stroke="rgb(66, 66, 66)" stroke-width="1px" opacity="0.25"></line><line x1="239.046875" y1="0" x2="239.046875" y2="177" fill="rgb(0, 0, 0)" stroke="rgb(66, 66, 66)" stroke-width="1px" opacity="0.25"></line></g><g><line x1="0" y1="177" x2="239.046875" y2="177" fill="rgb(0, 0, 0)" stroke="rgb(66, 66, 66)" stroke-width="1px" opacity="0.25"></line><line x1="0" y1="163.3846153846154" x2="239.046875" y2="163.3846153846154" fill="rgb(0, 0, 0)" stroke="rgb(66, 66, 66)" stroke-width="1px" opacity="0.25"></line><line x1="0" y1="149.76923076923077" x2="239.046875" y2="149.76923076923077" fill="rgb(0, 0, 0)" stroke="rgb(66, 66, 66)" stroke-width="1px" opacity="0.25"></line><line x1="0" y1="136.15384615384616" x2="239.046875" y2="136.15384615384616" fill="rgb(0, 0, 0)" stroke="rgb(66, 66, 66)" stroke-width="1px" opacity="0.25"></line><line x1="0" y1="122.53846153846153" x2="239.046875" y2="122.53846153846153" fill="rgb(0, 0, 0)" stroke="rgb(66, 66, 66)" stroke-width="1px" opacity="0.25"></line><line x1="0" y1="108.92307692307693" x2="239.046875" y2="108.92307692307693" fill="rgb(0, 0, 0)" stroke="rgb(66, 66, 66)" stroke-width="1px" opacity="0.25"></line><line x1="0" y1="95.3076923076923" x2="239.046875" y2="95.3076923076923" fill="rgb(0, 0, 0)" stroke="rgb(66, 66, 66)" stroke-width="1px" opacity="0.25"></line><line x1="0" y1="81.6923076923077" x2="239.046875" y2="81.6923076923077" fill="rgb(0, 0, 0)" stroke="rgb(66, 66, 66)" stroke-width="1px" opacity="0.25"></line><line x1="0" y1="68.07692307692307" x2="239.046875" y2="68.07692307692307" fill="rgb(0, 0, 0)" stroke="rgb(66, 66, 66)" stroke-width="1px" opacity="0.25"></line><line x1="0" y1="54.46153846153847" x2="239.046875" y2="54.46153846153847" fill="rgb(0, 0, 0)" stroke="rgb(66, 66, 66)" stroke-width="1px" opacity="0.25"></line><line x1="0" y1="40.84615384615386" x2="239.046875" y2="40.84615384615386" fill="rgb(0, 0, 0)" stroke="rgb(66, 66, 66)" stroke-width="1px" opacity="0.25"></line><line x1="0" y1="27.230769230769234" x2="239.046875" y2="27.230769230769234" fill="rgb(0, 0, 0)" stroke="rgb(66, 66, 66)" stroke-width="1px" opacity="0.25"></line><line x1="0" y1="13.615384615384626" x2="239.046875" y2="13.615384615384626" fill="rgb(0, 0, 0)" stroke="rgb(66, 66, 66)" stroke-width="1px" opacity="0.25"></line><line x1="0" y1="0" x2="239.046875" y2="0" fill="rgb(0, 0, 0)" stroke="rgb(66, 66, 66)" stroke-width="1px" opacity="0.25"></line></g></g></g><g><g><line x1="0" y1="163.3846153846154" x2="239.046875" y2="163.3846153846154" fill="rgb(0, 0, 0)" stroke="rgb(153, 153, 153)" stroke-width="1.5px"></line></g></g><g><g><line x1="23.9046875" y1="0" x2="23.9046875" y2="177" fill="rgb(0, 0, 0)" stroke="rgb(153, 153, 153)" stroke-width="1.5px"></line></g></g><g><g><g><g><g><path stroke="rgb(204, 51, 17)" stroke-width="2px" d="M31.076093750000002,-0.5590562224388123L31.5541875,2.961709334300116L32.032281250000004,5.827724287143108L32.510375,8.374743090226119L32.98846875,11.049569324805205L33.4665625,13.72262031527667L33.944656249999994,16.1871257722378L34.42275,18.658580041848708L34.90084375,21.108315467834494L35.3789375,23.496678168957057L35.85703125,25.89179694194061L36.335125,28.256077188711917L36.81321875,30.617760506960064L37.2913125,32.96712870322742L37.76940625,35.314204298532935L38.2475,37.65715118325675L38.72559375,39.998789459466956L39.2036875,42.33821628873167L39.68178125,44.673169502845184L40.159875,47.00121448131709L40.637968750000006,49.31771530096348L41.1160625,51.617518681746276L41.59415625,53.894517783935264L42.07225,56.14165220810817L42.550343749999996,58.351100735939475L43.028437499999995,60.514900129575L43.50653125,62.62565522927505L43.984625,64.67735049357783L44.46271875,66.66538043205554L44.9408125,68.58649888405434L45.41890625,70.43887988420634L45.897,72.22175246935626L46.375093750000005,73.93485288895094L46.853187500000004,75.57745075684329L47.33128125,77.14870410011366L47.809375,78.65189965642416L48.28746875,80.10054449737073L48.765562499999994,81.51461772735304L49.24365625,82.90152465036284L49.72175,84.24387801839755L50.19984375,85.51265005423473L50.6779375,86.68477272872741L51.15603125,87.76420737229861L51.634125,88.78734648915439L52.11221875,89.76919850019308L52.5903125,90.69051975928821L53.06840625,91.55702148034025L53.5465,92.38503590913919L54.02459375,93.16983582423283L54.5026875,93.92115970758292L54.98078125,94.64232472960765L55.458875000000006,95.33813926577568L55.936968750000005,96.01206250603383L56.4150625,96.66818258395561L56.89315625,97.3087210907386L57.371249999999996,97.93644233506458L57.849343749999996,98.55305562340295L58.3274375,99.16013331482044L58.80553125,99.75905502759493L59.283625,100.35057650850369L59.76171875,100.93551436983621L60.2398125,101.51460914199168L60.71790625,102.08821587379163L61.196,102.6569127876025L61.674093750000004,103.22135925980714L62.152187500000004,103.7822146667884L62.63028125,104.34036155847403L63.108375,104.8969817402271L63.58646875,105.45338889268729L64.06456250000001,106.01100828326666L64.54265625000001,106.57132097276357L65.02075,107.13564064181769L65.49884375,107.70513387941396L65.9769375,108.2807238124884L66.45503125,108.86308503380188L66.933125,109.45279069359486L67.41121874999999,110.05035307659553L67.88931249999999,110.65629461178413L68.36740624999999,111.27118844940111L68.8455,111.89576497559364L69.32359375,112.53093210091957L69.8016875,113.17766874570114L70.27978125,113.83701469577277L70.757875,114.51019740563171L71.23596875,115.19836317575896L71.7140625,115.90282061466804L72.19215625,116.62491890788078L72.67025,117.36614418832156L73.14834375,118.12814489694742L73.6264375,118.91279264826042L74.10453125,119.72226338432385L74.582625,120.5590627353925L75.06071875,121.42612492636992L75.5388125,122.32675698342231L76.01690625,123.26424818027479L76.495,124.24101031285065L76.97309375,125.25663253894218L77.4511875,126.30410010826128L77.92928125,127.36596237123013L78.407375,128.4183194700342L78.88546875,129.44989606852715L79.3635625,130.47341559483453L79.84165625,131.506272905148L80.31975,132.5447095540854L80.79784375,133.57361567822787L81.27593750000001,134.58448025011097L81.75403125000001,135.5405658609592L82.232125,136.32365900564653L82.71021875,136.4897254837247L83.1883125,136.7277071006023L83.66640625,139.14934294842755L84.1445,137.84564932493063L84.62259375,140.4312822234172L85.10068749999999,139.28039146845157L85.57878124999999,141.48148620472503L86.05687499999999,142.96773578799687L86.53496874999999,142.68562540669853L87.0130625,144.0640656833465L87.49115625,143.71059809711116L87.96925,144.62666843774227L88.44734375,144.55369829673035L88.9254375,141.53353889802327L89.40353125,144.06877768842074L89.881625,146.26977351823678L90.35971875,146.9231292874767L90.8378125,147.1319867567374L91.31590625,147.44993297641093L91.794,146.90233230275604L92.27209375,147.8033029242204L92.75018750000001,147.98582591517615L93.22828125000001,147.66842241298693L93.70637500000001,147.95038570263063L94.18446875000001,148.42480193794918L94.6625625,138.73459013150287L95.14065625,144.9426352602358L95.61875,146.54321310010093L96.09684375,148.81071971844023L96.5749375,149.42185764673812L97.05303125,149.5579897050674L97.53112499999999,149.71276943471568L98.00921874999999,149.95806378928515L98.4873125,150.13094720473657L98.96540625,150.25011300152312L99.4435,150.37979077948975L99.92159375,150.51813935689054L100.3996875,150.64718058304143L100.87778125,150.71751068245905L101.355875,150.7894993670858L101.83396875,150.90580575282758L102.3120625,150.8265512476747L102.79015625,150.65800957209788L103.26825,150.84408051520586L103.74634375,151.20212442714435L104.2244375,151.20224362210584L104.70253125,150.46596239650478L105.180625,150.5716895953967L105.65871875,151.89622965684305L106.1368125,152.0051611713492L106.61490625,151.36538094740646L107.093,146.9405444321724L107.57109375,151.11846478054156L108.0491875,152.2950483898704L108.52728125,152.16213079140735L109.005375,152.53742754000885L109.48346875,152.6233011696201L109.9615625,151.91988098048245L110.43965625,152.75842577691836L110.91775000000001,152.99958508074855L111.39584375000001,152.03233889060525L111.87393750000001,151.4590555068392L112.35203125,153.0696869344952L112.830125,153.2426508699472L113.30821875,151.8163588883785L113.7863125,151.3256078712069L114.26440625,153.15254645321804L114.74249999999999,153.418187007308L115.22059374999999,151.82248474858127L115.69868749999999,153.24601305548387L116.17678124999999,153.73763521029971L116.654875,152.94079089795167L117.13296875,152.20377801817196L117.6110625,153.80563276576308L118.08915625,153.96121198927554L118.56725,152.34197316376063L119.04534375,152.90574757926737L119.5234375,154.06752945683323L120.00153125,154.00636595716844L120.479625,152.20676042827276L120.95771875,153.8701603530118L121.4358125,154.38463243555563L121.91390625,153.66970359247463L122.392,152.6111990769322L122.87009375000001,154.39366779404764L123.34818750000001,154.6017118210976L123.82628125000001,153.21002632135955L124.30437500000001,153.4399438918783L124.78246875,154.6989628633914L125.2605625,154.67113654602034L125.73865625,153.00175848674888L126.21675,154.25163621913927L126.69484375,154.95624835789204L127.1729375,154.57038510275575L127.65103125,153.03287534587656L128.12912500000002,154.7848079622938L128.60721875000002,155.1687615619829L129.08531250000001,154.37178854443704L129.56340625,153.34353418848835L130.0415,155.13000037492466L130.51959375,155.35516536336107L130.9976875,154.16960662703676L131.47578125,153.94707914413166L131.953875,155.39008124487904L132.43196875,155.49113701570494L132.9100625,154.07515920240147L133.38815625,154.51040467648554L133.86625,155.6031232181077L134.34434375,155.60162820896278L134.82243749999998,154.0610815166281L135.30053124999998,154.87009449331808L135.77862499999998,155.77707748616544L136.25671874999998,155.74181035992044L136.73481249999998,154.10319918308122L137.21290625,155.095676030104L137.691,155.9301960945416L138.16909375,155.90460658474612L138.6471875,154.23660624170532L139.12528125,155.28220663463267L139.603375,156.0853790582086L140.08146875,156.0731495283544L140.5595625,154.44073775754524L141.03765625,155.42943079855579L141.51575,156.23908793525052L141.99384375,156.258316364999L142.4719375,154.67723070543545L142.95003125,155.47395138471174L143.428125,156.3788186669923L143.90621875,156.46074871862163L144.3843125,154.98546443779307L144.86240625,155.37449143153543L145.3405,156.50693549817572L145.81859375,156.6498933700988L146.2966875,155.41547801388572L146.77478125,155.17033645711265L147.252875,156.63354337186766L147.73096875,156.80013861908364L148.2090625,155.9197861898977L148.68715625,155.0034812634381L149.16525,156.748927898705L149.64334375,156.9190115005924L150.1214375,156.40541816388185L150.59953125,154.97758552403403L151.077625,156.79589832172942L151.55571875,157.0204812837048L152.0338125,156.8411892370249L152.51190625,155.14043373815142L152.99,156.63425346951072L153.46809375,157.11408039526296L153.9461875,157.19045266480398L154.42428125,155.6684972163863L154.902375,156.00529272438814L155.38046875,157.22136854093807L155.8585625,157.34518167319206L156.33665625,156.5938121407078L156.81475,155.2612593881786L157.29284375,157.27698757284534L157.7709375,157.38587153617007L158.24903125,157.30605529306027L158.727125,155.54517037421465L159.20521875,156.8730802293867L159.6833125,157.51152838623295L160.16140625,157.62122071964237L160.6395,156.56694635720206L161.11759375,155.8238317098182L161.5956875,157.6122868036708L162.07378125000002,157.63811280134206L162.55187500000002,157.53175095268168L163.02996875000002,155.6490424430141L163.50806250000002,157.0280742563594L163.98615625000002,157.721633598495L164.46425,157.83254704624414L164.94234375,156.97557394793975L165.4204375,155.7585673962648L165.89853125,157.8146525856394L166.376625,157.82961472338783L166.85471875,157.87053853817858L167.3328125,156.29215632178463L167.81090625,156.73090790298122L168.289,158.00920665951875L168.76709375,158.0035607492408L169.2451875,157.66816070991067L169.72328124999999,155.90288269591446L170.20137499999998,157.66392104657223L170.67946874999998,158.0392114550162L171.15756249999998,158.12875540181994L171.63565624999998,157.23214173660827L172.11374999999998,156.0464485889444L172.59184374999998,158.18238299024793L173.06993749999998,158.10620282747996L173.54803125,158.14270755247426L174.026125,156.71707875138293L174.50421875,156.8154741921104L174.9823125,158.3342154976697L175.46040625,158.25273591423263L175.9385,158.05640469419842L176.41659375,156.36011013016105L176.8946875,157.712246995276L177.37278125,158.36694877995896L177.850875,158.36231729488534L178.32896875,157.85187057835552L178.8070625,156.2360712882991L179.28515625,158.34513166389215L179.76325,158.3883483966526L180.24134375,158.3927319815669L180.7194375,157.47733084456277L181.19753125,156.5525846323715L181.675625,158.62382818736995L182.15371875,158.46728969802362L182.6318125,158.37217719086374L183.10990625,157.05149670031207L183.588,157.35691286666463L184.06609375,158.68928650974368L184.5441875,158.55627919805164L185.02228125,158.34683970232996L185.50037500000002,156.71869739359963L185.97846875000002,158.17968905731462L186.45656250000002,158.71133060344997L186.93465625000002,158.58073952579153L187.41275000000002,158.21712324940242L187.89084375000002,156.588675979095L188.36893750000002,158.71098157777809L188.84703125000001,158.72655363868063L189.325125,158.5474226320019L189.80321875,157.91662704529097L190.2813125,156.86697021957772L190.75940625,158.9384445563102L191.2375,158.76709514197248L191.71559375,158.53132750810337L192.1936875,157.5405688437705L192.67178125,157.5843869404724L193.149875,159.0102687138491L193.62796875,158.78240630539278L194.1060625,158.58739859324234L194.58415624999998,157.22376512048336L195.06224999999998,158.30995456788403L195.54034374999998,159.04347909299227L196.01843749999998,158.72743872467143L196.49653124999998,158.58658388300012L196.974625,157.0530145340241L197.45271875,158.80248209719474L197.9308125,159.05454108283783L198.40890625,158.6133013068197L198.887,158.45709409070415L199.36509375,157.14200878917026L199.8431875,159.08941321726888L200.32128125,159.07538466771635L200.799375,158.50825250478317L201.27746875,158.24623725276726L201.7555625,157.55010190462838L202.23365625,159.25205252319574L202.71175,159.09721795118486L203.18984375,158.53448871064646L203.6679375,158.0339320058433L204.14603125,158.05019070580602L204.624125,159.34506897427715L205.10221875,159.0502370669005L205.5803125,158.65088195654636L206.05840625,157.85290021993794L206.5365,158.43813448363485L207.01459375,159.3727494680251L207.4926875,158.89251804022263L207.97078125,158.73351386361398L208.448875,157.73734894695764L208.92696875,158.73426136818642L209.4050625,159.3791086460249L209.88315625,158.63319894019514L210.36125,158.75882060238374L210.83934375,157.80299747405718L211.3174375,158.99752594824307L211.79553125,159.43265634846802L212.273625,158.3823312701514L212.75171875,158.73812442616773L213.2298125,158.06263009487438L213.70790625,159.26054991932156L214.186,159.54872497830254L214.66409375,158.3277951371498" style="fill: none;" fill="none"></path></g></g></g></g></g></g><g transform="translate(61, 177)" clip-path="url(#clip_1)"><clipPath id="clip_1"><rect width="239" height="23"></rect></clipPath><g><g><line x1="0" y1="0" x2="0" y2="5" style="visibility: inherit;" fill="rgb(0, 0, 0)" stroke="rgb(204, 204, 204)" stroke-width="1px"></line><line x1="23.9046875" y1="0" x2="23.9046875" y2="5" style="visibility: inherit;" fill="rgb(0, 0, 0)" stroke="rgb(204, 204, 204)" stroke-width="1px"></line><line x1="47.809375" y1="0" x2="47.809375" y2="5" style="visibility: inherit;" fill="rgb(0, 0, 0)" stroke="rgb(204, 204, 204)" stroke-width="1px"></line><line x1="71.7140625" y1="0" x2="71.7140625" y2="5" style="visibility: inherit;" fill="rgb(0, 0, 0)" stroke="rgb(204, 204, 204)" stroke-width="1px"></line><line x1="95.61875" y1="0" x2="95.61875" y2="5" style="visibility: inherit;" fill="rgb(0, 0, 0)" stroke="rgb(204, 204, 204)" stroke-width="1px"></line><line x1="119.5234375" y1="0" x2="119.5234375" y2="5" style="visibility: inherit;" fill="rgb(0, 0, 0)" stroke="rgb(204, 204, 204)" stroke-width="1px"></line><line x1="143.428125" y1="0" x2="143.428125" y2="5" style="visibility: inherit;" fill="rgb(0, 0, 0)" stroke="rgb(204, 204, 204)" stroke-width="1px"></line><line x1="167.3328125" y1="0" x2="167.3328125" y2="5" style="visibility: inherit;" fill="rgb(0, 0, 0)" stroke="rgb(204, 204, 204)" stroke-width="1px"></line><line x1="191.2375" y1="0" x2="191.2375" y2="5" style="visibility: inherit;" fill="rgb(0, 0, 0)" stroke="rgb(204, 204, 204)" stroke-width="1px"></line><line x1="215.1421875" y1="0" x2="215.1421875" y2="5" style="visibility: inherit;" fill="rgb(0, 0, 0)" stroke="rgb(204, 204, 204)" stroke-width="1px"></line><line x1="239.046875" y1="0" x2="239.046875" y2="5" style="visibility: inherit;" fill="rgb(0, 0, 0)" stroke="rgb(204, 204, 204)" stroke-width="1px"></line></g><g transform="translate(0, 8)"><text x="0" y="0" dx="0em" dy="0.95em" style="text-anchor: middle; visibility: hidden; font-family: Roboto, sans-serif; font-size: 12px; font-weight: 200;" fill="rgb(33, 33, 33)" stroke="none" stroke-width="1px">-50</text><text x="23.9046875" y="0" dx="0em" dy="0.95em" style="text-anchor: middle; visibility: inherit; font-family: Roboto, sans-serif; font-size: 12px; font-weight: 200;" fill="rgb(33, 33, 33)" stroke="none" stroke-width="1px">0</text><text x="47.809375" y="0" dx="0em" dy="0.95em" style="text-anchor: middle; visibility: hidden; font-family: Roboto, sans-serif; font-size: 12px; font-weight: 200;" fill="rgb(33, 33, 33)" stroke="none" stroke-width="1px">50</text><text x="71.7140625" y="0" dx="0em" dy="0.95em" style="text-anchor: middle; visibility: inherit; font-family: Roboto, sans-serif; font-size: 12px; font-weight: 200;" fill="rgb(33, 33, 33)" stroke="none" stroke-width="1px">100</text><text x="95.61875" y="0" dx="0em" dy="0.95em" style="text-anchor: middle; visibility: hidden; font-family: Roboto, sans-serif; font-size: 12px; font-weight: 200;" fill="rgb(33, 33, 33)" stroke="none" stroke-width="1px">150</text><text x="119.5234375" y="0" dx="0em" dy="0.95em" style="text-anchor: middle; visibility: inherit; font-family: Roboto, sans-serif; font-size: 12px; font-weight: 200;" fill="rgb(33, 33, 33)" stroke="none" stroke-width="1px">200</text><text x="143.428125" y="0" dx="0em" dy="0.95em" style="text-anchor: middle; visibility: hidden; font-family: Roboto, sans-serif; font-size: 12px; font-weight: 200;" fill="rgb(33, 33, 33)" stroke="none" stroke-width="1px">250</text><text x="167.3328125" y="0" dx="0em" dy="0.95em" style="text-anchor: middle; visibility: inherit; font-family: Roboto, sans-serif; font-size: 12px; font-weight: 200;" fill="rgb(33, 33, 33)" stroke="none" stroke-width="1px">300</text><text x="191.2375" y="0" dx="0em" dy="0.95em" style="text-anchor: middle; visibility: hidden; font-family: Roboto, sans-serif; font-size: 12px; font-weight: 200;" fill="rgb(33, 33, 33)" stroke="none" stroke-width="1px">350</text><text x="215.1421875" y="0" dx="0em" dy="0.95em" style="text-anchor: middle; visibility: inherit; font-family: Roboto, sans-serif; font-size: 12px; font-weight: 200;" fill="rgb(33, 33, 33)" stroke="none" stroke-width="1px">400</text><text x="239.046875" y="0" dx="0em" dy="0.95em" style="text-anchor: middle; visibility: hidden; font-family: Roboto, sans-serif; font-size: 12px; font-weight: 200;" fill="rgb(33, 33, 33)" stroke="none" stroke-width="1px">450</text></g><line x1="0" y1="0" x2="239.046875" y2="0" fill="rgb(0, 0, 0)" stroke="rgb(204, 204, 204)" stroke-width="1px"></line></g></g></g></g></svg>