<svg viewBox="0 0 301 200" xmlns="http://www.w3.org/2000/svg"><g><g><g><g><g><line x1="40" y1="177" x2="35" y2="177" style="visibility: inherit;" fill="rgb(0, 0, 0)" stroke="rgb(204, 204, 204)" stroke-width="1px"></line><line x1="40" y1="157.33333333333331" x2="35" y2="157.33333333333331" style="visibility: inherit;" fill="rgb(0, 0, 0)" stroke="rgb(204, 204, 204)" stroke-width="1px"></line><line x1="40" y1="137.66666666666666" x2="35" y2="137.66666666666666" style="visibility: inherit;" fill="rgb(0, 0, 0)" stroke="rgb(204, 204, 204)" stroke-width="1px"></line><line x1="40" y1="118.00000000000001" x2="35" y2="118.00000000000001" style="visibility: inherit;" fill="rgb(0, 0, 0)" stroke="rgb(204, 204, 204)" stroke-width="1px"></line><line x1="40" y1="98.33333333333334" x2="35" y2="98.33333333333334" style="visibility: inherit;" fill="rgb(0, 0, 0)" stroke="rgb(204, 204, 204)" stroke-width="1px"></line><line x1="40" y1="78.66666666666666" x2="35" y2="78.66666666666666" style="visibility: inherit;" fill="rgb(0, 0, 0)" stroke="rgb(204, 204, 204)" stroke-width="1px"></line><line x1="40" y1="59.00000000000001" x2="35" y2="59.00000000000001" style="visibility: inherit;" fill="rgb(0, 0, 0)" stroke="rgb(204, 204, 204)" stroke-width="1px"></line><line x1="40" y1="39.33333333333333" x2="35" y2="39.33333333333333" style="visibility: inherit;" fill="rgb(0, 0, 0)" stroke="rgb(204, 204, 204)" stroke-width="1px"></line><line x1="40" y1="19.666666666666675" x2="35" y2="19.666666666666675" style="visibility: inherit;" fill="rgb(0, 0, 0)" stroke="rgb(204, 204, 204)" stroke-width="1px"></line><line x1="40" y1="0" x2="35" y2="0" style="visibility: inherit;" fill="rgb(0, 0, 0)" stroke="rgb(204, 204, 204)" stroke-width="1px"></line></g><g transform="translate(30, 0)"><text x="0" y="177" dx="0em" dy="0.3em" style="text-anchor: end; visibility: hidden; font-family: Roboto, sans-serif; font-size: 12px; font-weight: 200;" fill="rgb(33, 33, 33)" stroke="none" stroke-width="1px">-20</text><text x="0" y="157.33333333333331" dx="0em" dy="0.3em" style="text-anchor: end; visibility: inherit; font-family: Roboto, sans-serif; font-size: 12px; font-weight: 200;" fill="rgb(33, 33, 33)" stroke="none" stroke-width="1px">0</text><text x="0" y="137.66666666666666" dx="0em" dy="0.3em" style="text-anchor: end; visibility: hidden; font-family: Roboto, sans-serif; font-size: 12px; font-weight: 200;" fill="rgb(33, 33, 33)" stroke="none" stroke-width="1px">20</text><text x="0" y="118.00000000000001" dx="0em" dy="0.3em" style="text-anchor: end; visibility: inherit; font-family: Roboto, sans-serif; font-size: 12px; font-weight: 200;" fill="rgb(33, 33, 33)" stroke="none" stroke-width="1px">40</text><text x="0" y="98.33333333333334" dx="0em" dy="0.3em" style="text-anchor: end; visibility: hidden; font-family: Roboto, sans-serif; font-size: 12px; font-weight: 200;" fill="rgb(33, 33, 33)" stroke="none" stroke-width="1px">60</text><text x="0" y="78.66666666666666" dx="0em" dy="0.3em" style="text-anchor: end; visibility: inherit; font-family: Roboto, sans-serif; font-size: 12px; font-weight: 200;" fill="rgb(33, 33, 33)" stroke="none" stroke-width="1px">80</text><text x="0" y="59.00000000000001" dx="0em" dy="0.3em" style="text-anchor: end; visibility: hidden; font-family: Roboto, sans-serif; font-size: 12px; font-weight: 200;" fill="rgb(33, 33, 33)" stroke="none" stroke-width="1px">100</text><text x="0" y="39.33333333333333" dx="0em" dy="0.3em" style="text-anchor: end; visibility: inherit; font-family: Roboto, sans-serif; font-size: 12px; font-weight: 200;" fill="rgb(33, 33, 33)" stroke="none" stroke-width="1px">120</text><text x="0" y="19.666666666666675" dx="0em" dy="0.3em" style="text-anchor: end; visibility: hidden; font-family: Roboto, sans-serif; font-size: 12px; font-weight: 200;" fill="rgb(33, 33, 33)" stroke="none" stroke-width="1px">140</text><text x="0" y="0" dx="0em" dy="0.3em" style="text-anchor: end; visibility: hidden; font-family: Roboto, sans-serif; font-size: 12px; font-weight: 200;" fill="rgb(33, 33, 33)" stroke="none" stroke-width="1px">160</text></g><line x1="40" y1="0" x2="40" y2="177" fill="rgb(0, 0, 0)" stroke="rgb(204, 204, 204)" stroke-width="1px"></line></g></g><g transform="translate(40, 0)" clip-path="url(#clip_0)"><clipPath id="clip_0"><rect width="290" height="177"></rect></clipPath><g><g><g><line x1="0" y1="0" x2="0" y2="177" fill="rgb(0, 0, 0)" stroke="rgb(66, 66, 66)" stroke-width="1px" opacity="0.25"></line><line x1="24.166666666666664" y1="0" x2="24.166666666666664" y2="177" fill="rgb(0, 0, 0)" stroke="rgb(66, 66, 66)" stroke-width="1px" opacity="0.25"></line><line x1="48.33333333333333" y1="0" x2="48.33333333333333" y2="177" fill="rgb(0, 0, 0)" stroke="rgb(66, 66, 66)" stroke-width="1px" opacity="0.25"></line><line x1="72.5" y1="0" x2="72.5" y2="177" fill="rgb(0, 0, 0)" stroke="rgb(66, 66, 66)" stroke-width="1px" opacity="0.25"></line><line x1="96.66666666666666" y1="0" x2="96.66666666666666" y2="177" fill="rgb(0, 0, 0)" stroke="rgb(66, 66, 66)" stroke-width="1px" opacity="0.25"></line><line x1="120.83333333333334" y1="0" x2="120.83333333333334" y2="177" fill="rgb(0, 0, 0)" stroke="rgb(66, 66, 66)" stroke-width="1px" opacity="0.25"></line><line x1="145" y1="0" x2="145" y2="177" fill="rgb(0, 0, 0)" stroke="rgb(66, 66, 66)" stroke-width="1px" opacity="0.25"></line><line x1="169.16666666666669" y1="0" x2="169.16666666666669" y2="177" fill="rgb(0, 0, 0)" stroke="rgb(66, 66, 66)" stroke-width="1px" opacity="0.25"></line><line x1="193.33333333333331" y1="0" x2="193.33333333333331" y2="177" fill="rgb(0, 0, 0)" stroke="rgb(66, 66, 66)" stroke-width="1px" opacity="0.25"></line><line x1="217.5" y1="0" x2="217.5" y2="177" fill="rgb(0, 0, 0)" stroke="rgb(66, 66, 66)" stroke-width="1px" opacity="0.25"></line><line x1="241.66666666666669" y1="0" x2="241.66666666666669" y2="177" fill="rgb(0, 0, 0)" stroke="rgb(66, 66, 66)" stroke-width="1px" opacity="0.25"></line><line x1="265.8333333333333" y1="0" x2="265.8333333333333" y2="177" fill="rgb(0, 0, 0)" stroke="rgb(66, 66, 66)" stroke-width="1px" opacity="0.25"></line><line x1="290" y1="0" x2="290" y2="177" fill="rgb(0, 0, 0)" stroke="rgb(66, 66, 66)" stroke-width="1px" opacity="0.25"></line></g><g><line x1="0" y1="177" x2="290" y2="177" fill="rgb(0, 0, 0)" stroke="rgb(66, 66, 66)" stroke-width="1px" opacity="0.25"></line><line x1="0" y1="157.33333333333331" x2="290" y2="157.33333333333331" fill="rgb(0, 0, 0)" stroke="rgb(66, 66, 66)" stroke-width="1px" opacity="0.25"></line><line x1="0" y1="137.66666666666666" x2="290" y2="137.66666666666666" fill="rgb(0, 0, 0)" stroke="rgb(66, 66, 66)" stroke-width="1px" opacity="0.25"></line><line x1="0" y1="118.00000000000001" x2="290" y2="118.00000000000001" fill="rgb(0, 0, 0)" stroke="rgb(66, 66, 66)" stroke-width="1px" opacity="0.25"></line><line x1="0" y1="98.33333333333334" x2="290" y2="98.33333333333334" fill="rgb(0, 0, 0)" stroke="rgb(66, 66, 66)" stroke-width="1px" opacity="0.25"></line><line x1="0" y1="78.66666666666666" x2="290" y2="78.66666666666666" fill="rgb(0, 0, 0)" stroke="rgb(66, 66, 66)" stroke-width="1px" opacity="0.25"></line><line x1="0" y1="59.00000000000001" x2="290" y2="59.00000000000001" fill="rgb(0, 0, 0)" stroke="rgb(66, 66, 66)" stroke-width="1px" opacity="0.25"></line><line x1="0" y1="39.33333333333333" x2="290" y2="39.33333333333333" fill="rgb(0, 0, 0)" stroke="rgb(66, 66, 66)" stroke-width="1px" opacity="0.25"></line><line x1="0" y1="19.666666666666675" x2="290" y2="19.666666666666675" fill="rgb(0, 0, 0)" stroke="rgb(66, 66, 66)" stroke-width="1px" opacity="0.25"></line><line x1="0" y1="0" x2="290" y2="0" fill="rgb(0, 0, 0)" stroke="rgb(66, 66, 66)" stroke-width="1px" opacity="0.25"></line></g></g></g><g><g><line x1="0" y1="157.33333333333331" x2="290" y2="157.33333333333331" fill="rgb(0, 0, 0)" stroke="rgb(153, 153, 153)" stroke-width="1.5px"></line></g></g><g><g><line x1="24.166666666666664" y1="0" x2="24.166666666666664" y2="177" fill="rgb(0, 0, 0)" stroke="rgb(153, 153, 153)" stroke-width="1.5px"></line></g></g><g><g><g><g><g><path stroke="rgb(0, 119, 187)" stroke-width="2px" d="M35.041666666666664,-39.4778994311452L36.25,8.088881923255396L37.458333333333336,26.475282966776607L38.666666666666664,35.65586905316554L39.875,40.9881567610032L41.083333333333336,48.004220217830486L42.29166666666667,51.98706101219734L43.5,53.408110983254325L44.708333333333336,54.664464465437284L45.916666666666664,56.295305002395104L47.125,58.6947512665907L48.33333333333333,62.9431754850694L49.541666666666664,67.7352016962608L50.75,72.34027621481509L51.958333333333336,76.48335917676299L53.166666666666664,80.37353188448385L54.375,84.43666215088844L55.583333333333336,88.4056650417678L56.791666666666664,92.0527882111652L58,95.42393438634693L59.208333333333336,98.80258892925995L60.41666666666667,102.14283210093636L61.625,105.32958470768648L62.833333333333336,108.32707278119412L64.04166666666667,111.29062725834535L65.25,114.1293551557221L66.45833333333333,116.85921575318883L67.66666666666667,119.57127000314978L68.875,121.81915368381094L70.08333333333333,124.18945757252604L71.29166666666666,126.10402511131825L72.5,128.23354985330235L73.70833333333333,130.4622376000437L74.91666666666667,132.35467437358432L76.125,133.8581246244395L77.33333333333333,135.12648893629904L78.54166666666666,136.22394033448745L79.75,137.18338903946324L80.95833333333333,138.03802922289276L82.16666666666667,138.78471454868014L83.375,139.4483656112248L84.58333333333334,140.0465350224111L85.79166666666667,140.60645788362868L87,141.14407289692193L88.20833333333333,141.69020640268369L89.41666666666667,142.24453285527574L90.625,142.80950561078208L91.83333333333333,143.41298862914525L93.04166666666667,144.01726775559274L94.25,144.5463735633514L95.45833333333333,145.00341976890584L96.66666666666666,145.43319676536154L97.875,145.83051630880462L99.08333333333333,146.19273688054705L100.29166666666667,146.5283803451673L101.5,146.8434696180708L102.70833333333334,147.14101222326696L103.91666666666667,147.42152333347883L105.125,147.68312527404362L106.33333333333333,147.92403213146514L107.54166666666667,148.14433833477412L108.75,148.34564970861695L109.95833333333333,148.53006049601177L111.16666666666667,148.69952106560262L112.375,148.8561815236612L113.58333333333333,149.002213245077L114.79166666666666,149.13743769404354L116,149.26186248425094L117.20833333333333,149.3777018438888L118.41666666666667,149.48631317850217L119.625,149.58857294755848L120.83333333333334,149.68528291397993L122.04166666666667,149.7779551303896L123.25,149.8720195900198L124.45833333333333,149.971388063234L125.66666666666667,150.14572570848628L126.875,150.3044033231723L128.08333333333334,150.43496317156726L129.29166666666669,150.6651511344485L130.5,150.81910684583943L131.70833333333334,151.00014783114077L132.91666666666666,151.10296292142152L134.125,151.17100476222896L135.33333333333334,151.28569961333218L136.54166666666666,151.36877115928584L137.75,151.44427640275086L138.95833333333334,151.51951859565636L140.16666666666666,151.59461901493995L141.375,151.6658920209348L142.58333333333331,151.73474059569216L143.79166666666666,151.8020125461421L145,151.8680421583004L146.20833333333334,151.93313674931244L147.41666666666666,151.99730598297228L148.625,152.0605780070384L149.83333333333334,152.12274710298863L151.04166666666669,152.18339279962254L152.25,152.24219335516437L153.45833333333334,152.29902755395574L154.66666666666666,152.35406959215229L155.875,152.40767236948633L157.08333333333331,152.46017385384255L158.29166666666666,152.51183797526218L159.5,152.56285091921677L160.70833333333334,152.61332058001003L161.91666666666666,152.66334290495436L163.125,152.7130117240884L164.33333333333334,152.76232745878698L165.54166666666666,152.81120911749986L166.75,152.85963095933107L167.95833333333334,152.90764911342697L169.16666666666669,152.95526080815847L170.375,153.00230717713566L171.58333333333334,153.04848328273812L172.79166666666666,153.09323081209848L174,153.1357638752702L175.20833333333331,153.17548378542958L176.41666666666666,153.21207276108328L177.625,153.24554605730114L178.83333333333334,153.2762321655864L180.04166666666666,153.30459477570432L181.25,153.3310751945337L182.45833333333334,153.3560386817389L183.66666666666666,153.3797704160072L184.875,153.40248683915104L186.08333333333334,153.4243624712846L187.29166666666669,153.4455259780228L188.5,153.46607334755294L189.70833333333334,153.48607507143237L190.91666666666666,153.50559050365936L192.125,153.52464921337557L193.33333333333331,153.54328646179727L194.54166666666666,153.5615236888369L195.75,153.57937559578428L196.95833333333334,153.59686244265882L198.16666666666666,153.6140071398902L199.375,153.63082648342504L200.58333333333334,153.64734627519266L201.79166666666666,153.66358658399128L203,153.67956322229526L204.20833333333334,153.6952985361568L205.41666666666669,153.71080999443217L206.625,153.72610922846857L207.83333333333334,153.74120864478596L209.04166666666666,153.75611769387115L210.25,153.77085033163127L211.45833333333331,153.78540437600725L212.66666666666666,153.79979510545294L213.875,153.8140254036521L215.08333333333334,153.8281081536355L216.29166666666666,153.84204457986897L217.5,153.85584569501603L218.70833333333334,153.86951817029183L219.91666666666666,153.88307658135577L221.125,153.8965247102975L222.33333333333334,153.90986264788722L223.54166666666669,153.92308856575733L224.75,153.93619189438718L225.95833333333334,153.94914537955384L227.16666666666666,153.96193509569702L228.375,153.97456528496843L229.58333333333331,153.98710286411097L230.79166666666666,153.99969519635656L232,154.01243254054242L233.20833333333334,154.02516535637585L234.41666666666666,154.0375903029723L235.625,154.04950148590282L236.83333333333334,154.0608843533344L238.04166666666666,154.07183260032687L239.25,154.082446409776L240.45833333333334,154.09285426493122L241.66666666666669,154.10315306487615L242.875,154.11301815389862L244.08333333333334,154.12308792302113L245.29166666666666,154.13246470878022L246.5,154.14159398531663L247.70833333333331,154.15123170507488L248.91666666666666,154.16117977766018L250.125,154.16973973615993L251.33333333333334,154.17824509982364L252.54166666666666,154.18684937560815L253.75,154.1955535018613L254.95833333333334,154.20485632490517L256.1666666666667,154.21426801861242L257.375,154.22316245013417L258.58333333333337,154.2320277636307L259.7916666666667,154.23903094176862L261,154.24798243568208L262.2083333333333,154.2566113765063L263.4166666666667,154.2648115504623L264.625,154.27433590209208" style="fill: none;" fill="none"></path></g></g></g></g><g opacity="0.2"><g><g><g><path stroke="rgb(0, 119, 187)" stroke-width="2px" d="M35.041666666666664,-37.048076629638686L36.25,9.258556874593106L37.458333333333336,26.927407582600917L38.666666666666664,35.88162117004395L39.875,41.119278589884445L41.083333333333336,48.176746368408196L42.29166666666667,52.08499972025553L43.5,53.44305483500163L44.708333333333336,54.695358403523755L45.916666666666664,56.33540763854981L47.125,58.7537540435791L48.33333333333333,63.04764493306478L49.541666666666664,67.85303840637206L50.75,72.45351575215659L51.958333333333336,76.58523826599121L53.166666666666664,80.46919186909994L54.375,84.53657519022624L55.583333333333336,88.50326347351073L56.791666666666664,92.14247156778971L58,95.50683142344157L59.208333333333336,98.88567059834799L60.41666666666667,102.22496922810872L61.625,105.40794747670492L62.833333333333336,108.40078150431316L64.04166666666667,111.36350154876709L65.25,114.19915994008382L66.45833333333333,116.92634347279868L67.66666666666667,119.63795986175536L68.875,121.87442951202392L70.08333333333333,124.24774373372396L71.29166666666666,126.1511046409607L72.5,128.28591521581012L73.70833333333333,130.51704139709472L74.91666666666667,132.40120970408123L76.125,133.8950947125753L77.33333333333333,135.15767822265624L78.54166666666666,136.25092684427898L79.75,137.20698204040528L80.95833333333333,138.05904496510823L82.16666666666667,138.8030756632487L83.375,139.46468489964803L84.58333333333334,140.06124410629272L85.79166666666667,140.62022647857665L87,141.15729293823242L88.20833333333333,141.70363591512046L89.41666666666667,142.25816383361817L90.625,142.82339838345845L91.83333333333333,143.42782837549845L93.04166666666667,144.03212707837423L94.25,144.55938436190286L95.45833333333333,145.01465861002603L96.66666666666666,145.44376505215962L97.875,145.84028646151225L99.08333333333333,146.20164394378662L100.29166666666667,146.53663387298585L101.5,146.85121771494548L102.70833333333334,147.1483288447062L103.91666666666667,147.42842114766438L105.125,147.68955810864765L106.33333333333333,147.92995607058208L107.54166666666667,148.1497557004293L108.75,148.35059998830158L109.95833333333333,148.5345951875051L111.16666666666667,148.70368812878925L112.375,148.86003383000693L113.58333333333333,149.00580418904622L114.79166666666666,149.1407628854116L116,149.26492211023967L117.20833333333333,149.38055035273234L118.41666666666667,149.48898394902548L119.625,149.59108753204345L120.83333333333334,149.68766102790832L122.04166666666667,149.7802339553833L123.25,149.87433265050254L124.45833333333333,149.97383155028027L125.66666666666667,150.15001269976298L126.875,150.30830523173015L128.08333333333334,150.43817365964253L129.29166666666669,150.6708114941915L130.5,150.82289264202117L131.70833333333334,151.00459965864817L132.91666666666666,151.10549116134644L134.125,151.17267792224885L135.33333333333334,151.28851997852325L136.54166666666666,151.37081390221914L137.75,151.44613308906554L138.95833333333334,151.5213688135147L140.16666666666666,151.5964657465617L141.375,151.66764463583627L142.58333333333331,151.7364335934321L143.79166666666666,151.80366677443186L145,151.8696658372879L146.20833333333334,151.93473743597667L147.41666666666666,151.9988839149475L148.625,152.06213387648265L149.83333333333334,152.1242758512497L151.04166666666669,152.18488408724468L152.25,152.24363927046457L153.45833333333334,152.3004251162211L154.66666666666666,152.35542308489482L155.875,152.40899047056834L157.08333333333331,152.4614648739497L158.29166666666666,152.51310840447744L159.5,152.56410533587137L160.70833333333334,152.61456163724262L161.91666666666666,152.66457296212513L163.125,152.71423308849336L164.33333333333334,152.76354014078777L165.54166666666666,152.812411125501L166.75,152.8608216603597L167.95833333333334,152.90882988770804L169.16666666666669,152.95643158753714L170.375,153.00346405506133L171.58333333333334,153.04961876074472L172.79166666666666,153.09433116118112L174,153.1368097702662L175.20833333333331,153.17646050453186L176.41666666666666,153.21297248999278L177.625,153.2463691711426L178.83333333333334,153.27698674201966L180.04166666666666,153.30529221693675L181.25,153.33172635237375L182.45833333333334,153.3566525379817L183.66666666666666,153.3803539832433L184.875,153.40304543972016L186.08333333333334,153.42490039666495L187.29166666666669,153.4460463921229L188.5,153.4665786107381L189.70833333333334,153.48656691710156L190.91666666666666,153.50607039133706L192.125,153.52511787017187L193.33333333333331,153.54374475479125L194.54166666666666,153.5619721452395L195.75,153.57981457710267L196.95833333333334,153.59729244709015L198.16666666666666,153.6144287308057L199.375,153.63124007383982L200.58333333333334,153.64775249958038L201.79166666666666,153.66398593584697L203,153.67995609045028L204.20833333333334,153.69568547010422L205.41666666666669,153.71119142373402L206.625,153.72648543914158L207.83333333333334,153.74157994190853L209.04166666666666,153.75648430983225L210.25,153.77121260960897L211.45833333333331,153.78576226234435L212.66666666666666,153.80014897584914L213.875,153.81437532901765L215.08333333333334,153.82845445076623L216.29166666666666,153.84238727887472L217.5,153.8561850667L218.70833333333334,153.86985437870027L219.91666666666666,153.8834099849065L221.125,153.8968554019928L222.33333333333334,153.91019062995912L223.54166666666669,153.92341379324594L224.75,153.93651410738627L225.95833333333334,153.9494639078776L227.16666666666666,153.96224959691367L228.375,153.97487586339315L229.58333333333331,153.98741116523743L230.79166666666666,154.0000048438708L232,154.01274575392404L233.20833333333334,154.02547845840454L234.41666666666666,154.03789583444595L235.625,154.04979438384373L236.83333333333334,154.06116425991058L238.04166666666666,154.07210181951524L239.25,154.08270740509033L240.45833333333334,154.0931101957957L241.66666666666669,154.10340631405512L242.875,154.11326073805492L244.08333333333334,154.12333554029465L245.29166666666666,154.13269528547923L246.5,154.14181847572326L247.70833333333331,154.1514686981837L248.91666666666666,154.16142440239588L250.125,154.1699502269427L251.33333333333334,154.17845424811046L252.54166666666666,154.18706095616022L253.75,154.19576753775277L254.95833333333334,154.20508508284888L256.1666666666667,154.21449945370355L257.375,154.2233811656634L258.58333333333337,154.2322457631429L259.7916666666667,154.2392031510671L261,154.24820255438487L262.2083333333333,154.25682356357575L263.4166666666667,154.26501319408416L264.625,154.27457010746002" style="fill: none;" fill="none"></path></g></g></g></g></g></g><g transform="translate(40, 177)" clip-path="url(#clip_1)"><clipPath id="clip_1"><rect width="290" height="23"></rect></clipPath><g><g><line x1="0" y1="0" x2="0" y2="5" style="visibility: inherit;" fill="rgb(0, 0, 0)" stroke="rgb(204, 204, 204)" stroke-width="1px"></line><line x1="24.166666666666664" y1="0" x2="24.166666666666664" y2="5" style="visibility: inherit;" fill="rgb(0, 0, 0)" stroke="rgb(204, 204, 204)" stroke-width="1px"></line><line x1="48.33333333333333" y1="0" x2="48.33333333333333" y2="5" style="visibility: inherit;" fill="rgb(0, 0, 0)" stroke="rgb(204, 204, 204)" stroke-width="1px"></line><line x1="72.5" y1="0" x2="72.5" y2="5" style="visibility: inherit;" fill="rgb(0, 0, 0)" stroke="rgb(204, 204, 204)" stroke-width="1px"></line><line x1="96.66666666666666" y1="0" x2="96.66666666666666" y2="5" style="visibility: inherit;" fill="rgb(0, 0, 0)" stroke="rgb(204, 204, 204)" stroke-width="1px"></line><line x1="120.83333333333334" y1="0" x2="120.83333333333334" y2="5" style="visibility: inherit;" fill="rgb(0, 0, 0)" stroke="rgb(204, 204, 204)" stroke-width="1px"></line><line x1="145" y1="0" x2="145" y2="5" style="visibility: inherit;" fill="rgb(0, 0, 0)" stroke="rgb(204, 204, 204)" stroke-width="1px"></line><line x1="169.16666666666669" y1="0" x2="169.16666666666669" y2="5" style="visibility: inherit;" fill="rgb(0, 0, 0)" stroke="rgb(204, 204, 204)" stroke-width="1px"></line><line x1="193.33333333333331" y1="0" x2="193.33333333333331" y2="5" style="visibility: inherit;" fill="rgb(0, 0, 0)" stroke="rgb(204, 204, 204)" stroke-width="1px"></line><line x1="217.5" y1="0" x2="217.5" y2="5" style="visibility: inherit;" fill="rgb(0, 0, 0)" stroke="rgb(204, 204, 204)" stroke-width="1px"></line><line x1="241.66666666666669" y1="0" x2="241.66666666666669" y2="5" style="visibility: inherit;" fill="rgb(0, 0, 0)" stroke="rgb(204, 204, 204)" stroke-width="1px"></line><line x1="265.8333333333333" y1="0" x2="265.8333333333333" y2="5" style="visibility: inherit;" fill="rgb(0, 0, 0)" stroke="rgb(204, 204, 204)" stroke-width="1px"></line><line x1="290" y1="0" x2="290" y2="5" style="visibility: inherit;" fill="rgb(0, 0, 0)" stroke="rgb(204, 204, 204)" stroke-width="1px"></line></g><g transform="translate(0, 8)"><text x="0" y="0" dx="0em" dy="0.95em" style="text-anchor: middle; visibility: hidden; font-family: Roboto, sans-serif; font-size: 12px; font-weight: 200;" fill="rgb(33, 33, 33)" stroke="none" stroke-width="1px">-20</text><text x="24.166666666666664" y="0" dx="0em" dy="0.95em" style="text-anchor: middle; visibility: inherit; font-family: Roboto, sans-serif; font-size: 12px; font-weight: 200;" fill="rgb(33, 33, 33)" stroke="none" stroke-width="1px">0</text><text x="48.33333333333333" y="0" dx="0em" dy="0.95em" style="text-anchor: middle; visibility: hidden; font-family: Roboto, sans-serif; font-size: 12px; font-weight: 200;" fill="rgb(33, 33, 33)" stroke="none" stroke-width="1px">20</text><text x="72.5" y="0" dx="0em" dy="0.95em" style="text-anchor: middle; visibility: inherit; font-family: Roboto, sans-serif; font-size: 12px; font-weight: 200;" fill="rgb(33, 33, 33)" stroke="none" stroke-width="1px">40</text><text x="96.66666666666666" y="0" dx="0em" dy="0.95em" style="text-anchor: middle; visibility: hidden; font-family: Roboto, sans-serif; font-size: 12px; font-weight: 200;" fill="rgb(33, 33, 33)" stroke="none" stroke-width="1px">60</text><text x="120.83333333333334" y="0" dx="0em" dy="0.95em" style="text-anchor: middle; visibility: inherit; font-family: Roboto, sans-serif; font-size: 12px; font-weight: 200;" fill="rgb(33, 33, 33)" stroke="none" stroke-width="1px">80</text><text x="145" y="0" dx="0em" dy="0.95em" style="text-anchor: middle; visibility: hidden; font-family: Roboto, sans-serif; font-size: 12px; font-weight: 200;" fill="rgb(33, 33, 33)" stroke="none" stroke-width="1px">100</text><text x="169.16666666666669" y="0" dx="0em" dy="0.95em" style="text-anchor: middle; visibility: inherit; font-family: Roboto, sans-serif; font-size: 12px; font-weight: 200;" fill="rgb(33, 33, 33)" stroke="none" stroke-width="1px">120</text><text x="193.33333333333331" y="0" dx="0em" dy="0.95em" style="text-anchor: middle; visibility: hidden; font-family: Roboto, sans-serif; font-size: 12px; font-weight: 200;" fill="rgb(33, 33, 33)" stroke="none" stroke-width="1px">140</text><text x="217.5" y="0" dx="0em" dy="0.95em" style="text-anchor: middle; visibility: inherit; font-family: Roboto, sans-serif; font-size: 12px; font-weight: 200;" fill="rgb(33, 33, 33)" stroke="none" stroke-width="1px">160</text><text x="241.66666666666669" y="0" dx="0em" dy="0.95em" style="text-anchor: middle; visibility: hidden; font-family: Roboto, sans-serif; font-size: 12px; font-weight: 200;" fill="rgb(33, 33, 33)" stroke="none" stroke-width="1px">180</text><text x="265.8333333333333" y="0" dx="0em" dy="0.95em" style="text-anchor: middle; visibility: inherit; font-family: Roboto, sans-serif; font-size: 12px; font-weight: 200;" fill="rgb(33, 33, 33)" stroke="none" stroke-width="1px">200</text><text x="290" y="0" dx="0em" dy="0.95em" style="text-anchor: middle; visibility: hidden; font-family: Roboto, sans-serif; font-size: 12px; font-weight: 200;" fill="rgb(33, 33, 33)" stroke="none" stroke-width="1px">220</text></g><line x1="0" y1="0" x2="290" y2="0" fill="rgb(0, 0, 0)" stroke="rgb(204, 204, 204)" stroke-width="1px"></line></g></g></g></g></svg>