<svg viewBox="0 0 301 200" xmlns="http://www.w3.org/2000/svg"><g><g><g><g><g><line x1="30.78125" y1="177" x2="25.78125" y2="177" style="visibility: inherit;" fill="rgb(0, 0, 0)" stroke="rgb(204, 204, 204)" stroke-width="1px"></line><line x1="30.78125" y1="162.25" x2="25.78125" y2="162.25" style="visibility: inherit;" fill="rgb(0, 0, 0)" stroke="rgb(204, 204, 204)" stroke-width="1px"></line><line x1="30.78125" y1="147.5" x2="25.78125" y2="147.5" style="visibility: inherit;" fill="rgb(0, 0, 0)" stroke="rgb(204, 204, 204)" stroke-width="1px"></line><line x1="30.78125" y1="132.75" x2="25.78125" y2="132.75" style="visibility: inherit;" fill="rgb(0, 0, 0)" stroke="rgb(204, 204, 204)" stroke-width="1px"></line><line x1="30.78125" y1="118.00000000000001" x2="25.78125" y2="118.00000000000001" style="visibility: inherit;" fill="rgb(0, 0, 0)" stroke="rgb(204, 204, 204)" stroke-width="1px"></line><line x1="30.78125" y1="103.24999999999999" x2="25.78125" y2="103.24999999999999" style="visibility: inherit;" fill="rgb(0, 0, 0)" stroke="rgb(204, 204, 204)" stroke-width="1px"></line><line x1="30.78125" y1="88.5" x2="25.78125" y2="88.5" style="visibility: inherit;" fill="rgb(0, 0, 0)" stroke="rgb(204, 204, 204)" stroke-width="1px"></line><line x1="30.78125" y1="73.75" x2="25.78125" y2="73.75" style="visibility: inherit;" fill="rgb(0, 0, 0)" stroke="rgb(204, 204, 204)" stroke-width="1px"></line><line x1="30.78125" y1="59.00000000000001" x2="25.78125" y2="59.00000000000001" style="visibility: inherit;" fill="rgb(0, 0, 0)" stroke="rgb(204, 204, 204)" stroke-width="1px"></line><line x1="30.78125" y1="44.25" x2="25.78125" y2="44.25" style="visibility: inherit;" fill="rgb(0, 0, 0)" stroke="rgb(204, 204, 204)" stroke-width="1px"></line><line x1="30.78125" y1="29.499999999999993" x2="25.78125" y2="29.499999999999993" style="visibility: inherit;" fill="rgb(0, 0, 0)" stroke="rgb(204, 204, 204)" stroke-width="1px"></line><line x1="30.78125" y1="14.750000000000007" x2="25.78125" y2="14.750000000000007" style="visibility: inherit;" fill="rgb(0, 0, 0)" stroke="rgb(204, 204, 204)" stroke-width="1px"></line><line x1="30.78125" y1="0" x2="25.78125" y2="0" style="visibility: inherit;" fill="rgb(0, 0, 0)" stroke="rgb(204, 204, 204)" stroke-width="1px"></line></g><g transform="translate(20.78125, 0)"><text x="0" y="177" dx="0em" dy="0.3em" style="text-anchor: end; visibility: hidden; font-family: Roboto, sans-serif; font-size: 12px; font-weight: 200;" fill="rgb(33, 33, 33)" stroke="none" stroke-width="1px">-2</text><text x="0" y="162.25" dx="0em" dy="0.3em" style="text-anchor: end; visibility: inherit; font-family: Roboto, sans-serif; font-size: 12px; font-weight: 200;" fill="rgb(33, 33, 33)" stroke="none" stroke-width="1px">0</text><text x="0" y="147.5" dx="0em" dy="0.3em" style="text-anchor: end; visibility: hidden; font-family: Roboto, sans-serif; font-size: 12px; font-weight: 200;" fill="rgb(33, 33, 33)" stroke="none" stroke-width="1px">2</text><text x="0" y="132.75" dx="0em" dy="0.3em" style="text-anchor: end; visibility: inherit; font-family: Roboto, sans-serif; font-size: 12px; font-weight: 200;" fill="rgb(33, 33, 33)" stroke="none" stroke-width="1px">4</text><text x="0" y="118.00000000000001" dx="0em" dy="0.3em" style="text-anchor: end; visibility: hidden; font-family: Roboto, sans-serif; font-size: 12px; font-weight: 200;" fill="rgb(33, 33, 33)" stroke="none" stroke-width="1px">6</text><text x="0" y="103.24999999999999" dx="0em" dy="0.3em" style="text-anchor: end; visibility: inherit; font-family: Roboto, sans-serif; font-size: 12px; font-weight: 200;" fill="rgb(33, 33, 33)" stroke="none" stroke-width="1px">8</text><text x="0" y="88.5" dx="0em" dy="0.3em" style="text-anchor: end; visibility: hidden; font-family: Roboto, sans-serif; font-size: 12px; font-weight: 200;" fill="rgb(33, 33, 33)" stroke="none" stroke-width="1px">10</text><text x="0" y="73.75" dx="0em" dy="0.3em" style="text-anchor: end; visibility: inherit; font-family: Roboto, sans-serif; font-size: 12px; font-weight: 200;" fill="rgb(33, 33, 33)" stroke="none" stroke-width="1px">12</text><text x="0" y="59.00000000000001" dx="0em" dy="0.3em" style="text-anchor: end; visibility: hidden; font-family: Roboto, sans-serif; font-size: 12px; font-weight: 200;" fill="rgb(33, 33, 33)" stroke="none" stroke-width="1px">14</text><text x="0" y="44.25" dx="0em" dy="0.3em" style="text-anchor: end; visibility: inherit; font-family: Roboto, sans-serif; font-size: 12px; font-weight: 200;" fill="rgb(33, 33, 33)" stroke="none" stroke-width="1px">16</text><text x="0" y="29.499999999999993" dx="0em" dy="0.3em" style="text-anchor: end; visibility: hidden; font-family: Roboto, sans-serif; font-size: 12px; font-weight: 200;" fill="rgb(33, 33, 33)" stroke="none" stroke-width="1px">18</text><text x="0" y="14.750000000000007" dx="0em" dy="0.3em" style="text-anchor: end; visibility: inherit; font-family: Roboto, sans-serif; font-size: 12px; font-weight: 200;" fill="rgb(33, 33, 33)" stroke="none" stroke-width="1px">20</text><text x="0" y="0" dx="0em" dy="0.3em" style="text-anchor: end; visibility: hidden; font-family: Roboto, sans-serif; font-size: 12px; font-weight: 200;" fill="rgb(33, 33, 33)" stroke="none" stroke-width="1px">22</text></g><line x1="30.78125" y1="0" x2="30.78125" y2="177" fill="rgb(0, 0, 0)" stroke="rgb(204, 204, 204)" stroke-width="1px"></line></g></g><g transform="translate(30, 0)" clip-path="url(#clip_0)"><clipPath id="clip_0"><rect width="299" height="177"></rect></clipPath><g><g><g><line x1="0" y1="0" x2="0" y2="177" fill="rgb(0, 0, 0)" stroke="rgb(66, 66, 66)" stroke-width="1px" opacity="0.25"></line><line x1="24.934895833333332" y1="0" x2="24.934895833333332" y2="177" fill="rgb(0, 0, 0)" stroke="rgb(66, 66, 66)" stroke-width="1px" opacity="0.25"></line><line x1="49.869791666666664" y1="0" x2="49.869791666666664" y2="177" fill="rgb(0, 0, 0)" stroke="rgb(66, 66, 66)" stroke-width="1px" opacity="0.25"></line><line x1="74.8046875" y1="0" x2="74.8046875" y2="177" fill="rgb(0, 0, 0)" stroke="rgb(66, 66, 66)" stroke-width="1px" opacity="0.25"></line><line x1="99.73958333333333" y1="0" x2="99.73958333333333" y2="177" fill="rgb(0, 0, 0)" stroke="rgb(66, 66, 66)" stroke-width="1px" opacity="0.25"></line><line x1="124.67447916666667" y1="0" x2="124.67447916666667" y2="177" fill="rgb(0, 0, 0)" stroke="rgb(66, 66, 66)" stroke-width="1px" opacity="0.25"></line><line x1="149.609375" y1="0" x2="149.609375" y2="177" fill="rgb(0, 0, 0)" stroke="rgb(66, 66, 66)" stroke-width="1px" opacity="0.25"></line><line x1="174.54427083333334" y1="0" x2="174.54427083333334" y2="177" fill="rgb(0, 0, 0)" stroke="rgb(66, 66, 66)" stroke-width="1px" opacity="0.25"></line><line x1="199.47916666666666" y1="0" x2="199.47916666666666" y2="177" fill="rgb(0, 0, 0)" stroke="rgb(66, 66, 66)" stroke-width="1px" opacity="0.25"></line><line x1="224.4140625" y1="0" x2="224.4140625" y2="177" fill="rgb(0, 0, 0)" stroke="rgb(66, 66, 66)" stroke-width="1px" opacity="0.25"></line><line x1="249.34895833333334" y1="0" x2="249.34895833333334" y2="177" fill="rgb(0, 0, 0)" stroke="rgb(66, 66, 66)" stroke-width="1px" opacity="0.25"></line><line x1="274.28385416666663" y1="0" x2="274.28385416666663" y2="177" fill="rgb(0, 0, 0)" stroke="rgb(66, 66, 66)" stroke-width="1px" opacity="0.25"></line><line x1="299.21875" y1="0" x2="299.21875" y2="177" fill="rgb(0, 0, 0)" stroke="rgb(66, 66, 66)" stroke-width="1px" opacity="0.25"></line></g><g><line x1="0" y1="177" x2="299.21875" y2="177" fill="rgb(0, 0, 0)" stroke="rgb(66, 66, 66)" stroke-width="1px" opacity="0.25"></line><line x1="0" y1="162.25" x2="299.21875" y2="162.25" fill="rgb(0, 0, 0)" stroke="rgb(66, 66, 66)" stroke-width="1px" opacity="0.25"></line><line x1="0" y1="147.5" x2="299.21875" y2="147.5" fill="rgb(0, 0, 0)" stroke="rgb(66, 66, 66)" stroke-width="1px" opacity="0.25"></line><line x1="0" y1="132.75" x2="299.21875" y2="132.75" fill="rgb(0, 0, 0)" stroke="rgb(66, 66, 66)" stroke-width="1px" opacity="0.25"></line><line x1="0" y1="118.00000000000001" x2="299.21875" y2="118.00000000000001" fill="rgb(0, 0, 0)" stroke="rgb(66, 66, 66)" stroke-width="1px" opacity="0.25"></line><line x1="0" y1="103.24999999999999" x2="299.21875" y2="103.24999999999999" fill="rgb(0, 0, 0)" stroke="rgb(66, 66, 66)" stroke-width="1px" opacity="0.25"></line><line x1="0" y1="88.5" x2="299.21875" y2="88.5" fill="rgb(0, 0, 0)" stroke="rgb(66, 66, 66)" stroke-width="1px" opacity="0.25"></line><line x1="0" y1="73.75" x2="299.21875" y2="73.75" fill="rgb(0, 0, 0)" stroke="rgb(66, 66, 66)" stroke-width="1px" opacity="0.25"></line><line x1="0" y1="59.00000000000001" x2="299.21875" y2="59.00000000000001" fill="rgb(0, 0, 0)" stroke="rgb(66, 66, 66)" stroke-width="1px" opacity="0.25"></line><line x1="0" y1="44.25" x2="299.21875" y2="44.25" fill="rgb(0, 0, 0)" stroke="rgb(66, 66, 66)" stroke-width="1px" opacity="0.25"></line><line x1="0" y1="29.499999999999993" x2="299.21875" y2="29.499999999999993" fill="rgb(0, 0, 0)" stroke="rgb(66, 66, 66)" stroke-width="1px" opacity="0.25"></line><line x1="0" y1="14.750000000000007" x2="299.21875" y2="14.750000000000007" fill="rgb(0, 0, 0)" stroke="rgb(66, 66, 66)" stroke-width="1px" opacity="0.25"></line><line x1="0" y1="0" x2="299.21875" y2="0" fill="rgb(0, 0, 0)" stroke="rgb(66, 66, 66)" stroke-width="1px" opacity="0.25"></line></g></g></g><g><g><line x1="0" y1="162.25" x2="299.21875" y2="162.25" fill="rgb(0, 0, 0)" stroke="rgb(153, 153, 153)" stroke-width="1.5px"></line></g></g><g><g><line x1="24.934895833333332" y1="0" x2="24.934895833333332" y2="177" fill="rgb(0, 0, 0)" stroke="rgb(153, 153, 153)" stroke-width="1.5px"></line></g></g><g><g><g><g><g><path stroke="rgb(0, 119, 187)" stroke-width="2px" d="M34.908854166666664,-86.37232000642736L36.155598958333336,4.684154419180462L37.40234375,17.996927945806426L38.64908854166667,19.017043980812893L39.895833333333336,21.572966031857863L41.142578125,24.652018259349532L42.389322916666664,35.14610675884206L43.636067708333336,41.640817982652884L44.8828125,42.79320371681926L46.12955729166667,44.540450774320234L47.37630208333333,48.312154337947106L48.623046875,59.417356896524076L49.869791666666664,74.84732446499167L51.116536458333336,89.08721525035561L52.36328125,98.98660599483543L53.610026041666664,104.99342500192962L54.85677083333333,109.25396962047172L56.103515625,114.04812047078144L57.35026041666667,119.15568671254968L58.597005208333336,123.2552062744209L59.84375,126.21852746790482L61.090494791666664,128.82599802665374L62.337239583333336,131.06718226524652L63.583984375,132.9191166549331L64.83072916666667,134.69311677119592L66.07747395833333,136.82673354833162L67.32421875,139.31907477566932L68.57096354166666,140.92128276219114L69.81770833333333,141.38240998348954L71.064453125,141.68566307863267L72.31119791666667,142.7241472419359L73.55794270833333,143.89411002973617L74.8046875,145.09028460421084L76.05143229166666,146.6572092299075L77.29817708333334,148.2450087764845L78.544921875,149.18952457689997L79.79166666666667,150.0937132915458L81.03841145833333,150.81855287690306L82.28515625,151.46158133281213L83.53190104166667,151.9864801545937L84.77864583333333,152.4440256971836L86.025390625,152.90849340037994L87.27213541666667,153.3656242847625L88.51888020833333,153.83788187851948L89.765625,154.30863020790827L91.01236979166666,154.77102677344638L92.25911458333334,155.20547811086638L93.505859375,155.6353841546525L94.75260416666666,156.0369897009691L95.99934895833334,156.38059877794208L97.24609375,156.6014975005248L98.49283854166667,156.69869133804764L99.73958333333333,156.78312955843793L100.986328125,156.82606191564736L102.23307291666667,156.8346600270579L103.47981770833333,156.8464078316362L104.7265625,156.8879062396509L105.97330729166667,156.96911444166236L107.22005208333333,157.08345024297213L108.466796875,157.2145836545252L109.71354166666666,157.34816841815285L110.96028645833334,157.47725138033255L112.20703125,157.60006450962183L113.45377604166666,157.71640448542863L114.70052083333334,157.82614329523383L115.947265625,157.9296639975468L117.19401041666667,158.02662955514563L118.44075520833333,158.1162188592653L119.6875,158.19702127431177L120.93424479166667,158.2724815545927L122.18098958333333,158.34393601224053L123.427734375,158.4119358501685L124.67447916666667,158.47705547402347L125.92122395833333,158.54321845850706L127.16796875,158.58937251561434L128.41471354166666,158.6503763951644L129.66145833333334,158.8604272791333L130.908203125,158.9655351577725L132.15494791666666,159.1938149167622L133.40169270833334,159.51002231784707L134.6484375,159.7117063825245L135.89518229166666,159.8810640525816L137.14192708333331,159.90123672694446L138.388671875,159.79981172619117L139.63541666666666,159.87854222238965L140.88216145833334,159.91050018949053L142.12890625,159.9132941529352L143.37565104166669,159.92678526017716L144.62239583333334,159.94873258661596L145.869140625,159.96938875059874L147.11588541666666,159.9902730633594L148.36263020833334,160.0126352971787L149.609375,160.03612811098336L150.85611979166666,160.06055053221698L152.10286458333331,160.08509973386467L153.349609375,160.10878790329684L154.59635416666669,160.1306112043049L155.84309895833334,160.14997879059788L157.08984375,160.16586117235224L158.33658854166666,160.17680967719255L159.58333333333334,160.1823800238063L160.830078125,160.18272822924158L162.07682291666666,160.17800905795758L163.32356770833331,160.16837488466305L164.5703125,160.15408764495942L165.81705729166669,160.13564229529248L167.06380208333334,160.1139055653265L168.310546875,160.09030827758036L169.55729166666666,160.06660241034683L170.80403645833331,160.04431039372614L172.05078125,160.02488758224953L173.29752604166669,160.00984328056782L174.54427083333334,160.00012283553252L175.791015625,159.99577575010767L177.03776041666666,159.9960453233916L178.28450520833334,159.99947977667284L179.53125,160.00416552635556L180.77799479166666,160.00853507652582L182.02473958333331,160.01150675247544L183.271484375,160.01263263884314L184.51822916666669,160.0122332000883L185.76497395833334,160.0110478452424L187.01171875,160.0098202460446L188.25846354166666,160.0091382225953L189.50520833333331,160.0094599330082L190.751953125,160.0111333794681L191.99869791666669,160.01447324446985L193.24544270833334,160.01972841214945L194.4921875,160.02709320175452L195.73893229166666,160.03669283556647L196.98567708333334,160.04861419511263L198.232421875,160.0627935087949L199.47916666666666,160.0791247762591L200.72591145833331,160.0973617620524L201.97265625,160.11715361300054L203.21940104166669,160.13813001825164L204.46614583333334,160.15988737885087L205.712890625,160.18197152895783L206.95963541666666,160.20404357192112L208.20638020833331,160.22574807100946L209.453125,160.24683130267704L210.69986979166669,160.26709883153043L211.94661458333334,160.28643572932233L213.193359375,160.3047682326092L214.44010416666666,160.3220699016L215.68684895833334,160.33832830329834L216.93359375,160.35360320410493L218.18033854166666,160.36790376102957L219.42708333333331,160.38129476349258L220.673828125,160.39383182475345L221.92057291666669,160.40557355560048L223.16731770833334,160.41654056197459L224.4140625,160.42680101856854L225.66080729166666,160.43636621484524L226.90755208333331,160.44528801311836L228.154296875,160.45359994290942L229.40104166666669,160.4613343429431L230.64778645833334,160.4685323185667L231.89453125,160.47525835337507L233.14127604166666,160.4815228974348L234.38802083333334,160.48737865098244L235.634765625,160.49274504054378L236.88151041666666,160.49758098298165L238.12825520833331,160.50215020642253L239.375,160.50693129977358L240.62174479166669,160.51197339692254L241.86848958333334,160.51695386349525L243.115234375,160.52152505389554L244.36197916666666,160.5256397970311L245.60872395833331,160.529421917016L246.85546875,160.53296448281802L248.10221354166669,160.53639607867393L249.34895833333334,160.54020717349428L250.595703125,160.542922505881L251.84244791666666,160.546974796245L253.08919270833334,160.55016420819018L254.3359375,160.55265600229208L255.58268229166666,160.55515583029268L256.8294270833333,160.5598434966614L258.076171875,160.5627880556269L259.3229166666667,160.56523621824473L260.5696614583333,160.5681463356607L261.81640625,160.57149056774566L263.0631510416667,160.57285181827717L264.3098958333333,160.57830329791244L265.556640625,160.5770758110417L266.8033854166667,160.5837163320616L268.05013020833337,160.58591855106695L269.296875,160.5909126988442L270.5436197916667,160.59617324657177L271.7903645833333,160.5970482717125L273.037109375,160.59839584616464" style="fill: none;" fill="none"></path></g></g></g></g><g opacity="0.2"><g><g><g><path stroke="rgb(0, 119, 187)" stroke-width="2px" d="M34.908854166666664,-82.63038969039917L36.155598958333336,6.92324805259704L37.40234375,18.324291229248047L38.64908854166667,19.042128801345832L39.895833333333336,21.63581657409668L41.142578125,24.72773265838623L42.389322916666664,35.40415811538697L43.636067708333336,41.80052399635314L44.8828125,42.82154107093812L46.12955729166667,44.58341586589814L47.37630208333333,48.404901146888726L48.623046875,59.690435647964485L49.869791666666664,75.22674989700317L51.116536458333336,89.43737649917604L52.36328125,99.23003363609315L53.610026041666664,105.1411336660385L54.85677083333333,109.3587371110916L56.103515625,114.16600942611694L57.35026041666667,119.28128260374069L58.597005208333336,123.35601413249971L59.84375,126.29139602184294L61.090494791666664,128.89011615514755L62.337239583333336,131.12229335308075L63.583984375,132.96465602517128L64.83072916666667,134.7367397248745L66.07747395833333,136.87919953465462L67.32421875,139.38036185503006L68.57096354166666,140.96068131923676L69.81770833333333,141.3937491774559L71.064453125,141.69312012195587L72.31119791666667,142.74968373775482L73.55794270833333,143.92287960648537L74.8046875,145.11969873309135L76.05143229166666,146.69574016332626L77.29817708333334,148.28405302762985L78.544921875,149.21275037527084L79.79166666666667,150.1159474402666L81.03841145833333,150.83637680113316L82.28515625,151.47739350795746L83.53190104166667,151.9993875026703L84.77864583333333,152.45527681708336L86.025390625,152.9199147373438L87.27213541666667,153.37686520814896L88.51888020833333,153.84949477016926L89.765625,154.3202059864998L91.01236979166666,154.78239718079567L92.25911458333334,155.21616134047508L93.505859375,155.64595561474562L94.75260416666666,156.04686524719L95.99934895833334,156.3890481814742L97.24609375,156.60692943632603L98.49283854166667,156.70108135044575L99.73958333333333,156.78520590811968L100.986328125,156.82711762934923L102.23307291666667,156.83487145602703L103.47981770833333,156.84669671207666L104.7265625,156.888926692307L105.97330729166667,156.97111136466265L107.22005208333333,157.0862617790699L108.466796875,157.21780824661255L109.71354166666666,157.3514532893896L110.96028645833334,157.4804255515337L112.20703125,157.60308450460434L113.45377604166666,157.71926530450583L114.70052083333334,157.8288417905569L115.947265625,157.93220958858728L117.19401041666667,158.029013954103L118.44075520833333,158.1184218749404L119.6875,158.19900821894407L120.93424479166667,158.27433713525534L122.18098958333333,158.34569308906794L123.427734375,158.41360797733068L124.67447916666667,158.4786567762494L125.92122395833333,158.54484541714191L127.16796875,158.59050745144486L128.41471354166666,158.65187649056315L129.66145833333334,158.86559246480465L130.908203125,158.96811977773905L132.15494791666666,159.19942835345864L133.40169270833334,159.51779790967703L134.6484375,159.71666582673788L135.89518229166666,159.88522858545184L137.14192708333331,159.90173277631402L138.388671875,159.79731766879559L139.63541666666666,159.88047821819782L140.88216145833334,159.91128604114056L142.12890625,159.91336285695434L143.37565104166669,159.92711700871587L144.62239583333334,159.949272274971L145.869140625,159.96989668905735L147.11588541666666,159.99078661203384L148.36263020833334,160.01318518817425L149.609375,160.0367058031261L150.85611979166666,160.0611510835588L152.10286458333331,160.08570340275764L153.349609375,160.10937039926648L154.59635416666669,160.13114784285426L155.84309895833334,160.15045504271984L157.08984375,160.16625172272325L158.33658854166666,160.1770789027214L159.58333333333334,160.1825169995427L160.830078125,160.18273679167032L162.07682291666666,160.17789301276207L163.32356770833331,160.1681379787624L164.5703125,160.15373631939292L165.81705729166669,160.13518872112036L167.06380208333334,160.11337105557323L168.310546875,160.0897280164063L169.55729166666666,160.06601947918534L170.80403645833331,160.043762229383L172.05078125,160.02440997213125L173.29752604166669,160.00947333872318L174.54427083333334,159.9998838081956L175.791015625,159.99566885456443L177.03776041666666,159.99605195224285L178.28450520833334,159.99956423044205L179.53125,160.0042807497084L180.77799479166666,160.00864252448082L182.02473958333331,160.0115798264742L183.271484375,160.01266032457352L184.51822916666669,160.01222337782383L185.76497395833334,160.0110186971724L187.01171875,160.00979005917907L188.25846354166666,160.00912145152688L189.50520833333331,160.00946784392L190.751953125,160.01117452979088L191.99869791666669,160.01455537229776L193.24544270833334,160.0198576375842L194.4921875,160.02727430313826L195.73893229166666,160.03692889213562L196.98567708333334,160.0489073432982L198.232421875,160.0631421804428L199.47916666666666,160.0795263648033L200.72591145833331,160.09781021252275L201.97265625,160.1176402978599L203.21940104166669,160.13864583149552L204.46614583333334,160.1604223959148L205.712890625,160.1825145818293L206.95963541666666,160.20458632707596L208.20638020833331,160.22628178820014L209.453125,160.2473497428L210.69986979166669,160.2675972133875L211.94661458333334,160.28691122680902L213.193359375,160.30521903187037L214.44010416666666,160.32249535247684L215.68684895833334,160.33872810006142L216.93359375,160.35397881641984L218.18033854166666,160.3682554140687L219.42708333333331,160.3816240504384L220.673828125,160.3941401131451L221.92057291666669,160.4058622866869L223.16731770833334,160.41681024245918L224.4140625,160.42705332487822L225.66080729166666,160.43660142458975L226.90755208333331,160.44550740160048L228.154296875,160.4538043346256L229.40104166666669,160.46152453310788L230.64778645833334,160.4687093179673L231.89453125,160.47542374767363L233.14127604166666,160.48167694360018L234.38802083333334,160.48752264492214L235.634765625,160.49287700094283L236.88151041666666,160.49769989959896L238.12825520833331,160.502262564376L239.375,160.50704886764288L240.62174479166669,160.512097382918L241.86848958333334,160.51707633398473L243.115234375,160.52163746021688L244.36197916666666,160.52574097923934L245.60872395833331,160.52951491996646L246.85546875,160.53305159509182L248.10221354166669,160.5364804621786L249.34895833333334,160.5403008889407L250.595703125,160.54298927634954L251.84244791666666,160.54707444272935L253.08919270833334,160.55024263635278L254.3359375,160.55271727591753L255.58268229166666,160.55521730147302L256.8294270833333,160.55995876714587L258.076171875,160.56286046281457L259.3229166666667,160.56529641896486L260.5696614583333,160.56821789592505L261.81640625,160.57157280296087L263.0631510416667,160.5728852916509L264.3098958333333,160.57843735069036L265.556640625,160.57704562693834L266.8033854166667,160.5838796235621L268.05013020833337,160.58597270399332L269.296875,160.59103550575674L270.5436197916667,160.59630260430276L271.7903645833333,160.59706978872418L273.037109375,160.59842898324132" style="fill: none;" fill="none"></path></g></g></g></g></g></g><g transform="translate(30, 177)" clip-path="url(#clip_1)"><clipPath id="clip_1"><rect width="299" height="23"></rect></clipPath><g><g><line x1="0" y1="0" x2="0" y2="5" style="visibility: inherit;" fill="rgb(0, 0, 0)" stroke="rgb(204, 204, 204)" stroke-width="1px"></line><line x1="24.934895833333332" y1="0" x2="24.934895833333332" y2="5" style="visibility: inherit;" fill="rgb(0, 0, 0)" stroke="rgb(204, 204, 204)" stroke-width="1px"></line><line x1="49.869791666666664" y1="0" x2="49.869791666666664" y2="5" style="visibility: inherit;" fill="rgb(0, 0, 0)" stroke="rgb(204, 204, 204)" stroke-width="1px"></line><line x1="74.8046875" y1="0" x2="74.8046875" y2="5" style="visibility: inherit;" fill="rgb(0, 0, 0)" stroke="rgb(204, 204, 204)" stroke-width="1px"></line><line x1="99.73958333333333" y1="0" x2="99.73958333333333" y2="5" style="visibility: inherit;" fill="rgb(0, 0, 0)" stroke="rgb(204, 204, 204)" stroke-width="1px"></line><line x1="124.67447916666667" y1="0" x2="124.67447916666667" y2="5" style="visibility: inherit;" fill="rgb(0, 0, 0)" stroke="rgb(204, 204, 204)" stroke-width="1px"></line><line x1="149.609375" y1="0" x2="149.609375" y2="5" style="visibility: inherit;" fill="rgb(0, 0, 0)" stroke="rgb(204, 204, 204)" stroke-width="1px"></line><line x1="174.54427083333334" y1="0" x2="174.54427083333334" y2="5" style="visibility: inherit;" fill="rgb(0, 0, 0)" stroke="rgb(204, 204, 204)" stroke-width="1px"></line><line x1="199.47916666666666" y1="0" x2="199.47916666666666" y2="5" style="visibility: inherit;" fill="rgb(0, 0, 0)" stroke="rgb(204, 204, 204)" stroke-width="1px"></line><line x1="224.4140625" y1="0" x2="224.4140625" y2="5" style="visibility: inherit;" fill="rgb(0, 0, 0)" stroke="rgb(204, 204, 204)" stroke-width="1px"></line><line x1="249.34895833333334" y1="0" x2="249.34895833333334" y2="5" style="visibility: inherit;" fill="rgb(0, 0, 0)" stroke="rgb(204, 204, 204)" stroke-width="1px"></line><line x1="274.28385416666663" y1="0" x2="274.28385416666663" y2="5" style="visibility: inherit;" fill="rgb(0, 0, 0)" stroke="rgb(204, 204, 204)" stroke-width="1px"></line><line x1="299.21875" y1="0" x2="299.21875" y2="5" style="visibility: inherit;" fill="rgb(0, 0, 0)" stroke="rgb(204, 204, 204)" stroke-width="1px"></line></g><g transform="translate(0, 8)"><text x="0" y="0" dx="0em" dy="0.95em" style="text-anchor: middle; visibility: hidden; font-family: Roboto, sans-serif; font-size: 12px; font-weight: 200;" fill="rgb(33, 33, 33)" stroke="none" stroke-width="1px">-20</text><text x="24.934895833333332" y="0" dx="0em" dy="0.95em" style="text-anchor: middle; visibility: inherit; font-family: Roboto, sans-serif; font-size: 12px; font-weight: 200;" fill="rgb(33, 33, 33)" stroke="none" stroke-width="1px">0</text><text x="49.869791666666664" y="0" dx="0em" dy="0.95em" style="text-anchor: middle; visibility: inherit; font-family: Roboto, sans-serif; font-size: 12px; font-weight: 200;" fill="rgb(33, 33, 33)" stroke="none" stroke-width="1px">20</text><text x="74.8046875" y="0" dx="0em" dy="0.95em" style="text-anchor: middle; visibility: inherit; font-family: Roboto, sans-serif; font-size: 12px; font-weight: 200;" fill="rgb(33, 33, 33)" stroke="none" stroke-width="1px">40</text><text x="99.73958333333333" y="0" dx="0em" dy="0.95em" style="text-anchor: middle; visibility: inherit; font-family: Roboto, sans-serif; font-size: 12px; font-weight: 200;" fill="rgb(33, 33, 33)" stroke="none" stroke-width="1px">60</text><text x="124.67447916666667" y="0" dx="0em" dy="0.95em" style="text-anchor: middle; visibility: inherit; font-family: Roboto, sans-serif; font-size: 12px; font-weight: 200;" fill="rgb(33, 33, 33)" stroke="none" stroke-width="1px">80</text><text x="149.609375" y="0" dx="0em" dy="0.95em" style="text-anchor: middle; visibility: inherit; font-family: Roboto, sans-serif; font-size: 12px; font-weight: 200;" fill="rgb(33, 33, 33)" stroke="none" stroke-width="1px">100</text><text x="174.54427083333334" y="0" dx="0em" dy="0.95em" style="text-anchor: middle; visibility: inherit; font-family: Roboto, sans-serif; font-size: 12px; font-weight: 200;" fill="rgb(33, 33, 33)" stroke="none" stroke-width="1px">120</text><text x="199.47916666666666" y="0" dx="0em" dy="0.95em" style="text-anchor: middle; visibility: inherit; font-family: Roboto, sans-serif; font-size: 12px; font-weight: 200;" fill="rgb(33, 33, 33)" stroke="none" stroke-width="1px">140</text><text x="224.4140625" y="0" dx="0em" dy="0.95em" style="text-anchor: middle; visibility: inherit; font-family: Roboto, sans-serif; font-size: 12px; font-weight: 200;" fill="rgb(33, 33, 33)" stroke="none" stroke-width="1px">160</text><text x="249.34895833333334" y="0" dx="0em" dy="0.95em" style="text-anchor: middle; visibility: inherit; font-family: Roboto, sans-serif; font-size: 12px; font-weight: 200;" fill="rgb(33, 33, 33)" stroke="none" stroke-width="1px">180</text><text x="274.28385416666663" y="0" dx="0em" dy="0.95em" style="text-anchor: middle; visibility: inherit; font-family: Roboto, sans-serif; font-size: 12px; font-weight: 200;" fill="rgb(33, 33, 33)" stroke="none" stroke-width="1px">200</text><text x="299.21875" y="0" dx="0em" dy="0.95em" style="text-anchor: middle; visibility: hidden; font-family: Roboto, sans-serif; font-size: 12px; font-weight: 200;" fill="rgb(33, 33, 33)" stroke="none" stroke-width="1px">220</text></g><line x1="0" y1="0" x2="299.21875" y2="0" fill="rgb(0, 0, 0)" stroke="rgb(204, 204, 204)" stroke-width="1px"></line></g></g></g></g></svg>