<svg viewBox="0 0 301 200" xmlns="http://www.w3.org/2000/svg"><g><g><g><g><g><line x1="41.171875" y1="177" x2="36.171875" y2="177" style="visibility: inherit;" fill="rgb(0, 0, 0)" stroke="rgb(204, 204, 204)" stroke-width="1px"></line><line x1="41.171875" y1="159.3" x2="36.171875" y2="159.3" style="visibility: inherit;" fill="rgb(0, 0, 0)" stroke="rgb(204, 204, 204)" stroke-width="1px"></line><line x1="41.171875" y1="141.6" x2="36.171875" y2="141.6" style="visibility: inherit;" fill="rgb(0, 0, 0)" stroke="rgb(204, 204, 204)" stroke-width="1px"></line><line x1="41.171875" y1="123.89999999999999" x2="36.171875" y2="123.89999999999999" style="visibility: inherit;" fill="rgb(0, 0, 0)" stroke="rgb(204, 204, 204)" stroke-width="1px"></line><line x1="41.171875" y1="106.2" x2="36.171875" y2="106.2" style="visibility: inherit;" fill="rgb(0, 0, 0)" stroke="rgb(204, 204, 204)" stroke-width="1px"></line><line x1="41.171875" y1="88.5" x2="36.171875" y2="88.5" style="visibility: inherit;" fill="rgb(0, 0, 0)" stroke="rgb(204, 204, 204)" stroke-width="1px"></line><line x1="41.171875" y1="70.8" x2="36.171875" y2="70.8" style="visibility: inherit;" fill="rgb(0, 0, 0)" stroke="rgb(204, 204, 204)" stroke-width="1px"></line><line x1="41.171875" y1="53.10000000000001" x2="36.171875" y2="53.10000000000001" style="visibility: inherit;" fill="rgb(0, 0, 0)" stroke="rgb(204, 204, 204)" stroke-width="1px"></line><line x1="41.171875" y1="35.39999999999999" x2="36.171875" y2="35.39999999999999" style="visibility: inherit;" fill="rgb(0, 0, 0)" stroke="rgb(204, 204, 204)" stroke-width="1px"></line><line x1="41.171875" y1="17.699999999999996" x2="36.171875" y2="17.699999999999996" style="visibility: inherit;" fill="rgb(0, 0, 0)" stroke="rgb(204, 204, 204)" stroke-width="1px"></line><line x1="41.171875" y1="0" x2="36.171875" y2="0" style="visibility: inherit;" fill="rgb(0, 0, 0)" stroke="rgb(204, 204, 204)" stroke-width="1px"></line></g><g transform="translate(31.171875, 0)"><text x="0" y="177" dx="0em" dy="0.3em" style="text-anchor: end; visibility: hidden; font-family: Roboto, sans-serif; font-size: 12px; font-weight: 200;" fill="rgb(33, 33, 33)" stroke="none" stroke-width="1px">-20</text><text x="0" y="159.3" dx="0em" dy="0.3em" style="text-anchor: end; visibility: inherit; font-family: Roboto, sans-serif; font-size: 12px; font-weight: 200;" fill="rgb(33, 33, 33)" stroke="none" stroke-width="1px">0</text><text x="0" y="141.6" dx="0em" dy="0.3em" style="text-anchor: end; visibility: hidden; font-family: Roboto, sans-serif; font-size: 12px; font-weight: 200;" fill="rgb(33, 33, 33)" stroke="none" stroke-width="1px">20</text><text x="0" y="123.89999999999999" dx="0em" dy="0.3em" style="text-anchor: end; visibility: inherit; font-family: Roboto, sans-serif; font-size: 12px; font-weight: 200;" fill="rgb(33, 33, 33)" stroke="none" stroke-width="1px">40</text><text x="0" y="106.2" dx="0em" dy="0.3em" style="text-anchor: end; visibility: hidden; font-family: Roboto, sans-serif; font-size: 12px; font-weight: 200;" fill="rgb(33, 33, 33)" stroke="none" stroke-width="1px">60</text><text x="0" y="88.5" dx="0em" dy="0.3em" style="text-anchor: end; visibility: inherit; font-family: Roboto, sans-serif; font-size: 12px; font-weight: 200;" fill="rgb(33, 33, 33)" stroke="none" stroke-width="1px">80</text><text x="0" y="70.8" dx="0em" dy="0.3em" style="text-anchor: end; visibility: hidden; font-family: Roboto, sans-serif; font-size: 12px; font-weight: 200;" fill="rgb(33, 33, 33)" stroke="none" stroke-width="1px">100</text><text x="0" y="53.10000000000001" dx="0em" dy="0.3em" style="text-anchor: end; visibility: inherit; font-family: Roboto, sans-serif; font-size: 12px; font-weight: 200;" fill="rgb(33, 33, 33)" stroke="none" stroke-width="1px">120</text><text x="0" y="35.39999999999999" dx="0em" dy="0.3em" style="text-anchor: end; visibility: hidden; font-family: Roboto, sans-serif; font-size: 12px; font-weight: 200;" fill="rgb(33, 33, 33)" stroke="none" stroke-width="1px">140</text><text x="0" y="17.699999999999996" dx="0em" dy="0.3em" style="text-anchor: end; visibility: inherit; font-family: Roboto, sans-serif; font-size: 12px; font-weight: 200;" fill="rgb(33, 33, 33)" stroke="none" stroke-width="1px">160</text><text x="0" y="0" dx="0em" dy="0.3em" style="text-anchor: end; visibility: hidden; font-family: Roboto, sans-serif; font-size: 12px; font-weight: 200;" fill="rgb(33, 33, 33)" stroke="none" stroke-width="1px">180</text></g><line x1="41.171875" y1="0" x2="41.171875" y2="177" fill="rgb(0, 0, 0)" stroke="rgb(204, 204, 204)" stroke-width="1px"></line></g></g><g transform="translate(41, 0)" clip-path="url(#clip_0)"><clipPath id="clip_0"><rect width="288" height="177"></rect></clipPath><g><g><g><line x1="0" y1="0" x2="0" y2="177" fill="rgb(0, 0, 0)" stroke="rgb(66, 66, 66)" stroke-width="1px" opacity="0.25"></line><line x1="24.069010416666664" y1="0" x2="24.069010416666664" y2="177" fill="rgb(0, 0, 0)" stroke="rgb(66, 66, 66)" stroke-width="1px" opacity="0.25"></line><line x1="48.13802083333333" y1="0" x2="48.13802083333333" y2="177" fill="rgb(0, 0, 0)" stroke="rgb(66, 66, 66)" stroke-width="1px" opacity="0.25"></line><line x1="72.20703125" y1="0" x2="72.20703125" y2="177" fill="rgb(0, 0, 0)" stroke="rgb(66, 66, 66)" stroke-width="1px" opacity="0.25"></line><line x1="96.27604166666666" y1="0" x2="96.27604166666666" y2="177" fill="rgb(0, 0, 0)" stroke="rgb(66, 66, 66)" stroke-width="1px" opacity="0.25"></line><line x1="120.34505208333334" y1="0" x2="120.34505208333334" y2="177" fill="rgb(0, 0, 0)" stroke="rgb(66, 66, 66)" stroke-width="1px" opacity="0.25"></line><line x1="144.4140625" y1="0" x2="144.4140625" y2="177" fill="rgb(0, 0, 0)" stroke="rgb(66, 66, 66)" stroke-width="1px" opacity="0.25"></line><line x1="168.48307291666669" y1="0" x2="168.48307291666669" y2="177" fill="rgb(0, 0, 0)" stroke="rgb(66, 66, 66)" stroke-width="1px" opacity="0.25"></line><line x1="192.55208333333331" y1="0" x2="192.55208333333331" y2="177" fill="rgb(0, 0, 0)" stroke="rgb(66, 66, 66)" stroke-width="1px" opacity="0.25"></line><line x1="216.62109375" y1="0" x2="216.62109375" y2="177" fill="rgb(0, 0, 0)" stroke="rgb(66, 66, 66)" stroke-width="1px" opacity="0.25"></line><line x1="240.69010416666669" y1="0" x2="240.69010416666669" y2="177" fill="rgb(0, 0, 0)" stroke="rgb(66, 66, 66)" stroke-width="1px" opacity="0.25"></line><line x1="264.7591145833333" y1="0" x2="264.7591145833333" y2="177" fill="rgb(0, 0, 0)" stroke="rgb(66, 66, 66)" stroke-width="1px" opacity="0.25"></line><line x1="288.828125" y1="0" x2="288.828125" y2="177" fill="rgb(0, 0, 0)" stroke="rgb(66, 66, 66)" stroke-width="1px" opacity="0.25"></line></g><g><line x1="0" y1="177" x2="288.828125" y2="177" fill="rgb(0, 0, 0)" stroke="rgb(66, 66, 66)" stroke-width="1px" opacity="0.25"></line><line x1="0" y1="159.3" x2="288.828125" y2="159.3" fill="rgb(0, 0, 0)" stroke="rgb(66, 66, 66)" stroke-width="1px" opacity="0.25"></line><line x1="0" y1="141.6" x2="288.828125" y2="141.6" fill="rgb(0, 0, 0)" stroke="rgb(66, 66, 66)" stroke-width="1px" opacity="0.25"></line><line x1="0" y1="123.89999999999999" x2="288.828125" y2="123.89999999999999" fill="rgb(0, 0, 0)" stroke="rgb(66, 66, 66)" stroke-width="1px" opacity="0.25"></line><line x1="0" y1="106.2" x2="288.828125" y2="106.2" fill="rgb(0, 0, 0)" stroke="rgb(66, 66, 66)" stroke-width="1px" opacity="0.25"></line><line x1="0" y1="88.5" x2="288.828125" y2="88.5" fill="rgb(0, 0, 0)" stroke="rgb(66, 66, 66)" stroke-width="1px" opacity="0.25"></line><line x1="0" y1="70.8" x2="288.828125" y2="70.8" fill="rgb(0, 0, 0)" stroke="rgb(66, 66, 66)" stroke-width="1px" opacity="0.25"></line><line x1="0" y1="53.10000000000001" x2="288.828125" y2="53.10000000000001" fill="rgb(0, 0, 0)" stroke="rgb(66, 66, 66)" stroke-width="1px" opacity="0.25"></line><line x1="0" y1="35.39999999999999" x2="288.828125" y2="35.39999999999999" fill="rgb(0, 0, 0)" stroke="rgb(66, 66, 66)" stroke-width="1px" opacity="0.25"></line><line x1="0" y1="17.699999999999996" x2="288.828125" y2="17.699999999999996" fill="rgb(0, 0, 0)" stroke="rgb(66, 66, 66)" stroke-width="1px" opacity="0.25"></line><line x1="0" y1="0" x2="288.828125" y2="0" fill="rgb(0, 0, 0)" stroke="rgb(66, 66, 66)" stroke-width="1px" opacity="0.25"></line></g></g></g><g><g><line x1="0" y1="159.3" x2="288.828125" y2="159.3" fill="rgb(0, 0, 0)" stroke="rgb(153, 153, 153)" stroke-width="1.5px"></line></g></g><g><g><line x1="24.069010416666664" y1="0" x2="24.069010416666664" y2="177" fill="rgb(0, 0, 0)" stroke="rgb(153, 153, 153)" stroke-width="1.5px"></line></g></g><g><g><g><g><g><path stroke="rgb(0, 119, 187)" stroke-width="2px" d="M34.900065104166664,-36.738006244330904L36.103515625,7.669612017616534L37.306966145833336,24.339801281684522L38.510416666666664,32.909044693651055L39.7138671875,38.07758343495232L40.917317708333336,45.65132112597403L42.12076822916667,50.01525447924017L43.32421875,51.43249260225274L44.527669270833336,52.7728681915947L45.731119791666664,54.693233752369764L46.9345703125,58.185354042552014L48.13802083333333,63.8605466391111L49.341471354166664,69.88214429609648L50.544921875,75.21464618173424L51.748372395833336,79.66422696246319L52.951822916666664,83.67665240413038L54.1552734375,87.90876703379777L55.358723958333336,92.09378374560312L56.562174479166664,95.8681300915107L57.765625,99.25776332287987L58.969075520833336,102.61145101304744L60.17252604166667,105.88661326303384L61.3759765625,108.9769205014549L62.579427083333336,111.8875409635559L63.782877604166664,114.81077197525181L64.986328125,117.66471230609258L66.18977864583333,120.31384737421587L67.39322916666667,122.8100301238464L68.5966796875,124.86951536378042L69.80013020833333,127.12741189503687L71.00358072916666,128.99091606754877L72.20703125,131.05102964461776L73.41048177083333,133.24487855073474L74.61393229166667,135.13860921549718L75.8173828125,136.60505802375982L77.02083333333333,137.85508663426947L78.22428385416666,138.929769890044L79.427734375,139.8704390055593L80.63118489583333,140.7026022503058L81.83463541666667,141.42952593148536L83.0380859375,142.082549590831L84.24153645833334,142.6757552307073L85.44498697916667,143.23635799476915L86.6484375,143.77669999833807L87.85188802083333,144.32370915155315L89.05533854166667,144.87473674134748L90.2587890625,145.43480088600072L91.46223958333333,146.02612806069578L92.66569010416667,146.61121194688505L93.869140625,147.1139155768986L95.07259114583333,147.5369216713706L96.27604166666666,147.93385291530944L97.4794921875,148.29659319567543L98.68294270833333,148.62362314262577L99.88639322916667,148.92711090798346L101.08984375,149.21567165422323L102.29329427083334,149.49320499734114L103.49674479166667,149.7593852415457L104.7001953125,150.01056279027645L105.90364583333333,150.24341026126962L107.10709635416667,150.4571747970914L108.310546875,150.6530920701607L109.51399739583333,150.8330220996222L110.71744791666667,150.99870561838839L111.9208984375,151.15212267774598L113.12434895833333,151.29518740674456L114.32779947916666,151.4276401348163L115.53125,151.54931811817943L116.73470052083333,151.66262855472766L117.93815104166667,151.7689538003403L119.1416015625,151.86914830604886L120.34505208333334,151.9640003096961L121.54850260416667,152.05534591206526L122.751953125,152.14554225757803L123.95540364583333,152.24229357303503L125.15885416666667,152.42440428773435L126.3623046875,152.57982725831027L127.56575520833333,152.72472436242396L128.76920572916669,152.96983864089324L129.97265625,153.132601698022L131.17610677083334,153.3158609330316L132.37955729166666,153.41081475811876L133.5830078125,153.4598819953722L134.78645833333334,153.57255441703444L135.98990885416666,153.65115436776114L137.193359375,153.7194441452941L138.39680989583334,153.78878099508123L139.60026041666666,153.85900502450633L140.8037109375,153.92562957189736L142.00716145833331,153.99009889432483L143.21061197916666,154.0533274143955L144.4140625,154.11557390514855L145.61751302083334,154.1770884058723L146.82096354166666,154.2377875410982L148.0244140625,154.29757540280215L149.22786458333334,154.3561461388909L150.43131510416669,154.4130512930771L151.634765625,154.46787729074913L152.83821614583334,154.52034154628046L154.04166666666666,154.57054889516218L155.2451171875,154.61883299922852L156.44856770833331,154.66551736097716L157.65201822916666,154.71085892755062L158.85546875,154.75505662218052L160.05891927083334,154.79826596449263L161.26236979166666,154.84067726536523L162.4658203125,154.88254757032487L163.66927083333334,154.9240869255318L164.87272135416666,154.96540539967407L166.076171875,155.0066539086312L167.27962239583334,155.04806548756935L168.48307291666669,155.08974952129427L169.6865234375,155.13156942201326L170.88997395833334,155.17316028724494L172.09342447916666,155.2138448896719L173.296875,155.25268767560652L174.50032552083331,155.28895982979896L175.70377604166666,155.3222464033697L176.9072265625,155.3525077826994L178.11067708333334,155.38007663408092L179.31412760416666,155.40546136703472L180.517578125,155.4291457778183L181.72102864583334,155.45153110927097L182.92447916666666,155.47292848215716L184.1279296875,155.4935743646875L185.33138020833334,155.5136630698706L186.53483072916669,155.53334053361098L187.73828125,155.55271693344204L188.94173177083334,155.57187069823152L190.14518229166666,155.59086466745612L191.3486328125,155.6097197072878L192.55208333333331,155.62845279342932L193.75553385416666,155.6470552720945L194.958984375,155.66549645700053L196.16243489583334,155.68375213492345L197.36588541666666,155.7017928936454L198.5693359375,155.7195805468425L199.77278645833334,155.73709687938276L200.97623697916666,155.7543175654769L202.1796875,155.77122637013713L203.38313802083334,155.78782022655014L204.58658854166669,155.80410112047673L205.7900390625,155.82007054113018L206.99348958333334,155.83573593796316L208.19694010416666,155.8511055212834L209.400390625,155.86619761054425L210.60384114583331,155.8810126454126L211.80729166666666,155.89557102414724L213.0107421875,155.90988291531866L214.21419270833334,155.92396586163287L215.41764322916666,155.93782502065264L216.62109375,155.95147719701058L217.82454427083334,155.96493041366574L219.02799479166666,155.9782033974481L220.2314453125,155.99130380557668L221.43489583333334,156.00423676429907L222.63834635416669,156.01700383820028L223.841796875,156.02960382921168L225.04524739583334,156.04201384963577L226.24869791666666,156.05422696613834L227.4521484375,156.0662380698451L228.65559895833331,156.07810243504318L229.85904947916666,156.08998346028736L231.0625,156.102020985188L232.26595052083334,156.11408574283365L233.46940104166666,156.12586572617062L234.6728515625,156.13713412472958L235.87630208333334,156.14787252106413L237.07975260416666,156.15817994045213L238.283203125,156.16815740305114L239.48665364583334,156.1779362495513L240.69010416666669,156.18766255201285L241.8935546875,156.1968669861177L243.09700520833334,156.2064161950913L244.30045572916666,156.21523786779062L245.50390625,156.22375315080544L246.70735677083331,156.23272711461317L247.91080729166666,156.2422427849449L249.1142578125,156.25030045230025L250.31770833333334,156.25824878453227L251.52115885416666,156.26634173727012L252.724609375,156.27457696205522L253.92805989583334,156.28311276764063L255.13151041666666,156.2922373516489L256.3349609375,156.30009534766944L257.53841145833337,156.30887107691066L258.7418619791667,156.315438128319L259.9453125,156.32409391035094L261.1487630208333,156.33249071133363L262.3522135416667,156.33997600021652L263.5556640625,156.3487100405938" style="fill: none;" fill="none"></path></g></g></g></g><g opacity="0.2"><g><g><g><path stroke="rgb(0, 119, 187)" stroke-width="2px" d="M34.900065104166664,-34.28247413635255L36.103515625,8.761602630615233L37.306966145833336,24.749723968505865L38.510416666666664,33.11976379394531L39.7138671875,38.204678649902355L40.917317708333336,45.83756057739257L42.12076822916667,50.1225643157959L43.32421875,51.467342720031745L44.527669270833336,52.8058282470703L45.731119791666664,54.740455856323244L46.9345703125,58.2712258529663L48.13802083333333,64.00010055541992L49.341471354166664,70.0302163696289L50.544921875,75.34577327728272L51.748372395833336,79.7736428833008L52.951822916666664,83.77531860351563L54.1552734375,88.01283542633055L55.358723958333336,92.19669399261475L56.562174479166664,95.96094188690186L57.765625,99.34111495971679L58.969075520833336,102.69391874313355L60.17252604166667,105.96715003967283L61.3759765625,109.05291166305541L62.579427083333336,111.95911359786987L63.782877604166664,114.88265470504761L64.986328125,117.734891166687L66.18977864583333,120.37899003982542L67.39322916666667,122.8714116668701L68.5966796875,124.92015844345093L69.80013020833333,127.18293394088747L71.00358072916666,129.03673994064332L72.20703125,131.10168817520142L73.41048177083333,133.29882565498352L74.61393229166667,135.18517636299134L75.8173828125,136.64111824035643L77.02083333333333,137.8858250427246L78.22428385416666,138.95619652748107L79.427734375,139.89357021331787L80.63118489583333,140.7230652809143L81.83463541666667,141.4474011039734L83.0380859375,142.09860754966735L84.24153645833334,142.69034225463867L85.44498697916667,143.25014330863954L86.6484375,143.7899870967865L87.85188802083333,144.33716019630432L89.05533854166667,144.8882866001129L90.2587890625,145.44857295513154L91.46223958333333,146.04066889286042L92.66569010416667,146.62559925556184L93.869140625,147.12627714157105L95.07259114583333,147.54732346057892L96.27604166666666,147.9436135196686L97.4794921875,148.30551303863527L98.68294270833333,148.63166486263276L99.88639322916667,148.93457372188567L101.08984375,149.22276741027832L102.29329427083334,149.50002958774567L103.49674479166667,149.76593065738678L104.7001953125,150.0167392873764L105.90364583333333,150.24913601875306L107.10709635416667,150.46243130207063L108.310546875,150.65790970802308L109.51399739583333,150.8374466085434L110.71744791666667,151.00277980327607L111.9208984375,151.15589522838593L113.12434895833333,151.29870539188386L114.32779947916666,151.43089716911317L115.53125,151.55231019973755L116.73470052083333,151.66541487693786L117.93815104166667,151.7715683555603L119.1416015625,151.87161210536956L120.34505208333334,151.96633273601532L121.54850260416667,152.05759211540223L122.751953125,152.1477602005005L123.95540364583333,152.244672703743L125.15885416666667,152.42888242006302L126.3623046875,152.58364913463592L127.56575520833333,152.7282874059677L128.76920572916669,152.97586604118348L129.97265625,153.13660406827927L131.17610677083334,153.32036730766296L132.37955729166666,153.41314968824386L133.5830078125,153.4610885667801L134.78645833333334,153.575325050354L135.98990885416666,153.65308715343477L137.193359375,153.72112340211868L138.39680989583334,153.7904859995842L139.60026041666666,153.86073184490203L140.8037109375,153.92726788043976L142.00716145833331,153.99168420553207L143.21061197916666,154.05488221406935L144.4140625,154.11710455656052L145.61751302083334,154.17860105752945L146.82096354166666,154.2392801427841L148.0244140625,154.29904559612274L149.22786458333334,154.35758640289308L150.43131510416669,154.41445060014726L151.634765625,154.46922547101974L152.83821614583334,154.5216316509247L154.04166666666666,154.5717835021019L155.2451171875,154.62002031326293L156.44856770833331,154.66666533708573L157.65201822916666,154.71197388410567L158.85546875,154.756143450737L160.05891927083334,154.79932848930358L161.26236979166666,154.84172016620636L162.4658203125,154.88357716798782L163.66927083333334,154.92510838508605L164.87272135416666,154.96642142772674L166.076171875,155.0076682162285L167.27962239583334,155.04908380508422L168.48307291666669,155.090774538517L169.6865234375,155.13259778022766L170.88997395833334,155.17418301343918L172.09342447916666,155.21484533071518L173.296875,155.25364282608032L174.50032552083331,155.2898517680168L175.70377604166666,155.32306492567062L176.9072265625,155.35325191497802L178.11067708333334,155.3807545566559L179.31412760416666,155.40608558177948L180.517578125,155.42972818136215L181.72102864583334,155.4520815682411L182.92447916666666,155.47345464706422L184.1279296875,155.4940820503235L185.33138020833334,155.5141570544243L186.53483072916669,155.53382440567017L187.73828125,155.55319340229033L188.94173177083334,155.57234169244765L190.14518229166666,155.5913317322731L191.3486328125,155.61018335580826L192.55208333333331,155.62891344308852L193.75553385416666,155.64751271009445L194.958984375,155.66594992876054L196.16243489583334,155.6842010450363L197.36588541666666,155.70223651885985L198.5693359375,155.72001794815063L199.77278645833334,155.73752760887146L200.97623697916666,155.754741024971L202.1796875,155.77164216041564L203.38313802083334,155.78822827219963L204.58658854166669,155.80450147032738L205.7900390625,155.820463231802L206.99348958333334,155.83612115263938L208.19694010416666,155.85148346185684L209.400390625,155.86656872749327L210.60384114583331,155.88137694954872L211.80729166666666,155.89592901706695L213.0107421875,155.91023484706878L214.21419270833334,155.9243121635914L215.41764322916666,155.93816581964492L216.62109375,155.95181290626525L217.82454427083334,155.96526123046874L219.02799479166666,155.97852978229523L220.2314453125,155.99162594676017L221.43489583333334,156.0045547878742L222.63834635416669,156.01731778264045L223.841796875,156.02991366505623L225.04524739583334,156.04231901407243L226.24869791666666,156.0545272886753L227.4521484375,156.06653342485427L228.65559895833331,156.07839418172836L229.85904947916666,156.0902756166458L231.0625,156.1023169898987L232.26595052083334,156.114382417202L233.46940104166666,156.126155397892L234.6728515625,156.1374112164974L235.87630208333334,156.1481365799904L237.07975260416666,156.15843340158463L238.283203125,156.1684027504921L239.48665364583334,156.1781767129898L240.69010416666669,156.18790172338487L241.8935546875,156.19709332466127L243.09700520833334,156.2066510117054L244.30045572916666,156.21545479416847L245.50390625,156.2239625430107L246.70735677083331,156.23294778585435L247.91080729166666,156.2424767768383L249.1142578125,156.25049859166145L250.31770833333334,156.25844423532484L251.52115885416666,156.26654074430465L252.724609375,156.2747794675827L253.92805989583334,156.28332266449928L255.13151041666666,156.2924617266655L256.3349609375,156.30028857707978L257.53841145833337,156.30908687353136L258.7418619791667,156.3155996131897L259.9453125,156.3243067574501L261.1487630208333,156.3326971900463L262.3522135416667,156.34016006469727L263.5556640625,156.34892481207848" style="fill: none;" fill="none"></path></g></g></g></g></g></g><g transform="translate(41, 177)" clip-path="url(#clip_1)"><clipPath id="clip_1"><rect width="288" height="23"></rect></clipPath><g><g><line x1="0" y1="0" x2="0" y2="5" style="visibility: inherit;" fill="rgb(0, 0, 0)" stroke="rgb(204, 204, 204)" stroke-width="1px"></line><line x1="24.069010416666664" y1="0" x2="24.069010416666664" y2="5" style="visibility: inherit;" fill="rgb(0, 0, 0)" stroke="rgb(204, 204, 204)" stroke-width="1px"></line><line x1="48.13802083333333" y1="0" x2="48.13802083333333" y2="5" style="visibility: inherit;" fill="rgb(0, 0, 0)" stroke="rgb(204, 204, 204)" stroke-width="1px"></line><line x1="72.20703125" y1="0" x2="72.20703125" y2="5" style="visibility: inherit;" fill="rgb(0, 0, 0)" stroke="rgb(204, 204, 204)" stroke-width="1px"></line><line x1="96.27604166666666" y1="0" x2="96.27604166666666" y2="5" style="visibility: inherit;" fill="rgb(0, 0, 0)" stroke="rgb(204, 204, 204)" stroke-width="1px"></line><line x1="120.34505208333334" y1="0" x2="120.34505208333334" y2="5" style="visibility: inherit;" fill="rgb(0, 0, 0)" stroke="rgb(204, 204, 204)" stroke-width="1px"></line><line x1="144.4140625" y1="0" x2="144.4140625" y2="5" style="visibility: inherit;" fill="rgb(0, 0, 0)" stroke="rgb(204, 204, 204)" stroke-width="1px"></line><line x1="168.48307291666669" y1="0" x2="168.48307291666669" y2="5" style="visibility: inherit;" fill="rgb(0, 0, 0)" stroke="rgb(204, 204, 204)" stroke-width="1px"></line><line x1="192.55208333333331" y1="0" x2="192.55208333333331" y2="5" style="visibility: inherit;" fill="rgb(0, 0, 0)" stroke="rgb(204, 204, 204)" stroke-width="1px"></line><line x1="216.62109375" y1="0" x2="216.62109375" y2="5" style="visibility: inherit;" fill="rgb(0, 0, 0)" stroke="rgb(204, 204, 204)" stroke-width="1px"></line><line x1="240.69010416666669" y1="0" x2="240.69010416666669" y2="5" style="visibility: inherit;" fill="rgb(0, 0, 0)" stroke="rgb(204, 204, 204)" stroke-width="1px"></line><line x1="264.7591145833333" y1="0" x2="264.7591145833333" y2="5" style="visibility: inherit;" fill="rgb(0, 0, 0)" stroke="rgb(204, 204, 204)" stroke-width="1px"></line><line x1="288.828125" y1="0" x2="288.828125" y2="5" style="visibility: inherit;" fill="rgb(0, 0, 0)" stroke="rgb(204, 204, 204)" stroke-width="1px"></line></g><g transform="translate(0, 8)"><text x="0" y="0" dx="0em" dy="0.95em" style="text-anchor: middle; visibility: hidden; font-family: Roboto, sans-serif; font-size: 12px; font-weight: 200;" fill="rgb(33, 33, 33)" stroke="none" stroke-width="1px">-20</text><text x="24.069010416666664" y="0" dx="0em" dy="0.95em" style="text-anchor: middle; visibility: inherit; font-family: Roboto, sans-serif; font-size: 12px; font-weight: 200;" fill="rgb(33, 33, 33)" stroke="none" stroke-width="1px">0</text><text x="48.13802083333333" y="0" dx="0em" dy="0.95em" style="text-anchor: middle; visibility: hidden; font-family: Roboto, sans-serif; font-size: 12px; font-weight: 200;" fill="rgb(33, 33, 33)" stroke="none" stroke-width="1px">20</text><text x="72.20703125" y="0" dx="0em" dy="0.95em" style="text-anchor: middle; visibility: inherit; font-family: Roboto, sans-serif; font-size: 12px; font-weight: 200;" fill="rgb(33, 33, 33)" stroke="none" stroke-width="1px">40</text><text x="96.27604166666666" y="0" dx="0em" dy="0.95em" style="text-anchor: middle; visibility: hidden; font-family: Roboto, sans-serif; font-size: 12px; font-weight: 200;" fill="rgb(33, 33, 33)" stroke="none" stroke-width="1px">60</text><text x="120.34505208333334" y="0" dx="0em" dy="0.95em" style="text-anchor: middle; visibility: inherit; font-family: Roboto, sans-serif; font-size: 12px; font-weight: 200;" fill="rgb(33, 33, 33)" stroke="none" stroke-width="1px">80</text><text x="144.4140625" y="0" dx="0em" dy="0.95em" style="text-anchor: middle; visibility: hidden; font-family: Roboto, sans-serif; font-size: 12px; font-weight: 200;" fill="rgb(33, 33, 33)" stroke="none" stroke-width="1px">100</text><text x="168.48307291666669" y="0" dx="0em" dy="0.95em" style="text-anchor: middle; visibility: inherit; font-family: Roboto, sans-serif; font-size: 12px; font-weight: 200;" fill="rgb(33, 33, 33)" stroke="none" stroke-width="1px">120</text><text x="192.55208333333331" y="0" dx="0em" dy="0.95em" style="text-anchor: middle; visibility: hidden; font-family: Roboto, sans-serif; font-size: 12px; font-weight: 200;" fill="rgb(33, 33, 33)" stroke="none" stroke-width="1px">140</text><text x="216.62109375" y="0" dx="0em" dy="0.95em" style="text-anchor: middle; visibility: inherit; font-family: Roboto, sans-serif; font-size: 12px; font-weight: 200;" fill="rgb(33, 33, 33)" stroke="none" stroke-width="1px">160</text><text x="240.69010416666669" y="0" dx="0em" dy="0.95em" style="text-anchor: middle; visibility: hidden; font-family: Roboto, sans-serif; font-size: 12px; font-weight: 200;" fill="rgb(33, 33, 33)" stroke="none" stroke-width="1px">180</text><text x="264.7591145833333" y="0" dx="0em" dy="0.95em" style="text-anchor: middle; visibility: inherit; font-family: Roboto, sans-serif; font-size: 12px; font-weight: 200;" fill="rgb(33, 33, 33)" stroke="none" stroke-width="1px">200</text><text x="288.828125" y="0" dx="0em" dy="0.95em" style="text-anchor: middle; visibility: hidden; font-family: Roboto, sans-serif; font-size: 12px; font-weight: 200;" fill="rgb(33, 33, 33)" stroke="none" stroke-width="1px">220</text></g><line x1="0" y1="0" x2="288.828125" y2="0" fill="rgb(0, 0, 0)" stroke="rgb(204, 204, 204)" stroke-width="1px"></line></g></g></g></g></svg>