<svg viewBox="0 0 301 200" xmlns="http://www.w3.org/2000/svg"><g><g><g><g><g><line x1="30.78125" y1="177" x2="25.78125" y2="177" style="visibility: inherit;" fill="rgb(0, 0, 0)" stroke="rgb(204, 204, 204)" stroke-width="1px"></line><line x1="30.78125" y1="154.875" x2="25.78125" y2="154.875" style="visibility: inherit;" fill="rgb(0, 0, 0)" stroke="rgb(204, 204, 204)" stroke-width="1px"></line><line x1="30.78125" y1="132.75" x2="25.78125" y2="132.75" style="visibility: inherit;" fill="rgb(0, 0, 0)" stroke="rgb(204, 204, 204)" stroke-width="1px"></line><line x1="30.78125" y1="110.625" x2="25.78125" y2="110.625" style="visibility: inherit;" fill="rgb(0, 0, 0)" stroke="rgb(204, 204, 204)" stroke-width="1px"></line><line x1="30.78125" y1="88.5" x2="25.78125" y2="88.5" style="visibility: inherit;" fill="rgb(0, 0, 0)" stroke="rgb(204, 204, 204)" stroke-width="1px"></line><line x1="30.78125" y1="66.375" x2="25.78125" y2="66.375" style="visibility: inherit;" fill="rgb(0, 0, 0)" stroke="rgb(204, 204, 204)" stroke-width="1px"></line><line x1="30.78125" y1="44.25" x2="25.78125" y2="44.25" style="visibility: inherit;" fill="rgb(0, 0, 0)" stroke="rgb(204, 204, 204)" stroke-width="1px"></line><line x1="30.78125" y1="22.125" x2="25.78125" y2="22.125" style="visibility: inherit;" fill="rgb(0, 0, 0)" stroke="rgb(204, 204, 204)" stroke-width="1px"></line><line x1="30.78125" y1="0" x2="25.78125" y2="0" style="visibility: inherit;" fill="rgb(0, 0, 0)" stroke="rgb(204, 204, 204)" stroke-width="1px"></line></g><g transform="translate(20.78125, 0)"><text x="0" y="177" dx="0em" dy="0.3em" style="text-anchor: end; visibility: hidden; font-family: Roboto, sans-serif; font-size: 12px; font-weight: 200;" fill="rgb(33, 33, 33)" stroke="none" stroke-width="1px">0</text><text x="0" y="154.875" dx="0em" dy="0.3em" style="text-anchor: end; visibility: inherit; font-family: Roboto, sans-serif; font-size: 12px; font-weight: 200;" fill="rgb(33, 33, 33)" stroke="none" stroke-width="1px">10</text><text x="0" y="132.75" dx="0em" dy="0.3em" style="text-anchor: end; visibility: hidden; font-family: Roboto, sans-serif; font-size: 12px; font-weight: 200;" fill="rgb(33, 33, 33)" stroke="none" stroke-width="1px">20</text><text x="0" y="110.625" dx="0em" dy="0.3em" style="text-anchor: end; visibility: inherit; font-family: Roboto, sans-serif; font-size: 12px; font-weight: 200;" fill="rgb(33, 33, 33)" stroke="none" stroke-width="1px">30</text><text x="0" y="88.5" dx="0em" dy="0.3em" style="text-anchor: end; visibility: hidden; font-family: Roboto, sans-serif; font-size: 12px; font-weight: 200;" fill="rgb(33, 33, 33)" stroke="none" stroke-width="1px">40</text><text x="0" y="66.375" dx="0em" dy="0.3em" style="text-anchor: end; visibility: inherit; font-family: Roboto, sans-serif; font-size: 12px; font-weight: 200;" fill="rgb(33, 33, 33)" stroke="none" stroke-width="1px">50</text><text x="0" y="44.25" dx="0em" dy="0.3em" style="text-anchor: end; visibility: hidden; font-family: Roboto, sans-serif; font-size: 12px; font-weight: 200;" fill="rgb(33, 33, 33)" stroke="none" stroke-width="1px">60</text><text x="0" y="22.125" dx="0em" dy="0.3em" style="text-anchor: end; visibility: inherit; font-family: Roboto, sans-serif; font-size: 12px; font-weight: 200;" fill="rgb(33, 33, 33)" stroke="none" stroke-width="1px">70</text><text x="0" y="0" dx="0em" dy="0.3em" style="text-anchor: end; visibility: hidden; font-family: Roboto, sans-serif; font-size: 12px; font-weight: 200;" fill="rgb(33, 33, 33)" stroke="none" stroke-width="1px">80</text></g><line x1="30.78125" y1="0" x2="30.78125" y2="177" fill="rgb(0, 0, 0)" stroke="rgb(204, 204, 204)" stroke-width="1px"></line></g></g><g transform="translate(30, 0)" clip-path="url(#clip_0)"><clipPath id="clip_0"><rect width="299" height="177"></rect></clipPath><g><g><g><line x1="0" y1="0" x2="0" y2="177" fill="rgb(0, 0, 0)" stroke="rgb(66, 66, 66)" stroke-width="1px" opacity="0.25"></line><line x1="24.934895833333332" y1="0" x2="24.934895833333332" y2="177" fill="rgb(0, 0, 0)" stroke="rgb(66, 66, 66)" stroke-width="1px" opacity="0.25"></line><line x1="49.869791666666664" y1="0" x2="49.869791666666664" y2="177" fill="rgb(0, 0, 0)" stroke="rgb(66, 66, 66)" stroke-width="1px" opacity="0.25"></line><line x1="74.8046875" y1="0" x2="74.8046875" y2="177" fill="rgb(0, 0, 0)" stroke="rgb(66, 66, 66)" stroke-width="1px" opacity="0.25"></line><line x1="99.73958333333333" y1="0" x2="99.73958333333333" y2="177" fill="rgb(0, 0, 0)" stroke="rgb(66, 66, 66)" stroke-width="1px" opacity="0.25"></line><line x1="124.67447916666667" y1="0" x2="124.67447916666667" y2="177" fill="rgb(0, 0, 0)" stroke="rgb(66, 66, 66)" stroke-width="1px" opacity="0.25"></line><line x1="149.609375" y1="0" x2="149.609375" y2="177" fill="rgb(0, 0, 0)" stroke="rgb(66, 66, 66)" stroke-width="1px" opacity="0.25"></line><line x1="174.54427083333334" y1="0" x2="174.54427083333334" y2="177" fill="rgb(0, 0, 0)" stroke="rgb(66, 66, 66)" stroke-width="1px" opacity="0.25"></line><line x1="199.47916666666666" y1="0" x2="199.47916666666666" y2="177" fill="rgb(0, 0, 0)" stroke="rgb(66, 66, 66)" stroke-width="1px" opacity="0.25"></line><line x1="224.4140625" y1="0" x2="224.4140625" y2="177" fill="rgb(0, 0, 0)" stroke="rgb(66, 66, 66)" stroke-width="1px" opacity="0.25"></line><line x1="249.34895833333334" y1="0" x2="249.34895833333334" y2="177" fill="rgb(0, 0, 0)" stroke="rgb(66, 66, 66)" stroke-width="1px" opacity="0.25"></line><line x1="274.28385416666663" y1="0" x2="274.28385416666663" y2="177" fill="rgb(0, 0, 0)" stroke="rgb(66, 66, 66)" stroke-width="1px" opacity="0.25"></line><line x1="299.21875" y1="0" x2="299.21875" y2="177" fill="rgb(0, 0, 0)" stroke="rgb(66, 66, 66)" stroke-width="1px" opacity="0.25"></line></g><g><line x1="0" y1="177" x2="299.21875" y2="177" fill="rgb(0, 0, 0)" stroke="rgb(66, 66, 66)" stroke-width="1px" opacity="0.25"></line><line x1="0" y1="154.875" x2="299.21875" y2="154.875" fill="rgb(0, 0, 0)" stroke="rgb(66, 66, 66)" stroke-width="1px" opacity="0.25"></line><line x1="0" y1="132.75" x2="299.21875" y2="132.75" fill="rgb(0, 0, 0)" stroke="rgb(66, 66, 66)" stroke-width="1px" opacity="0.25"></line><line x1="0" y1="110.625" x2="299.21875" y2="110.625" fill="rgb(0, 0, 0)" stroke="rgb(66, 66, 66)" stroke-width="1px" opacity="0.25"></line><line x1="0" y1="88.5" x2="299.21875" y2="88.5" fill="rgb(0, 0, 0)" stroke="rgb(66, 66, 66)" stroke-width="1px" opacity="0.25"></line><line x1="0" y1="66.375" x2="299.21875" y2="66.375" fill="rgb(0, 0, 0)" stroke="rgb(66, 66, 66)" stroke-width="1px" opacity="0.25"></line><line x1="0" y1="44.25" x2="299.21875" y2="44.25" fill="rgb(0, 0, 0)" stroke="rgb(66, 66, 66)" stroke-width="1px" opacity="0.25"></line><line x1="0" y1="22.125" x2="299.21875" y2="22.125" fill="rgb(0, 0, 0)" stroke="rgb(66, 66, 66)" stroke-width="1px" opacity="0.25"></line><line x1="0" y1="0" x2="299.21875" y2="0" fill="rgb(0, 0, 0)" stroke="rgb(66, 66, 66)" stroke-width="1px" opacity="0.25"></line></g></g></g><g><g><line x1="0" y1="177" x2="299.21875" y2="177" fill="rgb(0, 0, 0)" stroke="rgb(153, 153, 153)" stroke-width="1.5px"></line></g></g><g><g><line x1="24.934895833333332" y1="0" x2="24.934895833333332" y2="177" fill="rgb(0, 0, 0)" stroke="rgb(153, 153, 153)" stroke-width="1.5px"></line></g></g><g><g><g><g><g><path stroke="rgb(238, 51, 119)" stroke-width="2px" d="M32.415364583333336,-2.1643263293140107L33.662109375,3.3363332228553646L34.908854166666664,7.120365782053592L36.155598958333336,9.633674803837527L37.40234375,11.25319984096523L38.64908854166667,12.273534413989266L39.895833333333336,12.907819284824905L41.142578125,13.300164663226376L42.389322916666664,13.542758447522935L43.636067708333336,13.693138288218009L44.8828125,13.786769640682763L46.12955729166667,13.845220720576751L47.37630208333333,13.882441592831206L48.623046875,13.909026589004233L49.869791666666664,13.947346878261351L51.116536458333336,14.031532823588574L52.36328125,8.469975016014295L53.610026041666664,8.236700472258017L54.85677083333333,16.82540056675505L56.103515625,31.19912737350049L57.35026041666667,46.81269562480445L58.597005208333336,60.57779806153408L59.84375,72.93497373805553L61.090494791666664,84.92518138208091L62.337239583333336,96.54970984703716L63.583984375,106.3300568463665L64.83072916666667,113.59326618797459L66.07747395833333,117.80738885726701L67.32421875,126.97587424498323L68.57096354166666,131.26785518055368L69.81770833333333,136.29918087571355L71.064453125,141.08947607060495L72.31119791666667,141.70240953689412L73.55794270833333,145.11285845691236L74.8046875,143.42410853402038L76.05143229166666,146.79931921463444L77.29817708333334,142.7324146801485L78.544921875,147.44779999184362L79.79166666666667,147.9600302549403L81.03841145833333,151.40612828348915L82.28515625,153.3896350599962L83.53190104166667,153.03339621886633L84.77864583333333,155.02081881445358L86.025390625,155.08878855754017L87.27213541666667,155.75723932772652L88.51888020833333,155.47063655966303L89.765625,154.9811715609648L91.01236979166666,154.0710902170421L92.25911458333334,152.82648140168595L93.505859375,151.3394784520645L94.75260416666666,149.36093499604291L95.99934895833334,147.5479166218244L97.24609375,147.04650199106948L98.49283854166667,146.21530950839283L99.73958333333333,145.5145560310779L100.986328125,144.1755118302403L102.23307291666667,142.5490671117245L103.47981770833333,142.0160952734434L104.7265625,141.6817666439702L105.97330729166667,141.13008836200774L107.22005208333333,140.02705609375798L108.466796875,138.8525917457018L109.71354166666666,138.44019601383647L110.96028645833334,138.20642802738453L112.20703125,138.19237757219852L113.45377604166666,137.71782200154055L114.70052083333334,137.1720507277035L115.947265625,136.94888295012612L117.19401041666667,137.01390168474853L118.44075520833333,137.2822332704469L119.6875,137.60477416064765L120.93424479166667,137.655375435033L122.18098958333333,137.8673569405547L123.427734375,137.80390441205927L124.67447916666667,138.2637551151921L125.92122395833333,138.3412187768942L127.16796875,139.30519273006473L128.41471354166666,139.757645285866L129.66145833333334,141.86700578972182L130.908203125,142.29769418504523L132.15494791666666,143.6717180458706L133.40169270833334,143.77500881004343L134.6484375,144.1300822952271L135.89518229166666,144.36454968326572L137.14192708333331,144.28131729050446L138.388671875,142.45233521988374L139.63541666666666,140.68529640513887L140.88216145833334,139.81185070799725L142.12890625,139.28215379790626L143.37565104166669,138.88895278976062L144.62239583333334,137.73440884235916L145.869140625,137.84851440598618L147.11588541666666,138.02176562792093L148.36263020833334,138.07370390800256L149.609375,137.73619002287163L150.85611979166666,136.5632619606529L152.10286458333331,134.23546341342177L153.349609375,132.9972726254609L154.59635416666669,133.9006730692951L155.84309895833334,131.45836865290212L157.08984375,127.77899718394404L158.33658854166666,123.48891978329733L159.58333333333334,125.53786771813819L160.830078125,128.08331375908728L162.07682291666666,131.25632069106027L163.32356770833331,132.87145936486198L164.5703125,131.88095276354L165.81705729166669,133.09025526522544L167.06380208333334,132.11613536166516L168.310546875,134.28429754428487L169.55729166666666,131.4172794810082L170.80403645833331,134.2585977453676L172.05078125,131.76777656904977L173.29752604166669,134.49676831264568L174.54427083333334,131.7414903145985L175.791015625,135.10436107527948L177.03776041666666,131.1919515431627L178.28450520833334,133.00231680755044L179.53125,128.7560112469448L180.77799479166666,131.13404674488626L182.02473958333331,127.57370547269774L183.271484375,131.225112871021L184.51822916666669,127.93244067412016L185.76497395833334,131.34582916963933L187.01171875,127.77903583567644L188.25846354166666,130.60197720361535L189.50520833333331,127.48284387488832L190.751953125,129.91627930581373L191.99869791666669,123.50567801821113L193.24544270833334,128.66446502702166L194.4921875,122.55170999346213L195.73893229166666,128.3206044434192L196.98567708333334,124.394542164724L198.232421875,129.06758273787554L199.47916666666666,129.18211697785412L200.72591145833331,129.11825328378887L201.97265625,127.99684447591909L203.21940104166669,128.95739244070893L204.46614583333334,129.39789939074066L205.712890625,128.33540408222882L206.95963541666666,130.55831498389844L208.20638020833331,128.7405960517252L209.453125,129.15469831211115L210.69986979166669,125.31612329711167L211.94661458333334,130.17319221633463L213.193359375,126.36444800459022L214.44010416666666,128.94699519015953L215.68684895833334,125.03344521246912L216.93359375,130.17218822313882L218.18033854166666,127.56771454139673L219.42708333333331,129.5467942960508L220.673828125,126.36804037615344L221.92057291666669,129.86660754516532L223.16731770833334,128.10830358883626L224.4140625,130.1681013072782L225.66080729166666,126.41548722060043L226.90755208333331,129.66349675817204L228.154296875,128.241781412142L229.40104166666669,132.87766538773624L230.64778645833334,132.8391681070009L231.89453125,133.729814750843L233.14127604166666,132.31338042193218L234.38802083333334,133.4013630805824L235.634765625,130.43363321890914L236.88151041666666,130.93322813195277L238.12825520833331,127.79650696088248L239.375,131.42849311810357L240.62174479166669,130.26214619625583L241.86848958333334,131.62857422440635L243.115234375,130.68669381862512L244.36197916666666,131.88614539578933L245.60872395833331,131.54876151725875L246.85546875,133.31458045390383L248.10221354166669,133.29873760072672L249.34895833333334,135.15868736939598L250.595703125,133.13914676688293L251.84244791666666,132.5716641484629L253.08919270833334,128.7627543675262L254.3359375,129.0595407621478L255.58268229166666,127.750024031187L256.8294270833333,128.9058657923847L258.076171875,128.85209168192802L259.3229166666667,130.5908467697922L260.5696614583333,131.0341580443277L261.81640625,132.37782197312677L263.0631510416667,132.72037133405308L264.3098958333333,134.34783630865633L265.556640625,135.50944708167208L266.8033854166667,136.87002175318415L268.05013020833337,136.12517765800487L269.296875,134.080099833252L270.5436197916667,131.175979421283L271.7903645833333,130.51625678881715L273.037109375,130.48105841365285" style="fill: none;" fill="none"></path></g></g></g></g><g opacity="0.2"><g><g><g><path stroke="rgb(238, 51, 119)" stroke-width="2px" d="M29.921875,-2.0642595291137695L31.168619791666668,4.609228706359871L32.415364583333336,8.864516830444344L33.662109375,11.356347656250009L34.908854166666664,12.70107879638671L36.155598958333336,13.36564579010009L37.40234375,13.667798423767081L38.64908854166667,13.798483657836918L39.895833333333336,13.857175540924068L41.142578125,13.887914085388175L42.389322916666664,13.90636396408081L43.636067708333336,13.918601989746094L44.8828125,13.9271770477295L46.12955729166667,13.93288249969482L47.37630208333333,13.938267230987549L48.623046875,13.948901653289795L49.869791666666664,14.004825210571298L51.116536458333336,14.157808971405025L52.36328125,0.1277481079101641L53.610026041666664,7.886791419982906L54.85677083333333,29.70838966369628L56.103515625,52.75965628623963L57.35026041666667,70.23300805091857L58.597005208333336,81.22543058395387L59.84375,91.47072587013245L61.090494791666664,102.91048622131348L62.337239583333336,113.9864986896515L63.583984375,121.00057539939881L64.83072916666667,124.48807933330535L66.07747395833333,124.1285725593567L67.32421875,140.72860193252563L68.57096354166666,137.70582647323607L69.81770833333333,143.84616934061052L71.064453125,148.27491881847382L72.31119791666667,142.62180973291396L73.55794270833333,150.22853182554246L74.8046875,140.89098365306853L76.05143229166666,151.8621352314949L77.29817708333334,136.63205788135528L78.544921875,154.52087795734406L79.79166666666667,148.7283756494522L81.03841145833333,156.57527532577515L82.28515625,156.36489522457123L83.53190104166667,152.49903795719146L84.77864583333333,158.0019527077675L86.025390625,155.19074317216874L87.27213541666667,156.75991548299788L88.51888020833333,155.0407324075699L89.765625,154.2469740629196L91.01236979166666,152.70596820116043L92.25911458333334,150.9595681786537L93.505859375,149.10897402763368L94.75260416666666,146.39311981201172L95.99934895833334,144.82838906049727L97.24609375,146.29438004493713L98.49283854166667,144.96852078437806L99.73958333333333,144.46342581510544L100.986328125,142.16694552898406L102.23307291666667,140.1094000339508L103.47981770833333,141.21663751602173L104.7265625,141.18027369976045L105.97330729166667,140.30257093906403L107.22005208333333,138.37250769138336L108.466796875,137.09089522361757L109.71354166666666,137.8216024160385L110.96028645833334,137.8557760477066L112.20703125,138.17130188941957L113.45377604166666,137.0059886455536L114.70052083333334,136.35339381694794L115.947265625,136.61413128376006L117.19401041666667,137.11142978668212L118.44075520833333,137.68473064899445L119.6875,138.0885854959488L120.93424479166667,137.73127734661102L122.18098958333333,138.18532919883728L123.427734375,137.7087256193161L124.67447916666667,138.95353116989136L125.92122395833333,138.45741426944733L127.16796875,140.75115365982055L128.41471354166666,140.43632411956787L129.66145833333334,145.03104654550552L130.908203125,142.9437267780304L132.15494791666666,145.73275383710862L133.40169270833334,143.92994495630265L134.6484375,144.66269252300262L135.89518229166666,144.71625076532365L137.14192708333331,144.1564687013626L138.388671875,139.70886211395265L139.63541666666666,138.03473818302155L140.88216145833334,138.50168216228485L142.12890625,138.48760843276978L143.37565104166669,138.2991512775421L144.62239583333334,136.00259292125702L145.869140625,138.0196727514267L147.11588541666666,138.28164246082306L148.36263020833334,138.151611328125L149.609375,137.22991919517517L150.85611979166666,134.80386986732483L152.10286458333331,130.74376559257507L153.349609375,131.1399864435196L154.59635416666669,135.25577373504638L155.84309895833334,127.79491202831268L157.08984375,122.2599399805069L158.33658854166666,117.05380368232727L159.58333333333334,128.61128962039948L160.830078125,131.90148282051086L162.07682291666666,136.01583108901977L163.32356770833331,135.29416737556457L164.5703125,130.395192861557L165.81705729166669,134.9042090177536L167.06380208333334,130.65495550632477L168.310546875,137.5365408182144L169.55729166666666,127.11675238609314L170.80403645833331,138.52057514190673L172.05078125,128.03154480457306L173.29752604166669,138.59025592803954L174.54427083333334,127.60857331752777L175.791015625,140.14866721630096L177.03776041666666,125.32333724498748L178.28450520833334,135.71786470413207L179.53125,122.38655290603639L180.77799479166666,134.7010999917984L182.02473958333331,122.23319356441498L183.271484375,136.70222396850585L184.51822916666669,122.99343237876893L185.76497395833334,136.4659119129181L187.01171875,122.42884583473206L188.25846354166666,134.83638925552367L189.50520833333331,122.8041438817978L190.751953125,133.56643245220184L191.99869791666669,113.88977608680726L193.24544270833334,136.40264554023742L194.4921875,113.38257744312286L195.73893229166666,136.9739461183548L196.98567708333334,118.50544874668121L198.232421875,136.07714359760286L199.47916666666666,129.35391833782197L200.72591145833331,129.02245774269105L201.97265625,126.31473126411437L203.21940104166669,130.3982143878937L204.46614583333334,130.05865981578827L205.712890625,126.74166111946106L206.95963541666666,133.8926813364029L208.20638020833331,126.01401765346527L209.453125,129.77585170269012L210.69986979166669,119.55826077461244L211.94661458333334,137.45879559516908L213.193359375,120.65133168697356L214.44010416666666,132.8208159685135L215.68684895833334,119.16312024593354L216.93359375,137.88030273914336L218.18033854166666,123.66100401878357L219.42708333333331,132.51541392803193L220.673828125,121.59990949630738L221.92057291666669,135.11445829868316L223.16731770833334,125.47084765434265L224.4140625,133.2577978849411L225.66080729166666,120.7865660905838L226.90755208333331,134.53551106452943L228.154296875,126.10920839309692L229.40104166666669,139.83149135112762L230.64778645833334,132.78142218589784L231.89453125,135.06578471660615L233.14127604166666,130.18872892856598L234.38802083333334,135.03333706855773L235.634765625,125.98203842639923L236.88151041666666,131.68262050151824L238.12825520833331,123.09142520427703L239.375,136.87647235393524L240.62174479166669,128.5126258134842L241.86848958333334,133.6782162666321L243.115234375,129.2738732099533L244.36197916666666,133.68532276153564L245.60872395833331,131.04268569946288L246.85546875,135.96330885887147L248.10221354166669,133.274973320961L249.34895833333334,137.9486120223999L250.595703125,130.1098358631134L251.84244791666666,131.7204402208328L253.08919270833334,123.04938969612122L254.3359375,129.5047203540802L255.58268229166666,125.7857489347458L256.8294270833333,130.63962843418122L258.076171875,128.771430516243L259.3229166666667,133.19897940158845L260.5696614583333,131.699124956131L261.81640625,134.3933178663254L263.0631510416667,133.2341953754425L264.3098958333333,136.78903377056122L265.556640625,137.25186324119568L266.8033854166667,138.91088376045226L268.05013020833337,135.0079115152359L269.296875,131.01248309612274L270.5436197916667,126.81979880332948L271.7903645833333,129.5266728401184L273.037109375,130.42826085090638" style="fill: none;" fill="none"></path></g></g></g></g></g></g><g transform="translate(30, 177)" clip-path="url(#clip_1)"><clipPath id="clip_1"><rect width="299" height="23"></rect></clipPath><g><g><line x1="0" y1="0" x2="0" y2="5" style="visibility: inherit;" fill="rgb(0, 0, 0)" stroke="rgb(204, 204, 204)" stroke-width="1px"></line><line x1="24.934895833333332" y1="0" x2="24.934895833333332" y2="5" style="visibility: inherit;" fill="rgb(0, 0, 0)" stroke="rgb(204, 204, 204)" stroke-width="1px"></line><line x1="49.869791666666664" y1="0" x2="49.869791666666664" y2="5" style="visibility: inherit;" fill="rgb(0, 0, 0)" stroke="rgb(204, 204, 204)" stroke-width="1px"></line><line x1="74.8046875" y1="0" x2="74.8046875" y2="5" style="visibility: inherit;" fill="rgb(0, 0, 0)" stroke="rgb(204, 204, 204)" stroke-width="1px"></line><line x1="99.73958333333333" y1="0" x2="99.73958333333333" y2="5" style="visibility: inherit;" fill="rgb(0, 0, 0)" stroke="rgb(204, 204, 204)" stroke-width="1px"></line><line x1="124.67447916666667" y1="0" x2="124.67447916666667" y2="5" style="visibility: inherit;" fill="rgb(0, 0, 0)" stroke="rgb(204, 204, 204)" stroke-width="1px"></line><line x1="149.609375" y1="0" x2="149.609375" y2="5" style="visibility: inherit;" fill="rgb(0, 0, 0)" stroke="rgb(204, 204, 204)" stroke-width="1px"></line><line x1="174.54427083333334" y1="0" x2="174.54427083333334" y2="5" style="visibility: inherit;" fill="rgb(0, 0, 0)" stroke="rgb(204, 204, 204)" stroke-width="1px"></line><line x1="199.47916666666666" y1="0" x2="199.47916666666666" y2="5" style="visibility: inherit;" fill="rgb(0, 0, 0)" stroke="rgb(204, 204, 204)" stroke-width="1px"></line><line x1="224.4140625" y1="0" x2="224.4140625" y2="5" style="visibility: inherit;" fill="rgb(0, 0, 0)" stroke="rgb(204, 204, 204)" stroke-width="1px"></line><line x1="249.34895833333334" y1="0" x2="249.34895833333334" y2="5" style="visibility: inherit;" fill="rgb(0, 0, 0)" stroke="rgb(204, 204, 204)" stroke-width="1px"></line><line x1="274.28385416666663" y1="0" x2="274.28385416666663" y2="5" style="visibility: inherit;" fill="rgb(0, 0, 0)" stroke="rgb(204, 204, 204)" stroke-width="1px"></line><line x1="299.21875" y1="0" x2="299.21875" y2="5" style="visibility: inherit;" fill="rgb(0, 0, 0)" stroke="rgb(204, 204, 204)" stroke-width="1px"></line></g><g transform="translate(0, 8)"><text x="0" y="0" dx="0em" dy="0.95em" style="text-anchor: middle; visibility: hidden; font-family: Roboto, sans-serif; font-size: 12px; font-weight: 200;" fill="rgb(33, 33, 33)" stroke="none" stroke-width="1px">-20</text><text x="24.934895833333332" y="0" dx="0em" dy="0.95em" style="text-anchor: middle; visibility: inherit; font-family: Roboto, sans-serif; font-size: 12px; font-weight: 200;" fill="rgb(33, 33, 33)" stroke="none" stroke-width="1px">0</text><text x="49.869791666666664" y="0" dx="0em" dy="0.95em" style="text-anchor: middle; visibility: inherit; font-family: Roboto, sans-serif; font-size: 12px; font-weight: 200;" fill="rgb(33, 33, 33)" stroke="none" stroke-width="1px">20</text><text x="74.8046875" y="0" dx="0em" dy="0.95em" style="text-anchor: middle; visibility: inherit; font-family: Roboto, sans-serif; font-size: 12px; font-weight: 200;" fill="rgb(33, 33, 33)" stroke="none" stroke-width="1px">40</text><text x="99.73958333333333" y="0" dx="0em" dy="0.95em" style="text-anchor: middle; visibility: inherit; font-family: Roboto, sans-serif; font-size: 12px; font-weight: 200;" fill="rgb(33, 33, 33)" stroke="none" stroke-width="1px">60</text><text x="124.67447916666667" y="0" dx="0em" dy="0.95em" style="text-anchor: middle; visibility: inherit; font-family: Roboto, sans-serif; font-size: 12px; font-weight: 200;" fill="rgb(33, 33, 33)" stroke="none" stroke-width="1px">80</text><text x="149.609375" y="0" dx="0em" dy="0.95em" style="text-anchor: middle; visibility: inherit; font-family: Roboto, sans-serif; font-size: 12px; font-weight: 200;" fill="rgb(33, 33, 33)" stroke="none" stroke-width="1px">100</text><text x="174.54427083333334" y="0" dx="0em" dy="0.95em" style="text-anchor: middle; visibility: inherit; font-family: Roboto, sans-serif; font-size: 12px; font-weight: 200;" fill="rgb(33, 33, 33)" stroke="none" stroke-width="1px">120</text><text x="199.47916666666666" y="0" dx="0em" dy="0.95em" style="text-anchor: middle; visibility: inherit; font-family: Roboto, sans-serif; font-size: 12px; font-weight: 200;" fill="rgb(33, 33, 33)" stroke="none" stroke-width="1px">140</text><text x="224.4140625" y="0" dx="0em" dy="0.95em" style="text-anchor: middle; visibility: inherit; font-family: Roboto, sans-serif; font-size: 12px; font-weight: 200;" fill="rgb(33, 33, 33)" stroke="none" stroke-width="1px">160</text><text x="249.34895833333334" y="0" dx="0em" dy="0.95em" style="text-anchor: middle; visibility: inherit; font-family: Roboto, sans-serif; font-size: 12px; font-weight: 200;" fill="rgb(33, 33, 33)" stroke="none" stroke-width="1px">180</text><text x="274.28385416666663" y="0" dx="0em" dy="0.95em" style="text-anchor: middle; visibility: inherit; font-family: Roboto, sans-serif; font-size: 12px; font-weight: 200;" fill="rgb(33, 33, 33)" stroke="none" stroke-width="1px">200</text><text x="299.21875" y="0" dx="0em" dy="0.95em" style="text-anchor: middle; visibility: hidden; font-family: Roboto, sans-serif; font-size: 12px; font-weight: 200;" fill="rgb(33, 33, 33)" stroke="none" stroke-width="1px">220</text></g><line x1="0" y1="0" x2="299.21875" y2="0" fill="rgb(0, 0, 0)" stroke="rgb(204, 204, 204)" stroke-width="1px"></line></g></g></g></g></svg>