<svg viewBox="0 0 301 200" xmlns="http://www.w3.org/2000/svg"><g><g><g><g><g><line x1="61.953125" y1="177" x2="56.953125" y2="177" style="visibility: inherit;" fill="rgb(0, 0, 0)" stroke="rgb(204, 204, 204)" stroke-width="1px"></line><line x1="61.953125" y1="164.35714285714286" x2="56.953125" y2="164.35714285714286" style="visibility: inherit;" fill="rgb(0, 0, 0)" stroke="rgb(204, 204, 204)" stroke-width="1px"></line><line x1="61.953125" y1="151.7142857142857" x2="56.953125" y2="151.7142857142857" style="visibility: inherit;" fill="rgb(0, 0, 0)" stroke="rgb(204, 204, 204)" stroke-width="1px"></line><line x1="61.953125" y1="139.07142857142856" x2="56.953125" y2="139.07142857142856" style="visibility: inherit;" fill="rgb(0, 0, 0)" stroke="rgb(204, 204, 204)" stroke-width="1px"></line><line x1="61.953125" y1="126.42857142857142" x2="56.953125" y2="126.42857142857142" style="visibility: inherit;" fill="rgb(0, 0, 0)" stroke="rgb(204, 204, 204)" stroke-width="1px"></line><line x1="61.953125" y1="113.78571428571428" x2="56.953125" y2="113.78571428571428" style="visibility: inherit;" fill="rgb(0, 0, 0)" stroke="rgb(204, 204, 204)" stroke-width="1px"></line><line x1="61.953125" y1="101.14285714285714" x2="56.953125" y2="101.14285714285714" style="visibility: inherit;" fill="rgb(0, 0, 0)" stroke="rgb(204, 204, 204)" stroke-width="1px"></line><line x1="61.953125" y1="88.49999999999999" x2="56.953125" y2="88.49999999999999" style="visibility: inherit;" fill="rgb(0, 0, 0)" stroke="rgb(204, 204, 204)" stroke-width="1px"></line><line x1="61.953125" y1="75.85714285714285" x2="56.953125" y2="75.85714285714285" style="visibility: inherit;" fill="rgb(0, 0, 0)" stroke="rgb(204, 204, 204)" stroke-width="1px"></line><line x1="61.953125" y1="63.21428571428569" x2="56.953125" y2="63.21428571428569" style="visibility: inherit;" fill="rgb(0, 0, 0)" stroke="rgb(204, 204, 204)" stroke-width="1px"></line><line x1="61.953125" y1="50.57142857142857" x2="56.953125" y2="50.57142857142857" style="visibility: inherit;" fill="rgb(0, 0, 0)" stroke="rgb(204, 204, 204)" stroke-width="1px"></line><line x1="61.953125" y1="37.92857142857143" x2="56.953125" y2="37.92857142857143" style="visibility: inherit;" fill="rgb(0, 0, 0)" stroke="rgb(204, 204, 204)" stroke-width="1px"></line><line x1="61.953125" y1="25.285714285714274" x2="56.953125" y2="25.285714285714274" style="visibility: inherit;" fill="rgb(0, 0, 0)" stroke="rgb(204, 204, 204)" stroke-width="1px"></line><line x1="61.953125" y1="12.642857142857117" x2="56.953125" y2="12.642857142857117" style="visibility: inherit;" fill="rgb(0, 0, 0)" stroke="rgb(204, 204, 204)" stroke-width="1px"></line><line x1="61.953125" y1="0" x2="56.953125" y2="0" style="visibility: inherit;" fill="rgb(0, 0, 0)" stroke="rgb(204, 204, 204)" stroke-width="1px"></line></g><g transform="translate(51.953125, 0)"><text x="0" y="177" dx="0em" dy="0.3em" style="text-anchor: end; visibility: hidden; font-family: Roboto, sans-serif; font-size: 12px; font-weight: 200;" fill="rgb(33, 33, 33)" stroke="none" stroke-width="1px">-1e-3</text><text x="0" y="164.35714285714286" dx="0em" dy="0.3em" style="text-anchor: end; visibility: inherit; font-family: Roboto, sans-serif; font-size: 12px; font-weight: 200;" fill="rgb(33, 33, 33)" stroke="none" stroke-width="1px">0</text><text x="0" y="151.7142857142857" dx="0em" dy="0.3em" style="text-anchor: end; visibility: hidden; font-family: Roboto, sans-serif; font-size: 12px; font-weight: 200;" fill="rgb(33, 33, 33)" stroke="none" stroke-width="1px">1e-3</text><text x="0" y="139.07142857142856" dx="0em" dy="0.3em" style="text-anchor: end; visibility: inherit; font-family: Roboto, sans-serif; font-size: 12px; font-weight: 200;" fill="rgb(33, 33, 33)" stroke="none" stroke-width="1px">2e-3</text><text x="0" y="126.42857142857142" dx="0em" dy="0.3em" style="text-anchor: end; visibility: hidden; font-family: Roboto, sans-serif; font-size: 12px; font-weight: 200;" fill="rgb(33, 33, 33)" stroke="none" stroke-width="1px">3e-3</text><text x="0" y="113.78571428571428" dx="0em" dy="0.3em" style="text-anchor: end; visibility: inherit; font-family: Roboto, sans-serif; font-size: 12px; font-weight: 200;" fill="rgb(33, 33, 33)" stroke="none" stroke-width="1px">4e-3</text><text x="0" y="101.14285714285714" dx="0em" dy="0.3em" style="text-anchor: end; visibility: hidden; font-family: Roboto, sans-serif; font-size: 12px; font-weight: 200;" fill="rgb(33, 33, 33)" stroke="none" stroke-width="1px">5e-3</text><text x="0" y="88.49999999999999" dx="0em" dy="0.3em" style="text-anchor: end; visibility: inherit; font-family: Roboto, sans-serif; font-size: 12px; font-weight: 200;" fill="rgb(33, 33, 33)" stroke="none" stroke-width="1px">6e-3</text><text x="0" y="75.85714285714285" dx="0em" dy="0.3em" style="text-anchor: end; visibility: hidden; font-family: Roboto, sans-serif; font-size: 12px; font-weight: 200;" fill="rgb(33, 33, 33)" stroke="none" stroke-width="1px">7e-3</text><text x="0" y="63.21428571428569" dx="0em" dy="0.3em" style="text-anchor: end; visibility: inherit; font-family: Roboto, sans-serif; font-size: 12px; font-weight: 200;" fill="rgb(33, 33, 33)" stroke="none" stroke-width="1px">8e-3</text><text x="0" y="50.57142857142857" dx="0em" dy="0.3em" style="text-anchor: end; visibility: hidden; font-family: Roboto, sans-serif; font-size: 12px; font-weight: 200;" fill="rgb(33, 33, 33)" stroke="none" stroke-width="1px">9e-3</text><text x="0" y="37.92857142857143" dx="0em" dy="0.3em" style="text-anchor: end; visibility: inherit; font-family: Roboto, sans-serif; font-size: 12px; font-weight: 200;" fill="rgb(33, 33, 33)" stroke="none" stroke-width="1px">0.01</text><text x="0" y="25.285714285714274" dx="0em" dy="0.3em" style="text-anchor: end; visibility: hidden; font-family: Roboto, sans-serif; font-size: 12px; font-weight: 200;" fill="rgb(33, 33, 33)" stroke="none" stroke-width="1px">0.011</text><text x="0" y="12.642857142857117" dx="0em" dy="0.3em" style="text-anchor: end; visibility: inherit; font-family: Roboto, sans-serif; font-size: 12px; font-weight: 200;" fill="rgb(33, 33, 33)" stroke="none" stroke-width="1px">0.012</text><text x="0" y="0" dx="0em" dy="0.3em" style="text-anchor: end; visibility: hidden; font-family: Roboto, sans-serif; font-size: 12px; font-weight: 200;" fill="rgb(33, 33, 33)" stroke="none" stroke-width="1px">0.013</text></g><line x1="61.953125" y1="0" x2="61.953125" y2="177" fill="rgb(0, 0, 0)" stroke="rgb(204, 204, 204)" stroke-width="1px"></line></g></g><g transform="translate(61, 0)" clip-path="url(#clip_0)"><clipPath id="clip_0"><rect width="266" height="177"></rect></clipPath><g><g><g><line x1="0" y1="0" x2="0" y2="177" fill="rgb(0, 0, 0)" stroke="rgb(66, 66, 66)" stroke-width="1px" opacity="0.25"></line><line x1="22.170572916666664" y1="0" x2="22.170572916666664" y2="177" fill="rgb(0, 0, 0)" stroke="rgb(66, 66, 66)" stroke-width="1px" opacity="0.25"></line><line x1="44.34114583333333" y1="0" x2="44.34114583333333" y2="177" fill="rgb(0, 0, 0)" stroke="rgb(66, 66, 66)" stroke-width="1px" opacity="0.25"></line><line x1="66.51171875" y1="0" x2="66.51171875" y2="177" fill="rgb(0, 0, 0)" stroke="rgb(66, 66, 66)" stroke-width="1px" opacity="0.25"></line><line x1="88.68229166666666" y1="0" x2="88.68229166666666" y2="177" fill="rgb(0, 0, 0)" stroke="rgb(66, 66, 66)" stroke-width="1px" opacity="0.25"></line><line x1="110.85286458333334" y1="0" x2="110.85286458333334" y2="177" fill="rgb(0, 0, 0)" stroke="rgb(66, 66, 66)" stroke-width="1px" opacity="0.25"></line><line x1="133.0234375" y1="0" x2="133.0234375" y2="177" fill="rgb(0, 0, 0)" stroke="rgb(66, 66, 66)" stroke-width="1px" opacity="0.25"></line><line x1="155.19401041666669" y1="0" x2="155.19401041666669" y2="177" fill="rgb(0, 0, 0)" stroke="rgb(66, 66, 66)" stroke-width="1px" opacity="0.25"></line><line x1="177.36458333333331" y1="0" x2="177.36458333333331" y2="177" fill="rgb(0, 0, 0)" stroke="rgb(66, 66, 66)" stroke-width="1px" opacity="0.25"></line><line x1="199.53515625" y1="0" x2="199.53515625" y2="177" fill="rgb(0, 0, 0)" stroke="rgb(66, 66, 66)" stroke-width="1px" opacity="0.25"></line><line x1="221.70572916666669" y1="0" x2="221.70572916666669" y2="177" fill="rgb(0, 0, 0)" stroke="rgb(66, 66, 66)" stroke-width="1px" opacity="0.25"></line><line x1="243.87630208333331" y1="0" x2="243.87630208333331" y2="177" fill="rgb(0, 0, 0)" stroke="rgb(66, 66, 66)" stroke-width="1px" opacity="0.25"></line><line x1="266.046875" y1="0" x2="266.046875" y2="177" fill="rgb(0, 0, 0)" stroke="rgb(66, 66, 66)" stroke-width="1px" opacity="0.25"></line></g><g><line x1="0" y1="177" x2="266.046875" y2="177" fill="rgb(0, 0, 0)" stroke="rgb(66, 66, 66)" stroke-width="1px" opacity="0.25"></line><line x1="0" y1="164.35714285714286" x2="266.046875" y2="164.35714285714286" fill="rgb(0, 0, 0)" stroke="rgb(66, 66, 66)" stroke-width="1px" opacity="0.25"></line><line x1="0" y1="151.7142857142857" x2="266.046875" y2="151.7142857142857" fill="rgb(0, 0, 0)" stroke="rgb(66, 66, 66)" stroke-width="1px" opacity="0.25"></line><line x1="0" y1="139.07142857142856" x2="266.046875" y2="139.07142857142856" fill="rgb(0, 0, 0)" stroke="rgb(66, 66, 66)" stroke-width="1px" opacity="0.25"></line><line x1="0" y1="126.42857142857142" x2="266.046875" y2="126.42857142857142" fill="rgb(0, 0, 0)" stroke="rgb(66, 66, 66)" stroke-width="1px" opacity="0.25"></line><line x1="0" y1="113.78571428571428" x2="266.046875" y2="113.78571428571428" fill="rgb(0, 0, 0)" stroke="rgb(66, 66, 66)" stroke-width="1px" opacity="0.25"></line><line x1="0" y1="101.14285714285714" x2="266.046875" y2="101.14285714285714" fill="rgb(0, 0, 0)" stroke="rgb(66, 66, 66)" stroke-width="1px" opacity="0.25"></line><line x1="0" y1="88.49999999999999" x2="266.046875" y2="88.49999999999999" fill="rgb(0, 0, 0)" stroke="rgb(66, 66, 66)" stroke-width="1px" opacity="0.25"></line><line x1="0" y1="75.85714285714285" x2="266.046875" y2="75.85714285714285" fill="rgb(0, 0, 0)" stroke="rgb(66, 66, 66)" stroke-width="1px" opacity="0.25"></line><line x1="0" y1="63.21428571428569" x2="266.046875" y2="63.21428571428569" fill="rgb(0, 0, 0)" stroke="rgb(66, 66, 66)" stroke-width="1px" opacity="0.25"></line><line x1="0" y1="50.57142857142857" x2="266.046875" y2="50.57142857142857" fill="rgb(0, 0, 0)" stroke="rgb(66, 66, 66)" stroke-width="1px" opacity="0.25"></line><line x1="0" y1="37.92857142857143" x2="266.046875" y2="37.92857142857143" fill="rgb(0, 0, 0)" stroke="rgb(66, 66, 66)" stroke-width="1px" opacity="0.25"></line><line x1="0" y1="25.285714285714274" x2="266.046875" y2="25.285714285714274" fill="rgb(0, 0, 0)" stroke="rgb(66, 66, 66)" stroke-width="1px" opacity="0.25"></line><line x1="0" y1="12.642857142857117" x2="266.046875" y2="12.642857142857117" fill="rgb(0, 0, 0)" stroke="rgb(66, 66, 66)" stroke-width="1px" opacity="0.25"></line><line x1="0" y1="0" x2="266.046875" y2="0" fill="rgb(0, 0, 0)" stroke="rgb(66, 66, 66)" stroke-width="1px" opacity="0.25"></line></g></g></g><g><g><line x1="0" y1="164.35714285714286" x2="266.046875" y2="164.35714285714286" fill="rgb(0, 0, 0)" stroke="rgb(153, 153, 153)" stroke-width="1.5px"></line></g></g><g><g><line x1="22.170572916666664" y1="0" x2="22.170572916666664" y2="177" fill="rgb(0, 0, 0)" stroke="rgb(153, 153, 153)" stroke-width="1.5px"></line></g></g><g><g><g><g><g><path stroke="rgb(0, 119, 187)" stroke-width="2px" d="M31.482213541666667,-0.186018178505585L31.925625,3.348262782607723L32.36903645833333,7.243199075971295L32.81244791666667,11.622529744569707L33.255859375,16.588257959910766L33.69927083333334,22.244741809155236L34.14268229166667,28.626045147223103L34.58609375,35.681254697697476L35.02950520833333,43.250012479190296L35.47291666666666,51.05812388764958L35.916328125,58.795128617967855L36.35973958333333,66.18954021909406L36.803151041666666,73.05164668602602L37.2465625,79.23035663047007L37.68997395833333,84.64048686596963L38.13338541666667,89.47987974381871L38.576796875,94.20233928492027L39.020208333333336,98.61715853240872L39.46361979166667,102.72076978906989L39.907031249999996,106.64553108917815L40.35044270833333,110.29625085475189L40.79385416666666,113.808154229873L41.237265625,117.0887165785368L41.680677083333336,120.14495849303368L42.124088541666666,122.99149516863483L42.5675,125.6496945212462L43.01091145833333,128.14485128862518L43.45432291666667,130.45987467042036L43.897734375,132.63254928828349L44.34114583333333,134.65813881810755L44.784557291666665,136.55091699239398L45.22796875,138.31543468564215L45.67138020833333,139.94228695346308L46.11479166666667,141.42836530719484L46.558203125,142.81648652887503L47.001614583333335,144.11809109311017L47.44502604166667,145.32136762607843L47.888437499999995,146.45771156890052L48.33184895833333,147.5182816851219L48.77526041666666,148.51290091665993L49.218671875,149.45225469328994L49.662083333333335,150.30803987250795L50.105494791666665,151.12823344527612L50.54890625,151.86152474316103L50.99231770833334,152.56650921898628L51.43572916666667,153.19437315082178L51.879140625000005,153.76783779516282L52.32255208333333,154.3174316898055L52.765963541666665,154.67869635648094L53.209375,155.22407421619366L53.65278645833333,155.32385640787626L54.09619791666667,156.06835048106896L54.539609375,156.1130114564273L54.983020833333335,156.83040854547704L55.42643229166667,156.89079447010798L55.86984375,157.21283360111659L56.31325520833333,157.33727102377452L56.75666666666667,157.27340203171062L57.200078125,157.5739216491181L57.643489583333334,157.4518119134009L58.086901041666664,157.19351593365093L58.5303125,157.85112686565014L58.97372395833334,157.53275477985983L59.41713541666667,157.97044087494058L59.860546875000004,157.90199451557626L60.30395833333333,158.05139845962236L60.747369791666664,158.61982321651055L61.19078125,158.3814310574505L61.63419270833333,158.4654779971045L62.07760416666667,158.77083623026763L62.521015625,158.52017017723327L62.964427083333334,158.9201338351538L63.40783854166667,158.7454837234857L63.85125,158.87898315594066L64.29466145833334,158.74735109800739L64.73807291666667,158.76679571014495L65.181484375,158.87169505995033L65.62489583333334,158.60212639333415L66.06830729166667,158.51037667176152L66.51171875,158.09036274683396L66.95513020833333,158.54075030026226L67.39854166666667,158.1036260733381L67.841953125,158.46829764064333L68.28536458333333,158.32662554700593L68.72877604166668,158.6968742168974L69.1721875,158.449920099661L69.61559895833334,158.78098665264304L70.05901041666667,158.57690303895754L70.50242187500001,158.7833864588756L70.94583333333333,158.6162190916948L71.38924479166666,158.7634020559157L71.83265625,158.56812656268346L72.27606770833333,158.69587411365603L72.71947916666666,158.4500849437567L73.162890625,158.60827861047747L73.60630208333333,158.4096944607528L74.04971354166666,158.69368109845425L74.493125,158.53228695417886L74.93653645833334,158.84090932121035L75.37994791666667,158.66405037225093L75.823359375,158.78546982331733L76.26677083333334,158.90752914912133L76.71018229166667,158.8053681246737L77.15359375,159.02837863700861L77.59700520833334,158.9436182315029L78.04041666666667,159.07611682480535L78.483828125,159.07450260371635L78.92723958333335,159.09443770062978L79.37065104166666,159.099029786153L79.81406249999999,159.20509187556206L80.25747395833334,159.17240527834343L80.70088541666667,159.10979248659817L81.144296875,159.0897841665262L81.58770833333332,159.2335249063825L82.03111979166667,158.51006096588182L82.47453125,157.49148488304178L82.91794270833333,157.8189579819196L83.36135416666667,159.41158633414722L83.804765625,159.18987212928812L84.24817708333333,159.46900028163301L84.69158854166668,159.52680757362396L85.135,159.51651364857597L85.57841145833333,159.62537036054502L86.02182291666666,159.6657722501716L86.46523437500001,159.67877396026495L86.90864583333334,159.66180016978512L87.35205729166665,159.68463328477392L87.79546875,159.66632160783877L88.23888020833333,159.6757927842305L88.68229166666666,159.699370273339L89.125703125,159.73876470061285L89.56911458333333,159.77610593580175L90.01252604166666,159.8233966896244L90.4559375,159.859948660114L90.89934895833333,159.88912348936512L91.34276041666666,159.91798261273652L91.786171875,159.9436353712642L92.22958333333334,159.9671072571239L92.67299479166667,159.99102768082437L93.11640625,160.0131499056505L93.55981770833334,160.0339022318866L94.00322916666667,160.05398892649515L94.446640625,160.0734629750784L94.89005208333334,160.09207711149273L95.33346354166667,160.11054627341218L95.77687499999999,160.1292295854738L96.22028645833333,160.12290148556764L96.66369791666666,159.71115405049306L97.107109375,159.61163678682144L97.55052083333332,158.54281416305872L97.99393229166667,159.04623772859173L98.43734375,159.5472876127377L98.88075520833333,160.0921794031414L99.32416666666667,160.08272073723907L99.767578125,159.92928179240386L100.21098958333333,160.39724879118148L100.65440104166667,160.09015123203528L101.0978125,160.33706303438103L101.54122395833333,160.31786090496462L101.98463541666668,160.33175711505046L102.428046875,160.3007108637664L102.87145833333334,160.3576225518981L103.31486979166667,160.3449943167091L103.75828125000001,160.32636362229405L104.20169270833333,160.40847401177908L104.64510416666666,160.2979018909391L105.088515625,160.37387367763688L105.53192708333333,160.31777958678347L105.97533854166666,160.3961430846913L106.41875,160.1522382152699L106.86216145833333,160.2181258115951L107.30557291666666,159.16823818150442L107.748984375,159.72749569330233L108.19239583333334,159.7302641910168L108.63580729166667,160.23809807202113L109.07921875,160.12429530126974L109.52263020833334,160.37797638225103L109.96604166666667,160.06517661562455L110.409453125,160.57491356284092L110.85286458333334,160.2843092441991L111.29627604166667,160.46425166084165L111.7396875,160.50605104572605L112.18309895833335,160.37330739401347L112.62651041666666,160.63160815718584L113.06992187499999,160.3528531117897L113.51333333333334,160.65124815373147L113.95674479166667,160.33262217859738L114.40015625,160.7042462664124L114.84356770833332,160.26762908226476L115.28697916666667,160.74367675333215L115.730390625,160.23069370207043L116.17380208333333,160.64662920745155L116.61721354166667,160.0286643843366L117.060625,160.73987540433052L117.50403645833333,160.04148432437796L117.94744791666668,160.5692165067386L118.390859375,159.25713882309253L118.83427083333333,159.98250950936097L119.27768229166666,159.9499678866372L119.72109375000001,160.5199476237675L120.16450520833334,160.116105714131L120.60791666666665,160.53906843500278L121.051328125,160.2355437244488L121.49473958333333,160.5473993170807L121.93815104166666,160.2369011125494L122.3815625,160.56047829784384L122.82497395833333,160.35317544086968L123.26838541666666,160.49224866431075L123.711796875,160.53711054341068L124.15520833333333,160.4666014251166L124.59861979166666,160.60771385833087L125.04203125,160.46830211576471L125.48544270833334,160.57559170495784L125.92885416666667,160.43143664712886L126.372265625,160.45641052762846L126.81567708333334,160.33208128390834L127.25908854166667,160.35367843613494L127.7025,160.208429446394L128.14591145833333,160.35107515047173L128.58932291666667,160.10957818230546L129.032734375,160.47439030863876L129.47614583333333,160.1199269327335L129.91955729166668,160.70179384253322L130.36296875,160.28919974169028L130.80638020833334,160.87086721957064L131.24979166666668,160.52987543302254L131.693203125,160.83616974515772L132.13661458333334,160.79758187649506L132.58002604166668,160.67392084009145L133.0234375,160.9830675438113L133.46684895833334,160.54961661735015L133.91026041666666,161.0568069440612L134.353671875,160.4638630997589L134.79708333333335,161.05252430917295L135.24049479166666,160.36000469626325L135.68390625,160.99539000792095L136.12731770833335,160.24132688215468L136.57072916666667,161.08195781119036L137.014140625,160.185465339222L137.45755208333335,161.18500965607484L137.90096354166667,159.9605374104077L138.344375,160.9095330948143L138.78778645833333,159.96844477562365L139.23119791666667,160.773988565297L139.67460937500002,160.26256270201077L140.11802083333333,160.7320291197393L140.56143229166668,160.55024287773165L141.00484375000002,160.77588390444205L141.4482552083333,160.69389162869527L141.89166666666665,160.75771646609064L142.335078125,160.52276763526189L142.7784895833333,160.70156644599047L143.22190104166665,160.4782781271996L143.6653125,160.83211561067893L144.10872395833331,160.68923183934695L144.55213541666666,160.93639789899214L144.995546875,160.9137899728126L145.43895833333332,160.82210464346488L145.88236979166666,161.0920971948986L146.32578125,160.78583121534237L146.76919270833332,161.129492887512L147.21260416666667,160.8355821201112L147.656015625,161.10873614580902L148.09942708333332,160.85947089963258L148.54283854166667,161.05629879741798L148.98625,160.79473095673268L149.42966145833333,160.96278325706123L149.87307291666667,160.64784566856852L150.316484375,160.8728203277403L150.75989583333333,160.57995676189395L151.20330729166668,160.91230085661766L151.64671875,160.7500055891495L152.09013020833333,160.9666449507765L152.53354166666668,161.0004836168872L152.976953125,160.89917183389687L153.42036458333334,161.22525295685045L153.86377604166668,160.799539032176L154.3071875,161.3468646647026L154.75059895833334,160.7386037498779L155.19401041666669,161.3553539516537L155.637421875,160.67156445261622L156.08083333333335,161.26484129671007L156.5242447916667,160.49859516199547L156.96765625,161.10453409319078L157.41106770833335,160.25350731541403L157.8544791666667,160.98320736692818L158.29789062499998,160.2757152738881L158.74130208333332,161.20075005948144L159.18471354166667,160.6504272448531L159.62812499999998,161.36871294660625L160.07153645833333,160.92214440404703L160.51494791666667,161.30953078862512L160.958359375,161.09729125573566L161.40177083333333,161.24927272855504L161.84518229166665,161.15304020426368L162.28859375,161.25714145843605L162.73200520833333,161.12305734457914L163.17541666666665,161.27031721151434L163.618828125,161.05941722088028L164.06223958333334,161.18174000287297L164.50565104166665,160.91645801865627L164.9490625,160.87736715472835L165.39247395833334,160.61923749089638L165.83588541666666,160.49472758099103L166.279296875,160.60473194638533L166.72270833333334,160.73869353103717L167.16611979166666,160.90141525901188L167.60953125,161.13874991376153L168.05294270833335,161.00587379804347L168.49635416666666,161.3756358466926L168.939765625,161.0276218120541L169.38317708333335,161.48391726012676L169.82658854166667,161.08726667416548L170.27,161.48226403574725L170.71341145833335,161.18494268816096L171.15682291666667,161.438448254335L171.600234375,161.19918661626122L172.04364583333333,161.3704346107219L172.48705729166667,161.07350734355194L172.93046875000002,161.22049602723146L173.37388020833333,160.80748429681572L173.81729166666668,160.9841677309679L174.26070312500002,160.6079000438497L174.7041145833333,160.98864795799764L175.14752604166665,160.88280995353125L175.5909375,161.16373520088382L176.0343489583333,161.2306902363198L176.47776041666665,161.2023521380366L176.921171875,161.4258470638805L177.36458333333331,161.18303667830435L177.80799479166666,161.5045038223782L178.25140625,161.17700257489923L178.69481770833332,161.50006922183923L179.13822916666666,161.12921655287835L179.581640625,161.42638391105822L180.02505208333332,160.9655973812665L180.46846354166667,161.27535323543373L180.911875,160.74403477410252L181.35528645833332,161.1733366335476L181.79869791666667,160.7365314241033L182.242109375,161.28921099416246L182.68552083333333,161.01573868689593L183.12893229166667,161.43715801812607L183.57234375,161.23647560175905L184.01575520833333,161.4860808388829L184.45916666666668,161.33436355816332L184.902578125,161.48543434094506L185.34598958333333,161.33411426826413L185.78940104166668,161.42255514936653L186.2328125,161.23614223401194L186.67622395833334,161.22886112917746L187.11963541666668,160.99501469323877L187.563046875,160.86836401782264L188.00645833333334,160.68669662546432L188.44986979166669,160.64933772840803L188.89328125,160.81917571712154L189.33669270833335,161.07396213663742L189.7801041666667,161.11708432179876L190.223515625,161.42296321209452L190.66692708333335,161.24364852765575L191.1103385416667,161.57091777914735L191.55374999999998,161.3176741973397L191.99716145833332,161.60194894425305L192.44057291666667,161.3479374391692L192.88398437499998,161.5867016013113L193.32739583333333,161.3254903095741L193.77080729166667,161.55512586196085L194.21421875,161.23054857342504L194.65763020833333,161.48680718317962L195.10104166666665,161.07910394778344L195.544453125,161.3685749632672L195.98786458333333,160.92444081476424L196.43127604166665,161.28528638004457L196.8746875,160.91180117295255L197.31809895833334,161.3557988099388L197.76151041666665,161.0981894352839L198.204921875,161.51423716711412L198.64833333333334,161.30702151561024L199.09174479166666,161.63690564336554L199.53515625,161.44329054964638L199.97856770833334,161.69979274598882L200.42197916666666,161.51239591743797L200.865390625,161.7232006075792L201.30880208333335,161.54573214021676L201.75221354166666,161.73070082995608L202.195625,161.56321334142868L202.63903645833335,161.7324821028742L203.08244791666667,161.5696895434521L203.525859375,161.71787261091438L203.96927083333335,161.5673239570876L204.41268229166667,161.64540762478384L204.85609375,161.54545562160536L205.29950520833333,161.49125355829685L205.74291666666667,161.54114465413815L206.18632812500002,161.43340431937082L206.62973958333333,161.6415783111588L207.07315104166668,161.56031679517557L207.51656250000002,161.6418426872364L207.9599739583333,161.62471325155013L208.40338541666665,161.5419924237732L208.846796875,161.67912100202273L209.2902083333333,161.59879556501153L209.73361979166665,161.71660941943992L210.17703125,161.61961761882827L210.62044270833331,161.5985790231581L211.06385416666666,161.61018562970483L211.507265625,161.5732587124886L211.95067708333332,161.56717456712587L212.39408854166666,161.6456285821041L212.8375,161.49065618242767L213.28091145833332,161.40079260111088L213.72432291666667,161.35125676637315L214.167734375,161.57056178213261L214.61114583333332,161.63663869159893L215.05455729166667,161.66512397211045L215.49796875,161.54181709294372L215.94138020833333,161.46306779361996L216.38479166666667,161.59540614227132L216.828203125,161.52017688991535L217.27161458333333,161.69224726507673L217.71502604166668,161.6765889157624L218.1584375,161.65099171852592L218.60184895833333,161.7716804098288L219.04526041666668,161.73571477654124L219.488671875,161.64477106164642L219.93208333333334,161.64633836840014L220.37549479166668,161.46835237152743L220.81890625,161.51763339703237L221.26231770833334,161.52563201522986L221.70572916666669,161.5164333099383L222.149140625,161.62422111097422L222.59255208333335,161.61019151699395L223.0359635416667,161.66451114210733L223.479375,161.75095512832715L223.92278645833335,161.6875979624622L224.3661979166667,161.79453578612967L224.80960937499998,161.723480253813L225.25302083333332,161.65235996131585L225.69643229166667,161.7039876234734L226.13984374999998,161.78906575861453L226.58325520833333,161.75111923651173L227.02666666666667,161.54032852868215L227.470078125,161.53338649490615L227.91348958333333,161.36564861261286L228.35690104166665,161.59771083198885L228.8003125,161.6285285828635L229.24372395833333,161.72285454536487L229.68713541666665,161.58738047933937L230.130546875,161.37759907364045L230.57395833333334,161.76197318993843L231.01736979166665,161.55242911558264L231.46078125,161.85369181926526L231.90419270833334,161.80835509350123L232.34760416666666,161.77311138904352L232.791015625,161.83305466312282L233.23442708333334,161.7971953689952L233.67783854166666,161.67516621554802L234.12125,161.61382029483295L234.56466145833335,161.53149796293917L235.00807291666666,161.65079504627334L235.451484375,161.65041641999102L235.89489583333335,161.6025511035446L236.33830729166667,161.71406611053473L236.78171875,161.6972321431718L237.22513020833335,161.95189842519383L237.66854166666667,161.82647948105088L238.111953125,161.83607502642553L238.55536458333333,161.8517565569408L238.99877604166667,161.84394743586225L239.44218750000002,161.72366091999822L239.88559895833333,161.43744060800444L240.32901041666668,161.37370775950174L240.77242187500002,161.25066470447928L241.2158333333333,160.92066963811936L241.65924479166665,161.4288808575615L242.10265625,161.3882123841239L242.5460677083333,161.86124631508883L242.98947916666665,161.75361986257067L243.432890625,161.7988828132428" style="fill: none;" fill="none"></path></g></g></g></g></g></g><g transform="translate(61, 177)" clip-path="url(#clip_1)"><clipPath id="clip_1"><rect width="266" height="23"></rect></clipPath><g><g><line x1="0" y1="0" x2="0" y2="5" style="visibility: inherit;" fill="rgb(0, 0, 0)" stroke="rgb(204, 204, 204)" stroke-width="1px"></line><line x1="22.170572916666664" y1="0" x2="22.170572916666664" y2="5" style="visibility: inherit;" fill="rgb(0, 0, 0)" stroke="rgb(204, 204, 204)" stroke-width="1px"></line><line x1="44.34114583333333" y1="0" x2="44.34114583333333" y2="5" style="visibility: inherit;" fill="rgb(0, 0, 0)" stroke="rgb(204, 204, 204)" stroke-width="1px"></line><line x1="66.51171875" y1="0" x2="66.51171875" y2="5" style="visibility: inherit;" fill="rgb(0, 0, 0)" stroke="rgb(204, 204, 204)" stroke-width="1px"></line><line x1="88.68229166666666" y1="0" x2="88.68229166666666" y2="5" style="visibility: inherit;" fill="rgb(0, 0, 0)" stroke="rgb(204, 204, 204)" stroke-width="1px"></line><line x1="110.85286458333334" y1="0" x2="110.85286458333334" y2="5" style="visibility: inherit;" fill="rgb(0, 0, 0)" stroke="rgb(204, 204, 204)" stroke-width="1px"></line><line x1="133.0234375" y1="0" x2="133.0234375" y2="5" style="visibility: inherit;" fill="rgb(0, 0, 0)" stroke="rgb(204, 204, 204)" stroke-width="1px"></line><line x1="155.19401041666669" y1="0" x2="155.19401041666669" y2="5" style="visibility: inherit;" fill="rgb(0, 0, 0)" stroke="rgb(204, 204, 204)" stroke-width="1px"></line><line x1="177.36458333333331" y1="0" x2="177.36458333333331" y2="5" style="visibility: inherit;" fill="rgb(0, 0, 0)" stroke="rgb(204, 204, 204)" stroke-width="1px"></line><line x1="199.53515625" y1="0" x2="199.53515625" y2="5" style="visibility: inherit;" fill="rgb(0, 0, 0)" stroke="rgb(204, 204, 204)" stroke-width="1px"></line><line x1="221.70572916666669" y1="0" x2="221.70572916666669" y2="5" style="visibility: inherit;" fill="rgb(0, 0, 0)" stroke="rgb(204, 204, 204)" stroke-width="1px"></line><line x1="243.87630208333331" y1="0" x2="243.87630208333331" y2="5" style="visibility: inherit;" fill="rgb(0, 0, 0)" stroke="rgb(204, 204, 204)" stroke-width="1px"></line><line x1="266.046875" y1="0" x2="266.046875" y2="5" style="visibility: inherit;" fill="rgb(0, 0, 0)" stroke="rgb(204, 204, 204)" stroke-width="1px"></line></g><g transform="translate(0, 8)"><text x="0" y="0" dx="0em" dy="0.95em" style="text-anchor: middle; visibility: hidden; font-family: Roboto, sans-serif; font-size: 12px; font-weight: 200;" fill="rgb(33, 33, 33)" stroke="none" stroke-width="1px">-50</text><text x="22.170572916666664" y="0" dx="0em" dy="0.95em" style="text-anchor: middle; visibility: inherit; font-family: Roboto, sans-serif; font-size: 12px; font-weight: 200;" fill="rgb(33, 33, 33)" stroke="none" stroke-width="1px">0</text><text x="44.34114583333333" y="0" dx="0em" dy="0.95em" style="text-anchor: middle; visibility: hidden; font-family: Roboto, sans-serif; font-size: 12px; font-weight: 200;" fill="rgb(33, 33, 33)" stroke="none" stroke-width="1px">50</text><text x="66.51171875" y="0" dx="0em" dy="0.95em" style="text-anchor: middle; visibility: inherit; font-family: Roboto, sans-serif; font-size: 12px; font-weight: 200;" fill="rgb(33, 33, 33)" stroke="none" stroke-width="1px">100</text><text x="88.68229166666666" y="0" dx="0em" dy="0.95em" style="text-anchor: middle; visibility: hidden; font-family: Roboto, sans-serif; font-size: 12px; font-weight: 200;" fill="rgb(33, 33, 33)" stroke="none" stroke-width="1px">150</text><text x="110.85286458333334" y="0" dx="0em" dy="0.95em" style="text-anchor: middle; visibility: inherit; font-family: Roboto, sans-serif; font-size: 12px; font-weight: 200;" fill="rgb(33, 33, 33)" stroke="none" stroke-width="1px">200</text><text x="133.0234375" y="0" dx="0em" dy="0.95em" style="text-anchor: middle; visibility: hidden; font-family: Roboto, sans-serif; font-size: 12px; font-weight: 200;" fill="rgb(33, 33, 33)" stroke="none" stroke-width="1px">250</text><text x="155.19401041666669" y="0" dx="0em" dy="0.95em" style="text-anchor: middle; visibility: inherit; font-family: Roboto, sans-serif; font-size: 12px; font-weight: 200;" fill="rgb(33, 33, 33)" stroke="none" stroke-width="1px">300</text><text x="177.36458333333331" y="0" dx="0em" dy="0.95em" style="text-anchor: middle; visibility: hidden; font-family: Roboto, sans-serif; font-size: 12px; font-weight: 200;" fill="rgb(33, 33, 33)" stroke="none" stroke-width="1px">350</text><text x="199.53515625" y="0" dx="0em" dy="0.95em" style="text-anchor: middle; visibility: inherit; font-family: Roboto, sans-serif; font-size: 12px; font-weight: 200;" fill="rgb(33, 33, 33)" stroke="none" stroke-width="1px">400</text><text x="221.70572916666669" y="0" dx="0em" dy="0.95em" style="text-anchor: middle; visibility: hidden; font-family: Roboto, sans-serif; font-size: 12px; font-weight: 200;" fill="rgb(33, 33, 33)" stroke="none" stroke-width="1px">450</text><text x="243.87630208333331" y="0" dx="0em" dy="0.95em" style="text-anchor: middle; visibility: inherit; font-family: Roboto, sans-serif; font-size: 12px; font-weight: 200;" fill="rgb(33, 33, 33)" stroke="none" stroke-width="1px">500</text><text x="266.046875" y="0" dx="0em" dy="0.95em" style="text-anchor: middle; visibility: hidden; font-family: Roboto, sans-serif; font-size: 12px; font-weight: 200;" fill="rgb(33, 33, 33)" stroke="none" stroke-width="1px">550</text></g><line x1="0" y1="0" x2="266.046875" y2="0" fill="rgb(0, 0, 0)" stroke="rgb(204, 204, 204)" stroke-width="1px"></line></g></g></g></g></svg>