<svg viewBox="0 0 301 200" xmlns="http://www.w3.org/2000/svg"><g><g><g><g><g><line x1="61.953125" y1="177" x2="56.953125" y2="177" style="visibility: inherit;" fill="rgb(0, 0, 0)" stroke="rgb(204, 204, 204)" stroke-width="1px"></line><line x1="61.953125" y1="157.33333333333331" x2="56.953125" y2="157.33333333333331" style="visibility: inherit;" fill="rgb(0, 0, 0)" stroke="rgb(204, 204, 204)" stroke-width="1px"></line><line x1="61.953125" y1="137.66666666666666" x2="56.953125" y2="137.66666666666666" style="visibility: inherit;" fill="rgb(0, 0, 0)" stroke="rgb(204, 204, 204)" stroke-width="1px"></line><line x1="61.953125" y1="118.00000000000001" x2="56.953125" y2="118.00000000000001" style="visibility: inherit;" fill="rgb(0, 0, 0)" stroke="rgb(204, 204, 204)" stroke-width="1px"></line><line x1="61.953125" y1="98.33333333333334" x2="56.953125" y2="98.33333333333334" style="visibility: inherit;" fill="rgb(0, 0, 0)" stroke="rgb(204, 204, 204)" stroke-width="1px"></line><line x1="61.953125" y1="78.66666666666669" x2="56.953125" y2="78.66666666666669" style="visibility: inherit;" fill="rgb(0, 0, 0)" stroke="rgb(204, 204, 204)" stroke-width="1px"></line><line x1="61.953125" y1="59.00000000000001" x2="56.953125" y2="59.00000000000001" style="visibility: inherit;" fill="rgb(0, 0, 0)" stroke="rgb(204, 204, 204)" stroke-width="1px"></line><line x1="61.953125" y1="39.33333333333335" x2="56.953125" y2="39.33333333333335" style="visibility: inherit;" fill="rgb(0, 0, 0)" stroke="rgb(204, 204, 204)" stroke-width="1px"></line><line x1="61.953125" y1="19.666666666666675" x2="56.953125" y2="19.666666666666675" style="visibility: inherit;" fill="rgb(0, 0, 0)" stroke="rgb(204, 204, 204)" stroke-width="1px"></line><line x1="61.953125" y1="0" x2="56.953125" y2="0" style="visibility: inherit;" fill="rgb(0, 0, 0)" stroke="rgb(204, 204, 204)" stroke-width="1px"></line></g><g transform="translate(51.953125, 0)"><text x="0" y="177" dx="0em" dy="0.3em" style="text-anchor: end; visibility: hidden; font-family: Roboto, sans-serif; font-size: 12px; font-weight: 200;" fill="rgb(33, 33, 33)" stroke="none" stroke-width="1px">-2e-3</text><text x="0" y="157.33333333333331" dx="0em" dy="0.3em" style="text-anchor: end; visibility: inherit; font-family: Roboto, sans-serif; font-size: 12px; font-weight: 200;" fill="rgb(33, 33, 33)" stroke="none" stroke-width="1px">0</text><text x="0" y="137.66666666666666" dx="0em" dy="0.3em" style="text-anchor: end; visibility: hidden; font-family: Roboto, sans-serif; font-size: 12px; font-weight: 200;" fill="rgb(33, 33, 33)" stroke="none" stroke-width="1px">2e-3</text><text x="0" y="118.00000000000001" dx="0em" dy="0.3em" style="text-anchor: end; visibility: inherit; font-family: Roboto, sans-serif; font-size: 12px; font-weight: 200;" fill="rgb(33, 33, 33)" stroke="none" stroke-width="1px">4e-3</text><text x="0" y="98.33333333333334" dx="0em" dy="0.3em" style="text-anchor: end; visibility: hidden; font-family: Roboto, sans-serif; font-size: 12px; font-weight: 200;" fill="rgb(33, 33, 33)" stroke="none" stroke-width="1px">6e-3</text><text x="0" y="78.66666666666669" dx="0em" dy="0.3em" style="text-anchor: end; visibility: inherit; font-family: Roboto, sans-serif; font-size: 12px; font-weight: 200;" fill="rgb(33, 33, 33)" stroke="none" stroke-width="1px">8e-3</text><text x="0" y="59.00000000000001" dx="0em" dy="0.3em" style="text-anchor: end; visibility: hidden; font-family: Roboto, sans-serif; font-size: 12px; font-weight: 200;" fill="rgb(33, 33, 33)" stroke="none" stroke-width="1px">0.01</text><text x="0" y="39.33333333333335" dx="0em" dy="0.3em" style="text-anchor: end; visibility: inherit; font-family: Roboto, sans-serif; font-size: 12px; font-weight: 200;" fill="rgb(33, 33, 33)" stroke="none" stroke-width="1px">0.012</text><text x="0" y="19.666666666666675" dx="0em" dy="0.3em" style="text-anchor: end; visibility: hidden; font-family: Roboto, sans-serif; font-size: 12px; font-weight: 200;" fill="rgb(33, 33, 33)" stroke="none" stroke-width="1px">0.014</text><text x="0" y="0" dx="0em" dy="0.3em" style="text-anchor: end; visibility: hidden; font-family: Roboto, sans-serif; font-size: 12px; font-weight: 200;" fill="rgb(33, 33, 33)" stroke="none" stroke-width="1px">0.016</text></g><line x1="61.953125" y1="0" x2="61.953125" y2="177" fill="rgb(0, 0, 0)" stroke="rgb(204, 204, 204)" stroke-width="1px"></line></g></g><g transform="translate(61, 0)" clip-path="url(#clip_0)"><clipPath id="clip_0"><rect width="266" height="177"></rect></clipPath><g><g><g><line x1="0" y1="0" x2="0" y2="177" fill="rgb(0, 0, 0)" stroke="rgb(66, 66, 66)" stroke-width="1px" opacity="0.25"></line><line x1="22.170572916666664" y1="0" x2="22.170572916666664" y2="177" fill="rgb(0, 0, 0)" stroke="rgb(66, 66, 66)" stroke-width="1px" opacity="0.25"></line><line x1="44.34114583333333" y1="0" x2="44.34114583333333" y2="177" fill="rgb(0, 0, 0)" stroke="rgb(66, 66, 66)" stroke-width="1px" opacity="0.25"></line><line x1="66.51171875" y1="0" x2="66.51171875" y2="177" fill="rgb(0, 0, 0)" stroke="rgb(66, 66, 66)" stroke-width="1px" opacity="0.25"></line><line x1="88.68229166666666" y1="0" x2="88.68229166666666" y2="177" fill="rgb(0, 0, 0)" stroke="rgb(66, 66, 66)" stroke-width="1px" opacity="0.25"></line><line x1="110.85286458333334" y1="0" x2="110.85286458333334" y2="177" fill="rgb(0, 0, 0)" stroke="rgb(66, 66, 66)" stroke-width="1px" opacity="0.25"></line><line x1="133.0234375" y1="0" x2="133.0234375" y2="177" fill="rgb(0, 0, 0)" stroke="rgb(66, 66, 66)" stroke-width="1px" opacity="0.25"></line><line x1="155.19401041666669" y1="0" x2="155.19401041666669" y2="177" fill="rgb(0, 0, 0)" stroke="rgb(66, 66, 66)" stroke-width="1px" opacity="0.25"></line><line x1="177.36458333333331" y1="0" x2="177.36458333333331" y2="177" fill="rgb(0, 0, 0)" stroke="rgb(66, 66, 66)" stroke-width="1px" opacity="0.25"></line><line x1="199.53515625" y1="0" x2="199.53515625" y2="177" fill="rgb(0, 0, 0)" stroke="rgb(66, 66, 66)" stroke-width="1px" opacity="0.25"></line><line x1="221.70572916666669" y1="0" x2="221.70572916666669" y2="177" fill="rgb(0, 0, 0)" stroke="rgb(66, 66, 66)" stroke-width="1px" opacity="0.25"></line><line x1="243.87630208333331" y1="0" x2="243.87630208333331" y2="177" fill="rgb(0, 0, 0)" stroke="rgb(66, 66, 66)" stroke-width="1px" opacity="0.25"></line><line x1="266.046875" y1="0" x2="266.046875" y2="177" fill="rgb(0, 0, 0)" stroke="rgb(66, 66, 66)" stroke-width="1px" opacity="0.25"></line></g><g><line x1="0" y1="177" x2="266.046875" y2="177" fill="rgb(0, 0, 0)" stroke="rgb(66, 66, 66)" stroke-width="1px" opacity="0.25"></line><line x1="0" y1="157.33333333333331" x2="266.046875" y2="157.33333333333331" fill="rgb(0, 0, 0)" stroke="rgb(66, 66, 66)" stroke-width="1px" opacity="0.25"></line><line x1="0" y1="137.66666666666666" x2="266.046875" y2="137.66666666666666" fill="rgb(0, 0, 0)" stroke="rgb(66, 66, 66)" stroke-width="1px" opacity="0.25"></line><line x1="0" y1="118.00000000000001" x2="266.046875" y2="118.00000000000001" fill="rgb(0, 0, 0)" stroke="rgb(66, 66, 66)" stroke-width="1px" opacity="0.25"></line><line x1="0" y1="98.33333333333334" x2="266.046875" y2="98.33333333333334" fill="rgb(0, 0, 0)" stroke="rgb(66, 66, 66)" stroke-width="1px" opacity="0.25"></line><line x1="0" y1="78.66666666666669" x2="266.046875" y2="78.66666666666669" fill="rgb(0, 0, 0)" stroke="rgb(66, 66, 66)" stroke-width="1px" opacity="0.25"></line><line x1="0" y1="59.00000000000001" x2="266.046875" y2="59.00000000000001" fill="rgb(0, 0, 0)" stroke="rgb(66, 66, 66)" stroke-width="1px" opacity="0.25"></line><line x1="0" y1="39.33333333333335" x2="266.046875" y2="39.33333333333335" fill="rgb(0, 0, 0)" stroke="rgb(66, 66, 66)" stroke-width="1px" opacity="0.25"></line><line x1="0" y1="19.666666666666675" x2="266.046875" y2="19.666666666666675" fill="rgb(0, 0, 0)" stroke="rgb(66, 66, 66)" stroke-width="1px" opacity="0.25"></line><line x1="0" y1="0" x2="266.046875" y2="0" fill="rgb(0, 0, 0)" stroke="rgb(66, 66, 66)" stroke-width="1px" opacity="0.25"></line></g></g></g><g><g><line x1="0" y1="157.33333333333331" x2="266.046875" y2="157.33333333333331" fill="rgb(0, 0, 0)" stroke="rgb(153, 153, 153)" stroke-width="1.5px"></line></g></g><g><g><line x1="22.170572916666664" y1="0" x2="22.170572916666664" y2="177" fill="rgb(0, 0, 0)" stroke="rgb(153, 153, 153)" stroke-width="1.5px"></line></g></g><g><g><g><g><g><path stroke="rgb(0, 119, 187)" stroke-width="2px" d="M31.925625,-3.6134266828497292L32.36903645833333,1.2075854241848059L32.81244791666667,7.018174953758723L33.255859375,13.798395770291483L33.69927083333334,21.50557156900565L34.14268229166667,30.18182917435965L34.58609375,39.953778009861715L35.02950520833333,50.920443587005146L35.47291666666666,63.19894763578972L35.916328125,76.79018764073652L36.35973958333333,91.34180934727192L36.803151041666666,105.49475560834011L37.2465625,116.47223678976299L37.68997395833333,123.67678004565339L38.13338541666667,127.88354870956393L38.576796875,130.61209855073443L39.020208333333336,133.39720136423907L39.46361979166667,136.04814168935022L39.907031249999996,137.94357633932182L40.35044270833333,139.8040274089823L40.79385416666666,141.25958245806396L41.237265625,142.41888290364295L41.680677083333336,143.46532696019858L42.124088541666666,144.2873449384545L42.5675,144.79028656395772L43.01091145833333,144.98824600689113L43.45432291666667,144.9570973413065L43.897734375,144.9200509202977L44.34114583333333,145.23314022707441L44.784557291666665,146.02252365338305L45.22796875,146.55786744644865L45.67138020833333,146.20743408349034L46.11479166666667,145.98351627448574L46.558203125,146.39502551965415L47.001614583333335,146.16559230194738L47.44502604166667,146.233670623973L47.888437499999995,146.4132751347497L48.33184895833333,146.11308258896074L48.77526041666666,146.7634051387819L49.218671875,145.99623216486845L49.662083333333335,147.19659825103977L50.105494791666665,145.80089076670507L50.54890625,147.78411748989797L50.99231770833334,145.18209808443982L51.43572916666667,148.35946688444042L51.879140625000005,144.19778994920975L52.32255208333333,146.8757692850195L52.765963541666665,145.98745765102407L53.209375,140.85266137355939L53.65278645833333,149.35164231861322L54.09619791666667,140.83832795048755L54.539609375,152.51247347813722L54.983020833333335,141.16160324867815L55.42643229166667,148.73807485075668L55.86984375,152.58214615165102L56.31325520833333,121.7201264196386L56.75666666666667,147.43996537383646L57.200078125,138.22018015291542L57.643489583333334,136.68481308749568L58.086901041666664,129.24074220253777L58.5303125,138.60495145681003L58.97372395833334,134.0393561180681L59.41713541666667,145.67666929308325L59.860546875000004,149.85612077188367L60.30395833333333,147.7475764763076L60.747369791666664,154.3865556663368L61.19078125,147.7129998548577L61.63419270833333,154.19070456793997L62.07760416666667,150.60781271018396L62.521015625,154.2388035566158L62.964427083333334,151.57277455918182L63.40783854166667,154.52705091540702L63.85125,147.8837302584822L64.29466145833334,145.14457544715452L64.73807291666667,155.55954632820794L65.181484375,152.71440463350154L65.62489583333334,118.770575594157L66.06830729166667,137.287627339984L66.51171875,144.53707687494656L66.95513020833333,144.31810209931186L67.39854166666667,144.19804522860795L67.841953125,143.94487675062072L68.28536458333333,141.90654516468445L68.72877604166668,149.30937411744767L69.1721875,143.28858203658214L69.61559895833334,152.43217952176929L70.05901041666667,145.10667847640192L70.50242187500001,153.46566185273696L70.94583333333333,145.31953570448482L71.38924479166666,152.31360224129944L71.83265625,143.5636335682745L72.27606770833333,148.29924842047814L72.71947916666666,140.62280345335603L73.162890625,144.63491528000063L73.60630208333333,137.4347552744051L74.04971354166666,147.25773938403776L74.493125,140.8139733800975L74.93653645833334,152.61079725747305L75.37994791666667,149.43593317192668L75.823359375,153.97945600072853L76.26677083333334,153.8767675732961L76.71018229166667,154.28041667421348L77.15359375,154.71327609165263L77.59700520833334,155.4603137599382L78.04041666666667,153.29840548119196L78.483828125,156.0483747520484L78.92723958333335,154.45907562094118L79.37065104166666,149.31620198278688L79.81406249999999,153.37680258570862L80.25747395833334,155.95144227405157L80.70088541666667,155.25391736151263L81.144296875,154.53157840428563L81.58770833333332,154.88029006224437L82.03111979166667,48.97059435894093L82.47453125,75.00966077297927L82.91794270833333,124.3093555259208L83.36135416666667,146.17488195359084L83.804765625,150.34426878454786L84.24817708333333,153.6042204698703L84.69158854166668,152.40912710526027L85.135,153.0047926760356L85.57841145833333,153.06921638156444L86.02182291666666,153.31160645966884L86.46523437500001,153.39923397498205L86.90864583333334,153.62927791716842L87.35205729166665,153.84080637591737L87.79546875,154.11243309980878L88.23888020833333,154.52241181333858L88.68229166666666,154.92000747274142L89.125703125,155.33851329087824L89.56911458333333,155.65976223729862L90.01252604166666,155.8622568961776L90.4559375,156.00985074411923L90.89934895833333,156.10827998361006L91.34276041666666,156.17814375893795L91.786171875,156.23673767861328L92.22958333333334,156.28023448342964L92.67299479166667,156.31755278272126L93.11640625,156.34645265717214L93.55981770833334,156.36933271715924L94.00322916666667,156.3863985169737L94.446640625,156.39776782284025L94.89005208333334,156.39693165402664L95.33346354166667,156.3468380088646L95.77687499999999,155.93955346602402L96.22028645833333,150.6459575194555L96.66369791666666,103.83119478449225L97.107109375,118.25544695307813L97.55052083333332,122.78441027055183L97.99393229166667,146.79558179046336L98.43734375,145.76111754961312L98.88075520833333,151.58506345756663L99.32416666666667,154.92573694981792L99.767578125,154.20712716097478L100.21098958333333,156.25396868025805L100.65440104166667,155.55310209743521L101.0978125,156.192451282026L101.54122395833333,155.90843141589235L101.98463541666668,156.34815225417452L102.428046875,155.95306352718035L102.87145833333334,156.29718537889616L103.31486979166667,156.0907142139428L103.75828125000001,156.07726196269505L104.20169270833333,156.4265395567636L104.64510416666666,155.76518189672302L105.088515625,156.20301897623963L105.53192708333333,156.23603787822262L105.97533854166666,151.71359262793948L106.41875,133.4189470478644L106.86216145833333,145.5241575962864L107.30557291666666,106.59916525955003L107.748984375,132.7820375415807L108.19239583333334,143.67938617647937L108.63580729166667,147.52007273584604L109.07921875,148.7449542298758L109.52263020833334,152.3139382256195L109.96604166666667,153.46806010537935L110.409453125,155.21609408408403L110.85286458333334,154.83540467487182L111.29627604166667,155.73232740955427L111.7396875,155.3190569654883L112.18309895833335,155.7123223193145L112.62651041666666,155.3489664384785L113.06992187499999,155.7325952812098L113.51333333333334,155.23550690894868L113.95674479166667,155.82267055963166L114.40015625,154.42699856256758L114.84356770833332,155.41550564323552L115.28697916666667,155.83427332308685L115.730390625,154.6366911274381L116.17380208333333,149.24633155359575L116.61721354166667,152.18902131596892L117.060625,152.9366780081764L117.50403645833333,145.3285506159688L117.94744791666668,143.19894233578816L118.390859375,123.4297497207299L118.83427083333333,139.39140546616787L119.27768229166666,142.448302995724L119.72109375000001,144.85907005239278L120.16450520833334,147.95465328590944L120.60791666666665,147.4227414553364L121.051328125,147.44311572766554L121.49473958333333,150.95793126670952L121.93815104166666,151.72660157449232L122.3815625,154.40931559905098L122.82497395833333,153.8257497566131L123.26838541666666,154.90390083089005L123.711796875,153.94668980245478L124.15520833333333,154.22497668571305L124.59861979166666,152.84535237584106L125.04203125,152.8027948389451L125.48544270833334,151.1885636107375L125.92885416666667,150.8774564397366L126.372265625,149.04369637657268L126.81567708333334,148.81792178199007L127.25908854166667,147.05956243847808L127.7025,147.0381258375322L128.14591145833333,145.1086497370464L128.58932291666667,145.7959420095819L129.032734375,144.4047322506085L129.47614583333333,146.91186899722862L129.91955729166668,148.2817749463332L130.36296875,150.4226698956918L130.80638020833334,153.5312835398363L131.24979166666668,153.8601749847876L131.693203125,155.84769967435085L132.13661458333334,155.30585255275946L132.58002604166668,156.3045836878009L133.0234375,155.73471621800368L133.46684895833334,156.23677094792947L133.91026041666666,155.50821699625035L134.353671875,155.77445881301537L134.79708333333335,154.55140262392038L135.24049479166666,155.00840683619026L135.68390625,152.50776798053025L136.12731770833335,153.5925148219491L136.57072916666667,148.92712469926727L137.014140625,149.4183915851172L137.45755208333335,148.35211128904484L137.90096354166667,147.54206339611363L138.344375,150.48142536830468L138.78778645833333,150.44835867298147L139.23119791666667,153.2591542704031L139.67460937500002,151.20872896607034L140.11802083333333,151.77867685460174L140.56143229166668,148.01735242456198L141.00484375000002,145.8968472016665L141.4482552083333,143.25110175507143L141.89166666666665,140.1554658630242L142.335078125,141.6228106992009L142.7784895833333,142.5419802321121L143.22190104166665,145.40719956563166L143.6653125,150.97662332793698L144.10872395833331,152.3422404686765L144.55213541666666,155.48430887861954L144.995546875,154.48732177121565L145.43895833333332,155.59630842177043L145.88236979166666,154.4619203263428L146.32578125,154.9327547006736L146.76919270833332,154.09061787258057L147.21260416666667,154.04712364345323L147.656015625,153.03253084320266L148.09942708333332,152.26990310180312L148.54283854166667,150.18565213245648L148.98625,148.8382662908019L149.42966145833333,146.01678959730393L149.87307291666667,145.7344700436418L150.316484375,145.1113364668563L150.75989583333333,146.59400150117776L151.20330729166668,150.2232400205297L151.64671875,151.26876198042496L152.09013020833333,154.8147885739648L152.53354166666668,154.54485693962005L152.976953125,156.2155905564917L153.42036458333334,155.35225301763666L153.86377604166668,156.01807377433096L154.3071875,154.80239664802016L154.75059895833334,154.820495156028L155.19401041666669,152.6553747069168L155.637421875,151.80050496027494L156.08083333333335,147.87689094563635L156.5242447916667,146.43849399189156L156.96765625,141.90607238265997L157.41106770833335,143.63016075314954L157.8544791666667,142.83747701067477L158.29789062499998,146.1888994254793L158.74130208333332,150.96348731406033L159.18471354166667,152.20263411849737L159.62812499999998,155.83313343761256L160.07153645833333,155.50004276103573L160.51494791666667,156.61776571938145L160.958359375,155.99729783761236L161.40177083333333,156.16888916528356L161.84518229166665,155.84254886873532L162.28859375,155.68411280106133L162.73200520833333,155.09448893810622L163.17541666666665,154.43881410655254L163.618828125,152.40330375862928L164.06223958333334,150.54023578894945L164.50565104166665,145.6343719007758L164.9490625,143.8202889567862L165.39247395833334,139.2262683142908L165.83588541666666,142.12562983638296L166.279296875,146.02153115455684L166.72270833333334,148.09151395161945L167.16611979166666,154.1229470622881L167.60953125,153.74476694653276L168.05294270833335,156.4538381396754L168.49635416666666,155.51999447727576L168.939765625,156.26250458513582L169.38317708333335,155.5842899707301L169.82658854166667,155.9466779648792L170.27,155.41664567180365L170.71341145833335,155.55872482651222L171.15682291666667,154.441748102506L171.600234375,154.05836824304424L172.04364583333333,151.6255561504513L172.48705729166667,150.41789227879298L172.93046875000002,146.52986798994243L173.37388020833333,145.98294046490142L173.81729166666668,143.8777325451374L174.26070312500002,145.2327750516124L174.7041145833333,149.05803666814853L175.14752604166665,149.98708024791753L175.5909375,154.5183931661304L176.0343489583333,154.3270552472289L176.47776041666665,156.57949555991217L176.921171875,155.61260351819996L177.36458333333331,156.4059824105158L177.80799479166666,155.1664446737268L178.25140625,155.27245903112149L178.69481770833332,153.57004279402705L179.13822916666666,153.05786675109994L179.581640625,150.4003936201334L180.02505208333332,149.5582789715845L180.46846354166667,146.93552870396525L180.911875,147.10617668554187L181.35528645833332,147.61635885899886L181.79869791666667,148.45028510604365L182.242109375,152.15861902781762L182.68552083333333,152.61696374311578L183.12893229166667,155.63456026522908L183.57234375,155.42002998404982L184.01575520833333,156.774507806486L184.45916666666668,156.0203878877995L184.902578125,156.2302035133665L185.34598958333333,154.90952270140406L185.78940104166668,154.1423938003912L186.2328125,151.48197179171257L186.67622395833334,149.71912559797056L187.11963541666668,145.70050529142222L187.563046875,144.96735774151358L188.00645833333334,143.82537164973715L188.44986979166669,144.62425078280893L188.89328125,150.16647069031993L189.33669270833335,150.5937746327836L189.7801041666667,155.1250927023745L190.223515625,154.77784002913782L190.66692708333335,156.69464080634256L191.1103385416667,155.8127547293746L191.55374999999998,156.34537387276455L191.99716145833332,155.4666636918749L192.44057291666667,155.47911056585144L192.88398437499998,154.45216504736646L193.32739583333333,154.20337266498245L193.77080729166667,152.7585321959341L194.21421875,152.3016710774973L194.65763020833333,150.4375797007233L195.10104166666665,150.13200568205986L195.544453125,148.5867245035091L195.98786458333333,148.84112759508815L196.43127604166665,148.97780624544248L196.8746875,149.5718723133517L197.31809895833334,151.46046192672415L197.76151041666665,152.04631555336528L198.204921875,154.05144135677256L198.64833333333334,154.3960319123386L199.09174479166666,155.66613363331027L199.53515625,155.76828545886866L199.97856770833334,156.36078271753894L200.42197916666666,156.38076920558038L200.865390625,156.5868301205143L201.30880208333335,156.61416798268328L201.75221354166666,156.5934009177824L202.195625,156.66282911548237L202.63903645833335,156.36088796305316L203.08244791666667,156.48151620743255L203.525859375,155.57912642976348L203.96927083333335,155.74586022263003L204.41268229166667,153.9739360130237L204.85609375,154.6077512582609L205.29950520833333,152.93940165619523L205.74291666666667,155.2266904686112L206.18632812500002,154.92427710653283L206.62973958333333,156.70588283024458L207.07315104166668,156.56824273242577L207.51656250000002,155.2060939715593L207.9599739583333,155.8526262519299L208.40338541666665,155.9712901041688L208.846796875,155.6484176151183L209.2902083333333,155.80522055287534L209.73361979166665,156.6612676755758L210.17703125,155.18352621386293L210.62044270833331,154.62485583650414L211.06385416666666,153.00222929310985L211.507265625,150.58482153783552L211.95067708333332,154.56146498226252L212.39408854166666,153.33682560299835L212.8375,143.2119455585877L213.28091145833332,154.0339781853836L213.72432291666667,145.40116329537705L214.167734375,155.6533323159092L214.61114583333332,155.93364240287337L215.05455729166667,153.91047447042848L215.49796875,152.54336972620027L215.94138020833333,154.22915016044863L216.38479166666667,152.73339318515113L216.828203125,154.23110424983315L217.27161458333333,156.49106686222757L217.71502604166668,155.37069452156234L218.1584375,156.23953480531537L218.60184895833333,156.6835396583192L219.04526041666668,156.00260719119493L219.488671875,154.71086581912823L219.93208333333334,150.44595011758307L220.37549479166668,142.45284765586257L220.81890625,151.6400567071202L221.26231770833334,148.6033422765322L221.70572916666669,155.99295279337093L222.149140625,154.67767434598255L222.59255208333335,154.77113980349773L223.0359635416667,156.03640280650384L223.479375,155.3979729282437L223.92278645833335,154.33099204476457L224.3661979166667,155.55660360353068L224.80960937499998,155.26869580640533L225.25302083333332,153.0424398049557L225.69643229166667,154.30591198864082L226.13984374999998,156.34450565093238L226.58325520833333,152.93512229202315L227.02666666666667,140.5397002788571L227.470078125,154.190134482109L227.91348958333333,142.4487494484832L228.35690104166665,155.66341985876593L228.8003125,155.36677990357083L229.24372395833333,153.3651138228597L229.68713541666665,152.76002351986244L230.130546875,153.52792426901092L230.57395833333334,156.33990296624444L231.01736979166665,155.82369797335318L231.46078125,156.6919776154682L231.90419270833334,156.81412193900906L232.34760416666666,156.76750990989967L232.791015625,156.55368071695557L233.23442708333334,155.28637376163775L233.67783854166666,152.5947329713963L234.12125,145.16487073168778L234.56466145833335,147.9431416732259L235.00807291666666,153.33649934905893L235.451484375,151.45171660402167L235.89489583333335,154.34628791695772L236.33830729166667,156.66594727319898L236.78171875,156.69761801663358L237.22513020833335,156.59865768438127L237.66854166666667,156.6392804495602L238.111953125,153.88344118348323L238.55536458333333,154.03777246146151L238.99877604166667,156.694619843096L239.44218750000002,153.13993736049937L239.88559895833333,131.4282187735662L240.32901041666668,141.8366421100994L240.77242187500002,145.89462524062643L241.2158333333333,145.89022596382225L241.65924479166665,151.20066820426533L242.10265625,152.6022001799817L242.5460677083333,155.23851331038168L242.98947916666665,155.9019528425997L243.432890625,156.36415350741785" style="fill: none;" fill="none"></path></g></g></g></g></g></g><g transform="translate(61, 177)" clip-path="url(#clip_1)"><clipPath id="clip_1"><rect width="266" height="23"></rect></clipPath><g><g><line x1="0" y1="0" x2="0" y2="5" style="visibility: inherit;" fill="rgb(0, 0, 0)" stroke="rgb(204, 204, 204)" stroke-width="1px"></line><line x1="22.170572916666664" y1="0" x2="22.170572916666664" y2="5" style="visibility: inherit;" fill="rgb(0, 0, 0)" stroke="rgb(204, 204, 204)" stroke-width="1px"></line><line x1="44.34114583333333" y1="0" x2="44.34114583333333" y2="5" style="visibility: inherit;" fill="rgb(0, 0, 0)" stroke="rgb(204, 204, 204)" stroke-width="1px"></line><line x1="66.51171875" y1="0" x2="66.51171875" y2="5" style="visibility: inherit;" fill="rgb(0, 0, 0)" stroke="rgb(204, 204, 204)" stroke-width="1px"></line><line x1="88.68229166666666" y1="0" x2="88.68229166666666" y2="5" style="visibility: inherit;" fill="rgb(0, 0, 0)" stroke="rgb(204, 204, 204)" stroke-width="1px"></line><line x1="110.85286458333334" y1="0" x2="110.85286458333334" y2="5" style="visibility: inherit;" fill="rgb(0, 0, 0)" stroke="rgb(204, 204, 204)" stroke-width="1px"></line><line x1="133.0234375" y1="0" x2="133.0234375" y2="5" style="visibility: inherit;" fill="rgb(0, 0, 0)" stroke="rgb(204, 204, 204)" stroke-width="1px"></line><line x1="155.19401041666669" y1="0" x2="155.19401041666669" y2="5" style="visibility: inherit;" fill="rgb(0, 0, 0)" stroke="rgb(204, 204, 204)" stroke-width="1px"></line><line x1="177.36458333333331" y1="0" x2="177.36458333333331" y2="5" style="visibility: inherit;" fill="rgb(0, 0, 0)" stroke="rgb(204, 204, 204)" stroke-width="1px"></line><line x1="199.53515625" y1="0" x2="199.53515625" y2="5" style="visibility: inherit;" fill="rgb(0, 0, 0)" stroke="rgb(204, 204, 204)" stroke-width="1px"></line><line x1="221.70572916666669" y1="0" x2="221.70572916666669" y2="5" style="visibility: inherit;" fill="rgb(0, 0, 0)" stroke="rgb(204, 204, 204)" stroke-width="1px"></line><line x1="243.87630208333331" y1="0" x2="243.87630208333331" y2="5" style="visibility: inherit;" fill="rgb(0, 0, 0)" stroke="rgb(204, 204, 204)" stroke-width="1px"></line><line x1="266.046875" y1="0" x2="266.046875" y2="5" style="visibility: inherit;" fill="rgb(0, 0, 0)" stroke="rgb(204, 204, 204)" stroke-width="1px"></line></g><g transform="translate(0, 8)"><text x="0" y="0" dx="0em" dy="0.95em" style="text-anchor: middle; visibility: hidden; font-family: Roboto, sans-serif; font-size: 12px; font-weight: 200;" fill="rgb(33, 33, 33)" stroke="none" stroke-width="1px">-50</text><text x="22.170572916666664" y="0" dx="0em" dy="0.95em" style="text-anchor: middle; visibility: inherit; font-family: Roboto, sans-serif; font-size: 12px; font-weight: 200;" fill="rgb(33, 33, 33)" stroke="none" stroke-width="1px">0</text><text x="44.34114583333333" y="0" dx="0em" dy="0.95em" style="text-anchor: middle; visibility: hidden; font-family: Roboto, sans-serif; font-size: 12px; font-weight: 200;" fill="rgb(33, 33, 33)" stroke="none" stroke-width="1px">50</text><text x="66.51171875" y="0" dx="0em" dy="0.95em" style="text-anchor: middle; visibility: inherit; font-family: Roboto, sans-serif; font-size: 12px; font-weight: 200;" fill="rgb(33, 33, 33)" stroke="none" stroke-width="1px">100</text><text x="88.68229166666666" y="0" dx="0em" dy="0.95em" style="text-anchor: middle; visibility: hidden; font-family: Roboto, sans-serif; font-size: 12px; font-weight: 200;" fill="rgb(33, 33, 33)" stroke="none" stroke-width="1px">150</text><text x="110.85286458333334" y="0" dx="0em" dy="0.95em" style="text-anchor: middle; visibility: inherit; font-family: Roboto, sans-serif; font-size: 12px; font-weight: 200;" fill="rgb(33, 33, 33)" stroke="none" stroke-width="1px">200</text><text x="133.0234375" y="0" dx="0em" dy="0.95em" style="text-anchor: middle; visibility: hidden; font-family: Roboto, sans-serif; font-size: 12px; font-weight: 200;" fill="rgb(33, 33, 33)" stroke="none" stroke-width="1px">250</text><text x="155.19401041666669" y="0" dx="0em" dy="0.95em" style="text-anchor: middle; visibility: inherit; font-family: Roboto, sans-serif; font-size: 12px; font-weight: 200;" fill="rgb(33, 33, 33)" stroke="none" stroke-width="1px">300</text><text x="177.36458333333331" y="0" dx="0em" dy="0.95em" style="text-anchor: middle; visibility: hidden; font-family: Roboto, sans-serif; font-size: 12px; font-weight: 200;" fill="rgb(33, 33, 33)" stroke="none" stroke-width="1px">350</text><text x="199.53515625" y="0" dx="0em" dy="0.95em" style="text-anchor: middle; visibility: inherit; font-family: Roboto, sans-serif; font-size: 12px; font-weight: 200;" fill="rgb(33, 33, 33)" stroke="none" stroke-width="1px">400</text><text x="221.70572916666669" y="0" dx="0em" dy="0.95em" style="text-anchor: middle; visibility: hidden; font-family: Roboto, sans-serif; font-size: 12px; font-weight: 200;" fill="rgb(33, 33, 33)" stroke="none" stroke-width="1px">450</text><text x="243.87630208333331" y="0" dx="0em" dy="0.95em" style="text-anchor: middle; visibility: inherit; font-family: Roboto, sans-serif; font-size: 12px; font-weight: 200;" fill="rgb(33, 33, 33)" stroke="none" stroke-width="1px">500</text><text x="266.046875" y="0" dx="0em" dy="0.95em" style="text-anchor: middle; visibility: hidden; font-family: Roboto, sans-serif; font-size: 12px; font-weight: 200;" fill="rgb(33, 33, 33)" stroke="none" stroke-width="1px">550</text></g><line x1="0" y1="0" x2="266.046875" y2="0" fill="rgb(0, 0, 0)" stroke="rgb(204, 204, 204)" stroke-width="1px"></line></g></g></g></g></svg>