<svg viewBox="0 0 318 200" xmlns="http://www.w3.org/2000/svg"><g><g><g><g><g><line x1="60" y1="177" x2="55" y2="177" style="visibility: inherit;" fill="rgb(0, 0, 0)" stroke="rgb(204, 204, 204)" stroke-width="1px"></line><line x1="60" y1="154.875" x2="55" y2="154.875" style="visibility: inherit;" fill="rgb(0, 0, 0)" stroke="rgb(204, 204, 204)" stroke-width="1px"></line><line x1="60" y1="132.75" x2="55" y2="132.75" style="visibility: inherit;" fill="rgb(0, 0, 0)" stroke="rgb(204, 204, 204)" stroke-width="1px"></line><line x1="60" y1="110.625" x2="55" y2="110.625" style="visibility: inherit;" fill="rgb(0, 0, 0)" stroke="rgb(204, 204, 204)" stroke-width="1px"></line><line x1="60" y1="88.5" x2="55" y2="88.5" style="visibility: inherit;" fill="rgb(0, 0, 0)" stroke="rgb(204, 204, 204)" stroke-width="1px"></line><line x1="60" y1="66.375" x2="55" y2="66.375" style="visibility: inherit;" fill="rgb(0, 0, 0)" stroke="rgb(204, 204, 204)" stroke-width="1px"></line><line x1="60" y1="44.25" x2="55" y2="44.25" style="visibility: inherit;" fill="rgb(0, 0, 0)" stroke="rgb(204, 204, 204)" stroke-width="1px"></line><line x1="60" y1="22.125" x2="55" y2="22.125" style="visibility: inherit;" fill="rgb(0, 0, 0)" stroke="rgb(204, 204, 204)" stroke-width="1px"></line><line x1="60" y1="0" x2="55" y2="0" style="visibility: inherit;" fill="rgb(0, 0, 0)" stroke="rgb(204, 204, 204)" stroke-width="1px"></line></g><g transform="translate(50, 0)"><text x="0" y="177" dx="0em" dy="0.3em" style="text-anchor: end; visibility: hidden; font-family: Roboto, sans-serif; font-size: 12px; font-weight: 200;" fill="rgb(33, 33, 33)" stroke="none" stroke-width="1px">0</text><text x="0" y="154.875" dx="0em" dy="0.3em" style="text-anchor: end; visibility: inherit; font-family: Roboto, sans-serif; font-size: 12px; font-weight: 200;" fill="rgb(33, 33, 33)" stroke="none" stroke-width="1px">2e-3</text><text x="0" y="132.75" dx="0em" dy="0.3em" style="text-anchor: end; visibility: hidden; font-family: Roboto, sans-serif; font-size: 12px; font-weight: 200;" fill="rgb(33, 33, 33)" stroke="none" stroke-width="1px">4e-3</text><text x="0" y="110.625" dx="0em" dy="0.3em" style="text-anchor: end; visibility: inherit; font-family: Roboto, sans-serif; font-size: 12px; font-weight: 200;" fill="rgb(33, 33, 33)" stroke="none" stroke-width="1px">6e-3</text><text x="0" y="88.5" dx="0em" dy="0.3em" style="text-anchor: end; visibility: hidden; font-family: Roboto, sans-serif; font-size: 12px; font-weight: 200;" fill="rgb(33, 33, 33)" stroke="none" stroke-width="1px">8e-3</text><text x="0" y="66.375" dx="0em" dy="0.3em" style="text-anchor: end; visibility: inherit; font-family: Roboto, sans-serif; font-size: 12px; font-weight: 200;" fill="rgb(33, 33, 33)" stroke="none" stroke-width="1px">0.01</text><text x="0" y="44.25" dx="0em" dy="0.3em" style="text-anchor: end; visibility: hidden; font-family: Roboto, sans-serif; font-size: 12px; font-weight: 200;" fill="rgb(33, 33, 33)" stroke="none" stroke-width="1px">0.012</text><text x="0" y="22.125" dx="0em" dy="0.3em" style="text-anchor: end; visibility: inherit; font-family: Roboto, sans-serif; font-size: 12px; font-weight: 200;" fill="rgb(33, 33, 33)" stroke="none" stroke-width="1px">0.014</text><text x="0" y="0" dx="0em" dy="0.3em" style="text-anchor: end; visibility: hidden; font-family: Roboto, sans-serif; font-size: 12px; font-weight: 200;" fill="rgb(33, 33, 33)" stroke="none" stroke-width="1px">0.016</text></g><line x1="60" y1="0" x2="60" y2="177" fill="rgb(0, 0, 0)" stroke="rgb(204, 204, 204)" stroke-width="1px"></line></g></g><g transform="translate(60, 0)" clip-path="url(#clip_0)"><clipPath id="clip_0"><rect width="258" height="177"></rect></clipPath><g><g><g><line x1="0" y1="0" x2="0" y2="177" fill="rgb(0, 0, 0)" stroke="rgb(66, 66, 66)" stroke-width="1px" opacity="0.25"></line><line x1="21.5" y1="0" x2="21.5" y2="177" fill="rgb(0, 0, 0)" stroke="rgb(66, 66, 66)" stroke-width="1px" opacity="0.25"></line><line x1="43" y1="0" x2="43" y2="177" fill="rgb(0, 0, 0)" stroke="rgb(66, 66, 66)" stroke-width="1px" opacity="0.25"></line><line x1="64.5" y1="0" x2="64.5" y2="177" fill="rgb(0, 0, 0)" stroke="rgb(66, 66, 66)" stroke-width="1px" opacity="0.25"></line><line x1="86" y1="0" x2="86" y2="177" fill="rgb(0, 0, 0)" stroke="rgb(66, 66, 66)" stroke-width="1px" opacity="0.25"></line><line x1="107.5" y1="0" x2="107.5" y2="177" fill="rgb(0, 0, 0)" stroke="rgb(66, 66, 66)" stroke-width="1px" opacity="0.25"></line><line x1="129" y1="0" x2="129" y2="177" fill="rgb(0, 0, 0)" stroke="rgb(66, 66, 66)" stroke-width="1px" opacity="0.25"></line><line x1="150.5" y1="0" x2="150.5" y2="177" fill="rgb(0, 0, 0)" stroke="rgb(66, 66, 66)" stroke-width="1px" opacity="0.25"></line><line x1="172" y1="0" x2="172" y2="177" fill="rgb(0, 0, 0)" stroke="rgb(66, 66, 66)" stroke-width="1px" opacity="0.25"></line><line x1="193.5" y1="0" x2="193.5" y2="177" fill="rgb(0, 0, 0)" stroke="rgb(66, 66, 66)" stroke-width="1px" opacity="0.25"></line><line x1="215" y1="0" x2="215" y2="177" fill="rgb(0, 0, 0)" stroke="rgb(66, 66, 66)" stroke-width="1px" opacity="0.25"></line><line x1="236.5" y1="0" x2="236.5" y2="177" fill="rgb(0, 0, 0)" stroke="rgb(66, 66, 66)" stroke-width="1px" opacity="0.25"></line><line x1="258" y1="0" x2="258" y2="177" fill="rgb(0, 0, 0)" stroke="rgb(66, 66, 66)" stroke-width="1px" opacity="0.25"></line></g><g><line x1="0" y1="177" x2="258" y2="177" fill="rgb(0, 0, 0)" stroke="rgb(66, 66, 66)" stroke-width="1px" opacity="0.25"></line><line x1="0" y1="154.875" x2="258" y2="154.875" fill="rgb(0, 0, 0)" stroke="rgb(66, 66, 66)" stroke-width="1px" opacity="0.25"></line><line x1="0" y1="132.75" x2="258" y2="132.75" fill="rgb(0, 0, 0)" stroke="rgb(66, 66, 66)" stroke-width="1px" opacity="0.25"></line><line x1="0" y1="110.625" x2="258" y2="110.625" fill="rgb(0, 0, 0)" stroke="rgb(66, 66, 66)" stroke-width="1px" opacity="0.25"></line><line x1="0" y1="88.5" x2="258" y2="88.5" fill="rgb(0, 0, 0)" stroke="rgb(66, 66, 66)" stroke-width="1px" opacity="0.25"></line><line x1="0" y1="66.375" x2="258" y2="66.375" fill="rgb(0, 0, 0)" stroke="rgb(66, 66, 66)" stroke-width="1px" opacity="0.25"></line><line x1="0" y1="44.25" x2="258" y2="44.25" fill="rgb(0, 0, 0)" stroke="rgb(66, 66, 66)" stroke-width="1px" opacity="0.25"></line><line x1="0" y1="22.125" x2="258" y2="22.125" fill="rgb(0, 0, 0)" stroke="rgb(66, 66, 66)" stroke-width="1px" opacity="0.25"></line><line x1="0" y1="0" x2="258" y2="0" fill="rgb(0, 0, 0)" stroke="rgb(66, 66, 66)" stroke-width="1px" opacity="0.25"></line></g></g></g><g><g><line x1="0" y1="177" x2="258" y2="177" fill="rgb(0, 0, 0)" stroke="rgb(153, 153, 153)" stroke-width="1.5px"></line></g></g><g><g><line x1="21.5" y1="0" x2="21.5" y2="177" fill="rgb(0, 0, 0)" stroke="rgb(153, 153, 153)" stroke-width="1.5px"></line></g></g><g><g><g><g><g><path stroke="rgb(0, 153, 136)" stroke-width="2px" d="M30.1,-8.323398909531534L31.175,6.128050245344639L32.25,14.389953900128603L33.325,21.272679125424474L34.4,28.178637065459043L35.475,35.19346422795206L36.55,42.388867794536054L37.625,49.73964722407982L38.699999999999996,57.09223993867636L39.775,64.13673903839663L40.85,70.5362237971276L41.925000000000004,76.08972865669057L43,80.77029130468145L44.075,84.80291362898424L45.15,88.55884513864294L46.225,92.44401957071386L47.3,97.12687458191067L48.375,102.87934626499191L49.45,108.75839760806412L50.525,114.22508629434742L51.6,118.94271310698241L52.675,122.78441506018862L53.75,126.00107971625403L54.824999999999996,128.76041533704847L55.9,131.22396398498677L56.975,133.3712540839333L58.050000000000004,135.26597984705586L59.125,136.9752019130392L60.2,138.5460116037866L61.275,139.99046056810766L62.35,141.3105552677298L63.425,142.51419276511297L64.5,143.62006741098594L65.575,144.65376352414023L66.65,145.6226218182128L67.72500000000001,146.465114234481L68.8,147.21581167064141L69.875,148.100849317736L70.95,148.61162905103993L72.025,149.6391486619832L73.1,150.39500520320144L74.175,150.6159091698937L75.25,151.42637031781487L76.325,152.00811801000964L77.39999999999999,152.52946579526179L78.475,153.00283364590723L79.55,153.4667873532744L80.625,153.94135289930273L81.7,154.4454667494865L82.775,154.921059995424L83.85000000000001,155.38783923361916L84.925,155.92604490334634L86,156.34487382735824L87.075,156.2823515526834L88.15,156.9168931422173L89.225,157.37103991373442L90.3,157.6771103249048L91.375,158.09738678613212L92.45,158.1925687972689L93.52499999999999,158.59420757292537L94.6,158.96427870425396L95.675,158.72462243383052L96.75,159.24013885919703L97.825,159.71187887439737L98.9,159.96643292997032L99.97500000000001,160.18168068362866L101.05,160.06279203097802L102.125,160.59274648100836L103.2,160.8001177777187L104.275,161.04050554381683L105.35,160.85476230760105L106.425,161.29406409559306L107.5,161.53138421609765L108.575,161.7205840269453L109.64999999999999,161.92394111235626L110.725,161.76739073521458L111.8,162.17747133155353L112.875,162.3064064591308L113.95,162.5338887355174L115.025,162.51145062083378L116.10000000000001,162.79562381200958L117.175,162.8962984799291L118.25,163.04860927298432L119.325,163.2235075706849L120.4,162.96872170310235L121.475,163.3720063440269L122.55,163.52734357165173L123.625,163.61146299855318L124.7,163.8057407802553L125.77499999999999,163.93181174166966L126.85,163.8483194950386L127.925,164.1692245869781L129,164.25631507113576L130.075,164.13058410066878L131.15,164.43468668544665L132.225,164.55510529736057L133.3,164.50777314853622L134.375,164.76185070164502L135.45000000000002,164.67545178998262L136.525,164.73135325609474L137.6,164.9284166454454L138.67499999999998,165.0823089115438L139.75,164.9186328907963L140.825,165.22882826789282L141.9,165.29653282882646L142.975,165.36523031786783L144.05,165.3247533653048L145.125,165.51260995434131L146.2,165.44018415547907L147.275,165.451752862602L148.35,165.6379983581719L149.425,165.7848113430664L150.5,165.58541309164139L151.57500000000002,165.57034531101817L152.65,165.85982828505803L153.725,165.99593155510956L154.79999999999998,166.06511198583758L155.875,166.0847271453822L156.95,165.99342798540602L158.025,166.2516968284326L159.1,166.24015387819964L160.175,166.3022086653218L161.25,166.34514862048673L162.325,166.10831401735777L163.4,166.34476162321516L164.475,166.28031917239423L165.55,166.25924037757795L166.625,166.3304246943444L167.70000000000002,166.4880703832314L168.775,166.5967651027604L169.85,166.6815600041009L170.92499999999998,166.8332983502769L172,166.89878073552973L173.075,166.80360323184868L174.15,166.89571180209168L175.225,167.00204912226764L176.3,167.04056146804942L177.375,166.92328841632116L178.45,167.182960365928L179.525,167.21003987218137L180.6,167.09370565909194L181.675,167.1097322399437L182.75,167.2837927947985L183.82500000000002,167.35009746876312L184.9,167.35450382871204L185.975,167.45401557305013L187.04999999999998,167.2324927970767L188.125,167.161727029772L189.2,167.4652223958692L190.275,167.61434126633685L191.35,167.67986035515787L192.425,167.69749674163177L193.5,167.6322088208981L194.575,167.7003467415052L195.65,167.72127872204874L196.725,167.62254547970952L197.8,167.83912744026748L198.875,167.93762693883036L199.95000000000002,167.88367140575428L201.025,167.94987691569258L202.1,167.91163179764408L203.17499999999998,167.79246368273743L204.25,167.84425563705736L205.325,167.7267295238853L206.4,167.833066200139L207.475,168.13308503001463L208.55,168.2328311620513L209.625,168.28045307588764L210.7,168.29702956633992L211.775,168.29974241077434L212.85,168.3224406700465L213.925,168.3550804449187L215,168.41687895098585L216.07500000000002,168.33497010916471L217.15,168.41284992947476L218.225,168.55852124022203L219.29999999999998,168.5038915205514L220.375,168.52434377901955L221.45,168.63525165931787L222.525,168.44678913944517L223.6,168.37105358022382L224.675,168.59432911255863L225.75,168.6484874811431L226.825,168.74306549321045L227.9,168.84235057691694L228.975,168.76656672352692L230.05,168.802093845763L231.125,168.90982783329673L232.20000000000002,168.82709283923032L233.275,168.92216731535154L234.35,169.0463927956007L235.42499999999998,168.97091416135663" style="fill: none;" fill="none"></path></g></g></g></g></g></g><g transform="translate(60, 177)" clip-path="url(#clip_1)"><clipPath id="clip_1"><rect width="258" height="23"></rect></clipPath><g><g><line x1="0" y1="0" x2="0" y2="5" style="visibility: inherit;" fill="rgb(0, 0, 0)" stroke="rgb(204, 204, 204)" stroke-width="1px"></line><line x1="21.5" y1="0" x2="21.5" y2="5" style="visibility: inherit;" fill="rgb(0, 0, 0)" stroke="rgb(204, 204, 204)" stroke-width="1px"></line><line x1="43" y1="0" x2="43" y2="5" style="visibility: inherit;" fill="rgb(0, 0, 0)" stroke="rgb(204, 204, 204)" stroke-width="1px"></line><line x1="64.5" y1="0" x2="64.5" y2="5" style="visibility: inherit;" fill="rgb(0, 0, 0)" stroke="rgb(204, 204, 204)" stroke-width="1px"></line><line x1="86" y1="0" x2="86" y2="5" style="visibility: inherit;" fill="rgb(0, 0, 0)" stroke="rgb(204, 204, 204)" stroke-width="1px"></line><line x1="107.5" y1="0" x2="107.5" y2="5" style="visibility: inherit;" fill="rgb(0, 0, 0)" stroke="rgb(204, 204, 204)" stroke-width="1px"></line><line x1="129" y1="0" x2="129" y2="5" style="visibility: inherit;" fill="rgb(0, 0, 0)" stroke="rgb(204, 204, 204)" stroke-width="1px"></line><line x1="150.5" y1="0" x2="150.5" y2="5" style="visibility: inherit;" fill="rgb(0, 0, 0)" stroke="rgb(204, 204, 204)" stroke-width="1px"></line><line x1="172" y1="0" x2="172" y2="5" style="visibility: inherit;" fill="rgb(0, 0, 0)" stroke="rgb(204, 204, 204)" stroke-width="1px"></line><line x1="193.5" y1="0" x2="193.5" y2="5" style="visibility: inherit;" fill="rgb(0, 0, 0)" stroke="rgb(204, 204, 204)" stroke-width="1px"></line><line x1="215" y1="0" x2="215" y2="5" style="visibility: inherit;" fill="rgb(0, 0, 0)" stroke="rgb(204, 204, 204)" stroke-width="1px"></line><line x1="236.5" y1="0" x2="236.5" y2="5" style="visibility: inherit;" fill="rgb(0, 0, 0)" stroke="rgb(204, 204, 204)" stroke-width="1px"></line><line x1="258" y1="0" x2="258" y2="5" style="visibility: inherit;" fill="rgb(0, 0, 0)" stroke="rgb(204, 204, 204)" stroke-width="1px"></line></g><g transform="translate(0, 8)"><text x="0" y="0" dx="0em" dy="0.95em" style="text-anchor: middle; visibility: hidden; font-family: Roboto, sans-serif; font-size: 12px; font-weight: 200;" fill="rgb(33, 33, 33)" stroke="none" stroke-width="1px">-20</text><text x="21.5" y="0" dx="0em" dy="0.95em" style="text-anchor: middle; visibility: inherit; font-family: Roboto, sans-serif; font-size: 12px; font-weight: 200;" fill="rgb(33, 33, 33)" stroke="none" stroke-width="1px">0</text><text x="43" y="0" dx="0em" dy="0.95em" style="text-anchor: middle; visibility: hidden; font-family: Roboto, sans-serif; font-size: 12px; font-weight: 200;" fill="rgb(33, 33, 33)" stroke="none" stroke-width="1px">20</text><text x="64.5" y="0" dx="0em" dy="0.95em" style="text-anchor: middle; visibility: inherit; font-family: Roboto, sans-serif; font-size: 12px; font-weight: 200;" fill="rgb(33, 33, 33)" stroke="none" stroke-width="1px">40</text><text x="86" y="0" dx="0em" dy="0.95em" style="text-anchor: middle; visibility: hidden; font-family: Roboto, sans-serif; font-size: 12px; font-weight: 200;" fill="rgb(33, 33, 33)" stroke="none" stroke-width="1px">60</text><text x="107.5" y="0" dx="0em" dy="0.95em" style="text-anchor: middle; visibility: inherit; font-family: Roboto, sans-serif; font-size: 12px; font-weight: 200;" fill="rgb(33, 33, 33)" stroke="none" stroke-width="1px">80</text><text x="129" y="0" dx="0em" dy="0.95em" style="text-anchor: middle; visibility: hidden; font-family: Roboto, sans-serif; font-size: 12px; font-weight: 200;" fill="rgb(33, 33, 33)" stroke="none" stroke-width="1px">100</text><text x="150.5" y="0" dx="0em" dy="0.95em" style="text-anchor: middle; visibility: inherit; font-family: Roboto, sans-serif; font-size: 12px; font-weight: 200;" fill="rgb(33, 33, 33)" stroke="none" stroke-width="1px">120</text><text x="172" y="0" dx="0em" dy="0.95em" style="text-anchor: middle; visibility: hidden; font-family: Roboto, sans-serif; font-size: 12px; font-weight: 200;" fill="rgb(33, 33, 33)" stroke="none" stroke-width="1px">140</text><text x="193.5" y="0" dx="0em" dy="0.95em" style="text-anchor: middle; visibility: inherit; font-family: Roboto, sans-serif; font-size: 12px; font-weight: 200;" fill="rgb(33, 33, 33)" stroke="none" stroke-width="1px">160</text><text x="215" y="0" dx="0em" dy="0.95em" style="text-anchor: middle; visibility: hidden; font-family: Roboto, sans-serif; font-size: 12px; font-weight: 200;" fill="rgb(33, 33, 33)" stroke="none" stroke-width="1px">180</text><text x="236.5" y="0" dx="0em" dy="0.95em" style="text-anchor: middle; visibility: inherit; font-family: Roboto, sans-serif; font-size: 12px; font-weight: 200;" fill="rgb(33, 33, 33)" stroke="none" stroke-width="1px">200</text><text x="258" y="0" dx="0em" dy="0.95em" style="text-anchor: middle; visibility: hidden; font-family: Roboto, sans-serif; font-size: 12px; font-weight: 200;" fill="rgb(33, 33, 33)" stroke="none" stroke-width="1px">220</text></g><line x1="0" y1="0" x2="258" y2="0" fill="rgb(0, 0, 0)" stroke="rgb(204, 204, 204)" stroke-width="1px"></line></g></g></g></g></svg>