<svg viewBox="0 0 318 200" xmlns="http://www.w3.org/2000/svg"><g><g><g><g><g><line x1="61.953125" y1="177" x2="56.953125" y2="177" style="visibility: inherit;" fill="rgb(0, 0, 0)" stroke="rgb(204, 204, 204)" stroke-width="1px"></line><line x1="61.953125" y1="162.25" x2="56.953125" y2="162.25" style="visibility: inherit;" fill="rgb(0, 0, 0)" stroke="rgb(204, 204, 204)" stroke-width="1px"></line><line x1="61.953125" y1="147.5" x2="56.953125" y2="147.5" style="visibility: inherit;" fill="rgb(0, 0, 0)" stroke="rgb(204, 204, 204)" stroke-width="1px"></line><line x1="61.953125" y1="132.75" x2="56.953125" y2="132.75" style="visibility: inherit;" fill="rgb(0, 0, 0)" stroke="rgb(204, 204, 204)" stroke-width="1px"></line><line x1="61.953125" y1="118.00000000000001" x2="56.953125" y2="118.00000000000001" style="visibility: inherit;" fill="rgb(0, 0, 0)" stroke="rgb(204, 204, 204)" stroke-width="1px"></line><line x1="61.953125" y1="103.24999999999999" x2="56.953125" y2="103.24999999999999" style="visibility: inherit;" fill="rgb(0, 0, 0)" stroke="rgb(204, 204, 204)" stroke-width="1px"></line><line x1="61.953125" y1="88.5" x2="56.953125" y2="88.5" style="visibility: inherit;" fill="rgb(0, 0, 0)" stroke="rgb(204, 204, 204)" stroke-width="1px"></line><line x1="61.953125" y1="73.75" x2="56.953125" y2="73.75" style="visibility: inherit;" fill="rgb(0, 0, 0)" stroke="rgb(204, 204, 204)" stroke-width="1px"></line><line x1="61.953125" y1="59.00000000000001" x2="56.953125" y2="59.00000000000001" style="visibility: inherit;" fill="rgb(0, 0, 0)" stroke="rgb(204, 204, 204)" stroke-width="1px"></line><line x1="61.953125" y1="44.24999999999998" x2="56.953125" y2="44.24999999999998" style="visibility: inherit;" fill="rgb(0, 0, 0)" stroke="rgb(204, 204, 204)" stroke-width="1px"></line><line x1="61.953125" y1="29.500000000000032" x2="56.953125" y2="29.500000000000032" style="visibility: inherit;" fill="rgb(0, 0, 0)" stroke="rgb(204, 204, 204)" stroke-width="1px"></line><line x1="61.953125" y1="14.750000000000007" x2="56.953125" y2="14.750000000000007" style="visibility: inherit;" fill="rgb(0, 0, 0)" stroke="rgb(204, 204, 204)" stroke-width="1px"></line><line x1="61.953125" y1="0" x2="56.953125" y2="0" style="visibility: inherit;" fill="rgb(0, 0, 0)" stroke="rgb(204, 204, 204)" stroke-width="1px"></line></g><g transform="translate(51.953125, 0)"><text x="0" y="177" dx="0em" dy="0.3em" style="text-anchor: end; visibility: hidden; font-family: Roboto, sans-serif; font-size: 12px; font-weight: 200;" fill="rgb(33, 33, 33)" stroke="none" stroke-width="1px">-1e-3</text><text x="0" y="162.25" dx="0em" dy="0.3em" style="text-anchor: end; visibility: inherit; font-family: Roboto, sans-serif; font-size: 12px; font-weight: 200;" fill="rgb(33, 33, 33)" stroke="none" stroke-width="1px">0</text><text x="0" y="147.5" dx="0em" dy="0.3em" style="text-anchor: end; visibility: hidden; font-family: Roboto, sans-serif; font-size: 12px; font-weight: 200;" fill="rgb(33, 33, 33)" stroke="none" stroke-width="1px">1e-3</text><text x="0" y="132.75" dx="0em" dy="0.3em" style="text-anchor: end; visibility: inherit; font-family: Roboto, sans-serif; font-size: 12px; font-weight: 200;" fill="rgb(33, 33, 33)" stroke="none" stroke-width="1px">2e-3</text><text x="0" y="118.00000000000001" dx="0em" dy="0.3em" style="text-anchor: end; visibility: hidden; font-family: Roboto, sans-serif; font-size: 12px; font-weight: 200;" fill="rgb(33, 33, 33)" stroke="none" stroke-width="1px">3e-3</text><text x="0" y="103.24999999999999" dx="0em" dy="0.3em" style="text-anchor: end; visibility: inherit; font-family: Roboto, sans-serif; font-size: 12px; font-weight: 200;" fill="rgb(33, 33, 33)" stroke="none" stroke-width="1px">4e-3</text><text x="0" y="88.5" dx="0em" dy="0.3em" style="text-anchor: end; visibility: hidden; font-family: Roboto, sans-serif; font-size: 12px; font-weight: 200;" fill="rgb(33, 33, 33)" stroke="none" stroke-width="1px">5e-3</text><text x="0" y="73.75" dx="0em" dy="0.3em" style="text-anchor: end; visibility: inherit; font-family: Roboto, sans-serif; font-size: 12px; font-weight: 200;" fill="rgb(33, 33, 33)" stroke="none" stroke-width="1px">6e-3</text><text x="0" y="59.00000000000001" dx="0em" dy="0.3em" style="text-anchor: end; visibility: hidden; font-family: Roboto, sans-serif; font-size: 12px; font-weight: 200;" fill="rgb(33, 33, 33)" stroke="none" stroke-width="1px">7e-3</text><text x="0" y="44.24999999999998" dx="0em" dy="0.3em" style="text-anchor: end; visibility: inherit; font-family: Roboto, sans-serif; font-size: 12px; font-weight: 200;" fill="rgb(33, 33, 33)" stroke="none" stroke-width="1px">8e-3</text><text x="0" y="29.500000000000032" dx="0em" dy="0.3em" style="text-anchor: end; visibility: hidden; font-family: Roboto, sans-serif; font-size: 12px; font-weight: 200;" fill="rgb(33, 33, 33)" stroke="none" stroke-width="1px">9e-3</text><text x="0" y="14.750000000000007" dx="0em" dy="0.3em" style="text-anchor: end; visibility: inherit; font-family: Roboto, sans-serif; font-size: 12px; font-weight: 200;" fill="rgb(33, 33, 33)" stroke="none" stroke-width="1px">0.01</text><text x="0" y="0" dx="0em" dy="0.3em" style="text-anchor: end; visibility: hidden; font-family: Roboto, sans-serif; font-size: 12px; font-weight: 200;" fill="rgb(33, 33, 33)" stroke="none" stroke-width="1px">0.011</text></g><line x1="61.953125" y1="0" x2="61.953125" y2="177" fill="rgb(0, 0, 0)" stroke="rgb(204, 204, 204)" stroke-width="1px"></line></g></g><g transform="translate(61, 0)" clip-path="url(#clip_0)"><clipPath id="clip_0"><rect width="256" height="177"></rect></clipPath><g><g><g><line x1="0" y1="0" x2="0" y2="177" fill="rgb(0, 0, 0)" stroke="rgb(66, 66, 66)" stroke-width="1px" opacity="0.25"></line><line x1="21.337239583333332" y1="0" x2="21.337239583333332" y2="177" fill="rgb(0, 0, 0)" stroke="rgb(66, 66, 66)" stroke-width="1px" opacity="0.25"></line><line x1="42.674479166666664" y1="0" x2="42.674479166666664" y2="177" fill="rgb(0, 0, 0)" stroke="rgb(66, 66, 66)" stroke-width="1px" opacity="0.25"></line><line x1="64.01171875" y1="0" x2="64.01171875" y2="177" fill="rgb(0, 0, 0)" stroke="rgb(66, 66, 66)" stroke-width="1px" opacity="0.25"></line><line x1="85.34895833333333" y1="0" x2="85.34895833333333" y2="177" fill="rgb(0, 0, 0)" stroke="rgb(66, 66, 66)" stroke-width="1px" opacity="0.25"></line><line x1="106.68619791666667" y1="0" x2="106.68619791666667" y2="177" fill="rgb(0, 0, 0)" stroke="rgb(66, 66, 66)" stroke-width="1px" opacity="0.25"></line><line x1="128.0234375" y1="0" x2="128.0234375" y2="177" fill="rgb(0, 0, 0)" stroke="rgb(66, 66, 66)" stroke-width="1px" opacity="0.25"></line><line x1="149.36067708333334" y1="0" x2="149.36067708333334" y2="177" fill="rgb(0, 0, 0)" stroke="rgb(66, 66, 66)" stroke-width="1px" opacity="0.25"></line><line x1="170.69791666666666" y1="0" x2="170.69791666666666" y2="177" fill="rgb(0, 0, 0)" stroke="rgb(66, 66, 66)" stroke-width="1px" opacity="0.25"></line><line x1="192.03515625" y1="0" x2="192.03515625" y2="177" fill="rgb(0, 0, 0)" stroke="rgb(66, 66, 66)" stroke-width="1px" opacity="0.25"></line><line x1="213.37239583333334" y1="0" x2="213.37239583333334" y2="177" fill="rgb(0, 0, 0)" stroke="rgb(66, 66, 66)" stroke-width="1px" opacity="0.25"></line><line x1="234.70963541666666" y1="0" x2="234.70963541666666" y2="177" fill="rgb(0, 0, 0)" stroke="rgb(66, 66, 66)" stroke-width="1px" opacity="0.25"></line><line x1="256.046875" y1="0" x2="256.046875" y2="177" fill="rgb(0, 0, 0)" stroke="rgb(66, 66, 66)" stroke-width="1px" opacity="0.25"></line></g><g><line x1="0" y1="177" x2="256.046875" y2="177" fill="rgb(0, 0, 0)" stroke="rgb(66, 66, 66)" stroke-width="1px" opacity="0.25"></line><line x1="0" y1="162.25" x2="256.046875" y2="162.25" fill="rgb(0, 0, 0)" stroke="rgb(66, 66, 66)" stroke-width="1px" opacity="0.25"></line><line x1="0" y1="147.5" x2="256.046875" y2="147.5" fill="rgb(0, 0, 0)" stroke="rgb(66, 66, 66)" stroke-width="1px" opacity="0.25"></line><line x1="0" y1="132.75" x2="256.046875" y2="132.75" fill="rgb(0, 0, 0)" stroke="rgb(66, 66, 66)" stroke-width="1px" opacity="0.25"></line><line x1="0" y1="118.00000000000001" x2="256.046875" y2="118.00000000000001" fill="rgb(0, 0, 0)" stroke="rgb(66, 66, 66)" stroke-width="1px" opacity="0.25"></line><line x1="0" y1="103.24999999999999" x2="256.046875" y2="103.24999999999999" fill="rgb(0, 0, 0)" stroke="rgb(66, 66, 66)" stroke-width="1px" opacity="0.25"></line><line x1="0" y1="88.5" x2="256.046875" y2="88.5" fill="rgb(0, 0, 0)" stroke="rgb(66, 66, 66)" stroke-width="1px" opacity="0.25"></line><line x1="0" y1="73.75" x2="256.046875" y2="73.75" fill="rgb(0, 0, 0)" stroke="rgb(66, 66, 66)" stroke-width="1px" opacity="0.25"></line><line x1="0" y1="59.00000000000001" x2="256.046875" y2="59.00000000000001" fill="rgb(0, 0, 0)" stroke="rgb(66, 66, 66)" stroke-width="1px" opacity="0.25"></line><line x1="0" y1="44.24999999999998" x2="256.046875" y2="44.24999999999998" fill="rgb(0, 0, 0)" stroke="rgb(66, 66, 66)" stroke-width="1px" opacity="0.25"></line><line x1="0" y1="29.500000000000032" x2="256.046875" y2="29.500000000000032" fill="rgb(0, 0, 0)" stroke="rgb(66, 66, 66)" stroke-width="1px" opacity="0.25"></line><line x1="0" y1="14.750000000000007" x2="256.046875" y2="14.750000000000007" fill="rgb(0, 0, 0)" stroke="rgb(66, 66, 66)" stroke-width="1px" opacity="0.25"></line><line x1="0" y1="0" x2="256.046875" y2="0" fill="rgb(0, 0, 0)" stroke="rgb(66, 66, 66)" stroke-width="1px" opacity="0.25"></line></g></g></g><g><g><line x1="0" y1="162.25" x2="256.046875" y2="162.25" fill="rgb(0, 0, 0)" stroke="rgb(153, 153, 153)" stroke-width="1.5px"></line></g></g><g><g><line x1="21.337239583333332" y1="0" x2="21.337239583333332" y2="177" fill="rgb(0, 0, 0)" stroke="rgb(153, 153, 153)" stroke-width="1.5px"></line></g></g><g><g><g><g><g><path stroke="rgb(0, 153, 136)" stroke-width="2px" d="M29.872135416666666,-5.785655980929746L30.938997395833333,9.364491742104292L32.005859375,17.695520021021352L33.07272135416667,24.345605581998804L34.139583333333334,31.935261277481906L35.2064453125,41.54199053905903L36.27330729166667,53.45316470507532L37.340169270833336,67.52630352880806L38.407031249999996,81.21929813083261L39.47389322916667,90.21166031621397L40.54075520833333,95.49595759622751L41.607617187500004,98.03812142368405L42.674479166666664,101.03662178758532L43.74134114583333,108.84096287796272L44.808203125,118.90495248977093L45.875065104166666,122.47428048308937L46.94192708333333,125.44187601329757L48.0087890625,128.05229903338477L49.07565104166667,134.84019940975122L50.142513020833334,138.85175946657546L51.209375,139.5363449761644L52.27623697916667,140.90658748196438L53.343098958333336,144.97166005335748L54.409960937499996,142.90047469572164L55.47682291666667,140.23701823921874L56.54368489583333,139.30512709217146L57.610546875000004,140.75483647198416L58.677408854166664,142.4893775607925L59.74427083333333,143.30755032156594L60.8111328125,143.80423760181293L61.877994791666666,144.6027698754333L62.94485677083333,145.8040746571496L64.01171875,147.6796003759373L65.07858072916666,151.04942408530042L66.14544270833333,155.50681744812755L67.21230468750001,155.2482740795822L68.27916666666667,151.34556564467493L69.34602864583333,154.5788460704498L70.412890625,134.593386587454L71.47975260416666,157.35368476330768L72.54661458333334,156.23823499359423L73.6134765625,121.81228376599029L74.68033854166667,151.7269599341089L75.74720052083333,151.5156778829405L76.81406249999999,149.28147373453248L77.88092447916667,147.26824052073061L78.94778645833334,146.94463782384992L80.0146484375,148.386821040418L81.08151041666666,151.05992001795676L82.14837239583333,151.85963109857403L83.21523437500001,153.01181319833267L84.28209635416667,156.91461950942175L85.34895833333333,155.41413085034583L86.4158203125,121.52836728515105L87.48268229166666,153.7213288017083L88.54954427083334,157.8672823003726L89.61640625,155.7918534951168L90.68326822916667,158.31477048655506L91.75013020833333,138.7418822911568L92.81699218749999,158.32373002072563L93.88385416666667,157.75699387327768L94.95071614583334,123.95454612001777L96.017578125,155.85414052353008L97.08444010416666,159.5969800206658L98.15130208333333,158.6301962294383L99.21816406250001,156.08704376668902L100.28502604166667,128.92471923865378L101.35188802083333,159.4935688978294L102.41875,159.19073312275577L103.48561197916666,159.15053992526373L104.55247395833334,125.69175562262535L105.6193359375,157.3284121028846L106.68619791666667,159.15943914538366L107.75305989583333,157.48853839491494L108.81992187499999,158.50331778952386L109.88678385416667,130.99937490792945L110.95364583333334,159.14088903323864L112.0205078125,157.60883122734958L113.08736979166666,158.56289304670645L114.15423177083333,141.28837499325164L115.22109375000001,159.71384332320304L116.28795572916667,150.96925576531794L117.35481770833333,157.44966566731455L118.4216796875,157.57971950247884L119.48854166666666,125.01568534085528L120.55540364583334,158.79394415483694L121.622265625,158.8323236379947L122.68912760416667,156.0458773880382L123.75598958333333,158.02469424548326L124.82285156249999,154.89090023643803L125.88971354166667,143.807570543373L126.95657552083334,160.32260312445578L128.0234375,154.73510968755L129.09029947916667,144.5586723627057L130.15716145833332,159.4454445099982L131.2240234375,156.6342415959807L132.29088541666667,148.08590758789796L133.35774739583334,160.93262372547179L134.42460937500002,140.8633691377472L135.49147135416666,158.10459125955822L136.55833333333334,158.61503400688525L137.62519531249998,158.58996182092233L138.69205729166666,138.52512260805815L139.75891927083333,160.82054165295267L140.82578125,158.25205718161305L141.89264322916668,155.59322236973094L142.95950520833333,147.80174641660415L144.0263671875,160.75560509912611L145.09322916666667,143.73328252136707L146.16009114583332,158.44979411363602L147.226953125,156.9672485626652L148.29381510416667,160.21254865577794L149.36067708333334,134.4058609744534L150.42753906250002,151.53505049843807L151.49440104166666,159.45932189302403L152.56126302083334,161.0233271500474L153.62812499999998,160.46388857344573L154.69498697916666,153.0855380030116L155.76184895833333,150.48349455778953L156.8287109375,159.81117496144725L157.89557291666668,152.33865001087543L158.96243489583333,158.2541731101228L160.029296875,154.9947005029535L161.09615885416667,139.6042418552097L162.16302083333332,155.5281634706771L163.2298828125,153.46639483200852L164.29674479166667,152.6439223877387L165.36360677083334,154.56498800509144L166.43046875000002,157.65872747456888L167.49733072916666,158.13083710114006L168.56419270833334,157.6575890200329L169.63105468749998,158.8670634579612L170.69791666666666,158.37692100345157L171.76477864583333,145.59885062649846L172.831640625,159.0030471731152L173.89850260416668,158.9574300038803L174.96536458333333,154.67967570899054L176.0322265625,148.90277275722474L177.09908854166667,159.9119146655139L178.16595052083332,159.22363840823527L179.2328125,144.170935009839L180.29967447916667,157.3961394157377L181.36653645833334,160.63913941857754L182.43339843750002,155.55963881948264L183.50026041666666,155.79746806784533L184.56712239583334,159.50160998423235L185.63398437499998,138.43231023079716L186.70084635416666,152.2801646994194L187.76770833333333,158.63153129490092L188.8345703125,160.70396425189392L189.90143229166668,160.9147358873597L190.96829427083333,158.38518596015638L192.03515625,150.3682041426655L193.10201822916667,160.68887232418638L194.16888020833332,153.92913538985886L195.2357421875,150.05520212312695L196.30260416666667,159.07112735536066L197.36946614583334,159.65121587456088L198.43632812500002,152.6425864637131L199.50319010416666,160.28370206427644L200.57005208333334,153.14316045865417L201.63691406249998,147.60609879763797L202.70377604166666,154.42819745535962L203.77063802083333,151.4214025143301L204.8375,155.01081315474585L205.90436197916668,160.17294829603634L206.97122395833333,160.2924400891934L208.0380859375,160.5649289892026L209.10494791666667,157.09850782027934L210.17180989583332,157.02683755685575L211.238671875,155.45209350116784L212.30553385416667,156.7353794586379L213.37239583333334,158.2313855602988L214.43925781250002,148.3340511828428L215.50611979166666,159.88518287727493L216.57298177083334,159.36083978036186L217.63984374999998,154.95839101518504L218.70670572916666,156.08017912623473L219.77356770833333,159.83997202297905L220.8404296875,144.93400004599243L221.90729166666668,156.05334774468793L222.97415364583333,157.05423730710754L224.041015625,158.03864546492696L225.10787760416667,159.81692153823678L226.17473958333332,160.2989668851078L227.2416015625,153.35147617466282L228.30846354166667,158.42057249270147L229.37532552083334,158.9573741972854L230.44218750000002,149.4353634249419L231.50904947916666,160.05356382325408L232.57591145833334,159.679546307103L233.64277343749998,155.05197395273717" style="fill: none;" fill="none"></path></g></g></g></g></g><g><g><span fill="rgb(0, 0, 0)" stroke="none" stroke-width="1px">Alt + Scroll to Zoom</span></g></g></g><g transform="translate(61, 177)" clip-path="url(#clip_1)"><clipPath id="clip_1"><rect width="256" height="23"></rect></clipPath><g><g><line x1="0" y1="0" x2="0" y2="5" style="visibility: inherit;" fill="rgb(0, 0, 0)" stroke="rgb(204, 204, 204)" stroke-width="1px"></line><line x1="21.337239583333332" y1="0" x2="21.337239583333332" y2="5" style="visibility: inherit;" fill="rgb(0, 0, 0)" stroke="rgb(204, 204, 204)" stroke-width="1px"></line><line x1="42.674479166666664" y1="0" x2="42.674479166666664" y2="5" style="visibility: inherit;" fill="rgb(0, 0, 0)" stroke="rgb(204, 204, 204)" stroke-width="1px"></line><line x1="64.01171875" y1="0" x2="64.01171875" y2="5" style="visibility: inherit;" fill="rgb(0, 0, 0)" stroke="rgb(204, 204, 204)" stroke-width="1px"></line><line x1="85.34895833333333" y1="0" x2="85.34895833333333" y2="5" style="visibility: inherit;" fill="rgb(0, 0, 0)" stroke="rgb(204, 204, 204)" stroke-width="1px"></line><line x1="106.68619791666667" y1="0" x2="106.68619791666667" y2="5" style="visibility: inherit;" fill="rgb(0, 0, 0)" stroke="rgb(204, 204, 204)" stroke-width="1px"></line><line x1="128.0234375" y1="0" x2="128.0234375" y2="5" style="visibility: inherit;" fill="rgb(0, 0, 0)" stroke="rgb(204, 204, 204)" stroke-width="1px"></line><line x1="149.36067708333334" y1="0" x2="149.36067708333334" y2="5" style="visibility: inherit;" fill="rgb(0, 0, 0)" stroke="rgb(204, 204, 204)" stroke-width="1px"></line><line x1="170.69791666666666" y1="0" x2="170.69791666666666" y2="5" style="visibility: inherit;" fill="rgb(0, 0, 0)" stroke="rgb(204, 204, 204)" stroke-width="1px"></line><line x1="192.03515625" y1="0" x2="192.03515625" y2="5" style="visibility: inherit;" fill="rgb(0, 0, 0)" stroke="rgb(204, 204, 204)" stroke-width="1px"></line><line x1="213.37239583333334" y1="0" x2="213.37239583333334" y2="5" style="visibility: inherit;" fill="rgb(0, 0, 0)" stroke="rgb(204, 204, 204)" stroke-width="1px"></line><line x1="234.70963541666666" y1="0" x2="234.70963541666666" y2="5" style="visibility: inherit;" fill="rgb(0, 0, 0)" stroke="rgb(204, 204, 204)" stroke-width="1px"></line><line x1="256.046875" y1="0" x2="256.046875" y2="5" style="visibility: inherit;" fill="rgb(0, 0, 0)" stroke="rgb(204, 204, 204)" stroke-width="1px"></line></g><g transform="translate(0, 8)"><text x="0" y="0" dx="0em" dy="0.95em" style="text-anchor: middle; visibility: hidden; font-family: Roboto, sans-serif; font-size: 12px; font-weight: 200;" fill="rgb(33, 33, 33)" stroke="none" stroke-width="1px">-20</text><text x="21.337239583333332" y="0" dx="0em" dy="0.95em" style="text-anchor: middle; visibility: inherit; font-family: Roboto, sans-serif; font-size: 12px; font-weight: 200;" fill="rgb(33, 33, 33)" stroke="none" stroke-width="1px">0</text><text x="42.674479166666664" y="0" dx="0em" dy="0.95em" style="text-anchor: middle; visibility: hidden; font-family: Roboto, sans-serif; font-size: 12px; font-weight: 200;" fill="rgb(33, 33, 33)" stroke="none" stroke-width="1px">20</text><text x="64.01171875" y="0" dx="0em" dy="0.95em" style="text-anchor: middle; visibility: inherit; font-family: Roboto, sans-serif; font-size: 12px; font-weight: 200;" fill="rgb(33, 33, 33)" stroke="none" stroke-width="1px">40</text><text x="85.34895833333333" y="0" dx="0em" dy="0.95em" style="text-anchor: middle; visibility: hidden; font-family: Roboto, sans-serif; font-size: 12px; font-weight: 200;" fill="rgb(33, 33, 33)" stroke="none" stroke-width="1px">60</text><text x="106.68619791666667" y="0" dx="0em" dy="0.95em" style="text-anchor: middle; visibility: inherit; font-family: Roboto, sans-serif; font-size: 12px; font-weight: 200;" fill="rgb(33, 33, 33)" stroke="none" stroke-width="1px">80</text><text x="128.0234375" y="0" dx="0em" dy="0.95em" style="text-anchor: middle; visibility: hidden; font-family: Roboto, sans-serif; font-size: 12px; font-weight: 200;" fill="rgb(33, 33, 33)" stroke="none" stroke-width="1px">100</text><text x="149.36067708333334" y="0" dx="0em" dy="0.95em" style="text-anchor: middle; visibility: inherit; font-family: Roboto, sans-serif; font-size: 12px; font-weight: 200;" fill="rgb(33, 33, 33)" stroke="none" stroke-width="1px">120</text><text x="170.69791666666666" y="0" dx="0em" dy="0.95em" style="text-anchor: middle; visibility: hidden; font-family: Roboto, sans-serif; font-size: 12px; font-weight: 200;" fill="rgb(33, 33, 33)" stroke="none" stroke-width="1px">140</text><text x="192.03515625" y="0" dx="0em" dy="0.95em" style="text-anchor: middle; visibility: inherit; font-family: Roboto, sans-serif; font-size: 12px; font-weight: 200;" fill="rgb(33, 33, 33)" stroke="none" stroke-width="1px">160</text><text x="213.37239583333334" y="0" dx="0em" dy="0.95em" style="text-anchor: middle; visibility: hidden; font-family: Roboto, sans-serif; font-size: 12px; font-weight: 200;" fill="rgb(33, 33, 33)" stroke="none" stroke-width="1px">180</text><text x="234.70963541666666" y="0" dx="0em" dy="0.95em" style="text-anchor: middle; visibility: inherit; font-family: Roboto, sans-serif; font-size: 12px; font-weight: 200;" fill="rgb(33, 33, 33)" stroke="none" stroke-width="1px">200</text><text x="256.046875" y="0" dx="0em" dy="0.95em" style="text-anchor: middle; visibility: hidden; font-family: Roboto, sans-serif; font-size: 12px; font-weight: 200;" fill="rgb(33, 33, 33)" stroke="none" stroke-width="1px">220</text></g><line x1="0" y1="0" x2="256.046875" y2="0" fill="rgb(0, 0, 0)" stroke="rgb(204, 204, 204)" stroke-width="1px"></line></g></g></g></g></svg>