<svg viewBox="0 0 330 200" xmlns="http://www.w3.org/2000/svg"><g><g><g><g><g><line x1="61.953125" y1="177" x2="56.953125" y2="177" style="visibility: inherit;" fill="rgb(0, 0, 0)" stroke="rgb(204, 204, 204)" stroke-width="1px"></line><line x1="61.953125" y1="157.33333333333331" x2="56.953125" y2="157.33333333333331" style="visibility: inherit;" fill="rgb(0, 0, 0)" stroke="rgb(204, 204, 204)" stroke-width="1px"></line><line x1="61.953125" y1="137.66666666666666" x2="56.953125" y2="137.66666666666666" style="visibility: inherit;" fill="rgb(0, 0, 0)" stroke="rgb(204, 204, 204)" stroke-width="1px"></line><line x1="61.953125" y1="118.00000000000001" x2="56.953125" y2="118.00000000000001" style="visibility: inherit;" fill="rgb(0, 0, 0)" stroke="rgb(204, 204, 204)" stroke-width="1px"></line><line x1="61.953125" y1="98.33333333333334" x2="56.953125" y2="98.33333333333334" style="visibility: inherit;" fill="rgb(0, 0, 0)" stroke="rgb(204, 204, 204)" stroke-width="1px"></line><line x1="61.953125" y1="78.66666666666666" x2="56.953125" y2="78.66666666666666" style="visibility: inherit;" fill="rgb(0, 0, 0)" stroke="rgb(204, 204, 204)" stroke-width="1px"></line><line x1="61.953125" y1="58.999999999999986" x2="56.953125" y2="58.999999999999986" style="visibility: inherit;" fill="rgb(0, 0, 0)" stroke="rgb(204, 204, 204)" stroke-width="1px"></line><line x1="61.953125" y1="39.33333333333335" x2="56.953125" y2="39.33333333333335" style="visibility: inherit;" fill="rgb(0, 0, 0)" stroke="rgb(204, 204, 204)" stroke-width="1px"></line><line x1="61.953125" y1="19.666666666666657" x2="56.953125" y2="19.666666666666657" style="visibility: inherit;" fill="rgb(0, 0, 0)" stroke="rgb(204, 204, 204)" stroke-width="1px"></line><line x1="61.953125" y1="0" x2="56.953125" y2="0" style="visibility: inherit;" fill="rgb(0, 0, 0)" stroke="rgb(204, 204, 204)" stroke-width="1px"></line></g><g transform="translate(51.953125, 0)"><text x="0" y="177" dx="0em" dy="0.3em" style="text-anchor: end; visibility: hidden; font-family: Roboto, sans-serif; font-size: 12px; font-weight: 200;" fill="rgb(33, 33, 33)" stroke="none" stroke-width="1px">-5e-3</text><text x="0" y="157.33333333333331" dx="0em" dy="0.3em" style="text-anchor: end; visibility: inherit; font-family: Roboto, sans-serif; font-size: 12px; font-weight: 200;" fill="rgb(33, 33, 33)" stroke="none" stroke-width="1px">0</text><text x="0" y="137.66666666666666" dx="0em" dy="0.3em" style="text-anchor: end; visibility: hidden; font-family: Roboto, sans-serif; font-size: 12px; font-weight: 200;" fill="rgb(33, 33, 33)" stroke="none" stroke-width="1px">5e-3</text><text x="0" y="118.00000000000001" dx="0em" dy="0.3em" style="text-anchor: end; visibility: inherit; font-family: Roboto, sans-serif; font-size: 12px; font-weight: 200;" fill="rgb(33, 33, 33)" stroke="none" stroke-width="1px">0.01</text><text x="0" y="98.33333333333334" dx="0em" dy="0.3em" style="text-anchor: end; visibility: hidden; font-family: Roboto, sans-serif; font-size: 12px; font-weight: 200;" fill="rgb(33, 33, 33)" stroke="none" stroke-width="1px">0.015</text><text x="0" y="78.66666666666666" dx="0em" dy="0.3em" style="text-anchor: end; visibility: inherit; font-family: Roboto, sans-serif; font-size: 12px; font-weight: 200;" fill="rgb(33, 33, 33)" stroke="none" stroke-width="1px">0.02</text><text x="0" y="58.999999999999986" dx="0em" dy="0.3em" style="text-anchor: end; visibility: hidden; font-family: Roboto, sans-serif; font-size: 12px; font-weight: 200;" fill="rgb(33, 33, 33)" stroke="none" stroke-width="1px">0.025</text><text x="0" y="39.33333333333335" dx="0em" dy="0.3em" style="text-anchor: end; visibility: inherit; font-family: Roboto, sans-serif; font-size: 12px; font-weight: 200;" fill="rgb(33, 33, 33)" stroke="none" stroke-width="1px">0.03</text><text x="0" y="19.666666666666657" dx="0em" dy="0.3em" style="text-anchor: end; visibility: hidden; font-family: Roboto, sans-serif; font-size: 12px; font-weight: 200;" fill="rgb(33, 33, 33)" stroke="none" stroke-width="1px">0.035</text><text x="0" y="0" dx="0em" dy="0.3em" style="text-anchor: end; visibility: hidden; font-family: Roboto, sans-serif; font-size: 12px; font-weight: 200;" fill="rgb(33, 33, 33)" stroke="none" stroke-width="1px">0.04</text></g><line x1="61.953125" y1="0" x2="61.953125" y2="177" fill="rgb(0, 0, 0)" stroke="rgb(204, 204, 204)" stroke-width="1px"></line></g></g><g transform="translate(61, 0)" clip-path="url(#clip_0)"><clipPath id="clip_0"><rect width="268" height="177"></rect></clipPath><g><g><g><line x1="0" y1="0" x2="0" y2="177" fill="rgb(0, 0, 0)" stroke="rgb(66, 66, 66)" stroke-width="1px" opacity="0.25"></line><line x1="33.505859375" y1="0" x2="33.505859375" y2="177" fill="rgb(0, 0, 0)" stroke="rgb(66, 66, 66)" stroke-width="1px" opacity="0.25"></line><line x1="67.01171875" y1="0" x2="67.01171875" y2="177" fill="rgb(0, 0, 0)" stroke="rgb(66, 66, 66)" stroke-width="1px" opacity="0.25"></line><line x1="100.517578125" y1="0" x2="100.517578125" y2="177" fill="rgb(0, 0, 0)" stroke="rgb(66, 66, 66)" stroke-width="1px" opacity="0.25"></line><line x1="134.0234375" y1="0" x2="134.0234375" y2="177" fill="rgb(0, 0, 0)" stroke="rgb(66, 66, 66)" stroke-width="1px" opacity="0.25"></line><line x1="167.529296875" y1="0" x2="167.529296875" y2="177" fill="rgb(0, 0, 0)" stroke="rgb(66, 66, 66)" stroke-width="1px" opacity="0.25"></line><line x1="201.03515625" y1="0" x2="201.03515625" y2="177" fill="rgb(0, 0, 0)" stroke="rgb(66, 66, 66)" stroke-width="1px" opacity="0.25"></line><line x1="234.541015625" y1="0" x2="234.541015625" y2="177" fill="rgb(0, 0, 0)" stroke="rgb(66, 66, 66)" stroke-width="1px" opacity="0.25"></line><line x1="268.046875" y1="0" x2="268.046875" y2="177" fill="rgb(0, 0, 0)" stroke="rgb(66, 66, 66)" stroke-width="1px" opacity="0.25"></line></g><g><line x1="0" y1="177" x2="268.046875" y2="177" fill="rgb(0, 0, 0)" stroke="rgb(66, 66, 66)" stroke-width="1px" opacity="0.25"></line><line x1="0" y1="157.33333333333331" x2="268.046875" y2="157.33333333333331" fill="rgb(0, 0, 0)" stroke="rgb(66, 66, 66)" stroke-width="1px" opacity="0.25"></line><line x1="0" y1="137.66666666666666" x2="268.046875" y2="137.66666666666666" fill="rgb(0, 0, 0)" stroke="rgb(66, 66, 66)" stroke-width="1px" opacity="0.25"></line><line x1="0" y1="118.00000000000001" x2="268.046875" y2="118.00000000000001" fill="rgb(0, 0, 0)" stroke="rgb(66, 66, 66)" stroke-width="1px" opacity="0.25"></line><line x1="0" y1="98.33333333333334" x2="268.046875" y2="98.33333333333334" fill="rgb(0, 0, 0)" stroke="rgb(66, 66, 66)" stroke-width="1px" opacity="0.25"></line><line x1="0" y1="78.66666666666666" x2="268.046875" y2="78.66666666666666" fill="rgb(0, 0, 0)" stroke="rgb(66, 66, 66)" stroke-width="1px" opacity="0.25"></line><line x1="0" y1="58.999999999999986" x2="268.046875" y2="58.999999999999986" fill="rgb(0, 0, 0)" stroke="rgb(66, 66, 66)" stroke-width="1px" opacity="0.25"></line><line x1="0" y1="39.33333333333335" x2="268.046875" y2="39.33333333333335" fill="rgb(0, 0, 0)" stroke="rgb(66, 66, 66)" stroke-width="1px" opacity="0.25"></line><line x1="0" y1="19.666666666666657" x2="268.046875" y2="19.666666666666657" fill="rgb(0, 0, 0)" stroke="rgb(66, 66, 66)" stroke-width="1px" opacity="0.25"></line><line x1="0" y1="0" x2="268.046875" y2="0" fill="rgb(0, 0, 0)" stroke="rgb(66, 66, 66)" stroke-width="1px" opacity="0.25"></line></g></g></g><g><g><line x1="0" y1="157.33333333333331" x2="268.046875" y2="157.33333333333331" fill="rgb(0, 0, 0)" stroke="rgb(153, 153, 153)" stroke-width="1.5px"></line></g></g><g><g><line x1="33.505859375" y1="0" x2="33.505859375" y2="177" fill="rgb(0, 0, 0)" stroke="rgb(153, 153, 153)" stroke-width="1.5px"></line></g></g><g><g><g><g><g><path stroke="rgb(187, 187, 187)" stroke-width="2px" d="M40.8771484375,-223.96187380949658L41.547265625,5.702099988857907L42.2173828125,98.11862704902887L42.8875,94.99150158464909L43.5576171875,123.09928447256483L44.227734375000004,123.29570170740287L44.8978515625,123.6171879892548L45.567968750000006,134.40304340422153L46.238085937499996,146.41233598130444L46.908203125,147.19189561530948L47.5783203125,136.94320666541654L48.2484375,126.05985512584448L48.9185546875,133.1330881540974L49.588671875,147.64284220772484L50.2587890625,147.70072080132863L50.92890625,147.86731590765217L51.5990234375,152.4683472321679L52.269140625,148.70339783467352L52.9392578125,150.94034045562148L53.609375,146.9987743465851L54.279492187500004,149.63035373265546L54.949609374999994,151.13468569175652L55.6197265625,151.67892671593776L56.289843749999996,153.33215502028662L56.9599609375,144.52852055057883L57.630078125,145.98390251336L58.3001953125,145.17982506752014L58.9703125,151.5186579596872L59.6404296875,154.36102944364148L60.310546875,152.35745844058692L60.980664062500004,152.32266168358427L61.65078125,142.41062009334564L62.320898437500006,131.45639841382703L62.991015624999996,73.38597939908504L63.6611328125,46.83328076203664L64.33125,26.352273712555576L65.0013671875,104.7104017585516L65.671484375,142.93442228126028L66.3416015625,142.24551499448717L67.01171875,138.41579926759005L67.6818359375,131.9170790500939L68.351953125,113.03800677508116L69.0220703125,148.8357044532895L69.6921875,146.03881482904157L70.3623046875,118.3904689202706L71.032421875,113.4427796204885L71.70253906250001,86.57221760849157L72.37265625,75.28663182258606L73.0427734375,118.66934483498335L73.712890625,142.77414619860548L74.38300781250001,145.73321219161153L75.05312500000001,144.50915686413646L75.72324218749999,143.64025630926093L76.39335937499999,143.45248789464432L77.0634765625,135.03402813896537L77.73359375,139.1567954570055L78.4037109375,93.80603076517582L79.07382812499999,11.668899446725845L79.7439453125,101.53187057872614L80.4140625,134.5134523163239L81.0841796875,100.56255799035229L81.754296875,90.36486997207007L82.4244140625,125.02173294872046L83.09453125,141.51077097530165L83.7646484375,87.55767026543616L84.434765625,77.41996351877849L85.1048828125,133.8312083942195L85.775,92.74263981978098L86.4451171875,117.60272660851479L87.115234375,135.01706018671393L87.7853515625,137.09497862433392L88.45546875000001,144.41675808529058L89.1255859375,146.2944907688846L89.795703125,139.22436871503788L90.4658203125,149.4276440323641L91.13593750000001,138.70897998660803L91.80605468750001,119.93322283277907L92.47617187499999,136.8270098939538L93.14628906249999,149.49416228818396L93.81640625,144.64897304711243L94.4865234375,146.37026593647897L95.156640625,150.29823149181902L95.82675781249999,151.895758060428L96.496875,135.14907832816243L97.1669921875,59.01330328484375L97.837109375,13.1804538667202L98.5072265625,109.01473385840653L99.17734375,73.71766769886017L99.8474609375,98.68814874688782L100.517578125,141.03804206723967L101.1876953125,130.0898408604165L101.8578125,144.26736262875298L102.5279296875,147.00970076272884L103.198046875,152.36447118315846L103.8681640625,155.08601469236115L104.53828125,151.73927018667263L105.20839843750001,141.01505913709602L105.878515625,140.7210871664186L106.5486328125,150.72110467683524L107.21875,134.86704839641848L107.88886718750001,-53.76128277182579L108.55898437500001,-8.680613299210844L109.22910156249999,135.07860015084347L109.89921874999999,125.14513157556452L110.5693359375,137.1850292906165L111.239453125,146.0422673970461L111.9095703125,153.14306006859988L112.57968749999999,139.55948027720052L113.2498046875,131.08952322602272L113.919921875,131.17614696671566L114.5900390625,104.56458067148924L115.26015625,127.31622905408342L115.9302734375,149.39679620725414L116.600390625,141.37628933042288L117.2705078125,155.3236914885541L117.940625,155.41678181127645L118.6107421875,141.02470617989698L119.280859375,128.05250703915954L119.9509765625,142.93719990427294L120.62109375,145.48114633746445L121.2912109375,154.30687861610204L121.96132812500001,137.0051111181577L122.6314453125,134.90322068581978L123.3015625,112.4922665854295L123.9716796875,97.40426600227752L124.64179687500001,105.74841037640968L125.31191406250001,93.56269157429536L125.98203124999999,137.72010223567486L126.65214843749999,153.3048229534179L127.322265625,145.83994324877858L127.9923828125,118.84577563901743L128.6625,134.89506273468336L129.3326171875,149.58063217438757L130.002734375,106.23359417170286L130.6728515625,73.28205435474713L131.34296875,74.31864531338213L132.0130859375,101.33024427046378L132.683203125,119.70692852139473L133.3533203125,139.83344200626016L134.0234375,139.8268024524053L134.69355468749998,149.61145344128212L135.363671875,153.86324789623418L136.03378906249998,141.90253029515347L136.70390625,130.1110398111244L137.3740234375,149.17001011098426L138.044140625,149.61578334619603L138.7142578125,142.1651351818194L139.384375,75.51068791747093L140.0544921875,45.11476274828117L140.724609375,129.33709678178033L141.39472656249998,147.22988210556406L142.06484375,139.48649646962681L142.7349609375,146.812147019431L143.40507812500002,155.26172109817463L144.0751953125,154.0445260324826L144.7453125,148.13360780725876L145.4154296875,151.67359492524216L146.085546875,146.85458979507285L146.7556640625,117.81288817773262L147.42578125,45.37252030273279L148.0958984375,55.525656456748635L148.76601562500002,135.19665782898664L149.4361328125,131.51908496022224L150.10625000000002,107.52884383251269L150.7763671875,99.85254150132336L151.44648437499998,114.77928426365057L152.1166015625,112.41641265898943L152.78671874999998,146.04962402271727L153.4568359375,129.44716318448386L154.126953125,141.50970498348275L154.7970703125,154.46730832429603L155.4671875,152.96162853576243L156.1373046875,154.63537855632603L156.807421875,153.84217990500233L157.4775390625,143.00342418812215L158.14765624999998,127.60286363090079L158.8177734375,137.53427348658442L159.487890625,132.87316015238562L160.15800781250002,132.69692899286747L160.828125,144.5201171648999L161.4982421875,138.22115502258143L162.168359375,92.02665231128533L162.8384765625,11.948357810576768L163.50859375,108.96906838069359L164.1787109375,129.74146484335262L164.848828125,143.67350811076662L165.51894531250002,153.80304568773136L166.1890625,151.98890367460749L166.85917968750002,139.3571011809011L167.529296875,146.05158292005459L168.19941406249998,147.49247691842416L168.86953125,134.36699200049043L169.53964843749998,118.0474210307002L170.209765625,120.73629564543565L170.8798828125,140.22737543657422L171.55,150.5959220705554L172.2201171875,142.1481077025334L172.890234375,130.16249681139988L173.5603515625,129.5208301792542L174.23046875,118.73051298409699L174.90058593749998,102.4959997360905L175.570703125,127.59020177274942L176.2408203125,120.24918134262164L176.91093750000002,142.82094543737668L177.5810546875,135.69522879645228L178.251171875,101.82681696116924L178.9212890625,134.15544390926758L179.59140625,135.3210198779901L180.2615234375,95.5815042455991L180.931640625,91.48115755617617L181.6017578125,137.02843106289703L182.27187500000002,153.7866034049851L182.9419921875,150.28664203609029L183.61210937500002,139.34367371350527L184.2822265625,126.3243200033903L184.95234374999998,112.92961628735064L185.6224609375,144.07100217354795L186.29257812499998,144.2592696994543L186.9626953125,126.58681774139403L187.6328125,132.23617692415914L188.3029296875,143.98379598371685L188.973046875,150.77780692465603L189.6431640625,154.49156971198195L190.31328125,155.88886233256198L190.9833984375,144.154856533433L191.65351562499998,119.71526596943535L192.3236328125,61.3613279312849L192.99375,115.85904605935016L193.66386718750002,143.3593793703864L194.333984375,136.02473749096194L195.0041015625,125.06307951112588L195.67421875,45.90680565933388L196.3443359375,98.43128135055302L197.014453125,152.2647011258329L197.6845703125,151.58681824586046L198.3546875,149.47881621867418L199.02480468750002,148.3725529871881L199.694921875,148.64701291173697L200.36503906250002,142.25625641892353L201.03515625,147.77416525656977L201.70527343749998,149.56488681584597L202.375390625,151.01683269503218L203.04550781249998,141.4174802067379L203.715625,145.26790951006114L204.3857421875,138.16013156995177L205.055859375,121.27290713538727L205.7259765625,126.76170084252952L206.39609375,146.49458585865796L207.0662109375,136.83594627554217L207.736328125,101.74848671009143L208.40644531249998,110.15878485143183L209.0765625,129.25920062015456L209.7466796875,148.8048667019854L210.41679687500002,133.79677612582842L211.0869140625,94.97498786946137L211.75703125,107.0659066637357L212.4271484375,140.99588593716422L213.097265625,107.76757837831974L213.7673828125,50.824127013484635L214.4375,110.12459618598221L215.1076171875,151.78884338525432L215.77773437500002,150.83616631353894L216.4478515625,144.54318251709142L217.11796875000002,149.96252786461264L217.7880859375,148.64469227318963L218.45820312499998,150.60488272085786L219.1283203125,134.03126135716835L219.79843749999998,130.56621465459466L220.4685546875,137.51159643381834L221.138671875,149.49325198245546L221.8087890625,152.77488719144213L222.47890625,152.93436927503598L223.1490234375,141.6071003700296L223.819140625,103.15556660542885L224.4892578125,49.74222957094511L225.15937499999998,72.8166811565558L225.8294921875,127.20571940392256L226.499609375,133.4179827099045L227.16972656250002,116.6110758135716L227.83984375,115.47064772744973L228.5099609375,93.84178361793359L229.180078125,121.59815918902555L229.8501953125,148.05842974161106L230.5203125,117.63546464592218L231.1904296875,133.00733775148788L231.860546875,44.93642341593901L232.53066406250002,109.85039451718329L233.20078125,144.32144706075388L233.87089843750002,137.21462063739696" style="fill: none;" fill="none"></path></g></g></g></g></g><g><g><span fill="rgb(0, 0, 0)" stroke="none" stroke-width="1px">Alt + Scroll to Zoom</span></g></g></g><g transform="translate(61, 177)" clip-path="url(#clip_1)"><clipPath id="clip_1"><rect width="268" height="23"></rect></clipPath><g><g><line x1="0" y1="0" x2="0" y2="5" style="visibility: inherit;" fill="rgb(0, 0, 0)" stroke="rgb(204, 204, 204)" stroke-width="1px"></line><line x1="33.505859375" y1="0" x2="33.505859375" y2="5" style="visibility: inherit;" fill="rgb(0, 0, 0)" stroke="rgb(204, 204, 204)" stroke-width="1px"></line><line x1="67.01171875" y1="0" x2="67.01171875" y2="5" style="visibility: inherit;" fill="rgb(0, 0, 0)" stroke="rgb(204, 204, 204)" stroke-width="1px"></line><line x1="100.517578125" y1="0" x2="100.517578125" y2="5" style="visibility: inherit;" fill="rgb(0, 0, 0)" stroke="rgb(204, 204, 204)" stroke-width="1px"></line><line x1="134.0234375" y1="0" x2="134.0234375" y2="5" style="visibility: inherit;" fill="rgb(0, 0, 0)" stroke="rgb(204, 204, 204)" stroke-width="1px"></line><line x1="167.529296875" y1="0" x2="167.529296875" y2="5" style="visibility: inherit;" fill="rgb(0, 0, 0)" stroke="rgb(204, 204, 204)" stroke-width="1px"></line><line x1="201.03515625" y1="0" x2="201.03515625" y2="5" style="visibility: inherit;" fill="rgb(0, 0, 0)" stroke="rgb(204, 204, 204)" stroke-width="1px"></line><line x1="234.541015625" y1="0" x2="234.541015625" y2="5" style="visibility: inherit;" fill="rgb(0, 0, 0)" stroke="rgb(204, 204, 204)" stroke-width="1px"></line><line x1="268.046875" y1="0" x2="268.046875" y2="5" style="visibility: inherit;" fill="rgb(0, 0, 0)" stroke="rgb(204, 204, 204)" stroke-width="1px"></line></g><g transform="translate(0, 8)"><text x="0" y="0" dx="0em" dy="0.95em" style="text-anchor: middle; visibility: hidden; font-family: Roboto, sans-serif; font-size: 12px; font-weight: 200;" fill="rgb(33, 33, 33)" stroke="none" stroke-width="1px">-50</text><text x="33.505859375" y="0" dx="0em" dy="0.95em" style="text-anchor: middle; visibility: inherit; font-family: Roboto, sans-serif; font-size: 12px; font-weight: 200;" fill="rgb(33, 33, 33)" stroke="none" stroke-width="1px">0</text><text x="67.01171875" y="0" dx="0em" dy="0.95em" style="text-anchor: middle; visibility: inherit; font-family: Roboto, sans-serif; font-size: 12px; font-weight: 200;" fill="rgb(33, 33, 33)" stroke="none" stroke-width="1px">50</text><text x="100.517578125" y="0" dx="0em" dy="0.95em" style="text-anchor: middle; visibility: inherit; font-family: Roboto, sans-serif; font-size: 12px; font-weight: 200;" fill="rgb(33, 33, 33)" stroke="none" stroke-width="1px">100</text><text x="134.0234375" y="0" dx="0em" dy="0.95em" style="text-anchor: middle; visibility: inherit; font-family: Roboto, sans-serif; font-size: 12px; font-weight: 200;" fill="rgb(33, 33, 33)" stroke="none" stroke-width="1px">150</text><text x="167.529296875" y="0" dx="0em" dy="0.95em" style="text-anchor: middle; visibility: inherit; font-family: Roboto, sans-serif; font-size: 12px; font-weight: 200;" fill="rgb(33, 33, 33)" stroke="none" stroke-width="1px">200</text><text x="201.03515625" y="0" dx="0em" dy="0.95em" style="text-anchor: middle; visibility: inherit; font-family: Roboto, sans-serif; font-size: 12px; font-weight: 200;" fill="rgb(33, 33, 33)" stroke="none" stroke-width="1px">250</text><text x="234.541015625" y="0" dx="0em" dy="0.95em" style="text-anchor: middle; visibility: inherit; font-family: Roboto, sans-serif; font-size: 12px; font-weight: 200;" fill="rgb(33, 33, 33)" stroke="none" stroke-width="1px">300</text><text x="268.046875" y="0" dx="0em" dy="0.95em" style="text-anchor: middle; visibility: hidden; font-family: Roboto, sans-serif; font-size: 12px; font-weight: 200;" fill="rgb(33, 33, 33)" stroke="none" stroke-width="1px">350</text></g><line x1="0" y1="0" x2="268.046875" y2="0" fill="rgb(0, 0, 0)" stroke="rgb(204, 204, 204)" stroke-width="1px"></line></g></g></g></g></svg>