<svg viewBox="0 0 330 200" xmlns="http://www.w3.org/2000/svg"><g><g><g><g><g><line x1="30.78125" y1="177" x2="25.78125" y2="177" style="visibility: inherit;" fill="rgb(0, 0, 0)" stroke="rgb(204, 204, 204)" stroke-width="1px"></line><line x1="30.78125" y1="159.3" x2="25.78125" y2="159.3" style="visibility: inherit;" fill="rgb(0, 0, 0)" stroke="rgb(204, 204, 204)" stroke-width="1px"></line><line x1="30.78125" y1="141.6" x2="25.78125" y2="141.6" style="visibility: inherit;" fill="rgb(0, 0, 0)" stroke="rgb(204, 204, 204)" stroke-width="1px"></line><line x1="30.78125" y1="123.89999999999999" x2="25.78125" y2="123.89999999999999" style="visibility: inherit;" fill="rgb(0, 0, 0)" stroke="rgb(204, 204, 204)" stroke-width="1px"></line><line x1="30.78125" y1="106.2" x2="25.78125" y2="106.2" style="visibility: inherit;" fill="rgb(0, 0, 0)" stroke="rgb(204, 204, 204)" stroke-width="1px"></line><line x1="30.78125" y1="88.5" x2="25.78125" y2="88.5" style="visibility: inherit;" fill="rgb(0, 0, 0)" stroke="rgb(204, 204, 204)" stroke-width="1px"></line><line x1="30.78125" y1="70.8" x2="25.78125" y2="70.8" style="visibility: inherit;" fill="rgb(0, 0, 0)" stroke="rgb(204, 204, 204)" stroke-width="1px"></line><line x1="30.78125" y1="53.10000000000001" x2="25.78125" y2="53.10000000000001" style="visibility: inherit;" fill="rgb(0, 0, 0)" stroke="rgb(204, 204, 204)" stroke-width="1px"></line><line x1="30.78125" y1="35.39999999999999" x2="25.78125" y2="35.39999999999999" style="visibility: inherit;" fill="rgb(0, 0, 0)" stroke="rgb(204, 204, 204)" stroke-width="1px"></line><line x1="30.78125" y1="17.699999999999996" x2="25.78125" y2="17.699999999999996" style="visibility: inherit;" fill="rgb(0, 0, 0)" stroke="rgb(204, 204, 204)" stroke-width="1px"></line><line x1="30.78125" y1="0" x2="25.78125" y2="0" style="visibility: inherit;" fill="rgb(0, 0, 0)" stroke="rgb(204, 204, 204)" stroke-width="1px"></line></g><g transform="translate(20.78125, 0)"><text x="0" y="177" dx="0em" dy="0.3em" style="text-anchor: end; visibility: hidden; font-family: Roboto, sans-serif; font-size: 12px; font-weight: 200;" fill="rgb(33, 33, 33)" stroke="none" stroke-width="1px">-5</text><text x="0" y="159.3" dx="0em" dy="0.3em" style="text-anchor: end; visibility: inherit; font-family: Roboto, sans-serif; font-size: 12px; font-weight: 200;" fill="rgb(33, 33, 33)" stroke="none" stroke-width="1px">0</text><text x="0" y="141.6" dx="0em" dy="0.3em" style="text-anchor: end; visibility: hidden; font-family: Roboto, sans-serif; font-size: 12px; font-weight: 200;" fill="rgb(33, 33, 33)" stroke="none" stroke-width="1px">5</text><text x="0" y="123.89999999999999" dx="0em" dy="0.3em" style="text-anchor: end; visibility: inherit; font-family: Roboto, sans-serif; font-size: 12px; font-weight: 200;" fill="rgb(33, 33, 33)" stroke="none" stroke-width="1px">10</text><text x="0" y="106.2" dx="0em" dy="0.3em" style="text-anchor: end; visibility: hidden; font-family: Roboto, sans-serif; font-size: 12px; font-weight: 200;" fill="rgb(33, 33, 33)" stroke="none" stroke-width="1px">15</text><text x="0" y="88.5" dx="0em" dy="0.3em" style="text-anchor: end; visibility: inherit; font-family: Roboto, sans-serif; font-size: 12px; font-weight: 200;" fill="rgb(33, 33, 33)" stroke="none" stroke-width="1px">20</text><text x="0" y="70.8" dx="0em" dy="0.3em" style="text-anchor: end; visibility: hidden; font-family: Roboto, sans-serif; font-size: 12px; font-weight: 200;" fill="rgb(33, 33, 33)" stroke="none" stroke-width="1px">25</text><text x="0" y="53.10000000000001" dx="0em" dy="0.3em" style="text-anchor: end; visibility: inherit; font-family: Roboto, sans-serif; font-size: 12px; font-weight: 200;" fill="rgb(33, 33, 33)" stroke="none" stroke-width="1px">30</text><text x="0" y="35.39999999999999" dx="0em" dy="0.3em" style="text-anchor: end; visibility: hidden; font-family: Roboto, sans-serif; font-size: 12px; font-weight: 200;" fill="rgb(33, 33, 33)" stroke="none" stroke-width="1px">35</text><text x="0" y="17.699999999999996" dx="0em" dy="0.3em" style="text-anchor: end; visibility: inherit; font-family: Roboto, sans-serif; font-size: 12px; font-weight: 200;" fill="rgb(33, 33, 33)" stroke="none" stroke-width="1px">40</text><text x="0" y="0" dx="0em" dy="0.3em" style="text-anchor: end; visibility: hidden; font-family: Roboto, sans-serif; font-size: 12px; font-weight: 200;" fill="rgb(33, 33, 33)" stroke="none" stroke-width="1px">45</text></g><line x1="30.78125" y1="0" x2="30.78125" y2="177" fill="rgb(0, 0, 0)" stroke="rgb(204, 204, 204)" stroke-width="1px"></line></g></g><g transform="translate(30, 0)" clip-path="url(#clip_0)"><clipPath id="clip_0"><rect width="299" height="177"></rect></clipPath><g><g><g><line x1="0" y1="0" x2="0" y2="177" fill="rgb(0, 0, 0)" stroke="rgb(66, 66, 66)" stroke-width="1px" opacity="0.25"></line><line x1="24.934895833333332" y1="0" x2="24.934895833333332" y2="177" fill="rgb(0, 0, 0)" stroke="rgb(66, 66, 66)" stroke-width="1px" opacity="0.25"></line><line x1="49.869791666666664" y1="0" x2="49.869791666666664" y2="177" fill="rgb(0, 0, 0)" stroke="rgb(66, 66, 66)" stroke-width="1px" opacity="0.25"></line><line x1="74.8046875" y1="0" x2="74.8046875" y2="177" fill="rgb(0, 0, 0)" stroke="rgb(66, 66, 66)" stroke-width="1px" opacity="0.25"></line><line x1="99.73958333333333" y1="0" x2="99.73958333333333" y2="177" fill="rgb(0, 0, 0)" stroke="rgb(66, 66, 66)" stroke-width="1px" opacity="0.25"></line><line x1="124.67447916666667" y1="0" x2="124.67447916666667" y2="177" fill="rgb(0, 0, 0)" stroke="rgb(66, 66, 66)" stroke-width="1px" opacity="0.25"></line><line x1="149.609375" y1="0" x2="149.609375" y2="177" fill="rgb(0, 0, 0)" stroke="rgb(66, 66, 66)" stroke-width="1px" opacity="0.25"></line><line x1="174.54427083333334" y1="0" x2="174.54427083333334" y2="177" fill="rgb(0, 0, 0)" stroke="rgb(66, 66, 66)" stroke-width="1px" opacity="0.25"></line><line x1="199.47916666666666" y1="0" x2="199.47916666666666" y2="177" fill="rgb(0, 0, 0)" stroke="rgb(66, 66, 66)" stroke-width="1px" opacity="0.25"></line><line x1="224.4140625" y1="0" x2="224.4140625" y2="177" fill="rgb(0, 0, 0)" stroke="rgb(66, 66, 66)" stroke-width="1px" opacity="0.25"></line><line x1="249.34895833333334" y1="0" x2="249.34895833333334" y2="177" fill="rgb(0, 0, 0)" stroke="rgb(66, 66, 66)" stroke-width="1px" opacity="0.25"></line><line x1="274.28385416666663" y1="0" x2="274.28385416666663" y2="177" fill="rgb(0, 0, 0)" stroke="rgb(66, 66, 66)" stroke-width="1px" opacity="0.25"></line><line x1="299.21875" y1="0" x2="299.21875" y2="177" fill="rgb(0, 0, 0)" stroke="rgb(66, 66, 66)" stroke-width="1px" opacity="0.25"></line></g><g><line x1="0" y1="177" x2="299.21875" y2="177" fill="rgb(0, 0, 0)" stroke="rgb(66, 66, 66)" stroke-width="1px" opacity="0.25"></line><line x1="0" y1="159.3" x2="299.21875" y2="159.3" fill="rgb(0, 0, 0)" stroke="rgb(66, 66, 66)" stroke-width="1px" opacity="0.25"></line><line x1="0" y1="141.6" x2="299.21875" y2="141.6" fill="rgb(0, 0, 0)" stroke="rgb(66, 66, 66)" stroke-width="1px" opacity="0.25"></line><line x1="0" y1="123.89999999999999" x2="299.21875" y2="123.89999999999999" fill="rgb(0, 0, 0)" stroke="rgb(66, 66, 66)" stroke-width="1px" opacity="0.25"></line><line x1="0" y1="106.2" x2="299.21875" y2="106.2" fill="rgb(0, 0, 0)" stroke="rgb(66, 66, 66)" stroke-width="1px" opacity="0.25"></line><line x1="0" y1="88.5" x2="299.21875" y2="88.5" fill="rgb(0, 0, 0)" stroke="rgb(66, 66, 66)" stroke-width="1px" opacity="0.25"></line><line x1="0" y1="70.8" x2="299.21875" y2="70.8" fill="rgb(0, 0, 0)" stroke="rgb(66, 66, 66)" stroke-width="1px" opacity="0.25"></line><line x1="0" y1="53.10000000000001" x2="299.21875" y2="53.10000000000001" fill="rgb(0, 0, 0)" stroke="rgb(66, 66, 66)" stroke-width="1px" opacity="0.25"></line><line x1="0" y1="35.39999999999999" x2="299.21875" y2="35.39999999999999" fill="rgb(0, 0, 0)" stroke="rgb(66, 66, 66)" stroke-width="1px" opacity="0.25"></line><line x1="0" y1="17.699999999999996" x2="299.21875" y2="17.699999999999996" fill="rgb(0, 0, 0)" stroke="rgb(66, 66, 66)" stroke-width="1px" opacity="0.25"></line><line x1="0" y1="0" x2="299.21875" y2="0" fill="rgb(0, 0, 0)" stroke="rgb(66, 66, 66)" stroke-width="1px" opacity="0.25"></line></g></g></g><g><g><line x1="0" y1="159.3" x2="299.21875" y2="159.3" fill="rgb(0, 0, 0)" stroke="rgb(153, 153, 153)" stroke-width="1.5px"></line></g></g><g><g><line x1="24.934895833333332" y1="0" x2="24.934895833333332" y2="177" fill="rgb(0, 0, 0)" stroke="rgb(153, 153, 153)" stroke-width="1.5px"></line></g></g><g><g><g><g><g><path stroke="rgb(51, 187, 238)" stroke-width="2px" d="M29.921875,-87.33546661376955L31.168619791666668,29.604057540893553L32.415364583333336,10.540056152343745L33.662109375,-63.296149063110335L34.908854166666664,19.53785774230957L36.155598958333336,98.81181106567384L37.40234375,-2.131421813964825L38.64908854166667,80.12352550506591L39.895833333333336,100.85570652008055L41.142578125,21.737636947631827L42.389322916666664,81.03441947937011L43.636067708333336,112.72212495803832L44.8828125,99.85971015930176L46.12955729166667,76.12578620910644L47.37630208333333,115.6320337486267L48.623046875,119.56834659576417L49.869791666666664,8.329703292846677L51.116536458333336,110.312054271698L52.36328125,111.98369430541992L53.610026041666664,142.22242429733276L54.85677083333333,88.40794303894043L56.103515625,130.4164735221863L57.35026041666667,134.39024654388427L58.597005208333336,143.5339389038086L59.84375,102.62314750671386L61.090494791666664,138.99256456375122L62.337239583333336,113.35692569732666L63.583984375,138.55914264678955L64.83072916666667,134.29867910385133L66.07747395833333,137.36200716018678L67.32421875,118.44979442596437L68.57096354166666,126.70825046539306L69.81770833333333,124.59808736801148L71.064453125,129.81120946884155L72.31119791666667,132.36289014816285L73.55794270833333,145.3092510509491L74.8046875,134.09245739936827L76.05143229166666,142.1523198223114L77.29817708333334,149.40241318702698L78.544921875,124.92663362503052L79.79166666666667,119.21979749679565L81.03841145833333,125.0303985786438L82.28515625,139.42931184768676L83.53190104166667,130.4920319366455L84.77864583333333,116.70058387756347L86.025390625,129.72997598648072L87.27213541666667,146.87514103889467L88.51888020833333,134.53871658325195L89.765625,143.6596698474884L91.01236979166666,138.2338457965851L92.25911458333334,127.461457901001L93.505859375,143.1787762069702L94.75260416666666,129.6779550933838L95.99934895833334,139.80699588775636L97.24609375,122.69158864974976L98.49283854166667,100.74189456939696L99.73958333333333,137.15488068580626L100.986328125,147.40489562988282L102.23307291666667,143.255580368042L103.47981770833333,146.61332493782044L104.7265625,127.25571052551268L105.97330729166667,123.51513856887817L107.22005208333333,144.25375425338746L108.466796875,136.55432447433472L109.71354166666666,146.5360557317734L110.96028645833334,136.63797011375428L112.20703125,145.56267861843108L113.45377604166666,134.72831820487977L114.70052083333334,138.9448143196106L115.947265625,138.05057081222535L117.19401041666667,139.44058433532715L118.44075520833333,139.33817991256714L119.6875,144.1319006538391L120.93424479166667,146.95476247787477L122.18098958333333,137.89466174125673L123.427734375,127.04545280456543L124.67447916666667,139.9025385761261L125.92122395833333,143.4040554714203L127.16796875,139.93166001319887L128.41471354166666,145.53500464439392L129.66145833333334,142.21497513771058L130.908203125,138.38835213661193L132.15494791666666,149.781739654541L133.40169270833334,141.46240407943725L134.6484375,152.7110790538788L135.89518229166666,131.34003427505493L137.14192708333331,143.3241268157959L138.388671875,127.35449586868285L139.63541666666666,114.44570486068724L140.88216145833334,151.97173350334168L142.12890625,142.30166255950928L143.37565104166669,146.32772571086883L144.62239583333334,143.8756499004364L145.869140625,145.09051786422728L147.11588541666666,138.22889150619508L148.36263020833334,126.07260910034181L149.609375,141.8462628364563L150.85611979166666,141.01138472557068L152.10286458333331,114.3329563522339L153.349609375,140.07094393730162L154.59635416666669,143.58008723258973L155.84309895833334,117.51515361785889L157.08984375,151.17091086387634L158.33658854166666,150.81617438793182L159.58333333333334,149.3424553012848L160.830078125,147.51043551921845L162.07682291666666,126.17507766723632L163.32356770833331,58.759463996887206L164.5703125,148.83599600315094L165.81705729166669,151.97458707332612L167.06380208333334,152.12090912818908L168.310546875,139.23634097099304L169.55729166666666,152.57106084823607L170.80403645833331,149.54395819187164L172.05078125,148.84976673603057L173.29752604166669,147.9175583410263L174.54427083333334,148.9344859457016L175.791015625,131.72900261878968L177.03776041666666,105.2700045776367L178.28450520833334,153.94902118206025L179.53125,137.55259457588195L180.77799479166666,149.4712457513809L182.02473958333331,138.2467809677124L183.271484375,154.2493870639801L184.51822916666669,146.8120856666565L185.76497395833334,147.09211279392244L187.01171875,122.8854119682312L188.25846354166666,148.70828249931336L189.50520833333331,146.90407257556916L190.751953125,116.6010558128357L191.99869791666669,151.4320897436142L193.24544270833334,151.1975045156479L194.4921875,156.06559236288072L195.73893229166666,149.7550438785553L196.98567708333334,140.08144669532777L198.232421875,153.4584417772293L199.47916666666666,156.69428738236428L200.72591145833331,142.03396883010865L201.97265625,134.4686543083191L203.21940104166669,102.6849284362793L204.46614583333334,153.35036059856415L205.712890625,155.0712991976738L206.95963541666666,149.54510012626648L208.20638020833331,150.50260578632356L209.453125,145.07972308158875L210.69986979166669,152.3132212615013L211.94661458333334,146.85048943519593L213.193359375,152.1070219230652L214.44010416666666,142.82676670074463L215.68684895833334,144.33341282844543L216.93359375,142.76863354682922L218.18033854166666,126.38322538375854L219.42708333333331,144.84897468566894L220.673828125,151.5411297082901L221.92057291666669,147.78801082134245L223.16731770833334,148.5564499568939L224.4140625,139.6615541267395L225.66080729166666,119.42969398498535L226.90755208333331,152.9014769911766L228.154296875,150.46387623310088L229.40104166666669,152.56801906585693L230.64778645833334,149.2080784034729L231.89453125,141.03018739700317L233.14127604166666,121.39735582351685L234.38802083333334,150.9378836631775L235.634765625,155.13173352241515L236.88151041666666,148.9802156496048L238.12825520833331,153.58258135557176L239.375,147.11940527915954L240.62174479166669,137.25889377593995L241.86848958333334,152.47968077659607L243.115234375,147.884640583992L244.36197916666666,152.43037334918975L245.60872395833331,141.43475964546204L246.85546875,129.90230089187622L248.10221354166669,142.69475807189943L249.34895833333334,151.26581042289735L250.595703125,148.42668721675872L251.84244791666666,148.21781619071962L253.08919270833334,148.72171309947967L254.3359375,146.05212115287782L255.58268229166666,153.60498369455337L256.8294270833333,152.92571503400802L258.076171875,155.97551078796386L259.3229166666667,142.35489037513733L260.5696614583333,156.39489716649055L261.81640625,145.8559464454651L263.0631510416667,148.7966385126114L264.3098958333333,143.75717568397522L265.556640625,150.71387040138245L266.8033854166667,143.79815365791322L268.05013020833337,152.11938654899598L269.296875,146.21058839321137L270.5436197916667,153.9043996524811L271.7903645833333,152.71283879756928L273.037109375,142.15026045799254" style="fill: none;" fill="none"></path></g></g></g></g></g></g><g transform="translate(30, 177)" clip-path="url(#clip_1)"><clipPath id="clip_1"><rect width="299" height="23"></rect></clipPath><g><g><line x1="0" y1="0" x2="0" y2="5" style="visibility: inherit;" fill="rgb(0, 0, 0)" stroke="rgb(204, 204, 204)" stroke-width="1px"></line><line x1="24.934895833333332" y1="0" x2="24.934895833333332" y2="5" style="visibility: inherit;" fill="rgb(0, 0, 0)" stroke="rgb(204, 204, 204)" stroke-width="1px"></line><line x1="49.869791666666664" y1="0" x2="49.869791666666664" y2="5" style="visibility: inherit;" fill="rgb(0, 0, 0)" stroke="rgb(204, 204, 204)" stroke-width="1px"></line><line x1="74.8046875" y1="0" x2="74.8046875" y2="5" style="visibility: inherit;" fill="rgb(0, 0, 0)" stroke="rgb(204, 204, 204)" stroke-width="1px"></line><line x1="99.73958333333333" y1="0" x2="99.73958333333333" y2="5" style="visibility: inherit;" fill="rgb(0, 0, 0)" stroke="rgb(204, 204, 204)" stroke-width="1px"></line><line x1="124.67447916666667" y1="0" x2="124.67447916666667" y2="5" style="visibility: inherit;" fill="rgb(0, 0, 0)" stroke="rgb(204, 204, 204)" stroke-width="1px"></line><line x1="149.609375" y1="0" x2="149.609375" y2="5" style="visibility: inherit;" fill="rgb(0, 0, 0)" stroke="rgb(204, 204, 204)" stroke-width="1px"></line><line x1="174.54427083333334" y1="0" x2="174.54427083333334" y2="5" style="visibility: inherit;" fill="rgb(0, 0, 0)" stroke="rgb(204, 204, 204)" stroke-width="1px"></line><line x1="199.47916666666666" y1="0" x2="199.47916666666666" y2="5" style="visibility: inherit;" fill="rgb(0, 0, 0)" stroke="rgb(204, 204, 204)" stroke-width="1px"></line><line x1="224.4140625" y1="0" x2="224.4140625" y2="5" style="visibility: inherit;" fill="rgb(0, 0, 0)" stroke="rgb(204, 204, 204)" stroke-width="1px"></line><line x1="249.34895833333334" y1="0" x2="249.34895833333334" y2="5" style="visibility: inherit;" fill="rgb(0, 0, 0)" stroke="rgb(204, 204, 204)" stroke-width="1px"></line><line x1="274.28385416666663" y1="0" x2="274.28385416666663" y2="5" style="visibility: inherit;" fill="rgb(0, 0, 0)" stroke="rgb(204, 204, 204)" stroke-width="1px"></line><line x1="299.21875" y1="0" x2="299.21875" y2="5" style="visibility: inherit;" fill="rgb(0, 0, 0)" stroke="rgb(204, 204, 204)" stroke-width="1px"></line></g><g transform="translate(0, 8)"><text x="0" y="0" dx="0em" dy="0.95em" style="text-anchor: middle; visibility: hidden; font-family: Roboto, sans-serif; font-size: 12px; font-weight: 200;" fill="rgb(33, 33, 33)" stroke="none" stroke-width="1px">-20</text><text x="24.934895833333332" y="0" dx="0em" dy="0.95em" style="text-anchor: middle; visibility: inherit; font-family: Roboto, sans-serif; font-size: 12px; font-weight: 200;" fill="rgb(33, 33, 33)" stroke="none" stroke-width="1px">0</text><text x="49.869791666666664" y="0" dx="0em" dy="0.95em" style="text-anchor: middle; visibility: inherit; font-family: Roboto, sans-serif; font-size: 12px; font-weight: 200;" fill="rgb(33, 33, 33)" stroke="none" stroke-width="1px">20</text><text x="74.8046875" y="0" dx="0em" dy="0.95em" style="text-anchor: middle; visibility: inherit; font-family: Roboto, sans-serif; font-size: 12px; font-weight: 200;" fill="rgb(33, 33, 33)" stroke="none" stroke-width="1px">40</text><text x="99.73958333333333" y="0" dx="0em" dy="0.95em" style="text-anchor: middle; visibility: inherit; font-family: Roboto, sans-serif; font-size: 12px; font-weight: 200;" fill="rgb(33, 33, 33)" stroke="none" stroke-width="1px">60</text><text x="124.67447916666667" y="0" dx="0em" dy="0.95em" style="text-anchor: middle; visibility: inherit; font-family: Roboto, sans-serif; font-size: 12px; font-weight: 200;" fill="rgb(33, 33, 33)" stroke="none" stroke-width="1px">80</text><text x="149.609375" y="0" dx="0em" dy="0.95em" style="text-anchor: middle; visibility: inherit; font-family: Roboto, sans-serif; font-size: 12px; font-weight: 200;" fill="rgb(33, 33, 33)" stroke="none" stroke-width="1px">100</text><text x="174.54427083333334" y="0" dx="0em" dy="0.95em" style="text-anchor: middle; visibility: inherit; font-family: Roboto, sans-serif; font-size: 12px; font-weight: 200;" fill="rgb(33, 33, 33)" stroke="none" stroke-width="1px">120</text><text x="199.47916666666666" y="0" dx="0em" dy="0.95em" style="text-anchor: middle; visibility: inherit; font-family: Roboto, sans-serif; font-size: 12px; font-weight: 200;" fill="rgb(33, 33, 33)" stroke="none" stroke-width="1px">140</text><text x="224.4140625" y="0" dx="0em" dy="0.95em" style="text-anchor: middle; visibility: inherit; font-family: Roboto, sans-serif; font-size: 12px; font-weight: 200;" fill="rgb(33, 33, 33)" stroke="none" stroke-width="1px">160</text><text x="249.34895833333334" y="0" dx="0em" dy="0.95em" style="text-anchor: middle; visibility: inherit; font-family: Roboto, sans-serif; font-size: 12px; font-weight: 200;" fill="rgb(33, 33, 33)" stroke="none" stroke-width="1px">180</text><text x="274.28385416666663" y="0" dx="0em" dy="0.95em" style="text-anchor: middle; visibility: inherit; font-family: Roboto, sans-serif; font-size: 12px; font-weight: 200;" fill="rgb(33, 33, 33)" stroke="none" stroke-width="1px">200</text><text x="299.21875" y="0" dx="0em" dy="0.95em" style="text-anchor: middle; visibility: hidden; font-family: Roboto, sans-serif; font-size: 12px; font-weight: 200;" fill="rgb(33, 33, 33)" stroke="none" stroke-width="1px">220</text></g><line x1="0" y1="0" x2="299.21875" y2="0" fill="rgb(0, 0, 0)" stroke="rgb(204, 204, 204)" stroke-width="1px"></line></g></g></g></g></svg>