<svg viewBox="0 0 301 200" xmlns="http://www.w3.org/2000/svg"><g><g><g><g><g><line x1="60" y1="177" x2="55" y2="177" style="visibility: inherit;" fill="rgb(0, 0, 0)" stroke="rgb(204, 204, 204)" stroke-width="1px"></line><line x1="60" y1="151.7142857142857" x2="55" y2="151.7142857142857" style="visibility: inherit;" fill="rgb(0, 0, 0)" stroke="rgb(204, 204, 204)" stroke-width="1px"></line><line x1="60" y1="126.42857142857142" x2="55" y2="126.42857142857142" style="visibility: inherit;" fill="rgb(0, 0, 0)" stroke="rgb(204, 204, 204)" stroke-width="1px"></line><line x1="60" y1="101.14285714285714" x2="55" y2="101.14285714285714" style="visibility: inherit;" fill="rgb(0, 0, 0)" stroke="rgb(204, 204, 204)" stroke-width="1px"></line><line x1="60" y1="75.85714285714285" x2="55" y2="75.85714285714285" style="visibility: inherit;" fill="rgb(0, 0, 0)" stroke="rgb(204, 204, 204)" stroke-width="1px"></line><line x1="60" y1="50.57142857142855" x2="55" y2="50.57142857142855" style="visibility: inherit;" fill="rgb(0, 0, 0)" stroke="rgb(204, 204, 204)" stroke-width="1px"></line><line x1="60" y1="25.285714285714256" x2="55" y2="25.285714285714256" style="visibility: inherit;" fill="rgb(0, 0, 0)" stroke="rgb(204, 204, 204)" stroke-width="1px"></line><line x1="60" y1="0" x2="55" y2="0" style="visibility: inherit;" fill="rgb(0, 0, 0)" stroke="rgb(204, 204, 204)" stroke-width="1px"></line></g><g transform="translate(50, 0)"><text x="0" y="177" dx="0em" dy="0.3em" style="text-anchor: end; visibility: hidden; font-family: Roboto, sans-serif; font-size: 12px; font-weight: 200;" fill="rgb(33, 33, 33)" stroke="none" stroke-width="1px">-5e-3</text><text x="0" y="151.7142857142857" dx="0em" dy="0.3em" style="text-anchor: end; visibility: inherit; font-family: Roboto, sans-serif; font-size: 12px; font-weight: 200;" fill="rgb(33, 33, 33)" stroke="none" stroke-width="1px">0</text><text x="0" y="126.42857142857142" dx="0em" dy="0.3em" style="text-anchor: end; visibility: inherit; font-family: Roboto, sans-serif; font-size: 12px; font-weight: 200;" fill="rgb(33, 33, 33)" stroke="none" stroke-width="1px">5e-3</text><text x="0" y="101.14285714285714" dx="0em" dy="0.3em" style="text-anchor: end; visibility: inherit; font-family: Roboto, sans-serif; font-size: 12px; font-weight: 200;" fill="rgb(33, 33, 33)" stroke="none" stroke-width="1px">0.01</text><text x="0" y="75.85714285714285" dx="0em" dy="0.3em" style="text-anchor: end; visibility: inherit; font-family: Roboto, sans-serif; font-size: 12px; font-weight: 200;" fill="rgb(33, 33, 33)" stroke="none" stroke-width="1px">0.015</text><text x="0" y="50.57142857142855" dx="0em" dy="0.3em" style="text-anchor: end; visibility: inherit; font-family: Roboto, sans-serif; font-size: 12px; font-weight: 200;" fill="rgb(33, 33, 33)" stroke="none" stroke-width="1px">0.02</text><text x="0" y="25.285714285714256" dx="0em" dy="0.3em" style="text-anchor: end; visibility: inherit; font-family: Roboto, sans-serif; font-size: 12px; font-weight: 200;" fill="rgb(33, 33, 33)" stroke="none" stroke-width="1px">0.025</text><text x="0" y="0" dx="0em" dy="0.3em" style="text-anchor: end; visibility: hidden; font-family: Roboto, sans-serif; font-size: 12px; font-weight: 200;" fill="rgb(33, 33, 33)" stroke="none" stroke-width="1px">0.03</text></g><line x1="60" y1="0" x2="60" y2="177" fill="rgb(0, 0, 0)" stroke="rgb(204, 204, 204)" stroke-width="1px"></line></g></g><g transform="translate(60, 0)" clip-path="url(#clip_0)"><clipPath id="clip_0"><rect width="241" height="177"></rect></clipPath><g><g><g><line x1="0" y1="0" x2="0" y2="177" fill="rgb(0, 0, 0)" stroke="rgb(66, 66, 66)" stroke-width="1px" opacity="0.25"></line><line x1="20.083333333333332" y1="0" x2="20.083333333333332" y2="177" fill="rgb(0, 0, 0)" stroke="rgb(66, 66, 66)" stroke-width="1px" opacity="0.25"></line><line x1="40.166666666666664" y1="0" x2="40.166666666666664" y2="177" fill="rgb(0, 0, 0)" stroke="rgb(66, 66, 66)" stroke-width="1px" opacity="0.25"></line><line x1="60.25" y1="0" x2="60.25" y2="177" fill="rgb(0, 0, 0)" stroke="rgb(66, 66, 66)" stroke-width="1px" opacity="0.25"></line><line x1="80.33333333333333" y1="0" x2="80.33333333333333" y2="177" fill="rgb(0, 0, 0)" stroke="rgb(66, 66, 66)" stroke-width="1px" opacity="0.25"></line><line x1="100.41666666666667" y1="0" x2="100.41666666666667" y2="177" fill="rgb(0, 0, 0)" stroke="rgb(66, 66, 66)" stroke-width="1px" opacity="0.25"></line><line x1="120.5" y1="0" x2="120.5" y2="177" fill="rgb(0, 0, 0)" stroke="rgb(66, 66, 66)" stroke-width="1px" opacity="0.25"></line><line x1="140.58333333333334" y1="0" x2="140.58333333333334" y2="177" fill="rgb(0, 0, 0)" stroke="rgb(66, 66, 66)" stroke-width="1px" opacity="0.25"></line><line x1="160.66666666666666" y1="0" x2="160.66666666666666" y2="177" fill="rgb(0, 0, 0)" stroke="rgb(66, 66, 66)" stroke-width="1px" opacity="0.25"></line><line x1="180.75" y1="0" x2="180.75" y2="177" fill="rgb(0, 0, 0)" stroke="rgb(66, 66, 66)" stroke-width="1px" opacity="0.25"></line><line x1="200.83333333333334" y1="0" x2="200.83333333333334" y2="177" fill="rgb(0, 0, 0)" stroke="rgb(66, 66, 66)" stroke-width="1px" opacity="0.25"></line><line x1="220.91666666666666" y1="0" x2="220.91666666666666" y2="177" fill="rgb(0, 0, 0)" stroke="rgb(66, 66, 66)" stroke-width="1px" opacity="0.25"></line><line x1="241" y1="0" x2="241" y2="177" fill="rgb(0, 0, 0)" stroke="rgb(66, 66, 66)" stroke-width="1px" opacity="0.25"></line></g><g><line x1="0" y1="177" x2="241" y2="177" fill="rgb(0, 0, 0)" stroke="rgb(66, 66, 66)" stroke-width="1px" opacity="0.25"></line><line x1="0" y1="151.7142857142857" x2="241" y2="151.7142857142857" fill="rgb(0, 0, 0)" stroke="rgb(66, 66, 66)" stroke-width="1px" opacity="0.25"></line><line x1="0" y1="126.42857142857142" x2="241" y2="126.42857142857142" fill="rgb(0, 0, 0)" stroke="rgb(66, 66, 66)" stroke-width="1px" opacity="0.25"></line><line x1="0" y1="101.14285714285714" x2="241" y2="101.14285714285714" fill="rgb(0, 0, 0)" stroke="rgb(66, 66, 66)" stroke-width="1px" opacity="0.25"></line><line x1="0" y1="75.85714285714285" x2="241" y2="75.85714285714285" fill="rgb(0, 0, 0)" stroke="rgb(66, 66, 66)" stroke-width="1px" opacity="0.25"></line><line x1="0" y1="50.57142857142855" x2="241" y2="50.57142857142855" fill="rgb(0, 0, 0)" stroke="rgb(66, 66, 66)" stroke-width="1px" opacity="0.25"></line><line x1="0" y1="25.285714285714256" x2="241" y2="25.285714285714256" fill="rgb(0, 0, 0)" stroke="rgb(66, 66, 66)" stroke-width="1px" opacity="0.25"></line><line x1="0" y1="0" x2="241" y2="0" fill="rgb(0, 0, 0)" stroke="rgb(66, 66, 66)" stroke-width="1px" opacity="0.25"></line></g></g></g><g><g><line x1="0" y1="151.7142857142857" x2="241" y2="151.7142857142857" fill="rgb(0, 0, 0)" stroke="rgb(153, 153, 153)" stroke-width="1.5px"></line></g></g><g><g><line x1="20.083333333333332" y1="0" x2="20.083333333333332" y2="177" fill="rgb(0, 0, 0)" stroke="rgb(153, 153, 153)" stroke-width="1.5px"></line></g></g><g><g><g><g><g><path stroke="rgb(255, 112, 67)" stroke-width="2px" d="M25.305,-1.5972416996955872L25.706666666666667,0.8206443978207424L26.108333333333334,2.8489332497119904L26.51,4.403262357626645L26.911666666666665,6.1708149484225565L27.313333333333333,7.709045852933614L27.715,9.127769497888421L28.116666666666667,10.494948749031337L28.518333333333334,11.684331868376049L28.919999999999998,12.812553118382183L29.32166666666667,13.849422480378834L29.723333333333333,14.790974276406413L30.125,15.663640079753732L30.52666666666667,16.458122683422896L30.92833333333333,17.211742790681964L31.330000000000002,17.94446066660541L31.731666666666662,18.67057535903794L32.13333333333333,19.39374169707296L32.535000000000004,20.120468667575278L32.93666666666667,20.870820151908045L33.33833333333333,21.66000890518935L33.74,22.498217582702615L34.141666666666666,23.393914461135843L34.54333333333334,24.35677353399138L34.945,25.393963164516844L35.346666666666664,26.512727073260702L35.748333333333335,27.720384338072343L36.15,29.022068675075243L36.55166666666667,30.42063424204076L36.95333333333333,31.917013585567453L37.355,33.51042487365857L37.75666666666667,35.19891823615344L38.15833333333333,36.98011049841131L38.56,38.85190107566968L38.961666666666666,40.812471973044524L39.36333333333333,42.858507469296434L39.765,44.98483616965155L40.166666666666664,47.187614851764245L40.568333333333335,49.46885932343344L40.970000000000006,51.83901599049566L41.37166666666666,54.31177162272588L41.77333333333333,56.89186431041784L42.175,59.57095765216008L42.57666666666667,62.33724881069998L42.97833333333334,65.18320205594812L43.379999999999995,68.10796019860675L43.781666666666666,71.12909090944697L44.18333333333333,74.2618964303817L44.585,77.4831902618919L44.98666666666667,80.75301890500953L45.38833333333333,84.03547931568963L45.79,87.27740220831973L46.19166666666667,90.35363323560782L46.593333333333334,92.97001046368052L46.995000000000005,94.68340941412107L47.39666666666666,95.72658524023635L47.79833333333333,97.89416735299994L48.2,101.4141351367746L48.60166666666667,104.77965342253447L49.00333333333334,107.77828997905765L49.404999999999994,110.2728238712464L49.806666666666665,112.17790824600627L50.208333333333336,113.72911944559641L50.61,115.15628075333578L51.01166666666667,116.57793626827852L51.413333333333334,118.02435372131211L51.815,119.45265480822749L52.21666666666667,120.77499175550682L52.61833333333333,121.89871276170015L53.02,122.73439461471779L53.42166666666667,123.19174042876277L53.82333333333333,123.31826769188046L54.225,123.5934890391571L54.626666666666665,124.39240830391645L55.028333333333336,125.30916754794971L55.43,125.98904582645211L55.83166666666666,126.31533351966311L56.233333333333334,126.37276991243873L56.635,126.63122426026632L57.03666666666667,127.2936431941177L57.43833333333333,127.96412300424916L57.839999999999996,128.4018782749772L58.24166666666667,128.6156057098082L58.64333333333334,128.81529784734758L59.045,129.20020174607635L59.446666666666665,129.68169957505805L59.84833333333333,130.09452570868388L60.25,130.3997133576444L60.651666666666664,130.6660378335842L61.05333333333334,130.97417619185788L61.455,131.32523759773798L61.85666666666666,131.66980885607853L62.25833333333334,131.98112635048372L62.660000000000004,132.2703158799559L63.06166666666667,132.55964670436722L63.463333333333324,132.8561564891466L63.865,133.15141699117208L64.26666666666667,133.43683159085256L64.66833333333332,133.71163376314297L65.07000000000001,133.979578421052L65.47166666666666,134.24303696464213L65.87333333333333,134.50130998396446L66.275,134.75259361362882L66.67666666666666,134.9960118250123L67.07833333333333,135.2317518339093L67.48,135.46016570020998L67.88166666666667,135.68123340713126L68.28333333333333,135.89464528326477L68.68499999999999,136.10014464280434L69.08666666666667,136.29763964403952L69.48833333333333,136.48719151477727L69.89,136.66888032214982L70.29166666666667,136.8428073275302L70.69333333333333,137.00915032705024L71.095,137.16822605686528L71.49666666666667,137.320511387395L71.89833333333334,137.46656325619134L72.3,137.6069586175893L72.70166666666667,137.7421896489603L73.10333333333334,137.87259310324276L73.505,137.99831969503845L73.90666666666667,138.11937177926302L74.30833333333334,138.23581529355477L74.71,138.34789514914155L75.11166666666666,138.4561082332262L75.51333333333334,138.5611704401672L75.915,138.66375998567256L76.31666666666666,138.764456178993L76.71833333333333,138.86360401527156L77.12,138.9614378086158L77.52166666666666,139.0581447748201L77.92333333333333,139.15392861408847L78.325,139.24894121848047L78.72666666666666,139.34326030021268L79.12833333333333,139.43691882810424L79.53,139.52990738249252L79.93166666666667,139.62219652693184L80.33333333333333,139.71377919667532L80.735,139.80461653561463L81.13666666666667,139.89468499459326L81.53833333333333,139.98395278224987L81.94000000000001,140.0723857523075L82.34166666666667,140.15997919493486L82.74333333333333,140.24669660893935L83.145,140.3325026705861L83.54666666666667,140.41739031512822L83.94833333333334,140.50134659052958L84.35,140.58438209391068L84.75166666666667,140.66647445357273L85.15333333333334,140.7476107174797L85.55499999999999,140.8277861758002L85.95666666666668,140.90699611870306L86.35833333333333,140.98525467568209L86.75999999999999,141.0625736213156L87.16166666666668,141.13895531051924L87.56333333333333,141.21438325888346L87.965,141.2888715959021L88.36666666666666,141.36243091869565L88.76833333333333,141.4350588723485L89.17,141.50676252160753L89.57166666666666,141.57756188325584L89.97333333333334,141.64747344170297L90.375,141.71650543915374L90.77666666666666,141.78465316577683L91.17833333333334,141.85192780742156L91.58,141.91832465425665L91.98166666666667,141.98385901323388L92.38333333333334,142.04852970689535L92.785,142.112371470247L93.18666666666667,142.17537547235509L93.58833333333332,142.23755348779792L93.99000000000001,142.2988931532683L94.39166666666667,142.35939976732644L94.79333333333332,142.41909099183977L95.19500000000001,142.47796211697693L95.59666666666666,142.5360337482499L95.99833333333333,142.59328115904438L96.4,142.64972672105898L96.80166666666666,142.70538103141422L97.20333333333333,142.76024291265222L97.605,142.81431942951997L98.00666666666667,142.8676082271018L98.40833333333333,142.920134620741L98.80999999999999,142.97189978789538L99.21166666666667,143.02294022975755L99.61333333333333,143.0732541801408L100.015,143.12285871218356L100.41666666666667,143.17176089063287L100.81833333333333,143.21998603083193L101.22,143.26756533541317L101.62166666666667,143.3145223535331L102.02333333333334,143.36089594130004L102.425,143.40673437448484L102.82666666666667,143.45208769504512L103.22833333333334,143.49700771112526L103.63,143.54156507019485L104.03166666666667,143.58582158878977L104.43333333333334,143.62984909183743L104.835,143.67374059850616L105.23666666666666,143.7175714660968L105.63833333333334,143.7614035111453L106.04,143.80530208256096L106.44166666666666,143.8493372390845L106.84333333333333,143.8935484255531L107.245,143.93792504484634L107.64666666666666,143.9824329506872L108.04833333333333,144.02699796323265L108.45,144.0715853474768L108.85166666666666,144.11609384204658L109.25333333333333,144.16041335463524L109.655,144.20440847759266L110.05666666666667,144.24796440878083L110.45833333333333,144.29095339402556L110.86,144.33330537458616L111.26166666666667,144.37497325214954L111.66333333333333,144.415921702981L112.06500000000001,144.45613777504434L112.46666666666667,144.495632654189L112.86833333333333,144.53442282482447L113.27,144.57253713466758L113.67166666666667,144.6099997216037L114.07333333333334,144.6468270700425L114.475,144.6830621571945L114.87666666666667,144.71875443628858L115.27833333333334,144.7539133269872L115.67999999999999,144.78854766022414L116.08166666666668,144.82270159066786L116.48333333333333,144.85640278857733L116.88499999999999,144.88966714963317L117.28666666666668,144.92249467383536L117.68833333333333,144.95489301465983L118.09,144.98689808457027L118.49166666666666,145.01852342433165L118.89333333333333,145.04978257470896L119.295,145.0806672934975L119.69666666666666,145.11118935527546L120.09833333333334,145.14136230080786L120.5,145.17119496102842L120.90166666666667,145.20066790788303L121.30333333333333,145.2298170538353L121.705,145.25867124660206L122.10666666666668,145.28724226076156L122.50833333333333,145.31551478936206L122.91,145.3434841225722L123.31166666666668,145.37114731674748L123.71333333333332,145.39851555773723L124.11500000000001,145.42559296664382L124.51666666666668,145.45237777728053L124.91833333333332,145.4788847078702L125.32000000000001,145.50511493587067L125.72166666666665,145.53109259916735L126.12333333333333,145.55681828648915L126.525,145.58228081198675L126.92666666666665,145.60748429676252L127.32833333333333,145.63241578878035L127.73,145.65706881202223L128.13166666666666,145.6814663269158L128.53333333333333,145.70562893897295L128.935,145.7295595918383L129.33666666666664,145.7532394461866L129.73833333333334,145.77666084854198L130.14000000000001,145.7998355734827L130.54166666666666,145.82278422652078L130.94333333333333,145.8455038640116L131.345,145.8679833001058L131.74666666666667,145.89024902760448L132.14833333333334,145.91229221557398L132.55,145.93410285562277L132.95166666666665,145.95570037580492L133.35333333333332,145.97708595357835L133.75500000000002,145.99826724241885L134.15666666666667,146.01924188741083L134.55833333333334,146.04000458999406L134.96,146.0605730120359L135.36166666666665,146.0809271367533L135.76333333333335,146.10107579507996L136.165,146.1210348826966L136.56666666666666,146.14080204468752L136.96833333333333,146.16039023308883L137.36999999999998,146.17982005341244L137.77166666666668,146.199100925321L138.17333333333335,146.21821518694716L138.575,146.23714164404998L138.97666666666666,146.25589265993665L139.37833333333333,146.27446234731804L139.78,146.29286954551935L140.18166666666667,146.3111130770828L140.58333333333334,146.32920059548425L140.98499999999999,146.34714858513325L141.38666666666666,146.3649517474696L141.78833333333336,146.38260655011982L142.19,146.4001135818128L142.59166666666667,146.4174610679703L142.99333333333334,146.43465136350798L143.39499999999998,146.45169447681735L143.79666666666668,146.4685957064586L144.19833333333335,146.48537624667267L144.6,146.5020319763571L145.00166666666667,146.5185434674578L145.40333333333334,146.53491484107715L145.805,146.55114962958862L146.20666666666668,146.56724017951638L146.60833333333332,146.58320415272775L147.01,146.59906627583715L147.41166666666666,146.614837145965L147.81333333333333,146.6305079321776L148.215,146.64606568243886L148.61666666666667,146.66150921929093L149.01833333333332,146.6768185259508L149.42,146.6919906587739L149.8216666666667,146.70705976403715L150.22333333333333,146.7220334952165L150.625,146.73692303816122L151.02666666666667,146.75175135329897L151.4283333333333,146.76650077876235L151.83,146.7811607174309L152.23166666666668,146.79572233837098L152.63333333333333,146.81019211760056L153.035,146.82459801974306L153.43666666666667,146.83891855619314L153.83833333333334,146.85316285224897L154.24,146.86735269088032L154.64166666666668,146.8814601074638L155.04333333333332,146.89548009780367L155.445,146.90940883516203L155.84666666666666,146.92326015466824L156.24833333333333,146.9370372943314L156.65,146.95075202872977L157.05166666666665,146.96440465222778L157.45333333333332,146.97799575355435L157.85500000000002,146.99152621580288L158.25666666666666,147.0049860305818L158.65833333333333,147.0183531205569L159.06,147.0316313124661L159.46166666666664,147.04483591326112L159.86333333333334,147.05796427366192L160.26500000000001,147.07100550218354L160.66666666666666,147.0839878578138L161.06833333333333,147.09691840529973L161.47,147.10978860807205L161.87166666666667,147.12259169574827L162.27333333333334,147.13533002324402L162.675,147.14800417928825L163.07666666666665,147.16059767947132L163.47833333333332,147.17311287870896L163.88000000000002,147.18558833874496L164.28166666666667,147.1979949174981L164.68333333333334,147.21034792192015L165.085,147.22266589697185L165.48666666666665,147.23495649612906L165.88833333333335,147.24718086328357L166.29,147.25934017589316L166.69166666666666,147.27145886620772L167.09333333333333,147.28353428494717L167.49499999999998,147.2955555406266L167.89666666666668,147.3075450049447L168.29833333333335,147.3195256383291L168.7,147.33147919018353L169.10166666666666,147.3433868211827L169.50333333333333,147.35526413264284L169.905,147.36710670909713L170.30666666666667,147.37890719143408L170.70833333333334,147.39068353588561L171.10999999999999,147.40242455660234L171.51166666666666,147.41414438307817L171.91333333333336,147.42585037442456L172.315,147.43753870390356L172.71666666666667,147.44920377859046L173.11833333333334,147.46084530412088L173.51999999999998,147.47244473553394L173.92166666666668,147.4840100206701L174.32333333333335,147.49553556660456L174.725,147.5070063607501L175.12666666666667,147.518407096155L175.52833333333334,147.52974778121072L175.93,147.5410290046462L176.33166666666668,147.5522333989585L176.73333333333332,147.5633624359699L177.135,147.57440816784012L177.53666666666666,147.58535646507517L177.93833333333333,147.59622646136475L178.34,147.60700343848603L178.74166666666667,147.61767091202947L179.14333333333332,147.62823800729322L179.545,147.6387179706778L179.9466666666667,147.64909961633384L180.34833333333333,147.65940943706246L180.75,147.66966686091783L181.15166666666667,147.67985422603252L181.5533333333333,147.6900030294034L181.955,147.70013770328035L182.35666666666668,147.71024146888936L182.75833333333333,147.72029872491422L183.16,147.7303200684754L183.56166666666667,147.74027606312717L183.96333333333334,147.75013197386372L184.365,147.75988485704045L184.76666666666668,147.7695344182929L185.16833333333332,147.7790897829192L185.57,147.7886189491089L185.97166666666666,147.7981322196179L186.37333333333333,147.80764284084682L186.775,147.81716170428055L187.17666666666665,147.82666437766912L187.57833333333332,147.83609758104595L187.98000000000002,147.84543953144123L188.38166666666666,147.85464960655997L188.78333333333333,147.86372221347744L189.185,147.87266000147375L189.58666666666664,147.88147503949168L189.98833333333334,147.89019175978112L190.39000000000001,147.8988708014201L190.79166666666666,147.90756838801983L191.19333333333333,147.91629423360737L191.595,147.92504598326715L191.99666666666667,147.9338324679328L192.39833333333334,147.94258627814372L192.8,147.9512450086352L193.20166666666665,147.9597533188893L193.60333333333332,147.96806911478882L194.00500000000002,147.9761820935777L194.40666666666667,147.98407930321991L194.80833333333334,147.99181726169107L195.21,147.99951077112928L195.61166666666665,148.00722518044392L196.01333333333335,148.01504467786955L196.415,148.02304844744503L196.81666666666666,148.03121470620056L197.21833333333333,148.0394557335281L197.61999999999998,148.04767880462376L198.02166666666668,148.05577471027416L198.42333333333335,148.06360009498894L198.825,148.07105752413293L199.22666666666666,148.07813169075442L199.62833333333333,148.0848708706243L200.03,148.0914072333835L200.43166666666667,148.09788648943814L200.83333333333334,148.10453058958853L201.23499999999999,148.11148818788516L201.63666666666666,148.11886231188794L202.03833333333336,148.12663736028063L202.44,148.1346873450758L202.84166666666667,148.1428112153496L203.24333333333334,148.15073933325974L203.64499999999998,148.1582282594006L204.04666666666668,148.16508753996874L204.44833333333335,148.17122091778685L204.85,148.17670904871608L205.25166666666667,148.18175857660492L205.65333333333334,148.18668152777744L206.055,148.19185027327123L206.45666666666668,148.19761128005172L206.85833333333332,148.20421829028055L207.26,148.2117019178612L207.66166666666666,148.21992175094783L208.06333333333333,148.22853485494852L208.465,148.2370705410971L208.86666666666667,148.24502044197703L209.26833333333332,148.25197274171347L209.67,148.25766604466895L210.0716666666667,148.26205825672616L210.47333333333333,148.26541401153165L210.875,148.26830408176673L211.27666666666667,148.27138313398297L211.6783333333333,148.2753017136295L212.08,148.28062235118287L212.48166666666668,148.2876364674552L212.88333333333333,148.29622631666382L213.285,148.30586439770246L213.68666666666667,148.31579684319775L214.08833333333334,148.325125252828L214.49,148.33303718069303L214.89166666666668,148.33892270363867L215.29333333333332,148.3425963720573L215.695,148.3443678573572L216.09666666666666,148.34496365101742L216.49833333333333,148.3454611269491L216.9,148.34708366383398L217.30166666666665,148.3508868526135L217.70333333333332,148.3574635433033L218.10500000000002,148.3667701699638L218.50666666666666,148.37808966077864L218.90833333333333,148.39020393562635L219.31,148.4015758233145L219.71166666666664,148.41077618440613L220.11333333333334,148.41675031105322L220.51500000000001,148.4191193562001" style="fill: none;" fill="none"></path></g></g></g></g></g><g><g opacity="0.0592203"><span fill="rgb(0, 0, 0)" stroke="none" stroke-width="1px">Alt + Scroll to Zoom</span></g></g></g><g transform="translate(60, 177)" clip-path="url(#clip_1)"><clipPath id="clip_1"><rect width="241" height="23"></rect></clipPath><g><g><line x1="0" y1="0" x2="0" y2="5" style="visibility: inherit;" fill="rgb(0, 0, 0)" stroke="rgb(204, 204, 204)" stroke-width="1px"></line><line x1="20.083333333333332" y1="0" x2="20.083333333333332" y2="5" style="visibility: inherit;" fill="rgb(0, 0, 0)" stroke="rgb(204, 204, 204)" stroke-width="1px"></line><line x1="40.166666666666664" y1="0" x2="40.166666666666664" y2="5" style="visibility: inherit;" fill="rgb(0, 0, 0)" stroke="rgb(204, 204, 204)" stroke-width="1px"></line><line x1="60.25" y1="0" x2="60.25" y2="5" style="visibility: inherit;" fill="rgb(0, 0, 0)" stroke="rgb(204, 204, 204)" stroke-width="1px"></line><line x1="80.33333333333333" y1="0" x2="80.33333333333333" y2="5" style="visibility: inherit;" fill="rgb(0, 0, 0)" stroke="rgb(204, 204, 204)" stroke-width="1px"></line><line x1="100.41666666666667" y1="0" x2="100.41666666666667" y2="5" style="visibility: inherit;" fill="rgb(0, 0, 0)" stroke="rgb(204, 204, 204)" stroke-width="1px"></line><line x1="120.5" y1="0" x2="120.5" y2="5" style="visibility: inherit;" fill="rgb(0, 0, 0)" stroke="rgb(204, 204, 204)" stroke-width="1px"></line><line x1="140.58333333333334" y1="0" x2="140.58333333333334" y2="5" style="visibility: inherit;" fill="rgb(0, 0, 0)" stroke="rgb(204, 204, 204)" stroke-width="1px"></line><line x1="160.66666666666666" y1="0" x2="160.66666666666666" y2="5" style="visibility: inherit;" fill="rgb(0, 0, 0)" stroke="rgb(204, 204, 204)" stroke-width="1px"></line><line x1="180.75" y1="0" x2="180.75" y2="5" style="visibility: inherit;" fill="rgb(0, 0, 0)" stroke="rgb(204, 204, 204)" stroke-width="1px"></line><line x1="200.83333333333334" y1="0" x2="200.83333333333334" y2="5" style="visibility: inherit;" fill="rgb(0, 0, 0)" stroke="rgb(204, 204, 204)" stroke-width="1px"></line><line x1="220.91666666666666" y1="0" x2="220.91666666666666" y2="5" style="visibility: inherit;" fill="rgb(0, 0, 0)" stroke="rgb(204, 204, 204)" stroke-width="1px"></line><line x1="241" y1="0" x2="241" y2="5" style="visibility: inherit;" fill="rgb(0, 0, 0)" stroke="rgb(204, 204, 204)" stroke-width="1px"></line></g><g transform="translate(0, 8)"><text x="0" y="0" dx="0em" dy="0.95em" style="text-anchor: middle; visibility: hidden; font-family: Roboto, sans-serif; font-size: 12px; font-weight: 200;" fill="rgb(33, 33, 33)" stroke="none" stroke-width="1px">-50</text><text x="20.083333333333332" y="0" dx="0em" dy="0.95em" style="text-anchor: middle; visibility: inherit; font-family: Roboto, sans-serif; font-size: 12px; font-weight: 200;" fill="rgb(33, 33, 33)" stroke="none" stroke-width="1px">0</text><text x="40.166666666666664" y="0" dx="0em" dy="0.95em" style="text-anchor: middle; visibility: hidden; font-family: Roboto, sans-serif; font-size: 12px; font-weight: 200;" fill="rgb(33, 33, 33)" stroke="none" stroke-width="1px">50</text><text x="60.25" y="0" dx="0em" dy="0.95em" style="text-anchor: middle; visibility: inherit; font-family: Roboto, sans-serif; font-size: 12px; font-weight: 200;" fill="rgb(33, 33, 33)" stroke="none" stroke-width="1px">100</text><text x="80.33333333333333" y="0" dx="0em" dy="0.95em" style="text-anchor: middle; visibility: hidden; font-family: Roboto, sans-serif; font-size: 12px; font-weight: 200;" fill="rgb(33, 33, 33)" stroke="none" stroke-width="1px">150</text><text x="100.41666666666667" y="0" dx="0em" dy="0.95em" style="text-anchor: middle; visibility: inherit; font-family: Roboto, sans-serif; font-size: 12px; font-weight: 200;" fill="rgb(33, 33, 33)" stroke="none" stroke-width="1px">200</text><text x="120.5" y="0" dx="0em" dy="0.95em" style="text-anchor: middle; visibility: hidden; font-family: Roboto, sans-serif; font-size: 12px; font-weight: 200;" fill="rgb(33, 33, 33)" stroke="none" stroke-width="1px">250</text><text x="140.58333333333334" y="0" dx="0em" dy="0.95em" style="text-anchor: middle; visibility: inherit; font-family: Roboto, sans-serif; font-size: 12px; font-weight: 200;" fill="rgb(33, 33, 33)" stroke="none" stroke-width="1px">300</text><text x="160.66666666666666" y="0" dx="0em" dy="0.95em" style="text-anchor: middle; visibility: hidden; font-family: Roboto, sans-serif; font-size: 12px; font-weight: 200;" fill="rgb(33, 33, 33)" stroke="none" stroke-width="1px">350</text><text x="180.75" y="0" dx="0em" dy="0.95em" style="text-anchor: middle; visibility: inherit; font-family: Roboto, sans-serif; font-size: 12px; font-weight: 200;" fill="rgb(33, 33, 33)" stroke="none" stroke-width="1px">400</text><text x="200.83333333333334" y="0" dx="0em" dy="0.95em" style="text-anchor: middle; visibility: hidden; font-family: Roboto, sans-serif; font-size: 12px; font-weight: 200;" fill="rgb(33, 33, 33)" stroke="none" stroke-width="1px">450</text><text x="220.91666666666666" y="0" dx="0em" dy="0.95em" style="text-anchor: middle; visibility: inherit; font-family: Roboto, sans-serif; font-size: 12px; font-weight: 200;" fill="rgb(33, 33, 33)" stroke="none" stroke-width="1px">500</text><text x="241" y="0" dx="0em" dy="0.95em" style="text-anchor: middle; visibility: hidden; font-family: Roboto, sans-serif; font-size: 12px; font-weight: 200;" fill="rgb(33, 33, 33)" stroke="none" stroke-width="1px">550</text></g><line x1="0" y1="0" x2="241" y2="0" fill="rgb(0, 0, 0)" stroke="rgb(204, 204, 204)" stroke-width="1px"></line></g></g></g></g></svg>