<svg viewBox="0 0 301 200" xmlns="http://www.w3.org/2000/svg"><g><g><g><g><g><line x1="72.34375" y1="177" x2="67.34375" y2="177" style="visibility: inherit;" fill="rgb(0, 0, 0)" stroke="rgb(204, 204, 204)" stroke-width="1px"></line><line x1="72.34375" y1="157.33333333333331" x2="67.34375" y2="157.33333333333331" style="visibility: inherit;" fill="rgb(0, 0, 0)" stroke="rgb(204, 204, 204)" stroke-width="1px"></line><line x1="72.34375" y1="137.66666666666666" x2="67.34375" y2="137.66666666666666" style="visibility: inherit;" fill="rgb(0, 0, 0)" stroke="rgb(204, 204, 204)" stroke-width="1px"></line><line x1="72.34375" y1="118" x2="67.34375" y2="118" style="visibility: inherit;" fill="rgb(0, 0, 0)" stroke="rgb(204, 204, 204)" stroke-width="1px"></line><line x1="72.34375" y1="98.33333333333334" x2="67.34375" y2="98.33333333333334" style="visibility: inherit;" fill="rgb(0, 0, 0)" stroke="rgb(204, 204, 204)" stroke-width="1px"></line><line x1="72.34375" y1="78.66666666666666" x2="67.34375" y2="78.66666666666666" style="visibility: inherit;" fill="rgb(0, 0, 0)" stroke="rgb(204, 204, 204)" stroke-width="1px"></line><line x1="72.34375" y1="58.999999999999986" x2="67.34375" y2="58.999999999999986" style="visibility: inherit;" fill="rgb(0, 0, 0)" stroke="rgb(204, 204, 204)" stroke-width="1px"></line><line x1="72.34375" y1="39.333333333333314" x2="67.34375" y2="39.333333333333314" style="visibility: inherit;" fill="rgb(0, 0, 0)" stroke="rgb(204, 204, 204)" stroke-width="1px"></line><line x1="72.34375" y1="19.666666666666657" x2="67.34375" y2="19.666666666666657" style="visibility: inherit;" fill="rgb(0, 0, 0)" stroke="rgb(204, 204, 204)" stroke-width="1px"></line><line x1="72.34375" y1="0" x2="67.34375" y2="0" style="visibility: inherit;" fill="rgb(0, 0, 0)" stroke="rgb(204, 204, 204)" stroke-width="1px"></line></g><g transform="translate(62.34375, 0)"><text x="0" y="177" dx="0em" dy="0.3em" style="text-anchor: end; visibility: hidden; font-family: Roboto, sans-serif; font-size: 12px; font-weight: 200;" fill="rgb(33, 33, 33)" stroke="none" stroke-width="1px">0</text><text x="0" y="157.33333333333331" dx="0em" dy="0.3em" style="text-anchor: end; visibility: inherit; font-family: Roboto, sans-serif; font-size: 12px; font-weight: 200;" fill="rgb(33, 33, 33)" stroke="none" stroke-width="1px">5e-4</text><text x="0" y="137.66666666666666" dx="0em" dy="0.3em" style="text-anchor: end; visibility: hidden; font-family: Roboto, sans-serif; font-size: 12px; font-weight: 200;" fill="rgb(33, 33, 33)" stroke="none" stroke-width="1px">1e-3</text><text x="0" y="118" dx="0em" dy="0.3em" style="text-anchor: end; visibility: inherit; font-family: Roboto, sans-serif; font-size: 12px; font-weight: 200;" fill="rgb(33, 33, 33)" stroke="none" stroke-width="1px">1.5e-3</text><text x="0" y="98.33333333333334" dx="0em" dy="0.3em" style="text-anchor: end; visibility: hidden; font-family: Roboto, sans-serif; font-size: 12px; font-weight: 200;" fill="rgb(33, 33, 33)" stroke="none" stroke-width="1px">2e-3</text><text x="0" y="78.66666666666666" dx="0em" dy="0.3em" style="text-anchor: end; visibility: inherit; font-family: Roboto, sans-serif; font-size: 12px; font-weight: 200;" fill="rgb(33, 33, 33)" stroke="none" stroke-width="1px">2.5e-3</text><text x="0" y="58.999999999999986" dx="0em" dy="0.3em" style="text-anchor: end; visibility: hidden; font-family: Roboto, sans-serif; font-size: 12px; font-weight: 200;" fill="rgb(33, 33, 33)" stroke="none" stroke-width="1px">3e-3</text><text x="0" y="39.333333333333314" dx="0em" dy="0.3em" style="text-anchor: end; visibility: inherit; font-family: Roboto, sans-serif; font-size: 12px; font-weight: 200;" fill="rgb(33, 33, 33)" stroke="none" stroke-width="1px">3.5e-3</text><text x="0" y="19.666666666666657" dx="0em" dy="0.3em" style="text-anchor: end; visibility: hidden; font-family: Roboto, sans-serif; font-size: 12px; font-weight: 200;" fill="rgb(33, 33, 33)" stroke="none" stroke-width="1px">4e-3</text><text x="0" y="0" dx="0em" dy="0.3em" style="text-anchor: end; visibility: hidden; font-family: Roboto, sans-serif; font-size: 12px; font-weight: 200;" fill="rgb(33, 33, 33)" stroke="none" stroke-width="1px">4.5e-3</text></g><line x1="72.34375" y1="0" x2="72.34375" y2="177" fill="rgb(0, 0, 0)" stroke="rgb(204, 204, 204)" stroke-width="1px"></line></g></g><g transform="translate(72, 0)" clip-path="url(#clip_0)"><clipPath id="clip_0"><rect width="257" height="177"></rect></clipPath><g><g><g><line x1="0" y1="0" x2="0" y2="177" fill="rgb(0, 0, 0)" stroke="rgb(66, 66, 66)" stroke-width="1px" opacity="0.25"></line><line x1="21.471354166666664" y1="0" x2="21.471354166666664" y2="177" fill="rgb(0, 0, 0)" stroke="rgb(66, 66, 66)" stroke-width="1px" opacity="0.25"></line><line x1="42.94270833333333" y1="0" x2="42.94270833333333" y2="177" fill="rgb(0, 0, 0)" stroke="rgb(66, 66, 66)" stroke-width="1px" opacity="0.25"></line><line x1="64.4140625" y1="0" x2="64.4140625" y2="177" fill="rgb(0, 0, 0)" stroke="rgb(66, 66, 66)" stroke-width="1px" opacity="0.25"></line><line x1="85.88541666666666" y1="0" x2="85.88541666666666" y2="177" fill="rgb(0, 0, 0)" stroke="rgb(66, 66, 66)" stroke-width="1px" opacity="0.25"></line><line x1="107.35677083333334" y1="0" x2="107.35677083333334" y2="177" fill="rgb(0, 0, 0)" stroke="rgb(66, 66, 66)" stroke-width="1px" opacity="0.25"></line><line x1="128.828125" y1="0" x2="128.828125" y2="177" fill="rgb(0, 0, 0)" stroke="rgb(66, 66, 66)" stroke-width="1px" opacity="0.25"></line><line x1="150.29947916666669" y1="0" x2="150.29947916666669" y2="177" fill="rgb(0, 0, 0)" stroke="rgb(66, 66, 66)" stroke-width="1px" opacity="0.25"></line><line x1="171.77083333333331" y1="0" x2="171.77083333333331" y2="177" fill="rgb(0, 0, 0)" stroke="rgb(66, 66, 66)" stroke-width="1px" opacity="0.25"></line><line x1="193.2421875" y1="0" x2="193.2421875" y2="177" fill="rgb(0, 0, 0)" stroke="rgb(66, 66, 66)" stroke-width="1px" opacity="0.25"></line><line x1="214.71354166666669" y1="0" x2="214.71354166666669" y2="177" fill="rgb(0, 0, 0)" stroke="rgb(66, 66, 66)" stroke-width="1px" opacity="0.25"></line><line x1="236.18489583333331" y1="0" x2="236.18489583333331" y2="177" fill="rgb(0, 0, 0)" stroke="rgb(66, 66, 66)" stroke-width="1px" opacity="0.25"></line><line x1="257.65625" y1="0" x2="257.65625" y2="177" fill="rgb(0, 0, 0)" stroke="rgb(66, 66, 66)" stroke-width="1px" opacity="0.25"></line></g><g><line x1="0" y1="177" x2="257.65625" y2="177" fill="rgb(0, 0, 0)" stroke="rgb(66, 66, 66)" stroke-width="1px" opacity="0.25"></line><line x1="0" y1="157.33333333333331" x2="257.65625" y2="157.33333333333331" fill="rgb(0, 0, 0)" stroke="rgb(66, 66, 66)" stroke-width="1px" opacity="0.25"></line><line x1="0" y1="137.66666666666666" x2="257.65625" y2="137.66666666666666" fill="rgb(0, 0, 0)" stroke="rgb(66, 66, 66)" stroke-width="1px" opacity="0.25"></line><line x1="0" y1="118" x2="257.65625" y2="118" fill="rgb(0, 0, 0)" stroke="rgb(66, 66, 66)" stroke-width="1px" opacity="0.25"></line><line x1="0" y1="98.33333333333334" x2="257.65625" y2="98.33333333333334" fill="rgb(0, 0, 0)" stroke="rgb(66, 66, 66)" stroke-width="1px" opacity="0.25"></line><line x1="0" y1="78.66666666666666" x2="257.65625" y2="78.66666666666666" fill="rgb(0, 0, 0)" stroke="rgb(66, 66, 66)" stroke-width="1px" opacity="0.25"></line><line x1="0" y1="58.999999999999986" x2="257.65625" y2="58.999999999999986" fill="rgb(0, 0, 0)" stroke="rgb(66, 66, 66)" stroke-width="1px" opacity="0.25"></line><line x1="0" y1="39.333333333333314" x2="257.65625" y2="39.333333333333314" fill="rgb(0, 0, 0)" stroke="rgb(66, 66, 66)" stroke-width="1px" opacity="0.25"></line><line x1="0" y1="19.666666666666657" x2="257.65625" y2="19.666666666666657" fill="rgb(0, 0, 0)" stroke="rgb(66, 66, 66)" stroke-width="1px" opacity="0.25"></line><line x1="0" y1="0" x2="257.65625" y2="0" fill="rgb(0, 0, 0)" stroke="rgb(66, 66, 66)" stroke-width="1px" opacity="0.25"></line></g></g></g><g><g><line x1="0" y1="177" x2="257.65625" y2="177" fill="rgb(0, 0, 0)" stroke="rgb(153, 153, 153)" stroke-width="1.5px"></line></g></g><g><g><line x1="21.471354166666664" y1="0" x2="21.471354166666664" y2="177" fill="rgb(0, 0, 0)" stroke="rgb(153, 153, 153)" stroke-width="1.5px"></line></g></g><g><g><g><g><g><path stroke="rgb(255, 112, 67)" stroke-width="2px" d="M30.91875,-4.924325103561079L31.348177083333336,4.365665386120461L31.777604166666666,12.625966389973943L32.20703125,20.0117145180702L32.63645833333334,26.563992582261548L33.06588541666667,32.44158207873502L33.495312500000004,37.78040612240631L33.92473958333333,42.69825497766335L34.354166666666664,47.283961296081536L34.78359375,51.636541431148835L35.21302083333333,55.85595501090088L35.64244791666667,60.0056395381689L36.071875000000006,64.14272265012065L36.501302083333336,68.33187818030515L36.930729166666666,72.61963795373836L37.360156249999996,77.01826453953981L37.78958333333333,81.52045900747179L38.21901041666667,86.09690658251444L38.6484375,90.69935373465219L39.07786458333334,95.27137799312672L39.50729166666667,99.74814068029325L39.93671875,104.05930831531684L40.366145833333334,108.13641107144454L40.795572916666664,111.91941364482045L41.225,115.36391344666481L41.65442708333333,118.44648887837927L42.08385416666667,121.16820684758325L42.51328125,123.54768100008368L42.94270833333333,125.60745834497114L43.372135416666666,127.3651634634783L43.8015625,128.83708844706416L44.23098958333333,130.05541452641287L44.66041666666667,131.07597348093987L45.08984375,131.9520145325611L45.51927083333333,132.71837931250533L45.94869791666667,133.44439850002527L46.378125,134.28580397553742L46.807552083333334,135.31699995324016L47.236979166666664,136.41543858498335L47.66640625,137.43020968014994L48.09583333333334,138.31400298327208L48.52526041666666,139.060096518447L48.9546875,139.6515960553661L49.384114583333336,140.09474964315692L49.813541666666666,140.34523940458894L50.24296875,140.24527061854798L50.67239583333333,139.98160935596874L51.10182291666667,140.30708715443808L51.53125,141.18471025147787L51.96067708333333,141.9362344838058L52.39010416666667,142.67717435148853L52.81953125,143.4053227752447L53.248958333333334,143.92487931189436L53.67838541666667,144.24705564944693L54.1078125,144.4803901774188L54.53723958333333,144.70168192839873L54.96666666666667,144.934769190227L55.39609375,145.17150591717413L55.825520833333336,145.39432018653798L56.254947916666666,145.57913331283876L56.684375,145.6978805887823L57.11380208333333,145.76216291760406L57.54322916666666,145.91195125256974L57.97265625,146.35738518368453L58.40208333333333,146.99597060494125L58.83151041666667,147.4948941556116L59.260937500000004,147.81132613432902L59.690364583333334,148.04985096181434L60.119791666666664,148.38151499287537L60.549218749999994,148.91933488162854L60.97864583333333,149.50040116099018L61.40807291666667,149.9442713626971L61.8375,150.318385037904L62.266927083333336,150.74250142214197L62.69635416666667,151.27061153575778L63.125781249999996,151.83878792263567L63.55520833333333,152.35151716632149L63.98463541666666,152.81166114347678L64.4140625,153.28060596374172L64.84348958333332,153.7885272546361L65.27291666666667,154.31293524460247L65.70234375,154.8156524989754L66.13177083333333,155.2863464982559L66.56119791666667,155.74039811237404L66.99062500000001,156.19047286268324L67.42005208333333,156.6332143402348L67.84947916666665,157.05714527486512L68.27890625,157.45495070982724L68.70833333333333,157.8266317898718L69.13776041666667,158.17487982381135L69.5671875,158.50045607083786L69.99661458333334,158.80208871296296L70.42604166666666,159.0783742858718L70.85546875,159.32908612893272L71.28489583333334,159.55511256866157L71.71432291666666,159.75779868708923L72.14375000000001,159.93849643475065L72.57317708333333,160.0985760781914L73.00260416666667,160.23941704196233L73.43203125,160.36246858040494L73.86145833333333,160.46921886938313L74.29088541666667,160.56122705930224L74.72031249999999,160.6399435492543L75.14973958333334,160.70681644883007L75.57916666666667,160.76316336604458L76.00859375,160.81019544710097L76.43802083333334,160.84894411234808L76.86744791666666,160.88017748948187L77.296875,160.90437866328284L77.72630208333334,160.9216861485814L78.15572916666667,160.93214688015482L78.58515625,160.93585472755754L79.01458333333333,160.9333133810821L79.44401041666667,160.92551648430526L79.8734375,160.91389497555792L80.30286458333333,160.89992443844676L80.73229166666667,160.88493850749606L81.16171875,160.86985412798822L81.59114583333333,160.85529175478345L82.02057291666667,160.84166922187433L82.45,160.8294032185028L82.87942708333333,160.81877306383103L83.30885416666666,160.81005006376654L83.73828125,160.80331664035717L84.16770833333334,160.79867353166142L84.59713541666666,160.796094408414L85.0265625,160.79555637560165L85.45598958333333,160.7970010509404L85.88541666666666,160.80036890739575L86.31484375000001,160.80567597147697L86.74427083333333,160.81282036037496L87.17369791666667,160.82177002107102L87.603125,160.8325627303372L88.03255208333333,160.8451103423722L88.46197916666667,160.85938881741217L88.89140624999999,160.87533977317315L89.32083333333334,160.89295634115115L89.75026041666666,160.91222020533556L90.1796875,160.93308328619847L90.60911458333334,160.95548834620664L91.03854166666666,160.97934266055623L91.46796875,161.00460730772465L91.89739583333333,161.03120215516537L92.32682291666667,161.05905737308785L92.75625,161.0881535007308L93.18567708333335,161.11836003651842L93.61510416666667,161.14959226890156L94.04453124999999,161.1817700653337L94.47395833333333,161.2148258855256L94.90338541666667,161.2486738731774L95.3328125,161.28321672448268L95.76223958333333,161.31843612343073L96.19166666666668,161.3542278977111L96.62109375,161.39055770480385L97.05052083333332,161.42734426741177L97.47994791666667,161.4645040187364L97.909375,161.50201177426302L98.33880208333333,161.53978854619587L98.76822916666667,161.57780113676563L99.19765625000001,161.61602092720568L99.62708333333333,161.6544227330014L100.05651041666665,161.6929092503463L100.4859375,161.73150909800705L100.91536458333333,161.77008948490644L101.34479166666667,161.80870650382712L101.77421875,161.84731779899448L102.20364583333334,161.88579515833408L102.63307291666666,161.92425076741105L103.0625,161.96250032136837L103.49192708333334,162.0006468477659L103.92135416666666,162.0386033455531L104.35078125000001,162.07632059045136L104.78020833333333,162.11378141120076L105.20963541666667,162.15095489953336L105.6390625,162.18783647644645L106.06848958333333,162.22438607566679L106.49791666666667,162.2605750784278L106.92734374999999,162.2963760107135L107.35677083333334,162.33176254325855L107.78619791666667,162.36668430703384L108.215625,162.40117221030715L108.64505208333334,162.4351369625268L109.07447916666666,162.46859916920465L109.50390625,162.50156798834604L109.93333333333334,162.534005643179L110.36276041666667,162.565893817693L110.7921875,162.59725769640258L111.22161458333333,162.62803317327052L111.65104166666667,162.65825001181415L112.08046875,162.68792309379205L112.50989583333333,162.7169802999124L112.93932291666667,162.74547772295773L113.36875,162.77337987565744L113.79817708333333,162.80074514029548L114.22760416666667,162.82761243839437L114.65703125,162.85406991575533L115.08645833333333,162.88016450715563L115.51588541666666,162.9061034124655L115.9453125,162.93209955530864L116.37473958333334,162.9583910438232L116.80416666666666,162.98511524808904L117.23359375,163.01248165747774L117.66302083333333,163.04052575925988L118.09244791666666,163.06938606826589L118.52187500000001,163.0991049402704L118.95130208333333,163.1297293100506L119.38072916666667,163.16125345385325L119.81015625,163.1936956876889L120.23958333333333,163.22707890657088L120.66901041666667,163.26134358346462L121.09843749999999,163.29652635039142L121.52786458333334,163.33255852231136L121.95729166666666,163.3694481124791L122.38671875,163.4071779496347L122.81614583333334,163.4457354415208L123.24557291666666,163.48507823236287L123.675,163.52517083489025L124.10442708333333,163.56602813086164L124.53385416666667,163.60762837001434L124.96328125,163.64994064408043L125.39270833333335,163.69293518954268L125.82213541666667,163.73659712464237L126.25156249999999,163.78093904163688L126.68098958333333,163.82591858475158L127.11041666666667,163.87151743797585L127.53984375,163.91769553503642L127.96927083333333,163.96445859968662L128.39869791666666,164.01177686840919L128.828125,164.05961828818545L129.25755208333334,164.1079393584902L129.68697916666665,164.15674694782746L130.11640625,164.2060937147277L130.54583333333335,164.2558766316312L130.97526041666666,164.30608310628062L131.4046875,164.356675361904L131.83411458333333,164.40760875322547L132.26354166666667,164.45888785924762L132.69296875,164.51043827117732L133.12239583333334,164.56226800226915L133.55182291666665,164.61432324924198L133.98125000000002,164.66660973584902L134.41067708333333,164.71907709306106L134.84010416666666,164.77171158387014L135.26953125,164.82445482599238L135.6989583333333,164.87729193766913L136.12838541666667,164.93013477309918L136.5578125,164.98296501627192L136.98723958333332,165.03575748267275L137.41666666666666,165.0885545280762L137.84609375,165.1412405326652L138.27552083333333,165.19380175943178L138.70494791666667,165.24616837858534L139.134375,165.29833924537525L139.56380208333331,165.35029604379088L139.99322916666668,165.40199298380563L140.42265625000002,165.45341289415956L140.85208333333333,165.50451341907805L141.28151041666666,165.55524762378383L141.7109375,165.605594902765L142.14036458333334,165.65554495326552L142.56979166666667,165.70507030126947L142.99921875,165.75414232801023L143.42864583333332,165.80271753296256L143.85807291666666,165.85076844211048L144.28750000000002,165.89832481897128L144.71692708333333,165.94528249123445L145.14635416666667,165.99168381467462L145.57578124999998,166.03750131527582L146.00520833333334,166.08270980852345L146.43463541666668,166.12731730767214L146.8640625,166.1713146547166L147.29348958333333,166.21473046842343L147.72291666666666,166.25746515548477L148.15234375,166.29952901865664L148.58177083333334,166.34092663694173L149.01119791666667,166.3816351153267L149.44062499999998,166.42167048032084L149.87005208333332,166.46106364019215L150.29947916666669,166.499772239166L150.72890625,166.537838633017L151.15833333333333,166.57523763723052L151.58776041666667,166.61196238330254L152.0171875,166.64804950325438L152.44661458333334,166.68347266782075L152.87604166666668,166.71826278526956L153.30546875,166.75242100035152L153.73489583333333,166.78595876057324L154.1643229166667,166.81891727695864L154.59375,166.8512976942584L155.02317708333334,166.8830908544672L155.45260416666667,166.91431621834636L155.88203124999998,166.9450069836651L156.31145833333335,166.97514597916356L156.74088541666666,167.00477899486822L157.1703125,167.0339770053203L157.59973958333333,167.06271253650388L158.02916666666667,167.09098329891762L158.45859375,167.11882134558013L158.88802083333334,167.14620836048076L159.31744791666665,167.17314777787155L159.746875,167.19964532150578L160.17630208333335,167.2257799791793L160.60572916666666,167.25154717188948L161.03515625,167.2769869659096L161.46458333333334,167.30210508499295L161.89401041666665,167.32686146286628L162.3234375,167.3512812840442L162.75286458333335,167.37533249550808L163.18229166666666,167.39907519666787L163.61171875,167.42252884828486L164.04114583333333,167.44564422608045L164.47057291666667,167.46848543609184L164.9,167.49102443192774L165.32942708333334,167.51324289757758L165.75885416666665,167.53513854353997L166.18828125000002,167.55672625157362L166.61770833333333,167.57801289018244L167.04713541666666,167.59903222951107L167.4765625,167.61975278891623L167.9059895833333,167.64021577942185L168.33541666666667,167.6604011678913L168.76484375,167.68031067145057L169.19427083333332,167.6999322702177L169.62369791666666,167.71926424706663L170.053125,167.73833350363807L170.48255208333333,167.757122868672L170.91197916666667,167.7756529476804L171.34140625,167.79394091192322L171.77083333333331,167.8119890509018L172.20026041666668,167.82982941763476L172.62968750000002,167.84744140661013L173.05911458333333,167.8647952543106L173.48854166666666,167.88193846788877L173.91796875,167.89883784957541L174.34739583333334,167.9155048468771L174.77682291666667,167.9319783813165L175.20625,167.94826532139754L175.63567708333332,167.96432044946897L176.06510416666666,167.98020157543942L176.49453125000002,167.9959041203062L176.92395833333333,168.01140518905595L177.35338541666667,168.02668646567813L177.78281249999998,168.0417800031913L178.21223958333334,168.0567058347321L178.64166666666668,168.07146338792518L179.07109375,168.08602404400395L179.50052083333333,168.10044847475365L179.92994791666666,168.1147200812896L180.359375,168.12879822496325L180.78880208333334,168.1427120969165L181.21822916666667,168.1564691380287L181.64765624999998,168.17006763117388L182.07708333333332,168.183505859226L182.50651041666669,168.19680271057103L182.9359375,168.20994959957898L183.36536458333333,168.2229488157512L183.79479166666667,168.2358381358596L184.22421875,168.24859466489096L184.65364583333334,168.26124473211044L185.08307291666668,168.2737746005102L185.5125,168.28622090211138L185.94192708333333,168.2985418535148L186.3713541666667,168.31078038287038L186.80078125,168.32293248355077L187.23020833333334,168.33497583291805L187.65963541666667,168.34694878011942L188.08906249999998,168.35884960802895L188.51848958333335,168.3706754547699L188.94791666666666,168.38239827395105L189.37734375,168.39405298046768L189.80677083333333,168.40558176441118L190.23619791666667,168.41698462578157L190.665625,168.4282569855762L191.09505208333334,168.43931184274456L191.52447916666665,168.45016236191924L191.95390625,168.46080854310034L192.38333333333335,168.47122520177314L192.81276041666666,168.4814764439749L193.2421875,168.49151934155574L193.67161458333334,168.5013842304082L194.10104166666665,168.5110980121729L194.53046875,168.52066698297858L194.95989583333335,168.53004478042322L195.38932291666666,168.5392542995202L195.81875,168.54825661874688L196.24817708333333,168.55699163869332L196.67760416666667,168.56548511624956L197.10703125,168.57372388678294L197.53645833333334,168.58173656906L197.96588541666665,168.58959013099474L198.39531250000002,168.59739790290283L198.82473958333333,168.60511123288114L199.25416666666666,168.6127570225702L199.68359375,168.62038277912265L200.1130208333333,168.62785914571333L200.54244791666667,168.63517181295902L200.971875,168.6422669775784L201.40130208333332,168.64911773793088L201.83072916666666,168.6557349691478L202.26015625,168.66215702037636L202.68958333333333,168.668374161236L203.11901041666667,168.67453406456238L203.5484375,168.6807214419047L203.97786458333331,168.68694659601897L204.40729166666668,168.69324501417577L204.83671875000002,168.69963672951175L205.26614583333333,168.70601985921772L205.69557291666666,168.71229709948724L206.125,168.71841521941434L206.55442708333334,168.72426432293528L206.98385416666667,168.7297957581468L207.41328125,168.7350284134348L207.84270833333332,168.74002410533527L208.27213541666666,168.74493279618522L208.70156250000002,168.74990902732438L209.13098958333333,168.75507872132584L209.56041666666667,168.76058497202274L209.98984374999998,168.766432930793L210.41927083333334,168.77253559658612L210.84869791666668,168.7787567440731L211.278125,168.7848765811262L211.70755208333333,168.79071137526384L212.13697916666666,168.79603274872838L212.56640625,168.8007909048659L212.99583333333334,168.80499671880776L213.42526041666667,168.8088568180489L213.85468749999998,168.81258984996626L214.28411458333332,168.8165529767672L214.71354166666669,168.8210157872333L215.14296875,168.8262181066287L215.57239583333333,168.832224613366L216.00182291666667,168.83889564786415L216.43125,168.84593758157763L216.86067708333334,168.8529154092539L217.29010416666668,168.85938038863242L217.71953125,168.8649965353931L218.14895833333333,168.86944274697453L218.5783854166667,168.87274478026666L219.0078125,168.87517680305365L219.43723958333334,168.87720072222874L219.86666666666667,168.87939978825548L220.29609374999998,168.8824287985141L220.72552083333335,168.8868297924443L221.15494791666666,168.8928540428169L221.584375,168.90041397620615L222.01380208333333,168.90902650783147L222.44322916666667,168.9180563010741L222.87265625,168.9264707908345L223.30208333333334,168.93357110683186L223.73151041666665,168.93862231913954L224.1609375,168.94142237926522L224.59036458333335,168.942116098168L225.01979166666666,168.9414784720478L225.44921875,168.94057755327472L225.87864583333334,168.94059014553204L226.30807291666665,168.94269763150564L226.7375,168.94766298751347L227.16692708333335,168.95575351283574L227.59635416666666,168.96633272610293L228.02578125,168.978294798173L228.45520833333333,168.9900181897295L228.88463541666667,168.99996492825449L229.3140625,169.00673269418377L229.74348958333334,169.0095476360681L230.17291666666665,169.00850133396065L230.60234375000002,169.00450615414107L231.03177083333333,168.99923114307845L231.46119791666666,168.99476203648373L231.890625,168.99336200642088L232.3200520833333,168.99660222317712L232.74947916666667,169.0052256299338L233.17890625,169.0185167575255L233.60833333333332,169.0347447429473L234.03776041666666,169.0511753492368L234.4671875,169.0649381141023L234.89661458333333,169.07348482256447L235.32604166666667,169.07543833957365L235.75546875,169.070555977989" style="fill: none;" fill="none"></path></g></g></g></g></g><g><g opacity="0.00390006"><span fill="rgb(0, 0, 0)" stroke="none" stroke-width="1px">Alt + Scroll to Zoom</span></g></g></g><g transform="translate(72, 177)" clip-path="url(#clip_1)"><clipPath id="clip_1"><rect width="257" height="23"></rect></clipPath><g><g><line x1="0" y1="0" x2="0" y2="5" style="visibility: inherit;" fill="rgb(0, 0, 0)" stroke="rgb(204, 204, 204)" stroke-width="1px"></line><line x1="21.471354166666664" y1="0" x2="21.471354166666664" y2="5" style="visibility: inherit;" fill="rgb(0, 0, 0)" stroke="rgb(204, 204, 204)" stroke-width="1px"></line><line x1="42.94270833333333" y1="0" x2="42.94270833333333" y2="5" style="visibility: inherit;" fill="rgb(0, 0, 0)" stroke="rgb(204, 204, 204)" stroke-width="1px"></line><line x1="64.4140625" y1="0" x2="64.4140625" y2="5" style="visibility: inherit;" fill="rgb(0, 0, 0)" stroke="rgb(204, 204, 204)" stroke-width="1px"></line><line x1="85.88541666666666" y1="0" x2="85.88541666666666" y2="5" style="visibility: inherit;" fill="rgb(0, 0, 0)" stroke="rgb(204, 204, 204)" stroke-width="1px"></line><line x1="107.35677083333334" y1="0" x2="107.35677083333334" y2="5" style="visibility: inherit;" fill="rgb(0, 0, 0)" stroke="rgb(204, 204, 204)" stroke-width="1px"></line><line x1="128.828125" y1="0" x2="128.828125" y2="5" style="visibility: inherit;" fill="rgb(0, 0, 0)" stroke="rgb(204, 204, 204)" stroke-width="1px"></line><line x1="150.29947916666669" y1="0" x2="150.29947916666669" y2="5" style="visibility: inherit;" fill="rgb(0, 0, 0)" stroke="rgb(204, 204, 204)" stroke-width="1px"></line><line x1="171.77083333333331" y1="0" x2="171.77083333333331" y2="5" style="visibility: inherit;" fill="rgb(0, 0, 0)" stroke="rgb(204, 204, 204)" stroke-width="1px"></line><line x1="193.2421875" y1="0" x2="193.2421875" y2="5" style="visibility: inherit;" fill="rgb(0, 0, 0)" stroke="rgb(204, 204, 204)" stroke-width="1px"></line><line x1="214.71354166666669" y1="0" x2="214.71354166666669" y2="5" style="visibility: inherit;" fill="rgb(0, 0, 0)" stroke="rgb(204, 204, 204)" stroke-width="1px"></line><line x1="236.18489583333331" y1="0" x2="236.18489583333331" y2="5" style="visibility: inherit;" fill="rgb(0, 0, 0)" stroke="rgb(204, 204, 204)" stroke-width="1px"></line><line x1="257.65625" y1="0" x2="257.65625" y2="5" style="visibility: inherit;" fill="rgb(0, 0, 0)" stroke="rgb(204, 204, 204)" stroke-width="1px"></line></g><g transform="translate(0, 8)"><text x="0" y="0" dx="0em" dy="0.95em" style="text-anchor: middle; visibility: hidden; font-family: Roboto, sans-serif; font-size: 12px; font-weight: 200;" fill="rgb(33, 33, 33)" stroke="none" stroke-width="1px">-50</text><text x="21.471354166666664" y="0" dx="0em" dy="0.95em" style="text-anchor: middle; visibility: inherit; font-family: Roboto, sans-serif; font-size: 12px; font-weight: 200;" fill="rgb(33, 33, 33)" stroke="none" stroke-width="1px">0</text><text x="42.94270833333333" y="0" dx="0em" dy="0.95em" style="text-anchor: middle; visibility: hidden; font-family: Roboto, sans-serif; font-size: 12px; font-weight: 200;" fill="rgb(33, 33, 33)" stroke="none" stroke-width="1px">50</text><text x="64.4140625" y="0" dx="0em" dy="0.95em" style="text-anchor: middle; visibility: inherit; font-family: Roboto, sans-serif; font-size: 12px; font-weight: 200;" fill="rgb(33, 33, 33)" stroke="none" stroke-width="1px">100</text><text x="85.88541666666666" y="0" dx="0em" dy="0.95em" style="text-anchor: middle; visibility: hidden; font-family: Roboto, sans-serif; font-size: 12px; font-weight: 200;" fill="rgb(33, 33, 33)" stroke="none" stroke-width="1px">150</text><text x="107.35677083333334" y="0" dx="0em" dy="0.95em" style="text-anchor: middle; visibility: inherit; font-family: Roboto, sans-serif; font-size: 12px; font-weight: 200;" fill="rgb(33, 33, 33)" stroke="none" stroke-width="1px">200</text><text x="128.828125" y="0" dx="0em" dy="0.95em" style="text-anchor: middle; visibility: hidden; font-family: Roboto, sans-serif; font-size: 12px; font-weight: 200;" fill="rgb(33, 33, 33)" stroke="none" stroke-width="1px">250</text><text x="150.29947916666669" y="0" dx="0em" dy="0.95em" style="text-anchor: middle; visibility: inherit; font-family: Roboto, sans-serif; font-size: 12px; font-weight: 200;" fill="rgb(33, 33, 33)" stroke="none" stroke-width="1px">300</text><text x="171.77083333333331" y="0" dx="0em" dy="0.95em" style="text-anchor: middle; visibility: hidden; font-family: Roboto, sans-serif; font-size: 12px; font-weight: 200;" fill="rgb(33, 33, 33)" stroke="none" stroke-width="1px">350</text><text x="193.2421875" y="0" dx="0em" dy="0.95em" style="text-anchor: middle; visibility: inherit; font-family: Roboto, sans-serif; font-size: 12px; font-weight: 200;" fill="rgb(33, 33, 33)" stroke="none" stroke-width="1px">400</text><text x="214.71354166666669" y="0" dx="0em" dy="0.95em" style="text-anchor: middle; visibility: hidden; font-family: Roboto, sans-serif; font-size: 12px; font-weight: 200;" fill="rgb(33, 33, 33)" stroke="none" stroke-width="1px">450</text><text x="236.18489583333331" y="0" dx="0em" dy="0.95em" style="text-anchor: middle; visibility: inherit; font-family: Roboto, sans-serif; font-size: 12px; font-weight: 200;" fill="rgb(33, 33, 33)" stroke="none" stroke-width="1px">500</text><text x="257.65625" y="0" dx="0em" dy="0.95em" style="text-anchor: middle; visibility: hidden; font-family: Roboto, sans-serif; font-size: 12px; font-weight: 200;" fill="rgb(33, 33, 33)" stroke="none" stroke-width="1px">550</text></g><line x1="0" y1="0" x2="257.65625" y2="0" fill="rgb(0, 0, 0)" stroke="rgb(204, 204, 204)" stroke-width="1px"></line></g></g></g></g></svg>