<svg viewBox="0 0 301 200" xmlns="http://www.w3.org/2000/svg"><g><g><g><g><g><line x1="72.34375" y1="177" x2="67.34375" y2="177" style="visibility: inherit;" fill="rgb(0, 0, 0)" stroke="rgb(204, 204, 204)" stroke-width="1px"></line><line x1="72.34375" y1="159.3" x2="67.34375" y2="159.3" style="visibility: inherit;" fill="rgb(0, 0, 0)" stroke="rgb(204, 204, 204)" stroke-width="1px"></line><line x1="72.34375" y1="141.6" x2="67.34375" y2="141.6" style="visibility: inherit;" fill="rgb(0, 0, 0)" stroke="rgb(204, 204, 204)" stroke-width="1px"></line><line x1="72.34375" y1="123.89999999999999" x2="67.34375" y2="123.89999999999999" style="visibility: inherit;" fill="rgb(0, 0, 0)" stroke="rgb(204, 204, 204)" stroke-width="1px"></line><line x1="72.34375" y1="106.2" x2="67.34375" y2="106.2" style="visibility: inherit;" fill="rgb(0, 0, 0)" stroke="rgb(204, 204, 204)" stroke-width="1px"></line><line x1="72.34375" y1="88.5" x2="67.34375" y2="88.5" style="visibility: inherit;" fill="rgb(0, 0, 0)" stroke="rgb(204, 204, 204)" stroke-width="1px"></line><line x1="72.34375" y1="70.8" x2="67.34375" y2="70.8" style="visibility: inherit;" fill="rgb(0, 0, 0)" stroke="rgb(204, 204, 204)" stroke-width="1px"></line><line x1="72.34375" y1="53.10000000000001" x2="67.34375" y2="53.10000000000001" style="visibility: inherit;" fill="rgb(0, 0, 0)" stroke="rgb(204, 204, 204)" stroke-width="1px"></line><line x1="72.34375" y1="35.39999999999999" x2="67.34375" y2="35.39999999999999" style="visibility: inherit;" fill="rgb(0, 0, 0)" stroke="rgb(204, 204, 204)" stroke-width="1px"></line><line x1="72.34375" y1="17.700000000000017" x2="67.34375" y2="17.700000000000017" style="visibility: inherit;" fill="rgb(0, 0, 0)" stroke="rgb(204, 204, 204)" stroke-width="1px"></line><line x1="72.34375" y1="0" x2="67.34375" y2="0" style="visibility: inherit;" fill="rgb(0, 0, 0)" stroke="rgb(204, 204, 204)" stroke-width="1px"></line></g><g transform="translate(62.34375, 0)"><text x="0" y="177" dx="0em" dy="0.3em" style="text-anchor: end; visibility: hidden; font-family: Roboto, sans-serif; font-size: 12px; font-weight: 200;" fill="rgb(33, 33, 33)" stroke="none" stroke-width="1px">0</text><text x="0" y="159.3" dx="0em" dy="0.3em" style="text-anchor: end; visibility: inherit; font-family: Roboto, sans-serif; font-size: 12px; font-weight: 200;" fill="rgb(33, 33, 33)" stroke="none" stroke-width="1px">2e-4</text><text x="0" y="141.6" dx="0em" dy="0.3em" style="text-anchor: end; visibility: hidden; font-family: Roboto, sans-serif; font-size: 12px; font-weight: 200;" fill="rgb(33, 33, 33)" stroke="none" stroke-width="1px">4e-4</text><text x="0" y="123.89999999999999" dx="0em" dy="0.3em" style="text-anchor: end; visibility: inherit; font-family: Roboto, sans-serif; font-size: 12px; font-weight: 200;" fill="rgb(33, 33, 33)" stroke="none" stroke-width="1px">6e-4</text><text x="0" y="106.2" dx="0em" dy="0.3em" style="text-anchor: end; visibility: hidden; font-family: Roboto, sans-serif; font-size: 12px; font-weight: 200;" fill="rgb(33, 33, 33)" stroke="none" stroke-width="1px">8e-4</text><text x="0" y="88.5" dx="0em" dy="0.3em" style="text-anchor: end; visibility: inherit; font-family: Roboto, sans-serif; font-size: 12px; font-weight: 200;" fill="rgb(33, 33, 33)" stroke="none" stroke-width="1px">1e-3</text><text x="0" y="70.8" dx="0em" dy="0.3em" style="text-anchor: end; visibility: hidden; font-family: Roboto, sans-serif; font-size: 12px; font-weight: 200;" fill="rgb(33, 33, 33)" stroke="none" stroke-width="1px">1.2e-3</text><text x="0" y="53.10000000000001" dx="0em" dy="0.3em" style="text-anchor: end; visibility: inherit; font-family: Roboto, sans-serif; font-size: 12px; font-weight: 200;" fill="rgb(33, 33, 33)" stroke="none" stroke-width="1px">1.4e-3</text><text x="0" y="35.39999999999999" dx="0em" dy="0.3em" style="text-anchor: end; visibility: hidden; font-family: Roboto, sans-serif; font-size: 12px; font-weight: 200;" fill="rgb(33, 33, 33)" stroke="none" stroke-width="1px">1.6e-3</text><text x="0" y="17.700000000000017" dx="0em" dy="0.3em" style="text-anchor: end; visibility: inherit; font-family: Roboto, sans-serif; font-size: 12px; font-weight: 200;" fill="rgb(33, 33, 33)" stroke="none" stroke-width="1px">1.8e-3</text><text x="0" y="0" dx="0em" dy="0.3em" style="text-anchor: end; visibility: hidden; font-family: Roboto, sans-serif; font-size: 12px; font-weight: 200;" fill="rgb(33, 33, 33)" stroke="none" stroke-width="1px">2e-3</text></g><line x1="72.34375" y1="0" x2="72.34375" y2="177" fill="rgb(0, 0, 0)" stroke="rgb(204, 204, 204)" stroke-width="1px"></line></g></g><g transform="translate(72, 0)" clip-path="url(#clip_0)"><clipPath id="clip_0"><rect width="257" height="177"></rect></clipPath><g><g><g><line x1="0" y1="0" x2="0" y2="177" fill="rgb(0, 0, 0)" stroke="rgb(66, 66, 66)" stroke-width="1px" opacity="0.25"></line><line x1="21.471354166666664" y1="0" x2="21.471354166666664" y2="177" fill="rgb(0, 0, 0)" stroke="rgb(66, 66, 66)" stroke-width="1px" opacity="0.25"></line><line x1="42.94270833333333" y1="0" x2="42.94270833333333" y2="177" fill="rgb(0, 0, 0)" stroke="rgb(66, 66, 66)" stroke-width="1px" opacity="0.25"></line><line x1="64.4140625" y1="0" x2="64.4140625" y2="177" fill="rgb(0, 0, 0)" stroke="rgb(66, 66, 66)" stroke-width="1px" opacity="0.25"></line><line x1="85.88541666666666" y1="0" x2="85.88541666666666" y2="177" fill="rgb(0, 0, 0)" stroke="rgb(66, 66, 66)" stroke-width="1px" opacity="0.25"></line><line x1="107.35677083333334" y1="0" x2="107.35677083333334" y2="177" fill="rgb(0, 0, 0)" stroke="rgb(66, 66, 66)" stroke-width="1px" opacity="0.25"></line><line x1="128.828125" y1="0" x2="128.828125" y2="177" fill="rgb(0, 0, 0)" stroke="rgb(66, 66, 66)" stroke-width="1px" opacity="0.25"></line><line x1="150.29947916666669" y1="0" x2="150.29947916666669" y2="177" fill="rgb(0, 0, 0)" stroke="rgb(66, 66, 66)" stroke-width="1px" opacity="0.25"></line><line x1="171.77083333333331" y1="0" x2="171.77083333333331" y2="177" fill="rgb(0, 0, 0)" stroke="rgb(66, 66, 66)" stroke-width="1px" opacity="0.25"></line><line x1="193.2421875" y1="0" x2="193.2421875" y2="177" fill="rgb(0, 0, 0)" stroke="rgb(66, 66, 66)" stroke-width="1px" opacity="0.25"></line><line x1="214.71354166666669" y1="0" x2="214.71354166666669" y2="177" fill="rgb(0, 0, 0)" stroke="rgb(66, 66, 66)" stroke-width="1px" opacity="0.25"></line><line x1="236.18489583333331" y1="0" x2="236.18489583333331" y2="177" fill="rgb(0, 0, 0)" stroke="rgb(66, 66, 66)" stroke-width="1px" opacity="0.25"></line><line x1="257.65625" y1="0" x2="257.65625" y2="177" fill="rgb(0, 0, 0)" stroke="rgb(66, 66, 66)" stroke-width="1px" opacity="0.25"></line></g><g><line x1="0" y1="177" x2="257.65625" y2="177" fill="rgb(0, 0, 0)" stroke="rgb(66, 66, 66)" stroke-width="1px" opacity="0.25"></line><line x1="0" y1="159.3" x2="257.65625" y2="159.3" fill="rgb(0, 0, 0)" stroke="rgb(66, 66, 66)" stroke-width="1px" opacity="0.25"></line><line x1="0" y1="141.6" x2="257.65625" y2="141.6" fill="rgb(0, 0, 0)" stroke="rgb(66, 66, 66)" stroke-width="1px" opacity="0.25"></line><line x1="0" y1="123.89999999999999" x2="257.65625" y2="123.89999999999999" fill="rgb(0, 0, 0)" stroke="rgb(66, 66, 66)" stroke-width="1px" opacity="0.25"></line><line x1="0" y1="106.2" x2="257.65625" y2="106.2" fill="rgb(0, 0, 0)" stroke="rgb(66, 66, 66)" stroke-width="1px" opacity="0.25"></line><line x1="0" y1="88.5" x2="257.65625" y2="88.5" fill="rgb(0, 0, 0)" stroke="rgb(66, 66, 66)" stroke-width="1px" opacity="0.25"></line><line x1="0" y1="70.8" x2="257.65625" y2="70.8" fill="rgb(0, 0, 0)" stroke="rgb(66, 66, 66)" stroke-width="1px" opacity="0.25"></line><line x1="0" y1="53.10000000000001" x2="257.65625" y2="53.10000000000001" fill="rgb(0, 0, 0)" stroke="rgb(66, 66, 66)" stroke-width="1px" opacity="0.25"></line><line x1="0" y1="35.39999999999999" x2="257.65625" y2="35.39999999999999" fill="rgb(0, 0, 0)" stroke="rgb(66, 66, 66)" stroke-width="1px" opacity="0.25"></line><line x1="0" y1="17.700000000000017" x2="257.65625" y2="17.700000000000017" fill="rgb(0, 0, 0)" stroke="rgb(66, 66, 66)" stroke-width="1px" opacity="0.25"></line><line x1="0" y1="0" x2="257.65625" y2="0" fill="rgb(0, 0, 0)" stroke="rgb(66, 66, 66)" stroke-width="1px" opacity="0.25"></line></g></g></g><g><g><line x1="0" y1="177" x2="257.65625" y2="177" fill="rgb(0, 0, 0)" stroke="rgb(153, 153, 153)" stroke-width="1.5px"></line></g></g><g><g><line x1="21.471354166666664" y1="0" x2="21.471354166666664" y2="177" fill="rgb(0, 0, 0)" stroke="rgb(153, 153, 153)" stroke-width="1.5px"></line></g></g><g><g><g><g><g><path stroke="rgb(255, 112, 67)" stroke-width="2px" d="M31.777604166666666,-14.579974140040576L32.20703125,9.883796305395663L32.63645833333334,26.275584099814296L33.06588541666667,38.37073114514351L33.495312500000004,48.4905307861045L33.92473958333333,57.07078960072249L34.354166666666664,64.1613935334608L34.78359375,70.14949954859912L35.21302083333333,75.34403578424826L35.64244791666667,79.87841262761503L36.071875000000006,83.93047625245526L36.501302083333336,87.75368475867435L36.930729166666666,91.40516177681275L37.360156249999996,94.93350025545806L37.78958333333333,98.41021677525714L38.21901041666667,101.81666334788315L38.6484375,105.11000111396424L39.07786458333334,108.26422591740265L39.50729166666667,111.22623735386878L39.93671875,113.94704066729173L40.366145833333334,116.38088131835684L40.795572916666664,118.48601253982633L41.225,120.23640441871248L41.65442708333333,121.62226933683269L42.08385416666667,122.66261587897316L42.51328125,123.40034472104162L42.94270833333333,123.88810809748247L43.372135416666666,124.1775485726539L43.8015625,124.32646975899115L44.23098958333333,124.41476437775418L44.66041666666667,124.53931954619475L45.08984375,124.77200213866308L45.51927083333333,125.162419925211L45.94869791666667,125.88115048524924L46.378125,127.11857844656333L46.807552083333334,128.44982330384664L47.236979166666664,129.00375613057986L47.66640625,128.12813005107455L48.09583333333334,125.50135484011844L48.52526041666666,121.46658954257146L48.9546875,117.40529979974963L49.384114583333336,114.96916678547859L49.813541666666666,114.69447470549494L50.24296875,115.55249852640554L50.67239583333333,115.837987894658L51.10182291666667,113.52116079465486L51.53125,107.38681746111251L51.96067708333333,100.83751517627388L52.39010416666667,98.982916072011L52.81953125,102.64643186051399L53.248958333333334,108.66822788771242L53.67838541666667,113.61851668730378L54.1078125,115.7225661193952L54.53723958333333,114.81992621370591L54.96666666666667,111.87626913702115L55.39609375,108.34718370856717L55.825520833333336,105.544380760286L56.254947916666666,104.21006053034216L56.684375,104.39546892698854L57.11380208333333,105.64896403625607L57.54322916666666,107.48077344428748L57.97265625,109.94532661093399L58.40208333333333,113.19403283810243L58.83151041666667,116.13649479509331L59.260937500000004,117.24783762870356L59.690364583333334,116.363356330432L60.119791666666664,114.69119842909276L60.549218749999994,113.72658744617365L60.97864583333333,114.02123596449383L61.40807291666667,114.61712161358446L61.8375,114.40140766021796L62.266927083333336,113.55321781989187L62.69635416666667,113.13837735028937L63.125781249999996,113.73067764029838L63.55520833333333,114.81678902450949L63.98463541666666,115.53751831920817L64.4140625,115.68244718760252L64.84348958333332,115.78099819994532L65.27291666666667,116.35850373236462L65.70234375,117.36228064214811L66.13177083333333,118.37017865432426L66.56119791666667,119.1334583312273L66.99062500000001,119.77574759325944L67.42005208333333,120.55957096558996L67.84947916666665,121.58679694798775L68.27890625,122.75578370131552L68.70833333333333,123.93318265490234L69.13776041666667,125.09071789495647L69.5671875,126.29239529301412L69.99661458333334,127.60227223439142L70.42604166666666,129.02934817643836L70.85546875,130.54470843449235L71.28489583333334,132.1246669725515L71.71432291666666,133.76808533607982L72.14375000000001,135.48749682772905L72.57317708333333,137.29212756548077L73.00260416666667,139.17902838543523L73.43203125,141.13597764330916L73.86145833333333,143.14560489251744L74.29088541666667,145.1868512998335L74.72031249999999,147.23344741319306L75.14973958333334,149.2510232386412L75.57916666666667,151.1981591214426L76.00859375,153.02907991677057L76.43802083333334,154.6987084915163L76.86744791666666,156.1684468582389L77.296875,157.4123320718645L77.72630208333334,158.4214986108709L78.15572916666667,159.20694853080204L78.58515625,159.7948366655619L79.01458333333333,160.22110804292606L79.44401041666667,160.5214526974596L79.8734375,160.7241298009758L80.30286458333333,160.84760446788277L80.73229166666667,160.9024254324613L81.16171875,160.89659664826468L81.59114583333333,160.8382598682074L82.02057291666667,160.73597410682123L82.45,160.59657266701106L82.87942708333333,160.42506397602847L83.30885416666666,160.22528194694314L83.73828125,160.00133609154727L84.16770833333334,159.75690578157082L84.59713541666666,159.4950741167413L85.0265625,159.21864473453024L85.45598958333333,158.92998984450242L85.88541666666666,158.63152544293553L86.31484375000001,158.32540223014075L86.74427083333333,158.01326478354167L87.17369791666667,157.69744538952364L87.603125,157.37918810587144L88.03255208333333,157.0602791729034L88.46197916666667,156.7422498377273L88.89140624999999,156.42631324985996L89.32083333333334,156.11363104503835L89.75026041666666,155.80539319157833L90.1796875,155.5023389122216L90.60911458333334,155.20558348030318L91.03854166666666,154.91567165404558L91.46796875,154.6328970619943L91.89739583333333,154.3581199842738L92.32682291666667,154.09137132915203L92.75625,153.83294472517446L93.18567708333335,153.58278865856119L93.61510416666667,153.3413100881735L94.04453124999999,153.1079809977673L94.47395833333333,152.8829816855723L94.90338541666667,152.6659206468612L95.3328125,152.45660470495932L95.76223958333333,152.25465523358434L96.19166666666668,152.05997178086545L96.62109375,151.87214738794137L97.05052083333332,151.6907261578599L97.47994791666667,151.51553036808036L97.909375,151.34605518355966L98.33880208333333,151.18192197801545L98.76822916666667,151.0226568246726L99.19765625000001,150.86820820975117L99.62708333333333,150.7178394861985L100.05651041666665,150.57155065401457L100.4859375,150.42884718091227L100.91536458333333,150.28906453913078L101.34479166666667,150.15252211410552L101.77421875,150.0179320613388L102.20364583333334,149.8858043672517L102.63307291666666,149.75550026097335L103.0625,149.6260358293075L103.49192708333334,149.49815287068486L103.92135416666666,149.3706665681675L104.35078125000001,149.24349965108559L104.78020833333333,149.1159103210084L105.20963541666667,148.98808402754366L105.6390625,148.85899564647116L106.06848958333333,148.72815579688177L106.49791666666667,148.5953944833018L106.92734374999999,148.4601089945063L107.35677083333334,148.32143132330384L107.78619791666667,148.17879224242643L108.215625,148.03187494212762L108.64505208333334,147.87970838765614L109.07447916666666,147.72131639288273L109.50390625,147.5566268385155L109.93333333333334,147.3839990106644L110.36276041666667,147.20336336572655L110.7921875,147.01397295389324L111.22161458333333,146.81529460754246L111.65104166666667,146.60724075324833L112.08046875,146.39012562506832L112.50989583333333,146.16489707655273L112.93932291666667,145.93341475515626L113.36875,145.69766709278338L113.79817708333333,145.46139141416643L114.22760416666667,145.2298240950331L114.65703125,145.00684669869952L115.08645833333333,144.7976672683144L115.51588541666666,144.60729551897384L115.9453125,144.43977270671166L116.37473958333334,144.29666742612608L116.80416666666666,144.17929327860475L117.23359375,144.0872948190663L117.66302083333333,144.01905451482162L118.09244791666666,143.97284665424377L118.52187500000001,143.9460517616244L118.95130208333333,143.93645216873847L119.38072916666667,143.94191005371977L119.81015625,143.96066364529543L120.23958333333333,143.9917831197381L120.66901041666667,144.03313580655959L121.09843749999999,144.08376612514257L121.52786458333334,144.14357362361625L121.95729166666666,144.2118293819949L122.38671875,144.28701889514923L122.81614583333334,144.36895156209357L123.24557291666666,144.45765056402888L123.675,144.55272439622786L124.10442708333333,144.65365276951343L124.53385416666667,144.76018326636404L124.96328125,144.87177241640165L125.39270833333335,144.98854900407605L125.82213541666667,145.11029152013361L126.25156249999999,145.23671663878486L126.68098958333333,145.36721134604886L127.11041666666667,145.5020769975381L127.53984375,145.64068770082667L127.96927083333333,145.78296876093373L128.39869791666666,145.92869866860565L128.828125,146.07769712561276L129.25755208333334,146.2295391432708L129.68697916666665,146.384113966953L130.11640625,146.54171522520483L130.54583333333335,146.70155218150467L130.97526041666666,146.86332090455107L131.4046875,147.0277194060618L131.83411458333333,147.19372513750568L132.26354166666667,147.3608358395286L132.69296875,147.5292343860492L133.12239583333334,147.69857305905316L133.55182291666665,147.86925109033473L133.98125000000002,148.0403128992766L134.41067708333333,148.21181515103672L134.84010416666666,148.38331997848582L135.26953125,148.55519312946126L135.6989583333333,148.7270740075037L136.12838541666667,148.89855822944082L136.5578125,149.06859491416253L136.98723958333332,149.23782798391767L137.41666666666666,149.40673651685938L137.84609375,149.5746225012699L138.27552083333333,149.74041960190516L138.70494791666667,149.90448841522448L139.134375,150.06668470264412L139.56380208333331,150.22730209270958L139.99322916666668,150.38604953256436L140.42265625000002,150.54240930872038L140.85208333333333,150.69597703800537L141.28151041666666,150.846933018649L141.7109375,150.9946899935603L142.14036458333334,151.13988673361018L142.56979166666667,151.28284777561203L142.99921875,151.42259693343658L143.42864583333332,151.55838725727517L143.85807291666666,151.69041965086944L144.28750000000002,151.81929682544433L144.71692708333333,151.9450239323778L145.14635416666667,152.06729961605743L145.57578124999998,152.1853228372056L146.00520833333334,152.2999049378559L146.43463541666668,152.4104277526494L146.8640625,152.51726733217947L147.29348958333333,152.62054473382886L147.72291666666666,152.7203681365354L148.15234375,152.81595453084446L148.58177083333334,152.90706695336848L149.01119791666667,152.99382903717924L149.44062499999998,153.0767069819849L149.87005208333332,153.15612062509172L150.29947916666669,153.23163982643746L150.72890625,153.3032748887781L151.15833333333333,153.3710567203816L151.58776041666667,153.43418170628138L152.0171875,153.49439616361633L152.44661458333334,153.55092480999883L152.87604166666668,153.6033040214097L153.30546875,153.6521416604519L153.73489583333333,153.69749954366125L154.1643229166667,153.73921797832008L154.59375,153.77800012752414L155.02317708333334,153.81335661036428L155.45260416666667,153.8454625736922L155.88203124999998,153.87478164152708L156.31145833333335,153.9009326118976L156.74088541666666,153.92424259730615L157.1703125,153.9453117332887L157.59973958333333,153.96433062083088L158.02916666666667,153.98098502587527L158.45859375,153.99539343011566L158.88802083333334,154.00730856740847L159.31744791666665,154.01664801570587L159.746875,154.02317481162027L160.17630208333335,154.02809437760152L160.60572916666666,154.03213048225734L161.03515625,154.03529600403272L161.46458333333334,154.03647566959262L161.89401041666665,154.03627734153997L162.3234375,154.03398755402304L162.75286458333335,154.02974796993658L163.18229166666666,154.02398872934282L163.61171875,154.01734860311262L164.04114583333333,154.00997182982974L164.47057291666667,154.00198204256594L164.9,153.99302379623987L165.32942708333334,153.98267982923426L165.75885416666665,153.97136740316637L166.18828125000002,153.95918439421803L166.61770833333333,153.94674896774814L167.04713541666666,153.93465095653664L167.4765625,153.92257355083711L167.9059895833333,153.9111580972094L168.33541666666667,153.89992294181138L168.76484375,153.88865430245642L169.19427083333332,153.8786529020872L169.62369791666666,153.86890134355053L170.053125,153.8595258356072L170.48255208333333,153.85102091054432L170.91197916666667,153.84337368991692L171.34140625,153.8370812817011L171.77083333333331,153.83149203658104L172.20026041666668,153.82756153517403L172.62968750000002,153.82427495601587L173.05911458333333,153.82090080343187L173.48854166666666,153.8176708894316L173.91796875,153.81540943449363L174.34739583333334,153.8135729682399L174.77682291666667,153.81260193348862L175.20625,153.81242421094794L175.63567708333332,153.8130604061298L176.06510416666666,153.81354721134994L176.49453125000002,153.8139722000342L176.92395833333333,153.81408553034998L177.35338541666667,153.8135729682399L177.78281249999998,153.81333600485232L178.21223958333334,153.8134570622351L178.64166666666668,153.81428385840263L179.07109375,153.81535792071372L179.50052083333333,153.81597866176162L179.92994791666666,153.8164912238717L180.359375,153.81648092111573L180.78880208333334,153.81646546698175L181.21822916666667,153.81595548056066L181.64765624999998,153.81568760890514L182.07708333333332,153.81534246657975L182.50651041666669,153.814647030551L182.9359375,153.81388205091935L183.36536458333333,153.8126740527805L183.79479166666667,153.81071395345498L184.22421875,153.80871006741654L184.65364583333334,153.80650785332546L185.08307291666668,153.80456063244492L185.5125,153.8022038770141L185.94192708333333,153.7995071306359L186.3713541666667,153.79682841408066L186.80078125,153.79380455520004L187.23020833333334,153.7908528156113L187.65963541666667,153.78788819757756L188.08906249999998,153.78518629982136L188.51848958333335,153.78373876260594L188.94791666666666,153.783136051381L189.37734375,153.78435692796484L189.80677083333333,153.7875198740512L190.23619791666667,153.79261973826215L190.665625,153.79921350209042L191.09505208333334,153.80627346562687L191.52447916666665,153.81401083536912L191.95390625,153.8223380378913L192.38333333333335,153.8312834057724L192.81276041666666,153.8414676800603L193.2421875,153.8531072186306L193.67161458333334,153.86713184521068L194.10104166666665,153.88278945861384L194.53046875,153.90071110264398L194.95989583333335,153.91968105209526L195.38932291666666,153.93875145341735L195.81875,153.95682763878722L196.24817708333333,153.97342280298471L196.67760416666667,153.9881660467945L197.10703125,154.00052935397252L197.53645833333334,154.0131425029831L197.96588541666665,154.02701516391244L198.39531250000002,154.04229930241127L198.82473958333333,154.05974444397725L199.25416666666666,154.07977815298364L199.68359375,154.10135985107627L200.1130208333333,154.12257580133155L200.54244791666667,154.14241375797428L200.971875,154.15975072060246L201.40130208333332,154.17450426716823L201.83072916666666,154.18613607867155L202.26015625,154.19515099015553L202.68958333333333,154.2034884954337L203.11901041666667,154.21262703998946L203.5484375,154.22426400287077L203.97786458333331,154.2403826646041L204.40729166666668,154.260689396644L204.83671875000002,154.28368772368412L205.26614583333333,154.30808722553775L205.69557291666666,154.33110615808982L206.125,154.35092866059858L206.55442708333334,154.36552509013563L206.98385416666667,154.3735251801554L207.41328125,154.37579178647138L207.84270833333332,154.37501907977276L208.27213541666666,154.37415879964828L208.70156250000002,154.37731659435667L209.13098958333333,154.3874802631326L209.56041666666667,154.4063188524451L209.98984374999998,154.4329875363037L210.41927083333334,154.4657812085934L210.84869791666668,154.4996437918162L211.278125,154.5305288785603L211.70755208333333,154.55376674467698L212.13697916666666,154.56530583137646L212.56640625,154.56481387477834L212.99583333333334,154.55349629733246L213.42526041666667,154.53764550725464L213.85468749999998,154.52241030684672L214.28411458333332,154.51562594203278L214.71354166666669,154.522260916885L215.14296875,154.54643118241802L215.57239583333333,154.58686949964613L216.00182291666667,154.63923583261203L216.43125,154.69558933214284L216.86067708333334,154.74678887799382L217.29010416666668,154.78379895316903L217.71953125,154.80000261263922L218.14895833333333,154.79283704585396L218.5783854166667,154.7654729259666L219.0078125,154.72523551248014L219.43723958333334,154.6838029792998L219.86666666666667,154.65451224404387L220.29609374999998,154.64868088415824L220.72552083333335,154.67434247361962L221.15494791666666,154.7319580607582L221.584375,154.81530735665L222.01380208333333,154.91035028058104L222.44322916666667,155.0009990790859L222.87265625,155.069553617388L223.30208333333334,155.1020716909552L223.73151041666665,155.09154227434192L224.1609375,155.04080120113213L224.59036458333335,154.96233283588663L225.01979166666666,154.87449926545378L225.44921875,154.8019189252518L225.87864583333334,154.76812846132088L226.30807291666665,154.788880787557L226.7375,154.86799565074034L227.16692708333335,154.99635511182714L227.59635416666666,155.15141931641847L228.02578125,155.30273074214347L228.45520833333333,155.41838690510485L228.88463541666667,155.47254591761157L229.3140625,155.45134542149026L229.74348958333334,155.35746928467415L230.17291666666665,155.21077349362895L230.60234375000002,155.04532411100809L231.03177083333333,154.90397802600637L231.46119791666666,154.82843821914867L231.890625,154.84926524036564L232.3200520833333,154.9748970468063L232.74947916666667,155.18918664415833L233.17890625,155.4499712914112L233.60833333333332,155.70059742126614L234.03776041666666,155.88243333727587L234.4671875,155.94983911828604L234.89661458333333,155.87832897686167L235.32604166666667,155.67500022402965L235.75546875,155.37697755312547" style="fill: none;" fill="none"></path></g></g></g></g></g></g><g transform="translate(72, 177)" clip-path="url(#clip_1)"><clipPath id="clip_1"><rect width="257" height="23"></rect></clipPath><g><g><line x1="0" y1="0" x2="0" y2="5" style="visibility: inherit;" fill="rgb(0, 0, 0)" stroke="rgb(204, 204, 204)" stroke-width="1px"></line><line x1="21.471354166666664" y1="0" x2="21.471354166666664" y2="5" style="visibility: inherit;" fill="rgb(0, 0, 0)" stroke="rgb(204, 204, 204)" stroke-width="1px"></line><line x1="42.94270833333333" y1="0" x2="42.94270833333333" y2="5" style="visibility: inherit;" fill="rgb(0, 0, 0)" stroke="rgb(204, 204, 204)" stroke-width="1px"></line><line x1="64.4140625" y1="0" x2="64.4140625" y2="5" style="visibility: inherit;" fill="rgb(0, 0, 0)" stroke="rgb(204, 204, 204)" stroke-width="1px"></line><line x1="85.88541666666666" y1="0" x2="85.88541666666666" y2="5" style="visibility: inherit;" fill="rgb(0, 0, 0)" stroke="rgb(204, 204, 204)" stroke-width="1px"></line><line x1="107.35677083333334" y1="0" x2="107.35677083333334" y2="5" style="visibility: inherit;" fill="rgb(0, 0, 0)" stroke="rgb(204, 204, 204)" stroke-width="1px"></line><line x1="128.828125" y1="0" x2="128.828125" y2="5" style="visibility: inherit;" fill="rgb(0, 0, 0)" stroke="rgb(204, 204, 204)" stroke-width="1px"></line><line x1="150.29947916666669" y1="0" x2="150.29947916666669" y2="5" style="visibility: inherit;" fill="rgb(0, 0, 0)" stroke="rgb(204, 204, 204)" stroke-width="1px"></line><line x1="171.77083333333331" y1="0" x2="171.77083333333331" y2="5" style="visibility: inherit;" fill="rgb(0, 0, 0)" stroke="rgb(204, 204, 204)" stroke-width="1px"></line><line x1="193.2421875" y1="0" x2="193.2421875" y2="5" style="visibility: inherit;" fill="rgb(0, 0, 0)" stroke="rgb(204, 204, 204)" stroke-width="1px"></line><line x1="214.71354166666669" y1="0" x2="214.71354166666669" y2="5" style="visibility: inherit;" fill="rgb(0, 0, 0)" stroke="rgb(204, 204, 204)" stroke-width="1px"></line><line x1="236.18489583333331" y1="0" x2="236.18489583333331" y2="5" style="visibility: inherit;" fill="rgb(0, 0, 0)" stroke="rgb(204, 204, 204)" stroke-width="1px"></line><line x1="257.65625" y1="0" x2="257.65625" y2="5" style="visibility: inherit;" fill="rgb(0, 0, 0)" stroke="rgb(204, 204, 204)" stroke-width="1px"></line></g><g transform="translate(0, 8)"><text x="0" y="0" dx="0em" dy="0.95em" style="text-anchor: middle; visibility: hidden; font-family: Roboto, sans-serif; font-size: 12px; font-weight: 200;" fill="rgb(33, 33, 33)" stroke="none" stroke-width="1px">-50</text><text x="21.471354166666664" y="0" dx="0em" dy="0.95em" style="text-anchor: middle; visibility: inherit; font-family: Roboto, sans-serif; font-size: 12px; font-weight: 200;" fill="rgb(33, 33, 33)" stroke="none" stroke-width="1px">0</text><text x="42.94270833333333" y="0" dx="0em" dy="0.95em" style="text-anchor: middle; visibility: hidden; font-family: Roboto, sans-serif; font-size: 12px; font-weight: 200;" fill="rgb(33, 33, 33)" stroke="none" stroke-width="1px">50</text><text x="64.4140625" y="0" dx="0em" dy="0.95em" style="text-anchor: middle; visibility: inherit; font-family: Roboto, sans-serif; font-size: 12px; font-weight: 200;" fill="rgb(33, 33, 33)" stroke="none" stroke-width="1px">100</text><text x="85.88541666666666" y="0" dx="0em" dy="0.95em" style="text-anchor: middle; visibility: hidden; font-family: Roboto, sans-serif; font-size: 12px; font-weight: 200;" fill="rgb(33, 33, 33)" stroke="none" stroke-width="1px">150</text><text x="107.35677083333334" y="0" dx="0em" dy="0.95em" style="text-anchor: middle; visibility: inherit; font-family: Roboto, sans-serif; font-size: 12px; font-weight: 200;" fill="rgb(33, 33, 33)" stroke="none" stroke-width="1px">200</text><text x="128.828125" y="0" dx="0em" dy="0.95em" style="text-anchor: middle; visibility: hidden; font-family: Roboto, sans-serif; font-size: 12px; font-weight: 200;" fill="rgb(33, 33, 33)" stroke="none" stroke-width="1px">250</text><text x="150.29947916666669" y="0" dx="0em" dy="0.95em" style="text-anchor: middle; visibility: inherit; font-family: Roboto, sans-serif; font-size: 12px; font-weight: 200;" fill="rgb(33, 33, 33)" stroke="none" stroke-width="1px">300</text><text x="171.77083333333331" y="0" dx="0em" dy="0.95em" style="text-anchor: middle; visibility: hidden; font-family: Roboto, sans-serif; font-size: 12px; font-weight: 200;" fill="rgb(33, 33, 33)" stroke="none" stroke-width="1px">350</text><text x="193.2421875" y="0" dx="0em" dy="0.95em" style="text-anchor: middle; visibility: inherit; font-family: Roboto, sans-serif; font-size: 12px; font-weight: 200;" fill="rgb(33, 33, 33)" stroke="none" stroke-width="1px">400</text><text x="214.71354166666669" y="0" dx="0em" dy="0.95em" style="text-anchor: middle; visibility: hidden; font-family: Roboto, sans-serif; font-size: 12px; font-weight: 200;" fill="rgb(33, 33, 33)" stroke="none" stroke-width="1px">450</text><text x="236.18489583333331" y="0" dx="0em" dy="0.95em" style="text-anchor: middle; visibility: inherit; font-family: Roboto, sans-serif; font-size: 12px; font-weight: 200;" fill="rgb(33, 33, 33)" stroke="none" stroke-width="1px">500</text><text x="257.65625" y="0" dx="0em" dy="0.95em" style="text-anchor: middle; visibility: hidden; font-family: Roboto, sans-serif; font-size: 12px; font-weight: 200;" fill="rgb(33, 33, 33)" stroke="none" stroke-width="1px">550</text></g><line x1="0" y1="0" x2="257.65625" y2="0" fill="rgb(0, 0, 0)" stroke="rgb(204, 204, 204)" stroke-width="1px"></line></g></g></g></g></svg>