<svg viewBox="0 0 301 200" xmlns="http://www.w3.org/2000/svg"><g><g><g><g><g><line x1="61.953125" y1="177" x2="56.953125" y2="177" style="visibility: inherit;" fill="rgb(0, 0, 0)" stroke="rgb(204, 204, 204)" stroke-width="1px"></line><line x1="61.953125" y1="157.33333333333331" x2="56.953125" y2="157.33333333333331" style="visibility: inherit;" fill="rgb(0, 0, 0)" stroke="rgb(204, 204, 204)" stroke-width="1px"></line><line x1="61.953125" y1="137.66666666666666" x2="56.953125" y2="137.66666666666666" style="visibility: inherit;" fill="rgb(0, 0, 0)" stroke="rgb(204, 204, 204)" stroke-width="1px"></line><line x1="61.953125" y1="118.00000000000001" x2="56.953125" y2="118.00000000000001" style="visibility: inherit;" fill="rgb(0, 0, 0)" stroke="rgb(204, 204, 204)" stroke-width="1px"></line><line x1="61.953125" y1="98.33333333333334" x2="56.953125" y2="98.33333333333334" style="visibility: inherit;" fill="rgb(0, 0, 0)" stroke="rgb(204, 204, 204)" stroke-width="1px"></line><line x1="61.953125" y1="78.66666666666666" x2="56.953125" y2="78.66666666666666" style="visibility: inherit;" fill="rgb(0, 0, 0)" stroke="rgb(204, 204, 204)" stroke-width="1px"></line><line x1="61.953125" y1="58.999999999999986" x2="56.953125" y2="58.999999999999986" style="visibility: inherit;" fill="rgb(0, 0, 0)" stroke="rgb(204, 204, 204)" stroke-width="1px"></line><line x1="61.953125" y1="39.33333333333335" x2="56.953125" y2="39.33333333333335" style="visibility: inherit;" fill="rgb(0, 0, 0)" stroke="rgb(204, 204, 204)" stroke-width="1px"></line><line x1="61.953125" y1="19.666666666666657" x2="56.953125" y2="19.666666666666657" style="visibility: inherit;" fill="rgb(0, 0, 0)" stroke="rgb(204, 204, 204)" stroke-width="1px"></line><line x1="61.953125" y1="0" x2="56.953125" y2="0" style="visibility: inherit;" fill="rgb(0, 0, 0)" stroke="rgb(204, 204, 204)" stroke-width="1px"></line></g><g transform="translate(51.953125, 0)"><text x="0" y="177" dx="0em" dy="0.3em" style="text-anchor: end; visibility: hidden; font-family: Roboto, sans-serif; font-size: 12px; font-weight: 200;" fill="rgb(33, 33, 33)" stroke="none" stroke-width="1px">-5e-3</text><text x="0" y="157.33333333333331" dx="0em" dy="0.3em" style="text-anchor: end; visibility: inherit; font-family: Roboto, sans-serif; font-size: 12px; font-weight: 200;" fill="rgb(33, 33, 33)" stroke="none" stroke-width="1px">0</text><text x="0" y="137.66666666666666" dx="0em" dy="0.3em" style="text-anchor: end; visibility: hidden; font-family: Roboto, sans-serif; font-size: 12px; font-weight: 200;" fill="rgb(33, 33, 33)" stroke="none" stroke-width="1px">5e-3</text><text x="0" y="118.00000000000001" dx="0em" dy="0.3em" style="text-anchor: end; visibility: inherit; font-family: Roboto, sans-serif; font-size: 12px; font-weight: 200;" fill="rgb(33, 33, 33)" stroke="none" stroke-width="1px">0.01</text><text x="0" y="98.33333333333334" dx="0em" dy="0.3em" style="text-anchor: end; visibility: hidden; font-family: Roboto, sans-serif; font-size: 12px; font-weight: 200;" fill="rgb(33, 33, 33)" stroke="none" stroke-width="1px">0.015</text><text x="0" y="78.66666666666666" dx="0em" dy="0.3em" style="text-anchor: end; visibility: inherit; font-family: Roboto, sans-serif; font-size: 12px; font-weight: 200;" fill="rgb(33, 33, 33)" stroke="none" stroke-width="1px">0.02</text><text x="0" y="58.999999999999986" dx="0em" dy="0.3em" style="text-anchor: end; visibility: hidden; font-family: Roboto, sans-serif; font-size: 12px; font-weight: 200;" fill="rgb(33, 33, 33)" stroke="none" stroke-width="1px">0.025</text><text x="0" y="39.33333333333335" dx="0em" dy="0.3em" style="text-anchor: end; visibility: inherit; font-family: Roboto, sans-serif; font-size: 12px; font-weight: 200;" fill="rgb(33, 33, 33)" stroke="none" stroke-width="1px">0.03</text><text x="0" y="19.666666666666657" dx="0em" dy="0.3em" style="text-anchor: end; visibility: hidden; font-family: Roboto, sans-serif; font-size: 12px; font-weight: 200;" fill="rgb(33, 33, 33)" stroke="none" stroke-width="1px">0.035</text><text x="0" y="0" dx="0em" dy="0.3em" style="text-anchor: end; visibility: hidden; font-family: Roboto, sans-serif; font-size: 12px; font-weight: 200;" fill="rgb(33, 33, 33)" stroke="none" stroke-width="1px">0.04</text></g><line x1="61.953125" y1="0" x2="61.953125" y2="177" fill="rgb(0, 0, 0)" stroke="rgb(204, 204, 204)" stroke-width="1px"></line></g></g><g transform="translate(61, 0)" clip-path="url(#clip_0)"><clipPath id="clip_0"><rect width="268" height="177"></rect></clipPath><g><g><g><line x1="0" y1="0" x2="0" y2="177" fill="rgb(0, 0, 0)" stroke="rgb(66, 66, 66)" stroke-width="1px" opacity="0.25"></line><line x1="22.337239583333332" y1="0" x2="22.337239583333332" y2="177" fill="rgb(0, 0, 0)" stroke="rgb(66, 66, 66)" stroke-width="1px" opacity="0.25"></line><line x1="44.674479166666664" y1="0" x2="44.674479166666664" y2="177" fill="rgb(0, 0, 0)" stroke="rgb(66, 66, 66)" stroke-width="1px" opacity="0.25"></line><line x1="67.01171875" y1="0" x2="67.01171875" y2="177" fill="rgb(0, 0, 0)" stroke="rgb(66, 66, 66)" stroke-width="1px" opacity="0.25"></line><line x1="89.34895833333333" y1="0" x2="89.34895833333333" y2="177" fill="rgb(0, 0, 0)" stroke="rgb(66, 66, 66)" stroke-width="1px" opacity="0.25"></line><line x1="111.68619791666667" y1="0" x2="111.68619791666667" y2="177" fill="rgb(0, 0, 0)" stroke="rgb(66, 66, 66)" stroke-width="1px" opacity="0.25"></line><line x1="134.0234375" y1="0" x2="134.0234375" y2="177" fill="rgb(0, 0, 0)" stroke="rgb(66, 66, 66)" stroke-width="1px" opacity="0.25"></line><line x1="156.36067708333334" y1="0" x2="156.36067708333334" y2="177" fill="rgb(0, 0, 0)" stroke="rgb(66, 66, 66)" stroke-width="1px" opacity="0.25"></line><line x1="178.69791666666666" y1="0" x2="178.69791666666666" y2="177" fill="rgb(0, 0, 0)" stroke="rgb(66, 66, 66)" stroke-width="1px" opacity="0.25"></line><line x1="201.03515625" y1="0" x2="201.03515625" y2="177" fill="rgb(0, 0, 0)" stroke="rgb(66, 66, 66)" stroke-width="1px" opacity="0.25"></line><line x1="223.37239583333334" y1="0" x2="223.37239583333334" y2="177" fill="rgb(0, 0, 0)" stroke="rgb(66, 66, 66)" stroke-width="1px" opacity="0.25"></line><line x1="245.70963541666666" y1="0" x2="245.70963541666666" y2="177" fill="rgb(0, 0, 0)" stroke="rgb(66, 66, 66)" stroke-width="1px" opacity="0.25"></line><line x1="268.046875" y1="0" x2="268.046875" y2="177" fill="rgb(0, 0, 0)" stroke="rgb(66, 66, 66)" stroke-width="1px" opacity="0.25"></line></g><g><line x1="0" y1="177" x2="268.046875" y2="177" fill="rgb(0, 0, 0)" stroke="rgb(66, 66, 66)" stroke-width="1px" opacity="0.25"></line><line x1="0" y1="157.33333333333331" x2="268.046875" y2="157.33333333333331" fill="rgb(0, 0, 0)" stroke="rgb(66, 66, 66)" stroke-width="1px" opacity="0.25"></line><line x1="0" y1="137.66666666666666" x2="268.046875" y2="137.66666666666666" fill="rgb(0, 0, 0)" stroke="rgb(66, 66, 66)" stroke-width="1px" opacity="0.25"></line><line x1="0" y1="118.00000000000001" x2="268.046875" y2="118.00000000000001" fill="rgb(0, 0, 0)" stroke="rgb(66, 66, 66)" stroke-width="1px" opacity="0.25"></line><line x1="0" y1="98.33333333333334" x2="268.046875" y2="98.33333333333334" fill="rgb(0, 0, 0)" stroke="rgb(66, 66, 66)" stroke-width="1px" opacity="0.25"></line><line x1="0" y1="78.66666666666666" x2="268.046875" y2="78.66666666666666" fill="rgb(0, 0, 0)" stroke="rgb(66, 66, 66)" stroke-width="1px" opacity="0.25"></line><line x1="0" y1="58.999999999999986" x2="268.046875" y2="58.999999999999986" fill="rgb(0, 0, 0)" stroke="rgb(66, 66, 66)" stroke-width="1px" opacity="0.25"></line><line x1="0" y1="39.33333333333335" x2="268.046875" y2="39.33333333333335" fill="rgb(0, 0, 0)" stroke="rgb(66, 66, 66)" stroke-width="1px" opacity="0.25"></line><line x1="0" y1="19.666666666666657" x2="268.046875" y2="19.666666666666657" fill="rgb(0, 0, 0)" stroke="rgb(66, 66, 66)" stroke-width="1px" opacity="0.25"></line><line x1="0" y1="0" x2="268.046875" y2="0" fill="rgb(0, 0, 0)" stroke="rgb(66, 66, 66)" stroke-width="1px" opacity="0.25"></line></g></g></g><g><g><line x1="0" y1="157.33333333333331" x2="268.046875" y2="157.33333333333331" fill="rgb(0, 0, 0)" stroke="rgb(153, 153, 153)" stroke-width="1.5px"></line></g></g><g><g><line x1="22.337239583333332" y1="0" x2="22.337239583333332" y2="177" fill="rgb(0, 0, 0)" stroke="rgb(153, 153, 153)" stroke-width="1.5px"></line></g></g><g><g><g><g><g><path stroke="rgb(255, 112, 67)" stroke-width="2px" d="M29.931901041666666,-5.395805299282087L30.378645833333334,0.2873450915018674L30.825390625,5.576305627822889L31.272135416666668,10.534259219964357L31.71888020833333,15.055397937695181L32.165625,19.150579512119293L32.612369791666666,22.776182532310493L33.05911458333333,25.885361969470992L33.505859375,28.38995187481245L33.95260416666667,30.391628086566925L34.399348958333334,32.103105425834656L34.84609375,33.65664014220239L35.29283854166666,35.09453489383061L35.739583333333336,36.43070984880131L36.186328125,37.697327921787895L36.63307291666666,38.933746556440994L37.07981770833334,40.16405496994654L37.526562500000004,41.40979279081028L37.973307291666664,42.69528368115426L38.42005208333334,44.03524638712406L38.866796875,45.43861912190915L39.313541666666666,46.91350488861403L39.76028645833333,48.46185251077017L40.20703125,50.080877954761185L40.65377604166667,51.766031523545585L41.10052083333333,53.50921754042309L41.547265625,55.300567338864006L41.99401041666667,57.129721383253724L42.44075520833333,58.98695753514765L42.8875,60.86503730714321L43.33424479166666,62.759784648815774L43.78098958333333,64.66955111920834L44.227734375000004,66.59410227338472L44.674479166666664,68.535027941068L45.12122395833333,70.49796212712921L45.567968750000006,72.49523516992727L46.014713541666666,74.54423995316029L46.46145833333333,76.658574283123L46.908203125,78.84026024738948L47.35494791666667,81.08581047753492L47.801692708333334,83.40387013057868L48.2484375,85.81781776249409L48.69518229166667,88.32987327377002L49.14192708333333,90.90096495052178L49.588671875,93.46897221108277L50.03541666666667,95.9838117559751L50.48216145833333,98.4321238870422L50.92890625,100.83226491014162L51.37565104166667,103.1609295333425L51.82239583333333,105.2087291230758L52.269140625,106.56951346993446L52.715885416666666,107.3671903858582L53.16263020833333,108.98266985019048L53.609375,111.53554808596769L54.05611979166667,113.93724596997103L54.502864583333334,116.26118506242832L54.949609374999994,118.43701356649399L55.39635416666667,120.23833460112412L55.843098958333336,121.69706564644972L56.289843749999996,122.92392698675394L56.73658854166667,124.01167089988787L57.18333333333334,125.02914360662302L57.630078125,126.00686690708002L58.07682291666667,126.93306360642113L58.52356770833333,127.76624794056019L58.9703125,128.43633552640676L59.41705729166667,128.85418966660896L59.86380208333333,129.04899326091012L60.310546875,129.41713225344816L60.75729166666667,130.24675961832205L61.204036458333334,131.14046371479827L61.65078125,131.7502952888608L62.09752604166666,131.9886158928275L62.544270833333336,131.9921362300714L62.991015624999996,132.20406712591648L63.43776041666666,132.7904853435854L63.88450520833334,133.38283978030086L64.33125,133.7511399537325L64.77799479166667,133.92208694418272L65.22473958333333,134.11177487671375L65.671484375,134.49428644279638L66.11822916666667,134.9683304404219L66.56497395833333,135.36746378615499L67.01171875,135.65816818053523L67.45846354166666,135.92048092683154L67.90520833333333,136.2382527217269L68.351953125,136.60618474334478L68.79869791666667,136.9660503938794L69.24544270833334,137.28751469651857L69.6921875,137.58599240581194L70.13893229166666,137.89013708879548L70.58567708333332,138.20880453661084L71.032421875,138.53018641720215L71.47916666666667,138.84167215724787L71.92591145833333,139.14167925342917L72.37265625,139.43604684993625L72.81940104166667,139.7293392966191L73.26614583333333,140.02127086371183L73.712890625,140.30913444484273L74.15963541666667,140.5912834306558L74.60638020833333,140.86794677128393L75.05312500000001,141.1400897204876L75.49986979166667,141.40824344257513L75.94661458333333,141.67217898741364L76.39335937499999,141.9312900950511L76.84010416666668,142.18489083088934L77.28684895833334,142.43224397550026L77.73359375,142.67238793832558L78.18033854166667,142.90402228261033L78.62708333333333,143.125573663041L79.07382812499999,143.33537715425095L79.52057291666667,143.53190062195063L79.96731770833334,143.71394253584245L80.4140625,143.88084260374308L80.86080729166667,144.03260448885462L81.30755208333333,144.16998555821678L81.754296875,144.29427159577608L82.20104166666665,144.4071137898912L82.64778645833334,144.5102503299713L83.09453125,144.60527012993893L83.54127604166666,144.69352582717934L83.98802083333334,144.7761786567668L84.434765625,144.85420303046703L84.88151041666666,144.92847262198725L85.32825520833335,144.99967977652946L85.775,145.06835016359886L86.22174479166667,145.13488124062619L86.66848958333333,145.1996274224172L87.115234375,145.26290099695325L87.56197916666666,145.32493183016777L88.00872395833333,145.38588385035595L88.45546875000001,145.44586695358157L88.90221354166667,145.5049635618925L89.34895833333333,145.56326525534192L89.795703125,145.6208434663713L90.24244791666666,145.677738490204L90.68919270833332,145.73402725408474L91.13593750000001,145.78974272683263L91.58268229166667,145.84495084608594L92.02942708333333,145.8996919070681L92.47617187499999,145.95398330998918L92.92291666666667,146.0078717606763L93.36966145833333,146.06139755435288L93.81640625,146.1145982388407L94.26315104166667,146.16749945655465L94.70989583333333,146.22010578649738L95.156640625,146.27242363927266L95.60338541666667,146.32447774149477L96.05013020833333,146.37627633536854L96.496875,146.4278368211041L96.94361979166668,146.47914637749395L97.39036458333334,146.53020500453812L97.837109375,146.5809870598217L98.28385416666666,146.63150628035265L98.73059895833333,146.6817324447135L99.17734375,146.73165273169678L99.62408854166667,146.78126530970135L100.07083333333334,146.8305665155252L100.517578125,146.87954444376132L100.96432291666666,146.92816337818903L101.41106770833333,146.97641782400507L101.8578125,147.02427847559252L102.30455729166667,147.0717325117439L102.75130208333334,147.1187542900443L103.198046875,147.16536762130758L103.64479166666666,147.2115267155071L104.09153645833332,147.25723523584506L104.53828125,147.3024620451033L104.98502604166667,147.34716776385903L105.43177083333333,147.39138719253242L105.878515625,147.4350553092857L106.32526041666667,147.4781968407333L106.77200520833333,147.52077698645493L107.21875,147.56274904062352L107.66549479166667,147.60416795127094L108.11223958333333,147.64496778075892L108.55898437500001,147.68514669748643L109.00572916666667,147.7246689852327L109.45247395833333,147.7635593706121L109.89921874999999,147.80177206359804L110.34596354166668,147.8393098115921L110.79270833333334,147.8761616249879L111.239453125,147.91231010357538L111.68619791666667,147.94772044693428L112.13294270833333,147.9823816654583L112.57968749999999,148.01630658035478L113.02643229166667,148.0494622228046L113.47317708333334,148.08183668740094L113.919921875,148.1134675219655L114.36666666666667,148.14431351547438L114.81341145833333,148.1744122157494L115.26015625,148.20378560200334L115.70690104166665,148.23245473764837L116.15364583333334,148.2604736549159L116.600390625,148.28792935485643L117.04713541666666,148.3149161649247L117.49388020833334,148.34156870779893L117.940625,148.36802526935935L118.38736979166666,148.39450930493575L118.83411458333335,148.42129189148545L119.280859375,148.44854245210686L119.72760416666667,148.4764716209223L120.17434895833333,148.50526622124016L120.62109375,148.53510025516152L121.06783854166666,148.56598562809327L121.51458333333333,148.5979131820301L121.96132812500001,148.63077943151197L122.40807291666667,148.66442777464786L122.85481770833333,148.69869519894323L123.3015625,148.73341686030227L123.74830729166666,148.7684608834485L124.19505208333332,148.80370455111066L124.64179687500001,148.83906177803874L125.08854166666667,148.87450142701468L125.53528645833333,148.90993558118743L125.98203124999999,148.9453486719479L126.42877604166667,148.98074802570045L126.87552083333333,149.01611349483332L127.322265625,149.05141211052737L127.76901041666667,149.08666951519746L128.21575520833332,149.1218921194474L128.6625,149.15706435466805L129.10924479166667,149.19219995786747L129.55598958333334,149.22730625544983L130.002734375,149.26237042620778L130.44947916666666,149.29739063854018L130.89622395833334,149.33236689244708L131.34296875,149.36731384073695L131.78971354166666,149.40220767259598L132.23645833333333,149.43707586204013L132.683203125,149.47187445064387L133.12994791666665,149.50661442801356L133.57669270833333,149.54129029934606L134.0234375,149.57590023304024L134.47018229166667,149.61040393387276L134.91692708333332,149.64482704425853L135.363671875,149.67920756991953L135.81041666666667,149.7135120841364L136.25716145833331,149.74771219709268L136.70390625,149.78183171960214L137.1506510416667,149.8158189089348L137.59739583333334,149.8496604859829L138.044140625,149.88336011394858L138.49088541666669,149.91690176632255L138.93763020833333,149.95030925391862L139.384375,149.98354228151342L139.83111979166665,150.01661641771597L140.27786458333333,150.049510599114L140.724609375,150.08222803100944L141.17135416666665,150.11475360269347L141.61809895833332,150.14705068214485L142.06484375,150.17906477923194L142.51158854166667,150.21084122608104L142.95833333333334,150.24242169161639L143.40507812500002,150.273764964814L143.85182291666666,150.30480693963668L144.29856770833334,150.33555265298736L144.7453125,150.36600302066654L145.19205729166666,150.39618643249077L145.63880208333333,150.42608182504773L146.085546875,150.45565760321915L146.53229166666665,150.48491056170315L146.97903645833333,150.51383841099837L147.42578125,150.54240360328305L147.87252604166665,150.57065009698272L148.31927083333335,150.59858979750425L148.76601562500002,150.626181951724L149.21276041666667,150.6533885539199L149.65950520833334,150.6802100619922L150.10625000000002,150.70669135016698L150.55299479166666,150.73280586022884L150.99973958333334,150.75855221847692L151.44648437499998,150.78390249299505L151.89322916666666,150.8088905684029L152.33997395833333,150.83349858659008L152.78671874999998,150.8577590584755L153.23346354166665,150.8816870947679L153.68020833333335,150.9052634636561L154.126953125,150.92843871191144L154.57369791666667,150.95121192373335L155.02044270833335,150.97358172542107L155.4671875,150.99558566479632L155.91393229166667,151.0172438894709L156.36067708333334,151.0385394571349L156.807421875,151.0594893100982L157.25416666666666,151.0800888693581L157.70091145833334,151.1002982975915L158.14765624999998,151.12020001684627L158.59440104166666,151.13974686339498L159.04114583333333,151.15892372652888L159.487890625,151.1777663224687L159.93463541666668,151.19628151971847L160.38138020833335,151.21448351318637L160.828125,151.23239886108786L161.27486979166667,151.24999184720218L161.72161458333335,151.26727437693626L162.168359375,151.28427392430604L162.61510416666667,151.3009653047969L163.06184895833331,151.31738011352718L163.50859375,151.33357421432933L163.95533854166666,151.34955951261023L164.4020833333333,151.3653149449577L164.848828125,151.38083959557116L165.29557291666669,151.39611972744265L165.74231770833333,151.411136108761L166.1890625,151.42587591831884L166.63580729166668,151.4404284466679L167.08255208333333,151.45483078372976L167.529296875,151.46909620861211L167.97604166666667,151.4831940419972L168.42278645833332,151.49713206818947L168.86953125,151.51087457096827L169.31627604166667,151.52441697133082L169.76302083333331,151.53778994859505L170.209765625,151.5510447875907L170.6565104166667,151.56416637760898L171.10325520833334,151.57717440836132L171.55,151.59006704824665L171.99674479166669,151.60280125464L172.44348958333333,151.61539259615043L172.890234375,151.62784290437898L173.33697916666665,151.64019247454902L173.78372395833333,151.65247244387865L174.23046875,151.66467457016307L174.67721354166665,151.67683228012174L175.12395833333332,151.68892222084105L175.570703125,151.7009361501162L176.01744791666667,151.71292260537544L176.46419270833334,151.7248188542823L176.91093750000002,151.7366368022437L177.35768229166666,151.74840804437795L177.80442708333334,151.76013212278485L178.251171875,151.77182414817312L178.69791666666666,151.78347770993906L179.14466145833333,151.795145008713L179.59140625,151.80676926486194L180.03815104166665,151.8183129305641L180.48489583333333,151.82979157442847L180.931640625,151.84123816527426L181.37838541666665,151.85261881848177L181.82513020833335,151.86395688696453L182.27187500000002,151.8752803026388L182.71861979166667,151.88656388098994L183.16536458333334,151.89778197960308L183.61210937500002,151.90895154078802L184.05885416666666,151.92006615394106L184.50559895833334,151.93107911323506L184.95234374999998,151.9420357507964L185.39908854166666,151.9529594195386L185.84583333333333,151.96386339856932L186.29257812499998,151.97471700857085L186.73932291666665,151.98551200733831L187.18606770833335,151.99628044789037L187.6328125,152.0069847824052L188.07955729166667,152.01763691628972L188.52630208333335,152.0282281494389L188.973046875,152.0387868716692L189.41979166666667,152.04929339326918L189.86653645833334,152.05975183534127L190.31328125,152.07016448738673L190.76002604166666,152.08052585460246L191.20677083333334,152.09083227378628L191.65351562499998,152.10110938735306L192.10026041666666,152.1113498688986L192.54700520833333,152.1215706607327L192.99375,152.13173284133276L193.44049479166668,152.14184053180117L193.88723958333335,152.151909300747L194.333984375,152.1619116741543L194.78072916666667,152.1718522310257L195.22747395833335,152.18173783986518L195.67421875,152.19158315348128L196.12096354166667,152.20141518798965L196.56770833333331,152.2112170010805L197.014453125,152.22102705637616L197.46119791666666,152.23083619587123L197.9079427083333,152.24065769867352L198.3546875,152.25045996966463L198.80143229166669,152.26017661330602L199.24817708333333,152.26982411400726L199.694921875,152.27940979817262L200.14166666666668,152.28892359199622L200.58841145833333,152.29842044351003L201.03515625,152.3079200424254L201.48190104166667,152.31745352596045L201.92864583333332,152.32701356771094L202.375390625,152.33665007880577L202.82213541666667,152.34628933730224L203.26888020833331,152.35587960047027L203.715625,152.3653782835851L204.1623697916667,152.37473227021593L204.60911458333334,152.38390309674045L205.055859375,152.39286237334213L205.50260416666669,152.4017291540901L205.94934895833333,152.41056296601892L206.39609375,152.41943432576954L206.84283854166665,152.42838078116375L207.28958333333333,152.43743255361915L207.736328125,152.44655759011707L208.18307291666665,152.45563958398998L208.62981770833332,152.46458924468607L209.0765625,152.47333513976386L209.52330729166667,152.4818397214015L209.97005208333334,152.49007459978262L210.41679687500002,152.49806862262386L210.86354166666666,152.50591794898114L211.31028645833334,152.51371965371072L211.75703125,152.52160561208925L212.20377604166666,152.5297095309943L212.65052083333333,152.5380286630243L213.097265625,152.546497070541L213.54401041666665,152.5550533949087L213.99075520833333,152.56351264442006L214.4375,152.57173973849663L214.88424479166665,152.57959135435522L215.33098958333335,152.58696766973785L215.77773437500002,152.59390165346363L216.22447916666667,152.60050961220017L216.67122395833334,152.6069806587572L217.11796875000002,152.6136023545017L217.56471354166666,152.62057068074742L218.01145833333334,152.62804086568454L218.45820312499998,152.63603580432633L218.90494791666666,152.6444547586143L219.35169270833333,152.65299185117087L219.79843749999998,152.66137234183648L220.24518229166665,152.66928577423096L220.69192708333335,152.67641711297136L221.138671875,152.68267111480236L221.58541666666667,152.68809082234898L222.03216145833335,152.69301416600743L222.47890625,152.6977937289824L222.92565104166667,152.70292770676315L223.37239583333334,152.70883736759424L223.819140625,152.71584278376153L224.26588541666666,152.72397646618387L224.71263020833334,152.7330181648334L225.15937499999998,152.74248800023148L225.60611979166666,152.75177971242618L226.05286458333333,152.76023758823672L226.499609375,152.76734420036277L226.94635416666668,152.77280511893332L227.39309895833335,152.77668948688856L227.83984375,152.77941261976957L228.28658854166667,152.7817012052983L228.73333333333335,152.78444814899314L229.180078125,152.78851247175285L229.62682291666667,152.79457369757193L230.07356770833331,152.80287542939186L230.5203125,152.81315666406104L230.96705729166666,152.82463485002518L231.4138020833333,152.8362659746781L231.860546875,152.84679355969033L232.30729166666669,152.8551319235315L232.75403645833333,152.86057589979222L233.20078125,152.8630288715164L233.64752604166668,152.86302703991532L234.09427083333333,152.86166982352734L234.541015625,152.86060200010735L234.98776041666667,152.86149582142633L235.43450520833332,152.8656769087538L235.88125,152.87382799138626L236.32799479166667,152.88579750433564L236.77473958333331,152.90042833363015L237.221484375,152.9158449197809L237.6682291666667,152.92988276823112L238.11497395833334,152.94054039691886L238.56171875,152.94642853643745L239.00846354166669,152.94711538683623L239.45520833333333,152.94334824134907L239.901953125,152.93697335384786L240.34869791666665,152.93062731406343L240.79544270833333,152.92721000437936L241.2421875,152.92925773436824L241.68893229166665,152.93812314141542L242.13567708333332,152.95362443911532L242.582421875,152.97378258251896L243.02916666666667,152.99534831133982L243.47591145833334,153.01449586885673L243.92265625000002,153.02771224423003L244.36940104166666,153.03254446573555L244.81614583333334,153.0283491834998L245.262890625,153.01645842939615" style="fill: none;" fill="none"></path></g></g></g></g></g></g><g transform="translate(61, 177)" clip-path="url(#clip_1)"><clipPath id="clip_1"><rect width="268" height="23"></rect></clipPath><g><g><line x1="0" y1="0" x2="0" y2="5" style="visibility: inherit;" fill="rgb(0, 0, 0)" stroke="rgb(204, 204, 204)" stroke-width="1px"></line><line x1="22.337239583333332" y1="0" x2="22.337239583333332" y2="5" style="visibility: inherit;" fill="rgb(0, 0, 0)" stroke="rgb(204, 204, 204)" stroke-width="1px"></line><line x1="44.674479166666664" y1="0" x2="44.674479166666664" y2="5" style="visibility: inherit;" fill="rgb(0, 0, 0)" stroke="rgb(204, 204, 204)" stroke-width="1px"></line><line x1="67.01171875" y1="0" x2="67.01171875" y2="5" style="visibility: inherit;" fill="rgb(0, 0, 0)" stroke="rgb(204, 204, 204)" stroke-width="1px"></line><line x1="89.34895833333333" y1="0" x2="89.34895833333333" y2="5" style="visibility: inherit;" fill="rgb(0, 0, 0)" stroke="rgb(204, 204, 204)" stroke-width="1px"></line><line x1="111.68619791666667" y1="0" x2="111.68619791666667" y2="5" style="visibility: inherit;" fill="rgb(0, 0, 0)" stroke="rgb(204, 204, 204)" stroke-width="1px"></line><line x1="134.0234375" y1="0" x2="134.0234375" y2="5" style="visibility: inherit;" fill="rgb(0, 0, 0)" stroke="rgb(204, 204, 204)" stroke-width="1px"></line><line x1="156.36067708333334" y1="0" x2="156.36067708333334" y2="5" style="visibility: inherit;" fill="rgb(0, 0, 0)" stroke="rgb(204, 204, 204)" stroke-width="1px"></line><line x1="178.69791666666666" y1="0" x2="178.69791666666666" y2="5" style="visibility: inherit;" fill="rgb(0, 0, 0)" stroke="rgb(204, 204, 204)" stroke-width="1px"></line><line x1="201.03515625" y1="0" x2="201.03515625" y2="5" style="visibility: inherit;" fill="rgb(0, 0, 0)" stroke="rgb(204, 204, 204)" stroke-width="1px"></line><line x1="223.37239583333334" y1="0" x2="223.37239583333334" y2="5" style="visibility: inherit;" fill="rgb(0, 0, 0)" stroke="rgb(204, 204, 204)" stroke-width="1px"></line><line x1="245.70963541666666" y1="0" x2="245.70963541666666" y2="5" style="visibility: inherit;" fill="rgb(0, 0, 0)" stroke="rgb(204, 204, 204)" stroke-width="1px"></line><line x1="268.046875" y1="0" x2="268.046875" y2="5" style="visibility: inherit;" fill="rgb(0, 0, 0)" stroke="rgb(204, 204, 204)" stroke-width="1px"></line></g><g transform="translate(0, 8)"><text x="0" y="0" dx="0em" dy="0.95em" style="text-anchor: middle; visibility: hidden; font-family: Roboto, sans-serif; font-size: 12px; font-weight: 200;" fill="rgb(33, 33, 33)" stroke="none" stroke-width="1px">-50</text><text x="22.337239583333332" y="0" dx="0em" dy="0.95em" style="text-anchor: middle; visibility: inherit; font-family: Roboto, sans-serif; font-size: 12px; font-weight: 200;" fill="rgb(33, 33, 33)" stroke="none" stroke-width="1px">0</text><text x="44.674479166666664" y="0" dx="0em" dy="0.95em" style="text-anchor: middle; visibility: hidden; font-family: Roboto, sans-serif; font-size: 12px; font-weight: 200;" fill="rgb(33, 33, 33)" stroke="none" stroke-width="1px">50</text><text x="67.01171875" y="0" dx="0em" dy="0.95em" style="text-anchor: middle; visibility: inherit; font-family: Roboto, sans-serif; font-size: 12px; font-weight: 200;" fill="rgb(33, 33, 33)" stroke="none" stroke-width="1px">100</text><text x="89.34895833333333" y="0" dx="0em" dy="0.95em" style="text-anchor: middle; visibility: hidden; font-family: Roboto, sans-serif; font-size: 12px; font-weight: 200;" fill="rgb(33, 33, 33)" stroke="none" stroke-width="1px">150</text><text x="111.68619791666667" y="0" dx="0em" dy="0.95em" style="text-anchor: middle; visibility: inherit; font-family: Roboto, sans-serif; font-size: 12px; font-weight: 200;" fill="rgb(33, 33, 33)" stroke="none" stroke-width="1px">200</text><text x="134.0234375" y="0" dx="0em" dy="0.95em" style="text-anchor: middle; visibility: hidden; font-family: Roboto, sans-serif; font-size: 12px; font-weight: 200;" fill="rgb(33, 33, 33)" stroke="none" stroke-width="1px">250</text><text x="156.36067708333334" y="0" dx="0em" dy="0.95em" style="text-anchor: middle; visibility: inherit; font-family: Roboto, sans-serif; font-size: 12px; font-weight: 200;" fill="rgb(33, 33, 33)" stroke="none" stroke-width="1px">300</text><text x="178.69791666666666" y="0" dx="0em" dy="0.95em" style="text-anchor: middle; visibility: hidden; font-family: Roboto, sans-serif; font-size: 12px; font-weight: 200;" fill="rgb(33, 33, 33)" stroke="none" stroke-width="1px">350</text><text x="201.03515625" y="0" dx="0em" dy="0.95em" style="text-anchor: middle; visibility: inherit; font-family: Roboto, sans-serif; font-size: 12px; font-weight: 200;" fill="rgb(33, 33, 33)" stroke="none" stroke-width="1px">400</text><text x="223.37239583333334" y="0" dx="0em" dy="0.95em" style="text-anchor: middle; visibility: hidden; font-family: Roboto, sans-serif; font-size: 12px; font-weight: 200;" fill="rgb(33, 33, 33)" stroke="none" stroke-width="1px">450</text><text x="245.70963541666666" y="0" dx="0em" dy="0.95em" style="text-anchor: middle; visibility: inherit; font-family: Roboto, sans-serif; font-size: 12px; font-weight: 200;" fill="rgb(33, 33, 33)" stroke="none" stroke-width="1px">500</text><text x="268.046875" y="0" dx="0em" dy="0.95em" style="text-anchor: middle; visibility: hidden; font-family: Roboto, sans-serif; font-size: 12px; font-weight: 200;" fill="rgb(33, 33, 33)" stroke="none" stroke-width="1px">550</text></g><line x1="0" y1="0" x2="268.046875" y2="0" fill="rgb(0, 0, 0)" stroke="rgb(204, 204, 204)" stroke-width="1px"></line></g></g></g></g></svg>